<?xml version="1.0" encoding="UTF-8" standalone="no"?>
<!DOCTYPE svg PUBLIC "-//W3C//DTD SVG 1.1//EN"
 "http://www.w3.org/Graphics/SVG/1.1/DTD/svg11.dtd">
<!-- Generated by graphviz version 2.43.0 (0)
 -->
<!-- Title: src/crypto/base64.cpp Pages: 1 -->
<svg width="1474pt" height="431pt"
 viewBox="0.00 0.00 1474.00 431.00" xmlns="http://www.w3.org/2000/svg" xmlns:xlink="http://www.w3.org/1999/xlink">
<g id="graph0" class="graph" transform="scale(1 1) rotate(0) translate(4 427)">
<title>src/crypto/base64.cpp</title>
<polygon fill="white" stroke="transparent" points="-4,4 -4,-427 1470,-427 1470,4 -4,4"/>
<!-- Node1 -->
<g id="node1" class="node">
<title>Node1</title>
<g id="a_node1"><a xlink:title=" ">
<polygon fill="#bfbfbf" stroke="black" points="316.5,-403.5 316.5,-422.5 439.5,-422.5 439.5,-403.5 316.5,-403.5"/>
<text text-anchor="middle" x="378" y="-410.5" font-family="Helvetica,sans-Serif" font-size="10.00">src/crypto/base64.cpp</text>
</a>
</g>
</g>
<!-- Node2 -->
<g id="node2" class="node">
<title>Node2</title>
<g id="a_node2"><a xlink:href="src_2crypto_2openssl_2base64_8h.html" target="_top" xlink:title=" ">
<polygon fill="white" stroke="black" points="781.5,-347.5 781.5,-366.5 882.5,-366.5 882.5,-347.5 781.5,-347.5"/>
<text text-anchor="middle" x="832" y="-354.5" font-family="Helvetica,sans-Serif" font-size="10.00">openssl/base64.h</text>
</a>
</g>
</g>
<!-- Node1&#45;&gt;Node2 -->
<g id="edge1" class="edge">
<title>Node1&#45;&gt;Node2</title>
<path fill="none" stroke="midnightblue" d="M439.7,-404.66C526.81,-394.3 684.83,-375.5 771.36,-365.21"/>
<polygon fill="midnightblue" stroke="midnightblue" points="771.77,-368.69 781.29,-364.03 770.95,-361.74 771.77,-368.69"/>
</g>
<!-- Node3 -->
<g id="node3" class="node">
<title>Node3</title>
<g id="a_node3"><a xlink:href="logger_8h.html" target="_top" xlink:title=" ">
<polygon fill="white" stroke="black" points="242.5,-168.5 242.5,-187.5 329.5,-187.5 329.5,-168.5 242.5,-168.5"/>
<text text-anchor="middle" x="286" y="-175.5" font-family="Helvetica,sans-Serif" font-size="10.00">ccf/ds/logger.h</text>
</a>
</g>
</g>
<!-- Node1&#45;&gt;Node3 -->
<g id="edge58" class="edge">
<title>Node1&#45;&gt;Node3</title>
<path fill="none" stroke="midnightblue" d="M371.32,-403.16C353.62,-379.17 305.69,-310.17 288,-244 283.94,-228.82 283.7,-210.92 284.33,-197.76"/>
<polygon fill="midnightblue" stroke="midnightblue" points="287.84,-197.81 285.04,-187.59 280.86,-197.33 287.84,-197.81"/>
</g>
<!-- Node2&#45;&gt;Node3 -->
<g id="edge2" class="edge">
<title>Node2&#45;&gt;Node3</title>
<path fill="none" stroke="midnightblue" d="M781.23,-351.77C663.05,-340.92 374.34,-308.33 305,-244 292.35,-232.26 287.96,-212.62 286.52,-197.99"/>
<polygon fill="midnightblue" stroke="midnightblue" points="289.98,-197.36 285.89,-187.59 283,-197.78 289.98,-197.36"/>
</g>
<!-- Node17 -->
<g id="node17" class="node">
<title>Node17</title>
<g id="a_node17"><a xlink:href="openssl__wrappers_8h.html" target="_top" xlink:title=" ">
<polygon fill="white" stroke="black" points="768,-280.5 768,-310.5 896,-310.5 896,-280.5 768,-280.5"/>
<text text-anchor="start" x="776" y="-298.5" font-family="Helvetica,sans-Serif" font-size="10.00">crypto/openssl/openssl</text>
<text text-anchor="middle" x="832" y="-287.5" font-family="Helvetica,sans-Serif" font-size="10.00">_wrappers.h</text>
</a>
</g>
</g>
<!-- Node2&#45;&gt;Node17 -->
<g id="edge18" class="edge">
<title>Node2&#45;&gt;Node17</title>
<path fill="none" stroke="midnightblue" d="M832,-347.48C832,-340.47 832,-330.19 832,-320.7"/>
<polygon fill="midnightblue" stroke="midnightblue" points="835.5,-320.52 832,-310.52 828.5,-320.52 835.5,-320.52"/>
</g>
<!-- Node21 -->
<g id="node21" class="node">
<title>Node21</title>
<g id="a_node21"><a xlink:title=" ">
<polygon fill="white" stroke="#bfbfbf" points="720,-0.5 720,-19.5 764,-19.5 764,-0.5 720,-0.5"/>
<text text-anchor="middle" x="742" y="-7.5" font-family="Helvetica,sans-Serif" font-size="10.00">string</text>
</a>
</g>
</g>
<!-- Node2&#45;&gt;Node21 -->
<g id="edge56" class="edge">
<title>Node2&#45;&gt;Node21</title>
<path fill="none" stroke="midnightblue" d="M781.21,-354C600.57,-346.21 0,-314.37 0,-235 0,-235 0,-235 0,-121 0,-47.53 80.53,-73.05 152,-56 390.97,1.01 463.86,-61.28 709.83,-19.8"/>
<polygon fill="midnightblue" stroke="midnightblue" points="710.53,-23.23 719.79,-18.08 709.34,-16.33 710.53,-23.23"/>
</g>
<!-- Node22 -->
<g id="node22" class="node">
<title>Node22</title>
<g id="a_node22"><a xlink:title=" ">
<polygon fill="white" stroke="#bfbfbf" points="1023.5,-0.5 1023.5,-19.5 1070.5,-19.5 1070.5,-0.5 1023.5,-0.5"/>
<text text-anchor="middle" x="1047" y="-7.5" font-family="Helvetica,sans-Serif" font-size="10.00">vector</text>
</a>
</g>
</g>
<!-- Node2&#45;&gt;Node22 -->
<g id="edge57" class="edge">
<title>Node2&#45;&gt;Node22</title>
<path fill="none" stroke="midnightblue" d="M882.54,-351.7C1032.75,-338.24 1466,-294.28 1466,-235 1466,-235 1466,-235 1466,-121 1466,-41.54 1180.55,-18.31 1080.86,-12.62"/>
<polygon fill="midnightblue" stroke="midnightblue" points="1080.9,-9.12 1070.73,-12.07 1080.52,-16.11 1080.9,-9.12"/>
</g>
<!-- Node36 -->
<g id="node36" class="node">
<title>Node36</title>
<g id="a_node36"><a xlink:title=" ">
<polygon fill="white" stroke="#bfbfbf" points="1257.5,-224.5 1257.5,-243.5 1336.5,-243.5 1336.5,-224.5 1257.5,-224.5"/>
<text text-anchor="middle" x="1297" y="-231.5" font-family="Helvetica,sans-Serif" font-size="10.00">openssl/err.h</text>
</a>
</g>
</g>
<!-- Node2&#45;&gt;Node36 -->
<g id="edge54" class="edge">
<title>Node2&#45;&gt;Node36</title>
<path fill="none" stroke="midnightblue" d="M864.7,-347.49C946.89,-326.1 1162.12,-270.1 1254.2,-246.14"/>
<polygon fill="midnightblue" stroke="midnightblue" points="1255.23,-249.49 1264.03,-243.58 1253.47,-242.71 1255.23,-249.49"/>
</g>
<!-- Node37 -->
<g id="node37" class="node">
<title>Node37</title>
<g id="a_node37"><a xlink:title=" ">
<polygon fill="white" stroke="#bfbfbf" points="1354,-224.5 1354,-243.5 1438,-243.5 1438,-224.5 1354,-224.5"/>
<text text-anchor="middle" x="1396" y="-231.5" font-family="Helvetica,sans-Serif" font-size="10.00">openssl/evp.h</text>
</a>
</g>
</g>
<!-- Node2&#45;&gt;Node37 -->
<g id="edge55" class="edge">
<title>Node2&#45;&gt;Node37</title>
<path fill="none" stroke="midnightblue" d="M882.57,-347.57C932.41,-339.06 1010.66,-325.19 1078,-311 1176.71,-290.19 1291.62,-261.65 1352.67,-246.14"/>
<polygon fill="midnightblue" stroke="midnightblue" points="1353.88,-249.44 1362.71,-243.58 1352.16,-242.66 1353.88,-249.44"/>
</g>
<!-- Node4 -->
<g id="node4" class="node">
<title>Node4</title>
<g id="a_node4"><a xlink:href="enum__formatter_8h.html" target="_top" xlink:title=" ">
<polygon fill="white" stroke="black" points="344,-112.5 344,-131.5 480,-131.5 480,-112.5 344,-112.5"/>
<text text-anchor="middle" x="412" y="-119.5" font-family="Helvetica,sans-Serif" font-size="10.00">ccf/ds/enum_formatter.h</text>
</a>
</g>
</g>
<!-- Node3&#45;&gt;Node4 -->
<g id="edge3" class="edge">
<title>Node3&#45;&gt;Node4</title>
<path fill="none" stroke="midnightblue" d="M305.97,-168.44C326.61,-159.6 359.06,-145.69 382.63,-135.59"/>
<polygon fill="midnightblue" stroke="midnightblue" points="384.32,-138.67 392.13,-131.52 381.56,-132.24 384.32,-138.67"/>
</g>
<!-- Node5 -->
<g id="node5" class="node">
<title>Node5</title>
<g id="a_node5"><a xlink:title=" ">
<polygon fill="white" stroke="#bfbfbf" points="494.5,-56.5 494.5,-75.5 573.5,-75.5 573.5,-56.5 494.5,-56.5"/>
<text text-anchor="middle" x="534" y="-63.5" font-family="Helvetica,sans-Serif" font-size="10.00">fmt/format.h</text>
</a>
</g>
</g>
<!-- Node3&#45;&gt;Node5 -->
<g id="edge12" class="edge">
<title>Node3&#45;&gt;Node5</title>
<path fill="none" stroke="midnightblue" d="M329.6,-176.38C373.33,-173.8 440.91,-164.32 489,-132 506.22,-120.43 518.79,-99.87 526.2,-84.96"/>
<polygon fill="midnightblue" stroke="midnightblue" points="529.45,-86.27 530.5,-75.73 523.11,-83.32 529.45,-86.27"/>
</g>
<!-- Node6 -->
<g id="node6" class="node">
<title>Node6</title>
<g id="a_node6"><a xlink:href="thread__ids_8h.html" target="_top" xlink:title=" ">
<polygon fill="white" stroke="black" points="218,-112.5 218,-131.5 326,-131.5 326,-112.5 218,-112.5"/>
<text text-anchor="middle" x="272" y="-119.5" font-family="Helvetica,sans-Serif" font-size="10.00">ccf/ds/thread_ids.h</text>
</a>
</g>
</g>
<!-- Node3&#45;&gt;Node6 -->
<g id="edge5" class="edge">
<title>Node3&#45;&gt;Node6</title>
<path fill="none" stroke="midnightblue" d="M283.69,-168.08C281.83,-160.93 279.16,-150.64 276.85,-141.69"/>
<polygon fill="midnightblue" stroke="midnightblue" points="280.17,-140.55 274.27,-131.75 273.39,-142.31 280.17,-140.55"/>
</g>
<!-- Node11 -->
<g id="node11" class="node">
<title>Node11</title>
<g id="a_node11"><a xlink:title=" ">
<polygon fill="white" stroke="#bfbfbf" points="536.5,-112.5 536.5,-131.5 615.5,-131.5 615.5,-112.5 536.5,-112.5"/>
<text text-anchor="middle" x="576" y="-119.5" font-family="Helvetica,sans-Serif" font-size="10.00">fmt/chrono.h</text>
</a>
</g>
</g>
<!-- Node3&#45;&gt;Node11 -->
<g id="edge11" class="edge">
<title>Node3&#45;&gt;Node11</title>
<path fill="none" stroke="midnightblue" d="M329.73,-168.86C382.46,-159.04 470.88,-142.57 526.19,-132.27"/>
<polygon fill="midnightblue" stroke="midnightblue" points="526.93,-135.7 536.12,-130.43 525.65,-128.82 526.93,-135.7"/>
</g>
<!-- Node12 -->
<g id="node12" class="node">
<title>Node12</title>
<g id="a_node12"><a xlink:title=" ">
<polygon fill="white" stroke="#bfbfbf" points="66,-112.5 66,-131.5 126,-131.5 126,-112.5 66,-112.5"/>
<text text-anchor="middle" x="96" y="-119.5" font-family="Helvetica,sans-Serif" font-size="10.00">iostream</text>
</a>
</g>
</g>
<!-- Node3&#45;&gt;Node12 -->
<g id="edge13" class="edge">
<title>Node3&#45;&gt;Node12</title>
<path fill="none" stroke="midnightblue" d="M255.89,-168.44C223.37,-159.2 171.42,-144.44 135.61,-134.26"/>
<polygon fill="midnightblue" stroke="midnightblue" points="136.54,-130.88 125.97,-131.52 134.63,-137.62 136.54,-130.88"/>
</g>
<!-- Node13 -->
<g id="node13" class="node">
<title>Node13</title>
<g id="a_node13"><a xlink:title=" ">
<polygon fill="white" stroke="#bfbfbf" points="620,-56.5 620,-75.5 730,-75.5 730,-56.5 620,-56.5"/>
<text text-anchor="middle" x="675" y="-63.5" font-family="Helvetica,sans-Serif" font-size="10.00">nlohmann/json.hpp</text>
</a>
</g>
</g>
<!-- Node3&#45;&gt;Node13 -->
<g id="edge14" class="edge">
<title>Node3&#45;&gt;Node13</title>
<path fill="none" stroke="midnightblue" d="M329.71,-175.31C409.63,-171.56 575.64,-160.49 625,-132 643.81,-121.14 657.96,-100.14 666.32,-84.94"/>
<polygon fill="midnightblue" stroke="midnightblue" points="669.49,-86.44 670.97,-75.95 663.27,-83.22 669.49,-86.44"/>
</g>
<!-- Node14 -->
<g id="node14" class="node">
<title>Node14</title>
<g id="a_node14"><a xlink:title=" ">
<polygon fill="white" stroke="#bfbfbf" points="144,-112.5 144,-131.5 200,-131.5 200,-112.5 144,-112.5"/>
<text text-anchor="middle" x="172" y="-119.5" font-family="Helvetica,sans-Serif" font-size="10.00">optional</text>
</a>
</g>
</g>
<!-- Node3&#45;&gt;Node14 -->
<g id="edge15" class="edge">
<title>Node3&#45;&gt;Node14</title>
<path fill="none" stroke="midnightblue" d="M267.94,-168.44C249.43,-159.68 220.42,-145.94 199.14,-135.86"/>
<polygon fill="midnightblue" stroke="midnightblue" points="200.51,-132.63 189.98,-131.52 197.52,-138.96 200.51,-132.63"/>
</g>
<!-- Node15 -->
<g id="node15" class="node">
<title>Node15</title>
<g id="a_node15"><a xlink:title=" ">
<polygon fill="white" stroke="#bfbfbf" points="672,-112.5 672,-131.5 728,-131.5 728,-112.5 672,-112.5"/>
<text text-anchor="middle" x="700" y="-119.5" font-family="Helvetica,sans-Serif" font-size="10.00">sstream</text>
</a>
</g>
</g>
<!-- Node3&#45;&gt;Node15 -->
<g id="edge16" class="edge">
<title>Node3&#45;&gt;Node15</title>
<path fill="none" stroke="midnightblue" d="M329.71,-173.01C399.42,-166.36 539.94,-151.75 658,-132 659.24,-131.79 660.5,-131.57 661.77,-131.34"/>
<polygon fill="midnightblue" stroke="midnightblue" points="662.44,-134.78 671.6,-129.45 661.12,-127.91 662.44,-134.78"/>
</g>
<!-- Node16 -->
<g id="node16" class="node">
<title>Node16</title>
<g id="a_node16"><a xlink:title=" ">
<polygon fill="white" stroke="#bfbfbf" points="288.5,-0.5 288.5,-19.5 357.5,-19.5 357.5,-0.5 288.5,-0.5"/>
<text text-anchor="middle" x="323" y="-7.5" font-family="Helvetica,sans-Serif" font-size="10.00">type_traits</text>
</a>
</g>
</g>
<!-- Node3&#45;&gt;Node16 -->
<g id="edge17" class="edge">
<title>Node3&#45;&gt;Node16</title>
<path fill="none" stroke="midnightblue" d="M242.31,-174.82C182.53,-170.82 80.01,-159.97 57,-132 51.35,-125.14 52.59,-119.72 57,-112 101.1,-34.81 214.67,-16.23 278.23,-12.01"/>
<polygon fill="midnightblue" stroke="midnightblue" points="278.58,-15.49 288.36,-11.43 278.18,-8.51 278.58,-15.49"/>
</g>
<!-- Node4&#45;&gt;Node5 -->
<g id="edge4" class="edge">
<title>Node4&#45;&gt;Node5</title>
<path fill="none" stroke="midnightblue" d="M431.33,-112.44C451.32,-103.6 482.74,-89.69 505.56,-79.59"/>
<polygon fill="midnightblue" stroke="midnightblue" points="507.03,-82.76 514.76,-75.52 504.2,-76.36 507.03,-82.76"/>
</g>
<!-- Node6&#45;&gt;Node5 -->
<g id="edge6" class="edge">
<title>Node6&#45;&gt;Node5</title>
<path fill="none" stroke="midnightblue" d="M313.51,-112.44C359.95,-102.87 435.12,-87.38 484.56,-77.19"/>
<polygon fill="midnightblue" stroke="midnightblue" points="485.31,-80.61 494.39,-75.16 483.89,-73.75 485.31,-80.61"/>
</g>
<!-- Node7 -->
<g id="node7" class="node">
<title>Node7</title>
<g id="a_node7"><a xlink:title=" ">
<polygon fill="white" stroke="#bfbfbf" points="345,-56.5 345,-75.5 431,-75.5 431,-56.5 345,-56.5"/>
<text text-anchor="middle" x="388" y="-63.5" font-family="Helvetica,sans-Serif" font-size="10.00">fmt/ostream.h</text>
</a>
</g>
</g>
<!-- Node6&#45;&gt;Node7 -->
<g id="edge7" class="edge">
<title>Node6&#45;&gt;Node7</title>
<path fill="none" stroke="midnightblue" d="M290.38,-112.44C309.22,-103.68 338.73,-89.94 360.38,-79.86"/>
<polygon fill="midnightblue" stroke="midnightblue" points="362.12,-82.91 369.71,-75.52 359.16,-76.56 362.12,-82.91"/>
</g>
<!-- Node8 -->
<g id="node8" class="node">
<title>Node8</title>
<g id="a_node8"><a xlink:title=" ">
<polygon fill="white" stroke="#bfbfbf" points="161,-56.5 161,-75.5 205,-75.5 205,-56.5 161,-56.5"/>
<text text-anchor="middle" x="183" y="-63.5" font-family="Helvetica,sans-Serif" font-size="10.00">limits</text>
</a>
</g>
</g>
<!-- Node6&#45;&gt;Node8 -->
<g id="edge8" class="edge">
<title>Node6&#45;&gt;Node8</title>
<path fill="none" stroke="midnightblue" d="M257.7,-112.32C243.82,-103.9 222.51,-90.97 206.2,-81.07"/>
<polygon fill="midnightblue" stroke="midnightblue" points="207.63,-77.85 197.26,-75.65 204,-83.83 207.63,-77.85"/>
</g>
<!-- Node9 -->
<g id="node9" class="node">
<title>Node9</title>
<g id="a_node9"><a xlink:title=" ">
<polygon fill="white" stroke="#bfbfbf" points="223,-56.5 223,-75.5 261,-75.5 261,-56.5 223,-56.5"/>
<text text-anchor="middle" x="242" y="-63.5" font-family="Helvetica,sans-Serif" font-size="10.00">map</text>
</a>
</g>
</g>
<!-- Node6&#45;&gt;Node9 -->
<g id="edge9" class="edge">
<title>Node6&#45;&gt;Node9</title>
<path fill="none" stroke="midnightblue" d="M267.05,-112.08C262.9,-104.61 256.85,-93.72 251.73,-84.52"/>
<polygon fill="midnightblue" stroke="midnightblue" points="254.78,-82.79 246.86,-75.75 248.66,-86.19 254.78,-82.79"/>
</g>
<!-- Node10 -->
<g id="node10" class="node">
<title>Node10</title>
<g id="a_node10"><a xlink:title=" ">
<polygon fill="white" stroke="#bfbfbf" points="279,-56.5 279,-75.5 327,-75.5 327,-56.5 279,-56.5"/>
<text text-anchor="middle" x="303" y="-63.5" font-family="Helvetica,sans-Serif" font-size="10.00">thread</text>
</a>
</g>
</g>
<!-- Node6&#45;&gt;Node10 -->
<g id="edge10" class="edge">
<title>Node6&#45;&gt;Node10</title>
<path fill="none" stroke="midnightblue" d="M277.12,-112.08C281.41,-104.61 287.66,-93.72 292.94,-84.52"/>
<polygon fill="midnightblue" stroke="midnightblue" points="296.03,-86.17 297.98,-75.75 289.96,-82.68 296.03,-86.17"/>
</g>
<!-- Node17&#45;&gt;Node5 -->
<g id="edge43" class="edge">
<title>Node17&#45;&gt;Node5</title>
<path fill="none" stroke="midnightblue" d="M824.31,-280.44C813.25,-260.12 792.25,-221.34 775,-188 757.64,-154.46 766.77,-135.23 737,-112 713.52,-93.68 635.98,-80.28 583.82,-73.07"/>
<polygon fill="midnightblue" stroke="midnightblue" points="584.12,-69.58 573.75,-71.71 583.19,-76.52 584.12,-69.58"/>
</g>
<!-- Node18 -->
<g id="node18" class="node">
<title>Node18</title>
<g id="a_node18"><a xlink:href="pem_8h.html" target="_top" xlink:title=" ">
<polygon fill="white" stroke="black" points="822,-224.5 822,-243.5 920,-243.5 920,-224.5 822,-224.5"/>
<text text-anchor="middle" x="871" y="-231.5" font-family="Helvetica,sans-Serif" font-size="10.00">ccf/crypto/pem.h</text>
</a>
</g>
</g>
<!-- Node17&#45;&gt;Node18 -->
<g id="edge19" class="edge">
<title>Node17&#45;&gt;Node18</title>
<path fill="none" stroke="midnightblue" d="M841.24,-280.4C846.79,-271.93 853.89,-261.1 859.77,-252.14"/>
<polygon fill="midnightblue" stroke="midnightblue" points="862.77,-253.94 865.33,-243.66 856.92,-250.1 862.77,-253.94"/>
</g>
<!-- Node31 -->
<g id="node31" class="node">
<title>Node31</title>
<g id="a_node31"><a xlink:title=" ">
<polygon fill="white" stroke="#bfbfbf" points="784,-168.5 784,-187.5 842,-187.5 842,-168.5 784,-168.5"/>
<text text-anchor="middle" x="813" y="-175.5" font-family="Helvetica,sans-Serif" font-size="10.00">memory</text>
</a>
</g>
</g>
<!-- Node17&#45;&gt;Node31 -->
<g id="edge44" class="edge">
<title>Node17&#45;&gt;Node31</title>
<path fill="none" stroke="midnightblue" d="M825.09,-280.31C820.65,-270.4 815.31,-256.72 813,-244 810.19,-228.54 810.43,-210.67 811.24,-197.59"/>
<polygon fill="midnightblue" stroke="midnightblue" points="814.74,-197.74 812.04,-187.5 807.76,-197.2 814.74,-197.74"/>
</g>
<!-- Node33 -->
<g id="node33" class="node">
<title>Node33</title>
<g id="a_node33"><a xlink:title=" ">
<polygon fill="white" stroke="#bfbfbf" points="938.5,-224.5 938.5,-243.5 1027.5,-243.5 1027.5,-224.5 938.5,-224.5"/>
<text text-anchor="middle" x="983" y="-231.5" font-family="Helvetica,sans-Serif" font-size="10.00">openssl/asn1.h</text>
</a>
</g>
</g>
<!-- Node17&#45;&gt;Node33 -->
<g id="edge45" class="edge">
<title>Node17&#45;&gt;Node33</title>
<path fill="none" stroke="midnightblue" d="M867.78,-280.4C893.23,-270.37 927.1,-257.03 951.52,-247.4"/>
<polygon fill="midnightblue" stroke="midnightblue" points="953.01,-250.58 961.03,-243.66 950.44,-244.07 953.01,-250.58"/>
</g>
<!-- Node34 -->
<g id="node34" class="node">
<title>Node34</title>
<g id="a_node34"><a xlink:title=" ">
<polygon fill="white" stroke="#bfbfbf" points="1045.5,-224.5 1045.5,-243.5 1122.5,-243.5 1122.5,-224.5 1045.5,-224.5"/>
<text text-anchor="middle" x="1084" y="-231.5" font-family="Helvetica,sans-Serif" font-size="10.00">openssl/ec.h</text>
</a>
</g>
</g>
<!-- Node17&#45;&gt;Node34 -->
<g id="edge46" class="edge">
<title>Node17&#45;&gt;Node34</title>
<path fill="none" stroke="midnightblue" d="M891.4,-280.47C936.3,-269.87 997.03,-255.53 1038.21,-245.81"/>
<polygon fill="midnightblue" stroke="midnightblue" points="1039.04,-249.21 1047.97,-243.51 1037.44,-242.4 1039.04,-249.21"/>
</g>
<!-- Node35 -->
<g id="node35" class="node">
<title>Node35</title>
<g id="a_node35"><a xlink:title=" ">
<polygon fill="white" stroke="#bfbfbf" points="1140.5,-224.5 1140.5,-243.5 1239.5,-243.5 1239.5,-224.5 1140.5,-224.5"/>
<text text-anchor="middle" x="1190" y="-231.5" font-family="Helvetica,sans-Serif" font-size="10.00">openssl/engine.h</text>
</a>
</g>
</g>
<!-- Node17&#45;&gt;Node35 -->
<g id="edge47" class="edge">
<title>Node17&#45;&gt;Node35</title>
<path fill="none" stroke="midnightblue" d="M896,-283.86C962.44,-272.82 1065.52,-255.69 1130.32,-244.92"/>
<polygon fill="midnightblue" stroke="midnightblue" points="1131.08,-248.34 1140.37,-243.25 1129.94,-241.43 1131.08,-248.34"/>
</g>
<!-- Node17&#45;&gt;Node36 -->
<g id="edge48" class="edge">
<title>Node17&#45;&gt;Node36</title>
<path fill="none" stroke="midnightblue" d="M896.11,-288.04C976.05,-279.69 1117.1,-264.01 1247.33,-244.18"/>
<polygon fill="midnightblue" stroke="midnightblue" points="1248.13,-247.6 1257.48,-242.62 1247.07,-240.68 1248.13,-247.6"/>
</g>
<!-- Node17&#45;&gt;Node37 -->
<g id="edge49" class="edge">
<title>Node17&#45;&gt;Node37</title>
<path fill="none" stroke="midnightblue" d="M896.3,-289.85C991.91,-282.56 1177.38,-267.01 1343.83,-244.22"/>
<polygon fill="midnightblue" stroke="midnightblue" points="1344.33,-247.69 1353.76,-242.85 1343.37,-240.75 1344.33,-247.69"/>
</g>
<!-- Node38 -->
<g id="node38" class="node">
<title>Node38</title>
<g id="a_node38"><a xlink:title=" ">
<polygon fill="white" stroke="#bfbfbf" points="314,-224.5 314,-243.5 402,-243.5 402,-224.5 314,-224.5"/>
<text text-anchor="middle" x="358" y="-231.5" font-family="Helvetica,sans-Serif" font-size="10.00">openssl/pem.h</text>
</a>
</g>
</g>
<!-- Node17&#45;&gt;Node38 -->
<g id="edge50" class="edge">
<title>Node17&#45;&gt;Node38</title>
<path fill="none" stroke="midnightblue" d="M767.68,-287.77C687.09,-279.12 544.51,-263.09 412.51,-244.16"/>
<polygon fill="midnightblue" stroke="midnightblue" points="412.62,-240.64 402.22,-242.68 411.62,-247.57 412.62,-240.64"/>
</g>
<!-- Node39 -->
<g id="node39" class="node">
<title>Node39</title>
<g id="a_node39"><a xlink:title=" ">
<polygon fill="white" stroke="#bfbfbf" points="420,-224.5 420,-243.5 500,-243.5 500,-224.5 420,-224.5"/>
<text text-anchor="middle" x="460" y="-231.5" font-family="Helvetica,sans-Serif" font-size="10.00">openssl/ssl.h</text>
</a>
</g>
</g>
<!-- Node17&#45;&gt;Node39 -->
<g id="edge51" class="edge">
<title>Node17&#45;&gt;Node39</title>
<path fill="none" stroke="midnightblue" d="M767.88,-284.99C704.87,-275.52 605.73,-260.32 510.22,-244.17"/>
<polygon fill="midnightblue" stroke="midnightblue" points="510.54,-240.68 500.1,-242.45 509.37,-247.58 510.54,-240.68"/>
</g>
<!-- Node40 -->
<g id="node40" class="node">
<title>Node40</title>
<g id="a_node40"><a xlink:title=" ">
<polygon fill="white" stroke="#bfbfbf" points="518,-224.5 518,-243.5 608,-243.5 608,-224.5 518,-224.5"/>
<text text-anchor="middle" x="563" y="-231.5" font-family="Helvetica,sans-Serif" font-size="10.00">openssl/x509.h</text>
</a>
</g>
</g>
<!-- Node17&#45;&gt;Node40 -->
<g id="edge52" class="edge">
<title>Node17&#45;&gt;Node40</title>
<path fill="none" stroke="midnightblue" d="M768.59,-280.47C720.46,-269.83 655.29,-255.41 611.33,-245.69"/>
<polygon fill="midnightblue" stroke="midnightblue" points="611.98,-242.25 601.46,-243.51 610.47,-249.08 611.98,-242.25"/>
</g>
<!-- Node41 -->
<g id="node41" class="node">
<title>Node41</title>
<g id="a_node41"><a xlink:title=" ">
<polygon fill="white" stroke="#bfbfbf" points="626,-224.5 626,-243.5 728,-243.5 728,-224.5 626,-224.5"/>
<text text-anchor="middle" x="677" y="-231.5" font-family="Helvetica,sans-Serif" font-size="10.00">openssl/x509v3.h</text>
</a>
</g>
</g>
<!-- Node17&#45;&gt;Node41 -->
<g id="edge53" class="edge">
<title>Node17&#45;&gt;Node41</title>
<path fill="none" stroke="midnightblue" d="M795.27,-280.4C769.03,-270.33 734.07,-256.91 708.98,-247.28"/>
<polygon fill="midnightblue" stroke="midnightblue" points="710.14,-243.97 699.55,-243.66 707.64,-250.51 710.14,-243.97"/>
</g>
<!-- Node19 -->
<g id="node19" class="node">
<title>Node19</title>
<g id="a_node19"><a xlink:href="json_8h.html" target="_top" xlink:title=" ">
<polygon fill="white" stroke="black" points="860.5,-168.5 860.5,-187.5 937.5,-187.5 937.5,-168.5 860.5,-168.5"/>
<text text-anchor="middle" x="899" y="-175.5" font-family="Helvetica,sans-Serif" font-size="10.00">ccf/ds/json.h</text>
</a>
</g>
</g>
<!-- Node18&#45;&gt;Node19 -->
<g id="edge20" class="edge">
<title>Node18&#45;&gt;Node19</title>
<path fill="none" stroke="midnightblue" d="M875.62,-224.08C879.46,-216.69 885.02,-205.95 889.76,-196.81"/>
<polygon fill="midnightblue" stroke="midnightblue" points="892.97,-198.24 894.46,-187.75 886.75,-195.02 892.97,-198.24"/>
</g>
<!-- Node18&#45;&gt;Node22 -->
<g id="edge42" class="edge">
<title>Node18&#45;&gt;Node22</title>
<path fill="none" stroke="midnightblue" d="M902.57,-224.36C923.26,-217.36 949.75,-205.72 968,-188 1014.62,-142.73 1035.86,-65.05 1043.48,-29.61"/>
<polygon fill="midnightblue" stroke="midnightblue" points="1046.93,-30.17 1045.49,-19.68 1040.07,-28.78 1046.93,-30.17"/>
</g>
<!-- Node28 -->
<g id="node28" class="node">
<title>Node28</title>
<g id="a_node28"><a xlink:title=" ">
<polygon fill="white" stroke="#bfbfbf" points="932.5,-0.5 932.5,-19.5 1005.5,-19.5 1005.5,-0.5 932.5,-0.5"/>
<text text-anchor="middle" x="969" y="-7.5" font-family="Helvetica,sans-Serif" font-size="10.00">string_view</text>
</a>
</g>
</g>
<!-- Node18&#45;&gt;Node28 -->
<g id="edge41" class="edge">
<title>Node18&#45;&gt;Node28</title>
<path fill="none" stroke="midnightblue" d="M893.69,-224.35C910.43,-216.95 932.69,-204.81 947,-188 981.67,-147.28 981.05,-128.55 991,-76 992.65,-67.27 993,-64.66 991,-56 988.77,-46.36 984.18,-36.41 979.76,-28.31"/>
<polygon fill="midnightblue" stroke="midnightblue" points="982.7,-26.4 974.64,-19.52 976.65,-29.92 982.7,-26.4"/>
</g>
<!-- Node29 -->
<g id="node29" class="node">
<title>Node29</title>
<g id="a_node29"><a xlink:title=" ">
<polygon fill="white" stroke="#bfbfbf" points="1076,-168.5 1076,-187.5 1126,-187.5 1126,-168.5 1076,-168.5"/>
<text text-anchor="middle" x="1101" y="-175.5" font-family="Helvetica,sans-Serif" font-size="10.00">cstring</text>
</a>
</g>
</g>
<!-- Node18&#45;&gt;Node29 -->
<g id="edge37" class="edge">
<title>Node18&#45;&gt;Node29</title>
<path fill="none" stroke="midnightblue" d="M907.44,-224.44C950.86,-214.25 1022.88,-197.34 1065.76,-187.27"/>
<polygon fill="midnightblue" stroke="midnightblue" points="1066.8,-190.62 1075.74,-184.93 1065.2,-183.81 1066.8,-190.62"/>
</g>
<!-- Node30 -->
<g id="node30" class="node">
<title>Node30</title>
<g id="a_node30"><a xlink:title=" ">
<polygon fill="white" stroke="#bfbfbf" points="1144.5,-168.5 1144.5,-187.5 1209.5,-187.5 1209.5,-168.5 1144.5,-168.5"/>
<text text-anchor="middle" x="1177" y="-175.5" font-family="Helvetica,sans-Serif" font-size="10.00">exception</text>
</a>
</g>
</g>
<!-- Node18&#45;&gt;Node30 -->
<g id="edge38" class="edge">
<title>Node18&#45;&gt;Node30</title>
<path fill="none" stroke="midnightblue" d="M920.26,-225.24C971.29,-217.06 1053.61,-203.47 1134.6,-188.01"/>
<polygon fill="midnightblue" stroke="midnightblue" points="1135.31,-191.44 1144.47,-186.11 1133.99,-184.56 1135.31,-191.44"/>
</g>
<!-- Node18&#45;&gt;Node31 -->
<g id="edge39" class="edge">
<title>Node18&#45;&gt;Node31</title>
<path fill="none" stroke="midnightblue" d="M861.68,-224.32C853.11,-216.34 840.19,-204.31 829.81,-194.65"/>
<polygon fill="midnightblue" stroke="midnightblue" points="832.19,-192.09 822.49,-187.83 827.42,-197.21 832.19,-192.09"/>
</g>
<!-- Node32 -->
<g id="node32" class="node">
<title>Node32</title>
<g id="a_node32"><a xlink:title=" ">
<polygon fill="white" stroke="#bfbfbf" points="1228,-168.5 1228,-187.5 1268,-187.5 1268,-168.5 1228,-168.5"/>
<text text-anchor="middle" x="1248" y="-175.5" font-family="Helvetica,sans-Serif" font-size="10.00">span</text>
</a>
</g>
</g>
<!-- Node18&#45;&gt;Node32 -->
<g id="edge40" class="edge">
<title>Node18&#45;&gt;Node32</title>
<path fill="none" stroke="midnightblue" d="M920.24,-225.39C923.54,-224.91 926.82,-224.44 930,-224 1054.96,-206.69 1090.67,-214.85 1217.72,-187.93"/>
<polygon fill="midnightblue" stroke="midnightblue" points="1218.8,-191.28 1227.84,-185.76 1217.33,-184.44 1218.8,-191.28"/>
</g>
<!-- Node19&#45;&gt;Node5 -->
<g id="edge35" class="edge">
<title>Node19&#45;&gt;Node5</title>
<path fill="none" stroke="midnightblue" d="M882.49,-168.36C850.36,-151.59 781.58,-115.93 770,-112 707.64,-90.81 632.41,-78.64 583.92,-72.42"/>
<polygon fill="midnightblue" stroke="midnightblue" points="584.05,-68.91 573.7,-71.15 583.19,-75.86 584.05,-68.91"/>
</g>
<!-- Node19&#45;&gt;Node15 -->
<g id="edge36" class="edge">
<title>Node19&#45;&gt;Node15</title>
<path fill="none" stroke="midnightblue" d="M867.47,-168.44C832.41,-158.93 775.78,-143.56 738.22,-133.37"/>
<polygon fill="midnightblue" stroke="midnightblue" points="738.73,-129.88 728.17,-130.64 736.9,-136.64 738.73,-129.88"/>
</g>
<!-- Node20 -->
<g id="node20" class="node">
<title>Node20</title>
<g id="a_node20"><a xlink:href="include_2ccf_2crypto_2base64_8h.html" target="_top" xlink:title=" ">
<polygon fill="white" stroke="black" points="870,-56.5 870,-75.5 982,-75.5 982,-56.5 870,-56.5"/>
<text text-anchor="middle" x="926" y="-63.5" font-family="Helvetica,sans-Serif" font-size="10.00">ccf/crypto/base64.h</text>
</a>
</g>
</g>
<!-- Node19&#45;&gt;Node20 -->
<g id="edge21" class="edge">
<title>Node19&#45;&gt;Node20</title>
<path fill="none" stroke="midnightblue" d="M915.63,-168.46C928.49,-160.84 945.34,-148.36 953,-132 960.65,-115.66 950.5,-96.55 940.53,-83.29"/>
<polygon fill="midnightblue" stroke="midnightblue" points="943.22,-81.06 934.19,-75.52 937.8,-85.48 943.22,-81.06"/>
</g>
<!-- Node23 -->
<g id="node23" class="node">
<title>Node23</title>
<g id="a_node23"><a xlink:href="include_2ccf_2ds_2json__schema_8h.html" target="_top" xlink:title=" ">
<polygon fill="white" stroke="black" points="822.5,-112.5 822.5,-131.5 943.5,-131.5 943.5,-112.5 822.5,-112.5"/>
<text text-anchor="middle" x="883" y="-119.5" font-family="Helvetica,sans-Serif" font-size="10.00">ccf/ds/json_schema.h</text>
</a>
</g>
</g>
<!-- Node19&#45;&gt;Node23 -->
<g id="edge24" class="edge">
<title>Node19&#45;&gt;Node23</title>
<path fill="none" stroke="midnightblue" d="M896.36,-168.08C894.21,-160.85 891.12,-150.41 888.45,-141.4"/>
<polygon fill="midnightblue" stroke="midnightblue" points="891.79,-140.34 885.59,-131.75 885.08,-142.33 891.79,-140.34"/>
</g>
<!-- Node20&#45;&gt;Node21 -->
<g id="edge22" class="edge">
<title>Node20&#45;&gt;Node21</title>
<path fill="none" stroke="midnightblue" d="M896.84,-56.44C863.27,-46.59 808.32,-30.46 773.7,-20.3"/>
<polygon fill="midnightblue" stroke="midnightblue" points="774.67,-16.94 764.09,-17.48 772.7,-23.66 774.67,-16.94"/>
</g>
<!-- Node20&#45;&gt;Node22 -->
<g id="edge23" class="edge">
<title>Node20&#45;&gt;Node22</title>
<path fill="none" stroke="midnightblue" d="M945.17,-56.44C964.91,-47.64 995.89,-33.81 1018.49,-23.72"/>
<polygon fill="midnightblue" stroke="midnightblue" points="1020.21,-26.79 1027.92,-19.52 1017.36,-20.4 1020.21,-26.79"/>
</g>
<!-- Node23&#45;&gt;Node5 -->
<g id="edge33" class="edge">
<title>Node23&#45;&gt;Node5</title>
<path fill="none" stroke="midnightblue" d="M827.7,-112.44C760.47,-102.04 648.02,-84.64 583.52,-74.66"/>
<polygon fill="midnightblue" stroke="midnightblue" points="584.01,-71.2 573.59,-73.13 582.94,-78.11 584.01,-71.2"/>
</g>
<!-- Node23&#45;&gt;Node13 -->
<g id="edge34" class="edge">
<title>Node23&#45;&gt;Node13</title>
<path fill="none" stroke="midnightblue" d="M850.04,-112.44C814.21,-103.14 756.84,-88.25 717.61,-78.06"/>
<polygon fill="midnightblue" stroke="midnightblue" points="718.36,-74.64 707.8,-75.52 716.6,-81.42 718.36,-74.64"/>
</g>
<!-- Node24 -->
<g id="node24" class="node">
<title>Node24</title>
<g id="a_node24"><a xlink:href="nonstd_8h.html" target="_top" xlink:title=" ">
<polygon fill="white" stroke="black" points="762,-56.5 762,-75.5 852,-75.5 852,-56.5 762,-56.5"/>
<text text-anchor="middle" x="807" y="-63.5" font-family="Helvetica,sans-Serif" font-size="10.00">ccf/ds/nonstd.h</text>
</a>
</g>
</g>
<!-- Node23&#45;&gt;Node24 -->
<g id="edge25" class="edge">
<title>Node23&#45;&gt;Node24</title>
<path fill="none" stroke="midnightblue" d="M870.79,-112.32C859.22,-104.11 841.62,-91.6 827.84,-81.81"/>
<polygon fill="midnightblue" stroke="midnightblue" points="829.61,-78.77 819.43,-75.83 825.56,-84.48 829.61,-78.77"/>
</g>
<!-- Node24&#45;&gt;Node16 -->
<g id="edge31" class="edge">
<title>Node24&#45;&gt;Node16</title>
<path fill="none" stroke="midnightblue" d="M761.66,-58.85C754.1,-57.86 746.33,-56.88 739,-56 603.99,-39.77 443.99,-23.21 367.74,-15.49"/>
<polygon fill="midnightblue" stroke="midnightblue" points="367.85,-11.98 357.55,-14.46 367.14,-18.94 367.85,-11.98"/>
</g>
<!-- Node24&#45;&gt;Node21 -->
<g id="edge29" class="edge">
<title>Node24&#45;&gt;Node21</title>
<path fill="none" stroke="midnightblue" d="M796.56,-56.32C786.85,-48.26 772.18,-36.08 760.5,-26.37"/>
<polygon fill="midnightblue" stroke="midnightblue" points="762.56,-23.53 752.63,-19.83 758.09,-28.92 762.56,-23.53"/>
</g>
<!-- Node24&#45;&gt;Node22 -->
<g id="edge32" class="edge">
<title>Node24&#45;&gt;Node22</title>
<path fill="none" stroke="midnightblue" d="M850.2,-56.46C890.25,-48.36 951.71,-35.47 1013.38,-20.3"/>
<polygon fill="midnightblue" stroke="midnightblue" points="1014.41,-23.65 1023.28,-17.85 1012.73,-16.86 1014.41,-23.65"/>
</g>
<!-- Node25 -->
<g id="node25" class="node">
<title>Node25</title>
<g id="a_node25"><a xlink:title=" ">
<polygon fill="white" stroke="#bfbfbf" points="850,-0.5 850,-19.5 914,-19.5 914,-0.5 850,-0.5"/>
<text text-anchor="middle" x="882" y="-7.5" font-family="Helvetica,sans-Serif" font-size="10.00">algorithm</text>
</a>
</g>
</g>
<!-- Node24&#45;&gt;Node25 -->
<g id="edge26" class="edge">
<title>Node24&#45;&gt;Node25</title>
<path fill="none" stroke="midnightblue" d="M819.05,-56.32C830.46,-48.11 847.83,-35.6 861.43,-25.81"/>
<polygon fill="midnightblue" stroke="midnightblue" points="863.66,-28.52 869.73,-19.83 859.57,-22.84 863.66,-28.52"/>
</g>
<!-- Node26 -->
<g id="node26" class="node">
<title>Node26</title>
<g id="a_node26"><a xlink:title=" ">
<polygon fill="white" stroke="#bfbfbf" points="660,-0.5 660,-19.5 702,-19.5 702,-0.5 660,-0.5"/>
<text text-anchor="middle" x="681" y="-7.5" font-family="Helvetica,sans-Serif" font-size="10.00">array</text>
</a>
</g>
</g>
<!-- Node24&#45;&gt;Node26 -->
<g id="edge27" class="edge">
<title>Node24&#45;&gt;Node26</title>
<path fill="none" stroke="midnightblue" d="M787.03,-56.44C766.39,-47.6 733.94,-33.69 710.37,-23.59"/>
<polygon fill="midnightblue" stroke="midnightblue" points="711.44,-20.24 700.87,-19.52 708.68,-26.67 711.44,-20.24"/>
</g>
<!-- Node27 -->
<g id="node27" class="node">
<title>Node27</title>
<g id="a_node27"><a xlink:title=" ">
<polygon fill="white" stroke="#bfbfbf" points="782.5,-0.5 782.5,-19.5 831.5,-19.5 831.5,-0.5 782.5,-0.5"/>
<text text-anchor="middle" x="807" y="-7.5" font-family="Helvetica,sans-Serif" font-size="10.00">cctype</text>
</a>
</g>
</g>
<!-- Node24&#45;&gt;Node27 -->
<g id="edge28" class="edge">
<title>Node24&#45;&gt;Node27</title>
<path fill="none" stroke="midnightblue" d="M807,-56.08C807,-49.01 807,-38.86 807,-29.99"/>
<polygon fill="midnightblue" stroke="midnightblue" points="810.5,-29.75 807,-19.75 803.5,-29.75 810.5,-29.75"/>
</g>
<!-- Node24&#45;&gt;Node28 -->
<g id="edge30" class="edge">
<title>Node24&#45;&gt;Node28</title>
<path fill="none" stroke="midnightblue" d="M832.67,-56.44C859.92,-47.36 903.18,-32.94 933.65,-22.78"/>
<polygon fill="midnightblue" stroke="midnightblue" points="935.07,-26 943.45,-19.52 932.86,-19.36 935.07,-26"/>
</g>
</g>
</svg>
