<?xml version="1.0" encoding="UTF-8" standalone="no"?>
<!DOCTYPE svg PUBLIC "-//W3C//DTD SVG 1.1//EN"
 "http://www.w3.org/Graphics/SVG/1.1/DTD/svg11.dtd">
<!-- Generated by graphviz version 2.43.0 (0)
 -->
<!-- Title: src/tls/ca.h Pages: 1 -->
<svg width="1166pt" height="375pt"
 viewBox="0.00 0.00 1165.61 375.00" xmlns="http://www.w3.org/2000/svg" xmlns:xlink="http://www.w3.org/1999/xlink">
<g id="graph0" class="graph" transform="scale(1 1) rotate(0) translate(4 371)">
<title>src/tls/ca.h</title>
<polygon fill="white" stroke="transparent" points="-4,4 -4,-371 1161.61,-371 1161.61,4 -4,4"/>
<!-- Node1 -->
<g id="node1" class="node">
<title>Node1</title>
<g id="a_node1"><a xlink:title=" ">
<polygon fill="#bfbfbf" stroke="black" points="74,-347.5 74,-366.5 143,-366.5 143,-347.5 74,-347.5"/>
<text text-anchor="middle" x="108.5" y="-354.5" font-family="Helvetica,sans-Serif" font-size="10.00">src/tls/ca.h</text>
</a>
</g>
</g>
<!-- Node2 -->
<g id="node2" class="node">
<title>Node2</title>
<g id="a_node2"><a xlink:href="pem_8h.html" target="_top" xlink:title=" ">
<polygon fill="white" stroke="black" points="59.5,-224.5 59.5,-243.5 157.5,-243.5 157.5,-224.5 59.5,-224.5"/>
<text text-anchor="middle" x="108.5" y="-231.5" font-family="Helvetica,sans-Serif" font-size="10.00">ccf/crypto/pem.h</text>
</a>
</g>
</g>
<!-- Node1&#45;&gt;Node2 -->
<g id="edge1" class="edge">
<title>Node1&#45;&gt;Node2</title>
<path fill="none" stroke="midnightblue" d="M108.5,-347.3C108.5,-327.85 108.5,-280.49 108.5,-253.9"/>
<polygon fill="midnightblue" stroke="midnightblue" points="112,-253.62 108.5,-243.62 105,-253.62 112,-253.62"/>
</g>
<!-- Node18 -->
<g id="node18" class="node">
<title>Node18</title>
<g id="a_node18"><a xlink:title=" ">
<polygon fill="white" stroke="#bfbfbf" points="0,-168.5 0,-187.5 65,-187.5 65,-168.5 0,-168.5"/>
<text text-anchor="middle" x="32.5" y="-175.5" font-family="Helvetica,sans-Serif" font-size="10.00">exception</text>
</a>
</g>
</g>
<!-- Node1&#45;&gt;Node18 -->
<g id="edge38" class="edge">
<title>Node1&#45;&gt;Node18</title>
<path fill="none" stroke="midnightblue" d="M103.19,-347.29C92.11,-328.83 66.26,-284.16 50.5,-244 44.48,-228.67 39.65,-210.57 36.51,-197.37"/>
<polygon fill="midnightblue" stroke="midnightblue" points="39.92,-196.57 34.28,-187.6 33.09,-198.12 39.92,-196.57"/>
</g>
<!-- Node21 -->
<g id="node21" class="node">
<title>Node21</title>
<g id="a_node21"><a xlink:href="openssl__wrappers_8h.html" target="_top" xlink:title=" ">
<polygon fill="white" stroke="black" points="569.5,-280.5 569.5,-310.5 697.5,-310.5 697.5,-280.5 569.5,-280.5"/>
<text text-anchor="start" x="577.5" y="-298.5" font-family="Helvetica,sans-Serif" font-size="10.00">crypto/openssl/openssl</text>
<text text-anchor="middle" x="633.5" y="-287.5" font-family="Helvetica,sans-Serif" font-size="10.00">_wrappers.h</text>
</a>
</g>
</g>
<!-- Node1&#45;&gt;Node21 -->
<g id="edge25" class="edge">
<title>Node1&#45;&gt;Node21</title>
<path fill="none" stroke="midnightblue" d="M143.35,-352.05C227.72,-342.49 444.42,-317.93 559.35,-304.9"/>
<polygon fill="midnightblue" stroke="midnightblue" points="559.93,-308.36 569.47,-303.76 559.14,-301.4 559.93,-308.36"/>
</g>
<!-- Node3 -->
<g id="node3" class="node">
<title>Node3</title>
<g id="a_node3"><a xlink:href="json_8h.html" target="_top" xlink:title=" ">
<polygon fill="white" stroke="black" points="409,-168.5 409,-187.5 486,-187.5 486,-168.5 409,-168.5"/>
<text text-anchor="middle" x="447.5" y="-175.5" font-family="Helvetica,sans-Serif" font-size="10.00">ccf/ds/json.h</text>
</a>
</g>
</g>
<!-- Node2&#45;&gt;Node3 -->
<g id="edge2" class="edge">
<title>Node2&#45;&gt;Node3</title>
<path fill="none" stroke="midnightblue" d="M157.79,-225.15C222.24,-214.88 334.46,-197.01 398.68,-186.78"/>
<polygon fill="midnightblue" stroke="midnightblue" points="399.61,-190.17 408.94,-185.14 398.51,-183.26 399.61,-190.17"/>
</g>
<!-- Node6 -->
<g id="node6" class="node">
<title>Node6</title>
<g id="a_node6"><a xlink:title=" ">
<polygon fill="white" stroke="#bfbfbf" points="384,-0.5 384,-19.5 431,-19.5 431,-0.5 384,-0.5"/>
<text text-anchor="middle" x="407.5" y="-7.5" font-family="Helvetica,sans-Serif" font-size="10.00">vector</text>
</a>
</g>
</g>
<!-- Node2&#45;&gt;Node6 -->
<g id="edge24" class="edge">
<title>Node2&#45;&gt;Node6</title>
<path fill="none" stroke="midnightblue" d="M130.31,-224.49C149.59,-216.47 178.08,-203.4 200.5,-188 271.52,-139.21 275.35,-110 342.5,-56 356.19,-45 372.43,-33.75 385.25,-25.25"/>
<polygon fill="midnightblue" stroke="midnightblue" points="387.45,-28 393.9,-19.6 383.62,-22.14 387.45,-28"/>
</g>
<!-- Node12 -->
<g id="node12" class="node">
<title>Node12</title>
<g id="a_node12"><a xlink:title=" ">
<polygon fill="white" stroke="#bfbfbf" points="989,-0.5 989,-19.5 1062,-19.5 1062,-0.5 989,-0.5"/>
<text text-anchor="middle" x="1025.5" y="-7.5" font-family="Helvetica,sans-Serif" font-size="10.00">string_view</text>
</a>
</g>
</g>
<!-- Node2&#45;&gt;Node12 -->
<g id="edge23" class="edge">
<title>Node2&#45;&gt;Node12</title>
<path fill="none" stroke="midnightblue" d="M157.53,-225.23C160.56,-224.8 163.57,-224.39 166.5,-224 312.33,-204.72 350.79,-214.37 495.5,-188 593.91,-170.07 618.26,-162.58 713.5,-132 819.47,-97.97 941.56,-47.11 996.3,-23.67"/>
<polygon fill="midnightblue" stroke="midnightblue" points="997.91,-26.78 1005.72,-19.62 995.15,-20.35 997.91,-26.78"/>
</g>
<!-- Node17 -->
<g id="node17" class="node">
<title>Node17</title>
<g id="a_node17"><a xlink:title=" ">
<polygon fill="white" stroke="#bfbfbf" points="83.5,-168.5 83.5,-187.5 133.5,-187.5 133.5,-168.5 83.5,-168.5"/>
<text text-anchor="middle" x="108.5" y="-175.5" font-family="Helvetica,sans-Serif" font-size="10.00">cstring</text>
</a>
</g>
</g>
<!-- Node2&#45;&gt;Node17 -->
<g id="edge19" class="edge">
<title>Node2&#45;&gt;Node17</title>
<path fill="none" stroke="midnightblue" d="M108.5,-224.08C108.5,-217.01 108.5,-206.86 108.5,-197.99"/>
<polygon fill="midnightblue" stroke="midnightblue" points="112,-197.75 108.5,-187.75 105,-197.75 112,-197.75"/>
</g>
<!-- Node2&#45;&gt;Node18 -->
<g id="edge20" class="edge">
<title>Node2&#45;&gt;Node18</title>
<path fill="none" stroke="midnightblue" d="M96.29,-224.32C84.72,-216.11 67.12,-203.6 53.34,-193.81"/>
<polygon fill="midnightblue" stroke="midnightblue" points="55.11,-190.77 44.93,-187.83 51.06,-196.48 55.11,-190.77"/>
</g>
<!-- Node19 -->
<g id="node19" class="node">
<title>Node19</title>
<g id="a_node19"><a xlink:title=" ">
<polygon fill="white" stroke="#bfbfbf" points="1087.5,-168.5 1087.5,-187.5 1145.5,-187.5 1145.5,-168.5 1087.5,-168.5"/>
<text text-anchor="middle" x="1116.5" y="-175.5" font-family="Helvetica,sans-Serif" font-size="10.00">memory</text>
</a>
</g>
</g>
<!-- Node2&#45;&gt;Node19 -->
<g id="edge21" class="edge">
<title>Node2&#45;&gt;Node19</title>
<path fill="none" stroke="midnightblue" d="M157.81,-224.96C160.75,-224.6 163.66,-224.28 166.5,-224 568.04,-185.01 673.12,-237.5 1073.5,-188 1074.78,-187.84 1076.07,-187.67 1077.38,-187.47"/>
<polygon fill="midnightblue" stroke="midnightblue" points="1078.19,-190.89 1087.47,-185.76 1077.02,-183.99 1078.19,-190.89"/>
</g>
<!-- Node20 -->
<g id="node20" class="node">
<title>Node20</title>
<g id="a_node20"><a xlink:title=" ">
<polygon fill="white" stroke="#bfbfbf" points="151.5,-168.5 151.5,-187.5 191.5,-187.5 191.5,-168.5 151.5,-168.5"/>
<text text-anchor="middle" x="171.5" y="-175.5" font-family="Helvetica,sans-Serif" font-size="10.00">span</text>
</a>
</g>
</g>
<!-- Node2&#45;&gt;Node20 -->
<g id="edge22" class="edge">
<title>Node2&#45;&gt;Node20</title>
<path fill="none" stroke="midnightblue" d="M118.62,-224.32C128.03,-216.26 142.24,-204.08 153.57,-194.37"/>
<polygon fill="midnightblue" stroke="midnightblue" points="155.88,-197 161.19,-187.83 151.32,-191.68 155.88,-197"/>
</g>
<!-- Node4 -->
<g id="node4" class="node">
<title>Node4</title>
<g id="a_node4"><a xlink:href="include_2ccf_2crypto_2base64_8h.html" target="_top" xlink:title=" ">
<polygon fill="white" stroke="black" points="351.5,-56.5 351.5,-75.5 463.5,-75.5 463.5,-56.5 351.5,-56.5"/>
<text text-anchor="middle" x="407.5" y="-63.5" font-family="Helvetica,sans-Serif" font-size="10.00">ccf/crypto/base64.h</text>
</a>
</g>
</g>
<!-- Node3&#45;&gt;Node4 -->
<g id="edge3" class="edge">
<title>Node3&#45;&gt;Node4</title>
<path fill="none" stroke="midnightblue" d="M445.44,-168.45C442.33,-155.89 435.97,-131.8 428.5,-112 425.08,-102.92 420.61,-93.14 416.67,-85.01"/>
<polygon fill="midnightblue" stroke="midnightblue" points="419.68,-83.19 412.09,-75.79 413.41,-86.31 419.68,-83.19"/>
</g>
<!-- Node7 -->
<g id="node7" class="node">
<title>Node7</title>
<g id="a_node7"><a xlink:href="include_2ccf_2ds_2json__schema_8h.html" target="_top" xlink:title=" ">
<polygon fill="white" stroke="black" points="555,-112.5 555,-131.5 676,-131.5 676,-112.5 555,-112.5"/>
<text text-anchor="middle" x="615.5" y="-119.5" font-family="Helvetica,sans-Serif" font-size="10.00">ccf/ds/json_schema.h</text>
</a>
</g>
</g>
<!-- Node3&#45;&gt;Node7 -->
<g id="edge6" class="edge">
<title>Node3&#45;&gt;Node7</title>
<path fill="none" stroke="midnightblue" d="M474.12,-168.44C502.51,-159.32 547.64,-144.81 579.25,-134.65"/>
<polygon fill="midnightblue" stroke="midnightblue" points="580.56,-137.91 589,-131.52 578.41,-131.24 580.56,-137.91"/>
</g>
<!-- Node14 -->
<g id="node14" class="node">
<title>Node14</title>
<g id="a_node14"><a xlink:title=" ">
<polygon fill="white" stroke="#bfbfbf" points="718,-56.5 718,-75.5 797,-75.5 797,-56.5 718,-56.5"/>
<text text-anchor="middle" x="757.5" y="-63.5" font-family="Helvetica,sans-Serif" font-size="10.00">fmt/format.h</text>
</a>
</g>
</g>
<!-- Node3&#45;&gt;Node14 -->
<g id="edge17" class="edge">
<title>Node3&#45;&gt;Node14</title>
<path fill="none" stroke="midnightblue" d="M486.2,-176.05C535.05,-173.47 620.52,-164.24 685.5,-132 708.96,-120.36 730.48,-98.88 743.76,-83.81"/>
<polygon fill="midnightblue" stroke="midnightblue" points="746.77,-85.68 750.59,-75.8 741.44,-81.14 746.77,-85.68"/>
</g>
<!-- Node16 -->
<g id="node16" class="node">
<title>Node16</title>
<g id="a_node16"><a xlink:title=" ">
<polygon fill="white" stroke="#bfbfbf" points="363.5,-112.5 363.5,-131.5 419.5,-131.5 419.5,-112.5 363.5,-112.5"/>
<text text-anchor="middle" x="391.5" y="-119.5" font-family="Helvetica,sans-Serif" font-size="10.00">sstream</text>
</a>
</g>
</g>
<!-- Node3&#45;&gt;Node16 -->
<g id="edge18" class="edge">
<title>Node3&#45;&gt;Node16</title>
<path fill="none" stroke="midnightblue" d="M438.5,-168.32C430.31,-160.42 417.99,-148.55 408.03,-138.94"/>
<polygon fill="midnightblue" stroke="midnightblue" points="410.29,-136.26 400.66,-131.83 405.43,-141.29 410.29,-136.26"/>
</g>
<!-- Node5 -->
<g id="node5" class="node">
<title>Node5</title>
<g id="a_node5"><a xlink:title=" ">
<polygon fill="white" stroke="#bfbfbf" points="478.5,-0.5 478.5,-19.5 522.5,-19.5 522.5,-0.5 478.5,-0.5"/>
<text text-anchor="middle" x="500.5" y="-7.5" font-family="Helvetica,sans-Serif" font-size="10.00">string</text>
</a>
</g>
</g>
<!-- Node4&#45;&gt;Node5 -->
<g id="edge4" class="edge">
<title>Node4&#45;&gt;Node5</title>
<path fill="none" stroke="midnightblue" d="M422.44,-56.32C437.09,-47.82 459.63,-34.73 476.74,-24.8"/>
<polygon fill="midnightblue" stroke="midnightblue" points="478.7,-27.7 485.6,-19.65 475.19,-21.65 478.7,-27.7"/>
</g>
<!-- Node4&#45;&gt;Node6 -->
<g id="edge5" class="edge">
<title>Node4&#45;&gt;Node6</title>
<path fill="none" stroke="midnightblue" d="M407.5,-56.08C407.5,-49.01 407.5,-38.86 407.5,-29.99"/>
<polygon fill="midnightblue" stroke="midnightblue" points="411,-29.75 407.5,-19.75 404,-29.75 411,-29.75"/>
</g>
<!-- Node8 -->
<g id="node8" class="node">
<title>Node8</title>
<g id="a_node8"><a xlink:href="nonstd_8h.html" target="_top" xlink:title=" ">
<polygon fill="white" stroke="black" points="609.5,-56.5 609.5,-75.5 699.5,-75.5 699.5,-56.5 609.5,-56.5"/>
<text text-anchor="middle" x="654.5" y="-63.5" font-family="Helvetica,sans-Serif" font-size="10.00">ccf/ds/nonstd.h</text>
</a>
</g>
</g>
<!-- Node7&#45;&gt;Node8 -->
<g id="edge7" class="edge">
<title>Node7&#45;&gt;Node8</title>
<path fill="none" stroke="midnightblue" d="M621.94,-112.08C627.45,-104.46 635.53,-93.26 642.26,-83.94"/>
<polygon fill="midnightblue" stroke="midnightblue" points="645.16,-85.91 648.18,-75.75 639.49,-81.81 645.16,-85.91"/>
</g>
<!-- Node7&#45;&gt;Node14 -->
<g id="edge15" class="edge">
<title>Node7&#45;&gt;Node14</title>
<path fill="none" stroke="midnightblue" d="M638,-112.44C661.58,-103.48 698.82,-89.31 725.46,-79.18"/>
<polygon fill="midnightblue" stroke="midnightblue" points="727,-82.34 735.1,-75.52 724.51,-75.8 727,-82.34"/>
</g>
<!-- Node15 -->
<g id="node15" class="node">
<title>Node15</title>
<g id="a_node15"><a xlink:title=" ">
<polygon fill="white" stroke="#bfbfbf" points="481.5,-56.5 481.5,-75.5 591.5,-75.5 591.5,-56.5 481.5,-56.5"/>
<text text-anchor="middle" x="536.5" y="-63.5" font-family="Helvetica,sans-Serif" font-size="10.00">nlohmann/json.hpp</text>
</a>
</g>
</g>
<!-- Node7&#45;&gt;Node15 -->
<g id="edge16" class="edge">
<title>Node7&#45;&gt;Node15</title>
<path fill="none" stroke="midnightblue" d="M602.81,-112.32C590.6,-103.98 571.92,-91.21 557.5,-81.35"/>
<polygon fill="midnightblue" stroke="midnightblue" points="559.39,-78.41 549.16,-75.65 555.44,-84.19 559.39,-78.41"/>
</g>
<!-- Node8&#45;&gt;Node5 -->
<g id="edge11" class="edge">
<title>Node8&#45;&gt;Node5</title>
<path fill="none" stroke="midnightblue" d="M630.1,-56.44C603.7,-47.19 561.49,-32.39 532.46,-22.21"/>
<polygon fill="midnightblue" stroke="midnightblue" points="533.38,-18.82 522.79,-18.82 531.07,-25.43 533.38,-18.82"/>
</g>
<!-- Node8&#45;&gt;Node6 -->
<g id="edge14" class="edge">
<title>Node8&#45;&gt;Node6</title>
<path fill="none" stroke="midnightblue" d="M615.36,-56.44C567.28,-45.93 486.52,-28.28 441.12,-18.35"/>
<polygon fill="midnightblue" stroke="midnightblue" points="441.7,-14.89 431.18,-16.18 440.2,-21.73 441.7,-14.89"/>
</g>
<!-- Node9 -->
<g id="node9" class="node">
<title>Node9</title>
<g id="a_node9"><a xlink:title=" ">
<polygon fill="white" stroke="#bfbfbf" points="769.5,-0.5 769.5,-19.5 833.5,-19.5 833.5,-0.5 769.5,-0.5"/>
<text text-anchor="middle" x="801.5" y="-7.5" font-family="Helvetica,sans-Serif" font-size="10.00">algorithm</text>
</a>
</g>
</g>
<!-- Node8&#45;&gt;Node9 -->
<g id="edge8" class="edge">
<title>Node8&#45;&gt;Node9</title>
<path fill="none" stroke="midnightblue" d="M677.79,-56.44C702.31,-47.44 741.1,-33.19 768.7,-23.05"/>
<polygon fill="midnightblue" stroke="midnightblue" points="770.14,-26.25 778.32,-19.52 767.72,-19.68 770.14,-26.25"/>
</g>
<!-- Node10 -->
<g id="node10" class="node">
<title>Node10</title>
<g id="a_node10"><a xlink:title=" ">
<polygon fill="white" stroke="#bfbfbf" points="554.5,-0.5 554.5,-19.5 596.5,-19.5 596.5,-0.5 554.5,-0.5"/>
<text text-anchor="middle" x="575.5" y="-7.5" font-family="Helvetica,sans-Serif" font-size="10.00">array</text>
</a>
</g>
</g>
<!-- Node8&#45;&gt;Node10 -->
<g id="edge9" class="edge">
<title>Node8&#45;&gt;Node10</title>
<path fill="none" stroke="midnightblue" d="M641.81,-56.32C629.6,-47.98 610.92,-35.21 596.5,-25.35"/>
<polygon fill="midnightblue" stroke="midnightblue" points="598.39,-22.41 588.16,-19.65 594.44,-28.19 598.39,-22.41"/>
</g>
<!-- Node11 -->
<g id="node11" class="node">
<title>Node11</title>
<g id="a_node11"><a xlink:title=" ">
<polygon fill="white" stroke="#bfbfbf" points="615,-0.5 615,-19.5 664,-19.5 664,-0.5 615,-0.5"/>
<text text-anchor="middle" x="639.5" y="-7.5" font-family="Helvetica,sans-Serif" font-size="10.00">cctype</text>
</a>
</g>
</g>
<!-- Node8&#45;&gt;Node11 -->
<g id="edge10" class="edge">
<title>Node8&#45;&gt;Node11</title>
<path fill="none" stroke="midnightblue" d="M652.02,-56.08C650.01,-48.85 647.11,-38.41 644.61,-29.4"/>
<polygon fill="midnightblue" stroke="midnightblue" points="647.98,-28.45 641.93,-19.75 641.24,-30.32 647.98,-28.45"/>
</g>
<!-- Node8&#45;&gt;Node12 -->
<g id="edge12" class="edge">
<title>Node8&#45;&gt;Node12</title>
<path fill="none" stroke="midnightblue" d="M699.51,-57.56C702.89,-57.02 706.25,-56.5 709.5,-56 805.04,-41.38 917.07,-25.8 978.78,-17.34"/>
<polygon fill="midnightblue" stroke="midnightblue" points="979.54,-20.77 988.97,-15.95 978.59,-13.84 979.54,-20.77"/>
</g>
<!-- Node13 -->
<g id="node13" class="node">
<title>Node13</title>
<g id="a_node13"><a xlink:title=" ">
<polygon fill="white" stroke="#bfbfbf" points="682,-0.5 682,-19.5 751,-19.5 751,-0.5 682,-0.5"/>
<text text-anchor="middle" x="716.5" y="-7.5" font-family="Helvetica,sans-Serif" font-size="10.00">type_traits</text>
</a>
</g>
</g>
<!-- Node8&#45;&gt;Node13 -->
<g id="edge13" class="edge">
<title>Node8&#45;&gt;Node13</title>
<path fill="none" stroke="midnightblue" d="M664.46,-56.32C673.63,-48.34 687.44,-36.31 698.53,-26.65"/>
<polygon fill="midnightblue" stroke="midnightblue" points="701.12,-29.04 706.36,-19.83 696.52,-23.76 701.12,-29.04"/>
</g>
<!-- Node21&#45;&gt;Node2 -->
<g id="edge26" class="edge">
<title>Node21&#45;&gt;Node2</title>
<path fill="none" stroke="midnightblue" d="M569.18,-288.49C481.05,-280.05 317.56,-263.64 167.82,-244.12"/>
<polygon fill="midnightblue" stroke="midnightblue" points="167.9,-240.6 157.52,-242.77 166.98,-247.54 167.9,-240.6"/>
</g>
<!-- Node21&#45;&gt;Node14 -->
<g id="edge27" class="edge">
<title>Node21&#45;&gt;Node14</title>
<path fill="none" stroke="midnightblue" d="M697.6,-291.83C825.01,-285.98 1100.77,-270.4 1134.5,-244 1155.31,-227.71 1149.99,-214.04 1154.5,-188 1156.02,-179.24 1159.96,-175.02 1154.5,-168 1111.96,-113.29 904.09,-83.34 807.28,-72.16"/>
<polygon fill="midnightblue" stroke="midnightblue" points="807.49,-68.66 797.16,-71.02 806.7,-75.62 807.49,-68.66"/>
</g>
<!-- Node21&#45;&gt;Node19 -->
<g id="edge28" class="edge">
<title>Node21&#45;&gt;Node19</title>
<path fill="none" stroke="midnightblue" d="M697.54,-292.48C822.46,-287.89 1088.95,-274.58 1116.5,-244 1127.57,-231.71 1125.96,-212.17 1122.56,-197.72"/>
<polygon fill="midnightblue" stroke="midnightblue" points="1125.87,-196.55 1119.8,-187.87 1119.13,-198.45 1125.87,-196.55"/>
</g>
<!-- Node22 -->
<g id="node22" class="node">
<title>Node22</title>
<g id="a_node22"><a xlink:title=" ">
<polygon fill="white" stroke="#bfbfbf" points="176,-224.5 176,-243.5 265,-243.5 265,-224.5 176,-224.5"/>
<text text-anchor="middle" x="220.5" y="-231.5" font-family="Helvetica,sans-Serif" font-size="10.00">openssl/asn1.h</text>
</a>
</g>
</g>
<!-- Node21&#45;&gt;Node22 -->
<g id="edge29" class="edge">
<title>Node21&#45;&gt;Node22</title>
<path fill="none" stroke="midnightblue" d="M569.36,-286.07C499.48,-276.76 384.12,-261.01 275.2,-244.23"/>
<polygon fill="midnightblue" stroke="midnightblue" points="275.44,-240.73 265.02,-242.66 274.37,-247.64 275.44,-240.73"/>
</g>
<!-- Node23 -->
<g id="node23" class="node">
<title>Node23</title>
<g id="a_node23"><a xlink:title=" ">
<polygon fill="white" stroke="#bfbfbf" points="283,-224.5 283,-243.5 360,-243.5 360,-224.5 283,-224.5"/>
<text text-anchor="middle" x="321.5" y="-231.5" font-family="Helvetica,sans-Serif" font-size="10.00">openssl/ec.h</text>
</a>
</g>
</g>
<!-- Node21&#45;&gt;Node23 -->
<g id="edge30" class="edge">
<title>Node21&#45;&gt;Node23</title>
<path fill="none" stroke="midnightblue" d="M569.24,-282.27C517.88,-272.49 443.75,-258.37 370.14,-244.31"/>
<polygon fill="midnightblue" stroke="midnightblue" points="370.71,-240.86 360.23,-242.42 369.39,-247.73 370.71,-240.86"/>
</g>
<!-- Node24 -->
<g id="node24" class="node">
<title>Node24</title>
<g id="a_node24"><a xlink:title=" ">
<polygon fill="white" stroke="#bfbfbf" points="378,-224.5 378,-243.5 477,-243.5 477,-224.5 378,-224.5"/>
<text text-anchor="middle" x="427.5" y="-231.5" font-family="Helvetica,sans-Serif" font-size="10.00">openssl/engine.h</text>
</a>
</g>
</g>
<!-- Node21&#45;&gt;Node24 -->
<g id="edge31" class="edge">
<title>Node21&#45;&gt;Node24</title>
<path fill="none" stroke="midnightblue" d="M584.94,-280.47C548.94,-270.08 500.48,-256.08 466.87,-246.37"/>
<polygon fill="midnightblue" stroke="midnightblue" points="467.53,-242.92 456.95,-243.51 465.59,-249.64 467.53,-242.92"/>
</g>
<!-- Node25 -->
<g id="node25" class="node">
<title>Node25</title>
<g id="a_node25"><a xlink:title=" ">
<polygon fill="white" stroke="#bfbfbf" points="495,-224.5 495,-243.5 574,-243.5 574,-224.5 495,-224.5"/>
<text text-anchor="middle" x="534.5" y="-231.5" font-family="Helvetica,sans-Serif" font-size="10.00">openssl/err.h</text>
</a>
</g>
</g>
<!-- Node21&#45;&gt;Node25 -->
<g id="edge32" class="edge">
<title>Node21&#45;&gt;Node25</title>
<path fill="none" stroke="midnightblue" d="M610.04,-280.4C594.17,-270.86 573.31,-258.32 557.53,-248.84"/>
<polygon fill="midnightblue" stroke="midnightblue" points="559.28,-245.81 548.91,-243.66 555.67,-251.81 559.28,-245.81"/>
</g>
<!-- Node26 -->
<g id="node26" class="node">
<title>Node26</title>
<g id="a_node26"><a xlink:title=" ">
<polygon fill="white" stroke="#bfbfbf" points="591.5,-224.5 591.5,-243.5 675.5,-243.5 675.5,-224.5 591.5,-224.5"/>
<text text-anchor="middle" x="633.5" y="-231.5" font-family="Helvetica,sans-Serif" font-size="10.00">openssl/evp.h</text>
</a>
</g>
</g>
<!-- Node21&#45;&gt;Node26 -->
<g id="edge33" class="edge">
<title>Node21&#45;&gt;Node26</title>
<path fill="none" stroke="midnightblue" d="M633.5,-280.4C633.5,-272.47 633.5,-262.46 633.5,-253.86"/>
<polygon fill="midnightblue" stroke="midnightblue" points="637,-253.66 633.5,-243.66 630,-253.66 637,-253.66"/>
</g>
<!-- Node27 -->
<g id="node27" class="node">
<title>Node27</title>
<g id="a_node27"><a xlink:title=" ">
<polygon fill="white" stroke="#bfbfbf" points="693.5,-224.5 693.5,-243.5 781.5,-243.5 781.5,-224.5 693.5,-224.5"/>
<text text-anchor="middle" x="737.5" y="-231.5" font-family="Helvetica,sans-Serif" font-size="10.00">openssl/pem.h</text>
</a>
</g>
</g>
<!-- Node21&#45;&gt;Node27 -->
<g id="edge34" class="edge">
<title>Node21&#45;&gt;Node27</title>
<path fill="none" stroke="midnightblue" d="M658.15,-280.4C674.82,-270.86 696.73,-258.32 713.31,-248.84"/>
<polygon fill="midnightblue" stroke="midnightblue" points="715.43,-251.66 722.37,-243.66 711.95,-245.59 715.43,-251.66"/>
</g>
<!-- Node28 -->
<g id="node28" class="node">
<title>Node28</title>
<g id="a_node28"><a xlink:title=" ">
<polygon fill="white" stroke="#bfbfbf" points="799.5,-224.5 799.5,-243.5 879.5,-243.5 879.5,-224.5 799.5,-224.5"/>
<text text-anchor="middle" x="839.5" y="-231.5" font-family="Helvetica,sans-Serif" font-size="10.00">openssl/ssl.h</text>
</a>
</g>
</g>
<!-- Node21&#45;&gt;Node28 -->
<g id="edge35" class="edge">
<title>Node21&#45;&gt;Node28</title>
<path fill="none" stroke="midnightblue" d="M682.06,-280.47C718.06,-270.08 766.52,-256.08 800.13,-246.37"/>
<polygon fill="midnightblue" stroke="midnightblue" points="801.41,-249.64 810.05,-243.51 799.47,-242.92 801.41,-249.64"/>
</g>
<!-- Node29 -->
<g id="node29" class="node">
<title>Node29</title>
<g id="a_node29"><a xlink:title=" ">
<polygon fill="white" stroke="#bfbfbf" points="897.5,-224.5 897.5,-243.5 987.5,-243.5 987.5,-224.5 897.5,-224.5"/>
<text text-anchor="middle" x="942.5" y="-231.5" font-family="Helvetica,sans-Serif" font-size="10.00">openssl/x509.h</text>
</a>
</g>
</g>
<!-- Node21&#45;&gt;Node29 -->
<g id="edge36" class="edge">
<title>Node21&#45;&gt;Node29</title>
<path fill="none" stroke="midnightblue" d="M697.52,-282.17C753.82,-271.33 834.87,-255.73 888.09,-245.48"/>
<polygon fill="midnightblue" stroke="midnightblue" points="888.86,-248.89 898.02,-243.56 887.54,-242.02 888.86,-248.89"/>
</g>
<!-- Node30 -->
<g id="node30" class="node">
<title>Node30</title>
<g id="a_node30"><a xlink:title=" ">
<polygon fill="white" stroke="#bfbfbf" points="1005.5,-224.5 1005.5,-243.5 1107.5,-243.5 1107.5,-224.5 1005.5,-224.5"/>
<text text-anchor="middle" x="1056.5" y="-231.5" font-family="Helvetica,sans-Serif" font-size="10.00">openssl/x509v3.h</text>
</a>
</g>
</g>
<!-- Node21&#45;&gt;Node30 -->
<g id="edge37" class="edge">
<title>Node21&#45;&gt;Node30</title>
<path fill="none" stroke="midnightblue" d="M697.79,-285.77C768.24,-276.15 884.88,-260.09 995.45,-244.14"/>
<polygon fill="midnightblue" stroke="midnightblue" points="996.05,-247.59 1005.44,-242.7 995.04,-240.66 996.05,-247.59"/>
</g>
</g>
</svg>
