<?xml version="1.0" encoding="UTF-8" standalone="no"?>
<!DOCTYPE svg PUBLIC "-//W3C//DTD SVG 1.1//EN"
 "http://www.w3.org/Graphics/SVG/1.1/DTD/svg11.dtd">
<!-- Generated by graphviz version 2.43.0 (0)
 -->
<!-- Title: src/ds/ccf_exception.h Pages: 1 -->
<svg width="2464pt" height="587pt"
 viewBox="0.00 0.00 2463.50 587.00" xmlns="http://www.w3.org/2000/svg" xmlns:xlink="http://www.w3.org/1999/xlink">
<g id="graph0" class="graph" transform="scale(1 1) rotate(0) translate(4 583)">
<title>src/ds/ccf_exception.h</title>
<polygon fill="white" stroke="transparent" points="-4,4 -4,-583 2459.5,-583 2459.5,4 -4,4"/>
<!-- Node1 -->
<g id="node1" class="node">
<title>Node1</title>
<g id="a_node1"><a xlink:title=" ">
<polygon fill="#bfbfbf" stroke="black" points="428.5,-559.5 428.5,-578.5 553.5,-578.5 553.5,-559.5 428.5,-559.5"/>
<text text-anchor="middle" x="491" y="-566.5" font-family="Helvetica,sans-Serif" font-size="10.00">src/ds/ccf_exception.h</text>
</a>
</g>
</g>
<!-- Node2 -->
<g id="node2" class="node">
<title>Node2</title>
<g id="a_node2"><a xlink:href="enclave_2main_8cpp.html" target="_top" xlink:title=" ">
<polygon fill="white" stroke="black" points="527,-0.5 527,-19.5 647,-19.5 647,-0.5 527,-0.5"/>
<text text-anchor="middle" x="587" y="-7.5" font-family="Helvetica,sans-Serif" font-size="10.00">src/enclave/main.cpp</text>
</a>
</g>
</g>
<!-- Node1&#45;&gt;Node2 -->
<g id="edge1" class="edge">
<title>Node1&#45;&gt;Node2</title>
<path fill="none" stroke="midnightblue" d="M417.92,-565.88C281.11,-559.9 0,-537.31 0,-452.5 0,-452.5 0,-452.5 0,-121 0,-67.8 377.33,-29.2 526.94,-15.98"/>
<polygon fill="midnightblue" stroke="midnightblue" points="418.18,-569.39 428.32,-566.31 418.47,-562.4 418.18,-569.39"/>
</g>
<!-- Node3 -->
<g id="node3" class="node">
<title>Node3</title>
<g id="a_node3"><a xlink:href="oe__init_8h.html" target="_top" xlink:title=" ">
<polygon fill="white" stroke="black" points="2338.5,-112.5 2338.5,-131.5 2455.5,-131.5 2455.5,-112.5 2338.5,-112.5"/>
<text text-anchor="middle" x="2397" y="-119.5" font-family="Helvetica,sans-Serif" font-size="10.00">src/enclave/oe_init.h</text>
</a>
</g>
</g>
<!-- Node1&#45;&gt;Node3 -->
<g id="edge2" class="edge">
<title>Node1&#45;&gt;Node3</title>
<path fill="none" stroke="midnightblue" d="M563.73,-567.41C909.69,-564.13 2372,-544.81 2372,-452.5 2372,-452.5 2372,-452.5 2372,-249.5 2372,-204.5 2387.41,-152.18 2394.03,-131.78"/>
<polygon fill="midnightblue" stroke="midnightblue" points="563.55,-563.91 553.58,-567.5 563.62,-570.91 563.55,-563.91"/>
</g>
<!-- Node5 -->
<g id="node5" class="node">
<title>Node5</title>
<g id="a_node5"><a xlink:href="store_8h.html" target="_top" xlink:title=" ">
<polygon fill="white" stroke="black" points="449.5,-503.5 449.5,-522.5 532.5,-522.5 532.5,-503.5 449.5,-503.5"/>
<text text-anchor="middle" x="491" y="-510.5" font-family="Helvetica,sans-Serif" font-size="10.00">src/kv/store.h</text>
</a>
</g>
</g>
<!-- Node1&#45;&gt;Node5 -->
<g id="edge5" class="edge">
<title>Node1&#45;&gt;Node5</title>
<path fill="none" stroke="midnightblue" d="M491,-548.8C491,-539.91 491,-529.78 491,-522.75"/>
<polygon fill="midnightblue" stroke="midnightblue" points="487.5,-549.08 491,-559.08 494.5,-549.08 487.5,-549.08"/>
</g>
<!-- Node4 -->
<g id="node4" class="node">
<title>Node4</title>
<g id="a_node4"><a xlink:href="enclave_2enclave_8h.html" target="_top" xlink:title=" ">
<polygon fill="white" stroke="black" points="1207,-56.5 1207,-75.5 1329,-75.5 1329,-56.5 1207,-56.5"/>
<text text-anchor="middle" x="1268" y="-63.5" font-family="Helvetica,sans-Serif" font-size="10.00">src/enclave/enclave.h</text>
</a>
</g>
</g>
<!-- Node3&#45;&gt;Node4 -->
<g id="edge3" class="edge">
<title>Node3&#45;&gt;Node4</title>
<path fill="none" stroke="midnightblue" d="M2328.46,-112.39C2326.96,-112.25 2325.47,-112.12 2324,-112 1946.59,-80.74 1491.41,-70.64 1329.11,-67.89"/>
<polygon fill="midnightblue" stroke="midnightblue" points="2328.18,-115.88 2338.47,-113.37 2328.86,-108.91 2328.18,-115.88"/>
</g>
<!-- Node4&#45;&gt;Node2 -->
<g id="edge4" class="edge">
<title>Node4&#45;&gt;Node2</title>
<path fill="none" stroke="midnightblue" d="M1196.77,-59.35C1062.17,-48.68 772.73,-25.73 647.16,-15.77"/>
<polygon fill="midnightblue" stroke="midnightblue" points="1196.72,-62.86 1206.97,-60.16 1197.27,-55.88 1196.72,-62.86"/>
</g>
<!-- Node6 -->
<g id="node6" class="node">
<title>Node6</title>
<g id="a_node6"><a xlink:href="logging_8cpp.html" target="_top" xlink:title=" ">
<polygon fill="white" stroke="black" points="1023.5,-436.5 1023.5,-466.5 1146.5,-466.5 1146.5,-436.5 1023.5,-436.5"/>
<text text-anchor="start" x="1031.5" y="-454.5" font-family="Helvetica,sans-Serif" font-size="10.00">samples/apps/logging</text>
<text text-anchor="middle" x="1085" y="-443.5" font-family="Helvetica,sans-Serif" font-size="10.00">/logging.cpp</text>
</a>
</g>
</g>
<!-- Node5&#45;&gt;Node6 -->
<g id="edge6" class="edge">
<title>Node5&#45;&gt;Node6</title>
<path fill="none" stroke="midnightblue" d="M542.84,-509.25C636.32,-503.9 839.21,-490.51 1009,-467 1013.66,-466.36 1018.46,-465.62 1023.29,-464.82"/>
<polygon fill="midnightblue" stroke="midnightblue" points="542.58,-505.76 532.79,-509.82 542.97,-512.75 542.58,-505.76"/>
</g>
<!-- Node7 -->
<g id="node7" class="node">
<title>Node7</title>
<g id="a_node7"><a xlink:href="indexer_8h.html" target="_top" xlink:title=" ">
<polygon fill="white" stroke="black" points="298.5,-442 298.5,-461 421.5,-461 421.5,-442 298.5,-442"/>
<text text-anchor="middle" x="360" y="-449" font-family="Helvetica,sans-Serif" font-size="10.00">src/indexing/indexer.h</text>
</a>
</g>
</g>
<!-- Node5&#45;&gt;Node7 -->
<g id="edge7" class="edge">
<title>Node5&#45;&gt;Node7</title>
<path fill="none" stroke="midnightblue" d="M463.1,-499.33C437.67,-487.78 400.8,-471.03 378.73,-461.01"/>
<polygon fill="midnightblue" stroke="midnightblue" points="461.68,-502.53 472.23,-503.48 464.57,-496.15 461.68,-502.53"/>
</g>
<!-- Node10 -->
<g id="node10" class="node">
<title>Node10</title>
<g id="a_node10"><a xlink:href="visit__each__entry__in__map_8cpp.html" target="_top" xlink:title=" ">
<polygon fill="white" stroke="black" points="119.5,-436.5 119.5,-466.5 280.5,-466.5 280.5,-436.5 119.5,-436.5"/>
<text text-anchor="start" x="127.5" y="-454.5" font-family="Helvetica,sans-Serif" font-size="10.00">src/indexing/strategies</text>
<text text-anchor="middle" x="200" y="-443.5" font-family="Helvetica,sans-Serif" font-size="10.00">/visit_each_entry_in_map.cpp</text>
</a>
</g>
</g>
<!-- Node5&#45;&gt;Node10 -->
<g id="edge12" class="edge">
<title>Node5&#45;&gt;Node10</title>
<path fill="none" stroke="midnightblue" d="M439.23,-501.41C391.67,-491.69 320.84,-477.21 268.58,-466.52"/>
<polygon fill="midnightblue" stroke="midnightblue" points="438.81,-504.9 449.31,-503.48 440.21,-498.04 438.81,-504.9"/>
</g>
<!-- Node11 -->
<g id="node11" class="node">
<title>Node11</title>
<g id="a_node11"><a xlink:href="historical__queries_8h.html" target="_top" xlink:title=" ">
<polygon fill="white" stroke="black" points="38,-302.5 38,-332.5 144,-332.5 144,-302.5 38,-302.5"/>
<text text-anchor="start" x="46" y="-320.5" font-family="Helvetica,sans-Serif" font-size="10.00">src/node/historical</text>
<text text-anchor="middle" x="91" y="-309.5" font-family="Helvetica,sans-Serif" font-size="10.00">_queries.h</text>
</a>
</g>
</g>
<!-- Node5&#45;&gt;Node11 -->
<g id="edge13" class="edge">
<title>Node5&#45;&gt;Node11</title>
<path fill="none" stroke="midnightblue" d="M439.39,-509.39C340.71,-503.91 133,-489.77 110,-467 73.62,-430.97 81.98,-362.45 87.77,-332.79"/>
<polygon fill="midnightblue" stroke="midnightblue" points="439.27,-512.89 449.44,-509.94 439.65,-505.9 439.27,-512.89"/>
</g>
<!-- Node13 -->
<g id="node13" class="node">
<title>Node13</title>
<g id="a_node13"><a xlink:href="history_8h.html" target="_top" xlink:title=" ">
<polygon fill="white" stroke="black" points="440,-442 440,-461 542,-461 542,-442 440,-442"/>
<text text-anchor="middle" x="491" y="-449" font-family="Helvetica,sans-Serif" font-size="10.00">src/node/history.h</text>
</a>
</g>
</g>
<!-- Node5&#45;&gt;Node13 -->
<g id="edge17" class="edge">
<title>Node5&#45;&gt;Node13</title>
<path fill="none" stroke="midnightblue" d="M491,-493.32C491,-482.5 491,-469.4 491,-461.01"/>
<polygon fill="midnightblue" stroke="midnightblue" points="487.5,-493.48 491,-503.48 494.5,-493.48 487.5,-493.48"/>
</g>
<!-- Node21 -->
<g id="node21" class="node">
<title>Node21</title>
<g id="a_node21"><a xlink:href="frontend_8h.html" target="_top" xlink:title=" ">
<polygon fill="white" stroke="black" points="1303.5,-375 1303.5,-394 1432.5,-394 1432.5,-375 1303.5,-375"/>
<text text-anchor="middle" x="1368" y="-382" font-family="Helvetica,sans-Serif" font-size="10.00">src/node/rpc/frontend.h</text>
</a>
</g>
</g>
<!-- Node5&#45;&gt;Node21 -->
<g id="edge30" class="edge">
<title>Node5&#45;&gt;Node21</title>
<path fill="none" stroke="midnightblue" d="M542.66,-510.92C651,-508.05 898.37,-498.19 976,-467 996.55,-458.74 994.6,-444.62 1015,-436 1130.58,-387.17 1171.17,-420.23 1295,-400 1305.58,-398.27 1316.98,-396.14 1327.55,-394.05"/>
<polygon fill="midnightblue" stroke="midnightblue" points="542.53,-507.42 532.62,-511.17 542.71,-514.42 542.53,-507.42"/>
</g>
<!-- Node26 -->
<g id="node26" class="node">
<title>Node26</title>
<g id="a_node26"><a xlink:href="network__tables_8h.html" target="_top" xlink:title=" ">
<polygon fill="white" stroke="black" points="855,-436.5 855,-466.5 967,-466.5 967,-436.5 855,-436.5"/>
<text text-anchor="start" x="863" y="-454.5" font-family="Helvetica,sans-Serif" font-size="10.00">src/service/network</text>
<text text-anchor="middle" x="911" y="-443.5" font-family="Helvetica,sans-Serif" font-size="10.00">_tables.h</text>
</a>
</g>
</g>
<!-- Node5&#45;&gt;Node26 -->
<g id="edge40" class="edge">
<title>Node5&#45;&gt;Node26</title>
<path fill="none" stroke="midnightblue" d="M543.05,-504.63C622.41,-493.38 773.04,-472.04 854.81,-460.46"/>
<polygon fill="midnightblue" stroke="midnightblue" points="542.22,-501.21 532.81,-506.08 543.2,-508.14 542.22,-501.21"/>
</g>
<!-- Node8 -->
<g id="node8" class="node">
<title>Node8</title>
<g id="a_node8"><a xlink:href="node__state_8h.html" target="_top" xlink:title=" ">
<polygon fill="white" stroke="black" points="917,-174 917,-193 1041,-193 1041,-174 917,-174"/>
<text text-anchor="middle" x="979" y="-181" font-family="Helvetica,sans-Serif" font-size="10.00">src/node/node_state.h</text>
</a>
</g>
</g>
<!-- Node7&#45;&gt;Node8 -->
<g id="edge8" class="edge">
<title>Node7&#45;&gt;Node8</title>
<path fill="none" stroke="midnightblue" d="M325.77,-438.12C285.13,-421.35 219.29,-387.13 191,-333 170.82,-294.4 161.2,-266.77 191,-235 215.74,-208.63 735.01,-191.42 916.81,-186.19"/>
<polygon fill="midnightblue" stroke="midnightblue" points="324.69,-441.46 335.28,-441.92 327.29,-434.96 324.69,-441.46"/>
</g>
<!-- Node8&#45;&gt;Node4 -->
<g id="edge9" class="edge">
<title>Node8&#45;&gt;Node4</title>
<path fill="none" stroke="midnightblue" d="M1024.06,-171.29C1057.92,-162.28 1105.12,-148.43 1145,-132 1186.09,-115.07 1231.66,-88.9 1254.04,-75.52"/>
<polygon fill="midnightblue" stroke="midnightblue" points="1022.79,-168.01 1014.01,-173.93 1024.57,-174.78 1022.79,-168.01"/>
</g>
<!-- Node9 -->
<g id="node9" class="node">
<title>Node9</title>
<g id="a_node9"><a xlink:href="gov__effects_8h.html" target="_top" xlink:title=" ">
<polygon fill="white" stroke="black" points="992,-112.5 992,-131.5 1136,-131.5 1136,-112.5 992,-112.5"/>
<text text-anchor="middle" x="1064" y="-119.5" font-family="Helvetica,sans-Serif" font-size="10.00">src/node/rpc/gov_effects.h</text>
</a>
</g>
</g>
<!-- Node8&#45;&gt;Node9 -->
<g id="edge10" class="edge">
<title>Node8&#45;&gt;Node9</title>
<path fill="none" stroke="midnightblue" d="M999.55,-168.11C1015.9,-156.67 1038.22,-141.05 1051.84,-131.51"/>
<polygon fill="midnightblue" stroke="midnightblue" points="997.36,-165.37 991.18,-173.98 1001.38,-171.11 997.36,-165.37"/>
</g>
<!-- Node9&#45;&gt;Node4 -->
<g id="edge11" class="edge">
<title>Node9&#45;&gt;Node4</title>
<path fill="none" stroke="midnightblue" d="M1106.2,-109.83C1144.72,-99.63 1200.82,-84.78 1235.83,-75.52"/>
<polygon fill="midnightblue" stroke="midnightblue" points="1105.1,-106.5 1096.32,-112.44 1106.89,-113.27 1105.1,-106.5"/>
</g>
<!-- Node11&#45;&gt;Node4 -->
<g id="edge14" class="edge">
<title>Node11&#45;&gt;Node4</title>
<path fill="none" stroke="midnightblue" d="M106.17,-294.11C120.33,-275.11 143.27,-248.79 170,-235 354.22,-139.93 1003.47,-86.05 1206.71,-71.23"/>
<polygon fill="midnightblue" stroke="midnightblue" points="103.3,-292.1 100.29,-302.26 108.98,-296.19 103.3,-292.1"/>
</g>
<!-- Node12 -->
<g id="node12" class="node">
<title>Node12</title>
<g id="a_node12"><a xlink:href="historical__transaction__fetcher_8h.html" target="_top" xlink:title=" ">
<polygon fill="white" stroke="black" points="28.5,-168.5 28.5,-198.5 153.5,-198.5 153.5,-168.5 28.5,-168.5"/>
<text text-anchor="start" x="36.5" y="-186.5" font-family="Helvetica,sans-Serif" font-size="10.00">src/indexing/historical</text>
<text text-anchor="middle" x="91" y="-175.5" font-family="Helvetica,sans-Serif" font-size="10.00">_transaction_fetcher.h</text>
</a>
</g>
</g>
<!-- Node11&#45;&gt;Node12 -->
<g id="edge15" class="edge">
<title>Node11&#45;&gt;Node12</title>
<path fill="none" stroke="midnightblue" d="M91,-292.02C91,-264.51 91,-220.79 91,-198.52"/>
<polygon fill="midnightblue" stroke="midnightblue" points="87.5,-292.37 91,-302.37 94.5,-292.37 87.5,-292.37"/>
</g>
<!-- Node12&#45;&gt;Node4 -->
<g id="edge16" class="edge">
<title>Node12&#45;&gt;Node4</title>
<path fill="none" stroke="midnightblue" d="M107.99,-160.09C122.04,-143.49 143.6,-122.06 168,-112 264.02,-72.4 990.08,-67.61 1206.99,-67.06"/>
<polygon fill="midnightblue" stroke="midnightblue" points="104.95,-158.29 101.35,-168.25 110.38,-162.71 104.95,-158.29"/>
</g>
<!-- Node13&#45;&gt;Node8 -->
<g id="edge19" class="edge">
<title>Node13&#45;&gt;Node8</title>
<path fill="none" stroke="midnightblue" d="M486.51,-432.01C477.28,-388.92 461.78,-281.91 522,-235 582.06,-188.21 806.34,-183.11 916.77,-183.55"/>
<polygon fill="midnightblue" stroke="midnightblue" points="483.14,-432.97 488.78,-441.95 489.96,-431.42 483.14,-432.97"/>
</g>
<!-- Node13&#45;&gt;Node11 -->
<g id="edge18" class="edge">
<title>Node13&#45;&gt;Node11</title>
<path fill="none" stroke="midnightblue" d="M451.28,-439.22C416.92,-429.33 365.99,-414.32 322,-400 253.66,-377.75 174.88,-349.36 129.23,-332.63"/>
<polygon fill="midnightblue" stroke="midnightblue" points="450.37,-442.6 460.95,-442 452.3,-435.88 450.37,-442.6"/>
</g>
<!-- Node14 -->
<g id="node14" class="node">
<title>Node14</title>
<g id="a_node14"><a xlink:href="snapshot__serdes_8h.html" target="_top" xlink:title=" ">
<polygon fill="white" stroke="black" points="506,-308 506,-327 658,-327 658,-308 506,-308"/>
<text text-anchor="middle" x="582" y="-315" font-family="Helvetica,sans-Serif" font-size="10.00">src/node/snapshot_serdes.h</text>
</a>
</g>
</g>
<!-- Node13&#45;&gt;Node14 -->
<g id="edge20" class="edge">
<title>Node13&#45;&gt;Node14</title>
<path fill="none" stroke="midnightblue" d="M502.86,-433.29C522.58,-404.69 561.38,-348.41 576.13,-327.02"/>
<polygon fill="midnightblue" stroke="midnightblue" points="499.77,-431.62 496.97,-441.84 505.53,-435.59 499.77,-431.62"/>
</g>
<!-- Node16 -->
<g id="node16" class="node">
<title>Node16</title>
<g id="a_node16"><a xlink:href="tx__receipt_8h.html" target="_top" xlink:title=" ">
<polygon fill="white" stroke="black" points="330.5,-375 330.5,-394 449.5,-394 449.5,-375 330.5,-375"/>
<text text-anchor="middle" x="390" y="-382" font-family="Helvetica,sans-Serif" font-size="10.00">src/node/tx_receipt.h</text>
</a>
</g>
</g>
<!-- Node13&#45;&gt;Node16 -->
<g id="edge23" class="edge">
<title>Node13&#45;&gt;Node16</title>
<path fill="none" stroke="midnightblue" d="M468.89,-436.27C448.89,-423.4 420.11,-404.88 403.41,-394.13"/>
<polygon fill="midnightblue" stroke="midnightblue" points="467.08,-439.27 477.38,-441.73 470.86,-433.38 467.08,-439.27"/>
</g>
<!-- Node15 -->
<g id="node15" class="node">
<title>Node15</title>
<g id="a_node15"><a xlink:href="snapshotter_8h.html" target="_top" xlink:title=" ">
<polygon fill="white" stroke="black" points="530.5,-241 530.5,-260 657.5,-260 657.5,-241 530.5,-241"/>
<text text-anchor="middle" x="594" y="-248" font-family="Helvetica,sans-Serif" font-size="10.00">src/node/snapshotter.h</text>
</a>
</g>
</g>
<!-- Node14&#45;&gt;Node15 -->
<g id="edge21" class="edge">
<title>Node14&#45;&gt;Node15</title>
<path fill="none" stroke="midnightblue" d="M585.5,-297.54C587.78,-285.17 590.65,-269.62 592.41,-260.13"/>
<polygon fill="midnightblue" stroke="midnightblue" points="581.99,-297.26 583.62,-307.73 588.88,-298.54 581.99,-297.26"/>
</g>
<!-- Node15&#45;&gt;Node8 -->
<g id="edge22" class="edge">
<title>Node15&#45;&gt;Node8</title>
<path fill="none" stroke="midnightblue" d="M648.98,-239.13C656.7,-237.72 664.55,-236.31 672,-235 760.59,-219.48 863.8,-202.79 925.15,-193.01"/>
<polygon fill="midnightblue" stroke="midnightblue" points="648.13,-235.73 638.93,-240.98 649.4,-242.61 648.13,-235.73"/>
</g>
<!-- Node16&#45;&gt;Node11 -->
<g id="edge27" class="edge">
<title>Node16&#45;&gt;Node11</title>
<path fill="none" stroke="midnightblue" d="M340.54,-372.75C286.34,-360.97 199.72,-342.13 144.11,-330.05"/>
<polygon fill="midnightblue" stroke="midnightblue" points="340.09,-376.23 350.6,-374.94 341.58,-369.39 340.09,-376.23"/>
</g>
<!-- Node16&#45;&gt;Node14 -->
<g id="edge29" class="edge">
<title>Node16&#45;&gt;Node14</title>
<path fill="none" stroke="midnightblue" d="M425.15,-371.6C463.21,-358.71 523,-338.47 556.7,-327.06"/>
<polygon fill="midnightblue" stroke="midnightblue" points="423.85,-368.35 415.5,-374.87 426.09,-374.98 423.85,-368.35"/>
</g>
<!-- Node17 -->
<g id="node17" class="node">
<title>Node17</title>
<g id="a_node17"><a xlink:href="src_2apps_2js__v8_2tmpl_2receipt_8h.html" target="_top" xlink:title=" ">
<polygon fill="white" stroke="black" points="200.5,-302.5 200.5,-332.5 311.5,-332.5 311.5,-302.5 200.5,-302.5"/>
<text text-anchor="start" x="208.5" y="-320.5" font-family="Helvetica,sans-Serif" font-size="10.00">src/apps/js_v8/tmpl</text>
<text text-anchor="middle" x="256" y="-309.5" font-family="Helvetica,sans-Serif" font-size="10.00">/receipt.h</text>
</a>
</g>
</g>
<!-- Node16&#45;&gt;Node17 -->
<g id="edge24" class="edge">
<title>Node16&#45;&gt;Node17</title>
<path fill="none" stroke="midnightblue" d="M363.15,-370.47C340.49,-359.49 308.14,-343.79 284.92,-332.53"/>
<polygon fill="midnightblue" stroke="midnightblue" points="361.68,-373.65 372.21,-374.87 364.74,-367.35 361.68,-373.65"/>
</g>
<!-- Node20 -->
<g id="node20" class="node">
<title>Node20</title>
<g id="a_node20"><a xlink:href="historical__queries__adapter_8cpp.html" target="_top" xlink:title=" ">
<polygon fill="white" stroke="black" points="330,-302.5 330,-332.5 450,-332.5 450,-302.5 330,-302.5"/>
<text text-anchor="start" x="338" y="-320.5" font-family="Helvetica,sans-Serif" font-size="10.00">src/node/historical</text>
<text text-anchor="middle" x="390" y="-309.5" font-family="Helvetica,sans-Serif" font-size="10.00">_queries_adapter.cpp</text>
</a>
</g>
</g>
<!-- Node16&#45;&gt;Node20 -->
<g id="edge28" class="edge">
<title>Node16&#45;&gt;Node20</title>
<path fill="none" stroke="midnightblue" d="M390,-364.41C390,-354.22 390,-341.9 390,-332.59"/>
<polygon fill="midnightblue" stroke="midnightblue" points="386.5,-364.73 390,-374.73 393.5,-364.73 386.5,-364.73"/>
</g>
<!-- Node18 -->
<g id="node18" class="node">
<title>Node18</title>
<g id="a_node18"><a xlink:href="historical__state_8cpp.html" target="_top" xlink:title=" ">
<polygon fill="white" stroke="black" points="329.5,-235.5 329.5,-265.5 444.5,-265.5 444.5,-235.5 329.5,-235.5"/>
<text text-anchor="start" x="337.5" y="-253.5" font-family="Helvetica,sans-Serif" font-size="10.00">src/apps/js_v8/tmpl</text>
<text text-anchor="middle" x="387" y="-242.5" font-family="Helvetica,sans-Serif" font-size="10.00">/historical_state.cpp</text>
</a>
</g>
</g>
<!-- Node17&#45;&gt;Node18 -->
<g id="edge25" class="edge">
<title>Node17&#45;&gt;Node18</title>
<path fill="none" stroke="midnightblue" d="M293.58,-297.85C314.29,-287.58 339.59,-275.03 358.63,-265.58"/>
<polygon fill="midnightblue" stroke="midnightblue" points="291.83,-294.82 284.43,-302.4 294.94,-301.09 291.83,-294.82"/>
</g>
<!-- Node19 -->
<g id="node19" class="node">
<title>Node19</title>
<g id="a_node19"><a xlink:href="receipt_8cpp.html" target="_top" xlink:title=" ">
<polygon fill="white" stroke="black" points="200.5,-235.5 200.5,-265.5 311.5,-265.5 311.5,-235.5 200.5,-235.5"/>
<text text-anchor="start" x="208.5" y="-253.5" font-family="Helvetica,sans-Serif" font-size="10.00">src/apps/js_v8/tmpl</text>
<text text-anchor="middle" x="256" y="-242.5" font-family="Helvetica,sans-Serif" font-size="10.00">/receipt.cpp</text>
</a>
</g>
</g>
<!-- Node17&#45;&gt;Node19 -->
<g id="edge26" class="edge">
<title>Node17&#45;&gt;Node19</title>
<path fill="none" stroke="midnightblue" d="M256,-292.11C256,-283.15 256,-273.32 256,-265.58"/>
<polygon fill="midnightblue" stroke="midnightblue" points="252.5,-292.4 256,-302.4 259.5,-292.4 252.5,-292.4"/>
</g>
<!-- Node21&#45;&gt;Node8 -->
<g id="edge31" class="edge">
<title>Node21&#45;&gt;Node8</title>
<path fill="none" stroke="midnightblue" d="M1364.16,-365C1359.33,-346.42 1349.25,-318.26 1330,-302 1283.87,-263.04 1252.66,-293.68 1199,-266 1179.63,-256.01 1180.36,-245.02 1161,-235 1119.94,-213.75 1068.89,-200.59 1031.32,-193.05"/>
<polygon fill="midnightblue" stroke="midnightblue" points="1360.79,-365.97 1366.46,-374.91 1367.6,-364.38 1360.79,-365.97"/>
</g>
<!-- Node22 -->
<g id="node22" class="node">
<title>Node22</title>
<g id="a_node22"><a xlink:href="member__frontend_8h.html" target="_top" xlink:title=" ">
<polygon fill="white" stroke="black" points="1208,-235.5 1208,-265.5 1328,-265.5 1328,-235.5 1208,-235.5"/>
<text text-anchor="start" x="1216" y="-253.5" font-family="Helvetica,sans-Serif" font-size="10.00">src/node/rpc/member</text>
<text text-anchor="middle" x="1268" y="-242.5" font-family="Helvetica,sans-Serif" font-size="10.00">_frontend.h</text>
</a>
</g>
</g>
<!-- Node21&#45;&gt;Node22 -->
<g id="edge32" class="edge">
<title>Node21&#45;&gt;Node22</title>
<path fill="none" stroke="midnightblue" d="M1371.72,-364.9C1374.19,-347.27 1375.08,-320.77 1363,-302 1352.08,-285.04 1333.47,-273.4 1315.6,-265.61"/>
<polygon fill="midnightblue" stroke="midnightblue" points="1368.26,-364.36 1370.03,-374.81 1375.16,-365.54 1368.26,-364.36"/>
</g>
<!-- Node23 -->
<g id="node23" class="node">
<title>Node23</title>
<g id="a_node23"><a xlink:href="node__frontend_8h.html" target="_top" xlink:title=" ">
<polygon fill="white" stroke="black" points="1163,-308 1163,-327 1321,-327 1321,-308 1163,-308"/>
<text text-anchor="middle" x="1242" y="-315" font-family="Helvetica,sans-Serif" font-size="10.00">src/node/rpc/node_frontend.h</text>
</a>
</g>
</g>
<!-- Node21&#45;&gt;Node23 -->
<g id="edge34" class="edge">
<title>Node21&#45;&gt;Node23</title>
<path fill="none" stroke="midnightblue" d="M1342.36,-370.27C1317.41,-357.4 1280.2,-338.21 1258.8,-327.17"/>
<polygon fill="midnightblue" stroke="midnightblue" points="1340.78,-373.39 1351.27,-374.87 1343.99,-367.17 1340.78,-373.39"/>
</g>
<!-- Node25 -->
<g id="node25" class="node">
<title>Node25</title>
<g id="a_node25"><a xlink:href="user__frontend_8h.html" target="_top" xlink:title=" ">
<polygon fill="white" stroke="black" points="1766.5,-308 1766.5,-327 1921.5,-327 1921.5,-308 1766.5,-308"/>
<text text-anchor="middle" x="1844" y="-315" font-family="Helvetica,sans-Serif" font-size="10.00">src/node/rpc/user_frontend.h</text>
</a>
</g>
</g>
<!-- Node21&#45;&gt;Node25 -->
<g id="edge38" class="edge">
<title>Node21&#45;&gt;Node25</title>
<path fill="none" stroke="midnightblue" d="M1443.06,-374.57C1521.49,-365.05 1648.04,-349.15 1757,-333 1769.27,-331.18 1782.48,-329.06 1794.82,-327.01"/>
<polygon fill="midnightblue" stroke="midnightblue" points="1442.31,-371.14 1432.8,-375.81 1443.15,-378.08 1442.31,-371.14"/>
</g>
<!-- Node22&#45;&gt;Node4 -->
<g id="edge33" class="edge">
<title>Node22&#45;&gt;Node4</title>
<path fill="none" stroke="midnightblue" d="M1268,-225.27C1268,-184.19 1268,-102.69 1268,-75.82"/>
<polygon fill="midnightblue" stroke="midnightblue" points="1264.5,-225.48 1268,-235.48 1271.5,-225.48 1264.5,-225.48"/>
</g>
<!-- Node23&#45;&gt;Node4 -->
<g id="edge35" class="edge">
<title>Node23&#45;&gt;Node4</title>
<path fill="none" stroke="midnightblue" d="M1285.98,-304.44C1305.17,-296.75 1325.81,-284.63 1337,-266 1377.31,-198.93 1302.01,-104.93 1276.22,-75.9"/>
<polygon fill="midnightblue" stroke="midnightblue" points="1284.6,-301.22 1276.43,-307.97 1287.02,-307.79 1284.6,-301.22"/>
</g>
<!-- Node24 -->
<g id="node24" class="node">
<title>Node24</title>
<g id="a_node24"><a xlink:href="jwt__key__auto__refresh_8h.html" target="_top" xlink:title=" ">
<polygon fill="white" stroke="black" points="1026.5,-235.5 1026.5,-265.5 1151.5,-265.5 1151.5,-235.5 1026.5,-235.5"/>
<text text-anchor="start" x="1034.5" y="-253.5" font-family="Helvetica,sans-Serif" font-size="10.00">src/node/jwt_key_auto</text>
<text text-anchor="middle" x="1089" y="-242.5" font-family="Helvetica,sans-Serif" font-size="10.00">_refresh.h</text>
</a>
</g>
</g>
<!-- Node23&#45;&gt;Node24 -->
<g id="edge36" class="edge">
<title>Node23&#45;&gt;Node24</title>
<path fill="none" stroke="midnightblue" d="M1212.37,-303.91C1186.46,-292.91 1148.89,-276.94 1122.02,-265.53"/>
<polygon fill="midnightblue" stroke="midnightblue" points="1211.11,-307.18 1221.68,-307.87 1213.85,-300.74 1211.11,-307.18"/>
</g>
<!-- Node24&#45;&gt;Node8 -->
<g id="edge37" class="edge">
<title>Node24&#45;&gt;Node8</title>
<path fill="none" stroke="midnightblue" d="M1056.52,-230.31C1035.57,-217.93 1009.34,-202.43 993.4,-193.01"/>
<polygon fill="midnightblue" stroke="midnightblue" points="1054.74,-233.32 1065.13,-235.4 1058.3,-227.3 1054.74,-233.32"/>
</g>
<!-- Node25&#45;&gt;Node4 -->
<g id="edge39" class="edge">
<title>Node25&#45;&gt;Node4</title>
<path fill="none" stroke="midnightblue" d="M1931.73,-312.76C2055.1,-306.6 2267.53,-292.27 2291,-266 2300.18,-255.73 2299.46,-245.87 2291,-235 2172.13,-82.34 1531.36,-67.6 1329.17,-66.8"/>
<polygon fill="midnightblue" stroke="midnightblue" points="1931.36,-309.28 1921.54,-313.26 1931.7,-316.27 1931.36,-309.28"/>
</g>
<!-- Node27 -->
<g id="node27" class="node">
<title>Node27</title>
<g id="a_node27"><a xlink:href="kv__module__loader_8cpp.html" target="_top" xlink:title=" ">
<polygon fill="white" stroke="black" points="1142.5,-369.5 1142.5,-399.5 1285.5,-399.5 1285.5,-369.5 1142.5,-369.5"/>
<text text-anchor="start" x="1150.5" y="-387.5" font-family="Helvetica,sans-Serif" font-size="10.00">src/apps/js_v8/kv_module</text>
<text text-anchor="middle" x="1214" y="-376.5" font-family="Helvetica,sans-Serif" font-size="10.00">_loader.cpp</text>
</a>
</g>
</g>
<!-- Node26&#45;&gt;Node27 -->
<g id="edge41" class="edge">
<title>Node26&#45;&gt;Node27</title>
<path fill="none" stroke="midnightblue" d="M977.18,-436.3C1028.02,-425.4 1097.88,-410.41 1148.54,-399.54"/>
<polygon fill="midnightblue" stroke="midnightblue" points="976.33,-432.91 967.28,-438.43 977.79,-439.75 976.33,-432.91"/>
</g>
<!-- Node28 -->
<g id="node28" class="node">
<title>Node28</title>
<g id="a_node28"><a xlink:href="network__state_8h.html" target="_top" xlink:title=" ">
<polygon fill="white" stroke="black" points="984,-375 984,-394 1124,-394 1124,-375 984,-375"/>
<text text-anchor="middle" x="1054" y="-382" font-family="Helvetica,sans-Serif" font-size="10.00">src/node/network_state.h</text>
</a>
</g>
</g>
<!-- Node26&#45;&gt;Node28 -->
<g id="edge42" class="edge">
<title>Node26&#45;&gt;Node28</title>
<path fill="none" stroke="midnightblue" d="M951.41,-432.13C978.93,-419.62 1014.09,-403.64 1035.28,-394.01"/>
<polygon fill="midnightblue" stroke="midnightblue" points="949.68,-429.07 942.03,-436.4 952.58,-435.44 949.68,-429.07"/>
</g>
<!-- Node39 -->
<g id="node39" class="node">
<title>Node39</title>
<g id="a_node39"><a xlink:href="genesis__gen_8h.html" target="_top" xlink:title=" ">
<polygon fill="white" stroke="black" points="856,-369.5 856,-399.5 966,-399.5 966,-369.5 856,-369.5"/>
<text text-anchor="start" x="864" y="-387.5" font-family="Helvetica,sans-Serif" font-size="10.00">src/service/genesis</text>
<text text-anchor="middle" x="911" y="-376.5" font-family="Helvetica,sans-Serif" font-size="10.00">_gen.h</text>
</a>
</g>
</g>
<!-- Node26&#45;&gt;Node39 -->
<g id="edge68" class="edge">
<title>Node26&#45;&gt;Node39</title>
<path fill="none" stroke="midnightblue" d="M911,-426.11C911,-417.15 911,-407.32 911,-399.58"/>
<polygon fill="midnightblue" stroke="midnightblue" points="907.5,-426.4 911,-436.4 914.5,-426.4 907.5,-426.4"/>
</g>
<!-- Node28&#45;&gt;Node4 -->
<g id="edge43" class="edge">
<title>Node28&#45;&gt;Node4</title>
<path fill="none" stroke="midnightblue" d="M1111.04,-373.15C1191.71,-358.5 1329.47,-333.44 1330,-333 1387.17,-285.74 1373.59,-239.8 1355,-168 1347.92,-140.67 1343.13,-133.65 1325,-112 1312.53,-97.11 1294.44,-83.85 1282,-75.65"/>
<polygon fill="midnightblue" stroke="midnightblue" points="1110.23,-369.74 1101.02,-374.97 1111.48,-376.63 1110.23,-369.74"/>
</g>
<!-- Node28&#45;&gt;Node8 -->
<g id="edge59" class="edge">
<title>Node28&#45;&gt;Node8</title>
<path fill="none" stroke="midnightblue" d="M1066.44,-366.48C1077.3,-349.34 1089.65,-322.58 1078,-302 1062.68,-274.94 1038.93,-289 1018,-266 997.73,-243.73 985.93,-209.02 981.29,-193.06"/>
<polygon fill="midnightblue" stroke="midnightblue" points="1063.44,-364.66 1060.72,-374.9 1069.23,-368.6 1063.44,-364.66"/>
</g>
<!-- Node28&#45;&gt;Node15 -->
<g id="edge67" class="edge">
<title>Node28&#45;&gt;Node15</title>
<path fill="none" stroke="midnightblue" d="M998.59,-373.13C990.68,-371.71 982.64,-370.3 975,-369 872.56,-351.62 842.43,-366.29 744,-333 689.25,-314.48 630.88,-276.89 606.17,-260.02"/>
<polygon fill="midnightblue" stroke="midnightblue" points="998.04,-376.59 1008.5,-374.93 999.29,-369.7 998.04,-376.59"/>
</g>
<!-- Node28&#45;&gt;Node23 -->
<g id="edge60" class="edge">
<title>Node28&#45;&gt;Node23</title>
<path fill="none" stroke="midnightblue" d="M1088.89,-371.44C1126.19,-358.54 1184.37,-338.42 1217.23,-327.06"/>
<polygon fill="midnightblue" stroke="midnightblue" points="1087.27,-368.29 1078.96,-374.87 1089.56,-374.91 1087.27,-368.29"/>
</g>
<!-- Node28&#45;&gt;Node25 -->
<g id="edge61" class="edge">
<title>Node28&#45;&gt;Node25</title>
<path fill="none" stroke="midnightblue" d="M1105.78,-373.17C1115.14,-371.57 1124.84,-370.09 1134,-369 1409.41,-336.21 1481.37,-363.84 1757,-333 1770.54,-331.48 1785.19,-329.27 1798.52,-327.03"/>
<polygon fill="midnightblue" stroke="midnightblue" points="1105.03,-369.75 1095.79,-374.94 1106.25,-376.64 1105.03,-369.75"/>
</g>
<!-- Node29 -->
<g id="node29" class="node">
<title>Node29</title>
<g id="a_node29"><a xlink:href="wrap_8h.html" target="_top" xlink:title=" ">
<polygon fill="white" stroke="black" points="1670,-308 1670,-327 1748,-327 1748,-308 1670,-308"/>
<text text-anchor="middle" x="1709" y="-315" font-family="Helvetica,sans-Serif" font-size="10.00">src/js/wrap.h</text>
</a>
</g>
</g>
<!-- Node28&#45;&gt;Node29 -->
<g id="edge44" class="edge">
<title>Node28&#45;&gt;Node29</title>
<path fill="none" stroke="midnightblue" d="M1107.04,-373.18C1116.02,-371.64 1125.26,-370.17 1134,-369 1334.63,-342.07 1576.65,-326.19 1669.82,-320.7"/>
<polygon fill="midnightblue" stroke="midnightblue" points="1106.3,-369.76 1097.06,-374.95 1107.52,-376.65 1106.3,-369.76"/>
</g>
<!-- Node37 -->
<g id="node37" class="node">
<title>Node37</title>
<g id="a_node37"><a xlink:href="secret__broadcast_8h.html" target="_top" xlink:title=" ">
<polygon fill="white" stroke="black" points="752.5,-308 752.5,-327 905.5,-327 905.5,-308 752.5,-308"/>
<text text-anchor="middle" x="829" y="-315" font-family="Helvetica,sans-Serif" font-size="10.00">src/node/secret_broadcast.h</text>
</a>
</g>
</g>
<!-- Node28&#45;&gt;Node37 -->
<g id="edge62" class="edge">
<title>Node28&#45;&gt;Node37</title>
<path fill="none" stroke="midnightblue" d="M1014.51,-372.09C970,-359.23 898.64,-338.62 858.64,-327.06"/>
<polygon fill="midnightblue" stroke="midnightblue" points="1013.54,-375.46 1024.12,-374.87 1015.49,-368.73 1013.54,-375.46"/>
</g>
<!-- Node38 -->
<g id="node38" class="node">
<title>Node38</title>
<g id="a_node38"><a xlink:href="share__manager_8h.html" target="_top" xlink:title=" ">
<polygon fill="white" stroke="black" points="923.5,-308 923.5,-327 1068.5,-327 1068.5,-308 923.5,-308"/>
<text text-anchor="middle" x="996" y="-315" font-family="Helvetica,sans-Serif" font-size="10.00">src/node/share_manager.h</text>
</a>
</g>
</g>
<!-- Node28&#45;&gt;Node38 -->
<g id="edge64" class="edge">
<title>Node28&#45;&gt;Node38</title>
<path fill="none" stroke="midnightblue" d="M1039.4,-367.13C1028.05,-354.42 1012.77,-337.3 1003.7,-327.13"/>
<polygon fill="midnightblue" stroke="midnightblue" points="1036.91,-369.6 1046.18,-374.73 1042.13,-364.94 1036.91,-369.6"/>
</g>
<!-- Node29&#45;&gt;Node4 -->
<g id="edge46" class="edge">
<title>Node29&#45;&gt;Node4</title>
<path fill="none" stroke="midnightblue" d="M1722,-299.28C1733.5,-281.79 1746.51,-254.56 1733,-235 1641.16,-102.05 1432.95,-73.78 1329.17,-68.14"/>
<polygon fill="midnightblue" stroke="midnightblue" points="1718.84,-297.7 1715.95,-307.89 1724.57,-301.72 1718.84,-297.7"/>
</g>
<!-- Node29&#45;&gt;Node8 -->
<g id="edge57" class="edge">
<title>Node29&#45;&gt;Node8</title>
<path fill="none" stroke="midnightblue" d="M1659.94,-307.99C1607.88,-298.7 1523.29,-282.88 1451,-266 1399.87,-254.06 1388.43,-245.58 1337,-235 1234.17,-213.85 1112.9,-198.78 1041.17,-190.88"/>
<polygon fill="midnightblue" stroke="midnightblue" points="1659.45,-311.45 1669.91,-309.76 1660.68,-304.56 1659.45,-311.45"/>
</g>
<!-- Node29&#45;&gt;Node22 -->
<g id="edge58" class="edge">
<title>Node29&#45;&gt;Node22</title>
<path fill="none" stroke="midnightblue" d="M1659.89,-309.26C1578.59,-297.28 1416.27,-273.35 1328.2,-260.37"/>
<polygon fill="midnightblue" stroke="midnightblue" points="1659.46,-312.74 1669.86,-310.73 1660.48,-305.81 1659.46,-312.74"/>
</g>
<!-- Node30 -->
<g id="node30" class="node">
<title>Node30</title>
<g id="a_node30"><a xlink:href="js__generic__base_8cpp.html" target="_top" xlink:title=" ">
<polygon fill="white" stroke="black" points="1606,-235.5 1606,-265.5 1724,-265.5 1724,-235.5 1606,-235.5"/>
<text text-anchor="start" x="1614" y="-253.5" font-family="Helvetica,sans-Serif" font-size="10.00">src/apps/js_generic</text>
<text text-anchor="middle" x="1665" y="-242.5" font-family="Helvetica,sans-Serif" font-size="10.00">/js_generic_base.cpp</text>
</a>
</g>
</g>
<!-- Node29&#45;&gt;Node30 -->
<g id="edge45" class="edge">
<title>Node29&#45;&gt;Node30</title>
<path fill="none" stroke="midnightblue" d="M1697.39,-299.35C1690.27,-288.82 1681.25,-275.5 1674.54,-265.59"/>
<polygon fill="midnightblue" stroke="midnightblue" points="1694.56,-301.41 1703.07,-307.73 1700.36,-297.49 1694.56,-301.41"/>
</g>
<!-- Node31 -->
<g id="node31" class="node">
<title>Node31</title>
<g id="a_node31"><a xlink:href="js_2consensus_8cpp.html" target="_top" xlink:title=" ">
<polygon fill="white" stroke="black" points="2166,-241 2166,-260 2282,-260 2282,-241 2166,-241"/>
<text text-anchor="middle" x="2224" y="-248" font-family="Helvetica,sans-Serif" font-size="10.00">src/js/consensus.cpp</text>
</a>
</g>
</g>
<!-- Node29&#45;&gt;Node31 -->
<g id="edge47" class="edge">
<title>Node29&#45;&gt;Node31</title>
<path fill="none" stroke="midnightblue" d="M1744.27,-305.16C1748.86,-303.96 1753.52,-302.86 1758,-302 1932.89,-268.57 1980.99,-292.88 2157,-266 2167.24,-264.44 2178.25,-262.26 2188.34,-260.07"/>
<polygon fill="midnightblue" stroke="midnightblue" points="1743.13,-301.85 1734.45,-307.93 1745.02,-308.59 1743.13,-301.85"/>
</g>
<!-- Node32 -->
<g id="node32" class="node">
<title>Node32</title>
<g id="a_node32"><a xlink:href="wrap_8cpp.html" target="_top" xlink:title=" ">
<polygon fill="white" stroke="black" points="1927.5,-174 1927.5,-193 2016.5,-193 2016.5,-174 1927.5,-174"/>
<text text-anchor="middle" x="1972" y="-181" font-family="Helvetica,sans-Serif" font-size="10.00">src/js/wrap.cpp</text>
</a>
</g>
</g>
<!-- Node29&#45;&gt;Node32 -->
<g id="edge56" class="edge">
<title>Node29&#45;&gt;Node32</title>
<path fill="none" stroke="midnightblue" d="M1726.3,-301.04C1749.94,-280.15 1791.43,-244.42 1809,-235 1847.25,-214.49 1895.1,-200.92 1929.04,-193.06"/>
<polygon fill="midnightblue" stroke="midnightblue" points="1723.9,-298.49 1718.74,-307.74 1728.55,-303.72 1723.9,-298.49"/>
</g>
<!-- Node33 -->
<g id="node33" class="node">
<title>Node33</title>
<g id="a_node33"><a xlink:href="conv_8cpp.html" target="_top" xlink:title=" ">
<polygon fill="white" stroke="black" points="1818,-241 1818,-260 1906,-260 1906,-241 1818,-241"/>
<text text-anchor="middle" x="1862" y="-248" font-family="Helvetica,sans-Serif" font-size="10.00">src/js/conv.cpp</text>
</a>
</g>
</g>
<!-- Node29&#45;&gt;Node33 -->
<g id="edge49" class="edge">
<title>Node29&#45;&gt;Node33</title>
<path fill="none" stroke="midnightblue" d="M1738.54,-303.95C1768.84,-291.08 1815.15,-271.4 1841.6,-260.17"/>
<polygon fill="midnightblue" stroke="midnightblue" points="1737.15,-300.74 1729.32,-307.87 1739.89,-307.18 1737.15,-300.74"/>
</g>
<!-- Node34 -->
<g id="node34" class="node">
<title>Node34</title>
<g id="a_node34"><a xlink:href="js_2crypto_8cpp.html" target="_top" xlink:title=" ">
<polygon fill="white" stroke="black" points="1924,-241 1924,-260 2020,-260 2020,-241 1924,-241"/>
<text text-anchor="middle" x="1972" y="-248" font-family="Helvetica,sans-Serif" font-size="10.00">src/js/crypto.cpp</text>
</a>
</g>
</g>
<!-- Node29&#45;&gt;Node34 -->
<g id="edge51" class="edge">
<title>Node29&#45;&gt;Node34</title>
<path fill="none" stroke="midnightblue" d="M1746.31,-305.2C1750.25,-304.08 1754.2,-303 1758,-302 1827.25,-283.83 1845.42,-282.83 1915,-266 1922.74,-264.13 1931.06,-262.05 1938.88,-260.07"/>
<polygon fill="midnightblue" stroke="midnightblue" points="1745.28,-301.85 1736.64,-307.99 1747.22,-308.58 1745.28,-301.85"/>
</g>
<!-- Node35 -->
<g id="node35" class="node">
<title>Node35</title>
<g id="a_node35"><a xlink:href="js_2historical_8cpp.html" target="_top" xlink:title=" ">
<polygon fill="white" stroke="black" points="2038,-241 2038,-260 2148,-260 2148,-241 2038,-241"/>
<text text-anchor="middle" x="2093" y="-248" font-family="Helvetica,sans-Serif" font-size="10.00">src/js/historical.cpp</text>
</a>
</g>
</g>
<!-- Node29&#45;&gt;Node35 -->
<g id="edge53" class="edge">
<title>Node29&#45;&gt;Node35</title>
<path fill="none" stroke="midnightblue" d="M1744.98,-305.16C1749.34,-303.99 1753.75,-302.9 1758,-302 1876.84,-276.68 1909.41,-287.45 2029,-266 2038.42,-264.31 2048.55,-262.17 2057.91,-260.05"/>
<polygon fill="midnightblue" stroke="midnightblue" points="1743.67,-301.9 1735,-307.99 1745.57,-308.63 1743.67,-301.9"/>
</g>
<!-- Node36 -->
<g id="node36" class="node">
<title>Node36</title>
<g id="a_node36"><a xlink:href="openenclave_8cpp.html" target="_top" xlink:title=" ">
<polygon fill="white" stroke="black" points="1460,-241 1460,-260 1588,-260 1588,-241 1460,-241"/>
<text text-anchor="middle" x="1524" y="-248" font-family="Helvetica,sans-Serif" font-size="10.00">src/js/openenclave.cpp</text>
</a>
</g>
</g>
<!-- Node29&#45;&gt;Node36 -->
<g id="edge55" class="edge">
<title>Node29&#45;&gt;Node36</title>
<path fill="none" stroke="midnightblue" d="M1674.66,-304.44C1637.96,-291.54 1580.71,-271.42 1548.37,-260.06"/>
<polygon fill="midnightblue" stroke="midnightblue" points="1673.84,-307.86 1684.43,-307.87 1676.16,-301.25 1673.84,-307.86"/>
</g>
<!-- Node31&#45;&gt;Node32 -->
<g id="edge48" class="edge">
<title>Node31&#45;&gt;Node32</title>
<path fill="none" stroke="midnightblue" d="M2180.98,-238.4C2131.25,-225.58 2050.45,-204.74 2005.28,-193.08"/>
<polygon fill="midnightblue" stroke="midnightblue" points="2180.24,-241.83 2190.8,-240.94 2181.99,-235.05 2180.24,-241.83"/>
</g>
<!-- Node33&#45;&gt;Node32 -->
<g id="edge50" class="edge">
<title>Node33&#45;&gt;Node32</title>
<path fill="none" stroke="midnightblue" d="M1885.5,-235.62C1907.29,-222.74 1939.04,-203.98 1957.4,-193.13"/>
<polygon fill="midnightblue" stroke="midnightblue" points="1883.66,-232.63 1876.84,-240.73 1887.22,-238.66 1883.66,-232.63"/>
</g>
<!-- Node34&#45;&gt;Node32 -->
<g id="edge52" class="edge">
<title>Node34&#45;&gt;Node32</title>
<path fill="none" stroke="midnightblue" d="M1972,-230.54C1972,-218.17 1972,-202.62 1972,-193.13"/>
<polygon fill="midnightblue" stroke="midnightblue" points="1968.5,-230.73 1972,-240.73 1975.5,-230.73 1968.5,-230.73"/>
</g>
<!-- Node35&#45;&gt;Node32 -->
<g id="edge54" class="edge">
<title>Node35&#45;&gt;Node32</title>
<path fill="none" stroke="midnightblue" d="M2067.79,-235.96C2043.8,-223.07 2008.44,-204.07 1988.06,-193.13"/>
<polygon fill="midnightblue" stroke="midnightblue" points="2066.22,-239.08 2076.68,-240.73 2069.53,-232.92 2066.22,-239.08"/>
</g>
<!-- Node37&#45;&gt;Node8 -->
<g id="edge63" class="edge">
<title>Node37&#45;&gt;Node8</title>
<path fill="none" stroke="midnightblue" d="M846.48,-301.12C878.25,-273.16 944.48,-214.88 969.32,-193.02"/>
<polygon fill="midnightblue" stroke="midnightblue" points="844.04,-298.61 838.84,-307.84 848.66,-303.86 844.04,-298.61"/>
</g>
<!-- Node38&#45;&gt;Node8 -->
<g id="edge65" class="edge">
<title>Node38&#45;&gt;Node8</title>
<path fill="none" stroke="midnightblue" d="M990.74,-297.78C988.29,-288.33 985.58,-276.64 984,-266 980.09,-239.64 979.23,-208.04 979.04,-193.12"/>
<polygon fill="midnightblue" stroke="midnightblue" points="987.42,-298.91 993.41,-307.65 994.18,-297.08 987.42,-298.91"/>
</g>
<!-- Node38&#45;&gt;Node22 -->
<g id="edge66" class="edge">
<title>Node38&#45;&gt;Node22</title>
<path fill="none" stroke="midnightblue" d="M1041.83,-305.55C1087.87,-294.55 1158.99,-277.55 1209.17,-265.56"/>
<polygon fill="midnightblue" stroke="midnightblue" points="1040.75,-302.21 1031.84,-307.94 1042.38,-309.02 1040.75,-302.21"/>
</g>
<!-- Node39&#45;&gt;Node8 -->
<g id="edge69" class="edge">
<title>Node39&#45;&gt;Node8</title>
<path fill="none" stroke="midnightblue" d="M845.58,-376.05C787.95,-366.49 717.04,-345.62 744,-302 784.77,-236.04 875.02,-205.87 931.06,-193.04"/>
<polygon fill="midnightblue" stroke="midnightblue" points="845.37,-379.56 855.79,-377.65 846.45,-372.64 845.37,-379.56"/>
</g>
<!-- Node39&#45;&gt;Node22 -->
<g id="edge70" class="edge">
<title>Node39&#45;&gt;Node22</title>
<path fill="none" stroke="midnightblue" d="M972.27,-366.75C1004.09,-357.6 1043.44,-345.59 1078,-333 1108.52,-321.88 1190.86,-285.74 1236.49,-265.52"/>
<polygon fill="midnightblue" stroke="midnightblue" points="971.31,-363.38 962.65,-369.49 973.23,-370.11 971.31,-363.38"/>
</g>
<!-- Node39&#45;&gt;Node23 -->
<g id="edge71" class="edge">
<title>Node39&#45;&gt;Node23</title>
<path fill="none" stroke="midnightblue" d="M976.14,-368.8C1058.36,-351.84 1142.73,-336.29 1194.15,-327.02"/>
<polygon fill="midnightblue" stroke="midnightblue" points="975.21,-365.42 966.13,-370.88 976.63,-372.28 975.21,-365.42"/>
</g>
<!-- Node39&#45;&gt;Node37 -->
<g id="edge72" class="edge">
<title>Node39&#45;&gt;Node37</title>
<path fill="none" stroke="midnightblue" d="M885.15,-363.01C869.93,-350.94 851.46,-336.3 839.97,-327.19"/>
<polygon fill="midnightblue" stroke="midnightblue" points="883.2,-365.93 893.21,-369.4 887.54,-360.44 883.2,-365.93"/>
</g>
<!-- Node39&#45;&gt;Node38 -->
<g id="edge73" class="edge">
<title>Node39&#45;&gt;Node38</title>
<path fill="none" stroke="midnightblue" d="M937.8,-363.01C953.58,-350.94 972.72,-336.3 984.63,-327.19"/>
<polygon fill="midnightblue" stroke="midnightblue" points="935.26,-360.54 929.44,-369.4 939.51,-366.1 935.26,-360.54"/>
</g>
</g>
</svg>
