<?xml version="1.0" encoding="UTF-8" standalone="no"?>
<!DOCTYPE svg PUBLIC "-//W3C//DTD SVG 1.1//EN"
 "http://www.w3.org/Graphics/SVG/1.1/DTD/svg11.dtd">
<!-- Generated by graphviz version 2.43.0 (0)
 -->
<!-- Title: src/crypto/certs.h Pages: 1 -->
<!--zoomable 476 -->
<svg id="main" version="1.1" xmlns="http://www.w3.org/2000/svg" xmlns:xlink="http://www.w3.org/1999/xlink" xml:space="preserve" onload="init(evt)">
<style type="text/css"><![CDATA[
.edge:hover path { stroke: red; }
.edge:hover polygon { stroke: red; fill: red; }
]]></style>
<script type="text/javascript"><![CDATA[
var edges = document.getElementsByTagName('g');
if (edges && edges.length) {
  for (var i=0;i<edges.length;i++) {
    if (edges[i].id.substr(0,4)=='edge') {
      edges[i].setAttribute('class','edge');
    }
  }
}
]]></script>
        <defs>
                <circle id="rim" cx="0" cy="0" r="7"/>
                <circle id="rim2" cx="0" cy="0" r="3.5"/>
                <g id="zoomPlus">
                        <use xlink:href="#rim" fill="#404040">
                                <set attributeName="fill" to="#808080" begin="zoomplus.mouseover" end="zoomplus.mouseout"/>
                        </use>
                        <path d="M-4,0h8M0,-4v8" fill="none" stroke="white" stroke-width="1.5" pointer-events="none"/>
                </g>
                <g id="zoomMin">
                        <use xlink:href="#rim" fill="#404040">
                                <set attributeName="fill" to="#808080" begin="zoomminus.mouseover" end="zoomminus.mouseout"/>
                        </use>
                        <path d="M-4,0h8" fill="none" stroke="white" stroke-width="1.5" pointer-events="none"/>
                </g>
                <g id="dirArrow">
                        <path fill="none" stroke="white" stroke-width="1.5" d="M0,-3.0v7 M-2.5,-0.5L0,-3.0L2.5,-0.5"/>
                </g>
               <g id="resetDef">
                       <use xlink:href="#rim2" fill="#404040">
                               <set attributeName="fill" to="#808080" begin="reset.mouseover" end="reset.mouseout"/>
                       </use>
               </g>
        </defs>

<script type="text/javascript">
var viewWidth = 2225;
var viewHeight = 476;
var sectionId = 'dynsection-0';
</script>
<script xlink:href="svgpan.js"/>
<svg id="graph" class="graph">
<g id="viewport">
<title>src/crypto/certs.h</title>
<polygon fill="white" stroke="transparent" points="-4,4 -4,-472 2220.5,-472 2220.5,4 -4,4"/>
<!-- Node1 -->
<g id="node1" class="node">
<title>Node1</title>
<g id="a_node1"><a xlink:title=" ">
<polygon fill="#bfbfbf" stroke="black" points="856.5,-448.5 856.5,-467.5 957.5,-467.5 957.5,-448.5 856.5,-448.5"/>
<text text-anchor="middle" x="907" y="-455.5" font-family="Helvetica,sans-Serif" font-size="10.00">src/crypto/certs.h</text>
</a>
</g>
</g>
<!-- Node2 -->
<g id="node2" class="node">
<title>Node2</title>
<g id="a_node2"><a xlink:href="include_2ccf_2crypto_2key__pair_8h.html" target="_top" xlink:title=" ">
<polygon fill="white" stroke="black" points="538.5,-392.5 538.5,-411.5 655.5,-411.5 655.5,-392.5 538.5,-392.5"/>
<text text-anchor="middle" x="597" y="-399.5" font-family="Helvetica,sans-Serif" font-size="10.00">ccf/crypto/key_pair.h</text>
</a>
</g>
</g>
<!-- Node1&#45;&gt;Node2 -->
<g id="edge1" class="edge">
<title>Node1&#45;&gt;Node2</title>
<path fill="none" stroke="midnightblue" d="M857.88,-448.44C803.12,-438.9 714.59,-423.48 656.09,-413.29"/>
<polygon fill="midnightblue" stroke="midnightblue" points="656.34,-409.78 645.89,-411.52 655.14,-416.68 656.34,-409.78"/>
</g>
<!-- Node7 -->
<g id="node7" class="node">
<title>Node7</title>
<g id="a_node7"><a xlink:title=" ">
<polygon fill="white" stroke="#bfbfbf" points="654,-0.5 654,-19.5 698,-19.5 698,-0.5 654,-0.5"/>
<text text-anchor="middle" x="676" y="-7.5" font-family="Helvetica,sans-Serif" font-size="10.00">string</text>
</a>
</g>
</g>
<!-- Node1&#45;&gt;Node7 -->
<g id="edge72" class="edge">
<title>Node1&#45;&gt;Node7</title>
<path fill="none" stroke="midnightblue" d="M957.66,-449.8C1045.79,-435.83 1218,-401.55 1218,-347 1218,-347 1218,-347 1218,-233 1218,-137.71 1185.71,-90.81 1097,-56 1026.13,-28.19 794.31,-15.92 708.41,-12.25"/>
<polygon fill="midnightblue" stroke="midnightblue" points="708.35,-8.75 698.21,-11.83 708.06,-15.74 708.35,-8.75"/>
</g>
<!-- Node21 -->
<g id="node21" class="node">
<title>Node21</title>
<g id="a_node21"><a xlink:href="pem_8h.html" target="_top" xlink:title=" ">
<polygon fill="white" stroke="black" points="189,-224.5 189,-243.5 287,-243.5 287,-224.5 189,-224.5"/>
<text text-anchor="middle" x="238" y="-231.5" font-family="Helvetica,sans-Serif" font-size="10.00">ccf/crypto/pem.h</text>
</a>
</g>
</g>
<!-- Node1&#45;&gt;Node21 -->
<g id="edge54" class="edge">
<title>Node1&#45;&gt;Node21</title>
<path fill="none" stroke="midnightblue" d="M856.25,-453.34C721.4,-442.97 357.22,-410.56 251,-356 218.55,-339.33 205.54,-333.45 191,-300 182.8,-281.14 199.7,-262.41 215.47,-249.94"/>
<polygon fill="midnightblue" stroke="midnightblue" points="217.97,-252.44 223.94,-243.69 213.82,-246.81 217.97,-252.44"/>
</g>
<!-- Node31 -->
<g id="node31" class="node">
<title>Node31</title>
<g id="a_node31"><a xlink:href="x509__time_8h.html" target="_top" xlink:title=" ">
<polygon fill="white" stroke="black" points="1246,-336.5 1246,-355.5 1364,-355.5 1364,-336.5 1246,-336.5"/>
<text text-anchor="middle" x="1305" y="-343.5" font-family="Helvetica,sans-Serif" font-size="10.00">openssl/x509_time.h</text>
</a>
</g>
</g>
<!-- Node1&#45;&gt;Node31 -->
<g id="edge55" class="edge">
<title>Node1&#45;&gt;Node31</title>
<path fill="none" stroke="midnightblue" d="M957.73,-453.58C1036.54,-447.68 1184.29,-434.03 1232,-412 1256.18,-400.84 1278.15,-378.93 1291.53,-363.65"/>
<polygon fill="midnightblue" stroke="midnightblue" points="1294.25,-365.85 1298.04,-355.95 1288.91,-361.33 1294.25,-365.85"/>
</g>
<!-- Node3 -->
<g id="node3" class="node">
<title>Node3</title>
<g id="a_node3"><a xlink:href="curve_8h.html" target="_top" xlink:title=" ">
<polygon fill="white" stroke="black" points="778,-280.5 778,-299.5 882,-299.5 882,-280.5 778,-280.5"/>
<text text-anchor="middle" x="830" y="-287.5" font-family="Helvetica,sans-Serif" font-size="10.00">ccf/crypto/curve.h</text>
</a>
</g>
</g>
<!-- Node2&#45;&gt;Node3 -->
<g id="edge2" class="edge">
<title>Node2&#45;&gt;Node3</title>
<path fill="none" stroke="midnightblue" d="M615.28,-392.37C656.03,-373.13 754.49,-326.65 802.61,-303.93"/>
<polygon fill="midnightblue" stroke="midnightblue" points="804.25,-307.03 811.8,-299.59 801.26,-300.7 804.25,-307.03"/>
</g>
<!-- Node2&#45;&gt;Node7 -->
<g id="edge52" class="edge">
<title>Node2&#45;&gt;Node7</title>
<path fill="none" stroke="midnightblue" d="M655.58,-401.41C796.34,-400.84 1142,-389.4 1142,-291 1142,-291 1142,-291 1142,-121 1142,-31.69 813.71,-14.81 708.22,-11.69"/>
<polygon fill="midnightblue" stroke="midnightblue" points="708.25,-8.19 698.16,-11.41 708.06,-15.19 708.25,-8.19"/>
</g>
<!-- Node8 -->
<g id="node8" class="node">
<title>Node8</title>
<g id="a_node8"><a xlink:title=" ">
<polygon fill="white" stroke="#bfbfbf" points="189.5,-0.5 189.5,-19.5 236.5,-19.5 236.5,-0.5 189.5,-0.5"/>
<text text-anchor="middle" x="213" y="-7.5" font-family="Helvetica,sans-Serif" font-size="10.00">vector</text>
</a>
</g>
</g>
<!-- Node2&#45;&gt;Node8 -->
<g id="edge53" class="edge">
<title>Node2&#45;&gt;Node8</title>
<path fill="none" stroke="midnightblue" d="M538.4,-397.22C387.98,-385.92 0,-346.01 0,-235 0,-235 0,-235 0,-121 0,-41.3 119.19,-19.28 179.25,-13.25"/>
<polygon fill="midnightblue" stroke="midnightblue" points="179.75,-16.72 189.39,-12.33 179.12,-9.75 179.75,-16.72"/>
</g>
<!-- Node2&#45;&gt;Node21 -->
<g id="edge27" class="edge">
<title>Node2&#45;&gt;Node21</title>
<path fill="none" stroke="midnightblue" d="M538.37,-395.19C437.58,-383.83 238.44,-354.83 199,-300 187.33,-283.78 203.23,-263.92 218.1,-250.46"/>
<polygon fill="midnightblue" stroke="midnightblue" points="220.71,-252.84 226.07,-243.7 216.18,-247.5 220.71,-252.84"/>
</g>
<!-- Node26 -->
<g id="node26" class="node">
<title>Node26</title>
<g id="a_node26"><a xlink:href="include_2ccf_2crypto_2public__key_8h.html" target="_top" xlink:title=" ">
<polygon fill="white" stroke="black" points="439.5,-336.5 439.5,-355.5 566.5,-355.5 566.5,-336.5 439.5,-336.5"/>
<text text-anchor="middle" x="503" y="-343.5" font-family="Helvetica,sans-Serif" font-size="10.00">ccf/crypto/public_key.h</text>
</a>
</g>
</g>
<!-- Node2&#45;&gt;Node26 -->
<g id="edge35" class="edge">
<title>Node2&#45;&gt;Node26</title>
<path fill="none" stroke="midnightblue" d="M581.9,-392.32C567.1,-383.82 544.31,-370.73 527.02,-360.8"/>
<polygon fill="midnightblue" stroke="midnightblue" points="528.48,-357.6 518.07,-355.65 524.99,-363.67 528.48,-357.6"/>
</g>
<!-- Node28 -->
<g id="node28" class="node">
<title>Node28</title>
<g id="a_node28"><a xlink:href="san_8h.html" target="_top" xlink:title=" ">
<polygon fill="white" stroke="black" points="531,-224.5 531,-243.5 625,-243.5 625,-224.5 531,-224.5"/>
<text text-anchor="middle" x="578" y="-231.5" font-family="Helvetica,sans-Serif" font-size="10.00">ccf/crypto/san.h</text>
</a>
</g>
</g>
<!-- Node2&#45;&gt;Node28 -->
<g id="edge49" class="edge">
<title>Node2&#45;&gt;Node28</title>
<path fill="none" stroke="midnightblue" d="M603.8,-392.46C619.05,-372.22 653.18,-320.01 634,-280 627.75,-266.95 615.66,-256.49 604.32,-248.95"/>
<polygon fill="midnightblue" stroke="midnightblue" points="605.85,-245.79 595.5,-243.54 602.19,-251.75 605.85,-245.79"/>
</g>
<!-- Node29 -->
<g id="node29" class="node">
<title>Node29</title>
<g id="a_node29"><a xlink:title=" ">
<polygon fill="white" stroke="#bfbfbf" points="208,-280.5 208,-299.5 258,-299.5 258,-280.5 208,-280.5"/>
<text text-anchor="middle" x="233" y="-287.5" font-family="Helvetica,sans-Serif" font-size="10.00">cstdint</text>
</a>
</g>
</g>
<!-- Node2&#45;&gt;Node29 -->
<g id="edge50" class="edge">
<title>Node2&#45;&gt;Node29</title>
<path fill="none" stroke="midnightblue" d="M563.47,-392.46C529.84,-383.77 476.62,-369.66 431,-356 373.13,-338.67 306.52,-316.3 267.19,-302.83"/>
<polygon fill="midnightblue" stroke="midnightblue" points="268.16,-299.46 257.56,-299.52 265.89,-306.08 268.16,-299.46"/>
</g>
<!-- Node30 -->
<g id="node30" class="node">
<title>Node30</title>
<g id="a_node30"><a xlink:title=" ">
<polygon fill="white" stroke="#bfbfbf" points="569,-280.5 569,-299.5 625,-299.5 625,-280.5 569,-280.5"/>
<text text-anchor="middle" x="597" y="-287.5" font-family="Helvetica,sans-Serif" font-size="10.00">optional</text>
</a>
</g>
</g>
<!-- Node2&#45;&gt;Node30 -->
<g id="edge51" class="edge">
<title>Node2&#45;&gt;Node30</title>
<path fill="none" stroke="midnightblue" d="M597,-392.37C597,-374.62 597,-333.67 597,-309.6"/>
<polygon fill="midnightblue" stroke="midnightblue" points="600.5,-309.59 597,-299.59 593.5,-309.59 600.5,-309.59"/>
</g>
<!-- Node4 -->
<g id="node4" class="node">
<title>Node4</title>
<g id="a_node4"><a xlink:href="md__type_8h.html" target="_top" xlink:title=" ">
<polygon fill="white" stroke="black" points="726.5,-224.5 726.5,-243.5 845.5,-243.5 845.5,-224.5 726.5,-224.5"/>
<text text-anchor="middle" x="786" y="-231.5" font-family="Helvetica,sans-Serif" font-size="10.00">ccf/crypto/md_type.h</text>
</a>
</g>
</g>
<!-- Node3&#45;&gt;Node4 -->
<g id="edge3" class="edge">
<title>Node3&#45;&gt;Node4</title>
<path fill="none" stroke="midnightblue" d="M822.73,-280.08C816.46,-272.38 807.21,-261.03 799.57,-251.65"/>
<polygon fill="midnightblue" stroke="midnightblue" points="802.16,-249.29 793.13,-243.75 796.73,-253.71 802.16,-249.29"/>
</g>
<!-- Node5 -->
<g id="node5" class="node">
<title>Node5</title>
<g id="a_node5"><a xlink:href="json_8h.html" target="_top" xlink:title=" ">
<polygon fill="white" stroke="black" points="761.5,-168.5 761.5,-187.5 838.5,-187.5 838.5,-168.5 761.5,-168.5"/>
<text text-anchor="middle" x="800" y="-175.5" font-family="Helvetica,sans-Serif" font-size="10.00">ccf/ds/json.h</text>
</a>
</g>
</g>
<!-- Node3&#45;&gt;Node5 -->
<g id="edge23" class="edge">
<title>Node3&#45;&gt;Node5</title>
<path fill="none" stroke="midnightblue" d="M837.77,-280.42C848.17,-267.81 864.32,-243.67 855,-224 848.87,-211.07 837.01,-200.62 825.86,-193.05"/>
<polygon fill="midnightblue" stroke="midnightblue" points="827.53,-189.97 817.2,-187.61 823.81,-195.9 827.53,-189.97"/>
</g>
<!-- Node3&#45;&gt;Node7 -->
<g id="edge26" class="edge">
<title>Node3&#45;&gt;Node7</title>
<path fill="none" stroke="midnightblue" d="M875.55,-280.48C953.47,-264.6 1104,-227.63 1104,-179 1104,-179 1104,-179 1104,-121 1104,-39.3 807.74,-17.4 708.18,-12.35"/>
<polygon fill="midnightblue" stroke="midnightblue" points="708.27,-8.85 698.11,-11.87 707.93,-15.84 708.27,-8.85"/>
</g>
<!-- Node16 -->
<g id="node16" class="node">
<title>Node16</title>
<g id="a_node16"><a xlink:title=" ">
<polygon fill="white" stroke="#bfbfbf" points="872.5,-56.5 872.5,-75.5 951.5,-75.5 951.5,-56.5 872.5,-56.5"/>
<text text-anchor="middle" x="912" y="-63.5" font-family="Helvetica,sans-Serif" font-size="10.00">fmt/format.h</text>
</a>
</g>
</g>
<!-- Node3&#45;&gt;Node16 -->
<g id="edge24" class="edge">
<title>Node3&#45;&gt;Node16</title>
<path fill="none" stroke="midnightblue" d="M840.1,-280.39C849.27,-272.01 862.47,-258.47 870,-244 897.65,-190.87 907.38,-119.33 910.57,-85.8"/>
<polygon fill="midnightblue" stroke="midnightblue" points="914.08,-85.89 911.44,-75.63 907.1,-85.29 914.08,-85.89"/>
</g>
<!-- Node19 -->
<g id="node19" class="node">
<title>Node19</title>
<g id="a_node19"><a xlink:href="enum__formatter_8h.html" target="_top" xlink:title=" ">
<polygon fill="white" stroke="black" points="940,-112.5 940,-131.5 1076,-131.5 1076,-112.5 940,-112.5"/>
<text text-anchor="middle" x="1008" y="-119.5" font-family="Helvetica,sans-Serif" font-size="10.00">ccf/ds/enum_formatter.h</text>
</a>
</g>
</g>
<!-- Node3&#45;&gt;Node19 -->
<g id="edge21" class="edge">
<title>Node3&#45;&gt;Node19</title>
<path fill="none" stroke="midnightblue" d="M857.9,-280.43C878.37,-273.13 905.98,-261.09 926,-244 960.6,-214.45 986.96,-166.94 999.65,-141.12"/>
<polygon fill="midnightblue" stroke="midnightblue" points="1002.95,-142.32 1004.1,-131.79 996.63,-139.31 1002.95,-142.32"/>
</g>
<!-- Node20 -->
<g id="node20" class="node">
<title>Node20</title>
<g id="a_node20"><a xlink:title=" ">
<polygon fill="white" stroke="#bfbfbf" points="643.5,-224.5 643.5,-243.5 708.5,-243.5 708.5,-224.5 643.5,-224.5"/>
<text text-anchor="middle" x="676" y="-231.5" font-family="Helvetica,sans-Serif" font-size="10.00">stdexcept</text>
</a>
</g>
</g>
<!-- Node3&#45;&gt;Node20 -->
<g id="edge25" class="edge">
<title>Node3&#45;&gt;Node20</title>
<path fill="none" stroke="midnightblue" d="M805.6,-280.44C779.8,-271.4 738.92,-257.06 709.98,-246.92"/>
<polygon fill="midnightblue" stroke="midnightblue" points="710.88,-243.52 700.29,-243.52 708.57,-250.13 710.88,-243.52"/>
</g>
<!-- Node4&#45;&gt;Node5 -->
<g id="edge4" class="edge">
<title>Node4&#45;&gt;Node5</title>
<path fill="none" stroke="midnightblue" d="M788.31,-224.08C790.17,-216.93 792.84,-206.64 795.15,-197.69"/>
<polygon fill="midnightblue" stroke="midnightblue" points="798.61,-198.31 797.73,-187.75 791.83,-196.55 798.61,-198.31"/>
</g>
<!-- Node6 -->
<g id="node6" class="node">
<title>Node6</title>
<g id="a_node6"><a xlink:href="include_2ccf_2crypto_2base64_8h.html" target="_top" xlink:title=" ">
<polygon fill="white" stroke="black" points="536,-56.5 536,-75.5 648,-75.5 648,-56.5 536,-56.5"/>
<text text-anchor="middle" x="592" y="-63.5" font-family="Helvetica,sans-Serif" font-size="10.00">ccf/crypto/base64.h</text>
</a>
</g>
</g>
<!-- Node5&#45;&gt;Node6 -->
<g id="edge5" class="edge">
<title>Node5&#45;&gt;Node6</title>
<path fill="none" stroke="midnightblue" d="M761.2,-173.11C710.4,-167.21 625.31,-154.25 604,-132 592.48,-119.97 590.16,-100.68 590.32,-86.23"/>
<polygon fill="midnightblue" stroke="midnightblue" points="593.83,-86.08 590.85,-75.91 586.84,-85.72 593.83,-86.08"/>
</g>
<!-- Node9 -->
<g id="node9" class="node">
<title>Node9</title>
<g id="a_node9"><a xlink:href="include_2ccf_2ds_2json__schema_8h.html" target="_top" xlink:title=" ">
<polygon fill="white" stroke="black" points="612.5,-112.5 612.5,-131.5 733.5,-131.5 733.5,-112.5 612.5,-112.5"/>
<text text-anchor="middle" x="673" y="-119.5" font-family="Helvetica,sans-Serif" font-size="10.00">ccf/ds/json_schema.h</text>
</a>
</g>
</g>
<!-- Node5&#45;&gt;Node9 -->
<g id="edge8" class="edge">
<title>Node5&#45;&gt;Node9</title>
<path fill="none" stroke="midnightblue" d="M779.88,-168.44C758.98,-159.56 726.07,-145.56 702.28,-135.45"/>
<polygon fill="midnightblue" stroke="midnightblue" points="703.6,-132.21 693.03,-131.52 700.86,-138.65 703.6,-132.21"/>
</g>
<!-- Node5&#45;&gt;Node16 -->
<g id="edge19" class="edge">
<title>Node5&#45;&gt;Node16</title>
<path fill="none" stroke="midnightblue" d="M800.35,-168.39C801.32,-154.87 805.03,-128.51 819,-112 832,-96.63 851.48,-86.09 869.25,-79.1"/>
<polygon fill="midnightblue" stroke="midnightblue" points="870.71,-82.29 878.9,-75.57 868.3,-75.72 870.71,-82.29"/>
</g>
<!-- Node18 -->
<g id="node18" class="node">
<title>Node18</title>
<g id="a_node18"><a xlink:title=" ">
<polygon fill="white" stroke="#bfbfbf" points="828,-112.5 828,-131.5 884,-131.5 884,-112.5 828,-112.5"/>
<text text-anchor="middle" x="856" y="-119.5" font-family="Helvetica,sans-Serif" font-size="10.00">sstream</text>
</a>
</g>
</g>
<!-- Node5&#45;&gt;Node18 -->
<g id="edge20" class="edge">
<title>Node5&#45;&gt;Node18</title>
<path fill="none" stroke="midnightblue" d="M809,-168.32C817.19,-160.42 829.51,-148.55 839.47,-138.94"/>
<polygon fill="midnightblue" stroke="midnightblue" points="842.07,-141.29 846.84,-131.83 837.21,-136.26 842.07,-141.29"/>
</g>
<!-- Node6&#45;&gt;Node7 -->
<g id="edge6" class="edge">
<title>Node6&#45;&gt;Node7</title>
<path fill="none" stroke="midnightblue" d="M605.5,-56.32C618.6,-47.9 638.71,-34.97 654.11,-25.07"/>
<polygon fill="midnightblue" stroke="midnightblue" points="656.02,-28.01 662.54,-19.65 652.23,-22.12 656.02,-28.01"/>
</g>
<!-- Node6&#45;&gt;Node8 -->
<g id="edge7" class="edge">
<title>Node6&#45;&gt;Node8</title>
<path fill="none" stroke="midnightblue" d="M536,-60.26C469.14,-54.04 353.87,-41.55 246.68,-20.11"/>
<polygon fill="midnightblue" stroke="midnightblue" points="247.17,-16.63 236.67,-18.07 245.77,-23.49 247.17,-16.63"/>
</g>
<!-- Node10 -->
<g id="node10" class="node">
<title>Node10</title>
<g id="a_node10"><a xlink:href="nonstd_8h.html" target="_top" xlink:title=" ">
<polygon fill="white" stroke="black" points="390,-56.5 390,-75.5 480,-75.5 480,-56.5 390,-56.5"/>
<text text-anchor="middle" x="435" y="-63.5" font-family="Helvetica,sans-Serif" font-size="10.00">ccf/ds/nonstd.h</text>
</a>
</g>
</g>
<!-- Node9&#45;&gt;Node10 -->
<g id="edge9" class="edge">
<title>Node9&#45;&gt;Node10</title>
<path fill="none" stroke="midnightblue" d="M635.29,-112.44C593.86,-103.04 527.24,-87.93 482.33,-77.74"/>
<polygon fill="midnightblue" stroke="midnightblue" points="483.06,-74.32 472.54,-75.52 481.51,-81.14 483.06,-74.32"/>
</g>
<!-- Node9&#45;&gt;Node16 -->
<g id="edge17" class="edge">
<title>Node9&#45;&gt;Node16</title>
<path fill="none" stroke="midnightblue" d="M710.87,-112.44C752.48,-103.04 819.37,-87.93 864.47,-77.74"/>
<polygon fill="midnightblue" stroke="midnightblue" points="865.32,-81.13 874.31,-75.52 863.78,-74.31 865.32,-81.13"/>
</g>
<!-- Node17 -->
<g id="node17" class="node">
<title>Node17</title>
<g id="a_node17"><a xlink:title=" ">
<polygon fill="white" stroke="#bfbfbf" points="704,-56.5 704,-75.5 814,-75.5 814,-56.5 704,-56.5"/>
<text text-anchor="middle" x="759" y="-63.5" font-family="Helvetica,sans-Serif" font-size="10.00">nlohmann/json.hpp</text>
</a>
</g>
</g>
<!-- Node9&#45;&gt;Node17 -->
<g id="edge18" class="edge">
<title>Node9&#45;&gt;Node17</title>
<path fill="none" stroke="midnightblue" d="M686.82,-112.32C700.23,-103.9 720.82,-90.97 736.59,-81.07"/>
<polygon fill="midnightblue" stroke="midnightblue" points="738.61,-83.94 745.22,-75.65 734.89,-78.01 738.61,-83.94"/>
</g>
<!-- Node10&#45;&gt;Node7 -->
<g id="edge13" class="edge">
<title>Node10&#45;&gt;Node7</title>
<path fill="none" stroke="midnightblue" d="M473.19,-56.44C520.37,-45.87 599.81,-28.07 643.96,-18.18"/>
<polygon fill="midnightblue" stroke="midnightblue" points="644.87,-21.56 653.87,-15.96 643.34,-14.73 644.87,-21.56"/>
</g>
<!-- Node10&#45;&gt;Node8 -->
<g id="edge16" class="edge">
<title>Node10&#45;&gt;Node8</title>
<path fill="none" stroke="midnightblue" d="M397.03,-56.5C360.7,-48.25 304.12,-35.13 246.71,-20.37"/>
<polygon fill="midnightblue" stroke="midnightblue" points="247.29,-16.91 236.74,-17.79 245.54,-23.69 247.29,-16.91"/>
</g>
<!-- Node11 -->
<g id="node11" class="node">
<title>Node11</title>
<g id="a_node11"><a xlink:title=" ">
<polygon fill="white" stroke="#bfbfbf" points="500,-0.5 500,-19.5 564,-19.5 564,-0.5 500,-0.5"/>
<text text-anchor="middle" x="532" y="-7.5" font-family="Helvetica,sans-Serif" font-size="10.00">algorithm</text>
</a>
</g>
</g>
<!-- Node10&#45;&gt;Node11 -->
<g id="edge10" class="edge">
<title>Node10&#45;&gt;Node11</title>
<path fill="none" stroke="midnightblue" d="M450.58,-56.32C466,-47.74 489.81,-34.49 507.71,-24.52"/>
<polygon fill="midnightblue" stroke="midnightblue" points="509.42,-27.58 516.45,-19.65 506.01,-21.46 509.42,-27.58"/>
</g>
<!-- Node12 -->
<g id="node12" class="node">
<title>Node12</title>
<g id="a_node12"><a xlink:title=" ">
<polygon fill="white" stroke="#bfbfbf" points="582,-0.5 582,-19.5 624,-19.5 624,-0.5 582,-0.5"/>
<text text-anchor="middle" x="603" y="-7.5" font-family="Helvetica,sans-Serif" font-size="10.00">array</text>
</a>
</g>
</g>
<!-- Node10&#45;&gt;Node12 -->
<g id="edge11" class="edge">
<title>Node10&#45;&gt;Node12</title>
<path fill="none" stroke="midnightblue" d="M461.62,-56.44C491.68,-46.78 540.5,-31.09 572.19,-20.9"/>
<polygon fill="midnightblue" stroke="midnightblue" points="573.37,-24.2 581.82,-17.81 571.23,-17.53 573.37,-24.2"/>
</g>
<!-- Node13 -->
<g id="node13" class="node">
<title>Node13</title>
<g id="a_node13"><a xlink:title=" ">
<polygon fill="white" stroke="#bfbfbf" points="345.5,-0.5 345.5,-19.5 394.5,-19.5 394.5,-0.5 345.5,-0.5"/>
<text text-anchor="middle" x="370" y="-7.5" font-family="Helvetica,sans-Serif" font-size="10.00">cctype</text>
</a>
</g>
</g>
<!-- Node10&#45;&gt;Node13 -->
<g id="edge12" class="edge">
<title>Node10&#45;&gt;Node13</title>
<path fill="none" stroke="midnightblue" d="M424.56,-56.32C414.85,-48.26 400.18,-36.08 388.5,-26.37"/>
<polygon fill="midnightblue" stroke="midnightblue" points="390.56,-23.53 380.63,-19.83 386.09,-28.92 390.56,-23.53"/>
</g>
<!-- Node14 -->
<g id="node14" class="node">
<title>Node14</title>
<g id="a_node14"><a xlink:title=" ">
<polygon fill="white" stroke="#bfbfbf" points="254.5,-0.5 254.5,-19.5 327.5,-19.5 327.5,-0.5 254.5,-0.5"/>
<text text-anchor="middle" x="291" y="-7.5" font-family="Helvetica,sans-Serif" font-size="10.00">string_view</text>
</a>
</g>
</g>
<!-- Node10&#45;&gt;Node14 -->
<g id="edge14" class="edge">
<title>Node10&#45;&gt;Node14</title>
<path fill="none" stroke="midnightblue" d="M412.18,-56.44C388.17,-47.44 350.17,-33.19 323.13,-23.05"/>
<polygon fill="midnightblue" stroke="midnightblue" points="324.3,-19.75 313.71,-19.52 321.84,-26.3 324.3,-19.75"/>
</g>
<!-- Node15 -->
<g id="node15" class="node">
<title>Node15</title>
<g id="a_node15"><a xlink:title=" ">
<polygon fill="white" stroke="#bfbfbf" points="412.5,-0.5 412.5,-19.5 481.5,-19.5 481.5,-0.5 412.5,-0.5"/>
<text text-anchor="middle" x="447" y="-7.5" font-family="Helvetica,sans-Serif" font-size="10.00">type_traits</text>
</a>
</g>
</g>
<!-- Node10&#45;&gt;Node15 -->
<g id="edge15" class="edge">
<title>Node10&#45;&gt;Node15</title>
<path fill="none" stroke="midnightblue" d="M436.98,-56.08C438.57,-48.93 440.86,-38.64 442.85,-29.69"/>
<polygon fill="midnightblue" stroke="midnightblue" points="446.3,-30.27 445.06,-19.75 439.47,-28.75 446.3,-30.27"/>
</g>
<!-- Node19&#45;&gt;Node16 -->
<g id="edge22" class="edge">
<title>Node19&#45;&gt;Node16</title>
<path fill="none" stroke="midnightblue" d="M992.58,-112.32C977.46,-103.82 954.18,-90.73 936.53,-80.8"/>
<polygon fill="midnightblue" stroke="midnightblue" points="937.82,-77.51 927.39,-75.65 934.39,-83.61 937.82,-77.51"/>
</g>
<!-- Node21&#45;&gt;Node5 -->
<g id="edge28" class="edge">
<title>Node21&#45;&gt;Node5</title>
<path fill="none" stroke="midnightblue" d="M287.38,-228.26C394.05,-218.01 644.91,-193.9 751.12,-183.7"/>
<polygon fill="midnightblue" stroke="midnightblue" points="751.62,-187.16 761.24,-182.72 750.95,-180.2 751.62,-187.16"/>
</g>
<!-- Node21&#45;&gt;Node8 -->
<g id="edge34" class="edge">
<title>Node21&#45;&gt;Node8</title>
<path fill="none" stroke="midnightblue" d="M188.8,-227.55C140.92,-221.12 73.1,-208.6 57,-188 6.92,-123.94 128.31,-52.8 185.36,-24.08"/>
<polygon fill="midnightblue" stroke="midnightblue" points="187.15,-27.09 194.57,-19.53 184.05,-20.82 187.15,-27.09"/>
</g>
<!-- Node21&#45;&gt;Node14 -->
<g id="edge33" class="edge">
<title>Node21&#45;&gt;Node14</title>
<path fill="none" stroke="midnightblue" d="M247.27,-224.2C259.67,-211.33 278.8,-186.86 267,-168 247.6,-136.99 212.4,-163.01 193,-132 188.29,-124.46 189.66,-120.24 193,-112 208.3,-74.25 245.23,-42.84 269.13,-25.52"/>
<polygon fill="midnightblue" stroke="midnightblue" points="271.41,-28.19 277.58,-19.58 267.39,-22.46 271.41,-28.19"/>
</g>
<!-- Node22 -->
<g id="node22" class="node">
<title>Node22</title>
<g id="a_node22"><a xlink:title=" ">
<polygon fill="white" stroke="#bfbfbf" points="66,-168.5 66,-187.5 116,-187.5 116,-168.5 66,-168.5"/>
<text text-anchor="middle" x="91" y="-175.5" font-family="Helvetica,sans-Serif" font-size="10.00">cstring</text>
</a>
</g>
</g>
<!-- Node21&#45;&gt;Node22 -->
<g id="edge29" class="edge">
<title>Node21&#45;&gt;Node22</title>
<path fill="none" stroke="midnightblue" d="M214.71,-224.44C190.19,-215.44 151.4,-201.19 123.8,-191.05"/>
<polygon fill="midnightblue" stroke="midnightblue" points="124.78,-187.68 114.18,-187.52 122.36,-194.25 124.78,-187.68"/>
</g>
<!-- Node23 -->
<g id="node23" class="node">
<title>Node23</title>
<g id="a_node23"><a xlink:title=" ">
<polygon fill="white" stroke="#bfbfbf" points="134.5,-168.5 134.5,-187.5 199.5,-187.5 199.5,-168.5 134.5,-168.5"/>
<text text-anchor="middle" x="167" y="-175.5" font-family="Helvetica,sans-Serif" font-size="10.00">exception</text>
</a>
</g>
</g>
<!-- Node21&#45;&gt;Node23 -->
<g id="edge30" class="edge">
<title>Node21&#45;&gt;Node23</title>
<path fill="none" stroke="midnightblue" d="M226.59,-224.32C215.89,-216.18 199.66,-203.84 186.84,-194.09"/>
<polygon fill="midnightblue" stroke="midnightblue" points="188.69,-191.1 178.61,-187.83 184.46,-196.67 188.69,-191.1"/>
</g>
<!-- Node24 -->
<g id="node24" class="node">
<title>Node24</title>
<g id="a_node24"><a xlink:title=" ">
<polygon fill="white" stroke="#bfbfbf" points="390,-168.5 390,-187.5 448,-187.5 448,-168.5 390,-168.5"/>
<text text-anchor="middle" x="419" y="-175.5" font-family="Helvetica,sans-Serif" font-size="10.00">memory</text>
</a>
</g>
</g>
<!-- Node21&#45;&gt;Node24 -->
<g id="edge31" class="edge">
<title>Node21&#45;&gt;Node24</title>
<path fill="none" stroke="midnightblue" d="M266.68,-224.44C297.53,-215.24 346.73,-200.56 380.83,-190.39"/>
<polygon fill="midnightblue" stroke="midnightblue" points="381.87,-193.73 390.45,-187.52 379.87,-187.02 381.87,-193.73"/>
</g>
<!-- Node25 -->
<g id="node25" class="node">
<title>Node25</title>
<g id="a_node25"><a xlink:title=" ">
<polygon fill="white" stroke="#bfbfbf" points="218,-168.5 218,-187.5 258,-187.5 258,-168.5 218,-168.5"/>
<text text-anchor="middle" x="238" y="-175.5" font-family="Helvetica,sans-Serif" font-size="10.00">span</text>
</a>
</g>
</g>
<!-- Node21&#45;&gt;Node25 -->
<g id="edge32" class="edge">
<title>Node21&#45;&gt;Node25</title>
<path fill="none" stroke="midnightblue" d="M238,-224.08C238,-217.01 238,-206.86 238,-197.99"/>
<polygon fill="midnightblue" stroke="midnightblue" points="241.5,-197.75 238,-187.75 234.5,-197.75 241.5,-197.75"/>
</g>
<!-- Node26&#45;&gt;Node3 -->
<g id="edge36" class="edge">
<title>Node26&#45;&gt;Node3</title>
<path fill="none" stroke="midnightblue" d="M554.81,-336.44C612.82,-326.87 706.74,-311.36 768.44,-301.17"/>
<polygon fill="midnightblue" stroke="midnightblue" points="769.13,-304.6 778.43,-299.52 767.99,-297.69 769.13,-304.6"/>
</g>
<!-- Node26&#45;&gt;Node7 -->
<g id="edge47" class="edge">
<title>Node26&#45;&gt;Node7</title>
<path fill="none" stroke="midnightblue" d="M500.64,-336.44C490.74,-298.49 456.23,-143.48 527,-56 534.5,-46.73 602.51,-28.84 644.01,-18.64"/>
<polygon fill="midnightblue" stroke="midnightblue" points="645.05,-21.98 653.94,-16.21 643.4,-15.18 645.05,-21.98"/>
</g>
<!-- Node26&#45;&gt;Node8 -->
<g id="edge48" class="edge">
<title>Node26&#45;&gt;Node8</title>
<path fill="none" stroke="midnightblue" d="M473.1,-336.45C431.71,-322.56 362,-290.89 362,-235 362,-235 362,-235 362,-121 362,-90.96 282.61,-46.16 239.73,-24.16"/>
<polygon fill="midnightblue" stroke="midnightblue" points="241.18,-20.97 230.68,-19.58 238.02,-27.22 241.18,-20.97"/>
</g>
<!-- Node26&#45;&gt;Node21 -->
<g id="edge39" class="edge">
<title>Node26&#45;&gt;Node21</title>
<path fill="none" stroke="midnightblue" d="M439.35,-338.36C400.3,-332.35 350.25,-321.04 310,-300 286.8,-287.87 265.22,-266.5 251.85,-251.58"/>
<polygon fill="midnightblue" stroke="midnightblue" points="254.18,-248.92 244.98,-243.67 248.89,-253.51 254.18,-248.92"/>
</g>
<!-- Node27 -->
<g id="node27" class="node">
<title>Node27</title>
<g id="a_node27"><a xlink:href="hash__bytes_8h.html" target="_top" xlink:title=" ">
<polygon fill="white" stroke="black" points="202,-112.5 202,-131.5 334,-131.5 334,-112.5 202,-112.5"/>
<text text-anchor="middle" x="268" y="-119.5" font-family="Helvetica,sans-Serif" font-size="10.00">ccf/crypto/hash_bytes.h</text>
</a>
</g>
</g>
<!-- Node26&#45;&gt;Node27 -->
<g id="edge37" class="edge">
<title>Node26&#45;&gt;Node27</title>
<path fill="none" stroke="midnightblue" d="M439.37,-338.97C408.75,-333.2 373.3,-321.94 348,-300 322.45,-277.84 287.82,-181.72 274.03,-141.16"/>
<polygon fill="midnightblue" stroke="midnightblue" points="277.29,-139.87 270.78,-131.51 270.65,-142.1 277.29,-139.87"/>
</g>
<!-- Node26&#45;&gt;Node28 -->
<g id="edge40" class="edge">
<title>Node26&#45;&gt;Node28</title>
<path fill="none" stroke="midnightblue" d="M508.89,-336.37C521.26,-318.22 550.18,-275.8 566.42,-251.99"/>
<polygon fill="midnightblue" stroke="midnightblue" points="569.4,-253.83 572.14,-243.59 563.62,-249.88 569.4,-253.83"/>
</g>
<!-- Node26&#45;&gt;Node29 -->
<g id="edge45" class="edge">
<title>Node26&#45;&gt;Node29</title>
<path fill="none" stroke="midnightblue" d="M456.45,-336.42C409.73,-327.69 335.74,-313.56 272,-300 270.74,-299.73 269.45,-299.45 268.16,-299.17"/>
<polygon fill="midnightblue" stroke="midnightblue" points="268.67,-295.7 258.15,-296.94 267.14,-302.53 268.67,-295.7"/>
</g>
<!-- Node26&#45;&gt;Node30 -->
<g id="edge46" class="edge">
<title>Node26&#45;&gt;Node30</title>
<path fill="none" stroke="midnightblue" d="M518.1,-336.32C532.9,-327.82 555.69,-314.73 572.98,-304.8"/>
<polygon fill="midnightblue" stroke="midnightblue" points="575.01,-307.67 581.93,-299.65 571.52,-301.6 575.01,-307.67"/>
</g>
<!-- Node27&#45;&gt;Node8 -->
<g id="edge38" class="edge">
<title>Node27&#45;&gt;Node8</title>
<path fill="none" stroke="midnightblue" d="M263.68,-112.37C254.69,-94.38 233.78,-52.55 221.81,-28.63"/>
<polygon fill="midnightblue" stroke="midnightblue" points="224.9,-26.97 217.3,-19.59 218.64,-30.1 224.9,-26.97"/>
</g>
<!-- Node28&#45;&gt;Node5 -->
<g id="edge41" class="edge">
<title>Node28&#45;&gt;Node5</title>
<path fill="none" stroke="midnightblue" d="M613.18,-224.44C651.58,-215.1 713.18,-200.12 755.06,-189.93"/>
<polygon fill="midnightblue" stroke="midnightblue" points="756.1,-193.28 764.99,-187.52 754.44,-186.48 756.1,-193.28"/>
</g>
<!-- Node28&#45;&gt;Node7 -->
<g id="edge44" class="edge">
<title>Node28&#45;&gt;Node7</title>
<path fill="none" stroke="midnightblue" d="M577.75,-224.24C577.56,-203.06 579.63,-148.17 604,-112 619.91,-88.38 640.24,-99.02 657,-76 666.84,-62.48 671.61,-43.93 673.91,-30.1"/>
<polygon fill="midnightblue" stroke="midnightblue" points="677.43,-30.2 675.31,-19.82 670.49,-29.25 677.43,-30.2"/>
</g>
<!-- Node28&#45;&gt;Node10 -->
<g id="edge42" class="edge">
<title>Node28&#45;&gt;Node10</title>
<path fill="none" stroke="midnightblue" d="M570.31,-224.08C547.32,-197.38 478.82,-117.87 449.06,-83.32"/>
<polygon fill="midnightblue" stroke="midnightblue" points="451.56,-80.86 442.38,-75.57 446.26,-85.43 451.56,-80.86"/>
</g>
<!-- Node28&#45;&gt;Node16 -->
<g id="edge43" class="edge">
<title>Node28&#45;&gt;Node16</title>
<path fill="none" stroke="midnightblue" d="M592.82,-224.42C628.56,-203.86 722.58,-150.65 804,-112 829.3,-99.99 858.68,-87.86 880.4,-79.23"/>
<polygon fill="midnightblue" stroke="midnightblue" points="881.78,-82.45 889.8,-75.52 879.21,-75.93 881.78,-82.45"/>
</g>
<!-- Node31&#45;&gt;Node16 -->
<g id="edge70" class="edge">
<title>Node31&#45;&gt;Node16</title>
<path fill="none" stroke="midnightblue" d="M1280.9,-336.41C1244.58,-321.75 1180,-288.19 1180,-235 1180,-235 1180,-235 1180,-177 1180,-83.62 1039.04,-67.83 961.58,-66.2"/>
<polygon fill="midnightblue" stroke="midnightblue" points="961.59,-62.7 951.54,-66.06 961.49,-69.7 961.59,-62.7"/>
</g>
<!-- Node32 -->
<g id="node32" class="node">
<title>Node32</title>
<g id="a_node32"><a xlink:href="openssl__wrappers_8h.html" target="_top" xlink:title=" ">
<polygon fill="white" stroke="black" points="1483.5,-280.5 1483.5,-299.5 1596.5,-299.5 1596.5,-280.5 1483.5,-280.5"/>
<text text-anchor="middle" x="1540" y="-287.5" font-family="Helvetica,sans-Serif" font-size="10.00">openssl_wrappers.h</text>
</a>
</g>
</g>
<!-- Node31&#45;&gt;Node32 -->
<g id="edge56" class="edge">
<title>Node31&#45;&gt;Node32</title>
<path fill="none" stroke="midnightblue" d="M1342.24,-336.44C1383.06,-327.06 1448.64,-311.99 1492.98,-301.8"/>
<polygon fill="midnightblue" stroke="midnightblue" points="1493.98,-305.17 1502.94,-299.52 1492.41,-298.34 1493.98,-305.17"/>
</g>
<!-- Node42 -->
<g id="node42" class="node">
<title>Node42</title>
<g id="a_node42"><a xlink:title=" ">
<polygon fill="white" stroke="#bfbfbf" points="1256.5,-280.5 1256.5,-299.5 1335.5,-299.5 1335.5,-280.5 1256.5,-280.5"/>
<text text-anchor="middle" x="1296" y="-287.5" font-family="Helvetica,sans-Serif" font-size="10.00">fmt/chrono.h</text>
</a>
</g>
</g>
<!-- Node31&#45;&gt;Node42 -->
<g id="edge69" class="edge">
<title>Node31&#45;&gt;Node42</title>
<path fill="none" stroke="midnightblue" d="M1303.51,-336.08C1302.32,-328.93 1300.61,-318.64 1299.12,-309.69"/>
<polygon fill="midnightblue" stroke="midnightblue" points="1302.55,-309.04 1297.46,-299.75 1295.65,-310.19 1302.55,-309.04"/>
</g>
<!-- Node43 -->
<g id="node43" class="node">
<title>Node43</title>
<g id="a_node43"><a xlink:title=" ">
<polygon fill="white" stroke="#bfbfbf" points="1354,-280.5 1354,-299.5 1402,-299.5 1402,-280.5 1354,-280.5"/>
<text text-anchor="middle" x="1378" y="-287.5" font-family="Helvetica,sans-Serif" font-size="10.00">time.h</text>
</a>
</g>
</g>
<!-- Node31&#45;&gt;Node43 -->
<g id="edge71" class="edge">
<title>Node31&#45;&gt;Node43</title>
<path fill="none" stroke="midnightblue" d="M1316.73,-336.32C1327.84,-328.11 1344.74,-315.6 1357.98,-305.81"/>
<polygon fill="midnightblue" stroke="midnightblue" points="1360.1,-308.59 1366.06,-299.83 1355.94,-302.97 1360.1,-308.59"/>
</g>
<!-- Node32&#45;&gt;Node16 -->
<g id="edge58" class="edge">
<title>Node32&#45;&gt;Node16</title>
<path fill="none" stroke="midnightblue" d="M1483.22,-284.77C1416.01,-278.84 1309.04,-266.21 1276,-244 1218.68,-205.47 1251.52,-150.23 1194,-112 1156.76,-87.25 1032,-75.04 961.53,-69.98"/>
<polygon fill="midnightblue" stroke="midnightblue" points="961.77,-66.49 951.55,-69.29 961.28,-73.47 961.77,-66.49"/>
</g>
<!-- Node32&#45;&gt;Node21 -->
<g id="edge57" class="edge">
<title>Node32&#45;&gt;Node21</title>
<path fill="none" stroke="midnightblue" d="M1483.19,-284.65C1460.72,-283.03 1434.65,-281.28 1411,-280 1190.62,-268.09 503.48,-244.12 297.16,-237.02"/>
<polygon fill="midnightblue" stroke="midnightblue" points="297.24,-233.52 287.13,-236.68 297,-240.52 297.24,-233.52"/>
</g>
<!-- Node32&#45;&gt;Node24 -->
<g id="edge59" class="edge">
<title>Node32&#45;&gt;Node24</title>
<path fill="none" stroke="midnightblue" d="M1483.26,-283.43C1285,-263.98 626.15,-199.33 458.22,-182.85"/>
<polygon fill="midnightblue" stroke="midnightblue" points="458.4,-179.35 448.1,-181.86 457.71,-186.32 458.4,-179.35"/>
</g>
<!-- Node33 -->
<g id="node33" class="node">
<title>Node33</title>
<g id="a_node33"><a xlink:title=" ">
<polygon fill="white" stroke="#bfbfbf" points="2032.5,-224.5 2032.5,-243.5 2121.5,-243.5 2121.5,-224.5 2032.5,-224.5"/>
<text text-anchor="middle" x="2077" y="-231.5" font-family="Helvetica,sans-Serif" font-size="10.00">openssl/asn1.h</text>
</a>
</g>
</g>
<!-- Node32&#45;&gt;Node33 -->
<g id="edge60" class="edge">
<title>Node32&#45;&gt;Node33</title>
<path fill="none" stroke="midnightblue" d="M1596.66,-285.05C1685.19,-278.6 1861.89,-264.53 2022.2,-244.01"/>
<polygon fill="midnightblue" stroke="midnightblue" points="2022.78,-247.47 2032.25,-242.71 2021.88,-240.52 2022.78,-247.47"/>
</g>
<!-- Node34 -->
<g id="node34" class="node">
<title>Node34</title>
<g id="a_node34"><a xlink:title=" ">
<polygon fill="white" stroke="#bfbfbf" points="2139.5,-224.5 2139.5,-243.5 2216.5,-243.5 2216.5,-224.5 2139.5,-224.5"/>
<text text-anchor="middle" x="2178" y="-231.5" font-family="Helvetica,sans-Serif" font-size="10.00">openssl/ec.h</text>
</a>
</g>
</g>
<!-- Node32&#45;&gt;Node34 -->
<g id="edge61" class="edge">
<title>Node32&#45;&gt;Node34</title>
<path fill="none" stroke="midnightblue" d="M1596.86,-286.81C1700.72,-282.35 1928.21,-270.42 2129.17,-244.11"/>
<polygon fill="midnightblue" stroke="midnightblue" points="2129.87,-247.55 2139.33,-242.76 2128.95,-240.61 2129.87,-247.55"/>
</g>
<!-- Node35 -->
<g id="node35" class="node">
<title>Node35</title>
<g id="a_node35"><a xlink:title=" ">
<polygon fill="white" stroke="#bfbfbf" points="1284.5,-224.5 1284.5,-243.5 1383.5,-243.5 1383.5,-224.5 1284.5,-224.5"/>
<text text-anchor="middle" x="1334" y="-231.5" font-family="Helvetica,sans-Serif" font-size="10.00">openssl/engine.h</text>
</a>
</g>
</g>
<!-- Node32&#45;&gt;Node35 -->
<g id="edge62" class="edge">
<title>Node32&#45;&gt;Node35</title>
<path fill="none" stroke="midnightblue" d="M1507.36,-280.44C1471.95,-271.16 1415.29,-256.31 1376.45,-246.13"/>
<polygon fill="midnightblue" stroke="midnightblue" points="1377.05,-242.67 1366.49,-243.52 1375.27,-249.44 1377.05,-242.67"/>
</g>
<!-- Node36 -->
<g id="node36" class="node">
<title>Node36</title>
<g id="a_node36"><a xlink:title=" ">
<polygon fill="white" stroke="#bfbfbf" points="1401.5,-224.5 1401.5,-243.5 1480.5,-243.5 1480.5,-224.5 1401.5,-224.5"/>
<text text-anchor="middle" x="1441" y="-231.5" font-family="Helvetica,sans-Serif" font-size="10.00">openssl/err.h</text>
</a>
</g>
</g>
<!-- Node32&#45;&gt;Node36 -->
<g id="edge63" class="edge">
<title>Node32&#45;&gt;Node36</title>
<path fill="none" stroke="midnightblue" d="M1524.09,-280.32C1508.36,-271.74 1484.06,-258.49 1465.79,-248.52"/>
<polygon fill="midnightblue" stroke="midnightblue" points="1467.32,-245.37 1456.87,-243.65 1463.97,-251.52 1467.32,-245.37"/>
</g>
<!-- Node37 -->
<g id="node37" class="node">
<title>Node37</title>
<g id="a_node37"><a xlink:title=" ">
<polygon fill="white" stroke="#bfbfbf" points="1498,-224.5 1498,-243.5 1582,-243.5 1582,-224.5 1498,-224.5"/>
<text text-anchor="middle" x="1540" y="-231.5" font-family="Helvetica,sans-Serif" font-size="10.00">openssl/evp.h</text>
</a>
</g>
</g>
<!-- Node32&#45;&gt;Node37 -->
<g id="edge64" class="edge">
<title>Node32&#45;&gt;Node37</title>
<path fill="none" stroke="midnightblue" d="M1540,-280.08C1540,-273.01 1540,-262.86 1540,-253.99"/>
<polygon fill="midnightblue" stroke="midnightblue" points="1543.5,-253.75 1540,-243.75 1536.5,-253.75 1543.5,-253.75"/>
</g>
<!-- Node38 -->
<g id="node38" class="node">
<title>Node38</title>
<g id="a_node38"><a xlink:title=" ">
<polygon fill="white" stroke="#bfbfbf" points="1600,-224.5 1600,-243.5 1688,-243.5 1688,-224.5 1600,-224.5"/>
<text text-anchor="middle" x="1644" y="-231.5" font-family="Helvetica,sans-Serif" font-size="10.00">openssl/pem.h</text>
</a>
</g>
</g>
<!-- Node32&#45;&gt;Node38 -->
<g id="edge65" class="edge">
<title>Node32&#45;&gt;Node38</title>
<path fill="none" stroke="midnightblue" d="M1556.71,-280.32C1573.31,-271.7 1599,-258.36 1618.22,-248.39"/>
<polygon fill="midnightblue" stroke="midnightblue" points="1620.07,-251.37 1627.33,-243.65 1616.84,-245.16 1620.07,-251.37"/>
</g>
<!-- Node39 -->
<g id="node39" class="node">
<title>Node39</title>
<g id="a_node39"><a xlink:title=" ">
<polygon fill="white" stroke="#bfbfbf" points="1706,-224.5 1706,-243.5 1786,-243.5 1786,-224.5 1706,-224.5"/>
<text text-anchor="middle" x="1746" y="-231.5" font-family="Helvetica,sans-Serif" font-size="10.00">openssl/ssl.h</text>
</a>
</g>
</g>
<!-- Node32&#45;&gt;Node39 -->
<g id="edge66" class="edge">
<title>Node32&#45;&gt;Node39</title>
<path fill="none" stroke="midnightblue" d="M1572.64,-280.44C1608.05,-271.16 1664.71,-256.31 1703.55,-246.13"/>
<polygon fill="midnightblue" stroke="midnightblue" points="1704.73,-249.44 1713.51,-243.52 1702.95,-242.67 1704.73,-249.44"/>
</g>
<!-- Node40 -->
<g id="node40" class="node">
<title>Node40</title>
<g id="a_node40"><a xlink:title=" ">
<polygon fill="white" stroke="#bfbfbf" points="1804,-224.5 1804,-243.5 1894,-243.5 1894,-224.5 1804,-224.5"/>
<text text-anchor="middle" x="1849" y="-231.5" font-family="Helvetica,sans-Serif" font-size="10.00">openssl/x509.h</text>
</a>
</g>
</g>
<!-- Node32&#45;&gt;Node40 -->
<g id="edge67" class="edge">
<title>Node32&#45;&gt;Node40</title>
<path fill="none" stroke="midnightblue" d="M1588.96,-280.44C1644.67,-270.71 1735.44,-254.85 1793.66,-244.67"/>
<polygon fill="midnightblue" stroke="midnightblue" points="1794.54,-248.07 1803.79,-242.9 1793.33,-241.18 1794.54,-248.07"/>
</g>
<!-- Node41 -->
<g id="node41" class="node">
<title>Node41</title>
<g id="a_node41"><a xlink:title=" ">
<polygon fill="white" stroke="#bfbfbf" points="1912,-224.5 1912,-243.5 2014,-243.5 2014,-224.5 1912,-224.5"/>
<text text-anchor="middle" x="1963" y="-231.5" font-family="Helvetica,sans-Serif" font-size="10.00">openssl/x509v3.h</text>
</a>
</g>
</g>
<!-- Node32&#45;&gt;Node41 -->
<g id="edge68" class="edge">
<title>Node32&#45;&gt;Node41</title>
<path fill="none" stroke="midnightblue" d="M1596.65,-282.43C1666.1,-274.28 1787.65,-259.68 1901.97,-244.11"/>
<polygon fill="midnightblue" stroke="midnightblue" points="1902.52,-247.57 1911.95,-242.75 1901.57,-240.63 1902.52,-247.57"/>
</g>
</g>
</svg>
        <g id="navigator" transform="translate(0 0)" fill="#404254">
                <rect fill="#f2f5e9" fill-opacity="0.5" stroke="#606060" stroke-width=".5" x="0" y="0" width="60" height="60"/>
                <use id="zoomplus" xlink:href="#zoomPlus" x="17" y="9" onmousedown="handleZoom(evt,'in')"/>
                <use id="zoomminus" xlink:href="#zoomMin" x="42" y="9" onmousedown="handleZoom(evt,'out')"/>
                <use id="reset" xlink:href="#resetDef" x="30" y="36" onmousedown="handleReset()"/>
                <g id="arrowUp" xlink:href="#dirArrow" transform="translate(30 24)" onmousedown="handlePan(0,-1)">
                  <use xlink:href="#rim" fill="#404040">
                        <set attributeName="fill" to="#808080" begin="arrowUp.mouseover" end="arrowUp.mouseout"/>
                  </use>
                  <path fill="none" stroke="white" stroke-width="1.5" d="M0,-3.0v7 M-2.5,-0.5L0,-3.0L2.5,-0.5"/>
                </g>
                <g id="arrowRight" xlink:href="#dirArrow" transform="rotate(90) translate(36 -43)" onmousedown="handlePan(1,0)">
                  <use xlink:href="#rim" fill="#404040">
                        <set attributeName="fill" to="#808080" begin="arrowRight.mouseover" end="arrowRight.mouseout"/>
                  </use>
                  <path fill="none" stroke="white" stroke-width="1.5" d="M0,-3.0v7 M-2.5,-0.5L0,-3.0L2.5,-0.5"/>
                </g>
                <g id="arrowDown" xlink:href="#dirArrow" transform="rotate(180) translate(-30 -48)" onmousedown="handlePan(0,1)">
                  <use xlink:href="#rim" fill="#404040">
                        <set attributeName="fill" to="#808080" begin="arrowDown.mouseover" end="arrowDown.mouseout"/>
                  </use>
                  <path fill="none" stroke="white" stroke-width="1.5" d="M0,-3.0v7 M-2.5,-0.5L0,-3.0L2.5,-0.5"/>
                </g>
                <g id="arrowLeft" xlink:href="#dirArrow" transform="rotate(270) translate(-36 17)" onmousedown="handlePan(-1,0)">
                  <use xlink:href="#rim" fill="#404040">
                        <set attributeName="fill" to="#808080" begin="arrowLeft.mouseover" end="arrowLeft.mouseout"/>
                  </use>
                  <path fill="none" stroke="white" stroke-width="1.5" d="M0,-3.0v7 M-2.5,-0.5L0,-3.0L2.5,-0.5"/>
                </g>
        </g>
        <svg viewBox="0 0 15 15" width="100%" height="30px" preserveAspectRatio="xMaxYMin meet">
         <g id="arrow_out" transform="scale(0.3 0.3)">
          <a xlink:href="certs_8h__incl_org.svg" target="_base">
           <rect id="button" ry="5" rx="5" y="6" x="6" height="38" width="38"
                fill="#f2f5e9" fill-opacity="0.5" stroke="#606060" stroke-width="1.0"/>
           <path id="arrow"
             d="M 11.500037,31.436501 C 11.940474,20.09759 22.043105,11.32322 32.158766,21.979434 L 37.068811,17.246167 C 37.068811,17.246167 37.088388,32 37.088388,32 L 22.160133,31.978069 C 22.160133,31.978069 26.997745,27.140456 26.997745,27.140456 C 18.528582,18.264221 13.291696,25.230495 11.500037,31.436501 z"
             style="fill:#404040;"/>
          </a>
         </g>
        </svg>
</svg>
