<?xml version="1.0" encoding="UTF-8" standalone="no"?>
<!DOCTYPE svg PUBLIC "-//W3C//DTD SVG 1.1//EN"
 "http://www.w3.org/Graphics/SVG/1.1/DTD/svg11.dtd">
<!-- Generated by graphviz version 2.43.0 (0)
 -->
<!-- Title: ccf::HTTPNodeClient Pages: 1 -->
<svg width="442pt" height="230pt"
 viewBox="0.00 0.00 441.50 230.00" xmlns="http://www.w3.org/2000/svg" xmlns:xlink="http://www.w3.org/1999/xlink">
<g id="graph0" class="graph" transform="scale(1 1) rotate(0) translate(4 226)">
<title>ccf::HTTPNodeClient</title>
<polygon fill="white" stroke="transparent" points="-4,4 -4,-226 437.5,-226 437.5,4 -4,4"/>
<!-- Node1 -->
<g id="node1" class="node">
<title>Node1</title>
<g id="a_node1"><a xlink:title=" ">
<polygon fill="#bfbfbf" stroke="black" points="173.5,-0.5 173.5,-19.5 289.5,-19.5 289.5,-0.5 173.5,-0.5"/>
<text text-anchor="middle" x="231.5" y="-7.5" font-family="Helvetica,sans-Serif" font-size="10.00">ccf::HTTPNodeClient</text>
</a>
</g>
</g>
<!-- Node2 -->
<g id="node2" class="node">
<title>Node2</title>
<g id="a_node2"><a xlink:href="classccf_1_1NodeClient.html" target="_top" xlink:title=" ">
<polygon fill="white" stroke="black" points="186.5,-57.5 186.5,-76.5 276.5,-76.5 276.5,-57.5 186.5,-57.5"/>
<text text-anchor="middle" x="231.5" y="-64.5" font-family="Helvetica,sans-Serif" font-size="10.00">ccf::NodeClient</text>
</a>
</g>
</g>
<!-- Node2&#45;&gt;Node1 -->
<g id="edge1" class="edge">
<title>Node2&#45;&gt;Node1</title>
<path fill="none" stroke="midnightblue" d="M231.5,-47.12C231.5,-37.82 231.5,-27.06 231.5,-19.71"/>
<polygon fill="midnightblue" stroke="midnightblue" points="228,-47.41 231.5,-57.41 235,-47.41 228,-47.41"/>
</g>
<!-- Node3 -->
<g id="node3" class="node">
<title>Node3</title>
<g id="a_node3"><a xlink:title=" ">
<polygon fill="white" stroke="black" points="0,-124.5 0,-154.5 139,-154.5 139,-124.5 0,-124.5"/>
<text text-anchor="start" x="8" y="-142.5" font-family="Helvetica,sans-Serif" font-size="10.00">std::shared_ptr&lt; enclave</text>
<text text-anchor="middle" x="69.5" y="-131.5" font-family="Helvetica,sans-Serif" font-size="10.00">::RPCMap &gt;</text>
</a>
</g>
</g>
<!-- Node3&#45;&gt;Node2 -->
<g id="edge2" class="edge">
<title>Node3&#45;&gt;Node2</title>
<path fill="none" stroke="#9a32cd" stroke-dasharray="5,2" d="M111.14,-120.38C143.54,-106.28 187.04,-87.35 211.89,-76.53"/>
<polygon fill="#9a32cd" stroke="#9a32cd" points="109.67,-117.2 101.89,-124.4 112.46,-123.62 109.67,-117.2"/>
<text text-anchor="middle" x="188.5" y="-98" font-family="Helvetica,sans-Serif" font-size="10.00"> rpc_map</text>
</g>
<!-- Node4 -->
<g id="node4" class="node">
<title>Node4</title>
<g id="a_node4"><a xlink:href="classenclave_1_1RPCMap.html" target="_top" xlink:title=" ">
<polygon fill="white" stroke="black" points="19,-202.5 19,-221.5 120,-221.5 120,-202.5 19,-202.5"/>
<text text-anchor="middle" x="69.5" y="-209.5" font-family="Helvetica,sans-Serif" font-size="10.00">enclave::RPCMap</text>
</a>
</g>
</g>
<!-- Node4&#45;&gt;Node3 -->
<g id="edge3" class="edge">
<title>Node4&#45;&gt;Node3</title>
<path fill="none" stroke="#9a32cd" stroke-dasharray="5,2" d="M69.5,-192.24C69.5,-180.41 69.5,-165.38 69.5,-154.58"/>
<polygon fill="#9a32cd" stroke="#9a32cd" points="66,-192.36 69.5,-202.36 73,-192.36 66,-192.36"/>
<text text-anchor="middle" x="78" y="-176" font-family="Helvetica,sans-Serif" font-size="10.00"> ptr</text>
</g>
<!-- Node5 -->
<g id="node5" class="node">
<title>Node5</title>
<g id="a_node5"><a xlink:title=" ">
<polygon fill="white" stroke="black" points="157.5,-130 157.5,-149 305.5,-149 305.5,-130 157.5,-130"/>
<text text-anchor="middle" x="231.5" y="-137" font-family="Helvetica,sans-Serif" font-size="10.00">std::shared_ptr&lt; KeyPair &gt;</text>
</a>
</g>
</g>
<!-- Node5&#45;&gt;Node2 -->
<g id="edge4" class="edge">
<title>Node5&#45;&gt;Node2</title>
<path fill="none" stroke="#9a32cd" stroke-dasharray="5,2" d="M231.5,-119.44C231.5,-105.53 231.5,-87.32 231.5,-76.72"/>
<polygon fill="#9a32cd" stroke="#9a32cd" points="228,-119.86 231.5,-129.86 235,-119.86 228,-119.86"/>
<text text-anchor="middle" x="266.5" y="-98" font-family="Helvetica,sans-Serif" font-size="10.00"> node_sign_kp</text>
</g>
<!-- Node6 -->
<g id="node6" class="node">
<title>Node6</title>
<g id="a_node6"><a xlink:href="classcrypto_1_1Pem.html" target="_top" xlink:title=" ">
<polygon fill="white" stroke="black" points="324,-130 324,-149 399,-149 399,-130 324,-130"/>
<text text-anchor="middle" x="361.5" y="-137" font-family="Helvetica,sans-Serif" font-size="10.00">crypto::Pem</text>
</a>
</g>
</g>
<!-- Node6&#45;&gt;Node2 -->
<g id="edge5" class="edge">
<title>Node6&#45;&gt;Node2</title>
<path fill="none" stroke="#9a32cd" stroke-dasharray="5,2" d="M344.57,-123.09C333.94,-114.01 319.61,-102.8 305.5,-95 291.62,-87.32 275.12,-81.06 261.23,-76.5"/>
<polygon fill="#9a32cd" stroke="#9a32cd" points="342.41,-125.85 352.23,-129.82 347.03,-120.59 342.41,-125.85"/>
<text text-anchor="middle" x="377.5" y="-98" font-family="Helvetica,sans-Serif" font-size="10.00"> self_signed_node_cert</text>
</g>
</g>
</svg>
