<?xml version="1.0" encoding="UTF-8" standalone="no"?>
<!DOCTYPE svg PUBLIC "-//W3C//DTD SVG 1.1//EN"
 "http://www.w3.org/Graphics/SVG/1.1/DTD/svg11.dtd">
<!-- Generated by graphviz version 2.43.0 (0)
 -->
<!-- Title: http::HttpRpcContext Pages: 1 -->
<svg width="925pt" height="104pt"
 viewBox="0.00 0.00 925.00 104.00" xmlns="http://www.w3.org/2000/svg" xmlns:xlink="http://www.w3.org/1999/xlink">
<g id="graph0" class="graph" transform="scale(1 1) rotate(0) translate(4 100)">
<title>http::HttpRpcContext</title>
<polygon fill="white" stroke="transparent" points="-4,4 -4,-100 921,-100 921,4 -4,4"/>
<!-- Node1 -->
<g id="node1" class="node">
<title>Node1</title>
<g id="a_node1"><a xlink:title=" ">
<polygon fill="#bfbfbf" stroke="black" points="798,-44.5 798,-63.5 917,-63.5 917,-44.5 798,-44.5"/>
<text text-anchor="middle" x="857.5" y="-51.5" font-family="Helvetica,sans-Serif" font-size="10.00">http::HttpRpcContext</text>
</a>
</g>
</g>
<!-- Node2 -->
<g id="node2" class="node">
<title>Node2</title>
<g id="a_node2"><a xlink:href="classenclave_1_1RpcContext.html" target="_top" xlink:title=" ">
<polygon fill="white" stroke="black" points="644,-44.5 644,-63.5 761,-63.5 761,-44.5 644,-44.5"/>
<text text-anchor="middle" x="702.5" y="-51.5" font-family="Helvetica,sans-Serif" font-size="10.00">enclave::RpcContext</text>
</a>
</g>
</g>
<!-- Node2&#45;&gt;Node1 -->
<g id="edge1" class="edge">
<title>Node2&#45;&gt;Node1</title>
<path fill="none" stroke="midnightblue" d="M771.54,-54C780.3,-54 789.22,-54 797.81,-54"/>
<polygon fill="midnightblue" stroke="midnightblue" points="771.34,-50.5 761.34,-54 771.34,-57.5 771.34,-50.5"/>
</g>
<!-- Node3 -->
<g id="node3" class="node">
<title>Node3</title>
<g id="a_node3"><a xlink:title=" ">
<polygon fill="white" stroke="black" points="429,-39 429,-69 568,-69 568,-39 429,-39"/>
<text text-anchor="start" x="437" y="-57" font-family="Helvetica,sans-Serif" font-size="10.00">std::shared_ptr&lt; enclave</text>
<text text-anchor="middle" x="498.5" y="-46" font-family="Helvetica,sans-Serif" font-size="10.00">::SessionContext &gt;</text>
</a>
</g>
</g>
<!-- Node3&#45;&gt;Node2 -->
<g id="edge2" class="edge">
<title>Node3&#45;&gt;Node2</title>
<path fill="none" stroke="#9a32cd" stroke-dasharray="5,2" d="M578.4,-54C600.19,-54 623.43,-54 643.78,-54"/>
<polygon fill="#9a32cd" stroke="#9a32cd" points="578.17,-50.5 568.17,-54 578.17,-57.5 578.17,-50.5"/>
<text text-anchor="middle" x="606" y="-57" font-family="Helvetica,sans-Serif" font-size="10.00"> session</text>
</g>
<!-- Node4 -->
<g id="node4" class="node">
<title>Node4</title>
<g id="a_node4"><a xlink:href="structenclave_1_1SessionContext.html" target="_top" xlink:title=" ">
<polygon fill="white" stroke="black" points="216,-49.5 216,-68.5 353,-68.5 353,-49.5 216,-49.5"/>
<text text-anchor="middle" x="284.5" y="-56.5" font-family="Helvetica,sans-Serif" font-size="10.00">enclave::SessionContext</text>
</a>
</g>
</g>
<!-- Node4&#45;&gt;Node3 -->
<g id="edge3" class="edge">
<title>Node4&#45;&gt;Node3</title>
<path fill="none" stroke="#9a32cd" stroke-dasharray="5,2" d="M363.21,-57.17C384.65,-56.66 407.76,-56.12 428.66,-55.62"/>
<polygon fill="#9a32cd" stroke="#9a32cd" points="363.08,-53.67 353.16,-57.4 363.24,-60.67 363.08,-53.67"/>
<text text-anchor="middle" x="391" y="-60" font-family="Helvetica,sans-Serif" font-size="10.00"> ptr</text>
</g>
<!-- Node5 -->
<g id="node5" class="node">
<title>Node5</title>
<g id="a_node5"><a xlink:title=" ">
<polygon fill="white" stroke="black" points="0,-69.5 0,-88.5 125,-88.5 125,-69.5 0,-69.5"/>
<text text-anchor="middle" x="62.5" y="-76.5" font-family="Helvetica,sans-Serif" font-size="10.00">std::vector&lt; uint8_t &gt;</text>
</a>
</g>
</g>
<!-- Node5&#45;&gt;Node2 -->
<g id="edge5" class="edge">
<title>Node5&#45;&gt;Node2</title>
<path fill="none" stroke="#9a32cd" stroke-dasharray="5,2" d="M135.26,-83.72C137.88,-83.83 140.46,-83.92 143,-84 167.43,-84.77 173.56,-84.2 198,-84 362.46,-82.67 404.13,-91.98 568,-78 599.09,-75.35 633.76,-69.01 659.97,-63.52"/>
<polygon fill="#9a32cd" stroke="#9a32cd" points="135.26,-80.22 125.11,-83.26 134.94,-87.21 135.26,-80.22"/>
<text text-anchor="middle" x="391" y="-88" font-family="Helvetica,sans-Serif" font-size="10.00"> bft_raw</text>
</g>
<!-- Node5&#45;&gt;Node4 -->
<g id="edge4" class="edge">
<title>Node5&#45;&gt;Node4</title>
<path fill="none" stroke="#9a32cd" stroke-dasharray="5,2" d="M135.2,-72.48C161.09,-70.13 190.22,-67.48 215.76,-65.16"/>
<polygon fill="#9a32cd" stroke="#9a32cd" points="134.72,-69.01 125.07,-73.4 135.35,-75.98 134.72,-69.01"/>
<text text-anchor="middle" x="170.5" y="-74" font-family="Helvetica,sans-Serif" font-size="10.00"> caller_cert</text>
</g>
<!-- Node6 -->
<g id="node6" class="node">
<title>Node6</title>
<g id="a_node6"><a xlink:href="classccf_1_1ClaimsDigest.html" target="_top" xlink:title=" ">
<polygon fill="white" stroke="black" points="448,-0.5 448,-19.5 549,-19.5 549,-0.5 448,-0.5"/>
<text text-anchor="middle" x="498.5" y="-7.5" font-family="Helvetica,sans-Serif" font-size="10.00">ccf::ClaimsDigest</text>
</a>
</g>
</g>
<!-- Node6&#45;&gt;Node2 -->
<g id="edge6" class="edge">
<title>Node6&#45;&gt;Node2</title>
<path fill="none" stroke="#9a32cd" stroke-dasharray="5,2" d="M553.18,-21.69C585.85,-28.81 627.07,-37.79 657.75,-44.47"/>
<polygon fill="#9a32cd" stroke="#9a32cd" points="553.85,-18.26 543.33,-19.55 552.36,-25.1 553.85,-18.26"/>
<text text-anchor="middle" x="606" y="-41" font-family="Helvetica,sans-Serif" font-size="10.00"> claims</text>
</g>
</g>
</svg>
