<?xml version="1.0" encoding="UTF-8" standalone="no"?>
<!DOCTYPE svg PUBLIC "-//W3C//DTD SVG 1.1//EN"
 "http://www.w3.org/Graphics/SVG/1.1/DTD/svg11.dtd">
<!-- Generated by graphviz version 2.43.0 (0)
 -->
<!-- Title: http::HTTPClientEndpoint Pages: 1 -->
<!--zoomable 196 -->
<svg id="main" version="1.1" xmlns="http://www.w3.org/2000/svg" xmlns:xlink="http://www.w3.org/1999/xlink" xml:space="preserve" onload="init(evt)">
<style type="text/css"><![CDATA[
.edge:hover path { stroke: red; }
.edge:hover polygon { stroke: red; fill: red; }
]]></style>
<script type="text/javascript"><![CDATA[
var edges = document.getElementsByTagName('g');
if (edges && edges.length) {
  for (var i=0;i<edges.length;i++) {
    if (edges[i].id.substr(0,4)=='edge') {
      edges[i].setAttribute('class','edge');
    }
  }
}
]]></script>
        <defs>
                <circle id="rim" cx="0" cy="0" r="7"/>
                <circle id="rim2" cx="0" cy="0" r="3.5"/>
                <g id="zoomPlus">
                        <use xlink:href="#rim" fill="#404040">
                                <set attributeName="fill" to="#808080" begin="zoomplus.mouseover" end="zoomplus.mouseout"/>
                        </use>
                        <path d="M-4,0h8M0,-4v8" fill="none" stroke="white" stroke-width="1.5" pointer-events="none"/>
                </g>
                <g id="zoomMin">
                        <use xlink:href="#rim" fill="#404040">
                                <set attributeName="fill" to="#808080" begin="zoomminus.mouseover" end="zoomminus.mouseout"/>
                        </use>
                        <path d="M-4,0h8" fill="none" stroke="white" stroke-width="1.5" pointer-events="none"/>
                </g>
                <g id="dirArrow">
                        <path fill="none" stroke="white" stroke-width="1.5" d="M0,-3.0v7 M-2.5,-0.5L0,-3.0L2.5,-0.5"/>
                </g>
               <g id="resetDef">
                       <use xlink:href="#rim2" fill="#404040">
                               <set attributeName="fill" to="#808080" begin="reset.mouseover" end="reset.mouseout"/>
                       </use>
               </g>
        </defs>

<script type="text/javascript">
var viewWidth = 1198;
var viewHeight = 196;
var sectionId = 'dynsection-0';
</script>
<script xlink:href="svgpan.js"/>
<svg id="graph" class="graph">
<g id="viewport">
<title>http::HTTPClientEndpoint</title>
<polygon fill="white" stroke="transparent" points="-4,4 -4,-191.5 1194,-191.5 1194,4 -4,4"/>
<!-- Node1 -->
<g id="node1" class="node">
<title>Node1</title>
<g id="a_node1"><a xlink:title=" ">
<polygon fill="#bfbfbf" stroke="black" points="1051,-39 1051,-58 1190,-58 1190,-39 1051,-39"/>
<text text-anchor="middle" x="1120.5" y="-46" font-family="Helvetica,sans-Serif" font-size="10.00">http::HTTPClientEndpoint</text>
</a>
</g>
</g>
<!-- Node2 -->
<g id="node2" class="node">
<title>Node2</title>
<g id="a_node2"><a xlink:href="classhttp_1_1HTTPEndpoint.html" target="_top" xlink:title=" ">
<polygon fill="white" stroke="black" points="890.5,-77 890.5,-96 1000.5,-96 1000.5,-77 890.5,-77"/>
<text text-anchor="middle" x="945.5" y="-84" font-family="Helvetica,sans-Serif" font-size="10.00">http::HTTPEndpoint</text>
</a>
</g>
</g>
<!-- Node2&#45;&gt;Node1 -->
<g id="edge1" class="edge">
<title>Node2&#45;&gt;Node1</title>
<path fill="none" stroke="midnightblue" d="M1000.01,-74.75C1024.47,-69.37 1053.07,-63.09 1076.16,-58.02"/>
<polygon fill="midnightblue" stroke="midnightblue" points="999.17,-71.35 990.16,-76.91 1000.67,-78.18 999.17,-71.35"/>
</g>
<!-- Node3 -->
<g id="node3" class="node">
<title>Node3</title>
<g id="a_node3"><a xlink:href="classenclave_1_1TLSEndpoint.html" target="_top" xlink:title=" ">
<polygon fill="white" stroke="black" points="588,-77 588,-96 709,-96 709,-77 588,-77"/>
<text text-anchor="middle" x="648.5" y="-84" font-family="Helvetica,sans-Serif" font-size="10.00">enclave::TLSEndpoint</text>
</a>
</g>
</g>
<!-- Node3&#45;&gt;Node2 -->
<g id="edge2" class="edge">
<title>Node3&#45;&gt;Node2</title>
<path fill="none" stroke="midnightblue" d="M719.41,-86.5C771.74,-86.5 842.28,-86.5 890.35,-86.5"/>
<polygon fill="midnightblue" stroke="midnightblue" points="719.2,-83 709.2,-86.5 719.2,-90 719.2,-83"/>
</g>
<!-- Node4 -->
<g id="node4" class="node">
<title>Node4</title>
<g id="a_node4"><a xlink:href="classenclave_1_1Endpoint.html" target="_top" xlink:title=" ">
<polygon fill="white" stroke="black" points="379.5,-6 379.5,-25 483.5,-25 483.5,-6 379.5,-6"/>
<text text-anchor="middle" x="431.5" y="-13" font-family="Helvetica,sans-Serif" font-size="10.00">enclave::Endpoint</text>
</a>
</g>
</g>
<!-- Node4&#45;&gt;Node3 -->
<g id="edge3" class="edge">
<title>Node4&#45;&gt;Node3</title>
<path fill="none" stroke="midnightblue" d="M493.84,-14.84C518.22,-16.33 546.1,-20.29 570,-29.5 597.74,-40.19 624.37,-63.57 638.03,-76.83"/>
<polygon fill="midnightblue" stroke="midnightblue" points="493.79,-11.33 483.63,-14.34 493.45,-18.32 493.79,-11.33"/>
</g>
<!-- Node5 -->
<g id="node5" class="node">
<title>Node5</title>
<g id="a_node5"><a xlink:title=" ">
<polygon fill="white" stroke="black" points="141,-0.5 141,-30.5 275,-30.5 275,-0.5 141,-0.5"/>
<text text-anchor="start" x="149" y="-18.5" font-family="Helvetica,sans-Serif" font-size="10.00">std::enable_shared</text>
<text text-anchor="middle" x="208" y="-7.5" font-family="Helvetica,sans-Serif" font-size="10.00">_from_this&lt; Endpoint &gt;</text>
</a>
</g>
</g>
<!-- Node5&#45;&gt;Node4 -->
<g id="edge4" class="edge">
<title>Node5&#45;&gt;Node4</title>
<path fill="none" stroke="midnightblue" d="M285.52,-15.5C316.57,-15.5 351.6,-15.5 379.45,-15.5"/>
<polygon fill="midnightblue" stroke="midnightblue" points="285.16,-12 275.16,-15.5 285.16,-19 285.16,-12"/>
</g>
<!-- Node6 -->
<g id="node6" class="node">
<title>Node6</title>
<g id="a_node6"><a xlink:title=" ">
<polygon fill="white" stroke="black" points="361,-53.5 361,-83.5 502,-83.5 502,-53.5 361,-53.5"/>
<text text-anchor="start" x="369" y="-71.5" font-family="Helvetica,sans-Serif" font-size="10.00">std::shared_ptr&lt; Abstract</text>
<text text-anchor="middle" x="431.5" y="-60.5" font-family="Helvetica,sans-Serif" font-size="10.00">Writer &gt;</text>
</a>
</g>
</g>
<!-- Node6&#45;&gt;Node3 -->
<g id="edge5" class="edge">
<title>Node6&#45;&gt;Node3</title>
<path fill="none" stroke="#9a32cd" stroke-dasharray="5,2" d="M512.23,-75.18C537.31,-77.28 564.56,-79.56 587.98,-81.52"/>
<polygon fill="#9a32cd" stroke="#9a32cd" points="512.26,-71.67 502.01,-74.32 511.68,-78.64 512.26,-71.67"/>
<text text-anchor="middle" x="545.5" y="-82.5" font-family="Helvetica,sans-Serif" font-size="10.00"> to_host</text>
</g>
<!-- Node12 -->
<g id="node12" class="node">
<title>Node12</title>
<g id="a_node12"><a xlink:href="classenclave_1_1ClientEndpoint.html" target="_top" xlink:title=" ">
<polygon fill="white" stroke="black" points="727,-39 727,-58 859,-58 859,-39 727,-39"/>
<text text-anchor="middle" x="793" y="-46" font-family="Helvetica,sans-Serif" font-size="10.00">enclave::ClientEndpoint</text>
</a>
</g>
</g>
<!-- Node6&#45;&gt;Node12 -->
<g id="edge12" class="edge">
<title>Node6&#45;&gt;Node12</title>
<path fill="none" stroke="#9a32cd" stroke-dasharray="5,2" d="M512.21,-61.12C515.18,-60.9 518.11,-60.69 521,-60.5 591.25,-55.77 671.87,-52.47 726.79,-50.55"/>
<polygon fill="#9a32cd" stroke="#9a32cd" points="511.74,-57.65 502.04,-61.91 512.28,-64.63 511.74,-57.65"/>
<text text-anchor="middle" x="545.5" y="-63.5" font-family="Helvetica,sans-Serif" font-size="10.00"> to_host</text>
</g>
<!-- Node7 -->
<g id="node7" class="node">
<title>Node7</title>
<g id="a_node7"><a xlink:href="classhttp_1_1Parser.html" target="_top" xlink:title=" ">
<polygon fill="white" stroke="black" points="612.5,-115 612.5,-134 684.5,-134 684.5,-115 612.5,-115"/>
<text text-anchor="middle" x="648.5" y="-122" font-family="Helvetica,sans-Serif" font-size="10.00">http::Parser</text>
</a>
</g>
</g>
<!-- Node7&#45;&gt;Node2 -->
<g id="edge6" class="edge">
<title>Node7&#45;&gt;Node2</title>
<path fill="none" stroke="#9a32cd" stroke-dasharray="5,2" d="M694.78,-119.52C737.25,-114.75 802.5,-107.16 859,-99.5 869.12,-98.13 879.89,-96.57 890.26,-95.02"/>
<polygon fill="#9a32cd" stroke="#9a32cd" points="694.31,-116.05 684.76,-120.64 695.09,-123.01 694.31,-116.05"/>
<text text-anchor="middle" x="793" y="-118.5" font-family="Helvetica,sans-Serif" font-size="10.00"> p</text>
</g>
<!-- Node8 -->
<g id="node8" class="node">
<title>Node8</title>
<g id="a_node8"><a xlink:title=" ">
<polygon fill="white" stroke="black" points="369,-112 369,-131 494,-131 494,-112 369,-112"/>
<text text-anchor="middle" x="431.5" y="-119" font-family="Helvetica,sans-Serif" font-size="10.00">std::vector&lt; uint8_t &gt;</text>
</a>
</g>
</g>
<!-- Node8&#45;&gt;Node7 -->
<g id="edge7" class="edge">
<title>Node8&#45;&gt;Node7</title>
<path fill="none" stroke="#9a32cd" stroke-dasharray="5,2" d="M504.19,-122.5C540.57,-123.01 583.13,-123.6 612.36,-124.01"/>
<polygon fill="#9a32cd" stroke="#9a32cd" points="504.16,-119 494.11,-122.36 504.06,-126 504.16,-119"/>
<text text-anchor="middle" x="545.5" y="-125.5" font-family="Helvetica,sans-Serif" font-size="10.00"> body_buf</text>
</g>
<!-- Node9 -->
<g id="node9" class="node">
<title>Node9</title>
<g id="a_node9"><a xlink:title=" ">
<polygon fill="white" stroke="black" points="360,-150.5 360,-180.5 503,-180.5 503,-150.5 360,-150.5"/>
<text text-anchor="start" x="368" y="-168.5" font-family="Helvetica,sans-Serif" font-size="10.00">std::map&lt; std::string,</text>
<text text-anchor="middle" x="431.5" y="-157.5" font-family="Helvetica,sans-Serif" font-size="10.00"> std::string, std::less&lt;&gt; &gt;</text>
</a>
</g>
</g>
<!-- Node9&#45;&gt;Node7 -->
<g id="edge8" class="edge">
<title>Node9&#45;&gt;Node7</title>
<path fill="none" stroke="#9a32cd" stroke-dasharray="5,2" d="M513.2,-150.11C547.42,-143.58 585.51,-136.32 612.36,-131.2"/>
<polygon fill="#9a32cd" stroke="#9a32cd" points="512.36,-146.71 503.2,-152.02 513.68,-153.58 512.36,-146.71"/>
<text text-anchor="middle" x="545.5" y="-149.5" font-family="Helvetica,sans-Serif" font-size="10.00"> headers</text>
</g>
<!-- Node10 -->
<g id="node10" class="node">
<title>Node10</title>
<g id="a_node10"><a xlink:title=" ">
<polygon fill="white" stroke="black" points="175.5,-156 175.5,-175 240.5,-175 240.5,-156 175.5,-156"/>
<text text-anchor="middle" x="208" y="-163" font-family="Helvetica,sans-Serif" font-size="10.00">std::string</text>
</a>
</g>
</g>
<!-- Node10&#45;&gt;Node9 -->
<g id="edge9" class="edge">
<title>Node10&#45;&gt;Node9</title>
<path fill="none" stroke="#9a32cd" stroke-dasharray="5,2" d="M251.08,-165.5C281.79,-165.5 324.14,-165.5 359.98,-165.5"/>
<polygon fill="#9a32cd" stroke="#9a32cd" points="250.74,-162 240.74,-165.5 250.74,-169 250.74,-162"/>
<text text-anchor="middle" x="317.5" y="-179.5" font-family="Helvetica,sans-Serif" font-size="10.00"> elements</text>
<text text-anchor="middle" x="317.5" y="-168.5" font-family="Helvetica,sans-Serif" font-size="10.00">keys</text>
</g>
<!-- Node11 -->
<g id="node11" class="node">
<title>Node11</title>
<g id="a_node11"><a xlink:title=" ">
<polygon fill="white" stroke="black" points="0,-150.5 0,-180.5 104,-180.5 104,-150.5 0,-150.5"/>
<text text-anchor="start" x="8" y="-168.5" font-family="Helvetica,sans-Serif" font-size="10.00">std::basic_string&lt;</text>
<text text-anchor="middle" x="52" y="-157.5" font-family="Helvetica,sans-Serif" font-size="10.00"> Char &gt;</text>
</a>
</g>
</g>
<!-- Node11&#45;&gt;Node10 -->
<g id="edge10" class="edge">
<title>Node11&#45;&gt;Node10</title>
<path fill="none" stroke="midnightblue" d="M114.36,-165.5C135.21,-165.5 157.65,-165.5 175.23,-165.5"/>
<polygon fill="midnightblue" stroke="midnightblue" points="114.28,-162 104.28,-165.5 114.28,-169 114.28,-162"/>
</g>
<!-- Node12&#45;&gt;Node1 -->
<g id="edge11" class="edge">
<title>Node12&#45;&gt;Node1</title>
<path fill="none" stroke="midnightblue" d="M869.09,-48.5C923.91,-48.5 997.63,-48.5 1050.88,-48.5"/>
<polygon fill="midnightblue" stroke="midnightblue" points="869.09,-45 859.09,-48.5 869.09,-52 869.09,-45"/>
</g>
<!-- Node13 -->
<g id="node13" class="node">
<title>Node13</title>
<g id="a_node13"><a xlink:href="classhttp_1_1ResponseProcessor.html" target="_top" xlink:title=" ">
<polygon fill="white" stroke="black" points="877,-1 877,-20 1014,-20 1014,-1 877,-1"/>
<text text-anchor="middle" x="945.5" y="-8" font-family="Helvetica,sans-Serif" font-size="10.00">http::ResponseProcessor</text>
</a>
</g>
</g>
<!-- Node13&#45;&gt;Node1 -->
<g id="edge13" class="edge">
<title>Node13&#45;&gt;Node1</title>
<path fill="none" stroke="midnightblue" d="M1000.01,-22.25C1024.47,-27.63 1053.07,-33.91 1076.16,-38.98"/>
<polygon fill="midnightblue" stroke="midnightblue" points="1000.67,-18.82 990.16,-20.09 999.17,-25.65 1000.67,-18.82"/>
</g>
</g>
</svg>
        <g id="navigator" transform="translate(0 0)" fill="#404254">
                <rect fill="#f2f5e9" fill-opacity="0.5" stroke="#606060" stroke-width=".5" x="0" y="0" width="60" height="60"/>
                <use id="zoomplus" xlink:href="#zoomPlus" x="17" y="9" onmousedown="handleZoom(evt,'in')"/>
                <use id="zoomminus" xlink:href="#zoomMin" x="42" y="9" onmousedown="handleZoom(evt,'out')"/>
                <use id="reset" xlink:href="#resetDef" x="30" y="36" onmousedown="handleReset()"/>
                <g id="arrowUp" xlink:href="#dirArrow" transform="translate(30 24)" onmousedown="handlePan(0,-1)">
                  <use xlink:href="#rim" fill="#404040">
                        <set attributeName="fill" to="#808080" begin="arrowUp.mouseover" end="arrowUp.mouseout"/>
                  </use>
                  <path fill="none" stroke="white" stroke-width="1.5" d="M0,-3.0v7 M-2.5,-0.5L0,-3.0L2.5,-0.5"/>
                </g>
                <g id="arrowRight" xlink:href="#dirArrow" transform="rotate(90) translate(36 -43)" onmousedown="handlePan(1,0)">
                  <use xlink:href="#rim" fill="#404040">
                        <set attributeName="fill" to="#808080" begin="arrowRight.mouseover" end="arrowRight.mouseout"/>
                  </use>
                  <path fill="none" stroke="white" stroke-width="1.5" d="M0,-3.0v7 M-2.5,-0.5L0,-3.0L2.5,-0.5"/>
                </g>
                <g id="arrowDown" xlink:href="#dirArrow" transform="rotate(180) translate(-30 -48)" onmousedown="handlePan(0,1)">
                  <use xlink:href="#rim" fill="#404040">
                        <set attributeName="fill" to="#808080" begin="arrowDown.mouseover" end="arrowDown.mouseout"/>
                  </use>
                  <path fill="none" stroke="white" stroke-width="1.5" d="M0,-3.0v7 M-2.5,-0.5L0,-3.0L2.5,-0.5"/>
                </g>
                <g id="arrowLeft" xlink:href="#dirArrow" transform="rotate(270) translate(-36 17)" onmousedown="handlePan(-1,0)">
                  <use xlink:href="#rim" fill="#404040">
                        <set attributeName="fill" to="#808080" begin="arrowLeft.mouseover" end="arrowLeft.mouseout"/>
                  </use>
                  <path fill="none" stroke="white" stroke-width="1.5" d="M0,-3.0v7 M-2.5,-0.5L0,-3.0L2.5,-0.5"/>
                </g>
        </g>
        <svg viewBox="0 0 15 15" width="100%" height="30px" preserveAspectRatio="xMaxYMin meet">
         <g id="arrow_out" transform="scale(0.3 0.3)">
          <a xlink:href="classhttp_1_1HTTPClientEndpoint__coll__graph_org.svg" target="_base">
           <rect id="button" ry="5" rx="5" y="6" x="6" height="38" width="38"
                fill="#f2f5e9" fill-opacity="0.5" stroke="#606060" stroke-width="1.0"/>
           <path id="arrow"
             d="M 11.500037,31.436501 C 11.940474,20.09759 22.043105,11.32322 32.158766,21.979434 L 37.068811,17.246167 C 37.068811,17.246167 37.088388,32 37.088388,32 L 22.160133,31.978069 C 22.160133,31.978069 26.997745,27.140456 26.997745,27.140456 C 18.528582,18.264221 13.291696,25.230495 11.500037,31.436501 z"
             style="fill:#404040;"/>
          </a>
         </g>
        </svg>
</svg>
