<?xml version="1.0" encoding="UTF-8" standalone="no"?>
<!DOCTYPE svg PUBLIC "-//W3C//DTD SVG 1.1//EN"
 "http://www.w3.org/Graphics/SVG/1.1/DTD/svg11.dtd">
<!-- Generated by graphviz version 2.43.0 (0)
 -->
<!-- Title: ccf::RpcFrontend Pages: 1 -->
<svg width="2373pt" height="689pt"
 viewBox="0.00 0.00 2373.00 688.50" xmlns="http://www.w3.org/2000/svg" xmlns:xlink="http://www.w3.org/1999/xlink">
<g id="graph0" class="graph" transform="scale(1 1) rotate(0) translate(4 684.5)">
<title>ccf::RpcFrontend</title>
<polygon fill="white" stroke="transparent" points="-4,4 -4,-684.5 2369,-684.5 2369,4 -4,4"/>
<!-- Node1 -->
<g id="node1" class="node">
<title>Node1</title>
<g id="a_node1"><a xlink:title=" ">
<polygon fill="#bfbfbf" stroke="black" points="2268,-585.5 2268,-604.5 2365,-604.5 2365,-585.5 2268,-585.5"/>
<text text-anchor="middle" x="2316.5" y="-592.5" font-family="Helvetica,sans-Serif" font-size="10.00">ccf::RpcFrontend</text>
</a>
</g>
</g>
<!-- Node2 -->
<g id="node2" class="node">
<title>Node2</title>
<g id="a_node2"><a xlink:href="classenclave_1_1RpcHandler.html" target="_top" xlink:title=" ">
<polygon fill="white" stroke="black" points="2050,-642.5 2050,-661.5 2167,-661.5 2167,-642.5 2050,-642.5"/>
<text text-anchor="middle" x="2108.5" y="-649.5" font-family="Helvetica,sans-Serif" font-size="10.00">enclave::RpcHandler</text>
</a>
</g>
</g>
<!-- Node2&#45;&gt;Node1 -->
<g id="edge1" class="edge">
<title>Node2&#45;&gt;Node1</title>
<path fill="none" stroke="midnightblue" d="M2161.42,-640.11C2188.04,-633.76 2220.9,-625.5 2250,-617 2262.78,-613.27 2276.79,-608.64 2288.57,-604.59"/>
<polygon fill="midnightblue" stroke="midnightblue" points="2160.46,-636.74 2151.54,-642.45 2162.08,-643.55 2160.46,-636.74"/>
</g>
<!-- Node3 -->
<g id="node3" class="node">
<title>Node3</title>
<g id="a_node3"><a xlink:href="classccf_1_1ForwardedRpcHandler.html" target="_top" xlink:title=" ">
<polygon fill="white" stroke="black" points="2037,-604.5 2037,-623.5 2180,-623.5 2180,-604.5 2037,-604.5"/>
<text text-anchor="middle" x="2108.5" y="-611.5" font-family="Helvetica,sans-Serif" font-size="10.00">ccf::ForwardedRpcHandler</text>
</a>
</g>
</g>
<!-- Node3&#45;&gt;Node1 -->
<g id="edge2" class="edge">
<title>Node3&#45;&gt;Node1</title>
<path fill="none" stroke="midnightblue" d="M2190.09,-606.57C2216.45,-604.14 2244.87,-601.51 2267.98,-599.38"/>
<polygon fill="midnightblue" stroke="midnightblue" points="2189.74,-603.08 2180.11,-607.49 2190.38,-610.05 2189.74,-603.08"/>
</g>
<!-- Node4 -->
<g id="node4" class="node">
<title>Node4</title>
<g id="a_node4"><a xlink:href="classkv_1_1Store.html" target="_top" xlink:title=" ">
<polygon fill="white" stroke="black" points="2079,-566.5 2079,-585.5 2138,-585.5 2138,-566.5 2079,-566.5"/>
<text text-anchor="middle" x="2108.5" y="-573.5" font-family="Helvetica,sans-Serif" font-size="10.00">kv::Store</text>
</a>
</g>
</g>
<!-- Node4&#45;&gt;Node1 -->
<g id="edge3" class="edge">
<title>Node4&#45;&gt;Node1</title>
<path fill="none" stroke="#9a32cd" stroke-dasharray="5,2" d="M2148.33,-578.08C2176.57,-579.76 2215.71,-582.43 2250,-586 2255.82,-586.61 2261.92,-587.33 2267.96,-588.1"/>
<polygon fill="#9a32cd" stroke="#9a32cd" points="2148.26,-574.57 2138.07,-577.48 2147.85,-581.56 2148.26,-574.57"/>
<text text-anchor="middle" x="2224" y="-589" font-family="Helvetica,sans-Serif" font-size="10.00"> tables</text>
</g>
<!-- Node5 -->
<g id="node5" class="node">
<title>Node5</title>
<g id="a_node5"><a xlink:href="classkv_1_1AbstractStore.html" target="_top" xlink:title=" ">
<polygon fill="white" stroke="black" points="1791,-585.5 1791,-604.5 1891,-604.5 1891,-585.5 1791,-585.5"/>
<text text-anchor="middle" x="1841" y="-592.5" font-family="Helvetica,sans-Serif" font-size="10.00">kv::AbstractStore</text>
</a>
</g>
</g>
<!-- Node5&#45;&gt;Node4 -->
<g id="edge4" class="edge">
<title>Node5&#45;&gt;Node4</title>
<path fill="none" stroke="midnightblue" d="M1901.02,-590.78C1956.28,-586.82 2036.5,-581.08 2078.84,-578.05"/>
<polygon fill="midnightblue" stroke="midnightblue" points="1900.73,-587.29 1891.01,-591.49 1901.23,-594.27 1900.73,-587.29"/>
</g>
<!-- Node6 -->
<g id="node6" class="node">
<title>Node6</title>
<g id="a_node6"><a xlink:href="classkv_1_1StoreState.html" target="_top" xlink:title=" ">
<polygon fill="white" stroke="black" points="1798.5,-623.5 1798.5,-642.5 1883.5,-642.5 1883.5,-623.5 1798.5,-623.5"/>
<text text-anchor="middle" x="1841" y="-630.5" font-family="Helvetica,sans-Serif" font-size="10.00">kv::StoreState</text>
</a>
</g>
</g>
<!-- Node6&#45;&gt;Node4 -->
<g id="edge5" class="edge">
<title>Node6&#45;&gt;Node4</title>
<path fill="none" stroke="midnightblue" d="M1893.74,-623.97C1929.13,-617.57 1977.05,-608.47 2019,-599 2039.13,-594.46 2061.64,-588.6 2078.92,-583.93"/>
<polygon fill="midnightblue" stroke="midnightblue" points="1892.87,-620.57 1883.64,-625.78 1894.1,-627.46 1892.87,-620.57"/>
</g>
<!-- Node7 -->
<g id="node7" class="node">
<title>Node7</title>
<g id="a_node7"><a xlink:title=" ">
<polygon fill="white" stroke="black" points="1446.5,-524.5 1446.5,-543.5 1515.5,-543.5 1515.5,-524.5 1446.5,-524.5"/>
<text text-anchor="middle" x="1481" y="-531.5" font-family="Helvetica,sans-Serif" font-size="10.00">std::mutex</text>
</a>
</g>
</g>
<!-- Node7&#45;&gt;Node6 -->
<g id="edge6" class="edge">
<title>Node7&#45;&gt;Node6</title>
<path fill="none" stroke="#9a32cd" stroke-dasharray="5,2" d="M1525.93,-531.09C1592.78,-527.62 1715.76,-525.25 1749,-552 1771.35,-569.99 1746.43,-594 1767,-614 1775.45,-622.22 1786.98,-627 1798.38,-629.76"/>
<polygon fill="#9a32cd" stroke="#9a32cd" points="1525.5,-527.61 1515.71,-531.65 1525.89,-534.6 1525.5,-527.61"/>
<text text-anchor="middle" x="1661" y="-577" font-family="Helvetica,sans-Serif" font-size="10.00"> commit_lock</text>
<text text-anchor="middle" x="1661" y="-566" font-family="Helvetica,sans-Serif" font-size="10.00">maps_lock</text>
<text text-anchor="middle" x="1661" y="-555" font-family="Helvetica,sans-Serif" font-size="10.00">version_lock</text>
</g>
<!-- Node13 -->
<g id="node13" class="node">
<title>Node13</title>
<g id="a_node13"><a xlink:href="classccf_1_1endpoints_1_1EndpointRegistry.html" target="_top" xlink:title=" ">
<polygon fill="white" stroke="black" points="2042,-343 2042,-373 2175,-373 2175,-343 2042,-343"/>
<text text-anchor="start" x="2050" y="-361" font-family="Helvetica,sans-Serif" font-size="10.00">ccf::endpoints::Endpoint</text>
<text text-anchor="middle" x="2108.5" y="-350" font-family="Helvetica,sans-Serif" font-size="10.00">Registry</text>
</a>
</g>
</g>
<!-- Node7&#45;&gt;Node13 -->
<g id="edge37" class="edge">
<title>Node7&#45;&gt;Node13</title>
<path fill="none" stroke="#9a32cd" stroke-dasharray="5,2" d="M1525.9,-532.21C1646.51,-526.99 1976.8,-510.58 2019,-486 2063.82,-459.89 2091.19,-400.94 2102.08,-373.1"/>
<polygon fill="#9a32cd" stroke="#9a32cd" points="1525.41,-528.73 1515.57,-532.65 1525.71,-535.72 1525.41,-528.73"/>
<text text-anchor="middle" x="1841" y="-521" font-family="Helvetica,sans-Serif" font-size="10.00"> metrics_lock</text>
</g>
<!-- Node8 -->
<g id="node8" class="node">
<title>Node8</title>
<g id="a_node8"><a xlink:title=" ">
<polygon fill="white" stroke="black" points="550,-514 550,-566 693,-566 693,-514 550,-514"/>
<text text-anchor="start" x="558" y="-554" font-family="Helvetica,sans-Serif" font-size="10.00">std::map&lt; std::string,</text>
<text text-anchor="start" x="558" y="-543" font-family="Helvetica,sans-Serif" font-size="10.00"> std::pair&lt; kv::Version,</text>
<text text-anchor="start" x="558" y="-532" font-family="Helvetica,sans-Serif" font-size="10.00"> std::shared_ptr&lt; untyped</text>
<text text-anchor="middle" x="621.5" y="-521" font-family="Helvetica,sans-Serif" font-size="10.00">::Map &gt; &gt; &gt;</text>
</a>
</g>
</g>
<!-- Node8&#45;&gt;Node6 -->
<g id="edge7" class="edge">
<title>Node8&#45;&gt;Node6</title>
<path fill="none" stroke="#9a32cd" stroke-dasharray="5,2" d="M702.88,-563.82C765.22,-580.2 854.08,-599 933.5,-599 933.5,-599 933.5,-599 1482,-599 1596.88,-599 1731.56,-616.56 1798.23,-626.44"/>
<polygon fill="#9a32cd" stroke="#9a32cd" points="703.68,-560.41 693.11,-561.22 701.87,-567.17 703.68,-560.41"/>
<text text-anchor="middle" x="1112" y="-602" font-family="Helvetica,sans-Serif" font-size="10.00"> maps</text>
</g>
<!-- Node9 -->
<g id="node9" class="node">
<title>Node9</title>
<g id="a_node9"><a xlink:title=" ">
<polygon fill="white" stroke="black" points="155.5,-263.5 155.5,-282.5 220.5,-282.5 220.5,-263.5 155.5,-263.5"/>
<text text-anchor="middle" x="188" y="-270.5" font-family="Helvetica,sans-Serif" font-size="10.00">std::string</text>
</a>
</g>
</g>
<!-- Node9&#45;&gt;Node8 -->
<g id="edge8" class="edge">
<title>Node9&#45;&gt;Node8</title>
<path fill="none" stroke="#9a32cd" stroke-dasharray="5,2" d="M190.01,-292.67C193.04,-329.97 205.07,-411.08 253,-454 335.25,-527.66 468.44,-541.61 549.87,-542.54"/>
<polygon fill="#9a32cd" stroke="#9a32cd" points="193.5,-292.34 189.33,-282.6 186.51,-292.81 193.5,-292.34"/>
<text text-anchor="middle" x="298.5" y="-508" font-family="Helvetica,sans-Serif" font-size="10.00"> keys</text>
</g>
<!-- Node9&#45;&gt;Node13 -->
<g id="edge14" class="edge">
<title>Node9&#45;&gt;Node13</title>
<path fill="none" stroke="#9a32cd" stroke-dasharray="5,2" d="M230.52,-276.65C238,-277.19 245.73,-277.68 253,-278 917.27,-307.47 1085.37,-252.47 1749,-294 1869.55,-301.54 1901.55,-296.8 2019,-325 2037.18,-329.36 2056.72,-336.39 2072.8,-342.83"/>
<polygon fill="#9a32cd" stroke="#9a32cd" points="230.79,-273.16 220.55,-275.89 230.25,-280.14 230.79,-273.16"/>
<text text-anchor="middle" x="1112" y="-284" font-family="Helvetica,sans-Serif" font-size="10.00"> method_prefix</text>
</g>
<!-- Node15 -->
<g id="node15" class="node">
<title>Node15</title>
<g id="a_node15"><a xlink:href="structccf_1_1endpoints_1_1EndpointRegistry_1_1OpenApiInfo.html" target="_top" xlink:title=" ">
<polygon fill="white" stroke="black" points="555,-67 555,-97 688,-97 688,-67 555,-67"/>
<text text-anchor="start" x="563" y="-85" font-family="Helvetica,sans-Serif" font-size="10.00">ccf::endpoints::Endpoint</text>
<text text-anchor="middle" x="621.5" y="-74" font-family="Helvetica,sans-Serif" font-size="10.00">Registry::OpenApiInfo</text>
</a>
</g>
</g>
<!-- Node9&#45;&gt;Node15 -->
<g id="edge16" class="edge">
<title>Node9&#45;&gt;Node15</title>
<path fill="none" stroke="#9a32cd" stroke-dasharray="5,2" d="M189.13,-253.21C190.58,-214.36 199.95,-128.52 253,-90 299.47,-56.25 462.28,-66.01 554.85,-74.77"/>
<polygon fill="#9a32cd" stroke="#9a32cd" points="185.63,-253.18 188.9,-263.26 192.63,-253.34 185.63,-253.18"/>
<text text-anchor="middle" x="298.5" y="-115" font-family="Helvetica,sans-Serif" font-size="10.00"> description</text>
<text text-anchor="middle" x="298.5" y="-104" font-family="Helvetica,sans-Serif" font-size="10.00">document_version</text>
<text text-anchor="middle" x="298.5" y="-93" font-family="Helvetica,sans-Serif" font-size="10.00">title</text>
</g>
<!-- Node18 -->
<g id="node18" class="node">
<title>Node18</title>
<g id="a_node18"><a xlink:href="structccf_1_1endpoints_1_1EndpointDefinition.html" target="_top" xlink:title=" ">
<polygon fill="white" stroke="black" points="1045.5,-161 1045.5,-191 1178.5,-191 1178.5,-161 1045.5,-161"/>
<text text-anchor="start" x="1053.5" y="-179" font-family="Helvetica,sans-Serif" font-size="10.00">ccf::endpoints::Endpoint</text>
<text text-anchor="middle" x="1112" y="-168" font-family="Helvetica,sans-Serif" font-size="10.00">Definition</text>
</a>
</g>
</g>
<!-- Node9&#45;&gt;Node18 -->
<g id="edge23" class="edge">
<title>Node9&#45;&gt;Node18</title>
<path fill="none" stroke="#9a32cd" stroke-dasharray="5,2" d="M230.86,-269.47C351.41,-259.15 709.69,-227.47 1006,-191 1018.7,-189.44 1032.25,-187.62 1045.24,-185.79"/>
<polygon fill="#9a32cd" stroke="#9a32cd" points="230.27,-266 220.6,-270.34 230.86,-272.98 230.27,-266"/>
<text text-anchor="middle" x="621.5" y="-243" font-family="Helvetica,sans-Serif" font-size="10.00"> full_uri_path</text>
</g>
<!-- Node19 -->
<g id="node19" class="node">
<title>Node19</title>
<g id="a_node19"><a xlink:href="structccf_1_1endpoints_1_1EndpointKey.html" target="_top" xlink:title=" ">
<polygon fill="white" stroke="black" points="371.5,-110.5 371.5,-129.5 522.5,-129.5 522.5,-110.5 371.5,-110.5"/>
<text text-anchor="middle" x="447" y="-117.5" font-family="Helvetica,sans-Serif" font-size="10.00">ccf::endpoints::EndpointKey</text>
</a>
</g>
</g>
<!-- Node9&#45;&gt;Node19 -->
<g id="edge21" class="edge">
<title>Node9&#45;&gt;Node19</title>
<path fill="none" stroke="#9a32cd" stroke-dasharray="5,2" d="M192.96,-253.52C199.83,-225.09 216.86,-172.8 253,-147 271.79,-133.58 325.42,-126.8 371.38,-123.39"/>
<polygon fill="#9a32cd" stroke="#9a32cd" points="189.5,-252.95 190.73,-263.47 196.33,-254.47 189.5,-252.95"/>
<text text-anchor="middle" x="298.5" y="-150" font-family="Helvetica,sans-Serif" font-size="10.00"> uri_path</text>
</g>
<!-- Node21 -->
<g id="node21" class="node">
<title>Node21</title>
<g id="a_node21"><a xlink:href="structccf_1_1endpoints_1_1EndpointProperties.html" target="_top" xlink:title=" ">
<polygon fill="white" stroke="black" points="711.5,-161 711.5,-191 844.5,-191 844.5,-161 711.5,-161"/>
<text text-anchor="start" x="719.5" y="-179" font-family="Helvetica,sans-Serif" font-size="10.00">ccf::endpoints::Endpoint</text>
<text text-anchor="middle" x="778" y="-168" font-family="Helvetica,sans-Serif" font-size="10.00">Properties</text>
</a>
</g>
</g>
<!-- Node9&#45;&gt;Node21 -->
<g id="edge27" class="edge">
<title>Node9&#45;&gt;Node21</title>
<path fill="none" stroke="#9a32cd" stroke-dasharray="5,2" d="M213.21,-258.49C224.9,-252.03 239.32,-244.8 253,-240 299.63,-223.63 313.11,-225.2 362,-218 508.18,-196.46 546.17,-203.48 693,-187 698.99,-186.33 705.22,-185.59 711.45,-184.82"/>
<polygon fill="#9a32cd" stroke="#9a32cd" points="211.46,-255.47 204.5,-263.46 214.92,-261.55 211.46,-255.47"/>
<text text-anchor="middle" x="447" y="-232" font-family="Helvetica,sans-Serif" font-size="10.00"> js_function</text>
<text text-anchor="middle" x="447" y="-221" font-family="Helvetica,sans-Serif" font-size="10.00">js_module</text>
</g>
<!-- Node22 -->
<g id="node22" class="node">
<title>Node22</title>
<g id="a_node22"><a xlink:title=" ">
<polygon fill="white" stroke="black" points="377,-148.5 377,-167.5 517,-167.5 517,-148.5 377,-148.5"/>
<text text-anchor="middle" x="447" y="-155.5" font-family="Helvetica,sans-Serif" font-size="10.00">std::vector&lt; std::string &gt;</text>
</a>
</g>
</g>
<!-- Node9&#45;&gt;Node22 -->
<g id="edge26" class="edge">
<title>Node9&#45;&gt;Node22</title>
<path fill="none" stroke="#9a32cd" stroke-dasharray="5,2" d="M196.21,-253.84C205.62,-231.72 224.36,-196.2 253,-179 273.44,-166.73 330.25,-161.6 376.98,-159.48"/>
<polygon fill="#9a32cd" stroke="#9a32cd" points="192.92,-252.63 192.43,-263.21 199.41,-255.24 192.92,-252.63"/>
<text text-anchor="middle" x="298.5" y="-182" font-family="Helvetica,sans-Serif" font-size="10.00"> elements</text>
</g>
<!-- Node27 -->
<g id="node27" class="node">
<title>Node27</title>
<g id="a_node27"><a xlink:title=" ">
<polygon fill="white" stroke="black" points="863,-439.5 863,-480.5 1006,-480.5 1006,-439.5 863,-439.5"/>
<text text-anchor="start" x="871" y="-468.5" font-family="Helvetica,sans-Serif" font-size="10.00">std::map&lt; std::string,</text>
<text text-anchor="start" x="871" y="-457.5" font-family="Helvetica,sans-Serif" font-size="10.00"> std::map&lt; ccf::RESTVerb,</text>
<text text-anchor="middle" x="934.5" y="-446.5" font-family="Helvetica,sans-Serif" font-size="10.00"> EndpointPtr &gt; &gt;</text>
</a>
</g>
</g>
<!-- Node9&#45;&gt;Node27 -->
<g id="edge34" class="edge">
<title>Node9&#45;&gt;Node27</title>
<path fill="none" stroke="#9a32cd" stroke-dasharray="5,2" d="M193.26,-292.69C200.4,-320.43 217.61,-370.28 253,-394 442.43,-520.97 730.81,-494.53 862.93,-473.44"/>
<polygon fill="#9a32cd" stroke="#9a32cd" points="196.58,-291.53 190.86,-282.61 189.77,-293.15 196.58,-291.53"/>
<text text-anchor="middle" x="447" y="-487" font-family="Helvetica,sans-Serif" font-size="10.00"> keys</text>
</g>
<!-- Node28 -->
<g id="node28" class="node">
<title>Node28</title>
<g id="a_node28"><a xlink:title=" ">
<polygon fill="white" stroke="black" points="1218,-356 1218,-408 1389,-408 1389,-356 1218,-356"/>
<text text-anchor="start" x="1226" y="-396" font-family="Helvetica,sans-Serif" font-size="10.00">std::map&lt; std::string,</text>
<text text-anchor="start" x="1226" y="-385" font-family="Helvetica,sans-Serif" font-size="10.00"> std::map&lt; ccf::RESTVerb,</text>
<text text-anchor="start" x="1226" y="-374" font-family="Helvetica,sans-Serif" font-size="10.00"> std::shared_ptr&lt; ccf::endpoints</text>
<text text-anchor="middle" x="1303.5" y="-363" font-family="Helvetica,sans-Serif" font-size="10.00">::PathTemplatedEndpoint &gt; &gt; &gt;</text>
</a>
</g>
</g>
<!-- Node9&#45;&gt;Node28 -->
<g id="edge36" class="edge">
<title>Node9&#45;&gt;Node28</title>
<path fill="none" stroke="#9a32cd" stroke-dasharray="5,2" d="M198.68,-291.74C209.34,-310.31 228.29,-337.95 253,-352 328.35,-394.84 359.32,-380 446,-380 446,-380 446,-380 935.5,-380 1032.35,-380 1143.57,-380.71 1217.96,-381.28"/>
<polygon fill="#9a32cd" stroke="#9a32cd" points="201.63,-289.83 193.75,-282.74 195.49,-293.19 201.63,-289.83"/>
<text text-anchor="middle" x="621.5" y="-383" font-family="Helvetica,sans-Serif" font-size="10.00"> keys</text>
</g>
<!-- Node29 -->
<g id="node29" class="node">
<title>Node29</title>
<g id="a_node29"><a xlink:title=" ">
<polygon fill="white" stroke="black" points="1573,-303 1573,-355 1749,-355 1749,-303 1573,-303"/>
<text text-anchor="start" x="1581" y="-343" font-family="Helvetica,sans-Serif" font-size="10.00">std::map&lt; std::string,</text>
<text text-anchor="start" x="1581" y="-332" font-family="Helvetica,sans-Serif" font-size="10.00"> std::map&lt; std::string,</text>
<text text-anchor="start" x="1581" y="-321" font-family="Helvetica,sans-Serif" font-size="10.00"> ccf::endpoints::EndpointRegistry</text>
<text text-anchor="middle" x="1661" y="-310" font-family="Helvetica,sans-Serif" font-size="10.00">::Metrics &gt; &gt;</text>
</a>
</g>
</g>
<!-- Node9&#45;&gt;Node29 -->
<g id="edge39" class="edge">
<title>Node9&#45;&gt;Node29</title>
<path fill="none" stroke="#9a32cd" stroke-dasharray="5,2" d="M212.9,-287.59C224.61,-294.14 239.14,-301.41 253,-306 335.53,-333.37 359.05,-338 446,-338 446,-338 446,-338 1304.5,-338 1396.03,-338 1500.77,-334.98 1572.72,-332.44"/>
<polygon fill="#9a32cd" stroke="#9a32cd" points="214.59,-284.52 204.18,-282.55 211.1,-290.59 214.59,-284.52"/>
<text text-anchor="middle" x="778" y="-341" font-family="Helvetica,sans-Serif" font-size="10.00"> keys</text>
</g>
<!-- Node10 -->
<g id="node10" class="node">
<title>Node10</title>
<g id="a_node10"><a xlink:title=" ">
<polygon fill="white" stroke="black" points="0,-258 0,-288 104,-288 104,-258 0,-258"/>
<text text-anchor="start" x="8" y="-276" font-family="Helvetica,sans-Serif" font-size="10.00">std::basic_string&lt;</text>
<text text-anchor="middle" x="52" y="-265" font-family="Helvetica,sans-Serif" font-size="10.00"> Char &gt;</text>
</a>
</g>
</g>
<!-- Node10&#45;&gt;Node9 -->
<g id="edge9" class="edge">
<title>Node10&#45;&gt;Node9</title>
<path fill="none" stroke="midnightblue" d="M114.32,-273C128.57,-273 143.16,-273 155.49,-273"/>
<polygon fill="midnightblue" stroke="midnightblue" points="114.04,-269.5 104.04,-273 114.04,-276.5 114.04,-269.5"/>
</g>
<!-- Node11 -->
<g id="node11" class="node">
<title>Node11</title>
<g id="a_node11"><a xlink:title=" ">
<polygon fill="white" stroke="black" points="1414,-628 1414,-680 1548,-680 1548,-628 1414,-628"/>
<text text-anchor="start" x="1422" y="-668" font-family="Helvetica,sans-Serif" font-size="10.00">std::unordered_map</text>
<text text-anchor="start" x="1422" y="-657" font-family="Helvetica,sans-Serif" font-size="10.00">&lt; Version, std::pair</text>
<text text-anchor="start" x="1422" y="-646" font-family="Helvetica,sans-Serif" font-size="10.00">&lt; std::unique_ptr&lt; kv</text>
<text text-anchor="middle" x="1481" y="-635" font-family="Helvetica,sans-Serif" font-size="10.00">::PendingTx &gt;, bool &gt; &gt;</text>
</a>
</g>
</g>
<!-- Node11&#45;&gt;Node6 -->
<g id="edge10" class="edge">
<title>Node11&#45;&gt;Node6</title>
<path fill="none" stroke="#9a32cd" stroke-dasharray="5,2" d="M1558.18,-649.53C1631.5,-645.23 1739.62,-638.89 1798.35,-635.44"/>
<polygon fill="#9a32cd" stroke="#9a32cd" points="1557.86,-646.04 1548.08,-650.12 1558.27,-653.03 1557.86,-646.04"/>
<text text-anchor="middle" x="1661" y="-651" font-family="Helvetica,sans-Serif" font-size="10.00"> pending_txs</text>
</g>
<!-- Node12 -->
<g id="node12" class="node">
<title>Node12</title>
<g id="a_node12"><a xlink:href="classkv_1_1ExecutionWrapperStore.html" target="_top" xlink:title=" ">
<polygon fill="white" stroke="black" points="1767,-547.5 1767,-566.5 1915,-566.5 1915,-547.5 1767,-547.5"/>
<text text-anchor="middle" x="1841" y="-554.5" font-family="Helvetica,sans-Serif" font-size="10.00">kv::ExecutionWrapperStore</text>
</a>
</g>
</g>
<!-- Node12&#45;&gt;Node4 -->
<g id="edge11" class="edge">
<title>Node12&#45;&gt;Node4</title>
<path fill="none" stroke="midnightblue" d="M1925.24,-562.96C1977.71,-566.71 2042.24,-571.33 2078.74,-573.94"/>
<polygon fill="midnightblue" stroke="midnightblue" points="1925.48,-559.46 1915.25,-562.24 1924.98,-566.45 1925.48,-559.46"/>
</g>
<!-- Node13&#45;&gt;Node1 -->
<g id="edge12" class="edge">
<title>Node13&#45;&gt;Node1</title>
<path fill="none" stroke="#9a32cd" stroke-dasharray="5,2" d="M2129.47,-380.97C2173.47,-431.59 2277.23,-550.97 2307.24,-585.49"/>
<polygon fill="#9a32cd" stroke="#9a32cd" points="2131.9,-378.44 2122.7,-373.19 2126.62,-383.03 2131.9,-378.44"/>
<text text-anchor="middle" x="2224" y="-521" font-family="Helvetica,sans-Serif" font-size="10.00"> endpoints</text>
</g>
<!-- Node14 -->
<g id="node14" class="node">
<title>Node14</title>
<g id="a_node14"><a xlink:href="structccf_1_1endpoints_1_1Endpoint_1_1Installer.html" target="_top" xlink:title=" ">
<polygon fill="white" stroke="black" points="1045.5,-214 1045.5,-244 1178.5,-244 1178.5,-214 1045.5,-214"/>
<text text-anchor="start" x="1053.5" y="-232" font-family="Helvetica,sans-Serif" font-size="10.00">ccf::endpoints::Endpoint</text>
<text text-anchor="middle" x="1112" y="-221" font-family="Helvetica,sans-Serif" font-size="10.00">::Installer</text>
</a>
</g>
</g>
<!-- Node14&#45;&gt;Node13 -->
<g id="edge13" class="edge">
<title>Node14&#45;&gt;Node13</title>
<path fill="none" stroke="midnightblue" d="M1188.82,-228.11C1393.16,-226.2 1944.87,-224.35 2019,-259 2057.22,-276.86 2086.02,-319.78 2099.34,-342.8"/>
<polygon fill="midnightblue" stroke="midnightblue" points="1188.74,-224.61 1178.78,-228.21 1188.81,-231.61 1188.74,-224.61"/>
</g>
<!-- Node17 -->
<g id="node17" class="node">
<title>Node17</title>
<g id="a_node17"><a xlink:href="structccf_1_1endpoints_1_1Endpoint.html" target="_top" xlink:title=" ">
<polygon fill="white" stroke="black" points="1414.5,-170.5 1414.5,-189.5 1547.5,-189.5 1547.5,-170.5 1414.5,-170.5"/>
<text text-anchor="middle" x="1481" y="-177.5" font-family="Helvetica,sans-Serif" font-size="10.00">ccf::endpoints::Endpoint</text>
</a>
</g>
</g>
<!-- Node14&#45;&gt;Node17 -->
<g id="edge31" class="edge">
<title>Node14&#45;&gt;Node17</title>
<path fill="none" stroke="#9a32cd" stroke-dasharray="5,2" d="M1188.85,-214.67C1198.64,-213 1208.55,-211.4 1218,-210 1284.69,-200.16 1361.35,-191.71 1414.44,-186.31"/>
<polygon fill="#9a32cd" stroke="#9a32cd" points="1187.96,-211.27 1178.71,-216.43 1189.16,-218.17 1187.96,-211.27"/>
<text text-anchor="middle" x="1303.5" y="-213" font-family="Helvetica,sans-Serif" font-size="10.00"> installer</text>
</g>
<!-- Node15&#45;&gt;Node13 -->
<g id="edge15" class="edge">
<title>Node15&#45;&gt;Node13</title>
<path fill="none" stroke="#9a32cd" stroke-dasharray="5,2" d="M698.27,-82C761.24,-82 853.2,-82 933.5,-82 933.5,-82 933.5,-82 1842,-82 1932.14,-82 1956.76,-115.81 2019,-181 2066.21,-230.45 2093.5,-309.98 2103.31,-342.94"/>
<polygon fill="#9a32cd" stroke="#9a32cd" points="698.03,-78.5 688.03,-82 698.03,-85.5 698.03,-78.5"/>
<text text-anchor="middle" x="1303.5" y="-85" font-family="Helvetica,sans-Serif" font-size="10.00"> openapi_info</text>
</g>
<!-- Node16 -->
<g id="node16" class="node">
<title>Node16</title>
<g id="a_node16"><a xlink:title=" ">
<polygon fill="white" stroke="black" points="1777.5,-174 1777.5,-204 1904.5,-204 1904.5,-174 1777.5,-174"/>
<text text-anchor="start" x="1785.5" y="-192" font-family="Helvetica,sans-Serif" font-size="10.00">std::shared_ptr&lt; const</text>
<text text-anchor="middle" x="1841" y="-181" font-family="Helvetica,sans-Serif" font-size="10.00"> Endpoint &gt;</text>
</a>
</g>
</g>
<!-- Node16&#45;&gt;Node13 -->
<g id="edge17" class="edge">
<title>Node16&#45;&gt;Node13</title>
<path fill="none" stroke="#9a32cd" stroke-dasharray="5,2" d="M1915.09,-183.44C1949.1,-184.24 1988.64,-190.33 2019,-210 2068.24,-241.91 2093.96,-311.71 2103.31,-342.68"/>
<polygon fill="#9a32cd" stroke="#9a32cd" points="1914.76,-179.94 1904.73,-183.35 1914.7,-186.94 1914.76,-179.94"/>
<text text-anchor="middle" x="1976" y="-213" font-family="Helvetica,sans-Serif" font-size="10.00"> default_endpoint</text>
</g>
<!-- Node17&#45;&gt;Node16 -->
<g id="edge18" class="edge">
<title>Node17&#45;&gt;Node16</title>
<path fill="none" stroke="#9a32cd" stroke-dasharray="5,2" d="M1557.9,-181.91C1623.22,-183.55 1716.34,-185.89 1777.45,-187.43"/>
<polygon fill="#9a32cd" stroke="#9a32cd" points="1557.75,-178.4 1547.66,-181.65 1557.57,-185.4 1557.75,-178.4"/>
<text text-anchor="middle" x="1661" y="-190" font-family="Helvetica,sans-Serif" font-size="10.00"> ptr</text>
</g>
<!-- Node18&#45;&gt;Node17 -->
<g id="edge19" class="edge">
<title>Node18&#45;&gt;Node17</title>
<path fill="none" stroke="midnightblue" d="M1188.62,-176.82C1255.13,-177.55 1350.98,-178.59 1414.34,-179.28"/>
<polygon fill="midnightblue" stroke="midnightblue" points="1188.65,-173.32 1178.61,-176.72 1188.57,-180.32 1188.65,-173.32"/>
</g>
<!-- Node19&#45;&gt;Node18 -->
<g id="edge20" class="edge">
<title>Node19&#45;&gt;Node18</title>
<path fill="none" stroke="#9a32cd" stroke-dasharray="5,2" d="M532.85,-122.21C613.33,-124.79 737.59,-130.04 845,-140 913.56,-146.35 991.59,-157.37 1045.31,-165.54"/>
<polygon fill="#9a32cd" stroke="#9a32cd" points="532.87,-118.71 522.77,-121.89 532.65,-125.7 532.87,-118.71"/>
<text text-anchor="middle" x="778" y="-143" font-family="Helvetica,sans-Serif" font-size="10.00"> dispatch</text>
</g>
<!-- Node20 -->
<g id="node20" class="node">
<title>Node20</title>
<g id="a_node20"><a xlink:href="classccf_1_1RESTVerb.html" target="_top" xlink:title=" ">
<polygon fill="white" stroke="black" points="146.5,-38.5 146.5,-57.5 229.5,-57.5 229.5,-38.5 146.5,-38.5"/>
<text text-anchor="middle" x="188" y="-45.5" font-family="Helvetica,sans-Serif" font-size="10.00">ccf::RESTVerb</text>
</a>
</g>
</g>
<!-- Node20&#45;&gt;Node19 -->
<g id="edge22" class="edge">
<title>Node20&#45;&gt;Node19</title>
<path fill="none" stroke="#9a32cd" stroke-dasharray="5,2" d="M239.62,-40.87C270.49,-38.33 310.35,-38.32 344,-49 382.87,-61.33 419.94,-94.16 436.68,-110.49"/>
<polygon fill="#9a32cd" stroke="#9a32cd" points="239.15,-37.4 229.52,-41.81 239.8,-44.36 239.15,-37.4"/>
<text text-anchor="middle" x="298.5" y="-52" font-family="Helvetica,sans-Serif" font-size="10.00"> verb</text>
</g>
<!-- Node21&#45;&gt;Node18 -->
<g id="edge24" class="edge">
<title>Node21&#45;&gt;Node18</title>
<path fill="none" stroke="#9a32cd" stroke-dasharray="5,2" d="M854.71,-176C912.18,-176 990.4,-176 1045.26,-176"/>
<polygon fill="#9a32cd" stroke="#9a32cd" points="854.59,-172.5 844.59,-176 854.59,-179.5 854.59,-172.5"/>
<text text-anchor="middle" x="934.5" y="-179" font-family="Helvetica,sans-Serif" font-size="10.00"> properties</text>
</g>
<!-- Node22&#45;&gt;Node21 -->
<g id="edge25" class="edge">
<title>Node22&#45;&gt;Node21</title>
<path fill="none" stroke="#9a32cd" stroke-dasharray="5,2" d="M527.66,-162.36C583.95,-165.44 658.49,-169.52 711.37,-172.41"/>
<polygon fill="#9a32cd" stroke="#9a32cd" points="527.55,-158.85 517.37,-161.8 527.16,-165.84 527.55,-158.85"/>
<text text-anchor="middle" x="621.5" y="-175" font-family="Helvetica,sans-Serif" font-size="10.00"> authn_policies</text>
</g>
<!-- Node23 -->
<g id="node23" class="node">
<title>Node23</title>
<g id="a_node23"><a xlink:title=" ">
<polygon fill="white" stroke="black" points="711,-16 711,-46 845,-46 845,-16 711,-16"/>
<text text-anchor="start" x="719" y="-34" font-family="Helvetica,sans-Serif" font-size="10.00">std::vector&lt; std::shared</text>
<text text-anchor="middle" x="778" y="-23" font-family="Helvetica,sans-Serif" font-size="10.00">_ptr&lt; AuthnPolicy &gt; &gt;</text>
</a>
</g>
</g>
<!-- Node23&#45;&gt;Node18 -->
<g id="edge28" class="edge">
<title>Node23&#45;&gt;Node18</title>
<path fill="none" stroke="#9a32cd" stroke-dasharray="5,2" d="M854.97,-39.05C903.6,-47.87 965.04,-66.34 1006,-105 1021.97,-120.07 1007.77,-136.22 1024,-151 1030.16,-156.61 1037.49,-160.97 1045.26,-164.35"/>
<polygon fill="#9a32cd" stroke="#9a32cd" points="855.56,-35.6 845.11,-37.36 854.38,-42.5 855.56,-35.6"/>
<text text-anchor="middle" x="934.5" y="-108" font-family="Helvetica,sans-Serif" font-size="10.00"> authn_policies</text>
</g>
<!-- Node24 -->
<g id="node24" class="node">
<title>Node24</title>
<g id="a_node24"><a xlink:title=" ">
<polygon fill="white" stroke="black" points="362,-4.5 362,-23.5 532,-23.5 532,-4.5 362,-4.5"/>
<text text-anchor="middle" x="447" y="-11.5" font-family="Helvetica,sans-Serif" font-size="10.00">std::shared_ptr&lt; AuthnPolicy &gt;</text>
</a>
</g>
</g>
<!-- Node24&#45;&gt;Node23 -->
<g id="edge29" class="edge">
<title>Node24&#45;&gt;Node23</title>
<path fill="none" stroke="#9a32cd" stroke-dasharray="5,2" d="M542.55,-18.89C596.4,-21.67 662.53,-25.09 710.82,-27.58"/>
<polygon fill="#9a32cd" stroke="#9a32cd" points="542.47,-15.38 532.3,-18.36 542.1,-22.37 542.47,-15.38"/>
<text text-anchor="middle" x="621.5" y="-30" font-family="Helvetica,sans-Serif" font-size="10.00"> elements</text>
</g>
<!-- Node25 -->
<g id="node25" class="node">
<title>Node25</title>
<g id="a_node25"><a xlink:href="classccf_1_1AuthnPolicy.html" target="_top" xlink:title=" ">
<polygon fill="white" stroke="black" points="141,-0.5 141,-19.5 235,-19.5 235,-0.5 141,-0.5"/>
<text text-anchor="middle" x="188" y="-7.5" font-family="Helvetica,sans-Serif" font-size="10.00">ccf::AuthnPolicy</text>
</a>
</g>
</g>
<!-- Node25&#45;&gt;Node24 -->
<g id="edge30" class="edge">
<title>Node25&#45;&gt;Node24</title>
<path fill="none" stroke="#9a32cd" stroke-dasharray="5,2" d="M245.5,-10.88C279.63,-11.41 323.77,-12.1 361.94,-12.69"/>
<polygon fill="#9a32cd" stroke="#9a32cd" points="245.3,-7.38 235.24,-10.72 245.19,-14.38 245.3,-7.38"/>
<text text-anchor="middle" x="298.5" y="-16" font-family="Helvetica,sans-Serif" font-size="10.00"> ptr</text>
</g>
<!-- Node26 -->
<g id="node26" class="node">
<title>Node26</title>
<g id="a_node26"><a xlink:title=" ">
<polygon fill="white" stroke="black" points="1024,-122.5 1024,-141.5 1200,-141.5 1200,-122.5 1024,-122.5"/>
<text text-anchor="middle" x="1112" y="-129.5" font-family="Helvetica,sans-Serif" font-size="10.00">std::vector&lt; SchemaBuilderFn &gt;</text>
</a>
</g>
</g>
<!-- Node26&#45;&gt;Node17 -->
<g id="edge32" class="edge">
<title>Node26&#45;&gt;Node17</title>
<path fill="none" stroke="#9a32cd" stroke-dasharray="5,2" d="M1210.29,-141.18C1263.25,-146.62 1329.86,-154.17 1389,-163 1403.15,-165.11 1418.46,-167.81 1432.41,-170.43"/>
<polygon fill="#9a32cd" stroke="#9a32cd" points="1210.53,-137.69 1200.23,-140.16 1209.82,-144.65 1210.53,-137.69"/>
<text text-anchor="middle" x="1303.5" y="-166" font-family="Helvetica,sans-Serif" font-size="10.00"> schema_builders</text>
</g>
<!-- Node27&#45;&gt;Node13 -->
<g id="edge33" class="edge">
<title>Node27&#45;&gt;Node13</title>
<path fill="none" stroke="#9a32cd" stroke-dasharray="5,2" d="M1016.4,-464.16C1090.75,-467.63 1204.02,-472 1302.5,-472 1302.5,-472 1302.5,-472 1842,-472 1921.72,-472 1947.71,-478.66 2019,-443 2052.34,-426.32 2081.46,-392.73 2096.54,-373.13"/>
<polygon fill="#9a32cd" stroke="#9a32cd" points="1016.33,-460.66 1006.18,-463.68 1016,-467.65 1016.33,-460.66"/>
<text text-anchor="middle" x="1481" y="-475" font-family="Helvetica,sans-Serif" font-size="10.00"> fully_qualified_endpoints</text>
</g>
<!-- Node28&#45;&gt;Node13 -->
<g id="edge35" class="edge">
<title>Node28&#45;&gt;Node13</title>
<path fill="none" stroke="#9a32cd" stroke-dasharray="5,2" d="M1399.71,-382.11C1519.83,-382.05 1732.75,-381.25 1915,-377 1961.24,-375.92 1972.99,-377.76 2019,-373 2026.44,-372.23 2034.2,-371.22 2041.9,-370.09"/>
<polygon fill="#9a32cd" stroke="#9a32cd" points="1399.45,-378.61 1389.45,-382.12 1399.45,-385.61 1399.45,-378.61"/>
<text text-anchor="middle" x="1661" y="-384" font-family="Helvetica,sans-Serif" font-size="10.00"> templated_endpoints</text>
</g>
<!-- Node29&#45;&gt;Node13 -->
<g id="edge38" class="edge">
<title>Node29&#45;&gt;Node13</title>
<path fill="none" stroke="#9a32cd" stroke-dasharray="5,2" d="M1759.25,-328.04C1761.86,-328.03 1764.45,-328.01 1767,-328 1832.78,-327.69 1849.42,-322.92 1915,-328 1957.49,-331.29 2004.79,-338.61 2041.87,-345.19"/>
<polygon fill="#9a32cd" stroke="#9a32cd" points="1759.07,-324.54 1749.09,-328.11 1759.11,-331.54 1759.07,-324.54"/>
<text text-anchor="middle" x="1841" y="-331" font-family="Helvetica,sans-Serif" font-size="10.00"> metrics</text>
</g>
<!-- Node30 -->
<g id="node30" class="node">
<title>Node30</title>
<g id="a_node30"><a xlink:href="classkv_1_1Consensus.html" target="_top" xlink:title=" ">
<polygon fill="white" stroke="black" points="1798,-424.5 1798,-443.5 1884,-443.5 1884,-424.5 1798,-424.5"/>
<text text-anchor="middle" x="1841" y="-431.5" font-family="Helvetica,sans-Serif" font-size="10.00">kv::Consensus</text>
</a>
</g>
</g>
<!-- Node30&#45;&gt;Node13 -->
<g id="edge40" class="edge">
<title>Node30&#45;&gt;Node13</title>
<path fill="none" stroke="#9a32cd" stroke-dasharray="5,2" d="M1894.46,-432.31C1930.36,-429.86 1978.59,-423.98 2019,-410 2044.09,-401.32 2069.96,-385.13 2087.19,-373.11"/>
<polygon fill="#9a32cd" stroke="#9a32cd" points="1893.97,-428.84 1884.21,-432.94 1894.4,-435.82 1893.97,-428.84"/>
<text text-anchor="middle" x="1976" y="-431" font-family="Helvetica,sans-Serif" font-size="10.00"> consensus</text>
</g>
<!-- Node31 -->
<g id="node31" class="node">
<title>Node31</title>
<g id="a_node31"><a xlink:href="classkv_1_1ConfigurableConsensus.html" target="_top" xlink:title=" ">
<polygon fill="white" stroke="black" points="1407,-416.5 1407,-435.5 1555,-435.5 1555,-416.5 1407,-416.5"/>
<text text-anchor="middle" x="1481" y="-423.5" font-family="Helvetica,sans-Serif" font-size="10.00">kv::ConfigurableConsensus</text>
</a>
</g>
</g>
<!-- Node31&#45;&gt;Node30 -->
<g id="edge41" class="edge">
<title>Node31&#45;&gt;Node30</title>
<path fill="none" stroke="midnightblue" d="M1565.38,-427.86C1638.21,-429.49 1740.92,-431.79 1797.85,-433.06"/>
<polygon fill="midnightblue" stroke="midnightblue" points="1565.39,-424.36 1555.31,-427.64 1565.23,-431.36 1565.39,-424.36"/>
</g>
<!-- Node32 -->
<g id="node32" class="node">
<title>Node32</title>
<g id="a_node32"><a xlink:href="classkv_1_1TxHistory.html" target="_top" xlink:title=" ">
<polygon fill="white" stroke="black" points="1800.5,-348.5 1800.5,-367.5 1881.5,-367.5 1881.5,-348.5 1800.5,-348.5"/>
<text text-anchor="middle" x="1841" y="-355.5" font-family="Helvetica,sans-Serif" font-size="10.00">kv::TxHistory</text>
</a>
</g>
</g>
<!-- Node32&#45;&gt;Node13 -->
<g id="edge42" class="edge">
<title>Node32&#45;&gt;Node13</title>
<path fill="none" stroke="#9a32cd" stroke-dasharray="5,2" d="M1891.84,-358C1934.27,-358 1995.53,-358 2041.93,-358"/>
<polygon fill="#9a32cd" stroke="#9a32cd" points="1891.75,-354.5 1881.75,-358 1891.75,-361.5 1891.75,-354.5"/>
<text text-anchor="middle" x="1976" y="-361" font-family="Helvetica,sans-Serif" font-size="10.00"> history</text>
</g>
</g>
</svg>
