<?xml version="1.0" encoding="UTF-8" standalone="no"?>
<!DOCTYPE svg PUBLIC "-//W3C//DTD SVG 1.1//EN"
 "http://www.w3.org/Graphics/SVG/1.1/DTD/svg11.dtd">
<!-- Generated by graphviz version 2.43.0 (0)
 -->
<!-- Title: ccf::historical::StateCacheImpl Pages: 1 -->
<svg width="2187pt" height="411pt"
 viewBox="0.00 0.00 2187.00 410.50" xmlns="http://www.w3.org/2000/svg" xmlns:xlink="http://www.w3.org/1999/xlink">
<g id="graph0" class="graph" transform="scale(1 1) rotate(0) translate(4 406.5)">
<title>ccf::historical::StateCacheImpl</title>
<polygon fill="white" stroke="transparent" points="-4,4 -4,-406.5 2183,-406.5 2183,4 -4,4"/>
<!-- Node1 -->
<g id="node1" class="node">
<title>Node1</title>
<g id="a_node1"><a xlink:title=" ">
<polygon fill="#bfbfbf" stroke="black" points="2015,-192 2015,-211 2179,-211 2179,-192 2015,-192"/>
<text text-anchor="middle" x="2097" y="-199" font-family="Helvetica,sans-Serif" font-size="10.00">ccf::historical::StateCacheImpl</text>
</a>
</g>
</g>
<!-- Node2 -->
<g id="node2" class="node">
<title>Node2</title>
<g id="a_node2"><a xlink:href="classkv_1_1Store.html" target="_top" xlink:title=" ">
<polygon fill="white" stroke="black" points="1741,-285 1741,-304 1800,-304 1800,-285 1741,-285"/>
<text text-anchor="middle" x="1770.5" y="-292" font-family="Helvetica,sans-Serif" font-size="10.00">kv::Store</text>
</a>
</g>
</g>
<!-- Node2&#45;&gt;Node1 -->
<g id="edge1" class="edge">
<title>Node2&#45;&gt;Node1</title>
<path fill="none" stroke="#9a32cd" stroke-dasharray="5,2" d="M1810.23,-293.19C1856.05,-290.62 1934.06,-283.02 1997,-260.5 2030.72,-248.44 2065.69,-224.4 2083.67,-211.03"/>
<polygon fill="#9a32cd" stroke="#9a32cd" points="1809.94,-289.7 1800.13,-293.7 1810.29,-296.69 1809.94,-289.7"/>
<text text-anchor="middle" x="1934.5" y="-289.5" font-family="Helvetica,sans-Serif" font-size="10.00"> source_store</text>
</g>
<!-- Node3 -->
<g id="node3" class="node">
<title>Node3</title>
<g id="a_node3"><a xlink:href="classkv_1_1AbstractStore.html" target="_top" xlink:title=" ">
<polygon fill="white" stroke="black" points="1456,-323 1456,-342 1556,-342 1556,-323 1456,-323"/>
<text text-anchor="middle" x="1506" y="-330" font-family="Helvetica,sans-Serif" font-size="10.00">kv::AbstractStore</text>
</a>
</g>
</g>
<!-- Node3&#45;&gt;Node2 -->
<g id="edge2" class="edge">
<title>Node3&#45;&gt;Node2</title>
<path fill="none" stroke="midnightblue" d="M1566.29,-323.92C1620.79,-316.03 1699.26,-304.67 1740.94,-298.63"/>
<polygon fill="midnightblue" stroke="midnightblue" points="1565.46,-320.5 1556.07,-325.4 1566.46,-327.43 1565.46,-320.5"/>
</g>
<!-- Node4 -->
<g id="node4" class="node">
<title>Node4</title>
<g id="a_node4"><a xlink:href="classkv_1_1StoreState.html" target="_top" xlink:title=" ">
<polygon fill="white" stroke="black" points="1463.5,-247 1463.5,-266 1548.5,-266 1548.5,-247 1463.5,-247"/>
<text text-anchor="middle" x="1506" y="-254" font-family="Helvetica,sans-Serif" font-size="10.00">kv::StoreState</text>
</a>
</g>
</g>
<!-- Node4&#45;&gt;Node2 -->
<g id="edge3" class="edge">
<title>Node4&#45;&gt;Node2</title>
<path fill="none" stroke="midnightblue" d="M1558.74,-263.99C1613.19,-271.87 1696.94,-284 1740.67,-290.33"/>
<polygon fill="midnightblue" stroke="midnightblue" points="1558.99,-260.49 1548.59,-262.52 1557.99,-267.42 1558.99,-260.49"/>
</g>
<!-- Node5 -->
<g id="node5" class="node">
<title>Node5</title>
<g id="a_node5"><a xlink:title=" ">
<polygon fill="white" stroke="black" points="1138.5,-358 1138.5,-377 1207.5,-377 1207.5,-358 1138.5,-358"/>
<text text-anchor="middle" x="1173" y="-365" font-family="Helvetica,sans-Serif" font-size="10.00">std::mutex</text>
</a>
</g>
</g>
<!-- Node5&#45;&gt;Node1 -->
<g id="edge16" class="edge">
<title>Node5&#45;&gt;Node1</title>
<path fill="none" stroke="#9a32cd" stroke-dasharray="5,2" d="M1217.8,-374.66C1345.68,-393.4 1726.47,-433.81 1997,-301.5 2040.45,-280.25 2075.91,-232.05 2089.75,-211.3"/>
<polygon fill="#9a32cd" stroke="#9a32cd" points="1218.04,-371.15 1207.63,-373.13 1217,-378.08 1218.04,-371.15"/>
<text text-anchor="middle" x="1633.5" y="-394.5" font-family="Helvetica,sans-Serif" font-size="10.00"> requests_lock</text>
</g>
<!-- Node5&#45;&gt;Node4 -->
<g id="edge4" class="edge">
<title>Node5&#45;&gt;Node4</title>
<path fill="none" stroke="#9a32cd" stroke-dasharray="5,2" d="M1217.29,-358.33C1229.72,-354.57 1242.89,-349.43 1254,-342.5 1263.87,-336.34 1261.79,-329.08 1272,-323.5 1328.37,-292.69 1358.41,-328.7 1414,-296.5 1424.64,-290.34 1421.57,-282.01 1432,-275.5 1441.44,-269.6 1452.66,-265.53 1463.44,-262.71"/>
<polygon fill="#9a32cd" stroke="#9a32cd" points="1216.23,-355 1207.54,-361.06 1218.12,-361.74 1216.23,-355"/>
<text text-anchor="middle" x="1343" y="-348.5" font-family="Helvetica,sans-Serif" font-size="10.00"> commit_lock</text>
<text text-anchor="middle" x="1343" y="-337.5" font-family="Helvetica,sans-Serif" font-size="10.00">maps_lock</text>
<text text-anchor="middle" x="1343" y="-326.5" font-family="Helvetica,sans-Serif" font-size="10.00">version_lock</text>
</g>
<!-- Node6 -->
<g id="node6" class="node">
<title>Node6</title>
<g id="a_node6"><a xlink:title=" ">
<polygon fill="white" stroke="black" points="1101.5,-280.5 1101.5,-332.5 1244.5,-332.5 1244.5,-280.5 1101.5,-280.5"/>
<text text-anchor="start" x="1109.5" y="-320.5" font-family="Helvetica,sans-Serif" font-size="10.00">std::map&lt; std::string,</text>
<text text-anchor="start" x="1109.5" y="-309.5" font-family="Helvetica,sans-Serif" font-size="10.00"> std::pair&lt; kv::Version,</text>
<text text-anchor="start" x="1109.5" y="-298.5" font-family="Helvetica,sans-Serif" font-size="10.00"> std::shared_ptr&lt; untyped</text>
<text text-anchor="middle" x="1173" y="-287.5" font-family="Helvetica,sans-Serif" font-size="10.00">::Map &gt; &gt; &gt;</text>
</a>
</g>
</g>
<!-- Node6&#45;&gt;Node4 -->
<g id="edge5" class="edge">
<title>Node6&#45;&gt;Node4</title>
<path fill="none" stroke="#9a32cd" stroke-dasharray="5,2" d="M1254.48,-288.67C1260.4,-287.54 1266.28,-286.47 1272,-285.5 1338.52,-274.26 1416.41,-265.43 1463.17,-260.59"/>
<polygon fill="#9a32cd" stroke="#9a32cd" points="1253.66,-285.26 1244.52,-290.62 1255,-292.13 1253.66,-285.26"/>
<text text-anchor="middle" x="1343" y="-288.5" font-family="Helvetica,sans-Serif" font-size="10.00"> maps</text>
</g>
<!-- Node7 -->
<g id="node7" class="node">
<title>Node7</title>
<g id="a_node7"><a xlink:title=" ">
<polygon fill="white" stroke="black" points="888,-297 888,-316 953,-316 953,-297 888,-297"/>
<text text-anchor="middle" x="920.5" y="-304" font-family="Helvetica,sans-Serif" font-size="10.00">std::string</text>
</a>
</g>
</g>
<!-- Node7&#45;&gt;Node6 -->
<g id="edge6" class="edge">
<title>Node7&#45;&gt;Node6</title>
<path fill="none" stroke="#9a32cd" stroke-dasharray="5,2" d="M963.32,-306.5C1000.92,-306.5 1056.91,-306.5 1101.44,-306.5"/>
<polygon fill="#9a32cd" stroke="#9a32cd" points="963.23,-303 953.23,-306.5 963.23,-310 963.23,-303"/>
<text text-anchor="middle" x="1049.5" y="-309.5" font-family="Helvetica,sans-Serif" font-size="10.00"> keys</text>
</g>
<!-- Node8 -->
<g id="node8" class="node">
<title>Node8</title>
<g id="a_node8"><a xlink:title=" ">
<polygon fill="white" stroke="black" points="565,-291.5 565,-321.5 669,-321.5 669,-291.5 565,-291.5"/>
<text text-anchor="start" x="573" y="-309.5" font-family="Helvetica,sans-Serif" font-size="10.00">std::basic_string&lt;</text>
<text text-anchor="middle" x="617" y="-298.5" font-family="Helvetica,sans-Serif" font-size="10.00"> Char &gt;</text>
</a>
</g>
</g>
<!-- Node8&#45;&gt;Node7 -->
<g id="edge7" class="edge">
<title>Node8&#45;&gt;Node7</title>
<path fill="none" stroke="midnightblue" d="M679.36,-306.5C742.45,-306.5 838.23,-306.5 887.6,-306.5"/>
<polygon fill="midnightblue" stroke="midnightblue" points="679.15,-303 669.15,-306.5 679.15,-310 679.15,-303"/>
</g>
<!-- Node9 -->
<g id="node9" class="node">
<title>Node9</title>
<g id="a_node9"><a xlink:title=" ">
<polygon fill="white" stroke="black" points="1106,-209.5 1106,-261.5 1240,-261.5 1240,-209.5 1106,-209.5"/>
<text text-anchor="start" x="1114" y="-249.5" font-family="Helvetica,sans-Serif" font-size="10.00">std::unordered_map</text>
<text text-anchor="start" x="1114" y="-238.5" font-family="Helvetica,sans-Serif" font-size="10.00">&lt; Version, std::pair</text>
<text text-anchor="start" x="1114" y="-227.5" font-family="Helvetica,sans-Serif" font-size="10.00">&lt; std::unique_ptr&lt; kv</text>
<text text-anchor="middle" x="1173" y="-216.5" font-family="Helvetica,sans-Serif" font-size="10.00">::PendingTx &gt;, bool &gt; &gt;</text>
</a>
</g>
</g>
<!-- Node9&#45;&gt;Node4 -->
<g id="edge8" class="edge">
<title>Node9&#45;&gt;Node4</title>
<path fill="none" stroke="#9a32cd" stroke-dasharray="5,2" d="M1250.23,-235.93C1297.47,-236.72 1359.35,-238.7 1414,-243.5 1430.22,-244.92 1447.96,-247.28 1463.43,-249.59"/>
<polygon fill="#9a32cd" stroke="#9a32cd" points="1250.13,-232.43 1240.08,-235.78 1250.02,-239.43 1250.13,-232.43"/>
<text text-anchor="middle" x="1343" y="-246.5" font-family="Helvetica,sans-Serif" font-size="10.00"> pending_txs</text>
</g>
<!-- Node10 -->
<g id="node10" class="node">
<title>Node10</title>
<g id="a_node10"><a xlink:href="classkv_1_1ExecutionWrapperStore.html" target="_top" xlink:title=" ">
<polygon fill="white" stroke="black" points="1432,-285 1432,-304 1580,-304 1580,-285 1432,-285"/>
<text text-anchor="middle" x="1506" y="-292" font-family="Helvetica,sans-Serif" font-size="10.00">kv::ExecutionWrapperStore</text>
</a>
</g>
</g>
<!-- Node10&#45;&gt;Node2 -->
<g id="edge9" class="edge">
<title>Node10&#45;&gt;Node2</title>
<path fill="none" stroke="midnightblue" d="M1590.28,-294.5C1641.9,-294.5 1705,-294.5 1740.89,-294.5"/>
<polygon fill="midnightblue" stroke="midnightblue" points="1590.12,-291 1580.12,-294.5 1590.12,-298 1590.12,-291"/>
</g>
<!-- Node11 -->
<g id="node11" class="node">
<title>Node11</title>
<g id="a_node11"><a xlink:title=" ">
<polygon fill="white" stroke="black" points="1713,-235.5 1713,-265.5 1828,-265.5 1828,-235.5 1713,-235.5"/>
<text text-anchor="start" x="1721" y="-253.5" font-family="Helvetica,sans-Serif" font-size="10.00">std::shared_ptr&lt; ccf</text>
<text text-anchor="middle" x="1770.5" y="-242.5" font-family="Helvetica,sans-Serif" font-size="10.00">::LedgerSecrets &gt;</text>
</a>
</g>
</g>
<!-- Node11&#45;&gt;Node1 -->
<g id="edge10" class="edge">
<title>Node11&#45;&gt;Node1</title>
<path fill="none" stroke="#9a32cd" stroke-dasharray="5,2" d="M1837.94,-240.49C1882.86,-233.73 1943.5,-224.59 1997,-216.5 2008.69,-214.73 2021.15,-212.85 2033.15,-211.03"/>
<polygon fill="#9a32cd" stroke="#9a32cd" points="1837.4,-237.04 1828.03,-241.99 1838.44,-243.96 1837.4,-237.04"/>
<text text-anchor="middle" x="1934.5" y="-248.5" font-family="Helvetica,sans-Serif" font-size="10.00"> historical_ledger_secrets</text>
<text text-anchor="middle" x="1934.5" y="-237.5" font-family="Helvetica,sans-Serif" font-size="10.00">source_ledger_secrets</text>
</g>
<!-- Node12 -->
<g id="node12" class="node">
<title>Node12</title>
<g id="a_node12"><a xlink:href="classccf_1_1LedgerSecrets.html" target="_top" xlink:title=" ">
<polygon fill="white" stroke="black" points="1453.5,-209 1453.5,-228 1558.5,-228 1558.5,-209 1453.5,-209"/>
<text text-anchor="middle" x="1506" y="-216" font-family="Helvetica,sans-Serif" font-size="10.00">ccf::LedgerSecrets</text>
</a>
</g>
</g>
<!-- Node12&#45;&gt;Node11 -->
<g id="edge11" class="edge">
<title>Node12&#45;&gt;Node11</title>
<path fill="none" stroke="#9a32cd" stroke-dasharray="5,2" d="M1568.8,-225.57C1599.02,-229.08 1635.92,-233.42 1669,-237.5 1683.23,-239.25 1698.59,-241.21 1712.91,-243.06"/>
<polygon fill="#9a32cd" stroke="#9a32cd" points="1569.16,-222.09 1558.82,-224.42 1568.35,-229.04 1569.16,-222.09"/>
<text text-anchor="middle" x="1633.5" y="-240.5" font-family="Helvetica,sans-Serif" font-size="10.00"> ptr</text>
</g>
<!-- Node13 -->
<g id="node13" class="node">
<title>Node13</title>
<g id="a_node13"><a xlink:title=" ">
<polygon fill="white" stroke="black" points="1700,-186.5 1700,-216.5 1841,-216.5 1841,-186.5 1700,-186.5"/>
<text text-anchor="start" x="1708" y="-204.5" font-family="Helvetica,sans-Serif" font-size="10.00">std::shared_ptr&lt; Abstract</text>
<text text-anchor="middle" x="1770.5" y="-193.5" font-family="Helvetica,sans-Serif" font-size="10.00">Writer &gt;</text>
</a>
</g>
</g>
<!-- Node13&#45;&gt;Node1 -->
<g id="edge12" class="edge">
<title>Node13&#45;&gt;Node1</title>
<path fill="none" stroke="#9a32cd" stroke-dasharray="5,2" d="M1851.18,-201.5C1900.91,-201.5 1964.74,-201.5 2014.76,-201.5"/>
<polygon fill="#9a32cd" stroke="#9a32cd" points="1851.11,-198 1841.11,-201.5 1851.11,-205 1851.11,-198"/>
<text text-anchor="middle" x="1934.5" y="-204.5" font-family="Helvetica,sans-Serif" font-size="10.00"> to_host</text>
</g>
<!-- Node14 -->
<g id="node14" class="node">
<title>Node14</title>
<g id="a_node14"><a xlink:title=" ">
<polygon fill="white" stroke="black" points="1714,-137.5 1714,-167.5 1827,-167.5 1827,-137.5 1714,-137.5"/>
<text text-anchor="start" x="1722" y="-155.5" font-family="Helvetica,sans-Serif" font-size="10.00">std::shared_ptr&lt; kv</text>
<text text-anchor="middle" x="1770.5" y="-144.5" font-family="Helvetica,sans-Serif" font-size="10.00">::TxEncryptor &gt;</text>
</a>
</g>
</g>
<!-- Node14&#45;&gt;Node1 -->
<g id="edge13" class="edge">
<title>Node14&#45;&gt;Node1</title>
<path fill="none" stroke="#9a32cd" stroke-dasharray="5,2" d="M1837.03,-162.37C1882.03,-169.15 1943.14,-178.36 1997,-186.5 2008.69,-188.27 2021.15,-190.15 2033.15,-191.97"/>
<polygon fill="#9a32cd" stroke="#9a32cd" points="1837.51,-158.9 1827.1,-160.87 1836.47,-165.82 1837.51,-158.9"/>
<text text-anchor="middle" x="1934.5" y="-189.5" font-family="Helvetica,sans-Serif" font-size="10.00"> historical_encryptor</text>
</g>
<!-- Node15 -->
<g id="node15" class="node">
<title>Node15</title>
<g id="a_node15"><a xlink:href="classkv_1_1TxEncryptor.html" target="_top" xlink:title=" ">
<polygon fill="white" stroke="black" points="1439.5,-158 1439.5,-177 1572.5,-177 1572.5,-158 1439.5,-158"/>
<text text-anchor="middle" x="1506" y="-165" font-family="Helvetica,sans-Serif" font-size="10.00">kv::TxEncryptor&lt; T, S &gt;</text>
</a>
</g>
</g>
<!-- Node15&#45;&gt;Node14 -->
<g id="edge14" class="edge">
<title>Node15&#45;&gt;Node14</title>
<path fill="none" stroke="#9a32cd" stroke-dasharray="5,2" d="M1582.7,-163.17C1624.49,-160.79 1675.5,-157.87 1713.65,-155.69"/>
<polygon fill="#9a32cd" stroke="#9a32cd" points="1582.35,-159.69 1572.56,-163.75 1582.75,-166.68 1582.35,-159.69"/>
<text text-anchor="middle" x="1633.5" y="-164.5" font-family="Helvetica,sans-Serif" font-size="10.00"> ptr</text>
</g>
<!-- Node16 -->
<g id="node16" class="node">
<title>Node16</title>
<g id="a_node16"><a xlink:href="classkv_1_1AbstractTxEncryptor.html" target="_top" xlink:title=" ">
<polygon fill="white" stroke="black" points="1106.5,-160 1106.5,-179 1239.5,-179 1239.5,-160 1106.5,-160"/>
<text text-anchor="middle" x="1173" y="-167" font-family="Helvetica,sans-Serif" font-size="10.00">kv::AbstractTxEncryptor</text>
</a>
</g>
</g>
<!-- Node16&#45;&gt;Node15 -->
<g id="edge15" class="edge">
<title>Node16&#45;&gt;Node15</title>
<path fill="none" stroke="midnightblue" d="M1249.87,-169.04C1307.08,-168.7 1384.77,-168.23 1439.33,-167.9"/>
<polygon fill="midnightblue" stroke="midnightblue" points="1249.77,-165.54 1239.79,-169.1 1249.81,-172.54 1249.77,-165.54"/>
</g>
<!-- Node17 -->
<g id="node17" class="node">
<title>Node17</title>
<g id="a_node17"><a xlink:title=" ">
<polygon fill="white" stroke="black" points="1687,-77 1687,-118 1854,-118 1854,-77 1687,-77"/>
<text text-anchor="start" x="1695" y="-106" font-family="Helvetica,sans-Serif" font-size="10.00">std::map&lt; CompoundHandle,</text>
<text text-anchor="start" x="1695" y="-95" font-family="Helvetica,sans-Serif" font-size="10.00"> ccf::historical::StateCacheImpl</text>
<text text-anchor="middle" x="1770.5" y="-84" font-family="Helvetica,sans-Serif" font-size="10.00">::Request &gt;</text>
</a>
</g>
</g>
<!-- Node17&#45;&gt;Node1 -->
<g id="edge17" class="edge">
<title>Node17&#45;&gt;Node1</title>
<path fill="none" stroke="#9a32cd" stroke-dasharray="5,2" d="M1863.99,-115.23C1905.31,-124.38 1954.24,-136.92 1997,-152.5 2027.09,-163.46 2060.05,-180.98 2079.33,-191.83"/>
<polygon fill="#9a32cd" stroke="#9a32cd" points="1864.72,-111.81 1854.2,-113.1 1863.23,-118.65 1864.72,-111.81"/>
<text text-anchor="middle" x="1934.5" y="-155.5" font-family="Helvetica,sans-Serif" font-size="10.00"> requests</text>
</g>
<!-- Node18 -->
<g id="node18" class="node">
<title>Node18</title>
<g id="a_node18"><a xlink:href="structccf_1_1historical_1_1StateCacheImpl_1_1Request.html" target="_top" xlink:title=" ">
<polygon fill="white" stroke="black" points="1434.5,-63.5 1434.5,-93.5 1577.5,-93.5 1577.5,-63.5 1434.5,-63.5"/>
<text text-anchor="start" x="1442.5" y="-81.5" font-family="Helvetica,sans-Serif" font-size="10.00">ccf::historical::StateCache</text>
<text text-anchor="middle" x="1506" y="-70.5" font-family="Helvetica,sans-Serif" font-size="10.00">Impl::Request</text>
</a>
</g>
</g>
<!-- Node18&#45;&gt;Node17 -->
<g id="edge18" class="edge">
<title>Node18&#45;&gt;Node17</title>
<path fill="none" stroke="#9a32cd" stroke-dasharray="5,2" d="M1587.7,-84.34C1619.08,-86.61 1654.99,-89.21 1686.57,-91.5"/>
<polygon fill="#9a32cd" stroke="#9a32cd" points="1587.92,-80.85 1577.69,-83.62 1587.41,-87.83 1587.92,-80.85"/>
<text text-anchor="middle" x="1633.5" y="-93.5" font-family="Helvetica,sans-Serif" font-size="10.00"> elements</text>
</g>
<!-- Node19 -->
<g id="node19" class="node">
<title>Node19</title>
<g id="a_node19"><a xlink:href="classds_1_1ContiguousSet.html" target="_top" xlink:title=" ">
<polygon fill="white" stroke="black" points="1116.5,-0.5 1116.5,-30.5 1229.5,-30.5 1229.5,-0.5 1116.5,-0.5"/>
<text text-anchor="start" x="1124.5" y="-18.5" font-family="Helvetica,sans-Serif" font-size="10.00">ds::ContiguousSet&lt;</text>
<text text-anchor="middle" x="1173" y="-7.5" font-family="Helvetica,sans-Serif" font-size="10.00"> ccf::SeqNo &gt;</text>
</a>
</g>
</g>
<!-- Node19&#45;&gt;Node18 -->
<g id="edge19" class="edge">
<title>Node19&#45;&gt;Node18</title>
<path fill="none" stroke="#9a32cd" stroke-dasharray="5,2" d="M1239.9,-26.59C1288.19,-34.9 1355.28,-46.79 1414,-58.5 1421.77,-60.05 1429.9,-61.74 1437.97,-63.46"/>
<polygon fill="#9a32cd" stroke="#9a32cd" points="1240.33,-23.12 1229.89,-24.88 1239.15,-30.02 1240.33,-23.12"/>
<text text-anchor="middle" x="1343" y="-61.5" font-family="Helvetica,sans-Serif" font-size="10.00"> requested_seqnos</text>
</g>
<!-- Node20 -->
<g id="node20" class="node">
<title>Node20</title>
<g id="a_node20"><a xlink:title=" ">
<polygon fill="white" stroke="black" points="1110.5,-110.5 1110.5,-140.5 1235.5,-140.5 1235.5,-110.5 1110.5,-110.5"/>
<text text-anchor="start" x="1118.5" y="-128.5" font-family="Helvetica,sans-Serif" font-size="10.00">std::map&lt; ccf::SeqNo,</text>
<text text-anchor="middle" x="1173" y="-117.5" font-family="Helvetica,sans-Serif" font-size="10.00"> StoreDetailsPtr &gt;</text>
</a>
</g>
</g>
<!-- Node20&#45;&gt;Node18 -->
<g id="edge20" class="edge">
<title>Node20&#45;&gt;Node18</title>
<path fill="none" stroke="#9a32cd" stroke-dasharray="5,2" d="M1245.58,-115.38C1293.3,-108.63 1357.41,-99.55 1414,-91.5 1420.64,-90.56 1427.54,-89.57 1434.46,-88.59"/>
<polygon fill="#9a32cd" stroke="#9a32cd" points="1245.07,-111.92 1235.66,-116.78 1246.05,-118.85 1245.07,-111.92"/>
<text text-anchor="middle" x="1343" y="-125.5" font-family="Helvetica,sans-Serif" font-size="10.00"> requested_stores</text>
<text text-anchor="middle" x="1343" y="-114.5" font-family="Helvetica,sans-Serif" font-size="10.00">supporting_signatures</text>
</g>
<!-- Node21 -->
<g id="node21" class="node">
<title>Node21</title>
<g id="a_node21"><a xlink:title=" ">
<polygon fill="white" stroke="black" points="861.5,-116 861.5,-135 979.5,-135 979.5,-116 861.5,-116"/>
<text text-anchor="middle" x="920.5" y="-123" font-family="Helvetica,sans-Serif" font-size="10.00">std::shared_ptr&lt; T &gt;</text>
</a>
</g>
</g>
<!-- Node21&#45;&gt;Node20 -->
<g id="edge21" class="edge">
<title>Node21&#45;&gt;Node20</title>
<path fill="none" stroke="#9a32cd" stroke-dasharray="5,2" d="M989.96,-125.5C1027.55,-125.5 1073.8,-125.5 1110.28,-125.5"/>
<polygon fill="#9a32cd" stroke="#9a32cd" points="989.6,-122 979.6,-125.5 989.6,-129 989.6,-122"/>
<text text-anchor="middle" x="1049.5" y="-128.5" font-family="Helvetica,sans-Serif" font-size="10.00"> elements</text>
</g>
<!-- Node22 -->
<g id="node22" class="node">
<title>Node22</title>
<g id="a_node22"><a xlink:title=" ">
<polygon fill="white" stroke="black" points="602.5,-116 602.5,-135 631.5,-135 631.5,-116 602.5,-116"/>
<text text-anchor="middle" x="617" y="-123" font-family="Helvetica,sans-Serif" font-size="10.00">T</text>
</a>
</g>
</g>
<!-- Node22&#45;&gt;Node21 -->
<g id="edge22" class="edge">
<title>Node22&#45;&gt;Node21</title>
<path fill="none" stroke="#9a32cd" stroke-dasharray="5,2" d="M641.86,-125.5C688.87,-125.5 794.68,-125.5 861.25,-125.5"/>
<polygon fill="#9a32cd" stroke="#9a32cd" points="641.74,-122 631.74,-125.5 641.74,-129 641.74,-122"/>
<text text-anchor="middle" x="769.5" y="-128.5" font-family="Helvetica,sans-Serif" font-size="10.00"> ptr</text>
</g>
<!-- Node23 -->
<g id="node23" class="node">
<title>Node23</title>
<g id="a_node23"><a xlink:title=" ">
<polygon fill="white" stroke="black" points="1092,-50 1092,-91 1254,-91 1254,-50 1092,-50"/>
<text text-anchor="start" x="1100" y="-79" font-family="Helvetica,sans-Serif" font-size="10.00">std::unique_ptr&lt; ccf</text>
<text text-anchor="start" x="1100" y="-68" font-family="Helvetica,sans-Serif" font-size="10.00">::historical::StateCacheImpl</text>
<text text-anchor="middle" x="1173" y="-57" font-family="Helvetica,sans-Serif" font-size="10.00">::LedgerSecretRecoveryInfo &gt;</text>
</a>
</g>
</g>
<!-- Node23&#45;&gt;Node18 -->
<g id="edge23" class="edge">
<title>Node23&#45;&gt;Node18</title>
<path fill="none" stroke="#9a32cd" stroke-dasharray="5,2" d="M1264.3,-72.68C1317.82,-73.98 1384.67,-75.59 1434.33,-76.79"/>
<polygon fill="#9a32cd" stroke="#9a32cd" points="1264.21,-69.18 1254.13,-72.44 1264.04,-76.18 1264.21,-69.18"/>
<text text-anchor="middle" x="1343" y="-79.5" font-family="Helvetica,sans-Serif" font-size="10.00"> ledger_secret_recovery_info</text>
</g>
<!-- Node24 -->
<g id="node24" class="node">
<title>Node24</title>
<g id="a_node24"><a xlink:href="structccf_1_1historical_1_1StateCacheImpl_1_1LedgerSecretRecoveryInfo.html" target="_top" xlink:title=" ">
<polygon fill="white" stroke="black" points="834,-55.5 834,-85.5 1007,-85.5 1007,-55.5 834,-55.5"/>
<text text-anchor="start" x="842" y="-73.5" font-family="Helvetica,sans-Serif" font-size="10.00">ccf::historical::StateCache</text>
<text text-anchor="middle" x="920.5" y="-62.5" font-family="Helvetica,sans-Serif" font-size="10.00">Impl::LedgerSecretRecoveryInfo</text>
</a>
</g>
</g>
<!-- Node24&#45;&gt;Node23 -->
<g id="edge24" class="edge">
<title>Node24&#45;&gt;Node23</title>
<path fill="none" stroke="#9a32cd" stroke-dasharray="5,2" d="M1017.11,-70.5C1041.81,-70.5 1068.13,-70.5 1091.94,-70.5"/>
<polygon fill="#9a32cd" stroke="#9a32cd" points="1017.01,-67 1007.01,-70.5 1017.01,-74 1017.01,-67"/>
<text text-anchor="middle" x="1049.5" y="-73.5" font-family="Helvetica,sans-Serif" font-size="10.00"> ptr</text>
</g>
<!-- Node25 -->
<g id="node25" class="node">
<title>Node25</title>
<g id="a_node25"><a xlink:title=" ">
<polygon fill="white" stroke="black" points="529,-61 529,-80 705,-80 705,-61 529,-61"/>
<text text-anchor="middle" x="617" y="-68" font-family="Helvetica,sans-Serif" font-size="10.00">std::shared_ptr&lt; LedgerSecret &gt;</text>
</a>
</g>
</g>
<!-- Node25&#45;&gt;Node24 -->
<g id="edge25" class="edge">
<title>Node25&#45;&gt;Node24</title>
<path fill="none" stroke="#9a32cd" stroke-dasharray="5,2" d="M715.3,-70.5C753.45,-70.5 796.84,-70.5 833.79,-70.5"/>
<polygon fill="#9a32cd" stroke="#9a32cd" points="715.21,-67 705.21,-70.5 715.21,-74 715.21,-67"/>
<text text-anchor="middle" x="769.5" y="-73.5" font-family="Helvetica,sans-Serif" font-size="10.00"> last_ledger_secret</text>
</g>
<!-- Node26 -->
<g id="node26" class="node">
<title>Node26</title>
<g id="a_node26"><a xlink:href="structccf_1_1LedgerSecret.html" target="_top" xlink:title=" ">
<polygon fill="white" stroke="black" points="376,-61 376,-80 476,-80 476,-61 376,-61"/>
<text text-anchor="middle" x="426" y="-68" font-family="Helvetica,sans-Serif" font-size="10.00">ccf::LedgerSecret</text>
</a>
</g>
</g>
<!-- Node26&#45;&gt;Node25 -->
<g id="edge26" class="edge">
<title>Node26&#45;&gt;Node25</title>
<path fill="none" stroke="#9a32cd" stroke-dasharray="5,2" d="M486.22,-70.5C499.69,-70.5 514.28,-70.5 528.64,-70.5"/>
<polygon fill="#9a32cd" stroke="#9a32cd" points="486.16,-67 476.16,-70.5 486.16,-74 486.16,-67"/>
<text text-anchor="middle" x="502.5" y="-73.5" font-family="Helvetica,sans-Serif" font-size="10.00"> ptr</text>
</g>
<!-- Node27 -->
<g id="node27" class="node">
<title>Node27</title>
<g id="a_node27"><a xlink:title=" ">
<polygon fill="white" stroke="black" points="168,-83 168,-102 293,-102 293,-83 168,-83"/>
<text text-anchor="middle" x="230.5" y="-90" font-family="Helvetica,sans-Serif" font-size="10.00">std::vector&lt; uint8_t &gt;</text>
</a>
</g>
</g>
<!-- Node27&#45;&gt;Node26 -->
<g id="edge27" class="edge">
<title>Node27&#45;&gt;Node26</title>
<path fill="none" stroke="#9a32cd" stroke-dasharray="5,2" d="M303.43,-84.32C327.51,-81.58 353.8,-78.6 375.75,-76.1"/>
<polygon fill="#9a32cd" stroke="#9a32cd" points="302.8,-80.87 293.26,-85.48 303.59,-87.83 302.8,-80.87"/>
<text text-anchor="middle" x="336" y="-86.5" font-family="Helvetica,sans-Serif" font-size="10.00"> raw_key</text>
</g>
<!-- Node28 -->
<g id="node28" class="node">
<title>Node28</title>
<g id="a_node28"><a xlink:title=" ">
<polygon fill="white" stroke="black" points="165,-33.5 165,-63.5 296,-63.5 296,-33.5 165,-33.5"/>
<text text-anchor="start" x="173" y="-51.5" font-family="Helvetica,sans-Serif" font-size="10.00">std::shared_ptr&lt; crypto</text>
<text text-anchor="middle" x="230.5" y="-40.5" font-family="Helvetica,sans-Serif" font-size="10.00">::KeyAesGcm &gt;</text>
</a>
</g>
</g>
<!-- Node28&#45;&gt;Node26 -->
<g id="edge28" class="edge">
<title>Node28&#45;&gt;Node26</title>
<path fill="none" stroke="#9a32cd" stroke-dasharray="5,2" d="M306.43,-57.02C329.76,-59.67 354.89,-62.53 375.98,-64.93"/>
<polygon fill="#9a32cd" stroke="#9a32cd" points="306.53,-53.51 296.2,-55.86 305.74,-60.46 306.53,-53.51"/>
<text text-anchor="middle" x="336" y="-66.5" font-family="Helvetica,sans-Serif" font-size="10.00"> key</text>
</g>
<!-- Node29 -->
<g id="node29" class="node">
<title>Node29</title>
<g id="a_node29"><a xlink:href="classcrypto_1_1KeyAesGcm.html" target="_top" xlink:title=" ">
<polygon fill="white" stroke="black" points="0,-39 0,-58 112,-58 112,-39 0,-39"/>
<text text-anchor="middle" x="56" y="-46" font-family="Helvetica,sans-Serif" font-size="10.00">crypto::KeyAesGcm</text>
</a>
</g>
</g>
<!-- Node29&#45;&gt;Node28 -->
<g id="edge29" class="edge">
<title>Node29&#45;&gt;Node28</title>
<path fill="none" stroke="#9a32cd" stroke-dasharray="5,2" d="M122.06,-48.5C136.03,-48.5 150.78,-48.5 164.74,-48.5"/>
<polygon fill="#9a32cd" stroke="#9a32cd" points="122.05,-45 112.05,-48.5 122.05,-52 122.05,-45"/>
<text text-anchor="middle" x="138.5" y="-51.5" font-family="Helvetica,sans-Serif" font-size="10.00"> ptr</text>
</g>
<!-- Node30 -->
<g id="node30" class="node">
<title>Node30</title>
<g id="a_node30"><a xlink:title=" ">
<polygon fill="white" stroke="black" points="1707.5,-39 1707.5,-58 1833.5,-58 1833.5,-39 1707.5,-39"/>
<text text-anchor="middle" x="1770.5" y="-46" font-family="Helvetica,sans-Serif" font-size="10.00">std::set&lt; ccf::SeqNo &gt;</text>
</a>
</g>
</g>
<!-- Node30&#45;&gt;Node1 -->
<g id="edge30" class="edge">
<title>Node30&#45;&gt;Node1</title>
<path fill="none" stroke="#9a32cd" stroke-dasharray="5,2" d="M1843.64,-55.9C1889.83,-63.02 1949.75,-76.85 1997,-103.5 2038.29,-126.78 2074.39,-171.86 2089.04,-191.71"/>
<polygon fill="#9a32cd" stroke="#9a32cd" points="1844.11,-52.43 1833.7,-54.43 1843.09,-59.35 1844.11,-52.43"/>
<text text-anchor="middle" x="1934.5" y="-106.5" font-family="Helvetica,sans-Serif" font-size="10.00"> pending_fetches</text>
</g>
</g>
</svg>
