<?xml version="1.0" encoding="UTF-8" standalone="no"?>
<!DOCTYPE svg PUBLIC "-//W3C//DTD SVG 1.1//EN"
 "http://www.w3.org/Graphics/SVG/1.1/DTD/svg11.dtd">
<!-- Generated by graphviz version 2.43.0 (0)
 -->
<!-- Title: http::HTTPEndpoint Pages: 1 -->
<svg width="873pt" height="171pt"
 viewBox="0.00 0.00 873.00 171.00" xmlns="http://www.w3.org/2000/svg" xmlns:xlink="http://www.w3.org/1999/xlink">
<g id="graph0" class="graph" transform="scale(1 1) rotate(0) translate(4 167)">
<title>http::HTTPEndpoint</title>
<polygon fill="white" stroke="transparent" points="-4,4 -4,-167 869,-167 869,4 -4,4"/>
<!-- Node1 -->
<g id="node1" class="node">
<title>Node1</title>
<g id="a_node1"><a xlink:title=" ">
<polygon fill="#bfbfbf" stroke="black" points="755,-72 755,-91 865,-91 865,-72 755,-72"/>
<text text-anchor="middle" x="810" y="-79" font-family="Helvetica,sans-Serif" font-size="10.00">http::HTTPEndpoint</text>
</a>
</g>
</g>
<!-- Node2 -->
<g id="node2" class="node">
<title>Node2</title>
<g id="a_node2"><a xlink:href="classenclave_1_1TLSEndpoint.html" target="_top" xlink:title=" ">
<polygon fill="white" stroke="black" points="588,-94 588,-113 709,-113 709,-94 588,-94"/>
<text text-anchor="middle" x="648.5" y="-101" font-family="Helvetica,sans-Serif" font-size="10.00">enclave::TLSEndpoint</text>
</a>
</g>
</g>
<!-- Node2&#45;&gt;Node1 -->
<g id="edge1" class="edge">
<title>Node2&#45;&gt;Node1</title>
<path fill="none" stroke="midnightblue" d="M719.27,-93.88C731.19,-92.23 743.42,-90.55 754.86,-88.97"/>
<polygon fill="midnightblue" stroke="midnightblue" points="718.77,-90.41 709.35,-95.25 719.73,-97.35 718.77,-90.41"/>
</g>
<!-- Node3 -->
<g id="node3" class="node">
<title>Node3</title>
<g id="a_node3"><a xlink:href="classenclave_1_1Endpoint.html" target="_top" xlink:title=" ">
<polygon fill="white" stroke="black" points="379.5,-138 379.5,-157 483.5,-157 483.5,-138 379.5,-138"/>
<text text-anchor="middle" x="431.5" y="-145" font-family="Helvetica,sans-Serif" font-size="10.00">enclave::Endpoint</text>
</a>
</g>
</g>
<!-- Node3&#45;&gt;Node2 -->
<g id="edge2" class="edge">
<title>Node3&#45;&gt;Node2</title>
<path fill="none" stroke="midnightblue" d="M489.18,-135.9C524.03,-128.77 568.14,-119.74 600.94,-113.03"/>
<polygon fill="midnightblue" stroke="midnightblue" points="488.25,-132.52 479.15,-137.95 489.65,-139.38 488.25,-132.52"/>
</g>
<!-- Node4 -->
<g id="node4" class="node">
<title>Node4</title>
<g id="a_node4"><a xlink:title=" ">
<polygon fill="white" stroke="black" points="141,-132.5 141,-162.5 275,-162.5 275,-132.5 141,-132.5"/>
<text text-anchor="start" x="149" y="-150.5" font-family="Helvetica,sans-Serif" font-size="10.00">std::enable_shared</text>
<text text-anchor="middle" x="208" y="-139.5" font-family="Helvetica,sans-Serif" font-size="10.00">_from_this&lt; Endpoint &gt;</text>
</a>
</g>
</g>
<!-- Node4&#45;&gt;Node3 -->
<g id="edge3" class="edge">
<title>Node4&#45;&gt;Node3</title>
<path fill="none" stroke="midnightblue" d="M285.52,-147.5C316.57,-147.5 351.6,-147.5 379.45,-147.5"/>
<polygon fill="midnightblue" stroke="midnightblue" points="285.16,-144 275.16,-147.5 285.16,-151 285.16,-144"/>
</g>
<!-- Node5 -->
<g id="node5" class="node">
<title>Node5</title>
<g id="a_node5"><a xlink:title=" ">
<polygon fill="white" stroke="black" points="361,-88.5 361,-118.5 502,-118.5 502,-88.5 361,-88.5"/>
<text text-anchor="start" x="369" y="-106.5" font-family="Helvetica,sans-Serif" font-size="10.00">std::shared_ptr&lt; Abstract</text>
<text text-anchor="middle" x="431.5" y="-95.5" font-family="Helvetica,sans-Serif" font-size="10.00">Writer &gt;</text>
</a>
</g>
</g>
<!-- Node5&#45;&gt;Node2 -->
<g id="edge4" class="edge">
<title>Node5&#45;&gt;Node2</title>
<path fill="none" stroke="#9a32cd" stroke-dasharray="5,2" d="M512.23,-103.5C537.31,-103.5 564.56,-103.5 587.98,-103.5"/>
<polygon fill="#9a32cd" stroke="#9a32cd" points="512.01,-100 502.01,-103.5 512.01,-107 512.01,-100"/>
<text text-anchor="middle" x="545.5" y="-106.5" font-family="Helvetica,sans-Serif" font-size="10.00"> to_host</text>
</g>
<!-- Node6 -->
<g id="node6" class="node">
<title>Node6</title>
<g id="a_node6"><a xlink:href="classhttp_1_1Parser.html" target="_top" xlink:title=" ">
<polygon fill="white" stroke="black" points="612.5,-50 612.5,-69 684.5,-69 684.5,-50 612.5,-50"/>
<text text-anchor="middle" x="648.5" y="-57" font-family="Helvetica,sans-Serif" font-size="10.00">http::Parser</text>
</a>
</g>
</g>
<!-- Node6&#45;&gt;Node1 -->
<g id="edge5" class="edge">
<title>Node6&#45;&gt;Node1</title>
<path fill="none" stroke="#9a32cd" stroke-dasharray="5,2" d="M694.57,-65.72C713.35,-68.31 735.31,-71.34 754.95,-74.04"/>
<polygon fill="#9a32cd" stroke="#9a32cd" points="694.89,-62.23 684.5,-64.33 693.93,-69.16 694.89,-62.23"/>
<text text-anchor="middle" x="732" y="-73.5" font-family="Helvetica,sans-Serif" font-size="10.00"> p</text>
</g>
<!-- Node7 -->
<g id="node7" class="node">
<title>Node7</title>
<g id="a_node7"><a xlink:title=" ">
<polygon fill="white" stroke="black" points="369,-50 369,-69 494,-69 494,-50 369,-50"/>
<text text-anchor="middle" x="431.5" y="-57" font-family="Helvetica,sans-Serif" font-size="10.00">std::vector&lt; uint8_t &gt;</text>
</a>
</g>
</g>
<!-- Node7&#45;&gt;Node6 -->
<g id="edge6" class="edge">
<title>Node7&#45;&gt;Node6</title>
<path fill="none" stroke="#9a32cd" stroke-dasharray="5,2" d="M504.19,-59.5C540.57,-59.5 583.13,-59.5 612.36,-59.5"/>
<polygon fill="#9a32cd" stroke="#9a32cd" points="504.11,-56 494.11,-59.5 504.11,-63 504.11,-56"/>
<text text-anchor="middle" x="545.5" y="-62.5" font-family="Helvetica,sans-Serif" font-size="10.00"> body_buf</text>
</g>
<!-- Node8 -->
<g id="node8" class="node">
<title>Node8</title>
<g id="a_node8"><a xlink:title=" ">
<polygon fill="white" stroke="black" points="360,-0.5 360,-30.5 503,-30.5 503,-0.5 360,-0.5"/>
<text text-anchor="start" x="368" y="-18.5" font-family="Helvetica,sans-Serif" font-size="10.00">std::map&lt; std::string,</text>
<text text-anchor="middle" x="431.5" y="-7.5" font-family="Helvetica,sans-Serif" font-size="10.00"> std::string, std::less&lt;&gt; &gt;</text>
</a>
</g>
</g>
<!-- Node8&#45;&gt;Node6 -->
<g id="edge7" class="edge">
<title>Node8&#45;&gt;Node6</title>
<path fill="none" stroke="#9a32cd" stroke-dasharray="5,2" d="M513.2,-32.02C547.42,-39.02 585.51,-46.81 612.36,-52.31"/>
<polygon fill="#9a32cd" stroke="#9a32cd" points="513.7,-28.54 503.2,-29.97 512.29,-35.4 513.7,-28.54"/>
<text text-anchor="middle" x="545.5" y="-46.5" font-family="Helvetica,sans-Serif" font-size="10.00"> headers</text>
</g>
<!-- Node9 -->
<g id="node9" class="node">
<title>Node9</title>
<g id="a_node9"><a xlink:title=" ">
<polygon fill="white" stroke="black" points="175.5,-6 175.5,-25 240.5,-25 240.5,-6 175.5,-6"/>
<text text-anchor="middle" x="208" y="-13" font-family="Helvetica,sans-Serif" font-size="10.00">std::string</text>
</a>
</g>
</g>
<!-- Node9&#45;&gt;Node8 -->
<g id="edge8" class="edge">
<title>Node9&#45;&gt;Node8</title>
<path fill="none" stroke="#9a32cd" stroke-dasharray="5,2" d="M251.08,-15.5C281.79,-15.5 324.14,-15.5 359.98,-15.5"/>
<polygon fill="#9a32cd" stroke="#9a32cd" points="250.74,-12 240.74,-15.5 250.74,-19 250.74,-12"/>
<text text-anchor="middle" x="317.5" y="-29.5" font-family="Helvetica,sans-Serif" font-size="10.00"> elements</text>
<text text-anchor="middle" x="317.5" y="-18.5" font-family="Helvetica,sans-Serif" font-size="10.00">keys</text>
</g>
<!-- Node10 -->
<g id="node10" class="node">
<title>Node10</title>
<g id="a_node10"><a xlink:title=" ">
<polygon fill="white" stroke="black" points="0,-0.5 0,-30.5 104,-30.5 104,-0.5 0,-0.5"/>
<text text-anchor="start" x="8" y="-18.5" font-family="Helvetica,sans-Serif" font-size="10.00">std::basic_string&lt;</text>
<text text-anchor="middle" x="52" y="-7.5" font-family="Helvetica,sans-Serif" font-size="10.00"> Char &gt;</text>
</a>
</g>
</g>
<!-- Node10&#45;&gt;Node9 -->
<g id="edge9" class="edge">
<title>Node10&#45;&gt;Node9</title>
<path fill="none" stroke="midnightblue" d="M114.36,-15.5C135.21,-15.5 157.65,-15.5 175.23,-15.5"/>
<polygon fill="midnightblue" stroke="midnightblue" points="114.28,-12 104.28,-15.5 114.28,-19 114.28,-12"/>
</g>
</g>
</svg>
