<?xml version="1.0" encoding="UTF-8" standalone="no"?>
<!DOCTYPE svg PUBLIC "-//W3C//DTD SVG 1.1//EN"
 "http://www.w3.org/Graphics/SVG/1.1/DTD/svg11.dtd">
<!-- Generated by graphviz version 2.43.0 (0)
 -->
<!-- Title: ccf::MemberRpcFrontend Pages: 1 -->
<svg width="3256pt" height="739pt"
 viewBox="0.00 0.00 3256.00 738.50" xmlns="http://www.w3.org/2000/svg" xmlns:xlink="http://www.w3.org/1999/xlink">
<g id="graph0" class="graph" transform="scale(1 1) rotate(0) translate(4 734.5)">
<title>ccf::MemberRpcFrontend</title>
<polygon fill="white" stroke="transparent" points="-4,4 -4,-734.5 3252,-734.5 3252,4 -4,4"/>
<!-- Node1 -->
<g id="node1" class="node">
<title>Node1</title>
<g id="a_node1"><a xlink:title=" ">
<polygon fill="#bfbfbf" stroke="black" points="3111,-432 3111,-451 3248,-451 3248,-432 3111,-432"/>
<text text-anchor="middle" x="3179.5" y="-439" font-family="Helvetica,sans-Serif" font-size="10.00">ccf::MemberRpcFrontend</text>
</a>
</g>
</g>
<!-- Node2 -->
<g id="node2" class="node">
<title>Node2</title>
<g id="a_node2"><a xlink:href="classccf_1_1RpcFrontend.html" target="_top" xlink:title=" ">
<polygon fill="white" stroke="black" points="2494,-454 2494,-473 2591,-473 2591,-454 2494,-454"/>
<text text-anchor="middle" x="2542.5" y="-461" font-family="Helvetica,sans-Serif" font-size="10.00">ccf::RpcFrontend</text>
</a>
</g>
</g>
<!-- Node2&#45;&gt;Node1 -->
<g id="edge1" class="edge">
<title>Node2&#45;&gt;Node1</title>
<path fill="none" stroke="midnightblue" d="M2601.51,-462.23C2701.75,-459.92 2913.88,-454.51 3093,-446.5 3098.79,-446.24 3104.81,-445.94 3110.84,-445.63"/>
<polygon fill="midnightblue" stroke="midnightblue" points="2601.21,-458.74 2591.29,-462.46 2601.37,-465.73 2601.21,-458.74"/>
</g>
<!-- Node3 -->
<g id="node3" class="node">
<title>Node3</title>
<g id="a_node3"><a xlink:href="classenclave_1_1RpcHandler.html" target="_top" xlink:title=" ">
<polygon fill="white" stroke="black" points="2253,-492 2253,-511 2370,-511 2370,-492 2253,-492"/>
<text text-anchor="middle" x="2311.5" y="-499" font-family="Helvetica,sans-Serif" font-size="10.00">enclave::RpcHandler</text>
</a>
</g>
</g>
<!-- Node3&#45;&gt;Node2 -->
<g id="edge2" class="edge">
<title>Node3&#45;&gt;Node2</title>
<path fill="none" stroke="midnightblue" d="M2380.06,-490.29C2416.56,-484.23 2460.74,-476.9 2493.65,-471.44"/>
<polygon fill="midnightblue" stroke="midnightblue" points="2379.28,-486.87 2369.99,-491.96 2380.43,-493.78 2379.28,-486.87"/>
</g>
<!-- Node4 -->
<g id="node4" class="node">
<title>Node4</title>
<g id="a_node4"><a xlink:href="classccf_1_1ForwardedRpcHandler.html" target="_top" xlink:title=" ">
<polygon fill="white" stroke="black" points="2240,-454 2240,-473 2383,-473 2383,-454 2240,-454"/>
<text text-anchor="middle" x="2311.5" y="-461" font-family="Helvetica,sans-Serif" font-size="10.00">ccf::ForwardedRpcHandler</text>
</a>
</g>
</g>
<!-- Node4&#45;&gt;Node2 -->
<g id="edge3" class="edge">
<title>Node4&#45;&gt;Node2</title>
<path fill="none" stroke="midnightblue" d="M2393.37,-463.5C2427.02,-463.5 2464.93,-463.5 2493.97,-463.5"/>
<polygon fill="midnightblue" stroke="midnightblue" points="2393.08,-460 2383.08,-463.5 2393.08,-467 2393.08,-460"/>
</g>
<!-- Node5 -->
<g id="node5" class="node">
<title>Node5</title>
<g id="a_node5"><a xlink:href="classkv_1_1Store.html" target="_top" xlink:title=" ">
<polygon fill="white" stroke="black" points="2282,-642 2282,-661 2341,-661 2341,-642 2282,-642"/>
<text text-anchor="middle" x="2311.5" y="-649" font-family="Helvetica,sans-Serif" font-size="10.00">kv::Store</text>
</a>
</g>
</g>
<!-- Node5&#45;&gt;Node2 -->
<g id="edge4" class="edge">
<title>Node5&#45;&gt;Node2</title>
<path fill="none" stroke="#9a32cd" stroke-dasharray="5,2" d="M2331.95,-635.54C2378.05,-597.68 2492.9,-503.4 2529.85,-473.06"/>
<polygon fill="#9a32cd" stroke="#9a32cd" points="2329.68,-632.87 2324.17,-641.92 2334.12,-638.28 2329.68,-632.87"/>
<text text-anchor="middle" x="2427" y="-576.5" font-family="Helvetica,sans-Serif" font-size="10.00"> tables</text>
</g>
<!-- Node6 -->
<g id="node6" class="node">
<title>Node6</title>
<g id="a_node6"><a xlink:href="classkv_1_1AbstractStore.html" target="_top" xlink:title=" ">
<polygon fill="white" stroke="black" points="1921,-626 1921,-645 2021,-645 2021,-626 1921,-626"/>
<text text-anchor="middle" x="1971" y="-633" font-family="Helvetica,sans-Serif" font-size="10.00">kv::AbstractStore</text>
</a>
</g>
</g>
<!-- Node6&#45;&gt;Node5 -->
<g id="edge5" class="edge">
<title>Node6&#45;&gt;Node5</title>
<path fill="none" stroke="midnightblue" d="M2031.23,-638.3C2104.53,-641.76 2226.41,-647.53 2281.68,-650.14"/>
<polygon fill="midnightblue" stroke="midnightblue" points="2031.37,-634.8 2021.22,-637.83 2031.04,-641.79 2031.37,-634.8"/>
</g>
<!-- Node7 -->
<g id="node7" class="node">
<title>Node7</title>
<g id="a_node7"><a xlink:href="classkv_1_1StoreState.html" target="_top" xlink:title=" ">
<polygon fill="white" stroke="black" points="1928.5,-664 1928.5,-683 2013.5,-683 2013.5,-664 1928.5,-664"/>
<text text-anchor="middle" x="1971" y="-671" font-family="Helvetica,sans-Serif" font-size="10.00">kv::StoreState</text>
</a>
</g>
</g>
<!-- Node7&#45;&gt;Node5 -->
<g id="edge6" class="edge">
<title>Node7&#45;&gt;Node5</title>
<path fill="none" stroke="midnightblue" d="M2023.75,-670.14C2096.09,-665.44 2224.95,-657.06 2281.99,-653.35"/>
<polygon fill="midnightblue" stroke="midnightblue" points="2023.26,-666.66 2013.51,-670.8 2023.71,-673.65 2023.26,-666.66"/>
</g>
<!-- Node8 -->
<g id="node8" class="node">
<title>Node8</title>
<g id="a_node8"><a xlink:title=" ">
<polygon fill="white" stroke="black" points="1576.5,-591 1576.5,-610 1645.5,-610 1645.5,-591 1576.5,-591"/>
<text text-anchor="middle" x="1611" y="-598" font-family="Helvetica,sans-Serif" font-size="10.00">std::mutex</text>
</a>
</g>
</g>
<!-- Node8&#45;&gt;Node7 -->
<g id="edge7" class="edge">
<title>Node8&#45;&gt;Node7</title>
<path fill="none" stroke="#9a32cd" stroke-dasharray="5,2" d="M1656.06,-601C1721.9,-602.45 1842.19,-608.06 1879,-629.5 1890.83,-636.39 1885.71,-646.76 1897,-654.5 1906.29,-660.87 1917.58,-665.1 1928.47,-667.91"/>
<polygon fill="#9a32cd" stroke="#9a32cd" points="1656.04,-597.5 1645.98,-600.8 1655.9,-604.5 1656.04,-597.5"/>
<text text-anchor="middle" x="1791" y="-654.5" font-family="Helvetica,sans-Serif" font-size="10.00"> commit_lock</text>
<text text-anchor="middle" x="1791" y="-643.5" font-family="Helvetica,sans-Serif" font-size="10.00">maps_lock</text>
<text text-anchor="middle" x="1791" y="-632.5" font-family="Helvetica,sans-Serif" font-size="10.00">version_lock</text>
</g>
<!-- Node14 -->
<g id="node14" class="node">
<title>Node14</title>
<g id="a_node14"><a xlink:href="classccf_1_1endpoints_1_1EndpointRegistry.html" target="_top" xlink:title=" ">
<polygon fill="white" stroke="black" points="2245,-396.5 2245,-426.5 2378,-426.5 2378,-396.5 2245,-396.5"/>
<text text-anchor="start" x="2253" y="-414.5" font-family="Helvetica,sans-Serif" font-size="10.00">ccf::endpoints::Endpoint</text>
<text text-anchor="middle" x="2311.5" y="-403.5" font-family="Helvetica,sans-Serif" font-size="10.00">Registry</text>
</a>
</g>
</g>
<!-- Node8&#45;&gt;Node14 -->
<g id="edge38" class="edge">
<title>Node8&#45;&gt;Node14</title>
<path fill="none" stroke="#9a32cd" stroke-dasharray="5,2" d="M1655.71,-600.57C1788.47,-600.37 2180.46,-596.54 2222,-558.5 2259.83,-523.86 2209.17,-485.5 2240,-444.5 2245.6,-437.05 2253.31,-431.22 2261.58,-426.67"/>
<polygon fill="#9a32cd" stroke="#9a32cd" points="1655.51,-597.07 1645.51,-600.58 1655.51,-604.07 1655.51,-597.07"/>
<text text-anchor="middle" x="1971" y="-599.5" font-family="Helvetica,sans-Serif" font-size="10.00"> metrics_lock</text>
</g>
<!-- Node9 -->
<g id="node9" class="node">
<title>Node9</title>
<g id="a_node9"><a xlink:title=" ">
<polygon fill="white" stroke="black" points="680,-536.5 680,-588.5 823,-588.5 823,-536.5 680,-536.5"/>
<text text-anchor="start" x="688" y="-576.5" font-family="Helvetica,sans-Serif" font-size="10.00">std::map&lt; std::string,</text>
<text text-anchor="start" x="688" y="-565.5" font-family="Helvetica,sans-Serif" font-size="10.00"> std::pair&lt; kv::Version,</text>
<text text-anchor="start" x="688" y="-554.5" font-family="Helvetica,sans-Serif" font-size="10.00"> std::shared_ptr&lt; untyped</text>
<text text-anchor="middle" x="751.5" y="-543.5" font-family="Helvetica,sans-Serif" font-size="10.00">::Map &gt; &gt; &gt;</text>
</a>
</g>
</g>
<!-- Node9&#45;&gt;Node7 -->
<g id="edge8" class="edge">
<title>Node9&#45;&gt;Node7</title>
<path fill="none" stroke="#9a32cd" stroke-dasharray="5,2" d="M789.1,-595.32C844.35,-641.35 954.26,-719.5 1063.5,-719.5 1063.5,-719.5 1063.5,-719.5 1612,-719.5 1727.3,-719.5 1861.8,-695.74 1928.34,-682.37"/>
<polygon fill="#9a32cd" stroke="#9a32cd" points="791.25,-592.56 781.35,-588.78 786.73,-597.9 791.25,-592.56"/>
<text text-anchor="middle" x="1242" y="-722.5" font-family="Helvetica,sans-Serif" font-size="10.00"> maps</text>
</g>
<!-- Node10 -->
<g id="node10" class="node">
<title>Node10</title>
<g id="a_node10"><a xlink:title=" ">
<polygon fill="white" stroke="black" points="255,-303 255,-322 320,-322 320,-303 255,-303"/>
<text text-anchor="middle" x="287.5" y="-310" font-family="Helvetica,sans-Serif" font-size="10.00">std::string</text>
</a>
</g>
</g>
<!-- Node10&#45;&gt;Node9 -->
<g id="edge9" class="edge">
<title>Node10&#45;&gt;Node9</title>
<path fill="none" stroke="#9a32cd" stroke-dasharray="5,2" d="M290.79,-332.22C296.94,-375.23 318.01,-477.39 383,-524.5 469.86,-587.46 600.08,-584.38 679.94,-574.67"/>
<polygon fill="#9a32cd" stroke="#9a32cd" points="294.25,-331.65 289.48,-322.19 287.31,-332.56 294.25,-331.65"/>
<text text-anchor="middle" x="428.5" y="-567.5" font-family="Helvetica,sans-Serif" font-size="10.00"> keys</text>
</g>
<!-- Node10&#45;&gt;Node14 -->
<g id="edge15" class="edge">
<title>Node10&#45;&gt;Node14</title>
<path fill="none" stroke="#9a32cd" stroke-dasharray="5,2" d="M330.49,-311.76C446.9,-309.78 783.62,-304.5 1063.5,-304.5 1063.5,-304.5 1063.5,-304.5 1972,-304.5 2085.14,-304.5 2117.31,-309.61 2222,-352.5 2248.49,-363.35 2275.34,-382.69 2292.41,-396.26"/>
<polygon fill="#9a32cd" stroke="#9a32cd" points="330.18,-308.27 320.24,-311.94 330.3,-315.27 330.18,-308.27"/>
<text text-anchor="middle" x="1242" y="-307.5" font-family="Helvetica,sans-Serif" font-size="10.00"> method_prefix</text>
</g>
<!-- Node16 -->
<g id="node16" class="node">
<title>Node16</title>
<g id="a_node16"><a xlink:href="structccf_1_1endpoints_1_1EndpointRegistry_1_1OpenApiInfo.html" target="_top" xlink:title=" ">
<polygon fill="white" stroke="black" points="685,-496.5 685,-526.5 818,-526.5 818,-496.5 685,-496.5"/>
<text text-anchor="start" x="693" y="-514.5" font-family="Helvetica,sans-Serif" font-size="10.00">ccf::endpoints::Endpoint</text>
<text text-anchor="middle" x="751.5" y="-503.5" font-family="Helvetica,sans-Serif" font-size="10.00">Registry::OpenApiInfo</text>
</a>
</g>
</g>
<!-- Node10&#45;&gt;Node16 -->
<g id="edge17" class="edge">
<title>Node10&#45;&gt;Node16</title>
<path fill="none" stroke="#9a32cd" stroke-dasharray="5,2" d="M295.84,-331.56C308.59,-361.92 337.87,-420.76 383,-449.5 475.51,-508.41 606.62,-516.49 684.67,-515.23"/>
<polygon fill="#9a32cd" stroke="#9a32cd" points="299.01,-330.07 292.02,-322.11 292.52,-332.69 299.01,-330.07"/>
<text text-anchor="middle" x="428.5" y="-513.5" font-family="Helvetica,sans-Serif" font-size="10.00"> description</text>
<text text-anchor="middle" x="428.5" y="-502.5" font-family="Helvetica,sans-Serif" font-size="10.00">document_version</text>
<text text-anchor="middle" x="428.5" y="-491.5" font-family="Helvetica,sans-Serif" font-size="10.00">title</text>
</g>
<!-- Node19 -->
<g id="node19" class="node">
<title>Node19</title>
<g id="a_node19"><a xlink:href="structccf_1_1endpoints_1_1EndpointDefinition.html" target="_top" xlink:title=" ">
<polygon fill="white" stroke="black" points="1175.5,-166.5 1175.5,-196.5 1308.5,-196.5 1308.5,-166.5 1175.5,-166.5"/>
<text text-anchor="start" x="1183.5" y="-184.5" font-family="Helvetica,sans-Serif" font-size="10.00">ccf::endpoints::Endpoint</text>
<text text-anchor="middle" x="1242" y="-173.5" font-family="Helvetica,sans-Serif" font-size="10.00">Definition</text>
</a>
</g>
</g>
<!-- Node10&#45;&gt;Node19 -->
<g id="edge24" class="edge">
<title>Node10&#45;&gt;Node19</title>
<path fill="none" stroke="#9a32cd" stroke-dasharray="5,2" d="M304.17,-295.3C321.62,-277.26 351.52,-249.5 383,-234.5 427.62,-213.24 443.01,-218.98 492,-212.5 742.79,-179.34 1044.54,-178.66 1175.29,-180.26"/>
<polygon fill="#9a32cd" stroke="#9a32cd" points="301.39,-293.15 297.07,-302.82 306.48,-297.95 301.39,-293.15"/>
<text text-anchor="middle" x="751.5" y="-197.5" font-family="Helvetica,sans-Serif" font-size="10.00"> full_uri_path</text>
</g>
<!-- Node20 -->
<g id="node20" class="node">
<title>Node20</title>
<g id="a_node20"><a xlink:href="structccf_1_1endpoints_1_1EndpointKey.html" target="_top" xlink:title=" ">
<polygon fill="white" stroke="black" points="501.5,-130 501.5,-149 652.5,-149 652.5,-130 501.5,-130"/>
<text text-anchor="middle" x="577" y="-137" font-family="Helvetica,sans-Serif" font-size="10.00">ccf::endpoints::EndpointKey</text>
</a>
</g>
</g>
<!-- Node10&#45;&gt;Node20 -->
<g id="edge22" class="edge">
<title>Node10&#45;&gt;Node20</title>
<path fill="none" stroke="#9a32cd" stroke-dasharray="5,2" d="M294.76,-293.1C306.4,-260.48 334.67,-195.18 383,-164.5 402.4,-152.19 455.65,-145.9 501.32,-142.71"/>
<polygon fill="#9a32cd" stroke="#9a32cd" points="291.36,-292.22 291.45,-302.82 297.99,-294.48 291.36,-292.22"/>
<text text-anchor="middle" x="428.5" y="-167.5" font-family="Helvetica,sans-Serif" font-size="10.00"> uri_path</text>
</g>
<!-- Node22 -->
<g id="node22" class="node">
<title>Node22</title>
<g id="a_node22"><a xlink:href="structccf_1_1endpoints_1_1EndpointProperties.html" target="_top" xlink:title=" ">
<polygon fill="white" stroke="black" points="841.5,-209.5 841.5,-239.5 974.5,-239.5 974.5,-209.5 841.5,-209.5"/>
<text text-anchor="start" x="849.5" y="-227.5" font-family="Helvetica,sans-Serif" font-size="10.00">ccf::endpoints::Endpoint</text>
<text text-anchor="middle" x="908" y="-216.5" font-family="Helvetica,sans-Serif" font-size="10.00">Properties</text>
</a>
</g>
</g>
<!-- Node10&#45;&gt;Node22 -->
<g id="edge28" class="edge">
<title>Node10&#45;&gt;Node22</title>
<path fill="none" stroke="#9a32cd" stroke-dasharray="5,2" d="M315.56,-298.36C353.69,-279.29 425.96,-246.25 492,-233.5 613.53,-210.04 758.78,-214 841.23,-219.16"/>
<polygon fill="#9a32cd" stroke="#9a32cd" points="313.97,-295.24 306.63,-302.88 317.13,-301.48 313.97,-295.24"/>
<text text-anchor="middle" x="577" y="-247.5" font-family="Helvetica,sans-Serif" font-size="10.00"> js_function</text>
<text text-anchor="middle" x="577" y="-236.5" font-family="Helvetica,sans-Serif" font-size="10.00">js_module</text>
</g>
<!-- Node23 -->
<g id="node23" class="node">
<title>Node23</title>
<g id="a_node23"><a xlink:title=" ">
<polygon fill="white" stroke="black" points="507,-265 507,-284 647,-284 647,-265 507,-265"/>
<text text-anchor="middle" x="577" y="-272" font-family="Helvetica,sans-Serif" font-size="10.00">std::vector&lt; std::string &gt;</text>
</a>
</g>
</g>
<!-- Node10&#45;&gt;Node23 -->
<g id="edge27" class="edge">
<title>Node10&#45;&gt;Node23</title>
<path fill="none" stroke="#9a32cd" stroke-dasharray="5,2" d="M328.76,-300.03C345.39,-295.36 364.97,-290.46 383,-287.5 423.76,-280.8 469.91,-277.54 506.85,-275.95"/>
<polygon fill="#9a32cd" stroke="#9a32cd" points="327.46,-296.76 318.82,-302.89 329.4,-303.49 327.46,-296.76"/>
<text text-anchor="middle" x="428.5" y="-290.5" font-family="Helvetica,sans-Serif" font-size="10.00"> elements</text>
</g>
<!-- Node28 -->
<g id="node28" class="node">
<title>Node28</title>
<g id="a_node28"><a xlink:title=" ">
<polygon fill="white" stroke="black" points="993,-374 993,-415 1136,-415 1136,-374 993,-374"/>
<text text-anchor="start" x="1001" y="-403" font-family="Helvetica,sans-Serif" font-size="10.00">std::map&lt; std::string,</text>
<text text-anchor="start" x="1001" y="-392" font-family="Helvetica,sans-Serif" font-size="10.00"> std::map&lt; ccf::RESTVerb,</text>
<text text-anchor="middle" x="1064.5" y="-381" font-family="Helvetica,sans-Serif" font-size="10.00"> EndpointPtr &gt; &gt;</text>
</a>
</g>
</g>
<!-- Node10&#45;&gt;Node28 -->
<g id="edge35" class="edge">
<title>Node10&#45;&gt;Node28</title>
<path fill="none" stroke="#9a32cd" stroke-dasharray="5,2" d="M309.89,-328.03C328.27,-340.43 356.01,-356.93 383,-364.5 598.48,-424.96 867.26,-412.42 992.78,-401.78"/>
<polygon fill="#9a32cd" stroke="#9a32cd" points="311.63,-324.98 301.42,-322.16 307.64,-330.74 311.63,-324.98"/>
<text text-anchor="middle" x="577" y="-410.5" font-family="Helvetica,sans-Serif" font-size="10.00"> keys</text>
</g>
<!-- Node29 -->
<g id="node29" class="node">
<title>Node29</title>
<g id="a_node29"><a xlink:title=" ">
<polygon fill="white" stroke="black" points="1348,-408.5 1348,-460.5 1519,-460.5 1519,-408.5 1348,-408.5"/>
<text text-anchor="start" x="1356" y="-448.5" font-family="Helvetica,sans-Serif" font-size="10.00">std::map&lt; std::string,</text>
<text text-anchor="start" x="1356" y="-437.5" font-family="Helvetica,sans-Serif" font-size="10.00"> std::map&lt; ccf::RESTVerb,</text>
<text text-anchor="start" x="1356" y="-426.5" font-family="Helvetica,sans-Serif" font-size="10.00"> std::shared_ptr&lt; ccf::endpoints</text>
<text text-anchor="middle" x="1433.5" y="-415.5" font-family="Helvetica,sans-Serif" font-size="10.00">::PathTemplatedEndpoint &gt; &gt; &gt;</text>
</a>
</g>
</g>
<!-- Node10&#45;&gt;Node29 -->
<g id="edge37" class="edge">
<title>Node10&#45;&gt;Node29</title>
<path fill="none" stroke="#9a32cd" stroke-dasharray="5,2" d="M305.04,-329.51C322.82,-346.88 352.63,-373.51 383,-389.5 461.03,-430.58 487.82,-435.5 576,-435.5 576,-435.5 576,-435.5 1065.5,-435.5 1162.35,-435.5 1273.57,-435.15 1347.96,-434.86"/>
<polygon fill="#9a32cd" stroke="#9a32cd" points="307.32,-326.83 297.76,-322.25 302.37,-331.79 307.32,-326.83"/>
<text text-anchor="middle" x="751.5" y="-438.5" font-family="Helvetica,sans-Serif" font-size="10.00"> keys</text>
</g>
<!-- Node30 -->
<g id="node30" class="node">
<title>Node30</title>
<g id="a_node30"><a xlink:title=" ">
<polygon fill="white" stroke="black" points="1703,-322.5 1703,-374.5 1879,-374.5 1879,-322.5 1703,-322.5"/>
<text text-anchor="start" x="1711" y="-362.5" font-family="Helvetica,sans-Serif" font-size="10.00">std::map&lt; std::string,</text>
<text text-anchor="start" x="1711" y="-351.5" font-family="Helvetica,sans-Serif" font-size="10.00"> std::map&lt; std::string,</text>
<text text-anchor="start" x="1711" y="-340.5" font-family="Helvetica,sans-Serif" font-size="10.00"> ccf::endpoints::EndpointRegistry</text>
<text text-anchor="middle" x="1791" y="-329.5" font-family="Helvetica,sans-Serif" font-size="10.00">::Metrics &gt; &gt;</text>
</a>
</g>
</g>
<!-- Node10&#45;&gt;Node30 -->
<g id="edge40" class="edge">
<title>Node10&#45;&gt;Node30</title>
<path fill="none" stroke="#9a32cd" stroke-dasharray="5,2" d="M330.62,-319.95C346.92,-322.52 365.78,-325.1 383,-326.5 881.25,-367.13 1481.92,-356.86 1702.95,-351.11"/>
<polygon fill="#9a32cd" stroke="#9a32cd" points="330.74,-316.42 320.31,-318.28 329.62,-323.33 330.74,-316.42"/>
<text text-anchor="middle" x="908" y="-357.5" font-family="Helvetica,sans-Serif" font-size="10.00"> keys</text>
</g>
<!-- Node38 -->
<g id="node38" class="node">
<title>Node38</title>
<g id="a_node38"><a xlink:title=" ">
<polygon fill="white" stroke="black" points="494,-18 494,-59 660,-59 660,-18 494,-18"/>
<text text-anchor="start" x="502" y="-47" font-family="Helvetica,sans-Serif" font-size="10.00">std::map&lt; std::string,</text>
<text text-anchor="start" x="502" y="-36" font-family="Helvetica,sans-Serif" font-size="10.00"> std::shared_ptr&lt; ccf</text>
<text text-anchor="middle" x="577" y="-25" font-family="Helvetica,sans-Serif" font-size="10.00">::AbstractNodeSubSystem &gt; &gt;</text>
</a>
</g>
</g>
<!-- Node10&#45;&gt;Node38 -->
<g id="edge50" class="edge">
<title>Node10&#45;&gt;Node38</title>
<path fill="none" stroke="#9a32cd" stroke-dasharray="5,2" d="M293.06,-292.63C302.77,-254.96 329.12,-173.16 383,-130.5 415.71,-104.6 441.91,-134.15 474,-107.5 488.69,-95.3 477.91,-81.38 492,-68.5 495.89,-64.95 500.22,-61.81 504.82,-59.04"/>
<polygon fill="#9a32cd" stroke="#9a32cd" points="289.55,-292.26 290.57,-302.8 296.35,-293.92 289.55,-292.26"/>
<text text-anchor="middle" x="428.5" y="-133.5" font-family="Helvetica,sans-Serif" font-size="10.00"> keys</text>
</g>
<!-- Node11 -->
<g id="node11" class="node">
<title>Node11</title>
<g id="a_node11"><a xlink:title=" ">
<polygon fill="white" stroke="black" points="26.5,-297.5 26.5,-327.5 130.5,-327.5 130.5,-297.5 26.5,-297.5"/>
<text text-anchor="start" x="34.5" y="-315.5" font-family="Helvetica,sans-Serif" font-size="10.00">std::basic_string&lt;</text>
<text text-anchor="middle" x="78.5" y="-304.5" font-family="Helvetica,sans-Serif" font-size="10.00"> Char &gt;</text>
</a>
</g>
</g>
<!-- Node11&#45;&gt;Node10 -->
<g id="edge10" class="edge">
<title>Node11&#45;&gt;Node10</title>
<path fill="none" stroke="midnightblue" d="M140.98,-312.5C178.43,-312.5 224.72,-312.5 254.89,-312.5"/>
<polygon fill="midnightblue" stroke="midnightblue" points="140.67,-309 130.67,-312.5 140.67,-316 140.67,-309"/>
</g>
<!-- Node12 -->
<g id="node12" class="node">
<title>Node12</title>
<g id="a_node12"><a xlink:title=" ">
<polygon fill="white" stroke="black" points="1544,-638.5 1544,-690.5 1678,-690.5 1678,-638.5 1544,-638.5"/>
<text text-anchor="start" x="1552" y="-678.5" font-family="Helvetica,sans-Serif" font-size="10.00">std::unordered_map</text>
<text text-anchor="start" x="1552" y="-667.5" font-family="Helvetica,sans-Serif" font-size="10.00">&lt; Version, std::pair</text>
<text text-anchor="start" x="1552" y="-656.5" font-family="Helvetica,sans-Serif" font-size="10.00">&lt; std::unique_ptr&lt; kv</text>
<text text-anchor="middle" x="1611" y="-645.5" font-family="Helvetica,sans-Serif" font-size="10.00">::PendingTx &gt;, bool &gt; &gt;</text>
</a>
</g>
</g>
<!-- Node12&#45;&gt;Node7 -->
<g id="edge11" class="edge">
<title>Node12&#45;&gt;Node7</title>
<path fill="none" stroke="#9a32cd" stroke-dasharray="5,2" d="M1688.18,-666.42C1761.5,-668.26 1869.62,-670.98 1928.35,-672.45"/>
<polygon fill="#9a32cd" stroke="#9a32cd" points="1688.16,-662.91 1678.08,-666.16 1687.99,-669.91 1688.16,-662.91"/>
<text text-anchor="middle" x="1791" y="-673.5" font-family="Helvetica,sans-Serif" font-size="10.00"> pending_txs</text>
</g>
<!-- Node13 -->
<g id="node13" class="node">
<title>Node13</title>
<g id="a_node13"><a xlink:href="classkv_1_1ExecutionWrapperStore.html" target="_top" xlink:title=" ">
<polygon fill="white" stroke="black" points="1897,-702 1897,-721 2045,-721 2045,-702 1897,-702"/>
<text text-anchor="middle" x="1971" y="-709" font-family="Helvetica,sans-Serif" font-size="10.00">kv::ExecutionWrapperStore</text>
</a>
</g>
</g>
<!-- Node13&#45;&gt;Node5 -->
<g id="edge12" class="edge">
<title>Node13&#45;&gt;Node5</title>
<path fill="none" stroke="midnightblue" d="M2055.35,-702.08C2104.17,-695.92 2166.88,-686.9 2222,-675.5 2242.11,-671.34 2264.43,-665.28 2281.62,-660.29"/>
<polygon fill="midnightblue" stroke="midnightblue" points="2054.65,-698.64 2045.16,-703.35 2055.51,-705.59 2054.65,-698.64"/>
</g>
<!-- Node14&#45;&gt;Node2 -->
<g id="edge13" class="edge">
<title>Node14&#45;&gt;Node2</title>
<path fill="none" stroke="#9a32cd" stroke-dasharray="5,2" d="M2387.89,-428.62C2424.94,-437.03 2468.19,-446.85 2499.34,-453.93"/>
<polygon fill="#9a32cd" stroke="#9a32cd" points="2388.65,-425.2 2378.12,-426.4 2387.1,-432.03 2388.65,-425.2"/>
<text text-anchor="middle" x="2427" y="-445.5" font-family="Helvetica,sans-Serif" font-size="10.00"> endpoints</text>
</g>
<!-- Node36 -->
<g id="node36" class="node">
<title>Node36</title>
<g id="a_node36"><a xlink:href="classccf_1_1BaseEndpointRegistry.html" target="_top" xlink:title=" ">
<polygon fill="white" stroke="black" points="2471,-395 2471,-414 2614,-414 2614,-395 2471,-395"/>
<text text-anchor="middle" x="2542.5" y="-402" font-family="Helvetica,sans-Serif" font-size="10.00">ccf::BaseEndpointRegistry</text>
</a>
</g>
</g>
<!-- Node14&#45;&gt;Node36 -->
<g id="edge47" class="edge">
<title>Node14&#45;&gt;Node36</title>
<path fill="none" stroke="midnightblue" d="M2388.14,-409.19C2414.73,-408.38 2444.49,-407.47 2470.66,-406.67"/>
<polygon fill="midnightblue" stroke="midnightblue" points="2388.01,-405.69 2378.12,-409.49 2388.22,-412.69 2388.01,-405.69"/>
</g>
<!-- Node15 -->
<g id="node15" class="node">
<title>Node15</title>
<g id="a_node15"><a xlink:href="structccf_1_1endpoints_1_1Endpoint_1_1Installer.html" target="_top" xlink:title=" ">
<polygon fill="white" stroke="black" points="1175.5,-225.5 1175.5,-255.5 1308.5,-255.5 1308.5,-225.5 1175.5,-225.5"/>
<text text-anchor="start" x="1183.5" y="-243.5" font-family="Helvetica,sans-Serif" font-size="10.00">ccf::endpoints::Endpoint</text>
<text text-anchor="middle" x="1242" y="-232.5" font-family="Helvetica,sans-Serif" font-size="10.00">::Installer</text>
</a>
</g>
</g>
<!-- Node15&#45;&gt;Node14 -->
<g id="edge14" class="edge">
<title>Node15&#45;&gt;Node14</title>
<path fill="none" stroke="midnightblue" d="M1319.05,-240.65C1535.33,-241.6 2143.41,-248.06 2222,-290.5 2265.51,-314 2293.18,-369.27 2304.56,-396.2"/>
<polygon fill="midnightblue" stroke="midnightblue" points="1318.76,-237.15 1308.74,-240.61 1318.73,-244.15 1318.76,-237.15"/>
</g>
<!-- Node18 -->
<g id="node18" class="node">
<title>Node18</title>
<g id="a_node18"><a xlink:href="structccf_1_1endpoints_1_1Endpoint.html" target="_top" xlink:title=" ">
<polygon fill="white" stroke="black" points="1544.5,-174 1544.5,-193 1677.5,-193 1677.5,-174 1544.5,-174"/>
<text text-anchor="middle" x="1611" y="-181" font-family="Helvetica,sans-Serif" font-size="10.00">ccf::endpoints::Endpoint</text>
</a>
</g>
</g>
<!-- Node15&#45;&gt;Node18 -->
<g id="edge32" class="edge">
<title>Node15&#45;&gt;Node18</title>
<path fill="none" stroke="#9a32cd" stroke-dasharray="5,2" d="M1318.84,-228.72C1386.86,-218.16 1485.43,-202.85 1548.62,-193.03"/>
<polygon fill="#9a32cd" stroke="#9a32cd" points="1317.96,-225.32 1308.61,-230.31 1319.03,-232.23 1317.96,-225.32"/>
<text text-anchor="middle" x="1433.5" y="-227.5" font-family="Helvetica,sans-Serif" font-size="10.00"> installer</text>
</g>
<!-- Node16&#45;&gt;Node14 -->
<g id="edge16" class="edge">
<title>Node16&#45;&gt;Node14</title>
<path fill="none" stroke="#9a32cd" stroke-dasharray="5,2" d="M828.33,-524.07C891.15,-533.4 982.88,-544.5 1063.5,-544.5 1063.5,-544.5 1063.5,-544.5 1972,-544.5 2027.64,-544.5 2179.81,-566.78 2222,-530.5 2251.61,-505.04 2215.76,-475.12 2240,-444.5 2245.96,-436.98 2254.03,-431.09 2262.59,-426.51"/>
<polygon fill="#9a32cd" stroke="#9a32cd" points="828.52,-520.56 818.11,-522.53 827.48,-527.48 828.52,-520.56"/>
<text text-anchor="middle" x="1433.5" y="-547.5" font-family="Helvetica,sans-Serif" font-size="10.00"> openapi_info</text>
</g>
<!-- Node17 -->
<g id="node17" class="node">
<title>Node17</title>
<g id="a_node17"><a xlink:title=" ">
<polygon fill="white" stroke="black" points="1907.5,-191.5 1907.5,-221.5 2034.5,-221.5 2034.5,-191.5 1907.5,-191.5"/>
<text text-anchor="start" x="1915.5" y="-209.5" font-family="Helvetica,sans-Serif" font-size="10.00">std::shared_ptr&lt; const</text>
<text text-anchor="middle" x="1971" y="-198.5" font-family="Helvetica,sans-Serif" font-size="10.00"> Endpoint &gt;</text>
</a>
</g>
</g>
<!-- Node17&#45;&gt;Node14 -->
<g id="edge18" class="edge">
<title>Node17&#45;&gt;Node14</title>
<path fill="none" stroke="#9a32cd" stroke-dasharray="5,2" d="M2044.54,-195.66C2099.35,-191.68 2173.23,-195.87 2222,-236.5 2242.74,-253.78 2228.95,-269.87 2240,-294.5 2257.27,-333.02 2284.61,-374.54 2299.66,-396.26"/>
<polygon fill="#9a32cd" stroke="#9a32cd" points="2044.21,-192.18 2034.54,-196.49 2044.79,-199.15 2044.21,-192.18"/>
<text text-anchor="middle" x="2142.5" y="-239.5" font-family="Helvetica,sans-Serif" font-size="10.00"> default_endpoint</text>
</g>
<!-- Node18&#45;&gt;Node17 -->
<g id="edge19" class="edge">
<title>Node18&#45;&gt;Node17</title>
<path fill="none" stroke="#9a32cd" stroke-dasharray="5,2" d="M1687.9,-188.38C1753.22,-192.57 1846.34,-198.56 1907.45,-202.48"/>
<polygon fill="#9a32cd" stroke="#9a32cd" points="1687.87,-184.87 1677.66,-187.72 1687.42,-191.85 1687.87,-184.87"/>
<text text-anchor="middle" x="1791" y="-203.5" font-family="Helvetica,sans-Serif" font-size="10.00"> ptr</text>
</g>
<!-- Node19&#45;&gt;Node18 -->
<g id="edge20" class="edge">
<title>Node19&#45;&gt;Node18</title>
<path fill="none" stroke="midnightblue" d="M1318.62,-181.91C1385.13,-182.27 1480.98,-182.8 1544.34,-183.14"/>
<polygon fill="midnightblue" stroke="midnightblue" points="1318.63,-178.41 1308.61,-181.86 1318.59,-185.41 1318.63,-178.41"/>
</g>
<!-- Node20&#45;&gt;Node19 -->
<g id="edge21" class="edge">
<title>Node20&#45;&gt;Node19</title>
<path fill="none" stroke="#9a32cd" stroke-dasharray="5,2" d="M662.73,-139.64C772.33,-140.65 969.01,-145.32 1136,-164.5 1148.75,-165.96 1162.32,-167.89 1175.32,-169.91"/>
<polygon fill="#9a32cd" stroke="#9a32cd" points="662.75,-136.14 652.72,-139.55 662.69,-143.14 662.75,-136.14"/>
<text text-anchor="middle" x="908" y="-153.5" font-family="Helvetica,sans-Serif" font-size="10.00"> dispatch</text>
</g>
<!-- Node21 -->
<g id="node21" class="node">
<title>Node21</title>
<g id="a_node21"><a xlink:href="classccf_1_1RESTVerb.html" target="_top" xlink:title=" ">
<polygon fill="white" stroke="black" points="246,-88 246,-107 329,-107 329,-88 246,-88"/>
<text text-anchor="middle" x="287.5" y="-95" font-family="Helvetica,sans-Serif" font-size="10.00">ccf::RESTVerb</text>
</a>
</g>
</g>
<!-- Node21&#45;&gt;Node20 -->
<g id="edge23" class="edge">
<title>Node21&#45;&gt;Node20</title>
<path fill="none" stroke="#9a32cd" stroke-dasharray="5,2" d="M339.28,-90.3C377.06,-86.6 429.55,-84.98 474,-96.5 482.86,-98.8 483.72,-102.6 492,-106.5 510.71,-115.32 532.45,-123.82 549.13,-129.98"/>
<polygon fill="#9a32cd" stroke="#9a32cd" points="338.61,-86.86 329.04,-91.39 339.35,-93.82 338.61,-86.86"/>
<text text-anchor="middle" x="428.5" y="-99.5" font-family="Helvetica,sans-Serif" font-size="10.00"> verb</text>
</g>
<!-- Node22&#45;&gt;Node19 -->
<g id="edge25" class="edge">
<title>Node22&#45;&gt;Node19</title>
<path fill="none" stroke="#9a32cd" stroke-dasharray="5,2" d="M984.71,-214.69C1042.18,-207.25 1120.4,-197.12 1175.26,-190.01"/>
<polygon fill="#9a32cd" stroke="#9a32cd" points="984.06,-211.25 974.59,-216 984.96,-218.19 984.06,-211.25"/>
<text text-anchor="middle" x="1064.5" y="-216.5" font-family="Helvetica,sans-Serif" font-size="10.00"> properties</text>
</g>
<!-- Node23&#45;&gt;Node22 -->
<g id="edge26" class="edge">
<title>Node23&#45;&gt;Node22</title>
<path fill="none" stroke="#9a32cd" stroke-dasharray="5,2" d="M655.19,-263.55C703.45,-256.6 766.89,-247.3 823,-238.5 828.99,-237.56 835.21,-236.56 841.45,-235.55"/>
<polygon fill="#9a32cd" stroke="#9a32cd" points="654.53,-260.11 645.12,-264.99 655.52,-267.03 654.53,-260.11"/>
<text text-anchor="middle" x="751.5" y="-262.5" font-family="Helvetica,sans-Serif" font-size="10.00"> authn_policies</text>
</g>
<!-- Node24 -->
<g id="node24" class="node">
<title>Node24</title>
<g id="a_node24"><a xlink:title=" ">
<polygon fill="white" stroke="black" points="841,-72.5 841,-102.5 975,-102.5 975,-72.5 841,-72.5"/>
<text text-anchor="start" x="849" y="-90.5" font-family="Helvetica,sans-Serif" font-size="10.00">std::vector&lt; std::shared</text>
<text text-anchor="middle" x="908" y="-79.5" font-family="Helvetica,sans-Serif" font-size="10.00">_ptr&lt; AuthnPolicy &gt; &gt;</text>
</a>
</g>
</g>
<!-- Node24&#45;&gt;Node19 -->
<g id="edge29" class="edge">
<title>Node24&#45;&gt;Node19</title>
<path fill="none" stroke="#9a32cd" stroke-dasharray="5,2" d="M985.04,-78.37C1032.82,-76.71 1093.27,-82.54 1136,-114.5 1152.26,-126.66 1138.77,-143.07 1154,-156.5 1160.25,-162.01 1167.64,-166.31 1175.43,-169.67"/>
<polygon fill="#9a32cd" stroke="#9a32cd" points="984.88,-74.87 975.05,-78.83 985.2,-81.86 984.88,-74.87"/>
<text text-anchor="middle" x="1064.5" y="-117.5" font-family="Helvetica,sans-Serif" font-size="10.00"> authn_policies</text>
</g>
<!-- Node25 -->
<g id="node25" class="node">
<title>Node25</title>
<g id="a_node25"><a xlink:title=" ">
<polygon fill="white" stroke="black" points="492,-78 492,-97 662,-97 662,-78 492,-78"/>
<text text-anchor="middle" x="577" y="-85" font-family="Helvetica,sans-Serif" font-size="10.00">std::shared_ptr&lt; AuthnPolicy &gt;</text>
</a>
</g>
</g>
<!-- Node25&#45;&gt;Node24 -->
<g id="edge30" class="edge">
<title>Node25&#45;&gt;Node24</title>
<path fill="none" stroke="#9a32cd" stroke-dasharray="5,2" d="M672.55,-87.5C726.4,-87.5 792.53,-87.5 840.82,-87.5"/>
<polygon fill="#9a32cd" stroke="#9a32cd" points="672.3,-84 662.3,-87.5 672.3,-91 672.3,-84"/>
<text text-anchor="middle" x="751.5" y="-90.5" font-family="Helvetica,sans-Serif" font-size="10.00"> elements</text>
</g>
<!-- Node26 -->
<g id="node26" class="node">
<title>Node26</title>
<g id="a_node26"><a xlink:href="classccf_1_1AuthnPolicy.html" target="_top" xlink:title=" ">
<polygon fill="white" stroke="black" points="240.5,-50 240.5,-69 334.5,-69 334.5,-50 240.5,-50"/>
<text text-anchor="middle" x="287.5" y="-57" font-family="Helvetica,sans-Serif" font-size="10.00">ccf::AuthnPolicy</text>
</a>
</g>
</g>
<!-- Node26&#45;&gt;Node25 -->
<g id="edge31" class="edge">
<title>Node26&#45;&gt;Node25</title>
<path fill="none" stroke="#9a32cd" stroke-dasharray="5,2" d="M344.69,-55.98C381.69,-54.75 431.05,-55.17 474,-62.5 482.31,-63.92 483.88,-66.23 492,-68.5 504.24,-71.92 517.61,-75.16 530.02,-77.96"/>
<polygon fill="#9a32cd" stroke="#9a32cd" points="344.46,-52.49 334.6,-56.37 344.73,-59.49 344.46,-52.49"/>
<text text-anchor="middle" x="428.5" y="-65.5" font-family="Helvetica,sans-Serif" font-size="10.00"> ptr</text>
</g>
<!-- Node27 -->
<g id="node27" class="node">
<title>Node27</title>
<g id="a_node27"><a xlink:title=" ">
<polygon fill="white" stroke="black" points="1154,-128 1154,-147 1330,-147 1330,-128 1154,-128"/>
<text text-anchor="middle" x="1242" y="-135" font-family="Helvetica,sans-Serif" font-size="10.00">std::vector&lt; SchemaBuilderFn &gt;</text>
</a>
</g>
</g>
<!-- Node27&#45;&gt;Node18 -->
<g id="edge33" class="edge">
<title>Node27&#45;&gt;Node18</title>
<path fill="none" stroke="#9a32cd" stroke-dasharray="5,2" d="M1340.26,-146.5C1393.22,-151.79 1459.82,-159.09 1519,-167.5 1532.02,-169.35 1546.04,-171.66 1559.08,-173.94"/>
<polygon fill="#9a32cd" stroke="#9a32cd" points="1340.49,-143 1330.2,-145.5 1339.8,-149.97 1340.49,-143"/>
<text text-anchor="middle" x="1433.5" y="-170.5" font-family="Helvetica,sans-Serif" font-size="10.00"> schema_builders</text>
</g>
<!-- Node28&#45;&gt;Node14 -->
<g id="edge34" class="edge">
<title>Node28&#45;&gt;Node14</title>
<path fill="none" stroke="#9a32cd" stroke-dasharray="5,2" d="M1146.43,-393.81C1220.79,-393.23 1334.07,-392.5 1432.5,-392.5 1432.5,-392.5 1432.5,-392.5 1972,-392.5 2066.91,-392.5 2176.56,-400.04 2244.72,-405.62"/>
<polygon fill="#9a32cd" stroke="#9a32cd" points="1146.17,-390.31 1136.2,-393.89 1146.23,-397.31 1146.17,-390.31"/>
<text text-anchor="middle" x="1611" y="-395.5" font-family="Helvetica,sans-Serif" font-size="10.00"> fully_qualified_endpoints</text>
</g>
<!-- Node29&#45;&gt;Node14 -->
<g id="edge36" class="edge">
<title>Node29&#45;&gt;Node14</title>
<path fill="none" stroke="#9a32cd" stroke-dasharray="5,2" d="M1529.48,-432.01C1708.47,-427.31 2091.48,-417.25 2244.93,-413.22"/>
<polygon fill="#9a32cd" stroke="#9a32cd" points="1529.2,-428.51 1519.29,-432.27 1529.38,-435.51 1529.2,-428.51"/>
<text text-anchor="middle" x="1791" y="-430.5" font-family="Helvetica,sans-Serif" font-size="10.00"> templated_endpoints</text>
</g>
<!-- Node30&#45;&gt;Node14 -->
<g id="edge39" class="edge">
<title>Node30&#45;&gt;Node14</title>
<path fill="none" stroke="#9a32cd" stroke-dasharray="5,2" d="M1889.32,-347.38C1977.21,-348.23 2109.61,-354.16 2222,-378.5 2240.75,-382.56 2260.85,-389.8 2277.14,-396.47"/>
<polygon fill="#9a32cd" stroke="#9a32cd" points="1889.12,-343.88 1879.1,-347.3 1889.07,-350.88 1889.12,-343.88"/>
<text text-anchor="middle" x="1971" y="-356.5" font-family="Helvetica,sans-Serif" font-size="10.00"> metrics</text>
</g>
<!-- Node31 -->
<g id="node31" class="node">
<title>Node31</title>
<g id="a_node31"><a xlink:href="classkv_1_1Consensus.html" target="_top" xlink:title=" ">
<polygon fill="white" stroke="black" points="1928,-497 1928,-516 2014,-516 2014,-497 1928,-497"/>
<text text-anchor="middle" x="1971" y="-504" font-family="Helvetica,sans-Serif" font-size="10.00">kv::Consensus</text>
</a>
</g>
</g>
<!-- Node31&#45;&gt;Node14 -->
<g id="edge41" class="edge">
<title>Node31&#45;&gt;Node14</title>
<path fill="none" stroke="#9a32cd" stroke-dasharray="5,2" d="M2024.33,-514.77C2078.65,-520.45 2163.68,-520.86 2222,-480.5 2236.71,-470.32 2227.19,-456.98 2240,-444.5 2247.55,-437.14 2257.04,-431.21 2266.6,-426.51"/>
<polygon fill="#9a32cd" stroke="#9a32cd" points="2024.55,-511.28 2014.22,-513.62 2023.76,-518.23 2024.55,-511.28"/>
<text text-anchor="middle" x="2142.5" y="-521.5" font-family="Helvetica,sans-Serif" font-size="10.00"> consensus</text>
</g>
<!-- Node32 -->
<g id="node32" class="node">
<title>Node32</title>
<g id="a_node32"><a xlink:href="classkv_1_1ConfigurableConsensus.html" target="_top" xlink:title=" ">
<polygon fill="white" stroke="black" points="1537,-497 1537,-516 1685,-516 1685,-497 1537,-497"/>
<text text-anchor="middle" x="1611" y="-504" font-family="Helvetica,sans-Serif" font-size="10.00">kv::ConfigurableConsensus</text>
</a>
</g>
</g>
<!-- Node32&#45;&gt;Node31 -->
<g id="edge42" class="edge">
<title>Node32&#45;&gt;Node31</title>
<path fill="none" stroke="midnightblue" d="M1695.38,-506.5C1768.21,-506.5 1870.92,-506.5 1927.85,-506.5"/>
<polygon fill="midnightblue" stroke="midnightblue" points="1695.31,-503 1685.31,-506.5 1695.31,-510 1695.31,-503"/>
</g>
<!-- Node33 -->
<g id="node33" class="node">
<title>Node33</title>
<g id="a_node33"><a xlink:href="classkv_1_1TxHistory.html" target="_top" xlink:title=" ">
<polygon fill="white" stroke="black" points="1930.5,-459 1930.5,-478 2011.5,-478 2011.5,-459 1930.5,-459"/>
<text text-anchor="middle" x="1971" y="-466" font-family="Helvetica,sans-Serif" font-size="10.00">kv::TxHistory</text>
</a>
</g>
</g>
<!-- Node33&#45;&gt;Node14 -->
<g id="edge43" class="edge">
<title>Node33&#45;&gt;Node14</title>
<path fill="none" stroke="#9a32cd" stroke-dasharray="5,2" d="M2021.99,-467.53C2072.91,-465.65 2153.83,-460.2 2222,-444.5 2240.38,-440.27 2260.1,-433.18 2276.26,-426.65"/>
<polygon fill="#9a32cd" stroke="#9a32cd" points="2021.79,-464.03 2011.91,-467.87 2022.03,-471.03 2021.79,-464.03"/>
<text text-anchor="middle" x="2142.5" y="-468.5" font-family="Helvetica,sans-Serif" font-size="10.00"> history</text>
</g>
<!-- Node34 -->
<g id="node34" class="node">
<title>Node34</title>
<g id="a_node34"><a xlink:href="classccf_1_1MemberEndpoints.html" target="_top" xlink:title=" ">
<polygon fill="white" stroke="black" points="2852,-413 2852,-432 2977,-432 2977,-413 2852,-413"/>
<text text-anchor="middle" x="2914.5" y="-420" font-family="Helvetica,sans-Serif" font-size="10.00">ccf::MemberEndpoints</text>
</a>
</g>
</g>
<!-- Node34&#45;&gt;Node1 -->
<g id="edge44" class="edge">
<title>Node34&#45;&gt;Node1</title>
<path fill="none" stroke="#9a32cd" stroke-dasharray="5,2" d="M2987.26,-427.68C3025.75,-430.46 3072.9,-433.87 3110.76,-436.61"/>
<polygon fill="#9a32cd" stroke="#9a32cd" points="2987.39,-424.18 2977.16,-426.95 2986.88,-431.17 2987.39,-424.18"/>
<text text-anchor="middle" x="3044" y="-438.5" font-family="Helvetica,sans-Serif" font-size="10.00"> member_endpoints</text>
</g>
<!-- Node35 -->
<g id="node35" class="node">
<title>Node35</title>
<g id="a_node35"><a xlink:href="classccf_1_1CommonEndpointRegistry.html" target="_top" xlink:title=" ">
<polygon fill="white" stroke="black" points="2651,-410 2651,-429 2815,-429 2815,-410 2651,-410"/>
<text text-anchor="middle" x="2733" y="-417" font-family="Helvetica,sans-Serif" font-size="10.00">ccf::CommonEndpointRegistry</text>
</a>
</g>
</g>
<!-- Node35&#45;&gt;Node34 -->
<g id="edge45" class="edge">
<title>Node35&#45;&gt;Node34</title>
<path fill="none" stroke="midnightblue" d="M2825.25,-421.03C2834.27,-421.18 2843.26,-421.33 2851.87,-421.47"/>
<polygon fill="midnightblue" stroke="midnightblue" points="2825.14,-417.52 2815.09,-420.86 2825.03,-424.52 2825.14,-417.52"/>
</g>
<!-- Node36&#45;&gt;Node35 -->
<g id="edge46" class="edge">
<title>Node36&#45;&gt;Node35</title>
<path fill="none" stroke="midnightblue" d="M2624.38,-410.94C2633.11,-411.63 2642,-412.34 2650.73,-413.03"/>
<polygon fill="midnightblue" stroke="midnightblue" points="2624.47,-407.43 2614.23,-410.13 2623.92,-414.41 2624.47,-407.43"/>
</g>
<!-- Node37 -->
<g id="node37" class="node">
<title>Node37</title>
<g id="a_node37"><a xlink:href="structccfapp_1_1AbstractNodeContext.html" target="_top" xlink:title=" ">
<polygon fill="white" stroke="black" points="2063,-102 2063,-121 2222,-121 2222,-102 2063,-102"/>
<text text-anchor="middle" x="2142.5" y="-109" font-family="Helvetica,sans-Serif" font-size="10.00">ccfapp::AbstractNodeContext</text>
</a>
</g>
</g>
<!-- Node37&#45;&gt;Node36 -->
<g id="edge48" class="edge">
<title>Node37&#45;&gt;Node36</title>
<path fill="none" stroke="#9a32cd" stroke-dasharray="5,2" d="M2165.13,-127.42C2237.51,-180.71 2470.03,-351.89 2528.21,-394.71"/>
<polygon fill="#9a32cd" stroke="#9a32cd" points="2166.87,-124.36 2156.74,-121.25 2162.72,-130 2166.87,-124.36"/>
<text text-anchor="middle" x="2311.5" y="-286.5" font-family="Helvetica,sans-Serif" font-size="10.00"> context</text>
</g>
<!-- Node38&#45;&gt;Node37 -->
<g id="edge49" class="edge">
<title>Node38&#45;&gt;Node37</title>
<path fill="none" stroke="#9a32cd" stroke-dasharray="5,2" d="M670.5,-39.79C736.43,-40.61 827.16,-41.5 907,-41.5 907,-41.5 907,-41.5 1792,-41.5 1913.6,-41.5 2054.44,-82.74 2113.34,-101.91"/>
<polygon fill="#9a32cd" stroke="#9a32cd" points="670.18,-36.29 660.14,-39.66 670.09,-43.29 670.18,-36.29"/>
<text text-anchor="middle" x="1242" y="-44.5" font-family="Helvetica,sans-Serif" font-size="10.00"> subsystems</text>
</g>
<!-- Node39 -->
<g id="node39" class="node">
<title>Node39</title>
<g id="a_node39"><a xlink:title=" ">
<polygon fill="white" stroke="black" points="210,-0.5 210,-30.5 365,-30.5 365,-0.5 210,-0.5"/>
<text text-anchor="start" x="218" y="-18.5" font-family="Helvetica,sans-Serif" font-size="10.00">std::shared_ptr&lt; ccf</text>
<text text-anchor="middle" x="287.5" y="-7.5" font-family="Helvetica,sans-Serif" font-size="10.00">::AbstractNodeSubSystem &gt;</text>
</a>
</g>
</g>
<!-- Node39&#45;&gt;Node38 -->
<g id="edge51" class="edge">
<title>Node39&#45;&gt;Node38</title>
<path fill="none" stroke="#9a32cd" stroke-dasharray="5,2" d="M375.65,-19.63C406.72,-21.37 441.95,-23.67 474,-26.5 480.48,-27.07 487.19,-27.73 493.93,-28.43"/>
<polygon fill="#9a32cd" stroke="#9a32cd" points="375.46,-16.11 365.29,-19.05 375.08,-23.1 375.46,-16.11"/>
<text text-anchor="middle" x="428.5" y="-29.5" font-family="Helvetica,sans-Serif" font-size="10.00"> elements</text>
</g>
<!-- Node40 -->
<g id="node40" class="node">
<title>Node40</title>
<g id="a_node40"><a xlink:href="classccf_1_1AbstractNodeSubSystem.html" target="_top" xlink:title=" ">
<polygon fill="white" stroke="black" points="0,-6 0,-25 157,-25 157,-6 0,-6"/>
<text text-anchor="middle" x="78.5" y="-13" font-family="Helvetica,sans-Serif" font-size="10.00">ccf::AbstractNodeSubSystem</text>
</a>
</g>
</g>
<!-- Node40&#45;&gt;Node39 -->
<g id="edge52" class="edge">
<title>Node40&#45;&gt;Node39</title>
<path fill="none" stroke="#9a32cd" stroke-dasharray="5,2" d="M167.35,-15.5C181.46,-15.5 195.96,-15.5 209.77,-15.5"/>
<polygon fill="#9a32cd" stroke="#9a32cd" points="167.17,-12 157.17,-15.5 167.17,-19 167.17,-12"/>
<text text-anchor="middle" x="183.5" y="-18.5" font-family="Helvetica,sans-Serif" font-size="10.00"> ptr</text>
</g>
</g>
</svg>
