<?xml version="1.0" encoding="UTF-8" standalone="no"?>
<!DOCTYPE svg PUBLIC "-//W3C//DTD SVG 1.1//EN"
 "http://www.w3.org/Graphics/SVG/1.1/DTD/svg11.dtd">
<!-- Generated by graphviz version 2.43.0 (0)
 -->
<!-- Title: ccf::SplitIdentityResharingTracker Pages: 1 -->
<!--zoomable 404 -->
<svg id="main" version="1.1" xmlns="http://www.w3.org/2000/svg" xmlns:xlink="http://www.w3.org/1999/xlink" xml:space="preserve" onload="init(evt)">
<style type="text/css"><![CDATA[
.edge:hover path { stroke: red; }
.edge:hover polygon { stroke: red; fill: red; }
]]></style>
<script type="text/javascript"><![CDATA[
var edges = document.getElementsByTagName('g');
if (edges && edges.length) {
  for (var i=0;i<edges.length;i++) {
    if (edges[i].id.substr(0,4)=='edge') {
      edges[i].setAttribute('class','edge');
    }
  }
}
]]></script>
        <defs>
                <circle id="rim" cx="0" cy="0" r="7"/>
                <circle id="rim2" cx="0" cy="0" r="3.5"/>
                <g id="zoomPlus">
                        <use xlink:href="#rim" fill="#404040">
                                <set attributeName="fill" to="#808080" begin="zoomplus.mouseover" end="zoomplus.mouseout"/>
                        </use>
                        <path d="M-4,0h8M0,-4v8" fill="none" stroke="white" stroke-width="1.5" pointer-events="none"/>
                </g>
                <g id="zoomMin">
                        <use xlink:href="#rim" fill="#404040">
                                <set attributeName="fill" to="#808080" begin="zoomminus.mouseover" end="zoomminus.mouseout"/>
                        </use>
                        <path d="M-4,0h8" fill="none" stroke="white" stroke-width="1.5" pointer-events="none"/>
                </g>
                <g id="dirArrow">
                        <path fill="none" stroke="white" stroke-width="1.5" d="M0,-3.0v7 M-2.5,-0.5L0,-3.0L2.5,-0.5"/>
                </g>
               <g id="resetDef">
                       <use xlink:href="#rim2" fill="#404040">
                               <set attributeName="fill" to="#808080" begin="reset.mouseover" end="reset.mouseout"/>
                       </use>
               </g>
        </defs>

<script type="text/javascript">
var viewWidth = 1820;
var viewHeight = 404;
var sectionId = 'dynsection-0';
</script>
<script xlink:href="svgpan.js"/>
<svg id="graph" class="graph">
<g id="viewport">
<title>ccf::SplitIdentityResharingTracker</title>
<polygon fill="white" stroke="transparent" points="-4,4 -4,-400 1816,-400 1816,4 -4,4"/>
<!-- Node1 -->
<g id="node1" class="node">
<title>Node1</title>
<g id="a_node1"><a xlink:title=" ">
<polygon fill="#bfbfbf" stroke="black" points="1668,-173 1668,-203 1812,-203 1812,-173 1668,-173"/>
<text text-anchor="start" x="1676" y="-191" font-family="Helvetica,sans-Serif" font-size="10.00">ccf::SplitIdentityResharing</text>
<text text-anchor="middle" x="1740" y="-180" font-family="Helvetica,sans-Serif" font-size="10.00">Tracker</text>
</a>
</g>
</g>
<!-- Node2 -->
<g id="node2" class="node">
<title>Node2</title>
<g id="a_node2"><a xlink:href="classccf_1_1ResharingTracker.html" target="_top" xlink:title=" ">
<polygon fill="white" stroke="black" points="1369.5,-354.5 1369.5,-373.5 1488.5,-373.5 1488.5,-354.5 1369.5,-354.5"/>
<text text-anchor="middle" x="1429" y="-361.5" font-family="Helvetica,sans-Serif" font-size="10.00">ccf::ResharingTracker</text>
</a>
</g>
</g>
<!-- Node2&#45;&gt;Node1 -->
<g id="edge1" class="edge">
<title>Node2&#45;&gt;Node1</title>
<path fill="none" stroke="midnightblue" d="M1499.17,-369.32C1545.39,-369.53 1605.62,-363.04 1650,-334 1698.69,-302.14 1724.99,-233.48 1734.65,-203.05"/>
<polygon fill="midnightblue" stroke="midnightblue" points="1498.99,-365.82 1488.94,-369.17 1498.88,-372.82 1498.99,-365.82"/>
</g>
<!-- Node3 -->
<g id="node3" class="node">
<title>Node3</title>
<g id="a_node3"><a xlink:title=" ">
<polygon fill="white" stroke="black" points="1372.5,-305 1372.5,-335 1485.5,-335 1485.5,-305 1372.5,-305"/>
<text text-anchor="start" x="1380.5" y="-323" font-family="Helvetica,sans-Serif" font-size="10.00">std::shared_ptr&lt; aft</text>
<text text-anchor="middle" x="1429" y="-312" font-family="Helvetica,sans-Serif" font-size="10.00">::State &gt;</text>
</a>
</g>
</g>
<!-- Node3&#45;&gt;Node1 -->
<g id="edge2" class="edge">
<title>Node3&#45;&gt;Node1</title>
<path fill="none" stroke="#9a32cd" stroke-dasharray="5,2" d="M1495.83,-322.44C1541.6,-321.43 1602.65,-314.52 1650,-289 1687.65,-268.71 1716.95,-225.82 1730.6,-203.01"/>
<polygon fill="#9a32cd" stroke="#9a32cd" points="1495.68,-318.94 1485.72,-322.57 1495.77,-325.94 1495.68,-318.94"/>
<text text-anchor="middle" x="1594" y="-322" font-family="Helvetica,sans-Serif" font-size="10.00"> shared_state</text>
</g>
<!-- Node4 -->
<g id="node4" class="node">
<title>Node4</title>
<g id="a_node4"><a xlink:href="structaft_1_1State.html" target="_top" xlink:title=" ">
<polygon fill="white" stroke="black" points="1065.5,-315.5 1065.5,-334.5 1126.5,-334.5 1126.5,-315.5 1065.5,-315.5"/>
<text text-anchor="middle" x="1096" y="-322.5" font-family="Helvetica,sans-Serif" font-size="10.00">aft::State</text>
</a>
</g>
</g>
<!-- Node4&#45;&gt;Node3 -->
<g id="edge3" class="edge">
<title>Node4&#45;&gt;Node3</title>
<path fill="none" stroke="#9a32cd" stroke-dasharray="5,2" d="M1137.03,-324.4C1195.82,-323.51 1305.74,-321.85 1372.36,-320.84"/>
<polygon fill="#9a32cd" stroke="#9a32cd" points="1136.61,-320.9 1126.67,-324.55 1136.72,-327.9 1136.61,-320.9"/>
<text text-anchor="middle" x="1253" y="-326" font-family="Helvetica,sans-Serif" font-size="10.00"> ptr</text>
</g>
<!-- Node5 -->
<g id="node5" class="node">
<title>Node5</title>
<g id="a_node5"><a xlink:title=" ">
<polygon fill="white" stroke="black" points="821,-278.5 821,-297.5 890,-297.5 890,-278.5 821,-278.5"/>
<text text-anchor="middle" x="855.5" y="-285.5" font-family="Helvetica,sans-Serif" font-size="10.00">std::mutex</text>
</a>
</g>
</g>
<!-- Node5&#45;&gt;Node4 -->
<g id="edge4" class="edge">
<title>Node5&#45;&gt;Node4</title>
<path fill="none" stroke="#9a32cd" stroke-dasharray="5,2" d="M900.16,-294.18C930,-298.46 970.42,-304.38 1006,-310 1025.81,-313.13 1048.06,-316.88 1065.36,-319.85"/>
<polygon fill="#9a32cd" stroke="#9a32cd" points="900.47,-290.69 890.08,-292.74 899.48,-297.62 900.47,-290.69"/>
<text text-anchor="middle" x="972.5" y="-313" font-family="Helvetica,sans-Serif" font-size="10.00"> lock</text>
</g>
<!-- Node6 -->
<g id="node6" class="node">
<title>Node6</title>
<g id="a_node6"><a xlink:title=" ">
<polygon fill="white" stroke="black" points="790,-354.5 790,-395.5 921,-395.5 921,-354.5 790,-354.5"/>
<text text-anchor="start" x="798" y="-383.5" font-family="Helvetica,sans-Serif" font-size="10.00">std::map&lt; ccf::EntityId,</text>
<text text-anchor="start" x="798" y="-372.5" font-family="Helvetica,sans-Serif" font-size="10.00"> std::shared_ptr&lt; aft</text>
<text text-anchor="middle" x="855.5" y="-361.5" font-family="Helvetica,sans-Serif" font-size="10.00">::Replica &gt; &gt;</text>
</a>
</g>
</g>
<!-- Node6&#45;&gt;Node4 -->
<g id="edge5" class="edge">
<title>Node6&#45;&gt;Node4</title>
<path fill="none" stroke="#9a32cd" stroke-dasharray="5,2" d="M930.88,-359.41C976.38,-349.87 1032.08,-338.19 1065.49,-331.19"/>
<polygon fill="#9a32cd" stroke="#9a32cd" points="930.11,-355.99 921.04,-361.47 931.55,-362.84 930.11,-355.99"/>
<text text-anchor="middle" x="972.5" y="-360" font-family="Helvetica,sans-Serif" font-size="10.00"> configuration</text>
</g>
<!-- Node7 -->
<g id="node7" class="node">
<title>Node7</title>
<g id="a_node7"><a xlink:href="structccf_1_1EntityId.html" target="_top" xlink:title=" ">
<polygon fill="white" stroke="black" points="294,-306.5 294,-325.5 453,-325.5 453,-306.5 294,-306.5"/>
<text text-anchor="middle" x="373.5" y="-313.5" font-family="Helvetica,sans-Serif" font-size="10.00">ccf::EntityId&lt; FmtExtender &gt;</text>
</a>
</g>
</g>
<!-- Node7&#45;&gt;Node6 -->
<g id="edge6" class="edge">
<title>Node7&#45;&gt;Node6</title>
<path fill="none" stroke="#9a32cd" stroke-dasharray="5,2" d="M463.09,-318.65C529.88,-321.56 623.59,-327.59 705,-340 733.07,-344.28 763.65,-351.05 789.81,-357.51"/>
<polygon fill="#9a32cd" stroke="#9a32cd" points="463.16,-315.15 453.02,-318.22 462.86,-322.14 463.16,-315.15"/>
<text text-anchor="middle" x="621.5" y="-343" font-family="Helvetica,sans-Serif" font-size="10.00"> keys</text>
</g>
<!-- Node18 -->
<g id="node18" class="node">
<title>Node18</title>
<g id="a_node18"><a xlink:title=" ">
<polygon fill="white" stroke="black" points="538,-252.5 538,-271.5 705,-271.5 705,-252.5 538,-252.5"/>
<text text-anchor="middle" x="621.5" y="-259.5" font-family="Helvetica,sans-Serif" font-size="10.00">std::map&lt; NodeId, NodeInfo &gt;</text>
</a>
</g>
</g>
<!-- Node7&#45;&gt;Node18 -->
<g id="edge18" class="edge">
<title>Node7&#45;&gt;Node18</title>
<path fill="none" stroke="#9a32cd" stroke-dasharray="5,2" d="M427.72,-304.32C472.4,-294.51 535.44,-280.67 577.11,-271.53"/>
<polygon fill="#9a32cd" stroke="#9a32cd" points="426.93,-300.91 417.91,-306.47 428.43,-307.74 426.93,-300.91"/>
<text text-anchor="middle" x="495.5" y="-296" font-family="Helvetica,sans-Serif" font-size="10.00"> keys</text>
</g>
<!-- Node8 -->
<g id="node8" class="node">
<title>Node8</title>
<g id="a_node8"><a xlink:title=" ">
<polygon fill="white" stroke="black" points="565,-360 565,-390 678,-390 678,-360 565,-360"/>
<text text-anchor="start" x="573" y="-378" font-family="Helvetica,sans-Serif" font-size="10.00">std::shared_ptr&lt; aft</text>
<text text-anchor="middle" x="621.5" y="-367" font-family="Helvetica,sans-Serif" font-size="10.00">::Replica &gt;</text>
</a>
</g>
</g>
<!-- Node8&#45;&gt;Node6 -->
<g id="edge7" class="edge">
<title>Node8&#45;&gt;Node6</title>
<path fill="none" stroke="#9a32cd" stroke-dasharray="5,2" d="M688.18,-375C720.05,-375 758.21,-375 789.93,-375"/>
<polygon fill="#9a32cd" stroke="#9a32cd" points="688.07,-371.5 678.07,-375 688.07,-378.5 688.07,-371.5"/>
<text text-anchor="middle" x="747.5" y="-378" font-family="Helvetica,sans-Serif" font-size="10.00"> elements</text>
</g>
<!-- Node9 -->
<g id="node9" class="node">
<title>Node9</title>
<g id="a_node9"><a xlink:href="classaft_1_1Replica.html" target="_top" xlink:title=" ">
<polygon fill="white" stroke="black" points="338,-365.5 338,-384.5 409,-384.5 409,-365.5 338,-365.5"/>
<text text-anchor="middle" x="373.5" y="-372.5" font-family="Helvetica,sans-Serif" font-size="10.00">aft::Replica</text>
</a>
</g>
</g>
<!-- Node9&#45;&gt;Node8 -->
<g id="edge8" class="edge">
<title>Node9&#45;&gt;Node8</title>
<path fill="none" stroke="#9a32cd" stroke-dasharray="5,2" d="M419.42,-375C460.26,-375 520.69,-375 564.63,-375"/>
<polygon fill="#9a32cd" stroke="#9a32cd" points="419.22,-371.5 409.22,-375 419.22,-378.5 419.22,-371.5"/>
<text text-anchor="middle" x="495.5" y="-378" font-family="Helvetica,sans-Serif" font-size="10.00"> ptr</text>
</g>
<!-- Node10 -->
<g id="node10" class="node">
<title>Node10</title>
<g id="a_node10"><a xlink:href="classaft_1_1ViewHistory.html" target="_top" xlink:title=" ">
<polygon fill="white" stroke="black" points="808,-316.5 808,-335.5 903,-335.5 903,-316.5 808,-316.5"/>
<text text-anchor="middle" x="855.5" y="-323.5" font-family="Helvetica,sans-Serif" font-size="10.00">aft::ViewHistory</text>
</a>
</g>
</g>
<!-- Node10&#45;&gt;Node4 -->
<g id="edge9" class="edge">
<title>Node10&#45;&gt;Node4</title>
<path fill="none" stroke="#9a32cd" stroke-dasharray="5,2" d="M913.26,-325.76C961.09,-325.56 1027.62,-325.28 1065.5,-325.12"/>
<polygon fill="#9a32cd" stroke="#9a32cd" points="913.04,-322.26 903.05,-325.8 913.07,-329.26 913.04,-322.26"/>
<text text-anchor="middle" x="972.5" y="-328" font-family="Helvetica,sans-Serif" font-size="10.00"> view_history</text>
</g>
<!-- Node11 -->
<g id="node11" class="node">
<title>Node11</title>
<g id="a_node11"><a xlink:title=" ">
<polygon fill="white" stroke="black" points="1359.5,-137 1359.5,-167 1498.5,-167 1498.5,-137 1359.5,-137"/>
<text text-anchor="start" x="1367.5" y="-155" font-family="Helvetica,sans-Serif" font-size="10.00">std::shared_ptr&lt; enclave</text>
<text text-anchor="middle" x="1429" y="-144" font-family="Helvetica,sans-Serif" font-size="10.00">::RPCMap &gt;</text>
</a>
</g>
</g>
<!-- Node11&#45;&gt;Node1 -->
<g id="edge10" class="edge">
<title>Node11&#45;&gt;Node1</title>
<path fill="none" stroke="#9a32cd" stroke-dasharray="5,2" d="M1508.52,-161.15C1557.61,-166.87 1620.32,-174.17 1667.93,-179.72"/>
<polygon fill="#9a32cd" stroke="#9a32cd" points="1508.91,-157.67 1498.58,-159.99 1508.1,-164.62 1508.91,-157.67"/>
<text text-anchor="middle" x="1594" y="-180" font-family="Helvetica,sans-Serif" font-size="10.00"> rpc_map</text>
</g>
<!-- Node12 -->
<g id="node12" class="node">
<title>Node12</title>
<g id="a_node12"><a xlink:href="classenclave_1_1RPCMap.html" target="_top" xlink:title=" ">
<polygon fill="white" stroke="black" points="1045.5,-142.5 1045.5,-161.5 1146.5,-161.5 1146.5,-142.5 1045.5,-142.5"/>
<text text-anchor="middle" x="1096" y="-149.5" font-family="Helvetica,sans-Serif" font-size="10.00">enclave::RPCMap</text>
</a>
</g>
</g>
<!-- Node12&#45;&gt;Node11 -->
<g id="edge11" class="edge">
<title>Node12&#45;&gt;Node11</title>
<path fill="none" stroke="#9a32cd" stroke-dasharray="5,2" d="M1156.85,-152C1213.87,-152 1299.63,-152 1359.39,-152"/>
<polygon fill="#9a32cd" stroke="#9a32cd" points="1156.55,-148.5 1146.55,-152 1156.55,-155.5 1156.55,-148.5"/>
<text text-anchor="middle" x="1253" y="-155" font-family="Helvetica,sans-Serif" font-size="10.00"> ptr</text>
</g>
<!-- Node13 -->
<g id="node13" class="node">
<title>Node13</title>
<g id="a_node13"><a xlink:title=" ">
<polygon fill="white" stroke="black" points="1355,-98.5 1355,-117.5 1503,-117.5 1503,-98.5 1355,-98.5"/>
<text text-anchor="middle" x="1429" y="-105.5" font-family="Helvetica,sans-Serif" font-size="10.00">std::shared_ptr&lt; KeyPair &gt;</text>
</a>
</g>
</g>
<!-- Node13&#45;&gt;Node1 -->
<g id="edge12" class="edge">
<title>Node13&#45;&gt;Node1</title>
<path fill="none" stroke="#9a32cd" stroke-dasharray="5,2" d="M1513.19,-118.9C1554.82,-125.52 1605.66,-135.35 1650,-149 1670.32,-155.25 1692.19,-164.8 1709.17,-172.88"/>
<polygon fill="#9a32cd" stroke="#9a32cd" points="1513.51,-115.41 1503.09,-117.33 1512.44,-122.33 1513.51,-115.41"/>
<text text-anchor="middle" x="1594" y="-152" font-family="Helvetica,sans-Serif" font-size="10.00"> node_sign_kp</text>
</g>
<!-- Node14 -->
<g id="node14" class="node">
<title>Node14</title>
<g id="a_node14"><a xlink:href="classcrypto_1_1Pem.html" target="_top" xlink:title=" ">
<polygon fill="white" stroke="black" points="1391.5,-60.5 1391.5,-79.5 1466.5,-79.5 1466.5,-60.5 1391.5,-60.5"/>
<text text-anchor="middle" x="1429" y="-67.5" font-family="Helvetica,sans-Serif" font-size="10.00">crypto::Pem</text>
</a>
</g>
</g>
<!-- Node14&#45;&gt;Node1 -->
<g id="edge13" class="edge">
<title>Node14&#45;&gt;Node1</title>
<path fill="none" stroke="#9a32cd" stroke-dasharray="5,2" d="M1476.55,-70.63C1522.72,-72.91 1594.4,-81.03 1650,-108 1682.15,-123.6 1711.28,-154.35 1726.93,-172.85"/>
<polygon fill="#9a32cd" stroke="#9a32cd" points="1476.67,-67.13 1466.54,-70.21 1476.38,-74.12 1476.67,-67.13"/>
<text text-anchor="middle" x="1594" y="-111" font-family="Helvetica,sans-Serif" font-size="10.00"> self_signed_node_cert</text>
</g>
<!-- Node15 -->
<g id="node15" class="node">
<title>Node15</title>
<g id="a_node15"><a xlink:title=" ">
<polygon fill="white" stroke="black" points="1338,-186 1338,-238 1520,-238 1520,-186 1338,-186"/>
<text text-anchor="start" x="1346" y="-226" font-family="Helvetica,sans-Serif" font-size="10.00">std::unordered_map</text>
<text text-anchor="start" x="1346" y="-215" font-family="Helvetica,sans-Serif" font-size="10.00">&lt; kv::ReconfigurationId,</text>
<text text-anchor="start" x="1346" y="-204" font-family="Helvetica,sans-Serif" font-size="10.00"> ccf::SplitIdentityResharingTracker</text>
<text text-anchor="middle" x="1429" y="-193" font-family="Helvetica,sans-Serif" font-size="10.00">::ResharingSession &gt;</text>
</a>
</g>
</g>
<!-- Node15&#45;&gt;Node1 -->
<g id="edge14" class="edge">
<title>Node15&#45;&gt;Node1</title>
<path fill="none" stroke="#9a32cd" stroke-dasharray="5,2" d="M1530.26,-204.21C1575.14,-200.73 1627.02,-196.7 1667.83,-193.53"/>
<polygon fill="#9a32cd" stroke="#9a32cd" points="1529.91,-200.73 1520.21,-204.99 1530.45,-207.71 1529.91,-200.73"/>
<text text-anchor="middle" x="1594" y="-206" font-family="Helvetica,sans-Serif" font-size="10.00"> sessions</text>
</g>
<!-- Node16 -->
<g id="node16" class="node">
<title>Node16</title>
<g id="a_node16"><a xlink:href="classccf_1_1SplitIdentityResharingTracker_1_1ResharingSession.html" target="_top" xlink:title=" ">
<polygon fill="white" stroke="black" points="1024,-197 1024,-227 1168,-227 1168,-197 1024,-197"/>
<text text-anchor="start" x="1032" y="-215" font-family="Helvetica,sans-Serif" font-size="10.00">ccf::SplitIdentityResharing</text>
<text text-anchor="middle" x="1096" y="-204" font-family="Helvetica,sans-Serif" font-size="10.00">Tracker::ResharingSession</text>
</a>
</g>
</g>
<!-- Node16&#45;&gt;Node15 -->
<g id="edge15" class="edge">
<title>Node16&#45;&gt;Node15</title>
<path fill="none" stroke="#9a32cd" stroke-dasharray="5,2" d="M1178.12,-212C1226.49,-212 1287.98,-212 1337.86,-212"/>
<polygon fill="#9a32cd" stroke="#9a32cd" points="1178.01,-208.5 1168.01,-212 1178.01,-215.5 1178.01,-208.5"/>
<text text-anchor="middle" x="1253" y="-215" font-family="Helvetica,sans-Serif" font-size="10.00"> elements</text>
</g>
<!-- Node17 -->
<g id="node17" class="node">
<title>Node17</title>
<g id="a_node17"><a xlink:href="structkv_1_1Configuration.html" target="_top" xlink:title=" ">
<polygon fill="white" stroke="black" points="806,-240.5 806,-259.5 905,-259.5 905,-240.5 806,-240.5"/>
<text text-anchor="middle" x="855.5" y="-247.5" font-family="Helvetica,sans-Serif" font-size="10.00">kv::Configuration</text>
</a>
</g>
</g>
<!-- Node17&#45;&gt;Node16 -->
<g id="edge16" class="edge">
<title>Node17&#45;&gt;Node16</title>
<path fill="none" stroke="#9a32cd" stroke-dasharray="5,2" d="M889.99,-236.96C904.79,-231.75 922.54,-226.22 939,-223 966.44,-217.63 997.06,-214.8 1023.85,-213.33"/>
<polygon fill="#9a32cd" stroke="#9a32cd" points="888.48,-233.79 880.27,-240.49 890.87,-240.37 888.48,-233.79"/>
<text text-anchor="middle" x="972.5" y="-226" font-family="Helvetica,sans-Serif" font-size="10.00"> config</text>
</g>
<!-- Node24 -->
<g id="node24" class="node">
<title>Node24</title>
<g id="a_node24"><a xlink:title=" ">
<polygon fill="white" stroke="black" points="1186,-244.5 1186,-285.5 1320,-285.5 1320,-244.5 1186,-244.5"/>
<text text-anchor="start" x="1194" y="-273.5" font-family="Helvetica,sans-Serif" font-size="10.00">std::unordered_map</text>
<text text-anchor="start" x="1194" y="-262.5" font-family="Helvetica,sans-Serif" font-size="10.00">&lt; kv::ReconfigurationId,</text>
<text text-anchor="middle" x="1253" y="-251.5" font-family="Helvetica,sans-Serif" font-size="10.00"> kv::Configuration &gt;</text>
</a>
</g>
</g>
<!-- Node17&#45;&gt;Node24 -->
<g id="edge25" class="edge">
<title>Node17&#45;&gt;Node24</title>
<path fill="none" stroke="#9a32cd" stroke-dasharray="5,2" d="M915.7,-252.25C988.1,-254.99 1110.31,-259.63 1185.77,-262.49"/>
<polygon fill="#9a32cd" stroke="#9a32cd" points="915.52,-248.74 905.39,-251.85 915.25,-255.73 915.52,-248.74"/>
<text text-anchor="middle" x="972.5" y="-258" font-family="Helvetica,sans-Serif" font-size="10.00"> elements</text>
</g>
<!-- Node18&#45;&gt;Node17 -->
<g id="edge17" class="edge">
<title>Node18&#45;&gt;Node17</title>
<path fill="none" stroke="#9a32cd" stroke-dasharray="5,2" d="M715.66,-257.18C746.57,-255.58 779.73,-253.87 805.89,-252.51"/>
<polygon fill="#9a32cd" stroke="#9a32cd" points="715.08,-253.71 705.27,-257.72 715.44,-260.7 715.08,-253.71"/>
<text text-anchor="middle" x="747.5" y="-259" font-family="Helvetica,sans-Serif" font-size="10.00"> nodes</text>
</g>
<!-- Node19 -->
<g id="node19" class="node">
<title>Node19</title>
<g id="a_node19"><a xlink:href="structkv_1_1Configuration_1_1NodeInfo.html" target="_top" xlink:title=" ">
<polygon fill="white" stroke="black" points="321,-247 321,-277 426,-277 426,-247 321,-247"/>
<text text-anchor="start" x="329" y="-265" font-family="Helvetica,sans-Serif" font-size="10.00">kv::Configuration::</text>
<text text-anchor="middle" x="373.5" y="-254" font-family="Helvetica,sans-Serif" font-size="10.00">NodeInfo</text>
</a>
</g>
</g>
<!-- Node19&#45;&gt;Node18 -->
<g id="edge19" class="edge">
<title>Node19&#45;&gt;Node18</title>
<path fill="none" stroke="#9a32cd" stroke-dasharray="5,2" d="M436.19,-262C466.87,-262 504.38,-262 537.53,-262"/>
<polygon fill="#9a32cd" stroke="#9a32cd" points="436.07,-258.5 426.07,-262 436.07,-265.5 436.07,-258.5"/>
<text text-anchor="middle" x="495.5" y="-265" font-family="Helvetica,sans-Serif" font-size="10.00"> elements</text>
</g>
<!-- Node20 -->
<g id="node20" class="node">
<title>Node20</title>
<g id="a_node20"><a xlink:title=" ">
<polygon fill="white" stroke="black" points="141,-252.5 141,-271.5 206,-271.5 206,-252.5 141,-252.5"/>
<text text-anchor="middle" x="173.5" y="-259.5" font-family="Helvetica,sans-Serif" font-size="10.00">std::string</text>
</a>
</g>
</g>
<!-- Node20&#45;&gt;Node19 -->
<g id="edge20" class="edge">
<title>Node20&#45;&gt;Node19</title>
<path fill="none" stroke="#9a32cd" stroke-dasharray="5,2" d="M216.58,-262C246.99,-262 288.25,-262 320.68,-262"/>
<polygon fill="#9a32cd" stroke="#9a32cd" points="216.31,-258.5 206.31,-262 216.31,-265.5 216.31,-258.5"/>
<text text-anchor="middle" x="250" y="-276" font-family="Helvetica,sans-Serif" font-size="10.00"> hostname</text>
<text text-anchor="middle" x="250" y="-265" font-family="Helvetica,sans-Serif" font-size="10.00">port</text>
</g>
<!-- Node21 -->
<g id="node21" class="node">
<title>Node21</title>
<g id="a_node21"><a xlink:title=" ">
<polygon fill="white" stroke="black" points="0,-247 0,-277 104,-277 104,-247 0,-247"/>
<text text-anchor="start" x="8" y="-265" font-family="Helvetica,sans-Serif" font-size="10.00">std::basic_string&lt;</text>
<text text-anchor="middle" x="52" y="-254" font-family="Helvetica,sans-Serif" font-size="10.00"> Char &gt;</text>
</a>
</g>
</g>
<!-- Node21&#45;&gt;Node20 -->
<g id="edge21" class="edge">
<title>Node21&#45;&gt;Node20</title>
<path fill="none" stroke="midnightblue" d="M114.1,-262C123.41,-262 132.68,-262 141,-262"/>
<polygon fill="midnightblue" stroke="midnightblue" points="114.03,-258.5 104.03,-262 114.03,-265.5 114.03,-258.5"/>
</g>
<!-- Node22 -->
<g id="node22" class="node">
<title>Node22</title>
<g id="a_node22"><a xlink:title=" ">
<polygon fill="white" stroke="black" points="1362,-0.5 1362,-41.5 1496,-41.5 1496,-0.5 1362,-0.5"/>
<text text-anchor="start" x="1370" y="-29.5" font-family="Helvetica,sans-Serif" font-size="10.00">std::unordered_map</text>
<text text-anchor="start" x="1370" y="-18.5" font-family="Helvetica,sans-Serif" font-size="10.00">&lt; kv::ReconfigurationId,</text>
<text text-anchor="middle" x="1429" y="-7.5" font-family="Helvetica,sans-Serif" font-size="10.00"> ccf::ResharingResult &gt;</text>
</a>
</g>
</g>
<!-- Node22&#45;&gt;Node1 -->
<g id="edge22" class="edge">
<title>Node22&#45;&gt;Node1</title>
<path fill="none" stroke="#9a32cd" stroke-dasharray="5,2" d="M1506.38,-20.74C1551.3,-23.87 1607.45,-33.75 1650,-61 1693.3,-88.74 1721.53,-145.78 1733.08,-172.96"/>
<polygon fill="#9a32cd" stroke="#9a32cd" points="1506.58,-17.24 1496.39,-20.14 1506.16,-24.23 1506.58,-17.24"/>
<text text-anchor="middle" x="1594" y="-64" font-family="Helvetica,sans-Serif" font-size="10.00"> results</text>
</g>
<!-- Node23 -->
<g id="node23" class="node">
<title>Node23</title>
<g id="a_node23"><a xlink:href="structccf_1_1ResharingResult.html" target="_top" xlink:title=" ">
<polygon fill="white" stroke="black" points="1038,-11.5 1038,-30.5 1154,-30.5 1154,-11.5 1038,-11.5"/>
<text text-anchor="middle" x="1096" y="-18.5" font-family="Helvetica,sans-Serif" font-size="10.00">ccf::ResharingResult</text>
</a>
</g>
</g>
<!-- Node23&#45;&gt;Node22 -->
<g id="edge23" class="edge">
<title>Node23&#45;&gt;Node22</title>
<path fill="none" stroke="#9a32cd" stroke-dasharray="5,2" d="M1164.38,-21C1222,-21 1304.46,-21 1361.76,-21"/>
<polygon fill="#9a32cd" stroke="#9a32cd" points="1164.28,-17.5 1154.28,-21 1164.28,-24.5 1164.28,-17.5"/>
<text text-anchor="middle" x="1253" y="-24" font-family="Helvetica,sans-Serif" font-size="10.00"> elements</text>
</g>
<!-- Node24&#45;&gt;Node1 -->
<g id="edge24" class="edge">
<title>Node24&#45;&gt;Node1</title>
<path fill="none" stroke="#9a32cd" stroke-dasharray="5,2" d="M1330.24,-263.42C1383.61,-261.51 1456.45,-257.3 1520,-248 1578.67,-239.41 1592.95,-234.16 1650,-218 1665.53,-213.6 1682.36,-208.12 1697.16,-203.05"/>
<polygon fill="#9a32cd" stroke="#9a32cd" points="1330.05,-259.93 1320.17,-263.76 1330.29,-266.92 1330.05,-259.93"/>
<text text-anchor="middle" x="1429" y="-266" font-family="Helvetica,sans-Serif" font-size="10.00"> configs</text>
</g>
</g>
</svg>
        <g id="navigator" transform="translate(0 0)" fill="#404254">
                <rect fill="#f2f5e9" fill-opacity="0.5" stroke="#606060" stroke-width=".5" x="0" y="0" width="60" height="60"/>
                <use id="zoomplus" xlink:href="#zoomPlus" x="17" y="9" onmousedown="handleZoom(evt,'in')"/>
                <use id="zoomminus" xlink:href="#zoomMin" x="42" y="9" onmousedown="handleZoom(evt,'out')"/>
                <use id="reset" xlink:href="#resetDef" x="30" y="36" onmousedown="handleReset()"/>
                <g id="arrowUp" xlink:href="#dirArrow" transform="translate(30 24)" onmousedown="handlePan(0,-1)">
                  <use xlink:href="#rim" fill="#404040">
                        <set attributeName="fill" to="#808080" begin="arrowUp.mouseover" end="arrowUp.mouseout"/>
                  </use>
                  <path fill="none" stroke="white" stroke-width="1.5" d="M0,-3.0v7 M-2.5,-0.5L0,-3.0L2.5,-0.5"/>
                </g>
                <g id="arrowRight" xlink:href="#dirArrow" transform="rotate(90) translate(36 -43)" onmousedown="handlePan(1,0)">
                  <use xlink:href="#rim" fill="#404040">
                        <set attributeName="fill" to="#808080" begin="arrowRight.mouseover" end="arrowRight.mouseout"/>
                  </use>
                  <path fill="none" stroke="white" stroke-width="1.5" d="M0,-3.0v7 M-2.5,-0.5L0,-3.0L2.5,-0.5"/>
                </g>
                <g id="arrowDown" xlink:href="#dirArrow" transform="rotate(180) translate(-30 -48)" onmousedown="handlePan(0,1)">
                  <use xlink:href="#rim" fill="#404040">
                        <set attributeName="fill" to="#808080" begin="arrowDown.mouseover" end="arrowDown.mouseout"/>
                  </use>
                  <path fill="none" stroke="white" stroke-width="1.5" d="M0,-3.0v7 M-2.5,-0.5L0,-3.0L2.5,-0.5"/>
                </g>
                <g id="arrowLeft" xlink:href="#dirArrow" transform="rotate(270) translate(-36 17)" onmousedown="handlePan(-1,0)">
                  <use xlink:href="#rim" fill="#404040">
                        <set attributeName="fill" to="#808080" begin="arrowLeft.mouseover" end="arrowLeft.mouseout"/>
                  </use>
                  <path fill="none" stroke="white" stroke-width="1.5" d="M0,-3.0v7 M-2.5,-0.5L0,-3.0L2.5,-0.5"/>
                </g>
        </g>
        <svg viewBox="0 0 15 15" width="100%" height="30px" preserveAspectRatio="xMaxYMin meet">
         <g id="arrow_out" transform="scale(0.3 0.3)">
          <a xlink:href="classccf_1_1SplitIdentityResharingTracker__coll__graph_org.svg" target="_base">
           <rect id="button" ry="5" rx="5" y="6" x="6" height="38" width="38"
                fill="#f2f5e9" fill-opacity="0.5" stroke="#606060" stroke-width="1.0"/>
           <path id="arrow"
             d="M 11.500037,31.436501 C 11.940474,20.09759 22.043105,11.32322 32.158766,21.979434 L 37.068811,17.246167 C 37.068811,17.246167 37.088388,32 37.088388,32 L 22.160133,31.978069 C 22.160133,31.978069 26.997745,27.140456 26.997745,27.140456 C 18.528582,18.264221 13.291696,25.230495 11.500037,31.436501 z"
             style="fill:#404040;"/>
          </a>
         </g>
        </svg>
</svg>
