<?xml version="1.0" encoding="UTF-8" standalone="no"?>
<!DOCTYPE svg PUBLIC "-//W3C//DTD SVG 1.1//EN"
 "http://www.w3.org/Graphics/SVG/1.1/DTD/svg11.dtd">
<!-- Generated by graphviz version 2.43.0 (0)
 -->
<!-- Title: http::HTTPServerEndpoint Pages: 1 -->
<!--zoomable 171 -->
<svg id="main" version="1.1" xmlns="http://www.w3.org/2000/svg" xmlns:xlink="http://www.w3.org/1999/xlink" xml:space="preserve" onload="init(evt)">
<style type="text/css"><![CDATA[
.edge:hover path { stroke: red; }
.edge:hover polygon { stroke: red; fill: red; }
]]></style>
<script type="text/javascript"><![CDATA[
var edges = document.getElementsByTagName('g');
if (edges && edges.length) {
  for (var i=0;i<edges.length;i++) {
    if (edges[i].id.substr(0,4)=='edge') {
      edges[i].setAttribute('class','edge');
    }
  }
}
]]></script>
        <defs>
                <circle id="rim" cx="0" cy="0" r="7"/>
                <circle id="rim2" cx="0" cy="0" r="3.5"/>
                <g id="zoomPlus">
                        <use xlink:href="#rim" fill="#404040">
                                <set attributeName="fill" to="#808080" begin="zoomplus.mouseover" end="zoomplus.mouseout"/>
                        </use>
                        <path d="M-4,0h8M0,-4v8" fill="none" stroke="white" stroke-width="1.5" pointer-events="none"/>
                </g>
                <g id="zoomMin">
                        <use xlink:href="#rim" fill="#404040">
                                <set attributeName="fill" to="#808080" begin="zoomminus.mouseover" end="zoomminus.mouseout"/>
                        </use>
                        <path d="M-4,0h8" fill="none" stroke="white" stroke-width="1.5" pointer-events="none"/>
                </g>
                <g id="dirArrow">
                        <path fill="none" stroke="white" stroke-width="1.5" d="M0,-3.0v7 M-2.5,-0.5L0,-3.0L2.5,-0.5"/>
                </g>
               <g id="resetDef">
                       <use xlink:href="#rim2" fill="#404040">
                               <set attributeName="fill" to="#808080" begin="reset.mouseover" end="reset.mouseout"/>
                       </use>
               </g>
        </defs>

<script type="text/javascript">
var viewWidth = 1071;
var viewHeight = 171;
var sectionId = 'dynsection-0';
</script>
<script xlink:href="svgpan.js"/>
<svg id="graph" class="graph">
<g id="viewport">
<title>http::HTTPServerEndpoint</title>
<polygon fill="white" stroke="transparent" points="-4,4 -4,-167 1067,-167 1067,4 -4,4"/>
<!-- Node1 -->
<g id="node1" class="node">
<title>Node1</title>
<g id="a_node1"><a xlink:title=" ">
<polygon fill="#bfbfbf" stroke="black" points="921,-48 921,-67 1063,-67 1063,-48 921,-48"/>
<text text-anchor="middle" x="992" y="-55" font-family="Helvetica,sans-Serif" font-size="10.00">http::HTTPServerEndpoint</text>
</a>
</g>
</g>
<!-- Node2 -->
<g id="node2" class="node">
<title>Node2</title>
<g id="a_node2"><a xlink:href="classhttp_1_1HTTPEndpoint.html" target="_top" xlink:title=" ">
<polygon fill="white" stroke="black" points="764.5,-74 764.5,-93 874.5,-93 874.5,-74 764.5,-74"/>
<text text-anchor="middle" x="819.5" y="-81" font-family="Helvetica,sans-Serif" font-size="10.00">http::HTTPEndpoint</text>
</a>
</g>
</g>
<!-- Node2&#45;&gt;Node1 -->
<g id="edge1" class="edge">
<title>Node2&#45;&gt;Node1</title>
<path fill="none" stroke="midnightblue" d="M885.1,-73.65C899.32,-71.48 914.36,-69.19 928.5,-67.03"/>
<polygon fill="midnightblue" stroke="midnightblue" points="884.27,-70.23 874.92,-75.2 885.33,-77.15 884.27,-70.23"/>
</g>
<!-- Node3 -->
<g id="node3" class="node">
<title>Node3</title>
<g id="a_node3"><a xlink:href="classenclave_1_1TLSEndpoint.html" target="_top" xlink:title=" ">
<polygon fill="white" stroke="black" points="588,-94 588,-113 709,-113 709,-94 588,-94"/>
<text text-anchor="middle" x="648.5" y="-101" font-family="Helvetica,sans-Serif" font-size="10.00">enclave::TLSEndpoint</text>
</a>
</g>
</g>
<!-- Node3&#45;&gt;Node2 -->
<g id="edge2" class="edge">
<title>Node3&#45;&gt;Node2</title>
<path fill="none" stroke="midnightblue" d="M719.34,-95.24C734.33,-93.46 749.95,-91.61 764.25,-89.92"/>
<polygon fill="midnightblue" stroke="midnightblue" points="718.6,-91.8 709.08,-96.45 719.43,-98.75 718.6,-91.8"/>
</g>
<!-- Node4 -->
<g id="node4" class="node">
<title>Node4</title>
<g id="a_node4"><a xlink:href="classenclave_1_1Endpoint.html" target="_top" xlink:title=" ">
<polygon fill="white" stroke="black" points="379.5,-138 379.5,-157 483.5,-157 483.5,-138 379.5,-138"/>
<text text-anchor="middle" x="431.5" y="-145" font-family="Helvetica,sans-Serif" font-size="10.00">enclave::Endpoint</text>
</a>
</g>
</g>
<!-- Node4&#45;&gt;Node3 -->
<g id="edge3" class="edge">
<title>Node4&#45;&gt;Node3</title>
<path fill="none" stroke="midnightblue" d="M489.18,-135.9C524.03,-128.77 568.14,-119.74 600.94,-113.03"/>
<polygon fill="midnightblue" stroke="midnightblue" points="488.25,-132.52 479.15,-137.95 489.65,-139.38 488.25,-132.52"/>
</g>
<!-- Node5 -->
<g id="node5" class="node">
<title>Node5</title>
<g id="a_node5"><a xlink:title=" ">
<polygon fill="white" stroke="black" points="141,-132.5 141,-162.5 275,-162.5 275,-132.5 141,-132.5"/>
<text text-anchor="start" x="149" y="-150.5" font-family="Helvetica,sans-Serif" font-size="10.00">std::enable_shared</text>
<text text-anchor="middle" x="208" y="-139.5" font-family="Helvetica,sans-Serif" font-size="10.00">_from_this&lt; Endpoint &gt;</text>
</a>
</g>
</g>
<!-- Node5&#45;&gt;Node4 -->
<g id="edge4" class="edge">
<title>Node5&#45;&gt;Node4</title>
<path fill="none" stroke="midnightblue" d="M285.52,-147.5C316.57,-147.5 351.6,-147.5 379.45,-147.5"/>
<polygon fill="midnightblue" stroke="midnightblue" points="285.16,-144 275.16,-147.5 285.16,-151 285.16,-144"/>
</g>
<!-- Node6 -->
<g id="node6" class="node">
<title>Node6</title>
<g id="a_node6"><a xlink:title=" ">
<polygon fill="white" stroke="black" points="361,-88.5 361,-118.5 502,-118.5 502,-88.5 361,-88.5"/>
<text text-anchor="start" x="369" y="-106.5" font-family="Helvetica,sans-Serif" font-size="10.00">std::shared_ptr&lt; Abstract</text>
<text text-anchor="middle" x="431.5" y="-95.5" font-family="Helvetica,sans-Serif" font-size="10.00">Writer &gt;</text>
</a>
</g>
</g>
<!-- Node6&#45;&gt;Node3 -->
<g id="edge5" class="edge">
<title>Node6&#45;&gt;Node3</title>
<path fill="none" stroke="#9a32cd" stroke-dasharray="5,2" d="M512.23,-103.5C537.31,-103.5 564.56,-103.5 587.98,-103.5"/>
<polygon fill="#9a32cd" stroke="#9a32cd" points="512.01,-100 502.01,-103.5 512.01,-107 512.01,-100"/>
<text text-anchor="middle" x="545.5" y="-106.5" font-family="Helvetica,sans-Serif" font-size="10.00"> to_host</text>
</g>
<!-- Node7 -->
<g id="node7" class="node">
<title>Node7</title>
<g id="a_node7"><a xlink:href="classhttp_1_1Parser.html" target="_top" xlink:title=" ">
<polygon fill="white" stroke="black" points="612.5,-50 612.5,-69 684.5,-69 684.5,-50 612.5,-50"/>
<text text-anchor="middle" x="648.5" y="-57" font-family="Helvetica,sans-Serif" font-size="10.00">http::Parser</text>
</a>
</g>
</g>
<!-- Node7&#45;&gt;Node2 -->
<g id="edge6" class="edge">
<title>Node7&#45;&gt;Node2</title>
<path fill="none" stroke="#9a32cd" stroke-dasharray="5,2" d="M694.64,-65.91C716.04,-68.95 741.77,-72.6 764.22,-75.79"/>
<polygon fill="#9a32cd" stroke="#9a32cd" points="694.91,-62.41 684.52,-64.47 693.93,-69.34 694.91,-62.41"/>
<text text-anchor="middle" x="732" y="-74.5" font-family="Helvetica,sans-Serif" font-size="10.00"> p</text>
</g>
<!-- Node8 -->
<g id="node8" class="node">
<title>Node8</title>
<g id="a_node8"><a xlink:title=" ">
<polygon fill="white" stroke="black" points="369,-50 369,-69 494,-69 494,-50 369,-50"/>
<text text-anchor="middle" x="431.5" y="-57" font-family="Helvetica,sans-Serif" font-size="10.00">std::vector&lt; uint8_t &gt;</text>
</a>
</g>
</g>
<!-- Node8&#45;&gt;Node7 -->
<g id="edge7" class="edge">
<title>Node8&#45;&gt;Node7</title>
<path fill="none" stroke="#9a32cd" stroke-dasharray="5,2" d="M504.19,-59.5C540.57,-59.5 583.13,-59.5 612.36,-59.5"/>
<polygon fill="#9a32cd" stroke="#9a32cd" points="504.11,-56 494.11,-59.5 504.11,-63 504.11,-56"/>
<text text-anchor="middle" x="545.5" y="-62.5" font-family="Helvetica,sans-Serif" font-size="10.00"> body_buf</text>
</g>
<!-- Node9 -->
<g id="node9" class="node">
<title>Node9</title>
<g id="a_node9"><a xlink:title=" ">
<polygon fill="white" stroke="black" points="360,-0.5 360,-30.5 503,-30.5 503,-0.5 360,-0.5"/>
<text text-anchor="start" x="368" y="-18.5" font-family="Helvetica,sans-Serif" font-size="10.00">std::map&lt; std::string,</text>
<text text-anchor="middle" x="431.5" y="-7.5" font-family="Helvetica,sans-Serif" font-size="10.00"> std::string, std::less&lt;&gt; &gt;</text>
</a>
</g>
</g>
<!-- Node9&#45;&gt;Node7 -->
<g id="edge8" class="edge">
<title>Node9&#45;&gt;Node7</title>
<path fill="none" stroke="#9a32cd" stroke-dasharray="5,2" d="M513.2,-32.02C547.42,-39.02 585.51,-46.81 612.36,-52.31"/>
<polygon fill="#9a32cd" stroke="#9a32cd" points="513.7,-28.54 503.2,-29.97 512.29,-35.4 513.7,-28.54"/>
<text text-anchor="middle" x="545.5" y="-46.5" font-family="Helvetica,sans-Serif" font-size="10.00"> headers</text>
</g>
<!-- Node10 -->
<g id="node10" class="node">
<title>Node10</title>
<g id="a_node10"><a xlink:title=" ">
<polygon fill="white" stroke="black" points="175.5,-6 175.5,-25 240.5,-25 240.5,-6 175.5,-6"/>
<text text-anchor="middle" x="208" y="-13" font-family="Helvetica,sans-Serif" font-size="10.00">std::string</text>
</a>
</g>
</g>
<!-- Node10&#45;&gt;Node9 -->
<g id="edge9" class="edge">
<title>Node10&#45;&gt;Node9</title>
<path fill="none" stroke="#9a32cd" stroke-dasharray="5,2" d="M251.08,-15.5C281.79,-15.5 324.14,-15.5 359.98,-15.5"/>
<polygon fill="#9a32cd" stroke="#9a32cd" points="250.74,-12 240.74,-15.5 250.74,-19 250.74,-12"/>
<text text-anchor="middle" x="317.5" y="-29.5" font-family="Helvetica,sans-Serif" font-size="10.00"> elements</text>
<text text-anchor="middle" x="317.5" y="-18.5" font-family="Helvetica,sans-Serif" font-size="10.00">keys</text>
</g>
<!-- Node11 -->
<g id="node11" class="node">
<title>Node11</title>
<g id="a_node11"><a xlink:title=" ">
<polygon fill="white" stroke="black" points="0,-0.5 0,-30.5 104,-30.5 104,-0.5 0,-0.5"/>
<text text-anchor="start" x="8" y="-18.5" font-family="Helvetica,sans-Serif" font-size="10.00">std::basic_string&lt;</text>
<text text-anchor="middle" x="52" y="-7.5" font-family="Helvetica,sans-Serif" font-size="10.00"> Char &gt;</text>
</a>
</g>
</g>
<!-- Node11&#45;&gt;Node10 -->
<g id="edge10" class="edge">
<title>Node11&#45;&gt;Node10</title>
<path fill="none" stroke="midnightblue" d="M114.36,-15.5C135.21,-15.5 157.65,-15.5 175.23,-15.5"/>
<polygon fill="midnightblue" stroke="midnightblue" points="114.28,-12 104.28,-15.5 114.28,-19 114.28,-12"/>
</g>
<!-- Node12 -->
<g id="node12" class="node">
<title>Node12</title>
<g id="a_node12"><a xlink:href="classhttp_1_1RequestProcessor.html" target="_top" xlink:title=" ">
<polygon fill="white" stroke="black" points="755,-36 755,-55 884,-55 884,-36 755,-36"/>
<text text-anchor="middle" x="819.5" y="-43" font-family="Helvetica,sans-Serif" font-size="10.00">http::RequestProcessor</text>
</a>
</g>
</g>
<!-- Node12&#45;&gt;Node1 -->
<g id="edge11" class="edge">
<title>Node12&#45;&gt;Node1</title>
<path fill="none" stroke="midnightblue" d="M894.64,-50.72C903.38,-51.33 912.27,-51.96 920.95,-52.57"/>
<polygon fill="midnightblue" stroke="midnightblue" points="894.69,-47.21 884.47,-50 894.2,-54.2 894.69,-47.21"/>
</g>
</g>
</svg>
        <g id="navigator" transform="translate(0 0)" fill="#404254">
                <rect fill="#f2f5e9" fill-opacity="0.5" stroke="#606060" stroke-width=".5" x="0" y="0" width="60" height="60"/>
                <use id="zoomplus" xlink:href="#zoomPlus" x="17" y="9" onmousedown="handleZoom(evt,'in')"/>
                <use id="zoomminus" xlink:href="#zoomMin" x="42" y="9" onmousedown="handleZoom(evt,'out')"/>
                <use id="reset" xlink:href="#resetDef" x="30" y="36" onmousedown="handleReset()"/>
                <g id="arrowUp" xlink:href="#dirArrow" transform="translate(30 24)" onmousedown="handlePan(0,-1)">
                  <use xlink:href="#rim" fill="#404040">
                        <set attributeName="fill" to="#808080" begin="arrowUp.mouseover" end="arrowUp.mouseout"/>
                  </use>
                  <path fill="none" stroke="white" stroke-width="1.5" d="M0,-3.0v7 M-2.5,-0.5L0,-3.0L2.5,-0.5"/>
                </g>
                <g id="arrowRight" xlink:href="#dirArrow" transform="rotate(90) translate(36 -43)" onmousedown="handlePan(1,0)">
                  <use xlink:href="#rim" fill="#404040">
                        <set attributeName="fill" to="#808080" begin="arrowRight.mouseover" end="arrowRight.mouseout"/>
                  </use>
                  <path fill="none" stroke="white" stroke-width="1.5" d="M0,-3.0v7 M-2.5,-0.5L0,-3.0L2.5,-0.5"/>
                </g>
                <g id="arrowDown" xlink:href="#dirArrow" transform="rotate(180) translate(-30 -48)" onmousedown="handlePan(0,1)">
                  <use xlink:href="#rim" fill="#404040">
                        <set attributeName="fill" to="#808080" begin="arrowDown.mouseover" end="arrowDown.mouseout"/>
                  </use>
                  <path fill="none" stroke="white" stroke-width="1.5" d="M0,-3.0v7 M-2.5,-0.5L0,-3.0L2.5,-0.5"/>
                </g>
                <g id="arrowLeft" xlink:href="#dirArrow" transform="rotate(270) translate(-36 17)" onmousedown="handlePan(-1,0)">
                  <use xlink:href="#rim" fill="#404040">
                        <set attributeName="fill" to="#808080" begin="arrowLeft.mouseover" end="arrowLeft.mouseout"/>
                  </use>
                  <path fill="none" stroke="white" stroke-width="1.5" d="M0,-3.0v7 M-2.5,-0.5L0,-3.0L2.5,-0.5"/>
                </g>
        </g>
        <svg viewBox="0 0 15 15" width="100%" height="30px" preserveAspectRatio="xMaxYMin meet">
         <g id="arrow_out" transform="scale(0.3 0.3)">
          <a xlink:href="classhttp_1_1HTTPServerEndpoint__coll__graph_org.svg" target="_base">
           <rect id="button" ry="5" rx="5" y="6" x="6" height="38" width="38"
                fill="#f2f5e9" fill-opacity="0.5" stroke="#606060" stroke-width="1.0"/>
           <path id="arrow"
             d="M 11.500037,31.436501 C 11.940474,20.09759 22.043105,11.32322 32.158766,21.979434 L 37.068811,17.246167 C 37.068811,17.246167 37.088388,32 37.088388,32 L 22.160133,31.978069 C 22.160133,31.978069 26.997745,27.140456 26.997745,27.140456 C 18.528582,18.264221 13.291696,25.230495 11.500037,31.436501 z"
             style="fill:#404040;"/>
          </a>
         </g>
        </svg>
</svg>
