<?xml version="1.0" encoding="UTF-8" standalone="no"?>
<!DOCTYPE svg PUBLIC "-//W3C//DTD SVG 1.1//EN"
 "http://www.w3.org/Graphics/SVG/1.1/DTD/svg11.dtd">
<!-- Generated by graphviz version 2.43.0 (0)
 -->
<!-- Title: aft::Aft&lt; LedgerProxy, SnapshotterProxy &gt; Pages: 1 -->
<svg width="603pt" height="165pt"
 viewBox="0.00 0.00 603.00 164.50" xmlns="http://www.w3.org/2000/svg" xmlns:xlink="http://www.w3.org/1999/xlink">
<g id="graph0" class="graph" transform="scale(1 1) rotate(0) translate(4 160.5)">
<title>aft::Aft&lt; LedgerProxy, SnapshotterProxy &gt;</title>
<polygon fill="white" stroke="transparent" points="-4,4 -4,-160.5 599,-160.5 599,4 -4,4"/>
<!-- Node1 -->
<g id="node1" class="node">
<title>Node1</title>
<g id="a_node1"><a xlink:title=" ">
<polygon fill="#bfbfbf" stroke="black" points="471,-76.5 471,-106.5 595,-106.5 595,-76.5 471,-76.5"/>
<text text-anchor="start" x="479" y="-94.5" font-family="Helvetica,sans-Serif" font-size="10.00">aft::Aft&lt; LedgerProxy,</text>
<text text-anchor="middle" x="533" y="-83.5" font-family="Helvetica,sans-Serif" font-size="10.00"> SnapshotterProxy &gt;</text>
</a>
</g>
</g>
<!-- Node2 -->
<g id="node2" class="node">
<title>Node2</title>
<g id="a_node2"><a xlink:href="classkv_1_1Consensus.html" target="_top" xlink:title=" ">
<polygon fill="white" stroke="black" points="244.5,-137 244.5,-156 330.5,-156 330.5,-137 244.5,-137"/>
<text text-anchor="middle" x="287.5" y="-144" font-family="Helvetica,sans-Serif" font-size="10.00">kv::Consensus</text>
</a>
</g>
</g>
<!-- Node2&#45;&gt;Node1 -->
<g id="edge1" class="edge">
<title>Node2&#45;&gt;Node1</title>
<path fill="none" stroke="midnightblue" d="M340.86,-138.13C373.34,-132.57 415.82,-124.62 453,-115.5 463.58,-112.9 474.84,-109.73 485.45,-106.56"/>
<polygon fill="midnightblue" stroke="midnightblue" points="339.97,-134.73 330.69,-139.85 341.13,-141.63 339.97,-134.73"/>
</g>
<!-- Node3 -->
<g id="node3" class="node">
<title>Node3</title>
<g id="a_node3"><a xlink:href="classkv_1_1ConfigurableConsensus.html" target="_top" xlink:title=" ">
<polygon fill="white" stroke="black" points="0,-137 0,-156 148,-156 148,-137 0,-137"/>
<text text-anchor="middle" x="74" y="-144" font-family="Helvetica,sans-Serif" font-size="10.00">kv::ConfigurableConsensus</text>
</a>
</g>
</g>
<!-- Node3&#45;&gt;Node2 -->
<g id="edge2" class="edge">
<title>Node3&#45;&gt;Node2</title>
<path fill="none" stroke="midnightblue" d="M158.38,-146.5C187.82,-146.5 219.68,-146.5 244.26,-146.5"/>
<polygon fill="midnightblue" stroke="midnightblue" points="158.08,-143 148.08,-146.5 158.08,-150 158.08,-143"/>
</g>
<!-- Node4 -->
<g id="node4" class="node">
<title>Node4</title>
<g id="a_node4"><a xlink:title=" ">
<polygon fill="white" stroke="black" points="201,-99 201,-118 374,-118 374,-99 201,-99"/>
<text text-anchor="middle" x="287.5" y="-106" font-family="Helvetica,sans-Serif" font-size="10.00">std::unique_ptr&lt; LedgerProxy &gt;</text>
</a>
</g>
</g>
<!-- Node4&#45;&gt;Node1 -->
<g id="edge3" class="edge">
<title>Node4&#45;&gt;Node1</title>
<path fill="none" stroke="#9a32cd" stroke-dasharray="5,2" d="M384.22,-101.82C413.37,-99.78 444.62,-97.6 470.83,-95.77"/>
<polygon fill="#9a32cd" stroke="#9a32cd" points="383.74,-98.34 374.01,-102.53 384.23,-105.33 383.74,-98.34"/>
<text text-anchor="middle" x="422.5" y="-103.5" font-family="Helvetica,sans-Serif" font-size="10.00"> ledger</text>
</g>
<!-- Node5 -->
<g id="node5" class="node">
<title>Node5</title>
<g id="a_node5"><a xlink:title=" ">
<polygon fill="white" stroke="black" points="230,-49.5 230,-79.5 345,-79.5 345,-49.5 230,-49.5"/>
<text text-anchor="start" x="238" y="-67.5" font-family="Helvetica,sans-Serif" font-size="10.00">std::shared_ptr&lt; ccf</text>
<text text-anchor="middle" x="287.5" y="-56.5" font-family="Helvetica,sans-Serif" font-size="10.00">::NodeToNode &gt;</text>
</a>
</g>
</g>
<!-- Node5&#45;&gt;Node1 -->
<g id="edge4" class="edge">
<title>Node5&#45;&gt;Node1</title>
<path fill="none" stroke="#9a32cd" stroke-dasharray="5,2" d="M355.56,-71.08C385.41,-74.1 420.98,-77.82 453,-81.5 458.77,-82.16 464.77,-82.88 470.77,-83.61"/>
<polygon fill="#9a32cd" stroke="#9a32cd" points="355.55,-67.56 345.25,-70.04 354.85,-74.53 355.55,-67.56"/>
<text text-anchor="middle" x="422.5" y="-84.5" font-family="Helvetica,sans-Serif" font-size="10.00"> channels</text>
</g>
<!-- Node6 -->
<g id="node6" class="node">
<title>Node6</title>
<g id="a_node6"><a xlink:href="classccf_1_1NodeToNode.html" target="_top" xlink:title=" ">
<polygon fill="white" stroke="black" points="25,-55 25,-74 123,-74 123,-55 25,-55"/>
<text text-anchor="middle" x="74" y="-62" font-family="Helvetica,sans-Serif" font-size="10.00">ccf::NodeToNode</text>
</a>
</g>
</g>
<!-- Node6&#45;&gt;Node5 -->
<g id="edge5" class="edge">
<title>Node6&#45;&gt;Node5</title>
<path fill="none" stroke="#9a32cd" stroke-dasharray="5,2" d="M133.6,-64.5C163.64,-64.5 200.07,-64.5 229.83,-64.5"/>
<polygon fill="#9a32cd" stroke="#9a32cd" points="133.26,-61 123.26,-64.5 133.26,-68 133.26,-61"/>
<text text-anchor="middle" x="174.5" y="-67.5" font-family="Helvetica,sans-Serif" font-size="10.00"> ptr</text>
</g>
<!-- Node7 -->
<g id="node7" class="node">
<title>Node7</title>
<g id="a_node7"><a xlink:title=" ">
<polygon fill="white" stroke="black" points="208,-0.5 208,-30.5 367,-30.5 367,-0.5 208,-0.5"/>
<text text-anchor="start" x="216" y="-18.5" font-family="Helvetica,sans-Serif" font-size="10.00">std::shared_ptr&lt; Snapshotter</text>
<text text-anchor="middle" x="287.5" y="-7.5" font-family="Helvetica,sans-Serif" font-size="10.00">Proxy &gt;</text>
</a>
</g>
</g>
<!-- Node7&#45;&gt;Node1 -->
<g id="edge6" class="edge">
<title>Node7&#45;&gt;Node1</title>
<path fill="none" stroke="#9a32cd" stroke-dasharray="5,2" d="M361.87,-33.06C390.54,-40.45 423.54,-49.63 453,-59.5 467.73,-64.43 483.67,-70.7 497.35,-76.38"/>
<polygon fill="#9a32cd" stroke="#9a32cd" points="362.48,-29.6 351.92,-30.52 360.75,-36.38 362.48,-29.6"/>
<text text-anchor="middle" x="422.5" y="-62.5" font-family="Helvetica,sans-Serif" font-size="10.00"> snapshotter</text>
</g>
</g>
</svg>
