<?xml version="1.0" encoding="UTF-8" standalone="no"?>
<!DOCTYPE svg PUBLIC "-//W3C//DTD SVG 1.1//EN"
 "http://www.w3.org/Graphics/SVG/1.1/DTD/svg11.dtd">
<!-- Generated by graphviz version 2.43.0 (0)
 -->
<!-- Title: kv::Store Pages: 1 -->
<svg width="766pt" height="173pt"
 viewBox="0.00 0.00 766.00 172.50" xmlns="http://www.w3.org/2000/svg" xmlns:xlink="http://www.w3.org/1999/xlink">
<g id="graph0" class="graph" transform="scale(1 1) rotate(0) translate(4 168.5)">
<title>kv::Store</title>
<polygon fill="white" stroke="transparent" points="-4,4 -4,-168.5 762,-168.5 762,4 -4,4"/>
<!-- Node1 -->
<g id="node1" class="node">
<title>Node1</title>
<g id="a_node1"><a xlink:title=" ">
<polygon fill="#bfbfbf" stroke="black" points="699,-88 699,-107 758,-107 758,-88 699,-88"/>
<text text-anchor="middle" x="728.5" y="-95" font-family="Helvetica,sans-Serif" font-size="10.00">kv::Store</text>
</a>
</g>
</g>
<!-- Node2 -->
<g id="node2" class="node">
<title>Node2</title>
<g id="a_node2"><a xlink:href="classkv_1_1AbstractStore.html" target="_top" xlink:title=" ">
<polygon fill="white" stroke="black" points="538,-126 538,-145 638,-145 638,-126 538,-126"/>
<text text-anchor="middle" x="588" y="-133" font-family="Helvetica,sans-Serif" font-size="10.00">kv::AbstractStore</text>
</a>
</g>
</g>
<!-- Node2&#45;&gt;Node1 -->
<g id="edge1" class="edge">
<title>Node2&#45;&gt;Node1</title>
<path fill="none" stroke="midnightblue" d="M637.17,-123.32C651.32,-119.63 666.81,-115.5 681,-111.5 686.68,-109.9 692.73,-108.13 698.52,-106.4"/>
<polygon fill="midnightblue" stroke="midnightblue" points="635.94,-120.02 627.14,-125.91 637.7,-126.79 635.94,-120.02"/>
</g>
<!-- Node3 -->
<g id="node3" class="node">
<title>Node3</title>
<g id="a_node3"><a xlink:href="classkv_1_1StoreState.html" target="_top" xlink:title=" ">
<polygon fill="white" stroke="black" points="545.5,-88 545.5,-107 630.5,-107 630.5,-88 545.5,-88"/>
<text text-anchor="middle" x="588" y="-95" font-family="Helvetica,sans-Serif" font-size="10.00">kv::StoreState</text>
</a>
</g>
</g>
<!-- Node3&#45;&gt;Node1 -->
<g id="edge2" class="edge">
<title>Node3&#45;&gt;Node1</title>
<path fill="none" stroke="midnightblue" d="M640.61,-97.5C660.25,-97.5 681.93,-97.5 698.71,-97.5"/>
<polygon fill="midnightblue" stroke="midnightblue" points="640.55,-94 630.55,-97.5 640.55,-101 640.55,-94"/>
</g>
<!-- Node4 -->
<g id="node4" class="node">
<title>Node4</title>
<g id="a_node4"><a xlink:title=" ">
<polygon fill="white" stroke="black" points="305,-143 305,-162 374,-162 374,-143 305,-143"/>
<text text-anchor="middle" x="339.5" y="-150" font-family="Helvetica,sans-Serif" font-size="10.00">std::mutex</text>
</a>
</g>
</g>
<!-- Node4&#45;&gt;Node3 -->
<g id="edge3" class="edge">
<title>Node4&#45;&gt;Node3</title>
<path fill="none" stroke="#9a32cd" stroke-dasharray="5,2" d="M383.87,-142.82C429.39,-132.67 500.46,-116.81 545.34,-106.8"/>
<polygon fill="#9a32cd" stroke="#9a32cd" points="383,-139.43 374,-145.03 384.52,-146.26 383,-139.43"/>
<text text-anchor="middle" x="462.5" y="-156.5" font-family="Helvetica,sans-Serif" font-size="10.00"> commit_lock</text>
<text text-anchor="middle" x="462.5" y="-145.5" font-family="Helvetica,sans-Serif" font-size="10.00">maps_lock</text>
<text text-anchor="middle" x="462.5" y="-134.5" font-family="Helvetica,sans-Serif" font-size="10.00">version_lock</text>
</g>
<!-- Node5 -->
<g id="node5" class="node">
<title>Node5</title>
<g id="a_node5"><a xlink:title=" ">
<polygon fill="white" stroke="black" points="268,-71.5 268,-123.5 411,-123.5 411,-71.5 268,-71.5"/>
<text text-anchor="start" x="276" y="-111.5" font-family="Helvetica,sans-Serif" font-size="10.00">std::map&lt; std::string,</text>
<text text-anchor="start" x="276" y="-100.5" font-family="Helvetica,sans-Serif" font-size="10.00"> std::pair&lt; kv::Version,</text>
<text text-anchor="start" x="276" y="-89.5" font-family="Helvetica,sans-Serif" font-size="10.00"> std::shared_ptr&lt; untyped</text>
<text text-anchor="middle" x="339.5" y="-78.5" font-family="Helvetica,sans-Serif" font-size="10.00">::Map &gt; &gt; &gt;</text>
</a>
</g>
</g>
<!-- Node5&#45;&gt;Node3 -->
<g id="edge4" class="edge">
<title>Node5&#45;&gt;Node3</title>
<path fill="none" stroke="#9a32cd" stroke-dasharray="5,2" d="M421.23,-97.5C462.67,-97.5 511.42,-97.5 545.28,-97.5"/>
<polygon fill="#9a32cd" stroke="#9a32cd" points="421.14,-94 411.14,-97.5 421.14,-101 421.14,-94"/>
<text text-anchor="middle" x="462.5" y="-100.5" font-family="Helvetica,sans-Serif" font-size="10.00"> maps</text>
</g>
<!-- Node6 -->
<g id="node6" class="node">
<title>Node6</title>
<g id="a_node6"><a xlink:title=" ">
<polygon fill="white" stroke="black" points="141,-88 141,-107 206,-107 206,-88 141,-88"/>
<text text-anchor="middle" x="173.5" y="-95" font-family="Helvetica,sans-Serif" font-size="10.00">std::string</text>
</a>
</g>
</g>
<!-- Node6&#45;&gt;Node5 -->
<g id="edge5" class="edge">
<title>Node6&#45;&gt;Node5</title>
<path fill="none" stroke="#9a32cd" stroke-dasharray="5,2" d="M216.51,-97.5C232.17,-97.5 250.4,-97.5 267.92,-97.5"/>
<polygon fill="#9a32cd" stroke="#9a32cd" points="216.12,-94 206.12,-97.5 216.12,-101 216.12,-94"/>
<text text-anchor="middle" x="237" y="-100.5" font-family="Helvetica,sans-Serif" font-size="10.00"> keys</text>
</g>
<!-- Node7 -->
<g id="node7" class="node">
<title>Node7</title>
<g id="a_node7"><a xlink:title=" ">
<polygon fill="white" stroke="black" points="0,-82.5 0,-112.5 104,-112.5 104,-82.5 0,-82.5"/>
<text text-anchor="start" x="8" y="-100.5" font-family="Helvetica,sans-Serif" font-size="10.00">std::basic_string&lt;</text>
<text text-anchor="middle" x="52" y="-89.5" font-family="Helvetica,sans-Serif" font-size="10.00"> Char &gt;</text>
</a>
</g>
</g>
<!-- Node7&#45;&gt;Node6 -->
<g id="edge6" class="edge">
<title>Node7&#45;&gt;Node6</title>
<path fill="none" stroke="midnightblue" d="M114.1,-97.5C123.41,-97.5 132.68,-97.5 141,-97.5"/>
<polygon fill="midnightblue" stroke="midnightblue" points="114.03,-94 104.03,-97.5 114.03,-101 114.03,-94"/>
</g>
<!-- Node8 -->
<g id="node8" class="node">
<title>Node8</title>
<g id="a_node8"><a xlink:title=" ">
<polygon fill="white" stroke="black" points="272.5,-0.5 272.5,-52.5 406.5,-52.5 406.5,-0.5 272.5,-0.5"/>
<text text-anchor="start" x="280.5" y="-40.5" font-family="Helvetica,sans-Serif" font-size="10.00">std::unordered_map</text>
<text text-anchor="start" x="280.5" y="-29.5" font-family="Helvetica,sans-Serif" font-size="10.00">&lt; Version, std::pair</text>
<text text-anchor="start" x="280.5" y="-18.5" font-family="Helvetica,sans-Serif" font-size="10.00">&lt; std::unique_ptr&lt; kv</text>
<text text-anchor="middle" x="339.5" y="-7.5" font-family="Helvetica,sans-Serif" font-size="10.00">::PendingTx &gt;, bool &gt; &gt;</text>
</a>
</g>
</g>
<!-- Node8&#45;&gt;Node3 -->
<g id="edge7" class="edge">
<title>Node8&#45;&gt;Node3</title>
<path fill="none" stroke="#9a32cd" stroke-dasharray="5,2" d="M416.31,-49.88C446.62,-59.05 481.89,-69.51 514,-78.5 525.48,-81.71 538.02,-85.04 549.42,-88"/>
<polygon fill="#9a32cd" stroke="#9a32cd" points="417.24,-46.5 406.66,-46.95 415.21,-53.2 417.24,-46.5"/>
<text text-anchor="middle" x="462.5" y="-76.5" font-family="Helvetica,sans-Serif" font-size="10.00"> pending_txs</text>
</g>
<!-- Node9 -->
<g id="node9" class="node">
<title>Node9</title>
<g id="a_node9"><a xlink:href="classkv_1_1ExecutionWrapperStore.html" target="_top" xlink:title=" ">
<polygon fill="white" stroke="black" points="514,-50 514,-69 662,-69 662,-50 514,-50"/>
<text text-anchor="middle" x="588" y="-57" font-family="Helvetica,sans-Serif" font-size="10.00">kv::ExecutionWrapperStore</text>
</a>
</g>
</g>
<!-- Node9&#45;&gt;Node1 -->
<g id="edge8" class="edge">
<title>Node9&#45;&gt;Node1</title>
<path fill="none" stroke="midnightblue" d="M636.41,-71.63C644.94,-73.88 653.74,-76.23 662,-78.5 674.1,-81.83 687.41,-85.66 698.85,-89"/>
<polygon fill="midnightblue" stroke="midnightblue" points="637.13,-68.21 626.57,-69.06 635.36,-74.98 637.13,-68.21"/>
</g>
</g>
</svg>
