<?xml version="1.0" encoding="UTF-8" standalone="no"?>
<!DOCTYPE svg PUBLIC "-//W3C//DTD SVG 1.1//EN"
 "http://www.w3.org/Graphics/SVG/1.1/DTD/svg11.dtd">
<!-- Generated by graphviz version 2.43.0 (0)
 -->
<!-- Title: ccf::NodeClient Pages: 1 -->
<svg width="442pt" height="173pt"
 viewBox="0.00 0.00 441.50 173.00" xmlns="http://www.w3.org/2000/svg" xmlns:xlink="http://www.w3.org/1999/xlink">
<g id="graph0" class="graph" transform="scale(1 1) rotate(0) translate(4 169)">
<title>ccf::NodeClient</title>
<polygon fill="white" stroke="transparent" points="-4,4 -4,-169 437.5,-169 437.5,4 -4,4"/>
<!-- Node1 -->
<g id="node1" class="node">
<title>Node1</title>
<g id="a_node1"><a xlink:title=" ">
<polygon fill="#bfbfbf" stroke="black" points="186.5,-0.5 186.5,-19.5 276.5,-19.5 276.5,-0.5 186.5,-0.5"/>
<text text-anchor="middle" x="231.5" y="-7.5" font-family="Helvetica,sans-Serif" font-size="10.00">ccf::NodeClient</text>
</a>
</g>
</g>
<!-- Node2 -->
<g id="node2" class="node">
<title>Node2</title>
<g id="a_node2"><a xlink:title=" ">
<polygon fill="white" stroke="black" points="0,-67.5 0,-97.5 139,-97.5 139,-67.5 0,-67.5"/>
<text text-anchor="start" x="8" y="-85.5" font-family="Helvetica,sans-Serif" font-size="10.00">std::shared_ptr&lt; enclave</text>
<text text-anchor="middle" x="69.5" y="-74.5" font-family="Helvetica,sans-Serif" font-size="10.00">::RPCMap &gt;</text>
</a>
</g>
</g>
<!-- Node2&#45;&gt;Node1 -->
<g id="edge1" class="edge">
<title>Node2&#45;&gt;Node1</title>
<path fill="none" stroke="#9a32cd" stroke-dasharray="5,2" d="M111.14,-63.38C143.54,-49.28 187.04,-30.35 211.89,-19.53"/>
<polygon fill="#9a32cd" stroke="#9a32cd" points="109.67,-60.2 101.89,-67.4 112.46,-66.62 109.67,-60.2"/>
<text text-anchor="middle" x="188.5" y="-41" font-family="Helvetica,sans-Serif" font-size="10.00"> rpc_map</text>
</g>
<!-- Node3 -->
<g id="node3" class="node">
<title>Node3</title>
<g id="a_node3"><a xlink:href="classenclave_1_1RPCMap.html" target="_top" xlink:title=" ">
<polygon fill="white" stroke="black" points="19,-145.5 19,-164.5 120,-164.5 120,-145.5 19,-145.5"/>
<text text-anchor="middle" x="69.5" y="-152.5" font-family="Helvetica,sans-Serif" font-size="10.00">enclave::RPCMap</text>
</a>
</g>
</g>
<!-- Node3&#45;&gt;Node2 -->
<g id="edge2" class="edge">
<title>Node3&#45;&gt;Node2</title>
<path fill="none" stroke="#9a32cd" stroke-dasharray="5,2" d="M69.5,-135.24C69.5,-123.41 69.5,-108.38 69.5,-97.58"/>
<polygon fill="#9a32cd" stroke="#9a32cd" points="66,-135.36 69.5,-145.36 73,-135.36 66,-135.36"/>
<text text-anchor="middle" x="78" y="-119" font-family="Helvetica,sans-Serif" font-size="10.00"> ptr</text>
</g>
<!-- Node4 -->
<g id="node4" class="node">
<title>Node4</title>
<g id="a_node4"><a xlink:title=" ">
<polygon fill="white" stroke="black" points="157.5,-73 157.5,-92 305.5,-92 305.5,-73 157.5,-73"/>
<text text-anchor="middle" x="231.5" y="-80" font-family="Helvetica,sans-Serif" font-size="10.00">std::shared_ptr&lt; KeyPair &gt;</text>
</a>
</g>
</g>
<!-- Node4&#45;&gt;Node1 -->
<g id="edge3" class="edge">
<title>Node4&#45;&gt;Node1</title>
<path fill="none" stroke="#9a32cd" stroke-dasharray="5,2" d="M231.5,-62.44C231.5,-48.53 231.5,-30.32 231.5,-19.72"/>
<polygon fill="#9a32cd" stroke="#9a32cd" points="228,-62.86 231.5,-72.86 235,-62.86 228,-62.86"/>
<text text-anchor="middle" x="266.5" y="-41" font-family="Helvetica,sans-Serif" font-size="10.00"> node_sign_kp</text>
</g>
<!-- Node5 -->
<g id="node5" class="node">
<title>Node5</title>
<g id="a_node5"><a xlink:href="classcrypto_1_1Pem.html" target="_top" xlink:title=" ">
<polygon fill="white" stroke="black" points="324,-73 324,-92 399,-92 399,-73 324,-73"/>
<text text-anchor="middle" x="361.5" y="-80" font-family="Helvetica,sans-Serif" font-size="10.00">crypto::Pem</text>
</a>
</g>
</g>
<!-- Node5&#45;&gt;Node1 -->
<g id="edge4" class="edge">
<title>Node5&#45;&gt;Node1</title>
<path fill="none" stroke="#9a32cd" stroke-dasharray="5,2" d="M344.57,-66.09C333.94,-57.01 319.61,-45.8 305.5,-38 291.62,-30.32 275.12,-24.06 261.23,-19.5"/>
<polygon fill="#9a32cd" stroke="#9a32cd" points="342.41,-68.85 352.23,-72.82 347.03,-63.59 342.41,-68.85"/>
<text text-anchor="middle" x="377.5" y="-41" font-family="Helvetica,sans-Serif" font-size="10.00"> self_signed_node_cert</text>
</g>
</g>
</svg>
