<?xml version="1.0" encoding="UTF-8" standalone="no"?>
<!DOCTYPE svg PUBLIC "-//W3C//DTD SVG 1.1//EN"
 "http://www.w3.org/Graphics/SVG/1.1/DTD/svg11.dtd">
<!-- Generated by graphviz version 2.43.0 (0)
 -->
<!-- Title: ccf::historical::StateCache Pages: 1 -->
<svg width="2367pt" height="426pt"
 viewBox="0.00 0.00 2367.00 425.50" xmlns="http://www.w3.org/2000/svg" xmlns:xlink="http://www.w3.org/1999/xlink">
<g id="graph0" class="graph" transform="scale(1 1) rotate(0) translate(4 421.5)">
<title>ccf::historical::StateCache</title>
<polygon fill="white" stroke="transparent" points="-4,4 -4,-421.5 2363,-421.5 2363,4 -4,4"/>
<!-- Node1 -->
<g id="node1" class="node">
<title>Node1</title>
<g id="a_node1"><a xlink:title=" ">
<polygon fill="#bfbfbf" stroke="black" points="2216,-132 2216,-151 2359,-151 2359,-132 2216,-132"/>
<text text-anchor="middle" x="2287.5" y="-139" font-family="Helvetica,sans-Serif" font-size="10.00">ccf::historical::StateCache</text>
</a>
</g>
</g>
<!-- Node2 -->
<g id="node2" class="node">
<title>Node2</title>
<g id="a_node2"><a xlink:href="classccf_1_1historical_1_1StateCacheImpl.html" target="_top" xlink:title=" ">
<polygon fill="white" stroke="black" points="2015,-209 2015,-228 2179,-228 2179,-209 2015,-209"/>
<text text-anchor="middle" x="2097" y="-216" font-family="Helvetica,sans-Serif" font-size="10.00">ccf::historical::StateCacheImpl</text>
</a>
</g>
</g>
<!-- Node2&#45;&gt;Node1 -->
<g id="edge1" class="edge">
<title>Node2&#45;&gt;Node1</title>
<path fill="none" stroke="midnightblue" d="M2131.03,-205.01C2168.82,-189.57 2229.76,-164.68 2263.01,-151.1"/>
<polygon fill="midnightblue" stroke="midnightblue" points="2129.43,-201.88 2121.49,-208.9 2132.07,-208.36 2129.43,-201.88"/>
</g>
<!-- Node3 -->
<g id="node3" class="node">
<title>Node3</title>
<g id="a_node3"><a xlink:href="classkv_1_1Store.html" target="_top" xlink:title=" ">
<polygon fill="white" stroke="black" points="1741,-282 1741,-301 1800,-301 1800,-282 1741,-282"/>
<text text-anchor="middle" x="1770.5" y="-289" font-family="Helvetica,sans-Serif" font-size="10.00">kv::Store</text>
</a>
</g>
</g>
<!-- Node3&#45;&gt;Node2 -->
<g id="edge2" class="edge">
<title>Node3&#45;&gt;Node2</title>
<path fill="none" stroke="#9a32cd" stroke-dasharray="5,2" d="M1810.22,-290.56C1855.73,-288.61 1933.14,-282.66 1997,-264.5 2027.44,-255.84 2060.3,-238.9 2079.46,-228.17"/>
<polygon fill="#9a32cd" stroke="#9a32cd" points="1810.05,-287.06 1800.19,-290.94 1810.32,-294.06 1810.05,-287.06"/>
<text text-anchor="middle" x="1934.5" y="-288.5" font-family="Helvetica,sans-Serif" font-size="10.00"> source_store</text>
</g>
<!-- Node4 -->
<g id="node4" class="node">
<title>Node4</title>
<g id="a_node4"><a xlink:href="classkv_1_1AbstractStore.html" target="_top" xlink:title=" ">
<polygon fill="white" stroke="black" points="1456,-314 1456,-333 1556,-333 1556,-314 1456,-314"/>
<text text-anchor="middle" x="1506" y="-321" font-family="Helvetica,sans-Serif" font-size="10.00">kv::AbstractStore</text>
</a>
</g>
</g>
<!-- Node4&#45;&gt;Node3 -->
<g id="edge3" class="edge">
<title>Node4&#45;&gt;Node3</title>
<path fill="none" stroke="midnightblue" d="M1566.29,-316.27C1620.79,-309.63 1699.26,-300.06 1740.94,-294.98"/>
<polygon fill="midnightblue" stroke="midnightblue" points="1565.57,-312.83 1556.07,-317.52 1566.42,-319.78 1565.57,-312.83"/>
</g>
<!-- Node5 -->
<g id="node5" class="node">
<title>Node5</title>
<g id="a_node5"><a xlink:href="classkv_1_1StoreState.html" target="_top" xlink:title=" ">
<polygon fill="white" stroke="black" points="1463.5,-238 1463.5,-257 1548.5,-257 1548.5,-238 1463.5,-238"/>
<text text-anchor="middle" x="1506" y="-245" font-family="Helvetica,sans-Serif" font-size="10.00">kv::StoreState</text>
</a>
</g>
</g>
<!-- Node5&#45;&gt;Node3 -->
<g id="edge4" class="edge">
<title>Node5&#45;&gt;Node3</title>
<path fill="none" stroke="midnightblue" d="M1558.74,-256.17C1613.19,-265.3 1696.94,-279.34 1740.67,-286.67"/>
<polygon fill="midnightblue" stroke="midnightblue" points="1559.03,-252.67 1548.59,-254.47 1557.88,-259.58 1559.03,-252.67"/>
</g>
<!-- Node6 -->
<g id="node6" class="node">
<title>Node6</title>
<g id="a_node6"><a xlink:title=" ">
<polygon fill="white" stroke="black" points="1138.5,-347 1138.5,-366 1207.5,-366 1207.5,-347 1138.5,-347"/>
<text text-anchor="middle" x="1173" y="-354" font-family="Helvetica,sans-Serif" font-size="10.00">std::mutex</text>
</a>
</g>
</g>
<!-- Node6&#45;&gt;Node2 -->
<g id="edge17" class="edge">
<title>Node6&#45;&gt;Node2</title>
<path fill="none" stroke="#9a32cd" stroke-dasharray="5,2" d="M1218,-363.06C1344.88,-380.02 1720.05,-416.31 1997,-300.5 2036.53,-283.97 2072.45,-246.11 2087.94,-228.21"/>
<polygon fill="#9a32cd" stroke="#9a32cd" points="1218.28,-359.56 1207.9,-361.68 1217.33,-366.5 1218.28,-359.56"/>
<text text-anchor="middle" x="1633.5" y="-382.5" font-family="Helvetica,sans-Serif" font-size="10.00"> requests_lock</text>
</g>
<!-- Node6&#45;&gt;Node5 -->
<g id="edge5" class="edge">
<title>Node6&#45;&gt;Node5</title>
<path fill="none" stroke="#9a32cd" stroke-dasharray="5,2" d="M1217.49,-350.11C1229.92,-346.99 1243.05,-342.36 1254,-335.5 1264.42,-328.98 1261.34,-320.63 1272,-314.5 1327.63,-282.53 1358.74,-321.11 1414,-288.5 1424.88,-282.08 1421.36,-273.32 1432,-266.5 1441.37,-260.49 1452.57,-256.38 1463.34,-253.57"/>
<polygon fill="#9a32cd" stroke="#9a32cd" points="1216.72,-346.69 1207.73,-352.3 1218.25,-353.52 1216.72,-346.69"/>
<text text-anchor="middle" x="1343" y="-339.5" font-family="Helvetica,sans-Serif" font-size="10.00"> commit_lock</text>
<text text-anchor="middle" x="1343" y="-328.5" font-family="Helvetica,sans-Serif" font-size="10.00">maps_lock</text>
<text text-anchor="middle" x="1343" y="-317.5" font-family="Helvetica,sans-Serif" font-size="10.00">version_lock</text>
</g>
<!-- Node7 -->
<g id="node7" class="node">
<title>Node7</title>
<g id="a_node7"><a xlink:title=" ">
<polygon fill="white" stroke="black" points="1101.5,-273.5 1101.5,-325.5 1244.5,-325.5 1244.5,-273.5 1101.5,-273.5"/>
<text text-anchor="start" x="1109.5" y="-313.5" font-family="Helvetica,sans-Serif" font-size="10.00">std::map&lt; std::string,</text>
<text text-anchor="start" x="1109.5" y="-302.5" font-family="Helvetica,sans-Serif" font-size="10.00"> std::pair&lt; kv::Version,</text>
<text text-anchor="start" x="1109.5" y="-291.5" font-family="Helvetica,sans-Serif" font-size="10.00"> std::shared_ptr&lt; untyped</text>
<text text-anchor="middle" x="1173" y="-280.5" font-family="Helvetica,sans-Serif" font-size="10.00">::Map &gt; &gt; &gt;</text>
</a>
</g>
</g>
<!-- Node7&#45;&gt;Node5 -->
<g id="edge6" class="edge">
<title>Node7&#45;&gt;Node5</title>
<path fill="none" stroke="#9a32cd" stroke-dasharray="5,2" d="M1254.47,-280.81C1260.39,-279.63 1266.28,-278.51 1272,-277.5 1338.48,-265.78 1416.38,-256.68 1463.15,-251.7"/>
<polygon fill="#9a32cd" stroke="#9a32cd" points="1253.59,-277.42 1244.5,-282.85 1255,-284.27 1253.59,-277.42"/>
<text text-anchor="middle" x="1343" y="-280.5" font-family="Helvetica,sans-Serif" font-size="10.00"> maps</text>
</g>
<!-- Node8 -->
<g id="node8" class="node">
<title>Node8</title>
<g id="a_node8"><a xlink:title=" ">
<polygon fill="white" stroke="black" points="888,-290 888,-309 953,-309 953,-290 888,-290"/>
<text text-anchor="middle" x="920.5" y="-297" font-family="Helvetica,sans-Serif" font-size="10.00">std::string</text>
</a>
</g>
</g>
<!-- Node8&#45;&gt;Node7 -->
<g id="edge7" class="edge">
<title>Node8&#45;&gt;Node7</title>
<path fill="none" stroke="#9a32cd" stroke-dasharray="5,2" d="M963.32,-299.5C1000.92,-299.5 1056.91,-299.5 1101.44,-299.5"/>
<polygon fill="#9a32cd" stroke="#9a32cd" points="963.23,-296 953.23,-299.5 963.23,-303 963.23,-296"/>
<text text-anchor="middle" x="1049.5" y="-302.5" font-family="Helvetica,sans-Serif" font-size="10.00"> keys</text>
</g>
<!-- Node9 -->
<g id="node9" class="node">
<title>Node9</title>
<g id="a_node9"><a xlink:title=" ">
<polygon fill="white" stroke="black" points="565,-284.5 565,-314.5 669,-314.5 669,-284.5 565,-284.5"/>
<text text-anchor="start" x="573" y="-302.5" font-family="Helvetica,sans-Serif" font-size="10.00">std::basic_string&lt;</text>
<text text-anchor="middle" x="617" y="-291.5" font-family="Helvetica,sans-Serif" font-size="10.00"> Char &gt;</text>
</a>
</g>
</g>
<!-- Node9&#45;&gt;Node8 -->
<g id="edge8" class="edge">
<title>Node9&#45;&gt;Node8</title>
<path fill="none" stroke="midnightblue" d="M679.36,-299.5C742.45,-299.5 838.23,-299.5 887.6,-299.5"/>
<polygon fill="midnightblue" stroke="midnightblue" points="679.15,-296 669.15,-299.5 679.15,-303 679.15,-296"/>
</g>
<!-- Node10 -->
<g id="node10" class="node">
<title>Node10</title>
<g id="a_node10"><a xlink:title=" ">
<polygon fill="white" stroke="black" points="1106,-202.5 1106,-254.5 1240,-254.5 1240,-202.5 1106,-202.5"/>
<text text-anchor="start" x="1114" y="-242.5" font-family="Helvetica,sans-Serif" font-size="10.00">std::unordered_map</text>
<text text-anchor="start" x="1114" y="-231.5" font-family="Helvetica,sans-Serif" font-size="10.00">&lt; Version, std::pair</text>
<text text-anchor="start" x="1114" y="-220.5" font-family="Helvetica,sans-Serif" font-size="10.00">&lt; std::unique_ptr&lt; kv</text>
<text text-anchor="middle" x="1173" y="-209.5" font-family="Helvetica,sans-Serif" font-size="10.00">::PendingTx &gt;, bool &gt; &gt;</text>
</a>
</g>
</g>
<!-- Node10&#45;&gt;Node5 -->
<g id="edge9" class="edge">
<title>Node10&#45;&gt;Node5</title>
<path fill="none" stroke="#9a32cd" stroke-dasharray="5,2" d="M1250.18,-229.96C1297.4,-231.21 1359.28,-233.47 1414,-237.5 1430.17,-238.69 1447.9,-240.52 1463.38,-242.29"/>
<polygon fill="#9a32cd" stroke="#9a32cd" points="1250.12,-226.45 1240.03,-229.7 1249.94,-233.45 1250.12,-226.45"/>
<text text-anchor="middle" x="1343" y="-240.5" font-family="Helvetica,sans-Serif" font-size="10.00"> pending_txs</text>
</g>
<!-- Node11 -->
<g id="node11" class="node">
<title>Node11</title>
<g id="a_node11"><a xlink:href="classkv_1_1ExecutionWrapperStore.html" target="_top" xlink:title=" ">
<polygon fill="white" stroke="black" points="1432,-276 1432,-295 1580,-295 1580,-276 1432,-276"/>
<text text-anchor="middle" x="1506" y="-283" font-family="Helvetica,sans-Serif" font-size="10.00">kv::ExecutionWrapperStore</text>
</a>
</g>
</g>
<!-- Node11&#45;&gt;Node3 -->
<g id="edge10" class="edge">
<title>Node11&#45;&gt;Node3</title>
<path fill="none" stroke="midnightblue" d="M1590.28,-287.4C1641.9,-288.58 1705,-290.03 1740.89,-290.85"/>
<polygon fill="midnightblue" stroke="midnightblue" points="1590.2,-283.9 1580.12,-287.17 1590.04,-290.9 1590.2,-283.9"/>
</g>
<!-- Node12 -->
<g id="node12" class="node">
<title>Node12</title>
<g id="a_node12"><a xlink:title=" ">
<polygon fill="white" stroke="black" points="1713,-232.5 1713,-262.5 1828,-262.5 1828,-232.5 1713,-232.5"/>
<text text-anchor="start" x="1721" y="-250.5" font-family="Helvetica,sans-Serif" font-size="10.00">std::shared_ptr&lt; ccf</text>
<text text-anchor="middle" x="1770.5" y="-239.5" font-family="Helvetica,sans-Serif" font-size="10.00">::LedgerSecrets &gt;</text>
</a>
</g>
</g>
<!-- Node12&#45;&gt;Node2 -->
<g id="edge11" class="edge">
<title>Node12&#45;&gt;Node2</title>
<path fill="none" stroke="#9a32cd" stroke-dasharray="5,2" d="M1838,-241.56C1889.23,-236.98 1960.31,-230.63 2014.89,-225.75"/>
<polygon fill="#9a32cd" stroke="#9a32cd" points="1837.67,-238.07 1828.02,-242.45 1838.3,-245.04 1837.67,-238.07"/>
<text text-anchor="middle" x="1934.5" y="-252.5" font-family="Helvetica,sans-Serif" font-size="10.00"> historical_ledger_secrets</text>
<text text-anchor="middle" x="1934.5" y="-241.5" font-family="Helvetica,sans-Serif" font-size="10.00">source_ledger_secrets</text>
</g>
<!-- Node13 -->
<g id="node13" class="node">
<title>Node13</title>
<g id="a_node13"><a xlink:href="classccf_1_1LedgerSecrets.html" target="_top" xlink:title=" ">
<polygon fill="white" stroke="black" points="1453.5,-200 1453.5,-219 1558.5,-219 1558.5,-200 1453.5,-200"/>
<text text-anchor="middle" x="1506" y="-207" font-family="Helvetica,sans-Serif" font-size="10.00">ccf::LedgerSecrets</text>
</a>
</g>
</g>
<!-- Node13&#45;&gt;Node12 -->
<g id="edge12" class="edge">
<title>Node13&#45;&gt;Node12</title>
<path fill="none" stroke="#9a32cd" stroke-dasharray="5,2" d="M1568.57,-215.69C1598.88,-219 1635.93,-223.44 1669,-228.5 1683.22,-230.67 1698.5,-233.38 1712.75,-236.05"/>
<polygon fill="#9a32cd" stroke="#9a32cd" points="1568.88,-212.21 1558.56,-214.61 1568.13,-219.17 1568.88,-212.21"/>
<text text-anchor="middle" x="1633.5" y="-231.5" font-family="Helvetica,sans-Serif" font-size="10.00"> ptr</text>
</g>
<!-- Node14 -->
<g id="node14" class="node">
<title>Node14</title>
<g id="a_node14"><a xlink:title=" ">
<polygon fill="white" stroke="black" points="1700,-183.5 1700,-213.5 1841,-213.5 1841,-183.5 1700,-183.5"/>
<text text-anchor="start" x="1708" y="-201.5" font-family="Helvetica,sans-Serif" font-size="10.00">std::shared_ptr&lt; Abstract</text>
<text text-anchor="middle" x="1770.5" y="-190.5" font-family="Helvetica,sans-Serif" font-size="10.00">Writer &gt;</text>
</a>
</g>
</g>
<!-- Node14&#45;&gt;Node2 -->
<g id="edge13" class="edge">
<title>Node14&#45;&gt;Node2</title>
<path fill="none" stroke="#9a32cd" stroke-dasharray="5,2" d="M1851.33,-199.68C1894.51,-200.73 1948.73,-202.73 1997,-206.5 2005.54,-207.17 2014.49,-208.03 2023.35,-208.98"/>
<polygon fill="#9a32cd" stroke="#9a32cd" points="1851.25,-196.17 1841.17,-199.44 1851.09,-203.17 1851.25,-196.17"/>
<text text-anchor="middle" x="1934.5" y="-209.5" font-family="Helvetica,sans-Serif" font-size="10.00"> to_host</text>
</g>
<!-- Node15 -->
<g id="node15" class="node">
<title>Node15</title>
<g id="a_node15"><a xlink:title=" ">
<polygon fill="white" stroke="black" points="1714,-134.5 1714,-164.5 1827,-164.5 1827,-134.5 1714,-134.5"/>
<text text-anchor="start" x="1722" y="-152.5" font-family="Helvetica,sans-Serif" font-size="10.00">std::shared_ptr&lt; kv</text>
<text text-anchor="middle" x="1770.5" y="-141.5" font-family="Helvetica,sans-Serif" font-size="10.00">::TxEncryptor &gt;</text>
</a>
</g>
</g>
<!-- Node15&#45;&gt;Node2 -->
<g id="edge14" class="edge">
<title>Node15&#45;&gt;Node2</title>
<path fill="none" stroke="#9a32cd" stroke-dasharray="5,2" d="M1837.13,-157.1C1882.43,-163.04 1943.84,-172.49 1997,-185.5 2022.69,-191.79 2051.28,-201.64 2071.1,-208.94"/>
<polygon fill="#9a32cd" stroke="#9a32cd" points="1837.51,-153.62 1827.14,-155.81 1836.61,-160.56 1837.51,-153.62"/>
<text text-anchor="middle" x="1934.5" y="-188.5" font-family="Helvetica,sans-Serif" font-size="10.00"> historical_encryptor</text>
</g>
<!-- Node16 -->
<g id="node16" class="node">
<title>Node16</title>
<g id="a_node16"><a xlink:href="classkv_1_1TxEncryptor.html" target="_top" xlink:title=" ">
<polygon fill="white" stroke="black" points="1439.5,-155 1439.5,-174 1572.5,-174 1572.5,-155 1439.5,-155"/>
<text text-anchor="middle" x="1506" y="-162" font-family="Helvetica,sans-Serif" font-size="10.00">kv::TxEncryptor&lt; T, S &gt;</text>
</a>
</g>
</g>
<!-- Node16&#45;&gt;Node15 -->
<g id="edge15" class="edge">
<title>Node16&#45;&gt;Node15</title>
<path fill="none" stroke="#9a32cd" stroke-dasharray="5,2" d="M1582.7,-160.17C1624.49,-157.79 1675.5,-154.87 1713.65,-152.69"/>
<polygon fill="#9a32cd" stroke="#9a32cd" points="1582.35,-156.69 1572.56,-160.75 1582.75,-163.68 1582.35,-156.69"/>
<text text-anchor="middle" x="1633.5" y="-162.5" font-family="Helvetica,sans-Serif" font-size="10.00"> ptr</text>
</g>
<!-- Node17 -->
<g id="node17" class="node">
<title>Node17</title>
<g id="a_node17"><a xlink:href="classkv_1_1AbstractTxEncryptor.html" target="_top" xlink:title=" ">
<polygon fill="white" stroke="black" points="1106.5,-160 1106.5,-179 1239.5,-179 1239.5,-160 1106.5,-160"/>
<text text-anchor="middle" x="1173" y="-167" font-family="Helvetica,sans-Serif" font-size="10.00">kv::AbstractTxEncryptor</text>
</a>
</g>
</g>
<!-- Node17&#45;&gt;Node16 -->
<g id="edge16" class="edge">
<title>Node17&#45;&gt;Node16</title>
<path fill="none" stroke="midnightblue" d="M1249.87,-168.35C1307.08,-167.49 1384.77,-166.32 1439.33,-165.49"/>
<polygon fill="midnightblue" stroke="midnightblue" points="1249.74,-164.86 1239.79,-168.51 1249.84,-171.85 1249.74,-164.86"/>
</g>
<!-- Node18 -->
<g id="node18" class="node">
<title>Node18</title>
<g id="a_node18"><a xlink:title=" ">
<polygon fill="white" stroke="black" points="1687,-74 1687,-115 1854,-115 1854,-74 1687,-74"/>
<text text-anchor="start" x="1695" y="-103" font-family="Helvetica,sans-Serif" font-size="10.00">std::map&lt; CompoundHandle,</text>
<text text-anchor="start" x="1695" y="-92" font-family="Helvetica,sans-Serif" font-size="10.00"> ccf::historical::StateCacheImpl</text>
<text text-anchor="middle" x="1770.5" y="-81" font-family="Helvetica,sans-Serif" font-size="10.00">::Request &gt;</text>
</a>
</g>
</g>
<!-- Node18&#45;&gt;Node2 -->
<g id="edge18" class="edge">
<title>Node18&#45;&gt;Node2</title>
<path fill="none" stroke="#9a32cd" stroke-dasharray="5,2" d="M1864.03,-107.8C1905.89,-115.93 1955.22,-128.52 1997,-147.5 2032.62,-163.69 2068.46,-193.56 2085.6,-208.88"/>
<polygon fill="#9a32cd" stroke="#9a32cd" points="1864.6,-104.35 1854.12,-105.93 1863.3,-111.23 1864.6,-104.35"/>
<text text-anchor="middle" x="1934.5" y="-150.5" font-family="Helvetica,sans-Serif" font-size="10.00"> requests</text>
</g>
<!-- Node19 -->
<g id="node19" class="node">
<title>Node19</title>
<g id="a_node19"><a xlink:href="structccf_1_1historical_1_1StateCacheImpl_1_1Request.html" target="_top" xlink:title=" ">
<polygon fill="white" stroke="black" points="1434.5,-59.5 1434.5,-89.5 1577.5,-89.5 1577.5,-59.5 1434.5,-59.5"/>
<text text-anchor="start" x="1442.5" y="-77.5" font-family="Helvetica,sans-Serif" font-size="10.00">ccf::historical::StateCache</text>
<text text-anchor="middle" x="1506" y="-66.5" font-family="Helvetica,sans-Serif" font-size="10.00">Impl::Request</text>
</a>
</g>
</g>
<!-- Node19&#45;&gt;Node18 -->
<g id="edge19" class="edge">
<title>Node19&#45;&gt;Node18</title>
<path fill="none" stroke="#9a32cd" stroke-dasharray="5,2" d="M1587.7,-80.65C1619.08,-83.04 1654.99,-85.78 1686.57,-88.18"/>
<polygon fill="#9a32cd" stroke="#9a32cd" points="1587.93,-77.16 1577.69,-79.89 1587.4,-84.14 1587.93,-77.16"/>
<text text-anchor="middle" x="1633.5" y="-89.5" font-family="Helvetica,sans-Serif" font-size="10.00"> elements</text>
</g>
<!-- Node20 -->
<g id="node20" class="node">
<title>Node20</title>
<g id="a_node20"><a xlink:href="classds_1_1ContiguousSet.html" target="_top" xlink:title=" ">
<polygon fill="white" stroke="black" points="1116.5,-0.5 1116.5,-30.5 1229.5,-30.5 1229.5,-0.5 1116.5,-0.5"/>
<text text-anchor="start" x="1124.5" y="-18.5" font-family="Helvetica,sans-Serif" font-size="10.00">ds::ContiguousSet&lt;</text>
<text text-anchor="middle" x="1173" y="-7.5" font-family="Helvetica,sans-Serif" font-size="10.00"> ccf::SeqNo &gt;</text>
</a>
</g>
</g>
<!-- Node20&#45;&gt;Node19 -->
<g id="edge20" class="edge">
<title>Node20&#45;&gt;Node19</title>
<path fill="none" stroke="#9a32cd" stroke-dasharray="5,2" d="M1239.8,-26.81C1288.05,-35.15 1355.13,-46.85 1414,-57.5 1420.64,-58.7 1427.55,-59.97 1434.47,-61.24"/>
<polygon fill="#9a32cd" stroke="#9a32cd" points="1240.25,-23.33 1229.8,-25.08 1239.06,-30.23 1240.25,-23.33"/>
<text text-anchor="middle" x="1343" y="-60.5" font-family="Helvetica,sans-Serif" font-size="10.00"> requested_seqnos</text>
</g>
<!-- Node21 -->
<g id="node21" class="node">
<title>Node21</title>
<g id="a_node21"><a xlink:title=" ">
<polygon fill="white" stroke="black" points="1110.5,-110.5 1110.5,-140.5 1235.5,-140.5 1235.5,-110.5 1110.5,-110.5"/>
<text text-anchor="start" x="1118.5" y="-128.5" font-family="Helvetica,sans-Serif" font-size="10.00">std::map&lt; ccf::SeqNo,</text>
<text text-anchor="middle" x="1173" y="-117.5" font-family="Helvetica,sans-Serif" font-size="10.00"> StoreDetailsPtr &gt;</text>
</a>
</g>
</g>
<!-- Node21&#45;&gt;Node19 -->
<g id="edge21" class="edge">
<title>Node21&#45;&gt;Node19</title>
<path fill="none" stroke="#9a32cd" stroke-dasharray="5,2" d="M1246.04,-114.4C1301.85,-105.8 1378.76,-93.95 1434.25,-85.4"/>
<polygon fill="#9a32cd" stroke="#9a32cd" points="1245.22,-110.99 1235.87,-115.97 1246.29,-117.9 1245.22,-110.99"/>
<text text-anchor="middle" x="1343" y="-123.5" font-family="Helvetica,sans-Serif" font-size="10.00"> requested_stores</text>
<text text-anchor="middle" x="1343" y="-112.5" font-family="Helvetica,sans-Serif" font-size="10.00">supporting_signatures</text>
</g>
<!-- Node22 -->
<g id="node22" class="node">
<title>Node22</title>
<g id="a_node22"><a xlink:title=" ">
<polygon fill="white" stroke="black" points="861.5,-116 861.5,-135 979.5,-135 979.5,-116 861.5,-116"/>
<text text-anchor="middle" x="920.5" y="-123" font-family="Helvetica,sans-Serif" font-size="10.00">std::shared_ptr&lt; T &gt;</text>
</a>
</g>
</g>
<!-- Node22&#45;&gt;Node21 -->
<g id="edge22" class="edge">
<title>Node22&#45;&gt;Node21</title>
<path fill="none" stroke="#9a32cd" stroke-dasharray="5,2" d="M989.96,-125.5C1027.55,-125.5 1073.8,-125.5 1110.28,-125.5"/>
<polygon fill="#9a32cd" stroke="#9a32cd" points="989.6,-122 979.6,-125.5 989.6,-129 989.6,-122"/>
<text text-anchor="middle" x="1049.5" y="-128.5" font-family="Helvetica,sans-Serif" font-size="10.00"> elements</text>
</g>
<!-- Node23 -->
<g id="node23" class="node">
<title>Node23</title>
<g id="a_node23"><a xlink:title=" ">
<polygon fill="white" stroke="black" points="602.5,-116 602.5,-135 631.5,-135 631.5,-116 602.5,-116"/>
<text text-anchor="middle" x="617" y="-123" font-family="Helvetica,sans-Serif" font-size="10.00">T</text>
</a>
</g>
</g>
<!-- Node23&#45;&gt;Node22 -->
<g id="edge23" class="edge">
<title>Node23&#45;&gt;Node22</title>
<path fill="none" stroke="#9a32cd" stroke-dasharray="5,2" d="M641.86,-125.5C688.87,-125.5 794.68,-125.5 861.25,-125.5"/>
<polygon fill="#9a32cd" stroke="#9a32cd" points="641.74,-122 631.74,-125.5 641.74,-129 641.74,-122"/>
<text text-anchor="middle" x="769.5" y="-128.5" font-family="Helvetica,sans-Serif" font-size="10.00"> ptr</text>
</g>
<!-- Node24 -->
<g id="node24" class="node">
<title>Node24</title>
<g id="a_node24"><a xlink:title=" ">
<polygon fill="white" stroke="black" points="1092,-50 1092,-91 1254,-91 1254,-50 1092,-50"/>
<text text-anchor="start" x="1100" y="-79" font-family="Helvetica,sans-Serif" font-size="10.00">std::unique_ptr&lt; ccf</text>
<text text-anchor="start" x="1100" y="-68" font-family="Helvetica,sans-Serif" font-size="10.00">::historical::StateCacheImpl</text>
<text text-anchor="middle" x="1173" y="-57" font-family="Helvetica,sans-Serif" font-size="10.00">::LedgerSecretRecoveryInfo &gt;</text>
</a>
</g>
</g>
<!-- Node24&#45;&gt;Node19 -->
<g id="edge24" class="edge">
<title>Node24&#45;&gt;Node19</title>
<path fill="none" stroke="#9a32cd" stroke-dasharray="5,2" d="M1264.3,-71.59C1317.82,-72.24 1384.67,-73.05 1434.33,-73.65"/>
<polygon fill="#9a32cd" stroke="#9a32cd" points="1264.17,-68.09 1254.13,-71.47 1264.08,-75.09 1264.17,-68.09"/>
<text text-anchor="middle" x="1343" y="-76.5" font-family="Helvetica,sans-Serif" font-size="10.00"> ledger_secret_recovery_info</text>
</g>
<!-- Node25 -->
<g id="node25" class="node">
<title>Node25</title>
<g id="a_node25"><a xlink:href="structccf_1_1historical_1_1StateCacheImpl_1_1LedgerSecretRecoveryInfo.html" target="_top" xlink:title=" ">
<polygon fill="white" stroke="black" points="834,-55.5 834,-85.5 1007,-85.5 1007,-55.5 834,-55.5"/>
<text text-anchor="start" x="842" y="-73.5" font-family="Helvetica,sans-Serif" font-size="10.00">ccf::historical::StateCache</text>
<text text-anchor="middle" x="920.5" y="-62.5" font-family="Helvetica,sans-Serif" font-size="10.00">Impl::LedgerSecretRecoveryInfo</text>
</a>
</g>
</g>
<!-- Node25&#45;&gt;Node24 -->
<g id="edge25" class="edge">
<title>Node25&#45;&gt;Node24</title>
<path fill="none" stroke="#9a32cd" stroke-dasharray="5,2" d="M1017.11,-70.5C1041.81,-70.5 1068.13,-70.5 1091.94,-70.5"/>
<polygon fill="#9a32cd" stroke="#9a32cd" points="1017.01,-67 1007.01,-70.5 1017.01,-74 1017.01,-67"/>
<text text-anchor="middle" x="1049.5" y="-73.5" font-family="Helvetica,sans-Serif" font-size="10.00"> ptr</text>
</g>
<!-- Node26 -->
<g id="node26" class="node">
<title>Node26</title>
<g id="a_node26"><a xlink:title=" ">
<polygon fill="white" stroke="black" points="529,-61 529,-80 705,-80 705,-61 529,-61"/>
<text text-anchor="middle" x="617" y="-68" font-family="Helvetica,sans-Serif" font-size="10.00">std::shared_ptr&lt; LedgerSecret &gt;</text>
</a>
</g>
</g>
<!-- Node26&#45;&gt;Node25 -->
<g id="edge26" class="edge">
<title>Node26&#45;&gt;Node25</title>
<path fill="none" stroke="#9a32cd" stroke-dasharray="5,2" d="M715.3,-70.5C753.45,-70.5 796.84,-70.5 833.79,-70.5"/>
<polygon fill="#9a32cd" stroke="#9a32cd" points="715.21,-67 705.21,-70.5 715.21,-74 715.21,-67"/>
<text text-anchor="middle" x="769.5" y="-73.5" font-family="Helvetica,sans-Serif" font-size="10.00"> last_ledger_secret</text>
</g>
<!-- Node27 -->
<g id="node27" class="node">
<title>Node27</title>
<g id="a_node27"><a xlink:href="structccf_1_1LedgerSecret.html" target="_top" xlink:title=" ">
<polygon fill="white" stroke="black" points="376,-61 376,-80 476,-80 476,-61 376,-61"/>
<text text-anchor="middle" x="426" y="-68" font-family="Helvetica,sans-Serif" font-size="10.00">ccf::LedgerSecret</text>
</a>
</g>
</g>
<!-- Node27&#45;&gt;Node26 -->
<g id="edge27" class="edge">
<title>Node27&#45;&gt;Node26</title>
<path fill="none" stroke="#9a32cd" stroke-dasharray="5,2" d="M486.22,-70.5C499.69,-70.5 514.28,-70.5 528.64,-70.5"/>
<polygon fill="#9a32cd" stroke="#9a32cd" points="486.16,-67 476.16,-70.5 486.16,-74 486.16,-67"/>
<text text-anchor="middle" x="502.5" y="-73.5" font-family="Helvetica,sans-Serif" font-size="10.00"> ptr</text>
</g>
<!-- Node28 -->
<g id="node28" class="node">
<title>Node28</title>
<g id="a_node28"><a xlink:title=" ">
<polygon fill="white" stroke="black" points="168,-83 168,-102 293,-102 293,-83 168,-83"/>
<text text-anchor="middle" x="230.5" y="-90" font-family="Helvetica,sans-Serif" font-size="10.00">std::vector&lt; uint8_t &gt;</text>
</a>
</g>
</g>
<!-- Node28&#45;&gt;Node27 -->
<g id="edge28" class="edge">
<title>Node28&#45;&gt;Node27</title>
<path fill="none" stroke="#9a32cd" stroke-dasharray="5,2" d="M303.43,-84.32C327.51,-81.58 353.8,-78.6 375.75,-76.1"/>
<polygon fill="#9a32cd" stroke="#9a32cd" points="302.8,-80.87 293.26,-85.48 303.59,-87.83 302.8,-80.87"/>
<text text-anchor="middle" x="336" y="-86.5" font-family="Helvetica,sans-Serif" font-size="10.00"> raw_key</text>
</g>
<!-- Node29 -->
<g id="node29" class="node">
<title>Node29</title>
<g id="a_node29"><a xlink:title=" ">
<polygon fill="white" stroke="black" points="165,-33.5 165,-63.5 296,-63.5 296,-33.5 165,-33.5"/>
<text text-anchor="start" x="173" y="-51.5" font-family="Helvetica,sans-Serif" font-size="10.00">std::shared_ptr&lt; crypto</text>
<text text-anchor="middle" x="230.5" y="-40.5" font-family="Helvetica,sans-Serif" font-size="10.00">::KeyAesGcm &gt;</text>
</a>
</g>
</g>
<!-- Node29&#45;&gt;Node27 -->
<g id="edge29" class="edge">
<title>Node29&#45;&gt;Node27</title>
<path fill="none" stroke="#9a32cd" stroke-dasharray="5,2" d="M306.43,-57.02C329.76,-59.67 354.89,-62.53 375.98,-64.93"/>
<polygon fill="#9a32cd" stroke="#9a32cd" points="306.53,-53.51 296.2,-55.86 305.74,-60.46 306.53,-53.51"/>
<text text-anchor="middle" x="336" y="-66.5" font-family="Helvetica,sans-Serif" font-size="10.00"> key</text>
</g>
<!-- Node30 -->
<g id="node30" class="node">
<title>Node30</title>
<g id="a_node30"><a xlink:href="classcrypto_1_1KeyAesGcm.html" target="_top" xlink:title=" ">
<polygon fill="white" stroke="black" points="0,-39 0,-58 112,-58 112,-39 0,-39"/>
<text text-anchor="middle" x="56" y="-46" font-family="Helvetica,sans-Serif" font-size="10.00">crypto::KeyAesGcm</text>
</a>
</g>
</g>
<!-- Node30&#45;&gt;Node29 -->
<g id="edge30" class="edge">
<title>Node30&#45;&gt;Node29</title>
<path fill="none" stroke="#9a32cd" stroke-dasharray="5,2" d="M122.06,-48.5C136.03,-48.5 150.78,-48.5 164.74,-48.5"/>
<polygon fill="#9a32cd" stroke="#9a32cd" points="122.05,-45 112.05,-48.5 122.05,-52 122.05,-45"/>
<text text-anchor="middle" x="138.5" y="-51.5" font-family="Helvetica,sans-Serif" font-size="10.00"> ptr</text>
</g>
<!-- Node31 -->
<g id="node31" class="node">
<title>Node31</title>
<g id="a_node31"><a xlink:title=" ">
<polygon fill="white" stroke="black" points="1707.5,-390 1707.5,-409 1833.5,-409 1833.5,-390 1707.5,-390"/>
<text text-anchor="middle" x="1770.5" y="-397" font-family="Helvetica,sans-Serif" font-size="10.00">std::set&lt; ccf::SeqNo &gt;</text>
</a>
</g>
</g>
<!-- Node31&#45;&gt;Node2 -->
<g id="edge31" class="edge">
<title>Node31&#45;&gt;Node2</title>
<path fill="none" stroke="#9a32cd" stroke-dasharray="5,2" d="M1843.72,-407.28C1890.73,-408.82 1951.55,-403.81 1997,-375.5 2054.71,-339.55 2084.54,-256.21 2093.25,-228.02"/>
<polygon fill="#9a32cd" stroke="#9a32cd" points="1843.74,-403.78 1833.6,-406.85 1843.44,-410.78 1843.74,-403.78"/>
<text text-anchor="middle" x="1934.5" y="-409.5" font-family="Helvetica,sans-Serif" font-size="10.00"> pending_fetches</text>
</g>
<!-- Node32 -->
<g id="node32" class="node">
<title>Node32</title>
<g id="a_node32"><a xlink:href="classccf_1_1historical_1_1AbstractStateCache.html" target="_top" xlink:title=" ">
<polygon fill="white" stroke="black" points="2033,-105.5 2033,-135.5 2161,-135.5 2161,-105.5 2033,-105.5"/>
<text text-anchor="start" x="2041" y="-123.5" font-family="Helvetica,sans-Serif" font-size="10.00">ccf::historical::Abstract</text>
<text text-anchor="middle" x="2097" y="-112.5" font-family="Helvetica,sans-Serif" font-size="10.00">StateCache</text>
</a>
</g>
</g>
<!-- Node32&#45;&gt;Node1 -->
<g id="edge32" class="edge">
<title>Node32&#45;&gt;Node1</title>
<path fill="none" stroke="midnightblue" d="M2171.06,-128.64C2185.73,-130.27 2201.13,-131.99 2215.73,-133.62"/>
<polygon fill="midnightblue" stroke="midnightblue" points="2171.36,-125.15 2161.03,-127.52 2170.58,-132.11 2171.36,-125.15"/>
</g>
<!-- Node33 -->
<g id="node33" class="node">
<title>Node33</title>
<g id="a_node33"><a xlink:href="classccf_1_1AbstractNodeSubSystem.html" target="_top" xlink:title=" ">
<polygon fill="white" stroke="black" points="1692,-36 1692,-55 1849,-55 1849,-36 1692,-36"/>
<text text-anchor="middle" x="1770.5" y="-43" font-family="Helvetica,sans-Serif" font-size="10.00">ccf::AbstractNodeSubSystem</text>
</a>
</g>
</g>
<!-- Node33&#45;&gt;Node32 -->
<g id="edge33" class="edge">
<title>Node33&#45;&gt;Node32</title>
<path fill="none" stroke="midnightblue" d="M1859.2,-56.31C1901.29,-62.5 1952.18,-71.47 1997,-83.5 2018.62,-89.3 2042.12,-97.98 2060.79,-105.47"/>
<polygon fill="midnightblue" stroke="midnightblue" points="1859.65,-52.84 1849.26,-54.87 1858.65,-59.77 1859.65,-52.84"/>
</g>
</g>
</svg>
