<?xml version="1.0" encoding="UTF-8" standalone="no"?>
<!DOCTYPE svg PUBLIC "-//W3C//DTD SVG 1.1//EN"
 "http://www.w3.org/Graphics/SVG/1.1/DTD/svg11.dtd">
<!-- Generated by graphviz version 2.43.0 (0)
 -->
<!-- Title: ccf::UserRpcFrontend Pages: 1 -->
<svg width="2654pt" height="697pt"
 viewBox="0.00 0.00 2654.00 696.50" xmlns="http://www.w3.org/2000/svg" xmlns:xlink="http://www.w3.org/1999/xlink">
<g id="graph0" class="graph" transform="scale(1 1) rotate(0) translate(4 692.5)">
<title>ccf::UserRpcFrontend</title>
<polygon fill="white" stroke="transparent" points="-4,4 -4,-692.5 2650,-692.5 2650,4 -4,4"/>
<!-- Node1 -->
<g id="node1" class="node">
<title>Node1</title>
<g id="a_node1"><a xlink:title=" ">
<polygon fill="#bfbfbf" stroke="black" points="2527,-377.5 2527,-396.5 2646,-396.5 2646,-377.5 2527,-377.5"/>
<text text-anchor="middle" x="2586.5" y="-384.5" font-family="Helvetica,sans-Serif" font-size="10.00">ccf::UserRpcFrontend</text>
</a>
</g>
</g>
<!-- Node2 -->
<g id="node2" class="node">
<title>Node2</title>
<g id="a_node2"><a xlink:href="classccf_1_1RpcFrontend.html" target="_top" xlink:title=" ">
<polygon fill="white" stroke="black" points="2305,-407.5 2305,-426.5 2402,-426.5 2402,-407.5 2305,-407.5"/>
<text text-anchor="middle" x="2353.5" y="-414.5" font-family="Helvetica,sans-Serif" font-size="10.00">ccf::RpcFrontend</text>
</a>
</g>
</g>
<!-- Node2&#45;&gt;Node1 -->
<g id="edge1" class="edge">
<title>Node2&#45;&gt;Node1</title>
<path fill="none" stroke="midnightblue" d="M2412.15,-409.51C2447.16,-404.97 2491.73,-399.18 2526.91,-394.61"/>
<polygon fill="midnightblue" stroke="midnightblue" points="2411.55,-406.06 2402.08,-410.82 2412.45,-413 2411.55,-406.06"/>
</g>
<!-- Node3 -->
<g id="node3" class="node">
<title>Node3</title>
<g id="a_node3"><a xlink:href="classenclave_1_1RpcHandler.html" target="_top" xlink:title=" ">
<polygon fill="white" stroke="black" points="2050,-445.5 2050,-464.5 2167,-464.5 2167,-445.5 2050,-445.5"/>
<text text-anchor="middle" x="2108.5" y="-452.5" font-family="Helvetica,sans-Serif" font-size="10.00">enclave::RpcHandler</text>
</a>
</g>
</g>
<!-- Node3&#45;&gt;Node2 -->
<g id="edge2" class="edge">
<title>Node3&#45;&gt;Node2</title>
<path fill="none" stroke="midnightblue" d="M2177.17,-444.42C2217.73,-438.08 2268.32,-430.16 2304.72,-424.47"/>
<polygon fill="midnightblue" stroke="midnightblue" points="2176.43,-440.99 2167.09,-445.99 2177.51,-447.91 2176.43,-440.99"/>
</g>
<!-- Node4 -->
<g id="node4" class="node">
<title>Node4</title>
<g id="a_node4"><a xlink:href="classccf_1_1ForwardedRpcHandler.html" target="_top" xlink:title=" ">
<polygon fill="white" stroke="black" points="2037,-407.5 2037,-426.5 2180,-426.5 2180,-407.5 2037,-407.5"/>
<text text-anchor="middle" x="2108.5" y="-414.5" font-family="Helvetica,sans-Serif" font-size="10.00">ccf::ForwardedRpcHandler</text>
</a>
</g>
</g>
<!-- Node4&#45;&gt;Node2 -->
<g id="edge3" class="edge">
<title>Node4&#45;&gt;Node2</title>
<path fill="none" stroke="midnightblue" d="M2190.14,-417C2228.15,-417 2272.2,-417 2304.81,-417"/>
<polygon fill="midnightblue" stroke="midnightblue" points="2190.11,-413.5 2180.11,-417 2190.11,-420.5 2190.11,-413.5"/>
</g>
<!-- Node5 -->
<g id="node5" class="node">
<title>Node5</title>
<g id="a_node5"><a xlink:href="classkv_1_1Store.html" target="_top" xlink:title=" ">
<polygon fill="white" stroke="black" points="2079,-574.5 2079,-593.5 2138,-593.5 2138,-574.5 2079,-574.5"/>
<text text-anchor="middle" x="2108.5" y="-581.5" font-family="Helvetica,sans-Serif" font-size="10.00">kv::Store</text>
</a>
</g>
</g>
<!-- Node5&#45;&gt;Node2 -->
<g id="edge4" class="edge">
<title>Node5&#45;&gt;Node2</title>
<path fill="none" stroke="#9a32cd" stroke-dasharray="5,2" d="M2132.04,-568.51C2181.52,-534.51 2298.46,-454.14 2338.65,-426.52"/>
<polygon fill="#9a32cd" stroke="#9a32cd" points="2129.87,-565.75 2123.62,-574.3 2133.84,-571.52 2129.87,-565.75"/>
<text text-anchor="middle" x="2224" y="-523" font-family="Helvetica,sans-Serif" font-size="10.00"> tables</text>
</g>
<!-- Node6 -->
<g id="node6" class="node">
<title>Node6</title>
<g id="a_node6"><a xlink:href="classkv_1_1AbstractStore.html" target="_top" xlink:title=" ">
<polygon fill="white" stroke="black" points="1791,-555.5 1791,-574.5 1891,-574.5 1891,-555.5 1791,-555.5"/>
<text text-anchor="middle" x="1841" y="-562.5" font-family="Helvetica,sans-Serif" font-size="10.00">kv::AbstractStore</text>
</a>
</g>
</g>
<!-- Node6&#45;&gt;Node5 -->
<g id="edge5" class="edge">
<title>Node6&#45;&gt;Node5</title>
<path fill="none" stroke="midnightblue" d="M1901.02,-569.22C1956.28,-573.18 2036.5,-578.92 2078.84,-581.95"/>
<polygon fill="midnightblue" stroke="midnightblue" points="1901.23,-565.73 1891.01,-568.51 1900.73,-572.71 1901.23,-565.73"/>
</g>
<!-- Node7 -->
<g id="node7" class="node">
<title>Node7</title>
<g id="a_node7"><a xlink:href="classkv_1_1StoreState.html" target="_top" xlink:title=" ">
<polygon fill="white" stroke="black" points="1798.5,-631.5 1798.5,-650.5 1883.5,-650.5 1883.5,-631.5 1798.5,-631.5"/>
<text text-anchor="middle" x="1841" y="-638.5" font-family="Helvetica,sans-Serif" font-size="10.00">kv::StoreState</text>
</a>
</g>
</g>
<!-- Node7&#45;&gt;Node5 -->
<g id="edge6" class="edge">
<title>Node7&#45;&gt;Node5</title>
<path fill="none" stroke="midnightblue" d="M1893.74,-631.97C1929.13,-625.57 1977.05,-616.47 2019,-607 2039.13,-602.46 2061.64,-596.6 2078.92,-591.93"/>
<polygon fill="midnightblue" stroke="midnightblue" points="1892.87,-628.57 1883.64,-633.78 1894.1,-635.46 1892.87,-628.57"/>
</g>
<!-- Node8 -->
<g id="node8" class="node">
<title>Node8</title>
<g id="a_node8"><a xlink:title=" ">
<polygon fill="white" stroke="black" points="1446.5,-533.5 1446.5,-552.5 1515.5,-552.5 1515.5,-533.5 1446.5,-533.5"/>
<text text-anchor="middle" x="1481" y="-540.5" font-family="Helvetica,sans-Serif" font-size="10.00">std::mutex</text>
</a>
</g>
</g>
<!-- Node8&#45;&gt;Node7 -->
<g id="edge7" class="edge">
<title>Node8&#45;&gt;Node7</title>
<path fill="none" stroke="#9a32cd" stroke-dasharray="5,2" d="M1525.92,-539.91C1592.75,-536.17 1715.72,-533.31 1749,-560 1771.38,-577.95 1746.43,-602 1767,-622 1775.45,-630.22 1786.98,-635 1798.38,-637.76"/>
<polygon fill="#9a32cd" stroke="#9a32cd" points="1525.48,-536.43 1515.7,-540.52 1525.89,-543.42 1525.48,-536.43"/>
<text text-anchor="middle" x="1661" y="-585" font-family="Helvetica,sans-Serif" font-size="10.00"> commit_lock</text>
<text text-anchor="middle" x="1661" y="-574" font-family="Helvetica,sans-Serif" font-size="10.00">maps_lock</text>
<text text-anchor="middle" x="1661" y="-563" font-family="Helvetica,sans-Serif" font-size="10.00">version_lock</text>
</g>
<!-- Node14 -->
<g id="node14" class="node">
<title>Node14</title>
<g id="a_node14"><a xlink:href="classccf_1_1endpoints_1_1EndpointRegistry.html" target="_top" xlink:title=" ">
<polygon fill="white" stroke="black" points="2042,-342 2042,-372 2175,-372 2175,-342 2042,-342"/>
<text text-anchor="start" x="2050" y="-360" font-family="Helvetica,sans-Serif" font-size="10.00">ccf::endpoints::Endpoint</text>
<text text-anchor="middle" x="2108.5" y="-349" font-family="Helvetica,sans-Serif" font-size="10.00">Registry</text>
</a>
</g>
</g>
<!-- Node8&#45;&gt;Node14 -->
<g id="edge38" class="edge">
<title>Node8&#45;&gt;Node14</title>
<path fill="none" stroke="#9a32cd" stroke-dasharray="5,2" d="M1525.73,-541.82C1604.29,-539.08 1774.25,-530.39 1915,-504 1962.28,-495.14 1985.81,-508.83 2019,-474 2042.95,-448.87 2016.32,-425.88 2037,-398 2045.18,-386.97 2057.29,-378.41 2069.16,-372.04"/>
<polygon fill="#9a32cd" stroke="#9a32cd" points="1525.59,-538.32 1515.71,-542.15 1525.82,-545.32 1525.59,-538.32"/>
<text text-anchor="middle" x="1841" y="-527" font-family="Helvetica,sans-Serif" font-size="10.00"> metrics_lock</text>
</g>
<!-- Node9 -->
<g id="node9" class="node">
<title>Node9</title>
<g id="a_node9"><a xlink:title=" ">
<polygon fill="white" stroke="black" points="550,-520 550,-572 693,-572 693,-520 550,-520"/>
<text text-anchor="start" x="558" y="-560" font-family="Helvetica,sans-Serif" font-size="10.00">std::map&lt; std::string,</text>
<text text-anchor="start" x="558" y="-549" font-family="Helvetica,sans-Serif" font-size="10.00"> std::pair&lt; kv::Version,</text>
<text text-anchor="start" x="558" y="-538" font-family="Helvetica,sans-Serif" font-size="10.00"> std::shared_ptr&lt; untyped</text>
<text text-anchor="middle" x="621.5" y="-527" font-family="Helvetica,sans-Serif" font-size="10.00">::Map &gt; &gt; &gt;</text>
</a>
</g>
</g>
<!-- Node9&#45;&gt;Node7 -->
<g id="edge8" class="edge">
<title>Node9&#45;&gt;Node7</title>
<path fill="none" stroke="#9a32cd" stroke-dasharray="5,2" d="M702.83,-570.63C765.13,-587.56 853.98,-607 933.5,-607 933.5,-607 933.5,-607 1482,-607 1596.88,-607 1731.56,-624.56 1798.23,-634.44"/>
<polygon fill="#9a32cd" stroke="#9a32cd" points="703.63,-567.22 693.06,-567.94 701.77,-573.97 703.63,-567.22"/>
<text text-anchor="middle" x="1112" y="-610" font-family="Helvetica,sans-Serif" font-size="10.00"> maps</text>
</g>
<!-- Node10 -->
<g id="node10" class="node">
<title>Node10</title>
<g id="a_node10"><a xlink:title=" ">
<polygon fill="white" stroke="black" points="155.5,-255.5 155.5,-274.5 220.5,-274.5 220.5,-255.5 155.5,-255.5"/>
<text text-anchor="middle" x="188" y="-262.5" font-family="Helvetica,sans-Serif" font-size="10.00">std::string</text>
</a>
</g>
</g>
<!-- Node10&#45;&gt;Node9 -->
<g id="edge9" class="edge">
<title>Node10&#45;&gt;Node9</title>
<path fill="none" stroke="#9a32cd" stroke-dasharray="5,2" d="M189.15,-284.92C190.59,-325.43 199.89,-417.66 253,-466 334.49,-540.17 468.23,-551.32 549.93,-550.3"/>
<polygon fill="#9a32cd" stroke="#9a32cd" points="192.64,-284.66 188.92,-274.74 185.65,-284.81 192.64,-284.66"/>
<text text-anchor="middle" x="298.5" y="-520" font-family="Helvetica,sans-Serif" font-size="10.00"> keys</text>
</g>
<!-- Node10&#45;&gt;Node14 -->
<g id="edge15" class="edge">
<title>Node10&#45;&gt;Node14</title>
<path fill="none" stroke="#9a32cd" stroke-dasharray="5,2" d="M201.77,-282.97C213.5,-298.26 232.18,-319.78 253,-333 329.18,-381.36 355.77,-396 446,-396 446,-396 446,-396 1304.5,-396 1575.98,-396 1643.69,-385.66 1915,-376 1961.23,-374.35 1972.99,-376.76 2019,-372 2026.44,-371.23 2034.2,-370.22 2041.9,-369.09"/>
<polygon fill="#9a32cd" stroke="#9a32cd" points="204.48,-280.74 195.71,-274.8 198.86,-284.91 204.48,-280.74"/>
<text text-anchor="middle" x="1112" y="-399" font-family="Helvetica,sans-Serif" font-size="10.00"> method_prefix</text>
</g>
<!-- Node16 -->
<g id="node16" class="node">
<title>Node16</title>
<g id="a_node16"><a xlink:href="structccf_1_1endpoints_1_1EndpointRegistry_1_1OpenApiInfo.html" target="_top" xlink:title=" ">
<polygon fill="white" stroke="black" points="555,-263 555,-293 688,-293 688,-263 555,-263"/>
<text text-anchor="start" x="563" y="-281" font-family="Helvetica,sans-Serif" font-size="10.00">ccf::endpoints::Endpoint</text>
<text text-anchor="middle" x="621.5" y="-270" font-family="Helvetica,sans-Serif" font-size="10.00">Registry::OpenApiInfo</text>
</a>
</g>
</g>
<!-- Node10&#45;&gt;Node16 -->
<g id="edge17" class="edge">
<title>Node10&#45;&gt;Node16</title>
<path fill="none" stroke="#9a32cd" stroke-dasharray="5,2" d="M230.77,-266.26C305.97,-268.52 464.67,-273.31 554.64,-276.02"/>
<polygon fill="#9a32cd" stroke="#9a32cd" points="230.83,-262.76 220.73,-265.96 230.62,-269.76 230.83,-262.76"/>
<text text-anchor="middle" x="298.5" y="-295" font-family="Helvetica,sans-Serif" font-size="10.00"> description</text>
<text text-anchor="middle" x="298.5" y="-284" font-family="Helvetica,sans-Serif" font-size="10.00">document_version</text>
<text text-anchor="middle" x="298.5" y="-273" font-family="Helvetica,sans-Serif" font-size="10.00">title</text>
</g>
<!-- Node19 -->
<g id="node19" class="node">
<title>Node19</title>
<g id="a_node19"><a xlink:href="structccf_1_1endpoints_1_1EndpointDefinition.html" target="_top" xlink:title=" ">
<polygon fill="white" stroke="black" points="1045.5,-161 1045.5,-191 1178.5,-191 1178.5,-161 1045.5,-161"/>
<text text-anchor="start" x="1053.5" y="-179" font-family="Helvetica,sans-Serif" font-size="10.00">ccf::endpoints::Endpoint</text>
<text text-anchor="middle" x="1112" y="-168" font-family="Helvetica,sans-Serif" font-size="10.00">Definition</text>
</a>
</g>
</g>
<!-- Node10&#45;&gt;Node19 -->
<g id="edge24" class="edge">
<title>Node10&#45;&gt;Node19</title>
<path fill="none" stroke="#9a32cd" stroke-dasharray="5,2" d="M230.86,-261.97C351.42,-253.1 709.74,-225.56 1006,-191 1018.71,-189.52 1032.26,-187.73 1045.25,-185.92"/>
<polygon fill="#9a32cd" stroke="#9a32cd" points="230.32,-258.51 220.6,-262.73 230.83,-265.49 230.32,-258.51"/>
<text text-anchor="middle" x="621.5" y="-239" font-family="Helvetica,sans-Serif" font-size="10.00"> full_uri_path</text>
</g>
<!-- Node20 -->
<g id="node20" class="node">
<title>Node20</title>
<g id="a_node20"><a xlink:href="structccf_1_1endpoints_1_1EndpointKey.html" target="_top" xlink:title=" ">
<polygon fill="white" stroke="black" points="371.5,-102.5 371.5,-121.5 522.5,-121.5 522.5,-102.5 371.5,-102.5"/>
<text text-anchor="middle" x="447" y="-109.5" font-family="Helvetica,sans-Serif" font-size="10.00">ccf::endpoints::EndpointKey</text>
</a>
</g>
</g>
<!-- Node10&#45;&gt;Node20 -->
<g id="edge22" class="edge">
<title>Node10&#45;&gt;Node20</title>
<path fill="none" stroke="#9a32cd" stroke-dasharray="5,2" d="M192.39,-245.31C198.63,-215.56 214.97,-159.8 253,-133 286.89,-109.12 332.77,-103.34 371.29,-103.78"/>
<polygon fill="#9a32cd" stroke="#9a32cd" points="188.91,-244.84 190.46,-255.32 195.79,-246.16 188.91,-244.84"/>
<text text-anchor="middle" x="298.5" y="-136" font-family="Helvetica,sans-Serif" font-size="10.00"> uri_path</text>
</g>
<!-- Node22 -->
<g id="node22" class="node">
<title>Node22</title>
<g id="a_node22"><a xlink:href="structccf_1_1endpoints_1_1EndpointProperties.html" target="_top" xlink:title=" ">
<polygon fill="white" stroke="black" points="711.5,-161 711.5,-191 844.5,-191 844.5,-161 711.5,-161"/>
<text text-anchor="start" x="719.5" y="-179" font-family="Helvetica,sans-Serif" font-size="10.00">ccf::endpoints::Endpoint</text>
<text text-anchor="middle" x="778" y="-168" font-family="Helvetica,sans-Serif" font-size="10.00">Properties</text>
</a>
</g>
</g>
<!-- Node10&#45;&gt;Node22 -->
<g id="edge28" class="edge">
<title>Node10&#45;&gt;Node22</title>
<path fill="none" stroke="#9a32cd" stroke-dasharray="5,2" d="M202.68,-247.17C214.56,-232.82 232.96,-213.12 253,-201 296.42,-174.74 311.83,-174.64 362,-167 484.36,-148.36 629.33,-158.78 711.5,-167.66"/>
<polygon fill="#9a32cd" stroke="#9a32cd" points="199.69,-245.3 196.17,-255.3 205.16,-249.68 199.69,-245.3"/>
<text text-anchor="middle" x="447" y="-181" font-family="Helvetica,sans-Serif" font-size="10.00"> js_function</text>
<text text-anchor="middle" x="447" y="-170" font-family="Helvetica,sans-Serif" font-size="10.00">js_module</text>
</g>
<!-- Node23 -->
<g id="node23" class="node">
<title>Node23</title>
<g id="a_node23"><a xlink:title=" ">
<polygon fill="white" stroke="black" points="377,-198.5 377,-217.5 517,-217.5 517,-198.5 377,-198.5"/>
<text text-anchor="middle" x="447" y="-205.5" font-family="Helvetica,sans-Serif" font-size="10.00">std::vector&lt; std::string &gt;</text>
</a>
</g>
</g>
<!-- Node10&#45;&gt;Node23 -->
<g id="edge27" class="edge">
<title>Node10&#45;&gt;Node23</title>
<path fill="none" stroke="#9a32cd" stroke-dasharray="5,2" d="M207.24,-248.5C219.31,-238.64 235.99,-226.92 253,-221 292.49,-207.26 339.22,-203.81 376.8,-203.89"/>
<polygon fill="#9a32cd" stroke="#9a32cd" points="204.67,-246.09 199.33,-255.24 209.21,-251.41 204.67,-246.09"/>
<text text-anchor="middle" x="298.5" y="-224" font-family="Helvetica,sans-Serif" font-size="10.00"> elements</text>
</g>
<!-- Node28 -->
<g id="node28" class="node">
<title>Node28</title>
<g id="a_node28"><a xlink:title=" ">
<polygon fill="white" stroke="black" points="863,-304.5 863,-345.5 1006,-345.5 1006,-304.5 863,-304.5"/>
<text text-anchor="start" x="871" y="-333.5" font-family="Helvetica,sans-Serif" font-size="10.00">std::map&lt; std::string,</text>
<text text-anchor="start" x="871" y="-322.5" font-family="Helvetica,sans-Serif" font-size="10.00"> std::map&lt; ccf::RESTVerb,</text>
<text text-anchor="middle" x="934.5" y="-311.5" font-family="Helvetica,sans-Serif" font-size="10.00"> EndpointPtr &gt; &gt;</text>
</a>
</g>
</g>
<!-- Node10&#45;&gt;Node28 -->
<g id="edge35" class="edge">
<title>Node10&#45;&gt;Node28</title>
<path fill="none" stroke="#9a32cd" stroke-dasharray="5,2" d="M207.73,-281.33C219.77,-290.76 236.26,-301.76 253,-307 466.72,-373.95 736.91,-351.65 862.86,-335.54"/>
<polygon fill="#9a32cd" stroke="#9a32cd" points="209.75,-278.47 199.8,-274.85 205.32,-283.89 209.75,-278.47"/>
<text text-anchor="middle" x="447" y="-354" font-family="Helvetica,sans-Serif" font-size="10.00"> keys</text>
</g>
<!-- Node29 -->
<g id="node29" class="node">
<title>Node29</title>
<g id="a_node29"><a xlink:title=" ">
<polygon fill="white" stroke="black" points="1218,-51 1218,-103 1389,-103 1389,-51 1218,-51"/>
<text text-anchor="start" x="1226" y="-91" font-family="Helvetica,sans-Serif" font-size="10.00">std::map&lt; std::string,</text>
<text text-anchor="start" x="1226" y="-80" font-family="Helvetica,sans-Serif" font-size="10.00"> std::map&lt; ccf::RESTVerb,</text>
<text text-anchor="start" x="1226" y="-69" font-family="Helvetica,sans-Serif" font-size="10.00"> std::shared_ptr&lt; ccf::endpoints</text>
<text text-anchor="middle" x="1303.5" y="-58" font-family="Helvetica,sans-Serif" font-size="10.00">::PathTemplatedEndpoint &gt; &gt; &gt;</text>
</a>
</g>
</g>
<!-- Node10&#45;&gt;Node29 -->
<g id="edge37" class="edge">
<title>Node10&#45;&gt;Node29</title>
<path fill="none" stroke="#9a32cd" stroke-dasharray="5,2" d="M190.46,-245.32C194.2,-210.21 207.35,-137.08 253,-101 320.95,-47.29 359.39,-74 446,-74 446,-74 446,-74 935.5,-74 1032.35,-74 1143.57,-75.06 1217.96,-75.92"/>
<polygon fill="#9a32cd" stroke="#9a32cd" points="186.97,-245.01 189.55,-255.29 193.95,-245.65 186.97,-245.01"/>
<text text-anchor="middle" x="621.5" y="-77" font-family="Helvetica,sans-Serif" font-size="10.00"> keys</text>
</g>
<!-- Node30 -->
<g id="node30" class="node">
<title>Node30</title>
<g id="a_node30"><a xlink:title=" ">
<polygon fill="white" stroke="black" points="1573,-435 1573,-487 1749,-487 1749,-435 1573,-435"/>
<text text-anchor="start" x="1581" y="-475" font-family="Helvetica,sans-Serif" font-size="10.00">std::map&lt; std::string,</text>
<text text-anchor="start" x="1581" y="-464" font-family="Helvetica,sans-Serif" font-size="10.00"> std::map&lt; std::string,</text>
<text text-anchor="start" x="1581" y="-453" font-family="Helvetica,sans-Serif" font-size="10.00"> ccf::endpoints::EndpointRegistry</text>
<text text-anchor="middle" x="1661" y="-442" font-family="Helvetica,sans-Serif" font-size="10.00">::Metrics &gt; &gt;</text>
</a>
</g>
</g>
<!-- Node10&#45;&gt;Node30 -->
<g id="edge40" class="edge">
<title>Node10&#45;&gt;Node30</title>
<path fill="none" stroke="#9a32cd" stroke-dasharray="5,2" d="M191.92,-284.72C197.66,-316.25 213.51,-377.76 253,-410 321,-465.52 358.21,-452 446,-452 446,-452 446,-452 1304.5,-452 1396.03,-452 1500.77,-455.02 1572.72,-457.56"/>
<polygon fill="#9a32cd" stroke="#9a32cd" points="195.32,-283.86 190.23,-274.56 188.41,-285 195.32,-283.86"/>
<text text-anchor="middle" x="778" y="-455" font-family="Helvetica,sans-Serif" font-size="10.00"> keys</text>
</g>
<!-- Node11 -->
<g id="node11" class="node">
<title>Node11</title>
<g id="a_node11"><a xlink:title=" ">
<polygon fill="white" stroke="black" points="0,-250 0,-280 104,-280 104,-250 0,-250"/>
<text text-anchor="start" x="8" y="-268" font-family="Helvetica,sans-Serif" font-size="10.00">std::basic_string&lt;</text>
<text text-anchor="middle" x="52" y="-257" font-family="Helvetica,sans-Serif" font-size="10.00"> Char &gt;</text>
</a>
</g>
</g>
<!-- Node11&#45;&gt;Node10 -->
<g id="edge10" class="edge">
<title>Node11&#45;&gt;Node10</title>
<path fill="none" stroke="midnightblue" d="M114.32,-265C128.57,-265 143.16,-265 155.49,-265"/>
<polygon fill="midnightblue" stroke="midnightblue" points="114.04,-261.5 104.04,-265 114.04,-268.5 114.04,-261.5"/>
</g>
<!-- Node12 -->
<g id="node12" class="node">
<title>Node12</title>
<g id="a_node12"><a xlink:title=" ">
<polygon fill="white" stroke="black" points="1414,-636 1414,-688 1548,-688 1548,-636 1414,-636"/>
<text text-anchor="start" x="1422" y="-676" font-family="Helvetica,sans-Serif" font-size="10.00">std::unordered_map</text>
<text text-anchor="start" x="1422" y="-665" font-family="Helvetica,sans-Serif" font-size="10.00">&lt; Version, std::pair</text>
<text text-anchor="start" x="1422" y="-654" font-family="Helvetica,sans-Serif" font-size="10.00">&lt; std::unique_ptr&lt; kv</text>
<text text-anchor="middle" x="1481" y="-643" font-family="Helvetica,sans-Serif" font-size="10.00">::PendingTx &gt;, bool &gt; &gt;</text>
</a>
</g>
</g>
<!-- Node12&#45;&gt;Node7 -->
<g id="edge11" class="edge">
<title>Node12&#45;&gt;Node7</title>
<path fill="none" stroke="#9a32cd" stroke-dasharray="5,2" d="M1558.18,-657.53C1631.5,-653.23 1739.62,-646.89 1798.35,-643.44"/>
<polygon fill="#9a32cd" stroke="#9a32cd" points="1557.86,-654.04 1548.08,-658.12 1558.27,-661.03 1557.86,-654.04"/>
<text text-anchor="middle" x="1661" y="-659" font-family="Helvetica,sans-Serif" font-size="10.00"> pending_txs</text>
</g>
<!-- Node13 -->
<g id="node13" class="node">
<title>Node13</title>
<g id="a_node13"><a xlink:href="classkv_1_1ExecutionWrapperStore.html" target="_top" xlink:title=" ">
<polygon fill="white" stroke="black" points="1767,-593.5 1767,-612.5 1915,-612.5 1915,-593.5 1767,-593.5"/>
<text text-anchor="middle" x="1841" y="-600.5" font-family="Helvetica,sans-Serif" font-size="10.00">kv::ExecutionWrapperStore</text>
</a>
</g>
</g>
<!-- Node13&#45;&gt;Node5 -->
<g id="edge12" class="edge">
<title>Node13&#45;&gt;Node5</title>
<path fill="none" stroke="midnightblue" d="M1925.24,-597.04C1977.71,-593.29 2042.24,-588.67 2078.74,-586.06"/>
<polygon fill="midnightblue" stroke="midnightblue" points="1924.98,-593.55 1915.25,-597.76 1925.48,-600.54 1924.98,-593.55"/>
</g>
<!-- Node14&#45;&gt;Node2 -->
<g id="edge13" class="edge">
<title>Node14&#45;&gt;Node2</title>
<path fill="none" stroke="#9a32cd" stroke-dasharray="5,2" d="M2180.48,-374.53C2224.03,-385.28 2278.12,-398.64 2313.9,-407.47"/>
<polygon fill="#9a32cd" stroke="#9a32cd" points="2181.05,-371.06 2170.51,-372.06 2179.37,-377.86 2181.05,-371.06"/>
<text text-anchor="middle" x="2224" y="-394" font-family="Helvetica,sans-Serif" font-size="10.00"> endpoints</text>
</g>
<!-- Node34 -->
<g id="node34" class="node">
<title>Node34</title>
<g id="a_node34"><a xlink:title=" ">
<polygon fill="white" stroke="black" points="2268,-350 2268,-380 2439,-380 2439,-350 2268,-350"/>
<text text-anchor="start" x="2276" y="-368" font-family="Helvetica,sans-Serif" font-size="10.00">std::unique_ptr&lt; ccf</text>
<text text-anchor="middle" x="2353.5" y="-357" font-family="Helvetica,sans-Serif" font-size="10.00">::endpoints::EndpointRegistry &gt;</text>
</a>
</g>
</g>
<!-- Node14&#45;&gt;Node34 -->
<g id="edge45" class="edge">
<title>Node14&#45;&gt;Node34</title>
<path fill="none" stroke="#9a32cd" stroke-dasharray="5,2" d="M2185.4,-356.69C2206.34,-356.84 2229.05,-357.21 2250,-358 2255.79,-358.22 2261.77,-358.49 2267.78,-358.81"/>
<polygon fill="#9a32cd" stroke="#9a32cd" points="2185.3,-353.19 2175.28,-356.64 2185.26,-360.19 2185.3,-353.19"/>
<text text-anchor="middle" x="2224" y="-361" font-family="Helvetica,sans-Serif" font-size="10.00"> ptr</text>
</g>
<!-- Node15 -->
<g id="node15" class="node">
<title>Node15</title>
<g id="a_node15"><a xlink:href="structccf_1_1endpoints_1_1Endpoint_1_1Installer.html" target="_top" xlink:title=" ">
<polygon fill="white" stroke="black" points="1045.5,-213 1045.5,-243 1178.5,-243 1178.5,-213 1045.5,-213"/>
<text text-anchor="start" x="1053.5" y="-231" font-family="Helvetica,sans-Serif" font-size="10.00">ccf::endpoints::Endpoint</text>
<text text-anchor="middle" x="1112" y="-220" font-family="Helvetica,sans-Serif" font-size="10.00">::Installer</text>
</a>
</g>
</g>
<!-- Node15&#45;&gt;Node14 -->
<g id="edge14" class="edge">
<title>Node15&#45;&gt;Node14</title>
<path fill="none" stroke="midnightblue" d="M1188.82,-227.22C1393.13,-225.6 1944.79,-224.5 2019,-259 2057.04,-276.69 2085.92,-319.17 2099.3,-341.95"/>
<polygon fill="midnightblue" stroke="midnightblue" points="1188.74,-223.72 1178.77,-227.3 1188.8,-230.72 1188.74,-223.72"/>
</g>
<!-- Node18 -->
<g id="node18" class="node">
<title>Node18</title>
<g id="a_node18"><a xlink:href="structccf_1_1endpoints_1_1Endpoint.html" target="_top" xlink:title=" ">
<polygon fill="white" stroke="black" points="1414.5,-169.5 1414.5,-188.5 1547.5,-188.5 1547.5,-169.5 1414.5,-169.5"/>
<text text-anchor="middle" x="1481" y="-176.5" font-family="Helvetica,sans-Serif" font-size="10.00">ccf::endpoints::Endpoint</text>
</a>
</g>
</g>
<!-- Node15&#45;&gt;Node18 -->
<g id="edge32" class="edge">
<title>Node15&#45;&gt;Node18</title>
<path fill="none" stroke="#9a32cd" stroke-dasharray="5,2" d="M1188.87,-214.51C1198.66,-212.91 1208.56,-211.37 1218,-210 1284.75,-200.34 1361.39,-191.53 1414.47,-185.8"/>
<polygon fill="#9a32cd" stroke="#9a32cd" points="1188.02,-211.1 1178.73,-216.19 1189.17,-218.01 1188.02,-211.1"/>
<text text-anchor="middle" x="1303.5" y="-213" font-family="Helvetica,sans-Serif" font-size="10.00"> installer</text>
</g>
<!-- Node16&#45;&gt;Node14 -->
<g id="edge16" class="edge">
<title>Node16&#45;&gt;Node14</title>
<path fill="none" stroke="#9a32cd" stroke-dasharray="5,2" d="M698.34,-275.82C898.01,-270.91 1454.52,-262.46 1915,-305 1961.64,-309.31 1973.85,-309.54 2019,-322 2037.79,-327.19 2058.07,-335.03 2074.46,-341.98"/>
<polygon fill="#9a32cd" stroke="#9a32cd" points="698.16,-272.33 688.26,-276.08 698.34,-279.32 698.16,-272.33"/>
<text text-anchor="middle" x="1303.5" y="-279" font-family="Helvetica,sans-Serif" font-size="10.00"> openapi_info</text>
</g>
<!-- Node17 -->
<g id="node17" class="node">
<title>Node17</title>
<g id="a_node17"><a xlink:title=" ">
<polygon fill="white" stroke="black" points="1777.5,-170 1777.5,-200 1904.5,-200 1904.5,-170 1777.5,-170"/>
<text text-anchor="start" x="1785.5" y="-188" font-family="Helvetica,sans-Serif" font-size="10.00">std::shared_ptr&lt; const</text>
<text text-anchor="middle" x="1841" y="-177" font-family="Helvetica,sans-Serif" font-size="10.00"> Endpoint &gt;</text>
</a>
</g>
</g>
<!-- Node17&#45;&gt;Node14 -->
<g id="edge18" class="edge">
<title>Node17&#45;&gt;Node14</title>
<path fill="none" stroke="#9a32cd" stroke-dasharray="5,2" d="M1915.18,-181.39C1949.21,-183.03 1988.74,-189.98 2019,-210 2067.69,-242.22 2093.7,-311.27 2103.22,-341.87"/>
<polygon fill="#9a32cd" stroke="#9a32cd" points="1914.92,-177.88 1904.81,-181.04 1914.69,-184.87 1914.92,-177.88"/>
<text text-anchor="middle" x="1976" y="-213" font-family="Helvetica,sans-Serif" font-size="10.00"> default_endpoint</text>
</g>
<!-- Node18&#45;&gt;Node17 -->
<g id="edge19" class="edge">
<title>Node18&#45;&gt;Node17</title>
<path fill="none" stroke="#9a32cd" stroke-dasharray="5,2" d="M1557.9,-180.27C1623.22,-181.37 1716.34,-182.93 1777.45,-183.95"/>
<polygon fill="#9a32cd" stroke="#9a32cd" points="1557.72,-176.77 1547.66,-180.1 1557.6,-183.77 1557.72,-176.77"/>
<text text-anchor="middle" x="1661" y="-187" font-family="Helvetica,sans-Serif" font-size="10.00"> ptr</text>
</g>
<!-- Node19&#45;&gt;Node18 -->
<g id="edge20" class="edge">
<title>Node19&#45;&gt;Node18</title>
<path fill="none" stroke="midnightblue" d="M1188.62,-176.62C1255.13,-177.16 1350.98,-177.95 1414.34,-178.46"/>
<polygon fill="midnightblue" stroke="midnightblue" points="1188.64,-173.12 1178.61,-176.54 1188.58,-180.12 1188.64,-173.12"/>
</g>
<!-- Node20&#45;&gt;Node19 -->
<g id="edge21" class="edge">
<title>Node20&#45;&gt;Node19</title>
<path fill="none" stroke="#9a32cd" stroke-dasharray="5,2" d="M532.84,-116.41C613.31,-120.96 737.56,-128.95 845,-140 913.49,-147.04 991.53,-157.95 1045.28,-165.91"/>
<polygon fill="#9a32cd" stroke="#9a32cd" points="532.94,-112.91 522.76,-115.84 532.55,-119.89 532.94,-112.91"/>
<text text-anchor="middle" x="778" y="-143" font-family="Helvetica,sans-Serif" font-size="10.00"> dispatch</text>
</g>
<!-- Node21 -->
<g id="node21" class="node">
<title>Node21</title>
<g id="a_node21"><a xlink:href="classccf_1_1RESTVerb.html" target="_top" xlink:title=" ">
<polygon fill="white" stroke="black" points="146.5,-38.5 146.5,-57.5 229.5,-57.5 229.5,-38.5 146.5,-38.5"/>
<text text-anchor="middle" x="188" y="-45.5" font-family="Helvetica,sans-Serif" font-size="10.00">ccf::RESTVerb</text>
</a>
</g>
</g>
<!-- Node21&#45;&gt;Node20 -->
<g id="edge23" class="edge">
<title>Node21&#45;&gt;Node20</title>
<path fill="none" stroke="#9a32cd" stroke-dasharray="5,2" d="M236.99,-59.95C286.31,-72.23 362.11,-91.11 407.59,-102.44"/>
<polygon fill="#9a32cd" stroke="#9a32cd" points="237.75,-56.53 227.2,-57.51 236.06,-63.33 237.75,-56.53"/>
<text text-anchor="middle" x="298.5" y="-89" font-family="Helvetica,sans-Serif" font-size="10.00"> verb</text>
</g>
<!-- Node22&#45;&gt;Node19 -->
<g id="edge25" class="edge">
<title>Node22&#45;&gt;Node19</title>
<path fill="none" stroke="#9a32cd" stroke-dasharray="5,2" d="M854.71,-176C912.18,-176 990.4,-176 1045.26,-176"/>
<polygon fill="#9a32cd" stroke="#9a32cd" points="854.59,-172.5 844.59,-176 854.59,-179.5 854.59,-172.5"/>
<text text-anchor="middle" x="934.5" y="-179" font-family="Helvetica,sans-Serif" font-size="10.00"> properties</text>
</g>
<!-- Node23&#45;&gt;Node22 -->
<g id="edge26" class="edge">
<title>Node23&#45;&gt;Node22</title>
<path fill="none" stroke="#9a32cd" stroke-dasharray="5,2" d="M527.66,-200.25C583.95,-194.78 658.49,-187.53 711.37,-182.38"/>
<polygon fill="#9a32cd" stroke="#9a32cd" points="526.98,-196.8 517.37,-201.25 527.66,-203.77 526.98,-196.8"/>
<text text-anchor="middle" x="621.5" y="-201" font-family="Helvetica,sans-Serif" font-size="10.00"> authn_policies</text>
</g>
<!-- Node24 -->
<g id="node24" class="node">
<title>Node24</title>
<g id="a_node24"><a xlink:title=" ">
<polygon fill="white" stroke="black" points="711,-13 711,-43 845,-43 845,-13 711,-13"/>
<text text-anchor="start" x="719" y="-31" font-family="Helvetica,sans-Serif" font-size="10.00">std::vector&lt; std::shared</text>
<text text-anchor="middle" x="778" y="-20" font-family="Helvetica,sans-Serif" font-size="10.00">_ptr&lt; AuthnPolicy &gt; &gt;</text>
</a>
</g>
</g>
<!-- Node24&#45;&gt;Node19 -->
<g id="edge29" class="edge">
<title>Node24&#45;&gt;Node19</title>
<path fill="none" stroke="#9a32cd" stroke-dasharray="5,2" d="M855.01,-37.15C903.66,-46.65 965.1,-65.94 1006,-105 1021.88,-120.16 1007.77,-136.22 1024,-151 1030.16,-156.61 1037.49,-160.97 1045.26,-164.35"/>
<polygon fill="#9a32cd" stroke="#9a32cd" points="855.62,-33.7 845.15,-35.32 854.35,-40.59 855.62,-33.7"/>
<text text-anchor="middle" x="934.5" y="-108" font-family="Helvetica,sans-Serif" font-size="10.00"> authn_policies</text>
</g>
<!-- Node25 -->
<g id="node25" class="node">
<title>Node25</title>
<g id="a_node25"><a xlink:title=" ">
<polygon fill="white" stroke="black" points="362,-3.5 362,-22.5 532,-22.5 532,-3.5 362,-3.5"/>
<text text-anchor="middle" x="447" y="-10.5" font-family="Helvetica,sans-Serif" font-size="10.00">std::shared_ptr&lt; AuthnPolicy &gt;</text>
</a>
</g>
</g>
<!-- Node25&#45;&gt;Node24 -->
<g id="edge30" class="edge">
<title>Node25&#45;&gt;Node24</title>
<path fill="none" stroke="#9a32cd" stroke-dasharray="5,2" d="M542.55,-17.31C596.4,-19.77 662.53,-22.78 710.82,-24.98"/>
<polygon fill="#9a32cd" stroke="#9a32cd" points="542.45,-13.8 532.3,-16.84 542.13,-20.8 542.45,-13.8"/>
<text text-anchor="middle" x="621.5" y="-27" font-family="Helvetica,sans-Serif" font-size="10.00"> elements</text>
</g>
<!-- Node26 -->
<g id="node26" class="node">
<title>Node26</title>
<g id="a_node26"><a xlink:href="classccf_1_1AuthnPolicy.html" target="_top" xlink:title=" ">
<polygon fill="white" stroke="black" points="141,-0.5 141,-19.5 235,-19.5 235,-0.5 141,-0.5"/>
<text text-anchor="middle" x="188" y="-7.5" font-family="Helvetica,sans-Serif" font-size="10.00">ccf::AuthnPolicy</text>
</a>
</g>
</g>
<!-- Node26&#45;&gt;Node25 -->
<g id="edge31" class="edge">
<title>Node26&#45;&gt;Node25</title>
<path fill="none" stroke="#9a32cd" stroke-dasharray="5,2" d="M245.5,-10.66C279.63,-11.06 323.77,-11.57 361.94,-12.02"/>
<polygon fill="#9a32cd" stroke="#9a32cd" points="245.28,-7.16 235.24,-10.54 245.2,-14.16 245.28,-7.16"/>
<text text-anchor="middle" x="298.5" y="-15" font-family="Helvetica,sans-Serif" font-size="10.00"> ptr</text>
</g>
<!-- Node27 -->
<g id="node27" class="node">
<title>Node27</title>
<g id="a_node27"><a xlink:title=" ">
<polygon fill="white" stroke="black" points="1024,-122.5 1024,-141.5 1200,-141.5 1200,-122.5 1024,-122.5"/>
<text text-anchor="middle" x="1112" y="-129.5" font-family="Helvetica,sans-Serif" font-size="10.00">std::vector&lt; SchemaBuilderFn &gt;</text>
</a>
</g>
</g>
<!-- Node27&#45;&gt;Node18 -->
<g id="edge33" class="edge">
<title>Node27&#45;&gt;Node18</title>
<path fill="none" stroke="#9a32cd" stroke-dasharray="5,2" d="M1210.3,-140.74C1263.26,-145.96 1329.87,-153.28 1389,-162 1403.31,-164.11 1418.81,-166.84 1432.88,-169.49"/>
<polygon fill="#9a32cd" stroke="#9a32cd" points="1210.52,-137.25 1200.23,-139.76 1209.84,-144.22 1210.52,-137.25"/>
<text text-anchor="middle" x="1303.5" y="-165" font-family="Helvetica,sans-Serif" font-size="10.00"> schema_builders</text>
</g>
<!-- Node28&#45;&gt;Node14 -->
<g id="edge34" class="edge">
<title>Node28&#45;&gt;Node14</title>
<path fill="none" stroke="#9a32cd" stroke-dasharray="5,2" d="M1016.42,-322.92C1090.78,-321.18 1204.06,-319 1302.5,-319 1302.5,-319 1302.5,-319 1842,-319 1910.68,-319 1988.36,-331.62 2041.86,-342.31"/>
<polygon fill="#9a32cd" stroke="#9a32cd" points="1016.11,-319.42 1006.19,-323.16 1016.27,-326.42 1016.11,-319.42"/>
<text text-anchor="middle" x="1481" y="-322" font-family="Helvetica,sans-Serif" font-size="10.00"> fully_qualified_endpoints</text>
</g>
<!-- Node29&#45;&gt;Node14 -->
<g id="edge36" class="edge">
<title>Node29&#45;&gt;Node14</title>
<path fill="none" stroke="#9a32cd" stroke-dasharray="5,2" d="M1399.19,-63.75C1547.21,-48.42 1835.44,-40.87 2019,-180 2074.03,-221.71 2097.21,-307.04 2104.62,-341.78"/>
<polygon fill="#9a32cd" stroke="#9a32cd" points="1398.78,-60.27 1389.21,-64.82 1399.53,-67.23 1398.78,-60.27"/>
<text text-anchor="middle" x="1661" y="-74" font-family="Helvetica,sans-Serif" font-size="10.00"> templated_endpoints</text>
</g>
<!-- Node30&#45;&gt;Node14 -->
<g id="edge39" class="edge">
<title>Node30&#45;&gt;Node14</title>
<path fill="none" stroke="#9a32cd" stroke-dasharray="5,2" d="M1759.48,-482.94C1837.33,-494.58 1945.22,-496.83 2019,-442 2035.96,-429.4 2023.13,-413.94 2037,-398 2046.39,-387.21 2059.34,-378.56 2071.59,-372.03"/>
<polygon fill="#9a32cd" stroke="#9a32cd" points="1759.61,-479.42 1749.18,-481.32 1758.52,-486.33 1759.61,-479.42"/>
<text text-anchor="middle" x="1841" y="-492" font-family="Helvetica,sans-Serif" font-size="10.00"> metrics</text>
</g>
<!-- Node31 -->
<g id="node31" class="node">
<title>Node31</title>
<g id="a_node31"><a xlink:href="classkv_1_1Consensus.html" target="_top" xlink:title=" ">
<polygon fill="white" stroke="black" points="1798,-347.5 1798,-366.5 1884,-366.5 1884,-347.5 1798,-347.5"/>
<text text-anchor="middle" x="1841" y="-354.5" font-family="Helvetica,sans-Serif" font-size="10.00">kv::Consensus</text>
</a>
</g>
</g>
<!-- Node31&#45;&gt;Node14 -->
<g id="edge41" class="edge">
<title>Node31&#45;&gt;Node14</title>
<path fill="none" stroke="#9a32cd" stroke-dasharray="5,2" d="M1894.15,-357C1936.44,-357 1996.28,-357 2041.83,-357"/>
<polygon fill="#9a32cd" stroke="#9a32cd" points="1894.07,-353.5 1884.07,-357 1894.07,-360.5 1894.07,-353.5"/>
<text text-anchor="middle" x="1976" y="-360" font-family="Helvetica,sans-Serif" font-size="10.00"> consensus</text>
</g>
<!-- Node32 -->
<g id="node32" class="node">
<title>Node32</title>
<g id="a_node32"><a xlink:href="classkv_1_1ConfigurableConsensus.html" target="_top" xlink:title=" ">
<polygon fill="white" stroke="black" points="1407,-348.5 1407,-367.5 1555,-367.5 1555,-348.5 1407,-348.5"/>
<text text-anchor="middle" x="1481" y="-355.5" font-family="Helvetica,sans-Serif" font-size="10.00">kv::ConfigurableConsensus</text>
</a>
</g>
</g>
<!-- Node32&#45;&gt;Node31 -->
<g id="edge42" class="edge">
<title>Node32&#45;&gt;Node31</title>
<path fill="none" stroke="midnightblue" d="M1565.38,-357.77C1638.21,-357.56 1740.92,-357.28 1797.85,-357.12"/>
<polygon fill="midnightblue" stroke="midnightblue" points="1565.3,-354.27 1555.31,-357.8 1565.32,-361.27 1565.3,-354.27"/>
</g>
<!-- Node33 -->
<g id="node33" class="node">
<title>Node33</title>
<g id="a_node33"><a xlink:href="classkv_1_1TxHistory.html" target="_top" xlink:title=" ">
<polygon fill="white" stroke="black" points="1800.5,-423.5 1800.5,-442.5 1881.5,-442.5 1881.5,-423.5 1800.5,-423.5"/>
<text text-anchor="middle" x="1841" y="-430.5" font-family="Helvetica,sans-Serif" font-size="10.00">kv::TxHistory</text>
</a>
</g>
</g>
<!-- Node33&#45;&gt;Node14 -->
<g id="edge43" class="edge">
<title>Node33&#45;&gt;Node14</title>
<path fill="none" stroke="#9a32cd" stroke-dasharray="5,2" d="M1892.07,-431.69C1928.24,-429.45 1977.78,-423.66 2019,-409 2027.83,-405.86 2028.95,-402.8 2037,-398 2051.59,-389.3 2068,-379.75 2081.31,-372.05"/>
<polygon fill="#9a32cd" stroke="#9a32cd" points="1891.56,-428.22 1881.77,-432.26 1891.94,-435.21 1891.56,-428.22"/>
<text text-anchor="middle" x="1976" y="-430" font-family="Helvetica,sans-Serif" font-size="10.00"> history</text>
</g>
<!-- Node34&#45;&gt;Node1 -->
<g id="edge44" class="edge">
<title>Node34&#45;&gt;Node1</title>
<path fill="none" stroke="#9a32cd" stroke-dasharray="5,2" d="M2449.34,-373.38C2469.06,-375.19 2489.71,-377.12 2509,-379 2514.71,-379.56 2520.67,-380.15 2526.62,-380.76"/>
<polygon fill="#9a32cd" stroke="#9a32cd" points="2449.39,-369.88 2439.12,-372.45 2448.76,-376.85 2449.39,-369.88"/>
<text text-anchor="middle" x="2483" y="-382" font-family="Helvetica,sans-Serif" font-size="10.00"> endpoints</text>
</g>
</g>
</svg>
