<?xml version="1.0" encoding="UTF-8" standalone="no"?>
<!DOCTYPE svg PUBLIC "-//W3C//DTD SVG 1.1//EN"
 "http://www.w3.org/Graphics/SVG/1.1/DTD/svg11.dtd">
<!-- Generated by graphviz version 2.43.0 (0)
 -->
<!-- Title: include/ccf/service/code_digest.h Pages: 1 -->
<svg width="2007pt" height="687pt"
 viewBox="0.00 0.00 2007.00 687.00" xmlns="http://www.w3.org/2000/svg" xmlns:xlink="http://www.w3.org/1999/xlink">
<g id="graph0" class="graph" transform="scale(1 1) rotate(0) translate(4 683)">
<title>include/ccf/service/code_digest.h</title>
<polygon fill="white" stroke="transparent" points="-4,4 -4,-683 2003,-683 2003,4 -4,4"/>
<!-- Node1 -->
<g id="node1" class="node">
<title>Node1</title>
<g id="a_node1"><a xlink:title=" ">
<polygon fill="#bfbfbf" stroke="black" points="657.5,-648.5 657.5,-678.5 764.5,-678.5 764.5,-648.5 657.5,-648.5"/>
<text text-anchor="start" x="665.5" y="-666.5" font-family="Helvetica,sans-Serif" font-size="10.00">include/ccf/service</text>
<text text-anchor="middle" x="711" y="-655.5" font-family="Helvetica,sans-Serif" font-size="10.00">/code_digest.h</text>
</a>
</g>
</g>
<!-- Node2 -->
<g id="node2" class="node">
<title>Node2</title>
<g id="a_node2"><a xlink:href="quote_8h.html" target="_top" xlink:title=" ">
<polygon fill="white" stroke="black" points="513,-520 513,-539 649,-539 649,-520 513,-520"/>
<text text-anchor="middle" x="581" y="-527" font-family="Helvetica,sans-Serif" font-size="10.00">include/ccf/node/quote.h</text>
</a>
</g>
</g>
<!-- Node1&#45;&gt;Node2 -->
<g id="edge1" class="edge">
<title>Node1&#45;&gt;Node2</title>
<path fill="none" stroke="midnightblue" d="M689.84,-641.02C660.71,-611.44 609.58,-559.52 589.47,-539.1"/>
<polygon fill="midnightblue" stroke="midnightblue" points="687.58,-643.7 697.09,-648.37 692.56,-638.79 687.58,-643.7"/>
</g>
<!-- Node24 -->
<g id="node24" class="node">
<title>Node24</title>
<g id="a_node24"><a xlink:href="code__id_8h.html" target="_top" xlink:title=" ">
<polygon fill="white" stroke="black" points="787.5,-581.5 787.5,-611.5 894.5,-611.5 894.5,-581.5 787.5,-581.5"/>
<text text-anchor="start" x="795.5" y="-599.5" font-family="Helvetica,sans-Serif" font-size="10.00">include/ccf/service</text>
<text text-anchor="middle" x="841" y="-588.5" font-family="Helvetica,sans-Serif" font-size="10.00">/tables/code_id.h</text>
</a>
</g>
</g>
<!-- Node1&#45;&gt;Node24 -->
<g id="edge41" class="edge">
<title>Node1&#45;&gt;Node24</title>
<path fill="none" stroke="midnightblue" d="M748.29,-643.85C768.85,-633.58 793.95,-621.03 812.85,-611.58"/>
<polygon fill="midnightblue" stroke="midnightblue" points="746.59,-640.79 739.21,-648.4 749.72,-647.05 746.59,-640.79"/>
</g>
<!-- Node3 -->
<g id="node3" class="node">
<title>Node3</title>
<g id="a_node3"><a xlink:href="quote_8cpp.html" target="_top" xlink:title=" ">
<polygon fill="white" stroke="black" points="529.5,-453 529.5,-472 638.5,-472 638.5,-453 529.5,-453"/>
<text text-anchor="middle" x="584" y="-460" font-family="Helvetica,sans-Serif" font-size="10.00">src/node/quote.cpp</text>
</a>
</g>
</g>
<!-- Node2&#45;&gt;Node3 -->
<g id="edge2" class="edge">
<title>Node2&#45;&gt;Node3</title>
<path fill="none" stroke="midnightblue" d="M581.88,-509.54C582.45,-497.17 583.16,-481.62 583.6,-472.13"/>
<polygon fill="midnightblue" stroke="midnightblue" points="578.37,-509.58 581.4,-519.73 585.36,-509.91 578.37,-509.58"/>
</g>
<!-- Node4 -->
<g id="node4" class="node">
<title>Node4</title>
<g id="a_node4"><a xlink:href="member__frontend_8h.html" target="_top" xlink:title=" ">
<polygon fill="white" stroke="black" points="1174,-246.5 1174,-276.5 1294,-276.5 1294,-246.5 1174,-246.5"/>
<text text-anchor="start" x="1182" y="-264.5" font-family="Helvetica,sans-Serif" font-size="10.00">src/node/rpc/member</text>
<text text-anchor="middle" x="1234" y="-253.5" font-family="Helvetica,sans-Serif" font-size="10.00">_frontend.h</text>
</a>
</g>
</g>
<!-- Node2&#45;&gt;Node4 -->
<g id="edge3" class="edge">
<title>Node2&#45;&gt;Node4</title>
<path fill="none" stroke="midnightblue" d="M604.39,-514.43C618.09,-505.32 634.99,-492.49 647,-478 699.37,-414.79 661.99,-358.97 730,-313 809.08,-259.55 1063.44,-289.96 1158,-277 1163.19,-276.29 1168.56,-275.46 1173.94,-274.56"/>
<polygon fill="midnightblue" stroke="midnightblue" points="602.47,-511.51 595.94,-519.85 606.25,-517.4 602.47,-511.51"/>
</g>
<!-- Node7 -->
<g id="node7" class="node">
<title>Node7</title>
<g id="a_node7"><a xlink:href="node__frontend_8h.html" target="_top" xlink:title=" ">
<polygon fill="white" stroke="black" points="1287,-319 1287,-338 1445,-338 1445,-319 1287,-319"/>
<text text-anchor="middle" x="1366" y="-326" font-family="Helvetica,sans-Serif" font-size="10.00">src/node/rpc/node_frontend.h</text>
</a>
</g>
</g>
<!-- Node2&#45;&gt;Node7 -->
<g id="edge6" class="edge">
<title>Node2&#45;&gt;Node7</title>
<path fill="none" stroke="midnightblue" d="M659.24,-524.81C742.93,-519.51 879.02,-506.95 993,-478 1071.71,-458.01 1087.54,-441.02 1163,-411 1229.34,-384.61 1307.72,-353.03 1344.68,-338.11"/>
<polygon fill="midnightblue" stroke="midnightblue" points="658.81,-521.33 649.05,-525.44 659.24,-528.32 658.81,-521.33"/>
</g>
<!-- Node11 -->
<g id="node11" class="node">
<title>Node11</title>
<g id="a_node11"><a xlink:href="node__operation__interface_8h.html" target="_top" xlink:title=" ">
<polygon fill="white" stroke="black" points="356.5,-447.5 356.5,-477.5 511.5,-477.5 511.5,-447.5 356.5,-447.5"/>
<text text-anchor="start" x="364.5" y="-465.5" font-family="Helvetica,sans-Serif" font-size="10.00">src/node/rpc/node_operation</text>
<text text-anchor="middle" x="434" y="-454.5" font-family="Helvetica,sans-Serif" font-size="10.00">_interface.h</text>
</a>
</g>
</g>
<!-- Node2&#45;&gt;Node11 -->
<g id="edge13" class="edge">
<title>Node2&#45;&gt;Node11</title>
<path fill="none" stroke="midnightblue" d="M552.2,-515.77C527.32,-504.77 491.42,-488.89 465.73,-477.53"/>
<polygon fill="midnightblue" stroke="midnightblue" points="550.92,-519.03 561.48,-519.87 553.75,-512.62 550.92,-519.03"/>
</g>
<!-- Node5 -->
<g id="node5" class="node">
<title>Node5</title>
<g id="a_node5"><a xlink:href="enclave_2enclave_8h.html" target="_top" xlink:title=" ">
<polygon fill="white" stroke="black" points="1267,-56.5 1267,-75.5 1389,-75.5 1389,-56.5 1267,-56.5"/>
<text text-anchor="middle" x="1328" y="-63.5" font-family="Helvetica,sans-Serif" font-size="10.00">src/enclave/enclave.h</text>
</a>
</g>
</g>
<!-- Node4&#45;&gt;Node5 -->
<g id="edge4" class="edge">
<title>Node4&#45;&gt;Node5</title>
<path fill="none" stroke="midnightblue" d="M1245.37,-237.1C1266.32,-193.96 1310.16,-103.73 1323.83,-75.58"/>
<polygon fill="midnightblue" stroke="midnightblue" points="1242.13,-235.75 1240.91,-246.27 1248.43,-238.81 1242.13,-235.75"/>
</g>
<!-- Node6 -->
<g id="node6" class="node">
<title>Node6</title>
<g id="a_node6"><a xlink:href="enclave_2main_8cpp.html" target="_top" xlink:title=" ">
<polygon fill="white" stroke="black" points="1268,-0.5 1268,-19.5 1388,-19.5 1388,-0.5 1268,-0.5"/>
<text text-anchor="middle" x="1328" y="-7.5" font-family="Helvetica,sans-Serif" font-size="10.00">src/enclave/main.cpp</text>
</a>
</g>
</g>
<!-- Node5&#45;&gt;Node6 -->
<g id="edge5" class="edge">
<title>Node5&#45;&gt;Node6</title>
<path fill="none" stroke="midnightblue" d="M1328,-45.8C1328,-36.91 1328,-26.78 1328,-19.75"/>
<polygon fill="midnightblue" stroke="midnightblue" points="1324.5,-46.08 1328,-56.08 1331.5,-46.08 1324.5,-46.08"/>
</g>
<!-- Node7&#45;&gt;Node5 -->
<g id="edge7" class="edge">
<title>Node7&#45;&gt;Node5</title>
<path fill="none" stroke="midnightblue" d="M1363.26,-308.72C1355.68,-256.77 1334.65,-112.61 1329.27,-75.7"/>
<polygon fill="midnightblue" stroke="midnightblue" points="1359.83,-309.44 1364.74,-318.83 1366.76,-308.43 1359.83,-309.44"/>
</g>
<!-- Node8 -->
<g id="node8" class="node">
<title>Node8</title>
<g id="a_node8"><a xlink:href="jwt__key__auto__refresh_8h.html" target="_top" xlink:title=" ">
<polygon fill="white" stroke="black" points="1426.5,-246.5 1426.5,-276.5 1551.5,-276.5 1551.5,-246.5 1426.5,-246.5"/>
<text text-anchor="start" x="1434.5" y="-264.5" font-family="Helvetica,sans-Serif" font-size="10.00">src/node/jwt_key_auto</text>
<text text-anchor="middle" x="1489" y="-253.5" font-family="Helvetica,sans-Serif" font-size="10.00">_refresh.h</text>
</a>
</g>
</g>
<!-- Node7&#45;&gt;Node8 -->
<g id="edge8" class="edge">
<title>Node7&#45;&gt;Node8</title>
<path fill="none" stroke="midnightblue" d="M1391.18,-314.19C1411.87,-303.26 1441.11,-287.81 1462.22,-276.65"/>
<polygon fill="midnightblue" stroke="midnightblue" points="1389.54,-311.1 1382.33,-318.87 1392.81,-317.29 1389.54,-311.1"/>
</g>
<!-- Node9 -->
<g id="node9" class="node">
<title>Node9</title>
<g id="a_node9"><a xlink:href="node__state_8h.html" target="_top" xlink:title=" ">
<polygon fill="white" stroke="black" points="1436,-185 1436,-204 1560,-204 1560,-185 1436,-185"/>
<text text-anchor="middle" x="1498" y="-192" font-family="Helvetica,sans-Serif" font-size="10.00">src/node/node_state.h</text>
</a>
</g>
</g>
<!-- Node8&#45;&gt;Node9 -->
<g id="edge9" class="edge">
<title>Node8&#45;&gt;Node9</title>
<path fill="none" stroke="midnightblue" d="M1492.36,-236.25C1493.91,-225.02 1495.66,-212.38 1496.8,-204.19"/>
<polygon fill="midnightblue" stroke="midnightblue" points="1488.86,-236.01 1490.95,-246.4 1495.79,-236.97 1488.86,-236.01"/>
</g>
<!-- Node9&#45;&gt;Node5 -->
<g id="edge10" class="edge">
<title>Node9&#45;&gt;Node5</title>
<path fill="none" stroke="midnightblue" d="M1473.67,-179.62C1457.26,-169.95 1435.33,-156.42 1417,-143 1386.35,-120.55 1352.99,-90.35 1337.23,-75.69"/>
<polygon fill="midnightblue" stroke="midnightblue" points="1472.23,-182.83 1482.63,-184.84 1475.75,-176.79 1472.23,-182.83"/>
</g>
<!-- Node10 -->
<g id="node10" class="node">
<title>Node10</title>
<g id="a_node10"><a xlink:href="gov__effects_8h.html" target="_top" xlink:title=" ">
<polygon fill="white" stroke="black" points="1426,-118 1426,-137 1570,-137 1570,-118 1426,-118"/>
<text text-anchor="middle" x="1498" y="-125" font-family="Helvetica,sans-Serif" font-size="10.00">src/node/rpc/gov_effects.h</text>
</a>
</g>
</g>
<!-- Node9&#45;&gt;Node10 -->
<g id="edge11" class="edge">
<title>Node9&#45;&gt;Node10</title>
<path fill="none" stroke="midnightblue" d="M1498,-174.54C1498,-162.17 1498,-146.62 1498,-137.13"/>
<polygon fill="midnightblue" stroke="midnightblue" points="1494.5,-174.73 1498,-184.73 1501.5,-174.73 1494.5,-174.73"/>
</g>
<!-- Node10&#45;&gt;Node5 -->
<g id="edge12" class="edge">
<title>Node10&#45;&gt;Node5</title>
<path fill="none" stroke="midnightblue" d="M1463.95,-114.58C1430.91,-103.02 1381.58,-85.75 1352.31,-75.51"/>
<polygon fill="midnightblue" stroke="midnightblue" points="1463.05,-117.98 1473.64,-117.98 1465.36,-111.37 1463.05,-117.98"/>
</g>
<!-- Node11&#45;&gt;Node4 -->
<g id="edge14" class="edge">
<title>Node11&#45;&gt;Node4</title>
<path fill="none" stroke="midnightblue" d="M471.6,-442.81C515.61,-420.58 590.32,-381.72 652,-344 672.72,-331.33 674.11,-321.11 697,-313 890.71,-244.35 954.31,-304.3 1158,-277 1163.19,-276.3 1168.57,-275.48 1173.95,-274.59"/>
<polygon fill="midnightblue" stroke="midnightblue" points="469.78,-439.81 462.42,-447.43 472.93,-446.06 469.78,-439.81"/>
</g>
<!-- Node12 -->
<g id="node12" class="node">
<title>Node12</title>
<g id="a_node12"><a xlink:href="node__interface_8h.html" target="_top" xlink:title=" ">
<polygon fill="white" stroke="black" points="149.5,-386 149.5,-405 310.5,-405 310.5,-386 149.5,-386"/>
<text text-anchor="middle" x="230" y="-393" font-family="Helvetica,sans-Serif" font-size="10.00">src/node/rpc/node_interface.h</text>
</a>
</g>
</g>
<!-- Node11&#45;&gt;Node12 -->
<g id="edge15" class="edge">
<title>Node11&#45;&gt;Node12</title>
<path fill="none" stroke="midnightblue" d="M380.43,-444.43C340.64,-431.75 288.06,-415 256.77,-405.03"/>
<polygon fill="midnightblue" stroke="midnightblue" points="379.4,-447.77 389.99,-447.48 381.52,-441.11 379.4,-447.77"/>
</g>
<!-- Node23 -->
<g id="node23" class="node">
<title>Node23</title>
<g id="a_node23"><a xlink:href="node__operation_8h.html" target="_top" xlink:title=" ">
<polygon fill="white" stroke="black" points="0,-319 0,-338 164,-338 164,-319 0,-319"/>
<text text-anchor="middle" x="82" y="-326" font-family="Helvetica,sans-Serif" font-size="10.00">src/node/rpc/node_operation.h</text>
</a>
</g>
</g>
<!-- Node11&#45;&gt;Node23 -->
<g id="edge40" class="edge">
<title>Node11&#45;&gt;Node23</title>
<path fill="none" stroke="midnightblue" d="M346.23,-453.84C272.38,-446.06 173.61,-432.13 140,-411 111.33,-392.98 92.68,-355.12 85.43,-338.11"/>
<polygon fill="midnightblue" stroke="midnightblue" points="346.17,-457.35 356.47,-454.89 346.89,-450.39 346.17,-457.35"/>
</g>
<!-- Node12&#45;&gt;Node4 -->
<g id="edge36" class="edge">
<title>Node12&#45;&gt;Node4</title>
<path fill="none" stroke="midnightblue" d="M320.88,-387.78C417.67,-379.7 563.97,-364.62 616,-344 637.9,-335.32 636.86,-321.04 659,-313 763.5,-275.05 1047.76,-291.44 1158,-277 1163.19,-276.32 1168.57,-275.51 1173.95,-274.63"/>
<polygon fill="midnightblue" stroke="midnightblue" points="320.47,-384.3 310.79,-388.61 321.05,-391.27 320.47,-384.3"/>
</g>
<!-- Node12&#45;&gt;Node7 -->
<g id="edge37" class="edge">
<title>Node12&#45;&gt;Node7</title>
<path fill="none" stroke="midnightblue" d="M320.68,-391.93C497.67,-386.48 901.44,-371.92 1240,-344 1259.2,-342.42 1280,-340.22 1299.05,-338.02"/>
<polygon fill="midnightblue" stroke="midnightblue" points="320.52,-388.43 310.63,-392.24 320.74,-395.43 320.52,-388.43"/>
</g>
<!-- Node13 -->
<g id="node13" class="node">
<title>Node13</title>
<g id="a_node13"><a xlink:href="wrap_8cpp.html" target="_top" xlink:title=" ">
<polygon fill="white" stroke="black" points="347.5,-185 347.5,-204 436.5,-204 436.5,-185 347.5,-185"/>
<text text-anchor="middle" x="392" y="-192" font-family="Helvetica,sans-Serif" font-size="10.00">src/js/wrap.cpp</text>
</a>
</g>
</g>
<!-- Node12&#45;&gt;Node13 -->
<g id="edge16" class="edge">
<title>Node12&#45;&gt;Node13</title>
<path fill="none" stroke="midnightblue" d="M227.48,-375.77C224.42,-345.02 223.04,-283.5 254,-246 276.9,-218.26 316.44,-205.76 347.34,-200.12"/>
<polygon fill="midnightblue" stroke="midnightblue" points="224.03,-376.41 228.66,-385.94 230.98,-375.6 224.03,-376.41"/>
</g>
<!-- Node14 -->
<g id="node14" class="node">
<title>Node14</title>
<g id="a_node14"><a xlink:href="wrap_8h.html" target="_top" xlink:title=" ">
<polygon fill="white" stroke="black" points="529,-319 529,-338 607,-338 607,-319 529,-319"/>
<text text-anchor="middle" x="568" y="-326" font-family="Helvetica,sans-Serif" font-size="10.00">src/js/wrap.h</text>
</a>
</g>
</g>
<!-- Node12&#45;&gt;Node14 -->
<g id="edge17" class="edge">
<title>Node12&#45;&gt;Node14</title>
<path fill="none" stroke="midnightblue" d="M284.69,-383.98C353.14,-370.82 468.68,-348.6 528.88,-337.02"/>
<polygon fill="midnightblue" stroke="midnightblue" points="283.69,-380.61 274.54,-385.94 285.02,-387.48 283.69,-380.61"/>
</g>
<!-- Node21 -->
<g id="node21" class="node">
<title>Node21</title>
<g id="a_node21"><a xlink:href="historical__queries_8h.html" target="_top" xlink:title=" ">
<polygon fill="white" stroke="black" points="80,-179.5 80,-209.5 186,-209.5 186,-179.5 80,-179.5"/>
<text text-anchor="start" x="88" y="-197.5" font-family="Helvetica,sans-Serif" font-size="10.00">src/node/historical</text>
<text text-anchor="middle" x="133" y="-186.5" font-family="Helvetica,sans-Serif" font-size="10.00">_queries.h</text>
</a>
</g>
</g>
<!-- Node12&#45;&gt;Node21 -->
<g id="edge32" class="edge">
<title>Node12&#45;&gt;Node21</title>
<path fill="none" stroke="midnightblue" d="M221.4,-376.86C202.39,-337.86 157.1,-244.94 139.84,-209.53"/>
<polygon fill="midnightblue" stroke="midnightblue" points="218.3,-378.49 225.83,-385.95 224.6,-375.43 218.3,-378.49"/>
</g>
<!-- Node12&#45;&gt;Node23 -->
<g id="edge38" class="edge">
<title>Node12&#45;&gt;Node23</title>
<path fill="none" stroke="midnightblue" d="M201.04,-381.78C171.73,-368.91 127.21,-349.35 101.73,-338.17"/>
<polygon fill="midnightblue" stroke="midnightblue" points="199.78,-385.05 210.35,-385.87 202.6,-378.64 199.78,-385.05"/>
</g>
<!-- Node14&#45;&gt;Node4 -->
<g id="edge31" class="edge">
<title>Node14&#45;&gt;Node4</title>
<path fill="none" stroke="midnightblue" d="M605.01,-316.36C610.34,-315.06 615.78,-313.88 621,-313 857.75,-273.12 921.94,-308.15 1160,-277 1164.54,-276.41 1169.23,-275.7 1173.93,-274.93"/>
<polygon fill="midnightblue" stroke="midnightblue" points="603.79,-313.07 595,-318.99 605.56,-319.84 603.79,-313.07"/>
</g>
<!-- Node14&#45;&gt;Node5 -->
<g id="edge19" class="edge">
<title>Node14&#45;&gt;Node5</title>
<path fill="none" stroke="midnightblue" d="M600.15,-315.92C604.1,-314.79 608.12,-313.77 612,-313 716.25,-292.21 991.71,-319.83 1089,-277 1107.42,-268.89 1107.07,-259.49 1122,-246 1195.82,-179.3 1287.15,-101.58 1317.59,-75.8"/>
<polygon fill="midnightblue" stroke="midnightblue" points="599.06,-312.59 590.55,-318.9 601.14,-319.27 599.06,-312.59"/>
</g>
<!-- Node14&#45;&gt;Node9 -->
<g id="edge30" class="edge">
<title>Node14&#45;&gt;Node9</title>
<path fill="none" stroke="midnightblue" d="M605.19,-316.35C610.46,-315.05 615.84,-313.88 621,-313 841.05,-275.37 912.16,-353.17 1122,-277 1144.15,-268.96 1143.19,-254.9 1165,-246 1254.46,-209.48 1367.18,-199.07 1435.86,-196.27"/>
<polygon fill="midnightblue" stroke="midnightblue" points="604.07,-313.02 595.28,-318.94 605.84,-319.79 604.07,-313.02"/>
</g>
<!-- Node14&#45;&gt;Node13 -->
<g id="edge29" class="edge">
<title>Node14&#45;&gt;Node13</title>
<path fill="none" stroke="midnightblue" d="M518.6,-324.4C454.76,-319.25 348.92,-306.41 325,-277 303.27,-250.29 349.59,-218.86 375.73,-204.04"/>
<polygon fill="midnightblue" stroke="midnightblue" points="518.61,-327.91 528.85,-325.19 519.15,-320.93 518.61,-327.91"/>
</g>
<!-- Node15 -->
<g id="node15" class="node">
<title>Node15</title>
<g id="a_node15"><a xlink:href="js__generic__base_8cpp.html" target="_top" xlink:title=" ">
<polygon fill="white" stroke="black" points="468,-246.5 468,-276.5 586,-276.5 586,-246.5 468,-246.5"/>
<text text-anchor="start" x="476" y="-264.5" font-family="Helvetica,sans-Serif" font-size="10.00">src/apps/js_generic</text>
<text text-anchor="middle" x="527" y="-253.5" font-family="Helvetica,sans-Serif" font-size="10.00">/js_generic_base.cpp</text>
</a>
</g>
</g>
<!-- Node14&#45;&gt;Node15 -->
<g id="edge18" class="edge">
<title>Node14&#45;&gt;Node15</title>
<path fill="none" stroke="midnightblue" d="M556.98,-310.03C550.37,-299.56 542.08,-286.4 535.89,-276.59"/>
<polygon fill="midnightblue" stroke="midnightblue" points="554.18,-312.14 562.47,-318.73 560.1,-308.41 554.18,-312.14"/>
</g>
<!-- Node16 -->
<g id="node16" class="node">
<title>Node16</title>
<g id="a_node16"><a xlink:href="js_2consensus_8cpp.html" target="_top" xlink:title=" ">
<polygon fill="white" stroke="black" points="334,-252 334,-271 450,-271 450,-252 334,-252"/>
<text text-anchor="middle" x="392" y="-259" font-family="Helvetica,sans-Serif" font-size="10.00">src/js/consensus.cpp</text>
</a>
</g>
</g>
<!-- Node14&#45;&gt;Node16 -->
<g id="edge20" class="edge">
<title>Node14&#45;&gt;Node16</title>
<path fill="none" stroke="midnightblue" d="M534.89,-315.27C499.96,-302.37 445.82,-282.38 415.19,-271.06"/>
<polygon fill="midnightblue" stroke="midnightblue" points="534.04,-318.69 544.63,-318.87 536.46,-312.12 534.04,-318.69"/>
</g>
<!-- Node17 -->
<g id="node17" class="node">
<title>Node17</title>
<g id="a_node17"><a xlink:href="conv_8cpp.html" target="_top" xlink:title=" ">
<polygon fill="white" stroke="black" points="604,-252 604,-271 692,-271 692,-252 604,-252"/>
<text text-anchor="middle" x="648" y="-259" font-family="Helvetica,sans-Serif" font-size="10.00">src/js/conv.cpp</text>
</a>
</g>
</g>
<!-- Node14&#45;&gt;Node17 -->
<g id="edge22" class="edge">
<title>Node14&#45;&gt;Node17</title>
<path fill="none" stroke="midnightblue" d="M586.81,-312.21C602.58,-299.41 624.51,-281.59 637.38,-271.13"/>
<polygon fill="midnightblue" stroke="midnightblue" points="584.34,-309.71 578.79,-318.73 588.76,-315.14 584.34,-309.71"/>
</g>
<!-- Node18 -->
<g id="node18" class="node">
<title>Node18</title>
<g id="a_node18"><a xlink:href="js_2crypto_8cpp.html" target="_top" xlink:title=" ">
<polygon fill="white" stroke="black" points="710,-252 710,-271 806,-271 806,-252 710,-252"/>
<text text-anchor="middle" x="758" y="-259" font-family="Helvetica,sans-Serif" font-size="10.00">src/js/crypto.cpp</text>
</a>
</g>
</g>
<!-- Node14&#45;&gt;Node18 -->
<g id="edge24" class="edge">
<title>Node14&#45;&gt;Node18</title>
<path fill="none" stroke="midnightblue" d="M602.78,-315.6C640.45,-302.71 699.62,-282.47 732.97,-271.06"/>
<polygon fill="midnightblue" stroke="midnightblue" points="601.56,-312.32 593.23,-318.87 603.83,-318.94 601.56,-312.32"/>
</g>
<!-- Node19 -->
<g id="node19" class="node">
<title>Node19</title>
<g id="a_node19"><a xlink:href="js_2historical_8cpp.html" target="_top" xlink:title=" ">
<polygon fill="white" stroke="black" points="824,-252 824,-271 934,-271 934,-252 824,-252"/>
<text text-anchor="middle" x="879" y="-259" font-family="Helvetica,sans-Serif" font-size="10.00">src/js/historical.cpp</text>
</a>
</g>
</g>
<!-- Node14&#45;&gt;Node19 -->
<g id="edge26" class="edge">
<title>Node14&#45;&gt;Node19</title>
<path fill="none" stroke="midnightblue" d="M607.44,-316.32C612,-315.14 616.59,-314.01 621,-313 706.48,-293.41 729.11,-294.69 815,-277 823.93,-275.16 833.52,-273.06 842.5,-271.03"/>
<polygon fill="midnightblue" stroke="midnightblue" points="606.37,-312.98 597.6,-318.93 608.17,-319.75 606.37,-312.98"/>
</g>
<!-- Node20 -->
<g id="node20" class="node">
<title>Node20</title>
<g id="a_node20"><a xlink:href="openenclave_8cpp.html" target="_top" xlink:title=" ">
<polygon fill="white" stroke="black" points="952,-252 952,-271 1080,-271 1080,-252 952,-252"/>
<text text-anchor="middle" x="1016" y="-259" font-family="Helvetica,sans-Serif" font-size="10.00">src/js/openenclave.cpp</text>
</a>
</g>
</g>
<!-- Node14&#45;&gt;Node20 -->
<g id="edge28" class="edge">
<title>Node14&#45;&gt;Node20</title>
<path fill="none" stroke="midnightblue" d="M606.15,-316.3C611.12,-315.07 616.16,-313.93 621,-313 762.43,-285.92 800.7,-299.05 943,-277 953.85,-275.32 965.55,-273.16 976.33,-271.02"/>
<polygon fill="midnightblue" stroke="midnightblue" points="604.93,-313.01 596.14,-318.93 606.7,-319.78 604.93,-313.01"/>
</g>
<!-- Node16&#45;&gt;Node13 -->
<g id="edge21" class="edge">
<title>Node16&#45;&gt;Node13</title>
<path fill="none" stroke="midnightblue" d="M392,-241.54C392,-229.17 392,-213.62 392,-204.13"/>
<polygon fill="midnightblue" stroke="midnightblue" points="388.5,-241.73 392,-251.73 395.5,-241.73 388.5,-241.73"/>
</g>
<!-- Node17&#45;&gt;Node13 -->
<g id="edge23" class="edge">
<title>Node17&#45;&gt;Node13</title>
<path fill="none" stroke="midnightblue" d="M607.48,-249.31C603.27,-248.18 599.05,-247.06 595,-246 536.32,-230.68 467.81,-213.85 427.27,-204.01"/>
<polygon fill="midnightblue" stroke="midnightblue" points="606.64,-252.71 617.2,-251.94 608.47,-245.95 606.64,-252.71"/>
</g>
<!-- Node18&#45;&gt;Node13 -->
<g id="edge25" class="edge">
<title>Node18&#45;&gt;Node13</title>
<path fill="none" stroke="midnightblue" d="M716.56,-249.51C711.34,-248.26 706.06,-247.05 701,-246 607.61,-226.53 497.04,-210.02 436.74,-201.56"/>
<polygon fill="midnightblue" stroke="midnightblue" points="715.91,-252.95 726.46,-251.95 717.59,-246.16 715.91,-252.95"/>
</g>
<!-- Node19&#45;&gt;Node13 -->
<g id="edge27" class="edge">
<title>Node19&#45;&gt;Node13</title>
<path fill="none" stroke="midnightblue" d="M834.28,-249.75C827.83,-248.38 821.26,-247.08 815,-246 677.98,-222.37 514.08,-206.21 436.68,-199.29"/>
<polygon fill="midnightblue" stroke="midnightblue" points="833.74,-253.21 844.26,-251.94 835.24,-246.37 833.74,-253.21"/>
</g>
<!-- Node21&#45;&gt;Node5 -->
<g id="edge33" class="edge">
<title>Node21&#45;&gt;Node5</title>
<path fill="none" stroke="midnightblue" d="M144.63,-170.58C155.88,-151.14 174.91,-124.47 200,-112 295.59,-64.48 1045.51,-65.25 1266.76,-66.54"/>
<polygon fill="midnightblue" stroke="midnightblue" points="141.5,-169.01 139.74,-179.45 147.63,-172.39 141.5,-169.01"/>
</g>
<!-- Node22 -->
<g id="node22" class="node">
<title>Node22</title>
<g id="a_node22"><a xlink:href="historical__transaction__fetcher_8h.html" target="_top" xlink:title=" ">
<polygon fill="white" stroke="black" points="22.5,-112.5 22.5,-142.5 147.5,-142.5 147.5,-112.5 22.5,-112.5"/>
<text text-anchor="start" x="30.5" y="-130.5" font-family="Helvetica,sans-Serif" font-size="10.00">src/indexing/historical</text>
<text text-anchor="middle" x="85" y="-119.5" font-family="Helvetica,sans-Serif" font-size="10.00">_transaction_fetcher.h</text>
</a>
</g>
</g>
<!-- Node21&#45;&gt;Node22 -->
<g id="edge34" class="edge">
<title>Node21&#45;&gt;Node22</title>
<path fill="none" stroke="midnightblue" d="M116.5,-171.16C109.5,-161.68 101.56,-150.92 95.39,-142.58"/>
<polygon fill="midnightblue" stroke="midnightblue" points="113.83,-173.43 122.58,-179.4 119.46,-169.27 113.83,-173.43"/>
</g>
<!-- Node22&#45;&gt;Node5 -->
<g id="edge35" class="edge">
<title>Node22&#45;&gt;Node5</title>
<path fill="none" stroke="midnightblue" d="M158.09,-112.46C159.4,-112.3 160.71,-112.15 162,-112 379.16,-87.5 1058.46,-72.33 1266.7,-68.17"/>
<polygon fill="midnightblue" stroke="midnightblue" points="157.35,-109.03 147.92,-113.87 158.3,-115.97 157.35,-109.03"/>
</g>
<!-- Node23&#45;&gt;Node5 -->
<g id="edge39" class="edge">
<title>Node23&#45;&gt;Node5</title>
<path fill="none" stroke="midnightblue" d="M100.9,-312.77C141.59,-281.94 241.64,-210.84 338,-179 512.4,-121.37 1078.78,-82.28 1266.74,-70.63"/>
<polygon fill="midnightblue" stroke="midnightblue" points="98.73,-310.02 92.92,-318.88 102.99,-315.58 98.73,-310.02"/>
</g>
<!-- Node24&#45;&gt;Node11 -->
<g id="edge60" class="edge">
<title>Node24&#45;&gt;Node11</title>
<path fill="none" stroke="midnightblue" d="M777.35,-591.26C693.08,-584.74 549.77,-570.3 504,-545 475.27,-529.12 452.96,-496.55 441.82,-477.75"/>
<polygon fill="midnightblue" stroke="midnightblue" points="777.09,-594.75 787.33,-592.01 777.62,-587.77 777.09,-594.75"/>
</g>
<!-- Node24&#45;&gt;Node12 -->
<g id="edge59" class="edge">
<title>Node24&#45;&gt;Node12</title>
<path fill="none" stroke="midnightblue" d="M817.22,-574.67C774.24,-537.48 684.62,-462.13 647,-447 513.39,-393.27 467.76,-429.87 325,-411 311.44,-409.21 296.82,-407.08 283.21,-405.01"/>
<polygon fill="midnightblue" stroke="midnightblue" points="815.08,-577.44 824.92,-581.36 819.67,-572.16 815.08,-577.44"/>
</g>
<!-- Node25 -->
<g id="node25" class="node">
<title>Node25</title>
<g id="a_node25"><a xlink:href="common__endpoint__registry_8cpp.html" target="_top" xlink:title=" ">
<polygon fill="white" stroke="black" points="739,-313.5 739,-343.5 867,-343.5 867,-313.5 739,-313.5"/>
<text text-anchor="start" x="747" y="-331.5" font-family="Helvetica,sans-Serif" font-size="10.00">src/endpoints/common</text>
<text text-anchor="middle" x="803" y="-320.5" font-family="Helvetica,sans-Serif" font-size="10.00">_endpoint_registry.cpp</text>
</a>
</g>
</g>
<!-- Node24&#45;&gt;Node25 -->
<g id="edge42" class="edge">
<title>Node24&#45;&gt;Node25</title>
<path fill="none" stroke="midnightblue" d="M837.51,-571.07C829.72,-516.57 811.15,-386.52 805.01,-343.55"/>
<polygon fill="midnightblue" stroke="midnightblue" points="834.08,-571.79 838.96,-581.2 841.01,-570.8 834.08,-571.79"/>
</g>
<!-- Node26 -->
<g id="node26" class="node">
<title>Node26</title>
<g id="a_node26"><a xlink:href="call__types_8h.html" target="_top" xlink:title=" ">
<polygon fill="white" stroke="black" points="847.5,-453 847.5,-472 984.5,-472 984.5,-453 847.5,-453"/>
<text text-anchor="middle" x="916" y="-460" font-family="Helvetica,sans-Serif" font-size="10.00">src/node/rpc/call_types.h</text>
</a>
</g>
</g>
<!-- Node24&#45;&gt;Node26 -->
<g id="edge43" class="edge">
<title>Node24&#45;&gt;Node26</title>
<path fill="none" stroke="midnightblue" d="M842.83,-571.06C844.99,-554.07 849.7,-531.45 860,-514 870.51,-496.18 889.38,-481.12 902.28,-472.2"/>
<polygon fill="midnightblue" stroke="midnightblue" points="839.32,-570.98 841.74,-581.29 846.28,-571.71 839.32,-570.98"/>
</g>
<!-- Node29 -->
<g id="node29" class="node">
<title>Node29</title>
<g id="a_node29"><a xlink:href="serialization_8h.html" target="_top" xlink:title=" ">
<polygon fill="white" stroke="black" points="1006,-386 1006,-405 1154,-405 1154,-386 1006,-386"/>
<text text-anchor="middle" x="1080" y="-393" font-family="Helvetica,sans-Serif" font-size="10.00">src/node/rpc/serialization.h</text>
</a>
</g>
</g>
<!-- Node24&#45;&gt;Node29 -->
<g id="edge61" class="edge">
<title>Node24&#45;&gt;Node29</title>
<path fill="none" stroke="midnightblue" d="M904.41,-587.58C936.87,-580.79 975.27,-568.23 1003,-545 1049.97,-505.65 1071.82,-430.28 1078.05,-405"/>
<polygon fill="midnightblue" stroke="midnightblue" points="903.69,-584.15 894.55,-589.51 905.04,-591.02 903.69,-584.15"/>
</g>
<!-- Node30 -->
<g id="node30" class="node">
<title>Node30</title>
<g id="a_node30"><a xlink:href="node__call__types_8h.html" target="_top" xlink:title=" ">
<polygon fill="white" stroke="black" points="869.5,-514.5 869.5,-544.5 994.5,-544.5 994.5,-514.5 869.5,-514.5"/>
<text text-anchor="start" x="877.5" y="-532.5" font-family="Helvetica,sans-Serif" font-size="10.00">src/node/rpc/node_call</text>
<text text-anchor="middle" x="932" y="-521.5" font-family="Helvetica,sans-Serif" font-size="10.00">_types.h</text>
</a>
</g>
</g>
<!-- Node24&#45;&gt;Node30 -->
<g id="edge57" class="edge">
<title>Node24&#45;&gt;Node30</title>
<path fill="none" stroke="midnightblue" d="M869.07,-575.45C883.07,-565.45 899.66,-553.6 912.29,-544.58"/>
<polygon fill="midnightblue" stroke="midnightblue" points="866.85,-572.74 860.75,-581.4 870.92,-578.43 866.85,-572.74"/>
</g>
<!-- Node31 -->
<g id="node31" class="node">
<title>Node31</title>
<g id="a_node31"><a xlink:href="genesis__gen_8h.html" target="_top" xlink:title=" ">
<polygon fill="white" stroke="black" points="1419,-380.5 1419,-410.5 1529,-410.5 1529,-380.5 1419,-380.5"/>
<text text-anchor="start" x="1427" y="-398.5" font-family="Helvetica,sans-Serif" font-size="10.00">src/service/genesis</text>
<text text-anchor="middle" x="1474" y="-387.5" font-family="Helvetica,sans-Serif" font-size="10.00">_gen.h</text>
</a>
</g>
</g>
<!-- Node24&#45;&gt;Node31 -->
<g id="edge62" class="edge">
<title>Node24&#45;&gt;Node31</title>
<path fill="none" stroke="midnightblue" d="M904.74,-583.41C994.96,-565.38 1164.35,-528.12 1303,-478 1356.51,-458.66 1415.79,-428.24 1448.6,-410.55"/>
<polygon fill="midnightblue" stroke="midnightblue" points="903.8,-580.03 894.67,-585.41 905.16,-586.9 903.8,-580.03"/>
</g>
<!-- Node34 -->
<g id="node34" class="node">
<title>Node34</title>
<g id="a_node34"><a xlink:href="network__tables_8h.html" target="_top" xlink:title=" ">
<polygon fill="white" stroke="black" points="1481,-447.5 1481,-477.5 1593,-477.5 1593,-447.5 1481,-447.5"/>
<text text-anchor="start" x="1489" y="-465.5" font-family="Helvetica,sans-Serif" font-size="10.00">src/service/network</text>
<text text-anchor="middle" x="1537" y="-454.5" font-family="Helvetica,sans-Serif" font-size="10.00">_tables.h</text>
</a>
</g>
</g>
<!-- Node24&#45;&gt;Node34 -->
<g id="edge71" class="edge">
<title>Node24&#45;&gt;Node34</title>
<path fill="none" stroke="midnightblue" d="M904.96,-594.28C1036.14,-591.07 1331.14,-580.08 1425,-545 1464.87,-530.1 1503.15,-496.84 1522.98,-477.74"/>
<polygon fill="midnightblue" stroke="midnightblue" points="904.59,-590.79 894.67,-594.52 904.75,-597.78 904.59,-590.79"/>
</g>
<!-- Node26&#45;&gt;Node4 -->
<g id="edge49" class="edge">
<title>Node26&#45;&gt;Node4</title>
<path fill="none" stroke="midnightblue" d="M908.92,-443.33C898.23,-412.48 882.35,-349.66 914,-313 949.82,-271.51 1103.96,-286.14 1158,-277 1163.17,-276.13 1168.52,-275.18 1173.89,-274.21"/>
<polygon fill="midnightblue" stroke="midnightblue" points="905.67,-444.63 912.4,-452.81 912.24,-442.22 905.67,-444.63"/>
</g>
<!-- Node26&#45;&gt;Node13 -->
<g id="edge46" class="edge">
<title>Node26&#45;&gt;Node13</title>
<path fill="none" stroke="midnightblue" d="M850.46,-451.36C708.4,-427.89 379.75,-365.03 316,-277 307.92,-265.84 309.49,-258.14 316,-246 327,-225.48 350.43,-211.87 368.38,-204.01"/>
<polygon fill="midnightblue" stroke="midnightblue" points="849.93,-454.82 860.36,-452.98 851.06,-447.91 849.93,-454.82"/>
</g>
<!-- Node26&#45;&gt;Node25 -->
<g id="edge45" class="edge">
<title>Node26&#45;&gt;Node25</title>
<path fill="none" stroke="midnightblue" d="M901.86,-444.98C879.5,-418.86 836.34,-368.44 815.23,-343.78"/>
<polygon fill="midnightblue" stroke="midnightblue" points="899.42,-447.52 908.59,-452.84 904.74,-442.97 899.42,-447.52"/>
</g>
<!-- Node27 -->
<g id="node27" class="node">
<title>Node27</title>
<g id="a_node27"><a xlink:href="nobuiltins_8cpp.html" target="_top" xlink:title=" ">
<polygon fill="white" stroke="black" points="923.5,-313.5 923.5,-343.5 1058.5,-343.5 1058.5,-313.5 923.5,-313.5"/>
<text text-anchor="start" x="931.5" y="-331.5" font-family="Helvetica,sans-Serif" font-size="10.00">samples/apps/nobuiltins</text>
<text text-anchor="middle" x="991" y="-320.5" font-family="Helvetica,sans-Serif" font-size="10.00">/nobuiltins.cpp</text>
</a>
</g>
</g>
<!-- Node26&#45;&gt;Node27 -->
<g id="edge44" class="edge">
<title>Node26&#45;&gt;Node27</title>
<path fill="none" stroke="midnightblue" d="M925.89,-443.89C935.18,-427.37 949.48,-401.98 962,-380 969,-367.7 977.02,-353.75 982.85,-343.63"/>
<polygon fill="midnightblue" stroke="midnightblue" points="922.66,-442.49 920.81,-452.92 928.76,-445.92 922.66,-442.49"/>
</g>
<!-- Node28 -->
<g id="node28" class="node">
<title>Node28</title>
<g id="a_node28"><a xlink:href="resharing_8h.html" target="_top" xlink:title=" ">
<polygon fill="white" stroke="black" points="1115,-319 1115,-338 1231,-338 1231,-319 1115,-319"/>
<text text-anchor="middle" x="1173" y="-326" font-family="Helvetica,sans-Serif" font-size="10.00">src/node/resharing.h</text>
</a>
</g>
</g>
<!-- Node26&#45;&gt;Node28 -->
<g id="edge47" class="edge">
<title>Node26&#45;&gt;Node28</title>
<path fill="none" stroke="midnightblue" d="M930.18,-445.42C949.06,-424.33 981.84,-388.96 997,-380 1033.94,-358.16 1080.86,-345.31 1116.97,-338.04"/>
<polygon fill="midnightblue" stroke="midnightblue" points="927.5,-443.17 923.47,-452.96 932.73,-447.82 927.5,-443.17"/>
</g>
<!-- Node26&#45;&gt;Node29 -->
<g id="edge50" class="edge">
<title>Node26&#45;&gt;Node29</title>
<path fill="none" stroke="midnightblue" d="M947.28,-449.1C979.84,-436.2 1029.97,-416.33 1058.39,-405.06"/>
<polygon fill="midnightblue" stroke="midnightblue" points="945.78,-445.93 937.78,-452.87 948.36,-452.44 945.78,-445.93"/>
</g>
<!-- Node28&#45;&gt;Node9 -->
<g id="edge48" class="edge">
<title>Node28&#45;&gt;Node9</title>
<path fill="none" stroke="midnightblue" d="M1205.1,-315.29C1231.47,-305.2 1269.75,-290.41 1303,-277 1367.15,-251.14 1442.55,-219.18 1477.86,-204.12"/>
<polygon fill="midnightblue" stroke="midnightblue" points="1203.71,-312.08 1195.61,-318.91 1206.2,-318.62 1203.71,-312.08"/>
</g>
<!-- Node29&#45;&gt;Node4 -->
<g id="edge55" class="edge">
<title>Node29&#45;&gt;Node4</title>
<path fill="none" stroke="midnightblue" d="M1081.42,-375.69C1083.75,-357.51 1089.87,-330.25 1106,-313 1123.87,-293.89 1149.87,-281.89 1173.78,-274.42"/>
<polygon fill="midnightblue" stroke="midnightblue" points="1077.94,-375.37 1080.41,-385.67 1084.9,-376.07 1077.94,-375.37"/>
</g>
<!-- Node29&#45;&gt;Node7 -->
<g id="edge56" class="edge">
<title>Node29&#45;&gt;Node7</title>
<path fill="none" stroke="midnightblue" d="M1127.77,-383.64C1184.12,-370.84 1276.64,-349.81 1328.23,-338.08"/>
<polygon fill="midnightblue" stroke="midnightblue" points="1126.66,-380.31 1117.68,-385.94 1128.21,-387.13 1126.66,-380.31"/>
</g>
<!-- Node29&#45;&gt;Node9 -->
<g id="edge53" class="edge">
<title>Node29&#45;&gt;Node9</title>
<path fill="none" stroke="midnightblue" d="M1131.22,-383.6C1163.63,-375.45 1205.74,-362.5 1240,-344 1259.18,-333.65 1259.54,-324.59 1278,-313 1309.99,-292.91 1321.45,-294.37 1355,-277 1402.96,-252.17 1458.05,-219.58 1483.6,-204.22"/>
<polygon fill="midnightblue" stroke="midnightblue" points="1130.37,-380.2 1121.49,-385.97 1132.03,-387 1130.37,-380.2"/>
</g>
<!-- Node29&#45;&gt;Node25 -->
<g id="edge52" class="edge">
<title>Node29&#45;&gt;Node25</title>
<path fill="none" stroke="midnightblue" d="M1033.62,-383.62C986.75,-372.62 914.12,-355.58 862.91,-343.56"/>
<polygon fill="midnightblue" stroke="midnightblue" points="1032.97,-387.06 1043.5,-385.94 1034.57,-380.24 1032.97,-387.06"/>
</g>
<!-- Node29&#45;&gt;Node27 -->
<g id="edge51" class="edge">
<title>Node29&#45;&gt;Node27</title>
<path fill="none" stroke="midnightblue" d="M1059.52,-379.54C1044.71,-368.73 1024.82,-354.2 1010.29,-343.59"/>
<polygon fill="midnightblue" stroke="midnightblue" points="1057.86,-382.66 1068,-385.73 1061.99,-377.01 1057.86,-382.66"/>
</g>
<!-- Node29&#45;&gt;Node28 -->
<g id="edge54" class="edge">
<title>Node29&#45;&gt;Node28</title>
<path fill="none" stroke="midnightblue" d="M1100.86,-379.92C1119.25,-367.07 1145.41,-348.78 1160.66,-338.13"/>
<polygon fill="midnightblue" stroke="midnightblue" points="1098.73,-377.14 1092.54,-385.73 1102.74,-382.87 1098.73,-377.14"/>
</g>
<!-- Node30&#45;&gt;Node26 -->
<g id="edge58" class="edge">
<title>Node30&#45;&gt;Node26</title>
<path fill="none" stroke="midnightblue" d="M926.12,-504.6C923.33,-493.28 920.18,-480.46 918.14,-472.19"/>
<polygon fill="midnightblue" stroke="midnightblue" points="922.74,-505.52 928.53,-514.4 929.54,-503.85 922.74,-505.52"/>
</g>
<!-- Node31&#45;&gt;Node4 -->
<g id="edge64" class="edge">
<title>Node31&#45;&gt;Node4</title>
<path fill="none" stroke="midnightblue" d="M1474.46,-370.1C1473.45,-351.93 1469.03,-327.8 1454,-313 1431.67,-291 1351.31,-276.77 1294.19,-269.2"/>
<polygon fill="midnightblue" stroke="midnightblue" points="1470.97,-370.34 1474.72,-380.25 1477.97,-370.16 1470.97,-370.34"/>
</g>
<!-- Node31&#45;&gt;Node7 -->
<g id="edge65" class="edge">
<title>Node31&#45;&gt;Node7</title>
<path fill="none" stroke="midnightblue" d="M1441.83,-375.14C1421.31,-362.79 1395.72,-347.39 1380.13,-338.01"/>
<polygon fill="midnightblue" stroke="midnightblue" points="1440.19,-378.24 1450.57,-380.4 1443.8,-372.24 1440.19,-378.24"/>
</g>
<!-- Node31&#45;&gt;Node9 -->
<g id="edge63" class="edge">
<title>Node31&#45;&gt;Node9</title>
<path fill="none" stroke="midnightblue" d="M1539.38,-378.33C1590.05,-365.49 1652.27,-348.91 1656,-344 1702.25,-283.17 1575.8,-225.43 1521.46,-204.14"/>
<polygon fill="midnightblue" stroke="midnightblue" points="1538.26,-375.01 1529.42,-380.85 1539.98,-381.79 1538.26,-375.01"/>
</g>
<!-- Node32 -->
<g id="node32" class="node">
<title>Node32</title>
<g id="a_node32"><a xlink:href="secret__broadcast_8h.html" target="_top" xlink:title=" ">
<polygon fill="white" stroke="black" points="1703.5,-319 1703.5,-338 1856.5,-338 1856.5,-319 1703.5,-319"/>
<text text-anchor="middle" x="1780" y="-326" font-family="Helvetica,sans-Serif" font-size="10.00">src/node/secret_broadcast.h</text>
</a>
</g>
</g>
<!-- Node31&#45;&gt;Node32 -->
<g id="edge66" class="edge">
<title>Node31&#45;&gt;Node32</title>
<path fill="none" stroke="midnightblue" d="M1539.12,-379.99C1615.62,-363.48 1692.53,-347.51 1738.6,-338.01"/>
<polygon fill="midnightblue" stroke="midnightblue" points="1538.34,-376.58 1529.31,-382.11 1539.82,-383.42 1538.34,-376.58"/>
</g>
<!-- Node33 -->
<g id="node33" class="node">
<title>Node33</title>
<g id="a_node33"><a xlink:href="share__manager_8h.html" target="_top" xlink:title=" ">
<polygon fill="white" stroke="black" points="1501.5,-319 1501.5,-338 1646.5,-338 1646.5,-319 1501.5,-319"/>
<text text-anchor="middle" x="1574" y="-326" font-family="Helvetica,sans-Serif" font-size="10.00">src/node/share_manager.h</text>
</a>
</g>
</g>
<!-- Node31&#45;&gt;Node33 -->
<g id="edge68" class="edge">
<title>Node31&#45;&gt;Node33</title>
<path fill="none" stroke="midnightblue" d="M1504.3,-374.81C1523.21,-362.51 1546.61,-347.3 1560.91,-338.01"/>
<polygon fill="midnightblue" stroke="midnightblue" points="1502.18,-372.01 1495.7,-380.4 1505.99,-377.88 1502.18,-372.01"/>
</g>
<!-- Node32&#45;&gt;Node9 -->
<g id="edge67" class="edge">
<title>Node32&#45;&gt;Node9</title>
<path fill="none" stroke="midnightblue" d="M1766.32,-311.3C1749.83,-292.81 1720.41,-262.93 1689,-246 1648.39,-224.11 1597.73,-211.28 1558.79,-204.04"/>
<polygon fill="midnightblue" stroke="midnightblue" points="1763.74,-313.67 1772.95,-318.91 1769.02,-309.07 1763.74,-313.67"/>
</g>
<!-- Node33&#45;&gt;Node4 -->
<g id="edge70" class="edge">
<title>Node33&#45;&gt;Node4</title>
<path fill="none" stroke="midnightblue" d="M1519.28,-317.04C1457.66,-305.26 1357.83,-286.17 1294.09,-273.99"/>
<polygon fill="midnightblue" stroke="midnightblue" points="1518.72,-320.5 1529.2,-318.94 1520.04,-313.62 1518.72,-320.5"/>
</g>
<!-- Node33&#45;&gt;Node9 -->
<g id="edge69" class="edge">
<title>Node33&#45;&gt;Node9</title>
<path fill="none" stroke="midnightblue" d="M1574.74,-308.98C1574.62,-291.59 1572.28,-265.41 1561,-246 1550.08,-227.22 1529.29,-212.67 1514.58,-204.11"/>
<polygon fill="midnightblue" stroke="midnightblue" points="1571.24,-308.92 1574.57,-318.98 1578.24,-309.04 1571.24,-308.92"/>
</g>
<!-- Node34&#45;&gt;Node31 -->
<g id="edge84" class="edge">
<title>Node34&#45;&gt;Node31</title>
<path fill="none" stroke="midnightblue" d="M1516.19,-440.02C1506.8,-430.34 1495.98,-419.17 1487.64,-410.58"/>
<polygon fill="midnightblue" stroke="midnightblue" points="1513.86,-442.65 1523.33,-447.4 1518.88,-437.78 1513.86,-442.65"/>
</g>
<!-- Node35 -->
<g id="node35" class="node">
<title>Node35</title>
<g id="a_node35"><a xlink:href="kv__module__loader_8cpp.html" target="_top" xlink:title=" ">
<polygon fill="white" stroke="black" points="1547.5,-380.5 1547.5,-410.5 1690.5,-410.5 1690.5,-380.5 1547.5,-380.5"/>
<text text-anchor="start" x="1555.5" y="-398.5" font-family="Helvetica,sans-Serif" font-size="10.00">src/apps/js_v8/kv_module</text>
<text text-anchor="middle" x="1619" y="-387.5" font-family="Helvetica,sans-Serif" font-size="10.00">_loader.cpp</text>
</a>
</g>
</g>
<!-- Node34&#45;&gt;Node35 -->
<g id="edge72" class="edge">
<title>Node34&#45;&gt;Node35</title>
<path fill="none" stroke="midnightblue" d="M1562.65,-441.17C1575.19,-431.23 1589.97,-419.51 1601.24,-410.58"/>
<polygon fill="midnightblue" stroke="midnightblue" points="1560.46,-438.44 1554.79,-447.4 1564.8,-443.93 1560.46,-438.44"/>
</g>
<!-- Node36 -->
<g id="node36" class="node">
<title>Node36</title>
<g id="a_node36"><a xlink:href="network__state_8h.html" target="_top" xlink:title=" ">
<polygon fill="white" stroke="black" points="1710,-386 1710,-405 1850,-405 1850,-386 1710,-386"/>
<text text-anchor="middle" x="1780" y="-393" font-family="Helvetica,sans-Serif" font-size="10.00">src/node/network_state.h</text>
</a>
</g>
</g>
<!-- Node34&#45;&gt;Node36 -->
<g id="edge73" class="edge">
<title>Node34&#45;&gt;Node36</title>
<path fill="none" stroke="midnightblue" d="M1599.32,-444.83C1646.88,-432.11 1710.44,-415.11 1748.12,-405.03"/>
<polygon fill="midnightblue" stroke="midnightblue" points="1598.18,-441.51 1589.43,-447.48 1599.99,-448.27 1598.18,-441.51"/>
</g>
<!-- Node36&#45;&gt;Node5 -->
<g id="edge74" class="edge">
<title>Node36&#45;&gt;Node5</title>
<path fill="none" stroke="midnightblue" d="M1844.83,-383.75C1909.41,-368.89 1999,-335.19 1999,-262.5 1999,-262.5 1999,-262.5 1999,-193.5 1999,-125.68 1934.31,-133.54 1870,-112 1782.37,-82.65 1511.85,-71.88 1389.37,-68.43"/>
<polygon fill="midnightblue" stroke="midnightblue" points="1843.71,-380.41 1834.7,-385.97 1845.22,-387.25 1843.71,-380.41"/>
</g>
<!-- Node36&#45;&gt;Node7 -->
<g id="edge77" class="edge">
<title>Node36&#45;&gt;Node7</title>
<path fill="none" stroke="midnightblue" d="M1724.47,-384.22C1716.27,-382.76 1707.92,-381.32 1700,-380 1604.26,-364.09 1492.71,-347.64 1425.81,-338.01"/>
<polygon fill="midnightblue" stroke="midnightblue" points="1723.89,-387.67 1734.35,-385.99 1725.12,-380.78 1723.89,-387.67"/>
</g>
<!-- Node36&#45;&gt;Node9 -->
<g id="edge76" class="edge">
<title>Node36&#45;&gt;Node9</title>
<path fill="none" stroke="midnightblue" d="M1823.27,-382.59C1843.89,-374.8 1867.22,-362.54 1882,-344 1909.5,-309.48 1927.19,-279.1 1898,-246 1876.04,-221.09 1666.88,-205.36 1560.09,-198.89"/>
<polygon fill="midnightblue" stroke="midnightblue" points="1821.98,-379.33 1813.72,-385.96 1824.31,-385.93 1821.98,-379.33"/>
</g>
<!-- Node36&#45;&gt;Node14 -->
<g id="edge75" class="edge">
<title>Node36&#45;&gt;Node14</title>
<path fill="none" stroke="midnightblue" d="M1729.49,-384.22C1719.74,-382.56 1709.58,-381.04 1700,-380 1271.11,-333.41 1160.55,-371.24 730,-344 688.01,-341.34 640.02,-336.87 607.24,-333.59"/>
<polygon fill="midnightblue" stroke="midnightblue" points="1729.01,-387.69 1739.46,-386 1730.23,-380.8 1729.01,-387.69"/>
</g>
<!-- Node36&#45;&gt;Node32 -->
<g id="edge80" class="edge">
<title>Node36&#45;&gt;Node32</title>
<path fill="none" stroke="midnightblue" d="M1780,-375.54C1780,-363.17 1780,-347.62 1780,-338.13"/>
<polygon fill="midnightblue" stroke="midnightblue" points="1776.5,-375.73 1780,-385.73 1783.5,-375.73 1776.5,-375.73"/>
</g>
<!-- Node36&#45;&gt;Node33 -->
<g id="edge81" class="edge">
<title>Node36&#45;&gt;Node33</title>
<path fill="none" stroke="midnightblue" d="M1743.07,-382.85C1702.27,-369.97 1637.53,-349.55 1601.14,-338.06"/>
<polygon fill="midnightblue" stroke="midnightblue" points="1742.06,-386.2 1752.64,-385.87 1744.16,-379.52 1742.06,-386.2"/>
</g>
<!-- Node37 -->
<g id="node37" class="node">
<title>Node37</title>
<g id="a_node37"><a xlink:href="user__frontend_8h.html" target="_top" xlink:title=" ">
<polygon fill="white" stroke="black" points="1705.5,-118 1705.5,-137 1860.5,-137 1860.5,-118 1705.5,-118"/>
<text text-anchor="middle" x="1783" y="-125" font-family="Helvetica,sans-Serif" font-size="10.00">src/node/rpc/user_frontend.h</text>
</a>
</g>
</g>
<!-- Node36&#45;&gt;Node37 -->
<g id="edge78" class="edge">
<title>Node36&#45;&gt;Node37</title>
<path fill="none" stroke="midnightblue" d="M1841.03,-383.16C1864.58,-375.79 1889.7,-363.72 1906,-344 1925.32,-320.62 1916.1,-307.19 1919,-277 1920.32,-263.29 1924.73,-258.53 1919,-246 1894.33,-192.09 1831.37,-153.48 1800.54,-137.15"/>
<polygon fill="midnightblue" stroke="midnightblue" points="1840.05,-379.8 1831.42,-385.95 1842,-386.53 1840.05,-379.8"/>
</g>
<!-- Node38 -->
<g id="node38" class="node">
<title>Node38</title>
<g id="a_node38"><a xlink:href="snapshotter_8h.html" target="_top" xlink:title=" ">
<polygon fill="white" stroke="black" points="1761.5,-252 1761.5,-271 1888.5,-271 1888.5,-252 1761.5,-252"/>
<text text-anchor="middle" x="1825" y="-259" font-family="Helvetica,sans-Serif" font-size="10.00">src/node/snapshotter.h</text>
</a>
</g>
</g>
<!-- Node36&#45;&gt;Node38 -->
<g id="edge82" class="edge">
<title>Node36&#45;&gt;Node38</title>
<path fill="none" stroke="midnightblue" d="M1818.75,-381.95C1836.47,-374.04 1855.77,-361.88 1866,-344 1880.79,-318.16 1851.75,-286.32 1835.27,-271.23"/>
<polygon fill="midnightblue" stroke="midnightblue" points="1817.04,-378.87 1809.13,-385.91 1819.71,-385.34 1817.04,-378.87"/>
</g>
<!-- Node37&#45;&gt;Node5 -->
<g id="edge79" class="edge">
<title>Node37&#45;&gt;Node5</title>
<path fill="none" stroke="midnightblue" d="M1707.76,-116.66C1618.54,-104.99 1471.56,-85.77 1389.07,-74.99"/>
<polygon fill="midnightblue" stroke="midnightblue" points="1707.44,-120.15 1717.81,-117.98 1708.35,-113.21 1707.44,-120.15"/>
</g>
<!-- Node38&#45;&gt;Node9 -->
<g id="edge83" class="edge">
<title>Node38&#45;&gt;Node9</title>
<path fill="none" stroke="midnightblue" d="M1771.97,-249.96C1707.61,-237.16 1600.34,-215.84 1540.92,-204.03"/>
<polygon fill="midnightblue" stroke="midnightblue" points="1771.42,-253.42 1781.91,-251.94 1772.79,-246.55 1771.42,-253.42"/>
</g>
</g>
</svg>
