<?xml version="1.0" encoding="UTF-8" standalone="no"?>
<!DOCTYPE svg PUBLIC "-//W3C//DTD SVG 1.1//EN"
 "http://www.w3.org/Graphics/SVG/1.1/DTD/svg11.dtd">
<!-- Generated by graphviz version 2.43.0 (0)
 -->
<!-- Title: include/ccf/service/tables/code_id.h Pages: 1 -->
<!--zoomable 620 -->
<svg id="main" version="1.1" xmlns="http://www.w3.org/2000/svg" xmlns:xlink="http://www.w3.org/1999/xlink" xml:space="preserve" onload="init(evt)">
<style type="text/css"><![CDATA[
.edge:hover path { stroke: red; }
.edge:hover polygon { stroke: red; fill: red; }
]]></style>
<script type="text/javascript"><![CDATA[
var edges = document.getElementsByTagName('g');
if (edges && edges.length) {
  for (var i=0;i<edges.length;i++) {
    if (edges[i].id.substr(0,4)=='edge') {
      edges[i].setAttribute('class','edge');
    }
  }
}
]]></script>
        <defs>
                <circle id="rim" cx="0" cy="0" r="7"/>
                <circle id="rim2" cx="0" cy="0" r="3.5"/>
                <g id="zoomPlus">
                        <use xlink:href="#rim" fill="#404040">
                                <set attributeName="fill" to="#808080" begin="zoomplus.mouseover" end="zoomplus.mouseout"/>
                        </use>
                        <path d="M-4,0h8M0,-4v8" fill="none" stroke="white" stroke-width="1.5" pointer-events="none"/>
                </g>
                <g id="zoomMin">
                        <use xlink:href="#rim" fill="#404040">
                                <set attributeName="fill" to="#808080" begin="zoomminus.mouseover" end="zoomminus.mouseout"/>
                        </use>
                        <path d="M-4,0h8" fill="none" stroke="white" stroke-width="1.5" pointer-events="none"/>
                </g>
                <g id="dirArrow">
                        <path fill="none" stroke="white" stroke-width="1.5" d="M0,-3.0v7 M-2.5,-0.5L0,-3.0L2.5,-0.5"/>
                </g>
               <g id="resetDef">
                       <use xlink:href="#rim2" fill="#404040">
                               <set attributeName="fill" to="#808080" begin="reset.mouseover" end="reset.mouseout"/>
                       </use>
               </g>
        </defs>

<script type="text/javascript">
var viewWidth = 2076;
var viewHeight = 620;
var sectionId = 'dynsection-1';
</script>
<script xlink:href="svgpan.js"/>
<svg id="graph" class="graph">
<g id="viewport">
<title>include/ccf/service/tables/code_id.h</title>
<polygon fill="white" stroke="transparent" points="-4,4 -4,-616 2071.5,-616 2071.5,4 -4,4"/>
<!-- Node1 -->
<g id="node1" class="node">
<title>Node1</title>
<g id="a_node1"><a xlink:title=" ">
<polygon fill="#bfbfbf" stroke="black" points="920,-581.5 920,-611.5 1027,-611.5 1027,-581.5 920,-581.5"/>
<text text-anchor="start" x="928" y="-599.5" font-family="Helvetica,sans-Serif" font-size="10.00">include/ccf/service</text>
<text text-anchor="middle" x="973.5" y="-588.5" font-family="Helvetica,sans-Serif" font-size="10.00">/tables/code_id.h</text>
</a>
</g>
</g>
<!-- Node2 -->
<g id="node2" class="node">
<title>Node2</title>
<g id="a_node2"><a xlink:href="common__endpoint__registry_8cpp.html" target="_top" xlink:title=" ">
<polygon fill="white" stroke="black" points="846.5,-313.5 846.5,-343.5 974.5,-343.5 974.5,-313.5 846.5,-313.5"/>
<text text-anchor="start" x="854.5" y="-331.5" font-family="Helvetica,sans-Serif" font-size="10.00">src/endpoints/common</text>
<text text-anchor="middle" x="910.5" y="-320.5" font-family="Helvetica,sans-Serif" font-size="10.00">_endpoint_registry.cpp</text>
</a>
</g>
</g>
<!-- Node1&#45;&gt;Node2 -->
<g id="edge1" class="edge">
<title>Node1&#45;&gt;Node2</title>
<path fill="none" stroke="midnightblue" d="M955.36,-573.34C949.38,-564.93 943.29,-554.97 939.5,-545 912.14,-473.01 909.97,-378.91 910.22,-343.65"/>
<polygon fill="midnightblue" stroke="midnightblue" points="952.66,-575.57 961.46,-581.47 958.26,-571.37 952.66,-575.57"/>
</g>
<!-- Node3 -->
<g id="node3" class="node">
<title>Node3</title>
<g id="a_node3"><a xlink:href="call__types_8h.html" target="_top" xlink:title=" ">
<polygon fill="white" stroke="black" points="948,-453 948,-472 1085,-472 1085,-453 948,-453"/>
<text text-anchor="middle" x="1016.5" y="-460" font-family="Helvetica,sans-Serif" font-size="10.00">src/node/rpc/call_types.h</text>
</a>
</g>
</g>
<!-- Node1&#45;&gt;Node3 -->
<g id="edge2" class="edge">
<title>Node1&#45;&gt;Node3</title>
<path fill="none" stroke="midnightblue" d="M957.55,-572.79C947.86,-555.99 939.02,-532.85 948.5,-514 958.48,-494.16 980.34,-480.16 996.6,-472.01"/>
<polygon fill="midnightblue" stroke="midnightblue" points="954.65,-574.76 962.91,-581.4 960.59,-571.06 954.65,-574.76"/>
</g>
<!-- Node12 -->
<g id="node12" class="node">
<title>Node12</title>
<g id="a_node12"><a xlink:href="serialization_8h.html" target="_top" xlink:title=" ">
<polygon fill="white" stroke="black" points="1076.5,-386 1076.5,-405 1224.5,-405 1224.5,-386 1076.5,-386"/>
<text text-anchor="middle" x="1150.5" y="-393" font-family="Helvetica,sans-Serif" font-size="10.00">src/node/rpc/serialization.h</text>
</a>
</g>
</g>
<!-- Node1&#45;&gt;Node12 -->
<g id="edge55" class="edge">
<title>Node1&#45;&gt;Node12</title>
<path fill="none" stroke="midnightblue" d="M1036.78,-578.89C1056.32,-571.21 1076.6,-560.29 1091.5,-545 1132.15,-503.27 1145.81,-430.08 1149.41,-405.12"/>
<polygon fill="midnightblue" stroke="midnightblue" points="1035.44,-575.66 1027.27,-582.41 1037.87,-582.22 1035.44,-575.66"/>
</g>
<!-- Node15 -->
<g id="node15" class="node">
<title>Node15</title>
<g id="a_node15"><a xlink:href="node__call__types_8h.html" target="_top" xlink:title=" ">
<polygon fill="white" stroke="black" points="957,-514.5 957,-544.5 1082,-544.5 1082,-514.5 957,-514.5"/>
<text text-anchor="start" x="965" y="-532.5" font-family="Helvetica,sans-Serif" font-size="10.00">src/node/rpc/node_call</text>
<text text-anchor="middle" x="1019.5" y="-521.5" font-family="Helvetica,sans-Serif" font-size="10.00">_types.h</text>
</a>
</g>
</g>
<!-- Node1&#45;&gt;Node15 -->
<g id="edge24" class="edge">
<title>Node1&#45;&gt;Node15</title>
<path fill="none" stroke="midnightblue" d="M989.31,-573.16C996.02,-563.68 1003.63,-552.92 1009.54,-544.58"/>
<polygon fill="midnightblue" stroke="midnightblue" points="986.4,-571.21 983.48,-581.4 992.12,-575.26 986.4,-571.21"/>
</g>
<!-- Node16 -->
<g id="node16" class="node">
<title>Node16</title>
<g id="a_node16"><a xlink:href="node__interface_8h.html" target="_top" xlink:title=" ">
<polygon fill="white" stroke="black" points="591,-386 591,-405 752,-405 752,-386 591,-386"/>
<text text-anchor="middle" x="671.5" y="-393" font-family="Helvetica,sans-Serif" font-size="10.00">src/node/rpc/node_interface.h</text>
</a>
</g>
</g>
<!-- Node1&#45;&gt;Node16 -->
<g id="edge26" class="edge">
<title>Node1&#45;&gt;Node16</title>
<path fill="none" stroke="midnightblue" d="M909.69,-587.09C844.15,-574.9 744.35,-545.82 690.5,-478 673.15,-456.15 671.14,-421.23 671.22,-405.14"/>
<polygon fill="midnightblue" stroke="midnightblue" points="909.44,-590.6 919.9,-588.9 910.66,-583.71 909.44,-590.6"/>
</g>
<!-- Node27 -->
<g id="node27" class="node">
<title>Node27</title>
<g id="a_node27"><a xlink:href="node__operation__interface_8h.html" target="_top" xlink:title=" ">
<polygon fill="white" stroke="black" points="700,-447.5 700,-477.5 855,-477.5 855,-447.5 700,-447.5"/>
<text text-anchor="start" x="708" y="-465.5" font-family="Helvetica,sans-Serif" font-size="10.00">src/node/rpc/node_operation</text>
<text text-anchor="middle" x="777.5" y="-454.5" font-family="Helvetica,sans-Serif" font-size="10.00">_interface.h</text>
</a>
</g>
</g>
<!-- Node1&#45;&gt;Node27 -->
<g id="edge51" class="edge">
<title>Node1&#45;&gt;Node27</title>
<path fill="none" stroke="midnightblue" d="M929.15,-577.2C910.13,-568.55 888.07,-557.39 869.5,-545 839.15,-524.74 808.3,-495.19 791.15,-477.79"/>
<polygon fill="midnightblue" stroke="midnightblue" points="927.93,-580.49 938.49,-581.37 930.78,-574.1 927.93,-580.49"/>
</g>
<!-- Node28 -->
<g id="node28" class="node">
<title>Node28</title>
<g id="a_node28"><a xlink:href="genesis__gen_8h.html" target="_top" xlink:title=" ">
<polygon fill="white" stroke="black" points="1525.5,-380.5 1525.5,-410.5 1635.5,-410.5 1635.5,-380.5 1525.5,-380.5"/>
<text text-anchor="start" x="1533.5" y="-398.5" font-family="Helvetica,sans-Serif" font-size="10.00">src/service/genesis</text>
<text text-anchor="middle" x="1580.5" y="-387.5" font-family="Helvetica,sans-Serif" font-size="10.00">_gen.h</text>
</a>
</g>
</g>
<!-- Node1&#45;&gt;Node28 -->
<g id="edge56" class="edge">
<title>Node1&#45;&gt;Node28</title>
<path fill="none" stroke="midnightblue" d="M1026.24,-578.21C1144.53,-539.43 1429.12,-446.13 1537.55,-410.58"/>
<polygon fill="midnightblue" stroke="midnightblue" points="1025.08,-574.91 1016.67,-581.35 1027.26,-581.56 1025.08,-574.91"/>
</g>
<!-- Node31 -->
<g id="node31" class="node">
<title>Node31</title>
<g id="a_node31"><a xlink:href="network__tables_8h.html" target="_top" xlink:title=" ">
<polygon fill="white" stroke="black" points="1626.5,-447.5 1626.5,-477.5 1738.5,-477.5 1738.5,-447.5 1626.5,-447.5"/>
<text text-anchor="start" x="1634.5" y="-465.5" font-family="Helvetica,sans-Serif" font-size="10.00">src/service/network</text>
<text text-anchor="middle" x="1682.5" y="-454.5" font-family="Helvetica,sans-Serif" font-size="10.00">_tables.h</text>
</a>
</g>
</g>
<!-- Node1&#45;&gt;Node31 -->
<g id="edge65" class="edge">
<title>Node1&#45;&gt;Node31</title>
<path fill="none" stroke="midnightblue" d="M1037.43,-593.68C1130.49,-589.93 1308.25,-578.63 1455.5,-545 1527.35,-528.59 1607.7,-496.22 1650.9,-477.6"/>
<polygon fill="midnightblue" stroke="midnightblue" points="1037.18,-590.18 1027.32,-594.07 1037.45,-597.18 1037.18,-590.18"/>
</g>
<!-- Node3&#45;&gt;Node2 -->
<g id="edge4" class="edge">
<title>Node3&#45;&gt;Node2</title>
<path fill="none" stroke="midnightblue" d="M1003.24,-444.98C982.26,-418.86 941.77,-368.44 921.97,-343.78"/>
<polygon fill="midnightblue" stroke="midnightblue" points="1000.55,-447.23 1009.55,-452.84 1006.01,-442.85 1000.55,-447.23"/>
</g>
<!-- Node4 -->
<g id="node4" class="node">
<title>Node4</title>
<g id="a_node4"><a xlink:href="nobuiltins_8cpp.html" target="_top" xlink:title=" ">
<polygon fill="white" stroke="black" points="993,-313.5 993,-343.5 1128,-343.5 1128,-313.5 993,-313.5"/>
<text text-anchor="start" x="1001" y="-331.5" font-family="Helvetica,sans-Serif" font-size="10.00">samples/apps/nobuiltins</text>
<text text-anchor="middle" x="1060.5" y="-320.5" font-family="Helvetica,sans-Serif" font-size="10.00">/nobuiltins.cpp</text>
</a>
</g>
</g>
<!-- Node3&#45;&gt;Node4 -->
<g id="edge3" class="edge">
<title>Node3&#45;&gt;Node4</title>
<path fill="none" stroke="midnightblue" d="M1022.59,-443.24C1031.44,-416.68 1047.7,-367.91 1055.74,-343.78"/>
<polygon fill="midnightblue" stroke="midnightblue" points="1019.23,-442.25 1019.39,-452.84 1025.87,-444.46 1019.23,-442.25"/>
</g>
<!-- Node5 -->
<g id="node5" class="node">
<title>Node5</title>
<g id="a_node5"><a xlink:href="wrap_8cpp.html" target="_top" xlink:title=" ">
<polygon fill="white" stroke="black" points="556,-185 556,-204 645,-204 645,-185 556,-185"/>
<text text-anchor="middle" x="600.5" y="-192" font-family="Helvetica,sans-Serif" font-size="10.00">src/js/wrap.cpp</text>
</a>
</g>
</g>
<!-- Node3&#45;&gt;Node5 -->
<g id="edge5" class="edge">
<title>Node3&#45;&gt;Node5</title>
<path fill="none" stroke="midnightblue" d="M975.63,-450.21C940.85,-440.41 889.65,-425.55 845.5,-411 807.31,-398.41 799.13,-391.18 760.5,-380 708.73,-365.01 320.32,-318.96 286.5,-277 277.85,-266.27 277.56,-256.49 286.5,-246 320.56,-206.02 477.42,-197.57 555.74,-195.87"/>
<polygon fill="midnightblue" stroke="midnightblue" points="974.85,-453.62 985.43,-452.96 976.74,-446.88 974.85,-453.62"/>
</g>
<!-- Node6 -->
<g id="node6" class="node">
<title>Node6</title>
<g id="a_node6"><a xlink:href="resharing_8h.html" target="_top" xlink:title=" ">
<polygon fill="white" stroke="black" points="1436.5,-319 1436.5,-338 1552.5,-338 1552.5,-319 1436.5,-319"/>
<text text-anchor="middle" x="1494.5" y="-326" font-family="Helvetica,sans-Serif" font-size="10.00">src/node/resharing.h</text>
</a>
</g>
</g>
<!-- Node3&#45;&gt;Node6 -->
<g id="edge6" class="edge">
<title>Node3&#45;&gt;Node6</title>
<path fill="none" stroke="midnightblue" d="M1067.03,-450.85C1111.18,-441.28 1176.89,-426.4 1233.5,-411 1320.76,-387.26 1422.68,-353.72 1469.12,-338.11"/>
<polygon fill="midnightblue" stroke="midnightblue" points="1066.16,-447.46 1057.12,-452.99 1067.63,-454.3 1066.16,-447.46"/>
</g>
<!-- Node11 -->
<g id="node11" class="node">
<title>Node11</title>
<g id="a_node11"><a xlink:href="member__frontend_8h.html" target="_top" xlink:title=" ">
<polygon fill="white" stroke="black" points="1173.5,-246.5 1173.5,-276.5 1293.5,-276.5 1293.5,-246.5 1173.5,-246.5"/>
<text text-anchor="start" x="1181.5" y="-264.5" font-family="Helvetica,sans-Serif" font-size="10.00">src/node/rpc/member</text>
<text text-anchor="middle" x="1233.5" y="-253.5" font-family="Helvetica,sans-Serif" font-size="10.00">_frontend.h</text>
</a>
</g>
</g>
<!-- Node3&#45;&gt;Node11 -->
<g id="edge12" class="edge">
<title>Node3&#45;&gt;Node11</title>
<path fill="none" stroke="midnightblue" d="M979.97,-449.54C913.8,-426.06 785.55,-371.14 837.5,-313 885.03,-259.8 1085.95,-287.61 1156.5,-277 1162.02,-276.17 1167.74,-275.24 1173.46,-274.25"/>
<polygon fill="midnightblue" stroke="midnightblue" points="979.04,-452.92 989.64,-452.9 981.34,-446.31 979.04,-452.92"/>
</g>
<!-- Node3&#45;&gt;Node12 -->
<g id="edge14" class="edge">
<title>Node3&#45;&gt;Node12</title>
<path fill="none" stroke="midnightblue" d="M1043.42,-448.44C1069.96,-435.57 1109.77,-416.26 1132.63,-405.17"/>
<polygon fill="midnightblue" stroke="midnightblue" points="1041.76,-445.35 1034.29,-452.87 1044.82,-451.65 1041.76,-445.35"/>
</g>
<!-- Node7 -->
<g id="node7" class="node">
<title>Node7</title>
<g id="a_node7"><a xlink:href="node__state_8h.html" target="_top" xlink:title=" ">
<polygon fill="white" stroke="black" points="1479.5,-185 1479.5,-204 1603.5,-204 1603.5,-185 1479.5,-185"/>
<text text-anchor="middle" x="1541.5" y="-192" font-family="Helvetica,sans-Serif" font-size="10.00">src/node/node_state.h</text>
</a>
</g>
</g>
<!-- Node6&#45;&gt;Node7 -->
<g id="edge7" class="edge">
<title>Node6&#45;&gt;Node7</title>
<path fill="none" stroke="midnightblue" d="M1505.52,-310.43C1511.27,-300.91 1518.01,-288.65 1522.5,-277 1532.32,-251.51 1537.96,-219.51 1540.27,-204.3"/>
<polygon fill="midnightblue" stroke="midnightblue" points="1502.55,-308.58 1500.23,-318.92 1508.49,-312.29 1502.55,-308.58"/>
</g>
<!-- Node8 -->
<g id="node8" class="node">
<title>Node8</title>
<g id="a_node8"><a xlink:href="enclave_2enclave_8h.html" target="_top" xlink:title=" ">
<polygon fill="white" stroke="black" points="1266.5,-56.5 1266.5,-75.5 1388.5,-75.5 1388.5,-56.5 1266.5,-56.5"/>
<text text-anchor="middle" x="1327.5" y="-63.5" font-family="Helvetica,sans-Serif" font-size="10.00">src/enclave/enclave.h</text>
</a>
</g>
</g>
<!-- Node7&#45;&gt;Node8 -->
<g id="edge8" class="edge">
<title>Node7&#45;&gt;Node8</title>
<path fill="none" stroke="midnightblue" d="M1512.76,-180.77C1491.77,-171.15 1462.85,-157.21 1438.5,-143 1400.57,-120.87 1358.49,-90.26 1338.81,-75.55"/>
<polygon fill="midnightblue" stroke="midnightblue" points="1511.53,-184.05 1522.08,-185 1514.42,-177.68 1511.53,-184.05"/>
</g>
<!-- Node10 -->
<g id="node10" class="node">
<title>Node10</title>
<g id="a_node10"><a xlink:href="gov__effects_8h.html" target="_top" xlink:title=" ">
<polygon fill="white" stroke="black" points="1447.5,-118 1447.5,-137 1591.5,-137 1591.5,-118 1447.5,-118"/>
<text text-anchor="middle" x="1519.5" y="-125" font-family="Helvetica,sans-Serif" font-size="10.00">src/node/rpc/gov_effects.h</text>
</a>
</g>
</g>
<!-- Node7&#45;&gt;Node10 -->
<g id="edge10" class="edge">
<title>Node7&#45;&gt;Node10</title>
<path fill="none" stroke="midnightblue" d="M1535.21,-174.91C1531,-162.49 1525.67,-146.72 1522.42,-137.13"/>
<polygon fill="midnightblue" stroke="midnightblue" points="1532.01,-176.38 1538.53,-184.73 1538.64,-174.14 1532.01,-176.38"/>
</g>
<!-- Node9 -->
<g id="node9" class="node">
<title>Node9</title>
<g id="a_node9"><a xlink:href="enclave_2main_8cpp.html" target="_top" xlink:title=" ">
<polygon fill="white" stroke="black" points="1267.5,-0.5 1267.5,-19.5 1387.5,-19.5 1387.5,-0.5 1267.5,-0.5"/>
<text text-anchor="middle" x="1327.5" y="-7.5" font-family="Helvetica,sans-Serif" font-size="10.00">src/enclave/main.cpp</text>
</a>
</g>
</g>
<!-- Node8&#45;&gt;Node9 -->
<g id="edge9" class="edge">
<title>Node8&#45;&gt;Node9</title>
<path fill="none" stroke="midnightblue" d="M1327.5,-45.8C1327.5,-36.91 1327.5,-26.78 1327.5,-19.75"/>
<polygon fill="midnightblue" stroke="midnightblue" points="1324,-46.08 1327.5,-56.08 1331,-46.08 1324,-46.08"/>
</g>
<!-- Node10&#45;&gt;Node8 -->
<g id="edge11" class="edge">
<title>Node10&#45;&gt;Node8</title>
<path fill="none" stroke="midnightblue" d="M1482.01,-114.88C1444.69,-103.32 1388.3,-85.84 1354.96,-75.51"/>
<polygon fill="midnightblue" stroke="midnightblue" points="1481.4,-118.36 1491.99,-117.98 1483.48,-111.67 1481.4,-118.36"/>
</g>
<!-- Node11&#45;&gt;Node8 -->
<g id="edge13" class="edge">
<title>Node11&#45;&gt;Node8</title>
<path fill="none" stroke="midnightblue" d="M1244.87,-237.1C1265.82,-193.96 1309.66,-103.73 1323.33,-75.58"/>
<polygon fill="midnightblue" stroke="midnightblue" points="1241.63,-235.75 1240.41,-246.27 1247.93,-238.81 1241.63,-235.75"/>
</g>
<!-- Node12&#45;&gt;Node2 -->
<g id="edge16" class="edge">
<title>Node12&#45;&gt;Node2</title>
<path fill="none" stroke="midnightblue" d="M1108.77,-383.2C1068.08,-372.18 1006.11,-355.39 962.3,-343.53"/>
<polygon fill="midnightblue" stroke="midnightblue" points="1108.06,-386.63 1118.63,-385.87 1109.89,-379.88 1108.06,-386.63"/>
</g>
<!-- Node12&#45;&gt;Node4 -->
<g id="edge15" class="edge">
<title>Node12&#45;&gt;Node4</title>
<path fill="none" stroke="midnightblue" d="M1130.21,-379.85C1115.19,-369 1094.84,-354.3 1080.01,-343.59"/>
<polygon fill="midnightblue" stroke="midnightblue" points="1128.21,-382.72 1138.36,-385.73 1132.3,-377.04 1128.21,-382.72"/>
</g>
<!-- Node12&#45;&gt;Node6 -->
<g id="edge18" class="edge">
<title>Node12&#45;&gt;Node6</title>
<path fill="none" stroke="midnightblue" d="M1210.26,-384.19C1266.43,-374.36 1352.81,-358.89 1427.5,-344 1436.72,-342.16 1446.63,-340.08 1455.93,-338.07"/>
<polygon fill="midnightblue" stroke="midnightblue" points="1209.38,-380.79 1200.13,-385.96 1210.58,-387.68 1209.38,-380.79"/>
</g>
<!-- Node12&#45;&gt;Node7 -->
<g id="edge17" class="edge">
<title>Node12&#45;&gt;Node7</title>
<path fill="none" stroke="midnightblue" d="M1167.44,-379.09C1186.89,-361.82 1220.16,-333.56 1251.5,-313 1305.19,-277.78 1320.16,-270.54 1379.5,-246 1422.78,-228.1 1474.79,-212.95 1507.99,-204.05"/>
<polygon fill="midnightblue" stroke="midnightblue" points="1164.88,-376.69 1159.77,-385.97 1169.55,-381.9 1164.88,-376.69"/>
</g>
<!-- Node12&#45;&gt;Node11 -->
<g id="edge19" class="edge">
<title>Node12&#45;&gt;Node11</title>
<path fill="none" stroke="midnightblue" d="M1154.76,-375.86C1159.29,-358.58 1167.6,-332.64 1180.5,-313 1189.71,-298.98 1203.51,-285.99 1214.72,-276.7"/>
<polygon fill="midnightblue" stroke="midnightblue" points="1151.3,-375.27 1152.32,-385.82 1158.1,-376.94 1151.3,-375.27"/>
</g>
<!-- Node13 -->
<g id="node13" class="node">
<title>Node13</title>
<g id="a_node13"><a xlink:href="node__frontend_8h.html" target="_top" xlink:title=" ">
<polygon fill="white" stroke="black" points="1260.5,-319 1260.5,-338 1418.5,-338 1418.5,-319 1260.5,-319"/>
<text text-anchor="middle" x="1339.5" y="-326" font-family="Helvetica,sans-Serif" font-size="10.00">src/node/rpc/node_frontend.h</text>
</a>
</g>
</g>
<!-- Node12&#45;&gt;Node13 -->
<g id="edge20" class="edge">
<title>Node12&#45;&gt;Node13</title>
<path fill="none" stroke="midnightblue" d="M1185.1,-382.6C1222.57,-369.71 1281.43,-349.47 1314.6,-338.06"/>
<polygon fill="midnightblue" stroke="midnightblue" points="1183.92,-379.31 1175.6,-385.87 1186.19,-385.93 1183.92,-379.31"/>
</g>
<!-- Node13&#45;&gt;Node8 -->
<g id="edge21" class="edge">
<title>Node13&#45;&gt;Node8</title>
<path fill="none" stroke="midnightblue" d="M1338.63,-308.72C1336.24,-256.77 1329.6,-112.61 1327.9,-75.7"/>
<polygon fill="midnightblue" stroke="midnightblue" points="1335.14,-309 1339.1,-318.83 1342.14,-308.68 1335.14,-309"/>
</g>
<!-- Node14 -->
<g id="node14" class="node">
<title>Node14</title>
<g id="a_node14"><a xlink:href="jwt__key__auto__refresh_8h.html" target="_top" xlink:title=" ">
<polygon fill="white" stroke="black" points="1388,-246.5 1388,-276.5 1513,-276.5 1513,-246.5 1388,-246.5"/>
<text text-anchor="start" x="1396" y="-264.5" font-family="Helvetica,sans-Serif" font-size="10.00">src/node/jwt_key_auto</text>
<text text-anchor="middle" x="1450.5" y="-253.5" font-family="Helvetica,sans-Serif" font-size="10.00">_refresh.h</text>
</a>
</g>
</g>
<!-- Node13&#45;&gt;Node14 -->
<g id="edge22" class="edge">
<title>Node13&#45;&gt;Node14</title>
<path fill="none" stroke="midnightblue" d="M1363.23,-313.6C1381.87,-302.69 1407.72,-287.55 1426.44,-276.59"/>
<polygon fill="midnightblue" stroke="midnightblue" points="1361.33,-310.66 1354.47,-318.73 1364.87,-316.7 1361.33,-310.66"/>
</g>
<!-- Node14&#45;&gt;Node7 -->
<g id="edge23" class="edge">
<title>Node14&#45;&gt;Node7</title>
<path fill="none" stroke="midnightblue" d="M1478.77,-240.31C1495.86,-228.1 1516.75,-213.18 1529.59,-204.01"/>
<polygon fill="midnightblue" stroke="midnightblue" points="1476.35,-237.74 1470.25,-246.4 1480.42,-243.43 1476.35,-237.74"/>
</g>
<!-- Node15&#45;&gt;Node3 -->
<g id="edge25" class="edge">
<title>Node15&#45;&gt;Node3</title>
<path fill="none" stroke="midnightblue" d="M1018.38,-504.25C1017.86,-493.02 1017.28,-480.38 1016.9,-472.19"/>
<polygon fill="midnightblue" stroke="midnightblue" points="1014.89,-504.57 1018.85,-514.4 1021.88,-504.25 1014.89,-504.57"/>
</g>
<!-- Node16&#45;&gt;Node5 -->
<g id="edge27" class="edge">
<title>Node16&#45;&gt;Node5</title>
<path fill="none" stroke="midnightblue" d="M596.27,-384.52C487.21,-368.29 293.76,-332.35 253.5,-277 245.4,-265.86 244.49,-256.42 253.5,-246 292.08,-201.4 471.03,-195.38 555.77,-195.09"/>
<polygon fill="midnightblue" stroke="midnightblue" points="595.83,-387.99 606.23,-385.98 596.85,-381.06 595.83,-387.99"/>
</g>
<!-- Node16&#45;&gt;Node11 -->
<g id="edge47" class="edge">
<title>Node16&#45;&gt;Node11</title>
<path fill="none" stroke="midnightblue" d="M687.58,-378.56C709.66,-357.04 748.68,-320.54 766.5,-313 928.04,-244.66 985.88,-301.9 1159.5,-277 1164.04,-276.35 1168.71,-275.61 1173.41,-274.81"/>
<polygon fill="midnightblue" stroke="midnightblue" points="684.96,-376.22 680.28,-385.72 689.86,-381.21 684.96,-376.22"/>
</g>
<!-- Node16&#45;&gt;Node13 -->
<g id="edge48" class="edge">
<title>Node16&#45;&gt;Node13</title>
<path fill="none" stroke="midnightblue" d="M762.14,-385.68C893.76,-372.87 1135.68,-349.33 1260.45,-337.19"/>
<polygon fill="midnightblue" stroke="midnightblue" points="761.69,-382.21 752.08,-386.66 762.37,-389.17 761.69,-382.21"/>
</g>
<!-- Node17 -->
<g id="node17" class="node">
<title>Node17</title>
<g id="a_node17"><a xlink:href="wrap_8h.html" target="_top" xlink:title=" ">
<polygon fill="white" stroke="black" points="636.5,-319 636.5,-338 714.5,-338 714.5,-319 636.5,-319"/>
<text text-anchor="middle" x="675.5" y="-326" font-family="Helvetica,sans-Serif" font-size="10.00">src/js/wrap.h</text>
</a>
</g>
</g>
<!-- Node16&#45;&gt;Node17 -->
<g id="edge28" class="edge">
<title>Node16&#45;&gt;Node17</title>
<path fill="none" stroke="midnightblue" d="M672.67,-375.54C673.43,-363.17 674.38,-347.62 674.97,-338.13"/>
<polygon fill="midnightblue" stroke="midnightblue" points="669.16,-375.54 672.04,-385.73 676.15,-375.97 669.16,-375.54"/>
</g>
<!-- Node24 -->
<g id="node24" class="node">
<title>Node24</title>
<g id="a_node24"><a xlink:href="historical__queries_8h.html" target="_top" xlink:title=" ">
<polygon fill="white" stroke="black" points="28.5,-179.5 28.5,-209.5 134.5,-209.5 134.5,-179.5 28.5,-179.5"/>
<text text-anchor="start" x="36.5" y="-197.5" font-family="Helvetica,sans-Serif" font-size="10.00">src/node/historical</text>
<text text-anchor="middle" x="81.5" y="-186.5" font-family="Helvetica,sans-Serif" font-size="10.00">_queries.h</text>
</a>
</g>
</g>
<!-- Node16&#45;&gt;Node24 -->
<g id="edge43" class="edge">
<title>Node16&#45;&gt;Node24</title>
<path fill="none" stroke="midnightblue" d="M580.5,-392.6C428.04,-388.53 134.31,-376.52 100.5,-344 63.59,-308.51 72.24,-239.7 78.18,-209.87"/>
<polygon fill="midnightblue" stroke="midnightblue" points="580.69,-396.11 590.78,-392.87 580.87,-389.11 580.69,-396.11"/>
</g>
<!-- Node26 -->
<g id="node26" class="node">
<title>Node26</title>
<g id="a_node26"><a xlink:href="node__operation_8h.html" target="_top" xlink:title=" ">
<polygon fill="white" stroke="black" points="109.5,-319 109.5,-338 273.5,-338 273.5,-319 109.5,-319"/>
<text text-anchor="middle" x="191.5" y="-326" font-family="Helvetica,sans-Serif" font-size="10.00">src/node/rpc/node_operation.h</text>
</a>
</g>
</g>
<!-- Node16&#45;&gt;Node26 -->
<g id="edge49" class="edge">
<title>Node16&#45;&gt;Node26</title>
<path fill="none" stroke="midnightblue" d="M593.64,-384.7C516.02,-374.83 393.43,-358.96 287.5,-344 274.23,-342.13 259.95,-340.02 246.55,-338"/>
<polygon fill="midnightblue" stroke="midnightblue" points="593.45,-388.21 603.82,-386 594.34,-381.26 593.45,-388.21"/>
</g>
<!-- Node17&#45;&gt;Node5 -->
<g id="edge40" class="edge">
<title>Node17&#45;&gt;Node5</title>
<path fill="none" stroke="midnightblue" d="M676.82,-308.99C677.22,-291.61 675.59,-265.43 664.5,-246 653.7,-227.07 632.73,-212.64 617.74,-204.15"/>
<polygon fill="midnightblue" stroke="midnightblue" points="673.33,-308.83 676.35,-318.99 680.32,-309.16 673.33,-308.83"/>
</g>
<!-- Node17&#45;&gt;Node7 -->
<g id="edge41" class="edge">
<title>Node17&#45;&gt;Node7</title>
<path fill="none" stroke="midnightblue" d="M710.55,-316.02C714.88,-314.87 719.27,-313.82 723.5,-313 897.85,-279.14 955.11,-339.14 1121.5,-277 1143.57,-268.76 1142.61,-254.71 1164.5,-246 1269.57,-204.17 1402.77,-195.71 1479.45,-194.69"/>
<polygon fill="midnightblue" stroke="midnightblue" points="709.32,-312.73 700.67,-318.85 711.24,-319.46 709.32,-312.73"/>
</g>
<!-- Node17&#45;&gt;Node8 -->
<g id="edge30" class="edge">
<title>Node17&#45;&gt;Node8</title>
<path fill="none" stroke="midnightblue" d="M710.56,-316.05C714.89,-314.89 719.27,-313.84 723.5,-313 883.39,-281.28 940.08,-344.4 1088.5,-277 1106.82,-268.68 1106.57,-259.49 1121.5,-246 1195.32,-179.3 1286.65,-101.58 1317.09,-75.8"/>
<polygon fill="midnightblue" stroke="midnightblue" points="709.32,-312.77 700.68,-318.89 711.25,-319.5 709.32,-312.77"/>
</g>
<!-- Node17&#45;&gt;Node11 -->
<g id="edge42" class="edge">
<title>Node17&#45;&gt;Node11</title>
<path fill="none" stroke="midnightblue" d="M712.88,-316.36C718.09,-315.07 723.41,-313.9 728.5,-313 917.78,-279.5 969.12,-303.52 1159.5,-277 1164.04,-276.37 1168.72,-275.64 1173.42,-274.85"/>
<polygon fill="midnightblue" stroke="midnightblue" points="711.85,-313.01 703.06,-318.93 713.62,-319.78 711.85,-313.01"/>
</g>
<!-- Node18 -->
<g id="node18" class="node">
<title>Node18</title>
<g id="a_node18"><a xlink:href="js__generic__base_8cpp.html" target="_top" xlink:title=" ">
<polygon fill="white" stroke="black" points="409.5,-246.5 409.5,-276.5 527.5,-276.5 527.5,-246.5 409.5,-246.5"/>
<text text-anchor="start" x="417.5" y="-264.5" font-family="Helvetica,sans-Serif" font-size="10.00">src/apps/js_generic</text>
<text text-anchor="middle" x="468.5" y="-253.5" font-family="Helvetica,sans-Serif" font-size="10.00">/js_generic_base.cpp</text>
</a>
</g>
</g>
<!-- Node17&#45;&gt;Node18 -->
<g id="edge29" class="edge">
<title>Node17&#45;&gt;Node18</title>
<path fill="none" stroke="midnightblue" d="M638.16,-315.77C603.06,-304.75 550.48,-288.24 513.17,-276.53"/>
<polygon fill="midnightblue" stroke="midnightblue" points="637.42,-319.21 648.01,-318.87 639.52,-312.53 637.42,-319.21"/>
</g>
<!-- Node19 -->
<g id="node19" class="node">
<title>Node19</title>
<g id="a_node19"><a xlink:href="js_2consensus_8cpp.html" target="_top" xlink:title=" ">
<polygon fill="white" stroke="black" points="711.5,-252 711.5,-271 827.5,-271 827.5,-252 711.5,-252"/>
<text text-anchor="middle" x="769.5" y="-259" font-family="Helvetica,sans-Serif" font-size="10.00">src/js/consensus.cpp</text>
</a>
</g>
</g>
<!-- Node17&#45;&gt;Node19 -->
<g id="edge31" class="edge">
<title>Node17&#45;&gt;Node19</title>
<path fill="none" stroke="midnightblue" d="M696.59,-312.92C715.17,-300.07 741.62,-281.78 757.02,-271.13"/>
<polygon fill="midnightblue" stroke="midnightblue" points="694.41,-310.17 688.18,-318.73 698.39,-315.93 694.41,-310.17"/>
</g>
<!-- Node20 -->
<g id="node20" class="node">
<title>Node20</title>
<g id="a_node20"><a xlink:href="conv_8cpp.html" target="_top" xlink:title=" ">
<polygon fill="white" stroke="black" points="845.5,-252 845.5,-271 933.5,-271 933.5,-252 845.5,-252"/>
<text text-anchor="middle" x="889.5" y="-259" font-family="Helvetica,sans-Serif" font-size="10.00">src/js/conv.cpp</text>
</a>
</g>
</g>
<!-- Node17&#45;&gt;Node20 -->
<g id="edge33" class="edge">
<title>Node17&#45;&gt;Node20</title>
<path fill="none" stroke="midnightblue" d="M713.6,-315.93C755.97,-303.06 823.42,-282.57 861.31,-271.06"/>
<polygon fill="midnightblue" stroke="midnightblue" points="712.47,-312.61 703.92,-318.87 714.5,-319.31 712.47,-312.61"/>
</g>
<!-- Node21 -->
<g id="node21" class="node">
<title>Node21</title>
<g id="a_node21"><a xlink:href="js_2crypto_8cpp.html" target="_top" xlink:title=" ">
<polygon fill="white" stroke="black" points="295.5,-252 295.5,-271 391.5,-271 391.5,-252 295.5,-252"/>
<text text-anchor="middle" x="343.5" y="-259" font-family="Helvetica,sans-Serif" font-size="10.00">src/js/crypto.cpp</text>
</a>
</g>
</g>
<!-- Node17&#45;&gt;Node21 -->
<g id="edge35" class="edge">
<title>Node17&#45;&gt;Node21</title>
<path fill="none" stroke="midnightblue" d="M625.96,-319.44C570.75,-310.21 478.91,-294.15 400.5,-277 392.32,-275.21 383.53,-273.08 375.37,-271.01"/>
<polygon fill="midnightblue" stroke="midnightblue" points="625.73,-322.95 636.17,-321.14 626.88,-316.04 625.73,-322.95"/>
</g>
<!-- Node22 -->
<g id="node22" class="node">
<title>Node22</title>
<g id="a_node22"><a xlink:href="js_2historical_8cpp.html" target="_top" xlink:title=" ">
<polygon fill="white" stroke="black" points="545.5,-252 545.5,-271 655.5,-271 655.5,-252 545.5,-252"/>
<text text-anchor="middle" x="600.5" y="-259" font-family="Helvetica,sans-Serif" font-size="10.00">src/js/historical.cpp</text>
</a>
</g>
</g>
<!-- Node17&#45;&gt;Node22 -->
<g id="edge37" class="edge">
<title>Node17&#45;&gt;Node22</title>
<path fill="none" stroke="midnightblue" d="M657.45,-311.86C642.71,-299.08 622.41,-281.49 610.45,-271.13"/>
<polygon fill="midnightblue" stroke="midnightblue" points="655.54,-314.83 665.39,-318.73 660.12,-309.54 655.54,-314.83"/>
</g>
<!-- Node23 -->
<g id="node23" class="node">
<title>Node23</title>
<g id="a_node23"><a xlink:href="openenclave_8cpp.html" target="_top" xlink:title=" ">
<polygon fill="white" stroke="black" points="951.5,-252 951.5,-271 1079.5,-271 1079.5,-252 951.5,-252"/>
<text text-anchor="middle" x="1015.5" y="-259" font-family="Helvetica,sans-Serif" font-size="10.00">src/js/openenclave.cpp</text>
</a>
</g>
</g>
<!-- Node17&#45;&gt;Node23 -->
<g id="edge39" class="edge">
<title>Node17&#45;&gt;Node23</title>
<path fill="none" stroke="midnightblue" d="M714.21,-316.43C719.01,-315.2 723.85,-314.02 728.5,-313 822.69,-292.25 847.63,-294.4 942.5,-277 952.54,-275.16 963.34,-273.07 973.46,-271.07"/>
<polygon fill="midnightblue" stroke="midnightblue" points="713.3,-313.05 704.53,-318.99 715.09,-319.82 713.3,-313.05"/>
</g>
<!-- Node19&#45;&gt;Node5 -->
<g id="edge32" class="edge">
<title>Node19&#45;&gt;Node5</title>
<path fill="none" stroke="midnightblue" d="M737.7,-248.27C704.16,-235.37 652.18,-215.38 622.77,-204.06"/>
<polygon fill="midnightblue" stroke="midnightblue" points="736.47,-251.55 747.06,-251.87 738.98,-245.01 736.47,-251.55"/>
</g>
<!-- Node20&#45;&gt;Node5 -->
<g id="edge34" class="edge">
<title>Node20&#45;&gt;Node5</title>
<path fill="none" stroke="midnightblue" d="M849.86,-249.4C845.37,-248.21 840.84,-247.06 836.5,-246 769.74,-229.74 691.66,-213.59 644.16,-204.08"/>
<polygon fill="midnightblue" stroke="midnightblue" points="849.02,-252.79 859.59,-252 850.83,-246.03 849.02,-252.79"/>
</g>
<!-- Node21&#45;&gt;Node5 -->
<g id="edge36" class="edge">
<title>Node21&#45;&gt;Node5</title>
<path fill="none" stroke="midnightblue" d="M386.91,-249.45C391.5,-248.28 396.09,-247.12 400.5,-246 458.82,-231.22 526.73,-214.09 566.52,-204.06"/>
<polygon fill="midnightblue" stroke="midnightblue" points="385.78,-246.12 376.95,-251.98 387.51,-252.91 385.78,-246.12"/>
</g>
<!-- Node22&#45;&gt;Node5 -->
<g id="edge38" class="edge">
<title>Node22&#45;&gt;Node5</title>
<path fill="none" stroke="midnightblue" d="M600.5,-241.54C600.5,-229.17 600.5,-213.62 600.5,-204.13"/>
<polygon fill="midnightblue" stroke="midnightblue" points="597,-241.73 600.5,-251.73 604,-241.73 597,-241.73"/>
</g>
<!-- Node24&#45;&gt;Node8 -->
<g id="edge44" class="edge">
<title>Node24&#45;&gt;Node8</title>
<path fill="none" stroke="midnightblue" d="M103.14,-172.18C125.92,-150.29 160.75,-118.52 177.5,-112 279.08,-72.42 1043.31,-67.62 1266.48,-67.07"/>
<polygon fill="midnightblue" stroke="midnightblue" points="100.67,-169.7 95.92,-179.17 105.54,-174.73 100.67,-169.7"/>
</g>
<!-- Node25 -->
<g id="node25" class="node">
<title>Node25</title>
<g id="a_node25"><a xlink:href="historical__transaction__fetcher_8h.html" target="_top" xlink:title=" ">
<polygon fill="white" stroke="black" points="0,-112.5 0,-142.5 125,-142.5 125,-112.5 0,-112.5"/>
<text text-anchor="start" x="8" y="-130.5" font-family="Helvetica,sans-Serif" font-size="10.00">src/indexing/historical</text>
<text text-anchor="middle" x="62.5" y="-119.5" font-family="Helvetica,sans-Serif" font-size="10.00">_transaction_fetcher.h</text>
</a>
</g>
</g>
<!-- Node24&#45;&gt;Node25 -->
<g id="edge45" class="edge">
<title>Node24&#45;&gt;Node25</title>
<path fill="none" stroke="midnightblue" d="M74.54,-169.7C71.88,-160.59 68.93,-150.49 66.61,-142.58"/>
<polygon fill="midnightblue" stroke="midnightblue" points="71.21,-170.78 77.38,-179.4 77.93,-168.82 71.21,-170.78"/>
</g>
<!-- Node25&#45;&gt;Node8 -->
<g id="edge46" class="edge">
<title>Node25&#45;&gt;Node8</title>
<path fill="none" stroke="midnightblue" d="M135.59,-112.46C136.9,-112.3 138.21,-112.15 139.5,-112 361.14,-87.07 1055.28,-72.16 1266.14,-68.12"/>
<polygon fill="midnightblue" stroke="midnightblue" points="134.85,-109.03 125.42,-113.87 135.8,-115.97 134.85,-109.03"/>
</g>
<!-- Node26&#45;&gt;Node8 -->
<g id="edge50" class="edge">
<title>Node26&#45;&gt;Node8</title>
<path fill="none" stroke="midnightblue" d="M198.24,-309.23C206.14,-290.41 221.09,-261.67 243.5,-246 356.53,-166.96 410.81,-203.7 546.5,-179 813.33,-130.44 1134.61,-90 1266.49,-74.16"/>
<polygon fill="midnightblue" stroke="midnightblue" points="194.89,-308.17 194.48,-318.76 201.4,-310.74 194.89,-308.17"/>
</g>
<!-- Node27&#45;&gt;Node11 -->
<g id="edge52" class="edge">
<title>Node27&#45;&gt;Node11</title>
<path fill="none" stroke="midnightblue" d="M777.03,-437.02C777.83,-403.4 784.76,-343.63 821.5,-313 879.01,-265.06 1082.43,-287.94 1156.5,-277 1162.02,-276.19 1167.74,-275.26 1173.47,-274.28"/>
<polygon fill="midnightblue" stroke="midnightblue" points="773.53,-437.31 776.95,-447.34 780.53,-437.36 773.53,-437.31"/>
</g>
<!-- Node27&#45;&gt;Node16 -->
<g id="edge53" class="edge">
<title>Node27&#45;&gt;Node16</title>
<path fill="none" stroke="midnightblue" d="M745.93,-442.14C725.78,-429.79 700.67,-414.39 685.37,-405.01"/>
<polygon fill="midnightblue" stroke="midnightblue" points="744.15,-445.15 754.5,-447.4 747.8,-439.18 744.15,-445.15"/>
</g>
<!-- Node27&#45;&gt;Node26 -->
<g id="edge54" class="edge">
<title>Node27&#45;&gt;Node26</title>
<path fill="none" stroke="midnightblue" d="M705.44,-445.27C579.94,-417 325.49,-359.68 229.4,-338.04"/>
<polygon fill="midnightblue" stroke="midnightblue" points="704.82,-448.72 715.34,-447.5 706.36,-441.89 704.82,-448.72"/>
</g>
<!-- Node28&#45;&gt;Node7 -->
<g id="edge57" class="edge">
<title>Node28&#45;&gt;Node7</title>
<path fill="none" stroke="midnightblue" d="M1575.75,-370.24C1567.04,-325.82 1548.91,-233.31 1543.24,-204.36"/>
<polygon fill="midnightblue" stroke="midnightblue" points="1572.34,-371.05 1577.7,-380.19 1579.21,-369.7 1572.34,-371.05"/>
</g>
<!-- Node28&#45;&gt;Node11 -->
<g id="edge58" class="edge">
<title>Node28&#45;&gt;Node11</title>
<path fill="none" stroke="midnightblue" d="M1515.2,-392.98C1430.34,-389.61 1288.63,-378.79 1251.5,-344 1233,-326.66 1231.38,-294.94 1232.21,-276.61"/>
<polygon fill="midnightblue" stroke="midnightblue" points="1515.13,-396.48 1525.25,-393.35 1515.39,-389.48 1515.13,-396.48"/>
</g>
<!-- Node28&#45;&gt;Node13 -->
<g id="edge59" class="edge">
<title>Node28&#45;&gt;Node13</title>
<path fill="none" stroke="midnightblue" d="M1518.69,-377.83C1471.53,-365.11 1408.49,-348.11 1371.12,-338.03"/>
<polygon fill="midnightblue" stroke="midnightblue" points="1517.94,-381.25 1528.5,-380.48 1519.76,-374.49 1517.94,-381.25"/>
</g>
<!-- Node29 -->
<g id="node29" class="node">
<title>Node29</title>
<g id="a_node29"><a xlink:href="secret__broadcast_8h.html" target="_top" xlink:title=" ">
<polygon fill="white" stroke="black" points="1772,-319 1772,-338 1925,-338 1925,-319 1772,-319"/>
<text text-anchor="middle" x="1848.5" y="-326" font-family="Helvetica,sans-Serif" font-size="10.00">src/node/secret_broadcast.h</text>
</a>
</g>
</g>
<!-- Node28&#45;&gt;Node29 -->
<g id="edge60" class="edge">
<title>Node28&#45;&gt;Node29</title>
<path fill="none" stroke="midnightblue" d="M1645.66,-378.7C1698.49,-365.88 1770.91,-348.32 1813.4,-338.01"/>
<polygon fill="midnightblue" stroke="midnightblue" points="1644.6,-375.35 1635.7,-381.11 1646.25,-382.16 1644.6,-375.35"/>
</g>
<!-- Node30 -->
<g id="node30" class="node">
<title>Node30</title>
<g id="a_node30"><a xlink:href="share__manager_8h.html" target="_top" xlink:title=" ">
<polygon fill="white" stroke="black" points="1609,-319 1609,-338 1754,-338 1754,-319 1609,-319"/>
<text text-anchor="middle" x="1681.5" y="-326" font-family="Helvetica,sans-Serif" font-size="10.00">src/node/share_manager.h</text>
</a>
</g>
</g>
<!-- Node28&#45;&gt;Node30 -->
<g id="edge62" class="edge">
<title>Node28&#45;&gt;Node30</title>
<path fill="none" stroke="midnightblue" d="M1610.84,-374.97C1629.99,-362.65 1653.77,-347.35 1668.28,-338.01"/>
<polygon fill="midnightblue" stroke="midnightblue" points="1608.93,-372.04 1602.42,-380.4 1612.72,-377.93 1608.93,-372.04"/>
</g>
<!-- Node29&#45;&gt;Node7 -->
<g id="edge61" class="edge">
<title>Node29&#45;&gt;Node7</title>
<path fill="none" stroke="midnightblue" d="M1819.11,-314.86C1757.02,-288.17 1613.88,-226.62 1561.32,-204.02"/>
<polygon fill="midnightblue" stroke="midnightblue" points="1817.79,-318.1 1828.36,-318.84 1820.55,-311.67 1817.79,-318.1"/>
</g>
<!-- Node30&#45;&gt;Node7 -->
<g id="edge63" class="edge">
<title>Node30&#45;&gt;Node7</title>
<path fill="none" stroke="midnightblue" d="M1664.8,-311.76C1635,-283.66 1573.62,-225.78 1550.54,-204.02"/>
<polygon fill="midnightblue" stroke="midnightblue" points="1662.64,-314.53 1672.31,-318.84 1667.44,-309.43 1662.64,-314.53"/>
</g>
<!-- Node30&#45;&gt;Node11 -->
<g id="edge64" class="edge">
<title>Node30&#45;&gt;Node11</title>
<path fill="none" stroke="midnightblue" d="M1612.41,-317.48C1525.18,-304.82 1376.54,-283.25 1293.73,-271.24"/>
<polygon fill="midnightblue" stroke="midnightblue" points="1612.07,-320.96 1622.47,-318.94 1613.08,-314.04 1612.07,-320.96"/>
</g>
<!-- Node31&#45;&gt;Node28 -->
<g id="edge78" class="edge">
<title>Node31&#45;&gt;Node28</title>
<path fill="none" stroke="midnightblue" d="M1651.92,-442.02C1636.05,-431.9 1617.02,-419.77 1602.59,-410.58"/>
<polygon fill="midnightblue" stroke="midnightblue" points="1650.05,-444.97 1660.37,-447.4 1653.82,-439.07 1650.05,-444.97"/>
</g>
<!-- Node32 -->
<g id="node32" class="node">
<title>Node32</title>
<g id="a_node32"><a xlink:href="kv__module__loader_8cpp.html" target="_top" xlink:title=" ">
<polygon fill="white" stroke="black" points="1874,-380.5 1874,-410.5 2017,-410.5 2017,-380.5 1874,-380.5"/>
<text text-anchor="start" x="1882" y="-398.5" font-family="Helvetica,sans-Serif" font-size="10.00">src/apps/js_v8/kv_module</text>
<text text-anchor="middle" x="1945.5" y="-387.5" font-family="Helvetica,sans-Serif" font-size="10.00">_loader.cpp</text>
</a>
</g>
</g>
<!-- Node31&#45;&gt;Node32 -->
<g id="edge66" class="edge">
<title>Node31&#45;&gt;Node32</title>
<path fill="none" stroke="midnightblue" d="M1748.44,-445.2C1791.58,-434.54 1847.38,-420.75 1888.58,-410.57"/>
<polygon fill="midnightblue" stroke="midnightblue" points="1747.47,-441.84 1738.6,-447.64 1749.15,-448.63 1747.47,-441.84"/>
</g>
<!-- Node33 -->
<g id="node33" class="node">
<title>Node33</title>
<g id="a_node33"><a xlink:href="network__state_8h.html" target="_top" xlink:title=" ">
<polygon fill="white" stroke="black" points="1715.5,-386 1715.5,-405 1855.5,-405 1855.5,-386 1715.5,-386"/>
<text text-anchor="middle" x="1785.5" y="-393" font-family="Helvetica,sans-Serif" font-size="10.00">src/node/network_state.h</text>
</a>
</g>
</g>
<!-- Node31&#45;&gt;Node33 -->
<g id="edge67" class="edge">
<title>Node31&#45;&gt;Node33</title>
<path fill="none" stroke="midnightblue" d="M1713.44,-441.97C1732.97,-429.65 1757.22,-414.35 1772.02,-405.01"/>
<polygon fill="midnightblue" stroke="midnightblue" points="1711.44,-439.1 1704.85,-447.4 1715.17,-445.02 1711.44,-439.1"/>
</g>
<!-- Node33&#45;&gt;Node7 -->
<g id="edge70" class="edge">
<title>Node33&#45;&gt;Node7</title>
<path fill="none" stroke="midnightblue" d="M1845.28,-383.91C1887.1,-375.14 1937.68,-361.34 1950.5,-344 1976.4,-308.98 1979.35,-278.63 1950.5,-246 1927.93,-220.47 1712.47,-204.97 1603.69,-198.71"/>
<polygon fill="midnightblue" stroke="midnightblue" points="1844.52,-380.49 1835.42,-385.92 1845.92,-387.35 1844.52,-380.49"/>
</g>
<!-- Node33&#45;&gt;Node8 -->
<g id="edge68" class="edge">
<title>Node33&#45;&gt;Node8</title>
<path fill="none" stroke="midnightblue" d="M1836.48,-383.84C1893.87,-371.58 1980.94,-352.11 1994.5,-344 2036.24,-319.05 2067.5,-311.13 2067.5,-262.5 2067.5,-262.5 2067.5,-262.5 2067.5,-193.5 2067.5,-115.27 1986.7,-133.56 1911.5,-112 1814.73,-84.26 1518.3,-72.51 1388.95,-68.61"/>
<polygon fill="midnightblue" stroke="midnightblue" points="1835.54,-380.46 1826.48,-385.97 1836.99,-387.31 1835.54,-380.46"/>
</g>
<!-- Node33&#45;&gt;Node13 -->
<g id="edge71" class="edge">
<title>Node33&#45;&gt;Node13</title>
<path fill="none" stroke="midnightblue" d="M1711.79,-384.61C1639.36,-374.77 1525.72,-359.02 1427.5,-344 1415.41,-342.15 1402.4,-340.06 1390.19,-338.06"/>
<polygon fill="midnightblue" stroke="midnightblue" points="1711.36,-388.08 1721.74,-385.96 1712.3,-381.15 1711.36,-388.08"/>
</g>
<!-- Node33&#45;&gt;Node17 -->
<g id="edge69" class="edge">
<title>Node33&#45;&gt;Node17</title>
<path fill="none" stroke="midnightblue" d="M1705.08,-385.42C1685.29,-383.41 1664.14,-381.45 1644.5,-380 1286.45,-353.63 1195.72,-368.01 837.5,-344 795.52,-341.19 747.53,-336.74 714.74,-333.51"/>
<polygon fill="midnightblue" stroke="midnightblue" points="1704.98,-388.93 1715.29,-386.47 1705.7,-381.96 1704.98,-388.93"/>
</g>
<!-- Node33&#45;&gt;Node29 -->
<g id="edge74" class="edge">
<title>Node33&#45;&gt;Node29</title>
<path fill="none" stroke="midnightblue" d="M1801.01,-378.5C1813.37,-365.75 1830.19,-348.39 1840.14,-338.13"/>
<polygon fill="midnightblue" stroke="midnightblue" points="1798.44,-376.12 1794,-385.73 1803.47,-380.99 1798.44,-376.12"/>
</g>
<!-- Node33&#45;&gt;Node30 -->
<g id="edge75" class="edge">
<title>Node33&#45;&gt;Node30</title>
<path fill="none" stroke="midnightblue" d="M1762.73,-380.27C1742.14,-367.4 1712.51,-348.88 1695.3,-338.13"/>
<polygon fill="midnightblue" stroke="midnightblue" points="1761.14,-383.4 1771.47,-385.73 1764.85,-377.47 1761.14,-383.4"/>
</g>
<!-- Node34 -->
<g id="node34" class="node">
<title>Node34</title>
<g id="a_node34"><a xlink:href="user__frontend_8h.html" target="_top" xlink:title=" ">
<polygon fill="white" stroke="black" points="1747,-118 1747,-137 1902,-137 1902,-118 1747,-118"/>
<text text-anchor="middle" x="1824.5" y="-125" font-family="Helvetica,sans-Serif" font-size="10.00">src/node/rpc/user_frontend.h</text>
</a>
</g>
</g>
<!-- Node33&#45;&gt;Node34 -->
<g id="edge72" class="edge">
<title>Node33&#45;&gt;Node34</title>
<path fill="none" stroke="midnightblue" d="M1837.38,-383.82C1889.73,-372.53 1964.04,-354.88 1972.5,-344 1999.24,-309.62 1992.51,-285.19 1973.5,-246 1946.4,-190.12 1878.43,-152.83 1844.46,-137.05"/>
<polygon fill="midnightblue" stroke="midnightblue" points="1836.6,-380.41 1827.55,-385.93 1838.06,-387.26 1836.6,-380.41"/>
</g>
<!-- Node35 -->
<g id="node35" class="node">
<title>Node35</title>
<g id="a_node35"><a xlink:href="snapshotter_8h.html" target="_top" xlink:title=" ">
<polygon fill="white" stroke="black" points="1814,-252 1814,-271 1941,-271 1941,-252 1814,-252"/>
<text text-anchor="middle" x="1877.5" y="-259" font-family="Helvetica,sans-Serif" font-size="10.00">src/node/snapshotter.h</text>
</a>
</g>
</g>
<!-- Node33&#45;&gt;Node35 -->
<g id="edge76" class="edge">
<title>Node33&#45;&gt;Node35</title>
<path fill="none" stroke="midnightblue" d="M1837.63,-383.59C1875.79,-374.43 1922.85,-360.25 1934.5,-344 1953.41,-317.62 1913.81,-286.03 1891.43,-271.11"/>
<polygon fill="midnightblue" stroke="midnightblue" points="1836.58,-380.24 1827.64,-385.93 1838.18,-387.06 1836.58,-380.24"/>
</g>
<!-- Node34&#45;&gt;Node8 -->
<g id="edge73" class="edge">
<title>Node34&#45;&gt;Node8</title>
<path fill="none" stroke="midnightblue" d="M1743.3,-116.78C1643.97,-104.89 1478.06,-85.02 1388.79,-74.34"/>
<polygon fill="midnightblue" stroke="midnightblue" points="1742.95,-120.26 1753.29,-117.98 1743.78,-113.31 1742.95,-120.26"/>
</g>
<!-- Node35&#45;&gt;Node7 -->
<g id="edge77" class="edge">
<title>Node35&#45;&gt;Node7</title>
<path fill="none" stroke="midnightblue" d="M1823.01,-249.96C1756.88,-237.16 1646.66,-215.84 1585.6,-204.03"/>
<polygon fill="midnightblue" stroke="midnightblue" points="1822.75,-253.47 1833.23,-251.94 1824.08,-246.6 1822.75,-253.47"/>
</g>
</g>
</svg>
        <g id="navigator" transform="translate(0 0)" fill="#404254">
                <rect fill="#f2f5e9" fill-opacity="0.5" stroke="#606060" stroke-width=".5" x="0" y="0" width="60" height="60"/>
                <use id="zoomplus" xlink:href="#zoomPlus" x="17" y="9" onmousedown="handleZoom(evt,'in')"/>
                <use id="zoomminus" xlink:href="#zoomMin" x="42" y="9" onmousedown="handleZoom(evt,'out')"/>
                <use id="reset" xlink:href="#resetDef" x="30" y="36" onmousedown="handleReset()"/>
                <g id="arrowUp" xlink:href="#dirArrow" transform="translate(30 24)" onmousedown="handlePan(0,-1)">
                  <use xlink:href="#rim" fill="#404040">
                        <set attributeName="fill" to="#808080" begin="arrowUp.mouseover" end="arrowUp.mouseout"/>
                  </use>
                  <path fill="none" stroke="white" stroke-width="1.5" d="M0,-3.0v7 M-2.5,-0.5L0,-3.0L2.5,-0.5"/>
                </g>
                <g id="arrowRight" xlink:href="#dirArrow" transform="rotate(90) translate(36 -43)" onmousedown="handlePan(1,0)">
                  <use xlink:href="#rim" fill="#404040">
                        <set attributeName="fill" to="#808080" begin="arrowRight.mouseover" end="arrowRight.mouseout"/>
                  </use>
                  <path fill="none" stroke="white" stroke-width="1.5" d="M0,-3.0v7 M-2.5,-0.5L0,-3.0L2.5,-0.5"/>
                </g>
                <g id="arrowDown" xlink:href="#dirArrow" transform="rotate(180) translate(-30 -48)" onmousedown="handlePan(0,1)">
                  <use xlink:href="#rim" fill="#404040">
                        <set attributeName="fill" to="#808080" begin="arrowDown.mouseover" end="arrowDown.mouseout"/>
                  </use>
                  <path fill="none" stroke="white" stroke-width="1.5" d="M0,-3.0v7 M-2.5,-0.5L0,-3.0L2.5,-0.5"/>
                </g>
                <g id="arrowLeft" xlink:href="#dirArrow" transform="rotate(270) translate(-36 17)" onmousedown="handlePan(-1,0)">
                  <use xlink:href="#rim" fill="#404040">
                        <set attributeName="fill" to="#808080" begin="arrowLeft.mouseover" end="arrowLeft.mouseout"/>
                  </use>
                  <path fill="none" stroke="white" stroke-width="1.5" d="M0,-3.0v7 M-2.5,-0.5L0,-3.0L2.5,-0.5"/>
                </g>
        </g>
        <svg viewBox="0 0 15 15" width="100%" height="30px" preserveAspectRatio="xMaxYMin meet">
         <g id="arrow_out" transform="scale(0.3 0.3)">
          <a xlink:href="code__id_8h__dep__incl_org.svg" target="_base">
           <rect id="button" ry="5" rx="5" y="6" x="6" height="38" width="38"
                fill="#f2f5e9" fill-opacity="0.5" stroke="#606060" stroke-width="1.0"/>
           <path id="arrow"
             d="M 11.500037,31.436501 C 11.940474,20.09759 22.043105,11.32322 32.158766,21.979434 L 37.068811,17.246167 C 37.068811,17.246167 37.088388,32 37.088388,32 L 22.160133,31.978069 C 22.160133,31.978069 26.997745,27.140456 26.997745,27.140456 C 18.528582,18.264221 13.291696,25.230495 11.500037,31.436501 z"
             style="fill:#404040;"/>
          </a>
         </g>
        </svg>
</svg>
