<?xml version="1.0" encoding="UTF-8" standalone="no"?>
<!DOCTYPE svg PUBLIC "-//W3C//DTD SVG 1.1//EN"
 "http://www.w3.org/Graphics/SVG/1.1/DTD/svg11.dtd">
<!-- Generated by graphviz version 2.43.0 (0)
 -->
<!-- Title: src/service/tables/config.h Pages: 1 -->
<!--zoomable 442 -->
<svg id="main" version="1.1" xmlns="http://www.w3.org/2000/svg" xmlns:xlink="http://www.w3.org/1999/xlink" xml:space="preserve" onload="init(evt)">
<style type="text/css"><![CDATA[
.edge:hover path { stroke: red; }
.edge:hover polygon { stroke: red; fill: red; }
]]></style>
<script type="text/javascript"><![CDATA[
var edges = document.getElementsByTagName('g');
if (edges && edges.length) {
  for (var i=0;i<edges.length;i++) {
    if (edges[i].id.substr(0,4)=='edge') {
      edges[i].setAttribute('class','edge');
    }
  }
}
]]></script>
        <defs>
                <circle id="rim" cx="0" cy="0" r="7"/>
                <circle id="rim2" cx="0" cy="0" r="3.5"/>
                <g id="zoomPlus">
                        <use xlink:href="#rim" fill="#404040">
                                <set attributeName="fill" to="#808080" begin="zoomplus.mouseover" end="zoomplus.mouseout"/>
                        </use>
                        <path d="M-4,0h8M0,-4v8" fill="none" stroke="white" stroke-width="1.5" pointer-events="none"/>
                </g>
                <g id="zoomMin">
                        <use xlink:href="#rim" fill="#404040">
                                <set attributeName="fill" to="#808080" begin="zoomminus.mouseover" end="zoomminus.mouseout"/>
                        </use>
                        <path d="M-4,0h8" fill="none" stroke="white" stroke-width="1.5" pointer-events="none"/>
                </g>
                <g id="dirArrow">
                        <path fill="none" stroke="white" stroke-width="1.5" d="M0,-3.0v7 M-2.5,-0.5L0,-3.0L2.5,-0.5"/>
                </g>
               <g id="resetDef">
                       <use xlink:href="#rim2" fill="#404040">
                               <set attributeName="fill" to="#808080" begin="reset.mouseover" end="reset.mouseout"/>
                       </use>
               </g>
        </defs>

<script type="text/javascript">
var viewWidth = 1462;
var viewHeight = 442;
var sectionId = 'dynsection-0';
</script>
<script xlink:href="svgpan.js"/>
<svg id="graph" class="graph">
<g id="viewport">
<title>src/service/tables/config.h</title>
<polygon fill="white" stroke="transparent" points="-4,4 -4,-438 1458.47,-438 1458.47,4 -4,4"/>
<!-- Node1 -->
<g id="node1" class="node">
<title>Node1</title>
<g id="a_node1"><a xlink:title=" ">
<polygon fill="#bfbfbf" stroke="black" points="246,-403.5 246,-433.5 348,-433.5 348,-403.5 246,-403.5"/>
<text text-anchor="start" x="254" y="-421.5" font-family="Helvetica,sans-Serif" font-size="10.00">src/service/tables</text>
<text text-anchor="middle" x="297" y="-410.5" font-family="Helvetica,sans-Serif" font-size="10.00">/config.h</text>
</a>
</g>
</g>
<!-- Node2 -->
<g id="node2" class="node">
<title>Node2</title>
<g id="a_node2"><a xlink:href="json_8h.html" target="_top" xlink:title=" ">
<polygon fill="white" stroke="black" points="180.5,-168.5 180.5,-187.5 257.5,-187.5 257.5,-168.5 180.5,-168.5"/>
<text text-anchor="middle" x="219" y="-175.5" font-family="Helvetica,sans-Serif" font-size="10.00">ccf/ds/json.h</text>
</a>
</g>
</g>
<!-- Node1&#45;&gt;Node2 -->
<g id="edge1" class="edge">
<title>Node1&#45;&gt;Node2</title>
<path fill="none" stroke="midnightblue" d="M245.78,-416.35C208.99,-412.5 161.71,-400.71 137,-367 95.29,-310.1 167.25,-228.67 201.92,-194.76"/>
<polygon fill="midnightblue" stroke="midnightblue" points="204.65,-197 209.47,-187.56 199.82,-191.93 204.65,-197"/>
</g>
<!-- Node16 -->
<g id="node16" class="node">
<title>Node16</title>
<g id="a_node16"><a xlink:href="x509__time_8h.html" target="_top" xlink:title=" ">
<polygon fill="white" stroke="black" points="458.5,-336.5 458.5,-366.5 573.5,-366.5 573.5,-336.5 458.5,-336.5"/>
<text text-anchor="start" x="466.5" y="-354.5" font-family="Helvetica,sans-Serif" font-size="10.00">crypto/openssl/x509</text>
<text text-anchor="middle" x="516" y="-343.5" font-family="Helvetica,sans-Serif" font-size="10.00">_time.h</text>
</a>
</g>
</g>
<!-- Node1&#45;&gt;Node16 -->
<g id="edge18" class="edge">
<title>Node1&#45;&gt;Node16</title>
<path fill="none" stroke="midnightblue" d="M344.25,-403.48C377.81,-393.51 423.06,-380.09 458.68,-369.51"/>
<polygon fill="midnightblue" stroke="midnightblue" points="459.87,-372.81 468.46,-366.61 457.87,-366.1 459.87,-372.81"/>
</g>
<!-- Node34 -->
<g id="node34" class="node">
<title>Node34</title>
<g id="a_node34"><a xlink:href="consensus__type_8h.html" target="_top" xlink:title=" ">
<polygon fill="white" stroke="black" points="146.5,-342 146.5,-361 291.5,-361 291.5,-342 146.5,-342"/>
<text text-anchor="middle" x="219" y="-349" font-family="Helvetica,sans-Serif" font-size="10.00">enclave/consensus_type.h</text>
</a>
</g>
</g>
<!-- Node1&#45;&gt;Node34 -->
<g id="edge42" class="edge">
<title>Node1&#45;&gt;Node34</title>
<path fill="none" stroke="midnightblue" d="M280.08,-403.4C267.43,-392.86 250.17,-378.48 237.23,-367.69"/>
<polygon fill="midnightblue" stroke="midnightblue" points="239.36,-364.91 229.43,-361.19 234.88,-370.29 239.36,-364.91"/>
</g>
<!-- Node35 -->
<g id="node35" class="node">
<title>Node35</title>
<g id="a_node35"><a xlink:href="reconfiguration__type_8h.html" target="_top" xlink:title=" ">
<polygon fill="white" stroke="black" points="309.5,-336.5 309.5,-366.5 440.5,-366.5 440.5,-336.5 309.5,-336.5"/>
<text text-anchor="start" x="317.5" y="-354.5" font-family="Helvetica,sans-Serif" font-size="10.00">enclave/reconfiguration</text>
<text text-anchor="middle" x="375" y="-343.5" font-family="Helvetica,sans-Serif" font-size="10.00">_type.h</text>
</a>
</g>
</g>
<!-- Node1&#45;&gt;Node35 -->
<g id="edge44" class="edge">
<title>Node1&#45;&gt;Node35</title>
<path fill="none" stroke="midnightblue" d="M313.92,-403.4C324.55,-394.54 338.45,-382.96 350.3,-373.09"/>
<polygon fill="midnightblue" stroke="midnightblue" points="352.67,-375.67 358.11,-366.58 348.19,-370.29 352.67,-375.67"/>
</g>
<!-- Node3 -->
<g id="node3" class="node">
<title>Node3</title>
<g id="a_node3"><a xlink:href="include_2ccf_2crypto_2base64_8h.html" target="_top" xlink:title=" ">
<polygon fill="white" stroke="black" points="0,-56.5 0,-75.5 112,-75.5 112,-56.5 0,-56.5"/>
<text text-anchor="middle" x="56" y="-63.5" font-family="Helvetica,sans-Serif" font-size="10.00">ccf/crypto/base64.h</text>
</a>
</g>
</g>
<!-- Node2&#45;&gt;Node3 -->
<g id="edge2" class="edge">
<title>Node2&#45;&gt;Node3</title>
<path fill="none" stroke="midnightblue" d="M180.18,-174.74C147.83,-170.81 102.71,-160.22 75,-132 63.04,-119.82 58.54,-100.55 56.88,-86.15"/>
<polygon fill="midnightblue" stroke="midnightblue" points="60.34,-85.56 56.07,-75.87 53.36,-86.11 60.34,-85.56"/>
</g>
<!-- Node6 -->
<g id="node6" class="node">
<title>Node6</title>
<g id="a_node6"><a xlink:href="include_2ccf_2ds_2json__schema_8h.html" target="_top" xlink:title=" ">
<polygon fill="white" stroke="black" points="158.5,-112.5 158.5,-131.5 279.5,-131.5 279.5,-112.5 158.5,-112.5"/>
<text text-anchor="middle" x="219" y="-119.5" font-family="Helvetica,sans-Serif" font-size="10.00">ccf/ds/json_schema.h</text>
</a>
</g>
</g>
<!-- Node2&#45;&gt;Node6 -->
<g id="edge5" class="edge">
<title>Node2&#45;&gt;Node6</title>
<path fill="none" stroke="midnightblue" d="M219,-168.08C219,-161.01 219,-150.86 219,-141.99"/>
<polygon fill="midnightblue" stroke="midnightblue" points="222.5,-141.75 219,-131.75 215.5,-141.75 222.5,-141.75"/>
</g>
<!-- Node13 -->
<g id="node13" class="node">
<title>Node13</title>
<g id="a_node13"><a xlink:title=" ">
<polygon fill="white" stroke="#bfbfbf" points="366.5,-56.5 366.5,-75.5 445.5,-75.5 445.5,-56.5 366.5,-56.5"/>
<text text-anchor="middle" x="406" y="-63.5" font-family="Helvetica,sans-Serif" font-size="10.00">fmt/format.h</text>
</a>
</g>
</g>
<!-- Node2&#45;&gt;Node13 -->
<g id="edge16" class="edge">
<title>Node2&#45;&gt;Node13</title>
<path fill="none" stroke="midnightblue" d="M233.67,-168.37C265.9,-149.41 343.1,-104 382.3,-80.94"/>
<polygon fill="midnightblue" stroke="midnightblue" points="384.55,-83.68 391.39,-75.59 381,-77.64 384.55,-83.68"/>
</g>
<!-- Node15 -->
<g id="node15" class="node">
<title>Node15</title>
<g id="a_node15"><a xlink:title=" ">
<polygon fill="white" stroke="#bfbfbf" points="84,-112.5 84,-131.5 140,-131.5 140,-112.5 84,-112.5"/>
<text text-anchor="middle" x="112" y="-119.5" font-family="Helvetica,sans-Serif" font-size="10.00">sstream</text>
</a>
</g>
</g>
<!-- Node2&#45;&gt;Node15 -->
<g id="edge17" class="edge">
<title>Node2&#45;&gt;Node15</title>
<path fill="none" stroke="midnightblue" d="M201.81,-168.32C184.65,-159.66 158.05,-146.24 138.25,-136.25"/>
<polygon fill="midnightblue" stroke="midnightblue" points="139.65,-133.04 129.15,-131.65 136.5,-139.28 139.65,-133.04"/>
</g>
<!-- Node4 -->
<g id="node4" class="node">
<title>Node4</title>
<g id="a_node4"><a xlink:title=" ">
<polygon fill="white" stroke="#bfbfbf" points="55,-0.5 55,-19.5 99,-19.5 99,-0.5 55,-0.5"/>
<text text-anchor="middle" x="77" y="-7.5" font-family="Helvetica,sans-Serif" font-size="10.00">string</text>
</a>
</g>
</g>
<!-- Node3&#45;&gt;Node4 -->
<g id="edge3" class="edge">
<title>Node3&#45;&gt;Node4</title>
<path fill="none" stroke="midnightblue" d="M59.47,-56.08C62.31,-48.77 66.43,-38.18 69.96,-29.1"/>
<polygon fill="midnightblue" stroke="midnightblue" points="73.23,-30.34 73.6,-19.75 66.71,-27.8 73.23,-30.34"/>
</g>
<!-- Node5 -->
<g id="node5" class="node">
<title>Node5</title>
<g id="a_node5"><a xlink:title=" ">
<polygon fill="white" stroke="#bfbfbf" points="279.5,-0.5 279.5,-19.5 326.5,-19.5 326.5,-0.5 279.5,-0.5"/>
<text text-anchor="middle" x="303" y="-7.5" font-family="Helvetica,sans-Serif" font-size="10.00">vector</text>
</a>
</g>
</g>
<!-- Node3&#45;&gt;Node5 -->
<g id="edge4" class="edge">
<title>Node3&#45;&gt;Node5</title>
<path fill="none" stroke="midnightblue" d="M100.44,-56.45C141.72,-48.33 205.12,-35.41 269.35,-20.04"/>
<polygon fill="midnightblue" stroke="midnightblue" points="270.35,-23.4 279.25,-17.66 268.71,-16.6 270.35,-23.4"/>
</g>
<!-- Node7 -->
<g id="node7" class="node">
<title>Node7</title>
<g id="a_node7"><a xlink:href="nonstd_8h.html" target="_top" xlink:title=" ">
<polygon fill="white" stroke="black" points="258,-56.5 258,-75.5 348,-75.5 348,-56.5 258,-56.5"/>
<text text-anchor="middle" x="303" y="-63.5" font-family="Helvetica,sans-Serif" font-size="10.00">ccf/ds/nonstd.h</text>
</a>
</g>
</g>
<!-- Node6&#45;&gt;Node7 -->
<g id="edge6" class="edge">
<title>Node6&#45;&gt;Node7</title>
<path fill="none" stroke="midnightblue" d="M232.5,-112.32C245.6,-103.9 265.71,-90.97 281.11,-81.07"/>
<polygon fill="midnightblue" stroke="midnightblue" points="283.02,-84.01 289.54,-75.65 279.23,-78.12 283.02,-84.01"/>
</g>
<!-- Node6&#45;&gt;Node13 -->
<g id="edge14" class="edge">
<title>Node6&#45;&gt;Node13</title>
<path fill="none" stroke="midnightblue" d="M248.63,-112.44C280.5,-103.24 331.33,-88.56 366.56,-78.39"/>
<polygon fill="midnightblue" stroke="midnightblue" points="367.87,-81.65 376.51,-75.52 365.93,-74.93 367.87,-81.65"/>
</g>
<!-- Node14 -->
<g id="node14" class="node">
<title>Node14</title>
<g id="a_node14"><a xlink:title=" ">
<polygon fill="white" stroke="#bfbfbf" points="130,-56.5 130,-75.5 240,-75.5 240,-56.5 130,-56.5"/>
<text text-anchor="middle" x="185" y="-63.5" font-family="Helvetica,sans-Serif" font-size="10.00">nlohmann/json.hpp</text>
</a>
</g>
</g>
<!-- Node6&#45;&gt;Node14 -->
<g id="edge15" class="edge">
<title>Node6&#45;&gt;Node14</title>
<path fill="none" stroke="midnightblue" d="M213.39,-112.08C208.63,-104.53 201.68,-93.49 195.85,-84.23"/>
<polygon fill="midnightblue" stroke="midnightblue" points="198.8,-82.35 190.51,-75.75 192.88,-86.08 198.8,-82.35"/>
</g>
<!-- Node7&#45;&gt;Node4 -->
<g id="edge10" class="edge">
<title>Node7&#45;&gt;Node4</title>
<path fill="none" stroke="midnightblue" d="M267.19,-56.44C223.7,-46.05 151,-28.68 109.21,-18.7"/>
<polygon fill="midnightblue" stroke="midnightblue" points="109.82,-15.24 99.28,-16.32 108.2,-22.05 109.82,-15.24"/>
</g>
<!-- Node7&#45;&gt;Node5 -->
<g id="edge13" class="edge">
<title>Node7&#45;&gt;Node5</title>
<path fill="none" stroke="midnightblue" d="M303,-56.08C303,-49.01 303,-38.86 303,-29.99"/>
<polygon fill="midnightblue" stroke="midnightblue" points="306.5,-29.75 303,-19.75 299.5,-29.75 306.5,-29.75"/>
</g>
<!-- Node8 -->
<g id="node8" class="node">
<title>Node8</title>
<g id="a_node8"><a xlink:title=" ">
<polygon fill="white" stroke="#bfbfbf" points="137,-0.5 137,-19.5 201,-19.5 201,-0.5 137,-0.5"/>
<text text-anchor="middle" x="169" y="-7.5" font-family="Helvetica,sans-Serif" font-size="10.00">algorithm</text>
</a>
</g>
</g>
<!-- Node7&#45;&gt;Node8 -->
<g id="edge7" class="edge">
<title>Node7&#45;&gt;Node8</title>
<path fill="none" stroke="midnightblue" d="M281.77,-56.44C259.62,-47.52 224.68,-33.44 199.56,-23.32"/>
<polygon fill="midnightblue" stroke="midnightblue" points="200.72,-20.01 190.13,-19.52 198.1,-26.5 200.72,-20.01"/>
</g>
<!-- Node9 -->
<g id="node9" class="node">
<title>Node9</title>
<g id="a_node9"><a xlink:title=" ">
<polygon fill="white" stroke="#bfbfbf" points="219,-0.5 219,-19.5 261,-19.5 261,-0.5 219,-0.5"/>
<text text-anchor="middle" x="240" y="-7.5" font-family="Helvetica,sans-Serif" font-size="10.00">array</text>
</a>
</g>
</g>
<!-- Node7&#45;&gt;Node9 -->
<g id="edge8" class="edge">
<title>Node7&#45;&gt;Node9</title>
<path fill="none" stroke="midnightblue" d="M292.88,-56.32C283.47,-48.26 269.26,-36.08 257.93,-26.37"/>
<polygon fill="midnightblue" stroke="midnightblue" points="260.18,-23.68 250.31,-19.83 255.62,-29 260.18,-23.68"/>
</g>
<!-- Node10 -->
<g id="node10" class="node">
<title>Node10</title>
<g id="a_node10"><a xlink:title=" ">
<polygon fill="white" stroke="#bfbfbf" points="344.5,-0.5 344.5,-19.5 393.5,-19.5 393.5,-0.5 344.5,-0.5"/>
<text text-anchor="middle" x="369" y="-7.5" font-family="Helvetica,sans-Serif" font-size="10.00">cctype</text>
</a>
</g>
</g>
<!-- Node7&#45;&gt;Node10 -->
<g id="edge9" class="edge">
<title>Node7&#45;&gt;Node10</title>
<path fill="none" stroke="midnightblue" d="M313.6,-56.32C323.46,-48.26 338.35,-36.08 350.22,-26.37"/>
<polygon fill="midnightblue" stroke="midnightblue" points="352.68,-28.88 358.2,-19.83 348.25,-23.46 352.68,-28.88"/>
</g>
<!-- Node11 -->
<g id="node11" class="node">
<title>Node11</title>
<g id="a_node11"><a xlink:title=" ">
<polygon fill="white" stroke="#bfbfbf" points="576.5,-0.5 576.5,-19.5 649.5,-19.5 649.5,-0.5 576.5,-0.5"/>
<text text-anchor="middle" x="613" y="-7.5" font-family="Helvetica,sans-Serif" font-size="10.00">string_view</text>
</a>
</g>
</g>
<!-- Node7&#45;&gt;Node11 -->
<g id="edge11" class="edge">
<title>Node7&#45;&gt;Node11</title>
<path fill="none" stroke="midnightblue" d="M348.08,-57.15C406.21,-47.02 506.86,-29.49 565.95,-19.2"/>
<polygon fill="midnightblue" stroke="midnightblue" points="566.87,-22.59 576.12,-17.42 565.67,-15.69 566.87,-22.59"/>
</g>
<!-- Node12 -->
<g id="node12" class="node">
<title>Node12</title>
<g id="a_node12"><a xlink:title=" ">
<polygon fill="white" stroke="#bfbfbf" points="411.5,-0.5 411.5,-19.5 480.5,-19.5 480.5,-0.5 411.5,-0.5"/>
<text text-anchor="middle" x="446" y="-7.5" font-family="Helvetica,sans-Serif" font-size="10.00">type_traits</text>
</a>
</g>
</g>
<!-- Node7&#45;&gt;Node12 -->
<g id="edge12" class="edge">
<title>Node7&#45;&gt;Node12</title>
<path fill="none" stroke="midnightblue" d="M325.66,-56.44C349.4,-47.48 386.91,-33.31 413.74,-23.18"/>
<polygon fill="midnightblue" stroke="midnightblue" points="415.33,-26.32 423.45,-19.52 412.86,-19.77 415.33,-26.32"/>
</g>
<!-- Node16&#45;&gt;Node13 -->
<g id="edge40" class="edge">
<title>Node16&#45;&gt;Node13</title>
<path fill="none" stroke="midnightblue" d="M470,-336.47C428.84,-321.14 371.23,-292.12 346,-244 316.94,-188.58 365.72,-116.2 391.55,-83.87"/>
<polygon fill="midnightblue" stroke="midnightblue" points="394.49,-85.81 398.14,-75.86 389.09,-81.36 394.49,-85.81"/>
</g>
<!-- Node17 -->
<g id="node17" class="node">
<title>Node17</title>
<g id="a_node17"><a xlink:href="openssl__wrappers_8h.html" target="_top" xlink:title=" ">
<polygon fill="white" stroke="black" points="824.5,-280.5 824.5,-299.5 937.5,-299.5 937.5,-280.5 824.5,-280.5"/>
<text text-anchor="middle" x="881" y="-287.5" font-family="Helvetica,sans-Serif" font-size="10.00">openssl_wrappers.h</text>
</a>
</g>
</g>
<!-- Node16&#45;&gt;Node17 -->
<g id="edge19" class="edge">
<title>Node16&#45;&gt;Node17</title>
<path fill="none" stroke="midnightblue" d="M573.84,-341.07C640.56,-330.19 749.89,-312.37 818.52,-301.19"/>
<polygon fill="midnightblue" stroke="midnightblue" points="819.45,-304.58 828.76,-299.52 818.32,-297.67 819.45,-304.58"/>
</g>
<!-- Node32 -->
<g id="node32" class="node">
<title>Node32</title>
<g id="a_node32"><a xlink:title=" ">
<polygon fill="white" stroke="#bfbfbf" points="435.5,-280.5 435.5,-299.5 514.5,-299.5 514.5,-280.5 435.5,-280.5"/>
<text text-anchor="middle" x="475" y="-287.5" font-family="Helvetica,sans-Serif" font-size="10.00">fmt/chrono.h</text>
</a>
</g>
</g>
<!-- Node16&#45;&gt;Node32 -->
<g id="edge39" class="edge">
<title>Node16&#45;&gt;Node32</title>
<path fill="none" stroke="midnightblue" d="M506.28,-336.4C500.45,-327.93 492.98,-317.1 486.81,-308.14"/>
<polygon fill="midnightblue" stroke="midnightblue" points="489.52,-305.91 480.97,-299.66 483.76,-309.88 489.52,-305.91"/>
</g>
<!-- Node33 -->
<g id="node33" class="node">
<title>Node33</title>
<g id="a_node33"><a xlink:title=" ">
<polygon fill="white" stroke="#bfbfbf" points="533,-280.5 533,-299.5 581,-299.5 581,-280.5 533,-280.5"/>
<text text-anchor="middle" x="557" y="-287.5" font-family="Helvetica,sans-Serif" font-size="10.00">time.h</text>
</a>
</g>
</g>
<!-- Node16&#45;&gt;Node33 -->
<g id="edge41" class="edge">
<title>Node16&#45;&gt;Node33</title>
<path fill="none" stroke="midnightblue" d="M525.72,-336.4C531.55,-327.93 539.02,-317.1 545.19,-308.14"/>
<polygon fill="midnightblue" stroke="midnightblue" points="548.24,-309.88 551.03,-299.66 542.48,-305.91 548.24,-309.88"/>
</g>
<!-- Node17&#45;&gt;Node13 -->
<g id="edge28" class="edge">
<title>Node17&#45;&gt;Node13</title>
<path fill="none" stroke="midnightblue" d="M824.39,-286.39C733.59,-281.51 559.91,-269.15 504,-244 469.83,-228.63 460.99,-219.68 441,-188 420.46,-155.44 411.62,-110.44 408.1,-85.51"/>
<polygon fill="midnightblue" stroke="midnightblue" points="411.57,-85.06 406.83,-75.58 404.63,-85.95 411.57,-85.06"/>
</g>
<!-- Node18 -->
<g id="node18" class="node">
<title>Node18</title>
<g id="a_node18"><a xlink:href="pem_8h.html" target="_top" xlink:title=" ">
<polygon fill="white" stroke="black" points="513,-224.5 513,-243.5 611,-243.5 611,-224.5 513,-224.5"/>
<text text-anchor="middle" x="562" y="-231.5" font-family="Helvetica,sans-Serif" font-size="10.00">ccf/crypto/pem.h</text>
</a>
</g>
</g>
<!-- Node17&#45;&gt;Node18 -->
<g id="edge20" class="edge">
<title>Node17&#45;&gt;Node18</title>
<path fill="none" stroke="midnightblue" d="M830.45,-280.44C773.57,-270.81 681.28,-255.19 621.11,-245.01"/>
<polygon fill="midnightblue" stroke="midnightblue" points="621.44,-241.51 611,-243.29 620.28,-248.41 621.44,-241.51"/>
</g>
<!-- Node21 -->
<g id="node21" class="node">
<title>Node21</title>
<g id="a_node21"><a xlink:title=" ">
<polygon fill="white" stroke="#bfbfbf" points="1099,-168.5 1099,-187.5 1157,-187.5 1157,-168.5 1099,-168.5"/>
<text text-anchor="middle" x="1128" y="-175.5" font-family="Helvetica,sans-Serif" font-size="10.00">memory</text>
</a>
</g>
</g>
<!-- Node17&#45;&gt;Node21 -->
<g id="edge29" class="edge">
<title>Node17&#45;&gt;Node21</title>
<path fill="none" stroke="midnightblue" d="M937.65,-288.78C1074.75,-287.65 1415.7,-281.12 1450,-244 1456.03,-237.47 1455.83,-230.71 1450,-224 1413.82,-182.41 1245.42,-178.09 1167.61,-178.38"/>
<polygon fill="midnightblue" stroke="midnightblue" points="1167.23,-174.88 1157.25,-178.44 1167.27,-181.88 1167.23,-174.88"/>
</g>
<!-- Node23 -->
<g id="node23" class="node">
<title>Node23</title>
<g id="a_node23"><a xlink:title=" ">
<polygon fill="white" stroke="#bfbfbf" points="629.5,-224.5 629.5,-243.5 718.5,-243.5 718.5,-224.5 629.5,-224.5"/>
<text text-anchor="middle" x="674" y="-231.5" font-family="Helvetica,sans-Serif" font-size="10.00">openssl/asn1.h</text>
</a>
</g>
</g>
<!-- Node17&#45;&gt;Node23 -->
<g id="edge30" class="edge">
<title>Node17&#45;&gt;Node23</title>
<path fill="none" stroke="midnightblue" d="M848.2,-280.44C812.62,-271.16 755.69,-256.31 716.65,-246.13"/>
<polygon fill="midnightblue" stroke="midnightblue" points="717.21,-242.65 706.65,-243.52 715.44,-249.43 717.21,-242.65"/>
</g>
<!-- Node24 -->
<g id="node24" class="node">
<title>Node24</title>
<g id="a_node24"><a xlink:title=" ">
<polygon fill="white" stroke="#bfbfbf" points="736.5,-224.5 736.5,-243.5 813.5,-243.5 813.5,-224.5 736.5,-224.5"/>
<text text-anchor="middle" x="775" y="-231.5" font-family="Helvetica,sans-Serif" font-size="10.00">openssl/ec.h</text>
</a>
</g>
</g>
<!-- Node17&#45;&gt;Node24 -->
<g id="edge31" class="edge">
<title>Node17&#45;&gt;Node24</title>
<path fill="none" stroke="midnightblue" d="M863.97,-280.32C846.97,-271.66 820.62,-258.24 801.01,-248.25"/>
<polygon fill="midnightblue" stroke="midnightblue" points="802.49,-245.08 791.99,-243.65 799.31,-251.31 802.49,-245.08"/>
</g>
<!-- Node25 -->
<g id="node25" class="node">
<title>Node25</title>
<g id="a_node25"><a xlink:title=" ">
<polygon fill="white" stroke="#bfbfbf" points="831.5,-224.5 831.5,-243.5 930.5,-243.5 930.5,-224.5 831.5,-224.5"/>
<text text-anchor="middle" x="881" y="-231.5" font-family="Helvetica,sans-Serif" font-size="10.00">openssl/engine.h</text>
</a>
</g>
</g>
<!-- Node17&#45;&gt;Node25 -->
<g id="edge32" class="edge">
<title>Node17&#45;&gt;Node25</title>
<path fill="none" stroke="midnightblue" d="M881,-280.08C881,-273.01 881,-262.86 881,-253.99"/>
<polygon fill="midnightblue" stroke="midnightblue" points="884.5,-253.75 881,-243.75 877.5,-253.75 884.5,-253.75"/>
</g>
<!-- Node26 -->
<g id="node26" class="node">
<title>Node26</title>
<g id="a_node26"><a xlink:title=" ">
<polygon fill="white" stroke="#bfbfbf" points="948.5,-224.5 948.5,-243.5 1027.5,-243.5 1027.5,-224.5 948.5,-224.5"/>
<text text-anchor="middle" x="988" y="-231.5" font-family="Helvetica,sans-Serif" font-size="10.00">openssl/err.h</text>
</a>
</g>
</g>
<!-- Node17&#45;&gt;Node26 -->
<g id="edge33" class="edge">
<title>Node17&#45;&gt;Node26</title>
<path fill="none" stroke="midnightblue" d="M898.19,-280.32C915.35,-271.66 941.95,-258.24 961.75,-248.25"/>
<polygon fill="midnightblue" stroke="midnightblue" points="963.5,-251.28 970.85,-243.65 960.35,-245.04 963.5,-251.28"/>
</g>
<!-- Node27 -->
<g id="node27" class="node">
<title>Node27</title>
<g id="a_node27"><a xlink:title=" ">
<polygon fill="white" stroke="#bfbfbf" points="1045,-224.5 1045,-243.5 1129,-243.5 1129,-224.5 1045,-224.5"/>
<text text-anchor="middle" x="1087" y="-231.5" font-family="Helvetica,sans-Serif" font-size="10.00">openssl/evp.h</text>
</a>
</g>
</g>
<!-- Node17&#45;&gt;Node27 -->
<g id="edge34" class="edge">
<title>Node17&#45;&gt;Node27</title>
<path fill="none" stroke="midnightblue" d="M913.64,-280.44C949.05,-271.16 1005.71,-256.31 1044.55,-246.13"/>
<polygon fill="midnightblue" stroke="midnightblue" points="1045.73,-249.44 1054.51,-243.52 1043.95,-242.67 1045.73,-249.44"/>
</g>
<!-- Node28 -->
<g id="node28" class="node">
<title>Node28</title>
<g id="a_node28"><a xlink:title=" ">
<polygon fill="white" stroke="#bfbfbf" points="1147,-224.5 1147,-243.5 1235,-243.5 1235,-224.5 1147,-224.5"/>
<text text-anchor="middle" x="1191" y="-231.5" font-family="Helvetica,sans-Serif" font-size="10.00">openssl/pem.h</text>
</a>
</g>
</g>
<!-- Node17&#45;&gt;Node28 -->
<g id="edge35" class="edge">
<title>Node17&#45;&gt;Node28</title>
<path fill="none" stroke="midnightblue" d="M930.12,-280.44C986.33,-270.65 1078.12,-254.66 1136.49,-244.49"/>
<polygon fill="midnightblue" stroke="midnightblue" points="1137.38,-247.89 1146.63,-242.73 1136.18,-241 1137.38,-247.89"/>
</g>
<!-- Node29 -->
<g id="node29" class="node">
<title>Node29</title>
<g id="a_node29"><a xlink:title=" ">
<polygon fill="white" stroke="#bfbfbf" points="1253,-224.5 1253,-243.5 1333,-243.5 1333,-224.5 1253,-224.5"/>
<text text-anchor="middle" x="1293" y="-231.5" font-family="Helvetica,sans-Serif" font-size="10.00">openssl/ssl.h</text>
</a>
</g>
</g>
<!-- Node17&#45;&gt;Node29 -->
<g id="edge36" class="edge">
<title>Node17&#45;&gt;Node29</title>
<path fill="none" stroke="midnightblue" d="M937.73,-283C1007.26,-275.42 1128.91,-261.41 1242.97,-244.08"/>
<polygon fill="midnightblue" stroke="midnightblue" points="1243.57,-247.53 1252.92,-242.56 1242.51,-240.61 1243.57,-247.53"/>
</g>
<!-- Node30 -->
<g id="node30" class="node">
<title>Node30</title>
<g id="a_node30"><a xlink:title=" ">
<polygon fill="white" stroke="#bfbfbf" points="1351,-224.5 1351,-243.5 1441,-243.5 1441,-224.5 1351,-224.5"/>
<text text-anchor="middle" x="1396" y="-231.5" font-family="Helvetica,sans-Serif" font-size="10.00">openssl/x509.h</text>
</a>
</g>
</g>
<!-- Node17&#45;&gt;Node30 -->
<g id="edge37" class="edge">
<title>Node17&#45;&gt;Node30</title>
<path fill="none" stroke="midnightblue" d="M937.56,-284.72C1022.77,-278 1189.35,-263.8 1340.99,-244.05"/>
<polygon fill="midnightblue" stroke="midnightblue" points="1341.49,-247.52 1350.95,-242.74 1340.58,-240.57 1341.49,-247.52"/>
</g>
<!-- Node31 -->
<g id="node31" class="node">
<title>Node31</title>
<g id="a_node31"><a xlink:title=" ">
<polygon fill="white" stroke="#bfbfbf" points="355,-224.5 355,-243.5 457,-243.5 457,-224.5 355,-224.5"/>
<text text-anchor="middle" x="406" y="-231.5" font-family="Helvetica,sans-Serif" font-size="10.00">openssl/x509v3.h</text>
</a>
</g>
</g>
<!-- Node17&#45;&gt;Node31 -->
<g id="edge38" class="edge">
<title>Node17&#45;&gt;Node31</title>
<path fill="none" stroke="midnightblue" d="M824.23,-283.28C745.05,-275.19 596.96,-259.63 471,-244 469.73,-243.84 468.44,-243.68 467.15,-243.52"/>
<polygon fill="midnightblue" stroke="midnightblue" points="467.44,-240.03 457.08,-242.21 466.54,-246.97 467.44,-240.03"/>
</g>
<!-- Node18&#45;&gt;Node2 -->
<g id="edge21" class="edge">
<title>Node18&#45;&gt;Node2</title>
<path fill="none" stroke="midnightblue" d="M512.86,-225.26C447.53,-214.98 332.8,-196.92 267.7,-186.67"/>
<polygon fill="midnightblue" stroke="midnightblue" points="268.12,-183.19 257.69,-185.09 267.03,-190.1 268.12,-183.19"/>
</g>
<!-- Node18&#45;&gt;Node5 -->
<g id="edge27" class="edge">
<title>Node18&#45;&gt;Node5</title>
<path fill="none" stroke="midnightblue" d="M594.04,-224.46C625.54,-214.3 666.8,-195.22 651,-168 600.64,-81.22 547.27,-95.39 455,-56 443.98,-51.3 377.62,-32.17 336.31,-20.42"/>
<polygon fill="midnightblue" stroke="midnightblue" points="337.22,-17.04 326.64,-17.67 335.31,-23.77 337.22,-17.04"/>
</g>
<!-- Node18&#45;&gt;Node11 -->
<g id="edge26" class="edge">
<title>Node18&#45;&gt;Node11</title>
<path fill="none" stroke="midnightblue" d="M598.39,-224.46C630.55,-216.08 673.9,-202.49 684,-188 717.55,-139.87 712.28,-107.4 684,-56 676.11,-41.66 661.51,-31.25 647.6,-24.08"/>
<polygon fill="midnightblue" stroke="midnightblue" points="648.7,-20.73 638.16,-19.62 645.71,-27.06 648.7,-20.73"/>
</g>
<!-- Node19 -->
<g id="node19" class="node">
<title>Node19</title>
<g id="a_node19"><a xlink:title=" ">
<polygon fill="white" stroke="#bfbfbf" points="450,-168.5 450,-187.5 500,-187.5 500,-168.5 450,-168.5"/>
<text text-anchor="middle" x="475" y="-175.5" font-family="Helvetica,sans-Serif" font-size="10.00">cstring</text>
</a>
</g>
</g>
<!-- Node18&#45;&gt;Node19 -->
<g id="edge22" class="edge">
<title>Node18&#45;&gt;Node19</title>
<path fill="none" stroke="midnightblue" d="M548.02,-224.32C534.45,-215.9 513.62,-202.97 497.68,-193.07"/>
<polygon fill="midnightblue" stroke="midnightblue" points="499.29,-189.95 488.94,-187.65 495.59,-195.9 499.29,-189.95"/>
</g>
<!-- Node20 -->
<g id="node20" class="node">
<title>Node20</title>
<g id="a_node20"><a xlink:title=" ">
<polygon fill="white" stroke="#bfbfbf" points="518.5,-168.5 518.5,-187.5 583.5,-187.5 583.5,-168.5 518.5,-168.5"/>
<text text-anchor="middle" x="551" y="-175.5" font-family="Helvetica,sans-Serif" font-size="10.00">exception</text>
</a>
</g>
</g>
<!-- Node18&#45;&gt;Node20 -->
<g id="edge23" class="edge">
<title>Node18&#45;&gt;Node20</title>
<path fill="none" stroke="midnightblue" d="M560.18,-224.08C558.73,-216.93 556.63,-206.64 554.81,-197.69"/>
<polygon fill="midnightblue" stroke="midnightblue" points="558.21,-196.85 552.78,-187.75 551.35,-198.25 558.21,-196.85"/>
</g>
<!-- Node18&#45;&gt;Node21 -->
<g id="edge24" class="edge">
<title>Node18&#45;&gt;Node21</title>
<path fill="none" stroke="midnightblue" d="M611.22,-225.25C614.53,-224.81 617.81,-224.38 621,-224 794.91,-203.04 1003.49,-187.56 1088.77,-181.64"/>
<polygon fill="midnightblue" stroke="midnightblue" points="1089.05,-185.13 1098.78,-180.95 1088.57,-178.14 1089.05,-185.13"/>
</g>
<!-- Node22 -->
<g id="node22" class="node">
<title>Node22</title>
<g id="a_node22"><a xlink:title=" ">
<polygon fill="white" stroke="#bfbfbf" points="602,-168.5 602,-187.5 642,-187.5 642,-168.5 602,-168.5"/>
<text text-anchor="middle" x="622" y="-175.5" font-family="Helvetica,sans-Serif" font-size="10.00">span</text>
</a>
</g>
</g>
<!-- Node18&#45;&gt;Node22 -->
<g id="edge25" class="edge">
<title>Node18&#45;&gt;Node22</title>
<path fill="none" stroke="midnightblue" d="M571.64,-224.32C580.51,-216.34 593.87,-204.31 604.61,-194.65"/>
<polygon fill="midnightblue" stroke="midnightblue" points="607.09,-197.13 612.18,-187.83 602.41,-191.92 607.09,-197.13"/>
</g>
<!-- Node34&#45;&gt;Node2 -->
<g id="edge43" class="edge">
<title>Node34&#45;&gt;Node2</title>
<path fill="none" stroke="midnightblue" d="M219,-341.76C219,-315.15 219,-234.71 219,-197.84"/>
<polygon fill="midnightblue" stroke="midnightblue" points="222.5,-197.52 219,-187.52 215.5,-197.52 222.5,-197.52"/>
</g>
<!-- Node35&#45;&gt;Node2 -->
<g id="edge45" class="edge">
<title>Node35&#45;&gt;Node2</title>
<path fill="none" stroke="midnightblue" d="M355.32,-336.3C342.62,-326.71 326.1,-313.4 313,-300 279.85,-266.07 247.27,-220.7 230.55,-196.29"/>
<polygon fill="midnightblue" stroke="midnightblue" points="233.28,-194.07 224.77,-187.75 227.48,-197.99 233.28,-194.07"/>
</g>
</g>
</svg>
        <g id="navigator" transform="translate(0 0)" fill="#404254">
                <rect fill="#f2f5e9" fill-opacity="0.5" stroke="#606060" stroke-width=".5" x="0" y="0" width="60" height="60"/>
                <use id="zoomplus" xlink:href="#zoomPlus" x="17" y="9" onmousedown="handleZoom(evt,'in')"/>
                <use id="zoomminus" xlink:href="#zoomMin" x="42" y="9" onmousedown="handleZoom(evt,'out')"/>
                <use id="reset" xlink:href="#resetDef" x="30" y="36" onmousedown="handleReset()"/>
                <g id="arrowUp" xlink:href="#dirArrow" transform="translate(30 24)" onmousedown="handlePan(0,-1)">
                  <use xlink:href="#rim" fill="#404040">
                        <set attributeName="fill" to="#808080" begin="arrowUp.mouseover" end="arrowUp.mouseout"/>
                  </use>
                  <path fill="none" stroke="white" stroke-width="1.5" d="M0,-3.0v7 M-2.5,-0.5L0,-3.0L2.5,-0.5"/>
                </g>
                <g id="arrowRight" xlink:href="#dirArrow" transform="rotate(90) translate(36 -43)" onmousedown="handlePan(1,0)">
                  <use xlink:href="#rim" fill="#404040">
                        <set attributeName="fill" to="#808080" begin="arrowRight.mouseover" end="arrowRight.mouseout"/>
                  </use>
                  <path fill="none" stroke="white" stroke-width="1.5" d="M0,-3.0v7 M-2.5,-0.5L0,-3.0L2.5,-0.5"/>
                </g>
                <g id="arrowDown" xlink:href="#dirArrow" transform="rotate(180) translate(-30 -48)" onmousedown="handlePan(0,1)">
                  <use xlink:href="#rim" fill="#404040">
                        <set attributeName="fill" to="#808080" begin="arrowDown.mouseover" end="arrowDown.mouseout"/>
                  </use>
                  <path fill="none" stroke="white" stroke-width="1.5" d="M0,-3.0v7 M-2.5,-0.5L0,-3.0L2.5,-0.5"/>
                </g>
                <g id="arrowLeft" xlink:href="#dirArrow" transform="rotate(270) translate(-36 17)" onmousedown="handlePan(-1,0)">
                  <use xlink:href="#rim" fill="#404040">
                        <set attributeName="fill" to="#808080" begin="arrowLeft.mouseover" end="arrowLeft.mouseout"/>
                  </use>
                  <path fill="none" stroke="white" stroke-width="1.5" d="M0,-3.0v7 M-2.5,-0.5L0,-3.0L2.5,-0.5"/>
                </g>
        </g>
        <svg viewBox="0 0 15 15" width="100%" height="30px" preserveAspectRatio="xMaxYMin meet">
         <g id="arrow_out" transform="scale(0.3 0.3)">
          <a xlink:href="config_8h__incl_org.svg" target="_base">
           <rect id="button" ry="5" rx="5" y="6" x="6" height="38" width="38"
                fill="#f2f5e9" fill-opacity="0.5" stroke="#606060" stroke-width="1.0"/>
           <path id="arrow"
             d="M 11.500037,31.436501 C 11.940474,20.09759 22.043105,11.32322 32.158766,21.979434 L 37.068811,17.246167 C 37.068811,17.246167 37.088388,32 37.088388,32 L 22.160133,31.978069 C 22.160133,31.978069 26.997745,27.140456 26.997745,27.140456 C 18.528582,18.264221 13.291696,25.230495 11.500037,31.436501 z"
             style="fill:#404040;"/>
          </a>
         </g>
        </svg>
</svg>
