<?xml version="1.0" encoding="UTF-8" standalone="no"?>
<!DOCTYPE svg PUBLIC "-//W3C//DTD SVG 1.1//EN"
 "http://www.w3.org/Graphics/SVG/1.1/DTD/svg11.dtd">
<!-- Generated by graphviz version 2.43.0 (0)
 -->
<!-- Title: src/consensus/aft/request.h Pages: 1 -->
<!--zoomable 643 -->
<svg id="main" version="1.1" xmlns="http://www.w3.org/2000/svg" xmlns:xlink="http://www.w3.org/1999/xlink" xml:space="preserve" onload="init(evt)">
<style type="text/css"><![CDATA[
.edge:hover path { stroke: red; }
.edge:hover polygon { stroke: red; fill: red; }
]]></style>
<script type="text/javascript"><![CDATA[
var edges = document.getElementsByTagName('g');
if (edges && edges.length) {
  for (var i=0;i<edges.length;i++) {
    if (edges[i].id.substr(0,4)=='edge') {
      edges[i].setAttribute('class','edge');
    }
  }
}
]]></script>
        <defs>
                <circle id="rim" cx="0" cy="0" r="7"/>
                <circle id="rim2" cx="0" cy="0" r="3.5"/>
                <g id="zoomPlus">
                        <use xlink:href="#rim" fill="#404040">
                                <set attributeName="fill" to="#808080" begin="zoomplus.mouseover" end="zoomplus.mouseout"/>
                        </use>
                        <path d="M-4,0h8M0,-4v8" fill="none" stroke="white" stroke-width="1.5" pointer-events="none"/>
                </g>
                <g id="zoomMin">
                        <use xlink:href="#rim" fill="#404040">
                                <set attributeName="fill" to="#808080" begin="zoomminus.mouseover" end="zoomminus.mouseout"/>
                        </use>
                        <path d="M-4,0h8" fill="none" stroke="white" stroke-width="1.5" pointer-events="none"/>
                </g>
                <g id="dirArrow">
                        <path fill="none" stroke="white" stroke-width="1.5" d="M0,-3.0v7 M-2.5,-0.5L0,-3.0L2.5,-0.5"/>
                </g>
               <g id="resetDef">
                       <use xlink:href="#rim2" fill="#404040">
                               <set attributeName="fill" to="#808080" begin="reset.mouseover" end="reset.mouseout"/>
                       </use>
               </g>
        </defs>

<script type="text/javascript">
var viewWidth = 2390;
var viewHeight = 643;
var sectionId = 'dynsection-1';
</script>
<script xlink:href="svgpan.js"/>
<svg id="graph" class="graph">
<g id="viewport">
<title>src/consensus/aft/request.h</title>
<polygon fill="white" stroke="transparent" points="-4,4 -4,-639 2386,-639 2386,4 -4,4"/>
<!-- Node1 -->
<g id="node1" class="node">
<title>Node1</title>
<g id="a_node1"><a xlink:title=" ">
<polygon fill="#bfbfbf" stroke="black" points="838,-615.5 838,-634.5 987,-634.5 987,-615.5 838,-615.5"/>
<text text-anchor="middle" x="912.5" y="-622.5" font-family="Helvetica,sans-Serif" font-size="10.00">src/consensus/aft/request.h</text>
</a>
</g>
</g>
<!-- Node2 -->
<g id="node2" class="node">
<title>Node2</title>
<g id="a_node2"><a xlink:href="deserialise_8h.html" target="_top" xlink:title=" ">
<polygon fill="white" stroke="black" points="815,-559.5 815,-578.5 926,-578.5 926,-559.5 815,-559.5"/>
<text text-anchor="middle" x="870.5" y="-566.5" font-family="Helvetica,sans-Serif" font-size="10.00">src/kv/deserialise.h</text>
</a>
</g>
</g>
<!-- Node1&#45;&gt;Node2 -->
<g id="edge1" class="edge">
<title>Node1&#45;&gt;Node2</title>
<path fill="none" stroke="midnightblue" d="M899.39,-607.14C892.07,-597.74 883.26,-586.4 877.31,-578.75"/>
<polygon fill="midnightblue" stroke="midnightblue" points="896.66,-609.34 905.56,-615.08 902.19,-605.04 896.66,-609.34"/>
</g>
<!-- Node3 -->
<g id="node3" class="node">
<title>Node3</title>
<g id="a_node3"><a xlink:href="store_8h.html" target="_top" xlink:title=" ">
<polygon fill="white" stroke="black" points="745,-503.5 745,-522.5 828,-522.5 828,-503.5 745,-503.5"/>
<text text-anchor="middle" x="786.5" y="-510.5" font-family="Helvetica,sans-Serif" font-size="10.00">src/kv/store.h</text>
</a>
</g>
</g>
<!-- Node1&#45;&gt;Node3 -->
<g id="edge72" class="edge">
<title>Node1&#45;&gt;Node3</title>
<path fill="none" stroke="midnightblue" d="M861.57,-612.31C842,-605.51 820.93,-595 806.5,-579 791.95,-562.87 787.98,-536.35 786.9,-522.7"/>
<polygon fill="midnightblue" stroke="midnightblue" points="860.72,-615.71 871.31,-615.44 862.86,-609.05 860.72,-615.71"/>
</g>
<!-- Node21 -->
<g id="node21" class="node">
<title>Node21</title>
<g id="a_node21"><a xlink:href="frontend_8h.html" target="_top" xlink:title=" ">
<polygon fill="white" stroke="black" points="1330,-375 1330,-394 1459,-394 1459,-375 1330,-375"/>
<text text-anchor="middle" x="1394.5" y="-382" font-family="Helvetica,sans-Serif" font-size="10.00">src/node/rpc/frontend.h</text>
</a>
</g>
</g>
<!-- Node1&#45;&gt;Node21 -->
<g id="edge73" class="edge">
<title>Node1&#45;&gt;Node21</title>
<path fill="none" stroke="midnightblue" d="M938.95,-610.91C1026.36,-567.66 1304.57,-430 1377.08,-394.12"/>
<polygon fill="midnightblue" stroke="midnightblue" points="937.35,-607.8 929.94,-615.37 940.45,-614.07 937.35,-607.8"/>
</g>
<!-- Node26 -->
<g id="node26" class="node">
<title>Node26</title>
<g id="a_node26"><a xlink:href="network__tables_8h.html" target="_top" xlink:title=" ">
<polygon fill="white" stroke="black" points="898.5,-436.5 898.5,-466.5 1010.5,-466.5 1010.5,-436.5 898.5,-436.5"/>
<text text-anchor="start" x="906.5" y="-454.5" font-family="Helvetica,sans-Serif" font-size="10.00">src/service/network</text>
<text text-anchor="middle" x="954.5" y="-443.5" font-family="Helvetica,sans-Serif" font-size="10.00">_tables.h</text>
</a>
</g>
</g>
<!-- Node1&#45;&gt;Node26 -->
<g id="edge74" class="edge">
<title>Node1&#45;&gt;Node26</title>
<path fill="none" stroke="midnightblue" d="M923.09,-606.56C927.57,-598.44 932.45,-588.5 935.5,-579 948.13,-539.67 952.44,-490.71 953.85,-466.88"/>
<polygon fill="midnightblue" stroke="midnightblue" points="919.95,-604.99 917.97,-615.4 926.01,-608.5 919.95,-604.99"/>
</g>
<!-- Node2&#45;&gt;Node3 -->
<g id="edge2" class="edge">
<title>Node2&#45;&gt;Node3</title>
<path fill="none" stroke="midnightblue" d="M848.57,-553.9C833.16,-544 813.05,-531.07 799.96,-522.65"/>
<polygon fill="midnightblue" stroke="midnightblue" points="846.7,-556.86 857,-559.32 850.48,-550.97 846.7,-556.86"/>
</g>
<!-- Node4 -->
<g id="node4" class="node">
<title>Node4</title>
<g id="a_node4"><a xlink:href="logging_8cpp.html" target="_top" xlink:title=" ">
<polygon fill="white" stroke="black" points="754,-436.5 754,-466.5 877,-466.5 877,-436.5 754,-436.5"/>
<text text-anchor="start" x="762" y="-454.5" font-family="Helvetica,sans-Serif" font-size="10.00">samples/apps/logging</text>
<text text-anchor="middle" x="815.5" y="-443.5" font-family="Helvetica,sans-Serif" font-size="10.00">/logging.cpp</text>
</a>
</g>
</g>
<!-- Node3&#45;&gt;Node4 -->
<g id="edge3" class="edge">
<title>Node3&#45;&gt;Node4</title>
<path fill="none" stroke="midnightblue" d="M795.08,-494.39C799.42,-485.5 804.6,-474.86 808.67,-466.52"/>
<polygon fill="midnightblue" stroke="midnightblue" points="791.89,-492.95 790.65,-503.48 798.18,-496.02 791.89,-492.95"/>
</g>
<!-- Node5 -->
<g id="node5" class="node">
<title>Node5</title>
<g id="a_node5"><a xlink:href="indexer_8h.html" target="_top" xlink:title=" ">
<polygon fill="white" stroke="black" points="613,-442 613,-461 736,-461 736,-442 613,-442"/>
<text text-anchor="middle" x="674.5" y="-449" font-family="Helvetica,sans-Serif" font-size="10.00">src/indexing/indexer.h</text>
</a>
</g>
</g>
<!-- Node3&#45;&gt;Node5 -->
<g id="edge4" class="edge">
<title>Node3&#45;&gt;Node5</title>
<path fill="none" stroke="midnightblue" d="M761.49,-498.71C739.8,-487.19 709.05,-470.86 690.52,-461.01"/>
<polygon fill="midnightblue" stroke="midnightblue" points="759.98,-501.87 770.45,-503.48 763.26,-495.69 759.98,-501.87"/>
</g>
<!-- Node10 -->
<g id="node10" class="node">
<title>Node10</title>
<g id="a_node10"><a xlink:href="visit__each__entry__in__map_8cpp.html" target="_top" xlink:title=" ">
<polygon fill="white" stroke="black" points="63,-436.5 63,-466.5 224,-466.5 224,-436.5 63,-436.5"/>
<text text-anchor="start" x="71" y="-454.5" font-family="Helvetica,sans-Serif" font-size="10.00">src/indexing/strategies</text>
<text text-anchor="middle" x="143.5" y="-443.5" font-family="Helvetica,sans-Serif" font-size="10.00">/visit_each_entry_in_map.cpp</text>
</a>
</g>
</g>
<!-- Node3&#45;&gt;Node10 -->
<g id="edge10" class="edge">
<title>Node3&#45;&gt;Node10</title>
<path fill="none" stroke="midnightblue" d="M734.65,-508.95C637.23,-502.95 420.31,-488.31 238.5,-467 233.78,-466.45 228.93,-465.84 224.04,-465.19"/>
<polygon fill="midnightblue" stroke="midnightblue" points="734.62,-512.45 744.81,-509.57 735.04,-505.47 734.62,-512.45"/>
</g>
<!-- Node11 -->
<g id="node11" class="node">
<title>Node11</title>
<g id="a_node11"><a xlink:href="historical__queries_8h.html" target="_top" xlink:title=" ">
<polygon fill="white" stroke="black" points="194.5,-302.5 194.5,-332.5 300.5,-332.5 300.5,-302.5 194.5,-302.5"/>
<text text-anchor="start" x="202.5" y="-320.5" font-family="Helvetica,sans-Serif" font-size="10.00">src/node/historical</text>
<text text-anchor="middle" x="247.5" y="-309.5" font-family="Helvetica,sans-Serif" font-size="10.00">_queries.h</text>
</a>
</g>
</g>
<!-- Node3&#45;&gt;Node11 -->
<g id="edge11" class="edge">
<title>Node3&#45;&gt;Node11</title>
<path fill="none" stroke="midnightblue" d="M734.71,-511.67C660.44,-509.91 520.11,-501.76 406.5,-467 344.34,-447.99 319.28,-448.94 276.5,-400 259.5,-380.55 252.25,-350.45 249.33,-332.78"/>
<polygon fill="midnightblue" stroke="midnightblue" points="734.67,-515.17 744.74,-511.88 734.81,-508.17 734.67,-515.17"/>
</g>
<!-- Node13 -->
<g id="node13" class="node">
<title>Node13</title>
<g id="a_node13"><a xlink:href="history_8h.html" target="_top" xlink:title=" ">
<polygon fill="white" stroke="black" points="415.5,-442 415.5,-461 517.5,-461 517.5,-442 415.5,-442"/>
<text text-anchor="middle" x="466.5" y="-449" font-family="Helvetica,sans-Serif" font-size="10.00">src/node/history.h</text>
</a>
</g>
</g>
<!-- Node3&#45;&gt;Node13 -->
<g id="edge15" class="edge">
<title>Node3&#45;&gt;Node13</title>
<path fill="none" stroke="midnightblue" d="M735.1,-502.44C673.53,-490.99 571.32,-471.99 512.33,-461.02"/>
<polygon fill="midnightblue" stroke="midnightblue" points="734.52,-505.9 744.99,-504.28 735.8,-499.01 734.52,-505.9"/>
</g>
<!-- Node3&#45;&gt;Node21 -->
<g id="edge28" class="edge">
<title>Node3&#45;&gt;Node21</title>
<path fill="none" stroke="midnightblue" d="M838.22,-502.37C885.48,-493.48 957.27,-479.77 1019.5,-467 1143.18,-441.62 1289.23,-409.16 1356.77,-394"/>
<polygon fill="midnightblue" stroke="midnightblue" points="837.41,-498.96 828.23,-504.24 838.7,-505.84 837.41,-498.96"/>
</g>
<!-- Node3&#45;&gt;Node26 -->
<g id="edge38" class="edge">
<title>Node3&#45;&gt;Node26</title>
<path fill="none" stroke="midnightblue" d="M820.09,-500.1C847.43,-490.42 886.07,-476.74 914.91,-466.52"/>
<polygon fill="midnightblue" stroke="midnightblue" points="818.83,-496.84 810.57,-503.48 821.17,-503.44 818.83,-496.84"/>
</g>
<!-- Node6 -->
<g id="node6" class="node">
<title>Node6</title>
<g id="a_node6"><a xlink:href="node__state_8h.html" target="_top" xlink:title=" ">
<polygon fill="white" stroke="black" points="860.5,-179.5 860.5,-198.5 984.5,-198.5 984.5,-179.5 860.5,-179.5"/>
<text text-anchor="middle" x="922.5" y="-186.5" font-family="Helvetica,sans-Serif" font-size="10.00">src/node/node_state.h</text>
</a>
</g>
</g>
<!-- Node5&#45;&gt;Node6 -->
<g id="edge5" class="edge">
<title>Node5&#45;&gt;Node6</title>
<path fill="none" stroke="midnightblue" d="M672.05,-432.05C665.69,-382.61 649.96,-249.89 662.5,-235 687.28,-205.56 791.51,-195.38 860.24,-191.86"/>
<polygon fill="midnightblue" stroke="midnightblue" points="668.58,-432.53 673.35,-441.99 675.53,-431.62 668.58,-432.53"/>
</g>
<!-- Node7 -->
<g id="node7" class="node">
<title>Node7</title>
<g id="a_node7"><a xlink:href="enclave_2enclave_8h.html" target="_top" xlink:title=" ">
<polygon fill="white" stroke="black" points="1150.5,-56.5 1150.5,-75.5 1272.5,-75.5 1272.5,-56.5 1150.5,-56.5"/>
<text text-anchor="middle" x="1211.5" y="-63.5" font-family="Helvetica,sans-Serif" font-size="10.00">src/enclave/enclave.h</text>
</a>
</g>
</g>
<!-- Node6&#45;&gt;Node7 -->
<g id="edge6" class="edge">
<title>Node6&#45;&gt;Node7</title>
<path fill="none" stroke="midnightblue" d="M977.64,-177.26C1010.6,-169.81 1052.87,-158.45 1088.5,-143 1132.49,-123.93 1179.31,-91.01 1200.25,-75.52"/>
<polygon fill="midnightblue" stroke="midnightblue" points="976.73,-173.87 967.72,-179.44 978.24,-180.71 976.73,-173.87"/>
</g>
<!-- Node9 -->
<g id="node9" class="node">
<title>Node9</title>
<g id="a_node9"><a xlink:href="gov__effects_8h.html" target="_top" xlink:title=" ">
<polygon fill="white" stroke="black" points="935.5,-118 935.5,-137 1079.5,-137 1079.5,-118 935.5,-118"/>
<text text-anchor="middle" x="1007.5" y="-125" font-family="Helvetica,sans-Serif" font-size="10.00">src/node/rpc/gov_effects.h</text>
</a>
</g>
</g>
<!-- Node6&#45;&gt;Node9 -->
<g id="edge8" class="edge">
<title>Node6&#45;&gt;Node9</title>
<path fill="none" stroke="midnightblue" d="M943.05,-173.61C959.4,-162.17 981.72,-146.55 995.34,-137.01"/>
<polygon fill="midnightblue" stroke="midnightblue" points="940.86,-170.87 934.68,-179.48 944.88,-176.61 940.86,-170.87"/>
</g>
<!-- Node8 -->
<g id="node8" class="node">
<title>Node8</title>
<g id="a_node8"><a xlink:href="enclave_2main_8cpp.html" target="_top" xlink:title=" ">
<polygon fill="white" stroke="black" points="1151.5,-0.5 1151.5,-19.5 1271.5,-19.5 1271.5,-0.5 1151.5,-0.5"/>
<text text-anchor="middle" x="1211.5" y="-7.5" font-family="Helvetica,sans-Serif" font-size="10.00">src/enclave/main.cpp</text>
</a>
</g>
</g>
<!-- Node7&#45;&gt;Node8 -->
<g id="edge7" class="edge">
<title>Node7&#45;&gt;Node8</title>
<path fill="none" stroke="midnightblue" d="M1211.5,-45.8C1211.5,-36.91 1211.5,-26.78 1211.5,-19.75"/>
<polygon fill="midnightblue" stroke="midnightblue" points="1208,-46.08 1211.5,-56.08 1215,-46.08 1208,-46.08"/>
</g>
<!-- Node9&#45;&gt;Node7 -->
<g id="edge9" class="edge">
<title>Node9&#45;&gt;Node7</title>
<path fill="none" stroke="midnightblue" d="M1046.58,-115.1C1086.22,-103.54 1146.68,-85.91 1182.33,-75.51"/>
<polygon fill="midnightblue" stroke="midnightblue" points="1045.35,-111.82 1036.73,-117.98 1047.31,-118.54 1045.35,-111.82"/>
</g>
<!-- Node11&#45;&gt;Node7 -->
<g id="edge12" class="edge">
<title>Node11&#45;&gt;Node7</title>
<path fill="none" stroke="midnightblue" d="M270.86,-295.56C321.85,-251.41 448.81,-149.74 576.5,-112 682.88,-80.55 1012.91,-70.75 1150.4,-67.99"/>
<polygon fill="midnightblue" stroke="midnightblue" points="268.29,-293.16 263.07,-302.38 272.9,-298.43 268.29,-293.16"/>
</g>
<!-- Node12 -->
<g id="node12" class="node">
<title>Node12</title>
<g id="a_node12"><a xlink:href="historical__transaction__fetcher_8h.html" target="_top" xlink:title=" ">
<polygon fill="white" stroke="black" points="586,-112.5 586,-142.5 711,-142.5 711,-112.5 586,-112.5"/>
<text text-anchor="start" x="594" y="-130.5" font-family="Helvetica,sans-Serif" font-size="10.00">src/indexing/historical</text>
<text text-anchor="middle" x="648.5" y="-119.5" font-family="Helvetica,sans-Serif" font-size="10.00">_transaction_fetcher.h</text>
</a>
</g>
</g>
<!-- Node11&#45;&gt;Node12 -->
<g id="edge13" class="edge">
<title>Node11&#45;&gt;Node12</title>
<path fill="none" stroke="midnightblue" d="M286.89,-298.03C366.97,-260.49 547.17,-176.01 618.56,-142.54"/>
<polygon fill="midnightblue" stroke="midnightblue" points="285.21,-294.96 277.64,-302.37 288.18,-301.29 285.21,-294.96"/>
</g>
<!-- Node12&#45;&gt;Node7 -->
<g id="edge14" class="edge">
<title>Node12&#45;&gt;Node7</title>
<path fill="none" stroke="midnightblue" d="M721.36,-118.8C833.31,-106.97 1045.61,-84.53 1150.17,-73.48"/>
<polygon fill="midnightblue" stroke="midnightblue" points="720.75,-115.34 711.17,-119.88 721.49,-122.31 720.75,-115.34"/>
</g>
<!-- Node13&#45;&gt;Node6 -->
<g id="edge17" class="edge">
<title>Node13&#45;&gt;Node6</title>
<path fill="none" stroke="midnightblue" d="M463.29,-431.49C459.23,-400.83 455.96,-340.04 485.5,-302 531.26,-243.08 750.9,-209.83 860.3,-196.67"/>
<polygon fill="midnightblue" stroke="midnightblue" points="459.87,-432.29 464.82,-441.66 466.79,-431.25 459.87,-432.29"/>
</g>
<!-- Node13&#45;&gt;Node11 -->
<g id="edge16" class="edge">
<title>Node13&#45;&gt;Node11</title>
<path fill="none" stroke="midnightblue" d="M405.44,-439.94C374.62,-432.46 337.87,-420.07 309.5,-400 284.25,-382.13 264.68,-350.9 254.74,-332.73"/>
<polygon fill="midnightblue" stroke="midnightblue" points="404.69,-443.36 415.22,-442.2 406.26,-436.54 404.69,-443.36"/>
</g>
<!-- Node14 -->
<g id="node14" class="node">
<title>Node14</title>
<g id="a_node14"><a xlink:href="snapshot__serdes_8h.html" target="_top" xlink:title=" ">
<polygon fill="white" stroke="black" points="494.5,-308 494.5,-327 646.5,-327 646.5,-308 494.5,-308"/>
<text text-anchor="middle" x="570.5" y="-315" font-family="Helvetica,sans-Serif" font-size="10.00">src/node/snapshot_serdes.h</text>
</a>
</g>
</g>
<!-- Node13&#45;&gt;Node14 -->
<g id="edge18" class="edge">
<title>Node13&#45;&gt;Node14</title>
<path fill="none" stroke="midnightblue" d="M479.77,-433.66C502.2,-405.18 546.86,-348.5 563.79,-327.02"/>
<polygon fill="midnightblue" stroke="midnightblue" points="476.76,-431.82 473.32,-441.84 482.26,-436.15 476.76,-431.82"/>
</g>
<!-- Node16 -->
<g id="node16" class="node">
<title>Node16</title>
<g id="a_node16"><a xlink:href="tx__receipt_8h.html" target="_top" xlink:title=" ">
<polygon fill="white" stroke="black" points="319,-375 319,-394 438,-394 438,-375 319,-375"/>
<text text-anchor="middle" x="378.5" y="-382" font-family="Helvetica,sans-Serif" font-size="10.00">src/node/tx_receipt.h</text>
</a>
</g>
</g>
<!-- Node13&#45;&gt;Node16 -->
<g id="edge21" class="edge">
<title>Node13&#45;&gt;Node16</title>
<path fill="none" stroke="midnightblue" d="M446.28,-435.57C428.91,-422.74 404.47,-404.69 390.18,-394.13"/>
<polygon fill="midnightblue" stroke="midnightblue" points="444.51,-438.61 454.63,-441.73 448.67,-432.98 444.51,-438.61"/>
</g>
<!-- Node15 -->
<g id="node15" class="node">
<title>Node15</title>
<g id="a_node15"><a xlink:href="snapshotter_8h.html" target="_top" xlink:title=" ">
<polygon fill="white" stroke="black" points="672,-241 672,-260 799,-260 799,-241 672,-241"/>
<text text-anchor="middle" x="735.5" y="-248" font-family="Helvetica,sans-Serif" font-size="10.00">src/node/snapshotter.h</text>
</a>
</g>
</g>
<!-- Node14&#45;&gt;Node15 -->
<g id="edge19" class="edge">
<title>Node14&#45;&gt;Node15</title>
<path fill="none" stroke="midnightblue" d="M601.97,-304.1C634.73,-291.2 685.17,-271.33 713.76,-260.06"/>
<polygon fill="midnightblue" stroke="midnightblue" points="600.43,-300.95 592.41,-307.87 603,-307.46 600.43,-300.95"/>
</g>
<!-- Node15&#45;&gt;Node6 -->
<g id="edge20" class="edge">
<title>Node15&#45;&gt;Node6</title>
<path fill="none" stroke="midnightblue" d="M772.02,-237.88C808.37,-226.32 863.29,-208.84 895.76,-198.51"/>
<polygon fill="midnightblue" stroke="midnightblue" points="770.76,-234.61 762.29,-240.98 772.88,-241.28 770.76,-234.61"/>
</g>
<!-- Node16&#45;&gt;Node11 -->
<g id="edge25" class="edge">
<title>Node16&#45;&gt;Node11</title>
<path fill="none" stroke="midnightblue" d="M351.98,-370.34C329.93,-359.4 298.61,-343.86 276.02,-332.65"/>
<polygon fill="midnightblue" stroke="midnightblue" points="350.59,-373.56 361.1,-374.87 353.7,-367.29 350.59,-373.56"/>
</g>
<!-- Node16&#45;&gt;Node14 -->
<g id="edge27" class="edge">
<title>Node16&#45;&gt;Node14</title>
<path fill="none" stroke="midnightblue" d="M413.65,-371.6C451.71,-358.71 511.5,-338.47 545.2,-327.06"/>
<polygon fill="midnightblue" stroke="midnightblue" points="412.35,-368.35 404,-374.87 414.59,-374.98 412.35,-368.35"/>
</g>
<!-- Node17 -->
<g id="node17" class="node">
<title>Node17</title>
<g id="a_node17"><a xlink:href="src_2apps_2js__v8_2tmpl_2receipt_8h.html" target="_top" xlink:title=" ">
<polygon fill="white" stroke="black" points="65,-302.5 65,-332.5 176,-332.5 176,-302.5 65,-302.5"/>
<text text-anchor="start" x="73" y="-320.5" font-family="Helvetica,sans-Serif" font-size="10.00">src/apps/js_v8/tmpl</text>
<text text-anchor="middle" x="120.5" y="-309.5" font-family="Helvetica,sans-Serif" font-size="10.00">/receipt.h</text>
</a>
</g>
</g>
<!-- Node16&#45;&gt;Node17 -->
<g id="edge22" class="edge">
<title>Node16&#45;&gt;Node17</title>
<path fill="none" stroke="midnightblue" d="M334.75,-372.48C291.08,-361.47 223.8,-344.52 176.3,-332.56"/>
<polygon fill="midnightblue" stroke="midnightblue" points="333.95,-375.89 344.51,-374.94 335.66,-369.1 333.95,-375.89"/>
</g>
<!-- Node20 -->
<g id="node20" class="node">
<title>Node20</title>
<g id="a_node20"><a xlink:href="historical__queries__adapter_8cpp.html" target="_top" xlink:title=" ">
<polygon fill="white" stroke="black" points="318.5,-302.5 318.5,-332.5 438.5,-332.5 438.5,-302.5 318.5,-302.5"/>
<text text-anchor="start" x="326.5" y="-320.5" font-family="Helvetica,sans-Serif" font-size="10.00">src/node/historical</text>
<text text-anchor="middle" x="378.5" y="-309.5" font-family="Helvetica,sans-Serif" font-size="10.00">_queries_adapter.cpp</text>
</a>
</g>
</g>
<!-- Node16&#45;&gt;Node20 -->
<g id="edge26" class="edge">
<title>Node16&#45;&gt;Node20</title>
<path fill="none" stroke="midnightblue" d="M378.5,-364.41C378.5,-354.22 378.5,-341.9 378.5,-332.59"/>
<polygon fill="midnightblue" stroke="midnightblue" points="375,-364.73 378.5,-374.73 382,-364.73 375,-364.73"/>
</g>
<!-- Node18 -->
<g id="node18" class="node">
<title>Node18</title>
<g id="a_node18"><a xlink:href="historical__state_8cpp.html" target="_top" xlink:title=" ">
<polygon fill="white" stroke="black" points="129,-235.5 129,-265.5 244,-265.5 244,-235.5 129,-235.5"/>
<text text-anchor="start" x="137" y="-253.5" font-family="Helvetica,sans-Serif" font-size="10.00">src/apps/js_v8/tmpl</text>
<text text-anchor="middle" x="186.5" y="-242.5" font-family="Helvetica,sans-Serif" font-size="10.00">/historical_state.cpp</text>
</a>
</g>
</g>
<!-- Node17&#45;&gt;Node18 -->
<g id="edge23" class="edge">
<title>Node17&#45;&gt;Node18</title>
<path fill="none" stroke="midnightblue" d="M142.01,-295.31C151.91,-285.56 163.39,-274.26 172.21,-265.58"/>
<polygon fill="midnightblue" stroke="midnightblue" points="139.49,-292.89 134.82,-302.4 144.4,-297.87 139.49,-292.89"/>
</g>
<!-- Node19 -->
<g id="node19" class="node">
<title>Node19</title>
<g id="a_node19"><a xlink:href="receipt_8cpp.html" target="_top" xlink:title=" ">
<polygon fill="white" stroke="black" points="0,-235.5 0,-265.5 111,-265.5 111,-235.5 0,-235.5"/>
<text text-anchor="start" x="8" y="-253.5" font-family="Helvetica,sans-Serif" font-size="10.00">src/apps/js_v8/tmpl</text>
<text text-anchor="middle" x="55.5" y="-242.5" font-family="Helvetica,sans-Serif" font-size="10.00">/receipt.cpp</text>
</a>
</g>
</g>
<!-- Node17&#45;&gt;Node19 -->
<g id="edge24" class="edge">
<title>Node17&#45;&gt;Node19</title>
<path fill="none" stroke="midnightblue" d="M99.31,-295.31C89.56,-285.56 78.26,-274.26 69.58,-265.58"/>
<polygon fill="midnightblue" stroke="midnightblue" points="96.85,-297.8 106.4,-302.4 101.8,-292.85 96.85,-297.8"/>
</g>
<!-- Node21&#45;&gt;Node6 -->
<g id="edge29" class="edge">
<title>Node21&#45;&gt;Node6</title>
<path fill="none" stroke="midnightblue" d="M1391.29,-364.9C1387,-345.99 1377.49,-317.36 1357.5,-302 1280.68,-242.96 1230.76,-305.96 1142.5,-266 1122.64,-257.01 1124,-244.74 1104.5,-235 1066.94,-216.23 1021.02,-204.95 984.7,-198.38"/>
<polygon fill="midnightblue" stroke="midnightblue" points="1387.91,-365.84 1393.29,-374.97 1394.78,-364.48 1387.91,-365.84"/>
</g>
<!-- Node22 -->
<g id="node22" class="node">
<title>Node22</title>
<g id="a_node22"><a xlink:href="member__frontend_8h.html" target="_top" xlink:title=" ">
<polygon fill="white" stroke="black" points="1151.5,-235.5 1151.5,-265.5 1271.5,-265.5 1271.5,-235.5 1151.5,-235.5"/>
<text text-anchor="start" x="1159.5" y="-253.5" font-family="Helvetica,sans-Serif" font-size="10.00">src/node/rpc/member</text>
<text text-anchor="middle" x="1211.5" y="-242.5" font-family="Helvetica,sans-Serif" font-size="10.00">_frontend.h</text>
</a>
</g>
</g>
<!-- Node21&#45;&gt;Node22 -->
<g id="edge30" class="edge">
<title>Node21&#45;&gt;Node22</title>
<path fill="none" stroke="midnightblue" d="M1399.26,-364.85C1402.68,-346.79 1404.53,-319.62 1390.5,-302 1375.57,-283.24 1317.73,-269.26 1271.78,-260.81"/>
<polygon fill="midnightblue" stroke="midnightblue" points="1395.81,-364.23 1397.05,-374.76 1402.64,-365.75 1395.81,-364.23"/>
</g>
<!-- Node23 -->
<g id="node23" class="node">
<title>Node23</title>
<g id="a_node23"><a xlink:href="node__frontend_8h.html" target="_top" xlink:title=" ">
<polygon fill="white" stroke="black" points="1190.5,-308 1190.5,-327 1348.5,-327 1348.5,-308 1190.5,-308"/>
<text text-anchor="middle" x="1269.5" y="-315" font-family="Helvetica,sans-Serif" font-size="10.00">src/node/rpc/node_frontend.h</text>
</a>
</g>
</g>
<!-- Node21&#45;&gt;Node23 -->
<g id="edge32" class="edge">
<title>Node21&#45;&gt;Node23</title>
<path fill="none" stroke="midnightblue" d="M1368.74,-370.1C1343.98,-357.23 1307.31,-338.16 1286.17,-327.17"/>
<polygon fill="midnightblue" stroke="midnightblue" points="1367.41,-373.36 1377.9,-374.87 1370.64,-367.15 1367.41,-373.36"/>
</g>
<!-- Node25 -->
<g id="node25" class="node">
<title>Node25</title>
<g id="a_node25"><a xlink:href="user__frontend_8h.html" target="_top" xlink:title=" ">
<polygon fill="white" stroke="black" points="2227,-308 2227,-327 2382,-327 2382,-308 2227,-308"/>
<text text-anchor="middle" x="2304.5" y="-315" font-family="Helvetica,sans-Serif" font-size="10.00">src/node/rpc/user_frontend.h</text>
</a>
</g>
</g>
<!-- Node21&#45;&gt;Node25 -->
<g id="edge36" class="edge">
<title>Node21&#45;&gt;Node25</title>
<path fill="none" stroke="midnightblue" d="M1469.16,-381.26C1613.24,-376.4 1939.53,-362.87 2212.5,-333 2226.64,-331.45 2241.94,-329.26 2255.91,-327.04"/>
<polygon fill="midnightblue" stroke="midnightblue" points="1468.98,-377.76 1459.1,-381.59 1469.21,-384.76 1468.98,-377.76"/>
</g>
<!-- Node22&#45;&gt;Node7 -->
<g id="edge31" class="edge">
<title>Node22&#45;&gt;Node7</title>
<path fill="none" stroke="midnightblue" d="M1211.5,-225.27C1211.5,-184.19 1211.5,-102.69 1211.5,-75.82"/>
<polygon fill="midnightblue" stroke="midnightblue" points="1208,-225.48 1211.5,-235.48 1215,-225.48 1208,-225.48"/>
</g>
<!-- Node23&#45;&gt;Node7 -->
<g id="edge33" class="edge">
<title>Node23&#45;&gt;Node7</title>
<path fill="none" stroke="midnightblue" d="M1275.49,-297.86C1279.99,-281.28 1284.72,-256.4 1280.5,-235 1267.8,-170.66 1230.19,-99.97 1216.53,-75.72"/>
<polygon fill="midnightblue" stroke="midnightblue" points="1272,-297.3 1272.52,-307.88 1278.71,-299.29 1272,-297.3"/>
</g>
<!-- Node24 -->
<g id="node24" class="node">
<title>Node24</title>
<g id="a_node24"><a xlink:href="jwt__key__auto__refresh_8h.html" target="_top" xlink:title=" ">
<polygon fill="white" stroke="black" points="970,-235.5 970,-265.5 1095,-265.5 1095,-235.5 970,-235.5"/>
<text text-anchor="start" x="978" y="-253.5" font-family="Helvetica,sans-Serif" font-size="10.00">src/node/jwt_key_auto</text>
<text text-anchor="middle" x="1032.5" y="-242.5" font-family="Helvetica,sans-Serif" font-size="10.00">_refresh.h</text>
</a>
</g>
</g>
<!-- Node23&#45;&gt;Node24 -->
<g id="edge34" class="edge">
<title>Node23&#45;&gt;Node24</title>
<path fill="none" stroke="midnightblue" d="M1228.29,-305.2C1188.12,-294.18 1126.91,-277.39 1083.65,-265.53"/>
<polygon fill="midnightblue" stroke="midnightblue" points="1227.46,-308.6 1238.03,-307.87 1229.31,-301.85 1227.46,-308.6"/>
</g>
<!-- Node24&#45;&gt;Node6 -->
<g id="edge35" class="edge">
<title>Node24&#45;&gt;Node6</title>
<path fill="none" stroke="midnightblue" d="M997.38,-230.51C977.61,-219.81 953.88,-206.97 938.51,-198.66"/>
<polygon fill="midnightblue" stroke="midnightblue" points="995.97,-233.72 1006.43,-235.4 999.3,-227.56 995.97,-233.72"/>
</g>
<!-- Node25&#45;&gt;Node7 -->
<g id="edge37" class="edge">
<title>Node25&#45;&gt;Node7</title>
<path fill="none" stroke="midnightblue" d="M2304.07,-297.95C2302,-256.54 2290.59,-156.7 2229.5,-112 2190.8,-83.68 1487.06,-71.05 1272.85,-67.85"/>
<polygon fill="midnightblue" stroke="midnightblue" points="2300.57,-298.12 2304.44,-307.98 2307.57,-297.86 2300.57,-298.12"/>
</g>
<!-- Node27 -->
<g id="node27" class="node">
<title>Node27</title>
<g id="a_node27"><a xlink:href="kv__module__loader_8cpp.html" target="_top" xlink:title=" ">
<polygon fill="white" stroke="black" points="1169,-369.5 1169,-399.5 1312,-399.5 1312,-369.5 1169,-369.5"/>
<text text-anchor="start" x="1177" y="-387.5" font-family="Helvetica,sans-Serif" font-size="10.00">src/apps/js_v8/kv_module</text>
<text text-anchor="middle" x="1240.5" y="-376.5" font-family="Helvetica,sans-Serif" font-size="10.00">_loader.cpp</text>
</a>
</g>
</g>
<!-- Node26&#45;&gt;Node27 -->
<g id="edge39" class="edge">
<title>Node26&#45;&gt;Node27</title>
<path fill="none" stroke="midnightblue" d="M1020.58,-435.48C1068.24,-424.65 1132.13,-410.13 1178.76,-399.53"/>
<polygon fill="midnightblue" stroke="midnightblue" points="1019.64,-432.11 1010.66,-437.74 1021.19,-438.93 1019.64,-432.11"/>
</g>
<!-- Node28 -->
<g id="node28" class="node">
<title>Node28</title>
<g id="a_node28"><a xlink:href="network__state_8h.html" target="_top" xlink:title=" ">
<polygon fill="white" stroke="black" points="1010.5,-375 1010.5,-394 1150.5,-394 1150.5,-375 1010.5,-375"/>
<text text-anchor="middle" x="1080.5" y="-382" font-family="Helvetica,sans-Serif" font-size="10.00">src/node/network_state.h</text>
</a>
</g>
</g>
<!-- Node26&#45;&gt;Node28 -->
<g id="edge40" class="edge">
<title>Node26&#45;&gt;Node28</title>
<path fill="none" stroke="midnightblue" d="M990.74,-431.8C1014.9,-419.34 1045.5,-403.56 1064.01,-394.01"/>
<polygon fill="midnightblue" stroke="midnightblue" points="989.12,-428.7 981.84,-436.4 992.33,-434.92 989.12,-428.7"/>
</g>
<!-- Node39 -->
<g id="node39" class="node">
<title>Node39</title>
<g id="a_node39"><a xlink:href="genesis__gen_8h.html" target="_top" xlink:title=" ">
<polygon fill="white" stroke="black" points="882.5,-369.5 882.5,-399.5 992.5,-399.5 992.5,-369.5 882.5,-369.5"/>
<text text-anchor="start" x="890.5" y="-387.5" font-family="Helvetica,sans-Serif" font-size="10.00">src/service/genesis</text>
<text text-anchor="middle" x="937.5" y="-376.5" font-family="Helvetica,sans-Serif" font-size="10.00">_gen.h</text>
</a>
</g>
</g>
<!-- Node26&#45;&gt;Node39 -->
<g id="edge66" class="edge">
<title>Node26&#45;&gt;Node39</title>
<path fill="none" stroke="midnightblue" d="M948.27,-426.7C945.89,-417.59 943.25,-407.49 941.18,-399.58"/>
<polygon fill="midnightblue" stroke="midnightblue" points="944.89,-427.61 950.81,-436.4 951.67,-425.84 944.89,-427.61"/>
</g>
<!-- Node28&#45;&gt;Node6 -->
<g id="edge57" class="edge">
<title>Node28&#45;&gt;Node6</title>
<path fill="none" stroke="midnightblue" d="M1093.77,-366.74C1106.06,-349.03 1120.39,-321.07 1105.5,-302 1064.9,-250 1013.17,-307.01 961.5,-266 939.2,-248.3 928.41,-214.4 924.41,-198.56"/>
<polygon fill="midnightblue" stroke="midnightblue" points="1090.81,-364.84 1087.69,-374.97 1096.44,-369 1090.81,-364.84"/>
</g>
<!-- Node28&#45;&gt;Node7 -->
<g id="edge41" class="edge">
<title>Node28&#45;&gt;Node7</title>
<path fill="none" stroke="midnightblue" d="M1132.6,-373.18C1141.87,-371.59 1151.45,-370.12 1160.5,-369 1275.31,-354.85 2120.43,-353.15 2196.5,-266 2322.55,-121.58 1506.4,-78.47 1272.74,-69.15"/>
<polygon fill="midnightblue" stroke="midnightblue" points="1131.95,-369.74 1122.71,-374.93 1133.17,-376.63 1131.95,-369.74"/>
</g>
<!-- Node28&#45;&gt;Node15 -->
<g id="edge65" class="edge">
<title>Node28&#45;&gt;Node15</title>
<path fill="none" stroke="midnightblue" d="M1038.62,-372.02C1010.45,-363.39 973.02,-350.12 942.5,-333 923.19,-322.17 923.12,-312.26 903.5,-302 864.1,-281.4 814.99,-267.87 780.07,-260.05"/>
<polygon fill="midnightblue" stroke="midnightblue" points="1037.97,-375.48 1048.55,-374.99 1039.98,-368.77 1037.97,-375.48"/>
</g>
<!-- Node28&#45;&gt;Node23 -->
<g id="edge58" class="edge">
<title>Node28&#45;&gt;Node23</title>
<path fill="none" stroke="midnightblue" d="M1115.1,-371.6C1152.57,-358.71 1211.43,-338.47 1244.6,-327.06"/>
<polygon fill="midnightblue" stroke="midnightblue" points="1113.92,-368.31 1105.6,-374.87 1116.19,-374.93 1113.92,-368.31"/>
</g>
<!-- Node28&#45;&gt;Node25 -->
<g id="edge59" class="edge">
<title>Node28&#45;&gt;Node25</title>
<path fill="none" stroke="midnightblue" d="M1131,-373.2C1140.75,-371.54 1150.92,-370.03 1160.5,-369 1625.67,-319.15 1746.79,-377.5 2212.5,-333 2227.15,-331.6 2243.01,-329.36 2257.36,-327.06"/>
<polygon fill="midnightblue" stroke="midnightblue" points="1130.26,-369.78 1121.03,-374.98 1131.49,-376.67 1130.26,-369.78"/>
</g>
<!-- Node29 -->
<g id="node29" class="node">
<title>Node29</title>
<g id="a_node29"><a xlink:href="wrap_8h.html" target="_top" xlink:title=" ">
<polygon fill="white" stroke="black" points="1618.5,-308 1618.5,-327 1696.5,-327 1696.5,-308 1618.5,-308"/>
<text text-anchor="middle" x="1657.5" y="-315" font-family="Helvetica,sans-Serif" font-size="10.00">src/js/wrap.h</text>
</a>
</g>
</g>
<!-- Node28&#45;&gt;Node29 -->
<g id="edge42" class="edge">
<title>Node28&#45;&gt;Node29</title>
<path fill="none" stroke="midnightblue" d="M1133.87,-373.23C1142.75,-371.69 1151.87,-370.22 1160.5,-369 1330.32,-345.02 1534.34,-327.95 1618.39,-321.43"/>
<polygon fill="midnightblue" stroke="midnightblue" points="1133.23,-369.79 1124,-374.98 1134.45,-376.68 1133.23,-369.79"/>
</g>
<!-- Node37 -->
<g id="node37" class="node">
<title>Node37</title>
<g id="a_node37"><a xlink:href="secret__broadcast_8h.html" target="_top" xlink:title=" ">
<polygon fill="white" stroke="black" points="741,-308 741,-327 894,-327 894,-308 741,-308"/>
<text text-anchor="middle" x="817.5" y="-315" font-family="Helvetica,sans-Serif" font-size="10.00">src/node/secret_broadcast.h</text>
</a>
</g>
</g>
<!-- Node28&#45;&gt;Node37 -->
<g id="edge60" class="edge">
<title>Node28&#45;&gt;Node37</title>
<path fill="none" stroke="midnightblue" d="M1035.93,-372.48C984.05,-359.66 899.48,-338.76 852.23,-327.08"/>
<polygon fill="midnightblue" stroke="midnightblue" points="1035.3,-375.93 1045.85,-374.94 1036.98,-369.14 1035.3,-375.93"/>
</g>
<!-- Node38 -->
<g id="node38" class="node">
<title>Node38</title>
<g id="a_node38"><a xlink:href="share__manager_8h.html" target="_top" xlink:title=" ">
<polygon fill="white" stroke="black" points="951,-308 951,-327 1096,-327 1096,-308 951,-308"/>
<text text-anchor="middle" x="1023.5" y="-315" font-family="Helvetica,sans-Serif" font-size="10.00">src/node/share_manager.h</text>
</a>
</g>
</g>
<!-- Node28&#45;&gt;Node38 -->
<g id="edge62" class="edge">
<title>Node28&#45;&gt;Node38</title>
<path fill="none" stroke="midnightblue" d="M1066.15,-367.13C1055,-354.42 1039.98,-337.3 1031.07,-327.13"/>
<polygon fill="midnightblue" stroke="midnightblue" points="1063.59,-369.52 1072.81,-374.73 1068.85,-364.91 1063.59,-369.52"/>
</g>
<!-- Node29&#45;&gt;Node6 -->
<g id="edge55" class="edge">
<title>Node29&#45;&gt;Node6</title>
<path fill="none" stroke="midnightblue" d="M1608.42,-311.64C1548.22,-304.91 1443.47,-290.7 1356.5,-266 1321.41,-256.03 1315.79,-244.24 1280.5,-235 1178.85,-208.37 1056.7,-197.32 984.56,-192.86"/>
<polygon fill="midnightblue" stroke="midnightblue" points="1608.09,-315.12 1618.41,-312.73 1608.85,-308.17 1608.09,-315.12"/>
</g>
<!-- Node29&#45;&gt;Node7 -->
<g id="edge44" class="edge">
<title>Node29&#45;&gt;Node7</title>
<path fill="none" stroke="midnightblue" d="M1657.88,-297.54C1657.24,-279.43 1653.53,-252.4 1638.5,-235 1543.2,-124.68 1365.95,-86.24 1272.61,-73.28"/>
<polygon fill="midnightblue" stroke="midnightblue" points="1654.38,-297.75 1657.95,-307.72 1661.38,-297.7 1654.38,-297.75"/>
</g>
<!-- Node29&#45;&gt;Node22 -->
<g id="edge56" class="edge">
<title>Node29&#45;&gt;Node22</title>
<path fill="none" stroke="midnightblue" d="M1608.22,-309.32C1525.93,-297.33 1360.82,-273.26 1271.75,-260.28"/>
<polygon fill="midnightblue" stroke="midnightblue" points="1607.91,-312.81 1618.31,-310.79 1608.92,-305.88 1607.91,-312.81"/>
</g>
<!-- Node30 -->
<g id="node30" class="node">
<title>Node30</title>
<g id="a_node30"><a xlink:href="js__generic__base_8cpp.html" target="_top" xlink:title=" ">
<polygon fill="white" stroke="black" points="1511.5,-235.5 1511.5,-265.5 1629.5,-265.5 1629.5,-235.5 1511.5,-235.5"/>
<text text-anchor="start" x="1519.5" y="-253.5" font-family="Helvetica,sans-Serif" font-size="10.00">src/apps/js_generic</text>
<text text-anchor="middle" x="1570.5" y="-242.5" font-family="Helvetica,sans-Serif" font-size="10.00">/js_generic_base.cpp</text>
</a>
</g>
</g>
<!-- Node29&#45;&gt;Node30 -->
<g id="edge43" class="edge">
<title>Node29&#45;&gt;Node30</title>
<path fill="none" stroke="midnightblue" d="M1637.48,-301.54C1623,-290.73 1603.56,-276.2 1589.36,-265.59"/>
<polygon fill="midnightblue" stroke="midnightblue" points="1635.66,-304.55 1645.77,-307.73 1639.85,-298.94 1635.66,-304.55"/>
</g>
<!-- Node31 -->
<g id="node31" class="node">
<title>Node31</title>
<g id="a_node31"><a xlink:href="js_2consensus_8cpp.html" target="_top" xlink:title=" ">
<polygon fill="white" stroke="black" points="1723.5,-241 1723.5,-260 1839.5,-260 1839.5,-241 1723.5,-241"/>
<text text-anchor="middle" x="1781.5" y="-248" font-family="Helvetica,sans-Serif" font-size="10.00">src/js/consensus.cpp</text>
</a>
</g>
</g>
<!-- Node29&#45;&gt;Node31 -->
<g id="edge45" class="edge">
<title>Node29&#45;&gt;Node31</title>
<path fill="none" stroke="midnightblue" d="M1683.06,-303.1C1707.61,-290.23 1743.99,-271.16 1764.97,-260.17"/>
<polygon fill="midnightblue" stroke="midnightblue" points="1681.2,-300.13 1673.97,-307.87 1684.45,-306.33 1681.2,-300.13"/>
</g>
<!-- Node32 -->
<g id="node32" class="node">
<title>Node32</title>
<g id="a_node32"><a xlink:href="wrap_8cpp.html" target="_top" xlink:title=" ">
<polygon fill="white" stroke="black" points="1857,-179.5 1857,-198.5 1946,-198.5 1946,-179.5 1857,-179.5"/>
<text text-anchor="middle" x="1901.5" y="-186.5" font-family="Helvetica,sans-Serif" font-size="10.00">src/js/wrap.cpp</text>
</a>
</g>
</g>
<!-- Node29&#45;&gt;Node32 -->
<g id="edge54" class="edge">
<title>Node29&#45;&gt;Node32</title>
<path fill="none" stroke="midnightblue" d="M1665.28,-298.56C1674.35,-279.8 1691.15,-250.92 1714.5,-235 1757.13,-205.94 1816.41,-195.57 1856.72,-191.91"/>
<polygon fill="midnightblue" stroke="midnightblue" points="1662.03,-297.25 1661.04,-307.79 1668.39,-300.17 1662.03,-297.25"/>
</g>
<!-- Node33 -->
<g id="node33" class="node">
<title>Node33</title>
<g id="a_node33"><a xlink:href="conv_8cpp.html" target="_top" xlink:title=" ">
<polygon fill="white" stroke="black" points="1857.5,-241 1857.5,-260 1945.5,-260 1945.5,-241 1857.5,-241"/>
<text text-anchor="middle" x="1901.5" y="-248" font-family="Helvetica,sans-Serif" font-size="10.00">src/js/conv.cpp</text>
</a>
</g>
</g>
<!-- Node29&#45;&gt;Node33 -->
<g id="edge47" class="edge">
<title>Node29&#45;&gt;Node33</title>
<path fill="none" stroke="midnightblue" d="M1700.19,-305.32C1738.92,-295.16 1797.57,-279.7 1848.5,-266 1855.59,-264.09 1863.21,-262.02 1870.4,-260.06"/>
<polygon fill="midnightblue" stroke="midnightblue" points="1699.09,-301.99 1690.31,-307.92 1700.87,-308.77 1699.09,-301.99"/>
</g>
<!-- Node34 -->
<g id="node34" class="node">
<title>Node34</title>
<g id="a_node34"><a xlink:href="js_2crypto_8cpp.html" target="_top" xlink:title=" ">
<polygon fill="white" stroke="black" points="1963.5,-241 1963.5,-260 2059.5,-260 2059.5,-241 1963.5,-241"/>
<text text-anchor="middle" x="2011.5" y="-248" font-family="Helvetica,sans-Serif" font-size="10.00">src/js/crypto.cpp</text>
</a>
</g>
</g>
<!-- Node29&#45;&gt;Node34 -->
<g id="edge49" class="edge">
<title>Node29&#45;&gt;Node34</title>
<path fill="none" stroke="midnightblue" d="M1706.78,-309.37C1765.89,-300.52 1867.86,-284.36 1954.5,-266 1962.79,-264.24 1971.7,-262.1 1979.95,-260.01"/>
<polygon fill="midnightblue" stroke="midnightblue" points="1705.99,-305.95 1696.61,-310.88 1707.02,-312.87 1705.99,-305.95"/>
</g>
<!-- Node35 -->
<g id="node35" class="node">
<title>Node35</title>
<g id="a_node35"><a xlink:href="js_2historical_8cpp.html" target="_top" xlink:title=" ">
<polygon fill="white" stroke="black" points="2077.5,-241 2077.5,-260 2187.5,-260 2187.5,-241 2077.5,-241"/>
<text text-anchor="middle" x="2132.5" y="-248" font-family="Helvetica,sans-Serif" font-size="10.00">src/js/historical.cpp</text>
</a>
</g>
</g>
<!-- Node29&#45;&gt;Node35 -->
<g id="edge51" class="edge">
<title>Node29&#45;&gt;Node35</title>
<path fill="none" stroke="midnightblue" d="M1706.91,-312.05C1784.33,-304.71 1938.8,-288.6 2068.5,-266 2078.04,-264.34 2088.3,-262.18 2097.75,-260.04"/>
<polygon fill="midnightblue" stroke="midnightblue" points="1706.14,-308.61 1696.51,-313.03 1706.79,-315.58 1706.14,-308.61"/>
</g>
<!-- Node36 -->
<g id="node36" class="node">
<title>Node36</title>
<g id="a_node36"><a xlink:href="openenclave_8cpp.html" target="_top" xlink:title=" ">
<polygon fill="white" stroke="black" points="1365.5,-241 1365.5,-260 1493.5,-260 1493.5,-241 1365.5,-241"/>
<text text-anchor="middle" x="1429.5" y="-248" font-family="Helvetica,sans-Serif" font-size="10.00">src/js/openenclave.cpp</text>
</a>
</g>
</g>
<!-- Node29&#45;&gt;Node36 -->
<g id="edge53" class="edge">
<title>Node29&#45;&gt;Node36</title>
<path fill="none" stroke="midnightblue" d="M1617.48,-305.09C1572.38,-292.23 1500.07,-271.62 1459.54,-260.06"/>
<polygon fill="midnightblue" stroke="midnightblue" points="1616.65,-308.49 1627.22,-307.87 1618.57,-301.76 1616.65,-308.49"/>
</g>
<!-- Node31&#45;&gt;Node32 -->
<g id="edge46" class="edge">
<title>Node31&#45;&gt;Node32</title>
<path fill="none" stroke="midnightblue" d="M1807.68,-236.52C1830.95,-224.98 1864.3,-208.44 1884.34,-198.51"/>
<polygon fill="midnightblue" stroke="midnightblue" points="1806.1,-233.4 1798.69,-240.98 1809.21,-239.67 1806.1,-233.4"/>
</g>
<!-- Node33&#45;&gt;Node32 -->
<g id="edge48" class="edge">
<title>Node33&#45;&gt;Node32</title>
<path fill="none" stroke="midnightblue" d="M1901.5,-230.82C1901.5,-220 1901.5,-206.9 1901.5,-198.51"/>
<polygon fill="midnightblue" stroke="midnightblue" points="1898,-230.98 1901.5,-240.98 1905,-230.98 1898,-230.98"/>
</g>
<!-- Node34&#45;&gt;Node32 -->
<g id="edge50" class="edge">
<title>Node34&#45;&gt;Node32</title>
<path fill="none" stroke="midnightblue" d="M1986.93,-236.21C1965.63,-224.69 1935.43,-208.36 1917.23,-198.51"/>
<polygon fill="midnightblue" stroke="midnightblue" points="1985.28,-239.3 1995.74,-240.98 1988.61,-233.14 1985.28,-239.3"/>
</g>
<!-- Node35&#45;&gt;Node32 -->
<g id="edge52" class="edge">
<title>Node35&#45;&gt;Node32</title>
<path fill="none" stroke="midnightblue" d="M2089.67,-238.47C2044.82,-226.91 1975.33,-209.02 1934.54,-198.51"/>
<polygon fill="midnightblue" stroke="midnightblue" points="2088.85,-241.87 2099.4,-240.98 2090.59,-235.09 2088.85,-241.87"/>
</g>
<!-- Node37&#45;&gt;Node6 -->
<g id="edge61" class="edge">
<title>Node37&#45;&gt;Node6</title>
<path fill="none" stroke="midnightblue" d="M831.22,-299.97C853.76,-272.82 897.87,-219.67 915.23,-198.76"/>
<polygon fill="midnightblue" stroke="midnightblue" points="828.41,-297.88 824.72,-307.81 833.8,-302.35 828.41,-297.88"/>
</g>
<!-- Node38&#45;&gt;Node6 -->
<g id="edge63" class="edge">
<title>Node38&#45;&gt;Node6</title>
<path fill="none" stroke="midnightblue" d="M980.04,-304.38C960.66,-296.65 939.52,-284.51 927.5,-266 913.96,-245.15 917.61,-213.94 920.5,-198.83"/>
<polygon fill="midnightblue" stroke="midnightblue" points="979.07,-307.76 989.67,-307.93 981.49,-301.19 979.07,-307.76"/>
</g>
<!-- Node38&#45;&gt;Node22 -->
<g id="edge64" class="edge">
<title>Node38&#45;&gt;Node22</title>
<path fill="none" stroke="midnightblue" d="M1058.24,-304.49C1090.11,-293.47 1137.33,-277.14 1170.93,-265.53"/>
<polygon fill="midnightblue" stroke="midnightblue" points="1056.77,-301.29 1048.46,-307.87 1059.06,-307.91 1056.77,-301.29"/>
</g>
<!-- Node39&#45;&gt;Node6 -->
<g id="edge67" class="edge">
<title>Node39&#45;&gt;Node6</title>
<path fill="none" stroke="midnightblue" d="M872.13,-376.23C818.55,-368.77 748.82,-355.08 731.5,-333 723,-322.16 724.13,-313.64 731.5,-302 751.49,-270.42 774.94,-284.35 807.5,-266 827.93,-254.49 884.49,-216.05 909.88,-198.67"/>
<polygon fill="midnightblue" stroke="midnightblue" points="871.89,-379.73 882.27,-377.6 872.83,-372.8 871.89,-379.73"/>
</g>
<!-- Node39&#45;&gt;Node22 -->
<g id="edge68" class="edge">
<title>Node39&#45;&gt;Node22</title>
<path fill="none" stroke="midnightblue" d="M1001.51,-366.84C1040.82,-356.11 1087.07,-342.45 1105.5,-333 1141.44,-314.57 1177.5,-283.54 1196.9,-265.56"/>
<polygon fill="midnightblue" stroke="midnightblue" points="1000.42,-363.51 991.68,-369.5 1002.25,-370.26 1000.42,-363.51"/>
</g>
<!-- Node39&#45;&gt;Node23 -->
<g id="edge69" class="edge">
<title>Node39&#45;&gt;Node23</title>
<path fill="none" stroke="midnightblue" d="M1002.43,-368.85C1084.99,-351.84 1169.8,-336.27 1221.47,-327"/>
<polygon fill="midnightblue" stroke="midnightblue" points="1001.71,-365.42 992.63,-370.88 1003.13,-372.28 1001.71,-365.42"/>
</g>
<!-- Node39&#45;&gt;Node37 -->
<g id="edge70" class="edge">
<title>Node39&#45;&gt;Node37</title>
<path fill="none" stroke="midnightblue" d="M902.37,-364.47C879.46,-352.06 850.68,-336.47 833.21,-327.01"/>
<polygon fill="midnightblue" stroke="midnightblue" points="901,-367.71 911.46,-369.4 904.34,-361.56 901,-367.71"/>
</g>
<!-- Node39&#45;&gt;Node38 -->
<g id="edge71" class="edge">
<title>Node39&#45;&gt;Node38</title>
<path fill="none" stroke="midnightblue" d="M964.17,-363.34C980.22,-351.21 999.83,-336.39 1012,-327.19"/>
<polygon fill="midnightblue" stroke="midnightblue" points="962.03,-360.57 956.16,-369.4 966.25,-366.16 962.03,-360.57"/>
</g>
</g>
</svg>
        <g id="navigator" transform="translate(0 0)" fill="#404254">
                <rect fill="#f2f5e9" fill-opacity="0.5" stroke="#606060" stroke-width=".5" x="0" y="0" width="60" height="60"/>
                <use id="zoomplus" xlink:href="#zoomPlus" x="17" y="9" onmousedown="handleZoom(evt,'in')"/>
                <use id="zoomminus" xlink:href="#zoomMin" x="42" y="9" onmousedown="handleZoom(evt,'out')"/>
                <use id="reset" xlink:href="#resetDef" x="30" y="36" onmousedown="handleReset()"/>
                <g id="arrowUp" xlink:href="#dirArrow" transform="translate(30 24)" onmousedown="handlePan(0,-1)">
                  <use xlink:href="#rim" fill="#404040">
                        <set attributeName="fill" to="#808080" begin="arrowUp.mouseover" end="arrowUp.mouseout"/>
                  </use>
                  <path fill="none" stroke="white" stroke-width="1.5" d="M0,-3.0v7 M-2.5,-0.5L0,-3.0L2.5,-0.5"/>
                </g>
                <g id="arrowRight" xlink:href="#dirArrow" transform="rotate(90) translate(36 -43)" onmousedown="handlePan(1,0)">
                  <use xlink:href="#rim" fill="#404040">
                        <set attributeName="fill" to="#808080" begin="arrowRight.mouseover" end="arrowRight.mouseout"/>
                  </use>
                  <path fill="none" stroke="white" stroke-width="1.5" d="M0,-3.0v7 M-2.5,-0.5L0,-3.0L2.5,-0.5"/>
                </g>
                <g id="arrowDown" xlink:href="#dirArrow" transform="rotate(180) translate(-30 -48)" onmousedown="handlePan(0,1)">
                  <use xlink:href="#rim" fill="#404040">
                        <set attributeName="fill" to="#808080" begin="arrowDown.mouseover" end="arrowDown.mouseout"/>
                  </use>
                  <path fill="none" stroke="white" stroke-width="1.5" d="M0,-3.0v7 M-2.5,-0.5L0,-3.0L2.5,-0.5"/>
                </g>
                <g id="arrowLeft" xlink:href="#dirArrow" transform="rotate(270) translate(-36 17)" onmousedown="handlePan(-1,0)">
                  <use xlink:href="#rim" fill="#404040">
                        <set attributeName="fill" to="#808080" begin="arrowLeft.mouseover" end="arrowLeft.mouseout"/>
                  </use>
                  <path fill="none" stroke="white" stroke-width="1.5" d="M0,-3.0v7 M-2.5,-0.5L0,-3.0L2.5,-0.5"/>
                </g>
        </g>
        <svg viewBox="0 0 15 15" width="100%" height="30px" preserveAspectRatio="xMaxYMin meet">
         <g id="arrow_out" transform="scale(0.3 0.3)">
          <a xlink:href="consensus_2aft_2request_8h__dep__incl_org.svg" target="_base">
           <rect id="button" ry="5" rx="5" y="6" x="6" height="38" width="38"
                fill="#f2f5e9" fill-opacity="0.5" stroke="#606060" stroke-width="1.0"/>
           <path id="arrow"
             d="M 11.500037,31.436501 C 11.940474,20.09759 22.043105,11.32322 32.158766,21.979434 L 37.068811,17.246167 C 37.068811,17.246167 37.088388,32 37.088388,32 L 22.160133,31.978069 C 22.160133,31.978069 26.997745,27.140456 26.997745,27.140456 C 18.528582,18.264221 13.291696,25.230495 11.500037,31.436501 z"
             style="fill:#404040;"/>
          </a>
         </g>
        </svg>
</svg>
