<?xml version="1.0" encoding="UTF-8" standalone="no"?>
<!DOCTYPE svg PUBLIC "-//W3C//DTD SVG 1.1//EN"
 "http://www.w3.org/Graphics/SVG/1.1/DTD/svg11.dtd">
<!-- Generated by graphviz version 2.43.0 (0)
 -->
<!-- Title: src/crypto/openssl/hash.h Pages: 1 -->
<svg width="1851pt" height="375pt"
 viewBox="0.00 0.00 1851.00 375.00" xmlns="http://www.w3.org/2000/svg" xmlns:xlink="http://www.w3.org/1999/xlink">
<g id="graph0" class="graph" transform="scale(1 1) rotate(0) translate(4 371)">
<title>src/crypto/openssl/hash.h</title>
<polygon fill="white" stroke="transparent" points="-4,4 -4,-371 1847,-371 1847,4 -4,4"/>
<!-- Node1 -->
<g id="node1" class="node">
<title>Node1</title>
<g id="a_node1"><a xlink:title=" ">
<polygon fill="#bfbfbf" stroke="black" points="1173.5,-336.5 1173.5,-366.5 1278.5,-366.5 1278.5,-336.5 1173.5,-336.5"/>
<text text-anchor="start" x="1181.5" y="-354.5" font-family="Helvetica,sans-Serif" font-size="10.00">src/crypto/openssl</text>
<text text-anchor="middle" x="1226" y="-343.5" font-family="Helvetica,sans-Serif" font-size="10.00">/hash.h</text>
</a>
</g>
</g>
<!-- Node2 -->
<g id="node2" class="node">
<title>Node2</title>
<g id="a_node2"><a xlink:href="hash__provider_8h.html" target="_top" xlink:title=" ">
<polygon fill="white" stroke="black" points="340.5,-280.5 340.5,-299.5 485.5,-299.5 485.5,-280.5 340.5,-280.5"/>
<text text-anchor="middle" x="413" y="-287.5" font-family="Helvetica,sans-Serif" font-size="10.00">ccf/crypto/hash_provider.h</text>
</a>
</g>
</g>
<!-- Node1&#45;&gt;Node2 -->
<g id="edge1" class="edge">
<title>Node1&#45;&gt;Node2</title>
<path fill="none" stroke="midnightblue" d="M1173.28,-346.64C1035.34,-336.55 662.88,-309.29 495.93,-297.07"/>
<polygon fill="midnightblue" stroke="midnightblue" points="495.95,-293.56 485.72,-296.32 495.44,-300.54 495.95,-293.56"/>
</g>
<!-- Node16 -->
<g id="node16" class="node">
<title>Node16</title>
<g id="a_node16"><a xlink:title=" ">
<polygon fill="white" stroke="#bfbfbf" points="558.5,-56.5 558.5,-75.5 637.5,-75.5 637.5,-56.5 558.5,-56.5"/>
<text text-anchor="middle" x="598" y="-63.5" font-family="Helvetica,sans-Serif" font-size="10.00">fmt/format.h</text>
</a>
</g>
</g>
<!-- Node1&#45;&gt;Node16 -->
<g id="edge54" class="edge">
<title>Node1&#45;&gt;Node16</title>
<path fill="none" stroke="midnightblue" d="M1173.43,-349.63C1079.18,-345.88 877.97,-327.82 735,-244 669.1,-205.36 623.62,-121.68 606.06,-84.93"/>
<polygon fill="midnightblue" stroke="midnightblue" points="609.07,-83.1 601.69,-75.5 602.72,-86.05 609.07,-83.1"/>
</g>
<!-- Node23 -->
<g id="node23" class="node">
<title>Node23</title>
<g id="a_node23"><a xlink:href="openssl__wrappers_8h.html" target="_top" xlink:title=" ">
<polygon fill="white" stroke="black" points="1127.5,-280.5 1127.5,-299.5 1240.5,-299.5 1240.5,-280.5 1127.5,-280.5"/>
<text text-anchor="middle" x="1184" y="-287.5" font-family="Helvetica,sans-Serif" font-size="10.00">openssl_wrappers.h</text>
</a>
</g>
</g>
<!-- Node1&#45;&gt;Node23 -->
<g id="edge31" class="edge">
<title>Node1&#45;&gt;Node23</title>
<path fill="none" stroke="midnightblue" d="M1216.05,-336.4C1210.01,-327.84 1202.26,-316.87 1195.9,-307.86"/>
<polygon fill="midnightblue" stroke="midnightblue" points="1198.74,-305.81 1190.11,-299.66 1193.02,-309.85 1198.74,-305.81"/>
</g>
<!-- Node32 -->
<g id="node32" class="node">
<title>Node32</title>
<g id="a_node32"><a xlink:title=" ">
<polygon fill="white" stroke="#bfbfbf" points="1759,-224.5 1759,-243.5 1843,-243.5 1843,-224.5 1759,-224.5"/>
<text text-anchor="middle" x="1801" y="-231.5" font-family="Helvetica,sans-Serif" font-size="10.00">openssl/evp.h</text>
</a>
</g>
</g>
<!-- Node1&#45;&gt;Node32 -->
<g id="edge51" class="edge">
<title>Node1&#45;&gt;Node32</title>
<path fill="none" stroke="midnightblue" d="M1233.9,-336.46C1244.19,-319.73 1263.85,-292.45 1289,-280 1378.39,-235.74 1632.57,-255.68 1748.62,-243.93"/>
<polygon fill="midnightblue" stroke="midnightblue" points="1749.21,-247.39 1758.75,-242.78 1748.42,-240.44 1749.21,-247.39"/>
</g>
<!-- Node37 -->
<g id="node37" class="node">
<title>Node37</title>
<g id="a_node37"><a xlink:title=" ">
<polygon fill="white" stroke="#bfbfbf" points="1297.5,-280.5 1297.5,-299.5 1378.5,-299.5 1378.5,-280.5 1297.5,-280.5"/>
<text text-anchor="middle" x="1338" y="-287.5" font-family="Helvetica,sans-Serif" font-size="10.00">openssl/kdf.h</text>
</a>
</g>
</g>
<!-- Node1&#45;&gt;Node37 -->
<g id="edge52" class="edge">
<title>Node1&#45;&gt;Node37</title>
<path fill="none" stroke="midnightblue" d="M1252.54,-336.4C1270.66,-326.77 1294.54,-314.09 1312.44,-304.58"/>
<polygon fill="midnightblue" stroke="midnightblue" points="1314.51,-307.44 1321.7,-299.66 1311.23,-301.26 1314.51,-307.44"/>
</g>
<!-- Node38 -->
<g id="node38" class="node">
<title>Node38</title>
<g id="a_node38"><a xlink:title=" ">
<polygon fill="white" stroke="#bfbfbf" points="1396.5,-280.5 1396.5,-299.5 1479.5,-299.5 1479.5,-280.5 1396.5,-280.5"/>
<text text-anchor="middle" x="1438" y="-287.5" font-family="Helvetica,sans-Serif" font-size="10.00">openssl/sha.h</text>
</a>
</g>
</g>
<!-- Node1&#45;&gt;Node38 -->
<g id="edge53" class="edge">
<title>Node1&#45;&gt;Node38</title>
<path fill="none" stroke="midnightblue" d="M1275.97,-336.47C1313.19,-326.03 1363.33,-311.96 1397.93,-302.25"/>
<polygon fill="midnightblue" stroke="midnightblue" points="1399.01,-305.58 1407.69,-299.51 1397.12,-298.84 1399.01,-305.58"/>
</g>
<!-- Node3 -->
<g id="node3" class="node">
<title>Node3</title>
<g id="a_node3"><a xlink:href="hash__bytes_8h.html" target="_top" xlink:title=" ">
<polygon fill="white" stroke="black" points="645,-112.5 645,-131.5 777,-131.5 777,-112.5 645,-112.5"/>
<text text-anchor="middle" x="711" y="-119.5" font-family="Helvetica,sans-Serif" font-size="10.00">ccf/crypto/hash_bytes.h</text>
</a>
</g>
</g>
<!-- Node2&#45;&gt;Node3 -->
<g id="edge2" class="edge">
<title>Node2&#45;&gt;Node3</title>
<path fill="none" stroke="midnightblue" d="M485.07,-280.5C539.99,-272.89 610.13,-260.42 634,-244 653.45,-230.63 686.32,-170.71 702.06,-140.51"/>
<polygon fill="midnightblue" stroke="midnightblue" points="705.23,-142.01 706.71,-131.52 699.01,-138.8 705.23,-142.01"/>
</g>
<!-- Node4 -->
<g id="node4" class="node">
<title>Node4</title>
<g id="a_node4"><a xlink:title=" ">
<polygon fill="white" stroke="#bfbfbf" points="396.5,-0.5 396.5,-19.5 443.5,-19.5 443.5,-0.5 396.5,-0.5"/>
<text text-anchor="middle" x="420" y="-7.5" font-family="Helvetica,sans-Serif" font-size="10.00">vector</text>
</a>
</g>
</g>
<!-- Node2&#45;&gt;Node4 -->
<g id="edge30" class="edge">
<title>Node2&#45;&gt;Node4</title>
<path fill="none" stroke="midnightblue" d="M340.43,-283.75C313.9,-277.89 286.4,-266.35 270,-244 239.75,-202.76 64,-336.85 291,-56 297.25,-48.26 350.69,-31.35 386.8,-20.6"/>
<polygon fill="midnightblue" stroke="midnightblue" points="387.87,-23.93 396.47,-17.75 385.89,-17.22 387.87,-23.93"/>
</g>
<!-- Node5 -->
<g id="node5" class="node">
<title>Node5</title>
<g id="a_node5"><a xlink:href="md__type_8h.html" target="_top" xlink:title=" ">
<polygon fill="white" stroke="black" points="279.5,-224.5 279.5,-243.5 398.5,-243.5 398.5,-224.5 279.5,-224.5"/>
<text text-anchor="middle" x="339" y="-231.5" font-family="Helvetica,sans-Serif" font-size="10.00">ccf/crypto/md_type.h</text>
</a>
</g>
</g>
<!-- Node2&#45;&gt;Node5 -->
<g id="edge4" class="edge">
<title>Node2&#45;&gt;Node5</title>
<path fill="none" stroke="midnightblue" d="M401.11,-280.32C389.85,-272.11 372.71,-259.6 359.29,-249.81"/>
<polygon fill="midnightblue" stroke="midnightblue" points="361.25,-246.9 351.11,-243.83 357.12,-252.56 361.25,-246.9"/>
</g>
<!-- Node12 -->
<g id="node12" class="node">
<title>Node12</title>
<g id="a_node12"><a xlink:title=" ">
<polygon fill="white" stroke="#bfbfbf" points="37,-0.5 37,-19.5 79,-19.5 79,-0.5 37,-0.5"/>
<text text-anchor="middle" x="58" y="-7.5" font-family="Helvetica,sans-Serif" font-size="10.00">array</text>
</a>
</g>
</g>
<!-- Node2&#45;&gt;Node12 -->
<g id="edge27" class="edge">
<title>Node2&#45;&gt;Node12</title>
<path fill="none" stroke="midnightblue" d="M340.29,-284.22C291.29,-278.9 226.15,-267.68 173,-244 129.56,-224.65 88,-226.56 88,-179 88,-179 88,-179 88,-121 88,-87.64 75,-50.53 66.11,-29.07"/>
<polygon fill="midnightblue" stroke="midnightblue" points="69.22,-27.42 62.05,-19.62 62.79,-30.19 69.22,-27.42"/>
</g>
<!-- Node19 -->
<g id="node19" class="node">
<title>Node19</title>
<g id="a_node19"><a xlink:href="sha256__hash_8h.html" target="_top" xlink:title=" ">
<polygon fill="white" stroke="black" points="417,-224.5 417,-243.5 557,-243.5 557,-224.5 417,-224.5"/>
<text text-anchor="middle" x="487" y="-231.5" font-family="Helvetica,sans-Serif" font-size="10.00">ccf/crypto/sha256_hash.h</text>
</a>
</g>
</g>
<!-- Node2&#45;&gt;Node19 -->
<g id="edge22" class="edge">
<title>Node2&#45;&gt;Node19</title>
<path fill="none" stroke="midnightblue" d="M424.89,-280.32C436.15,-272.11 453.29,-259.6 466.71,-249.81"/>
<polygon fill="midnightblue" stroke="midnightblue" points="468.88,-252.56 474.89,-243.83 464.75,-246.9 468.88,-252.56"/>
</g>
<!-- Node21 -->
<g id="node21" class="node">
<title>Node21</title>
<g id="a_node21"><a xlink:title=" ">
<polygon fill="white" stroke="#bfbfbf" points="575,-224.5 575,-243.5 625,-243.5 625,-224.5 575,-224.5"/>
<text text-anchor="middle" x="600" y="-231.5" font-family="Helvetica,sans-Serif" font-size="10.00">cstdint</text>
</a>
</g>
</g>
<!-- Node2&#45;&gt;Node21 -->
<g id="edge28" class="edge">
<title>Node2&#45;&gt;Node21</title>
<path fill="none" stroke="midnightblue" d="M442.63,-280.44C475.91,-270.83 529.85,-255.26 565.13,-245.07"/>
<polygon fill="midnightblue" stroke="midnightblue" points="566.36,-248.36 575,-242.22 564.42,-241.63 566.36,-248.36"/>
</g>
<!-- Node22 -->
<g id="node22" class="node">
<title>Node22</title>
<g id="a_node22"><a xlink:title=" ">
<polygon fill="white" stroke="#bfbfbf" points="0,-224.5 0,-243.5 60,-243.5 60,-224.5 0,-224.5"/>
<text text-anchor="middle" x="30" y="-231.5" font-family="Helvetica,sans-Serif" font-size="10.00">iostream</text>
</a>
</g>
</g>
<!-- Node2&#45;&gt;Node22 -->
<g id="edge29" class="edge">
<title>Node2&#45;&gt;Node22</title>
<path fill="none" stroke="midnightblue" d="M340.37,-280.85C271.58,-272.77 165.48,-259.41 74,-244 72.75,-243.79 71.47,-243.57 70.19,-243.34"/>
<polygon fill="midnightblue" stroke="midnightblue" points="70.72,-239.88 60.24,-241.48 69.43,-246.76 70.72,-239.88"/>
</g>
<!-- Node3&#45;&gt;Node4 -->
<g id="edge3" class="edge">
<title>Node3&#45;&gt;Node4</title>
<path fill="none" stroke="midnightblue" d="M705.08,-112.21C694.96,-97.96 672.93,-69.98 647,-56 584.5,-22.31 500.11,-13.69 453.84,-11.58"/>
<polygon fill="midnightblue" stroke="midnightblue" points="453.87,-8.08 443.75,-11.2 453.61,-15.07 453.87,-8.08"/>
</g>
<!-- Node6 -->
<g id="node6" class="node">
<title>Node6</title>
<g id="a_node6"><a xlink:href="json_8h.html" target="_top" xlink:title=" ">
<polygon fill="white" stroke="black" points="446.5,-168.5 446.5,-187.5 523.5,-187.5 523.5,-168.5 446.5,-168.5"/>
<text text-anchor="middle" x="485" y="-175.5" font-family="Helvetica,sans-Serif" font-size="10.00">ccf/ds/json.h</text>
</a>
</g>
</g>
<!-- Node5&#45;&gt;Node6 -->
<g id="edge5" class="edge">
<title>Node5&#45;&gt;Node6</title>
<path fill="none" stroke="midnightblue" d="M362.13,-224.44C386.48,-215.44 425.01,-201.19 452.42,-191.05"/>
<polygon fill="midnightblue" stroke="midnightblue" points="453.81,-194.27 461.97,-187.52 451.38,-187.7 453.81,-194.27"/>
</g>
<!-- Node7 -->
<g id="node7" class="node">
<title>Node7</title>
<g id="a_node7"><a xlink:href="include_2ccf_2crypto_2base64_8h.html" target="_top" xlink:title=" ">
<polygon fill="white" stroke="black" points="300,-56.5 300,-75.5 412,-75.5 412,-56.5 300,-56.5"/>
<text text-anchor="middle" x="356" y="-63.5" font-family="Helvetica,sans-Serif" font-size="10.00">ccf/crypto/base64.h</text>
</a>
</g>
</g>
<!-- Node6&#45;&gt;Node7 -->
<g id="edge6" class="edge">
<title>Node6&#45;&gt;Node7</title>
<path fill="none" stroke="midnightblue" d="M446.15,-172.65C399.32,-166.52 324.79,-153.59 308,-132 294.68,-114.87 314.98,-94.71 333.14,-81.43"/>
<polygon fill="midnightblue" stroke="midnightblue" points="335.48,-84.07 341.72,-75.51 331.5,-78.31 335.48,-84.07"/>
</g>
<!-- Node9 -->
<g id="node9" class="node">
<title>Node9</title>
<g id="a_node9"><a xlink:href="include_2ccf_2ds_2json__schema_8h.html" target="_top" xlink:title=" ">
<polygon fill="white" stroke="black" points="317.5,-112.5 317.5,-131.5 438.5,-131.5 438.5,-112.5 317.5,-112.5"/>
<text text-anchor="middle" x="378" y="-119.5" font-family="Helvetica,sans-Serif" font-size="10.00">ccf/ds/json_schema.h</text>
</a>
</g>
</g>
<!-- Node6&#45;&gt;Node9 -->
<g id="edge9" class="edge">
<title>Node6&#45;&gt;Node9</title>
<path fill="none" stroke="midnightblue" d="M467.81,-168.32C450.65,-159.66 424.05,-146.24 404.25,-136.25"/>
<polygon fill="midnightblue" stroke="midnightblue" points="405.65,-133.04 395.15,-131.65 402.5,-139.28 405.65,-133.04"/>
</g>
<!-- Node6&#45;&gt;Node16 -->
<g id="edge20" class="edge">
<title>Node6&#45;&gt;Node16</title>
<path fill="none" stroke="midnightblue" d="M493.87,-168.37C512.85,-149.89 557.64,-106.29 581.83,-82.74"/>
<polygon fill="midnightblue" stroke="midnightblue" points="584.45,-85.07 589.17,-75.59 579.57,-80.06 584.45,-85.07"/>
</g>
<!-- Node18 -->
<g id="node18" class="node">
<title>Node18</title>
<g id="a_node18"><a xlink:title=" ">
<polygon fill="white" stroke="#bfbfbf" points="457,-112.5 457,-131.5 513,-131.5 513,-112.5 457,-112.5"/>
<text text-anchor="middle" x="485" y="-119.5" font-family="Helvetica,sans-Serif" font-size="10.00">sstream</text>
</a>
</g>
</g>
<!-- Node6&#45;&gt;Node18 -->
<g id="edge21" class="edge">
<title>Node6&#45;&gt;Node18</title>
<path fill="none" stroke="midnightblue" d="M485,-168.08C485,-161.01 485,-150.86 485,-141.99"/>
<polygon fill="midnightblue" stroke="midnightblue" points="488.5,-141.75 485,-131.75 481.5,-141.75 488.5,-141.75"/>
</g>
<!-- Node7&#45;&gt;Node4 -->
<g id="edge8" class="edge">
<title>Node7&#45;&gt;Node4</title>
<path fill="none" stroke="midnightblue" d="M366.28,-56.32C375.84,-48.26 390.28,-36.08 401.78,-26.37"/>
<polygon fill="midnightblue" stroke="midnightblue" points="404.14,-28.96 409.53,-19.83 399.63,-23.61 404.14,-28.96"/>
</g>
<!-- Node8 -->
<g id="node8" class="node">
<title>Node8</title>
<g id="a_node8"><a xlink:title=" ">
<polygon fill="white" stroke="#bfbfbf" points="334,-0.5 334,-19.5 378,-19.5 378,-0.5 334,-0.5"/>
<text text-anchor="middle" x="356" y="-7.5" font-family="Helvetica,sans-Serif" font-size="10.00">string</text>
</a>
</g>
</g>
<!-- Node7&#45;&gt;Node8 -->
<g id="edge7" class="edge">
<title>Node7&#45;&gt;Node8</title>
<path fill="none" stroke="midnightblue" d="M356,-56.08C356,-49.01 356,-38.86 356,-29.99"/>
<polygon fill="midnightblue" stroke="midnightblue" points="359.5,-29.75 356,-19.75 352.5,-29.75 359.5,-29.75"/>
</g>
<!-- Node10 -->
<g id="node10" class="node">
<title>Node10</title>
<g id="a_node10"><a xlink:href="nonstd_8h.html" target="_top" xlink:title=" ">
<polygon fill="white" stroke="black" points="154,-56.5 154,-75.5 244,-75.5 244,-56.5 154,-56.5"/>
<text text-anchor="middle" x="199" y="-63.5" font-family="Helvetica,sans-Serif" font-size="10.00">ccf/ds/nonstd.h</text>
</a>
</g>
</g>
<!-- Node9&#45;&gt;Node10 -->
<g id="edge10" class="edge">
<title>Node9&#45;&gt;Node10</title>
<path fill="none" stroke="midnightblue" d="M349.64,-112.44C319.26,-103.28 270.89,-88.69 237.18,-78.52"/>
<polygon fill="midnightblue" stroke="midnightblue" points="237.82,-75.05 227.23,-75.52 235.79,-81.76 237.82,-75.05"/>
</g>
<!-- Node9&#45;&gt;Node16 -->
<g id="edge18" class="edge">
<title>Node9&#45;&gt;Node16</title>
<path fill="none" stroke="midnightblue" d="M412.86,-112.44C450.92,-103.1 511.96,-88.12 553.46,-77.93"/>
<polygon fill="midnightblue" stroke="midnightblue" points="554.43,-81.3 563.3,-75.52 552.76,-74.5 554.43,-81.3"/>
</g>
<!-- Node17 -->
<g id="node17" class="node">
<title>Node17</title>
<g id="a_node17"><a xlink:title=" ">
<polygon fill="white" stroke="#bfbfbf" points="430,-56.5 430,-75.5 540,-75.5 540,-56.5 430,-56.5"/>
<text text-anchor="middle" x="485" y="-63.5" font-family="Helvetica,sans-Serif" font-size="10.00">nlohmann/json.hpp</text>
</a>
</g>
</g>
<!-- Node9&#45;&gt;Node17 -->
<g id="edge19" class="edge">
<title>Node9&#45;&gt;Node17</title>
<path fill="none" stroke="midnightblue" d="M395.19,-112.32C412.35,-103.66 438.95,-90.24 458.75,-80.25"/>
<polygon fill="midnightblue" stroke="midnightblue" points="460.5,-83.28 467.85,-75.65 457.35,-77.04 460.5,-83.28"/>
</g>
<!-- Node10&#45;&gt;Node4 -->
<g id="edge17" class="edge">
<title>Node10&#45;&gt;Node4</title>
<path fill="none" stroke="midnightblue" d="M236.18,-56.46C272.17,-48.12 328.48,-34.85 386.52,-20.06"/>
<polygon fill="midnightblue" stroke="midnightblue" points="387.41,-23.45 396.23,-17.58 385.68,-16.67 387.41,-23.45"/>
</g>
<!-- Node10&#45;&gt;Node8 -->
<g id="edge14" class="edge">
<title>Node10&#45;&gt;Node8</title>
<path fill="none" stroke="midnightblue" d="M223.88,-56.44C251.07,-47.09 294.69,-32.09 324.31,-21.9"/>
<polygon fill="midnightblue" stroke="midnightblue" points="325.46,-25.21 333.78,-18.64 323.18,-18.59 325.46,-25.21"/>
</g>
<!-- Node11 -->
<g id="node11" class="node">
<title>Node11</title>
<g id="a_node11"><a xlink:title=" ">
<polygon fill="white" stroke="#bfbfbf" points="97,-0.5 97,-19.5 161,-19.5 161,-0.5 97,-0.5"/>
<text text-anchor="middle" x="129" y="-7.5" font-family="Helvetica,sans-Serif" font-size="10.00">algorithm</text>
</a>
</g>
</g>
<!-- Node10&#45;&gt;Node11 -->
<g id="edge11" class="edge">
<title>Node10&#45;&gt;Node11</title>
<path fill="none" stroke="midnightblue" d="M187.75,-56.32C177.2,-48.18 161.2,-35.84 148.56,-26.09"/>
<polygon fill="midnightblue" stroke="midnightblue" points="150.51,-23.17 140.45,-19.83 146.23,-28.71 150.51,-23.17"/>
</g>
<!-- Node10&#45;&gt;Node12 -->
<g id="edge12" class="edge">
<title>Node10&#45;&gt;Node12</title>
<path fill="none" stroke="midnightblue" d="M176.66,-56.44C152.97,-47.37 115.39,-32.98 88.88,-22.83"/>
<polygon fill="midnightblue" stroke="midnightblue" points="89.9,-19.47 79.31,-19.16 87.4,-26.01 89.9,-19.47"/>
</g>
<!-- Node13 -->
<g id="node13" class="node">
<title>Node13</title>
<g id="a_node13"><a xlink:title=" ">
<polygon fill="white" stroke="#bfbfbf" points="179.5,-0.5 179.5,-19.5 228.5,-19.5 228.5,-0.5 179.5,-0.5"/>
<text text-anchor="middle" x="204" y="-7.5" font-family="Helvetica,sans-Serif" font-size="10.00">cctype</text>
</a>
</g>
</g>
<!-- Node10&#45;&gt;Node13 -->
<g id="edge13" class="edge">
<title>Node10&#45;&gt;Node13</title>
<path fill="none" stroke="midnightblue" d="M199.83,-56.08C200.48,-49.01 201.42,-38.86 202.24,-29.99"/>
<polygon fill="midnightblue" stroke="midnightblue" points="205.75,-30.03 203.19,-19.75 198.78,-29.39 205.75,-30.03"/>
</g>
<!-- Node14 -->
<g id="node14" class="node">
<title>Node14</title>
<g id="a_node14"><a xlink:title=" ">
<polygon fill="white" stroke="#bfbfbf" points="719.5,-0.5 719.5,-19.5 792.5,-19.5 792.5,-0.5 719.5,-0.5"/>
<text text-anchor="middle" x="756" y="-7.5" font-family="Helvetica,sans-Serif" font-size="10.00">string_view</text>
</a>
</g>
</g>
<!-- Node10&#45;&gt;Node14 -->
<g id="edge15" class="edge">
<title>Node10&#45;&gt;Node14</title>
<path fill="none" stroke="midnightblue" d="M244.39,-60.55C259.24,-59.1 275.83,-57.48 291,-56 444.05,-41.11 625.45,-23.59 709.26,-15.51"/>
<polygon fill="midnightblue" stroke="midnightblue" points="709.61,-18.99 719.23,-14.55 708.94,-12.02 709.61,-18.99"/>
</g>
<!-- Node15 -->
<g id="node15" class="node">
<title>Node15</title>
<g id="a_node15"><a xlink:title=" ">
<polygon fill="white" stroke="#bfbfbf" points="246.5,-0.5 246.5,-19.5 315.5,-19.5 315.5,-0.5 246.5,-0.5"/>
<text text-anchor="middle" x="281" y="-7.5" font-family="Helvetica,sans-Serif" font-size="10.00">type_traits</text>
</a>
</g>
</g>
<!-- Node10&#45;&gt;Node15 -->
<g id="edge16" class="edge">
<title>Node10&#45;&gt;Node15</title>
<path fill="none" stroke="midnightblue" d="M212.17,-56.32C224.85,-47.98 244.23,-35.21 259.21,-25.35"/>
<polygon fill="midnightblue" stroke="midnightblue" points="261.43,-28.08 267.86,-19.65 257.58,-22.23 261.43,-28.08"/>
</g>
<!-- Node19&#45;&gt;Node6 -->
<g id="edge23" class="edge">
<title>Node19&#45;&gt;Node6</title>
<path fill="none" stroke="midnightblue" d="M486.67,-224.08C486.41,-217.01 486.03,-206.86 485.7,-197.99"/>
<polygon fill="midnightblue" stroke="midnightblue" points="489.19,-197.61 485.32,-187.75 482.2,-197.87 489.19,-197.61"/>
</g>
<!-- Node19&#45;&gt;Node12 -->
<g id="edge24" class="edge">
<title>Node19&#45;&gt;Node12</title>
<path fill="none" stroke="midnightblue" d="M464.17,-224.47C407.99,-203.06 259.31,-143.9 145,-76 119.74,-60.99 92.99,-40.17 75.93,-26.17"/>
<polygon fill="midnightblue" stroke="midnightblue" points="77.88,-23.24 67.95,-19.54 73.41,-28.63 77.88,-23.24"/>
</g>
<!-- Node19&#45;&gt;Node16 -->
<g id="edge26" class="edge">
<title>Node19&#45;&gt;Node16</title>
<path fill="none" stroke="midnightblue" d="M497.4,-224.47C507.36,-215.94 522.39,-202.11 533,-188 558.22,-154.46 579.48,-109.86 590.31,-85.25"/>
<polygon fill="midnightblue" stroke="midnightblue" points="593.66,-86.31 594.41,-75.74 587.23,-83.54 593.66,-86.31"/>
</g>
<!-- Node20 -->
<g id="node20" class="node">
<title>Node20</title>
<g id="a_node20"><a xlink:title=" ">
<polygon fill="white" stroke="#bfbfbf" points="697,-168.5 697,-187.5 737,-187.5 737,-168.5 697,-168.5"/>
<text text-anchor="middle" x="717" y="-175.5" font-family="Helvetica,sans-Serif" font-size="10.00">span</text>
</a>
</g>
</g>
<!-- Node19&#45;&gt;Node20 -->
<g id="edge25" class="edge">
<title>Node19&#45;&gt;Node20</title>
<path fill="none" stroke="midnightblue" d="M523.44,-224.44C568.63,-213.83 644.83,-195.95 686.87,-186.07"/>
<polygon fill="midnightblue" stroke="midnightblue" points="687.85,-189.44 696.79,-183.75 686.25,-182.62 687.85,-189.44"/>
</g>
<!-- Node23&#45;&gt;Node16 -->
<g id="edge40" class="edge">
<title>Node23&#45;&gt;Node16</title>
<path fill="none" stroke="midnightblue" d="M1127.49,-287.31C1015.28,-283.36 772.98,-271.69 748,-244 707.11,-198.67 823.81,-159.93 786,-112 769.03,-90.49 697.25,-78.12 647.47,-71.97"/>
<polygon fill="midnightblue" stroke="midnightblue" points="647.86,-68.49 637.52,-70.79 647.03,-75.44 647.86,-68.49"/>
</g>
<!-- Node24 -->
<g id="node24" class="node">
<title>Node24</title>
<g id="a_node24"><a xlink:href="pem_8h.html" target="_top" xlink:title=" ">
<polygon fill="white" stroke="black" points="985,-224.5 985,-243.5 1083,-243.5 1083,-224.5 985,-224.5"/>
<text text-anchor="middle" x="1034" y="-231.5" font-family="Helvetica,sans-Serif" font-size="10.00">ccf/crypto/pem.h</text>
</a>
</g>
</g>
<!-- Node23&#45;&gt;Node24 -->
<g id="edge32" class="edge">
<title>Node23&#45;&gt;Node24</title>
<path fill="none" stroke="midnightblue" d="M1160.23,-280.44C1135.11,-271.4 1095.29,-257.06 1067.1,-246.92"/>
<polygon fill="midnightblue" stroke="midnightblue" points="1068.25,-243.61 1057.66,-243.52 1065.88,-250.2 1068.25,-243.61"/>
</g>
<!-- Node27 -->
<g id="node27" class="node">
<title>Node27</title>
<g id="a_node27"><a xlink:title=" ">
<polygon fill="white" stroke="#bfbfbf" points="1077,-168.5 1077,-187.5 1135,-187.5 1135,-168.5 1077,-168.5"/>
<text text-anchor="middle" x="1106" y="-175.5" font-family="Helvetica,sans-Serif" font-size="10.00">memory</text>
</a>
</g>
</g>
<!-- Node23&#45;&gt;Node27 -->
<g id="edge41" class="edge">
<title>Node23&#45;&gt;Node27</title>
<path fill="none" stroke="midnightblue" d="M1170.59,-280.48C1158.75,-272.37 1141.76,-259.16 1131,-244 1120.95,-229.84 1114.31,-211.11 1110.42,-197.4"/>
<polygon fill="midnightblue" stroke="midnightblue" points="1113.78,-196.44 1107.87,-187.65 1107.01,-198.22 1113.78,-196.44"/>
</g>
<!-- Node28 -->
<g id="node28" class="node">
<title>Node28</title>
<g id="a_node28"><a xlink:title=" ">
<polygon fill="white" stroke="#bfbfbf" points="1139.5,-224.5 1139.5,-243.5 1228.5,-243.5 1228.5,-224.5 1139.5,-224.5"/>
<text text-anchor="middle" x="1184" y="-231.5" font-family="Helvetica,sans-Serif" font-size="10.00">openssl/asn1.h</text>
</a>
</g>
</g>
<!-- Node23&#45;&gt;Node28 -->
<g id="edge42" class="edge">
<title>Node23&#45;&gt;Node28</title>
<path fill="none" stroke="midnightblue" d="M1184,-280.08C1184,-273.01 1184,-262.86 1184,-253.99"/>
<polygon fill="midnightblue" stroke="midnightblue" points="1187.5,-253.75 1184,-243.75 1180.5,-253.75 1187.5,-253.75"/>
</g>
<!-- Node29 -->
<g id="node29" class="node">
<title>Node29</title>
<g id="a_node29"><a xlink:title=" ">
<polygon fill="white" stroke="#bfbfbf" points="1246.5,-224.5 1246.5,-243.5 1323.5,-243.5 1323.5,-224.5 1246.5,-224.5"/>
<text text-anchor="middle" x="1285" y="-231.5" font-family="Helvetica,sans-Serif" font-size="10.00">openssl/ec.h</text>
</a>
</g>
</g>
<!-- Node23&#45;&gt;Node29 -->
<g id="edge43" class="edge">
<title>Node23&#45;&gt;Node29</title>
<path fill="none" stroke="midnightblue" d="M1200.23,-280.32C1216.35,-271.7 1241.3,-258.36 1259.96,-248.39"/>
<polygon fill="midnightblue" stroke="midnightblue" points="1261.64,-251.46 1268.81,-243.65 1258.34,-245.28 1261.64,-251.46"/>
</g>
<!-- Node30 -->
<g id="node30" class="node">
<title>Node30</title>
<g id="a_node30"><a xlink:title=" ">
<polygon fill="white" stroke="#bfbfbf" points="1341.5,-224.5 1341.5,-243.5 1440.5,-243.5 1440.5,-224.5 1341.5,-224.5"/>
<text text-anchor="middle" x="1391" y="-231.5" font-family="Helvetica,sans-Serif" font-size="10.00">openssl/engine.h</text>
</a>
</g>
</g>
<!-- Node23&#45;&gt;Node30 -->
<g id="edge44" class="edge">
<title>Node23&#45;&gt;Node30</title>
<path fill="none" stroke="midnightblue" d="M1216.8,-280.44C1252.38,-271.16 1309.31,-256.31 1348.35,-246.13"/>
<polygon fill="midnightblue" stroke="midnightblue" points="1349.56,-249.43 1358.35,-243.52 1347.79,-242.65 1349.56,-249.43"/>
</g>
<!-- Node31 -->
<g id="node31" class="node">
<title>Node31</title>
<g id="a_node31"><a xlink:title=" ">
<polygon fill="white" stroke="#bfbfbf" points="1458.5,-224.5 1458.5,-243.5 1537.5,-243.5 1537.5,-224.5 1458.5,-224.5"/>
<text text-anchor="middle" x="1498" y="-231.5" font-family="Helvetica,sans-Serif" font-size="10.00">openssl/err.h</text>
</a>
</g>
</g>
<!-- Node23&#45;&gt;Node31 -->
<g id="edge45" class="edge">
<title>Node23&#45;&gt;Node31</title>
<path fill="none" stroke="midnightblue" d="M1236.04,-280.48C1287.49,-271.99 1368.76,-258.41 1448.27,-244.29"/>
<polygon fill="midnightblue" stroke="midnightblue" points="1449.23,-247.67 1458.46,-242.47 1448,-240.78 1449.23,-247.67"/>
</g>
<!-- Node23&#45;&gt;Node32 -->
<g id="edge46" class="edge">
<title>Node23&#45;&gt;Node32</title>
<path fill="none" stroke="midnightblue" d="M1240.55,-281.55C1245.43,-281 1250.3,-280.47 1255,-280 1471.17,-258.45 1529.35,-270.81 1748.53,-244.06"/>
<polygon fill="midnightblue" stroke="midnightblue" points="1749.25,-247.5 1758.75,-242.8 1748.4,-240.55 1749.25,-247.5"/>
</g>
<!-- Node33 -->
<g id="node33" class="node">
<title>Node33</title>
<g id="a_node33"><a xlink:title=" ">
<polygon fill="white" stroke="#bfbfbf" points="1555,-224.5 1555,-243.5 1643,-243.5 1643,-224.5 1555,-224.5"/>
<text text-anchor="middle" x="1599" y="-231.5" font-family="Helvetica,sans-Serif" font-size="10.00">openssl/pem.h</text>
</a>
</g>
</g>
<!-- Node23&#45;&gt;Node33 -->
<g id="edge47" class="edge">
<title>Node23&#45;&gt;Node33</title>
<path fill="none" stroke="midnightblue" d="M1240.58,-281.81C1245.46,-281.2 1250.31,-280.59 1255,-280 1381.46,-264.19 1415.92,-263.2 1544.52,-244.32"/>
<polygon fill="midnightblue" stroke="midnightblue" points="1545.39,-247.73 1554.77,-242.81 1544.36,-240.8 1545.39,-247.73"/>
</g>
<!-- Node34 -->
<g id="node34" class="node">
<title>Node34</title>
<g id="a_node34"><a xlink:title=" ">
<polygon fill="white" stroke="#bfbfbf" points="1661,-224.5 1661,-243.5 1741,-243.5 1741,-224.5 1661,-224.5"/>
<text text-anchor="middle" x="1701" y="-231.5" font-family="Helvetica,sans-Serif" font-size="10.00">openssl/ssl.h</text>
</a>
</g>
</g>
<!-- Node23&#45;&gt;Node34 -->
<g id="edge48" class="edge">
<title>Node23&#45;&gt;Node34</title>
<path fill="none" stroke="midnightblue" d="M1240.56,-281.65C1245.44,-281.07 1250.31,-280.51 1255,-280 1427.86,-261.21 1474.74,-267.77 1650.81,-244.04"/>
<polygon fill="midnightblue" stroke="midnightblue" points="1651.5,-247.48 1660.94,-242.67 1650.56,-240.55 1651.5,-247.48"/>
</g>
<!-- Node35 -->
<g id="node35" class="node">
<title>Node35</title>
<g id="a_node35"><a xlink:title=" ">
<polygon fill="white" stroke="#bfbfbf" points="757,-224.5 757,-243.5 847,-243.5 847,-224.5 757,-224.5"/>
<text text-anchor="middle" x="802" y="-231.5" font-family="Helvetica,sans-Serif" font-size="10.00">openssl/x509.h</text>
</a>
</g>
</g>
<!-- Node23&#45;&gt;Node35 -->
<g id="edge49" class="edge">
<title>Node23&#45;&gt;Node35</title>
<path fill="none" stroke="midnightblue" d="M1127.34,-281.73C1064.01,-273.49 958.14,-259.38 857.14,-244.14"/>
<polygon fill="midnightblue" stroke="midnightblue" points="857.48,-240.65 847.07,-242.61 856.43,-247.57 857.48,-240.65"/>
</g>
<!-- Node36 -->
<g id="node36" class="node">
<title>Node36</title>
<g id="a_node36"><a xlink:title=" ">
<polygon fill="white" stroke="#bfbfbf" points="865,-224.5 865,-243.5 967,-243.5 967,-224.5 865,-224.5"/>
<text text-anchor="middle" x="916" y="-231.5" font-family="Helvetica,sans-Serif" font-size="10.00">openssl/x509v3.h</text>
</a>
</g>
</g>
<!-- Node23&#45;&gt;Node36 -->
<g id="edge50" class="edge">
<title>Node23&#45;&gt;Node36</title>
<path fill="none" stroke="midnightblue" d="M1141.53,-280.44C1094.59,-270.98 1018.92,-255.74 968.35,-245.55"/>
<polygon fill="midnightblue" stroke="midnightblue" points="968.76,-242.06 958.27,-243.52 967.38,-248.92 968.76,-242.06"/>
</g>
<!-- Node24&#45;&gt;Node4 -->
<g id="edge39" class="edge">
<title>Node24&#45;&gt;Node4</title>
<path fill="none" stroke="midnightblue" d="M1029.1,-224.14C1021.02,-210.29 1003.61,-183.49 982,-168 810.72,-45.23 546.73,-18.32 453.78,-12.54"/>
<polygon fill="midnightblue" stroke="midnightblue" points="453.75,-9.03 443.56,-11.95 453.34,-16.02 453.75,-9.03"/>
</g>
<!-- Node24&#45;&gt;Node6 -->
<g id="edge33" class="edge">
<title>Node24&#45;&gt;Node6</title>
<path fill="none" stroke="midnightblue" d="M984.98,-225.17C981.95,-224.76 978.93,-224.36 976,-224 814.4,-204.08 621.86,-188.92 533.59,-182.44"/>
<polygon fill="midnightblue" stroke="midnightblue" points="533.83,-178.95 523.6,-181.71 533.32,-185.93 533.83,-178.95"/>
</g>
<!-- Node24&#45;&gt;Node14 -->
<g id="edge38" class="edge">
<title>Node24&#45;&gt;Node14</title>
<path fill="none" stroke="midnightblue" d="M1036.29,-224.17C1043.11,-195.52 1060.22,-104.26 1015,-56 986.82,-25.93 869.52,-15.89 802.85,-12.59"/>
<polygon fill="midnightblue" stroke="midnightblue" points="802.76,-9.08 792.6,-12.11 802.43,-16.07 802.76,-9.08"/>
</g>
<!-- Node24&#45;&gt;Node20 -->
<g id="edge37" class="edge">
<title>Node24&#45;&gt;Node20</title>
<path fill="none" stroke="midnightblue" d="M984.82,-224.62C918.46,-213.32 802.27,-193.52 747.37,-184.17"/>
<polygon fill="midnightblue" stroke="midnightblue" points="747.69,-180.68 737.24,-182.45 746.51,-187.58 747.69,-180.68"/>
</g>
<!-- Node25 -->
<g id="node25" class="node">
<title>Node25</title>
<g id="a_node25"><a xlink:title=" ">
<polygon fill="white" stroke="#bfbfbf" points="839,-168.5 839,-187.5 889,-187.5 889,-168.5 839,-168.5"/>
<text text-anchor="middle" x="864" y="-175.5" font-family="Helvetica,sans-Serif" font-size="10.00">cstring</text>
</a>
</g>
</g>
<!-- Node24&#45;&gt;Node25 -->
<g id="edge34" class="edge">
<title>Node24&#45;&gt;Node25</title>
<path fill="none" stroke="midnightblue" d="M1007.06,-224.44C977.83,-215.16 931.05,-200.3 899,-190.12"/>
<polygon fill="midnightblue" stroke="midnightblue" points="899.74,-186.68 889.15,-186.99 897.62,-193.35 899.74,-186.68"/>
</g>
<!-- Node26 -->
<g id="node26" class="node">
<title>Node26</title>
<g id="a_node26"><a xlink:title=" ">
<polygon fill="white" stroke="#bfbfbf" points="907.5,-168.5 907.5,-187.5 972.5,-187.5 972.5,-168.5 907.5,-168.5"/>
<text text-anchor="middle" x="940" y="-175.5" font-family="Helvetica,sans-Serif" font-size="10.00">exception</text>
</a>
</g>
</g>
<!-- Node24&#45;&gt;Node26 -->
<g id="edge35" class="edge">
<title>Node24&#45;&gt;Node26</title>
<path fill="none" stroke="midnightblue" d="M1018.9,-224.32C1004.1,-215.82 981.31,-202.73 964.02,-192.8"/>
<polygon fill="midnightblue" stroke="midnightblue" points="965.48,-189.6 955.07,-187.65 961.99,-195.67 965.48,-189.6"/>
</g>
<!-- Node24&#45;&gt;Node27 -->
<g id="edge36" class="edge">
<title>Node24&#45;&gt;Node27</title>
<path fill="none" stroke="midnightblue" d="M1045.57,-224.32C1056.42,-216.18 1072.88,-203.84 1085.88,-194.09"/>
<polygon fill="midnightblue" stroke="midnightblue" points="1088.32,-196.63 1094.22,-187.83 1084.12,-191.03 1088.32,-196.63"/>
</g>
</g>
</svg>
