<?xml version="1.0" encoding="UTF-8" standalone="no"?>
<!DOCTYPE svg PUBLIC "-//W3C//DTD SVG 1.1//EN"
 "http://www.w3.org/Graphics/SVG/1.1/DTD/svg11.dtd">
<!-- Generated by graphviz version 2.43.0 (0)
 -->
<!-- Title: src/crypto/csr.h Pages: 1 -->
<!--zoomable 375 -->
<svg id="main" version="1.1" xmlns="http://www.w3.org/2000/svg" xmlns:xlink="http://www.w3.org/1999/xlink" xml:space="preserve" onload="init(evt)">
<style type="text/css"><![CDATA[
.edge:hover path { stroke: red; }
.edge:hover polygon { stroke: red; fill: red; }
]]></style>
<script type="text/javascript"><![CDATA[
var edges = document.getElementsByTagName('g');
if (edges && edges.length) {
  for (var i=0;i<edges.length;i++) {
    if (edges[i].id.substr(0,4)=='edge') {
      edges[i].setAttribute('class','edge');
    }
  }
}
]]></script>
        <defs>
                <circle id="rim" cx="0" cy="0" r="7"/>
                <circle id="rim2" cx="0" cy="0" r="3.5"/>
                <g id="zoomPlus">
                        <use xlink:href="#rim" fill="#404040">
                                <set attributeName="fill" to="#808080" begin="zoomplus.mouseover" end="zoomplus.mouseout"/>
                        </use>
                        <path d="M-4,0h8M0,-4v8" fill="none" stroke="white" stroke-width="1.5" pointer-events="none"/>
                </g>
                <g id="zoomMin">
                        <use xlink:href="#rim" fill="#404040">
                                <set attributeName="fill" to="#808080" begin="zoomminus.mouseover" end="zoomminus.mouseout"/>
                        </use>
                        <path d="M-4,0h8" fill="none" stroke="white" stroke-width="1.5" pointer-events="none"/>
                </g>
                <g id="dirArrow">
                        <path fill="none" stroke="white" stroke-width="1.5" d="M0,-3.0v7 M-2.5,-0.5L0,-3.0L2.5,-0.5"/>
                </g>
               <g id="resetDef">
                       <use xlink:href="#rim2" fill="#404040">
                               <set attributeName="fill" to="#808080" begin="reset.mouseover" end="reset.mouseout"/>
                       </use>
               </g>
        </defs>

<script type="text/javascript">
var viewWidth = 1383;
var viewHeight = 375;
var sectionId = 'dynsection-0';
</script>
<script xlink:href="svgpan.js"/>
<svg id="graph" class="graph">
<g id="viewport">
<title>src/crypto/csr.h</title>
<polygon fill="white" stroke="transparent" points="-4,4 -4,-371 1379,-371 1379,4 -4,4"/>
<!-- Node1 -->
<g id="node1" class="node">
<title>Node1</title>
<g id="a_node1"><a xlink:title=" ">
<polygon fill="#bfbfbf" stroke="black" points="776.5,-347.5 776.5,-366.5 866.5,-366.5 866.5,-347.5 776.5,-347.5"/>
<text text-anchor="middle" x="821.5" y="-354.5" font-family="Helvetica,sans-Serif" font-size="10.00">src/crypto/csr.h</text>
</a>
</g>
</g>
<!-- Node2 -->
<g id="node2" class="node">
<title>Node2</title>
<g id="a_node2"><a xlink:href="pem_8h.html" target="_top" xlink:title=" ">
<polygon fill="white" stroke="black" points="250.5,-224.5 250.5,-243.5 348.5,-243.5 348.5,-224.5 250.5,-224.5"/>
<text text-anchor="middle" x="299.5" y="-231.5" font-family="Helvetica,sans-Serif" font-size="10.00">ccf/crypto/pem.h</text>
</a>
</g>
</g>
<!-- Node1&#45;&gt;Node2 -->
<g id="edge1" class="edge">
<title>Node1&#45;&gt;Node2</title>
<path fill="none" stroke="midnightblue" d="M784.79,-347.49C692.15,-326.02 448.95,-269.64 346.29,-245.85"/>
<polygon fill="midnightblue" stroke="midnightblue" points="347.05,-242.43 336.51,-243.58 345.47,-249.25 347.05,-242.43"/>
</g>
<!-- Node21 -->
<g id="node21" class="node">
<title>Node21</title>
<g id="a_node21"><a xlink:href="openssl__wrappers_8h.html" target="_top" xlink:title=" ">
<polygon fill="white" stroke="black" points="757.5,-280.5 757.5,-310.5 885.5,-310.5 885.5,-280.5 757.5,-280.5"/>
<text text-anchor="start" x="765.5" y="-298.5" font-family="Helvetica,sans-Serif" font-size="10.00">crypto/openssl/openssl</text>
<text text-anchor="middle" x="821.5" y="-287.5" font-family="Helvetica,sans-Serif" font-size="10.00">_wrappers.h</text>
</a>
</g>
</g>
<!-- Node1&#45;&gt;Node21 -->
<g id="edge25" class="edge">
<title>Node1&#45;&gt;Node21</title>
<path fill="none" stroke="midnightblue" d="M821.5,-347.48C821.5,-340.47 821.5,-330.19 821.5,-320.7"/>
<polygon fill="midnightblue" stroke="midnightblue" points="825,-320.52 821.5,-310.52 818,-320.52 825,-320.52"/>
</g>
<!-- Node31 -->
<g id="node31" class="node">
<title>Node31</title>
<g id="a_node31"><a xlink:title=" ">
<polygon fill="white" stroke="#bfbfbf" points="904,-286 904,-305 985,-305 985,-286 904,-286"/>
<text text-anchor="middle" x="944.5" y="-293" font-family="Helvetica,sans-Serif" font-size="10.00">openssl/bio.h</text>
</a>
</g>
</g>
<!-- Node1&#45;&gt;Node31 -->
<g id="edge38" class="edge">
<title>Node1&#45;&gt;Node31</title>
<path fill="none" stroke="midnightblue" d="M839.12,-347.48C859.67,-337.53 893.86,-320.99 917.71,-309.46"/>
<polygon fill="midnightblue" stroke="midnightblue" points="919.43,-312.51 926.91,-305.01 916.38,-306.21 919.43,-312.51"/>
</g>
<!-- Node3 -->
<g id="node3" class="node">
<title>Node3</title>
<g id="a_node3"><a xlink:href="json_8h.html" target="_top" xlink:title=" ">
<polygon fill="white" stroke="black" points="179,-168.5 179,-187.5 256,-187.5 256,-168.5 179,-168.5"/>
<text text-anchor="middle" x="217.5" y="-175.5" font-family="Helvetica,sans-Serif" font-size="10.00">ccf/ds/json.h</text>
</a>
</g>
</g>
<!-- Node2&#45;&gt;Node3 -->
<g id="edge2" class="edge">
<title>Node2&#45;&gt;Node3</title>
<path fill="none" stroke="midnightblue" d="M286.33,-224.32C273.65,-215.98 254.27,-203.21 239.29,-193.35"/>
<polygon fill="midnightblue" stroke="midnightblue" points="240.92,-190.23 230.64,-187.65 237.07,-196.08 240.92,-190.23"/>
</g>
<!-- Node6 -->
<g id="node6" class="node">
<title>Node6</title>
<g id="a_node6"><a xlink:title=" ">
<polygon fill="white" stroke="#bfbfbf" points="0,-0.5 0,-19.5 47,-19.5 47,-0.5 0,-0.5"/>
<text text-anchor="middle" x="23.5" y="-7.5" font-family="Helvetica,sans-Serif" font-size="10.00">vector</text>
</a>
</g>
</g>
<!-- Node2&#45;&gt;Node6 -->
<g id="edge24" class="edge">
<title>Node2&#45;&gt;Node6</title>
<path fill="none" stroke="midnightblue" d="M265.69,-224.5C238.71,-216.97 200.44,-204.59 169.5,-188 97.11,-149.19 58.95,-149.6 22.5,-76 15.38,-61.62 16.48,-43.16 18.86,-29.59"/>
<polygon fill="midnightblue" stroke="midnightblue" points="22.34,-30.05 21.01,-19.54 15.5,-28.58 22.34,-30.05"/>
</g>
<!-- Node12 -->
<g id="node12" class="node">
<title>Node12</title>
<g id="a_node12"><a xlink:title=" ">
<polygon fill="white" stroke="#bfbfbf" points="447,-0.5 447,-19.5 520,-19.5 520,-0.5 447,-0.5"/>
<text text-anchor="middle" x="483.5" y="-7.5" font-family="Helvetica,sans-Serif" font-size="10.00">string_view</text>
</a>
</g>
</g>
<!-- Node2&#45;&gt;Node12 -->
<g id="edge23" class="edge">
<title>Node2&#45;&gt;Node12</title>
<path fill="none" stroke="midnightblue" d="M343.67,-224.46C392.93,-214.51 466.87,-198.15 475.5,-188 513.98,-142.75 498.96,-65.06 489.26,-29.61"/>
<polygon fill="midnightblue" stroke="midnightblue" points="492.52,-28.3 486.37,-19.68 485.8,-30.26 492.52,-28.3"/>
</g>
<!-- Node17 -->
<g id="node17" class="node">
<title>Node17</title>
<g id="a_node17"><a xlink:title=" ">
<polygon fill="white" stroke="#bfbfbf" points="274.5,-168.5 274.5,-187.5 324.5,-187.5 324.5,-168.5 274.5,-168.5"/>
<text text-anchor="middle" x="299.5" y="-175.5" font-family="Helvetica,sans-Serif" font-size="10.00">cstring</text>
</a>
</g>
</g>
<!-- Node2&#45;&gt;Node17 -->
<g id="edge19" class="edge">
<title>Node2&#45;&gt;Node17</title>
<path fill="none" stroke="midnightblue" d="M299.5,-224.08C299.5,-217.01 299.5,-206.86 299.5,-197.99"/>
<polygon fill="midnightblue" stroke="midnightblue" points="303,-197.75 299.5,-187.75 296,-197.75 303,-197.75"/>
</g>
<!-- Node18 -->
<g id="node18" class="node">
<title>Node18</title>
<g id="a_node18"><a xlink:title=" ">
<polygon fill="white" stroke="#bfbfbf" points="343,-168.5 343,-187.5 408,-187.5 408,-168.5 343,-168.5"/>
<text text-anchor="middle" x="375.5" y="-175.5" font-family="Helvetica,sans-Serif" font-size="10.00">exception</text>
</a>
</g>
</g>
<!-- Node2&#45;&gt;Node18 -->
<g id="edge20" class="edge">
<title>Node2&#45;&gt;Node18</title>
<path fill="none" stroke="midnightblue" d="M311.71,-224.32C323.28,-216.11 340.88,-203.6 354.66,-193.81"/>
<polygon fill="midnightblue" stroke="midnightblue" points="356.94,-196.48 363.07,-187.83 352.89,-190.77 356.94,-196.48"/>
</g>
<!-- Node19 -->
<g id="node19" class="node">
<title>Node19</title>
<g id="a_node19"><a xlink:title=" ">
<polygon fill="white" stroke="#bfbfbf" points="858.5,-168.5 858.5,-187.5 916.5,-187.5 916.5,-168.5 858.5,-168.5"/>
<text text-anchor="middle" x="887.5" y="-175.5" font-family="Helvetica,sans-Serif" font-size="10.00">memory</text>
</a>
</g>
</g>
<!-- Node2&#45;&gt;Node19 -->
<g id="edge21" class="edge">
<title>Node2&#45;&gt;Node19</title>
<path fill="none" stroke="midnightblue" d="M348.51,-225.15C351.55,-224.74 354.57,-224.35 357.5,-224 540.54,-202.05 760.41,-186.97 848.35,-181.39"/>
<polygon fill="midnightblue" stroke="midnightblue" points="848.65,-184.88 858.41,-180.76 848.21,-177.89 848.65,-184.88"/>
</g>
<!-- Node20 -->
<g id="node20" class="node">
<title>Node20</title>
<g id="a_node20"><a xlink:title=" ">
<polygon fill="white" stroke="#bfbfbf" points="426.5,-168.5 426.5,-187.5 466.5,-187.5 466.5,-168.5 426.5,-168.5"/>
<text text-anchor="middle" x="446.5" y="-175.5" font-family="Helvetica,sans-Serif" font-size="10.00">span</text>
</a>
</g>
</g>
<!-- Node2&#45;&gt;Node20 -->
<g id="edge22" class="edge">
<title>Node2&#45;&gt;Node20</title>
<path fill="none" stroke="midnightblue" d="M322.79,-224.44C348.17,-215.12 388.85,-200.18 416.58,-189.99"/>
<polygon fill="midnightblue" stroke="midnightblue" points="417.98,-193.21 426.16,-186.47 415.56,-186.64 417.98,-193.21"/>
</g>
<!-- Node4 -->
<g id="node4" class="node">
<title>Node4</title>
<g id="a_node4"><a xlink:href="include_2ccf_2crypto_2base64_8h.html" target="_top" xlink:title=" ">
<polygon fill="white" stroke="black" points="31.5,-56.5 31.5,-75.5 143.5,-75.5 143.5,-56.5 31.5,-56.5"/>
<text text-anchor="middle" x="87.5" y="-63.5" font-family="Helvetica,sans-Serif" font-size="10.00">ccf/crypto/base64.h</text>
</a>
</g>
</g>
<!-- Node3&#45;&gt;Node4 -->
<g id="edge3" class="edge">
<title>Node3&#45;&gt;Node4</title>
<path fill="none" stroke="midnightblue" d="M201.7,-168.4C186.98,-160.03 164.76,-146.49 147.5,-132 129.94,-117.26 112.45,-97.6 100.93,-83.78"/>
<polygon fill="midnightblue" stroke="midnightblue" points="103.32,-81.17 94.28,-75.65 97.9,-85.6 103.32,-81.17"/>
</g>
<!-- Node7 -->
<g id="node7" class="node">
<title>Node7</title>
<g id="a_node7"><a xlink:href="include_2ccf_2ds_2json__schema_8h.html" target="_top" xlink:title=" ">
<polygon fill="white" stroke="black" points="157,-112.5 157,-131.5 278,-131.5 278,-112.5 157,-112.5"/>
<text text-anchor="middle" x="217.5" y="-119.5" font-family="Helvetica,sans-Serif" font-size="10.00">ccf/ds/json_schema.h</text>
</a>
</g>
</g>
<!-- Node3&#45;&gt;Node7 -->
<g id="edge6" class="edge">
<title>Node3&#45;&gt;Node7</title>
<path fill="none" stroke="midnightblue" d="M217.5,-168.08C217.5,-161.01 217.5,-150.86 217.5,-141.99"/>
<polygon fill="midnightblue" stroke="midnightblue" points="221,-141.75 217.5,-131.75 214,-141.75 221,-141.75"/>
</g>
<!-- Node14 -->
<g id="node14" class="node">
<title>Node14</title>
<g id="a_node14"><a xlink:title=" ">
<polygon fill="white" stroke="#bfbfbf" points="398,-56.5 398,-75.5 477,-75.5 477,-56.5 398,-56.5"/>
<text text-anchor="middle" x="437.5" y="-63.5" font-family="Helvetica,sans-Serif" font-size="10.00">fmt/format.h</text>
</a>
</g>
</g>
<!-- Node3&#45;&gt;Node14 -->
<g id="edge17" class="edge">
<title>Node3&#45;&gt;Node14</title>
<path fill="none" stroke="midnightblue" d="M230.42,-168.3C250.3,-155.11 289.85,-129.75 325.5,-112 350.99,-99.31 380.98,-87.41 403.51,-79.04"/>
<polygon fill="midnightblue" stroke="midnightblue" points="404.8,-82.3 412.98,-75.57 402.38,-75.72 404.8,-82.3"/>
</g>
<!-- Node16 -->
<g id="node16" class="node">
<title>Node16</title>
<g id="a_node16"><a xlink:title=" ">
<polygon fill="white" stroke="#bfbfbf" points="334.5,-112.5 334.5,-131.5 390.5,-131.5 390.5,-112.5 334.5,-112.5"/>
<text text-anchor="middle" x="362.5" y="-119.5" font-family="Helvetica,sans-Serif" font-size="10.00">sstream</text>
</a>
</g>
</g>
<!-- Node3&#45;&gt;Node16 -->
<g id="edge18" class="edge">
<title>Node3&#45;&gt;Node16</title>
<path fill="none" stroke="midnightblue" d="M240.48,-168.44C264.66,-159.44 302.92,-145.19 330.15,-135.05"/>
<polygon fill="midnightblue" stroke="midnightblue" points="331.48,-138.29 339.63,-131.52 329.04,-131.73 331.48,-138.29"/>
</g>
<!-- Node5 -->
<g id="node5" class="node">
<title>Node5</title>
<g id="a_node5"><a xlink:title=" ">
<polygon fill="white" stroke="#bfbfbf" points="65.5,-0.5 65.5,-19.5 109.5,-19.5 109.5,-0.5 65.5,-0.5"/>
<text text-anchor="middle" x="87.5" y="-7.5" font-family="Helvetica,sans-Serif" font-size="10.00">string</text>
</a>
</g>
</g>
<!-- Node4&#45;&gt;Node5 -->
<g id="edge4" class="edge">
<title>Node4&#45;&gt;Node5</title>
<path fill="none" stroke="midnightblue" d="M87.5,-56.08C87.5,-49.01 87.5,-38.86 87.5,-29.99"/>
<polygon fill="midnightblue" stroke="midnightblue" points="91,-29.75 87.5,-19.75 84,-29.75 91,-29.75"/>
</g>
<!-- Node4&#45;&gt;Node6 -->
<g id="edge5" class="edge">
<title>Node4&#45;&gt;Node6</title>
<path fill="none" stroke="midnightblue" d="M77.22,-56.32C67.66,-48.26 53.22,-36.08 41.72,-26.37"/>
<polygon fill="midnightblue" stroke="midnightblue" points="43.87,-23.61 33.97,-19.83 39.36,-28.96 43.87,-23.61"/>
</g>
<!-- Node8 -->
<g id="node8" class="node">
<title>Node8</title>
<g id="a_node8"><a xlink:href="nonstd_8h.html" target="_top" xlink:title=" ">
<polygon fill="white" stroke="black" points="161.5,-56.5 161.5,-75.5 251.5,-75.5 251.5,-56.5 161.5,-56.5"/>
<text text-anchor="middle" x="206.5" y="-63.5" font-family="Helvetica,sans-Serif" font-size="10.00">ccf/ds/nonstd.h</text>
</a>
</g>
</g>
<!-- Node7&#45;&gt;Node8 -->
<g id="edge7" class="edge">
<title>Node7&#45;&gt;Node8</title>
<path fill="none" stroke="midnightblue" d="M215.68,-112.08C214.23,-104.93 212.13,-94.64 210.31,-85.69"/>
<polygon fill="midnightblue" stroke="midnightblue" points="213.71,-84.85 208.28,-75.75 206.85,-86.25 213.71,-84.85"/>
</g>
<!-- Node7&#45;&gt;Node14 -->
<g id="edge15" class="edge">
<title>Node7&#45;&gt;Node14</title>
<path fill="none" stroke="midnightblue" d="M252.36,-112.44C290.42,-103.1 351.46,-88.12 392.96,-77.93"/>
<polygon fill="midnightblue" stroke="midnightblue" points="393.93,-81.3 402.8,-75.52 392.26,-74.5 393.93,-81.3"/>
</g>
<!-- Node15 -->
<g id="node15" class="node">
<title>Node15</title>
<g id="a_node15"><a xlink:title=" ">
<polygon fill="white" stroke="#bfbfbf" points="269.5,-56.5 269.5,-75.5 379.5,-75.5 379.5,-56.5 269.5,-56.5"/>
<text text-anchor="middle" x="324.5" y="-63.5" font-family="Helvetica,sans-Serif" font-size="10.00">nlohmann/json.hpp</text>
</a>
</g>
</g>
<!-- Node7&#45;&gt;Node15 -->
<g id="edge16" class="edge">
<title>Node7&#45;&gt;Node15</title>
<path fill="none" stroke="midnightblue" d="M234.69,-112.32C251.85,-103.66 278.45,-90.24 298.25,-80.25"/>
<polygon fill="midnightblue" stroke="midnightblue" points="300,-83.28 307.35,-75.65 296.85,-77.04 300,-83.28"/>
</g>
<!-- Node8&#45;&gt;Node5 -->
<g id="edge11" class="edge">
<title>Node8&#45;&gt;Node5</title>
<path fill="none" stroke="midnightblue" d="M187.64,-56.44C168.23,-47.64 137.77,-33.81 115.54,-23.72"/>
<polygon fill="midnightblue" stroke="midnightblue" points="116.82,-20.46 106.27,-19.52 113.93,-26.84 116.82,-20.46"/>
</g>
<!-- Node8&#45;&gt;Node6 -->
<g id="edge14" class="edge">
<title>Node8&#45;&gt;Node6</title>
<path fill="none" stroke="midnightblue" d="M177.5,-56.44C144.66,-46.75 91.25,-30.99 56.75,-20.81"/>
<polygon fill="midnightblue" stroke="midnightblue" points="57.71,-17.44 47.12,-17.97 55.72,-24.16 57.71,-17.44"/>
</g>
<!-- Node9 -->
<g id="node9" class="node">
<title>Node9</title>
<g id="a_node9"><a xlink:title=" ">
<polygon fill="white" stroke="#bfbfbf" points="282.5,-0.5 282.5,-19.5 346.5,-19.5 346.5,-0.5 282.5,-0.5"/>
<text text-anchor="middle" x="314.5" y="-7.5" font-family="Helvetica,sans-Serif" font-size="10.00">algorithm</text>
</a>
</g>
</g>
<!-- Node8&#45;&gt;Node9 -->
<g id="edge8" class="edge">
<title>Node8&#45;&gt;Node9</title>
<path fill="none" stroke="midnightblue" d="M223.85,-56.32C241.17,-47.66 268.02,-34.24 288,-24.25"/>
<polygon fill="midnightblue" stroke="midnightblue" points="289.81,-27.26 297.19,-19.65 286.68,-21 289.81,-27.26"/>
</g>
<!-- Node10 -->
<g id="node10" class="node">
<title>Node10</title>
<g id="a_node10"><a xlink:title=" ">
<polygon fill="white" stroke="#bfbfbf" points="364.5,-0.5 364.5,-19.5 406.5,-19.5 406.5,-0.5 364.5,-0.5"/>
<text text-anchor="middle" x="385.5" y="-7.5" font-family="Helvetica,sans-Serif" font-size="10.00">array</text>
</a>
</g>
</g>
<!-- Node8&#45;&gt;Node10 -->
<g id="edge9" class="edge">
<title>Node8&#45;&gt;Node10</title>
<path fill="none" stroke="midnightblue" d="M234.86,-56.44C267.47,-46.61 320.82,-30.51 354.5,-20.35"/>
<polygon fill="midnightblue" stroke="midnightblue" points="355.71,-23.64 364.28,-17.4 353.69,-16.94 355.71,-23.64"/>
</g>
<!-- Node11 -->
<g id="node11" class="node">
<title>Node11</title>
<g id="a_node11"><a xlink:title=" ">
<polygon fill="white" stroke="#bfbfbf" points="128,-0.5 128,-19.5 177,-19.5 177,-0.5 128,-0.5"/>
<text text-anchor="middle" x="152.5" y="-7.5" font-family="Helvetica,sans-Serif" font-size="10.00">cctype</text>
</a>
</g>
</g>
<!-- Node8&#45;&gt;Node11 -->
<g id="edge10" class="edge">
<title>Node8&#45;&gt;Node11</title>
<path fill="none" stroke="midnightblue" d="M197.58,-56.08C189.72,-48.22 178.07,-36.57 168.58,-27.08"/>
<polygon fill="midnightblue" stroke="midnightblue" points="170.8,-24.35 161.25,-19.75 165.85,-29.3 170.8,-24.35"/>
</g>
<!-- Node8&#45;&gt;Node12 -->
<g id="edge12" class="edge">
<title>Node8&#45;&gt;Node12</title>
<path fill="none" stroke="midnightblue" d="M250.39,-56.44C301.31,-46.52 384.89,-30.22 436.92,-20.08"/>
<polygon fill="midnightblue" stroke="midnightblue" points="437.75,-23.49 446.89,-18.14 436.41,-16.62 437.75,-23.49"/>
</g>
<!-- Node13 -->
<g id="node13" class="node">
<title>Node13</title>
<g id="a_node13"><a xlink:title=" ">
<polygon fill="white" stroke="#bfbfbf" points="195,-0.5 195,-19.5 264,-19.5 264,-0.5 195,-0.5"/>
<text text-anchor="middle" x="229.5" y="-7.5" font-family="Helvetica,sans-Serif" font-size="10.00">type_traits</text>
</a>
</g>
</g>
<!-- Node8&#45;&gt;Node13 -->
<g id="edge13" class="edge">
<title>Node8&#45;&gt;Node13</title>
<path fill="none" stroke="midnightblue" d="M210.3,-56.08C213.41,-48.77 217.92,-38.18 221.79,-29.1"/>
<polygon fill="midnightblue" stroke="midnightblue" points="225.07,-30.32 225.77,-19.75 218.63,-27.58 225.07,-30.32"/>
</g>
<!-- Node21&#45;&gt;Node2 -->
<g id="edge26" class="edge">
<title>Node21&#45;&gt;Node2</title>
<path fill="none" stroke="midnightblue" d="M757.21,-288.44C669.56,-279.96 507.39,-263.55 358.75,-244.11"/>
<polygon fill="midnightblue" stroke="midnightblue" points="358.9,-240.6 348.53,-242.77 357.98,-247.54 358.9,-240.6"/>
</g>
<!-- Node21&#45;&gt;Node14 -->
<g id="edge27" class="edge">
<title>Node21&#45;&gt;Node14</title>
<path fill="none" stroke="midnightblue" d="M885.62,-281.6C888.96,-281.04 892.27,-280.5 895.5,-280 967.07,-268.99 1262.37,-280.03 1216.5,-224 1123.28,-110.12 644.39,-77.01 487.4,-69.14"/>
<polygon fill="midnightblue" stroke="midnightblue" points="487.26,-65.63 477.1,-68.64 486.92,-72.62 487.26,-65.63"/>
</g>
<!-- Node21&#45;&gt;Node19 -->
<g id="edge28" class="edge">
<title>Node21&#45;&gt;Node19</title>
<path fill="none" stroke="midnightblue" d="M885.62,-281.63C888.96,-281.05 892.27,-280.51 895.5,-280 962.92,-269.43 1155.16,-295.01 1200.5,-244 1206.41,-237.36 1206.32,-230.72 1200.5,-224 1165.52,-183.63 1002.86,-178.63 926.85,-178.56"/>
<polygon fill="midnightblue" stroke="midnightblue" points="926.71,-175.06 916.72,-178.58 926.72,-182.06 926.71,-175.06"/>
</g>
<!-- Node22 -->
<g id="node22" class="node">
<title>Node22</title>
<g id="a_node22"><a xlink:title=" ">
<polygon fill="white" stroke="#bfbfbf" points="1286,-224.5 1286,-243.5 1375,-243.5 1375,-224.5 1286,-224.5"/>
<text text-anchor="middle" x="1330.5" y="-231.5" font-family="Helvetica,sans-Serif" font-size="10.00">openssl/asn1.h</text>
</a>
</g>
</g>
<!-- Node21&#45;&gt;Node22 -->
<g id="edge29" class="edge">
<title>Node21&#45;&gt;Node22</title>
<path fill="none" stroke="midnightblue" d="M885.61,-281.54C888.95,-280.99 892.26,-280.47 895.5,-280 1061.63,-255.83 1104.9,-264.67 1271.5,-244 1272.8,-243.84 1274.12,-243.67 1275.45,-243.5"/>
<polygon fill="midnightblue" stroke="midnightblue" points="1276.32,-246.91 1285.76,-242.09 1275.38,-239.98 1276.32,-246.91"/>
</g>
<!-- Node23 -->
<g id="node23" class="node">
<title>Node23</title>
<g id="a_node23"><a xlink:title=" ">
<polygon fill="white" stroke="#bfbfbf" points="367,-224.5 367,-243.5 444,-243.5 444,-224.5 367,-224.5"/>
<text text-anchor="middle" x="405.5" y="-231.5" font-family="Helvetica,sans-Serif" font-size="10.00">openssl/ec.h</text>
</a>
</g>
</g>
<!-- Node21&#45;&gt;Node23 -->
<g id="edge30" class="edge">
<title>Node21&#45;&gt;Node23</title>
<path fill="none" stroke="midnightblue" d="M757.35,-286.77C685.78,-277.91 566.31,-262.42 454.32,-244.23"/>
<polygon fill="midnightblue" stroke="midnightblue" points="454.63,-240.74 444.2,-242.58 453.5,-247.65 454.63,-240.74"/>
</g>
<!-- Node24 -->
<g id="node24" class="node">
<title>Node24</title>
<g id="a_node24"><a xlink:title=" ">
<polygon fill="white" stroke="#bfbfbf" points="462,-224.5 462,-243.5 561,-243.5 561,-224.5 462,-224.5"/>
<text text-anchor="middle" x="511.5" y="-231.5" font-family="Helvetica,sans-Serif" font-size="10.00">openssl/engine.h</text>
</a>
</g>
</g>
<!-- Node21&#45;&gt;Node24 -->
<g id="edge31" class="edge">
<title>Node21&#45;&gt;Node24</title>
<path fill="none" stroke="midnightblue" d="M757.27,-282.17C700.79,-271.33 619.48,-255.73 566.09,-245.48"/>
<polygon fill="midnightblue" stroke="midnightblue" points="566.6,-242.01 556.12,-243.56 565.29,-248.89 566.6,-242.01"/>
</g>
<!-- Node25 -->
<g id="node25" class="node">
<title>Node25</title>
<g id="a_node25"><a xlink:title=" ">
<polygon fill="white" stroke="#bfbfbf" points="579,-224.5 579,-243.5 658,-243.5 658,-224.5 579,-224.5"/>
<text text-anchor="middle" x="618.5" y="-231.5" font-family="Helvetica,sans-Serif" font-size="10.00">openssl/err.h</text>
</a>
</g>
</g>
<!-- Node21&#45;&gt;Node25 -->
<g id="edge32" class="edge">
<title>Node21&#45;&gt;Node25</title>
<path fill="none" stroke="midnightblue" d="M773.65,-280.47C738.17,-270.08 690.41,-256.08 657.3,-246.37"/>
<polygon fill="midnightblue" stroke="midnightblue" points="658.1,-242.96 647.52,-243.51 656.13,-249.68 658.1,-242.96"/>
</g>
<!-- Node26 -->
<g id="node26" class="node">
<title>Node26</title>
<g id="a_node26"><a xlink:title=" ">
<polygon fill="white" stroke="#bfbfbf" points="675.5,-224.5 675.5,-243.5 759.5,-243.5 759.5,-224.5 675.5,-224.5"/>
<text text-anchor="middle" x="717.5" y="-231.5" font-family="Helvetica,sans-Serif" font-size="10.00">openssl/evp.h</text>
</a>
</g>
</g>
<!-- Node21&#45;&gt;Node26 -->
<g id="edge33" class="edge">
<title>Node21&#45;&gt;Node26</title>
<path fill="none" stroke="midnightblue" d="M796.85,-280.4C780.18,-270.86 758.27,-258.32 741.69,-248.84"/>
<polygon fill="midnightblue" stroke="midnightblue" points="743.05,-245.59 732.63,-243.66 739.57,-251.66 743.05,-245.59"/>
</g>
<!-- Node27 -->
<g id="node27" class="node">
<title>Node27</title>
<g id="a_node27"><a xlink:title=" ">
<polygon fill="white" stroke="#bfbfbf" points="777.5,-224.5 777.5,-243.5 865.5,-243.5 865.5,-224.5 777.5,-224.5"/>
<text text-anchor="middle" x="821.5" y="-231.5" font-family="Helvetica,sans-Serif" font-size="10.00">openssl/pem.h</text>
</a>
</g>
</g>
<!-- Node21&#45;&gt;Node27 -->
<g id="edge34" class="edge">
<title>Node21&#45;&gt;Node27</title>
<path fill="none" stroke="midnightblue" d="M821.5,-280.4C821.5,-272.47 821.5,-262.46 821.5,-253.86"/>
<polygon fill="midnightblue" stroke="midnightblue" points="825,-253.66 821.5,-243.66 818,-253.66 825,-253.66"/>
</g>
<!-- Node28 -->
<g id="node28" class="node">
<title>Node28</title>
<g id="a_node28"><a xlink:title=" ">
<polygon fill="white" stroke="#bfbfbf" points="883.5,-224.5 883.5,-243.5 963.5,-243.5 963.5,-224.5 883.5,-224.5"/>
<text text-anchor="middle" x="923.5" y="-231.5" font-family="Helvetica,sans-Serif" font-size="10.00">openssl/ssl.h</text>
</a>
</g>
</g>
<!-- Node21&#45;&gt;Node28 -->
<g id="edge35" class="edge">
<title>Node21&#45;&gt;Node28</title>
<path fill="none" stroke="midnightblue" d="M845.67,-280.4C862.02,-270.86 883.51,-258.32 899.77,-248.84"/>
<polygon fill="midnightblue" stroke="midnightblue" points="901.78,-251.72 908.66,-243.66 898.26,-245.67 901.78,-251.72"/>
</g>
<!-- Node29 -->
<g id="node29" class="node">
<title>Node29</title>
<g id="a_node29"><a xlink:title=" ">
<polygon fill="white" stroke="#bfbfbf" points="981.5,-224.5 981.5,-243.5 1071.5,-243.5 1071.5,-224.5 981.5,-224.5"/>
<text text-anchor="middle" x="1026.5" y="-231.5" font-family="Helvetica,sans-Serif" font-size="10.00">openssl/x509.h</text>
</a>
</g>
</g>
<!-- Node21&#45;&gt;Node29 -->
<g id="edge36" class="edge">
<title>Node21&#45;&gt;Node29</title>
<path fill="none" stroke="midnightblue" d="M869.82,-280.47C905.65,-270.08 953.88,-256.08 987.32,-246.37"/>
<polygon fill="midnightblue" stroke="midnightblue" points="988.56,-249.66 997.19,-243.51 986.61,-242.93 988.56,-249.66"/>
</g>
<!-- Node30 -->
<g id="node30" class="node">
<title>Node30</title>
<g id="a_node30"><a xlink:title=" ">
<polygon fill="white" stroke="#bfbfbf" points="1089.5,-224.5 1089.5,-243.5 1191.5,-243.5 1191.5,-224.5 1089.5,-224.5"/>
<text text-anchor="middle" x="1140.5" y="-231.5" font-family="Helvetica,sans-Serif" font-size="10.00">openssl/x509v3.h</text>
</a>
</g>
</g>
<!-- Node21&#45;&gt;Node30 -->
<g id="edge37" class="edge">
<title>Node21&#45;&gt;Node30</title>
<path fill="none" stroke="midnightblue" d="M885.67,-281.88C888.99,-281.24 892.28,-280.61 895.5,-280 959.7,-267.82 1033.46,-254.34 1083.13,-245.34"/>
<polygon fill="midnightblue" stroke="midnightblue" points="1083.83,-248.77 1093.04,-243.54 1082.58,-241.88 1083.83,-248.77"/>
</g>
</g>
</svg>
        <g id="navigator" transform="translate(0 0)" fill="#404254">
                <rect fill="#f2f5e9" fill-opacity="0.5" stroke="#606060" stroke-width=".5" x="0" y="0" width="60" height="60"/>
                <use id="zoomplus" xlink:href="#zoomPlus" x="17" y="9" onmousedown="handleZoom(evt,'in')"/>
                <use id="zoomminus" xlink:href="#zoomMin" x="42" y="9" onmousedown="handleZoom(evt,'out')"/>
                <use id="reset" xlink:href="#resetDef" x="30" y="36" onmousedown="handleReset()"/>
                <g id="arrowUp" xlink:href="#dirArrow" transform="translate(30 24)" onmousedown="handlePan(0,-1)">
                  <use xlink:href="#rim" fill="#404040">
                        <set attributeName="fill" to="#808080" begin="arrowUp.mouseover" end="arrowUp.mouseout"/>
                  </use>
                  <path fill="none" stroke="white" stroke-width="1.5" d="M0,-3.0v7 M-2.5,-0.5L0,-3.0L2.5,-0.5"/>
                </g>
                <g id="arrowRight" xlink:href="#dirArrow" transform="rotate(90) translate(36 -43)" onmousedown="handlePan(1,0)">
                  <use xlink:href="#rim" fill="#404040">
                        <set attributeName="fill" to="#808080" begin="arrowRight.mouseover" end="arrowRight.mouseout"/>
                  </use>
                  <path fill="none" stroke="white" stroke-width="1.5" d="M0,-3.0v7 M-2.5,-0.5L0,-3.0L2.5,-0.5"/>
                </g>
                <g id="arrowDown" xlink:href="#dirArrow" transform="rotate(180) translate(-30 -48)" onmousedown="handlePan(0,1)">
                  <use xlink:href="#rim" fill="#404040">
                        <set attributeName="fill" to="#808080" begin="arrowDown.mouseover" end="arrowDown.mouseout"/>
                  </use>
                  <path fill="none" stroke="white" stroke-width="1.5" d="M0,-3.0v7 M-2.5,-0.5L0,-3.0L2.5,-0.5"/>
                </g>
                <g id="arrowLeft" xlink:href="#dirArrow" transform="rotate(270) translate(-36 17)" onmousedown="handlePan(-1,0)">
                  <use xlink:href="#rim" fill="#404040">
                        <set attributeName="fill" to="#808080" begin="arrowLeft.mouseover" end="arrowLeft.mouseout"/>
                  </use>
                  <path fill="none" stroke="white" stroke-width="1.5" d="M0,-3.0v7 M-2.5,-0.5L0,-3.0L2.5,-0.5"/>
                </g>
        </g>
        <svg viewBox="0 0 15 15" width="100%" height="30px" preserveAspectRatio="xMaxYMin meet">
         <g id="arrow_out" transform="scale(0.3 0.3)">
          <a xlink:href="csr_8h__incl_org.svg" target="_base">
           <rect id="button" ry="5" rx="5" y="6" x="6" height="38" width="38"
                fill="#f2f5e9" fill-opacity="0.5" stroke="#606060" stroke-width="1.0"/>
           <path id="arrow"
             d="M 11.500037,31.436501 C 11.940474,20.09759 22.043105,11.32322 32.158766,21.979434 L 37.068811,17.246167 C 37.068811,17.246167 37.088388,32 37.088388,32 L 22.160133,31.978069 C 22.160133,31.978069 26.997745,27.140456 26.997745,27.140456 C 18.528582,18.264221 13.291696,25.230495 11.500037,31.436501 z"
             style="fill:#404040;"/>
          </a>
         </g>
        </svg>
</svg>
