<?xml version="1.0" encoding="UTF-8" standalone="no"?>
<!DOCTYPE svg PUBLIC "-//W3C//DTD SVG 1.1//EN"
 "http://www.w3.org/Graphics/SVG/1.1/DTD/svg11.dtd">
<!-- Generated by graphviz version 2.43.0 (0)
 -->
<!-- Title: src/service/tables Pages: 1 -->
<svg width="352pt" height="151pt"
 viewBox="0.00 0.00 352.00 151.00" xmlns="http://www.w3.org/2000/svg" xmlns:xlink="http://www.w3.org/1999/xlink">
<g id="graph0" class="graph" transform="scale(1 1) rotate(0) translate(4 147)">
<title>src/service/tables</title>
<polygon fill="white" stroke="transparent" points="-4,4 -4,-147 348,-147 348,4 -4,4"/>
<g id="clust1" class="cluster">
<title>clusterdir_4f691f982165d1317925cee58b4b4f56</title>
<g id="a_clust1"><a xlink:href="dir_4f691f982165d1317925cee58b4b4f56.html" target="_top" xlink:title="service">
<polygon fill="#edf0f7" stroke="#7f7f7f" stroke-dasharray="5,2" points="136,-64 136,-135 206,-135 206,-64 136,-64"/>
<text text-anchor="middle" x="171" y="-123" font-family="Helvetica,sans-Serif" font-size="10.00">service</text>
</a>
</g>
</g>
<!-- dir_190b1a7091905d6645ff11527a73ae33 -->
<g id="node1" class="node">
<title>dir_190b1a7091905d6645ff11527a73ae33</title>
<g id="a_node1"><a xlink:href="dir_190b1a7091905d6645ff11527a73ae33.html" target="_top" xlink:title="tables">
<polygon fill="#edf0f7" stroke="#404040" stroke-width="2" points="198,-108 144,-108 144,-72 198,-72 198,-108"/>
<text text-anchor="middle" x="171" y="-87.5" font-family="Helvetica,sans-Serif" font-size="10.00">tables</text>
</a>
</g>
</g>
<!-- dir_122f4add68bb94b3fee614989bbbd8f9 -->
<g id="node2" class="node">
<title>dir_122f4add68bb94b3fee614989bbbd8f9</title>
<g id="a_node2"><a xlink:href="dir_122f4add68bb94b3fee614989bbbd8f9.html" target="_top" xlink:title="ds">
<polygon fill="none" stroke="#7f7f7f" points="54,-36 0,-36 0,0 54,0 54,-36"/>
<text text-anchor="middle" x="27" y="-15.5" font-family="Helvetica,sans-Serif" font-size="10.00">ds</text>
</a>
</g>
</g>
<!-- dir_190b1a7091905d6645ff11527a73ae33&#45;&gt;dir_122f4add68bb94b3fee614989bbbd8f9 -->
<g id="edge1" class="edge">
<title>dir_190b1a7091905d6645ff11527a73ae33&#45;&gt;dir_122f4add68bb94b3fee614989bbbd8f9</title>
<path fill="none" stroke="black" d="M143.91,-75.83C121.23,-64.81 88.64,-48.97 63.63,-36.81"/>
<polygon fill="black" stroke="black" points="64.98,-33.57 54.45,-32.35 61.92,-39.87 64.98,-33.57"/>
<g id="a_edge1&#45;headlabel"><a xlink:href="dir_000044_000014.html" target="_top" xlink:title="1">
<text text-anchor="middle" x="69.45" y="-30.09" font-family="Helvetica,sans-Serif" font-size="10.00">1</text>
</a>
</g>
</g>
<!-- dir_4261af1259721e3e39e0d2dd7354b511 -->
<g id="node3" class="node">
<title>dir_4261af1259721e3e39e0d2dd7354b511</title>
<g id="a_node3"><a xlink:href="dir_4261af1259721e3e39e0d2dd7354b511.html" target="_top" xlink:title="crypto">
<polygon fill="none" stroke="red" stroke-dasharray="5,2" points="126,-36 72,-36 72,0 126,0 126,-36"/>
<text text-anchor="middle" x="99" y="-15.5" font-family="Helvetica,sans-Serif" font-size="10.00">crypto</text>
</a>
</g>
</g>
<!-- dir_190b1a7091905d6645ff11527a73ae33&#45;&gt;dir_4261af1259721e3e39e0d2dd7354b511 -->
<g id="edge2" class="edge">
<title>dir_190b1a7091905d6645ff11527a73ae33&#45;&gt;dir_4261af1259721e3e39e0d2dd7354b511</title>
<path fill="none" stroke="black" d="M153.2,-71.7C144.4,-63.14 133.62,-52.66 124,-43.3"/>
<polygon fill="black" stroke="black" points="126.2,-40.57 116.59,-36.1 121.32,-45.58 126.2,-40.57"/>
<g id="a_edge2&#45;headlabel"><a xlink:href="dir_000044_000012.html" target="_top" xlink:title="1">
<text text-anchor="middle" x="130.76" y="-38.54" font-family="Helvetica,sans-Serif" font-size="10.00">1</text>
</a>
</g>
</g>
<!-- dir_4c8befd6991d7a2e9d66c427274b8c22 -->
<g id="node4" class="node">
<title>dir_4c8befd6991d7a2e9d66c427274b8c22</title>
<g id="a_node4"><a xlink:href="dir_4c8befd6991d7a2e9d66c427274b8c22.html" target="_top" xlink:title="kv">
<polygon fill="none" stroke="#7f7f7f" points="198,-36 144,-36 144,0 198,0 198,-36"/>
<text text-anchor="middle" x="171" y="-15.5" font-family="Helvetica,sans-Serif" font-size="10.00">kv</text>
</a>
</g>
</g>
<!-- dir_190b1a7091905d6645ff11527a73ae33&#45;&gt;dir_4c8befd6991d7a2e9d66c427274b8c22 -->
<g id="edge3" class="edge">
<title>dir_190b1a7091905d6645ff11527a73ae33&#45;&gt;dir_4c8befd6991d7a2e9d66c427274b8c22</title>
<path fill="none" stroke="black" d="M171,-71.7C171,-63.98 171,-54.71 171,-46.11"/>
<polygon fill="black" stroke="black" points="174.5,-46.1 171,-36.1 167.5,-46.1 174.5,-46.1"/>
<g id="a_edge3&#45;headlabel"><a xlink:href="dir_000044_000028.html" target="_top" xlink:title="3">
<text text-anchor="middle" x="177.34" y="-47.2" font-family="Helvetica,sans-Serif" font-size="10.00">3</text>
</a>
</g>
</g>
<!-- dir_5427940bb9029915fc0c11c1284afde6 -->
<g id="node5" class="node">
<title>dir_5427940bb9029915fc0c11c1284afde6</title>
<g id="a_node5"><a xlink:href="dir_5427940bb9029915fc0c11c1284afde6.html" target="_top" xlink:title="enclave">
<polygon fill="none" stroke="#7f7f7f" points="271.5,-36 216.5,-36 216.5,0 271.5,0 271.5,-36"/>
<text text-anchor="middle" x="244" y="-15.5" font-family="Helvetica,sans-Serif" font-size="10.00">enclave</text>
</a>
</g>
</g>
<!-- dir_190b1a7091905d6645ff11527a73ae33&#45;&gt;dir_5427940bb9029915fc0c11c1284afde6 -->
<g id="edge4" class="edge">
<title>dir_190b1a7091905d6645ff11527a73ae33&#45;&gt;dir_5427940bb9029915fc0c11c1284afde6</title>
<path fill="none" stroke="black" d="M189.04,-71.7C198.06,-63.05 209.12,-52.45 218.94,-43.03"/>
<polygon fill="black" stroke="black" points="221.37,-45.55 226.16,-36.1 216.52,-40.5 221.37,-45.55"/>
<g id="a_edge4&#45;headlabel"><a xlink:href="dir_000044_000015.html" target="_top" xlink:title="2">
<text text-anchor="middle" x="220.74" y="-47.59" font-family="Helvetica,sans-Serif" font-size="10.00">2</text>
</a>
</g>
</g>
<!-- dir_d44c64559bbebec7f509842c48db8b23 -->
<g id="node6" class="node">
<title>dir_d44c64559bbebec7f509842c48db8b23</title>
<g id="a_node6"><a xlink:href="dir_d44c64559bbebec7f509842c48db8b23.html" target="_top" xlink:title="include">
<polygon fill="none" stroke="red" points="344,-36 290,-36 290,0 344,0 344,-36"/>
<text text-anchor="middle" x="317" y="-15.5" font-family="Helvetica,sans-Serif" font-size="10.00">include</text>
</a>
</g>
</g>
<!-- dir_190b1a7091905d6645ff11527a73ae33&#45;&gt;dir_d44c64559bbebec7f509842c48db8b23 -->
<g id="edge5" class="edge">
<title>dir_190b1a7091905d6645ff11527a73ae33&#45;&gt;dir_d44c64559bbebec7f509842c48db8b23</title>
<path fill="none" stroke="black" d="M198.12,-76C221.33,-64.87 254.94,-48.75 280.51,-36.5"/>
<polygon fill="black" stroke="black" points="282.03,-39.65 289.53,-32.17 279,-33.34 282.03,-39.65"/>
<g id="a_edge5&#45;headlabel"><a xlink:href="dir_000044_000021.html" target="_top" xlink:title="18">
<text text-anchor="middle" x="280.01" y="-41.26" font-family="Helvetica,sans-Serif" font-size="10.00">18</text>
</a>
</g>
</g>
</g>
</svg>
