<?xml version="1.0" encoding="UTF-8" standalone="no"?>
<!DOCTYPE svg PUBLIC "-//W3C//DTD SVG 1.1//EN"
 "http://www.w3.org/Graphics/SVG/1.1/DTD/svg11.dtd">
<!-- Generated by graphviz version 2.43.0 (0)
 -->
<!-- Title: src/service Pages: 1 -->
<svg width="368pt" height="247pt"
 viewBox="0.00 0.00 368.00 247.00" xmlns="http://www.w3.org/2000/svg" xmlns:xlink="http://www.w3.org/1999/xlink">
<g id="graph0" class="graph" transform="scale(1 1) rotate(0) translate(4 243)">
<title>src/service</title>
<polygon fill="white" stroke="transparent" points="-4,4 -4,-243 364,-243 364,4 -4,4"/>
<g id="clust1" class="cluster">
<title>clusterdir_68267d1309a1af8e8297ef4c3efbcdba</title>
<g id="a_clust1"><a xlink:href="dir_68267d1309a1af8e8297ef4c3efbcdba.html" target="_top" xlink:title="src">
<polygon fill="#edf0f7" stroke="#404040" stroke-dasharray="5,2" points="8,-8 8,-231 296,-231 296,-8 8,-8"/>
<text text-anchor="middle" x="152" y="-219" font-family="Helvetica,sans-Serif" font-size="10.00">src</text>
</a>
</g>
</g>
<g id="clust2" class="cluster">
<title>clusterdir_4f691f982165d1317925cee58b4b4f56</title>
<g id="a_clust2"><a xlink:href="dir_4f691f982165d1317925cee58b4b4f56.html" target="_top">
<polygon fill="#edf0f7" stroke="#404040" stroke-width="2" points="48,-80 48,-204 118,-204 118,-80 48,-80"/>
</a>
</g>
</g>
<!-- dir_18ae7af74d885898b85cbb543ae51b63 -->
<g id="node1" class="node">
<title>dir_18ae7af74d885898b85cbb543ae51b63</title>
<g id="a_node1"><a xlink:href="dir_18ae7af74d885898b85cbb543ae51b63.html" target="_top" xlink:title="node">
<polygon fill="#a2b4d6" stroke="red" points="288,-124 234,-124 234,-88 288,-88 288,-124"/>
<text text-anchor="middle" x="261" y="-103.5" font-family="Helvetica,sans-Serif" font-size="10.00">node</text>
</a>
</g>
</g>
<!-- dir_4c8befd6991d7a2e9d66c427274b8c22 -->
<g id="node2" class="node">
<title>dir_4c8befd6991d7a2e9d66c427274b8c22</title>
<g id="a_node2"><a xlink:href="dir_4c8befd6991d7a2e9d66c427274b8c22.html" target="_top" xlink:title="kv">
<polygon fill="#a2b4d6" stroke="#404040" points="288,-52 234,-52 234,-16 288,-16 288,-52"/>
<text text-anchor="middle" x="261" y="-31.5" font-family="Helvetica,sans-Serif" font-size="10.00">kv</text>
</a>
</g>
</g>
<!-- dir_dee301ab18d354d094fb7852349ef839 -->
<g id="node3" class="node">
<title>dir_dee301ab18d354d094fb7852349ef839</title>
<g id="a_node3"><a xlink:href="dir_dee301ab18d354d094fb7852349ef839.html" target="_top" xlink:title="consensus">
<polygon fill="#a2b4d6" stroke="red" points="216,-124 148,-124 148,-88 216,-88 216,-124"/>
<text text-anchor="middle" x="182" y="-103.5" font-family="Helvetica,sans-Serif" font-size="10.00">consensus</text>
</a>
</g>
</g>
<!-- dir_4261af1259721e3e39e0d2dd7354b511 -->
<g id="node4" class="node">
<title>dir_4261af1259721e3e39e0d2dd7354b511</title>
<g id="a_node4"><a xlink:href="dir_4261af1259721e3e39e0d2dd7354b511.html" target="_top" xlink:title="crypto">
<polygon fill="#a2b4d6" stroke="red" points="70,-52 16,-52 16,-16 70,-16 70,-52"/>
<text text-anchor="middle" x="43" y="-31.5" font-family="Helvetica,sans-Serif" font-size="10.00">crypto</text>
</a>
</g>
</g>
<!-- dir_5427940bb9029915fc0c11c1284afde6 -->
<g id="node5" class="node">
<title>dir_5427940bb9029915fc0c11c1284afde6</title>
<g id="a_node5"><a xlink:href="dir_5427940bb9029915fc0c11c1284afde6.html" target="_top" xlink:title="enclave">
<polygon fill="#a2b4d6" stroke="#404040" points="143.5,-52 88.5,-52 88.5,-16 143.5,-16 143.5,-52"/>
<text text-anchor="middle" x="116" y="-31.5" font-family="Helvetica,sans-Serif" font-size="10.00">enclave</text>
</a>
</g>
</g>
<!-- dir_122f4add68bb94b3fee614989bbbd8f9 -->
<g id="node6" class="node">
<title>dir_122f4add68bb94b3fee614989bbbd8f9</title>
<g id="a_node6"><a xlink:href="dir_122f4add68bb94b3fee614989bbbd8f9.html" target="_top" xlink:title="ds">
<polygon fill="#a2b4d6" stroke="#404040" points="216,-52 162,-52 162,-16 216,-16 216,-52"/>
<text text-anchor="middle" x="189" y="-31.5" font-family="Helvetica,sans-Serif" font-size="10.00">ds</text>
</a>
</g>
</g>
<!-- dir_4f691f982165d1317925cee58b4b4f56 -->
<g id="node7" class="node">
<title>dir_4f691f982165d1317925cee58b4b4f56</title>
<text text-anchor="middle" x="83" y="-175.5" font-family="Helvetica,sans-Serif" font-size="10.00">service</text>
</g>
<!-- dir_4f691f982165d1317925cee58b4b4f56&#45;&gt;dir_18ae7af74d885898b85cbb543ae51b63 -->
<g id="edge1" class="edge">
<title>dir_4f691f982165d1317925cee58b4b4f56&#45;&gt;dir_18ae7af74d885898b85cbb543ae51b63</title>
<path fill="none" stroke="black" d="M110.22,-167.61C137.15,-158.15 179.67,-142.77 224.65,-123.99"/>
<polygon fill="black" stroke="black" points="226.13,-127.16 233.98,-120.06 223.41,-120.71 226.13,-127.16"/>
<g id="a_edge1&#45;headlabel"><a xlink:href="dir_000039_000032.html" target="_top" xlink:title="1">
<text text-anchor="middle" x="223.92" y="-128.68" font-family="Helvetica,sans-Serif" font-size="10.00">1</text>
</a>
</g>
</g>
<!-- dir_4f691f982165d1317925cee58b4b4f56&#45;&gt;dir_4c8befd6991d7a2e9d66c427274b8c22 -->
<g id="edge3" class="edge">
<title>dir_4f691f982165d1317925cee58b4b4f56&#45;&gt;dir_4c8befd6991d7a2e9d66c427274b8c22</title>
<path fill="none" stroke="black" d="M95.77,-159.81C103.03,-149.66 112.03,-136.41 119,-124 129.52,-105.27 122.99,-94.32 139,-80 166.74,-55.2 184.81,-65.03 223.83,-51.97"/>
<polygon fill="black" stroke="black" points="225.47,-55.1 233.64,-48.36 223.05,-48.53 225.47,-55.1"/>
<g id="a_edge3&#45;headlabel"><a xlink:href="dir_000039_000028.html" target="_top" xlink:title="4">
<text text-anchor="middle" x="223.08" y="-56.51" font-family="Helvetica,sans-Serif" font-size="10.00">4</text>
</a>
</g>
</g>
<!-- dir_4f691f982165d1317925cee58b4b4f56&#45;&gt;dir_dee301ab18d354d094fb7852349ef839 -->
<g id="edge5" class="edge">
<title>dir_4f691f982165d1317925cee58b4b4f56&#45;&gt;dir_dee301ab18d354d094fb7852349ef839</title>
<path fill="none" stroke="black" d="M107.22,-159.88C119.92,-150.89 135.66,-139.76 149.42,-130.03"/>
<polygon fill="black" stroke="black" points="151.54,-132.82 157.69,-124.19 147.5,-127.11 151.54,-132.82"/>
<g id="a_edge5&#45;headlabel"><a xlink:href="dir_000039_000010.html" target="_top" xlink:title="3">
<text text-anchor="middle" x="150.25" y="-134.71" font-family="Helvetica,sans-Serif" font-size="10.00">3</text>
</a>
</g>
</g>
<!-- dir_190b1a7091905d6645ff11527a73ae33 -->
<g id="node8" class="node">
<title>dir_190b1a7091905d6645ff11527a73ae33</title>
<g id="a_node8"><a xlink:href="dir_190b1a7091905d6645ff11527a73ae33.html" target="_top" xlink:title="tables">
<polygon fill="#a2b4d6" stroke="#404040" points="110,-124 56,-124 56,-88 110,-88 110,-124"/>
<text text-anchor="middle" x="83" y="-103.5" font-family="Helvetica,sans-Serif" font-size="10.00">tables</text>
</a>
</g>
</g>
<!-- dir_4f691f982165d1317925cee58b4b4f56&#45;&gt;dir_190b1a7091905d6645ff11527a73ae33 -->
<g id="edge2" class="edge">
<title>dir_4f691f982165d1317925cee58b4b4f56&#45;&gt;dir_190b1a7091905d6645ff11527a73ae33</title>
<path fill="none" stroke="black" d="M83,-159.7C83,-151.98 83,-142.71 83,-134.11"/>
<polygon fill="black" stroke="black" points="86.5,-134.1 83,-124.1 79.5,-134.1 86.5,-134.1"/>
<g id="a_edge2&#45;headlabel"><a xlink:href="dir_000039_000044.html" target="_top" xlink:title="11">
<text text-anchor="middle" x="89.34" y="-135.2" font-family="Helvetica,sans-Serif" font-size="10.00">11</text>
</a>
</g>
</g>
<!-- dir_d44c64559bbebec7f509842c48db8b23 -->
<g id="node9" class="node">
<title>dir_d44c64559bbebec7f509842c48db8b23</title>
<g id="a_node9"><a xlink:href="dir_d44c64559bbebec7f509842c48db8b23.html" target="_top" xlink:title="include">
<polygon fill="none" stroke="red" points="360,-52 306,-52 306,-16 360,-16 360,-52"/>
<text text-anchor="middle" x="333" y="-31.5" font-family="Helvetica,sans-Serif" font-size="10.00">include</text>
</a>
</g>
</g>
<!-- dir_4f691f982165d1317925cee58b4b4f56&#45;&gt;dir_d44c64559bbebec7f509842c48db8b23 -->
<g id="edge4" class="edge">
<title>dir_4f691f982165d1317925cee58b4b4f56&#45;&gt;dir_d44c64559bbebec7f509842c48db8b23</title>
<path fill="none" stroke="black" d="M110.08,-173.58C161.77,-166.56 271.91,-149.02 300,-124 317.73,-108.21 325.96,-81.99 329.76,-62.09"/>
<polygon fill="black" stroke="black" points="333.24,-62.51 331.41,-52.08 326.33,-61.37 333.24,-62.51"/>
<g id="a_edge4&#45;headlabel"><a xlink:href="dir_000039_000021.html" target="_top" xlink:title="34">
<text text-anchor="middle" x="335.46" y="-64.02" font-family="Helvetica,sans-Serif" font-size="10.00">34</text>
</a>
</g>
</g>
<!-- dir_190b1a7091905d6645ff11527a73ae33&#45;&gt;dir_4c8befd6991d7a2e9d66c427274b8c22 -->
<g id="edge8" class="edge">
<title>dir_190b1a7091905d6645ff11527a73ae33&#45;&gt;dir_4c8befd6991d7a2e9d66c427274b8c22</title>
<path fill="none" stroke="black" d="M101.79,-87.75C105.63,-84.85 109.79,-82.1 114,-80 156.86,-58.61 174.95,-67.89 224.15,-51.86"/>
<polygon fill="black" stroke="black" points="225.4,-55.13 233.71,-48.56 223.12,-48.51 225.4,-55.13"/>
<g id="a_edge8&#45;headlabel"><a xlink:href="dir_000044_000028.html" target="_top" xlink:title="3">
<text text-anchor="middle" x="222.93" y="-56.48" font-family="Helvetica,sans-Serif" font-size="10.00">3</text>
</a>
</g>
</g>
<!-- dir_190b1a7091905d6645ff11527a73ae33&#45;&gt;dir_4261af1259721e3e39e0d2dd7354b511 -->
<g id="edge7" class="edge">
<title>dir_190b1a7091905d6645ff11527a73ae33&#45;&gt;dir_4261af1259721e3e39e0d2dd7354b511</title>
<path fill="none" stroke="black" d="M73.11,-87.7C68.51,-79.64 62.94,-69.89 57.85,-60.98"/>
<polygon fill="black" stroke="black" points="60.77,-59.05 52.77,-52.1 54.7,-62.52 60.77,-59.05"/>
<g id="a_edge7&#45;headlabel"><a xlink:href="dir_000044_000012.html" target="_top" xlink:title="1">
<text text-anchor="middle" x="65.02" y="-58.26" font-family="Helvetica,sans-Serif" font-size="10.00">1</text>
</a>
</g>
</g>
<!-- dir_190b1a7091905d6645ff11527a73ae33&#45;&gt;dir_5427940bb9029915fc0c11c1284afde6 -->
<g id="edge9" class="edge">
<title>dir_190b1a7091905d6645ff11527a73ae33&#45;&gt;dir_5427940bb9029915fc0c11c1284afde6</title>
<path fill="none" stroke="black" d="M91.16,-87.7C94.91,-79.73 99.45,-70.1 103.62,-61.26"/>
<polygon fill="black" stroke="black" points="106.84,-62.64 107.94,-52.1 100.51,-59.66 106.84,-62.64"/>
<g id="a_edge9&#45;headlabel"><a xlink:href="dir_000044_000015.html" target="_top" xlink:title="2">
<text text-anchor="middle" x="107.87" y="-64.6" font-family="Helvetica,sans-Serif" font-size="10.00">2</text>
</a>
</g>
</g>
<!-- dir_190b1a7091905d6645ff11527a73ae33&#45;&gt;dir_122f4add68bb94b3fee614989bbbd8f9 -->
<g id="edge6" class="edge">
<title>dir_190b1a7091905d6645ff11527a73ae33&#45;&gt;dir_122f4add68bb94b3fee614989bbbd8f9</title>
<path fill="none" stroke="black" d="M103.37,-87.92C106.85,-85.19 110.49,-82.45 114,-80 126.32,-71.4 140.33,-62.72 152.87,-55.31"/>
<polygon fill="black" stroke="black" points="154.83,-58.22 161.7,-50.16 151.3,-52.17 154.83,-58.22"/>
<g id="a_edge6&#45;headlabel"><a xlink:href="dir_000044_000014.html" target="_top" xlink:title="1">
<text text-anchor="middle" x="153.15" y="-59.98" font-family="Helvetica,sans-Serif" font-size="10.00">1</text>
</a>
</g>
</g>
<!-- dir_190b1a7091905d6645ff11527a73ae33&#45;&gt;dir_d44c64559bbebec7f509842c48db8b23 -->
<g id="edge10" class="edge">
<title>dir_190b1a7091905d6645ff11527a73ae33&#45;&gt;dir_d44c64559bbebec7f509842c48db8b23</title>
<path fill="none" stroke="black" d="M100.96,-87.92C105,-84.86 109.44,-82 114,-80 187.54,-47.68 218.04,-75.36 296.16,-52.82"/>
<polygon fill="black" stroke="black" points="297.4,-56.1 305.93,-49.81 295.34,-49.41 297.4,-56.1"/>
<g id="a_edge10&#45;headlabel"><a xlink:href="dir_000044_000021.html" target="_top" xlink:title="18">
<text text-anchor="middle" x="294.8" y="-57.37" font-family="Helvetica,sans-Serif" font-size="10.00">18</text>
</a>
</g>
</g>
</g>
</svg>
