<?xml version="1.0" encoding="UTF-8" standalone="no"?>
<!DOCTYPE svg PUBLIC "-//W3C//DTD SVG 1.1//EN"
 "http://www.w3.org/Graphics/SVG/1.1/DTD/svg11.dtd">
<!-- Generated by graphviz version 2.43.0 (0)
 -->
<!-- Title: src/apps/js_v8 Pages: 1 -->
<svg width="350pt" height="231pt"
 viewBox="0.00 0.00 350.00 231.00" xmlns="http://www.w3.org/2000/svg" xmlns:xlink="http://www.w3.org/1999/xlink">
<g id="graph0" class="graph" transform="scale(1 1) rotate(0) translate(4 227)">
<title>src/apps/js_v8</title>
<polygon fill="white" stroke="transparent" points="-4,4 -4,-227 346,-227 346,4 -4,4"/>
<g id="clust1" class="cluster">
<title>clusterdir_53adf0b982dc8545998aae3f283a5a58</title>
<g id="a_clust1"><a xlink:href="dir_53adf0b982dc8545998aae3f283a5a58.html" target="_top" xlink:title="apps">
<polygon fill="#edf0f7" stroke="#7f7f7f" stroke-dasharray="5,2" points="67,-56 67,-215 153,-215 153,-56 67,-56"/>
<text text-anchor="middle" x="110" y="-203" font-family="Helvetica,sans-Serif" font-size="10.00">apps</text>
</a>
</g>
</g>
<g id="clust2" class="cluster">
<title>clusterdir_5ec96c263edeb1f5d9ccb226980a5a7c</title>
<g id="a_clust2"><a xlink:href="dir_5ec96c263edeb1f5d9ccb226980a5a7c.html" target="_top">
<polygon fill="#edf0f7" stroke="#404040" stroke-width="2" points="75,-64 75,-188 145,-188 145,-64 75,-64"/>
</a>
</g>
</g>
<!-- dir_5ec96c263edeb1f5d9ccb226980a5a7c -->
<g id="node1" class="node">
<title>dir_5ec96c263edeb1f5d9ccb226980a5a7c</title>
<text text-anchor="middle" x="110" y="-159.5" font-family="Helvetica,sans-Serif" font-size="10.00">js_v8</text>
</g>
<!-- dir_05ff0118862a1fc666797322db30f5d5 -->
<g id="node2" class="node">
<title>dir_05ff0118862a1fc666797322db30f5d5</title>
<g id="a_node2"><a xlink:href="dir_05ff0118862a1fc666797322db30f5d5.html" target="_top" xlink:title="tmpl">
<polygon fill="#a2b4d6" stroke="#404040" points="137,-108 83,-108 83,-72 137,-72 137,-108"/>
<text text-anchor="middle" x="110" y="-87.5" font-family="Helvetica,sans-Serif" font-size="10.00">tmpl</text>
</a>
</g>
</g>
<!-- dir_5ec96c263edeb1f5d9ccb226980a5a7c&#45;&gt;dir_05ff0118862a1fc666797322db30f5d5 -->
<g id="edge1" class="edge">
<title>dir_5ec96c263edeb1f5d9ccb226980a5a7c&#45;&gt;dir_05ff0118862a1fc666797322db30f5d5</title>
<path fill="none" stroke="black" d="M110,-143.7C110,-135.98 110,-126.71 110,-118.11"/>
<polygon fill="black" stroke="black" points="113.5,-118.1 110,-108.1 106.5,-118.1 113.5,-118.1"/>
<g id="a_edge1&#45;headlabel"><a xlink:href="dir_000026_000046.html" target="_top" xlink:title="3">
<text text-anchor="middle" x="116.34" y="-119.2" font-family="Helvetica,sans-Serif" font-size="10.00">3</text>
</a>
</g>
</g>
<!-- dir_4c8befd6991d7a2e9d66c427274b8c22 -->
<g id="node3" class="node">
<title>dir_4c8befd6991d7a2e9d66c427274b8c22</title>
<g id="a_node3"><a xlink:href="dir_4c8befd6991d7a2e9d66c427274b8c22.html" target="_top" xlink:title="kv">
<polygon fill="none" stroke="#7f7f7f" points="54,-36 0,-36 0,0 54,0 54,-36"/>
<text text-anchor="middle" x="27" y="-15.5" font-family="Helvetica,sans-Serif" font-size="10.00">kv</text>
</a>
</g>
</g>
<!-- dir_5ec96c263edeb1f5d9ccb226980a5a7c&#45;&gt;dir_4c8befd6991d7a2e9d66c427274b8c22 -->
<g id="edge2" class="edge">
<title>dir_5ec96c263edeb1f5d9ccb226980a5a7c&#45;&gt;dir_4c8befd6991d7a2e9d66c427274b8c22</title>
<path fill="none" stroke="black" d="M97.5,-143.65C90.34,-133.45 81.34,-120.2 74,-108 61.62,-87.4 48.98,-63.25 39.93,-45.31"/>
<polygon fill="black" stroke="black" points="42.89,-43.42 35.29,-36.04 36.63,-46.55 42.89,-43.42"/>
<g id="a_edge2&#45;headlabel"><a xlink:href="dir_000026_000028.html" target="_top" xlink:title="2">
<text text-anchor="middle" x="47.04" y="-42.86" font-family="Helvetica,sans-Serif" font-size="10.00">2</text>
</a>
</g>
</g>
<!-- dir_4f691f982165d1317925cee58b4b4f56 -->
<g id="node4" class="node">
<title>dir_4f691f982165d1317925cee58b4b4f56</title>
<g id="a_node4"><a xlink:href="dir_4f691f982165d1317925cee58b4b4f56.html" target="_top" xlink:title="service">
<polygon fill="none" stroke="red" stroke-dasharray="5,2" points="215,-108 161,-108 161,-72 215,-72 215,-108"/>
<text text-anchor="middle" x="188" y="-87.5" font-family="Helvetica,sans-Serif" font-size="10.00">service</text>
</a>
</g>
</g>
<!-- dir_5ec96c263edeb1f5d9ccb226980a5a7c&#45;&gt;dir_4f691f982165d1317925cee58b4b4f56 -->
<g id="edge3" class="edge">
<title>dir_5ec96c263edeb1f5d9ccb226980a5a7c&#45;&gt;dir_4f691f982165d1317925cee58b4b4f56</title>
<path fill="none" stroke="black" d="M129.28,-143.7C138.92,-135.05 150.73,-124.45 161.23,-115.03"/>
<polygon fill="black" stroke="black" points="163.84,-117.39 168.94,-108.1 159.16,-112.18 163.84,-117.39"/>
<g id="a_edge3&#45;headlabel"><a xlink:href="dir_000026_000039.html" target="_top" xlink:title="2">
<text text-anchor="middle" x="163.06" y="-119.4" font-family="Helvetica,sans-Serif" font-size="10.00">2</text>
</a>
</g>
</g>
<!-- dir_84e79ac80b913c2fb5b9e077744e9498 -->
<g id="node5" class="node">
<title>dir_84e79ac80b913c2fb5b9e077744e9498</title>
<g id="a_node5"><a xlink:href="dir_84e79ac80b913c2fb5b9e077744e9498.html" target="_top" xlink:title="host">
<polygon fill="none" stroke="#7f7f7f" points="287,-108 233,-108 233,-72 287,-72 287,-108"/>
<text text-anchor="middle" x="260" y="-87.5" font-family="Helvetica,sans-Serif" font-size="10.00">host</text>
</a>
</g>
</g>
<!-- dir_5ec96c263edeb1f5d9ccb226980a5a7c&#45;&gt;dir_84e79ac80b913c2fb5b9e077744e9498 -->
<g id="edge4" class="edge">
<title>dir_5ec96c263edeb1f5d9ccb226980a5a7c&#45;&gt;dir_84e79ac80b913c2fb5b9e077744e9498</title>
<path fill="none" stroke="black" d="M137.2,-148.41C158.41,-138.58 188.84,-124.45 223.49,-108.23"/>
<polygon fill="black" stroke="black" points="225.31,-111.24 232.88,-103.83 222.34,-104.9 225.31,-111.24"/>
<g id="a_edge4&#45;headlabel"><a xlink:href="dir_000026_000018.html" target="_top" xlink:title="1">
<text text-anchor="middle" x="223.26" y="-112.84" font-family="Helvetica,sans-Serif" font-size="10.00">1</text>
</a>
</g>
</g>
<!-- dir_d44c64559bbebec7f509842c48db8b23 -->
<g id="node6" class="node">
<title>dir_d44c64559bbebec7f509842c48db8b23</title>
<g id="a_node6"><a xlink:href="dir_d44c64559bbebec7f509842c48db8b23.html" target="_top" xlink:title="include">
<polygon fill="none" stroke="red" points="342,-36 288,-36 288,0 342,0 342,-36"/>
<text text-anchor="middle" x="315" y="-15.5" font-family="Helvetica,sans-Serif" font-size="10.00">include</text>
</a>
</g>
</g>
<!-- dir_5ec96c263edeb1f5d9ccb226980a5a7c&#45;&gt;dir_d44c64559bbebec7f509842c48db8b23 -->
<g id="edge5" class="edge">
<title>dir_5ec96c263edeb1f5d9ccb226980a5a7c&#45;&gt;dir_d44c64559bbebec7f509842c48db8b23</title>
<path fill="none" stroke="black" d="M137.18,-161.46C177.86,-160.6 254.27,-152.64 296,-108 311.39,-91.54 315.53,-65.81 316.18,-46.23"/>
<polygon fill="black" stroke="black" points="319.68,-46.11 316.23,-36.09 312.68,-46.07 319.68,-46.11"/>
<g id="a_edge5&#45;headlabel"><a xlink:href="dir_000026_000021.html" target="_top" xlink:title="48">
<text text-anchor="middle" x="322.5" y="-47.22" font-family="Helvetica,sans-Serif" font-size="10.00">48</text>
</a>
</g>
</g>
<!-- dir_05ff0118862a1fc666797322db30f5d5&#45;&gt;dir_4c8befd6991d7a2e9d66c427274b8c22 -->
<g id="edge8" class="edge">
<title>dir_05ff0118862a1fc666797322db30f5d5&#45;&gt;dir_4c8befd6991d7a2e9d66c427274b8c22</title>
<path fill="none" stroke="black" d="M89.48,-71.7C79.13,-62.97 66.41,-52.24 55.16,-42.75"/>
<polygon fill="black" stroke="black" points="57.18,-39.88 47.28,-36.1 52.67,-45.23 57.18,-39.88"/>
<g id="a_edge8&#45;headlabel"><a xlink:href="dir_000046_000028.html" target="_top" xlink:title="1">
<text text-anchor="middle" x="61.76" y="-37.52" font-family="Helvetica,sans-Serif" font-size="10.00">1</text>
</a>
</g>
</g>
<!-- dir_05ff0118862a1fc666797322db30f5d5&#45;&gt;dir_d44c64559bbebec7f509842c48db8b23 -->
<g id="edge10" class="edge">
<title>dir_05ff0118862a1fc666797322db30f5d5&#45;&gt;dir_d44c64559bbebec7f509842c48db8b23</title>
<path fill="none" stroke="black" d="M127.49,-71.99C134.57,-66.02 143.16,-59.85 152,-56 201.62,-34.37 222.19,-50.86 278.12,-35.67"/>
<polygon fill="black" stroke="black" points="279.2,-39 287.8,-32.82 277.22,-32.29 279.2,-39"/>
<g id="a_edge10&#45;headlabel"><a xlink:href="dir_000046_000021.html" target="_top" xlink:title="35">
<text text-anchor="middle" x="276.55" y="-40.24" font-family="Helvetica,sans-Serif" font-size="10.00">35</text>
</a>
</g>
</g>
<!-- dir_654fcaaa959505712bb2ecafa3e1042f -->
<g id="node7" class="node">
<title>dir_654fcaaa959505712bb2ecafa3e1042f</title>
<g id="a_node7"><a xlink:href="dir_654fcaaa959505712bb2ecafa3e1042f.html" target="_top" xlink:title="tls">
<polygon fill="none" stroke="#7f7f7f" points="126,-36 72,-36 72,0 126,0 126,-36"/>
<text text-anchor="middle" x="99" y="-15.5" font-family="Helvetica,sans-Serif" font-size="10.00">tls</text>
</a>
</g>
</g>
<!-- dir_05ff0118862a1fc666797322db30f5d5&#45;&gt;dir_654fcaaa959505712bb2ecafa3e1042f -->
<g id="edge9" class="edge">
<title>dir_05ff0118862a1fc666797322db30f5d5&#45;&gt;dir_654fcaaa959505712bb2ecafa3e1042f</title>
<path fill="none" stroke="black" d="M107.28,-71.7C106.07,-63.98 104.61,-54.71 103.26,-46.11"/>
<polygon fill="black" stroke="black" points="106.7,-45.44 101.69,-36.1 99.78,-46.53 106.7,-45.44"/>
<g id="a_edge9&#45;headlabel"><a xlink:href="dir_000046_000045.html" target="_top" xlink:title="1">
<text text-anchor="middle" x="110.06" y="-46.05" font-family="Helvetica,sans-Serif" font-size="10.00">1</text>
</a>
</g>
</g>
<!-- dir_4261af1259721e3e39e0d2dd7354b511 -->
<g id="node8" class="node">
<title>dir_4261af1259721e3e39e0d2dd7354b511</title>
<g id="a_node8"><a xlink:href="dir_4261af1259721e3e39e0d2dd7354b511.html" target="_top" xlink:title="crypto">
<polygon fill="none" stroke="red" stroke-dasharray="5,2" points="198,-36 144,-36 144,0 198,0 198,-36"/>
<text text-anchor="middle" x="171" y="-15.5" font-family="Helvetica,sans-Serif" font-size="10.00">crypto</text>
</a>
</g>
</g>
<!-- dir_05ff0118862a1fc666797322db30f5d5&#45;&gt;dir_4261af1259721e3e39e0d2dd7354b511 -->
<g id="edge7" class="edge">
<title>dir_05ff0118862a1fc666797322db30f5d5&#45;&gt;dir_4261af1259721e3e39e0d2dd7354b511</title>
<path fill="none" stroke="black" d="M125.08,-71.7C132.39,-63.3 141.31,-53.07 149.34,-43.86"/>
<polygon fill="black" stroke="black" points="152.16,-45.94 156.09,-36.1 146.89,-41.34 152.16,-45.94"/>
<g id="a_edge7&#45;headlabel"><a xlink:href="dir_000046_000012.html" target="_top" xlink:title="1">
<text text-anchor="middle" x="151.94" y="-48.02" font-family="Helvetica,sans-Serif" font-size="10.00">1</text>
</a>
</g>
</g>
<!-- dir_18ae7af74d885898b85cbb543ae51b63 -->
<g id="node9" class="node">
<title>dir_18ae7af74d885898b85cbb543ae51b63</title>
<g id="a_node9"><a xlink:href="dir_18ae7af74d885898b85cbb543ae51b63.html" target="_top" xlink:title="node">
<polygon fill="none" stroke="red" stroke-dasharray="5,2" points="270,-36 216,-36 216,0 270,0 270,-36"/>
<text text-anchor="middle" x="243" y="-15.5" font-family="Helvetica,sans-Serif" font-size="10.00">node</text>
</a>
</g>
</g>
<!-- dir_05ff0118862a1fc666797322db30f5d5&#45;&gt;dir_18ae7af74d885898b85cbb543ae51b63 -->
<g id="edge6" class="edge">
<title>dir_05ff0118862a1fc666797322db30f5d5&#45;&gt;dir_18ae7af74d885898b85cbb543ae51b63</title>
<path fill="none" stroke="black" d="M129.17,-71.85C136.04,-66.29 144.06,-60.42 152,-56 172.42,-44.65 181.17,-45.63 206.66,-35.84"/>
<polygon fill="black" stroke="black" points="208.03,-39.07 215.99,-32.08 205.41,-32.58 208.03,-39.07"/>
<g id="a_edge6&#45;headlabel"><a xlink:href="dir_000046_000032.html" target="_top" xlink:title="1">
<text text-anchor="middle" x="205.76" y="-40.55" font-family="Helvetica,sans-Serif" font-size="10.00">1</text>
</a>
</g>
</g>
</g>
</svg>
