<?xml version="1.0" encoding="UTF-8" standalone="no"?>
<!DOCTYPE svg PUBLIC "-//W3C//DTD SVG 1.1//EN"
 "http://www.w3.org/Graphics/SVG/1.1/DTD/svg11.dtd">
<!-- Generated by graphviz version 2.43.0 (0)
 -->
<!-- Title: include/ccf Pages: 1 -->
<svg width="352pt" height="399pt"
 viewBox="0.00 0.00 352.00 399.00" xmlns="http://www.w3.org/2000/svg" xmlns:xlink="http://www.w3.org/1999/xlink">
<g id="graph0" class="graph" transform="scale(1 1) rotate(0) translate(4 395)">
<title>include/ccf</title>
<polygon fill="white" stroke="transparent" points="-4,4 -4,-395 348,-395 348,4 -4,4"/>
<g id="clust1" class="cluster">
<title>clusterdir_d44c64559bbebec7f509842c48db8b23</title>
<g id="a_clust1"><a xlink:href="dir_d44c64559bbebec7f509842c48db8b23.html" target="_top" xlink:title="include">
<polygon fill="#edf0f7" stroke="#404040" stroke-dasharray="5,2" points="8,-8 8,-383 336,-383 336,-8 8,-8"/>
<text text-anchor="middle" x="172" y="-371" font-family="Helvetica,sans-Serif" font-size="10.00">include</text>
</a>
</g>
</g>
<g id="clust2" class="cluster">
<title>clusterdir_c3d33925c9fc81f340cd5350e8f8562d</title>
<g id="a_clust2"><a xlink:href="dir_c3d33925c9fc81f340cd5350e8f8562d.html" target="_top">
<polygon fill="#edf0f7" stroke="#404040" stroke-width="2" points="16,-16 16,-356 328,-356 328,-16 16,-16"/>
</a>
</g>
</g>
<!-- dir_c3d33925c9fc81f340cd5350e8f8562d -->
<g id="node1" class="node">
<title>dir_c3d33925c9fc81f340cd5350e8f8562d</title>
<text text-anchor="middle" x="221" y="-327.5" font-family="Helvetica,sans-Serif" font-size="10.00">ccf</text>
</g>
<!-- dir_718cb05e94fb01aeb88649f9185845a8 -->
<g id="node2" class="node">
<title>dir_718cb05e94fb01aeb88649f9185845a8</title>
<g id="a_node2"><a xlink:href="dir_718cb05e94fb01aeb88649f9185845a8.html" target="_top" xlink:title="crypto">
<polygon fill="#a2b4d6" stroke="#404040" points="274,-132 220,-132 220,-96 274,-96 274,-132"/>
<text text-anchor="middle" x="247" y="-111.5" font-family="Helvetica,sans-Serif" font-size="10.00">crypto</text>
</a>
</g>
</g>
<!-- dir_c3d33925c9fc81f340cd5350e8f8562d&#45;&gt;dir_718cb05e94fb01aeb88649f9185845a8 -->
<g id="edge2" class="edge">
<title>dir_c3d33925c9fc81f340cd5350e8f8562d&#45;&gt;dir_718cb05e94fb01aeb88649f9185845a8</title>
<path fill="none" stroke="black" d="M248.34,-315.62C263.33,-306.67 280.53,-293.35 289,-276 310.9,-231.16 284.12,-173.52 264.38,-140.77"/>
<polygon fill="black" stroke="black" points="267.31,-138.86 259.05,-132.23 261.37,-142.57 267.31,-138.86"/>
<g id="a_edge2&#45;headlabel"><a xlink:href="dir_000006_000011.html" target="_top" xlink:title="15">
<text text-anchor="middle" x="271.62" y="-137.91" font-family="Helvetica,sans-Serif" font-size="10.00">15</text>
</a>
</g>
</g>
<!-- dir_cabae42bbc2bbaf21b45af6b92ef62e9 -->
<g id="node3" class="node">
<title>dir_cabae42bbc2bbaf21b45af6b92ef62e9</title>
<g id="a_node3"><a xlink:href="dir_cabae42bbc2bbaf21b45af6b92ef62e9.html" target="_top" xlink:title="ds">
<polygon fill="#a2b4d6" stroke="#404040" points="274,-60 220,-60 220,-24 274,-24 274,-60"/>
<text text-anchor="middle" x="247" y="-39.5" font-family="Helvetica,sans-Serif" font-size="10.00">ds</text>
</a>
</g>
</g>
<!-- dir_c3d33925c9fc81f340cd5350e8f8562d&#45;&gt;dir_cabae42bbc2bbaf21b45af6b92ef62e9 -->
<g id="edge6" class="edge">
<title>dir_c3d33925c9fc81f340cd5350e8f8562d&#45;&gt;dir_cabae42bbc2bbaf21b45af6b92ef62e9</title>
<path fill="none" stroke="black" d="M248.36,-318.23C266.02,-309.68 287.58,-295.82 298,-276 335.35,-204.94 310.8,-171.31 283,-96 279.45,-86.4 273.81,-76.85 268.02,-68.56"/>
<polygon fill="black" stroke="black" points="270.78,-66.4 262.03,-60.42 265.14,-70.55 270.78,-66.4"/>
<g id="a_edge6&#45;headlabel"><a xlink:href="dir_000006_000013.html" target="_top" xlink:title="34">
<text text-anchor="middle" x="275.2" y="-65.11" font-family="Helvetica,sans-Serif" font-size="10.00">34</text>
</a>
</g>
</g>
<!-- dir_4a0fc6681dca2b862f3992ee55641a58 -->
<g id="node4" class="node">
<title>dir_4a0fc6681dca2b862f3992ee55641a58</title>
<g id="a_node4"><a xlink:href="dir_4a0fc6681dca2b862f3992ee55641a58.html" target="_top" xlink:title="endpoints">
<polygon fill="#a2b4d6" stroke="#404040" points="279.5,-276 214.5,-276 214.5,-240 279.5,-240 279.5,-276"/>
<text text-anchor="middle" x="247" y="-255.5" font-family="Helvetica,sans-Serif" font-size="10.00">endpoints</text>
</a>
</g>
</g>
<!-- dir_c3d33925c9fc81f340cd5350e8f8562d&#45;&gt;dir_4a0fc6681dca2b862f3992ee55641a58 -->
<g id="edge1" class="edge">
<title>dir_c3d33925c9fc81f340cd5350e8f8562d&#45;&gt;dir_4a0fc6681dca2b862f3992ee55641a58</title>
<path fill="none" stroke="black" d="M227.43,-311.7C230.36,-303.81 233.89,-294.3 237.14,-285.55"/>
<polygon fill="black" stroke="black" points="240.45,-286.7 240.65,-276.1 233.88,-284.26 240.45,-286.7"/>
<g id="a_edge1&#45;headlabel"><a xlink:href="dir_000006_000016.html" target="_top" xlink:title="5">
<text text-anchor="middle" x="241.86" y="-288.56" font-family="Helvetica,sans-Serif" font-size="10.00">5</text>
</a>
</g>
</g>
<!-- dir_819655030cf20c915c390b67ba1c0d03 -->
<g id="node5" class="node">
<title>dir_819655030cf20c915c390b67ba1c0d03</title>
<g id="a_node5"><a xlink:href="dir_819655030cf20c915c390b67ba1c0d03.html" target="_top" xlink:title="indexing">
<polygon fill="#a2b4d6" stroke="#404040" points="175.5,-276 116.5,-276 116.5,-240 175.5,-240 175.5,-276"/>
<text text-anchor="middle" x="146" y="-255.5" font-family="Helvetica,sans-Serif" font-size="10.00">indexing</text>
</a>
</g>
</g>
<!-- dir_c3d33925c9fc81f340cd5350e8f8562d&#45;&gt;dir_819655030cf20c915c390b67ba1c0d03 -->
<g id="edge3" class="edge">
<title>dir_c3d33925c9fc81f340cd5350e8f8562d&#45;&gt;dir_819655030cf20c915c390b67ba1c0d03</title>
<path fill="none" stroke="black" d="M202.46,-311.7C193.2,-303.05 181.84,-292.45 171.74,-283.03"/>
<polygon fill="black" stroke="black" points="174.02,-280.37 164.33,-276.1 169.25,-285.49 174.02,-280.37"/>
<g id="a_edge3&#45;headlabel"><a xlink:href="dir_000006_000022.html" target="_top" xlink:title="1">
<text text-anchor="middle" x="178.59" y="-278.25" font-family="Helvetica,sans-Serif" font-size="10.00">1</text>
</a>
</g>
</g>
<!-- dir_9101985d24c2f692df501a09f2c284d0 -->
<g id="node6" class="node">
<title>dir_9101985d24c2f692df501a09f2c284d0</title>
<g id="a_node6"><a xlink:href="dir_9101985d24c2f692df501a09f2c284d0.html" target="_top" xlink:title="kv">
<polygon fill="#a2b4d6" stroke="#404040" points="182,-132 128,-132 128,-96 182,-96 182,-132"/>
<text text-anchor="middle" x="155" y="-111.5" font-family="Helvetica,sans-Serif" font-size="10.00">kv</text>
</a>
</g>
</g>
<!-- dir_c3d33925c9fc81f340cd5350e8f8562d&#45;&gt;dir_9101985d24c2f692df501a09f2c284d0 -->
<g id="edge4" class="edge">
<title>dir_c3d33925c9fc81f340cd5350e8f8562d&#45;&gt;dir_9101985d24c2f692df501a09f2c284d0</title>
<path fill="none" stroke="black" d="M193.75,-325.27C146.88,-318.23 54.17,-301.39 35,-276 -2.77,-225.97 71.72,-166.79 119.4,-136"/>
<polygon fill="black" stroke="black" points="121.38,-138.89 127.96,-130.59 117.64,-132.97 121.38,-138.89"/>
<g id="a_edge4&#45;headlabel"><a xlink:href="dir_000006_000027.html" target="_top" xlink:title="17">
<text text-anchor="middle" x="119.86" y="-140.71" font-family="Helvetica,sans-Serif" font-size="10.00">17</text>
</a>
</g>
</g>
<!-- dir_a0bd5b61e2f393f7cb26e530f5604320 -->
<g id="node8" class="node">
<title>dir_a0bd5b61e2f393f7cb26e530f5604320</title>
<g id="a_node8"><a xlink:href="dir_a0bd5b61e2f393f7cb26e530f5604320.html" target="_top" xlink:title="service">
<polygon fill="#a2b4d6" stroke="#404040" points="225,-204 171,-204 171,-168 225,-168 225,-204"/>
<text text-anchor="middle" x="198" y="-183.5" font-family="Helvetica,sans-Serif" font-size="10.00">service</text>
</a>
</g>
</g>
<!-- dir_c3d33925c9fc81f340cd5350e8f8562d&#45;&gt;dir_a0bd5b61e2f393f7cb26e530f5604320 -->
<g id="edge5" class="edge">
<title>dir_c3d33925c9fc81f340cd5350e8f8562d&#45;&gt;dir_a0bd5b61e2f393f7cb26e530f5604320</title>
<path fill="none" stroke="black" d="M215.17,-311.53C211.97,-301.29 208.22,-288.04 206,-276 202.22,-255.53 200.2,-232.08 199.14,-214.38"/>
<polygon fill="black" stroke="black" points="202.63,-213.99 198.6,-204.19 195.64,-214.36 202.63,-213.99"/>
<g id="a_edge5&#45;headlabel"><a xlink:href="dir_000006_000038.html" target="_top" xlink:title="4">
<text text-anchor="middle" x="205.65" y="-214.93" font-family="Helvetica,sans-Serif" font-size="10.00">4</text>
</a>
</g>
</g>
<!-- dir_718cb05e94fb01aeb88649f9185845a8&#45;&gt;dir_cabae42bbc2bbaf21b45af6b92ef62e9 -->
<g id="edge7" class="edge">
<title>dir_718cb05e94fb01aeb88649f9185845a8&#45;&gt;dir_cabae42bbc2bbaf21b45af6b92ef62e9</title>
<path fill="none" stroke="black" d="M241.08,-95.7C240.29,-87.98 240.06,-78.71 240.4,-70.11"/>
<polygon fill="black" stroke="black" points="243.9,-70.32 241.1,-60.1 236.92,-69.84 243.9,-70.32"/>
<g id="a_edge7&#45;headlabel"><a xlink:href="dir_000011_000013.html" target="_top" xlink:title="7">
<text text-anchor="middle" x="246.48" y="-71.61" font-family="Helvetica,sans-Serif" font-size="10.00">7</text>
</a>
</g>
</g>
<!-- dir_cabae42bbc2bbaf21b45af6b92ef62e9&#45;&gt;dir_718cb05e94fb01aeb88649f9185845a8 -->
<g id="edge8" class="edge">
<title>dir_cabae42bbc2bbaf21b45af6b92ef62e9&#45;&gt;dir_718cb05e94fb01aeb88649f9185845a8</title>
<path fill="none" stroke="black" d="M252.9,-60.1C253.7,-67.79 253.94,-77.05 253.6,-85.67"/>
<polygon fill="black" stroke="black" points="250.11,-85.48 252.92,-95.7 257.09,-85.96 250.11,-85.48"/>
<g id="a_edge8&#45;headlabel"><a xlink:href="dir_000013_000011.html" target="_top" xlink:title="1">
<text text-anchor="middle" x="247.52" y="-79.2" font-family="Helvetica,sans-Serif" font-size="10.00">1</text>
</a>
</g>
</g>
<!-- dir_4a0fc6681dca2b862f3992ee55641a58&#45;&gt;dir_718cb05e94fb01aeb88649f9185845a8 -->
<g id="edge9" class="edge">
<title>dir_4a0fc6681dca2b862f3992ee55641a58&#45;&gt;dir_718cb05e94fb01aeb88649f9185845a8</title>
<path fill="none" stroke="black" d="M247,-239.87C247,-215.67 247,-171.21 247,-142.39"/>
<polygon fill="black" stroke="black" points="250.5,-142.19 247,-132.19 243.5,-142.19 250.5,-142.19"/>
<g id="a_edge9&#45;headlabel"><a xlink:href="dir_000016_000011.html" target="_top" xlink:title="1">
<text text-anchor="middle" x="253.34" y="-143.28" font-family="Helvetica,sans-Serif" font-size="10.00">1</text>
</a>
</g>
</g>
<!-- dir_4a0fc6681dca2b862f3992ee55641a58&#45;&gt;dir_a0bd5b61e2f393f7cb26e530f5604320 -->
<g id="edge10" class="edge">
<title>dir_4a0fc6681dca2b862f3992ee55641a58&#45;&gt;dir_a0bd5b61e2f393f7cb26e530f5604320</title>
<path fill="none" stroke="black" d="M234.89,-239.7C229.13,-231.47 222.14,-221.48 215.79,-212.42"/>
<polygon fill="black" stroke="black" points="218.58,-210.29 209.97,-204.1 212.84,-214.3 218.58,-210.29"/>
<g id="a_edge10&#45;headlabel"><a xlink:href="dir_000016_000038.html" target="_top" xlink:title="1">
<text text-anchor="middle" x="222.96" y="-209.11" font-family="Helvetica,sans-Serif" font-size="10.00">1</text>
</a>
</g>
</g>
<!-- dir_9101985d24c2f692df501a09f2c284d0&#45;&gt;dir_cabae42bbc2bbaf21b45af6b92ef62e9 -->
<g id="edge11" class="edge">
<title>dir_9101985d24c2f692df501a09f2c284d0&#45;&gt;dir_cabae42bbc2bbaf21b45af6b92ef62e9</title>
<path fill="none" stroke="black" d="M177.74,-95.7C189.44,-86.8 203.86,-75.82 216.51,-66.2"/>
<polygon fill="black" stroke="black" points="218.68,-68.94 224.52,-60.1 214.44,-63.37 218.68,-68.94"/>
<g id="a_edge11&#45;headlabel"><a xlink:href="dir_000027_000013.html" target="_top" xlink:title="1">
<text text-anchor="middle" x="217.54" y="-70.88" font-family="Helvetica,sans-Serif" font-size="10.00">1</text>
</a>
</g>
</g>
<!-- dir_e4d7f7a88037af12eae8bd997a8823fc -->
<g id="node7" class="node">
<title>dir_e4d7f7a88037af12eae8bd997a8823fc</title>
<g id="a_node7"><a xlink:href="dir_e4d7f7a88037af12eae8bd997a8823fc.html" target="_top" xlink:title="node">
<polygon fill="#a2b4d6" stroke="#404040" points="98,-276 44,-276 44,-240 98,-240 98,-276"/>
<text text-anchor="middle" x="71" y="-255.5" font-family="Helvetica,sans-Serif" font-size="10.00">node</text>
</a>
</g>
</g>
<!-- dir_e4d7f7a88037af12eae8bd997a8823fc&#45;&gt;dir_a0bd5b61e2f393f7cb26e530f5604320 -->
<g id="edge12" class="edge">
<title>dir_e4d7f7a88037af12eae8bd997a8823fc&#45;&gt;dir_a0bd5b61e2f393f7cb26e530f5604320</title>
<path fill="none" stroke="black" d="M98.24,-241.98C116.83,-231.74 141.64,-218.07 161.87,-206.92"/>
<polygon fill="black" stroke="black" points="163.73,-209.88 170.8,-201.99 160.35,-203.75 163.73,-209.88"/>
<g id="a_edge12&#45;headlabel"><a xlink:href="dir_000031_000038.html" target="_top" xlink:title="1">
<text text-anchor="middle" x="161.95" y="-211.61" font-family="Helvetica,sans-Serif" font-size="10.00">1</text>
</a>
</g>
</g>
<!-- dir_a0bd5b61e2f393f7cb26e530f5604320&#45;&gt;dir_718cb05e94fb01aeb88649f9185845a8 -->
<g id="edge13" class="edge">
<title>dir_a0bd5b61e2f393f7cb26e530f5604320&#45;&gt;dir_718cb05e94fb01aeb88649f9185845a8</title>
<path fill="none" stroke="black" d="M210.11,-167.7C215.87,-159.47 222.86,-149.48 229.21,-140.42"/>
<polygon fill="black" stroke="black" points="232.16,-142.3 235.03,-132.1 226.42,-138.29 232.16,-142.3"/>
<g id="a_edge13&#45;headlabel"><a xlink:href="dir_000038_000011.html" target="_top" xlink:title="10">
<text text-anchor="middle" x="232.42" y="-144.38" font-family="Helvetica,sans-Serif" font-size="10.00">10</text>
</a>
</g>
</g>
<!-- dir_a0bd5b61e2f393f7cb26e530f5604320&#45;&gt;dir_cabae42bbc2bbaf21b45af6b92ef62e9 -->
<g id="edge15" class="edge">
<title>dir_a0bd5b61e2f393f7cb26e530f5604320&#45;&gt;dir_cabae42bbc2bbaf21b45af6b92ef62e9</title>
<path fill="none" stroke="black" d="M198.25,-167.69C199.03,-149.32 201.78,-119.72 211,-96 214.77,-86.31 220.59,-76.62 226.46,-68.23"/>
<polygon fill="black" stroke="black" points="229.4,-70.14 232.51,-60.02 223.76,-65.99 229.4,-70.14"/>
<g id="a_edge15&#45;headlabel"><a xlink:href="dir_000038_000013.html" target="_top" xlink:title="10">
<text text-anchor="middle" x="229.55" y="-72.22" font-family="Helvetica,sans-Serif" font-size="10.00">10</text>
</a>
</g>
</g>
<!-- dir_a0bd5b61e2f393f7cb26e530f5604320&#45;&gt;dir_9101985d24c2f692df501a09f2c284d0 -->
<g id="edge14" class="edge">
<title>dir_a0bd5b61e2f393f7cb26e530f5604320&#45;&gt;dir_9101985d24c2f692df501a09f2c284d0</title>
<path fill="none" stroke="black" d="M187.37,-167.7C182.37,-159.56 176.31,-149.69 170.79,-140.7"/>
<polygon fill="black" stroke="black" points="173.72,-138.79 165.51,-132.1 167.76,-142.46 173.72,-138.79"/>
<g id="a_edge14&#45;headlabel"><a xlink:href="dir_000038_000027.html" target="_top" xlink:title="7">
<text text-anchor="middle" x="178.02" y="-137.87" font-family="Helvetica,sans-Serif" font-size="10.00">7</text>
</a>
</g>
</g>
</g>
</svg>
