<?xml version="1.0" encoding="UTF-8" standalone="no"?>
<!DOCTYPE svg PUBLIC "-//W3C//DTD SVG 1.1//EN"
 "http://www.w3.org/Graphics/SVG/1.1/DTD/svg11.dtd">
<!-- Generated by graphviz version 2.43.0 (0)
 -->
<!-- Title: src/crypto/ecdsa.h Pages: 1 -->
<!--zoomable 375 -->
<svg id="main" version="1.1" xmlns="http://www.w3.org/2000/svg" xmlns:xlink="http://www.w3.org/1999/xlink" xml:space="preserve" onload="init(evt)">
<style type="text/css"><![CDATA[
.edge:hover path { stroke: red; }
.edge:hover polygon { stroke: red; fill: red; }
]]></style>
<script type="text/javascript"><![CDATA[
var edges = document.getElementsByTagName('g');
if (edges && edges.length) {
  for (var i=0;i<edges.length;i++) {
    if (edges[i].id.substr(0,4)=='edge') {
      edges[i].setAttribute('class','edge');
    }
  }
}
]]></script>
        <defs>
                <circle id="rim" cx="0" cy="0" r="7"/>
                <circle id="rim2" cx="0" cy="0" r="3.5"/>
                <g id="zoomPlus">
                        <use xlink:href="#rim" fill="#404040">
                                <set attributeName="fill" to="#808080" begin="zoomplus.mouseover" end="zoomplus.mouseout"/>
                        </use>
                        <path d="M-4,0h8M0,-4v8" fill="none" stroke="white" stroke-width="1.5" pointer-events="none"/>
                </g>
                <g id="zoomMin">
                        <use xlink:href="#rim" fill="#404040">
                                <set attributeName="fill" to="#808080" begin="zoomminus.mouseover" end="zoomminus.mouseout"/>
                        </use>
                        <path d="M-4,0h8" fill="none" stroke="white" stroke-width="1.5" pointer-events="none"/>
                </g>
                <g id="dirArrow">
                        <path fill="none" stroke="white" stroke-width="1.5" d="M0,-3.0v7 M-2.5,-0.5L0,-3.0L2.5,-0.5"/>
                </g>
               <g id="resetDef">
                       <use xlink:href="#rim2" fill="#404040">
                               <set attributeName="fill" to="#808080" begin="reset.mouseover" end="reset.mouseout"/>
                       </use>
               </g>
        </defs>

<script type="text/javascript">
var viewWidth = 1402;
var viewHeight = 375;
var sectionId = 'dynsection-0';
</script>
<script xlink:href="svgpan.js"/>
<svg id="graph" class="graph">
<g id="viewport">
<title>src/crypto/ecdsa.h</title>
<polygon fill="white" stroke="transparent" points="-4,4 -4,-371 1397.92,-371 1397.92,4 -4,4"/>
<!-- Node1 -->
<g id="node1" class="node">
<title>Node1</title>
<g id="a_node1"><a xlink:title=" ">
<polygon fill="#bfbfbf" stroke="black" points="1154.92,-347.5 1154.92,-366.5 1259.92,-366.5 1259.92,-347.5 1154.92,-347.5"/>
<text text-anchor="middle" x="1207.42" y="-354.5" font-family="Helvetica,sans-Serif" font-size="10.00">src/crypto/ecdsa.h</text>
</a>
</g>
</g>
<!-- Node2 -->
<g id="node2" class="node">
<title>Node2</title>
<g id="a_node2"><a xlink:href="openssl__wrappers_8h.html" target="_top" xlink:title=" ">
<polygon fill="white" stroke="black" points="511.42,-280.5 511.42,-310.5 639.42,-310.5 639.42,-280.5 511.42,-280.5"/>
<text text-anchor="start" x="519.42" y="-298.5" font-family="Helvetica,sans-Serif" font-size="10.00">crypto/openssl/openssl</text>
<text text-anchor="middle" x="575.42" y="-287.5" font-family="Helvetica,sans-Serif" font-size="10.00">_wrappers.h</text>
</a>
</g>
</g>
<!-- Node1&#45;&gt;Node2 -->
<g id="edge1" class="edge">
<title>Node1&#45;&gt;Node2</title>
<path fill="none" stroke="midnightblue" d="M1154.89,-351.05C1042.71,-340.49 779.41,-315.7 649.95,-303.52"/>
<polygon fill="midnightblue" stroke="midnightblue" points="650.02,-300.01 639.73,-302.55 649.36,-306.98 650.02,-300.01"/>
</g>
<!-- Node7 -->
<g id="node7" class="node">
<title>Node7</title>
<g id="a_node7"><a xlink:title=" ">
<polygon fill="white" stroke="#bfbfbf" points="956.92,-0.5 956.92,-19.5 1003.92,-19.5 1003.92,-0.5 956.92,-0.5"/>
<text text-anchor="middle" x="980.42" y="-7.5" font-family="Helvetica,sans-Serif" font-size="10.00">vector</text>
</a>
</g>
</g>
<!-- Node1&#45;&gt;Node7 -->
<g id="edge39" class="edge">
<title>Node1&#45;&gt;Node7</title>
<path fill="none" stroke="midnightblue" d="M1203.38,-347.41C1194.56,-327.9 1174.42,-278.55 1174.42,-235 1174.42,-235 1174.42,-235 1174.42,-121 1174.42,-48.25 1069.92,-23.04 1014.31,-14.77"/>
<polygon fill="midnightblue" stroke="midnightblue" points="1014.59,-11.27 1004.21,-13.37 1013.64,-18.21 1014.59,-11.27"/>
</g>
<!-- Node31 -->
<g id="node31" class="node">
<title>Node31</title>
<g id="a_node31"><a xlink:title=" ">
<polygon fill="white" stroke="#bfbfbf" points="1202.42,-286 1202.42,-305 1280.42,-305 1280.42,-286 1202.42,-286"/>
<text text-anchor="middle" x="1241.42" y="-293" font-family="Helvetica,sans-Serif" font-size="10.00">openssl/bn.h</text>
</a>
</g>
</g>
<!-- Node1&#45;&gt;Node31 -->
<g id="edge37" class="edge">
<title>Node1&#45;&gt;Node31</title>
<path fill="none" stroke="midnightblue" d="M1212.29,-347.48C1217.29,-338.73 1225.21,-324.87 1231.53,-313.81"/>
<polygon fill="midnightblue" stroke="midnightblue" points="1234.64,-315.43 1236.56,-305.01 1228.56,-311.96 1234.64,-315.43"/>
</g>
<!-- Node32 -->
<g id="node32" class="node">
<title>Node32</title>
<g id="a_node32"><a xlink:title=" ">
<polygon fill="white" stroke="#bfbfbf" points="1298.92,-286 1298.92,-305 1393.92,-305 1393.92,-286 1298.92,-286"/>
<text text-anchor="middle" x="1346.42" y="-293" font-family="Helvetica,sans-Serif" font-size="10.00">openssl/ecdsa.h</text>
</a>
</g>
</g>
<!-- Node1&#45;&gt;Node32 -->
<g id="edge38" class="edge">
<title>Node1&#45;&gt;Node32</title>
<path fill="none" stroke="midnightblue" d="M1227.34,-347.48C1250.87,-337.4 1290.23,-320.55 1317.21,-309"/>
<polygon fill="midnightblue" stroke="midnightblue" points="1318.73,-312.16 1326.54,-305.01 1315.97,-305.73 1318.73,-312.16"/>
</g>
<!-- Node3 -->
<g id="node3" class="node">
<title>Node3</title>
<g id="a_node3"><a xlink:href="pem_8h.html" target="_top" xlink:title=" ">
<polygon fill="white" stroke="black" points="963.42,-224.5 963.42,-243.5 1061.42,-243.5 1061.42,-224.5 963.42,-224.5"/>
<text text-anchor="middle" x="1012.42" y="-231.5" font-family="Helvetica,sans-Serif" font-size="10.00">ccf/crypto/pem.h</text>
</a>
</g>
</g>
<!-- Node2&#45;&gt;Node3 -->
<g id="edge2" class="edge">
<title>Node2&#45;&gt;Node3</title>
<path fill="none" stroke="midnightblue" d="M639.52,-286.39C712.8,-277.01 836.62,-260.89 953.21,-244.15"/>
<polygon fill="midnightblue" stroke="midnightblue" points="953.99,-247.57 963.38,-242.68 952.99,-240.65 953.99,-247.57"/>
</g>
<!-- Node15 -->
<g id="node15" class="node">
<title>Node15</title>
<g id="a_node15"><a xlink:title=" ">
<polygon fill="white" stroke="#bfbfbf" points="990.92,-56.5 990.92,-75.5 1069.92,-75.5 1069.92,-56.5 990.92,-56.5"/>
<text text-anchor="middle" x="1030.42" y="-63.5" font-family="Helvetica,sans-Serif" font-size="10.00">fmt/format.h</text>
</a>
</g>
</g>
<!-- Node2&#45;&gt;Node15 -->
<g id="edge26" class="edge">
<title>Node2&#45;&gt;Node15</title>
<path fill="none" stroke="midnightblue" d="M639.66,-292.25C766.53,-287.19 1039.68,-273.02 1070.42,-244 1115.64,-201.32 1067.36,-119.25 1042.87,-83.89"/>
<polygon fill="midnightblue" stroke="midnightblue" points="1045.61,-81.7 1036.96,-75.59 1039.91,-85.76 1045.61,-81.7"/>
</g>
<!-- Node20 -->
<g id="node20" class="node">
<title>Node20</title>
<g id="a_node20"><a xlink:title=" ">
<polygon fill="white" stroke="#bfbfbf" points="217.42,-168.5 217.42,-187.5 275.42,-187.5 275.42,-168.5 217.42,-168.5"/>
<text text-anchor="middle" x="246.42" y="-175.5" font-family="Helvetica,sans-Serif" font-size="10.00">memory</text>
</a>
</g>
</g>
<!-- Node2&#45;&gt;Node20 -->
<g id="edge27" class="edge">
<title>Node2&#45;&gt;Node20</title>
<path fill="none" stroke="midnightblue" d="M511.3,-293.6C369.28,-290.93 38.11,-280.79 4.42,-244 -1.58,-237.44 -1.26,-230.84 4.42,-224 29.73,-193.55 145.17,-183.61 207.02,-180.43"/>
<polygon fill="midnightblue" stroke="midnightblue" points="207.36,-183.92 217.18,-179.95 207.03,-176.93 207.36,-183.92"/>
</g>
<!-- Node22 -->
<g id="node22" class="node">
<title>Node22</title>
<g id="a_node22"><a xlink:title=" ">
<polygon fill="white" stroke="#bfbfbf" points="13.92,-224.5 13.92,-243.5 102.92,-243.5 102.92,-224.5 13.92,-224.5"/>
<text text-anchor="middle" x="58.42" y="-231.5" font-family="Helvetica,sans-Serif" font-size="10.00">openssl/asn1.h</text>
</a>
</g>
</g>
<!-- Node2&#45;&gt;Node22 -->
<g id="edge28" class="edge">
<title>Node2&#45;&gt;Node22</title>
<path fill="none" stroke="midnightblue" d="M511.1,-288.73C423.4,-280.58 261.17,-264.54 113.11,-244.17"/>
<polygon fill="midnightblue" stroke="midnightblue" points="113.31,-240.66 102.92,-242.76 112.35,-247.6 113.31,-240.66"/>
</g>
<!-- Node23 -->
<g id="node23" class="node">
<title>Node23</title>
<g id="a_node23"><a xlink:title=" ">
<polygon fill="white" stroke="#bfbfbf" points="120.92,-224.5 120.92,-243.5 197.92,-243.5 197.92,-224.5 120.92,-224.5"/>
<text text-anchor="middle" x="159.42" y="-231.5" font-family="Helvetica,sans-Serif" font-size="10.00">openssl/ec.h</text>
</a>
</g>
</g>
<!-- Node2&#45;&gt;Node23 -->
<g id="edge29" class="edge">
<title>Node2&#45;&gt;Node23</title>
<path fill="none" stroke="midnightblue" d="M511.27,-286.77C439.7,-277.91 320.23,-262.42 208.24,-244.23"/>
<polygon fill="midnightblue" stroke="midnightblue" points="208.55,-240.74 198.12,-242.58 207.43,-247.65 208.55,-240.74"/>
</g>
<!-- Node24 -->
<g id="node24" class="node">
<title>Node24</title>
<g id="a_node24"><a xlink:title=" ">
<polygon fill="white" stroke="#bfbfbf" points="215.92,-224.5 215.92,-243.5 314.92,-243.5 314.92,-224.5 215.92,-224.5"/>
<text text-anchor="middle" x="265.42" y="-231.5" font-family="Helvetica,sans-Serif" font-size="10.00">openssl/engine.h</text>
</a>
</g>
</g>
<!-- Node2&#45;&gt;Node24 -->
<g id="edge30" class="edge">
<title>Node2&#45;&gt;Node24</title>
<path fill="none" stroke="midnightblue" d="M511.19,-282.17C454.71,-271.33 373.4,-255.73 320.01,-245.48"/>
<polygon fill="midnightblue" stroke="midnightblue" points="320.53,-242.01 310.05,-243.56 319.21,-248.89 320.53,-242.01"/>
</g>
<!-- Node25 -->
<g id="node25" class="node">
<title>Node25</title>
<g id="a_node25"><a xlink:title=" ">
<polygon fill="white" stroke="#bfbfbf" points="332.92,-224.5 332.92,-243.5 411.92,-243.5 411.92,-224.5 332.92,-224.5"/>
<text text-anchor="middle" x="372.42" y="-231.5" font-family="Helvetica,sans-Serif" font-size="10.00">openssl/err.h</text>
</a>
</g>
</g>
<!-- Node2&#45;&gt;Node25 -->
<g id="edge31" class="edge">
<title>Node2&#45;&gt;Node25</title>
<path fill="none" stroke="midnightblue" d="M527.57,-280.47C492.09,-270.08 444.34,-256.08 411.22,-246.37"/>
<polygon fill="midnightblue" stroke="midnightblue" points="412.02,-242.96 401.44,-243.51 410.06,-249.68 412.02,-242.96"/>
</g>
<!-- Node26 -->
<g id="node26" class="node">
<title>Node26</title>
<g id="a_node26"><a xlink:title=" ">
<polygon fill="white" stroke="#bfbfbf" points="429.42,-224.5 429.42,-243.5 513.42,-243.5 513.42,-224.5 429.42,-224.5"/>
<text text-anchor="middle" x="471.42" y="-231.5" font-family="Helvetica,sans-Serif" font-size="10.00">openssl/evp.h</text>
</a>
</g>
</g>
<!-- Node2&#45;&gt;Node26 -->
<g id="edge32" class="edge">
<title>Node2&#45;&gt;Node26</title>
<path fill="none" stroke="midnightblue" d="M550.77,-280.4C534.1,-270.86 512.19,-258.32 495.62,-248.84"/>
<polygon fill="midnightblue" stroke="midnightblue" points="496.97,-245.59 486.55,-243.66 493.5,-251.66 496.97,-245.59"/>
</g>
<!-- Node27 -->
<g id="node27" class="node">
<title>Node27</title>
<g id="a_node27"><a xlink:title=" ">
<polygon fill="white" stroke="#bfbfbf" points="531.42,-224.5 531.42,-243.5 619.42,-243.5 619.42,-224.5 531.42,-224.5"/>
<text text-anchor="middle" x="575.42" y="-231.5" font-family="Helvetica,sans-Serif" font-size="10.00">openssl/pem.h</text>
</a>
</g>
</g>
<!-- Node2&#45;&gt;Node27 -->
<g id="edge33" class="edge">
<title>Node2&#45;&gt;Node27</title>
<path fill="none" stroke="midnightblue" d="M575.42,-280.4C575.42,-272.47 575.42,-262.46 575.42,-253.86"/>
<polygon fill="midnightblue" stroke="midnightblue" points="578.92,-253.66 575.42,-243.66 571.92,-253.66 578.92,-253.66"/>
</g>
<!-- Node28 -->
<g id="node28" class="node">
<title>Node28</title>
<g id="a_node28"><a xlink:title=" ">
<polygon fill="white" stroke="#bfbfbf" points="637.42,-224.5 637.42,-243.5 717.42,-243.5 717.42,-224.5 637.42,-224.5"/>
<text text-anchor="middle" x="677.42" y="-231.5" font-family="Helvetica,sans-Serif" font-size="10.00">openssl/ssl.h</text>
</a>
</g>
</g>
<!-- Node2&#45;&gt;Node28 -->
<g id="edge34" class="edge">
<title>Node2&#45;&gt;Node28</title>
<path fill="none" stroke="midnightblue" d="M599.59,-280.4C615.94,-270.86 637.44,-258.32 653.69,-248.84"/>
<polygon fill="midnightblue" stroke="midnightblue" points="655.71,-251.72 662.58,-243.66 652.18,-245.67 655.71,-251.72"/>
</g>
<!-- Node29 -->
<g id="node29" class="node">
<title>Node29</title>
<g id="a_node29"><a xlink:title=" ">
<polygon fill="white" stroke="#bfbfbf" points="735.42,-224.5 735.42,-243.5 825.42,-243.5 825.42,-224.5 735.42,-224.5"/>
<text text-anchor="middle" x="780.42" y="-231.5" font-family="Helvetica,sans-Serif" font-size="10.00">openssl/x509.h</text>
</a>
</g>
</g>
<!-- Node2&#45;&gt;Node29 -->
<g id="edge35" class="edge">
<title>Node2&#45;&gt;Node29</title>
<path fill="none" stroke="midnightblue" d="M623.74,-280.47C659.57,-270.08 707.8,-256.08 741.24,-246.37"/>
<polygon fill="midnightblue" stroke="midnightblue" points="742.49,-249.66 751.11,-243.51 740.53,-242.93 742.49,-249.66"/>
</g>
<!-- Node30 -->
<g id="node30" class="node">
<title>Node30</title>
<g id="a_node30"><a xlink:title=" ">
<polygon fill="white" stroke="#bfbfbf" points="843.42,-224.5 843.42,-243.5 945.42,-243.5 945.42,-224.5 843.42,-224.5"/>
<text text-anchor="middle" x="894.42" y="-231.5" font-family="Helvetica,sans-Serif" font-size="10.00">openssl/x509v3.h</text>
</a>
</g>
</g>
<!-- Node2&#45;&gt;Node30 -->
<g id="edge36" class="edge">
<title>Node2&#45;&gt;Node30</title>
<path fill="none" stroke="midnightblue" d="M639.59,-282.53C697.83,-271.67 782.84,-255.81 838.39,-245.45"/>
<polygon fill="midnightblue" stroke="midnightblue" points="839.22,-248.86 848.41,-243.58 837.94,-241.97 839.22,-248.86"/>
</g>
<!-- Node4 -->
<g id="node4" class="node">
<title>Node4</title>
<g id="a_node4"><a xlink:href="json_8h.html" target="_top" xlink:title=" ">
<polygon fill="white" stroke="black" points="934.92,-168.5 934.92,-187.5 1011.92,-187.5 1011.92,-168.5 934.92,-168.5"/>
<text text-anchor="middle" x="973.42" y="-175.5" font-family="Helvetica,sans-Serif" font-size="10.00">ccf/ds/json.h</text>
</a>
</g>
</g>
<!-- Node3&#45;&gt;Node4 -->
<g id="edge3" class="edge">
<title>Node3&#45;&gt;Node4</title>
<path fill="none" stroke="midnightblue" d="M1005.98,-224.08C1000.47,-216.46 992.39,-205.26 985.66,-195.94"/>
<polygon fill="midnightblue" stroke="midnightblue" points="988.43,-193.81 979.74,-187.75 982.76,-197.91 988.43,-193.81"/>
</g>
<!-- Node3&#45;&gt;Node7 -->
<g id="edge25" class="edge">
<title>Node3&#45;&gt;Node7</title>
<path fill="none" stroke="midnightblue" d="M1035.21,-224.47C1050.75,-217.32 1070.13,-205.44 1079.42,-188 1107.01,-136.23 1111.18,-105.33 1079.42,-56 1065.06,-33.7 1036.65,-22.32 1013.93,-16.6"/>
<polygon fill="midnightblue" stroke="midnightblue" points="1014.49,-13.14 1003.97,-14.34 1012.95,-19.96 1014.49,-13.14"/>
</g>
<!-- Node13 -->
<g id="node13" class="node">
<title>Node13</title>
<g id="a_node13"><a xlink:title=" ">
<polygon fill="white" stroke="#bfbfbf" points="423.92,-0.5 423.92,-19.5 496.92,-19.5 496.92,-0.5 423.92,-0.5"/>
<text text-anchor="middle" x="460.42" y="-7.5" font-family="Helvetica,sans-Serif" font-size="10.00">string_view</text>
</a>
</g>
</g>
<!-- Node3&#45;&gt;Node13 -->
<g id="edge24" class="edge">
<title>Node3&#45;&gt;Node13</title>
<path fill="none" stroke="midnightblue" d="M963.41,-224.61C898.98,-213.45 791.9,-194.38 774.42,-188 655.69,-144.65 528.85,-59.52 480.6,-25.53"/>
<polygon fill="midnightblue" stroke="midnightblue" points="482.46,-22.55 472.28,-19.62 478.41,-28.26 482.46,-22.55"/>
</g>
<!-- Node18 -->
<g id="node18" class="node">
<title>Node18</title>
<g id="a_node18"><a xlink:title=" ">
<polygon fill="white" stroke="#bfbfbf" points="783.42,-168.5 783.42,-187.5 833.42,-187.5 833.42,-168.5 783.42,-168.5"/>
<text text-anchor="middle" x="808.42" y="-175.5" font-family="Helvetica,sans-Serif" font-size="10.00">cstring</text>
</a>
</g>
</g>
<!-- Node3&#45;&gt;Node18 -->
<g id="edge20" class="edge">
<title>Node3&#45;&gt;Node18</title>
<path fill="none" stroke="midnightblue" d="M980.1,-224.44C942.76,-214.56 881.57,-198.36 843.22,-188.21"/>
<polygon fill="midnightblue" stroke="midnightblue" points="844.08,-184.82 833.52,-185.64 842.29,-191.59 844.08,-184.82"/>
</g>
<!-- Node19 -->
<g id="node19" class="node">
<title>Node19</title>
<g id="a_node19"><a xlink:title=" ">
<polygon fill="white" stroke="#bfbfbf" points="851.92,-168.5 851.92,-187.5 916.92,-187.5 916.92,-168.5 851.92,-168.5"/>
<text text-anchor="middle" x="884.42" y="-175.5" font-family="Helvetica,sans-Serif" font-size="10.00">exception</text>
</a>
</g>
</g>
<!-- Node3&#45;&gt;Node19 -->
<g id="edge21" class="edge">
<title>Node3&#45;&gt;Node19</title>
<path fill="none" stroke="midnightblue" d="M992.14,-224.44C971.07,-215.56 937.9,-201.56 913.94,-191.45"/>
<polygon fill="midnightblue" stroke="midnightblue" points="915.18,-188.18 904.61,-187.52 912.46,-194.63 915.18,-188.18"/>
</g>
<!-- Node3&#45;&gt;Node20 -->
<g id="edge22" class="edge">
<title>Node3&#45;&gt;Node20</title>
<path fill="none" stroke="midnightblue" d="M963.42,-225.08C960.38,-224.68 957.36,-224.32 954.42,-224 700.26,-196.26 392.75,-183.92 285.54,-180.24"/>
<polygon fill="midnightblue" stroke="midnightblue" points="285.61,-176.74 275.5,-179.9 285.38,-183.74 285.61,-176.74"/>
</g>
<!-- Node21 -->
<g id="node21" class="node">
<title>Node21</title>
<g id="a_node21"><a xlink:title=" ">
<polygon fill="white" stroke="#bfbfbf" points="1030.42,-168.5 1030.42,-187.5 1070.42,-187.5 1070.42,-168.5 1030.42,-168.5"/>
<text text-anchor="middle" x="1050.42" y="-175.5" font-family="Helvetica,sans-Serif" font-size="10.00">span</text>
</a>
</g>
</g>
<!-- Node3&#45;&gt;Node21 -->
<g id="edge23" class="edge">
<title>Node3&#45;&gt;Node21</title>
<path fill="none" stroke="midnightblue" d="M1018.7,-224.08C1024.06,-216.46 1031.94,-205.26 1038.5,-195.94"/>
<polygon fill="midnightblue" stroke="midnightblue" points="1041.37,-197.94 1044.26,-187.75 1035.65,-193.91 1041.37,-197.94"/>
</g>
<!-- Node5 -->
<g id="node5" class="node">
<title>Node5</title>
<g id="a_node5"><a xlink:href="include_2ccf_2crypto_2base64_8h.html" target="_top" xlink:title=" ">
<polygon fill="white" stroke="black" points="732.42,-56.5 732.42,-75.5 844.42,-75.5 844.42,-56.5 732.42,-56.5"/>
<text text-anchor="middle" x="788.42" y="-63.5" font-family="Helvetica,sans-Serif" font-size="10.00">ccf/crypto/base64.h</text>
</a>
</g>
</g>
<!-- Node4&#45;&gt;Node5 -->
<g id="edge4" class="edge">
<title>Node4&#45;&gt;Node5</title>
<path fill="none" stroke="midnightblue" d="M934.75,-168.51C888.92,-158.14 817.59,-140.88 808.42,-132 796.11,-120.08 791.33,-100.77 789.5,-86.29"/>
<polygon fill="midnightblue" stroke="midnightblue" points="792.95,-85.6 788.57,-75.95 785.98,-86.22 792.95,-85.6"/>
</g>
<!-- Node8 -->
<g id="node8" class="node">
<title>Node8</title>
<g id="a_node8"><a xlink:href="include_2ccf_2ds_2json__schema_8h.html" target="_top" xlink:title=" ">
<polygon fill="white" stroke="black" points="816.92,-112.5 816.92,-131.5 937.92,-131.5 937.92,-112.5 816.92,-112.5"/>
<text text-anchor="middle" x="877.42" y="-119.5" font-family="Helvetica,sans-Serif" font-size="10.00">ccf/ds/json_schema.h</text>
</a>
</g>
</g>
<!-- Node4&#45;&gt;Node8 -->
<g id="edge7" class="edge">
<title>Node4&#45;&gt;Node8</title>
<path fill="none" stroke="midnightblue" d="M958,-168.32C942.88,-159.82 919.61,-146.73 901.95,-136.8"/>
<polygon fill="midnightblue" stroke="midnightblue" points="903.24,-133.51 892.81,-131.65 899.81,-139.61 903.24,-133.51"/>
</g>
<!-- Node4&#45;&gt;Node15 -->
<g id="edge18" class="edge">
<title>Node4&#45;&gt;Node15</title>
<path fill="none" stroke="midnightblue" d="M986.8,-168.39C998.02,-160.39 1013.44,-147.42 1021.42,-132 1028.87,-117.61 1030.82,-99.16 1031.08,-85.59"/>
<polygon fill="midnightblue" stroke="midnightblue" points="1034.58,-85.51 1030.99,-75.54 1027.58,-85.57 1034.58,-85.51"/>
</g>
<!-- Node17 -->
<g id="node17" class="node">
<title>Node17</title>
<g id="a_node17"><a xlink:title=" ">
<polygon fill="white" stroke="#bfbfbf" points="956.42,-112.5 956.42,-131.5 1012.42,-131.5 1012.42,-112.5 956.42,-112.5"/>
<text text-anchor="middle" x="984.42" y="-119.5" font-family="Helvetica,sans-Serif" font-size="10.00">sstream</text>
</a>
</g>
</g>
<!-- Node4&#45;&gt;Node17 -->
<g id="edge19" class="edge">
<title>Node4&#45;&gt;Node17</title>
<path fill="none" stroke="midnightblue" d="M975.24,-168.08C976.7,-160.93 978.79,-150.64 980.61,-141.69"/>
<polygon fill="midnightblue" stroke="midnightblue" points="984.07,-142.25 982.64,-131.75 977.21,-140.85 984.07,-142.25"/>
</g>
<!-- Node6 -->
<g id="node6" class="node">
<title>Node6</title>
<g id="a_node6"><a xlink:title=" ">
<polygon fill="white" stroke="#bfbfbf" points="812.42,-0.5 812.42,-19.5 856.42,-19.5 856.42,-0.5 812.42,-0.5"/>
<text text-anchor="middle" x="834.42" y="-7.5" font-family="Helvetica,sans-Serif" font-size="10.00">string</text>
</a>
</g>
</g>
<!-- Node5&#45;&gt;Node6 -->
<g id="edge5" class="edge">
<title>Node5&#45;&gt;Node6</title>
<path fill="none" stroke="midnightblue" d="M796.02,-56.08C802.65,-48.3 812.44,-36.8 820.48,-27.37"/>
<polygon fill="midnightblue" stroke="midnightblue" points="823.15,-29.63 826.97,-19.75 817.82,-25.09 823.15,-29.63"/>
</g>
<!-- Node5&#45;&gt;Node7 -->
<g id="edge6" class="edge">
<title>Node5&#45;&gt;Node7</title>
<path fill="none" stroke="midnightblue" d="M818.84,-56.44C853.68,-46.65 910.59,-30.64 946.74,-20.47"/>
<polygon fill="midnightblue" stroke="midnightblue" points="948.12,-23.72 956.8,-17.64 946.22,-16.98 948.12,-23.72"/>
</g>
<!-- Node9 -->
<g id="node9" class="node">
<title>Node9</title>
<g id="a_node9"><a xlink:href="nonstd_8h.html" target="_top" xlink:title=" ">
<polygon fill="white" stroke="black" points="624.42,-56.5 624.42,-75.5 714.42,-75.5 714.42,-56.5 624.42,-56.5"/>
<text text-anchor="middle" x="669.42" y="-63.5" font-family="Helvetica,sans-Serif" font-size="10.00">ccf/ds/nonstd.h</text>
</a>
</g>
</g>
<!-- Node8&#45;&gt;Node9 -->
<g id="edge8" class="edge">
<title>Node8&#45;&gt;Node9</title>
<path fill="none" stroke="midnightblue" d="M844.46,-112.44C808.63,-103.14 751.26,-88.25 712.03,-78.06"/>
<polygon fill="midnightblue" stroke="midnightblue" points="712.78,-74.64 702.23,-75.52 711.03,-81.42 712.78,-74.64"/>
</g>
<!-- Node8&#45;&gt;Node15 -->
<g id="edge16" class="edge">
<title>Node8&#45;&gt;Node15</title>
<path fill="none" stroke="midnightblue" d="M901.66,-112.44C927.29,-103.4 967.91,-89.06 996.66,-78.92"/>
<polygon fill="midnightblue" stroke="midnightblue" points="998.03,-82.15 1006.29,-75.52 995.7,-75.54 998.03,-82.15"/>
</g>
<!-- Node16 -->
<g id="node16" class="node">
<title>Node16</title>
<g id="a_node16"><a xlink:title=" ">
<polygon fill="white" stroke="#bfbfbf" points="862.42,-56.5 862.42,-75.5 972.42,-75.5 972.42,-56.5 862.42,-56.5"/>
<text text-anchor="middle" x="917.42" y="-63.5" font-family="Helvetica,sans-Serif" font-size="10.00">nlohmann/json.hpp</text>
</a>
</g>
</g>
<!-- Node8&#45;&gt;Node16 -->
<g id="edge17" class="edge">
<title>Node8&#45;&gt;Node16</title>
<path fill="none" stroke="midnightblue" d="M884.03,-112.08C889.68,-104.46 897.97,-93.26 904.87,-83.94"/>
<polygon fill="midnightblue" stroke="midnightblue" points="907.8,-85.87 910.94,-75.75 902.17,-81.7 907.8,-85.87"/>
</g>
<!-- Node9&#45;&gt;Node6 -->
<g id="edge12" class="edge">
<title>Node9&#45;&gt;Node6</title>
<path fill="none" stroke="midnightblue" d="M695.57,-56.44C724.67,-46.92 771.71,-31.52 802.85,-21.33"/>
<polygon fill="midnightblue" stroke="midnightblue" points="803.94,-24.66 812.36,-18.22 801.77,-18 803.94,-24.66"/>
</g>
<!-- Node9&#45;&gt;Node7 -->
<g id="edge15" class="edge">
<title>Node9&#45;&gt;Node7</title>
<path fill="none" stroke="midnightblue" d="M714.64,-57.15C777.63,-46.21 890.36,-26.64 946.59,-16.87"/>
<polygon fill="midnightblue" stroke="midnightblue" points="947.48,-20.27 956.73,-15.11 946.28,-13.38 947.48,-20.27"/>
</g>
<!-- Node10 -->
<g id="node10" class="node">
<title>Node10</title>
<g id="a_node10"><a xlink:title=" ">
<polygon fill="white" stroke="#bfbfbf" points="602.42,-0.5 602.42,-19.5 666.42,-19.5 666.42,-0.5 602.42,-0.5"/>
<text text-anchor="middle" x="634.42" y="-7.5" font-family="Helvetica,sans-Serif" font-size="10.00">algorithm</text>
</a>
</g>
</g>
<!-- Node9&#45;&gt;Node10 -->
<g id="edge9" class="edge">
<title>Node9&#45;&gt;Node10</title>
<path fill="none" stroke="midnightblue" d="M663.64,-56.08C658.75,-48.53 651.59,-37.49 645.59,-28.23"/>
<polygon fill="midnightblue" stroke="midnightblue" points="648.47,-26.24 640.09,-19.75 642.6,-30.05 648.47,-26.24"/>
</g>
<!-- Node11 -->
<g id="node11" class="node">
<title>Node11</title>
<g id="a_node11"><a xlink:title=" ">
<polygon fill="white" stroke="#bfbfbf" points="684.42,-0.5 684.42,-19.5 726.42,-19.5 726.42,-0.5 684.42,-0.5"/>
<text text-anchor="middle" x="705.42" y="-7.5" font-family="Helvetica,sans-Serif" font-size="10.00">array</text>
</a>
</g>
</g>
<!-- Node9&#45;&gt;Node11 -->
<g id="edge10" class="edge">
<title>Node9&#45;&gt;Node11</title>
<path fill="none" stroke="midnightblue" d="M675.37,-56.08C680.4,-48.53 687.76,-37.49 693.94,-28.23"/>
<polygon fill="midnightblue" stroke="midnightblue" points="696.95,-30.01 699.59,-19.75 691.13,-26.13 696.95,-30.01"/>
</g>
<!-- Node12 -->
<g id="node12" class="node">
<title>Node12</title>
<g id="a_node12"><a xlink:title=" ">
<polygon fill="white" stroke="#bfbfbf" points="744.92,-0.5 744.92,-19.5 793.92,-19.5 793.92,-0.5 744.92,-0.5"/>
<text text-anchor="middle" x="769.42" y="-7.5" font-family="Helvetica,sans-Serif" font-size="10.00">cctype</text>
</a>
</g>
</g>
<!-- Node9&#45;&gt;Node12 -->
<g id="edge11" class="edge">
<title>Node9&#45;&gt;Node12</title>
<path fill="none" stroke="midnightblue" d="M685.49,-56.32C701.38,-47.74 725.93,-34.49 744.38,-24.52"/>
<polygon fill="midnightblue" stroke="midnightblue" points="746.26,-27.49 753.39,-19.65 742.93,-21.33 746.26,-27.49"/>
</g>
<!-- Node9&#45;&gt;Node13 -->
<g id="edge13" class="edge">
<title>Node9&#45;&gt;Node13</title>
<path fill="none" stroke="midnightblue" d="M636.3,-56.44C600.3,-47.14 542.65,-32.25 503.24,-22.06"/>
<polygon fill="midnightblue" stroke="midnightblue" points="503.94,-18.63 493.38,-19.52 502.19,-25.41 503.94,-18.63"/>
</g>
<!-- Node14 -->
<g id="node14" class="node">
<title>Node14</title>
<g id="a_node14"><a xlink:title=" ">
<polygon fill="white" stroke="#bfbfbf" points="514.92,-0.5 514.92,-19.5 583.92,-19.5 583.92,-0.5 514.92,-0.5"/>
<text text-anchor="middle" x="549.42" y="-7.5" font-family="Helvetica,sans-Serif" font-size="10.00">type_traits</text>
</a>
</g>
</g>
<!-- Node9&#45;&gt;Node14 -->
<g id="edge14" class="edge">
<title>Node9&#45;&gt;Node14</title>
<path fill="none" stroke="midnightblue" d="M650.41,-56.44C630.83,-47.64 600.11,-33.81 577.69,-23.72"/>
<polygon fill="midnightblue" stroke="midnightblue" points="578.9,-20.43 568.35,-19.52 576.03,-26.81 578.9,-20.43"/>
</g>
</g>
</svg>
        <g id="navigator" transform="translate(0 0)" fill="#404254">
                <rect fill="#f2f5e9" fill-opacity="0.5" stroke="#606060" stroke-width=".5" x="0" y="0" width="60" height="60"/>
                <use id="zoomplus" xlink:href="#zoomPlus" x="17" y="9" onmousedown="handleZoom(evt,'in')"/>
                <use id="zoomminus" xlink:href="#zoomMin" x="42" y="9" onmousedown="handleZoom(evt,'out')"/>
                <use id="reset" xlink:href="#resetDef" x="30" y="36" onmousedown="handleReset()"/>
                <g id="arrowUp" xlink:href="#dirArrow" transform="translate(30 24)" onmousedown="handlePan(0,-1)">
                  <use xlink:href="#rim" fill="#404040">
                        <set attributeName="fill" to="#808080" begin="arrowUp.mouseover" end="arrowUp.mouseout"/>
                  </use>
                  <path fill="none" stroke="white" stroke-width="1.5" d="M0,-3.0v7 M-2.5,-0.5L0,-3.0L2.5,-0.5"/>
                </g>
                <g id="arrowRight" xlink:href="#dirArrow" transform="rotate(90) translate(36 -43)" onmousedown="handlePan(1,0)">
                  <use xlink:href="#rim" fill="#404040">
                        <set attributeName="fill" to="#808080" begin="arrowRight.mouseover" end="arrowRight.mouseout"/>
                  </use>
                  <path fill="none" stroke="white" stroke-width="1.5" d="M0,-3.0v7 M-2.5,-0.5L0,-3.0L2.5,-0.5"/>
                </g>
                <g id="arrowDown" xlink:href="#dirArrow" transform="rotate(180) translate(-30 -48)" onmousedown="handlePan(0,1)">
                  <use xlink:href="#rim" fill="#404040">
                        <set attributeName="fill" to="#808080" begin="arrowDown.mouseover" end="arrowDown.mouseout"/>
                  </use>
                  <path fill="none" stroke="white" stroke-width="1.5" d="M0,-3.0v7 M-2.5,-0.5L0,-3.0L2.5,-0.5"/>
                </g>
                <g id="arrowLeft" xlink:href="#dirArrow" transform="rotate(270) translate(-36 17)" onmousedown="handlePan(-1,0)">
                  <use xlink:href="#rim" fill="#404040">
                        <set attributeName="fill" to="#808080" begin="arrowLeft.mouseover" end="arrowLeft.mouseout"/>
                  </use>
                  <path fill="none" stroke="white" stroke-width="1.5" d="M0,-3.0v7 M-2.5,-0.5L0,-3.0L2.5,-0.5"/>
                </g>
        </g>
        <svg viewBox="0 0 15 15" width="100%" height="30px" preserveAspectRatio="xMaxYMin meet">
         <g id="arrow_out" transform="scale(0.3 0.3)">
          <a xlink:href="ecdsa_8h__incl_org.svg" target="_base">
           <rect id="button" ry="5" rx="5" y="6" x="6" height="38" width="38"
                fill="#f2f5e9" fill-opacity="0.5" stroke="#606060" stroke-width="1.0"/>
           <path id="arrow"
             d="M 11.500037,31.436501 C 11.940474,20.09759 22.043105,11.32322 32.158766,21.979434 L 37.068811,17.246167 C 37.068811,17.246167 37.088388,32 37.088388,32 L 22.160133,31.978069 C 22.160133,31.978069 26.997745,27.140456 26.997745,27.140456 C 18.528582,18.264221 13.291696,25.230495 11.500037,31.436501 z"
             style="fill:#404040;"/>
          </a>
         </g>
        </svg>
</svg>
