<?xml version="1.0" encoding="UTF-8" standalone="no"?>
<!DOCTYPE svg PUBLIC "-//W3C//DTD SVG 1.1//EN"
 "http://www.w3.org/Graphics/SVG/1.1/DTD/svg11.dtd">
<!-- Generated by graphviz version 2.43.0 (0)
 -->
<!-- Title: src/crypto/entropy.cpp Pages: 1 -->
<!--zoomable 420 -->
<svg id="main" version="1.1" xmlns="http://www.w3.org/2000/svg" xmlns:xlink="http://www.w3.org/1999/xlink" xml:space="preserve" onload="init(evt)">
<style type="text/css"><![CDATA[
.edge:hover path { stroke: red; }
.edge:hover polygon { stroke: red; fill: red; }
]]></style>
<script type="text/javascript"><![CDATA[
var edges = document.getElementsByTagName('g');
if (edges && edges.length) {
  for (var i=0;i<edges.length;i++) {
    if (edges[i].id.substr(0,4)=='edge') {
      edges[i].setAttribute('class','edge');
    }
  }
}
]]></script>
        <defs>
                <circle id="rim" cx="0" cy="0" r="7"/>
                <circle id="rim2" cx="0" cy="0" r="3.5"/>
                <g id="zoomPlus">
                        <use xlink:href="#rim" fill="#404040">
                                <set attributeName="fill" to="#808080" begin="zoomplus.mouseover" end="zoomplus.mouseout"/>
                        </use>
                        <path d="M-4,0h8M0,-4v8" fill="none" stroke="white" stroke-width="1.5" pointer-events="none"/>
                </g>
                <g id="zoomMin">
                        <use xlink:href="#rim" fill="#404040">
                                <set attributeName="fill" to="#808080" begin="zoomminus.mouseover" end="zoomminus.mouseout"/>
                        </use>
                        <path d="M-4,0h8" fill="none" stroke="white" stroke-width="1.5" pointer-events="none"/>
                </g>
                <g id="dirArrow">
                        <path fill="none" stroke="white" stroke-width="1.5" d="M0,-3.0v7 M-2.5,-0.5L0,-3.0L2.5,-0.5"/>
                </g>
               <g id="resetDef">
                       <use xlink:href="#rim2" fill="#404040">
                               <set attributeName="fill" to="#808080" begin="reset.mouseover" end="reset.mouseout"/>
                       </use>
               </g>
        </defs>

<script type="text/javascript">
var viewWidth = 1522;
var viewHeight = 420;
var sectionId = 'dynsection-0';
</script>
<script xlink:href="svgpan.js"/>
<svg id="graph" class="graph">
<g id="viewport">
<title>src/crypto/entropy.cpp</title>
<polygon fill="white" stroke="transparent" points="-4,4 -4,-416 1518.49,-416 1518.49,4 -4,4"/>
<!-- Node1 -->
<g id="node1" class="node">
<title>Node1</title>
<g id="a_node1"><a xlink:title=" ">
<polygon fill="#bfbfbf" stroke="black" points="1301.65,-392.5 1301.65,-411.5 1425.65,-411.5 1425.65,-392.5 1301.65,-392.5"/>
<text text-anchor="middle" x="1363.65" y="-399.5" font-family="Helvetica,sans-Serif" font-size="10.00">src/crypto/entropy.cpp</text>
</a>
</g>
</g>
<!-- Node2 -->
<g id="node2" class="node">
<title>Node2</title>
<g id="a_node2"><a xlink:href="include_2ccf_2crypto_2entropy_8h.html" target="_top" xlink:title=" ">
<polygon fill="white" stroke="black" points="1350.15,-224.5 1350.15,-243.5 1463.15,-243.5 1463.15,-224.5 1350.15,-224.5"/>
<text text-anchor="middle" x="1406.65" y="-231.5" font-family="Helvetica,sans-Serif" font-size="10.00">ccf/crypto/entropy.h</text>
</a>
</g>
</g>
<!-- Node1&#45;&gt;Node2 -->
<g id="edge1" class="edge">
<title>Node1&#45;&gt;Node2</title>
<path fill="none" stroke="midnightblue" d="M1371.45,-392.37C1385.75,-375.89 1415.73,-338.15 1426.65,-300 1431.26,-283.9 1424.62,-265.69 1417.78,-252.64"/>
<polygon fill="midnightblue" stroke="midnightblue" points="1420.72,-250.72 1412.7,-243.8 1414.65,-254.21 1420.72,-250.72"/>
</g>
<!-- Node10 -->
<g id="node10" class="node">
<title>Node10</title>
<g id="a_node10"><a xlink:href="src_2crypto_2openssl_2entropy_8h.html" target="_top" xlink:title=" ">
<polygon fill="white" stroke="black" points="1210.65,-336.5 1210.65,-355.5 1312.65,-355.5 1312.65,-336.5 1210.65,-336.5"/>
<text text-anchor="middle" x="1261.65" y="-343.5" font-family="Helvetica,sans-Serif" font-size="10.00">openssl/entropy.h</text>
</a>
</g>
</g>
<!-- Node1&#45;&gt;Node10 -->
<g id="edge9" class="edge">
<title>Node1&#45;&gt;Node10</title>
<path fill="none" stroke="midnightblue" d="M1347.26,-392.32C1330.98,-383.7 1305.78,-370.36 1286.93,-360.39"/>
<polygon fill="midnightblue" stroke="midnightblue" points="1288.47,-357.24 1278,-355.65 1285.2,-363.43 1288.47,-357.24"/>
</g>
<!-- Node3 -->
<g id="node3" class="node">
<title>Node3</title>
<g id="a_node3"><a xlink:title=" ">
<polygon fill="white" stroke="#bfbfbf" points="1380.65,-168.5 1380.65,-187.5 1432.65,-187.5 1432.65,-168.5 1380.65,-168.5"/>
<text text-anchor="middle" x="1406.65" y="-175.5" font-family="Helvetica,sans-Serif" font-size="10.00">cassert</text>
</a>
</g>
</g>
<!-- Node2&#45;&gt;Node3 -->
<g id="edge2" class="edge">
<title>Node2&#45;&gt;Node3</title>
<path fill="none" stroke="midnightblue" d="M1406.65,-224.08C1406.65,-217.01 1406.65,-206.86 1406.65,-197.99"/>
<polygon fill="midnightblue" stroke="midnightblue" points="1410.15,-197.75 1406.65,-187.75 1403.15,-197.75 1410.15,-197.75"/>
</g>
<!-- Node4 -->
<g id="node4" class="node">
<title>Node4</title>
<g id="a_node4"><a xlink:title=" ">
<polygon fill="white" stroke="#bfbfbf" points="1450.65,-168.5 1450.65,-187.5 1500.65,-187.5 1500.65,-168.5 1450.65,-168.5"/>
<text text-anchor="middle" x="1475.65" y="-175.5" font-family="Helvetica,sans-Serif" font-size="10.00">cstdint</text>
</a>
</g>
</g>
<!-- Node2&#45;&gt;Node4 -->
<g id="edge3" class="edge">
<title>Node2&#45;&gt;Node4</title>
<path fill="none" stroke="midnightblue" d="M1417.74,-224.32C1428.14,-216.18 1443.91,-203.84 1456.37,-194.09"/>
<polygon fill="midnightblue" stroke="midnightblue" points="1458.64,-196.75 1464.36,-187.83 1454.33,-191.24 1458.64,-196.75"/>
</g>
<!-- Node5 -->
<g id="node5" class="node">
<title>Node5</title>
<g id="a_node5"><a xlink:title=" ">
<polygon fill="white" stroke="#bfbfbf" points="1051.65,-168.5 1051.65,-187.5 1101.65,-187.5 1101.65,-168.5 1051.65,-168.5"/>
<text text-anchor="middle" x="1076.65" y="-175.5" font-family="Helvetica,sans-Serif" font-size="10.00">cstring</text>
</a>
</g>
</g>
<!-- Node2&#45;&gt;Node5 -->
<g id="edge4" class="edge">
<title>Node2&#45;&gt;Node5</title>
<path fill="none" stroke="midnightblue" d="M1350.13,-226.25C1292.49,-218.95 1200.31,-206.15 1111.77,-188.05"/>
<polygon fill="midnightblue" stroke="midnightblue" points="1112.33,-184.59 1101.83,-185.99 1110.91,-191.44 1112.33,-184.59"/>
</g>
<!-- Node6 -->
<g id="node6" class="node">
<title>Node6</title>
<g id="a_node6"><a xlink:title=" ">
<polygon fill="white" stroke="#bfbfbf" points="1119.65,-168.5 1119.65,-187.5 1177.65,-187.5 1177.65,-168.5 1119.65,-168.5"/>
<text text-anchor="middle" x="1148.65" y="-175.5" font-family="Helvetica,sans-Serif" font-size="10.00">memory</text>
</a>
</g>
</g>
<!-- Node2&#45;&gt;Node6 -->
<g id="edge5" class="edge">
<title>Node2&#45;&gt;Node6</title>
<path fill="none" stroke="midnightblue" d="M1365.77,-224.44C1316.92,-214.22 1235.79,-197.24 1187.74,-187.18"/>
<polygon fill="midnightblue" stroke="midnightblue" points="1188.23,-183.71 1177.73,-185.09 1186.8,-190.56 1188.23,-183.71"/>
</g>
<!-- Node7 -->
<g id="node7" class="node">
<title>Node7</title>
<g id="a_node7"><a xlink:title=" ">
<polygon fill="white" stroke="#bfbfbf" points="1234.15,-168.5 1234.15,-187.5 1299.15,-187.5 1299.15,-168.5 1234.15,-168.5"/>
<text text-anchor="middle" x="1266.65" y="-175.5" font-family="Helvetica,sans-Serif" font-size="10.00">stdexcept</text>
</a>
</g>
</g>
<!-- Node2&#45;&gt;Node7 -->
<g id="edge6" class="edge">
<title>Node2&#45;&gt;Node7</title>
<path fill="none" stroke="midnightblue" d="M1384.47,-224.44C1361.22,-215.48 1324.5,-201.31 1298.23,-191.18"/>
<polygon fill="midnightblue" stroke="midnightblue" points="1299.32,-187.85 1288.73,-187.52 1296.8,-194.38 1299.32,-187.85"/>
</g>
<!-- Node8 -->
<g id="node8" class="node">
<title>Node8</title>
<g id="a_node8"><a xlink:title=" ">
<polygon fill="white" stroke="#bfbfbf" points="1317.15,-168.5 1317.15,-187.5 1362.15,-187.5 1362.15,-168.5 1317.15,-168.5"/>
<text text-anchor="middle" x="1339.65" y="-175.5" font-family="Helvetica,sans-Serif" font-size="10.00">utility</text>
</a>
</g>
</g>
<!-- Node2&#45;&gt;Node8 -->
<g id="edge7" class="edge">
<title>Node2&#45;&gt;Node8</title>
<path fill="none" stroke="midnightblue" d="M1395.88,-224.32C1385.88,-216.26 1370.76,-204.08 1358.72,-194.37"/>
<polygon fill="midnightblue" stroke="midnightblue" points="1360.59,-191.38 1350.61,-187.83 1356.2,-196.83 1360.59,-191.38"/>
</g>
<!-- Node9 -->
<g id="node9" class="node">
<title>Node9</title>
<g id="a_node9"><a xlink:title=" ">
<polygon fill="white" stroke="#bfbfbf" points="1000.15,-0.5 1000.15,-19.5 1047.15,-19.5 1047.15,-0.5 1000.15,-0.5"/>
<text text-anchor="middle" x="1023.65" y="-7.5" font-family="Helvetica,sans-Serif" font-size="10.00">vector</text>
</a>
</g>
</g>
<!-- Node2&#45;&gt;Node9 -->
<g id="edge8" class="edge">
<title>Node2&#45;&gt;Node9</title>
<path fill="none" stroke="midnightblue" d="M1446.29,-224.48C1482.92,-214.66 1528.96,-196.16 1509.65,-168 1456.55,-90.58 1158.77,-33.82 1057.42,-16.51"/>
<polygon fill="midnightblue" stroke="midnightblue" points="1057.86,-13.03 1047.42,-14.82 1056.7,-19.94 1057.86,-13.03"/>
</g>
<!-- Node10&#45;&gt;Node2 -->
<g id="edge10" class="edge">
<title>Node10&#45;&gt;Node2</title>
<path fill="none" stroke="midnightblue" d="M1312.93,-344.11C1346.3,-340.53 1387.58,-329.77 1409.65,-300 1419.51,-286.69 1417.09,-267.31 1413.23,-253.17"/>
<polygon fill="midnightblue" stroke="midnightblue" points="1416.54,-252.03 1410.17,-243.57 1409.87,-254.16 1416.54,-252.03"/>
</g>
<!-- Node10&#45;&gt;Node6 -->
<g id="edge48" class="edge">
<title>Node10&#45;&gt;Node6</title>
<path fill="none" stroke="midnightblue" d="M1238.57,-336.41C1221.92,-329.1 1200.09,-317.06 1186.65,-300 1162.54,-269.4 1153.61,-223.31 1150.39,-197.75"/>
<polygon fill="midnightblue" stroke="midnightblue" points="1153.84,-197.14 1149.28,-187.58 1146.88,-197.9 1153.84,-197.14"/>
</g>
<!-- Node10&#45;&gt;Node9 -->
<g id="edge50" class="edge">
<title>Node10&#45;&gt;Node9</title>
<path fill="none" stroke="midnightblue" d="M1251.36,-336.4C1242,-328.04 1228.49,-314.5 1220.65,-300 1191.84,-246.7 1217.18,-220.33 1186.65,-168 1149.75,-104.76 1080.2,-50.4 1045.09,-25.5"/>
<polygon fill="midnightblue" stroke="midnightblue" points="1046.75,-22.39 1036.55,-19.54 1042.75,-28.13 1046.75,-22.39"/>
</g>
<!-- Node11 -->
<g id="node11" class="node">
<title>Node11</title>
<g id="a_node11"><a xlink:href="openssl__wrappers_8h.html" target="_top" xlink:title=" ">
<polygon fill="white" stroke="black" points="542.15,-280.5 542.15,-299.5 655.15,-299.5 655.15,-280.5 542.15,-280.5"/>
<text text-anchor="middle" x="598.65" y="-287.5" font-family="Helvetica,sans-Serif" font-size="10.00">openssl_wrappers.h</text>
</a>
</g>
</g>
<!-- Node10&#45;&gt;Node11 -->
<g id="edge11" class="edge">
<title>Node10&#45;&gt;Node11</title>
<path fill="none" stroke="midnightblue" d="M1210.45,-340.83C1091.75,-331.16 797.79,-307.22 665.29,-296.43"/>
<polygon fill="midnightblue" stroke="midnightblue" points="665.52,-292.94 655.27,-295.61 664.96,-299.91 665.52,-292.94"/>
</g>
<!-- Node37 -->
<g id="node37" class="node">
<title>Node37</title>
<g id="a_node37"><a xlink:title=" ">
<polygon fill="white" stroke="#bfbfbf" points="1229.15,-280.5 1229.15,-299.5 1294.15,-299.5 1294.15,-280.5 1229.15,-280.5"/>
<text text-anchor="middle" x="1261.65" y="-287.5" font-family="Helvetica,sans-Serif" font-size="10.00">functional</text>
</a>
</g>
</g>
<!-- Node10&#45;&gt;Node37 -->
<g id="edge47" class="edge">
<title>Node10&#45;&gt;Node37</title>
<path fill="none" stroke="midnightblue" d="M1261.65,-336.08C1261.65,-329.01 1261.65,-318.86 1261.65,-309.99"/>
<polygon fill="midnightblue" stroke="midnightblue" points="1265.15,-309.75 1261.65,-299.75 1258.15,-309.75 1265.15,-309.75"/>
</g>
<!-- Node38 -->
<g id="node38" class="node">
<title>Node38</title>
<g id="a_node38"><a xlink:title=" ">
<polygon fill="white" stroke="#bfbfbf" points="1312.65,-280.5 1312.65,-299.5 1400.65,-299.5 1400.65,-280.5 1312.65,-280.5"/>
<text text-anchor="middle" x="1356.65" y="-287.5" font-family="Helvetica,sans-Serif" font-size="10.00">openssl/rand.h</text>
</a>
</g>
</g>
<!-- Node10&#45;&gt;Node38 -->
<g id="edge49" class="edge">
<title>Node10&#45;&gt;Node38</title>
<path fill="none" stroke="midnightblue" d="M1276.91,-336.32C1291.87,-327.82 1314.9,-314.73 1332.38,-304.8"/>
<polygon fill="midnightblue" stroke="midnightblue" points="1334.46,-307.64 1341.42,-299.65 1331,-301.55 1334.46,-307.64"/>
</g>
<!-- Node11&#45;&gt;Node6 -->
<g id="edge37" class="edge">
<title>Node11&#45;&gt;Node6</title>
<path fill="none" stroke="midnightblue" d="M655.55,-289.17C768.96,-288.65 1018.72,-282.97 1093.65,-244 1113.87,-233.48 1129.69,-212.05 1139.07,-196.67"/>
<polygon fill="midnightblue" stroke="midnightblue" points="1142.33,-198.02 1144.29,-187.61 1136.26,-194.53 1142.33,-198.02"/>
</g>
<!-- Node12 -->
<g id="node12" class="node">
<title>Node12</title>
<g id="a_node12"><a xlink:href="pem_8h.html" target="_top" xlink:title=" ">
<polygon fill="white" stroke="black" points="986.65,-224.5 986.65,-243.5 1084.65,-243.5 1084.65,-224.5 986.65,-224.5"/>
<text text-anchor="middle" x="1035.65" y="-231.5" font-family="Helvetica,sans-Serif" font-size="10.00">ccf/crypto/pem.h</text>
</a>
</g>
</g>
<!-- Node11&#45;&gt;Node12 -->
<g id="edge12" class="edge">
<title>Node11&#45;&gt;Node12</title>
<path fill="none" stroke="midnightblue" d="M655.24,-282.92C727.36,-275.03 856.14,-260.46 976.49,-244.12"/>
<polygon fill="midnightblue" stroke="midnightblue" points="977.19,-247.55 986.62,-242.73 976.24,-240.62 977.19,-247.55"/>
</g>
<!-- Node23 -->
<g id="node23" class="node">
<title>Node23</title>
<g id="a_node23"><a xlink:title=" ">
<polygon fill="white" stroke="#bfbfbf" points="550.15,-56.5 550.15,-75.5 629.15,-75.5 629.15,-56.5 550.15,-56.5"/>
<text text-anchor="middle" x="589.65" y="-63.5" font-family="Helvetica,sans-Serif" font-size="10.00">fmt/format.h</text>
</a>
</g>
</g>
<!-- Node11&#45;&gt;Node23 -->
<g id="edge36" class="edge">
<title>Node11&#45;&gt;Node23</title>
<path fill="none" stroke="midnightblue" d="M542.06,-288.8C404.64,-287.71 62.09,-281.27 27.65,-244 -121.74,-82.38 376.93,-67.4 539.88,-66.74"/>
<polygon fill="midnightblue" stroke="midnightblue" points="540.12,-70.24 550.11,-66.71 540.11,-63.24 540.12,-70.24"/>
</g>
<!-- Node28 -->
<g id="node28" class="node">
<title>Node28</title>
<g id="a_node28"><a xlink:title=" ">
<polygon fill="white" stroke="#bfbfbf" points="37.15,-224.5 37.15,-243.5 126.15,-243.5 126.15,-224.5 37.15,-224.5"/>
<text text-anchor="middle" x="81.65" y="-231.5" font-family="Helvetica,sans-Serif" font-size="10.00">openssl/asn1.h</text>
</a>
</g>
</g>
<!-- Node11&#45;&gt;Node28 -->
<g id="edge38" class="edge">
<title>Node11&#45;&gt;Node28</title>
<path fill="none" stroke="midnightblue" d="M542.07,-284.83C456.41,-278.22 288.47,-264.13 136.43,-244.16"/>
<polygon fill="midnightblue" stroke="midnightblue" points="136.81,-240.68 126.43,-242.84 135.89,-247.62 136.81,-240.68"/>
</g>
<!-- Node29 -->
<g id="node29" class="node">
<title>Node29</title>
<g id="a_node29"><a xlink:title=" ">
<polygon fill="white" stroke="#bfbfbf" points="144.15,-224.5 144.15,-243.5 221.15,-243.5 221.15,-224.5 144.15,-224.5"/>
<text text-anchor="middle" x="182.65" y="-231.5" font-family="Helvetica,sans-Serif" font-size="10.00">openssl/ec.h</text>
</a>
</g>
</g>
<!-- Node11&#45;&gt;Node29 -->
<g id="edge39" class="edge">
<title>Node11&#45;&gt;Node29</title>
<path fill="none" stroke="midnightblue" d="M541.91,-283.29C471.37,-275.92 347.09,-262.06 231.43,-244.2"/>
<polygon fill="midnightblue" stroke="midnightblue" points="231.76,-240.71 221.34,-242.62 230.68,-247.62 231.76,-240.71"/>
</g>
<!-- Node30 -->
<g id="node30" class="node">
<title>Node30</title>
<g id="a_node30"><a xlink:title=" ">
<polygon fill="white" stroke="#bfbfbf" points="239.15,-224.5 239.15,-243.5 338.15,-243.5 338.15,-224.5 239.15,-224.5"/>
<text text-anchor="middle" x="288.65" y="-231.5" font-family="Helvetica,sans-Serif" font-size="10.00">openssl/engine.h</text>
</a>
</g>
</g>
<!-- Node11&#45;&gt;Node30 -->
<g id="edge40" class="edge">
<title>Node11&#45;&gt;Node30</title>
<path fill="none" stroke="midnightblue" d="M549.53,-280.44C494.77,-270.9 406.24,-255.48 347.74,-245.29"/>
<polygon fill="midnightblue" stroke="midnightblue" points="347.99,-241.78 337.54,-243.52 346.79,-248.68 347.99,-241.78"/>
</g>
<!-- Node31 -->
<g id="node31" class="node">
<title>Node31</title>
<g id="a_node31"><a xlink:title=" ">
<polygon fill="white" stroke="#bfbfbf" points="356.15,-224.5 356.15,-243.5 435.15,-243.5 435.15,-224.5 356.15,-224.5"/>
<text text-anchor="middle" x="395.65" y="-231.5" font-family="Helvetica,sans-Serif" font-size="10.00">openssl/err.h</text>
</a>
</g>
</g>
<!-- Node11&#45;&gt;Node31 -->
<g id="edge41" class="edge">
<title>Node11&#45;&gt;Node31</title>
<path fill="none" stroke="midnightblue" d="M566.48,-280.44C531.59,-271.16 475.76,-256.31 437.48,-246.13"/>
<polygon fill="midnightblue" stroke="midnightblue" points="438.23,-242.7 427.66,-243.52 436.43,-249.47 438.23,-242.7"/>
</g>
<!-- Node32 -->
<g id="node32" class="node">
<title>Node32</title>
<g id="a_node32"><a xlink:title=" ">
<polygon fill="white" stroke="#bfbfbf" points="452.65,-224.5 452.65,-243.5 536.65,-243.5 536.65,-224.5 452.65,-224.5"/>
<text text-anchor="middle" x="494.65" y="-231.5" font-family="Helvetica,sans-Serif" font-size="10.00">openssl/evp.h</text>
</a>
</g>
</g>
<!-- Node11&#45;&gt;Node32 -->
<g id="edge42" class="edge">
<title>Node11&#45;&gt;Node32</title>
<path fill="none" stroke="midnightblue" d="M581.94,-280.32C565.34,-271.7 539.65,-258.36 520.43,-248.39"/>
<polygon fill="midnightblue" stroke="midnightblue" points="521.81,-245.16 511.32,-243.65 518.58,-251.37 521.81,-245.16"/>
</g>
<!-- Node33 -->
<g id="node33" class="node">
<title>Node33</title>
<g id="a_node33"><a xlink:title=" ">
<polygon fill="white" stroke="#bfbfbf" points="554.65,-224.5 554.65,-243.5 642.65,-243.5 642.65,-224.5 554.65,-224.5"/>
<text text-anchor="middle" x="598.65" y="-231.5" font-family="Helvetica,sans-Serif" font-size="10.00">openssl/pem.h</text>
</a>
</g>
</g>
<!-- Node11&#45;&gt;Node33 -->
<g id="edge43" class="edge">
<title>Node11&#45;&gt;Node33</title>
<path fill="none" stroke="midnightblue" d="M598.65,-280.08C598.65,-273.01 598.65,-262.86 598.65,-253.99"/>
<polygon fill="midnightblue" stroke="midnightblue" points="602.15,-253.75 598.65,-243.75 595.15,-253.75 602.15,-253.75"/>
</g>
<!-- Node34 -->
<g id="node34" class="node">
<title>Node34</title>
<g id="a_node34"><a xlink:title=" ">
<polygon fill="white" stroke="#bfbfbf" points="660.65,-224.5 660.65,-243.5 740.65,-243.5 740.65,-224.5 660.65,-224.5"/>
<text text-anchor="middle" x="700.65" y="-231.5" font-family="Helvetica,sans-Serif" font-size="10.00">openssl/ssl.h</text>
</a>
</g>
</g>
<!-- Node11&#45;&gt;Node34 -->
<g id="edge44" class="edge">
<title>Node11&#45;&gt;Node34</title>
<path fill="none" stroke="midnightblue" d="M615.04,-280.32C631.32,-271.7 656.52,-258.36 675.37,-248.39"/>
<polygon fill="midnightblue" stroke="midnightblue" points="677.1,-251.43 684.3,-243.65 673.83,-245.24 677.1,-251.43"/>
</g>
<!-- Node35 -->
<g id="node35" class="node">
<title>Node35</title>
<g id="a_node35"><a xlink:title=" ">
<polygon fill="white" stroke="#bfbfbf" points="758.65,-224.5 758.65,-243.5 848.65,-243.5 848.65,-224.5 758.65,-224.5"/>
<text text-anchor="middle" x="803.65" y="-231.5" font-family="Helvetica,sans-Serif" font-size="10.00">openssl/x509.h</text>
</a>
</g>
</g>
<!-- Node11&#45;&gt;Node35 -->
<g id="edge45" class="edge">
<title>Node11&#45;&gt;Node35</title>
<path fill="none" stroke="midnightblue" d="M631.13,-280.44C666.37,-271.16 722.75,-256.31 761.41,-246.13"/>
<polygon fill="midnightblue" stroke="midnightblue" points="762.54,-249.45 771.32,-243.52 760.76,-242.68 762.54,-249.45"/>
</g>
<!-- Node36 -->
<g id="node36" class="node">
<title>Node36</title>
<g id="a_node36"><a xlink:title=" ">
<polygon fill="white" stroke="#bfbfbf" points="866.65,-224.5 866.65,-243.5 968.65,-243.5 968.65,-224.5 866.65,-224.5"/>
<text text-anchor="middle" x="917.65" y="-231.5" font-family="Helvetica,sans-Serif" font-size="10.00">openssl/x509v3.h</text>
</a>
</g>
</g>
<!-- Node11&#45;&gt;Node36 -->
<g id="edge46" class="edge">
<title>Node11&#45;&gt;Node36</title>
<path fill="none" stroke="midnightblue" d="M649.2,-280.44C705.66,-270.89 797.02,-255.42 857.22,-245.23"/>
<polygon fill="midnightblue" stroke="midnightblue" points="858.06,-248.64 867.34,-243.52 856.9,-241.73 858.06,-248.64"/>
</g>
<!-- Node12&#45;&gt;Node5 -->
<g id="edge30" class="edge">
<title>Node12&#45;&gt;Node5</title>
<path fill="none" stroke="midnightblue" d="M1042.42,-224.08C1048.21,-216.46 1056.71,-205.26 1063.79,-195.94"/>
<polygon fill="midnightblue" stroke="midnightblue" points="1066.75,-197.83 1070.01,-187.75 1061.17,-193.6 1066.75,-197.83"/>
</g>
<!-- Node12&#45;&gt;Node6 -->
<g id="edge32" class="edge">
<title>Node12&#45;&gt;Node6</title>
<path fill="none" stroke="midnightblue" d="M1053.55,-224.44C1071.9,-215.68 1100.65,-201.94 1121.74,-191.86"/>
<polygon fill="midnightblue" stroke="midnightblue" points="1123.31,-194.99 1130.83,-187.52 1120.3,-188.67 1123.31,-194.99"/>
</g>
<!-- Node12&#45;&gt;Node9 -->
<g id="edge35" class="edge">
<title>Node12&#45;&gt;Node9</title>
<path fill="none" stroke="midnightblue" d="M1035.18,-224.3C1033.41,-191.63 1027.16,-75.87 1024.67,-29.96"/>
<polygon fill="midnightblue" stroke="midnightblue" points="1028.16,-29.68 1024.13,-19.88 1021.17,-30.06 1028.16,-29.68"/>
</g>
<!-- Node13 -->
<g id="node13" class="node">
<title>Node13</title>
<g id="a_node13"><a xlink:href="json_8h.html" target="_top" xlink:title=" ">
<polygon fill="white" stroke="black" points="760.15,-168.5 760.15,-187.5 837.15,-187.5 837.15,-168.5 760.15,-168.5"/>
<text text-anchor="middle" x="798.65" y="-175.5" font-family="Helvetica,sans-Serif" font-size="10.00">ccf/ds/json.h</text>
</a>
</g>
</g>
<!-- Node12&#45;&gt;Node13 -->
<g id="edge13" class="edge">
<title>Node12&#45;&gt;Node13</title>
<path fill="none" stroke="midnightblue" d="M998.1,-224.44C956.84,-215.04 890.51,-199.93 845.78,-189.74"/>
<polygon fill="midnightblue" stroke="midnightblue" points="846.55,-186.33 836.03,-187.52 845,-193.15 846.55,-186.33"/>
</g>
<!-- Node21 -->
<g id="node21" class="node">
<title>Node21</title>
<g id="a_node21"><a xlink:title=" ">
<polygon fill="white" stroke="#bfbfbf" points="489.15,-0.5 489.15,-19.5 562.15,-19.5 562.15,-0.5 489.15,-0.5"/>
<text text-anchor="middle" x="525.65" y="-7.5" font-family="Helvetica,sans-Serif" font-size="10.00">string_view</text>
</a>
</g>
</g>
<!-- Node12&#45;&gt;Node21 -->
<g id="edge34" class="edge">
<title>Node12&#45;&gt;Node21</title>
<path fill="none" stroke="midnightblue" d="M986.42,-225.34C906.62,-212.9 757.29,-189.54 751.65,-188 686.2,-170.14 668.23,-166.22 609.65,-132 575.55,-112.08 561.56,-109.51 540.65,-76 531.93,-62.03 528.27,-43.53 526.74,-29.84"/>
<polygon fill="midnightblue" stroke="midnightblue" points="530.21,-29.34 525.89,-19.67 523.23,-29.93 530.21,-29.34"/>
</g>
<!-- Node26 -->
<g id="node26" class="node">
<title>Node26</title>
<g id="a_node26"><a xlink:title=" ">
<polygon fill="white" stroke="#bfbfbf" points="872.15,-168.5 872.15,-187.5 937.15,-187.5 937.15,-168.5 872.15,-168.5"/>
<text text-anchor="middle" x="904.65" y="-175.5" font-family="Helvetica,sans-Serif" font-size="10.00">exception</text>
</a>
</g>
</g>
<!-- Node12&#45;&gt;Node26 -->
<g id="edge31" class="edge">
<title>Node12&#45;&gt;Node26</title>
<path fill="none" stroke="midnightblue" d="M1014.89,-224.44C993.33,-215.56 959.39,-201.56 934.86,-191.45"/>
<polygon fill="midnightblue" stroke="midnightblue" points="935.89,-188.09 925.31,-187.52 933.22,-194.56 935.89,-188.09"/>
</g>
<!-- Node27 -->
<g id="node27" class="node">
<title>Node27</title>
<g id="a_node27"><a xlink:title=" ">
<polygon fill="white" stroke="#bfbfbf" points="955.65,-168.5 955.65,-187.5 995.65,-187.5 995.65,-168.5 955.65,-168.5"/>
<text text-anchor="middle" x="975.65" y="-175.5" font-family="Helvetica,sans-Serif" font-size="10.00">span</text>
</a>
</g>
</g>
<!-- Node12&#45;&gt;Node27 -->
<g id="edge33" class="edge">
<title>Node12&#45;&gt;Node27</title>
<path fill="none" stroke="midnightblue" d="M1026.01,-224.32C1017.14,-216.34 1003.77,-204.31 993.04,-194.65"/>
<polygon fill="midnightblue" stroke="midnightblue" points="995.24,-191.92 985.46,-187.83 990.56,-197.13 995.24,-191.92"/>
</g>
<!-- Node14 -->
<g id="node14" class="node">
<title>Node14</title>
<g id="a_node14"><a xlink:href="include_2ccf_2crypto_2base64_8h.html" target="_top" xlink:title=" ">
<polygon fill="white" stroke="black" points="883.65,-56.5 883.65,-75.5 995.65,-75.5 995.65,-56.5 883.65,-56.5"/>
<text text-anchor="middle" x="939.65" y="-63.5" font-family="Helvetica,sans-Serif" font-size="10.00">ccf/crypto/base64.h</text>
</a>
</g>
</g>
<!-- Node13&#45;&gt;Node14 -->
<g id="edge14" class="edge">
<title>Node13&#45;&gt;Node14</title>
<path fill="none" stroke="midnightblue" d="M798.81,-168.22C799.53,-154.48 802.89,-127.82 817.65,-112 833.08,-95.47 855.11,-84.99 876.21,-78.35"/>
<polygon fill="midnightblue" stroke="midnightblue" points="877.19,-81.71 885.82,-75.56 875.24,-74.99 877.19,-81.71"/>
</g>
<!-- Node16 -->
<g id="node16" class="node">
<title>Node16</title>
<g id="a_node16"><a xlink:href="include_2ccf_2ds_2json__schema_8h.html" target="_top" xlink:title=" ">
<polygon fill="white" stroke="black" points="640.15,-112.5 640.15,-131.5 761.15,-131.5 761.15,-112.5 640.15,-112.5"/>
<text text-anchor="middle" x="700.65" y="-119.5" font-family="Helvetica,sans-Serif" font-size="10.00">ccf/ds/json_schema.h</text>
</a>
</g>
</g>
<!-- Node13&#45;&gt;Node16 -->
<g id="edge17" class="edge">
<title>Node13&#45;&gt;Node16</title>
<path fill="none" stroke="midnightblue" d="M782.9,-168.32C767.33,-159.74 743.27,-146.49 725.19,-136.52"/>
<polygon fill="midnightblue" stroke="midnightblue" points="726.8,-133.42 716.36,-131.65 723.43,-139.55 726.8,-133.42"/>
</g>
<!-- Node13&#45;&gt;Node23 -->
<g id="edge28" class="edge">
<title>Node13&#45;&gt;Node23</title>
<path fill="none" stroke="midnightblue" d="M760.13,-174.48C723.92,-170.41 669.74,-159.78 631.65,-132 615.4,-120.15 603.8,-99.94 596.96,-85.19"/>
<polygon fill="midnightblue" stroke="midnightblue" points="600,-83.41 592.82,-75.62 593.58,-86.19 600,-83.41"/>
</g>
<!-- Node25 -->
<g id="node25" class="node">
<title>Node25</title>
<g id="a_node25"><a xlink:title=" ">
<polygon fill="white" stroke="#bfbfbf" points="826.65,-112.5 826.65,-131.5 882.65,-131.5 882.65,-112.5 826.65,-112.5"/>
<text text-anchor="middle" x="854.65" y="-119.5" font-family="Helvetica,sans-Serif" font-size="10.00">sstream</text>
</a>
</g>
</g>
<!-- Node13&#45;&gt;Node25 -->
<g id="edge29" class="edge">
<title>Node13&#45;&gt;Node25</title>
<path fill="none" stroke="midnightblue" d="M807.65,-168.32C815.84,-160.42 828.16,-148.55 838.12,-138.94"/>
<polygon fill="midnightblue" stroke="midnightblue" points="840.72,-141.29 845.49,-131.83 835.86,-136.26 840.72,-141.29"/>
</g>
<!-- Node14&#45;&gt;Node9 -->
<g id="edge16" class="edge">
<title>Node14&#45;&gt;Node9</title>
<path fill="none" stroke="midnightblue" d="M953.15,-56.32C966.25,-47.9 986.36,-34.97 1001.76,-25.07"/>
<polygon fill="midnightblue" stroke="midnightblue" points="1003.67,-28.01 1010.19,-19.65 999.88,-22.12 1003.67,-28.01"/>
</g>
<!-- Node15 -->
<g id="node15" class="node">
<title>Node15</title>
<g id="a_node15"><a xlink:title=" ">
<polygon fill="white" stroke="#bfbfbf" points="899.65,-0.5 899.65,-19.5 943.65,-19.5 943.65,-0.5 899.65,-0.5"/>
<text text-anchor="middle" x="921.65" y="-7.5" font-family="Helvetica,sans-Serif" font-size="10.00">string</text>
</a>
</g>
</g>
<!-- Node14&#45;&gt;Node15 -->
<g id="edge15" class="edge">
<title>Node14&#45;&gt;Node15</title>
<path fill="none" stroke="midnightblue" d="M936.68,-56.08C934.27,-48.85 930.79,-38.41 927.78,-29.4"/>
<polygon fill="midnightblue" stroke="midnightblue" points="931.05,-28.13 924.57,-19.75 924.41,-30.34 931.05,-28.13"/>
</g>
<!-- Node17 -->
<g id="node17" class="node">
<title>Node17</title>
<g id="a_node17"><a xlink:href="nonstd_8h.html" target="_top" xlink:title=" ">
<polygon fill="white" stroke="black" points="647.65,-56.5 647.65,-75.5 737.65,-75.5 737.65,-56.5 647.65,-56.5"/>
<text text-anchor="middle" x="692.65" y="-63.5" font-family="Helvetica,sans-Serif" font-size="10.00">ccf/ds/nonstd.h</text>
</a>
</g>
</g>
<!-- Node16&#45;&gt;Node17 -->
<g id="edge18" class="edge">
<title>Node16&#45;&gt;Node17</title>
<path fill="none" stroke="midnightblue" d="M699.33,-112.08C698.27,-104.93 696.74,-94.64 695.42,-85.69"/>
<polygon fill="midnightblue" stroke="midnightblue" points="698.87,-85.13 693.95,-75.75 691.95,-86.16 698.87,-85.13"/>
</g>
<!-- Node16&#45;&gt;Node23 -->
<g id="edge26" class="edge">
<title>Node16&#45;&gt;Node23</title>
<path fill="none" stroke="midnightblue" d="M682.82,-112.32C664.93,-103.62 637.17,-90.12 616.6,-80.11"/>
<polygon fill="midnightblue" stroke="midnightblue" points="617.96,-76.88 607.44,-75.65 614.9,-83.18 617.96,-76.88"/>
</g>
<!-- Node24 -->
<g id="node24" class="node">
<title>Node24</title>
<g id="a_node24"><a xlink:title=" ">
<polygon fill="white" stroke="#bfbfbf" points="755.65,-56.5 755.65,-75.5 865.65,-75.5 865.65,-56.5 755.65,-56.5"/>
<text text-anchor="middle" x="810.65" y="-63.5" font-family="Helvetica,sans-Serif" font-size="10.00">nlohmann/json.hpp</text>
</a>
</g>
</g>
<!-- Node16&#45;&gt;Node24 -->
<g id="edge27" class="edge">
<title>Node16&#45;&gt;Node24</title>
<path fill="none" stroke="midnightblue" d="M718.32,-112.32C736.04,-103.62 763.55,-90.12 783.94,-80.11"/>
<polygon fill="midnightblue" stroke="midnightblue" points="785.59,-83.2 793.02,-75.65 782.5,-76.92 785.59,-83.2"/>
</g>
<!-- Node17&#45;&gt;Node9 -->
<g id="edge25" class="edge">
<title>Node17&#45;&gt;Node9</title>
<path fill="none" stroke="midnightblue" d="M737.73,-57.47C740.75,-56.97 743.74,-56.48 746.65,-56 834.35,-41.57 937.73,-24.85 989.9,-16.44"/>
<polygon fill="midnightblue" stroke="midnightblue" points="990.61,-19.87 999.93,-14.82 989.5,-12.96 990.61,-19.87"/>
</g>
<!-- Node17&#45;&gt;Node15 -->
<g id="edge22" class="edge">
<title>Node17&#45;&gt;Node15</title>
<path fill="none" stroke="midnightblue" d="M728.94,-56.44C773.21,-46 847.37,-28.52 889.62,-18.55"/>
<polygon fill="midnightblue" stroke="midnightblue" points="890.45,-21.95 899.38,-16.25 888.85,-15.14 890.45,-21.95"/>
</g>
<!-- Node18 -->
<g id="node18" class="node">
<title>Node18</title>
<g id="a_node18"><a xlink:title=" ">
<polygon fill="white" stroke="#bfbfbf" points="583.65,-0.5 583.65,-19.5 647.65,-19.5 647.65,-0.5 583.65,-0.5"/>
<text text-anchor="middle" x="615.65" y="-7.5" font-family="Helvetica,sans-Serif" font-size="10.00">algorithm</text>
</a>
</g>
</g>
<!-- Node17&#45;&gt;Node18 -->
<g id="edge19" class="edge">
<title>Node17&#45;&gt;Node18</title>
<path fill="none" stroke="midnightblue" d="M680.28,-56.32C668.49,-48.06 650.52,-35.45 636.51,-25.63"/>
<polygon fill="midnightblue" stroke="midnightblue" points="638.19,-22.53 627.99,-19.65 634.17,-28.26 638.19,-22.53"/>
</g>
<!-- Node19 -->
<g id="node19" class="node">
<title>Node19</title>
<g id="a_node19"><a xlink:title=" ">
<polygon fill="white" stroke="#bfbfbf" points="665.65,-0.5 665.65,-19.5 707.65,-19.5 707.65,-0.5 665.65,-0.5"/>
<text text-anchor="middle" x="686.65" y="-7.5" font-family="Helvetica,sans-Serif" font-size="10.00">array</text>
</a>
</g>
</g>
<!-- Node17&#45;&gt;Node19 -->
<g id="edge20" class="edge">
<title>Node17&#45;&gt;Node19</title>
<path fill="none" stroke="midnightblue" d="M691.66,-56.08C690.86,-48.93 689.72,-38.64 688.73,-29.69"/>
<polygon fill="midnightblue" stroke="midnightblue" points="692.2,-29.3 687.62,-19.75 685.25,-30.08 692.2,-29.3"/>
</g>
<!-- Node20 -->
<g id="node20" class="node">
<title>Node20</title>
<g id="a_node20"><a xlink:title=" ">
<polygon fill="white" stroke="#bfbfbf" points="726.15,-0.5 726.15,-19.5 775.15,-19.5 775.15,-0.5 726.15,-0.5"/>
<text text-anchor="middle" x="750.65" y="-7.5" font-family="Helvetica,sans-Serif" font-size="10.00">cctype</text>
</a>
</g>
</g>
<!-- Node17&#45;&gt;Node20 -->
<g id="edge21" class="edge">
<title>Node17&#45;&gt;Node20</title>
<path fill="none" stroke="midnightblue" d="M701.97,-56.32C710.54,-48.34 723.46,-36.31 733.84,-26.65"/>
<polygon fill="midnightblue" stroke="midnightblue" points="736.23,-29.21 741.16,-19.83 731.46,-24.09 736.23,-29.21"/>
</g>
<!-- Node17&#45;&gt;Node21 -->
<g id="edge23" class="edge">
<title>Node17&#45;&gt;Node21</title>
<path fill="none" stroke="midnightblue" d="M666.19,-56.44C637.97,-47.32 593.11,-32.81 561.68,-22.65"/>
<polygon fill="midnightblue" stroke="midnightblue" points="562.58,-19.26 551.99,-19.52 560.43,-25.92 562.58,-19.26"/>
</g>
<!-- Node22 -->
<g id="node22" class="node">
<title>Node22</title>
<g id="a_node22"><a xlink:title=" ">
<polygon fill="white" stroke="#bfbfbf" points="793.15,-0.5 793.15,-19.5 862.15,-19.5 862.15,-0.5 793.15,-0.5"/>
<text text-anchor="middle" x="827.65" y="-7.5" font-family="Helvetica,sans-Serif" font-size="10.00">type_traits</text>
</a>
</g>
</g>
<!-- Node17&#45;&gt;Node22 -->
<g id="edge24" class="edge">
<title>Node17&#45;&gt;Node22</title>
<path fill="none" stroke="midnightblue" d="M714.04,-56.44C736.36,-47.52 771.55,-33.44 796.86,-23.32"/>
<polygon fill="midnightblue" stroke="midnightblue" points="798.37,-26.48 806.36,-19.52 795.77,-19.98 798.37,-26.48"/>
</g>
</g>
</svg>
        <g id="navigator" transform="translate(0 0)" fill="#404254">
                <rect fill="#f2f5e9" fill-opacity="0.5" stroke="#606060" stroke-width=".5" x="0" y="0" width="60" height="60"/>
                <use id="zoomplus" xlink:href="#zoomPlus" x="17" y="9" onmousedown="handleZoom(evt,'in')"/>
                <use id="zoomminus" xlink:href="#zoomMin" x="42" y="9" onmousedown="handleZoom(evt,'out')"/>
                <use id="reset" xlink:href="#resetDef" x="30" y="36" onmousedown="handleReset()"/>
                <g id="arrowUp" xlink:href="#dirArrow" transform="translate(30 24)" onmousedown="handlePan(0,-1)">
                  <use xlink:href="#rim" fill="#404040">
                        <set attributeName="fill" to="#808080" begin="arrowUp.mouseover" end="arrowUp.mouseout"/>
                  </use>
                  <path fill="none" stroke="white" stroke-width="1.5" d="M0,-3.0v7 M-2.5,-0.5L0,-3.0L2.5,-0.5"/>
                </g>
                <g id="arrowRight" xlink:href="#dirArrow" transform="rotate(90) translate(36 -43)" onmousedown="handlePan(1,0)">
                  <use xlink:href="#rim" fill="#404040">
                        <set attributeName="fill" to="#808080" begin="arrowRight.mouseover" end="arrowRight.mouseout"/>
                  </use>
                  <path fill="none" stroke="white" stroke-width="1.5" d="M0,-3.0v7 M-2.5,-0.5L0,-3.0L2.5,-0.5"/>
                </g>
                <g id="arrowDown" xlink:href="#dirArrow" transform="rotate(180) translate(-30 -48)" onmousedown="handlePan(0,1)">
                  <use xlink:href="#rim" fill="#404040">
                        <set attributeName="fill" to="#808080" begin="arrowDown.mouseover" end="arrowDown.mouseout"/>
                  </use>
                  <path fill="none" stroke="white" stroke-width="1.5" d="M0,-3.0v7 M-2.5,-0.5L0,-3.0L2.5,-0.5"/>
                </g>
                <g id="arrowLeft" xlink:href="#dirArrow" transform="rotate(270) translate(-36 17)" onmousedown="handlePan(-1,0)">
                  <use xlink:href="#rim" fill="#404040">
                        <set attributeName="fill" to="#808080" begin="arrowLeft.mouseover" end="arrowLeft.mouseout"/>
                  </use>
                  <path fill="none" stroke="white" stroke-width="1.5" d="M0,-3.0v7 M-2.5,-0.5L0,-3.0L2.5,-0.5"/>
                </g>
        </g>
        <svg viewBox="0 0 15 15" width="100%" height="30px" preserveAspectRatio="xMaxYMin meet">
         <g id="arrow_out" transform="scale(0.3 0.3)">
          <a xlink:href="entropy_8cpp__incl_org.svg" target="_base">
           <rect id="button" ry="5" rx="5" y="6" x="6" height="38" width="38"
                fill="#f2f5e9" fill-opacity="0.5" stroke="#606060" stroke-width="1.0"/>
           <path id="arrow"
             d="M 11.500037,31.436501 C 11.940474,20.09759 22.043105,11.32322 32.158766,21.979434 L 37.068811,17.246167 C 37.068811,17.246167 37.088388,32 37.088388,32 L 22.160133,31.978069 C 22.160133,31.978069 26.997745,27.140456 26.997745,27.140456 C 18.528582,18.264221 13.291696,25.230495 11.500037,31.436501 z"
             style="fill:#404040;"/>
          </a>
         </g>
        </svg>
</svg>
