<?xml version="1.0" encoding="UTF-8" standalone="no"?>
<!DOCTYPE svg PUBLIC "-//W3C//DTD SVG 1.1//EN"
 "http://www.w3.org/Graphics/SVG/1.1/DTD/svg11.dtd">
<!-- Generated by graphviz version 2.43.0 (0)
 -->
<!-- Title: src/node/rpc/gov_effects_interface.h Pages: 1 -->
<!--zoomable 464 -->
<svg id="main" version="1.1" xmlns="http://www.w3.org/2000/svg" xmlns:xlink="http://www.w3.org/1999/xlink" xml:space="preserve" onload="init(evt)">
<style type="text/css"><![CDATA[
.edge:hover path { stroke: red; }
.edge:hover polygon { stroke: red; fill: red; }
]]></style>
<script type="text/javascript"><![CDATA[
var edges = document.getElementsByTagName('g');
if (edges && edges.length) {
  for (var i=0;i<edges.length;i++) {
    if (edges[i].id.substr(0,4)=='edge') {
      edges[i].setAttribute('class','edge');
    }
  }
}
]]></script>
        <defs>
                <circle id="rim" cx="0" cy="0" r="7"/>
                <circle id="rim2" cx="0" cy="0" r="3.5"/>
                <g id="zoomPlus">
                        <use xlink:href="#rim" fill="#404040">
                                <set attributeName="fill" to="#808080" begin="zoomplus.mouseover" end="zoomplus.mouseout"/>
                        </use>
                        <path d="M-4,0h8M0,-4v8" fill="none" stroke="white" stroke-width="1.5" pointer-events="none"/>
                </g>
                <g id="zoomMin">
                        <use xlink:href="#rim" fill="#404040">
                                <set attributeName="fill" to="#808080" begin="zoomminus.mouseover" end="zoomminus.mouseout"/>
                        </use>
                        <path d="M-4,0h8" fill="none" stroke="white" stroke-width="1.5" pointer-events="none"/>
                </g>
                <g id="dirArrow">
                        <path fill="none" stroke="white" stroke-width="1.5" d="M0,-3.0v7 M-2.5,-0.5L0,-3.0L2.5,-0.5"/>
                </g>
               <g id="resetDef">
                       <use xlink:href="#rim2" fill="#404040">
                               <set attributeName="fill" to="#808080" begin="reset.mouseover" end="reset.mouseout"/>
                       </use>
               </g>
        </defs>

<script type="text/javascript">
var viewWidth = 1636;
var viewHeight = 464;
var sectionId = 'dynsection-1';
</script>
<script xlink:href="svgpan.js"/>
<svg id="graph" class="graph">
<g id="viewport">
<title>src/node/rpc/gov_effects_interface.h</title>
<polygon fill="white" stroke="transparent" points="-4,4 -4,-460 1632,-460 1632,4 -4,4"/>
<!-- Node1 -->
<g id="node1" class="node">
<title>Node1</title>
<g id="a_node1"><a xlink:title=" ">
<polygon fill="#bfbfbf" stroke="black" points="58.5,-425.5 58.5,-455.5 193.5,-455.5 193.5,-425.5 58.5,-425.5"/>
<text text-anchor="start" x="66.5" y="-443.5" font-family="Helvetica,sans-Serif" font-size="10.00">src/node/rpc/gov_effects</text>
<text text-anchor="middle" x="126" y="-432.5" font-family="Helvetica,sans-Serif" font-size="10.00">_interface.h</text>
</a>
</g>
</g>
<!-- Node2 -->
<g id="node2" class="node">
<title>Node2</title>
<g id="a_node2"><a xlink:href="wrap_8cpp.html" target="_top" xlink:title=" ">
<polygon fill="white" stroke="black" points="529.5,-185 529.5,-204 618.5,-204 618.5,-185 529.5,-185"/>
<text text-anchor="middle" x="574" y="-192" font-family="Helvetica,sans-Serif" font-size="10.00">src/js/wrap.cpp</text>
</a>
</g>
</g>
<!-- Node1&#45;&gt;Node2 -->
<g id="edge1" class="edge">
<title>Node1&#45;&gt;Node2</title>
<path fill="none" stroke="midnightblue" d="M105.77,-417.83C71.82,-378.86 11.36,-296.31 57,-246 88.47,-211.31 409.34,-199.66 529.18,-196.51"/>
<polygon fill="midnightblue" stroke="midnightblue" points="103.3,-420.32 112.57,-425.46 108.53,-415.67 103.3,-420.32"/>
</g>
<!-- Node3 -->
<g id="node3" class="node">
<title>Node3</title>
<g id="a_node3"><a xlink:href="wrap_8h.html" target="_top" xlink:title=" ">
<polygon fill="white" stroke="black" points="603,-313.5 603,-332.5 681,-332.5 681,-313.5 603,-313.5"/>
<text text-anchor="middle" x="642" y="-320.5" font-family="Helvetica,sans-Serif" font-size="10.00">src/js/wrap.h</text>
</a>
</g>
</g>
<!-- Node1&#45;&gt;Node3 -->
<g id="edge2" class="edge">
<title>Node1&#45;&gt;Node3</title>
<path fill="none" stroke="midnightblue" d="M198.55,-423.26C309.69,-398.38 518.23,-351.7 603.84,-332.54"/>
<polygon fill="midnightblue" stroke="midnightblue" points="197.75,-419.85 188.76,-425.45 199.28,-426.68 197.75,-419.85"/>
</g>
<!-- Node13 -->
<g id="node13" class="node">
<title>Node13</title>
<g id="a_node13"><a xlink:href="gov__effects_8h.html" target="_top" xlink:title=" ">
<polygon fill="white" stroke="black" points="1044,-118 1044,-137 1188,-137 1188,-118 1044,-118"/>
<text text-anchor="middle" x="1116" y="-125" font-family="Helvetica,sans-Serif" font-size="10.00">src/node/rpc/gov_effects.h</text>
</a>
</g>
</g>
<!-- Node1&#45;&gt;Node13 -->
<g id="edge22" class="edge">
<title>Node1&#45;&gt;Node13</title>
<path fill="none" stroke="midnightblue" d="M82.22,-421.02C45.84,-402.39 0,-369.82 0,-324 0,-324 0,-324 0,-260.5 0,-155.02 796.34,-133.55 1043.64,-129.43"/>
<polygon fill="midnightblue" stroke="midnightblue" points="80.72,-424.18 91.24,-425.45 83.81,-417.9 80.72,-424.18"/>
</g>
<!-- Node14 -->
<g id="node14" class="node">
<title>Node14</title>
<g id="a_node14"><a xlink:href="member__frontend_8h.html" target="_top" xlink:title=" ">
<polygon fill="white" stroke="black" points="66,-246.5 66,-276.5 186,-276.5 186,-246.5 66,-246.5"/>
<text text-anchor="start" x="74" y="-264.5" font-family="Helvetica,sans-Serif" font-size="10.00">src/node/rpc/member</text>
<text text-anchor="middle" x="126" y="-253.5" font-family="Helvetica,sans-Serif" font-size="10.00">_frontend.h</text>
</a>
</g>
</g>
<!-- Node1&#45;&gt;Node14 -->
<g id="edge23" class="edge">
<title>Node1&#45;&gt;Node14</title>
<path fill="none" stroke="midnightblue" d="M126,-415.26C126,-377.8 126,-306.98 126,-276.75"/>
<polygon fill="midnightblue" stroke="midnightblue" points="122.5,-415.31 126,-425.31 129.5,-415.31 122.5,-415.31"/>
</g>
<!-- Node15 -->
<g id="node15" class="node">
<title>Node15</title>
<g id="a_node15"><a xlink:href="node__interface_8h.html" target="_top" xlink:title=" ">
<polygon fill="white" stroke="black" points="1011.5,-369.5 1011.5,-388.5 1172.5,-388.5 1172.5,-369.5 1011.5,-369.5"/>
<text text-anchor="middle" x="1092" y="-376.5" font-family="Helvetica,sans-Serif" font-size="10.00">src/node/rpc/node_interface.h</text>
</a>
</g>
</g>
<!-- Node1&#45;&gt;Node15 -->
<g id="edge24" class="edge">
<title>Node1&#45;&gt;Node15</title>
<path fill="none" stroke="midnightblue" d="M203.73,-434.71C383.87,-423.62 828.42,-396.24 1011.36,-384.97"/>
<polygon fill="midnightblue" stroke="midnightblue" points="203.31,-431.23 193.54,-435.34 203.74,-438.22 203.31,-431.23"/>
</g>
<!-- Node3&#45;&gt;Node2 -->
<g id="edge15" class="edge">
<title>Node3&#45;&gt;Node2</title>
<path fill="none" stroke="midnightblue" d="M592.94,-319.45C562.85,-315.05 526.47,-304.01 507,-277 498.94,-265.82 500.85,-258.33 507,-246 516.81,-226.32 538.36,-212.28 554.38,-204.08"/>
<polygon fill="midnightblue" stroke="midnightblue" points="592.52,-322.93 602.88,-320.71 593.39,-315.98 592.52,-322.93"/>
</g>
<!-- Node4 -->
<g id="node4" class="node">
<title>Node4</title>
<g id="a_node4"><a xlink:href="js__generic__base_8cpp.html" target="_top" xlink:title=" ">
<polygon fill="white" stroke="black" points="650,-246.5 650,-276.5 768,-276.5 768,-246.5 650,-246.5"/>
<text text-anchor="start" x="658" y="-264.5" font-family="Helvetica,sans-Serif" font-size="10.00">src/apps/js_generic</text>
<text text-anchor="middle" x="709" y="-253.5" font-family="Helvetica,sans-Serif" font-size="10.00">/js_generic_base.cpp</text>
</a>
</g>
</g>
<!-- Node3&#45;&gt;Node4 -->
<g id="edge3" class="edge">
<title>Node3&#45;&gt;Node4</title>
<path fill="none" stroke="midnightblue" d="M659.29,-306.65C669.76,-297.35 683.02,-285.57 693.21,-276.52"/>
<polygon fill="midnightblue" stroke="midnightblue" points="656.75,-304.22 651.6,-313.48 661.4,-309.45 656.75,-304.22"/>
</g>
<!-- Node5 -->
<g id="node5" class="node">
<title>Node5</title>
<g id="a_node5"><a xlink:href="enclave_2enclave_8h.html" target="_top" xlink:title=" ">
<polygon fill="white" stroke="black" points="1174,-56.5 1174,-75.5 1296,-75.5 1296,-56.5 1174,-56.5"/>
<text text-anchor="middle" x="1235" y="-63.5" font-family="Helvetica,sans-Serif" font-size="10.00">src/enclave/enclave.h</text>
</a>
</g>
</g>
<!-- Node3&#45;&gt;Node5 -->
<g id="edge4" class="edge">
<title>Node3&#45;&gt;Node5</title>
<path fill="none" stroke="midnightblue" d="M691.2,-322.47C777.95,-322.23 953.11,-316.69 997,-277 1052.81,-226.52 981.65,-165.08 1035,-112 1054.36,-92.73 1122.41,-80.39 1173.8,-73.6"/>
<polygon fill="midnightblue" stroke="midnightblue" points="691.07,-318.97 681.07,-322.47 691.07,-325.97 691.07,-318.97"/>
</g>
<!-- Node7 -->
<g id="node7" class="node">
<title>Node7</title>
<g id="a_node7"><a xlink:href="js_2consensus_8cpp.html" target="_top" xlink:title=" ">
<polygon fill="white" stroke="black" points="516,-252 516,-271 632,-271 632,-252 516,-252"/>
<text text-anchor="middle" x="574" y="-259" font-family="Helvetica,sans-Serif" font-size="10.00">src/js/consensus.cpp</text>
</a>
</g>
</g>
<!-- Node3&#45;&gt;Node7 -->
<g id="edge6" class="edge">
<title>Node3&#45;&gt;Node7</title>
<path fill="none" stroke="midnightblue" d="M624.46,-306.65C611.49,-295.31 594.32,-280.28 583.72,-271.01"/>
<polygon fill="midnightblue" stroke="midnightblue" points="622.43,-309.52 632.26,-313.48 627.04,-304.26 622.43,-309.52"/>
</g>
<!-- Node8 -->
<g id="node8" class="node">
<title>Node8</title>
<g id="a_node8"><a xlink:href="conv_8cpp.html" target="_top" xlink:title=" ">
<polygon fill="white" stroke="black" points="786,-252 786,-271 874,-271 874,-252 786,-252"/>
<text text-anchor="middle" x="830" y="-259" font-family="Helvetica,sans-Serif" font-size="10.00">src/js/conv.cpp</text>
</a>
</g>
</g>
<!-- Node3&#45;&gt;Node8 -->
<g id="edge8" class="edge">
<title>Node3&#45;&gt;Node8</title>
<path fill="none" stroke="midnightblue" d="M678.71,-310.38C715.26,-298.82 770.47,-281.34 803.11,-271.01"/>
<polygon fill="midnightblue" stroke="midnightblue" points="677.41,-307.12 668.94,-313.48 679.53,-313.79 677.41,-307.12"/>
</g>
<!-- Node9 -->
<g id="node9" class="node">
<title>Node9</title>
<g id="a_node9"><a xlink:href="js_2crypto_8cpp.html" target="_top" xlink:title=" ">
<polygon fill="white" stroke="black" points="892,-252 892,-271 988,-271 988,-252 892,-252"/>
<text text-anchor="middle" x="940" y="-259" font-family="Helvetica,sans-Serif" font-size="10.00">src/js/crypto.cpp</text>
</a>
</g>
</g>
<!-- Node3&#45;&gt;Node9 -->
<g id="edge10" class="edge">
<title>Node3&#45;&gt;Node9</title>
<path fill="none" stroke="midnightblue" d="M691.38,-313.74C740.23,-305.34 817.03,-291.53 883,-277 891.08,-275.22 899.75,-273.12 907.83,-271.07"/>
<polygon fill="midnightblue" stroke="midnightblue" points="690.66,-310.31 681.4,-315.45 691.84,-317.21 690.66,-310.31"/>
</g>
<!-- Node10 -->
<g id="node10" class="node">
<title>Node10</title>
<g id="a_node10"><a xlink:href="js_2historical_8cpp.html" target="_top" xlink:title=" ">
<polygon fill="white" stroke="black" points="350,-252 350,-271 460,-271 460,-252 350,-252"/>
<text text-anchor="middle" x="405" y="-259" font-family="Helvetica,sans-Serif" font-size="10.00">src/js/historical.cpp</text>
</a>
</g>
</g>
<!-- Node3&#45;&gt;Node10 -->
<g id="edge12" class="edge">
<title>Node3&#45;&gt;Node10</title>
<path fill="none" stroke="midnightblue" d="M598.06,-310.97C552.04,-299.41 480.75,-281.52 438.89,-271.01"/>
<polygon fill="midnightblue" stroke="midnightblue" points="597.49,-314.43 608.04,-313.48 599.2,-307.65 597.49,-314.43"/>
</g>
<!-- Node11 -->
<g id="node11" class="node">
<title>Node11</title>
<g id="a_node11"><a xlink:href="openenclave_8cpp.html" target="_top" xlink:title=" ">
<polygon fill="white" stroke="black" points="204,-252 204,-271 332,-271 332,-252 204,-252"/>
<text text-anchor="middle" x="268" y="-259" font-family="Helvetica,sans-Serif" font-size="10.00">src/js/openenclave.cpp</text>
</a>
</g>
</g>
<!-- Node3&#45;&gt;Node11 -->
<g id="edge14" class="edge">
<title>Node3&#45;&gt;Node11</title>
<path fill="none" stroke="midnightblue" d="M592.67,-315.36C532.95,-307.15 429.39,-292.38 341,-277 330.69,-275.21 319.59,-273.1 309.24,-271.05"/>
<polygon fill="midnightblue" stroke="midnightblue" points="592.56,-318.88 602.94,-316.77 593.51,-311.94 592.56,-318.88"/>
</g>
<!-- Node12 -->
<g id="node12" class="node">
<title>Node12</title>
<g id="a_node12"><a xlink:href="node__state_8h.html" target="_top" xlink:title=" ">
<polygon fill="white" stroke="black" points="1078,-185 1078,-204 1202,-204 1202,-185 1078,-185"/>
<text text-anchor="middle" x="1140" y="-192" font-family="Helvetica,sans-Serif" font-size="10.00">src/node/node_state.h</text>
</a>
</g>
</g>
<!-- Node3&#45;&gt;Node12 -->
<g id="edge16" class="edge">
<title>Node3&#45;&gt;Node12</title>
<path fill="none" stroke="midnightblue" d="M691.41,-319.45C781.67,-314.27 969.49,-300.93 1030,-277 1073.32,-259.87 1114.79,-221.2 1131.84,-204.01"/>
<polygon fill="midnightblue" stroke="midnightblue" points="690.95,-315.97 681.16,-320.03 691.34,-322.96 690.95,-315.97"/>
</g>
<!-- Node3&#45;&gt;Node14 -->
<g id="edge20" class="edge">
<title>Node3&#45;&gt;Node14</title>
<path fill="none" stroke="midnightblue" d="M592.87,-318.78C510.33,-312.98 338.77,-299.28 195,-277 192.1,-276.55 189.13,-276.06 186.14,-275.53"/>
<polygon fill="midnightblue" stroke="midnightblue" points="592.74,-322.28 602.96,-319.48 593.22,-315.29 592.74,-322.28"/>
</g>
<!-- Node6 -->
<g id="node6" class="node">
<title>Node6</title>
<g id="a_node6"><a xlink:href="enclave_2main_8cpp.html" target="_top" xlink:title=" ">
<polygon fill="white" stroke="black" points="1175,-0.5 1175,-19.5 1295,-19.5 1295,-0.5 1175,-0.5"/>
<text text-anchor="middle" x="1235" y="-7.5" font-family="Helvetica,sans-Serif" font-size="10.00">src/enclave/main.cpp</text>
</a>
</g>
</g>
<!-- Node5&#45;&gt;Node6 -->
<g id="edge5" class="edge">
<title>Node5&#45;&gt;Node6</title>
<path fill="none" stroke="midnightblue" d="M1235,-45.8C1235,-36.91 1235,-26.78 1235,-19.75"/>
<polygon fill="midnightblue" stroke="midnightblue" points="1231.5,-46.08 1235,-56.08 1238.5,-46.08 1231.5,-46.08"/>
</g>
<!-- Node7&#45;&gt;Node2 -->
<g id="edge7" class="edge">
<title>Node7&#45;&gt;Node2</title>
<path fill="none" stroke="midnightblue" d="M574,-241.54C574,-229.17 574,-213.62 574,-204.13"/>
<polygon fill="midnightblue" stroke="midnightblue" points="570.5,-241.73 574,-251.73 577.5,-241.73 570.5,-241.73"/>
</g>
<!-- Node8&#45;&gt;Node2 -->
<g id="edge9" class="edge">
<title>Node8&#45;&gt;Node2</title>
<path fill="none" stroke="midnightblue" d="M789.48,-249.31C785.27,-248.18 781.05,-247.06 777,-246 718.32,-230.68 649.81,-213.85 609.27,-204.01"/>
<polygon fill="midnightblue" stroke="midnightblue" points="788.64,-252.71 799.2,-251.94 790.47,-245.95 788.64,-252.71"/>
</g>
<!-- Node9&#45;&gt;Node2 -->
<g id="edge11" class="edge">
<title>Node9&#45;&gt;Node2</title>
<path fill="none" stroke="midnightblue" d="M898.56,-249.51C893.34,-248.26 888.06,-247.05 883,-246 789.61,-226.53 679.04,-210.02 618.74,-201.56"/>
<polygon fill="midnightblue" stroke="midnightblue" points="897.91,-252.95 908.46,-251.95 899.59,-246.16 897.91,-252.95"/>
</g>
<!-- Node10&#45;&gt;Node2 -->
<g id="edge13" class="edge">
<title>Node10&#45;&gt;Node2</title>
<path fill="none" stroke="midnightblue" d="M436.8,-248.27C470.34,-235.37 522.32,-215.38 551.73,-204.06"/>
<polygon fill="midnightblue" stroke="midnightblue" points="435.52,-245.01 427.44,-251.87 438.03,-251.55 435.52,-245.01"/>
</g>
<!-- Node12&#45;&gt;Node5 -->
<g id="edge17" class="edge">
<title>Node12&#45;&gt;Node5</title>
<path fill="none" stroke="midnightblue" d="M1160.13,-178.83C1171.92,-169.51 1186.51,-156.67 1197,-143 1213.89,-121 1226.47,-90.33 1231.96,-75.58"/>
<polygon fill="midnightblue" stroke="midnightblue" points="1157.95,-176.09 1152.14,-184.95 1162.2,-181.65 1157.95,-176.09"/>
</g>
<!-- Node12&#45;&gt;Node13 -->
<g id="edge18" class="edge">
<title>Node12&#45;&gt;Node13</title>
<path fill="none" stroke="midnightblue" d="M1133.28,-175.29C1128.67,-162.81 1122.76,-146.81 1119.19,-137.13"/>
<polygon fill="midnightblue" stroke="midnightblue" points="1130.02,-176.57 1136.76,-184.73 1136.58,-174.14 1130.02,-176.57"/>
</g>
<!-- Node13&#45;&gt;Node5 -->
<g id="edge19" class="edge">
<title>Node13&#45;&gt;Node5</title>
<path fill="none" stroke="midnightblue" d="M1142.27,-113.37C1165.33,-101.83 1198.2,-85.4 1217.98,-75.51"/>
<polygon fill="midnightblue" stroke="midnightblue" points="1140.43,-110.37 1133.05,-117.98 1143.56,-116.63 1140.43,-110.37"/>
</g>
<!-- Node14&#45;&gt;Node5 -->
<g id="edge21" class="edge">
<title>Node14&#45;&gt;Node5</title>
<path fill="none" stroke="midnightblue" d="M195.86,-245.01C274.65,-227.8 406.69,-199.7 521,-179 762.07,-135.35 1050.75,-93.13 1174.19,-75.55"/>
<polygon fill="midnightblue" stroke="midnightblue" points="195.07,-241.6 186.05,-247.16 196.57,-248.44 195.07,-241.6"/>
</g>
<!-- Node15&#45;&gt;Node2 -->
<g id="edge25" class="edge">
<title>Node15&#45;&gt;Node2</title>
<path fill="none" stroke="midnightblue" d="M1084.75,-359.84C1071.93,-330.36 1042.27,-272.7 997,-246 933.69,-208.66 713.72,-198.86 618.5,-196.35"/>
<polygon fill="midnightblue" stroke="midnightblue" points="1081.63,-361.44 1088.71,-369.32 1088.08,-358.74 1081.63,-361.44"/>
</g>
<!-- Node15&#45;&gt;Node3 -->
<g id="edge26" class="edge">
<title>Node15&#45;&gt;Node3</title>
<path fill="none" stroke="midnightblue" d="M1010.6,-368.23C913.31,-356.56 754.48,-337.5 681.25,-328.71"/>
<polygon fill="midnightblue" stroke="midnightblue" points="1010.35,-371.73 1020.7,-369.44 1011.18,-364.78 1010.35,-371.73"/>
</g>
<!-- Node15&#45;&gt;Node14 -->
<g id="edge31" class="edge">
<title>Node15&#45;&gt;Node14</title>
<path fill="none" stroke="midnightblue" d="M1001.17,-371.15C901.23,-363.29 735.95,-349.36 594,-333 416.11,-312.49 371.39,-307.88 195,-277 192.11,-276.49 189.15,-275.95 186.16,-275.39"/>
<polygon fill="midnightblue" stroke="midnightblue" points="1000.98,-374.64 1011.23,-371.93 1001.53,-367.66 1000.98,-374.64"/>
</g>
<!-- Node16 -->
<g id="node16" class="node">
<title>Node16</title>
<g id="a_node16"><a xlink:href="historical__queries_8h.html" target="_top" xlink:title=" ">
<polygon fill="white" stroke="black" points="1282,-179.5 1282,-209.5 1388,-209.5 1388,-179.5 1282,-179.5"/>
<text text-anchor="start" x="1290" y="-197.5" font-family="Helvetica,sans-Serif" font-size="10.00">src/node/historical</text>
<text text-anchor="middle" x="1335" y="-186.5" font-family="Helvetica,sans-Serif" font-size="10.00">_queries.h</text>
</a>
</g>
</g>
<!-- Node15&#45;&gt;Node16 -->
<g id="edge27" class="edge">
<title>Node15&#45;&gt;Node16</title>
<path fill="none" stroke="midnightblue" d="M1169.48,-367.89C1216.01,-360.37 1269.5,-348.69 1287,-333 1323.71,-300.09 1332.35,-237.54 1334.38,-209.59"/>
<polygon fill="midnightblue" stroke="midnightblue" points="1168.7,-364.47 1159.36,-369.48 1169.78,-371.38 1168.7,-364.47"/>
</g>
<!-- Node18 -->
<g id="node18" class="node">
<title>Node18</title>
<g id="a_node18"><a xlink:href="node__frontend_8h.html" target="_top" xlink:title=" ">
<polygon fill="white" stroke="black" points="1120,-313.5 1120,-332.5 1278,-332.5 1278,-313.5 1120,-313.5"/>
<text text-anchor="middle" x="1199" y="-320.5" font-family="Helvetica,sans-Serif" font-size="10.00">src/node/rpc/node_frontend.h</text>
</a>
</g>
</g>
<!-- Node15&#45;&gt;Node18 -->
<g id="edge32" class="edge">
<title>Node15&#45;&gt;Node18</title>
<path fill="none" stroke="midnightblue" d="M1118.3,-364.73C1138.11,-354.73 1164.71,-341.31 1181.85,-332.65"/>
<polygon fill="midnightblue" stroke="midnightblue" points="1116.54,-361.69 1109.19,-369.32 1119.7,-367.94 1116.54,-361.69"/>
</g>
<!-- Node20 -->
<g id="node20" class="node">
<title>Node20</title>
<g id="a_node20"><a xlink:href="node__operation_8h.html" target="_top" xlink:title=" ">
<polygon fill="white" stroke="black" points="1464,-118 1464,-137 1628,-137 1628,-118 1464,-118"/>
<text text-anchor="middle" x="1546" y="-125" font-family="Helvetica,sans-Serif" font-size="10.00">src/node/rpc/node_operation.h</text>
</a>
</g>
</g>
<!-- Node15&#45;&gt;Node20 -->
<g id="edge36" class="edge">
<title>Node15&#45;&gt;Node20</title>
<path fill="none" stroke="midnightblue" d="M1182.81,-369.59C1223.03,-363.28 1269.95,-352.26 1309,-333 1415.25,-280.6 1512.41,-169.15 1538.91,-137.22"/>
<polygon fill="midnightblue" stroke="midnightblue" points="1182.12,-366.16 1172.74,-371.1 1183.15,-373.08 1182.12,-366.16"/>
</g>
<!-- Node16&#45;&gt;Node5 -->
<g id="edge28" class="edge">
<title>Node16&#45;&gt;Node5</title>
<path fill="none" stroke="midnightblue" d="M1317.51,-171.37C1295.13,-143.06 1257.42,-95.37 1241.95,-75.79"/>
<polygon fill="midnightblue" stroke="midnightblue" points="1314.97,-173.8 1323.92,-179.48 1320.46,-169.46 1314.97,-173.8"/>
</g>
<!-- Node17 -->
<g id="node17" class="node">
<title>Node17</title>
<g id="a_node17"><a xlink:href="historical__transaction__fetcher_8h.html" target="_top" xlink:title=" ">
<polygon fill="white" stroke="black" points="1320.5,-112.5 1320.5,-142.5 1445.5,-142.5 1445.5,-112.5 1320.5,-112.5"/>
<text text-anchor="start" x="1328.5" y="-130.5" font-family="Helvetica,sans-Serif" font-size="10.00">src/indexing/historical</text>
<text text-anchor="middle" x="1383" y="-119.5" font-family="Helvetica,sans-Serif" font-size="10.00">_transaction_fetcher.h</text>
</a>
</g>
</g>
<!-- Node16&#45;&gt;Node17 -->
<g id="edge29" class="edge">
<title>Node16&#45;&gt;Node17</title>
<path fill="none" stroke="midnightblue" d="M1351.5,-171.16C1358.5,-161.68 1366.44,-150.92 1372.61,-142.58"/>
<polygon fill="midnightblue" stroke="midnightblue" points="1348.54,-169.27 1345.42,-179.4 1354.17,-173.43 1348.54,-169.27"/>
</g>
<!-- Node17&#45;&gt;Node5 -->
<g id="edge30" class="edge">
<title>Node17&#45;&gt;Node5</title>
<path fill="none" stroke="midnightblue" d="M1338.62,-108.66C1311.48,-97.75 1277.96,-84.27 1256.54,-75.66"/>
<polygon fill="midnightblue" stroke="midnightblue" points="1337.34,-111.92 1347.93,-112.4 1339.95,-105.42 1337.34,-111.92"/>
</g>
<!-- Node18&#45;&gt;Node5 -->
<g id="edge33" class="edge">
<title>Node18&#45;&gt;Node5</title>
<path fill="none" stroke="midnightblue" d="M1225.32,-308.05C1236.66,-300.51 1248.75,-290.05 1255,-277 1289.19,-205.66 1251.45,-105.21 1238.82,-75.55"/>
<polygon fill="midnightblue" stroke="midnightblue" points="1223.19,-305.25 1216.5,-313.46 1226.85,-311.21 1223.19,-305.25"/>
</g>
<!-- Node19 -->
<g id="node19" class="node">
<title>Node19</title>
<g id="a_node19"><a xlink:href="jwt__key__auto__refresh_8h.html" target="_top" xlink:title=" ">
<polygon fill="white" stroke="black" points="1120.5,-246.5 1120.5,-276.5 1245.5,-276.5 1245.5,-246.5 1120.5,-246.5"/>
<text text-anchor="start" x="1128.5" y="-264.5" font-family="Helvetica,sans-Serif" font-size="10.00">src/node/jwt_key_auto</text>
<text text-anchor="middle" x="1183" y="-253.5" font-family="Helvetica,sans-Serif" font-size="10.00">_refresh.h</text>
</a>
</g>
</g>
<!-- Node18&#45;&gt;Node19 -->
<g id="edge34" class="edge">
<title>Node18&#45;&gt;Node19</title>
<path fill="none" stroke="midnightblue" d="M1194.11,-303.82C1191.75,-295.04 1188.96,-284.68 1186.77,-276.52"/>
<polygon fill="midnightblue" stroke="midnightblue" points="1190.73,-304.73 1196.71,-313.48 1197.49,-302.91 1190.73,-304.73"/>
</g>
<!-- Node19&#45;&gt;Node12 -->
<g id="edge35" class="edge">
<title>Node19&#45;&gt;Node12</title>
<path fill="none" stroke="midnightblue" d="M1168.1,-237.97C1160.4,-226.33 1151.44,-212.8 1145.75,-204.19"/>
<polygon fill="midnightblue" stroke="midnightblue" points="1165.23,-239.99 1173.67,-246.4 1171.07,-236.12 1165.23,-239.99"/>
</g>
<!-- Node20&#45;&gt;Node5 -->
<g id="edge37" class="edge">
<title>Node20&#45;&gt;Node5</title>
<path fill="none" stroke="midnightblue" d="M1491.36,-116.05C1431.1,-104.52 1335.32,-86.19 1279.48,-75.51"/>
<polygon fill="midnightblue" stroke="midnightblue" points="1490.96,-119.53 1501.44,-117.98 1492.28,-112.66 1490.96,-119.53"/>
</g>
</g>
</svg>
        <g id="navigator" transform="translate(0 0)" fill="#404254">
                <rect fill="#f2f5e9" fill-opacity="0.5" stroke="#606060" stroke-width=".5" x="0" y="0" width="60" height="60"/>
                <use id="zoomplus" xlink:href="#zoomPlus" x="17" y="9" onmousedown="handleZoom(evt,'in')"/>
                <use id="zoomminus" xlink:href="#zoomMin" x="42" y="9" onmousedown="handleZoom(evt,'out')"/>
                <use id="reset" xlink:href="#resetDef" x="30" y="36" onmousedown="handleReset()"/>
                <g id="arrowUp" xlink:href="#dirArrow" transform="translate(30 24)" onmousedown="handlePan(0,-1)">
                  <use xlink:href="#rim" fill="#404040">
                        <set attributeName="fill" to="#808080" begin="arrowUp.mouseover" end="arrowUp.mouseout"/>
                  </use>
                  <path fill="none" stroke="white" stroke-width="1.5" d="M0,-3.0v7 M-2.5,-0.5L0,-3.0L2.5,-0.5"/>
                </g>
                <g id="arrowRight" xlink:href="#dirArrow" transform="rotate(90) translate(36 -43)" onmousedown="handlePan(1,0)">
                  <use xlink:href="#rim" fill="#404040">
                        <set attributeName="fill" to="#808080" begin="arrowRight.mouseover" end="arrowRight.mouseout"/>
                  </use>
                  <path fill="none" stroke="white" stroke-width="1.5" d="M0,-3.0v7 M-2.5,-0.5L0,-3.0L2.5,-0.5"/>
                </g>
                <g id="arrowDown" xlink:href="#dirArrow" transform="rotate(180) translate(-30 -48)" onmousedown="handlePan(0,1)">
                  <use xlink:href="#rim" fill="#404040">
                        <set attributeName="fill" to="#808080" begin="arrowDown.mouseover" end="arrowDown.mouseout"/>
                  </use>
                  <path fill="none" stroke="white" stroke-width="1.5" d="M0,-3.0v7 M-2.5,-0.5L0,-3.0L2.5,-0.5"/>
                </g>
                <g id="arrowLeft" xlink:href="#dirArrow" transform="rotate(270) translate(-36 17)" onmousedown="handlePan(-1,0)">
                  <use xlink:href="#rim" fill="#404040">
                        <set attributeName="fill" to="#808080" begin="arrowLeft.mouseover" end="arrowLeft.mouseout"/>
                  </use>
                  <path fill="none" stroke="white" stroke-width="1.5" d="M0,-3.0v7 M-2.5,-0.5L0,-3.0L2.5,-0.5"/>
                </g>
        </g>
        <svg viewBox="0 0 15 15" width="100%" height="30px" preserveAspectRatio="xMaxYMin meet">
         <g id="arrow_out" transform="scale(0.3 0.3)">
          <a xlink:href="gov__effects__interface_8h__dep__incl_org.svg" target="_base">
           <rect id="button" ry="5" rx="5" y="6" x="6" height="38" width="38"
                fill="#f2f5e9" fill-opacity="0.5" stroke="#606060" stroke-width="1.0"/>
           <path id="arrow"
             d="M 11.500037,31.436501 C 11.940474,20.09759 22.043105,11.32322 32.158766,21.979434 L 37.068811,17.246167 C 37.068811,17.246167 37.088388,32 37.088388,32 L 22.160133,31.978069 C 22.160133,31.978069 26.997745,27.140456 26.997745,27.140456 C 18.528582,18.264221 13.291696,25.230495 11.500037,31.436501 z"
             style="fill:#404040;"/>
          </a>
         </g>
        </svg>
</svg>
