<?xml version="1.0" encoding="UTF-8" standalone="no"?>
<!DOCTYPE svg PUBLIC "-//W3C//DTD SVG 1.1//EN"
 "http://www.w3.org/Graphics/SVG/1.1/DTD/svg11.dtd">
<!-- Generated by graphviz version 2.43.0 (0)
 -->
<!-- Title: src/crypto/hash.cpp Pages: 1 -->
<svg width="1904pt" height="420pt"
 viewBox="0.00 0.00 1904.00 420.00" xmlns="http://www.w3.org/2000/svg" xmlns:xlink="http://www.w3.org/1999/xlink">
<g id="graph0" class="graph" transform="scale(1 1) rotate(0) translate(4 416)">
<title>src/crypto/hash.cpp</title>
<polygon fill="white" stroke="transparent" points="-4,4 -4,-416 1900,-416 1900,4 -4,4"/>
<!-- Node1 -->
<g id="node1" class="node">
<title>Node1</title>
<g id="a_node1"><a xlink:title=" ">
<polygon fill="#bfbfbf" stroke="black" points="387.5,-392.5 387.5,-411.5 498.5,-411.5 498.5,-392.5 387.5,-392.5"/>
<text text-anchor="middle" x="443" y="-399.5" font-family="Helvetica,sans-Serif" font-size="10.00">src/crypto/hash.cpp</text>
</a>
</g>
</g>
<!-- Node2 -->
<g id="node2" class="node">
<title>Node2</title>
<g id="a_node2"><a xlink:href="crypto_2openssl_2hash_8h.html" target="_top" xlink:title=" ">
<polygon fill="white" stroke="black" points="502.5,-336.5 502.5,-355.5 625.5,-355.5 625.5,-336.5 502.5,-336.5"/>
<text text-anchor="middle" x="564" y="-343.5" font-family="Helvetica,sans-Serif" font-size="10.00">crypto/openssl/hash.h</text>
</a>
</g>
</g>
<!-- Node1&#45;&gt;Node2 -->
<g id="edge1" class="edge">
<title>Node1&#45;&gt;Node2</title>
<path fill="none" stroke="midnightblue" d="M462.17,-392.44C481.91,-383.64 512.89,-369.81 535.49,-359.72"/>
<polygon fill="midnightblue" stroke="midnightblue" points="537.21,-362.79 544.92,-355.52 534.36,-356.4 537.21,-362.79"/>
</g>
<!-- Node39 -->
<g id="node39" class="node">
<title>Node39</title>
<g id="a_node39"><a xlink:title=" ">
<polygon fill="white" stroke="#bfbfbf" points="1185.5,-280.5 1185.5,-299.5 1268.5,-299.5 1268.5,-280.5 1185.5,-280.5"/>
<text text-anchor="middle" x="1227" y="-287.5" font-family="Helvetica,sans-Serif" font-size="10.00">openssl/sha.h</text>
</a>
</g>
</g>
<!-- Node1&#45;&gt;Node39 -->
<g id="edge62" class="edge">
<title>Node1&#45;&gt;Node39</title>
<path fill="none" stroke="midnightblue" d="M498.82,-394.12C620.09,-379 916.85,-341.06 1175.33,-300.22"/>
<polygon fill="midnightblue" stroke="midnightblue" points="1175.95,-303.66 1185.28,-298.64 1174.86,-296.75 1175.95,-303.66"/>
</g>
<!-- Node40 -->
<g id="node40" class="node">
<title>Node40</title>
<g id="a_node40"><a xlink:href="hkdf_8h.html" target="_top" xlink:title=" ">
<polygon fill="white" stroke="black" points="227,-280.5 227,-299.5 325,-299.5 325,-280.5 227,-280.5"/>
<text text-anchor="middle" x="276" y="-287.5" font-family="Helvetica,sans-Serif" font-size="10.00">ccf/crypto/hkdf.h</text>
</a>
</g>
</g>
<!-- Node1&#45;&gt;Node40 -->
<g id="edge56" class="edge">
<title>Node1&#45;&gt;Node40</title>
<path fill="none" stroke="midnightblue" d="M429.9,-392.37C401.24,-373.49 332.76,-328.38 297.61,-305.24"/>
<polygon fill="midnightblue" stroke="midnightblue" points="299.32,-302.17 289.04,-299.59 295.47,-308.02 299.32,-302.17"/>
</g>
<!-- Node41 -->
<g id="node41" class="node">
<title>Node41</title>
<g id="a_node41"><a xlink:href="sha256_8h.html" target="_top" xlink:title=" ">
<polygon fill="white" stroke="black" points="76,-280.5 76,-299.5 188,-299.5 188,-280.5 76,-280.5"/>
<text text-anchor="middle" x="132" y="-287.5" font-family="Helvetica,sans-Serif" font-size="10.00">ccf/crypto/sha256.h</text>
</a>
</g>
</g>
<!-- Node1&#45;&gt;Node41 -->
<g id="edge59" class="edge">
<title>Node1&#45;&gt;Node41</title>
<path fill="none" stroke="midnightblue" d="M418.86,-392.46C363.85,-373.01 229.13,-325.36 165.86,-302.98"/>
<polygon fill="midnightblue" stroke="midnightblue" points="166.94,-299.65 156.34,-299.61 164.6,-306.24 166.94,-299.65"/>
</g>
<!-- Node3 -->
<g id="node3" class="node">
<title>Node3</title>
<g id="a_node3"><a xlink:href="hash__provider_8h.html" target="_top" xlink:title=" ">
<polygon fill="white" stroke="black" points="491.5,-280.5 491.5,-299.5 636.5,-299.5 636.5,-280.5 491.5,-280.5"/>
<text text-anchor="middle" x="564" y="-287.5" font-family="Helvetica,sans-Serif" font-size="10.00">ccf/crypto/hash_provider.h</text>
</a>
</g>
</g>
<!-- Node2&#45;&gt;Node3 -->
<g id="edge2" class="edge">
<title>Node2&#45;&gt;Node3</title>
<path fill="none" stroke="midnightblue" d="M564,-336.08C564,-329.01 564,-318.86 564,-309.99"/>
<polygon fill="midnightblue" stroke="midnightblue" points="567.5,-309.75 564,-299.75 560.5,-309.75 567.5,-309.75"/>
</g>
<!-- Node17 -->
<g id="node17" class="node">
<title>Node17</title>
<g id="a_node17"><a xlink:title=" ">
<polygon fill="white" stroke="#bfbfbf" points="367.5,-56.5 367.5,-75.5 446.5,-75.5 446.5,-56.5 367.5,-56.5"/>
<text text-anchor="middle" x="407" y="-63.5" font-family="Helvetica,sans-Serif" font-size="10.00">fmt/format.h</text>
</a>
</g>
</g>
<!-- Node2&#45;&gt;Node17 -->
<g id="edge55" class="edge">
<title>Node2&#45;&gt;Node17</title>
<path fill="none" stroke="midnightblue" d="M502.42,-337.81C455.95,-330.97 397.76,-318.88 383,-300 314.11,-211.89 522.8,-209.88 539,-188 573.08,-141.97 489.76,-99.53 440.35,-79.35"/>
<polygon fill="midnightblue" stroke="midnightblue" points="441.55,-76.06 430.97,-75.61 438.97,-82.56 441.55,-76.06"/>
</g>
<!-- Node24 -->
<g id="node24" class="node">
<title>Node24</title>
<g id="a_node24"><a xlink:href="openssl__wrappers_8h.html" target="_top" xlink:title=" ">
<polygon fill="white" stroke="black" points="1054.5,-280.5 1054.5,-299.5 1167.5,-299.5 1167.5,-280.5 1054.5,-280.5"/>
<text text-anchor="middle" x="1111" y="-287.5" font-family="Helvetica,sans-Serif" font-size="10.00">openssl_wrappers.h</text>
</a>
</g>
</g>
<!-- Node2&#45;&gt;Node24 -->
<g id="edge32" class="edge">
<title>Node2&#45;&gt;Node24</title>
<path fill="none" stroke="midnightblue" d="M625.68,-338.91C729.35,-328.68 937.63,-308.11 1044.46,-297.57"/>
<polygon fill="midnightblue" stroke="midnightblue" points="1044.87,-301.05 1054.48,-296.58 1044.18,-294.08 1044.87,-301.05"/>
</g>
<!-- Node33 -->
<g id="node33" class="node">
<title>Node33</title>
<g id="a_node33"><a xlink:title=" ">
<polygon fill="white" stroke="#bfbfbf" points="772,-224.5 772,-243.5 856,-243.5 856,-224.5 772,-224.5"/>
<text text-anchor="middle" x="814" y="-231.5" font-family="Helvetica,sans-Serif" font-size="10.00">openssl/evp.h</text>
</a>
</g>
</g>
<!-- Node2&#45;&gt;Node33 -->
<g id="edge52" class="edge">
<title>Node2&#45;&gt;Node33</title>
<path fill="none" stroke="midnightblue" d="M583.62,-336.37C627.52,-317.05 733.87,-270.26 785.25,-247.65"/>
<polygon fill="midnightblue" stroke="midnightblue" points="786.73,-250.82 794.47,-243.59 783.91,-244.42 786.73,-250.82"/>
</g>
<!-- Node38 -->
<g id="node38" class="node">
<title>Node38</title>
<g id="a_node38"><a xlink:title=" ">
<polygon fill="white" stroke="#bfbfbf" points="392.5,-280.5 392.5,-299.5 473.5,-299.5 473.5,-280.5 392.5,-280.5"/>
<text text-anchor="middle" x="433" y="-287.5" font-family="Helvetica,sans-Serif" font-size="10.00">openssl/kdf.h</text>
</a>
</g>
</g>
<!-- Node2&#45;&gt;Node38 -->
<g id="edge53" class="edge">
<title>Node2&#45;&gt;Node38</title>
<path fill="none" stroke="midnightblue" d="M543.24,-336.44C521.68,-327.56 487.74,-313.56 463.21,-303.45"/>
<polygon fill="midnightblue" stroke="midnightblue" points="464.24,-300.09 453.66,-299.52 461.57,-306.56 464.24,-300.09"/>
</g>
<!-- Node2&#45;&gt;Node39 -->
<g id="edge54" class="edge">
<title>Node2&#45;&gt;Node39</title>
<path fill="none" stroke="midnightblue" d="M625.55,-342.62C734.46,-337.94 968.42,-325.78 1175.17,-300.11"/>
<polygon fill="midnightblue" stroke="midnightblue" points="1175.82,-303.56 1185.31,-298.84 1174.95,-296.61 1175.82,-303.56"/>
</g>
<!-- Node4 -->
<g id="node4" class="node">
<title>Node4</title>
<g id="a_node4"><a xlink:href="hash__bytes_8h.html" target="_top" xlink:title=" ">
<polygon fill="white" stroke="black" points="66,-224.5 66,-243.5 198,-243.5 198,-224.5 66,-224.5"/>
<text text-anchor="middle" x="132" y="-231.5" font-family="Helvetica,sans-Serif" font-size="10.00">ccf/crypto/hash_bytes.h</text>
</a>
</g>
</g>
<!-- Node3&#45;&gt;Node4 -->
<g id="edge3" class="edge">
<title>Node3&#45;&gt;Node4</title>
<path fill="none" stroke="midnightblue" d="M495.55,-280.44C417.29,-270.66 289.54,-254.69 208.18,-244.52"/>
<polygon fill="midnightblue" stroke="midnightblue" points="208.36,-241.02 198.01,-243.25 207.49,-247.96 208.36,-241.02"/>
</g>
<!-- Node5 -->
<g id="node5" class="node">
<title>Node5</title>
<g id="a_node5"><a xlink:title=" ">
<polygon fill="white" stroke="#bfbfbf" points="140.5,-0.5 140.5,-19.5 187.5,-19.5 187.5,-0.5 140.5,-0.5"/>
<text text-anchor="middle" x="164" y="-7.5" font-family="Helvetica,sans-Serif" font-size="10.00">vector</text>
</a>
</g>
</g>
<!-- Node3&#45;&gt;Node5 -->
<g id="edge31" class="edge">
<title>Node3&#45;&gt;Node5</title>
<path fill="none" stroke="midnightblue" d="M531.01,-280.49C501.62,-272.48 457.72,-259.41 421,-244 302.95,-194.45 259.07,-181.81 187,-76 177.42,-61.93 171.39,-43.44 167.91,-29.78"/>
<polygon fill="midnightblue" stroke="midnightblue" points="171.23,-28.6 165.58,-19.64 164.41,-30.17 171.23,-28.6"/>
</g>
<!-- Node6 -->
<g id="node6" class="node">
<title>Node6</title>
<g id="a_node6"><a xlink:href="md__type_8h.html" target="_top" xlink:title=" ">
<polygon fill="white" stroke="black" points="216.5,-224.5 216.5,-243.5 335.5,-243.5 335.5,-224.5 216.5,-224.5"/>
<text text-anchor="middle" x="276" y="-231.5" font-family="Helvetica,sans-Serif" font-size="10.00">ccf/crypto/md_type.h</text>
</a>
</g>
</g>
<!-- Node3&#45;&gt;Node6 -->
<g id="edge5" class="edge">
<title>Node3&#45;&gt;Node6</title>
<path fill="none" stroke="midnightblue" d="M518.37,-280.44C467.7,-270.94 385.93,-255.61 331.57,-245.42"/>
<polygon fill="midnightblue" stroke="midnightblue" points="331.89,-241.92 321.42,-243.52 330.6,-248.8 331.89,-241.92"/>
</g>
<!-- Node13 -->
<g id="node13" class="node">
<title>Node13</title>
<g id="a_node13"><a xlink:title=" ">
<polygon fill="white" stroke="#bfbfbf" points="734,-0.5 734,-19.5 776,-19.5 776,-0.5 734,-0.5"/>
<text text-anchor="middle" x="755" y="-7.5" font-family="Helvetica,sans-Serif" font-size="10.00">array</text>
</a>
</g>
</g>
<!-- Node3&#45;&gt;Node13 -->
<g id="edge28" class="edge">
<title>Node3&#45;&gt;Node13</title>
<path fill="none" stroke="midnightblue" d="M617.87,-280.48C658.98,-272.83 710.9,-260.3 725,-244 778.89,-181.71 766.42,-72.69 758.76,-29.44"/>
<polygon fill="midnightblue" stroke="midnightblue" points="762.18,-28.67 756.87,-19.5 755.3,-29.98 762.18,-28.67"/>
</g>
<!-- Node20 -->
<g id="node20" class="node">
<title>Node20</title>
<g id="a_node20"><a xlink:href="sha256__hash_8h.html" target="_top" xlink:title=" ">
<polygon fill="white" stroke="black" points="576,-224.5 576,-243.5 716,-243.5 716,-224.5 576,-224.5"/>
<text text-anchor="middle" x="646" y="-231.5" font-family="Helvetica,sans-Serif" font-size="10.00">ccf/crypto/sha256_hash.h</text>
</a>
</g>
</g>
<!-- Node3&#45;&gt;Node20 -->
<g id="edge23" class="edge">
<title>Node3&#45;&gt;Node20</title>
<path fill="none" stroke="midnightblue" d="M577.17,-280.32C589.85,-271.98 609.23,-259.21 624.21,-249.35"/>
<polygon fill="midnightblue" stroke="midnightblue" points="626.43,-252.08 632.86,-243.65 622.58,-246.23 626.43,-252.08"/>
</g>
<!-- Node22 -->
<g id="node22" class="node">
<title>Node22</title>
<g id="a_node22"><a xlink:title=" ">
<polygon fill="white" stroke="#bfbfbf" points="430,-224.5 430,-243.5 480,-243.5 480,-224.5 430,-224.5"/>
<text text-anchor="middle" x="455" y="-231.5" font-family="Helvetica,sans-Serif" font-size="10.00">cstdint</text>
</a>
</g>
</g>
<!-- Node3&#45;&gt;Node22 -->
<g id="edge29" class="edge">
<title>Node3&#45;&gt;Node22</title>
<path fill="none" stroke="midnightblue" d="M546.49,-280.32C528.93,-271.62 501.67,-258.12 481.47,-248.11"/>
<polygon fill="midnightblue" stroke="midnightblue" points="482.98,-244.96 472.47,-243.65 479.88,-251.23 482.98,-244.96"/>
</g>
<!-- Node23 -->
<g id="node23" class="node">
<title>Node23</title>
<g id="a_node23"><a xlink:title=" ">
<polygon fill="white" stroke="#bfbfbf" points="498,-224.5 498,-243.5 558,-243.5 558,-224.5 498,-224.5"/>
<text text-anchor="middle" x="528" y="-231.5" font-family="Helvetica,sans-Serif" font-size="10.00">iostream</text>
</a>
</g>
</g>
<!-- Node3&#45;&gt;Node23 -->
<g id="edge30" class="edge">
<title>Node3&#45;&gt;Node23</title>
<path fill="none" stroke="midnightblue" d="M558.06,-280.08C553.02,-272.53 545.66,-261.49 539.49,-252.23"/>
<polygon fill="midnightblue" stroke="midnightblue" points="542.29,-250.13 533.83,-243.75 536.47,-254.01 542.29,-250.13"/>
</g>
<!-- Node4&#45;&gt;Node5 -->
<g id="edge4" class="edge">
<title>Node4&#45;&gt;Node5</title>
<path fill="none" stroke="midnightblue" d="M132.26,-224.43C133.19,-198.69 136.96,-119.85 150,-56 151.82,-47.08 154.7,-37.42 157.38,-29.34"/>
<polygon fill="midnightblue" stroke="midnightblue" points="160.71,-30.42 160.68,-19.83 154.09,-28.13 160.71,-30.42"/>
</g>
<!-- Node7 -->
<g id="node7" class="node">
<title>Node7</title>
<g id="a_node7"><a xlink:href="json_8h.html" target="_top" xlink:title=" ">
<polygon fill="white" stroke="black" points="453.5,-168.5 453.5,-187.5 530.5,-187.5 530.5,-168.5 453.5,-168.5"/>
<text text-anchor="middle" x="492" y="-175.5" font-family="Helvetica,sans-Serif" font-size="10.00">ccf/ds/json.h</text>
</a>
</g>
</g>
<!-- Node6&#45;&gt;Node7 -->
<g id="edge6" class="edge">
<title>Node6&#45;&gt;Node7</title>
<path fill="none" stroke="midnightblue" d="M310.23,-224.44C347.51,-215.12 407.27,-200.18 448.01,-190"/>
<polygon fill="midnightblue" stroke="midnightblue" points="449.08,-193.34 457.93,-187.52 447.38,-186.55 449.08,-193.34"/>
</g>
<!-- Node8 -->
<g id="node8" class="node">
<title>Node8</title>
<g id="a_node8"><a xlink:href="include_2ccf_2crypto_2base64_8h.html" target="_top" xlink:title=" ">
<polygon fill="white" stroke="black" points="464,-56.5 464,-75.5 576,-75.5 576,-56.5 464,-56.5"/>
<text text-anchor="middle" x="520" y="-63.5" font-family="Helvetica,sans-Serif" font-size="10.00">ccf/crypto/base64.h</text>
</a>
</g>
</g>
<!-- Node7&#45;&gt;Node8 -->
<g id="edge7" class="edge">
<title>Node7&#45;&gt;Node8</title>
<path fill="none" stroke="midnightblue" d="M494.91,-168.44C497.92,-159.43 502.63,-144.82 506,-132 510.04,-116.63 513.78,-98.99 516.38,-85.97"/>
<polygon fill="midnightblue" stroke="midnightblue" points="519.87,-86.38 518.35,-75.89 513,-85.04 519.87,-86.38"/>
</g>
<!-- Node10 -->
<g id="node10" class="node">
<title>Node10</title>
<g id="a_node10"><a xlink:href="include_2ccf_2ds_2json__schema_8h.html" target="_top" xlink:title=" ">
<polygon fill="white" stroke="black" points="268.5,-112.5 268.5,-131.5 389.5,-131.5 389.5,-112.5 268.5,-112.5"/>
<text text-anchor="middle" x="329" y="-119.5" font-family="Helvetica,sans-Serif" font-size="10.00">ccf/ds/json_schema.h</text>
</a>
</g>
</g>
<!-- Node7&#45;&gt;Node10 -->
<g id="edge10" class="edge">
<title>Node7&#45;&gt;Node10</title>
<path fill="none" stroke="midnightblue" d="M466.17,-168.44C438.75,-159.36 395.22,-144.94 364.57,-134.78"/>
<polygon fill="midnightblue" stroke="midnightblue" points="365.3,-131.34 354.71,-131.52 363.1,-137.98 365.3,-131.34"/>
</g>
<!-- Node7&#45;&gt;Node17 -->
<g id="edge21" class="edge">
<title>Node7&#45;&gt;Node17</title>
<path fill="none" stroke="midnightblue" d="M491.31,-168.19C489.88,-154.86 485.58,-129.31 473,-112 463.26,-98.6 448.25,-87.91 434.99,-80.31"/>
<polygon fill="midnightblue" stroke="midnightblue" points="436.65,-77.23 426.19,-75.56 433.32,-83.39 436.65,-77.23"/>
</g>
<!-- Node19 -->
<g id="node19" class="node">
<title>Node19</title>
<g id="a_node19"><a xlink:title=" ">
<polygon fill="white" stroke="#bfbfbf" points="408,-112.5 408,-131.5 464,-131.5 464,-112.5 408,-112.5"/>
<text text-anchor="middle" x="436" y="-119.5" font-family="Helvetica,sans-Serif" font-size="10.00">sstream</text>
</a>
</g>
</g>
<!-- Node7&#45;&gt;Node19 -->
<g id="edge22" class="edge">
<title>Node7&#45;&gt;Node19</title>
<path fill="none" stroke="midnightblue" d="M483,-168.32C474.81,-160.42 462.49,-148.55 452.53,-138.94"/>
<polygon fill="midnightblue" stroke="midnightblue" points="454.79,-136.26 445.16,-131.83 449.93,-141.29 454.79,-136.26"/>
</g>
<!-- Node8&#45;&gt;Node5 -->
<g id="edge9" class="edge">
<title>Node8&#45;&gt;Node5</title>
<path fill="none" stroke="midnightblue" d="M463.98,-56.5C389.2,-45.16 259.08,-25.42 197.78,-16.12"/>
<polygon fill="midnightblue" stroke="midnightblue" points="198.26,-12.66 187.85,-14.62 197.21,-19.58 198.26,-12.66"/>
</g>
<!-- Node9 -->
<g id="node9" class="node">
<title>Node9</title>
<g id="a_node9"><a xlink:title=" ">
<polygon fill="white" stroke="#bfbfbf" points="435,-0.5 435,-19.5 479,-19.5 479,-0.5 435,-0.5"/>
<text text-anchor="middle" x="457" y="-7.5" font-family="Helvetica,sans-Serif" font-size="10.00">string</text>
</a>
</g>
</g>
<!-- Node8&#45;&gt;Node9 -->
<g id="edge8" class="edge">
<title>Node8&#45;&gt;Node9</title>
<path fill="none" stroke="midnightblue" d="M509.88,-56.32C500.47,-48.26 486.26,-36.08 474.93,-26.37"/>
<polygon fill="midnightblue" stroke="midnightblue" points="477.18,-23.68 467.31,-19.83 472.62,-29 477.18,-23.68"/>
</g>
<!-- Node11 -->
<g id="node11" class="node">
<title>Node11</title>
<g id="a_node11"><a xlink:href="nonstd_8h.html" target="_top" xlink:title=" ">
<polygon fill="white" stroke="black" points="594,-56.5 594,-75.5 684,-75.5 684,-56.5 594,-56.5"/>
<text text-anchor="middle" x="639" y="-63.5" font-family="Helvetica,sans-Serif" font-size="10.00">ccf/ds/nonstd.h</text>
</a>
</g>
</g>
<!-- Node10&#45;&gt;Node11 -->
<g id="edge11" class="edge">
<title>Node10&#45;&gt;Node11</title>
<path fill="none" stroke="midnightblue" d="M378.12,-112.44C434.01,-102.71 525.07,-86.85 583.49,-76.67"/>
<polygon fill="midnightblue" stroke="midnightblue" points="584.39,-80.07 593.64,-74.9 583.19,-73.17 584.39,-80.07"/>
</g>
<!-- Node10&#45;&gt;Node17 -->
<g id="edge19" class="edge">
<title>Node10&#45;&gt;Node17</title>
<path fill="none" stroke="midnightblue" d="M341.53,-112.32C353.59,-103.98 372.03,-91.21 386.27,-81.35"/>
<polygon fill="midnightblue" stroke="midnightblue" points="388.27,-84.22 394.5,-75.65 384.28,-78.47 388.27,-84.22"/>
</g>
<!-- Node18 -->
<g id="node18" class="node">
<title>Node18</title>
<g id="a_node18"><a xlink:title=" ">
<polygon fill="white" stroke="#bfbfbf" points="239,-56.5 239,-75.5 349,-75.5 349,-56.5 239,-56.5"/>
<text text-anchor="middle" x="294" y="-63.5" font-family="Helvetica,sans-Serif" font-size="10.00">nlohmann/json.hpp</text>
</a>
</g>
</g>
<!-- Node10&#45;&gt;Node18 -->
<g id="edge20" class="edge">
<title>Node10&#45;&gt;Node18</title>
<path fill="none" stroke="midnightblue" d="M323.22,-112.08C318.33,-104.53 311.17,-93.49 305.17,-84.23"/>
<polygon fill="midnightblue" stroke="midnightblue" points="308.05,-82.24 299.67,-75.75 302.17,-86.05 308.05,-82.24"/>
</g>
<!-- Node11&#45;&gt;Node5 -->
<g id="edge18" class="edge">
<title>Node11&#45;&gt;Node5</title>
<path fill="none" stroke="midnightblue" d="M593.95,-57.29C590.92,-56.83 587.92,-56.4 585,-56 441.6,-36.4 269.75,-20.33 198.03,-13.96"/>
<polygon fill="midnightblue" stroke="midnightblue" points="198.07,-10.44 187.8,-13.05 197.45,-17.42 198.07,-10.44"/>
</g>
<!-- Node11&#45;&gt;Node9 -->
<g id="edge15" class="edge">
<title>Node11&#45;&gt;Node9</title>
<path fill="none" stroke="midnightblue" d="M610.16,-56.44C577.19,-46.66 523.36,-30.69 489.08,-20.52"/>
<polygon fill="midnightblue" stroke="midnightblue" points="489.7,-17.05 479.12,-17.56 487.71,-23.76 489.7,-17.05"/>
</g>
<!-- Node12 -->
<g id="node12" class="node">
<title>Node12</title>
<g id="a_node12"><a xlink:title=" ">
<polygon fill="white" stroke="#bfbfbf" points="497,-0.5 497,-19.5 561,-19.5 561,-0.5 497,-0.5"/>
<text text-anchor="middle" x="529" y="-7.5" font-family="Helvetica,sans-Serif" font-size="10.00">algorithm</text>
</a>
</g>
</g>
<!-- Node11&#45;&gt;Node12 -->
<g id="edge12" class="edge">
<title>Node11&#45;&gt;Node12</title>
<path fill="none" stroke="midnightblue" d="M621.33,-56.32C603.61,-47.62 576.1,-34.12 555.71,-24.11"/>
<polygon fill="midnightblue" stroke="midnightblue" points="557.15,-20.92 546.63,-19.65 554.06,-27.2 557.15,-20.92"/>
</g>
<!-- Node11&#45;&gt;Node13 -->
<g id="edge13" class="edge">
<title>Node11&#45;&gt;Node13</title>
<path fill="none" stroke="midnightblue" d="M657.38,-56.44C676.22,-47.68 705.73,-33.94 727.38,-23.86"/>
<polygon fill="midnightblue" stroke="midnightblue" points="729.12,-26.91 736.71,-19.52 726.16,-20.56 729.12,-26.91"/>
</g>
<!-- Node14 -->
<g id="node14" class="node">
<title>Node14</title>
<g id="a_node14"><a xlink:title=" ">
<polygon fill="white" stroke="#bfbfbf" points="579.5,-0.5 579.5,-19.5 628.5,-19.5 628.5,-0.5 579.5,-0.5"/>
<text text-anchor="middle" x="604" y="-7.5" font-family="Helvetica,sans-Serif" font-size="10.00">cctype</text>
</a>
</g>
</g>
<!-- Node11&#45;&gt;Node14 -->
<g id="edge14" class="edge">
<title>Node11&#45;&gt;Node14</title>
<path fill="none" stroke="midnightblue" d="M633.22,-56.08C628.33,-48.53 621.17,-37.49 615.17,-28.23"/>
<polygon fill="midnightblue" stroke="midnightblue" points="618.05,-26.24 609.67,-19.75 612.17,-30.05 618.05,-26.24"/>
</g>
<!-- Node15 -->
<g id="node15" class="node">
<title>Node15</title>
<g id="a_node15"><a xlink:title=" ">
<polygon fill="white" stroke="#bfbfbf" points="804.5,-0.5 804.5,-19.5 877.5,-19.5 877.5,-0.5 804.5,-0.5"/>
<text text-anchor="middle" x="841" y="-7.5" font-family="Helvetica,sans-Serif" font-size="10.00">string_view</text>
</a>
</g>
</g>
<!-- Node11&#45;&gt;Node15 -->
<g id="edge16" class="edge">
<title>Node11&#45;&gt;Node15</title>
<path fill="none" stroke="midnightblue" d="M671.01,-56.44C705.73,-47.16 761.29,-32.31 799.38,-22.13"/>
<polygon fill="midnightblue" stroke="midnightblue" points="800.39,-25.48 809.14,-19.52 798.58,-18.72 800.39,-25.48"/>
</g>
<!-- Node16 -->
<g id="node16" class="node">
<title>Node16</title>
<g id="a_node16"><a xlink:title=" ">
<polygon fill="white" stroke="#bfbfbf" points="646.5,-0.5 646.5,-19.5 715.5,-19.5 715.5,-0.5 646.5,-0.5"/>
<text text-anchor="middle" x="681" y="-7.5" font-family="Helvetica,sans-Serif" font-size="10.00">type_traits</text>
</a>
</g>
</g>
<!-- Node11&#45;&gt;Node16 -->
<g id="edge17" class="edge">
<title>Node11&#45;&gt;Node16</title>
<path fill="none" stroke="midnightblue" d="M645.94,-56.08C651.93,-48.38 660.75,-37.03 668.05,-27.65"/>
<polygon fill="midnightblue" stroke="midnightblue" points="670.82,-29.79 674.19,-19.75 665.29,-25.5 670.82,-29.79"/>
</g>
<!-- Node20&#45;&gt;Node7 -->
<g id="edge24" class="edge">
<title>Node20&#45;&gt;Node7</title>
<path fill="none" stroke="midnightblue" d="M621.6,-224.44C595.8,-215.4 554.92,-201.06 525.98,-190.92"/>
<polygon fill="midnightblue" stroke="midnightblue" points="526.88,-187.52 516.29,-187.52 524.57,-194.13 526.88,-187.52"/>
</g>
<!-- Node20&#45;&gt;Node13 -->
<g id="edge25" class="edge">
<title>Node20&#45;&gt;Node13</title>
<path fill="none" stroke="midnightblue" d="M650.27,-224.3C666.41,-191.42 723.88,-74.39 746.12,-29.09"/>
<polygon fill="midnightblue" stroke="midnightblue" points="749.37,-30.4 750.64,-19.88 743.09,-27.32 749.37,-30.4"/>
</g>
<!-- Node20&#45;&gt;Node17 -->
<g id="edge27" class="edge">
<title>Node20&#45;&gt;Node17</title>
<path fill="none" stroke="midnightblue" d="M575.87,-225.12C474.89,-212.14 296.5,-182.53 259,-132 253.7,-124.86 253.71,-119.14 259,-112 265.32,-103.48 320.19,-88.34 361.3,-77.99"/>
<polygon fill="midnightblue" stroke="midnightblue" points="362.29,-81.35 371.15,-75.54 360.6,-74.56 362.29,-81.35"/>
</g>
<!-- Node21 -->
<g id="node21" class="node">
<title>Node21</title>
<g id="a_node21"><a xlink:title=" ">
<polygon fill="white" stroke="#bfbfbf" points="778,-168.5 778,-187.5 818,-187.5 818,-168.5 778,-168.5"/>
<text text-anchor="middle" x="798" y="-175.5" font-family="Helvetica,sans-Serif" font-size="10.00">span</text>
</a>
</g>
</g>
<!-- Node20&#45;&gt;Node21 -->
<g id="edge26" class="edge">
<title>Node20&#45;&gt;Node21</title>
<path fill="none" stroke="midnightblue" d="M670.08,-224.44C696.74,-214.97 739.72,-199.7 768.41,-189.51"/>
<polygon fill="midnightblue" stroke="midnightblue" points="769.66,-192.78 777.91,-186.14 767.32,-186.19 769.66,-192.78"/>
</g>
<!-- Node24&#45;&gt;Node17 -->
<g id="edge41" class="edge">
<title>Node24&#45;&gt;Node17</title>
<path fill="none" stroke="midnightblue" d="M1054.22,-280.99C1011.74,-273.98 952.65,-262.06 903,-244 885.06,-237.48 882.41,-231.81 865,-224 823.42,-205.35 811.44,-204.58 769,-188 685.44,-155.36 667.19,-140.12 582,-112 540.25,-98.22 491.75,-86.04 456.42,-77.84"/>
<polygon fill="midnightblue" stroke="midnightblue" points="456.89,-74.35 446.36,-75.53 455.32,-81.18 456.89,-74.35"/>
</g>
<!-- Node25 -->
<g id="node25" class="node">
<title>Node25</title>
<g id="a_node25"><a xlink:href="pem_8h.html" target="_top" xlink:title=" ">
<polygon fill="white" stroke="black" points="912,-224.5 912,-243.5 1010,-243.5 1010,-224.5 912,-224.5"/>
<text text-anchor="middle" x="961" y="-231.5" font-family="Helvetica,sans-Serif" font-size="10.00">ccf/crypto/pem.h</text>
</a>
</g>
</g>
<!-- Node24&#45;&gt;Node25 -->
<g id="edge33" class="edge">
<title>Node24&#45;&gt;Node25</title>
<path fill="none" stroke="midnightblue" d="M1087.23,-280.44C1062.11,-271.4 1022.29,-257.06 994.1,-246.92"/>
<polygon fill="midnightblue" stroke="midnightblue" points="995.25,-243.61 984.66,-243.52 992.88,-250.2 995.25,-243.61"/>
</g>
<!-- Node28 -->
<g id="node28" class="node">
<title>Node28</title>
<g id="a_node28"><a xlink:title=" ">
<polygon fill="white" stroke="#bfbfbf" points="1026,-168.5 1026,-187.5 1084,-187.5 1084,-168.5 1026,-168.5"/>
<text text-anchor="middle" x="1055" y="-175.5" font-family="Helvetica,sans-Serif" font-size="10.00">memory</text>
</a>
</g>
</g>
<!-- Node24&#45;&gt;Node28 -->
<g id="edge42" class="edge">
<title>Node24&#45;&gt;Node28</title>
<path fill="none" stroke="midnightblue" d="M1095.12,-280.45C1082.58,-272.74 1065.93,-260.14 1058,-244 1050.92,-229.58 1050.78,-211.13 1052.05,-197.57"/>
<polygon fill="midnightblue" stroke="midnightblue" points="1055.54,-197.89 1053.34,-187.53 1048.6,-197 1055.54,-197.89"/>
</g>
<!-- Node29 -->
<g id="node29" class="node">
<title>Node29</title>
<g id="a_node29"><a xlink:title=" ">
<polygon fill="white" stroke="#bfbfbf" points="1066.5,-224.5 1066.5,-243.5 1155.5,-243.5 1155.5,-224.5 1066.5,-224.5"/>
<text text-anchor="middle" x="1111" y="-231.5" font-family="Helvetica,sans-Serif" font-size="10.00">openssl/asn1.h</text>
</a>
</g>
</g>
<!-- Node24&#45;&gt;Node29 -->
<g id="edge43" class="edge">
<title>Node24&#45;&gt;Node29</title>
<path fill="none" stroke="midnightblue" d="M1111,-280.08C1111,-273.01 1111,-262.86 1111,-253.99"/>
<polygon fill="midnightblue" stroke="midnightblue" points="1114.5,-253.75 1111,-243.75 1107.5,-253.75 1114.5,-253.75"/>
</g>
<!-- Node30 -->
<g id="node30" class="node">
<title>Node30</title>
<g id="a_node30"><a xlink:title=" ">
<polygon fill="white" stroke="#bfbfbf" points="1173.5,-224.5 1173.5,-243.5 1250.5,-243.5 1250.5,-224.5 1173.5,-224.5"/>
<text text-anchor="middle" x="1212" y="-231.5" font-family="Helvetica,sans-Serif" font-size="10.00">openssl/ec.h</text>
</a>
</g>
</g>
<!-- Node24&#45;&gt;Node30 -->
<g id="edge44" class="edge">
<title>Node24&#45;&gt;Node30</title>
<path fill="none" stroke="midnightblue" d="M1127.23,-280.32C1143.35,-271.7 1168.3,-258.36 1186.96,-248.39"/>
<polygon fill="midnightblue" stroke="midnightblue" points="1188.64,-251.46 1195.81,-243.65 1185.34,-245.28 1188.64,-251.46"/>
</g>
<!-- Node31 -->
<g id="node31" class="node">
<title>Node31</title>
<g id="a_node31"><a xlink:title=" ">
<polygon fill="white" stroke="#bfbfbf" points="1268.5,-224.5 1268.5,-243.5 1367.5,-243.5 1367.5,-224.5 1268.5,-224.5"/>
<text text-anchor="middle" x="1318" y="-231.5" font-family="Helvetica,sans-Serif" font-size="10.00">openssl/engine.h</text>
</a>
</g>
</g>
<!-- Node24&#45;&gt;Node31 -->
<g id="edge45" class="edge">
<title>Node24&#45;&gt;Node31</title>
<path fill="none" stroke="midnightblue" d="M1143.8,-280.44C1179.38,-271.16 1236.31,-256.31 1275.35,-246.13"/>
<polygon fill="midnightblue" stroke="midnightblue" points="1276.56,-249.43 1285.35,-243.52 1274.79,-242.65 1276.56,-249.43"/>
</g>
<!-- Node32 -->
<g id="node32" class="node">
<title>Node32</title>
<g id="a_node32"><a xlink:title=" ">
<polygon fill="white" stroke="#bfbfbf" points="1385.5,-224.5 1385.5,-243.5 1464.5,-243.5 1464.5,-224.5 1385.5,-224.5"/>
<text text-anchor="middle" x="1425" y="-231.5" font-family="Helvetica,sans-Serif" font-size="10.00">openssl/err.h</text>
</a>
</g>
</g>
<!-- Node24&#45;&gt;Node32 -->
<g id="edge46" class="edge">
<title>Node24&#45;&gt;Node32</title>
<path fill="none" stroke="midnightblue" d="M1163.04,-280.48C1214.49,-271.99 1295.76,-258.41 1375.27,-244.29"/>
<polygon fill="midnightblue" stroke="midnightblue" points="1376.23,-247.67 1385.46,-242.47 1375,-240.78 1376.23,-247.67"/>
</g>
<!-- Node24&#45;&gt;Node33 -->
<g id="edge47" class="edge">
<title>Node24&#45;&gt;Node33</title>
<path fill="none" stroke="midnightblue" d="M1063.94,-280.44C1010.05,-270.64 922.01,-254.64 866.09,-244.47"/>
<polygon fill="midnightblue" stroke="midnightblue" points="866.5,-240.99 856.04,-242.64 865.25,-247.88 866.5,-240.99"/>
</g>
<!-- Node34 -->
<g id="node34" class="node">
<title>Node34</title>
<g id="a_node34"><a xlink:title=" ">
<polygon fill="white" stroke="#bfbfbf" points="1482,-224.5 1482,-243.5 1570,-243.5 1570,-224.5 1482,-224.5"/>
<text text-anchor="middle" x="1526" y="-231.5" font-family="Helvetica,sans-Serif" font-size="10.00">openssl/pem.h</text>
</a>
</g>
</g>
<!-- Node24&#45;&gt;Node34 -->
<g id="edge48" class="edge">
<title>Node24&#45;&gt;Node34</title>
<path fill="none" stroke="midnightblue" d="M1167.52,-281.24C1170.73,-280.81 1173.9,-280.4 1177,-280 1305.66,-263.43 1340.75,-263.34 1471.75,-244.28"/>
<polygon fill="midnightblue" stroke="midnightblue" points="1472.38,-247.72 1481.77,-242.81 1471.37,-240.8 1472.38,-247.72"/>
</g>
<!-- Node35 -->
<g id="node35" class="node">
<title>Node35</title>
<g id="a_node35"><a xlink:title=" ">
<polygon fill="white" stroke="#bfbfbf" points="1588,-224.5 1588,-243.5 1668,-243.5 1668,-224.5 1588,-224.5"/>
<text text-anchor="middle" x="1628" y="-231.5" font-family="Helvetica,sans-Serif" font-size="10.00">openssl/ssl.h</text>
</a>
</g>
</g>
<!-- Node24&#45;&gt;Node35 -->
<g id="edge49" class="edge">
<title>Node24&#45;&gt;Node35</title>
<path fill="none" stroke="midnightblue" d="M1167.5,-281.12C1170.71,-280.73 1173.9,-280.35 1177,-280 1352.03,-260.24 1399.56,-267.94 1577.96,-244.02"/>
<polygon fill="midnightblue" stroke="midnightblue" points="1578.5,-247.48 1587.94,-242.67 1577.56,-240.54 1578.5,-247.48"/>
</g>
<!-- Node36 -->
<g id="node36" class="node">
<title>Node36</title>
<g id="a_node36"><a xlink:title=" ">
<polygon fill="white" stroke="#bfbfbf" points="1686,-224.5 1686,-243.5 1776,-243.5 1776,-224.5 1686,-224.5"/>
<text text-anchor="middle" x="1731" y="-231.5" font-family="Helvetica,sans-Serif" font-size="10.00">openssl/x509.h</text>
</a>
</g>
</g>
<!-- Node24&#45;&gt;Node36 -->
<g id="edge50" class="edge">
<title>Node24&#45;&gt;Node36</title>
<path fill="none" stroke="midnightblue" d="M1167.85,-281.01C1170.95,-280.65 1174.01,-280.31 1177,-280 1395.35,-257.27 1454.06,-269.96 1675.96,-244.01"/>
<polygon fill="midnightblue" stroke="midnightblue" points="1676.44,-247.48 1685.96,-242.83 1675.62,-240.53 1676.44,-247.48"/>
</g>
<!-- Node37 -->
<g id="node37" class="node">
<title>Node37</title>
<g id="a_node37"><a xlink:title=" ">
<polygon fill="white" stroke="#bfbfbf" points="1794,-224.5 1794,-243.5 1896,-243.5 1896,-224.5 1794,-224.5"/>
<text text-anchor="middle" x="1845" y="-231.5" font-family="Helvetica,sans-Serif" font-size="10.00">openssl/x509v3.h</text>
</a>
</g>
</g>
<!-- Node24&#45;&gt;Node37 -->
<g id="edge51" class="edge">
<title>Node24&#45;&gt;Node37</title>
<path fill="none" stroke="midnightblue" d="M1167.85,-280.97C1170.94,-280.62 1174.01,-280.29 1177,-280 1443.13,-254.01 1514.04,-271.66 1783.88,-244.02"/>
<polygon fill="midnightblue" stroke="midnightblue" points="1784.39,-247.48 1793.98,-242.97 1783.67,-240.52 1784.39,-247.48"/>
</g>
<!-- Node25&#45;&gt;Node5 -->
<g id="edge40" class="edge">
<title>Node25&#45;&gt;Node5</title>
<path fill="none" stroke="midnightblue" d="M911.68,-228.3C896.69,-226.89 880.17,-225.36 865,-224 729.33,-211.84 371.45,-208.86 259,-132 218.92,-104.6 187.86,-55.11 173.22,-28.71"/>
<polygon fill="midnightblue" stroke="midnightblue" points="176.25,-26.96 168.43,-19.81 170.09,-30.28 176.25,-26.96"/>
</g>
<!-- Node25&#45;&gt;Node7 -->
<g id="edge34" class="edge">
<title>Node25&#45;&gt;Node7</title>
<path fill="none" stroke="midnightblue" d="M911.7,-227.32C821.43,-216.93 630.66,-194.96 540.78,-184.62"/>
<polygon fill="midnightblue" stroke="midnightblue" points="540.93,-181.11 530.59,-183.44 540.13,-188.06 540.93,-181.11"/>
</g>
<!-- Node25&#45;&gt;Node15 -->
<g id="edge39" class="edge">
<title>Node25&#45;&gt;Node15</title>
<path fill="none" stroke="midnightblue" d="M922.5,-224.43C902.2,-217.88 878.73,-206.69 865,-188 829.86,-140.18 833.85,-64.94 838.1,-30"/>
<polygon fill="midnightblue" stroke="midnightblue" points="841.61,-30.18 839.49,-19.8 834.67,-29.23 841.61,-30.18"/>
</g>
<!-- Node25&#45;&gt;Node21 -->
<g id="edge38" class="edge">
<title>Node25&#45;&gt;Node21</title>
<path fill="none" stroke="midnightblue" d="M935.17,-224.44C905.98,-214.77 858.52,-199.05 827.79,-188.87"/>
<polygon fill="midnightblue" stroke="midnightblue" points="828.65,-185.47 818.05,-185.64 826.45,-192.11 828.65,-185.47"/>
</g>
<!-- Node26 -->
<g id="node26" class="node">
<title>Node26</title>
<g id="a_node26"><a xlink:title=" ">
<polygon fill="white" stroke="#bfbfbf" points="874,-168.5 874,-187.5 924,-187.5 924,-168.5 874,-168.5"/>
<text text-anchor="middle" x="899" y="-175.5" font-family="Helvetica,sans-Serif" font-size="10.00">cstring</text>
</a>
</g>
</g>
<!-- Node25&#45;&gt;Node26 -->
<g id="edge35" class="edge">
<title>Node25&#45;&gt;Node26</title>
<path fill="none" stroke="midnightblue" d="M951.04,-224.32C941.87,-216.34 928.06,-204.31 916.97,-194.65"/>
<polygon fill="midnightblue" stroke="midnightblue" points="918.98,-191.76 909.14,-187.83 914.38,-197.04 918.98,-191.76"/>
</g>
<!-- Node27 -->
<g id="node27" class="node">
<title>Node27</title>
<g id="a_node27"><a xlink:title=" ">
<polygon fill="white" stroke="#bfbfbf" points="942.5,-168.5 942.5,-187.5 1007.5,-187.5 1007.5,-168.5 942.5,-168.5"/>
<text text-anchor="middle" x="975" y="-175.5" font-family="Helvetica,sans-Serif" font-size="10.00">exception</text>
</a>
</g>
</g>
<!-- Node25&#45;&gt;Node27 -->
<g id="edge36" class="edge">
<title>Node25&#45;&gt;Node27</title>
<path fill="none" stroke="midnightblue" d="M963.31,-224.08C965.17,-216.93 967.84,-206.64 970.15,-197.69"/>
<polygon fill="midnightblue" stroke="midnightblue" points="973.61,-198.31 972.73,-187.75 966.83,-196.55 973.61,-198.31"/>
</g>
<!-- Node25&#45;&gt;Node28 -->
<g id="edge37" class="edge">
<title>Node25&#45;&gt;Node28</title>
<path fill="none" stroke="midnightblue" d="M976.1,-224.32C990.9,-215.82 1013.69,-202.73 1030.98,-192.8"/>
<polygon fill="midnightblue" stroke="midnightblue" points="1033.01,-195.67 1039.93,-187.65 1029.52,-189.6 1033.01,-195.67"/>
</g>
<!-- Node40&#45;&gt;Node5 -->
<g id="edge58" class="edge">
<title>Node40&#45;&gt;Node5</title>
<path fill="none" stroke="midnightblue" d="M226.81,-281.63C166.13,-272.12 69.42,-255.44 57,-244 34.87,-223.6 38,-209.1 38,-179 38,-179 38,-179 38,-121 38,-71.69 93.45,-39.39 130.78,-23.24"/>
<polygon fill="midnightblue" stroke="midnightblue" points="132.4,-26.35 140.3,-19.29 129.72,-19.89 132.4,-26.35"/>
</g>
<!-- Node40&#45;&gt;Node6 -->
<g id="edge57" class="edge">
<title>Node40&#45;&gt;Node6</title>
<path fill="none" stroke="midnightblue" d="M276,-280.08C276,-273.01 276,-262.86 276,-253.99"/>
<polygon fill="midnightblue" stroke="midnightblue" points="279.5,-253.75 276,-243.75 272.5,-253.75 279.5,-253.75"/>
</g>
<!-- Node41&#45;&gt;Node4 -->
<g id="edge60" class="edge">
<title>Node41&#45;&gt;Node4</title>
<path fill="none" stroke="midnightblue" d="M132,-280.08C132,-273.01 132,-262.86 132,-253.99"/>
<polygon fill="midnightblue" stroke="midnightblue" points="135.5,-253.75 132,-243.75 128.5,-253.75 135.5,-253.75"/>
</g>
<!-- Node41&#45;&gt;Node5 -->
<g id="edge61" class="edge">
<title>Node41&#45;&gt;Node5</title>
<path fill="none" stroke="midnightblue" d="M91.24,-280.49C68.79,-273.92 41.93,-262.69 24,-244 2.68,-221.78 0,-209.8 0,-179 0,-179 0,-179 0,-121 0,-90.2 1.76,-77.31 24,-56 52.9,-28.31 98.91,-17.66 130.23,-13.56"/>
<polygon fill="midnightblue" stroke="midnightblue" points="130.71,-17.03 140.25,-12.41 129.91,-10.07 130.71,-17.03"/>
</g>
</g>
</svg>
