<?xml version="1.0" encoding="UTF-8" standalone="no"?>
<!DOCTYPE svg PUBLIC "-//W3C//DTD SVG 1.1//EN"
 "http://www.w3.org/Graphics/SVG/1.1/DTD/svg11.dtd">
<!-- Generated by graphviz version 2.43.0 (0)
 -->
<!-- Title: include/ccf/historical_queries_interface.h Pages: 1 -->
<!--zoomable 464 -->
<svg id="main" version="1.1" xmlns="http://www.w3.org/2000/svg" xmlns:xlink="http://www.w3.org/1999/xlink" xml:space="preserve" onload="init(evt)">
<style type="text/css"><![CDATA[
.edge:hover path { stroke: red; }
.edge:hover polygon { stroke: red; fill: red; }
]]></style>
<script type="text/javascript"><![CDATA[
var edges = document.getElementsByTagName('g');
if (edges && edges.length) {
  for (var i=0;i<edges.length;i++) {
    if (edges[i].id.substr(0,4)=='edge') {
      edges[i].setAttribute('class','edge');
    }
  }
}
]]></script>
        <defs>
                <circle id="rim" cx="0" cy="0" r="7"/>
                <circle id="rim2" cx="0" cy="0" r="3.5"/>
                <g id="zoomPlus">
                        <use xlink:href="#rim" fill="#404040">
                                <set attributeName="fill" to="#808080" begin="zoomplus.mouseover" end="zoomplus.mouseout"/>
                        </use>
                        <path d="M-4,0h8M0,-4v8" fill="none" stroke="white" stroke-width="1.5" pointer-events="none"/>
                </g>
                <g id="zoomMin">
                        <use xlink:href="#rim" fill="#404040">
                                <set attributeName="fill" to="#808080" begin="zoomminus.mouseover" end="zoomminus.mouseout"/>
                        </use>
                        <path d="M-4,0h8" fill="none" stroke="white" stroke-width="1.5" pointer-events="none"/>
                </g>
                <g id="dirArrow">
                        <path fill="none" stroke="white" stroke-width="1.5" d="M0,-3.0v7 M-2.5,-0.5L0,-3.0L2.5,-0.5"/>
                </g>
               <g id="resetDef">
                       <use xlink:href="#rim2" fill="#404040">
                               <set attributeName="fill" to="#808080" begin="reset.mouseover" end="reset.mouseout"/>
                       </use>
               </g>
        </defs>

<script type="text/javascript">
var viewWidth = 1140;
var viewHeight = 464;
var sectionId = 'dynsection-0';
</script>
<script xlink:href="svgpan.js"/>
<svg id="graph" class="graph">
<g id="viewport">
<title>include/ccf/historical_queries_interface.h</title>
<polygon fill="white" stroke="transparent" points="-4,4 -4,-460 1136,-460 1136,4 -4,4"/>
<!-- Node1 -->
<g id="node1" class="node">
<title>Node1</title>
<g id="a_node1"><a xlink:title=" ">
<polygon fill="#bfbfbf" stroke="black" points="641,-425.5 641,-455.5 758,-455.5 758,-425.5 641,-425.5"/>
<text text-anchor="start" x="649" y="-443.5" font-family="Helvetica,sans-Serif" font-size="10.00">include/ccf/historical</text>
<text text-anchor="middle" x="699.5" y="-432.5" font-family="Helvetica,sans-Serif" font-size="10.00">_queries_interface.h</text>
</a>
</g>
</g>
<!-- Node2 -->
<g id="node2" class="node">
<title>Node2</title>
<g id="a_node2"><a xlink:href="node__subsystem__interface_8h.html" target="_top" xlink:title=" ">
<polygon fill="white" stroke="black" points="337.5,-358.5 337.5,-388.5 453.5,-388.5 453.5,-358.5 337.5,-358.5"/>
<text text-anchor="start" x="345.5" y="-376.5" font-family="Helvetica,sans-Serif" font-size="10.00">ccf/node_subsystem</text>
<text text-anchor="middle" x="395.5" y="-365.5" font-family="Helvetica,sans-Serif" font-size="10.00">_interface.h</text>
</a>
</g>
</g>
<!-- Node1&#45;&gt;Node2 -->
<g id="edge1" class="edge">
<title>Node1&#45;&gt;Node2</title>
<path fill="none" stroke="midnightblue" d="M640.56,-427C594.85,-417.29 529.63,-403.4 463.38,-389.19"/>
<polygon fill="midnightblue" stroke="midnightblue" points="464.11,-385.76 453.6,-387.09 462.64,-392.61 464.11,-385.76"/>
</g>
<!-- Node3 -->
<g id="node3" class="node">
<title>Node3</title>
<g id="a_node3"><a xlink:href="include_2ccf_2receipt_8h.html" target="_top" xlink:title=" ">
<polygon fill="white" stroke="black" points="472,-364 472,-383 549,-383 549,-364 472,-364"/>
<text text-anchor="middle" x="510.5" y="-371" font-family="Helvetica,sans-Serif" font-size="10.00">ccf/receipt.h</text>
</a>
</g>
</g>
<!-- Node1&#45;&gt;Node3 -->
<g id="edge2" class="edge">
<title>Node1&#45;&gt;Node3</title>
<path fill="none" stroke="midnightblue" d="M658.49,-425.4C624.59,-413.74 577.01,-397.37 545.03,-386.38"/>
<polygon fill="midnightblue" stroke="midnightblue" points="545.83,-382.95 535.24,-383.01 543.55,-389.57 545.83,-382.95"/>
</g>
<!-- Node26 -->
<g id="node26" class="node">
<title>Node26</title>
<g id="a_node26"><a xlink:href="seq__no__collection_8h.html" target="_top" xlink:title=" ">
<polygon fill="white" stroke="black" points="541.5,-302.5 541.5,-321.5 671.5,-321.5 671.5,-302.5 541.5,-302.5"/>
<text text-anchor="middle" x="606.5" y="-309.5" font-family="Helvetica,sans-Serif" font-size="10.00">ccf/seq_no_collection.h</text>
</a>
</g>
</g>
<!-- Node1&#45;&gt;Node26 -->
<g id="edge33" class="edge">
<title>Node1&#45;&gt;Node26</title>
<path fill="none" stroke="midnightblue" d="M689.19,-425.48C672.01,-402.1 637.56,-355.25 619.01,-330.02"/>
<polygon fill="midnightblue" stroke="midnightblue" points="621.7,-327.77 612.96,-321.79 616.06,-331.92 621.7,-327.77"/>
</g>
<!-- Node29 -->
<g id="node29" class="node">
<title>Node29</title>
<g id="a_node29"><a xlink:href="tx__id_8h.html" target="_top" xlink:title=" ">
<polygon fill="white" stroke="black" points="775,-241 775,-260 842,-260 842,-241 775,-241"/>
<text text-anchor="middle" x="808.5" y="-248" font-family="Helvetica,sans-Serif" font-size="10.00">ccf/tx_id.h</text>
</a>
</g>
</g>
<!-- Node1&#45;&gt;Node29 -->
<g id="edge49" class="edge">
<title>Node1&#45;&gt;Node29</title>
<path fill="none" stroke="midnightblue" d="M701.35,-425.43C705.38,-399.11 716.89,-341.54 744.5,-302 754.84,-287.2 770.76,-274.61 784.14,-265.7"/>
<polygon fill="midnightblue" stroke="midnightblue" points="786.33,-268.46 792.9,-260.14 782.58,-262.55 786.33,-268.46"/>
</g>
<!-- Node32 -->
<g id="node32" class="node">
<title>Node32</title>
<g id="a_node32"><a xlink:href="store__ptr_8h.html" target="_top" xlink:title=" ">
<polygon fill="white" stroke="black" points="765.5,-364 765.5,-383 851.5,-383 851.5,-364 765.5,-364"/>
<text text-anchor="middle" x="808.5" y="-371" font-family="Helvetica,sans-Serif" font-size="10.00">ccf/store_ptr.h</text>
</a>
</g>
</g>
<!-- Node1&#45;&gt;Node32 -->
<g id="edge47" class="edge">
<title>Node1&#45;&gt;Node32</title>
<path fill="none" stroke="midnightblue" d="M723.15,-425.4C741.68,-414.34 767.31,-399.06 785.64,-388.13"/>
<polygon fill="midnightblue" stroke="midnightblue" points="787.44,-391.13 794.23,-383.01 783.85,-385.12 787.44,-391.13"/>
</g>
<!-- Node33 -->
<g id="node33" class="node">
<title>Node33</title>
<g id="a_node33"><a xlink:title=" ">
<polygon fill="white" stroke="#bfbfbf" points="753.5,-302.5 753.5,-321.5 811.5,-321.5 811.5,-302.5 753.5,-302.5"/>
<text text-anchor="middle" x="782.5" y="-309.5" font-family="Helvetica,sans-Serif" font-size="10.00">memory</text>
</a>
</g>
</g>
<!-- Node1&#45;&gt;Node33 -->
<g id="edge51" class="edge">
<title>Node1&#45;&gt;Node33</title>
<path fill="none" stroke="midnightblue" d="M708.7,-425.48C723.97,-402.21 754.51,-355.66 771.11,-330.36"/>
<polygon fill="midnightblue" stroke="midnightblue" points="774.17,-332.07 776.73,-321.79 768.32,-328.23 774.17,-332.07"/>
</g>
<!-- Node34 -->
<g id="node34" class="node">
<title>Node34</title>
<g id="a_node34"><a xlink:title=" ">
<polygon fill="white" stroke="#bfbfbf" points="869.5,-364 869.5,-383 919.5,-383 919.5,-364 869.5,-364"/>
<text text-anchor="middle" x="894.5" y="-371" font-family="Helvetica,sans-Serif" font-size="10.00">chrono</text>
</a>
</g>
</g>
<!-- Node1&#45;&gt;Node34 -->
<g id="edge50" class="edge">
<title>Node1&#45;&gt;Node34</title>
<path fill="none" stroke="midnightblue" d="M748.54,-425.5C780.65,-415.99 823.4,-402.69 860.5,-389 862.16,-388.39 863.85,-387.74 865.55,-387.07"/>
<polygon fill="midnightblue" stroke="midnightblue" points="867.29,-390.14 875.22,-383.12 864.63,-383.67 867.29,-390.14"/>
</g>
<!-- Node4 -->
<g id="node4" class="node">
<title>Node4</title>
<g id="a_node4"><a xlink:href="json_8h.html" target="_top" xlink:title=" ">
<polygon fill="white" stroke="black" points="330,-174 330,-193 407,-193 407,-174 330,-174"/>
<text text-anchor="middle" x="368.5" y="-181" font-family="Helvetica,sans-Serif" font-size="10.00">ccf/ds/json.h</text>
</a>
</g>
</g>
<!-- Node3&#45;&gt;Node4 -->
<g id="edge3" class="edge">
<title>Node3&#45;&gt;Node4</title>
<path fill="none" stroke="midnightblue" d="M481.85,-363.99C442.32,-350.5 372.61,-320.04 343.5,-266 332.25,-245.11 344.89,-218.42 355.92,-201.39"/>
<polygon fill="midnightblue" stroke="midnightblue" points="358.9,-203.24 361.71,-193.02 353.14,-199.25 358.9,-203.24"/>
</g>
<!-- Node18 -->
<g id="node18" class="node">
<title>Node18</title>
<g id="a_node18"><a xlink:href="entity__id_8h.html" target="_top" xlink:title=" ">
<polygon fill="white" stroke="black" points="437.5,-302.5 437.5,-321.5 523.5,-321.5 523.5,-302.5 437.5,-302.5"/>
<text text-anchor="middle" x="480.5" y="-309.5" font-family="Helvetica,sans-Serif" font-size="10.00">ccf/entity_id.h</text>
</a>
</g>
</g>
<!-- Node3&#45;&gt;Node18 -->
<g id="edge20" class="edge">
<title>Node3&#45;&gt;Node18</title>
<path fill="none" stroke="midnightblue" d="M506.2,-363.98C501.84,-355.32 494.94,-341.65 489.4,-330.65"/>
<polygon fill="midnightblue" stroke="midnightblue" points="492.42,-328.86 484.79,-321.51 486.17,-332.01 492.42,-328.86"/>
</g>
<!-- Node5 -->
<g id="node5" class="node">
<title>Node5</title>
<g id="a_node5"><a xlink:href="include_2ccf_2crypto_2base64_8h.html" target="_top" xlink:title=" ">
<polygon fill="white" stroke="black" points="280.5,-56.5 280.5,-75.5 392.5,-75.5 392.5,-56.5 280.5,-56.5"/>
<text text-anchor="middle" x="336.5" y="-63.5" font-family="Helvetica,sans-Serif" font-size="10.00">ccf/crypto/base64.h</text>
</a>
</g>
</g>
<!-- Node4&#45;&gt;Node5 -->
<g id="edge4" class="edge">
<title>Node4&#45;&gt;Node5</title>
<path fill="none" stroke="midnightblue" d="M347.7,-173.99C331.01,-165.91 308.74,-152.01 298.5,-132 289.64,-114.68 303.92,-95.54 317.43,-82.54"/>
<polygon fill="midnightblue" stroke="midnightblue" points="320,-84.94 325.11,-75.66 315.33,-79.72 320,-84.94"/>
</g>
<!-- Node8 -->
<g id="node8" class="node">
<title>Node8</title>
<g id="a_node8"><a xlink:href="include_2ccf_2ds_2json__schema_8h.html" target="_top" xlink:title=" ">
<polygon fill="white" stroke="black" points="602,-112.5 602,-131.5 723,-131.5 723,-112.5 602,-112.5"/>
<text text-anchor="middle" x="662.5" y="-119.5" font-family="Helvetica,sans-Serif" font-size="10.00">ccf/ds/json_schema.h</text>
</a>
</g>
</g>
<!-- Node4&#45;&gt;Node8 -->
<g id="edge7" class="edge">
<title>Node4&#45;&gt;Node8</title>
<path fill="none" stroke="midnightblue" d="M407.24,-174.66C459.31,-164.12 552.05,-145.35 610.25,-133.57"/>
<polygon fill="midnightblue" stroke="midnightblue" points="611.24,-136.95 620.35,-131.53 609.85,-130.08 611.24,-136.95"/>
</g>
<!-- Node15 -->
<g id="node15" class="node">
<title>Node15</title>
<g id="a_node15"><a xlink:title=" ">
<polygon fill="white" stroke="#bfbfbf" points="411,-56.5 411,-75.5 490,-75.5 490,-56.5 411,-56.5"/>
<text text-anchor="middle" x="450.5" y="-63.5" font-family="Helvetica,sans-Serif" font-size="10.00">fmt/format.h</text>
</a>
</g>
</g>
<!-- Node4&#45;&gt;Node15 -->
<g id="edge18" class="edge">
<title>Node4&#45;&gt;Node15</title>
<path fill="none" stroke="midnightblue" d="M357.94,-173.87C342.48,-160.19 317.04,-132.92 331.5,-112 340.38,-99.14 375.8,-86.75 405.71,-78.24"/>
<polygon fill="midnightblue" stroke="midnightblue" points="406.89,-81.54 415.6,-75.5 405.03,-74.8 406.89,-81.54"/>
</g>
<!-- Node17 -->
<g id="node17" class="node">
<title>Node17</title>
<g id="a_node17"><a xlink:title=" ">
<polygon fill="white" stroke="#bfbfbf" points="340.5,-112.5 340.5,-131.5 396.5,-131.5 396.5,-112.5 340.5,-112.5"/>
<text text-anchor="middle" x="368.5" y="-119.5" font-family="Helvetica,sans-Serif" font-size="10.00">sstream</text>
</a>
</g>
</g>
<!-- Node4&#45;&gt;Node17 -->
<g id="edge19" class="edge">
<title>Node4&#45;&gt;Node17</title>
<path fill="none" stroke="midnightblue" d="M368.5,-173.98C368.5,-165.58 368.5,-152.48 368.5,-141.66"/>
<polygon fill="midnightblue" stroke="midnightblue" points="372,-141.51 368.5,-131.51 365,-141.51 372,-141.51"/>
</g>
<!-- Node6 -->
<g id="node6" class="node">
<title>Node6</title>
<g id="a_node6"><a xlink:title=" ">
<polygon fill="white" stroke="#bfbfbf" points="996.5,-0.5 996.5,-19.5 1040.5,-19.5 1040.5,-0.5 996.5,-0.5"/>
<text text-anchor="middle" x="1018.5" y="-7.5" font-family="Helvetica,sans-Serif" font-size="10.00">string</text>
</a>
</g>
</g>
<!-- Node5&#45;&gt;Node6 -->
<g id="edge5" class="edge">
<title>Node5&#45;&gt;Node6</title>
<path fill="none" stroke="midnightblue" d="M392.84,-56.93C395.77,-56.6 398.67,-56.28 401.5,-56 657.85,-30.42 728.62,-63.78 986.26,-19.82"/>
<polygon fill="midnightblue" stroke="midnightblue" points="987.03,-23.24 996.29,-18.09 985.84,-16.34 987.03,-23.24"/>
</g>
<!-- Node7 -->
<g id="node7" class="node">
<title>Node7</title>
<g id="a_node7"><a xlink:title=" ">
<polygon fill="white" stroke="#bfbfbf" points="453,-0.5 453,-19.5 500,-19.5 500,-0.5 453,-0.5"/>
<text text-anchor="middle" x="476.5" y="-7.5" font-family="Helvetica,sans-Serif" font-size="10.00">vector</text>
</a>
</g>
</g>
<!-- Node5&#45;&gt;Node7 -->
<g id="edge6" class="edge">
<title>Node5&#45;&gt;Node7</title>
<path fill="none" stroke="midnightblue" d="M358.68,-56.44C381.93,-47.48 418.65,-33.31 444.92,-23.18"/>
<polygon fill="midnightblue" stroke="midnightblue" points="446.35,-26.38 454.42,-19.52 443.83,-19.85 446.35,-26.38"/>
</g>
<!-- Node9 -->
<g id="node9" class="node">
<title>Node9</title>
<g id="a_node9"><a xlink:href="nonstd_8h.html" target="_top" xlink:title=" ">
<polygon fill="white" stroke="black" points="848.5,-56.5 848.5,-75.5 938.5,-75.5 938.5,-56.5 848.5,-56.5"/>
<text text-anchor="middle" x="893.5" y="-63.5" font-family="Helvetica,sans-Serif" font-size="10.00">ccf/ds/nonstd.h</text>
</a>
</g>
</g>
<!-- Node8&#45;&gt;Node9 -->
<g id="edge8" class="edge">
<title>Node8&#45;&gt;Node9</title>
<path fill="none" stroke="midnightblue" d="M699.1,-112.44C739.23,-103.06 803.7,-87.99 847.28,-77.8"/>
<polygon fill="midnightblue" stroke="midnightblue" points="848.13,-81.2 857.07,-75.52 846.53,-74.38 848.13,-81.2"/>
</g>
<!-- Node8&#45;&gt;Node15 -->
<g id="edge16" class="edge">
<title>Node8&#45;&gt;Node15</title>
<path fill="none" stroke="midnightblue" d="M628.91,-112.44C592.31,-103.12 533.66,-88.18 493.67,-78"/>
<polygon fill="midnightblue" stroke="midnightblue" points="494.49,-74.59 483.93,-75.52 492.76,-81.38 494.49,-74.59"/>
</g>
<!-- Node16 -->
<g id="node16" class="node">
<title>Node16</title>
<g id="a_node16"><a xlink:title=" ">
<polygon fill="white" stroke="#bfbfbf" points="648.5,-56.5 648.5,-75.5 758.5,-75.5 758.5,-56.5 648.5,-56.5"/>
<text text-anchor="middle" x="703.5" y="-63.5" font-family="Helvetica,sans-Serif" font-size="10.00">nlohmann/json.hpp</text>
</a>
</g>
</g>
<!-- Node8&#45;&gt;Node16 -->
<g id="edge17" class="edge">
<title>Node8&#45;&gt;Node16</title>
<path fill="none" stroke="midnightblue" d="M669.27,-112.08C675.06,-104.46 683.56,-93.26 690.64,-83.94"/>
<polygon fill="midnightblue" stroke="midnightblue" points="693.6,-85.83 696.86,-75.75 688.02,-81.6 693.6,-85.83"/>
</g>
<!-- Node9&#45;&gt;Node6 -->
<g id="edge12" class="edge">
<title>Node9&#45;&gt;Node6</title>
<path fill="none" stroke="midnightblue" d="M913.31,-56.44C933.79,-47.6 965.98,-33.69 989.36,-23.59"/>
<polygon fill="midnightblue" stroke="midnightblue" points="990.99,-26.7 998.79,-19.52 988.22,-20.27 990.99,-26.7"/>
</g>
<!-- Node9&#45;&gt;Node7 -->
<g id="edge15" class="edge">
<title>Node9&#45;&gt;Node7</title>
<path fill="none" stroke="midnightblue" d="M848.42,-58C843.72,-57.31 839.02,-56.63 834.5,-56 715.73,-39.48 574.41,-22.5 510.67,-14.99"/>
<polygon fill="midnightblue" stroke="midnightblue" points="510.75,-11.48 500.41,-13.78 509.93,-18.43 510.75,-11.48"/>
</g>
<!-- Node10 -->
<g id="node10" class="node">
<title>Node10</title>
<g id="a_node10"><a xlink:title=" ">
<polygon fill="white" stroke="#bfbfbf" points="854.5,-0.5 854.5,-19.5 918.5,-19.5 918.5,-0.5 854.5,-0.5"/>
<text text-anchor="middle" x="886.5" y="-7.5" font-family="Helvetica,sans-Serif" font-size="10.00">algorithm</text>
</a>
</g>
</g>
<!-- Node9&#45;&gt;Node10 -->
<g id="edge9" class="edge">
<title>Node9&#45;&gt;Node10</title>
<path fill="none" stroke="midnightblue" d="M892.34,-56.08C891.42,-48.93 890.08,-38.64 888.92,-29.69"/>
<polygon fill="midnightblue" stroke="midnightblue" points="892.39,-29.22 887.63,-19.75 885.45,-30.12 892.39,-29.22"/>
</g>
<!-- Node11 -->
<g id="node11" class="node">
<title>Node11</title>
<g id="a_node11"><a xlink:title=" ">
<polygon fill="white" stroke="#bfbfbf" points="936.5,-0.5 936.5,-19.5 978.5,-19.5 978.5,-0.5 936.5,-0.5"/>
<text text-anchor="middle" x="957.5" y="-7.5" font-family="Helvetica,sans-Serif" font-size="10.00">array</text>
</a>
</g>
</g>
<!-- Node9&#45;&gt;Node11 -->
<g id="edge10" class="edge">
<title>Node9&#45;&gt;Node11</title>
<path fill="none" stroke="midnightblue" d="M903.78,-56.32C913.34,-48.26 927.78,-36.08 939.28,-26.37"/>
<polygon fill="midnightblue" stroke="midnightblue" points="941.64,-28.96 947.03,-19.83 937.13,-23.61 941.64,-28.96"/>
</g>
<!-- Node12 -->
<g id="node12" class="node">
<title>Node12</title>
<g id="a_node12"><a xlink:title=" ">
<polygon fill="white" stroke="#bfbfbf" points="700,-0.5 700,-19.5 749,-19.5 749,-0.5 700,-0.5"/>
<text text-anchor="middle" x="724.5" y="-7.5" font-family="Helvetica,sans-Serif" font-size="10.00">cctype</text>
</a>
</g>
</g>
<!-- Node9&#45;&gt;Node12 -->
<g id="edge11" class="edge">
<title>Node9&#45;&gt;Node12</title>
<path fill="none" stroke="midnightblue" d="M866.72,-56.44C837.58,-47.13 790.89,-32.21 759.02,-22.03"/>
<polygon fill="midnightblue" stroke="midnightblue" points="759.82,-18.61 749.23,-18.9 757.69,-25.28 759.82,-18.61"/>
</g>
<!-- Node13 -->
<g id="node13" class="node">
<title>Node13</title>
<g id="a_node13"><a xlink:title=" ">
<polygon fill="white" stroke="#bfbfbf" points="1059,-0.5 1059,-19.5 1132,-19.5 1132,-0.5 1059,-0.5"/>
<text text-anchor="middle" x="1095.5" y="-7.5" font-family="Helvetica,sans-Serif" font-size="10.00">string_view</text>
</a>
</g>
</g>
<!-- Node9&#45;&gt;Node13 -->
<g id="edge13" class="edge">
<title>Node9&#45;&gt;Node13</title>
<path fill="none" stroke="midnightblue" d="M925.51,-56.44C960.23,-47.16 1015.79,-32.31 1053.88,-22.13"/>
<polygon fill="midnightblue" stroke="midnightblue" points="1054.89,-25.48 1063.64,-19.52 1053.08,-18.72 1054.89,-25.48"/>
</g>
<!-- Node14 -->
<g id="node14" class="node">
<title>Node14</title>
<g id="a_node14"><a xlink:title=" ">
<polygon fill="white" stroke="#bfbfbf" points="767,-0.5 767,-19.5 836,-19.5 836,-0.5 767,-0.5"/>
<text text-anchor="middle" x="801.5" y="-7.5" font-family="Helvetica,sans-Serif" font-size="10.00">type_traits</text>
</a>
</g>
</g>
<!-- Node9&#45;&gt;Node14 -->
<g id="edge14" class="edge">
<title>Node9&#45;&gt;Node14</title>
<path fill="none" stroke="midnightblue" d="M878.72,-56.32C864.23,-47.82 841.93,-34.73 825.01,-24.8"/>
<polygon fill="midnightblue" stroke="midnightblue" points="826.64,-21.7 816.24,-19.65 823.1,-27.74 826.64,-21.7"/>
</g>
<!-- Node18&#45;&gt;Node4 -->
<g id="edge21" class="edge">
<title>Node18&#45;&gt;Node4</title>
<path fill="none" stroke="midnightblue" d="M480.36,-302.04C479.67,-286.73 476.29,-255.22 460.5,-235 446.59,-217.19 424.56,-204.78 405.54,-196.72"/>
<polygon fill="midnightblue" stroke="midnightblue" points="406.8,-193.46 396.22,-193.01 404.21,-199.96 406.8,-193.46"/>
</g>
<!-- Node18&#45;&gt;Node6 -->
<g id="edge32" class="edge">
<title>Node18&#45;&gt;Node6</title>
<path fill="none" stroke="midnightblue" d="M523.6,-303.34C526.61,-302.87 529.6,-302.41 532.5,-302 650.85,-285.09 1057.5,-304.05 1057.5,-184.5 1057.5,-184.5 1057.5,-184.5 1057.5,-121 1057.5,-91.35 1052.9,-83.76 1042.5,-56 1038.97,-46.57 1033.84,-36.63 1029.22,-28.51"/>
<polygon fill="midnightblue" stroke="midnightblue" points="1032.09,-26.48 1024,-19.64 1026.06,-30.03 1032.09,-26.48"/>
</g>
<!-- Node19 -->
<g id="node19" class="node">
<title>Node19</title>
<g id="a_node19"><a xlink:href="blit__serialiser_8h.html" target="_top" xlink:title=" ">
<polygon fill="white" stroke="black" points="353,-235.5 353,-265.5 452,-265.5 452,-235.5 353,-235.5"/>
<text text-anchor="start" x="361" y="-253.5" font-family="Helvetica,sans-Serif" font-size="10.00">ccf/kv/serialisers</text>
<text text-anchor="middle" x="402.5" y="-242.5" font-family="Helvetica,sans-Serif" font-size="10.00">/blit_serialiser.h</text>
</a>
</g>
</g>
<!-- Node18&#45;&gt;Node19 -->
<g id="edge22" class="edge">
<title>Node18&#45;&gt;Node19</title>
<path fill="none" stroke="midnightblue" d="M469.32,-302.48C458.86,-294.49 442.82,-282.25 429.07,-271.77"/>
<polygon fill="midnightblue" stroke="midnightblue" points="430.96,-268.81 420.88,-265.52 426.71,-274.37 430.96,-268.81"/>
</g>
<!-- Node19&#45;&gt;Node9 -->
<g id="edge23" class="edge">
<title>Node19&#45;&gt;Node9</title>
<path fill="none" stroke="midnightblue" d="M443.46,-235.44C505.88,-213.89 628.42,-171.07 731.5,-132 777.85,-114.43 831.11,-92.78 863.53,-79.43"/>
<polygon fill="midnightblue" stroke="midnightblue" points="864.98,-82.62 872.89,-75.57 862.31,-76.15 864.98,-82.62"/>
</g>
<!-- Node20 -->
<g id="node20" class="node">
<title>Node20</title>
<g id="a_node20"><a xlink:href="serialised__entry_8h.html" target="_top" xlink:title=" ">
<polygon fill="white" stroke="black" points="176,-168.5 176,-198.5 281,-198.5 281,-168.5 176,-168.5"/>
<text text-anchor="start" x="184" y="-186.5" font-family="Helvetica,sans-Serif" font-size="10.00">ccf/kv/serialisers</text>
<text text-anchor="middle" x="228.5" y="-175.5" font-family="Helvetica,sans-Serif" font-size="10.00">/serialised_entry.h</text>
</a>
</g>
</g>
<!-- Node19&#45;&gt;Node20 -->
<g id="edge24" class="edge">
<title>Node19&#45;&gt;Node20</title>
<path fill="none" stroke="midnightblue" d="M364.74,-235.4C338.64,-225.64 303.71,-212.59 275.75,-202.15"/>
<polygon fill="midnightblue" stroke="midnightblue" points="276.77,-198.8 266.18,-198.58 274.32,-205.35 276.77,-198.8"/>
</g>
<!-- Node21 -->
<g id="node21" class="node">
<title>Node21</title>
<g id="a_node21"><a xlink:href="byte__vector_8h.html" target="_top" xlink:title=" ">
<polygon fill="white" stroke="black" points="146.5,-112.5 146.5,-131.5 246.5,-131.5 246.5,-112.5 146.5,-112.5"/>
<text text-anchor="middle" x="196.5" y="-119.5" font-family="Helvetica,sans-Serif" font-size="10.00">ccf/byte_vector.h</text>
</a>
</g>
</g>
<!-- Node20&#45;&gt;Node21 -->
<g id="edge25" class="edge">
<title>Node20&#45;&gt;Node21</title>
<path fill="none" stroke="midnightblue" d="M220.92,-168.4C216.46,-160.11 210.78,-149.55 206.02,-140.71"/>
<polygon fill="midnightblue" stroke="midnightblue" points="208.98,-138.81 201.16,-131.66 202.81,-142.12 208.98,-138.81"/>
</g>
<!-- Node21&#45;&gt;Node15 -->
<g id="edge30" class="edge">
<title>Node21&#45;&gt;Node15</title>
<path fill="none" stroke="midnightblue" d="M236.75,-112.44C281.28,-102.98 353.07,-87.71 401.01,-77.52"/>
<polygon fill="midnightblue" stroke="midnightblue" points="401.81,-80.93 410.86,-75.43 400.35,-74.08 401.81,-80.93"/>
</g>
<!-- Node22 -->
<g id="node22" class="node">
<title>Node22</title>
<g id="a_node22"><a xlink:href="siphash_8h.html" target="_top" xlink:title=" ">
<polygon fill="white" stroke="black" points="167,-56.5 167,-75.5 262,-75.5 262,-56.5 167,-56.5"/>
<text text-anchor="middle" x="214.5" y="-63.5" font-family="Helvetica,sans-Serif" font-size="10.00">ccf/ds/siphash.h</text>
</a>
</g>
</g>
<!-- Node21&#45;&gt;Node22 -->
<g id="edge26" class="edge">
<title>Node21&#45;&gt;Node22</title>
<path fill="none" stroke="midnightblue" d="M199.47,-112.08C201.88,-104.85 205.36,-94.41 208.37,-85.4"/>
<polygon fill="midnightblue" stroke="midnightblue" points="211.74,-86.34 211.58,-75.75 205.1,-84.13 211.74,-86.34"/>
</g>
<!-- Node25 -->
<g id="node25" class="node">
<title>Node25</title>
<g id="a_node25"><a xlink:title=" ">
<polygon fill="white" stroke="#bfbfbf" points="0,-56.5 0,-75.5 149,-75.5 149,-56.5 0,-56.5"/>
<text text-anchor="middle" x="74.5" y="-63.5" font-family="Helvetica,sans-Serif" font-size="10.00">small_vector/SmallVector.h</text>
</a>
</g>
</g>
<!-- Node21&#45;&gt;Node25 -->
<g id="edge31" class="edge">
<title>Node21&#45;&gt;Node25</title>
<path fill="none" stroke="midnightblue" d="M177.17,-112.44C157.18,-103.6 125.76,-89.69 102.94,-79.59"/>
<polygon fill="midnightblue" stroke="midnightblue" points="104.3,-76.36 93.74,-75.52 101.47,-82.76 104.3,-76.36"/>
</g>
<!-- Node22&#45;&gt;Node7 -->
<g id="edge29" class="edge">
<title>Node22&#45;&gt;Node7</title>
<path fill="none" stroke="midnightblue" d="M256.01,-56.44C307.77,-45.78 395.22,-27.75 442.95,-17.91"/>
<polygon fill="midnightblue" stroke="midnightblue" points="443.7,-21.33 452.79,-15.89 442.29,-14.48 443.7,-21.33"/>
</g>
<!-- Node23 -->
<g id="node23" class="node">
<title>Node23</title>
<g id="a_node23"><a xlink:title=" ">
<polygon fill="white" stroke="#bfbfbf" points="188,-0.5 188,-19.5 241,-19.5 241,-0.5 188,-0.5"/>
<text text-anchor="middle" x="214.5" y="-7.5" font-family="Helvetica,sans-Serif" font-size="10.00">cstddef</text>
</a>
</g>
</g>
<!-- Node22&#45;&gt;Node23 -->
<g id="edge27" class="edge">
<title>Node22&#45;&gt;Node23</title>
<path fill="none" stroke="midnightblue" d="M214.5,-56.08C214.5,-49.01 214.5,-38.86 214.5,-29.99"/>
<polygon fill="midnightblue" stroke="midnightblue" points="218,-29.75 214.5,-19.75 211,-29.75 218,-29.75"/>
</g>
<!-- Node24 -->
<g id="node24" class="node">
<title>Node24</title>
<g id="a_node24"><a xlink:title=" ">
<polygon fill="white" stroke="#bfbfbf" points="301.5,-0.5 301.5,-19.5 351.5,-19.5 351.5,-0.5 301.5,-0.5"/>
<text text-anchor="middle" x="326.5" y="-7.5" font-family="Helvetica,sans-Serif" font-size="10.00">cstdint</text>
</a>
</g>
</g>
<!-- Node22&#45;&gt;Node24 -->
<g id="edge28" class="edge">
<title>Node22&#45;&gt;Node24</title>
<path fill="none" stroke="midnightblue" d="M232.49,-56.32C250.54,-47.62 278.55,-34.12 299.3,-24.11"/>
<polygon fill="midnightblue" stroke="midnightblue" points="301.06,-27.15 308.55,-19.65 298.02,-20.84 301.06,-27.15"/>
</g>
<!-- Node27 -->
<g id="node27" class="node">
<title>Node27</title>
<g id="a_node27"><a xlink:href="contiguous__set_8h.html" target="_top" xlink:title=" ">
<polygon fill="white" stroke="black" points="453,-112.5 453,-131.5 584,-131.5 584,-112.5 453,-112.5"/>
<text text-anchor="middle" x="518.5" y="-119.5" font-family="Helvetica,sans-Serif" font-size="10.00">ccf/ds/contiguous_set.h</text>
</a>
</g>
</g>
<!-- Node26&#45;&gt;Node27 -->
<g id="edge34" class="edge">
<title>Node26&#45;&gt;Node27</title>
<path fill="none" stroke="midnightblue" d="M602.49,-302.43C589.03,-273.68 545.29,-180.24 526.84,-140.81"/>
<polygon fill="midnightblue" stroke="midnightblue" points="529.94,-139.19 522.53,-131.62 523.6,-142.16 529.94,-139.19"/>
</g>
<!-- Node26&#45;&gt;Node29 -->
<g id="edge38" class="edge">
<title>Node26&#45;&gt;Node29</title>
<path fill="none" stroke="midnightblue" d="M635.44,-302.48C670.77,-292.07 730.63,-274.44 769.86,-262.88"/>
<polygon fill="midnightblue" stroke="midnightblue" points="771.01,-266.19 779.61,-260.01 769.03,-259.48 771.01,-266.19"/>
</g>
<!-- Node27&#45;&gt;Node7 -->
<g id="edge37" class="edge">
<title>Node27&#45;&gt;Node7</title>
<path fill="none" stroke="midnightblue" d="M516.33,-112.44C513.03,-99.87 506.32,-75.76 498.5,-56 494.86,-46.8 490.11,-36.89 485.96,-28.72"/>
<polygon fill="midnightblue" stroke="midnightblue" points="489.03,-27.03 481.3,-19.78 482.82,-30.27 489.03,-27.03"/>
</g>
<!-- Node27&#45;&gt;Node15 -->
<g id="edge35" class="edge">
<title>Node27&#45;&gt;Node15</title>
<path fill="none" stroke="midnightblue" d="M507.57,-112.32C497.33,-104.18 481.78,-91.84 469.5,-82.09"/>
<polygon fill="midnightblue" stroke="midnightblue" points="471.63,-79.31 461.62,-75.83 467.28,-84.79 471.63,-79.31"/>
</g>
<!-- Node28 -->
<g id="node28" class="node">
<title>Node28</title>
<g id="a_node28"><a xlink:title=" ">
<polygon fill="white" stroke="#bfbfbf" points="546.5,-56.5 546.5,-75.5 602.5,-75.5 602.5,-56.5 546.5,-56.5"/>
<text text-anchor="middle" x="574.5" y="-63.5" font-family="Helvetica,sans-Serif" font-size="10.00">numeric</text>
</a>
</g>
</g>
<!-- Node27&#45;&gt;Node28 -->
<g id="edge36" class="edge">
<title>Node27&#45;&gt;Node28</title>
<path fill="none" stroke="midnightblue" d="M527.5,-112.32C535.69,-104.42 548.01,-92.55 557.97,-82.94"/>
<polygon fill="midnightblue" stroke="midnightblue" points="560.57,-85.29 565.34,-75.83 555.71,-80.26 560.57,-85.29"/>
</g>
<!-- Node29&#45;&gt;Node4 -->
<g id="edge39" class="edge">
<title>Node29&#45;&gt;Node4</title>
<path fill="none" stroke="midnightblue" d="M774.7,-244.51C697.3,-233.07 506.91,-204.95 417.01,-191.67"/>
<polygon fill="midnightblue" stroke="midnightblue" points="417.48,-188.2 407.07,-190.2 416.45,-195.12 417.48,-188.2"/>
</g>
<!-- Node29&#45;&gt;Node6 -->
<g id="edge45" class="edge">
<title>Node29&#45;&gt;Node6</title>
<path fill="none" stroke="midnightblue" d="M842.26,-245.27C891.71,-238.34 980.19,-222.9 1000.5,-199 1041.88,-150.32 1030.7,-66.84 1022.99,-29.73"/>
<polygon fill="midnightblue" stroke="midnightblue" points="1026.37,-28.79 1020.78,-19.79 1019.54,-30.31 1026.37,-28.79"/>
</g>
<!-- Node29&#45;&gt;Node13 -->
<g id="edge46" class="edge">
<title>Node29&#45;&gt;Node13</title>
<path fill="none" stroke="midnightblue" d="M842.32,-245.42C895.82,-238.35 996.64,-222.31 1023.5,-199 1075.17,-154.16 1089.92,-67.97 1094,-29.89"/>
<polygon fill="midnightblue" stroke="midnightblue" points="1097.5,-29.99 1094.95,-19.71 1090.54,-29.34 1097.5,-29.99"/>
</g>
<!-- Node29&#45;&gt;Node15 -->
<g id="edge42" class="edge">
<title>Node29&#45;&gt;Node15</title>
<path fill="none" stroke="midnightblue" d="M775,-243.83C692.54,-229.11 483.58,-187.01 443.5,-132 433.7,-118.55 437.42,-99.18 442.39,-85.09"/>
<polygon fill="midnightblue" stroke="midnightblue" points="445.75,-86.11 446.23,-75.53 439.26,-83.5 445.75,-86.11"/>
</g>
<!-- Node29&#45;&gt;Node16 -->
<g id="edge43" class="edge">
<title>Node29&#45;&gt;Node16</title>
<path fill="none" stroke="midnightblue" d="M803.77,-240.73C791.93,-218.84 759.89,-160.06 731.5,-112 725.99,-102.67 719.63,-92.41 714.36,-84.04"/>
<polygon fill="midnightblue" stroke="midnightblue" points="717.29,-82.13 708.99,-75.55 711.38,-85.88 717.29,-82.13"/>
</g>
<!-- Node29&#45;&gt;Node24 -->
<g id="edge41" class="edge">
<title>Node29&#45;&gt;Node24</title>
<path fill="none" stroke="midnightblue" d="M809.8,-240.86C813.85,-210.21 822.94,-105.8 767.5,-56 759.95,-49.22 465.17,-23.04 361.84,-14.05"/>
<polygon fill="midnightblue" stroke="midnightblue" points="361.88,-10.54 351.61,-13.16 361.27,-17.51 361.88,-10.54"/>
</g>
<!-- Node30 -->
<g id="node30" class="node">
<title>Node30</title>
<g id="a_node30"><a xlink:title=" ">
<polygon fill="white" stroke="#bfbfbf" points="856,-174 856,-193 917,-193 917,-174 856,-174"/>
<text text-anchor="middle" x="886.5" y="-181" font-family="Helvetica,sans-Serif" font-size="10.00">charconv</text>
</a>
</g>
</g>
<!-- Node29&#45;&gt;Node30 -->
<g id="edge40" class="edge">
<title>Node29&#45;&gt;Node30</title>
<path fill="none" stroke="midnightblue" d="M819.02,-240.73C831.65,-230.21 853.04,-212.38 868.36,-199.62"/>
<polygon fill="midnightblue" stroke="midnightblue" points="870.71,-202.22 876.15,-193.13 866.22,-196.84 870.71,-202.22"/>
</g>
<!-- Node31 -->
<g id="node31" class="node">
<title>Node31</title>
<g id="a_node31"><a xlink:title=" ">
<polygon fill="white" stroke="#bfbfbf" points="935.5,-174 935.5,-193 991.5,-193 991.5,-174 935.5,-174"/>
<text text-anchor="middle" x="963.5" y="-181" font-family="Helvetica,sans-Serif" font-size="10.00">optional</text>
</a>
</g>
</g>
<!-- Node29&#45;&gt;Node31 -->
<g id="edge44" class="edge">
<title>Node29&#45;&gt;Node31</title>
<path fill="none" stroke="midnightblue" d="M829.08,-240.87C855.83,-229.65 902.75,-209.98 933.47,-197.09"/>
<polygon fill="midnightblue" stroke="midnightblue" points="934.96,-200.26 942.83,-193.17 932.26,-193.81 934.96,-200.26"/>
</g>
<!-- Node32&#45;&gt;Node33 -->
<g id="edge48" class="edge">
<title>Node32&#45;&gt;Node33</title>
<path fill="none" stroke="midnightblue" d="M804.77,-363.98C801.03,-355.4 795.14,-341.93 790.36,-330.98"/>
<polygon fill="midnightblue" stroke="midnightblue" points="793.43,-329.27 786.22,-321.51 787.02,-332.07 793.43,-329.27"/>
</g>
</g>
</svg>
        <g id="navigator" transform="translate(0 0)" fill="#404254">
                <rect fill="#f2f5e9" fill-opacity="0.5" stroke="#606060" stroke-width=".5" x="0" y="0" width="60" height="60"/>
                <use id="zoomplus" xlink:href="#zoomPlus" x="17" y="9" onmousedown="handleZoom(evt,'in')"/>
                <use id="zoomminus" xlink:href="#zoomMin" x="42" y="9" onmousedown="handleZoom(evt,'out')"/>
                <use id="reset" xlink:href="#resetDef" x="30" y="36" onmousedown="handleReset()"/>
                <g id="arrowUp" xlink:href="#dirArrow" transform="translate(30 24)" onmousedown="handlePan(0,-1)">
                  <use xlink:href="#rim" fill="#404040">
                        <set attributeName="fill" to="#808080" begin="arrowUp.mouseover" end="arrowUp.mouseout"/>
                  </use>
                  <path fill="none" stroke="white" stroke-width="1.5" d="M0,-3.0v7 M-2.5,-0.5L0,-3.0L2.5,-0.5"/>
                </g>
                <g id="arrowRight" xlink:href="#dirArrow" transform="rotate(90) translate(36 -43)" onmousedown="handlePan(1,0)">
                  <use xlink:href="#rim" fill="#404040">
                        <set attributeName="fill" to="#808080" begin="arrowRight.mouseover" end="arrowRight.mouseout"/>
                  </use>
                  <path fill="none" stroke="white" stroke-width="1.5" d="M0,-3.0v7 M-2.5,-0.5L0,-3.0L2.5,-0.5"/>
                </g>
                <g id="arrowDown" xlink:href="#dirArrow" transform="rotate(180) translate(-30 -48)" onmousedown="handlePan(0,1)">
                  <use xlink:href="#rim" fill="#404040">
                        <set attributeName="fill" to="#808080" begin="arrowDown.mouseover" end="arrowDown.mouseout"/>
                  </use>
                  <path fill="none" stroke="white" stroke-width="1.5" d="M0,-3.0v7 M-2.5,-0.5L0,-3.0L2.5,-0.5"/>
                </g>
                <g id="arrowLeft" xlink:href="#dirArrow" transform="rotate(270) translate(-36 17)" onmousedown="handlePan(-1,0)">
                  <use xlink:href="#rim" fill="#404040">
                        <set attributeName="fill" to="#808080" begin="arrowLeft.mouseover" end="arrowLeft.mouseout"/>
                  </use>
                  <path fill="none" stroke="white" stroke-width="1.5" d="M0,-3.0v7 M-2.5,-0.5L0,-3.0L2.5,-0.5"/>
                </g>
        </g>
        <svg viewBox="0 0 15 15" width="100%" height="30px" preserveAspectRatio="xMaxYMin meet">
         <g id="arrow_out" transform="scale(0.3 0.3)">
          <a xlink:href="historical__queries__interface_8h__incl_org.svg" target="_base">
           <rect id="button" ry="5" rx="5" y="6" x="6" height="38" width="38"
                fill="#f2f5e9" fill-opacity="0.5" stroke="#606060" stroke-width="1.0"/>
           <path id="arrow"
             d="M 11.500037,31.436501 C 11.940474,20.09759 22.043105,11.32322 32.158766,21.979434 L 37.068811,17.246167 C 37.068811,17.246167 37.088388,32 37.088388,32 L 22.160133,31.978069 C 22.160133,31.978069 26.997745,27.140456 26.997745,27.140456 C 18.528582,18.264221 13.291696,25.230495 11.500037,31.436501 z"
             style="fill:#404040;"/>
          </a>
         </g>
        </svg>
</svg>
