<?xml version="1.0" encoding="UTF-8" standalone="no"?>
<!DOCTYPE svg PUBLIC "-//W3C//DTD SVG 1.1//EN"
 "http://www.w3.org/Graphics/SVG/1.1/DTD/svg11.dtd">
<!-- Generated by graphviz version 2.43.0 (0)
 -->
<!-- Title: src/apps/js_v8/tmpl/historical_state.h Pages: 1 -->
<!--zoomable 531 -->
<svg id="main" version="1.1" xmlns="http://www.w3.org/2000/svg" xmlns:xlink="http://www.w3.org/1999/xlink" xml:space="preserve" onload="init(evt)">
<style type="text/css"><![CDATA[
.edge:hover path { stroke: red; }
.edge:hover polygon { stroke: red; fill: red; }
]]></style>
<script type="text/javascript"><![CDATA[
var edges = document.getElementsByTagName('g');
if (edges && edges.length) {
  for (var i=0;i<edges.length;i++) {
    if (edges[i].id.substr(0,4)=='edge') {
      edges[i].setAttribute('class','edge');
    }
  }
}
]]></script>
        <defs>
                <circle id="rim" cx="0" cy="0" r="7"/>
                <circle id="rim2" cx="0" cy="0" r="3.5"/>
                <g id="zoomPlus">
                        <use xlink:href="#rim" fill="#404040">
                                <set attributeName="fill" to="#808080" begin="zoomplus.mouseover" end="zoomplus.mouseout"/>
                        </use>
                        <path d="M-4,0h8M0,-4v8" fill="none" stroke="white" stroke-width="1.5" pointer-events="none"/>
                </g>
                <g id="zoomMin">
                        <use xlink:href="#rim" fill="#404040">
                                <set attributeName="fill" to="#808080" begin="zoomminus.mouseover" end="zoomminus.mouseout"/>
                        </use>
                        <path d="M-4,0h8" fill="none" stroke="white" stroke-width="1.5" pointer-events="none"/>
                </g>
                <g id="dirArrow">
                        <path fill="none" stroke="white" stroke-width="1.5" d="M0,-3.0v7 M-2.5,-0.5L0,-3.0L2.5,-0.5"/>
                </g>
               <g id="resetDef">
                       <use xlink:href="#rim2" fill="#404040">
                               <set attributeName="fill" to="#808080" begin="reset.mouseover" end="reset.mouseout"/>
                       </use>
               </g>
        </defs>

<script type="text/javascript">
var viewWidth = 1001;
var viewHeight = 531;
var sectionId = 'dynsection-0';
</script>
<script xlink:href="svgpan.js"/>
<svg id="graph" class="graph">
<g id="viewport">
<title>src/apps/js_v8/tmpl/historical_state.h</title>
<polygon fill="white" stroke="transparent" points="-4,4 -4,-527 997.24,-527 997.24,4 -4,4"/>
<!-- Node1 -->
<g id="node1" class="node">
<title>Node1</title>
<g id="a_node1"><a xlink:title=" ">
<polygon fill="#bfbfbf" stroke="black" points="409.5,-492.5 409.5,-522.5 520.5,-522.5 520.5,-492.5 409.5,-492.5"/>
<text text-anchor="start" x="417.5" y="-510.5" font-family="Helvetica,sans-Serif" font-size="10.00">src/apps/js_v8/tmpl</text>
<text text-anchor="middle" x="465" y="-499.5" font-family="Helvetica,sans-Serif" font-size="10.00">/historical_state.h</text>
</a>
</g>
</g>
<!-- Node2 -->
<g id="node2" class="node">
<title>Node2</title>
<g id="a_node2"><a xlink:href="historical__queries__interface_8h.html" target="_top" xlink:title=" ">
<polygon fill="white" stroke="black" points="357,-425.5 357,-455.5 477,-455.5 477,-425.5 357,-425.5"/>
<text text-anchor="start" x="365" y="-443.5" font-family="Helvetica,sans-Serif" font-size="10.00">ccf/historical_queries</text>
<text text-anchor="middle" x="417" y="-432.5" font-family="Helvetica,sans-Serif" font-size="10.00">_interface.h</text>
</a>
</g>
</g>
<!-- Node1&#45;&gt;Node2 -->
<g id="edge1" class="edge">
<title>Node1&#45;&gt;Node2</title>
<path fill="none" stroke="midnightblue" d="M454.58,-492.4C448.42,-484.05 440.47,-473.29 433.48,-463.81"/>
<polygon fill="midnightblue" stroke="midnightblue" points="436.15,-461.54 427.39,-455.58 430.52,-465.7 436.15,-461.54"/>
</g>
<!-- Node7 -->
<g id="node7" class="node">
<title>Node7</title>
<g id="a_node7"><a xlink:title=" ">
<polygon fill="white" stroke="#bfbfbf" points="54,-0.5 54,-19.5 98,-19.5 98,-0.5 54,-0.5"/>
<text text-anchor="middle" x="76" y="-7.5" font-family="Helvetica,sans-Serif" font-size="10.00">string</text>
</a>
</g>
</g>
<!-- Node1&#45;&gt;Node7 -->
<g id="edge54" class="edge">
<title>Node1&#45;&gt;Node7</title>
<path fill="none" stroke="midnightblue" d="M409.37,-502.48C285.95,-492.03 0,-458.73 0,-374.5 0,-374.5 0,-374.5 0,-121 0,-81.28 33.96,-45.5 56.48,-26.15"/>
<polygon fill="midnightblue" stroke="midnightblue" points="58.98,-28.63 64.46,-19.57 54.52,-23.24 58.98,-28.63"/>
</g>
<!-- Node36 -->
<g id="node36" class="node">
<title>Node36</title>
<g id="a_node36"><a xlink:title=" ">
<polygon fill="white" stroke="#bfbfbf" points="495,-431 495,-450 533,-450 533,-431 495,-431"/>
<text text-anchor="middle" x="514" y="-438" font-family="Helvetica,sans-Serif" font-size="10.00">map</text>
</a>
</g>
</g>
<!-- Node1&#45;&gt;Node36 -->
<g id="edge53" class="edge">
<title>Node1&#45;&gt;Node36</title>
<path fill="none" stroke="midnightblue" d="M475.63,-492.4C483.2,-482.36 493.39,-468.84 501.37,-458.25"/>
<polygon fill="midnightblue" stroke="midnightblue" points="504.22,-460.29 507.45,-450.19 498.63,-456.07 504.22,-460.29"/>
</g>
<!-- Node37 -->
<g id="node37" class="node">
<title>Node37</title>
<g id="a_node37"><a xlink:title=" ">
<polygon fill="white" stroke="#bfbfbf" points="551,-431 551,-450 589,-450 589,-431 551,-431"/>
<text text-anchor="middle" x="570" y="-438" font-family="Helvetica,sans-Serif" font-size="10.00">v8.h</text>
</a>
</g>
</g>
<!-- Node1&#45;&gt;Node37 -->
<g id="edge55" class="edge">
<title>Node1&#45;&gt;Node37</title>
<path fill="none" stroke="midnightblue" d="M487.78,-492.4C505.55,-481.39 530.1,-466.2 547.74,-455.28"/>
<polygon fill="midnightblue" stroke="midnightblue" points="549.6,-458.25 556.26,-450.01 545.91,-452.29 549.6,-458.25"/>
</g>
<!-- Node3 -->
<g id="node3" class="node">
<title>Node3</title>
<g id="a_node3"><a xlink:href="node__subsystem__interface_8h.html" target="_top" xlink:title=" ">
<polygon fill="white" stroke="black" points="636,-358.5 636,-388.5 752,-388.5 752,-358.5 636,-358.5"/>
<text text-anchor="start" x="644" y="-376.5" font-family="Helvetica,sans-Serif" font-size="10.00">ccf/node_subsystem</text>
<text text-anchor="middle" x="694" y="-365.5" font-family="Helvetica,sans-Serif" font-size="10.00">_interface.h</text>
</a>
</g>
</g>
<!-- Node2&#45;&gt;Node3 -->
<g id="edge2" class="edge">
<title>Node2&#45;&gt;Node3</title>
<path fill="none" stroke="midnightblue" d="M476.76,-425.48C520.62,-415.18 580.26,-401.19 625.95,-390.47"/>
<polygon fill="midnightblue" stroke="midnightblue" points="626.83,-393.86 635.77,-388.16 625.23,-387.04 626.83,-393.86"/>
</g>
<!-- Node4 -->
<g id="node4" class="node">
<title>Node4</title>
<g id="a_node4"><a xlink:href="include_2ccf_2receipt_8h.html" target="_top" xlink:title=" ">
<polygon fill="white" stroke="black" points="223.5,-364 223.5,-383 300.5,-383 300.5,-364 223.5,-364"/>
<text text-anchor="middle" x="262" y="-371" font-family="Helvetica,sans-Serif" font-size="10.00">ccf/receipt.h</text>
</a>
</g>
</g>
<!-- Node2&#45;&gt;Node4 -->
<g id="edge3" class="edge">
<title>Node2&#45;&gt;Node4</title>
<path fill="none" stroke="midnightblue" d="M383.37,-425.4C356.05,-413.94 317.89,-397.94 291.69,-386.95"/>
<polygon fill="midnightblue" stroke="midnightblue" points="292.86,-383.65 282.29,-383.01 290.15,-390.1 292.86,-383.65"/>
</g>
<!-- Node27 -->
<g id="node27" class="node">
<title>Node27</title>
<g id="a_node27"><a xlink:href="seq__no__collection_8h.html" target="_top" xlink:title=" ">
<polygon fill="white" stroke="black" points="361,-302.5 361,-321.5 491,-321.5 491,-302.5 361,-302.5"/>
<text text-anchor="middle" x="426" y="-309.5" font-family="Helvetica,sans-Serif" font-size="10.00">ccf/seq_no_collection.h</text>
</a>
</g>
</g>
<!-- Node2&#45;&gt;Node27 -->
<g id="edge34" class="edge">
<title>Node2&#45;&gt;Node27</title>
<path fill="none" stroke="midnightblue" d="M417.75,-425.36C418.64,-409.1 420.23,-381.61 422,-358 422.65,-349.39 423.48,-339.86 424.21,-331.8"/>
<polygon fill="midnightblue" stroke="midnightblue" points="427.72,-331.9 425.16,-321.62 420.75,-331.25 427.72,-331.9"/>
</g>
<!-- Node30 -->
<g id="node30" class="node">
<title>Node30</title>
<g id="a_node30"><a xlink:href="tx__id_8h.html" target="_top" xlink:title=" ">
<polygon fill="white" stroke="black" points="342.5,-241 342.5,-260 409.5,-260 409.5,-241 342.5,-241"/>
<text text-anchor="middle" x="376" y="-248" font-family="Helvetica,sans-Serif" font-size="10.00">ccf/tx_id.h</text>
</a>
</g>
</g>
<!-- Node2&#45;&gt;Node30 -->
<g id="edge50" class="edge">
<title>Node2&#45;&gt;Node30</title>
<path fill="none" stroke="midnightblue" d="M405.99,-425.32C390.36,-404.21 362.49,-362.63 352,-322 347.22,-303.49 355.97,-282.84 364.21,-268.7"/>
<polygon fill="midnightblue" stroke="midnightblue" points="367.29,-270.38 369.67,-260.06 361.37,-266.64 367.29,-270.38"/>
</g>
<!-- Node33 -->
<g id="node33" class="node">
<title>Node33</title>
<g id="a_node33"><a xlink:href="store__ptr_8h.html" target="_top" xlink:title=" ">
<polygon fill="white" stroke="black" points="464,-364 464,-383 550,-383 550,-364 464,-364"/>
<text text-anchor="middle" x="507" y="-371" font-family="Helvetica,sans-Serif" font-size="10.00">ccf/store_ptr.h</text>
</a>
</g>
</g>
<!-- Node2&#45;&gt;Node33 -->
<g id="edge48" class="edge">
<title>Node2&#45;&gt;Node33</title>
<path fill="none" stroke="midnightblue" d="M436.53,-425.4C451.48,-414.6 472.03,-399.76 487.08,-388.89"/>
<polygon fill="midnightblue" stroke="midnightblue" points="489.16,-391.7 495.22,-383.01 485.07,-386.02 489.16,-391.7"/>
</g>
<!-- Node34 -->
<g id="node34" class="node">
<title>Node34</title>
<g id="a_node34"><a xlink:title=" ">
<polygon fill="white" stroke="#bfbfbf" points="509,-302.5 509,-321.5 567,-321.5 567,-302.5 509,-302.5"/>
<text text-anchor="middle" x="538" y="-309.5" font-family="Helvetica,sans-Serif" font-size="10.00">memory</text>
</a>
</g>
</g>
<!-- Node2&#45;&gt;Node34 -->
<g id="edge52" class="edge">
<title>Node2&#45;&gt;Node34</title>
<path fill="none" stroke="midnightblue" d="M420.64,-425.25C425.77,-407.62 436.6,-377.55 455,-358 468.43,-343.73 487.41,-332.98 503.84,-325.57"/>
<polygon fill="midnightblue" stroke="midnightblue" points="505.33,-328.73 513.15,-321.59 502.58,-322.3 505.33,-328.73"/>
</g>
<!-- Node35 -->
<g id="node35" class="node">
<title>Node35</title>
<g id="a_node35"><a xlink:title=" ">
<polygon fill="white" stroke="#bfbfbf" points="568,-364 568,-383 618,-383 618,-364 568,-364"/>
<text text-anchor="middle" x="593" y="-371" font-family="Helvetica,sans-Serif" font-size="10.00">chrono</text>
</a>
</g>
</g>
<!-- Node2&#45;&gt;Node35 -->
<g id="edge51" class="edge">
<title>Node2&#45;&gt;Node35</title>
<path fill="none" stroke="midnightblue" d="M458.57,-425.47C487.01,-415.69 525.49,-402.09 559,-389 560.6,-388.37 562.24,-387.72 563.89,-387.05"/>
<polygon fill="midnightblue" stroke="midnightblue" points="565.42,-390.21 573.31,-383.14 562.73,-383.74 565.42,-390.21"/>
</g>
<!-- Node5 -->
<g id="node5" class="node">
<title>Node5</title>
<g id="a_node5"><a xlink:href="json_8h.html" target="_top" xlink:title=" ">
<polygon fill="white" stroke="black" points="180.5,-174 180.5,-193 257.5,-193 257.5,-174 180.5,-174"/>
<text text-anchor="middle" x="219" y="-181" font-family="Helvetica,sans-Serif" font-size="10.00">ccf/ds/json.h</text>
</a>
</g>
</g>
<!-- Node4&#45;&gt;Node5 -->
<g id="edge4" class="edge">
<title>Node4&#45;&gt;Node5</title>
<path fill="none" stroke="midnightblue" d="M247.89,-363.68C235.28,-354.88 217.65,-340.08 210,-322 193.21,-282.3 204.51,-230.37 212.68,-203.09"/>
<polygon fill="midnightblue" stroke="midnightblue" points="216.09,-203.91 215.8,-193.32 209.43,-201.78 216.09,-203.91"/>
</g>
<!-- Node19 -->
<g id="node19" class="node">
<title>Node19</title>
<g id="a_node19"><a xlink:href="entity__id_8h.html" target="_top" xlink:title=" ">
<polygon fill="white" stroke="black" points="219,-302.5 219,-321.5 305,-321.5 305,-302.5 219,-302.5"/>
<text text-anchor="middle" x="262" y="-309.5" font-family="Helvetica,sans-Serif" font-size="10.00">ccf/entity_id.h</text>
</a>
</g>
</g>
<!-- Node4&#45;&gt;Node19 -->
<g id="edge21" class="edge">
<title>Node4&#45;&gt;Node19</title>
<path fill="none" stroke="midnightblue" d="M262,-363.98C262,-355.58 262,-342.48 262,-331.66"/>
<polygon fill="midnightblue" stroke="midnightblue" points="265.5,-331.51 262,-321.51 258.5,-331.51 265.5,-331.51"/>
</g>
<!-- Node6 -->
<g id="node6" class="node">
<title>Node6</title>
<g id="a_node6"><a xlink:href="include_2ccf_2crypto_2base64_8h.html" target="_top" xlink:title=" ">
<polygon fill="white" stroke="black" points="104,-56.5 104,-75.5 216,-75.5 216,-56.5 104,-56.5"/>
<text text-anchor="middle" x="160" y="-63.5" font-family="Helvetica,sans-Serif" font-size="10.00">ccf/crypto/base64.h</text>
</a>
</g>
</g>
<!-- Node5&#45;&gt;Node6 -->
<g id="edge5" class="edge">
<title>Node5&#45;&gt;Node6</title>
<path fill="none" stroke="midnightblue" d="M217.97,-173.78C216.05,-159.97 211.08,-132.53 200,-112 194.19,-101.24 185.34,-90.91 177.43,-82.87"/>
<polygon fill="midnightblue" stroke="midnightblue" points="179.61,-80.11 170,-75.67 174.74,-85.14 179.61,-80.11"/>
</g>
<!-- Node9 -->
<g id="node9" class="node">
<title>Node9</title>
<g id="a_node9"><a xlink:href="include_2ccf_2ds_2json__schema_8h.html" target="_top" xlink:title=" ">
<polygon fill="white" stroke="black" points="314.5,-112.5 314.5,-131.5 435.5,-131.5 435.5,-112.5 314.5,-112.5"/>
<text text-anchor="middle" x="375" y="-119.5" font-family="Helvetica,sans-Serif" font-size="10.00">ccf/ds/json_schema.h</text>
</a>
</g>
</g>
<!-- Node5&#45;&gt;Node9 -->
<g id="edge8" class="edge">
<title>Node5&#45;&gt;Node9</title>
<path fill="none" stroke="midnightblue" d="M241.35,-173.98C267.99,-163.81 312.71,-146.76 343.01,-135.2"/>
<polygon fill="midnightblue" stroke="midnightblue" points="344.59,-138.34 352.69,-131.51 342.1,-131.8 344.59,-138.34"/>
</g>
<!-- Node16 -->
<g id="node16" class="node">
<title>Node16</title>
<g id="a_node16"><a xlink:title=" ">
<polygon fill="white" stroke="#bfbfbf" points="470.5,-56.5 470.5,-75.5 549.5,-75.5 549.5,-56.5 470.5,-56.5"/>
<text text-anchor="middle" x="510" y="-63.5" font-family="Helvetica,sans-Serif" font-size="10.00">fmt/format.h</text>
</a>
</g>
</g>
<!-- Node5&#45;&gt;Node16 -->
<g id="edge19" class="edge">
<title>Node5&#45;&gt;Node16</title>
<path fill="none" stroke="midnightblue" d="M257.89,-180.26C304.63,-176.16 384.25,-164.59 444,-132 465.95,-120.03 485.59,-98.62 497.62,-83.66"/>
<polygon fill="midnightblue" stroke="midnightblue" points="500.42,-85.76 503.79,-75.71 494.89,-81.46 500.42,-85.76"/>
</g>
<!-- Node18 -->
<g id="node18" class="node">
<title>Node18</title>
<g id="a_node18"><a xlink:title=" ">
<polygon fill="white" stroke="#bfbfbf" points="135,-112.5 135,-131.5 191,-131.5 191,-112.5 135,-112.5"/>
<text text-anchor="middle" x="163" y="-119.5" font-family="Helvetica,sans-Serif" font-size="10.00">sstream</text>
</a>
</g>
</g>
<!-- Node5&#45;&gt;Node18 -->
<g id="edge20" class="edge">
<title>Node5&#45;&gt;Node18</title>
<path fill="none" stroke="midnightblue" d="M210.98,-173.98C202.41,-164.87 188.64,-150.24 178.04,-138.98"/>
<polygon fill="midnightblue" stroke="midnightblue" points="180.41,-136.39 171.01,-131.51 175.31,-141.19 180.41,-136.39"/>
</g>
<!-- Node6&#45;&gt;Node7 -->
<g id="edge6" class="edge">
<title>Node6&#45;&gt;Node7</title>
<path fill="none" stroke="midnightblue" d="M146.5,-56.32C133.4,-47.9 113.29,-34.97 97.89,-25.07"/>
<polygon fill="midnightblue" stroke="midnightblue" points="99.77,-22.12 89.46,-19.65 95.98,-28.01 99.77,-22.12"/>
</g>
<!-- Node8 -->
<g id="node8" class="node">
<title>Node8</title>
<g id="a_node8"><a xlink:title=" ">
<polygon fill="white" stroke="#bfbfbf" points="695.5,-0.5 695.5,-19.5 742.5,-19.5 742.5,-0.5 695.5,-0.5"/>
<text text-anchor="middle" x="719" y="-7.5" font-family="Helvetica,sans-Serif" font-size="10.00">vector</text>
</a>
</g>
</g>
<!-- Node6&#45;&gt;Node8 -->
<g id="edge7" class="edge">
<title>Node6&#45;&gt;Node8</title>
<path fill="none" stroke="midnightblue" d="M216.35,-57.03C219.27,-56.67 222.17,-56.32 225,-56 401.9,-35.78 446.7,-36.4 624,-20 644.27,-18.13 666.97,-15.98 685.1,-14.25"/>
<polygon fill="midnightblue" stroke="midnightblue" points="685.57,-17.72 695.19,-13.29 684.9,-10.75 685.57,-17.72"/>
</g>
<!-- Node10 -->
<g id="node10" class="node">
<title>Node10</title>
<g id="a_node10"><a xlink:href="nonstd_8h.html" target="_top" xlink:title=" ">
<polygon fill="white" stroke="black" points="362,-56.5 362,-75.5 452,-75.5 452,-56.5 362,-56.5"/>
<text text-anchor="middle" x="407" y="-63.5" font-family="Helvetica,sans-Serif" font-size="10.00">ccf/ds/nonstd.h</text>
</a>
</g>
</g>
<!-- Node9&#45;&gt;Node10 -->
<g id="edge9" class="edge">
<title>Node9&#45;&gt;Node10</title>
<path fill="none" stroke="midnightblue" d="M380.28,-112.08C384.71,-104.61 391.16,-93.72 396.62,-84.52"/>
<polygon fill="midnightblue" stroke="midnightblue" points="399.73,-86.14 401.81,-75.75 393.71,-82.57 399.73,-86.14"/>
</g>
<!-- Node9&#45;&gt;Node16 -->
<g id="edge17" class="edge">
<title>Node9&#45;&gt;Node16</title>
<path fill="none" stroke="midnightblue" d="M396.39,-112.44C418.71,-103.52 453.9,-89.44 479.21,-79.32"/>
<polygon fill="midnightblue" stroke="midnightblue" points="480.72,-82.48 488.71,-75.52 478.12,-75.98 480.72,-82.48"/>
</g>
<!-- Node17 -->
<g id="node17" class="node">
<title>Node17</title>
<g id="a_node17"><a xlink:title=" ">
<polygon fill="white" stroke="#bfbfbf" points="234,-56.5 234,-75.5 344,-75.5 344,-56.5 234,-56.5"/>
<text text-anchor="middle" x="289" y="-63.5" font-family="Helvetica,sans-Serif" font-size="10.00">nlohmann/json.hpp</text>
</a>
</g>
</g>
<!-- Node9&#45;&gt;Node17 -->
<g id="edge18" class="edge">
<title>Node9&#45;&gt;Node17</title>
<path fill="none" stroke="midnightblue" d="M361.18,-112.32C347.77,-103.9 327.18,-90.97 311.41,-81.07"/>
<polygon fill="midnightblue" stroke="midnightblue" points="313.11,-78.01 302.78,-75.65 309.39,-83.94 313.11,-78.01"/>
</g>
<!-- Node10&#45;&gt;Node7 -->
<g id="edge13" class="edge">
<title>Node10&#45;&gt;Node7</title>
<path fill="none" stroke="midnightblue" d="M361.92,-57.47C358.9,-56.97 355.91,-56.48 353,-56 264.4,-41.42 159.8,-24.51 108.16,-16.18"/>
<polygon fill="midnightblue" stroke="midnightblue" points="108.7,-12.72 98.27,-14.59 107.58,-19.63 108.7,-12.72"/>
</g>
<!-- Node10&#45;&gt;Node8 -->
<g id="edge16" class="edge">
<title>Node10&#45;&gt;Node8</title>
<path fill="none" stroke="midnightblue" d="M452.03,-57.21C515.13,-46.28 628.45,-26.67 684.98,-16.89"/>
<polygon fill="midnightblue" stroke="midnightblue" points="685.92,-20.28 695.18,-15.12 684.73,-13.38 685.92,-20.28"/>
</g>
<!-- Node11 -->
<g id="node11" class="node">
<title>Node11</title>
<g id="a_node11"><a xlink:title=" ">
<polygon fill="white" stroke="#bfbfbf" points="459,-0.5 459,-19.5 523,-19.5 523,-0.5 459,-0.5"/>
<text text-anchor="middle" x="491" y="-7.5" font-family="Helvetica,sans-Serif" font-size="10.00">algorithm</text>
</a>
</g>
</g>
<!-- Node10&#45;&gt;Node11 -->
<g id="edge10" class="edge">
<title>Node10&#45;&gt;Node11</title>
<path fill="none" stroke="midnightblue" d="M420.5,-56.32C433.6,-47.9 453.71,-34.97 469.11,-25.07"/>
<polygon fill="midnightblue" stroke="midnightblue" points="471.02,-28.01 477.54,-19.65 467.23,-22.12 471.02,-28.01"/>
</g>
<!-- Node12 -->
<g id="node12" class="node">
<title>Node12</title>
<g id="a_node12"><a xlink:title=" ">
<polygon fill="white" stroke="#bfbfbf" points="244,-0.5 244,-19.5 286,-19.5 286,-0.5 244,-0.5"/>
<text text-anchor="middle" x="265" y="-7.5" font-family="Helvetica,sans-Serif" font-size="10.00">array</text>
</a>
</g>
</g>
<!-- Node10&#45;&gt;Node12 -->
<g id="edge11" class="edge">
<title>Node10&#45;&gt;Node12</title>
<path fill="none" stroke="midnightblue" d="M384.5,-56.44C360.51,-47.32 322.36,-32.81 295.64,-22.65"/>
<polygon fill="midnightblue" stroke="midnightblue" points="296.6,-19.27 286.01,-18.99 294.11,-25.81 296.6,-19.27"/>
</g>
<!-- Node13 -->
<g id="node13" class="node">
<title>Node13</title>
<g id="a_node13"><a xlink:title=" ">
<polygon fill="white" stroke="#bfbfbf" points="304.5,-0.5 304.5,-19.5 353.5,-19.5 353.5,-0.5 304.5,-0.5"/>
<text text-anchor="middle" x="329" y="-7.5" font-family="Helvetica,sans-Serif" font-size="10.00">cctype</text>
</a>
</g>
</g>
<!-- Node10&#45;&gt;Node13 -->
<g id="edge12" class="edge">
<title>Node10&#45;&gt;Node13</title>
<path fill="none" stroke="midnightblue" d="M394.47,-56.32C382.41,-47.98 363.97,-35.21 349.73,-25.35"/>
<polygon fill="midnightblue" stroke="midnightblue" points="351.72,-22.47 341.5,-19.65 347.73,-28.22 351.72,-22.47"/>
</g>
<!-- Node14 -->
<g id="node14" class="node">
<title>Node14</title>
<g id="a_node14"><a xlink:title=" ">
<polygon fill="white" stroke="#bfbfbf" points="541.5,-0.5 541.5,-19.5 614.5,-19.5 614.5,-0.5 541.5,-0.5"/>
<text text-anchor="middle" x="578" y="-7.5" font-family="Helvetica,sans-Serif" font-size="10.00">string_view</text>
</a>
</g>
</g>
<!-- Node10&#45;&gt;Node14 -->
<g id="edge14" class="edge">
<title>Node10&#45;&gt;Node14</title>
<path fill="none" stroke="midnightblue" d="M434.1,-56.44C462.99,-47.32 508.92,-32.81 541.11,-22.65"/>
<polygon fill="midnightblue" stroke="midnightblue" points="542.55,-25.87 551.03,-19.52 540.44,-19.19 542.55,-25.87"/>
</g>
<!-- Node15 -->
<g id="node15" class="node">
<title>Node15</title>
<g id="a_node15"><a xlink:title=" ">
<polygon fill="white" stroke="#bfbfbf" points="371.5,-0.5 371.5,-19.5 440.5,-19.5 440.5,-0.5 371.5,-0.5"/>
<text text-anchor="middle" x="406" y="-7.5" font-family="Helvetica,sans-Serif" font-size="10.00">type_traits</text>
</a>
</g>
</g>
<!-- Node10&#45;&gt;Node15 -->
<g id="edge15" class="edge">
<title>Node10&#45;&gt;Node15</title>
<path fill="none" stroke="midnightblue" d="M406.83,-56.08C406.7,-49.01 406.52,-38.86 406.35,-29.99"/>
<polygon fill="midnightblue" stroke="midnightblue" points="409.85,-29.68 406.16,-19.75 402.85,-29.81 409.85,-29.68"/>
</g>
<!-- Node19&#45;&gt;Node5 -->
<g id="edge22" class="edge">
<title>Node19&#45;&gt;Node5</title>
<path fill="none" stroke="midnightblue" d="M259.04,-302.31C252.11,-281.9 234.67,-230.6 225.26,-202.91"/>
<polygon fill="midnightblue" stroke="midnightblue" points="228.51,-201.6 221.98,-193.26 221.88,-203.85 228.51,-201.6"/>
</g>
<!-- Node19&#45;&gt;Node7 -->
<g id="edge33" class="edge">
<title>Node19&#45;&gt;Node7</title>
<path fill="none" stroke="midnightblue" d="M218.81,-306.11C153.72,-296.07 38,-266.68 38,-184.5 38,-184.5 38,-184.5 38,-121 38,-86.81 54.6,-49.76 65.86,-28.57"/>
<polygon fill="midnightblue" stroke="midnightblue" points="68.95,-30.22 70.72,-19.77 62.82,-26.83 68.95,-30.22"/>
</g>
<!-- Node20 -->
<g id="node20" class="node">
<title>Node20</title>
<g id="a_node20"><a xlink:href="blit__serialiser_8h.html" target="_top" xlink:title=" ">
<polygon fill="white" stroke="black" points="543.5,-235.5 543.5,-265.5 642.5,-265.5 642.5,-235.5 543.5,-235.5"/>
<text text-anchor="start" x="551.5" y="-253.5" font-family="Helvetica,sans-Serif" font-size="10.00">ccf/kv/serialisers</text>
<text text-anchor="middle" x="593" y="-242.5" font-family="Helvetica,sans-Serif" font-size="10.00">/blit_serialiser.h</text>
</a>
</g>
</g>
<!-- Node19&#45;&gt;Node20 -->
<g id="edge23" class="edge">
<title>Node19&#45;&gt;Node20</title>
<path fill="none" stroke="midnightblue" d="M305.27,-303.22C363.49,-292.76 467.3,-274.1 533.03,-262.28"/>
<polygon fill="midnightblue" stroke="midnightblue" points="534.01,-265.66 543.23,-260.45 532.77,-258.77 534.01,-265.66"/>
</g>
<!-- Node20&#45;&gt;Node10 -->
<g id="edge24" class="edge">
<title>Node20&#45;&gt;Node10</title>
<path fill="none" stroke="midnightblue" d="M584.86,-235.3C574.7,-218.26 556.19,-189.31 536,-168 502.43,-132.57 455.9,-99.26 428.87,-81.14"/>
<polygon fill="midnightblue" stroke="midnightblue" points="430.77,-78.2 420.5,-75.6 426.91,-84.04 430.77,-78.2"/>
</g>
<!-- Node21 -->
<g id="node21" class="node">
<title>Node21</title>
<g id="a_node21"><a xlink:href="serialised__entry_8h.html" target="_top" xlink:title=" ">
<polygon fill="white" stroke="black" points="621.5,-168.5 621.5,-198.5 726.5,-198.5 726.5,-168.5 621.5,-168.5"/>
<text text-anchor="start" x="629.5" y="-186.5" font-family="Helvetica,sans-Serif" font-size="10.00">ccf/kv/serialisers</text>
<text text-anchor="middle" x="674" y="-175.5" font-family="Helvetica,sans-Serif" font-size="10.00">/serialised_entry.h</text>
</a>
</g>
</g>
<!-- Node20&#45;&gt;Node21 -->
<g id="edge25" class="edge">
<title>Node20&#45;&gt;Node21</title>
<path fill="none" stroke="midnightblue" d="M610.58,-235.4C621.61,-226.54 636.04,-214.96 648.35,-205.09"/>
<polygon fill="midnightblue" stroke="midnightblue" points="650.85,-207.56 656.46,-198.58 646.47,-202.11 650.85,-207.56"/>
</g>
<!-- Node22 -->
<g id="node22" class="node">
<title>Node22</title>
<g id="a_node22"><a xlink:href="byte__vector_8h.html" target="_top" xlink:title=" ">
<polygon fill="white" stroke="black" points="618,-112.5 618,-131.5 718,-131.5 718,-112.5 618,-112.5"/>
<text text-anchor="middle" x="668" y="-119.5" font-family="Helvetica,sans-Serif" font-size="10.00">ccf/byte_vector.h</text>
</a>
</g>
</g>
<!-- Node21&#45;&gt;Node22 -->
<g id="edge26" class="edge">
<title>Node21&#45;&gt;Node22</title>
<path fill="none" stroke="midnightblue" d="M672.58,-168.4C671.78,-160.47 670.77,-150.46 669.9,-141.86"/>
<polygon fill="midnightblue" stroke="midnightblue" points="673.36,-141.26 668.87,-131.66 666.39,-141.96 673.36,-141.26"/>
</g>
<!-- Node22&#45;&gt;Node16 -->
<g id="edge31" class="edge">
<title>Node22&#45;&gt;Node16</title>
<path fill="none" stroke="midnightblue" d="M642.96,-112.44C616.38,-103.36 574.19,-88.94 544.48,-78.78"/>
<polygon fill="midnightblue" stroke="midnightblue" points="545.51,-75.44 534.92,-75.52 543.25,-82.06 545.51,-75.44"/>
</g>
<!-- Node23 -->
<g id="node23" class="node">
<title>Node23</title>
<g id="a_node23"><a xlink:href="siphash_8h.html" target="_top" xlink:title=" ">
<polygon fill="white" stroke="black" points="810.5,-56.5 810.5,-75.5 905.5,-75.5 905.5,-56.5 810.5,-56.5"/>
<text text-anchor="middle" x="858" y="-63.5" font-family="Helvetica,sans-Serif" font-size="10.00">ccf/ds/siphash.h</text>
</a>
</g>
</g>
<!-- Node22&#45;&gt;Node23 -->
<g id="edge27" class="edge">
<title>Node22&#45;&gt;Node23</title>
<path fill="none" stroke="midnightblue" d="M698.11,-112.44C730.63,-103.2 782.58,-88.44 818.39,-78.26"/>
<polygon fill="midnightblue" stroke="midnightblue" points="819.37,-81.62 828.03,-75.52 817.46,-74.88 819.37,-81.62"/>
</g>
<!-- Node26 -->
<g id="node26" class="node">
<title>Node26</title>
<g id="a_node26"><a xlink:title=" ">
<polygon fill="white" stroke="#bfbfbf" points="605.5,-56.5 605.5,-75.5 754.5,-75.5 754.5,-56.5 605.5,-56.5"/>
<text text-anchor="middle" x="680" y="-63.5" font-family="Helvetica,sans-Serif" font-size="10.00">small_vector/SmallVector.h</text>
</a>
</g>
</g>
<!-- Node22&#45;&gt;Node26 -->
<g id="edge32" class="edge">
<title>Node22&#45;&gt;Node26</title>
<path fill="none" stroke="midnightblue" d="M669.98,-112.08C671.57,-104.93 673.86,-94.64 675.85,-85.69"/>
<polygon fill="midnightblue" stroke="midnightblue" points="679.3,-86.27 678.06,-75.75 672.47,-84.75 679.3,-86.27"/>
</g>
<!-- Node23&#45;&gt;Node8 -->
<g id="edge30" class="edge">
<title>Node23&#45;&gt;Node8</title>
<path fill="none" stroke="midnightblue" d="M835.98,-56.44C812.9,-47.48 776.44,-33.31 750.36,-23.18"/>
<polygon fill="midnightblue" stroke="midnightblue" points="751.51,-19.88 740.92,-19.52 748.98,-26.4 751.51,-19.88"/>
</g>
<!-- Node24 -->
<g id="node24" class="node">
<title>Node24</title>
<g id="a_node24"><a xlink:title=" ">
<polygon fill="white" stroke="#bfbfbf" points="831.5,-0.5 831.5,-19.5 884.5,-19.5 884.5,-0.5 831.5,-0.5"/>
<text text-anchor="middle" x="858" y="-7.5" font-family="Helvetica,sans-Serif" font-size="10.00">cstddef</text>
</a>
</g>
</g>
<!-- Node23&#45;&gt;Node24 -->
<g id="edge28" class="edge">
<title>Node23&#45;&gt;Node24</title>
<path fill="none" stroke="midnightblue" d="M858,-56.08C858,-49.01 858,-38.86 858,-29.99"/>
<polygon fill="midnightblue" stroke="midnightblue" points="861.5,-29.75 858,-19.75 854.5,-29.75 861.5,-29.75"/>
</g>
<!-- Node25 -->
<g id="node25" class="node">
<title>Node25</title>
<g id="a_node25"><a xlink:title=" ">
<polygon fill="white" stroke="#bfbfbf" points="943,-0.5 943,-19.5 993,-19.5 993,-0.5 943,-0.5"/>
<text text-anchor="middle" x="968" y="-7.5" font-family="Helvetica,sans-Serif" font-size="10.00">cstdint</text>
</a>
</g>
</g>
<!-- Node23&#45;&gt;Node25 -->
<g id="edge29" class="edge">
<title>Node23&#45;&gt;Node25</title>
<path fill="none" stroke="midnightblue" d="M875.67,-56.32C893.39,-47.62 920.9,-34.12 941.29,-24.11"/>
<polygon fill="midnightblue" stroke="midnightblue" points="942.94,-27.2 950.37,-19.65 939.85,-20.92 942.94,-27.2"/>
</g>
<!-- Node28 -->
<g id="node28" class="node">
<title>Node28</title>
<g id="a_node28"><a xlink:href="contiguous__set_8h.html" target="_top" xlink:title=" ">
<polygon fill="white" stroke="black" points="736.5,-112.5 736.5,-131.5 867.5,-131.5 867.5,-112.5 736.5,-112.5"/>
<text text-anchor="middle" x="802" y="-119.5" font-family="Helvetica,sans-Serif" font-size="10.00">ccf/ds/contiguous_set.h</text>
</a>
</g>
</g>
<!-- Node27&#45;&gt;Node28 -->
<g id="edge35" class="edge">
<title>Node27&#45;&gt;Node28</title>
<path fill="none" stroke="midnightblue" d="M485,-302.49C541.7,-293.74 622.93,-279.51 652,-266 714.39,-237.01 767.27,-171.55 790.03,-140.27"/>
<polygon fill="midnightblue" stroke="midnightblue" points="793.16,-141.91 796.11,-131.74 787.46,-137.85 793.16,-141.91"/>
</g>
<!-- Node27&#45;&gt;Node30 -->
<g id="edge39" class="edge">
<title>Node27&#45;&gt;Node30</title>
<path fill="none" stroke="midnightblue" d="M418.84,-302.48C411.26,-293.46 399.13,-279.02 389.71,-267.81"/>
<polygon fill="midnightblue" stroke="midnightblue" points="392.26,-265.41 383.15,-260.01 386.9,-269.92 392.26,-265.41"/>
</g>
<!-- Node28&#45;&gt;Node8 -->
<g id="edge38" class="edge">
<title>Node28&#45;&gt;Node8</title>
<path fill="none" stroke="midnightblue" d="M797.74,-112.14C791.32,-99.2 778.37,-74.63 764,-56 755.83,-45.42 745.34,-34.79 736.54,-26.52"/>
<polygon fill="midnightblue" stroke="midnightblue" points="738.78,-23.83 729.05,-19.66 734.06,-28.99 738.78,-23.83"/>
</g>
<!-- Node28&#45;&gt;Node16 -->
<g id="edge36" class="edge">
<title>Node28&#45;&gt;Node16</title>
<path fill="none" stroke="midnightblue" d="M755.73,-112.44C702.29,-102.56 614.7,-86.36 559.81,-76.21"/>
<polygon fill="midnightblue" stroke="midnightblue" points="560.42,-72.77 549.95,-74.39 559.15,-79.65 560.42,-72.77"/>
</g>
<!-- Node29 -->
<g id="node29" class="node">
<title>Node29</title>
<g id="a_node29"><a xlink:title=" ">
<polygon fill="white" stroke="#bfbfbf" points="924,-56.5 924,-75.5 980,-75.5 980,-56.5 924,-56.5"/>
<text text-anchor="middle" x="952" y="-63.5" font-family="Helvetica,sans-Serif" font-size="10.00">numeric</text>
</a>
</g>
</g>
<!-- Node28&#45;&gt;Node29 -->
<g id="edge37" class="edge">
<title>Node28&#45;&gt;Node29</title>
<path fill="none" stroke="midnightblue" d="M825.77,-112.44C850.89,-103.4 890.71,-89.06 918.9,-78.92"/>
<polygon fill="midnightblue" stroke="midnightblue" points="920.12,-82.2 928.34,-75.52 917.75,-75.61 920.12,-82.2"/>
</g>
<!-- Node30&#45;&gt;Node5 -->
<g id="edge40" class="edge">
<title>Node30&#45;&gt;Node5</title>
<path fill="none" stroke="midnightblue" d="M355.15,-240.87C328.06,-229.65 280.54,-209.98 249.42,-197.09"/>
<polygon fill="midnightblue" stroke="midnightblue" points="250.51,-193.76 239.93,-193.17 247.84,-200.23 250.51,-193.76"/>
</g>
<!-- Node30&#45;&gt;Node7 -->
<g id="edge46" class="edge">
<title>Node30&#45;&gt;Node7</title>
<path fill="none" stroke="midnightblue" d="M342.46,-248.53C299.18,-245.75 223.26,-235.56 171,-199 111.82,-157.6 87.41,-68.18 79.34,-29.48"/>
<polygon fill="midnightblue" stroke="midnightblue" points="82.77,-28.74 77.42,-19.59 75.9,-30.08 82.77,-28.74"/>
</g>
<!-- Node30&#45;&gt;Node14 -->
<g id="edge47" class="edge">
<title>Node30&#45;&gt;Node14</title>
<path fill="none" stroke="midnightblue" d="M409.63,-248.35C446.09,-245.22 503.41,-234.52 536,-199 580.06,-150.99 581.38,-67.15 579.5,-29.84"/>
<polygon fill="midnightblue" stroke="midnightblue" points="582.99,-29.6 578.85,-19.85 576,-30.05 582.99,-29.6"/>
</g>
<!-- Node30&#45;&gt;Node16 -->
<g id="edge43" class="edge">
<title>Node30&#45;&gt;Node16</title>
<path fill="none" stroke="midnightblue" d="M373.92,-240.89C370.58,-224.83 365.91,-189.98 382,-168 407.45,-133.24 439.36,-160.12 472,-132 486.66,-119.37 497.08,-99.6 503.25,-85.18"/>
<polygon fill="midnightblue" stroke="midnightblue" points="506.54,-86.39 507,-75.81 500.04,-83.79 506.54,-86.39"/>
</g>
<!-- Node30&#45;&gt;Node17 -->
<g id="edge44" class="edge">
<title>Node30&#45;&gt;Node17</title>
<path fill="none" stroke="midnightblue" d="M369.5,-240.85C355.65,-222.05 323.05,-175.6 305,-132 298.81,-117.05 294.62,-99.14 292.09,-85.91"/>
<polygon fill="midnightblue" stroke="midnightblue" points="295.47,-84.91 290.28,-75.67 288.57,-86.13 295.47,-84.91"/>
</g>
<!-- Node30&#45;&gt;Node25 -->
<g id="edge42" class="edge">
<title>Node30&#45;&gt;Node25</title>
<path fill="none" stroke="midnightblue" d="M409.72,-246.09C487.03,-238.07 675.1,-217.27 736,-199 855.76,-163.07 923.27,-182.36 989,-76 998.22,-61.08 989.78,-41.71 981.01,-28.01"/>
<polygon fill="midnightblue" stroke="midnightblue" points="983.69,-25.74 975.09,-19.55 977.96,-29.75 983.69,-25.74"/>
</g>
<!-- Node31 -->
<g id="node31" class="node">
<title>Node31</title>
<g id="a_node31"><a xlink:title=" ">
<polygon fill="white" stroke="#bfbfbf" points="391.5,-174 391.5,-193 452.5,-193 452.5,-174 391.5,-174"/>
<text text-anchor="middle" x="422" y="-181" font-family="Helvetica,sans-Serif" font-size="10.00">charconv</text>
</a>
</g>
</g>
<!-- Node30&#45;&gt;Node31 -->
<g id="edge41" class="edge">
<title>Node30&#45;&gt;Node31</title>
<path fill="none" stroke="midnightblue" d="M382.2,-240.73C389.31,-230.7 401.11,-214.01 410.02,-201.42"/>
<polygon fill="midnightblue" stroke="midnightblue" points="412.97,-203.31 415.89,-193.13 407.26,-199.27 412.97,-203.31"/>
</g>
<!-- Node32 -->
<g id="node32" class="node">
<title>Node32</title>
<g id="a_node32"><a xlink:title=" ">
<polygon fill="white" stroke="#bfbfbf" points="471,-174 471,-193 527,-193 527,-174 471,-174"/>
<text text-anchor="middle" x="499" y="-181" font-family="Helvetica,sans-Serif" font-size="10.00">optional</text>
</a>
</g>
</g>
<!-- Node30&#45;&gt;Node32 -->
<g id="edge45" class="edge">
<title>Node30&#45;&gt;Node32</title>
<path fill="none" stroke="midnightblue" d="M392.33,-240.87C413.1,-229.89 449.19,-210.82 473.57,-197.94"/>
<polygon fill="midnightblue" stroke="midnightblue" points="475.39,-200.93 482.6,-193.17 472.12,-194.75 475.39,-200.93"/>
</g>
<!-- Node33&#45;&gt;Node34 -->
<g id="edge49" class="edge">
<title>Node33&#45;&gt;Node34</title>
<path fill="none" stroke="midnightblue" d="M511.44,-363.98C515.95,-355.32 523.07,-341.65 528.81,-330.65"/>
<polygon fill="midnightblue" stroke="midnightblue" points="532.05,-331.99 533.57,-321.51 525.84,-328.76 532.05,-331.99"/>
</g>
</g>
</svg>
        <g id="navigator" transform="translate(0 0)" fill="#404254">
                <rect fill="#f2f5e9" fill-opacity="0.5" stroke="#606060" stroke-width=".5" x="0" y="0" width="60" height="60"/>
                <use id="zoomplus" xlink:href="#zoomPlus" x="17" y="9" onmousedown="handleZoom(evt,'in')"/>
                <use id="zoomminus" xlink:href="#zoomMin" x="42" y="9" onmousedown="handleZoom(evt,'out')"/>
                <use id="reset" xlink:href="#resetDef" x="30" y="36" onmousedown="handleReset()"/>
                <g id="arrowUp" xlink:href="#dirArrow" transform="translate(30 24)" onmousedown="handlePan(0,-1)">
                  <use xlink:href="#rim" fill="#404040">
                        <set attributeName="fill" to="#808080" begin="arrowUp.mouseover" end="arrowUp.mouseout"/>
                  </use>
                  <path fill="none" stroke="white" stroke-width="1.5" d="M0,-3.0v7 M-2.5,-0.5L0,-3.0L2.5,-0.5"/>
                </g>
                <g id="arrowRight" xlink:href="#dirArrow" transform="rotate(90) translate(36 -43)" onmousedown="handlePan(1,0)">
                  <use xlink:href="#rim" fill="#404040">
                        <set attributeName="fill" to="#808080" begin="arrowRight.mouseover" end="arrowRight.mouseout"/>
                  </use>
                  <path fill="none" stroke="white" stroke-width="1.5" d="M0,-3.0v7 M-2.5,-0.5L0,-3.0L2.5,-0.5"/>
                </g>
                <g id="arrowDown" xlink:href="#dirArrow" transform="rotate(180) translate(-30 -48)" onmousedown="handlePan(0,1)">
                  <use xlink:href="#rim" fill="#404040">
                        <set attributeName="fill" to="#808080" begin="arrowDown.mouseover" end="arrowDown.mouseout"/>
                  </use>
                  <path fill="none" stroke="white" stroke-width="1.5" d="M0,-3.0v7 M-2.5,-0.5L0,-3.0L2.5,-0.5"/>
                </g>
                <g id="arrowLeft" xlink:href="#dirArrow" transform="rotate(270) translate(-36 17)" onmousedown="handlePan(-1,0)">
                  <use xlink:href="#rim" fill="#404040">
                        <set attributeName="fill" to="#808080" begin="arrowLeft.mouseover" end="arrowLeft.mouseout"/>
                  </use>
                  <path fill="none" stroke="white" stroke-width="1.5" d="M0,-3.0v7 M-2.5,-0.5L0,-3.0L2.5,-0.5"/>
                </g>
        </g>
        <svg viewBox="0 0 15 15" width="100%" height="30px" preserveAspectRatio="xMaxYMin meet">
         <g id="arrow_out" transform="scale(0.3 0.3)">
          <a xlink:href="historical__state_8h__incl_org.svg" target="_base">
           <rect id="button" ry="5" rx="5" y="6" x="6" height="38" width="38"
                fill="#f2f5e9" fill-opacity="0.5" stroke="#606060" stroke-width="1.0"/>
           <path id="arrow"
             d="M 11.500037,31.436501 C 11.940474,20.09759 22.043105,11.32322 32.158766,21.979434 L 37.068811,17.246167 C 37.068811,17.246167 37.088388,32 37.088388,32 L 22.160133,31.978069 C 22.160133,31.978069 26.997745,27.140456 26.997745,27.140456 C 18.528582,18.264221 13.291696,25.230495 11.500037,31.436501 z"
             style="fill:#404040;"/>
          </a>
         </g>
        </svg>
</svg>
