<?xml version="1.0" encoding="UTF-8" standalone="no"?>
<!DOCTYPE svg PUBLIC "-//W3C//DTD SVG 1.1//EN"
 "http://www.w3.org/Graphics/SVG/1.1/DTD/svg11.dtd">
<!-- Generated by graphviz version 2.43.0 (0)
 -->
<!-- Title: src/crypto/hmac.cpp Pages: 1 -->
<svg width="1853pt" height="420pt"
 viewBox="0.00 0.00 1853.00 420.00" xmlns="http://www.w3.org/2000/svg" xmlns:xlink="http://www.w3.org/1999/xlink">
<g id="graph0" class="graph" transform="scale(1 1) rotate(0) translate(4 416)">
<title>src/crypto/hmac.cpp</title>
<polygon fill="white" stroke="transparent" points="-4,4 -4,-416 1849,-416 1849,4 -4,4"/>
<!-- Node1 -->
<g id="node1" class="node">
<title>Node1</title>
<g id="a_node1"><a xlink:title=" ">
<polygon fill="#bfbfbf" stroke="black" points="1132.5,-392.5 1132.5,-411.5 1247.5,-411.5 1247.5,-392.5 1132.5,-392.5"/>
<text text-anchor="middle" x="1190" y="-399.5" font-family="Helvetica,sans-Serif" font-size="10.00">src/crypto/hmac.cpp</text>
</a>
</g>
</g>
<!-- Node2 -->
<g id="node2" class="node">
<title>Node2</title>
<g id="a_node2"><a xlink:href="hmac_8h.html" target="_top" xlink:title=" ">
<polygon fill="white" stroke="black" points="236.5,-280.5 236.5,-299.5 289.5,-299.5 289.5,-280.5 236.5,-280.5"/>
<text text-anchor="middle" x="263" y="-287.5" font-family="Helvetica,sans-Serif" font-size="10.00">hmac.h</text>
</a>
</g>
</g>
<!-- Node1&#45;&gt;Node2 -->
<g id="edge1" class="edge">
<title>Node1&#45;&gt;Node2</title>
<path fill="none" stroke="midnightblue" d="M1132.36,-394.16C958.51,-373.53 442.54,-312.3 299.9,-295.38"/>
<polygon fill="midnightblue" stroke="midnightblue" points="300.25,-291.9 289.9,-294.19 299.42,-298.85 300.25,-291.9"/>
</g>
<!-- Node19 -->
<g id="node19" class="node">
<title>Node19</title>
<g id="a_node19"><a xlink:href="crypto_2openssl_2hash_8h.html" target="_top" xlink:title=" ">
<polygon fill="white" stroke="black" points="1128.5,-336.5 1128.5,-355.5 1251.5,-355.5 1251.5,-336.5 1128.5,-336.5"/>
<text text-anchor="middle" x="1190" y="-343.5" font-family="Helvetica,sans-Serif" font-size="10.00">crypto/openssl/hash.h</text>
</a>
</g>
</g>
<!-- Node1&#45;&gt;Node19 -->
<g id="edge22" class="edge">
<title>Node1&#45;&gt;Node19</title>
<path fill="none" stroke="midnightblue" d="M1190,-392.08C1190,-385.01 1190,-374.86 1190,-365.99"/>
<polygon fill="midnightblue" stroke="midnightblue" points="1193.5,-365.75 1190,-355.75 1186.5,-365.75 1193.5,-365.75"/>
</g>
<!-- Node41 -->
<g id="node41" class="node">
<title>Node41</title>
<g id="a_node41"><a xlink:title=" ">
<polygon fill="white" stroke="#bfbfbf" points="1269.5,-336.5 1269.5,-355.5 1362.5,-355.5 1362.5,-336.5 1269.5,-336.5"/>
<text text-anchor="middle" x="1316" y="-343.5" font-family="Helvetica,sans-Serif" font-size="10.00">openssl/hmac.h</text>
</a>
</g>
</g>
<!-- Node1&#45;&gt;Node41 -->
<g id="edge59" class="edge">
<title>Node1&#45;&gt;Node41</title>
<path fill="none" stroke="midnightblue" d="M1209.97,-392.44C1230.61,-383.6 1263.06,-369.69 1286.63,-359.59"/>
<polygon fill="midnightblue" stroke="midnightblue" points="1288.32,-362.67 1296.13,-355.52 1285.56,-356.24 1288.32,-362.67"/>
</g>
<!-- Node3 -->
<g id="node3" class="node">
<title>Node3</title>
<g id="a_node3"><a xlink:href="hash__bytes_8h.html" target="_top" xlink:title=" ">
<polygon fill="white" stroke="black" points="0,-224.5 0,-243.5 132,-243.5 132,-224.5 0,-224.5"/>
<text text-anchor="middle" x="66" y="-231.5" font-family="Helvetica,sans-Serif" font-size="10.00">ccf/crypto/hash_bytes.h</text>
</a>
</g>
</g>
<!-- Node2&#45;&gt;Node3 -->
<g id="edge2" class="edge">
<title>Node2&#45;&gt;Node3</title>
<path fill="none" stroke="midnightblue" d="M236.43,-281.72C203.27,-272.63 146.18,-256.98 107.3,-246.32"/>
<polygon fill="midnightblue" stroke="midnightblue" points="107.91,-242.86 97.34,-243.59 106.06,-249.61 107.91,-242.86"/>
</g>
<!-- Node5 -->
<g id="node5" class="node">
<title>Node5</title>
<g id="a_node5"><a xlink:href="md__type_8h.html" target="_top" xlink:title=" ">
<polygon fill="white" stroke="black" points="203.5,-224.5 203.5,-243.5 322.5,-243.5 322.5,-224.5 203.5,-224.5"/>
<text text-anchor="middle" x="263" y="-231.5" font-family="Helvetica,sans-Serif" font-size="10.00">ccf/crypto/md_type.h</text>
</a>
</g>
</g>
<!-- Node2&#45;&gt;Node5 -->
<g id="edge4" class="edge">
<title>Node2&#45;&gt;Node5</title>
<path fill="none" stroke="midnightblue" d="M263,-280.08C263,-273.01 263,-262.86 263,-253.99"/>
<polygon fill="midnightblue" stroke="midnightblue" points="266.5,-253.75 263,-243.75 259.5,-253.75 266.5,-253.75"/>
</g>
<!-- Node4 -->
<g id="node4" class="node">
<title>Node4</title>
<g id="a_node4"><a xlink:title=" ">
<polygon fill="white" stroke="#bfbfbf" points="446.5,-0.5 446.5,-19.5 493.5,-19.5 493.5,-0.5 446.5,-0.5"/>
<text text-anchor="middle" x="470" y="-7.5" font-family="Helvetica,sans-Serif" font-size="10.00">vector</text>
</a>
</g>
</g>
<!-- Node3&#45;&gt;Node4 -->
<g id="edge3" class="edge">
<title>Node3&#45;&gt;Node4</title>
<path fill="none" stroke="midnightblue" d="M85.64,-224.39C131.26,-204.41 247.97,-153.46 346,-112 384.54,-95.7 401.62,-103.68 433,-76 447.42,-63.28 457.54,-43.53 463.5,-29.14"/>
<polygon fill="midnightblue" stroke="midnightblue" points="466.78,-30.37 467.12,-19.78 460.25,-27.85 466.78,-30.37"/>
</g>
<!-- Node6 -->
<g id="node6" class="node">
<title>Node6</title>
<g id="a_node6"><a xlink:href="json_8h.html" target="_top" xlink:title=" ">
<polygon fill="white" stroke="black" points="377.5,-168.5 377.5,-187.5 454.5,-187.5 454.5,-168.5 377.5,-168.5"/>
<text text-anchor="middle" x="416" y="-175.5" font-family="Helvetica,sans-Serif" font-size="10.00">ccf/ds/json.h</text>
</a>
</g>
</g>
<!-- Node5&#45;&gt;Node6 -->
<g id="edge5" class="edge">
<title>Node5&#45;&gt;Node6</title>
<path fill="none" stroke="midnightblue" d="M287.24,-224.44C312.87,-215.4 353.49,-201.06 382.24,-190.92"/>
<polygon fill="midnightblue" stroke="midnightblue" points="383.61,-194.15 391.87,-187.52 381.28,-187.54 383.61,-194.15"/>
</g>
<!-- Node7 -->
<g id="node7" class="node">
<title>Node7</title>
<g id="a_node7"><a xlink:href="include_2ccf_2crypto_2base64_8h.html" target="_top" xlink:title=" ">
<polygon fill="white" stroke="black" points="312,-56.5 312,-75.5 424,-75.5 424,-56.5 312,-56.5"/>
<text text-anchor="middle" x="368" y="-63.5" font-family="Helvetica,sans-Serif" font-size="10.00">ccf/crypto/base64.h</text>
</a>
</g>
</g>
<!-- Node6&#45;&gt;Node7 -->
<g id="edge6" class="edge">
<title>Node6&#45;&gt;Node7</title>
<path fill="none" stroke="midnightblue" d="M391.53,-168.44C375.43,-161.38 355.62,-149.63 346,-132 337.65,-116.71 346.02,-97.67 354.73,-84.16"/>
<polygon fill="midnightblue" stroke="midnightblue" points="357.72,-86 360.62,-75.81 352,-81.97 357.72,-86"/>
</g>
<!-- Node9 -->
<g id="node9" class="node">
<title>Node9</title>
<g id="a_node9"><a xlink:href="include_2ccf_2ds_2json__schema_8h.html" target="_top" xlink:title=" ">
<polygon fill="white" stroke="black" points="355.5,-112.5 355.5,-131.5 476.5,-131.5 476.5,-112.5 355.5,-112.5"/>
<text text-anchor="middle" x="416" y="-119.5" font-family="Helvetica,sans-Serif" font-size="10.00">ccf/ds/json_schema.h</text>
</a>
</g>
</g>
<!-- Node6&#45;&gt;Node9 -->
<g id="edge9" class="edge">
<title>Node6&#45;&gt;Node9</title>
<path fill="none" stroke="midnightblue" d="M416,-168.08C416,-161.01 416,-150.86 416,-141.99"/>
<polygon fill="midnightblue" stroke="midnightblue" points="419.5,-141.75 416,-131.75 412.5,-141.75 419.5,-141.75"/>
</g>
<!-- Node16 -->
<g id="node16" class="node">
<title>Node16</title>
<g id="a_node16"><a xlink:title=" ">
<polygon fill="white" stroke="#bfbfbf" points="608.5,-56.5 608.5,-75.5 687.5,-75.5 687.5,-56.5 608.5,-56.5"/>
<text text-anchor="middle" x="648" y="-63.5" font-family="Helvetica,sans-Serif" font-size="10.00">fmt/format.h</text>
</a>
</g>
</g>
<!-- Node6&#45;&gt;Node16 -->
<g id="edge20" class="edge">
<title>Node6&#45;&gt;Node16</title>
<path fill="none" stroke="midnightblue" d="M454.64,-168.65C484.43,-161.34 526.13,-149.18 560,-132 586.54,-118.53 613.56,-97.2 630.53,-82.68"/>
<polygon fill="midnightblue" stroke="midnightblue" points="633.2,-84.99 638.43,-75.78 628.59,-79.72 633.2,-84.99"/>
</g>
<!-- Node18 -->
<g id="node18" class="node">
<title>Node18</title>
<g id="a_node18"><a xlink:title=" ">
<polygon fill="white" stroke="#bfbfbf" points="495,-112.5 495,-131.5 551,-131.5 551,-112.5 495,-112.5"/>
<text text-anchor="middle" x="523" y="-119.5" font-family="Helvetica,sans-Serif" font-size="10.00">sstream</text>
</a>
</g>
</g>
<!-- Node6&#45;&gt;Node18 -->
<g id="edge21" class="edge">
<title>Node6&#45;&gt;Node18</title>
<path fill="none" stroke="midnightblue" d="M433.19,-168.32C450.35,-159.66 476.95,-146.24 496.75,-136.25"/>
<polygon fill="midnightblue" stroke="midnightblue" points="498.5,-139.28 505.85,-131.65 495.35,-133.04 498.5,-139.28"/>
</g>
<!-- Node7&#45;&gt;Node4 -->
<g id="edge8" class="edge">
<title>Node7&#45;&gt;Node4</title>
<path fill="none" stroke="midnightblue" d="M384.39,-56.32C400.67,-47.7 425.87,-34.36 444.72,-24.39"/>
<polygon fill="midnightblue" stroke="midnightblue" points="446.45,-27.43 453.65,-19.65 443.18,-21.24 446.45,-27.43"/>
</g>
<!-- Node8 -->
<g id="node8" class="node">
<title>Node8</title>
<g id="a_node8"><a xlink:title=" ">
<polygon fill="white" stroke="#bfbfbf" points="384,-0.5 384,-19.5 428,-19.5 428,-0.5 384,-0.5"/>
<text text-anchor="middle" x="406" y="-7.5" font-family="Helvetica,sans-Serif" font-size="10.00">string</text>
</a>
</g>
</g>
<!-- Node7&#45;&gt;Node8 -->
<g id="edge7" class="edge">
<title>Node7&#45;&gt;Node8</title>
<path fill="none" stroke="midnightblue" d="M374.27,-56.08C379.64,-48.46 387.52,-37.26 394.08,-27.94"/>
<polygon fill="midnightblue" stroke="midnightblue" points="396.95,-29.94 399.84,-19.75 391.22,-25.91 396.95,-29.94"/>
</g>
<!-- Node10 -->
<g id="node10" class="node">
<title>Node10</title>
<g id="a_node10"><a xlink:href="nonstd_8h.html" target="_top" xlink:title=" ">
<polygon fill="white" stroke="black" points="204,-56.5 204,-75.5 294,-75.5 294,-56.5 204,-56.5"/>
<text text-anchor="middle" x="249" y="-63.5" font-family="Helvetica,sans-Serif" font-size="10.00">ccf/ds/nonstd.h</text>
</a>
</g>
</g>
<!-- Node9&#45;&gt;Node10 -->
<g id="edge10" class="edge">
<title>Node9&#45;&gt;Node10</title>
<path fill="none" stroke="midnightblue" d="M389.54,-112.44C361.32,-103.32 316.46,-88.81 285.03,-78.65"/>
<polygon fill="midnightblue" stroke="midnightblue" points="285.93,-75.26 275.34,-75.52 283.78,-81.92 285.93,-75.26"/>
</g>
<!-- Node9&#45;&gt;Node16 -->
<g id="edge18" class="edge">
<title>Node9&#45;&gt;Node16</title>
<path fill="none" stroke="midnightblue" d="M452.76,-112.44C493.06,-103.06 557.81,-87.99 601.58,-77.8"/>
<polygon fill="midnightblue" stroke="midnightblue" points="602.46,-81.19 611.41,-75.52 600.88,-74.37 602.46,-81.19"/>
</g>
<!-- Node17 -->
<g id="node17" class="node">
<title>Node17</title>
<g id="a_node17"><a xlink:title=" ">
<polygon fill="white" stroke="#bfbfbf" points="480,-56.5 480,-75.5 590,-75.5 590,-56.5 480,-56.5"/>
<text text-anchor="middle" x="535" y="-63.5" font-family="Helvetica,sans-Serif" font-size="10.00">nlohmann/json.hpp</text>
</a>
</g>
</g>
<!-- Node9&#45;&gt;Node17 -->
<g id="edge19" class="edge">
<title>Node9&#45;&gt;Node17</title>
<path fill="none" stroke="midnightblue" d="M434.86,-112.44C454.27,-103.64 484.73,-89.81 506.96,-79.72"/>
<polygon fill="midnightblue" stroke="midnightblue" points="508.57,-82.84 516.23,-75.52 505.68,-76.46 508.57,-82.84"/>
</g>
<!-- Node10&#45;&gt;Node4 -->
<g id="edge17" class="edge">
<title>Node10&#45;&gt;Node4</title>
<path fill="none" stroke="midnightblue" d="M286.18,-56.46C322.17,-48.12 378.48,-34.85 436.52,-20.06"/>
<polygon fill="midnightblue" stroke="midnightblue" points="437.41,-23.45 446.23,-17.58 435.68,-16.67 437.41,-23.45"/>
</g>
<!-- Node10&#45;&gt;Node8 -->
<g id="edge14" class="edge">
<title>Node10&#45;&gt;Node8</title>
<path fill="none" stroke="midnightblue" d="M273.88,-56.44C301.07,-47.09 344.69,-32.09 374.31,-21.9"/>
<polygon fill="midnightblue" stroke="midnightblue" points="375.46,-25.21 383.78,-18.64 373.18,-18.59 375.46,-25.21"/>
</g>
<!-- Node11 -->
<g id="node11" class="node">
<title>Node11</title>
<g id="a_node11"><a xlink:title=" ">
<polygon fill="white" stroke="#bfbfbf" points="302,-0.5 302,-19.5 366,-19.5 366,-0.5 302,-0.5"/>
<text text-anchor="middle" x="334" y="-7.5" font-family="Helvetica,sans-Serif" font-size="10.00">algorithm</text>
</a>
</g>
</g>
<!-- Node10&#45;&gt;Node11 -->
<g id="edge11" class="edge">
<title>Node10&#45;&gt;Node11</title>
<path fill="none" stroke="midnightblue" d="M262.66,-56.32C275.92,-47.9 296.27,-34.97 311.85,-25.07"/>
<polygon fill="midnightblue" stroke="midnightblue" points="313.81,-27.97 320.38,-19.65 310.06,-22.06 313.81,-27.97"/>
</g>
<!-- Node12 -->
<g id="node12" class="node">
<title>Node12</title>
<g id="a_node12"><a xlink:title=" ">
<polygon fill="white" stroke="#bfbfbf" points="87,-0.5 87,-19.5 129,-19.5 129,-0.5 87,-0.5"/>
<text text-anchor="middle" x="108" y="-7.5" font-family="Helvetica,sans-Serif" font-size="10.00">array</text>
</a>
</g>
</g>
<!-- Node10&#45;&gt;Node12 -->
<g id="edge12" class="edge">
<title>Node10&#45;&gt;Node12</title>
<path fill="none" stroke="midnightblue" d="M226.66,-56.44C202.97,-47.37 165.39,-32.98 138.88,-22.83"/>
<polygon fill="midnightblue" stroke="midnightblue" points="139.9,-19.47 129.31,-19.16 137.4,-26.01 139.9,-19.47"/>
</g>
<!-- Node13 -->
<g id="node13" class="node">
<title>Node13</title>
<g id="a_node13"><a xlink:title=" ">
<polygon fill="white" stroke="#bfbfbf" points="147.5,-0.5 147.5,-19.5 196.5,-19.5 196.5,-0.5 147.5,-0.5"/>
<text text-anchor="middle" x="172" y="-7.5" font-family="Helvetica,sans-Serif" font-size="10.00">cctype</text>
</a>
</g>
</g>
<!-- Node10&#45;&gt;Node13 -->
<g id="edge13" class="edge">
<title>Node10&#45;&gt;Node13</title>
<path fill="none" stroke="midnightblue" d="M236.63,-56.32C224.84,-48.06 206.87,-35.45 192.86,-25.63"/>
<polygon fill="midnightblue" stroke="midnightblue" points="194.54,-22.53 184.34,-19.65 190.52,-28.26 194.54,-22.53"/>
</g>
<!-- Node14 -->
<g id="node14" class="node">
<title>Node14</title>
<g id="a_node14"><a xlink:title=" ">
<polygon fill="white" stroke="#bfbfbf" points="800.5,-0.5 800.5,-19.5 873.5,-19.5 873.5,-0.5 800.5,-0.5"/>
<text text-anchor="middle" x="837" y="-7.5" font-family="Helvetica,sans-Serif" font-size="10.00">string_view</text>
</a>
</g>
</g>
<!-- Node10&#45;&gt;Node14 -->
<g id="edge15" class="edge">
<title>Node10&#45;&gt;Node14</title>
<path fill="none" stroke="midnightblue" d="M294.04,-57.21C297.07,-56.78 300.08,-56.37 303,-56 482.34,-33.54 696.99,-19.25 790.1,-13.67"/>
<polygon fill="midnightblue" stroke="midnightblue" points="790.54,-17.15 800.31,-13.06 790.12,-10.16 790.54,-17.15"/>
</g>
<!-- Node15 -->
<g id="node15" class="node">
<title>Node15</title>
<g id="a_node15"><a xlink:title=" ">
<polygon fill="white" stroke="#bfbfbf" points="214.5,-0.5 214.5,-19.5 283.5,-19.5 283.5,-0.5 214.5,-0.5"/>
<text text-anchor="middle" x="249" y="-7.5" font-family="Helvetica,sans-Serif" font-size="10.00">type_traits</text>
</a>
</g>
</g>
<!-- Node10&#45;&gt;Node15 -->
<g id="edge16" class="edge">
<title>Node10&#45;&gt;Node15</title>
<path fill="none" stroke="midnightblue" d="M249,-56.08C249,-49.01 249,-38.86 249,-29.99"/>
<polygon fill="midnightblue" stroke="midnightblue" points="252.5,-29.75 249,-19.75 245.5,-29.75 252.5,-29.75"/>
</g>
<!-- Node19&#45;&gt;Node16 -->
<g id="edge58" class="edge">
<title>Node19&#45;&gt;Node16</title>
<path fill="none" stroke="midnightblue" d="M1128.37,-345.16C987.69,-343.88 655,-330.71 655,-235 655,-235 655,-235 655,-177 655,-144.88 651.99,-107.6 649.92,-85.73"/>
<polygon fill="midnightblue" stroke="midnightblue" points="653.38,-85.15 648.92,-75.55 646.41,-85.84 653.38,-85.15"/>
</g>
<!-- Node20 -->
<g id="node20" class="node">
<title>Node20</title>
<g id="a_node20"><a xlink:href="hash__provider_8h.html" target="_top" xlink:title=" ">
<polygon fill="white" stroke="black" points="397.5,-280.5 397.5,-299.5 542.5,-299.5 542.5,-280.5 397.5,-280.5"/>
<text text-anchor="middle" x="470" y="-287.5" font-family="Helvetica,sans-Serif" font-size="10.00">ccf/crypto/hash_provider.h</text>
</a>
</g>
</g>
<!-- Node19&#45;&gt;Node20 -->
<g id="edge23" class="edge">
<title>Node19&#45;&gt;Node20</title>
<path fill="none" stroke="midnightblue" d="M1128.3,-340.37C998.83,-330.66 698.75,-308.16 552.75,-297.21"/>
<polygon fill="midnightblue" stroke="midnightblue" points="552.74,-293.7 542.51,-296.44 552.22,-300.68 552.74,-293.7"/>
</g>
<!-- Node25 -->
<g id="node25" class="node">
<title>Node25</title>
<g id="a_node25"><a xlink:href="openssl__wrappers_8h.html" target="_top" xlink:title=" ">
<polygon fill="white" stroke="black" points="1133.5,-280.5 1133.5,-299.5 1246.5,-299.5 1246.5,-280.5 1133.5,-280.5"/>
<text text-anchor="middle" x="1190" y="-287.5" font-family="Helvetica,sans-Serif" font-size="10.00">openssl_wrappers.h</text>
</a>
</g>
</g>
<!-- Node19&#45;&gt;Node25 -->
<g id="edge35" class="edge">
<title>Node19&#45;&gt;Node25</title>
<path fill="none" stroke="midnightblue" d="M1190,-336.08C1190,-329.01 1190,-318.86 1190,-309.99"/>
<polygon fill="midnightblue" stroke="midnightblue" points="1193.5,-309.75 1190,-299.75 1186.5,-309.75 1193.5,-309.75"/>
</g>
<!-- Node34 -->
<g id="node34" class="node">
<title>Node34</title>
<g id="a_node34"><a xlink:title=" ">
<polygon fill="white" stroke="#bfbfbf" points="1761,-224.5 1761,-243.5 1845,-243.5 1845,-224.5 1761,-224.5"/>
<text text-anchor="middle" x="1803" y="-231.5" font-family="Helvetica,sans-Serif" font-size="10.00">openssl/evp.h</text>
</a>
</g>
</g>
<!-- Node19&#45;&gt;Node34 -->
<g id="edge55" class="edge">
<title>Node19&#45;&gt;Node34</title>
<path fill="none" stroke="midnightblue" d="M1241.84,-336.46C1295.29,-327.59 1381.03,-313.19 1455,-300 1560.18,-281.25 1682.97,-257.99 1750.96,-245"/>
<polygon fill="midnightblue" stroke="midnightblue" points="1751.83,-248.39 1760.99,-243.08 1750.51,-241.52 1751.83,-248.39"/>
</g>
<!-- Node39 -->
<g id="node39" class="node">
<title>Node39</title>
<g id="a_node39"><a xlink:title=" ">
<polygon fill="white" stroke="#bfbfbf" points="1264.5,-280.5 1264.5,-299.5 1345.5,-299.5 1345.5,-280.5 1264.5,-280.5"/>
<text text-anchor="middle" x="1305" y="-287.5" font-family="Helvetica,sans-Serif" font-size="10.00">openssl/kdf.h</text>
</a>
</g>
</g>
<!-- Node19&#45;&gt;Node39 -->
<g id="edge56" class="edge">
<title>Node19&#45;&gt;Node39</title>
<path fill="none" stroke="midnightblue" d="M1208.22,-336.44C1226.9,-327.68 1256.16,-313.94 1277.62,-303.86"/>
<polygon fill="midnightblue" stroke="midnightblue" points="1279.3,-306.93 1286.86,-299.52 1276.32,-300.6 1279.3,-306.93"/>
</g>
<!-- Node40 -->
<g id="node40" class="node">
<title>Node40</title>
<g id="a_node40"><a xlink:title=" ">
<polygon fill="white" stroke="#bfbfbf" points="1363.5,-280.5 1363.5,-299.5 1446.5,-299.5 1446.5,-280.5 1363.5,-280.5"/>
<text text-anchor="middle" x="1405" y="-287.5" font-family="Helvetica,sans-Serif" font-size="10.00">openssl/sha.h</text>
</a>
</g>
</g>
<!-- Node19&#45;&gt;Node40 -->
<g id="edge57" class="edge">
<title>Node19&#45;&gt;Node40</title>
<path fill="none" stroke="midnightblue" d="M1224.07,-336.44C1261.18,-327.12 1320.66,-312.18 1361.21,-302"/>
<polygon fill="midnightblue" stroke="midnightblue" points="1362.25,-305.35 1371.09,-299.52 1360.54,-298.56 1362.25,-305.35"/>
</g>
<!-- Node20&#45;&gt;Node3 -->
<g id="edge24" class="edge">
<title>Node20&#45;&gt;Node3</title>
<path fill="none" stroke="midnightblue" d="M405.98,-280.44C333.59,-270.77 215.89,-255.04 139.72,-244.85"/>
<polygon fill="midnightblue" stroke="midnightblue" points="140.09,-241.37 129.72,-243.52 139.16,-248.31 140.09,-241.37"/>
</g>
<!-- Node20&#45;&gt;Node4 -->
<g id="edge34" class="edge">
<title>Node20&#45;&gt;Node4</title>
<path fill="none" stroke="midnightblue" d="M542.66,-284.3C574.73,-278.76 610.79,-267.31 636,-244 700.4,-184.46 751.63,-123.8 696,-56 672.1,-26.87 561.02,-16.25 503.99,-12.66"/>
<polygon fill="midnightblue" stroke="midnightblue" points="503.86,-9.15 493.67,-12.06 503.45,-16.14 503.86,-9.15"/>
</g>
<!-- Node20&#45;&gt;Node5 -->
<g id="edge25" class="edge">
<title>Node20&#45;&gt;Node5</title>
<path fill="none" stroke="midnightblue" d="M437.2,-280.44C401.62,-271.16 344.69,-256.31 305.65,-246.13"/>
<polygon fill="midnightblue" stroke="midnightblue" points="306.21,-242.65 295.65,-243.52 304.44,-249.43 306.21,-242.65"/>
</g>
<!-- Node20&#45;&gt;Node12 -->
<g id="edge31" class="edge">
<title>Node20&#45;&gt;Node12</title>
<path fill="none" stroke="midnightblue" d="M397.3,-285.33C326.18,-280.32 224.25,-268.94 194,-244 126.66,-188.49 112.05,-75.13 108.88,-30.08"/>
<polygon fill="midnightblue" stroke="midnightblue" points="112.36,-29.72 108.28,-19.95 105.37,-30.14 112.36,-29.72"/>
</g>
<!-- Node21 -->
<g id="node21" class="node">
<title>Node21</title>
<g id="a_node21"><a xlink:href="sha256__hash_8h.html" target="_top" xlink:title=" ">
<polygon fill="white" stroke="black" points="341,-224.5 341,-243.5 481,-243.5 481,-224.5 341,-224.5"/>
<text text-anchor="middle" x="411" y="-231.5" font-family="Helvetica,sans-Serif" font-size="10.00">ccf/crypto/sha256_hash.h</text>
</a>
</g>
</g>
<!-- Node20&#45;&gt;Node21 -->
<g id="edge26" class="edge">
<title>Node20&#45;&gt;Node21</title>
<path fill="none" stroke="midnightblue" d="M460.52,-280.32C451.8,-272.34 438.66,-260.31 428.1,-250.65"/>
<polygon fill="midnightblue" stroke="midnightblue" points="430.39,-248 420.65,-243.83 425.67,-253.17 430.39,-248"/>
</g>
<!-- Node23 -->
<g id="node23" class="node">
<title>Node23</title>
<g id="a_node23"><a xlink:title=" ">
<polygon fill="white" stroke="#bfbfbf" points="577,-224.5 577,-243.5 627,-243.5 627,-224.5 577,-224.5"/>
<text text-anchor="middle" x="602" y="-231.5" font-family="Helvetica,sans-Serif" font-size="10.00">cstdint</text>
</a>
</g>
</g>
<!-- Node20&#45;&gt;Node23 -->
<g id="edge32" class="edge">
<title>Node20&#45;&gt;Node23</title>
<path fill="none" stroke="midnightblue" d="M490.92,-280.44C512.74,-271.52 547.15,-257.44 571.89,-247.32"/>
<polygon fill="midnightblue" stroke="midnightblue" points="573.25,-250.54 581.18,-243.52 570.6,-244.06 573.25,-250.54"/>
</g>
<!-- Node24 -->
<g id="node24" class="node">
<title>Node24</title>
<g id="a_node24"><a xlink:title=" ">
<polygon fill="white" stroke="#bfbfbf" points="499,-224.5 499,-243.5 559,-243.5 559,-224.5 499,-224.5"/>
<text text-anchor="middle" x="529" y="-231.5" font-family="Helvetica,sans-Serif" font-size="10.00">iostream</text>
</a>
</g>
</g>
<!-- Node20&#45;&gt;Node24 -->
<g id="edge33" class="edge">
<title>Node20&#45;&gt;Node24</title>
<path fill="none" stroke="midnightblue" d="M479.48,-280.32C488.2,-272.34 501.34,-260.31 511.9,-250.65"/>
<polygon fill="midnightblue" stroke="midnightblue" points="514.33,-253.17 519.35,-243.83 509.61,-248 514.33,-253.17"/>
</g>
<!-- Node21&#45;&gt;Node6 -->
<g id="edge27" class="edge">
<title>Node21&#45;&gt;Node6</title>
<path fill="none" stroke="midnightblue" d="M411.83,-224.08C412.48,-217.01 413.42,-206.86 414.24,-197.99"/>
<polygon fill="midnightblue" stroke="midnightblue" points="417.75,-198.03 415.19,-187.75 410.78,-197.39 417.75,-198.03"/>
</g>
<!-- Node21&#45;&gt;Node12 -->
<g id="edge28" class="edge">
<title>Node21&#45;&gt;Node12</title>
<path fill="none" stroke="midnightblue" d="M398.78,-224.2C365.8,-200.44 272.25,-132.93 195,-76 171.86,-58.95 145.44,-39.16 127.84,-25.94"/>
<polygon fill="midnightblue" stroke="midnightblue" points="129.6,-22.88 119.5,-19.67 125.39,-28.48 129.6,-22.88"/>
</g>
<!-- Node21&#45;&gt;Node16 -->
<g id="edge30" class="edge">
<title>Node21&#45;&gt;Node16</title>
<path fill="none" stroke="midnightblue" d="M430.85,-224.44C465.32,-209.01 537.61,-174.19 590,-132 607.59,-117.84 624.39,-98.09 635.34,-84.08"/>
<polygon fill="midnightblue" stroke="midnightblue" points="638.35,-85.9 641.64,-75.83 632.79,-81.65 638.35,-85.9"/>
</g>
<!-- Node22 -->
<g id="node22" class="node">
<title>Node22</title>
<g id="a_node22"><a xlink:title=" ">
<polygon fill="white" stroke="#bfbfbf" points="721,-168.5 721,-187.5 761,-187.5 761,-168.5 721,-168.5"/>
<text text-anchor="middle" x="741" y="-175.5" font-family="Helvetica,sans-Serif" font-size="10.00">span</text>
</a>
</g>
</g>
<!-- Node21&#45;&gt;Node22 -->
<g id="edge29" class="edge">
<title>Node21&#45;&gt;Node22</title>
<path fill="none" stroke="midnightblue" d="M463.29,-224.44C533.12,-213.02 654.55,-193.15 710.8,-183.94"/>
<polygon fill="midnightblue" stroke="midnightblue" points="711.53,-187.37 720.83,-182.3 710.4,-180.46 711.53,-187.37"/>
</g>
<!-- Node25&#45;&gt;Node16 -->
<g id="edge44" class="edge">
<title>Node25&#45;&gt;Node16</title>
<path fill="none" stroke="midnightblue" d="M1133.41,-287.36C1020.36,-283.5 775.25,-271.96 750,-244 726.59,-218.08 784.87,-199.61 770,-168 750.57,-126.69 705.03,-96.48 675.41,-80.35"/>
<polygon fill="midnightblue" stroke="midnightblue" points="676.89,-77.17 666.41,-75.61 673.63,-83.36 676.89,-77.17"/>
</g>
<!-- Node26 -->
<g id="node26" class="node">
<title>Node26</title>
<g id="a_node26"><a xlink:href="pem_8h.html" target="_top" xlink:title=" ">
<polygon fill="white" stroke="black" points="1085,-224.5 1085,-243.5 1183,-243.5 1183,-224.5 1085,-224.5"/>
<text text-anchor="middle" x="1134" y="-231.5" font-family="Helvetica,sans-Serif" font-size="10.00">ccf/crypto/pem.h</text>
</a>
</g>
</g>
<!-- Node25&#45;&gt;Node26 -->
<g id="edge36" class="edge">
<title>Node25&#45;&gt;Node26</title>
<path fill="none" stroke="midnightblue" d="M1181,-280.32C1172.81,-272.42 1160.49,-260.55 1150.53,-250.94"/>
<polygon fill="midnightblue" stroke="midnightblue" points="1152.79,-248.26 1143.16,-243.83 1147.93,-253.29 1152.79,-248.26"/>
</g>
<!-- Node29 -->
<g id="node29" class="node">
<title>Node29</title>
<g id="a_node29"><a xlink:title=" ">
<polygon fill="white" stroke="#bfbfbf" points="1452,-168.5 1452,-187.5 1510,-187.5 1510,-168.5 1452,-168.5"/>
<text text-anchor="middle" x="1481" y="-175.5" font-family="Helvetica,sans-Serif" font-size="10.00">memory</text>
</a>
</g>
</g>
<!-- Node25&#45;&gt;Node29 -->
<g id="edge45" class="edge">
<title>Node25&#45;&gt;Node29</title>
<path fill="none" stroke="midnightblue" d="M1246.7,-280.95C1249.5,-280.61 1252.28,-280.29 1255,-280 1305.86,-274.49 1679.27,-281.56 1714,-244 1770.41,-182.99 1600.43,-177.46 1520.32,-178.09"/>
<polygon fill="midnightblue" stroke="midnightblue" points="1520.06,-174.6 1510.1,-178.21 1520.14,-181.6 1520.06,-174.6"/>
</g>
<!-- Node30 -->
<g id="node30" class="node">
<title>Node30</title>
<g id="a_node30"><a xlink:title=" ">
<polygon fill="white" stroke="#bfbfbf" points="1201.5,-224.5 1201.5,-243.5 1290.5,-243.5 1290.5,-224.5 1201.5,-224.5"/>
<text text-anchor="middle" x="1246" y="-231.5" font-family="Helvetica,sans-Serif" font-size="10.00">openssl/asn1.h</text>
</a>
</g>
</g>
<!-- Node25&#45;&gt;Node30 -->
<g id="edge46" class="edge">
<title>Node25&#45;&gt;Node30</title>
<path fill="none" stroke="midnightblue" d="M1199,-280.32C1207.19,-272.42 1219.51,-260.55 1229.47,-250.94"/>
<polygon fill="midnightblue" stroke="midnightblue" points="1232.07,-253.29 1236.84,-243.83 1227.21,-248.26 1232.07,-253.29"/>
</g>
<!-- Node31 -->
<g id="node31" class="node">
<title>Node31</title>
<g id="a_node31"><a xlink:title=" ">
<polygon fill="white" stroke="#bfbfbf" points="1308.5,-224.5 1308.5,-243.5 1385.5,-243.5 1385.5,-224.5 1308.5,-224.5"/>
<text text-anchor="middle" x="1347" y="-231.5" font-family="Helvetica,sans-Serif" font-size="10.00">openssl/ec.h</text>
</a>
</g>
</g>
<!-- Node25&#45;&gt;Node31 -->
<g id="edge47" class="edge">
<title>Node25&#45;&gt;Node31</title>
<path fill="none" stroke="midnightblue" d="M1214.88,-280.44C1241.29,-271.36 1283.22,-256.94 1312.74,-246.78"/>
<polygon fill="midnightblue" stroke="midnightblue" points="1313.92,-250.08 1322.24,-243.52 1311.64,-243.46 1313.92,-250.08"/>
</g>
<!-- Node32 -->
<g id="node32" class="node">
<title>Node32</title>
<g id="a_node32"><a xlink:title=" ">
<polygon fill="white" stroke="#bfbfbf" points="1403.5,-224.5 1403.5,-243.5 1502.5,-243.5 1502.5,-224.5 1403.5,-224.5"/>
<text text-anchor="middle" x="1453" y="-231.5" font-family="Helvetica,sans-Serif" font-size="10.00">openssl/engine.h</text>
</a>
</g>
</g>
<!-- Node25&#45;&gt;Node32 -->
<g id="edge48" class="edge">
<title>Node25&#45;&gt;Node32</title>
<path fill="none" stroke="midnightblue" d="M1231.67,-280.44C1277.75,-270.98 1352,-255.74 1401.63,-245.55"/>
<polygon fill="midnightblue" stroke="midnightblue" points="1402.43,-248.96 1411.52,-243.52 1401.02,-242.1 1402.43,-248.96"/>
</g>
<!-- Node33 -->
<g id="node33" class="node">
<title>Node33</title>
<g id="a_node33"><a xlink:title=" ">
<polygon fill="white" stroke="#bfbfbf" points="1520.5,-224.5 1520.5,-243.5 1599.5,-243.5 1599.5,-224.5 1520.5,-224.5"/>
<text text-anchor="middle" x="1560" y="-231.5" font-family="Helvetica,sans-Serif" font-size="10.00">openssl/err.h</text>
</a>
</g>
</g>
<!-- Node25&#45;&gt;Node33 -->
<g id="edge49" class="edge">
<title>Node25&#45;&gt;Node33</title>
<path fill="none" stroke="midnightblue" d="M1246.69,-281.12C1326.88,-269.96 1467.64,-250.33 1510.36,-243.96"/>
<polygon fill="midnightblue" stroke="midnightblue" points="1511.09,-247.39 1520.44,-242.41 1510.03,-240.48 1511.09,-247.39"/>
</g>
<!-- Node25&#45;&gt;Node34 -->
<g id="edge50" class="edge">
<title>Node25&#45;&gt;Node34</title>
<path fill="none" stroke="midnightblue" d="M1246.69,-280.93C1249.5,-280.6 1252.28,-280.29 1255,-280 1473.04,-256.95 1529.23,-269.42 1747,-244 1748.27,-243.85 1749.55,-243.7 1750.84,-243.53"/>
<polygon fill="midnightblue" stroke="midnightblue" points="1751.42,-246.99 1760.86,-242.17 1750.48,-240.05 1751.42,-246.99"/>
</g>
<!-- Node35 -->
<g id="node35" class="node">
<title>Node35</title>
<g id="a_node35"><a xlink:title=" ">
<polygon fill="white" stroke="#bfbfbf" points="1617,-224.5 1617,-243.5 1705,-243.5 1705,-224.5 1617,-224.5"/>
<text text-anchor="middle" x="1661" y="-231.5" font-family="Helvetica,sans-Serif" font-size="10.00">openssl/pem.h</text>
</a>
</g>
</g>
<!-- Node25&#45;&gt;Node35 -->
<g id="edge51" class="edge">
<title>Node25&#45;&gt;Node35</title>
<path fill="none" stroke="midnightblue" d="M1246.7,-281.03C1249.51,-280.67 1252.29,-280.33 1255,-280 1408.36,-261.57 1450.03,-265.06 1606.79,-244.08"/>
<polygon fill="midnightblue" stroke="midnightblue" points="1607.35,-247.54 1616.79,-242.73 1606.41,-240.6 1607.35,-247.54"/>
</g>
<!-- Node36 -->
<g id="node36" class="node">
<title>Node36</title>
<g id="a_node36"><a xlink:title=" ">
<polygon fill="white" stroke="#bfbfbf" points="759,-224.5 759,-243.5 839,-243.5 839,-224.5 759,-224.5"/>
<text text-anchor="middle" x="799" y="-231.5" font-family="Helvetica,sans-Serif" font-size="10.00">openssl/ssl.h</text>
</a>
</g>
</g>
<!-- Node25&#45;&gt;Node36 -->
<g id="edge52" class="edge">
<title>Node25&#45;&gt;Node36</title>
<path fill="none" stroke="midnightblue" d="M1133.29,-282.43C1067.4,-274.6 955.18,-260.65 849.01,-244.09"/>
<polygon fill="midnightblue" stroke="midnightblue" points="849.5,-240.63 839.08,-242.53 848.42,-247.54 849.5,-240.63"/>
</g>
<!-- Node37 -->
<g id="node37" class="node">
<title>Node37</title>
<g id="a_node37"><a xlink:title=" ">
<polygon fill="white" stroke="#bfbfbf" points="857,-224.5 857,-243.5 947,-243.5 947,-224.5 857,-224.5"/>
<text text-anchor="middle" x="902" y="-231.5" font-family="Helvetica,sans-Serif" font-size="10.00">openssl/x509.h</text>
</a>
</g>
</g>
<!-- Node25&#45;&gt;Node37 -->
<g id="edge53" class="edge">
<title>Node25&#45;&gt;Node37</title>
<path fill="none" stroke="midnightblue" d="M1144.37,-280.44C1093.7,-270.94 1011.93,-255.61 957.57,-245.42"/>
<polygon fill="midnightblue" stroke="midnightblue" points="957.89,-241.92 947.42,-243.52 956.6,-248.8 957.89,-241.92"/>
</g>
<!-- Node38 -->
<g id="node38" class="node">
<title>Node38</title>
<g id="a_node38"><a xlink:title=" ">
<polygon fill="white" stroke="#bfbfbf" points="965,-224.5 965,-243.5 1067,-243.5 1067,-224.5 965,-224.5"/>
<text text-anchor="middle" x="1016" y="-231.5" font-family="Helvetica,sans-Serif" font-size="10.00">openssl/x509v3.h</text>
</a>
</g>
</g>
<!-- Node25&#45;&gt;Node38 -->
<g id="edge54" class="edge">
<title>Node25&#45;&gt;Node38</title>
<path fill="none" stroke="midnightblue" d="M1162.43,-280.44C1132.9,-271.28 1085.88,-256.69 1053.12,-246.52"/>
<polygon fill="midnightblue" stroke="midnightblue" points="1054.03,-243.14 1043.44,-243.52 1051.96,-249.82 1054.03,-243.14"/>
</g>
<!-- Node26&#45;&gt;Node4 -->
<g id="edge43" class="edge">
<title>Node26&#45;&gt;Node4</title>
<path fill="none" stroke="midnightblue" d="M1131.17,-224.46C1126.13,-210.56 1114.28,-183.09 1095,-168 961.37,-63.42 895.04,-95.44 730,-56 649.68,-36.81 553.55,-22.33 503.71,-15.45"/>
<polygon fill="midnightblue" stroke="midnightblue" points="503.89,-11.94 493.51,-14.05 502.94,-18.87 503.89,-11.94"/>
</g>
<!-- Node26&#45;&gt;Node6 -->
<g id="edge37" class="edge">
<title>Node26&#45;&gt;Node6</title>
<path fill="none" stroke="midnightblue" d="M1084.99,-225.09C1081.95,-224.7 1078.94,-224.33 1076,-224 848.21,-198.61 574.49,-185.46 464.88,-180.89"/>
<polygon fill="midnightblue" stroke="midnightblue" points="464.92,-177.39 454.79,-180.48 464.64,-184.39 464.92,-177.39"/>
</g>
<!-- Node26&#45;&gt;Node14 -->
<g id="edge42" class="edge">
<title>Node26&#45;&gt;Node14</title>
<path fill="none" stroke="midnightblue" d="M1137.16,-224.25C1146.78,-195.87 1172.53,-105.33 1129,-56 1097.48,-20.28 957.95,-12.7 883.76,-11.24"/>
<polygon fill="midnightblue" stroke="midnightblue" points="883.8,-7.74 873.74,-11.07 883.68,-14.74 883.8,-7.74"/>
</g>
<!-- Node26&#45;&gt;Node22 -->
<g id="edge41" class="edge">
<title>Node26&#45;&gt;Node22</title>
<path fill="none" stroke="midnightblue" d="M1084.96,-225.32C1081.93,-224.87 1078.92,-224.42 1076,-224 963.64,-207.74 829.79,-190.36 771.1,-182.83"/>
<polygon fill="midnightblue" stroke="midnightblue" points="771.4,-179.34 761.03,-181.55 770.51,-186.29 771.4,-179.34"/>
</g>
<!-- Node27 -->
<g id="node27" class="node">
<title>Node27</title>
<g id="a_node27"><a xlink:title=" ">
<polygon fill="white" stroke="#bfbfbf" points="953,-168.5 953,-187.5 1003,-187.5 1003,-168.5 953,-168.5"/>
<text text-anchor="middle" x="978" y="-175.5" font-family="Helvetica,sans-Serif" font-size="10.00">cstring</text>
</a>
</g>
</g>
<!-- Node26&#45;&gt;Node27 -->
<g id="edge38" class="edge">
<title>Node26&#45;&gt;Node27</title>
<path fill="none" stroke="midnightblue" d="M1109.28,-224.44C1083.15,-215.4 1041.74,-201.06 1012.42,-190.92"/>
<polygon fill="midnightblue" stroke="midnightblue" points="1013.2,-187.48 1002.6,-187.52 1010.91,-194.1 1013.2,-187.48"/>
</g>
<!-- Node28 -->
<g id="node28" class="node">
<title>Node28</title>
<g id="a_node28"><a xlink:title=" ">
<polygon fill="white" stroke="#bfbfbf" points="1021.5,-168.5 1021.5,-187.5 1086.5,-187.5 1086.5,-168.5 1021.5,-168.5"/>
<text text-anchor="middle" x="1054" y="-175.5" font-family="Helvetica,sans-Serif" font-size="10.00">exception</text>
</a>
</g>
</g>
<!-- Node26&#45;&gt;Node28 -->
<g id="edge39" class="edge">
<title>Node26&#45;&gt;Node28</title>
<path fill="none" stroke="midnightblue" d="M1121.15,-224.32C1108.78,-215.98 1089.87,-203.21 1075.26,-193.35"/>
<polygon fill="midnightblue" stroke="midnightblue" points="1077.07,-190.35 1066.82,-187.65 1073.15,-196.15 1077.07,-190.35"/>
</g>
<!-- Node26&#45;&gt;Node29 -->
<g id="edge40" class="edge">
<title>Node26&#45;&gt;Node29</title>
<path fill="none" stroke="midnightblue" d="M1183.35,-225.32C1252.83,-214.51 1378.09,-195.02 1441.67,-185.12"/>
<polygon fill="midnightblue" stroke="midnightblue" points="1442.36,-188.56 1451.7,-183.56 1441.28,-181.64 1442.36,-188.56"/>
</g>
</g>
</svg>
