<?xml version="1.0" encoding="UTF-8" standalone="no"?>
<!DOCTYPE svg PUBLIC "-//W3C//DTD SVG 1.1//EN"
 "http://www.w3.org/Graphics/SVG/1.1/DTD/svg11.dtd">
<!-- Generated by graphviz version 2.43.0 (0)
 -->
<!-- Title: include/ccf/receipt.h Pages: 1 -->
<!--zoomable 386 -->
<svg id="main" version="1.1" xmlns="http://www.w3.org/2000/svg" xmlns:xlink="http://www.w3.org/1999/xlink" xml:space="preserve" onload="init(evt)">
<style type="text/css"><![CDATA[
.edge:hover path { stroke: red; }
.edge:hover polygon { stroke: red; fill: red; }
]]></style>
<script type="text/javascript"><![CDATA[
var edges = document.getElementsByTagName('g');
if (edges && edges.length) {
  for (var i=0;i<edges.length;i++) {
    if (edges[i].id.substr(0,4)=='edge') {
      edges[i].setAttribute('class','edge');
    }
  }
}
]]></script>
        <defs>
                <circle id="rim" cx="0" cy="0" r="7"/>
                <circle id="rim2" cx="0" cy="0" r="3.5"/>
                <g id="zoomPlus">
                        <use xlink:href="#rim" fill="#404040">
                                <set attributeName="fill" to="#808080" begin="zoomplus.mouseover" end="zoomplus.mouseout"/>
                        </use>
                        <path d="M-4,0h8M0,-4v8" fill="none" stroke="white" stroke-width="1.5" pointer-events="none"/>
                </g>
                <g id="zoomMin">
                        <use xlink:href="#rim" fill="#404040">
                                <set attributeName="fill" to="#808080" begin="zoomminus.mouseover" end="zoomminus.mouseout"/>
                        </use>
                        <path d="M-4,0h8" fill="none" stroke="white" stroke-width="1.5" pointer-events="none"/>
                </g>
                <g id="dirArrow">
                        <path fill="none" stroke="white" stroke-width="1.5" d="M0,-3.0v7 M-2.5,-0.5L0,-3.0L2.5,-0.5"/>
                </g>
               <g id="resetDef">
                       <use xlink:href="#rim2" fill="#404040">
                               <set attributeName="fill" to="#808080" begin="reset.mouseover" end="reset.mouseout"/>
                       </use>
               </g>
        </defs>

<script type="text/javascript">
var viewWidth = 920;
var viewHeight = 386;
var sectionId = 'dynsection-0';
</script>
<script xlink:href="svgpan.js"/>
<svg id="graph" class="graph">
<g id="viewport">
<title>include/ccf/receipt.h</title>
<polygon fill="white" stroke="transparent" points="-4,4 -4,-382 915.5,-382 915.5,4 -4,4"/>
<!-- Node1 -->
<g id="node1" class="node">
<title>Node1</title>
<g id="a_node1"><a xlink:title=" ">
<polygon fill="#bfbfbf" stroke="black" points="620,-358.5 620,-377.5 735,-377.5 735,-358.5 620,-358.5"/>
<text text-anchor="middle" x="677.5" y="-365.5" font-family="Helvetica,sans-Serif" font-size="10.00">include/ccf/receipt.h</text>
</a>
</g>
</g>
<!-- Node2 -->
<g id="node2" class="node">
<title>Node2</title>
<g id="a_node2"><a xlink:href="json_8h.html" target="_top" xlink:title=" ">
<polygon fill="white" stroke="black" points="686,-241 686,-260 763,-260 763,-241 686,-241"/>
<text text-anchor="middle" x="724.5" y="-248" font-family="Helvetica,sans-Serif" font-size="10.00">ccf/ds/json.h</text>
</a>
</g>
</g>
<!-- Node1&#45;&gt;Node2 -->
<g id="edge1" class="edge">
<title>Node1&#45;&gt;Node2</title>
<path fill="none" stroke="midnightblue" d="M681.03,-358.32C688.65,-339.59 706.78,-295.05 717.06,-269.79"/>
<polygon fill="midnightblue" stroke="midnightblue" points="720.4,-270.86 720.93,-260.28 713.92,-268.23 720.4,-270.86"/>
</g>
<!-- Node16 -->
<g id="node16" class="node">
<title>Node16</title>
<g id="a_node16"><a xlink:href="entity__id_8h.html" target="_top" xlink:title=" ">
<polygon fill="white" stroke="black" points="599.5,-302.5 599.5,-321.5 685.5,-321.5 685.5,-302.5 599.5,-302.5"/>
<text text-anchor="middle" x="642.5" y="-309.5" font-family="Helvetica,sans-Serif" font-size="10.00">ccf/entity_id.h</text>
</a>
</g>
</g>
<!-- Node1&#45;&gt;Node16 -->
<g id="edge18" class="edge">
<title>Node1&#45;&gt;Node16</title>
<path fill="none" stroke="midnightblue" d="M671.72,-358.08C666.83,-350.53 659.67,-339.49 653.67,-330.23"/>
<polygon fill="midnightblue" stroke="midnightblue" points="656.55,-328.24 648.17,-321.75 650.67,-332.05 656.55,-328.24"/>
</g>
<!-- Node3 -->
<g id="node3" class="node">
<title>Node3</title>
<g id="a_node3"><a xlink:href="include_2ccf_2crypto_2base64_8h.html" target="_top" xlink:title=" ">
<polygon fill="white" stroke="black" points="799.5,-112.5 799.5,-131.5 911.5,-131.5 911.5,-112.5 799.5,-112.5"/>
<text text-anchor="middle" x="855.5" y="-119.5" font-family="Helvetica,sans-Serif" font-size="10.00">ccf/crypto/base64.h</text>
</a>
</g>
</g>
<!-- Node2&#45;&gt;Node3 -->
<g id="edge2" class="edge">
<title>Node2&#45;&gt;Node3</title>
<path fill="none" stroke="midnightblue" d="M739.78,-240.88C755.31,-231.69 779.55,-216.13 797.5,-199 816.37,-180.99 833.93,-156.45 844.68,-140.19"/>
<polygon fill="midnightblue" stroke="midnightblue" points="847.69,-141.98 850.18,-131.68 841.81,-138.18 847.69,-141.98"/>
</g>
<!-- Node6 -->
<g id="node6" class="node">
<title>Node6</title>
<g id="a_node6"><a xlink:href="include_2ccf_2ds_2json__schema_8h.html" target="_top" xlink:title=" ">
<polygon fill="white" stroke="black" points="667,-174 667,-193 788,-193 788,-174 667,-174"/>
<text text-anchor="middle" x="727.5" y="-181" font-family="Helvetica,sans-Serif" font-size="10.00">ccf/ds/json_schema.h</text>
</a>
</g>
</g>
<!-- Node2&#45;&gt;Node6 -->
<g id="edge5" class="edge">
<title>Node2&#45;&gt;Node6</title>
<path fill="none" stroke="midnightblue" d="M724.9,-240.73C725.35,-231.18 726.06,-215.62 726.63,-203.28"/>
<polygon fill="midnightblue" stroke="midnightblue" points="730.14,-203.28 727.1,-193.13 723.14,-202.96 730.14,-203.28"/>
</g>
<!-- Node13 -->
<g id="node13" class="node">
<title>Node13</title>
<g id="a_node13"><a xlink:title=" ">
<polygon fill="white" stroke="#bfbfbf" points="280,-56.5 280,-75.5 359,-75.5 359,-56.5 280,-56.5"/>
<text text-anchor="middle" x="319.5" y="-63.5" font-family="Helvetica,sans-Serif" font-size="10.00">fmt/format.h</text>
</a>
</g>
</g>
<!-- Node2&#45;&gt;Node13 -->
<g id="edge16" class="edge">
<title>Node2&#45;&gt;Node13</title>
<path fill="none" stroke="midnightblue" d="M705.51,-240.94C640.27,-211.55 425.09,-114.58 347.61,-79.67"/>
<polygon fill="midnightblue" stroke="midnightblue" points="349,-76.46 338.45,-75.54 346.13,-82.84 349,-76.46"/>
</g>
<!-- Node15 -->
<g id="node15" class="node">
<title>Node15</title>
<g id="a_node15"><a xlink:title=" ">
<polygon fill="white" stroke="#bfbfbf" points="844.5,-174 844.5,-193 900.5,-193 900.5,-174 844.5,-174"/>
<text text-anchor="middle" x="872.5" y="-181" font-family="Helvetica,sans-Serif" font-size="10.00">sstream</text>
</a>
</g>
</g>
<!-- Node2&#45;&gt;Node15 -->
<g id="edge17" class="edge">
<title>Node2&#45;&gt;Node15</title>
<path fill="none" stroke="midnightblue" d="M744.15,-240.87C769.59,-229.7 814.1,-210.15 843.45,-197.26"/>
<polygon fill="midnightblue" stroke="midnightblue" points="845.02,-200.39 852.77,-193.17 842.2,-193.98 845.02,-200.39"/>
</g>
<!-- Node4 -->
<g id="node4" class="node">
<title>Node4</title>
<g id="a_node4"><a xlink:title=" ">
<polygon fill="white" stroke="#bfbfbf" points="803.5,-56.5 803.5,-75.5 847.5,-75.5 847.5,-56.5 803.5,-56.5"/>
<text text-anchor="middle" x="825.5" y="-63.5" font-family="Helvetica,sans-Serif" font-size="10.00">string</text>
</a>
</g>
</g>
<!-- Node3&#45;&gt;Node4 -->
<g id="edge3" class="edge">
<title>Node3&#45;&gt;Node4</title>
<path fill="none" stroke="midnightblue" d="M850.55,-112.08C846.4,-104.61 840.35,-93.72 835.23,-84.52"/>
<polygon fill="midnightblue" stroke="midnightblue" points="838.28,-82.79 830.36,-75.75 832.16,-86.19 838.28,-82.79"/>
</g>
<!-- Node5 -->
<g id="node5" class="node">
<title>Node5</title>
<g id="a_node5"><a xlink:title=" ">
<polygon fill="white" stroke="#bfbfbf" points="752,-0.5 752,-19.5 799,-19.5 799,-0.5 752,-0.5"/>
<text text-anchor="middle" x="775.5" y="-7.5" font-family="Helvetica,sans-Serif" font-size="10.00">vector</text>
</a>
</g>
</g>
<!-- Node3&#45;&gt;Node5 -->
<g id="edge4" class="edge">
<title>Node3&#45;&gt;Node5</title>
<path fill="none" stroke="midnightblue" d="M858.31,-112.28C862.02,-99.09 866.92,-73.7 856.5,-56 846.27,-38.61 826.63,-27.46 809.25,-20.61"/>
<polygon fill="midnightblue" stroke="midnightblue" points="809.96,-17.15 799.37,-17.06 807.59,-23.74 809.96,-17.15"/>
</g>
<!-- Node7 -->
<g id="node7" class="node">
<title>Node7</title>
<g id="a_node7"><a xlink:href="nonstd_8h.html" target="_top" xlink:title=" ">
<polygon fill="white" stroke="black" points="522.5,-112.5 522.5,-131.5 612.5,-131.5 612.5,-112.5 522.5,-112.5"/>
<text text-anchor="middle" x="567.5" y="-119.5" font-family="Helvetica,sans-Serif" font-size="10.00">ccf/ds/nonstd.h</text>
</a>
</g>
</g>
<!-- Node6&#45;&gt;Node7 -->
<g id="edge6" class="edge">
<title>Node6&#45;&gt;Node7</title>
<path fill="none" stroke="midnightblue" d="M704.58,-173.98C677.13,-163.77 630.98,-146.61 599.9,-135.05"/>
<polygon fill="midnightblue" stroke="midnightblue" points="600.97,-131.71 590.38,-131.51 598.53,-138.28 600.97,-131.71"/>
</g>
<!-- Node6&#45;&gt;Node13 -->
<g id="edge14" class="edge">
<title>Node6&#45;&gt;Node13</title>
<path fill="none" stroke="midnightblue" d="M678.68,-173.92C634.78,-165.52 568.87,-151.18 513.5,-132 493.58,-125.1 490.21,-119.47 470.5,-112 435,-98.54 393.6,-86.44 363.14,-78.19"/>
<polygon fill="midnightblue" stroke="midnightblue" points="363.82,-74.75 353.25,-75.54 362.01,-81.51 363.82,-74.75"/>
</g>
<!-- Node14 -->
<g id="node14" class="node">
<title>Node14</title>
<g id="a_node14"><a xlink:title=" ">
<polygon fill="white" stroke="#bfbfbf" points="671.5,-112.5 671.5,-131.5 781.5,-131.5 781.5,-112.5 671.5,-112.5"/>
<text text-anchor="middle" x="726.5" y="-119.5" font-family="Helvetica,sans-Serif" font-size="10.00">nlohmann/json.hpp</text>
</a>
</g>
</g>
<!-- Node6&#45;&gt;Node14 -->
<g id="edge15" class="edge">
<title>Node6&#45;&gt;Node14</title>
<path fill="none" stroke="midnightblue" d="M727.36,-173.98C727.22,-165.58 727,-152.48 726.81,-141.66"/>
<polygon fill="midnightblue" stroke="midnightblue" points="730.31,-141.45 726.64,-131.51 723.31,-141.57 730.31,-141.45"/>
</g>
<!-- Node7&#45;&gt;Node4 -->
<g id="edge10" class="edge">
<title>Node7&#45;&gt;Node4</title>
<path fill="none" stroke="midnightblue" d="M612.7,-112.46C657.65,-103.81 728.51,-89.8 789.5,-76 790.77,-75.71 792.07,-75.41 793.38,-75.11"/>
<polygon fill="midnightblue" stroke="midnightblue" points="794.55,-78.42 803.45,-72.68 792.91,-71.62 794.55,-78.42"/>
</g>
<!-- Node7&#45;&gt;Node5 -->
<g id="edge13" class="edge">
<title>Node7&#45;&gt;Node5</title>
<path fill="none" stroke="midnightblue" d="M612.72,-112.7C665.23,-102.68 746.05,-85.93 756.5,-76 769.01,-64.11 773.42,-44.49 774.91,-29.91"/>
<polygon fill="midnightblue" stroke="midnightblue" points="778.42,-29.75 775.57,-19.54 771.44,-29.3 778.42,-29.75"/>
</g>
<!-- Node8 -->
<g id="node8" class="node">
<title>Node8</title>
<g id="a_node8"><a xlink:title=" ">
<polygon fill="white" stroke="#bfbfbf" points="464.5,-56.5 464.5,-75.5 528.5,-75.5 528.5,-56.5 464.5,-56.5"/>
<text text-anchor="middle" x="496.5" y="-63.5" font-family="Helvetica,sans-Serif" font-size="10.00">algorithm</text>
</a>
</g>
</g>
<!-- Node7&#45;&gt;Node8 -->
<g id="edge7" class="edge">
<title>Node7&#45;&gt;Node8</title>
<path fill="none" stroke="midnightblue" d="M556.09,-112.32C545.39,-104.18 529.16,-91.84 516.34,-82.09"/>
<polygon fill="midnightblue" stroke="midnightblue" points="518.19,-79.1 508.11,-75.83 513.96,-84.67 518.19,-79.1"/>
</g>
<!-- Node9 -->
<g id="node9" class="node">
<title>Node9</title>
<g id="a_node9"><a xlink:title=" ">
<polygon fill="white" stroke="#bfbfbf" points="546.5,-56.5 546.5,-75.5 588.5,-75.5 588.5,-56.5 546.5,-56.5"/>
<text text-anchor="middle" x="567.5" y="-63.5" font-family="Helvetica,sans-Serif" font-size="10.00">array</text>
</a>
</g>
</g>
<!-- Node7&#45;&gt;Node9 -->
<g id="edge8" class="edge">
<title>Node7&#45;&gt;Node9</title>
<path fill="none" stroke="midnightblue" d="M567.5,-112.08C567.5,-105.01 567.5,-94.86 567.5,-85.99"/>
<polygon fill="midnightblue" stroke="midnightblue" points="571,-85.75 567.5,-75.75 564,-85.75 571,-85.75"/>
</g>
<!-- Node10 -->
<g id="node10" class="node">
<title>Node10</title>
<g id="a_node10"><a xlink:title=" ">
<polygon fill="white" stroke="#bfbfbf" points="607,-56.5 607,-75.5 656,-75.5 656,-56.5 607,-56.5"/>
<text text-anchor="middle" x="631.5" y="-63.5" font-family="Helvetica,sans-Serif" font-size="10.00">cctype</text>
</a>
</g>
</g>
<!-- Node7&#45;&gt;Node10 -->
<g id="edge9" class="edge">
<title>Node7&#45;&gt;Node10</title>
<path fill="none" stroke="midnightblue" d="M577.78,-112.32C587.34,-104.26 601.78,-92.08 613.28,-82.37"/>
<polygon fill="midnightblue" stroke="midnightblue" points="615.64,-84.96 621.03,-75.83 611.13,-79.61 615.64,-84.96"/>
</g>
<!-- Node11 -->
<g id="node11" class="node">
<title>Node11</title>
<g id="a_node11"><a xlink:title=" ">
<polygon fill="white" stroke="#bfbfbf" points="674,-56.5 674,-75.5 747,-75.5 747,-56.5 674,-56.5"/>
<text text-anchor="middle" x="710.5" y="-63.5" font-family="Helvetica,sans-Serif" font-size="10.00">string_view</text>
</a>
</g>
</g>
<!-- Node7&#45;&gt;Node11 -->
<g id="edge11" class="edge">
<title>Node7&#45;&gt;Node11</title>
<path fill="none" stroke="midnightblue" d="M590.16,-112.44C613.9,-103.48 651.41,-89.31 678.24,-79.18"/>
<polygon fill="midnightblue" stroke="midnightblue" points="679.83,-82.32 687.95,-75.52 677.36,-75.77 679.83,-82.32"/>
</g>
<!-- Node12 -->
<g id="node12" class="node">
<title>Node12</title>
<g id="a_node12"><a xlink:title=" ">
<polygon fill="white" stroke="#bfbfbf" points="377,-56.5 377,-75.5 446,-75.5 446,-56.5 377,-56.5"/>
<text text-anchor="middle" x="411.5" y="-63.5" font-family="Helvetica,sans-Serif" font-size="10.00">type_traits</text>
</a>
</g>
</g>
<!-- Node7&#45;&gt;Node12 -->
<g id="edge12" class="edge">
<title>Node7&#45;&gt;Node12</title>
<path fill="none" stroke="midnightblue" d="M542.78,-112.44C516.65,-103.4 475.24,-89.06 445.92,-78.92"/>
<polygon fill="midnightblue" stroke="midnightblue" points="446.7,-75.48 436.1,-75.52 444.41,-82.1 446.7,-75.48"/>
</g>
<!-- Node16&#45;&gt;Node2 -->
<g id="edge19" class="edge">
<title>Node16&#45;&gt;Node2</title>
<path fill="none" stroke="midnightblue" d="M654.25,-302.48C667.28,-293.02 688.54,-277.6 704.26,-266.19"/>
<polygon fill="midnightblue" stroke="midnightblue" points="706.73,-268.71 712.77,-260.01 702.62,-263.05 706.73,-268.71"/>
</g>
<!-- Node16&#45;&gt;Node4 -->
<g id="edge30" class="edge">
<title>Node16&#45;&gt;Node4</title>
<path fill="none" stroke="midnightblue" d="M640.27,-302.14C633.15,-271.59 614.14,-169.33 662.5,-112 671.04,-101.88 748.52,-83.67 793.52,-73.8"/>
<polygon fill="midnightblue" stroke="midnightblue" points="794.36,-77.2 803.39,-71.65 792.88,-70.36 794.36,-77.2"/>
</g>
<!-- Node17 -->
<g id="node17" class="node">
<title>Node17</title>
<g id="a_node17"><a xlink:href="blit__serialiser_8h.html" target="_top" xlink:title=" ">
<polygon fill="white" stroke="black" points="369,-235.5 369,-265.5 468,-265.5 468,-235.5 369,-235.5"/>
<text text-anchor="start" x="377" y="-253.5" font-family="Helvetica,sans-Serif" font-size="10.00">ccf/kv/serialisers</text>
<text text-anchor="middle" x="418.5" y="-242.5" font-family="Helvetica,sans-Serif" font-size="10.00">/blit_serialiser.h</text>
</a>
</g>
</g>
<!-- Node16&#45;&gt;Node17 -->
<g id="edge20" class="edge">
<title>Node16&#45;&gt;Node17</title>
<path fill="none" stroke="midnightblue" d="M610.41,-302.48C575.95,-293.32 520.45,-278.58 477.97,-267.3"/>
<polygon fill="midnightblue" stroke="midnightblue" points="478.86,-263.91 468.3,-264.73 477.06,-270.68 478.86,-263.91"/>
</g>
<!-- Node17&#45;&gt;Node7 -->
<g id="edge21" class="edge">
<title>Node17&#45;&gt;Node7</title>
<path fill="none" stroke="midnightblue" d="M435.01,-235.48C463.15,-211.59 520.17,-163.19 549.37,-138.39"/>
<polygon fill="midnightblue" stroke="midnightblue" points="551.79,-140.93 557.15,-131.79 547.26,-135.59 551.79,-140.93"/>
</g>
<!-- Node18 -->
<g id="node18" class="node">
<title>Node18</title>
<g id="a_node18"><a xlink:href="serialised__entry_8h.html" target="_top" xlink:title=" ">
<polygon fill="white" stroke="black" points="276,-168.5 276,-198.5 381,-198.5 381,-168.5 276,-168.5"/>
<text text-anchor="start" x="284" y="-186.5" font-family="Helvetica,sans-Serif" font-size="10.00">ccf/kv/serialisers</text>
<text text-anchor="middle" x="328.5" y="-175.5" font-family="Helvetica,sans-Serif" font-size="10.00">/serialised_entry.h</text>
</a>
</g>
</g>
<!-- Node17&#45;&gt;Node18 -->
<g id="edge22" class="edge">
<title>Node17&#45;&gt;Node18</title>
<path fill="none" stroke="midnightblue" d="M398.97,-235.4C386.47,-226.37 370.06,-214.51 356.22,-204.52"/>
<polygon fill="midnightblue" stroke="midnightblue" points="358.15,-201.59 347.99,-198.58 354.05,-207.27 358.15,-201.59"/>
</g>
<!-- Node19 -->
<g id="node19" class="node">
<title>Node19</title>
<g id="a_node19"><a xlink:href="byte__vector_8h.html" target="_top" xlink:title=" ">
<polygon fill="white" stroke="black" points="217.5,-112.5 217.5,-131.5 317.5,-131.5 317.5,-112.5 217.5,-112.5"/>
<text text-anchor="middle" x="267.5" y="-119.5" font-family="Helvetica,sans-Serif" font-size="10.00">ccf/byte_vector.h</text>
</a>
</g>
</g>
<!-- Node18&#45;&gt;Node19 -->
<g id="edge23" class="edge">
<title>Node18&#45;&gt;Node19</title>
<path fill="none" stroke="midnightblue" d="M314.04,-168.4C304.91,-159.49 293.08,-147.95 283.64,-138.74"/>
<polygon fill="midnightblue" stroke="midnightblue" points="285.98,-136.13 276.38,-131.66 281.09,-141.15 285.98,-136.13"/>
</g>
<!-- Node19&#45;&gt;Node13 -->
<g id="edge28" class="edge">
<title>Node19&#45;&gt;Node13</title>
<path fill="none" stroke="midnightblue" d="M276.09,-112.08C283.66,-104.22 294.88,-92.57 304.01,-83.08"/>
<polygon fill="midnightblue" stroke="midnightblue" points="306.66,-85.38 311.07,-75.75 301.62,-80.53 306.66,-85.38"/>
</g>
<!-- Node20 -->
<g id="node20" class="node">
<title>Node20</title>
<g id="a_node20"><a xlink:href="siphash_8h.html" target="_top" xlink:title=" ">
<polygon fill="white" stroke="black" points="167,-56.5 167,-75.5 262,-75.5 262,-56.5 167,-56.5"/>
<text text-anchor="middle" x="214.5" y="-63.5" font-family="Helvetica,sans-Serif" font-size="10.00">ccf/ds/siphash.h</text>
</a>
</g>
</g>
<!-- Node19&#45;&gt;Node20 -->
<g id="edge24" class="edge">
<title>Node19&#45;&gt;Node20</title>
<path fill="none" stroke="midnightblue" d="M258.75,-112.08C251.03,-104.22 239.6,-92.57 230.28,-83.08"/>
<polygon fill="midnightblue" stroke="midnightblue" points="232.59,-80.44 223.09,-75.75 227.6,-85.34 232.59,-80.44"/>
</g>
<!-- Node23 -->
<g id="node23" class="node">
<title>Node23</title>
<g id="a_node23"><a xlink:title=" ">
<polygon fill="white" stroke="#bfbfbf" points="0,-56.5 0,-75.5 149,-75.5 149,-56.5 0,-56.5"/>
<text text-anchor="middle" x="74.5" y="-63.5" font-family="Helvetica,sans-Serif" font-size="10.00">small_vector/SmallVector.h</text>
</a>
</g>
</g>
<!-- Node19&#45;&gt;Node23 -->
<g id="edge29" class="edge">
<title>Node19&#45;&gt;Node23</title>
<path fill="none" stroke="midnightblue" d="M236.92,-112.44C203.89,-103.2 151.11,-88.44 114.73,-78.26"/>
<polygon fill="midnightblue" stroke="midnightblue" points="115.51,-74.84 104.94,-75.52 113.63,-81.58 115.51,-74.84"/>
</g>
<!-- Node20&#45;&gt;Node5 -->
<g id="edge27" class="edge">
<title>Node20&#45;&gt;Node5</title>
<path fill="none" stroke="midnightblue" d="M262.13,-57.11C264.96,-56.72 267.76,-56.34 270.5,-56 447.29,-33.94 660.22,-18.63 741.62,-13.19"/>
<polygon fill="midnightblue" stroke="midnightblue" points="742.03,-16.67 751.77,-12.52 741.56,-9.69 742.03,-16.67"/>
</g>
<!-- Node21 -->
<g id="node21" class="node">
<title>Node21</title>
<g id="a_node21"><a xlink:title=" ">
<polygon fill="white" stroke="#bfbfbf" points="223,-0.5 223,-19.5 276,-19.5 276,-0.5 223,-0.5"/>
<text text-anchor="middle" x="249.5" y="-7.5" font-family="Helvetica,sans-Serif" font-size="10.00">cstddef</text>
</a>
</g>
</g>
<!-- Node20&#45;&gt;Node21 -->
<g id="edge25" class="edge">
<title>Node20&#45;&gt;Node21</title>
<path fill="none" stroke="midnightblue" d="M220.28,-56.08C225.17,-48.53 232.33,-37.49 238.33,-28.23"/>
<polygon fill="midnightblue" stroke="midnightblue" points="241.33,-30.05 243.83,-19.75 235.45,-26.24 241.33,-30.05"/>
</g>
<!-- Node22 -->
<g id="node22" class="node">
<title>Node22</title>
<g id="a_node22"><a xlink:title=" ">
<polygon fill="white" stroke="#bfbfbf" points="154.5,-0.5 154.5,-19.5 204.5,-19.5 204.5,-0.5 154.5,-0.5"/>
<text text-anchor="middle" x="179.5" y="-7.5" font-family="Helvetica,sans-Serif" font-size="10.00">cstdint</text>
</a>
</g>
</g>
<!-- Node20&#45;&gt;Node22 -->
<g id="edge26" class="edge">
<title>Node20&#45;&gt;Node22</title>
<path fill="none" stroke="midnightblue" d="M208.72,-56.08C203.83,-48.53 196.67,-37.49 190.67,-28.23"/>
<polygon fill="midnightblue" stroke="midnightblue" points="193.55,-26.24 185.17,-19.75 187.67,-30.05 193.55,-26.24"/>
</g>
</g>
</svg>
        <g id="navigator" transform="translate(0 0)" fill="#404254">
                <rect fill="#f2f5e9" fill-opacity="0.5" stroke="#606060" stroke-width=".5" x="0" y="0" width="60" height="60"/>
                <use id="zoomplus" xlink:href="#zoomPlus" x="17" y="9" onmousedown="handleZoom(evt,'in')"/>
                <use id="zoomminus" xlink:href="#zoomMin" x="42" y="9" onmousedown="handleZoom(evt,'out')"/>
                <use id="reset" xlink:href="#resetDef" x="30" y="36" onmousedown="handleReset()"/>
                <g id="arrowUp" xlink:href="#dirArrow" transform="translate(30 24)" onmousedown="handlePan(0,-1)">
                  <use xlink:href="#rim" fill="#404040">
                        <set attributeName="fill" to="#808080" begin="arrowUp.mouseover" end="arrowUp.mouseout"/>
                  </use>
                  <path fill="none" stroke="white" stroke-width="1.5" d="M0,-3.0v7 M-2.5,-0.5L0,-3.0L2.5,-0.5"/>
                </g>
                <g id="arrowRight" xlink:href="#dirArrow" transform="rotate(90) translate(36 -43)" onmousedown="handlePan(1,0)">
                  <use xlink:href="#rim" fill="#404040">
                        <set attributeName="fill" to="#808080" begin="arrowRight.mouseover" end="arrowRight.mouseout"/>
                  </use>
                  <path fill="none" stroke="white" stroke-width="1.5" d="M0,-3.0v7 M-2.5,-0.5L0,-3.0L2.5,-0.5"/>
                </g>
                <g id="arrowDown" xlink:href="#dirArrow" transform="rotate(180) translate(-30 -48)" onmousedown="handlePan(0,1)">
                  <use xlink:href="#rim" fill="#404040">
                        <set attributeName="fill" to="#808080" begin="arrowDown.mouseover" end="arrowDown.mouseout"/>
                  </use>
                  <path fill="none" stroke="white" stroke-width="1.5" d="M0,-3.0v7 M-2.5,-0.5L0,-3.0L2.5,-0.5"/>
                </g>
                <g id="arrowLeft" xlink:href="#dirArrow" transform="rotate(270) translate(-36 17)" onmousedown="handlePan(-1,0)">
                  <use xlink:href="#rim" fill="#404040">
                        <set attributeName="fill" to="#808080" begin="arrowLeft.mouseover" end="arrowLeft.mouseout"/>
                  </use>
                  <path fill="none" stroke="white" stroke-width="1.5" d="M0,-3.0v7 M-2.5,-0.5L0,-3.0L2.5,-0.5"/>
                </g>
        </g>
        <svg viewBox="0 0 15 15" width="100%" height="30px" preserveAspectRatio="xMaxYMin meet">
         <g id="arrow_out" transform="scale(0.3 0.3)">
          <a xlink:href="include_2ccf_2receipt_8h__incl_org.svg" target="_base">
           <rect id="button" ry="5" rx="5" y="6" x="6" height="38" width="38"
                fill="#f2f5e9" fill-opacity="0.5" stroke="#606060" stroke-width="1.0"/>
           <path id="arrow"
             d="M 11.500037,31.436501 C 11.940474,20.09759 22.043105,11.32322 32.158766,21.979434 L 37.068811,17.246167 C 37.068811,17.246167 37.088388,32 37.088388,32 L 22.160133,31.978069 C 22.160133,31.978069 26.997745,27.140456 26.997745,27.140456 C 18.528582,18.264221 13.291696,25.230495 11.500037,31.436501 z"
             style="fill:#404040;"/>
          </a>
         </g>
        </svg>
</svg>
