<?xml version="1.0" encoding="UTF-8" standalone="no"?>
<!DOCTYPE svg PUBLIC "-//W3C//DTD SVG 1.1//EN"
 "http://www.w3.org/Graphics/SVG/1.1/DTD/svg11.dtd">
<!-- Generated by graphviz version 2.43.0 (0)
 -->
<!-- Title: include/ccf/indexing/indexer_interface.h Pages: 1 -->
<!--zoomable 386 -->
<svg id="main" version="1.1" xmlns="http://www.w3.org/2000/svg" xmlns:xlink="http://www.w3.org/1999/xlink" xml:space="preserve" onload="init(evt)">
<style type="text/css"><![CDATA[
.edge:hover path { stroke: red; }
.edge:hover polygon { stroke: red; fill: red; }
]]></style>
<script type="text/javascript"><![CDATA[
var edges = document.getElementsByTagName('g');
if (edges && edges.length) {
  for (var i=0;i<edges.length;i++) {
    if (edges[i].id.substr(0,4)=='edge') {
      edges[i].setAttribute('class','edge');
    }
  }
}
]]></script>
        <defs>
                <circle id="rim" cx="0" cy="0" r="7"/>
                <circle id="rim2" cx="0" cy="0" r="3.5"/>
                <g id="zoomPlus">
                        <use xlink:href="#rim" fill="#404040">
                                <set attributeName="fill" to="#808080" begin="zoomplus.mouseover" end="zoomplus.mouseout"/>
                        </use>
                        <path d="M-4,0h8M0,-4v8" fill="none" stroke="white" stroke-width="1.5" pointer-events="none"/>
                </g>
                <g id="zoomMin">
                        <use xlink:href="#rim" fill="#404040">
                                <set attributeName="fill" to="#808080" begin="zoomminus.mouseover" end="zoomminus.mouseout"/>
                        </use>
                        <path d="M-4,0h8" fill="none" stroke="white" stroke-width="1.5" pointer-events="none"/>
                </g>
                <g id="dirArrow">
                        <path fill="none" stroke="white" stroke-width="1.5" d="M0,-3.0v7 M-2.5,-0.5L0,-3.0L2.5,-0.5"/>
                </g>
               <g id="resetDef">
                       <use xlink:href="#rim2" fill="#404040">
                               <set attributeName="fill" to="#808080" begin="reset.mouseover" end="reset.mouseout"/>
                       </use>
               </g>
        </defs>

<script type="text/javascript">
var viewWidth = 889;
var viewHeight = 386;
var sectionId = 'dynsection-0';
</script>
<script xlink:href="svgpan.js"/>
<svg id="graph" class="graph">
<g id="viewport">
<title>include/ccf/indexing/indexer_interface.h</title>
<polygon fill="white" stroke="transparent" points="-4,4 -4,-382 885,-382 885,4 -4,4"/>
<!-- Node1 -->
<g id="node1" class="node">
<title>Node1</title>
<g id="a_node1"><a xlink:title=" ">
<polygon fill="#bfbfbf" stroke="black" points="660,-347.5 660,-377.5 774,-377.5 774,-347.5 660,-347.5"/>
<text text-anchor="start" x="668" y="-365.5" font-family="Helvetica,sans-Serif" font-size="10.00">include/ccf/indexing</text>
<text text-anchor="middle" x="717" y="-354.5" font-family="Helvetica,sans-Serif" font-size="10.00">/indexer_interface.h</text>
</a>
</g>
</g>
<!-- Node2 -->
<g id="node2" class="node">
<title>Node2</title>
<g id="a_node2"><a xlink:href="strategy_8h.html" target="_top" xlink:title=" ">
<polygon fill="white" stroke="black" points="207.5,-286 207.5,-305 334.5,-305 334.5,-286 207.5,-286"/>
<text text-anchor="middle" x="271" y="-293" font-family="Helvetica,sans-Serif" font-size="10.00">ccf/indexing/strategy.h</text>
</a>
</g>
</g>
<!-- Node1&#45;&gt;Node2 -->
<g id="edge1" class="edge">
<title>Node1&#45;&gt;Node2</title>
<path fill="none" stroke="midnightblue" d="M659.61,-353.14C577.68,-341.2 427.45,-319.3 339.71,-306.51"/>
<polygon fill="midnightblue" stroke="midnightblue" points="339.99,-303.02 329.59,-305.04 338.98,-309.94 339.99,-303.02"/>
</g>
<!-- Node4 -->
<g id="node4" class="node">
<title>Node4</title>
<g id="a_node4"><a xlink:title=" ">
<polygon fill="white" stroke="#bfbfbf" points="649,-168.5 649,-187.5 707,-187.5 707,-168.5 649,-168.5"/>
<text text-anchor="middle" x="678" y="-175.5" font-family="Helvetica,sans-Serif" font-size="10.00">memory</text>
</a>
</g>
</g>
<!-- Node1&#45;&gt;Node4 -->
<g id="edge33" class="edge">
<title>Node1&#45;&gt;Node4</title>
<path fill="none" stroke="midnightblue" d="M687.31,-347.34C673.26,-338.92 657.86,-326.77 650,-311 631,-272.89 653.1,-222.35 667.51,-196.24"/>
<polygon fill="midnightblue" stroke="midnightblue" points="670.59,-197.92 672.56,-187.51 664.52,-194.42 670.59,-197.92"/>
</g>
<!-- Node23 -->
<g id="node23" class="node">
<title>Node23</title>
<g id="a_node23"><a xlink:href="node__subsystem__interface_8h.html" target="_top" xlink:title=" ">
<polygon fill="white" stroke="black" points="659,-280.5 659,-310.5 775,-310.5 775,-280.5 659,-280.5"/>
<text text-anchor="start" x="667" y="-298.5" font-family="Helvetica,sans-Serif" font-size="10.00">ccf/node_subsystem</text>
<text text-anchor="middle" x="717" y="-287.5" font-family="Helvetica,sans-Serif" font-size="10.00">_interface.h</text>
</a>
</g>
</g>
<!-- Node1&#45;&gt;Node23 -->
<g id="edge31" class="edge">
<title>Node1&#45;&gt;Node23</title>
<path fill="none" stroke="midnightblue" d="M717,-347.4C717,-339.64 717,-329.81 717,-320.86"/>
<polygon fill="midnightblue" stroke="midnightblue" points="720.5,-320.58 717,-310.58 713.5,-320.58 720.5,-320.58"/>
</g>
<!-- Node24 -->
<g id="node24" class="node">
<title>Node24</title>
<g id="a_node24"><a xlink:title=" ">
<polygon fill="white" stroke="#bfbfbf" points="793,-286 793,-305 831,-305 831,-286 793,-286"/>
<text text-anchor="middle" x="812" y="-293" font-family="Helvetica,sans-Serif" font-size="10.00">map</text>
</a>
</g>
</g>
<!-- Node1&#45;&gt;Node24 -->
<g id="edge32" class="edge">
<title>Node1&#45;&gt;Node24</title>
<path fill="none" stroke="midnightblue" d="M737.61,-347.4C753.4,-336.6 775.09,-321.76 790.97,-310.89"/>
<polygon fill="midnightblue" stroke="midnightblue" points="793.29,-313.54 799.57,-305.01 789.34,-307.77 793.29,-313.54"/>
</g>
<!-- Node25 -->
<g id="node25" class="node">
<title>Node25</title>
<g id="a_node25"><a xlink:title=" ">
<polygon fill="white" stroke="#bfbfbf" points="849,-286 849,-305 881,-305 881,-286 849,-286"/>
<text text-anchor="middle" x="865" y="-293" font-family="Helvetica,sans-Serif" font-size="10.00">set</text>
</a>
</g>
</g>
<!-- Node1&#45;&gt;Node25 -->
<g id="edge34" class="edge">
<title>Node1&#45;&gt;Node25</title>
<path fill="none" stroke="midnightblue" d="M755,-347.44C779.61,-337.96 812.15,-324.72 840,-311 840.68,-310.67 841.36,-310.32 842.04,-309.97"/>
<polygon fill="midnightblue" stroke="midnightblue" points="843.81,-312.99 850.9,-305.12 840.45,-306.85 843.81,-312.99"/>
</g>
<!-- Node3 -->
<g id="node3" class="node">
<title>Node3</title>
<g id="a_node3"><a xlink:href="store__ptr_8h.html" target="_top" xlink:title=" ">
<polygon fill="white" stroke="black" points="452,-224.5 452,-243.5 538,-243.5 538,-224.5 452,-224.5"/>
<text text-anchor="middle" x="495" y="-231.5" font-family="Helvetica,sans-Serif" font-size="10.00">ccf/store_ptr.h</text>
</a>
</g>
</g>
<!-- Node2&#45;&gt;Node3 -->
<g id="edge2" class="edge">
<title>Node2&#45;&gt;Node3</title>
<path fill="none" stroke="midnightblue" d="M303.09,-285.98C342.6,-275.48 409.78,-257.64 453.26,-246.09"/>
<polygon fill="midnightblue" stroke="midnightblue" points="454.2,-249.46 462.97,-243.51 452.4,-242.69 454.2,-249.46"/>
</g>
<!-- Node5 -->
<g id="node5" class="node">
<title>Node5</title>
<g id="a_node5"><a xlink:href="tx__id_8h.html" target="_top" xlink:title=" ">
<polygon fill="white" stroke="black" points="237.5,-224.5 237.5,-243.5 304.5,-243.5 304.5,-224.5 237.5,-224.5"/>
<text text-anchor="middle" x="271" y="-231.5" font-family="Helvetica,sans-Serif" font-size="10.00">ccf/tx_id.h</text>
</a>
</g>
</g>
<!-- Node2&#45;&gt;Node5 -->
<g id="edge4" class="edge">
<title>Node2&#45;&gt;Node5</title>
<path fill="none" stroke="midnightblue" d="M271,-285.98C271,-277.58 271,-264.48 271,-253.66"/>
<polygon fill="midnightblue" stroke="midnightblue" points="274.5,-253.51 271,-243.51 267.5,-253.51 274.5,-253.51"/>
</g>
<!-- Node8 -->
<g id="node8" class="node">
<title>Node8</title>
<g id="a_node8"><a xlink:title=" ">
<polygon fill="white" stroke="#bfbfbf" points="139,-0.5 139,-19.5 183,-19.5 183,-0.5 139,-0.5"/>
<text text-anchor="middle" x="161" y="-7.5" font-family="Helvetica,sans-Serif" font-size="10.00">string</text>
</a>
</g>
</g>
<!-- Node2&#45;&gt;Node8 -->
<g id="edge30" class="edge">
<title>Node2&#45;&gt;Node8</title>
<path fill="none" stroke="midnightblue" d="M207.46,-294.05C127.36,-289.73 0,-268.76 0,-179 0,-179 0,-179 0,-121 0,-59.16 81.99,-29.56 128.95,-17.68"/>
<polygon fill="midnightblue" stroke="midnightblue" points="130.04,-21.02 138.95,-15.28 128.41,-14.21 130.04,-21.02"/>
</g>
<!-- Node22 -->
<g id="node22" class="node">
<title>Node22</title>
<g id="a_node22"><a xlink:title=" ">
<polygon fill="white" stroke="#bfbfbf" points="28,-168.5 28,-187.5 84,-187.5 84,-168.5 28,-168.5"/>
<text text-anchor="middle" x="56" y="-175.5" font-family="Helvetica,sans-Serif" font-size="10.00">optional</text>
</a>
</g>
</g>
<!-- Node2&#45;&gt;Node22 -->
<g id="edge29" class="edge">
<title>Node2&#45;&gt;Node22</title>
<path fill="none" stroke="midnightblue" d="M254.84,-285.82C217.63,-265.83 125.67,-216.43 81.07,-192.47"/>
<polygon fill="midnightblue" stroke="midnightblue" points="82.52,-189.27 72.05,-187.62 79.21,-195.44 82.52,-189.27"/>
</g>
<!-- Node3&#45;&gt;Node4 -->
<g id="edge3" class="edge">
<title>Node3&#45;&gt;Node4</title>
<path fill="none" stroke="midnightblue" d="M524,-224.44C555.18,-215.24 604.93,-200.56 639.41,-190.39"/>
<polygon fill="midnightblue" stroke="midnightblue" points="640.54,-193.7 649.14,-187.52 638.56,-186.99 640.54,-193.7"/>
</g>
<!-- Node6 -->
<g id="node6" class="node">
<title>Node6</title>
<g id="a_node6"><a xlink:href="json_8h.html" target="_top" xlink:title=" ">
<polygon fill="white" stroke="black" points="326.5,-168.5 326.5,-187.5 403.5,-187.5 403.5,-168.5 326.5,-168.5"/>
<text text-anchor="middle" x="365" y="-175.5" font-family="Helvetica,sans-Serif" font-size="10.00">ccf/ds/json.h</text>
</a>
</g>
</g>
<!-- Node5&#45;&gt;Node6 -->
<g id="edge5" class="edge">
<title>Node5&#45;&gt;Node6</title>
<path fill="none" stroke="midnightblue" d="M286.1,-224.32C300.9,-215.82 323.69,-202.73 340.98,-192.8"/>
<polygon fill="midnightblue" stroke="midnightblue" points="343.01,-195.67 349.93,-187.65 339.52,-189.6 343.01,-195.67"/>
</g>
<!-- Node5&#45;&gt;Node8 -->
<g id="edge27" class="edge">
<title>Node5&#45;&gt;Node8</title>
<path fill="none" stroke="midnightblue" d="M237.47,-232.73C204.34,-230.45 155.21,-221.22 131,-188 95.41,-139.17 130.93,-62.79 150.27,-28.59"/>
<polygon fill="midnightblue" stroke="midnightblue" points="153.4,-30.16 155.44,-19.76 147.36,-26.62 153.4,-30.16"/>
</g>
<!-- Node15 -->
<g id="node15" class="node">
<title>Node15</title>
<g id="a_node15"><a xlink:title=" ">
<polygon fill="white" stroke="#bfbfbf" points="598.5,-0.5 598.5,-19.5 671.5,-19.5 671.5,-0.5 598.5,-0.5"/>
<text text-anchor="middle" x="635" y="-7.5" font-family="Helvetica,sans-Serif" font-size="10.00">string_view</text>
</a>
</g>
</g>
<!-- Node5&#45;&gt;Node15 -->
<g id="edge28" class="edge">
<title>Node5&#45;&gt;Node15</title>
<path fill="none" stroke="midnightblue" d="M304.5,-233.02C351.89,-231.67 439.87,-223.99 504,-188 569.54,-151.22 611.67,-66.54 627.7,-29.23"/>
<polygon fill="midnightblue" stroke="midnightblue" points="631.07,-30.23 631.68,-19.65 624.61,-27.54 631.07,-30.23"/>
</g>
<!-- Node17 -->
<g id="node17" class="node">
<title>Node17</title>
<g id="a_node17"><a xlink:title=" ">
<polygon fill="white" stroke="#bfbfbf" points="148.5,-56.5 148.5,-75.5 227.5,-75.5 227.5,-56.5 148.5,-56.5"/>
<text text-anchor="middle" x="188" y="-63.5" font-family="Helvetica,sans-Serif" font-size="10.00">fmt/format.h</text>
</a>
</g>
</g>
<!-- Node5&#45;&gt;Node17 -->
<g id="edge24" class="edge">
<title>Node5&#45;&gt;Node17</title>
<path fill="none" stroke="midnightblue" d="M274.64,-224.27C279.4,-211.48 286.34,-187.11 279,-168 271.32,-148.01 228.8,-105.6 204.69,-82.61"/>
<polygon fill="midnightblue" stroke="midnightblue" points="206.97,-79.95 197.3,-75.62 202.16,-85.03 206.97,-79.95"/>
</g>
<!-- Node18 -->
<g id="node18" class="node">
<title>Node18</title>
<g id="a_node18"><a xlink:title=" ">
<polygon fill="white" stroke="#bfbfbf" points="483,-56.5 483,-75.5 593,-75.5 593,-56.5 483,-56.5"/>
<text text-anchor="middle" x="538" y="-63.5" font-family="Helvetica,sans-Serif" font-size="10.00">nlohmann/json.hpp</text>
</a>
</g>
</g>
<!-- Node5&#45;&gt;Node18 -->
<g id="edge25" class="edge">
<title>Node5&#45;&gt;Node18</title>
<path fill="none" stroke="midnightblue" d="M304.86,-232.07C364.47,-228.35 486.69,-210.96 538,-132 546.83,-118.41 545.75,-99.61 543.11,-85.73"/>
<polygon fill="midnightblue" stroke="midnightblue" points="546.48,-84.78 540.81,-75.84 539.66,-86.37 546.48,-84.78"/>
</g>
<!-- Node20 -->
<g id="node20" class="node">
<title>Node20</title>
<g id="a_node20"><a xlink:title=" ">
<polygon fill="white" stroke="#bfbfbf" points="140.5,-168.5 140.5,-187.5 201.5,-187.5 201.5,-168.5 140.5,-168.5"/>
<text text-anchor="middle" x="171" y="-175.5" font-family="Helvetica,sans-Serif" font-size="10.00">charconv</text>
</a>
</g>
</g>
<!-- Node5&#45;&gt;Node20 -->
<g id="edge22" class="edge">
<title>Node5&#45;&gt;Node20</title>
<path fill="none" stroke="midnightblue" d="M254.93,-224.32C239.04,-215.74 214.49,-202.49 196.04,-192.52"/>
<polygon fill="midnightblue" stroke="midnightblue" points="197.49,-189.33 187.03,-187.65 194.16,-195.49 197.49,-189.33"/>
</g>
<!-- Node21 -->
<g id="node21" class="node">
<title>Node21</title>
<g id="a_node21"><a xlink:title=" ">
<polygon fill="white" stroke="#bfbfbf" points="220,-168.5 220,-187.5 270,-187.5 270,-168.5 220,-168.5"/>
<text text-anchor="middle" x="245" y="-175.5" font-family="Helvetica,sans-Serif" font-size="10.00">cstdint</text>
</a>
</g>
</g>
<!-- Node5&#45;&gt;Node21 -->
<g id="edge23" class="edge">
<title>Node5&#45;&gt;Node21</title>
<path fill="none" stroke="midnightblue" d="M266.71,-224.08C263.15,-216.69 257.98,-205.95 253.58,-196.81"/>
<polygon fill="midnightblue" stroke="midnightblue" points="256.71,-195.24 249.21,-187.75 250.4,-198.28 256.71,-195.24"/>
</g>
<!-- Node5&#45;&gt;Node22 -->
<g id="edge26" class="edge">
<title>Node5&#45;&gt;Node22</title>
<path fill="none" stroke="midnightblue" d="M237.41,-224.56C198.54,-214.8 134.68,-198.76 94.03,-188.55"/>
<polygon fill="midnightblue" stroke="midnightblue" points="94.77,-185.13 84.22,-186.09 93.06,-191.92 94.77,-185.13"/>
</g>
<!-- Node7 -->
<g id="node7" class="node">
<title>Node7</title>
<g id="a_node7"><a xlink:href="include_2ccf_2crypto_2base64_8h.html" target="_top" xlink:title=" ">
<polygon fill="white" stroke="black" points="245,-56.5 245,-75.5 357,-75.5 357,-56.5 245,-56.5"/>
<text text-anchor="middle" x="301" y="-63.5" font-family="Helvetica,sans-Serif" font-size="10.00">ccf/crypto/base64.h</text>
</a>
</g>
</g>
<!-- Node6&#45;&gt;Node7 -->
<g id="edge6" class="edge">
<title>Node6&#45;&gt;Node7</title>
<path fill="none" stroke="midnightblue" d="M355,-168.24C345.84,-159.76 332.47,-146.15 324,-132 315.35,-117.56 309.27,-99.37 305.53,-85.91"/>
<polygon fill="midnightblue" stroke="midnightblue" points="308.84,-84.7 302.95,-75.9 302.06,-86.45 308.84,-84.7"/>
</g>
<!-- Node10 -->
<g id="node10" class="node">
<title>Node10</title>
<g id="a_node10"><a xlink:href="include_2ccf_2ds_2json__schema_8h.html" target="_top" xlink:title=" ">
<polygon fill="white" stroke="black" points="407.5,-112.5 407.5,-131.5 528.5,-131.5 528.5,-112.5 407.5,-112.5"/>
<text text-anchor="middle" x="468" y="-119.5" font-family="Helvetica,sans-Serif" font-size="10.00">ccf/ds/json_schema.h</text>
</a>
</g>
</g>
<!-- Node6&#45;&gt;Node10 -->
<g id="edge9" class="edge">
<title>Node6&#45;&gt;Node10</title>
<path fill="none" stroke="midnightblue" d="M381.55,-168.32C397.99,-159.7 423.43,-146.36 442.47,-136.39"/>
<polygon fill="midnightblue" stroke="midnightblue" points="444.26,-139.4 451.49,-131.65 441.01,-133.2 444.26,-139.4"/>
</g>
<!-- Node6&#45;&gt;Node17 -->
<g id="edge20" class="edge">
<title>Node6&#45;&gt;Node17</title>
<path fill="none" stroke="midnightblue" d="M351.11,-168.37C320.61,-149.41 247.54,-104 210.43,-80.94"/>
<polygon fill="midnightblue" stroke="midnightblue" points="212.17,-77.9 201.82,-75.59 208.47,-83.84 212.17,-77.9"/>
</g>
<!-- Node19 -->
<g id="node19" class="node">
<title>Node19</title>
<g id="a_node19"><a xlink:title=" ">
<polygon fill="white" stroke="#bfbfbf" points="333,-112.5 333,-131.5 389,-131.5 389,-112.5 333,-112.5"/>
<text text-anchor="middle" x="361" y="-119.5" font-family="Helvetica,sans-Serif" font-size="10.00">sstream</text>
</a>
</g>
</g>
<!-- Node6&#45;&gt;Node19 -->
<g id="edge21" class="edge">
<title>Node6&#45;&gt;Node19</title>
<path fill="none" stroke="midnightblue" d="M364.34,-168.08C363.82,-161.01 363.06,-150.86 362.41,-141.99"/>
<polygon fill="midnightblue" stroke="midnightblue" points="365.88,-141.47 361.65,-131.75 358.9,-141.98 365.88,-141.47"/>
</g>
<!-- Node7&#45;&gt;Node8 -->
<g id="edge7" class="edge">
<title>Node7&#45;&gt;Node8</title>
<path fill="none" stroke="midnightblue" d="M278.82,-56.44C255.57,-47.48 218.85,-33.31 192.58,-23.18"/>
<polygon fill="midnightblue" stroke="midnightblue" points="193.67,-19.85 183.08,-19.52 191.15,-26.38 193.67,-19.85"/>
</g>
<!-- Node9 -->
<g id="node9" class="node">
<title>Node9</title>
<g id="a_node9"><a xlink:title=" ">
<polygon fill="white" stroke="#bfbfbf" points="236.5,-0.5 236.5,-19.5 283.5,-19.5 283.5,-0.5 236.5,-0.5"/>
<text text-anchor="middle" x="260" y="-7.5" font-family="Helvetica,sans-Serif" font-size="10.00">vector</text>
</a>
</g>
</g>
<!-- Node7&#45;&gt;Node9 -->
<g id="edge8" class="edge">
<title>Node7&#45;&gt;Node9</title>
<path fill="none" stroke="midnightblue" d="M294.23,-56.08C288.44,-48.46 279.94,-37.26 272.86,-27.94"/>
<polygon fill="midnightblue" stroke="midnightblue" points="275.48,-25.6 266.64,-19.75 269.9,-29.83 275.48,-25.6"/>
</g>
<!-- Node11 -->
<g id="node11" class="node">
<title>Node11</title>
<g id="a_node11"><a xlink:href="nonstd_8h.html" target="_top" xlink:title=" ">
<polygon fill="white" stroke="black" points="375,-56.5 375,-75.5 465,-75.5 465,-56.5 375,-56.5"/>
<text text-anchor="middle" x="420" y="-63.5" font-family="Helvetica,sans-Serif" font-size="10.00">ccf/ds/nonstd.h</text>
</a>
</g>
</g>
<!-- Node10&#45;&gt;Node11 -->
<g id="edge10" class="edge">
<title>Node10&#45;&gt;Node11</title>
<path fill="none" stroke="midnightblue" d="M460.07,-112.08C453.15,-104.3 442.93,-92.8 434.55,-83.37"/>
<polygon fill="midnightblue" stroke="midnightblue" points="437.04,-80.9 427.78,-75.75 431.81,-85.55 437.04,-80.9"/>
</g>
<!-- Node10&#45;&gt;Node17 -->
<g id="edge18" class="edge">
<title>Node10&#45;&gt;Node17</title>
<path fill="none" stroke="midnightblue" d="M423.63,-112.44C373.04,-102.69 290.51,-86.77 237.77,-76.6"/>
<polygon fill="midnightblue" stroke="midnightblue" points="238.11,-73.1 227.63,-74.64 236.79,-79.97 238.11,-73.1"/>
</g>
<!-- Node10&#45;&gt;Node18 -->
<g id="edge19" class="edge">
<title>Node10&#45;&gt;Node18</title>
<path fill="none" stroke="midnightblue" d="M479.25,-112.32C489.8,-104.18 505.8,-91.84 518.44,-82.09"/>
<polygon fill="midnightblue" stroke="midnightblue" points="520.77,-84.71 526.55,-75.83 516.49,-79.17 520.77,-84.71"/>
</g>
<!-- Node11&#45;&gt;Node8 -->
<g id="edge14" class="edge">
<title>Node11&#45;&gt;Node8</title>
<path fill="none" stroke="midnightblue" d="M378.96,-56.44C327.38,-45.69 239.92,-27.45 193,-17.67"/>
<polygon fill="midnightblue" stroke="midnightblue" points="193.59,-14.22 183.09,-15.6 192.16,-21.07 193.59,-14.22"/>
</g>
<!-- Node11&#45;&gt;Node9 -->
<g id="edge17" class="edge">
<title>Node11&#45;&gt;Node9</title>
<path fill="none" stroke="midnightblue" d="M394.65,-56.44C367.26,-47.2 323.49,-32.43 293.33,-22.25"/>
<polygon fill="midnightblue" stroke="midnightblue" points="294.26,-18.87 283.67,-18.99 292.02,-25.5 294.26,-18.87"/>
</g>
<!-- Node12 -->
<g id="node12" class="node">
<title>Node12</title>
<g id="a_node12"><a xlink:title=" ">
<polygon fill="white" stroke="#bfbfbf" points="302,-0.5 302,-19.5 366,-19.5 366,-0.5 302,-0.5"/>
<text text-anchor="middle" x="334" y="-7.5" font-family="Helvetica,sans-Serif" font-size="10.00">algorithm</text>
</a>
</g>
</g>
<!-- Node11&#45;&gt;Node12 -->
<g id="edge11" class="edge">
<title>Node11&#45;&gt;Node12</title>
<path fill="none" stroke="midnightblue" d="M406.18,-56.32C392.77,-47.9 372.18,-34.97 356.41,-25.07"/>
<polygon fill="midnightblue" stroke="midnightblue" points="358.11,-22.01 347.78,-19.65 354.39,-27.94 358.11,-22.01"/>
</g>
<!-- Node13 -->
<g id="node13" class="node">
<title>Node13</title>
<g id="a_node13"><a xlink:title=" ">
<polygon fill="white" stroke="#bfbfbf" points="384,-0.5 384,-19.5 426,-19.5 426,-0.5 384,-0.5"/>
<text text-anchor="middle" x="405" y="-7.5" font-family="Helvetica,sans-Serif" font-size="10.00">array</text>
</a>
</g>
</g>
<!-- Node11&#45;&gt;Node13 -->
<g id="edge12" class="edge">
<title>Node11&#45;&gt;Node13</title>
<path fill="none" stroke="midnightblue" d="M417.52,-56.08C415.51,-48.85 412.61,-38.41 410.11,-29.4"/>
<polygon fill="midnightblue" stroke="midnightblue" points="413.48,-28.45 407.43,-19.75 406.74,-30.32 413.48,-28.45"/>
</g>
<!-- Node14 -->
<g id="node14" class="node">
<title>Node14</title>
<g id="a_node14"><a xlink:title=" ">
<polygon fill="white" stroke="#bfbfbf" points="444.5,-0.5 444.5,-19.5 493.5,-19.5 493.5,-0.5 444.5,-0.5"/>
<text text-anchor="middle" x="469" y="-7.5" font-family="Helvetica,sans-Serif" font-size="10.00">cctype</text>
</a>
</g>
</g>
<!-- Node11&#45;&gt;Node14 -->
<g id="edge13" class="edge">
<title>Node11&#45;&gt;Node14</title>
<path fill="none" stroke="midnightblue" d="M428.09,-56.08C435.16,-48.3 445.59,-36.8 454.15,-27.37"/>
<polygon fill="midnightblue" stroke="midnightblue" points="456.93,-29.51 461.06,-19.75 451.75,-24.8 456.93,-29.51"/>
</g>
<!-- Node11&#45;&gt;Node15 -->
<g id="edge15" class="edge">
<title>Node11&#45;&gt;Node15</title>
<path fill="none" stroke="midnightblue" d="M454.07,-56.44C491.18,-47.12 550.66,-32.18 591.21,-22"/>
<polygon fill="midnightblue" stroke="midnightblue" points="592.25,-25.35 601.09,-19.52 590.54,-18.56 592.25,-25.35"/>
</g>
<!-- Node16 -->
<g id="node16" class="node">
<title>Node16</title>
<g id="a_node16"><a xlink:title=" ">
<polygon fill="white" stroke="#bfbfbf" points="511.5,-0.5 511.5,-19.5 580.5,-19.5 580.5,-0.5 511.5,-0.5"/>
<text text-anchor="middle" x="546" y="-7.5" font-family="Helvetica,sans-Serif" font-size="10.00">type_traits</text>
</a>
</g>
</g>
<!-- Node11&#45;&gt;Node16 -->
<g id="edge16" class="edge">
<title>Node11&#45;&gt;Node16</title>
<path fill="none" stroke="midnightblue" d="M439.97,-56.44C460.61,-47.6 493.06,-33.69 516.63,-23.59"/>
<polygon fill="midnightblue" stroke="midnightblue" points="518.32,-26.67 526.13,-19.52 515.56,-20.24 518.32,-26.67"/>
</g>
</g>
</svg>
        <g id="navigator" transform="translate(0 0)" fill="#404254">
                <rect fill="#f2f5e9" fill-opacity="0.5" stroke="#606060" stroke-width=".5" x="0" y="0" width="60" height="60"/>
                <use id="zoomplus" xlink:href="#zoomPlus" x="17" y="9" onmousedown="handleZoom(evt,'in')"/>
                <use id="zoomminus" xlink:href="#zoomMin" x="42" y="9" onmousedown="handleZoom(evt,'out')"/>
                <use id="reset" xlink:href="#resetDef" x="30" y="36" onmousedown="handleReset()"/>
                <g id="arrowUp" xlink:href="#dirArrow" transform="translate(30 24)" onmousedown="handlePan(0,-1)">
                  <use xlink:href="#rim" fill="#404040">
                        <set attributeName="fill" to="#808080" begin="arrowUp.mouseover" end="arrowUp.mouseout"/>
                  </use>
                  <path fill="none" stroke="white" stroke-width="1.5" d="M0,-3.0v7 M-2.5,-0.5L0,-3.0L2.5,-0.5"/>
                </g>
                <g id="arrowRight" xlink:href="#dirArrow" transform="rotate(90) translate(36 -43)" onmousedown="handlePan(1,0)">
                  <use xlink:href="#rim" fill="#404040">
                        <set attributeName="fill" to="#808080" begin="arrowRight.mouseover" end="arrowRight.mouseout"/>
                  </use>
                  <path fill="none" stroke="white" stroke-width="1.5" d="M0,-3.0v7 M-2.5,-0.5L0,-3.0L2.5,-0.5"/>
                </g>
                <g id="arrowDown" xlink:href="#dirArrow" transform="rotate(180) translate(-30 -48)" onmousedown="handlePan(0,1)">
                  <use xlink:href="#rim" fill="#404040">
                        <set attributeName="fill" to="#808080" begin="arrowDown.mouseover" end="arrowDown.mouseout"/>
                  </use>
                  <path fill="none" stroke="white" stroke-width="1.5" d="M0,-3.0v7 M-2.5,-0.5L0,-3.0L2.5,-0.5"/>
                </g>
                <g id="arrowLeft" xlink:href="#dirArrow" transform="rotate(270) translate(-36 17)" onmousedown="handlePan(-1,0)">
                  <use xlink:href="#rim" fill="#404040">
                        <set attributeName="fill" to="#808080" begin="arrowLeft.mouseover" end="arrowLeft.mouseout"/>
                  </use>
                  <path fill="none" stroke="white" stroke-width="1.5" d="M0,-3.0v7 M-2.5,-0.5L0,-3.0L2.5,-0.5"/>
                </g>
        </g>
        <svg viewBox="0 0 15 15" width="100%" height="30px" preserveAspectRatio="xMaxYMin meet">
         <g id="arrow_out" transform="scale(0.3 0.3)">
          <a xlink:href="indexer__interface_8h__incl_org.svg" target="_base">
           <rect id="button" ry="5" rx="5" y="6" x="6" height="38" width="38"
                fill="#f2f5e9" fill-opacity="0.5" stroke="#606060" stroke-width="1.0"/>
           <path id="arrow"
             d="M 11.500037,31.436501 C 11.940474,20.09759 22.043105,11.32322 32.158766,21.979434 L 37.068811,17.246167 C 37.068811,17.246167 37.088388,32 37.088388,32 L 22.160133,31.978069 C 22.160133,31.978069 26.997745,27.140456 26.997745,27.140456 C 18.528582,18.264221 13.291696,25.230495 11.500037,31.436501 z"
             style="fill:#404040;"/>
          </a>
         </g>
        </svg>
</svg>
