<?xml version="1.0" encoding="UTF-8" standalone="no"?>
<!DOCTYPE svg PUBLIC "-//W3C//DTD SVG 1.1//EN"
 "http://www.w3.org/Graphics/SVG/1.1/DTD/svg11.dtd">
<!-- Generated by graphviz version 2.43.0 (0)
 -->
<!-- Title: include/ccf/indexing/indexer_interface.h Pages: 1 -->
<svg width="2318pt" height="609pt"
 viewBox="0.00 0.00 2317.72 609.00" xmlns="http://www.w3.org/2000/svg" xmlns:xlink="http://www.w3.org/1999/xlink">
<g id="graph0" class="graph" transform="scale(1 1) rotate(0) translate(4 605)">
<title>include/ccf/indexing/indexer_interface.h</title>
<polygon fill="white" stroke="transparent" points="-4,4 -4,-605 2313.72,-605 2313.72,4 -4,4"/>
<!-- Node1 -->
<g id="node1" class="node">
<title>Node1</title>
<g id="a_node1"><a xlink:title=" ">
<polygon fill="#bfbfbf" stroke="black" points="1039.5,-570.5 1039.5,-600.5 1153.5,-600.5 1153.5,-570.5 1039.5,-570.5"/>
<text text-anchor="start" x="1047.5" y="-588.5" font-family="Helvetica,sans-Serif" font-size="10.00">include/ccf/indexing</text>
<text text-anchor="middle" x="1096.5" y="-577.5" font-family="Helvetica,sans-Serif" font-size="10.00">/indexer_interface.h</text>
</a>
</g>
</g>
<!-- Node2 -->
<g id="node2" class="node">
<title>Node2</title>
<g id="a_node2"><a xlink:href="node__context_8h.html" target="_top" xlink:title=" ">
<polygon fill="white" stroke="black" points="947,-514.5 947,-533.5 1094,-533.5 1094,-514.5 947,-514.5"/>
<text text-anchor="middle" x="1020.5" y="-521.5" font-family="Helvetica,sans-Serif" font-size="10.00">include/ccf/node_context.h</text>
</a>
</g>
</g>
<!-- Node1&#45;&gt;Node2 -->
<g id="edge1" class="edge">
<title>Node1&#45;&gt;Node2</title>
<path fill="none" stroke="midnightblue" d="M1070.56,-564.19C1057.25,-553.77 1041.75,-541.63 1031.56,-533.66"/>
<polygon fill="midnightblue" stroke="midnightblue" points="1068.46,-566.99 1078.49,-570.4 1072.77,-561.48 1068.46,-566.99"/>
</g>
<!-- Node43 -->
<g id="node43" class="node">
<title>Node43</title>
<g id="a_node43"><a xlink:href="indexer_8h.html" target="_top" xlink:title=" ">
<polygon fill="white" stroke="black" points="1679,-514.5 1679,-533.5 1802,-533.5 1802,-514.5 1679,-514.5"/>
<text text-anchor="middle" x="1740.5" y="-521.5" font-family="Helvetica,sans-Serif" font-size="10.00">src/indexing/indexer.h</text>
</a>
</g>
</g>
<!-- Node1&#45;&gt;Node43 -->
<g id="edge68" class="edge">
<title>Node1&#45;&gt;Node43</title>
<path fill="none" stroke="midnightblue" d="M1163.9,-578.27C1289.51,-566.67 1557.62,-541.9 1678.79,-530.7"/>
<polygon fill="midnightblue" stroke="midnightblue" points="1163.29,-574.81 1153.65,-579.22 1163.93,-581.78 1163.29,-574.81"/>
</g>
<!-- Node3 -->
<g id="node3" class="node">
<title>Node3</title>
<g id="a_node3"><a xlink:href="app__interface_8h.html" target="_top" xlink:title=" ">
<polygon fill="white" stroke="black" points="766.5,-308 766.5,-327 914.5,-327 914.5,-308 766.5,-308"/>
<text text-anchor="middle" x="840.5" y="-315" font-family="Helvetica,sans-Serif" font-size="10.00">include/ccf/app_interface.h</text>
</a>
</g>
</g>
<!-- Node2&#45;&gt;Node3 -->
<g id="edge2" class="edge">
<title>Node2&#45;&gt;Node3</title>
<path fill="none" stroke="midnightblue" d="M995.55,-509.45C961.54,-489.74 900.9,-449.98 866.5,-400 850.42,-376.63 843.86,-342.77 841.57,-327.08"/>
<polygon fill="midnightblue" stroke="midnightblue" points="993.98,-512.58 1004.4,-514.47 997.43,-506.49 993.98,-512.58"/>
</g>
<!-- Node5 -->
<g id="node5" class="node">
<title>Node5</title>
<g id="a_node5"><a xlink:href="nobuiltins_8cpp.html" target="_top" xlink:title=" ">
<polygon fill="white" stroke="black" points="0,-235.5 0,-265.5 135,-265.5 135,-235.5 0,-235.5"/>
<text text-anchor="start" x="8" y="-253.5" font-family="Helvetica,sans-Serif" font-size="10.00">samples/apps/nobuiltins</text>
<text text-anchor="middle" x="67.5" y="-242.5" font-family="Helvetica,sans-Serif" font-size="10.00">/nobuiltins.cpp</text>
</a>
</g>
</g>
<!-- Node2&#45;&gt;Node5 -->
<g id="edge66" class="edge">
<title>Node2&#45;&gt;Node5</title>
<path fill="none" stroke="midnightblue" d="M936.72,-522.16C783.82,-519.81 465.61,-511 360.5,-478 230.45,-437.17 114.86,-308.63 78.97,-265.65"/>
<polygon fill="midnightblue" stroke="midnightblue" points="936.94,-525.66 946.99,-522.31 937.05,-518.66 936.94,-525.66"/>
</g>
<!-- Node18 -->
<g id="node18" class="node">
<title>Node18</title>
<g id="a_node18"><a xlink:href="base__endpoint__registry_8h.html" target="_top" xlink:title=" ">
<polygon fill="white" stroke="black" points="1060,-442 1060,-472 1203,-472 1203,-442 1060,-442"/>
<text text-anchor="start" x="1068" y="-460" font-family="Helvetica,sans-Serif" font-size="10.00">include/ccf/base_endpoint</text>
<text text-anchor="middle" x="1131.5" y="-449" font-family="Helvetica,sans-Serif" font-size="10.00">_registry.h</text>
</a>
</g>
</g>
<!-- Node2&#45;&gt;Node18 -->
<g id="edge20" class="edge">
<title>Node2&#45;&gt;Node18</title>
<path fill="none" stroke="midnightblue" d="M1044.23,-509.1C1062.87,-498.19 1088.72,-483.05 1107.44,-472.09"/>
<polygon fill="midnightblue" stroke="midnightblue" points="1042.33,-506.16 1035.47,-514.23 1045.87,-512.2 1042.33,-506.16"/>
</g>
<!-- Node20 -->
<g id="node20" class="node">
<title>Node20</title>
<g id="a_node20"><a xlink:href="common__endpoint__registry_8cpp.html" target="_top" xlink:title=" ">
<polygon fill="white" stroke="black" points="2018.5,-302.5 2018.5,-332.5 2146.5,-332.5 2146.5,-302.5 2018.5,-302.5"/>
<text text-anchor="start" x="2026.5" y="-320.5" font-family="Helvetica,sans-Serif" font-size="10.00">src/endpoints/common</text>
<text text-anchor="middle" x="2082.5" y="-309.5" font-family="Helvetica,sans-Serif" font-size="10.00">_endpoint_registry.cpp</text>
</a>
</g>
</g>
<!-- Node2&#45;&gt;Node20 -->
<g id="edge67" class="edge">
<title>Node2&#45;&gt;Node20</title>
<path fill="none" stroke="midnightblue" d="M1104.72,-517.79C1260.43,-506.66 1602.9,-475.18 1881.5,-400 1945.3,-382.78 2016.09,-350.87 2054.3,-332.5"/>
<polygon fill="midnightblue" stroke="midnightblue" points="1104.01,-514.33 1094.28,-518.52 1104.5,-521.31 1104.01,-514.33"/>
</g>
<!-- Node41 -->
<g id="node41" class="node">
<title>Node41</title>
<g id="a_node41"><a xlink:href="seqnos__by__key__bucketed_8h.html" target="_top" xlink:title=" ">
<polygon fill="white" stroke="black" points="370,-436.5 370,-477.5 493,-477.5 493,-436.5 370,-436.5"/>
<text text-anchor="start" x="378" y="-465.5" font-family="Helvetica,sans-Serif" font-size="10.00">include/ccf/indexing</text>
<text text-anchor="start" x="378" y="-454.5" font-family="Helvetica,sans-Serif" font-size="10.00">/strategies/seqnos_by</text>
<text text-anchor="middle" x="431.5" y="-443.5" font-family="Helvetica,sans-Serif" font-size="10.00">_key_bucketed.h</text>
</a>
</g>
</g>
<!-- Node2&#45;&gt;Node41 -->
<g id="edge63" class="edge">
<title>Node2&#45;&gt;Node41</title>
<path fill="none" stroke="midnightblue" d="M936.57,-513.74C816.73,-500.51 599.37,-476.53 493.2,-464.81"/>
<polygon fill="midnightblue" stroke="midnightblue" points="936.47,-517.25 946.8,-514.87 937.24,-510.29 936.47,-517.25"/>
</g>
<!-- Node4 -->
<g id="node4" class="node">
<title>Node4</title>
<g id="a_node4"><a xlink:href="logging_8cpp.html" target="_top" xlink:title=" ">
<polygon fill="white" stroke="black" points="153,-235.5 153,-265.5 276,-265.5 276,-235.5 153,-235.5"/>
<text text-anchor="start" x="161" y="-253.5" font-family="Helvetica,sans-Serif" font-size="10.00">samples/apps/logging</text>
<text text-anchor="middle" x="214.5" y="-242.5" font-family="Helvetica,sans-Serif" font-size="10.00">/logging.cpp</text>
</a>
</g>
</g>
<!-- Node3&#45;&gt;Node4 -->
<g id="edge3" class="edge">
<title>Node3&#45;&gt;Node4</title>
<path fill="none" stroke="midnightblue" d="M786.09,-306.23C776.59,-304.65 766.77,-303.16 757.5,-302 550.95,-276.06 496.84,-293.55 290.5,-266 285.84,-265.38 281.03,-264.65 276.21,-263.87"/>
<polygon fill="midnightblue" stroke="midnightblue" points="785.81,-309.73 796.25,-307.96 786.98,-302.83 785.81,-309.73"/>
</g>
<!-- Node3&#45;&gt;Node5 -->
<g id="edge4" class="edge">
<title>Node3&#45;&gt;Node5</title>
<path fill="none" stroke="midnightblue" d="M787.08,-306.24C777.27,-304.62 767.1,-303.12 757.5,-302 485.97,-270.43 414.77,-299.69 143.5,-266 140.83,-265.67 138.12,-265.3 135.38,-264.9"/>
<polygon fill="midnightblue" stroke="midnightblue" points="786.68,-309.72 797.13,-307.96 787.86,-302.82 786.68,-309.72"/>
</g>
<!-- Node6 -->
<g id="node6" class="node">
<title>Node6</title>
<g id="a_node6"><a xlink:href="js__generic_8cpp.html" target="_top" xlink:title=" ">
<polygon fill="white" stroke="black" points="625.5,-168.5 625.5,-198.5 735.5,-198.5 735.5,-168.5 625.5,-168.5"/>
<text text-anchor="start" x="633.5" y="-186.5" font-family="Helvetica,sans-Serif" font-size="10.00">src/apps/js_generic</text>
<text text-anchor="middle" x="680.5" y="-175.5" font-family="Helvetica,sans-Serif" font-size="10.00">/js_generic.cpp</text>
</a>
</g>
</g>
<!-- Node3&#45;&gt;Node6 -->
<g id="edge5" class="edge">
<title>Node3&#45;&gt;Node6</title>
<path fill="none" stroke="midnightblue" d="M789.81,-305.8C738.54,-294.47 665.69,-276.76 657.5,-266 642.18,-245.88 657.83,-216.01 669.75,-198.57"/>
<polygon fill="midnightblue" stroke="midnightblue" points="789.24,-309.26 799.76,-307.98 790.74,-302.42 789.24,-309.26"/>
</g>
<!-- Node7 -->
<g id="node7" class="node">
<title>Node7</title>
<g id="a_node7"><a xlink:href="js__generic__base_8cpp.html" target="_top" xlink:title=" ">
<polygon fill="white" stroke="black" points="1138.5,-235.5 1138.5,-265.5 1256.5,-265.5 1256.5,-235.5 1138.5,-235.5"/>
<text text-anchor="start" x="1146.5" y="-253.5" font-family="Helvetica,sans-Serif" font-size="10.00">src/apps/js_generic</text>
<text text-anchor="middle" x="1197.5" y="-242.5" font-family="Helvetica,sans-Serif" font-size="10.00">/js_generic_base.cpp</text>
</a>
</g>
</g>
<!-- Node3&#45;&gt;Node7 -->
<g id="edge6" class="edge">
<title>Node3&#45;&gt;Node7</title>
<path fill="none" stroke="midnightblue" d="M903.03,-306.26C961.64,-296.5 1051.67,-281.09 1129.5,-266 1132.34,-265.45 1135.25,-264.87 1138.19,-264.28"/>
<polygon fill="midnightblue" stroke="midnightblue" points="902.11,-302.87 892.82,-307.96 903.25,-309.77 902.11,-302.87"/>
</g>
<!-- Node8 -->
<g id="node8" class="node">
<title>Node8</title>
<g id="a_node8"><a xlink:href="js__generic__base_8h.html" target="_top" xlink:title=" ">
<polygon fill="white" stroke="black" points="666.5,-235.5 666.5,-265.5 776.5,-265.5 776.5,-235.5 666.5,-235.5"/>
<text text-anchor="start" x="674.5" y="-253.5" font-family="Helvetica,sans-Serif" font-size="10.00">src/apps/js_generic</text>
<text text-anchor="middle" x="721.5" y="-242.5" font-family="Helvetica,sans-Serif" font-size="10.00">/js_generic_base.h</text>
</a>
</g>
</g>
<!-- Node3&#45;&gt;Node8 -->
<g id="edge7" class="edge">
<title>Node3&#45;&gt;Node8</title>
<path fill="none" stroke="midnightblue" d="M815.6,-302.9C795.58,-291.97 767.55,-276.65 747.29,-265.59"/>
<polygon fill="midnightblue" stroke="midnightblue" points="814,-306.01 824.45,-307.73 817.35,-299.87 814,-306.01"/>
</g>
<!-- Node9 -->
<g id="node9" class="node">
<title>Node9</title>
<g id="a_node9"><a xlink:href="js__v8_8cpp.html" target="_top" xlink:title=" ">
<polygon fill="white" stroke="black" points="280.5,-174 280.5,-193 414.5,-193 414.5,-174 280.5,-174"/>
<text text-anchor="middle" x="347.5" y="-181" font-family="Helvetica,sans-Serif" font-size="10.00">src/apps/js_v8/js_v8.cpp</text>
</a>
</g>
</g>
<!-- Node3&#45;&gt;Node9 -->
<g id="edge9" class="edge">
<title>Node3&#45;&gt;Node9</title>
<path fill="none" stroke="midnightblue" d="M785.76,-306.22C776.36,-304.66 766.66,-303.18 757.5,-302 709.51,-295.83 356.27,-301.6 323.5,-266 304.32,-245.16 327.41,-209.74 340.15,-193.33"/>
<polygon fill="midnightblue" stroke="midnightblue" points="785.37,-309.7 795.81,-307.93 786.54,-302.8 785.37,-309.7"/>
</g>
<!-- Node10 -->
<g id="node10" class="node">
<title>Node10</title>
<g id="a_node10"><a xlink:href="js__v8__base_8cpp.html" target="_top" xlink:title=" ">
<polygon fill="white" stroke="black" points="1006.5,-235.5 1006.5,-265.5 1120.5,-265.5 1120.5,-235.5 1006.5,-235.5"/>
<text text-anchor="start" x="1014.5" y="-253.5" font-family="Helvetica,sans-Serif" font-size="10.00">src/apps/js_v8/js_v8</text>
<text text-anchor="middle" x="1063.5" y="-242.5" font-family="Helvetica,sans-Serif" font-size="10.00">_base.cpp</text>
</a>
</g>
</g>
<!-- Node3&#45;&gt;Node10 -->
<g id="edge10" class="edge">
<title>Node3&#45;&gt;Node10</title>
<path fill="none" stroke="midnightblue" d="M879.76,-305.06C917.57,-294.04 974.83,-277.34 1015.37,-265.53"/>
<polygon fill="midnightblue" stroke="midnightblue" points="878.73,-301.71 870.11,-307.87 880.69,-308.43 878.73,-301.71"/>
</g>
<!-- Node11 -->
<g id="node11" class="node">
<title>Node11</title>
<g id="a_node11"><a xlink:href="js__v8__base_8h.html" target="_top" xlink:title=" ">
<polygon fill="white" stroke="black" points="332.5,-235.5 332.5,-265.5 446.5,-265.5 446.5,-235.5 332.5,-235.5"/>
<text text-anchor="start" x="340.5" y="-253.5" font-family="Helvetica,sans-Serif" font-size="10.00">src/apps/js_v8/js_v8</text>
<text text-anchor="middle" x="389.5" y="-242.5" font-family="Helvetica,sans-Serif" font-size="10.00">_base.h</text>
</a>
</g>
</g>
<!-- Node3&#45;&gt;Node11 -->
<g id="edge11" class="edge">
<title>Node3&#45;&gt;Node11</title>
<path fill="none" stroke="midnightblue" d="M784.12,-306.23C775.23,-304.73 766.12,-303.27 757.5,-302 623.76,-282.36 588.78,-288.53 455.5,-266 452.61,-265.51 449.65,-264.98 446.67,-264.42"/>
<polygon fill="midnightblue" stroke="midnightblue" points="783.59,-309.69 794.04,-307.93 784.77,-302.79 783.59,-309.69"/>
</g>
<!-- Node12 -->
<g id="node12" class="node">
<title>Node12</title>
<g id="a_node12"><a xlink:href="tpcc_8cpp.html" target="_top" xlink:title=" ">
<polygon fill="white" stroke="black" points="465,-241 465,-260 610,-260 610,-241 465,-241"/>
<text text-anchor="middle" x="537.5" y="-248" font-family="Helvetica,sans-Serif" font-size="10.00">src/apps/tpcc/app/tpcc.cpp</text>
</a>
</g>
</g>
<!-- Node3&#45;&gt;Node12 -->
<g id="edge13" class="edge">
<title>Node3&#45;&gt;Node12</title>
<path fill="none" stroke="midnightblue" d="M790.64,-305.8C731.01,-293.01 632.4,-271.86 577.51,-260.08"/>
<polygon fill="midnightblue" stroke="midnightblue" points="790.06,-309.26 800.58,-307.94 791.53,-302.42 790.06,-309.26"/>
</g>
<!-- Node13 -->
<g id="node13" class="node">
<title>Node13</title>
<g id="a_node13"><a xlink:href="enclave_2enclave_8h.html" target="_top" xlink:title=" ">
<polygon fill="white" stroke="black" points="1910.5,-56.5 1910.5,-75.5 2032.5,-75.5 2032.5,-56.5 1910.5,-56.5"/>
<text text-anchor="middle" x="1971.5" y="-63.5" font-family="Helvetica,sans-Serif" font-size="10.00">src/enclave/enclave.h</text>
</a>
</g>
</g>
<!-- Node3&#45;&gt;Node13 -->
<g id="edge14" class="edge">
<title>Node3&#45;&gt;Node13</title>
<path fill="none" stroke="midnightblue" d="M836.13,-297.98C833.06,-280.78 830.99,-254.9 840.5,-235 860.94,-192.23 880.47,-187.91 923.5,-168 1101,-85.87 1714.08,-70.47 1910.46,-67.63"/>
<polygon fill="midnightblue" stroke="midnightblue" points="832.73,-298.8 838.19,-307.88 839.58,-297.38 832.73,-298.8"/>
</g>
<!-- Node15 -->
<g id="node15" class="node">
<title>Node15</title>
<g id="a_node15"><a xlink:href="no__plugins_8cpp.html" target="_top" xlink:title=" ">
<polygon fill="white" stroke="black" points="870.5,-241 870.5,-260 988.5,-260 988.5,-241 870.5,-241"/>
<text text-anchor="middle" x="929.5" y="-248" font-family="Helvetica,sans-Serif" font-size="10.00">src/js/no_plugins.cpp</text>
</a>
</g>
</g>
<!-- Node3&#45;&gt;Node15 -->
<g id="edge16" class="edge">
<title>Node3&#45;&gt;Node15</title>
<path fill="none" stroke="midnightblue" d="M860.95,-301.57C878.51,-288.74 903.23,-270.69 917.69,-260.13"/>
<polygon fill="midnightblue" stroke="midnightblue" points="858.51,-299.01 852.5,-307.73 862.64,-304.66 858.51,-299.01"/>
</g>
<!-- Node17 -->
<g id="node17" class="node">
<title>Node17</title>
<g id="a_node17"><a xlink:href="user__frontend_8h.html" target="_top" xlink:title=" ">
<polygon fill="white" stroke="black" points="1227,-112.5 1227,-131.5 1382,-131.5 1382,-112.5 1227,-112.5"/>
<text text-anchor="middle" x="1304.5" y="-119.5" font-family="Helvetica,sans-Serif" font-size="10.00">src/node/rpc/user_frontend.h</text>
</a>
</g>
</g>
<!-- Node3&#45;&gt;Node17 -->
<g id="edge18" class="edge">
<title>Node3&#45;&gt;Node17</title>
<path fill="none" stroke="midnightblue" d="M840.15,-297.9C840.84,-279.43 844.86,-251.56 861.5,-235 914.14,-182.6 1126.78,-146.93 1237.2,-131.56"/>
<polygon fill="midnightblue" stroke="midnightblue" points="836.65,-297.97 840.06,-307.99 843.65,-298.02 836.65,-297.97"/>
</g>
<!-- Node8&#45;&gt;Node6 -->
<g id="edge8" class="edge">
<title>Node8&#45;&gt;Node6</title>
<path fill="none" stroke="midnightblue" d="M707.22,-226.87C701.29,-217.46 694.59,-206.83 689.38,-198.58"/>
<polygon fill="midnightblue" stroke="midnightblue" points="704.31,-228.81 712.6,-235.4 710.23,-225.07 704.31,-228.81"/>
</g>
<!-- Node11&#45;&gt;Node9 -->
<g id="edge12" class="edge">
<title>Node11&#45;&gt;Node9</title>
<path fill="none" stroke="midnightblue" d="M374.95,-226.97C367.42,-215.33 358.68,-201.8 353.12,-193.19"/>
<polygon fill="midnightblue" stroke="midnightblue" points="372.02,-228.9 380.39,-235.4 377.9,-225.1 372.02,-228.9"/>
</g>
<!-- Node14 -->
<g id="node14" class="node">
<title>Node14</title>
<g id="a_node14"><a xlink:href="enclave_2main_8cpp.html" target="_top" xlink:title=" ">
<polygon fill="white" stroke="black" points="1911.5,-0.5 1911.5,-19.5 2031.5,-19.5 2031.5,-0.5 1911.5,-0.5"/>
<text text-anchor="middle" x="1971.5" y="-7.5" font-family="Helvetica,sans-Serif" font-size="10.00">src/enclave/main.cpp</text>
</a>
</g>
</g>
<!-- Node13&#45;&gt;Node14 -->
<g id="edge15" class="edge">
<title>Node13&#45;&gt;Node14</title>
<path fill="none" stroke="midnightblue" d="M1971.5,-45.8C1971.5,-36.91 1971.5,-26.78 1971.5,-19.75"/>
<polygon fill="midnightblue" stroke="midnightblue" points="1968,-46.08 1971.5,-56.08 1975,-46.08 1968,-46.08"/>
</g>
<!-- Node16 -->
<g id="node16" class="node">
<title>Node16</title>
<g id="a_node16"><a xlink:href="wrap_8cpp.html" target="_top" xlink:title=" ">
<polygon fill="white" stroke="black" points="1377,-174 1377,-193 1466,-193 1466,-174 1377,-174"/>
<text text-anchor="middle" x="1421.5" y="-181" font-family="Helvetica,sans-Serif" font-size="10.00">src/js/wrap.cpp</text>
</a>
</g>
</g>
<!-- Node15&#45;&gt;Node16 -->
<g id="edge17" class="edge">
<title>Node15&#45;&gt;Node16</title>
<path fill="none" stroke="midnightblue" d="M976.54,-238.88C983.55,-237.47 990.7,-236.13 997.5,-235 1134.99,-212.2 1299.21,-195.65 1376.75,-188.47"/>
<polygon fill="midnightblue" stroke="midnightblue" points="975.52,-235.52 966.44,-240.98 976.94,-242.38 975.52,-235.52"/>
</g>
<!-- Node17&#45;&gt;Node13 -->
<g id="edge19" class="edge">
<title>Node17&#45;&gt;Node13</title>
<path fill="none" stroke="midnightblue" d="M1392.39,-113.88C1529.72,-102.77 1791.71,-81.56 1910.38,-71.95"/>
<polygon fill="midnightblue" stroke="midnightblue" points="1392,-110.4 1382.32,-114.7 1392.57,-117.38 1392,-110.4"/>
</g>
<!-- Node18&#45;&gt;Node5 -->
<g id="edge33" class="edge">
<title>Node18&#45;&gt;Node5</title>
<path fill="none" stroke="midnightblue" d="M1049.75,-450.63C949.78,-443.21 775.67,-427.51 628.5,-400 433.15,-363.48 205.78,-295.08 111.71,-265.6"/>
<polygon fill="midnightblue" stroke="midnightblue" points="1049.56,-454.13 1059.79,-451.37 1050.07,-447.15 1049.56,-454.13"/>
</g>
<!-- Node19 -->
<g id="node19" class="node">
<title>Node19</title>
<g id="a_node19"><a xlink:href="common__endpoint__registry_8h.html" target="_top" xlink:title=" ">
<polygon fill="white" stroke="black" points="1757,-369.5 1757,-399.5 1872,-399.5 1872,-369.5 1757,-369.5"/>
<text text-anchor="start" x="1765" y="-387.5" font-family="Helvetica,sans-Serif" font-size="10.00">include/ccf/common</text>
<text text-anchor="middle" x="1814.5" y="-376.5" font-family="Helvetica,sans-Serif" font-size="10.00">_endpoint_registry.h</text>
</a>
</g>
</g>
<!-- Node18&#45;&gt;Node19 -->
<g id="edge21" class="edge">
<title>Node18&#45;&gt;Node19</title>
<path fill="none" stroke="midnightblue" d="M1213.55,-447.53C1353.66,-433.07 1635.63,-403.96 1756.9,-391.45"/>
<polygon fill="midnightblue" stroke="midnightblue" points="1212.89,-444.08 1203.3,-448.59 1213.61,-451.04 1212.89,-444.08"/>
</g>
<!-- Node26 -->
<g id="node26" class="node">
<title>Node26</title>
<g id="a_node26"><a xlink:href="ccf__global_8h.html" target="_top" xlink:title=" ">
<polygon fill="white" stroke="black" points="875,-369.5 875,-399.5 986,-399.5 986,-369.5 875,-369.5"/>
<text text-anchor="start" x="883" y="-387.5" font-family="Helvetica,sans-Serif" font-size="10.00">src/apps/js_v8/tmpl</text>
<text text-anchor="middle" x="930.5" y="-376.5" font-family="Helvetica,sans-Serif" font-size="10.00">/ccf_global.h</text>
</a>
</g>
</g>
<!-- Node18&#45;&gt;Node26 -->
<g id="edge34" class="edge">
<title>Node18&#45;&gt;Node26</title>
<path fill="none" stroke="midnightblue" d="M1081.51,-438.46C1047.29,-426.46 1002.51,-410.76 970.62,-399.57"/>
<polygon fill="midnightblue" stroke="midnightblue" points="1080.71,-441.9 1091.31,-441.9 1083.03,-435.29 1080.71,-441.9"/>
</g>
<!-- Node28 -->
<g id="node28" class="node">
<title>Node28</title>
<g id="a_node28"><a xlink:href="consensus_8h.html" target="_top" xlink:title=" ">
<polygon fill="white" stroke="black" points="637,-369.5 637,-399.5 748,-399.5 748,-369.5 637,-369.5"/>
<text text-anchor="start" x="645" y="-387.5" font-family="Helvetica,sans-Serif" font-size="10.00">src/apps/js_v8/tmpl</text>
<text text-anchor="middle" x="692.5" y="-376.5" font-family="Helvetica,sans-Serif" font-size="10.00">/consensus.h</text>
</a>
</g>
</g>
<!-- Node18&#45;&gt;Node28 -->
<g id="edge37" class="edge">
<title>Node18&#45;&gt;Node28</title>
<path fill="none" stroke="midnightblue" d="M1050.06,-442.92C962.2,-428.81 824.65,-406.72 748.3,-394.46"/>
<polygon fill="midnightblue" stroke="midnightblue" points="1049.56,-446.39 1059.99,-444.52 1050.67,-439.47 1049.56,-446.39"/>
</g>
<!-- Node30 -->
<g id="node30" class="node">
<title>Node30</title>
<g id="a_node30"><a xlink:href="apps_2js__v8_2tmpl_2request_8h.html" target="_top" xlink:title=" ">
<polygon fill="white" stroke="black" points="1004,-369.5 1004,-399.5 1115,-399.5 1115,-369.5 1004,-369.5"/>
<text text-anchor="start" x="1012" y="-387.5" font-family="Helvetica,sans-Serif" font-size="10.00">src/apps/js_v8/tmpl</text>
<text text-anchor="middle" x="1059.5" y="-376.5" font-family="Helvetica,sans-Serif" font-size="10.00">/request.h</text>
</a>
</g>
</g>
<!-- Node18&#45;&gt;Node30 -->
<g id="edge40" class="edge">
<title>Node18&#45;&gt;Node30</title>
<path fill="none" stroke="midnightblue" d="M1109.73,-434.69C1098.18,-423.37 1084.29,-409.77 1074.05,-399.75"/>
<polygon fill="midnightblue" stroke="midnightblue" points="1107.34,-437.24 1116.93,-441.73 1112.23,-432.24 1107.34,-437.24"/>
</g>
<!-- Node32 -->
<g id="node32" class="node">
<title>Node32</title>
<g id="a_node32"><a xlink:href="request__authn__identity_8cpp.html" target="_top" xlink:title=" ">
<polygon fill="white" stroke="black" points="1224,-302.5 1224,-332.5 1375,-332.5 1375,-302.5 1224,-302.5"/>
<text text-anchor="start" x="1232" y="-320.5" font-family="Helvetica,sans-Serif" font-size="10.00">src/apps/js_v8/tmpl</text>
<text text-anchor="middle" x="1299.5" y="-309.5" font-family="Helvetica,sans-Serif" font-size="10.00">/request_authn_identity.cpp</text>
</a>
</g>
</g>
<!-- Node18&#45;&gt;Node32 -->
<g id="edge43" class="edge">
<title>Node18&#45;&gt;Node32</title>
<path fill="none" stroke="midnightblue" d="M1212.99,-441.95C1238.56,-433.72 1264.71,-420.67 1282.5,-400 1298.81,-381.05 1300.84,-350.49 1300.44,-332.67"/>
<polygon fill="midnightblue" stroke="midnightblue" points="1211.82,-438.65 1203.24,-444.88 1213.83,-445.36 1211.82,-438.65"/>
</g>
<!-- Node33 -->
<g id="node33" class="node">
<title>Node33</title>
<g id="a_node33"><a xlink:href="request__authn__identity_8h.html" target="_top" xlink:title=" ">
<polygon fill="white" stroke="black" points="1133.5,-369.5 1133.5,-399.5 1273.5,-399.5 1273.5,-369.5 1133.5,-369.5"/>
<text text-anchor="start" x="1141.5" y="-387.5" font-family="Helvetica,sans-Serif" font-size="10.00">src/apps/js_v8/tmpl</text>
<text text-anchor="middle" x="1203.5" y="-376.5" font-family="Helvetica,sans-Serif" font-size="10.00">/request_authn_identity.h</text>
</a>
</g>
</g>
<!-- Node18&#45;&gt;Node33 -->
<g id="edge44" class="edge">
<title>Node18&#45;&gt;Node33</title>
<path fill="none" stroke="midnightblue" d="M1153.27,-434.69C1164.82,-423.37 1178.71,-409.77 1188.95,-399.75"/>
<polygon fill="midnightblue" stroke="midnightblue" points="1150.77,-432.24 1146.07,-441.73 1155.66,-437.24 1150.77,-432.24"/>
</g>
<!-- Node34 -->
<g id="node34" class="node">
<title>Node34</title>
<g id="a_node34"><a xlink:href="base__endpoint__registry_8cpp.html" target="_top" xlink:title=" ">
<polygon fill="white" stroke="black" points="1367.5,-369.5 1367.5,-399.5 1493.5,-399.5 1493.5,-369.5 1367.5,-369.5"/>
<text text-anchor="start" x="1375.5" y="-387.5" font-family="Helvetica,sans-Serif" font-size="10.00">src/endpoints/base</text>
<text text-anchor="middle" x="1430.5" y="-376.5" font-family="Helvetica,sans-Serif" font-size="10.00">_endpoint_registry.cpp</text>
</a>
</g>
</g>
<!-- Node18&#45;&gt;Node34 -->
<g id="edge47" class="edge">
<title>Node18&#45;&gt;Node34</title>
<path fill="none" stroke="midnightblue" d="M1200.98,-439.62C1252.48,-427.47 1321.95,-411.09 1370.93,-399.55"/>
<polygon fill="midnightblue" stroke="midnightblue" points="1199.86,-436.29 1190.93,-441.99 1201.47,-443.1 1199.86,-436.29"/>
</g>
<!-- Node35 -->
<g id="node35" class="node">
<title>Node35</title>
<g id="a_node35"><a xlink:href="wrap_8h.html" target="_top" xlink:title=" ">
<polygon fill="white" stroke="black" points="1573.5,-308 1573.5,-327 1651.5,-327 1651.5,-308 1573.5,-308"/>
<text text-anchor="middle" x="1612.5" y="-315" font-family="Helvetica,sans-Serif" font-size="10.00">src/js/wrap.h</text>
</a>
</g>
</g>
<!-- Node18&#45;&gt;Node35 -->
<g id="edge48" class="edge">
<title>Node18&#45;&gt;Node35</title>
<path fill="none" stroke="midnightblue" d="M1193.27,-439.13C1226.53,-429.25 1267.91,-415.64 1303.5,-400 1329.19,-388.71 1332.19,-378.75 1358.5,-369 1431.65,-341.9 1522.31,-328.34 1573.16,-322.41"/>
<polygon fill="midnightblue" stroke="midnightblue" points="1192.28,-435.77 1183.67,-441.95 1194.25,-442.49 1192.28,-435.77"/>
</g>
<!-- Node19&#45;&gt;Node3 -->
<g id="edge22" class="edge">
<title>Node19&#45;&gt;Node3</title>
<path fill="none" stroke="midnightblue" d="M1746.66,-378.97C1570.28,-367.2 1098.23,-335.7 914.82,-323.46"/>
<polygon fill="midnightblue" stroke="midnightblue" points="1746.64,-382.48 1756.85,-379.65 1747.1,-375.49 1746.64,-382.48"/>
</g>
<!-- Node19&#45;&gt;Node20 -->
<g id="edge23" class="edge">
<title>Node19&#45;&gt;Node20</title>
<path fill="none" stroke="midnightblue" d="M1882.04,-367.12C1925.89,-356.48 1982.46,-342.76 2024.32,-332.61"/>
<polygon fill="midnightblue" stroke="midnightblue" points="1881.22,-363.72 1872.32,-369.48 1882.87,-370.52 1881.22,-363.72"/>
</g>
<!-- Node21 -->
<g id="node21" class="node">
<title>Node21</title>
<g id="a_node21"><a xlink:href="member__frontend_8h.html" target="_top" xlink:title=" ">
<polygon fill="white" stroke="black" points="1978.5,-235.5 1978.5,-265.5 2098.5,-265.5 2098.5,-235.5 1978.5,-235.5"/>
<text text-anchor="start" x="1986.5" y="-253.5" font-family="Helvetica,sans-Serif" font-size="10.00">src/node/rpc/member</text>
<text text-anchor="middle" x="2038.5" y="-242.5" font-family="Helvetica,sans-Serif" font-size="10.00">_frontend.h</text>
</a>
</g>
</g>
<!-- Node19&#45;&gt;Node21 -->
<g id="edge24" class="edge">
<title>Node19&#45;&gt;Node21</title>
<path fill="none" stroke="midnightblue" d="M1813.77,-359.19C1814.58,-341.07 1818.72,-316.97 1833.5,-302 1838.72,-296.71 1919.67,-277.84 1978.26,-264.73"/>
<polygon fill="midnightblue" stroke="midnightblue" points="1810.27,-359.26 1813.63,-369.31 1817.27,-359.36 1810.27,-359.26"/>
</g>
<!-- Node22 -->
<g id="node22" class="node">
<title>Node22</title>
<g id="a_node22"><a xlink:href="node__frontend_8h.html" target="_top" xlink:title=" ">
<polygon fill="white" stroke="black" points="1842.5,-308 1842.5,-327 2000.5,-327 2000.5,-308 1842.5,-308"/>
<text text-anchor="middle" x="1921.5" y="-315" font-family="Helvetica,sans-Serif" font-size="10.00">src/node/rpc/node_frontend.h</text>
</a>
</g>
</g>
<!-- Node19&#45;&gt;Node22 -->
<g id="edge26" class="edge">
<title>Node19&#45;&gt;Node22</title>
<path fill="none" stroke="midnightblue" d="M1846.37,-364.14C1866.7,-351.79 1892.05,-336.39 1907.5,-327.01"/>
<polygon fill="midnightblue" stroke="midnightblue" points="1844.45,-361.21 1837.72,-369.4 1848.08,-367.2 1844.45,-361.21"/>
</g>
<!-- Node21&#45;&gt;Node13 -->
<g id="edge25" class="edge">
<title>Node21&#45;&gt;Node13</title>
<path fill="none" stroke="midnightblue" d="M2028.07,-226.03C2017.82,-202.51 2002.07,-165.13 1990.5,-132 1983.52,-112.02 1976.96,-88 1973.68,-75.5"/>
<polygon fill="midnightblue" stroke="midnightblue" points="2024.88,-227.46 2032.1,-235.21 2031.29,-224.65 2024.88,-227.46"/>
</g>
<!-- Node22&#45;&gt;Node13 -->
<g id="edge27" class="edge">
<title>Node22&#45;&gt;Node13</title>
<path fill="none" stroke="midnightblue" d="M1981.34,-306.35C1990.76,-304.83 2000.39,-303.34 2009.5,-302 2071.57,-292.9 2248.06,-313.1 2289.5,-266 2346.27,-201.46 2249.99,-149.19 2172.5,-112 2128.33,-90.8 2073.87,-79.4 2032.79,-73.39"/>
<polygon fill="midnightblue" stroke="midnightblue" points="1980.56,-302.93 1971.25,-307.99 1981.68,-309.84 1980.56,-302.93"/>
</g>
<!-- Node23 -->
<g id="node23" class="node">
<title>Node23</title>
<g id="a_node23"><a xlink:href="jwt__key__auto__refresh_8h.html" target="_top" xlink:title=" ">
<polygon fill="white" stroke="black" points="2155,-235.5 2155,-265.5 2280,-265.5 2280,-235.5 2155,-235.5"/>
<text text-anchor="start" x="2163" y="-253.5" font-family="Helvetica,sans-Serif" font-size="10.00">src/node/jwt_key_auto</text>
<text text-anchor="middle" x="2217.5" y="-242.5" font-family="Helvetica,sans-Serif" font-size="10.00">_refresh.h</text>
</a>
</g>
</g>
<!-- Node22&#45;&gt;Node23 -->
<g id="edge28" class="edge">
<title>Node22&#45;&gt;Node23</title>
<path fill="none" stroke="midnightblue" d="M1970.52,-305.74C2021.01,-294.65 2099.89,-277.33 2154.88,-265.25"/>
<polygon fill="midnightblue" stroke="midnightblue" points="1969.52,-302.37 1960.5,-307.94 1971.02,-309.21 1969.52,-302.37"/>
</g>
<!-- Node24 -->
<g id="node24" class="node">
<title>Node24</title>
<g id="a_node24"><a xlink:href="node__state_8h.html" target="_top" xlink:title=" ">
<polygon fill="white" stroke="black" points="2109.5,-174 2109.5,-193 2233.5,-193 2233.5,-174 2109.5,-174"/>
<text text-anchor="middle" x="2171.5" y="-181" font-family="Helvetica,sans-Serif" font-size="10.00">src/node/node_state.h</text>
</a>
</g>
</g>
<!-- Node23&#45;&gt;Node24 -->
<g id="edge29" class="edge">
<title>Node23&#45;&gt;Node24</title>
<path fill="none" stroke="midnightblue" d="M2201.56,-226.97C2193.32,-215.33 2183.74,-201.8 2177.65,-193.19"/>
<polygon fill="midnightblue" stroke="midnightblue" points="2198.89,-229.26 2207.52,-235.4 2204.6,-225.21 2198.89,-229.26"/>
</g>
<!-- Node24&#45;&gt;Node13 -->
<g id="edge30" class="edge">
<title>Node24&#45;&gt;Node13</title>
<path fill="none" stroke="midnightblue" d="M2171.44,-163.5C2170.34,-147.6 2166.19,-125.43 2152.5,-112 2135.51,-95.34 2078.35,-82.97 2032.76,-75.46"/>
<polygon fill="midnightblue" stroke="midnightblue" points="2167.95,-163.88 2171.79,-173.75 2174.94,-163.64 2167.95,-163.88"/>
</g>
<!-- Node25 -->
<g id="node25" class="node">
<title>Node25</title>
<g id="a_node25"><a xlink:href="gov__effects_8h.html" target="_top" xlink:title=" ">
<polygon fill="white" stroke="black" points="1999.5,-112.5 1999.5,-131.5 2143.5,-131.5 2143.5,-112.5 1999.5,-112.5"/>
<text text-anchor="middle" x="2071.5" y="-119.5" font-family="Helvetica,sans-Serif" font-size="10.00">src/node/rpc/gov_effects.h</text>
</a>
</g>
</g>
<!-- Node24&#45;&gt;Node25 -->
<g id="edge31" class="edge">
<title>Node24&#45;&gt;Node25</title>
<path fill="none" stroke="midnightblue" d="M2148.38,-168.74C2129.06,-157.25 2102.13,-141.22 2085.8,-131.51"/>
<polygon fill="midnightblue" stroke="midnightblue" points="2146.79,-171.87 2157.17,-173.98 2150.37,-165.85 2146.79,-171.87"/>
</g>
<!-- Node25&#45;&gt;Node13 -->
<g id="edge32" class="edge">
<title>Node25&#45;&gt;Node13</title>
<path fill="none" stroke="midnightblue" d="M2046.41,-107.45C2027.95,-97.48 2003.4,-84.23 1987.53,-75.65"/>
<polygon fill="midnightblue" stroke="midnightblue" points="2044.97,-110.65 2055.43,-112.32 2048.3,-104.49 2044.97,-110.65"/>
</g>
<!-- Node26&#45;&gt;Node10 -->
<g id="edge35" class="edge">
<title>Node26&#45;&gt;Node10</title>
<path fill="none" stroke="midnightblue" d="M951.92,-362.25C979.32,-335.04 1026.04,-288.68 1049.37,-265.52"/>
<polygon fill="midnightblue" stroke="midnightblue" points="949.37,-359.85 944.73,-369.37 954.3,-364.81 949.37,-359.85"/>
</g>
<!-- Node27 -->
<g id="node27" class="node">
<title>Node27</title>
<g id="a_node27"><a xlink:href="ccf__global_8cpp.html" target="_top" xlink:title=" ">
<polygon fill="white" stroke="black" points="637,-302.5 637,-332.5 748,-332.5 748,-302.5 637,-302.5"/>
<text text-anchor="start" x="645" y="-320.5" font-family="Helvetica,sans-Serif" font-size="10.00">src/apps/js_v8/tmpl</text>
<text text-anchor="middle" x="692.5" y="-309.5" font-family="Helvetica,sans-Serif" font-size="10.00">/ccf_global.cpp</text>
</a>
</g>
</g>
<!-- Node26&#45;&gt;Node27 -->
<g id="edge36" class="edge">
<title>Node26&#45;&gt;Node27</title>
<path fill="none" stroke="midnightblue" d="M869.04,-366.71C830.31,-356.14 780.87,-342.63 744.17,-332.61"/>
<polygon fill="midnightblue" stroke="midnightblue" points="868.58,-370.22 879.15,-369.48 870.43,-363.46 868.58,-370.22"/>
</g>
<!-- Node28&#45;&gt;Node27 -->
<g id="edge38" class="edge">
<title>Node28&#45;&gt;Node27</title>
<path fill="none" stroke="midnightblue" d="M692.5,-359.11C692.5,-350.15 692.5,-340.32 692.5,-332.58"/>
<polygon fill="midnightblue" stroke="midnightblue" points="689,-359.4 692.5,-369.4 696,-359.4 689,-359.4"/>
</g>
<!-- Node29 -->
<g id="node29" class="node">
<title>Node29</title>
<g id="a_node29"><a xlink:href="apps_2js__v8_2tmpl_2consensus_8cpp.html" target="_top" xlink:title=" ">
<polygon fill="white" stroke="black" points="508,-302.5 508,-332.5 619,-332.5 619,-302.5 508,-302.5"/>
<text text-anchor="start" x="516" y="-320.5" font-family="Helvetica,sans-Serif" font-size="10.00">src/apps/js_v8/tmpl</text>
<text text-anchor="middle" x="563.5" y="-309.5" font-family="Helvetica,sans-Serif" font-size="10.00">/consensus.cpp</text>
</a>
</g>
</g>
<!-- Node28&#45;&gt;Node29 -->
<g id="edge39" class="edge">
<title>Node28&#45;&gt;Node29</title>
<path fill="none" stroke="midnightblue" d="M655.49,-364.85C635.1,-354.58 610.19,-342.03 591.44,-332.58"/>
<polygon fill="midnightblue" stroke="midnightblue" points="654,-368.02 664.51,-369.4 657.15,-361.77 654,-368.02"/>
</g>
<!-- Node30&#45;&gt;Node10 -->
<g id="edge41" class="edge">
<title>Node30&#45;&gt;Node10</title>
<path fill="none" stroke="midnightblue" d="M1060.24,-359.02C1061.08,-331.51 1062.4,-287.79 1063.08,-265.52"/>
<polygon fill="midnightblue" stroke="midnightblue" points="1056.73,-359.27 1059.93,-369.37 1063.73,-359.48 1056.73,-359.27"/>
</g>
<!-- Node31 -->
<g id="node31" class="node">
<title>Node31</title>
<g id="a_node31"><a xlink:href="request_8cpp.html" target="_top" xlink:title=" ">
<polygon fill="white" stroke="black" points="1093,-302.5 1093,-332.5 1204,-332.5 1204,-302.5 1093,-302.5"/>
<text text-anchor="start" x="1101" y="-320.5" font-family="Helvetica,sans-Serif" font-size="10.00">src/apps/js_v8/tmpl</text>
<text text-anchor="middle" x="1148.5" y="-309.5" font-family="Helvetica,sans-Serif" font-size="10.00">/request.cpp</text>
</a>
</g>
</g>
<!-- Node30&#45;&gt;Node31 -->
<g id="edge42" class="edge">
<title>Node30&#45;&gt;Node31</title>
<path fill="none" stroke="midnightblue" d="M1086.95,-363.45C1100.64,-353.45 1116.87,-341.6 1129.23,-332.58"/>
<polygon fill="midnightblue" stroke="midnightblue" points="1084.82,-360.67 1078.81,-369.4 1088.95,-366.32 1084.82,-360.67"/>
</g>
<!-- Node33&#45;&gt;Node31 -->
<g id="edge45" class="edge">
<title>Node33&#45;&gt;Node31</title>
<path fill="none" stroke="midnightblue" d="M1185.08,-361.74C1176.95,-352.12 1167.61,-341.09 1160.41,-332.58"/>
<polygon fill="midnightblue" stroke="midnightblue" points="1182.43,-364.02 1191.57,-369.4 1187.78,-359.5 1182.43,-364.02"/>
</g>
<!-- Node33&#45;&gt;Node32 -->
<g id="edge46" class="edge">
<title>Node33&#45;&gt;Node32</title>
<path fill="none" stroke="midnightblue" d="M1232.69,-363.73C1247.55,-353.68 1265.26,-341.68 1278.71,-332.58"/>
<polygon fill="midnightblue" stroke="midnightblue" points="1230.65,-360.89 1224.33,-369.4 1234.57,-366.69 1230.65,-360.89"/>
</g>
<!-- Node35&#45;&gt;Node7 -->
<g id="edge49" class="edge">
<title>Node35&#45;&gt;Node7</title>
<path fill="none" stroke="midnightblue" d="M1563.22,-310C1496.65,-301.05 1374.35,-283.97 1270.5,-266 1266.04,-265.23 1261.44,-264.4 1256.82,-263.54"/>
<polygon fill="midnightblue" stroke="midnightblue" points="1563.04,-313.51 1573.42,-311.37 1563.97,-306.57 1563.04,-313.51"/>
</g>
<!-- Node35&#45;&gt;Node13 -->
<g id="edge50" class="edge">
<title>Node35&#45;&gt;Node13</title>
<path fill="none" stroke="midnightblue" d="M1661.55,-309.38C1697.84,-302.47 1747.38,-289.45 1785.5,-266 1830.01,-238.62 1936.29,-110.21 1964.52,-75.61"/>
<polygon fill="midnightblue" stroke="midnightblue" points="1660.9,-305.94 1651.69,-311.17 1662.15,-312.83 1660.9,-305.94"/>
</g>
<!-- Node35&#45;&gt;Node16 -->
<g id="edge60" class="edge">
<title>Node35&#45;&gt;Node16</title>
<path fill="none" stroke="midnightblue" d="M1563.35,-315.88C1484.75,-313.74 1336.26,-304.55 1303.5,-266 1274.72,-232.14 1343.44,-205.87 1387.69,-193.07"/>
<polygon fill="midnightblue" stroke="midnightblue" points="1563.41,-319.39 1573.5,-316.13 1563.58,-312.39 1563.41,-319.39"/>
</g>
<!-- Node35&#45;&gt;Node21 -->
<g id="edge62" class="edge">
<title>Node35&#45;&gt;Node21</title>
<path fill="none" stroke="midnightblue" d="M1661.87,-310.57C1730.91,-302.04 1860.13,-285.21 1969.5,-266 1972.39,-265.49 1975.35,-264.95 1978.33,-264.39"/>
<polygon fill="midnightblue" stroke="midnightblue" points="1661.22,-307.13 1651.73,-311.82 1662.08,-314.07 1661.22,-307.13"/>
</g>
<!-- Node35&#45;&gt;Node24 -->
<g id="edge61" class="edge">
<title>Node35&#45;&gt;Node24</title>
<path fill="none" stroke="midnightblue" d="M1661.8,-313.66C1779.31,-306.58 2069.03,-287.19 2107.5,-266 2138.39,-248.99 2159.49,-210.25 2167.69,-193.03"/>
<polygon fill="midnightblue" stroke="midnightblue" points="1661.41,-310.18 1651.64,-314.27 1661.83,-317.16 1661.41,-310.18"/>
</g>
<!-- Node36 -->
<g id="node36" class="node">
<title>Node36</title>
<g id="a_node36"><a xlink:href="js_2consensus_8cpp.html" target="_top" xlink:title=" ">
<polygon fill="white" stroke="black" points="1554.5,-241 1554.5,-260 1670.5,-260 1670.5,-241 1554.5,-241"/>
<text text-anchor="middle" x="1612.5" y="-248" font-family="Helvetica,sans-Serif" font-size="10.00">src/js/consensus.cpp</text>
</a>
</g>
</g>
<!-- Node35&#45;&gt;Node36 -->
<g id="edge51" class="edge">
<title>Node35&#45;&gt;Node36</title>
<path fill="none" stroke="midnightblue" d="M1612.5,-297.54C1612.5,-285.17 1612.5,-269.62 1612.5,-260.13"/>
<polygon fill="midnightblue" stroke="midnightblue" points="1609,-297.73 1612.5,-307.73 1616,-297.73 1609,-297.73"/>
</g>
<!-- Node37 -->
<g id="node37" class="node">
<title>Node37</title>
<g id="a_node37"><a xlink:href="conv_8cpp.html" target="_top" xlink:title=" ">
<polygon fill="white" stroke="black" points="1688.5,-241 1688.5,-260 1776.5,-260 1776.5,-241 1688.5,-241"/>
<text text-anchor="middle" x="1732.5" y="-248" font-family="Helvetica,sans-Serif" font-size="10.00">src/js/conv.cpp</text>
</a>
</g>
</g>
<!-- Node35&#45;&gt;Node37 -->
<g id="edge53" class="edge">
<title>Node35&#45;&gt;Node37</title>
<path fill="none" stroke="midnightblue" d="M1637.5,-302.96C1661.29,-290.07 1696.37,-271.07 1716.57,-260.13"/>
<polygon fill="midnightblue" stroke="midnightblue" points="1635.81,-299.89 1628.68,-307.73 1639.14,-306.05 1635.81,-299.89"/>
</g>
<!-- Node38 -->
<g id="node38" class="node">
<title>Node38</title>
<g id="a_node38"><a xlink:href="js_2crypto_8cpp.html" target="_top" xlink:title=" ">
<polygon fill="white" stroke="black" points="1312.5,-241 1312.5,-260 1408.5,-260 1408.5,-241 1312.5,-241"/>
<text text-anchor="middle" x="1360.5" y="-248" font-family="Helvetica,sans-Serif" font-size="10.00">src/js/crypto.cpp</text>
</a>
</g>
</g>
<!-- Node35&#45;&gt;Node38 -->
<g id="edge55" class="edge">
<title>Node35&#45;&gt;Node38</title>
<path fill="none" stroke="midnightblue" d="M1569.48,-305.4C1519.75,-292.58 1438.95,-271.74 1393.78,-260.08"/>
<polygon fill="midnightblue" stroke="midnightblue" points="1568.74,-308.83 1579.3,-307.94 1570.49,-302.05 1568.74,-308.83"/>
</g>
<!-- Node39 -->
<g id="node39" class="node">
<title>Node39</title>
<g id="a_node39"><a xlink:href="js_2historical_8cpp.html" target="_top" xlink:title=" ">
<polygon fill="white" stroke="black" points="1426.5,-241 1426.5,-260 1536.5,-260 1536.5,-241 1426.5,-241"/>
<text text-anchor="middle" x="1481.5" y="-248" font-family="Helvetica,sans-Serif" font-size="10.00">src/js/historical.cpp</text>
</a>
</g>
</g>
<!-- Node35&#45;&gt;Node39 -->
<g id="edge57" class="edge">
<title>Node35&#45;&gt;Node39</title>
<path fill="none" stroke="midnightblue" d="M1585.84,-303.27C1559.9,-290.4 1521.22,-271.21 1498.97,-260.17"/>
<polygon fill="midnightblue" stroke="midnightblue" points="1584.59,-306.56 1595.1,-307.87 1587.7,-300.29 1584.59,-306.56"/>
</g>
<!-- Node40 -->
<g id="node40" class="node">
<title>Node40</title>
<g id="a_node40"><a xlink:href="openenclave_8cpp.html" target="_top" xlink:title=" ">
<polygon fill="white" stroke="black" points="1832.5,-241 1832.5,-260 1960.5,-260 1960.5,-241 1832.5,-241"/>
<text text-anchor="middle" x="1896.5" y="-248" font-family="Helvetica,sans-Serif" font-size="10.00">src/js/openenclave.cpp</text>
</a>
</g>
</g>
<!-- Node35&#45;&gt;Node40 -->
<g id="edge59" class="edge">
<title>Node35&#45;&gt;Node40</title>
<path fill="none" stroke="midnightblue" d="M1659.93,-305.64C1715.89,-292.84 1807.76,-271.81 1859,-260.08"/>
<polygon fill="midnightblue" stroke="midnightblue" points="1658.89,-302.29 1649.92,-307.94 1660.45,-309.12 1658.89,-302.29"/>
</g>
<!-- Node36&#45;&gt;Node16 -->
<g id="edge52" class="edge">
<title>Node36&#45;&gt;Node16</title>
<path fill="none" stroke="midnightblue" d="M1577.54,-237.6C1539.67,-224.71 1480.19,-204.47 1446.66,-193.06"/>
<polygon fill="midnightblue" stroke="midnightblue" points="1576.54,-240.96 1587.14,-240.87 1578.8,-234.33 1576.54,-240.96"/>
</g>
<!-- Node37&#45;&gt;Node16 -->
<g id="edge54" class="edge">
<title>Node37&#45;&gt;Node16</title>
<path fill="none" stroke="midnightblue" d="M1693.05,-238.36C1688.49,-237.18 1683.9,-236.03 1679.5,-235 1605.29,-217.61 1518.11,-201.42 1466.46,-192.26"/>
<polygon fill="midnightblue" stroke="midnightblue" points="1692.32,-241.79 1702.89,-240.98 1694.12,-235.03 1692.32,-241.79"/>
</g>
<!-- Node38&#45;&gt;Node16 -->
<g id="edge56" class="edge">
<title>Node38&#45;&gt;Node16</title>
<path fill="none" stroke="midnightblue" d="M1375.86,-233.13C1387.79,-220.42 1403.86,-203.3 1413.4,-193.13"/>
<polygon fill="midnightblue" stroke="midnightblue" points="1373.02,-231.05 1368.73,-240.73 1378.12,-235.84 1373.02,-231.05"/>
</g>
<!-- Node39&#45;&gt;Node16 -->
<g id="edge58" class="edge">
<title>Node39&#45;&gt;Node16</title>
<path fill="none" stroke="midnightblue" d="M1466.39,-233.13C1454.66,-220.42 1438.85,-203.3 1429.46,-193.13"/>
<polygon fill="midnightblue" stroke="midnightblue" points="1464.05,-235.76 1473.41,-240.73 1469.2,-231.01 1464.05,-235.76"/>
</g>
<!-- Node41&#45;&gt;Node4 -->
<g id="edge64" class="edge">
<title>Node41&#45;&gt;Node4</title>
<path fill="none" stroke="midnightblue" d="M430.85,-426.22C429.13,-408.19 424.45,-385.56 412.5,-369 374.14,-315.84 303.67,-282.57 257.97,-265.52"/>
<polygon fill="midnightblue" stroke="midnightblue" points="427.36,-426.49 431.56,-436.22 434.35,-426 427.36,-426.49"/>
</g>
<!-- Node42 -->
<g id="node42" class="node">
<title>Node42</title>
<g id="a_node42"><a xlink:href="seqnos__by__key__bucketed_8cpp.html" target="_top" xlink:title=" ">
<polygon fill="white" stroke="black" points="239.5,-369.5 239.5,-399.5 403.5,-399.5 403.5,-369.5 239.5,-369.5"/>
<text text-anchor="start" x="247.5" y="-387.5" font-family="Helvetica,sans-Serif" font-size="10.00">src/indexing/strategies</text>
<text text-anchor="middle" x="321.5" y="-376.5" font-family="Helvetica,sans-Serif" font-size="10.00">/seqnos_by_key_bucketed.cpp</text>
</a>
</g>
</g>
<!-- Node41&#45;&gt;Node42 -->
<g id="edge65" class="edge">
<title>Node41&#45;&gt;Node42</title>
<path fill="none" stroke="midnightblue" d="M392.05,-430.72C375.76,-420.27 357.48,-408.56 343.61,-399.67"/>
<polygon fill="midnightblue" stroke="midnightblue" points="390.55,-433.91 400.86,-436.36 394.33,-428.02 390.55,-433.91"/>
</g>
<!-- Node43&#45;&gt;Node24 -->
<g id="edge69" class="edge">
<title>Node43&#45;&gt;Node24</title>
<path fill="none" stroke="midnightblue" d="M1812.32,-520.61C1965.1,-513.56 2308.5,-486.48 2308.5,-385.5 2308.5,-385.5 2308.5,-385.5 2308.5,-316.5 2308.5,-279.31 2313.4,-263.5 2289.5,-235 2270.89,-212.8 2240.75,-200.13 2215.59,-193.03"/>
<polygon fill="midnightblue" stroke="midnightblue" points="1811.93,-517.12 1802.1,-521.06 1812.24,-524.11 1811.93,-517.12"/>
</g>
</g>
</svg>
