<?xml version="1.0" encoding="UTF-8" standalone="no"?>
<!DOCTYPE svg PUBLIC "-//W3C//DTD SVG 1.1//EN"
 "http://www.w3.org/Graphics/SVG/1.1/DTD/svg11.dtd">
<!-- Generated by graphviz version 2.43.0 (0)
 -->
<!-- Title: Graphical Class Hierarchy Pages: 1 -->
<svg width="692pt" height="110pt"
 viewBox="0.00 0.00 692.00 110.00" xmlns="http://www.w3.org/2000/svg" xmlns:xlink="http://www.w3.org/1999/xlink">
<g id="graph0" class="graph" transform="scale(1 1) rotate(0) translate(4 106)">
<title>Graphical Class Hierarchy</title>
<polygon fill="white" stroke="transparent" points="-4,4 -4,-106 688,-106 688,4 -4,4"/>
<!-- Node0 -->
<g id="node1" class="node">
<title>Node0</title>
<g id="a_node1"><a xlink:href="classccf_1_1indexing_1_1Strategy.html" target="_top" xlink:title=" ">
<polygon fill="white" stroke="black" points="0,-41.5 0,-60.5 125,-60.5 125,-41.5 0,-41.5"/>
<text text-anchor="middle" x="62.5" y="-48.5" font-family="Helvetica,sans-Serif" font-size="10.00">ccf::indexing::Strategy</text>
</a>
</g>
</g>
<!-- Node1 -->
<g id="node2" class="node">
<title>Node1</title>
<g id="a_node2"><a xlink:href="classccf_1_1indexing_1_1strategies_1_1VisitEachEntryInMap.html" target="_top" xlink:title=" ">
<polygon fill="white" stroke="black" points="161,-36 161,-66 294,-66 294,-36 161,-36"/>
<text text-anchor="start" x="169" y="-54" font-family="Helvetica,sans-Serif" font-size="10.00">ccf::indexing::strategies</text>
<text text-anchor="middle" x="227.5" y="-43" font-family="Helvetica,sans-Serif" font-size="10.00">::VisitEachEntryInMap</text>
</a>
</g>
</g>
<!-- Node0&#45;&gt;Node1 -->
<g id="edge1" class="edge">
<title>Node0&#45;&gt;Node1</title>
<path fill="none" stroke="midnightblue" d="M135.13,-51C143.73,-51 152.48,-51 160.98,-51"/>
<polygon fill="midnightblue" stroke="midnightblue" points="135.12,-47.5 125.12,-51 135.12,-54.5 135.12,-47.5"/>
</g>
<!-- Node2 -->
<g id="node3" class="node">
<title>Node2</title>
<g id="a_node3"><a xlink:href="classccf_1_1indexing_1_1strategies_1_1SeqnosByKey__Bucketed__Untyped.html" target="_top" xlink:title=" ">
<polygon fill="white" stroke="black" points="332,-60.5 332,-101.5 471,-101.5 471,-60.5 332,-60.5"/>
<text text-anchor="start" x="340" y="-89.5" font-family="Helvetica,sans-Serif" font-size="10.00">ccf::indexing::strategies</text>
<text text-anchor="start" x="340" y="-78.5" font-family="Helvetica,sans-Serif" font-size="10.00">::SeqnosByKey_Bucketed</text>
<text text-anchor="middle" x="401.5" y="-67.5" font-family="Helvetica,sans-Serif" font-size="10.00">_Untyped</text>
</a>
</g>
</g>
<!-- Node1&#45;&gt;Node2 -->
<g id="edge2" class="edge">
<title>Node1&#45;&gt;Node2</title>
<path fill="none" stroke="midnightblue" d="M303.96,-64.16C313.2,-65.77 322.6,-67.41 331.74,-69.01"/>
<polygon fill="midnightblue" stroke="midnightblue" points="304.47,-60.7 294.02,-62.43 303.27,-67.59 304.47,-60.7"/>
</g>
<!-- Node4 -->
<g id="node5" class="node">
<title>Node4</title>
<g id="a_node5"><a xlink:href="classccf_1_1indexing_1_1strategies_1_1SeqnosByKey__InMemory__Untyped.html" target="_top" xlink:title=" ">
<polygon fill="white" stroke="black" points="330,-0.5 330,-41.5 473,-41.5 473,-0.5 330,-0.5"/>
<text text-anchor="start" x="338" y="-29.5" font-family="Helvetica,sans-Serif" font-size="10.00">ccf::indexing::strategies</text>
<text text-anchor="start" x="338" y="-18.5" font-family="Helvetica,sans-Serif" font-size="10.00">::SeqnosByKey_InMemory</text>
<text text-anchor="middle" x="401.5" y="-7.5" font-family="Helvetica,sans-Serif" font-size="10.00">_Untyped</text>
</a>
</g>
</g>
<!-- Node1&#45;&gt;Node4 -->
<g id="edge4" class="edge">
<title>Node1&#45;&gt;Node4</title>
<path fill="none" stroke="midnightblue" d="M303.98,-37.84C312.53,-36.34 321.23,-34.83 329.72,-33.35"/>
<polygon fill="midnightblue" stroke="midnightblue" points="303.27,-34.41 294.02,-39.57 304.47,-41.3 303.27,-34.41"/>
</g>
<!-- Node3 -->
<g id="node4" class="node">
<title>Node3</title>
<g id="a_node4"><a xlink:href="classccf_1_1indexing_1_1strategies_1_1SeqnosByKey__Bucketed.html" target="_top" xlink:title=" ">
<polygon fill="white" stroke="black" points="511.5,-66 511.5,-96 681.5,-96 681.5,-66 511.5,-66"/>
<text text-anchor="start" x="519.5" y="-84" font-family="Helvetica,sans-Serif" font-size="10.00">ccf::indexing::strategies</text>
<text text-anchor="middle" x="596.5" y="-73" font-family="Helvetica,sans-Serif" font-size="10.00">::SeqnosByKey_Bucketed&lt; M &gt;</text>
</a>
</g>
</g>
<!-- Node2&#45;&gt;Node3 -->
<g id="edge3" class="edge">
<title>Node2&#45;&gt;Node3</title>
<path fill="none" stroke="midnightblue" d="M481.27,-81C491.15,-81 501.29,-81 511.25,-81"/>
<polygon fill="midnightblue" stroke="midnightblue" points="481.09,-77.5 471.09,-81 481.09,-84.5 481.09,-77.5"/>
</g>
<!-- Node5 -->
<g id="node6" class="node">
<title>Node5</title>
<g id="a_node6"><a xlink:href="classccf_1_1indexing_1_1strategies_1_1SeqnosByKey__InMemory.html" target="_top" xlink:title=" ">
<polygon fill="white" stroke="black" points="509,-6 509,-36 684,-36 684,-6 509,-6"/>
<text text-anchor="start" x="517" y="-24" font-family="Helvetica,sans-Serif" font-size="10.00">ccf::indexing::strategies</text>
<text text-anchor="middle" x="596.5" y="-13" font-family="Helvetica,sans-Serif" font-size="10.00">::SeqnosByKey_InMemory&lt; M &gt;</text>
</a>
</g>
</g>
<!-- Node4&#45;&gt;Node5 -->
<g id="edge5" class="edge">
<title>Node4&#45;&gt;Node5</title>
<path fill="none" stroke="midnightblue" d="M483.46,-21C491.9,-21 500.5,-21 508.99,-21"/>
<polygon fill="midnightblue" stroke="midnightblue" points="483.27,-17.5 473.27,-21 483.27,-24.5 483.27,-17.5"/>
</g>
</g>
</svg>
