<?xml version="1.0" encoding="UTF-8" standalone="no"?>
<!DOCTYPE svg PUBLIC "-//W3C//DTD SVG 1.1//EN"
 "http://www.w3.org/Graphics/SVG/1.1/DTD/svg11.dtd">
<!-- Generated by graphviz version 2.43.0 (0)
 -->
<!-- Title: Graphical Class Hierarchy Pages: 1 -->
<svg width="586pt" height="268pt"
 viewBox="0.00 0.00 586.00 268.00" xmlns="http://www.w3.org/2000/svg" xmlns:xlink="http://www.w3.org/1999/xlink">
<g id="graph0" class="graph" transform="scale(1 1) rotate(0) translate(4 264)">
<title>Graphical Class Hierarchy</title>
<polygon fill="white" stroke="transparent" points="-4,4 -4,-264 582,-264 582,4 -4,4"/>
<!-- Node0 -->
<g id="node1" class="node">
<title>Node0</title>
<g id="a_node1"><a xlink:href="classccf_1_1AbstractNodeSubSystem.html" target="_top" xlink:title=" ">
<polygon fill="white" stroke="black" points="0,-142.5 0,-161.5 157,-161.5 157,-142.5 0,-142.5"/>
<text text-anchor="middle" x="78.5" y="-149.5" font-family="Helvetica,sans-Serif" font-size="10.00">ccf::AbstractNodeSubSystem</text>
</a>
</g>
</g>
<!-- Node1 -->
<g id="node2" class="node">
<title>Node1</title>
<g id="a_node2"><a xlink:href="classccf_1_1AbstractGovernanceEffects.html" target="_top" xlink:title=" ">
<polygon fill="white" stroke="black" points="197,-240.5 197,-259.5 365,-259.5 365,-240.5 197,-240.5"/>
<text text-anchor="middle" x="281" y="-247.5" font-family="Helvetica,sans-Serif" font-size="10.00">ccf::AbstractGovernanceEffects</text>
</a>
</g>
</g>
<!-- Node0&#45;&gt;Node1 -->
<g id="edge1" class="edge">
<title>Node0&#45;&gt;Node1</title>
<path fill="none" stroke="midnightblue" d="M97.85,-168.24C119.22,-186.28 156.29,-214.98 193,-231 201.78,-234.83 211.42,-237.93 220.97,-240.41"/>
<polygon fill="midnightblue" stroke="midnightblue" points="100.07,-165.54 90.21,-161.67 95.51,-170.84 100.07,-165.54"/>
</g>
<!-- Node3 -->
<g id="node4" class="node">
<title>Node3</title>
<g id="a_node4"><a xlink:href="classccf_1_1AbstractHostProcesses.html" target="_top" xlink:title=" ">
<polygon fill="white" stroke="black" points="207,-202.5 207,-221.5 355,-221.5 355,-202.5 207,-202.5"/>
<text text-anchor="middle" x="281" y="-209.5" font-family="Helvetica,sans-Serif" font-size="10.00">ccf::AbstractHostProcesses</text>
</a>
</g>
</g>
<!-- Node0&#45;&gt;Node3 -->
<g id="edge3" class="edge">
<title>Node0&#45;&gt;Node3</title>
<path fill="none" stroke="midnightblue" d="M112.51,-165.23C134.96,-173.9 165.47,-185.06 193,-193 205.18,-196.51 218.48,-199.73 230.94,-202.47"/>
<polygon fill="midnightblue" stroke="midnightblue" points="113.7,-161.94 103.11,-161.56 111.16,-168.46 113.7,-161.94"/>
</g>
<!-- Node5 -->
<g id="node6" class="node">
<title>Node5</title>
<g id="a_node6"><a xlink:href="classccf_1_1AbstractNodeOperation.html" target="_top" xlink:title=" ">
<polygon fill="white" stroke="black" points="206,-164.5 206,-183.5 356,-183.5 356,-164.5 206,-164.5"/>
<text text-anchor="middle" x="281" y="-171.5" font-family="Helvetica,sans-Serif" font-size="10.00">ccf::AbstractNodeOperation</text>
</a>
</g>
</g>
<!-- Node0&#45;&gt;Node5 -->
<g id="edge5" class="edge">
<title>Node0&#45;&gt;Node5</title>
<path fill="none" stroke="midnightblue" d="M167.29,-161.63C180.2,-163.05 193.39,-164.5 205.98,-165.88"/>
<polygon fill="midnightblue" stroke="midnightblue" points="167.34,-158.12 157.02,-160.51 166.58,-165.08 167.34,-158.12"/>
</g>
<!-- Node7 -->
<g id="node8" class="node">
<title>Node7</title>
<g id="a_node8"><a xlink:href="classccf_1_1historical_1_1AbstractStateCache.html" target="_top" xlink:title=" ">
<polygon fill="white" stroke="black" points="217,-115 217,-145 345,-145 345,-115 217,-115"/>
<text text-anchor="start" x="225" y="-133" font-family="Helvetica,sans-Serif" font-size="10.00">ccf::historical::Abstract</text>
<text text-anchor="middle" x="281" y="-122" font-family="Helvetica,sans-Serif" font-size="10.00">StateCache</text>
</a>
</g>
</g>
<!-- Node0&#45;&gt;Node7 -->
<g id="edge7" class="edge">
<title>Node0&#45;&gt;Node7</title>
<path fill="none" stroke="midnightblue" d="M167.34,-142.36C184.04,-140.53 201.21,-138.65 216.95,-136.92"/>
<polygon fill="midnightblue" stroke="midnightblue" points="166.58,-138.92 157.02,-143.49 167.34,-145.88 166.58,-138.92"/>
</g>
<!-- Node10 -->
<g id="node10" class="node">
<title>Node10</title>
<g id="a_node10"><a xlink:href="classccf_1_1indexing_1_1AbstractLFSAccess.html" target="_top" xlink:title=" ">
<polygon fill="white" stroke="black" points="193,-38.5 193,-57.5 369,-57.5 369,-38.5 193,-38.5"/>
<text text-anchor="middle" x="281" y="-45.5" font-family="Helvetica,sans-Serif" font-size="10.00">ccf::indexing::AbstractLFSAccess</text>
</a>
</g>
</g>
<!-- Node0&#45;&gt;Node10 -->
<g id="edge9" class="edge">
<title>Node0&#45;&gt;Node10</title>
<path fill="none" stroke="midnightblue" d="M96.62,-135.39C117.6,-115.99 155.05,-84.35 193,-67 201.44,-63.14 210.7,-60.05 219.93,-57.57"/>
<polygon fill="midnightblue" stroke="midnightblue" points="94.05,-133 89.17,-142.4 98.85,-138.09 94.05,-133"/>
</g>
<!-- Node12 -->
<g id="node12" class="node">
<title>Node12</title>
<g id="a_node12"><a xlink:href="classccf_1_1indexing_1_1IndexingStrategies.html" target="_top" xlink:title=" ">
<polygon fill="white" stroke="black" points="193,-0.5 193,-19.5 369,-19.5 369,-0.5 193,-0.5"/>
<text text-anchor="middle" x="281" y="-7.5" font-family="Helvetica,sans-Serif" font-size="10.00">ccf::indexing::IndexingStrategies</text>
</a>
</g>
</g>
<!-- Node0&#45;&gt;Node12 -->
<g id="edge11" class="edge">
<title>Node0&#45;&gt;Node12</title>
<path fill="none" stroke="midnightblue" d="M90.82,-133.92C108.9,-106.64 146.99,-55.36 193,-29 199.71,-25.16 207.11,-22.09 214.69,-19.64"/>
<polygon fill="midnightblue" stroke="midnightblue" points="87.77,-132.19 85.28,-142.48 93.65,-135.99 87.77,-132.19"/>
</g>
<!-- Node2 -->
<g id="node3" class="node">
<title>Node2</title>
<g id="a_node3"><a xlink:href="classccf_1_1GovernanceEffects.html" target="_top" xlink:title=" ">
<polygon fill="white" stroke="black" points="427.5,-240.5 427.5,-259.5 555.5,-259.5 555.5,-240.5 427.5,-240.5"/>
<text text-anchor="middle" x="491.5" y="-247.5" font-family="Helvetica,sans-Serif" font-size="10.00">ccf::GovernanceEffects</text>
</a>
</g>
</g>
<!-- Node1&#45;&gt;Node2 -->
<g id="edge2" class="edge">
<title>Node1&#45;&gt;Node2</title>
<path fill="none" stroke="midnightblue" d="M375.31,-250C392.93,-250 410.97,-250 427.38,-250"/>
<polygon fill="midnightblue" stroke="midnightblue" points="375,-246.5 365,-250 375,-253.5 375,-246.5"/>
</g>
<!-- Node4 -->
<g id="node5" class="node">
<title>Node4</title>
<g id="a_node5"><a xlink:href="classccf_1_1HostProcesses.html" target="_top" xlink:title=" ">
<polygon fill="white" stroke="black" points="438,-202.5 438,-221.5 545,-221.5 545,-202.5 438,-202.5"/>
<text text-anchor="middle" x="491.5" y="-209.5" font-family="Helvetica,sans-Serif" font-size="10.00">ccf::HostProcesses</text>
</a>
</g>
</g>
<!-- Node3&#45;&gt;Node4 -->
<g id="edge4" class="edge">
<title>Node3&#45;&gt;Node4</title>
<path fill="none" stroke="midnightblue" d="M365.23,-212C389.71,-212 415.8,-212 437.8,-212"/>
<polygon fill="midnightblue" stroke="midnightblue" points="365.22,-208.5 355.22,-212 365.22,-215.5 365.22,-208.5"/>
</g>
<!-- Node6 -->
<g id="node7" class="node">
<title>Node6</title>
<g id="a_node7"><a xlink:href="classccf_1_1NodeOperation.html" target="_top" xlink:title=" ">
<polygon fill="white" stroke="black" points="436.5,-164.5 436.5,-183.5 546.5,-183.5 546.5,-164.5 436.5,-164.5"/>
<text text-anchor="middle" x="491.5" y="-171.5" font-family="Helvetica,sans-Serif" font-size="10.00">ccf::NodeOperation</text>
</a>
</g>
</g>
<!-- Node5&#45;&gt;Node6 -->
<g id="edge6" class="edge">
<title>Node5&#45;&gt;Node6</title>
<path fill="none" stroke="midnightblue" d="M366.13,-174C389.8,-174 414.89,-174 436.3,-174"/>
<polygon fill="midnightblue" stroke="midnightblue" points="366.1,-170.5 356.1,-174 366.1,-177.5 366.1,-170.5"/>
</g>
<!-- Node8 -->
<g id="node9" class="node">
<title>Node8</title>
<g id="a_node9"><a xlink:href="classccf_1_1historical_1_1StateCache.html" target="_top" xlink:title=" ">
<polygon fill="white" stroke="black" points="420,-98.5 420,-117.5 563,-117.5 563,-98.5 420,-98.5"/>
<text text-anchor="middle" x="491.5" y="-105.5" font-family="Helvetica,sans-Serif" font-size="10.00">ccf::historical::StateCache</text>
</a>
</g>
</g>
<!-- Node7&#45;&gt;Node8 -->
<g id="edge8" class="edge">
<title>Node7&#45;&gt;Node8</title>
<path fill="none" stroke="midnightblue" d="M355.27,-122.27C376.26,-120.05 399.11,-117.64 419.94,-115.45"/>
<polygon fill="midnightblue" stroke="midnightblue" points="354.7,-118.81 345.12,-123.34 355.43,-125.77 354.7,-118.81"/>
</g>
<!-- Node11 -->
<g id="node11" class="node">
<title>Node11</title>
<g id="a_node11"><a xlink:href="classccf_1_1indexing_1_1EnclaveLFSAccess.html" target="_top" xlink:title=" ">
<polygon fill="white" stroke="black" points="405,-38.5 405,-57.5 578,-57.5 578,-38.5 405,-38.5"/>
<text text-anchor="middle" x="491.5" y="-45.5" font-family="Helvetica,sans-Serif" font-size="10.00">ccf::indexing::EnclaveLFSAccess</text>
</a>
</g>
</g>
<!-- Node10&#45;&gt;Node11 -->
<g id="edge10" class="edge">
<title>Node10&#45;&gt;Node11</title>
<path fill="none" stroke="midnightblue" d="M379.25,-48C387.84,-48 396.49,-48 404.97,-48"/>
<polygon fill="midnightblue" stroke="midnightblue" points="379.21,-44.5 369.21,-48 379.21,-51.5 379.21,-44.5"/>
</g>
<!-- Node13 -->
<g id="node13" class="node">
<title>Node13</title>
<g id="a_node13"><a xlink:href="classccf_1_1indexing_1_1Indexer.html" target="_top" xlink:title=" ">
<polygon fill="white" stroke="black" points="431.5,-0.5 431.5,-19.5 551.5,-19.5 551.5,-0.5 431.5,-0.5"/>
<text text-anchor="middle" x="491.5" y="-7.5" font-family="Helvetica,sans-Serif" font-size="10.00">ccf::indexing::Indexer</text>
</a>
</g>
</g>
<!-- Node12&#45;&gt;Node13 -->
<g id="edge12" class="edge">
<title>Node12&#45;&gt;Node13</title>
<path fill="none" stroke="midnightblue" d="M379.6,-10C397.32,-10 415.29,-10 431.47,-10"/>
<polygon fill="midnightblue" stroke="midnightblue" points="379.21,-6.5 369.21,-10 379.21,-13.5 379.21,-6.5"/>
</g>
<!-- Node9 -->
<g id="node14" class="node">
<title>Node9</title>
<g id="a_node14"><a xlink:href="classccf_1_1historical_1_1StateCacheImpl.html" target="_top" xlink:title=" ">
<polygon fill="white" stroke="black" points="199,-76.5 199,-95.5 363,-95.5 363,-76.5 199,-76.5"/>
<text text-anchor="middle" x="281" y="-83.5" font-family="Helvetica,sans-Serif" font-size="10.00">ccf::historical::StateCacheImpl</text>
</a>
</g>
</g>
<!-- Node9&#45;&gt;Node8 -->
<g id="edge13" class="edge">
<title>Node9&#45;&gt;Node8</title>
<path fill="none" stroke="midnightblue" d="M373.34,-95.64C388.87,-97.28 404.78,-98.96 419.68,-100.53"/>
<polygon fill="midnightblue" stroke="midnightblue" points="373.52,-92.14 363.21,-94.57 372.79,-99.1 373.52,-92.14"/>
</g>
</g>
</svg>
