<?xml version="1.0" encoding="UTF-8" standalone="no"?>
<!DOCTYPE svg PUBLIC "-//W3C//DTD SVG 1.1//EN"
 "http://www.w3.org/Graphics/SVG/1.1/DTD/svg11.dtd">
<!-- Generated by graphviz version 2.43.0 (0)
 -->
<!-- Title: Graphical Class Hierarchy Pages: 1 -->
<svg width="369pt" height="78pt"
 viewBox="0.00 0.00 369.00 77.50" xmlns="http://www.w3.org/2000/svg" xmlns:xlink="http://www.w3.org/1999/xlink">
<g id="graph0" class="graph" transform="scale(1 1) rotate(0) translate(4 73.5)">
<title>Graphical Class Hierarchy</title>
<polygon fill="white" stroke="transparent" points="-4,4 -4,-73.5 365,-73.5 365,4 -4,4"/>
<!-- Node0 -->
<g id="node1" class="node">
<title>Node0</title>
<g id="a_node1"><a xlink:href="classenclave_1_1AbstractForwarder.html" target="_top" xlink:title=" ">
<polygon fill="white" stroke="black" points="0,-22.5 0,-41.5 150,-41.5 150,-22.5 0,-22.5"/>
<text text-anchor="middle" x="75" y="-29.5" font-family="Helvetica,sans-Serif" font-size="10.00">enclave::AbstractForwarder</text>
</a>
</g>
</g>
<!-- Node1 -->
<g id="node2" class="node">
<title>Node1</title>
<g id="a_node2"><a xlink:href="classccf_1_1Forwarder.html" target="_top" xlink:title=" ">
<polygon fill="white" stroke="black" points="218.5,-39 218.5,-69 328.5,-69 328.5,-39 218.5,-39"/>
<text text-anchor="start" x="226.5" y="-57" font-family="Helvetica,sans-Serif" font-size="10.00">ccf::Forwarder&lt; ccf</text>
<text text-anchor="middle" x="273.5" y="-46" font-family="Helvetica,sans-Serif" font-size="10.00">::NodeToNode &gt;</text>
</a>
</g>
</g>
<!-- Node0&#45;&gt;Node1 -->
<g id="edge1" class="edge">
<title>Node0&#45;&gt;Node1</title>
<path fill="none" stroke="midnightblue" d="M159.97,-41.4C179.78,-43.62 200.39,-45.93 218.47,-47.95"/>
<polygon fill="midnightblue" stroke="midnightblue" points="160.34,-37.92 150.01,-40.29 159.56,-44.88 160.34,-37.92"/>
</g>
<!-- Node2 -->
<g id="node3" class="node">
<title>Node2</title>
<g id="a_node3"><a xlink:href="classccf_1_1Forwarder.html" target="_top" xlink:title=" ">
<polygon fill="white" stroke="black" points="186,-0.5 186,-19.5 361,-19.5 361,-0.5 186,-0.5"/>
<text text-anchor="middle" x="273.5" y="-7.5" font-family="Helvetica,sans-Serif" font-size="10.00">ccf::Forwarder&lt; ChannelProxy &gt;</text>
</a>
</g>
</g>
<!-- Node0&#45;&gt;Node2 -->
<g id="edge2" class="edge">
<title>Node0&#45;&gt;Node2</title>
<path fill="none" stroke="midnightblue" d="M160.11,-22.58C169.13,-21.57 178.31,-20.55 187.34,-19.53"/>
<polygon fill="midnightblue" stroke="midnightblue" points="159.56,-19.12 150.01,-23.71 160.34,-26.08 159.56,-19.12"/>
</g>
</g>
</svg>
