<?xml version="1.0" encoding="UTF-8" standalone="no"?>
<!DOCTYPE svg PUBLIC "-//W3C//DTD SVG 1.1//EN"
 "http://www.w3.org/Graphics/SVG/1.1/DTD/svg11.dtd">
<!-- Generated by graphviz version 2.43.0 (0)
 -->
<!-- Title: Graphical Class Hierarchy Pages: 1 -->
<svg width="349pt" height="338pt"
 viewBox="0.00 0.00 349.00 337.50" xmlns="http://www.w3.org/2000/svg" xmlns:xlink="http://www.w3.org/1999/xlink">
<g id="graph0" class="graph" transform="scale(1 1) rotate(0) translate(4 333.5)">
<title>Graphical Class Hierarchy</title>
<polygon fill="white" stroke="transparent" points="-4,4 -4,-333.5 345,-333.5 345,4 -4,4"/>
<!-- Node0 -->
<g id="node1" class="node">
<title>Node0</title>
<g id="a_node1"><a xlink:href="structconsensus_1_1AppendEntriesIndex.html" target="_top" xlink:title=" ">
<polygon fill="white" stroke="black" points="0,-299 0,-329 144,-329 144,-299 0,-299"/>
<text text-anchor="start" x="8" y="-317" font-family="Helvetica,sans-Serif" font-size="10.00">consensus::AppendEntries</text>
<text text-anchor="middle" x="72" y="-306" font-family="Helvetica,sans-Serif" font-size="10.00">Index</text>
</a>
</g>
</g>
<!-- Node1 -->
<g id="node2" class="node">
<title>Node1</title>
<g id="a_node2"><a xlink:href="structaft_1_1AppendEntries.html" target="_top" xlink:title=" ">
<polygon fill="white" stroke="black" points="207.5,-304.5 207.5,-323.5 313.5,-323.5 313.5,-304.5 207.5,-304.5"/>
<text text-anchor="middle" x="260.5" y="-311.5" font-family="Helvetica,sans-Serif" font-size="10.00">aft::AppendEntries</text>
</a>
</g>
</g>
<!-- Node0&#45;&gt;Node1 -->
<g id="edge1" class="edge">
<title>Node0&#45;&gt;Node1</title>
<path fill="none" stroke="midnightblue" d="M154.23,-314C172.2,-314 190.77,-314 207.22,-314"/>
<polygon fill="midnightblue" stroke="midnightblue" points="154.04,-310.5 144.04,-314 154.04,-317.5 154.04,-310.5"/>
</g>
<!-- Node2 -->
<g id="node3" class="node">
<title>Node2</title>
<g id="a_node3"><a xlink:href="structaft_1_1RaftHeader.html" target="_top" xlink:title=" ">
<polygon fill="white" stroke="black" points="27,-152.5 27,-171.5 117,-171.5 117,-152.5 27,-152.5"/>
<text text-anchor="middle" x="72" y="-159.5" font-family="Helvetica,sans-Serif" font-size="10.00">aft::RaftHeader</text>
</a>
</g>
</g>
<!-- Node2&#45;&gt;Node1 -->
<g id="edge2" class="edge">
<title>Node2&#45;&gt;Node1</title>
<path fill="none" stroke="midnightblue" d="M82.62,-180.6C98.7,-209.73 133.85,-265.81 180,-295 188.28,-300.23 197.87,-304.03 207.46,-306.78"/>
<polygon fill="midnightblue" stroke="midnightblue" points="85.56,-178.66 77.75,-171.5 79.39,-181.97 85.56,-178.66"/>
</g>
<!-- Node3 -->
<g id="node4" class="node">
<title>Node3</title>
<g id="a_node4"><a xlink:href="structaft_1_1AppendEntriesResponse.html" target="_top" xlink:title=" ">
<polygon fill="white" stroke="black" points="184,-266.5 184,-285.5 337,-285.5 337,-266.5 184,-266.5"/>
<text text-anchor="middle" x="260.5" y="-273.5" font-family="Helvetica,sans-Serif" font-size="10.00">aft::AppendEntriesResponse</text>
</a>
</g>
</g>
<!-- Node2&#45;&gt;Node3 -->
<g id="edge3" class="edge">
<title>Node2&#45;&gt;Node3</title>
<path fill="none" stroke="midnightblue" d="M87.42,-179.21C106.41,-200.73 141.88,-237.14 180,-257 187.43,-260.87 195.65,-263.96 203.91,-266.44"/>
<polygon fill="midnightblue" stroke="midnightblue" points="89.95,-176.78 80.76,-171.5 84.65,-181.36 89.95,-176.78"/>
</g>
<!-- Node4 -->
<g id="node5" class="node">
<title>Node4</title>
<g id="a_node5"><a xlink:href="structaft_1_1NonceRevealMsg.html" target="_top" xlink:title=" ">
<polygon fill="white" stroke="black" points="200.5,-228.5 200.5,-247.5 320.5,-247.5 320.5,-228.5 200.5,-228.5"/>
<text text-anchor="middle" x="260.5" y="-235.5" font-family="Helvetica,sans-Serif" font-size="10.00">aft::NonceRevealMsg</text>
</a>
</g>
</g>
<!-- Node2&#45;&gt;Node4 -->
<g id="edge4" class="edge">
<title>Node2&#45;&gt;Node4</title>
<path fill="none" stroke="midnightblue" d="M96.63,-176.86C117.78,-189.59 149.99,-207.64 180,-219 189.82,-222.72 200.61,-225.88 210.98,-228.48"/>
<polygon fill="midnightblue" stroke="midnightblue" points="98.37,-173.82 88.01,-171.59 94.72,-179.79 98.37,-173.82"/>
</g>
<!-- Node5 -->
<g id="node6" class="node">
<title>Node5</title>
<g id="a_node6"><a xlink:href="structaft_1_1RequestViewChangeMsg.html" target="_top" xlink:title=" ">
<polygon fill="white" stroke="black" points="182.5,-190.5 182.5,-209.5 338.5,-209.5 338.5,-190.5 182.5,-190.5"/>
<text text-anchor="middle" x="260.5" y="-197.5" font-family="Helvetica,sans-Serif" font-size="10.00">aft::RequestViewChangeMsg</text>
</a>
</g>
</g>
<!-- Node2&#45;&gt;Node5 -->
<g id="edge5" class="edge">
<title>Node2&#45;&gt;Node5</title>
<path fill="none" stroke="midnightblue" d="M127.28,-173.06C154.34,-178.57 186.74,-185.17 212.69,-190.46"/>
<polygon fill="midnightblue" stroke="midnightblue" points="127.7,-169.57 117.2,-171.01 126.3,-176.43 127.7,-169.57"/>
</g>
<!-- Node6 -->
<g id="node7" class="node">
<title>Node6</title>
<g id="a_node7"><a xlink:href="structaft_1_1RequestVote.html" target="_top" xlink:title=" ">
<polygon fill="white" stroke="black" points="212,-152.5 212,-171.5 309,-171.5 309,-152.5 212,-152.5"/>
<text text-anchor="middle" x="260.5" y="-159.5" font-family="Helvetica,sans-Serif" font-size="10.00">aft::RequestVote</text>
</a>
</g>
</g>
<!-- Node2&#45;&gt;Node6 -->
<g id="edge6" class="edge">
<title>Node2&#45;&gt;Node6</title>
<path fill="none" stroke="midnightblue" d="M127.52,-162C154.19,-162 185.99,-162 211.7,-162"/>
<polygon fill="midnightblue" stroke="midnightblue" points="127.2,-158.5 117.2,-162 127.2,-165.5 127.2,-158.5"/>
</g>
<!-- Node7 -->
<g id="node8" class="node">
<title>Node7</title>
<g id="a_node8"><a xlink:href="structaft_1_1RequestVoteResponse.html" target="_top" xlink:title=" ">
<polygon fill="white" stroke="black" points="188.5,-114.5 188.5,-133.5 332.5,-133.5 332.5,-114.5 188.5,-114.5"/>
<text text-anchor="middle" x="260.5" y="-121.5" font-family="Helvetica,sans-Serif" font-size="10.00">aft::RequestVoteResponse</text>
</a>
</g>
</g>
<!-- Node2&#45;&gt;Node7 -->
<g id="edge7" class="edge">
<title>Node2&#45;&gt;Node7</title>
<path fill="none" stroke="midnightblue" d="M127.28,-150.94C154.34,-145.43 186.74,-138.83 212.69,-133.54"/>
<polygon fill="midnightblue" stroke="midnightblue" points="126.3,-147.57 117.2,-152.99 127.7,-154.43 126.3,-147.57"/>
</g>
<!-- Node8 -->
<g id="node9" class="node">
<title>Node8</title>
<g id="a_node9"><a xlink:href="structaft_1_1SignaturesReceivedAck.html" target="_top" xlink:title=" ">
<polygon fill="white" stroke="black" points="185.5,-76.5 185.5,-95.5 335.5,-95.5 335.5,-76.5 185.5,-76.5"/>
<text text-anchor="middle" x="260.5" y="-83.5" font-family="Helvetica,sans-Serif" font-size="10.00">aft::SignaturesReceivedAck</text>
</a>
</g>
</g>
<!-- Node2&#45;&gt;Node8 -->
<g id="edge8" class="edge">
<title>Node2&#45;&gt;Node8</title>
<path fill="none" stroke="midnightblue" d="M96.63,-147.14C117.78,-134.41 149.99,-116.36 180,-105 189.82,-101.28 200.61,-98.12 210.98,-95.52"/>
<polygon fill="midnightblue" stroke="midnightblue" points="94.72,-144.21 88.01,-152.41 98.37,-150.18 94.72,-144.21"/>
</g>
<!-- Node9 -->
<g id="node10" class="node">
<title>Node9</title>
<g id="a_node10"><a xlink:href="structaft_1_1SkipViewMsg.html" target="_top" xlink:title=" ">
<polygon fill="white" stroke="black" points="210,-38.5 210,-57.5 311,-57.5 311,-38.5 210,-38.5"/>
<text text-anchor="middle" x="260.5" y="-45.5" font-family="Helvetica,sans-Serif" font-size="10.00">aft::SkipViewMsg</text>
</a>
</g>
</g>
<!-- Node2&#45;&gt;Node9 -->
<g id="edge9" class="edge">
<title>Node2&#45;&gt;Node9</title>
<path fill="none" stroke="midnightblue" d="M87.42,-144.79C106.41,-123.27 141.88,-86.86 180,-67 189.19,-62.21 199.6,-58.61 209.79,-55.91"/>
<polygon fill="midnightblue" stroke="midnightblue" points="84.65,-142.64 80.76,-152.5 89.95,-147.22 84.65,-142.64"/>
</g>
<!-- Node10 -->
<g id="node11" class="node">
<title>Node10</title>
<g id="a_node11"><a xlink:href="structaft_1_1ViewChangeEvidenceMsg.html" target="_top" xlink:title=" ">
<polygon fill="white" stroke="black" points="180,-0.5 180,-19.5 341,-19.5 341,-0.5 180,-0.5"/>
<text text-anchor="middle" x="260.5" y="-7.5" font-family="Helvetica,sans-Serif" font-size="10.00">aft::ViewChangeEvidenceMsg</text>
</a>
</g>
</g>
<!-- Node2&#45;&gt;Node10 -->
<g id="edge10" class="edge">
<title>Node2&#45;&gt;Node10</title>
<path fill="none" stroke="midnightblue" d="M82.62,-143.4C98.7,-114.27 133.85,-58.19 180,-29 186.12,-25.13 192.95,-22.05 199.98,-19.6"/>
<polygon fill="midnightblue" stroke="midnightblue" points="79.39,-142.03 77.75,-152.5 85.56,-145.34 79.39,-142.03"/>
</g>
</g>
</svg>
