<?xml version="1.0" encoding="UTF-8" standalone="no"?>
<!DOCTYPE svg PUBLIC "-//W3C//DTD SVG 1.1//EN"
 "http://www.w3.org/Graphics/SVG/1.1/DTD/svg11.dtd">
<!-- Generated by graphviz version 2.43.0 (0)
 -->
<!-- Title: Graphical Class Hierarchy Pages: 1 -->
<svg width="886pt" height="1950pt"
 viewBox="0.00 0.00 886.00 1949.50" xmlns="http://www.w3.org/2000/svg" xmlns:xlink="http://www.w3.org/1999/xlink">
<g id="graph0" class="graph" transform="scale(1 1) rotate(0) translate(4 1945.5)">
<title>Graphical Class Hierarchy</title>
<polygon fill="white" stroke="transparent" points="-4,4 -4,-1945.5 882,-1945.5 882,4 -4,4"/>
<!-- Node0 -->
<g id="node1" class="node">
<title>Node0</title>
<g id="a_node1"><a xlink:href="classenclave_1_1ClientEndpoint.html" target="_top" xlink:title=" ">
<polygon fill="white" stroke="black" points="537.5,-1922 537.5,-1941 669.5,-1941 669.5,-1922 537.5,-1922"/>
<text text-anchor="middle" x="603.5" y="-1929" font-family="Helvetica,sans-Serif" font-size="10.00">enclave::ClientEndpoint</text>
</a>
</g>
</g>
<!-- Node1 -->
<g id="node2" class="node">
<title>Node1</title>
<g id="a_node2"><a xlink:href="classhttp_1_1HTTPClientEndpoint.html" target="_top" xlink:title=" ">
<polygon fill="white" stroke="black" points="723.5,-1922 723.5,-1941 862.5,-1941 862.5,-1922 723.5,-1922"/>
<text text-anchor="middle" x="793" y="-1929" font-family="Helvetica,sans-Serif" font-size="10.00">http::HTTPClientEndpoint</text>
</a>
</g>
</g>
<!-- Node0&#45;&gt;Node1 -->
<g id="edge1" class="edge">
<title>Node0&#45;&gt;Node1</title>
<path fill="none" stroke="midnightblue" d="M679.86,-1931.5C694.19,-1931.5 709.12,-1931.5 723.23,-1931.5"/>
<polygon fill="midnightblue" stroke="midnightblue" points="679.55,-1928 669.55,-1931.5 679.55,-1935 679.55,-1928"/>
</g>
<!-- Node8 -->
<g id="node3" class="node">
<title>Node8</title>
<g id="a_node3"><a xlink:title=" ">
<polygon fill="white" stroke="#bfbfbf" points="0,-1878.5 0,-1908.5 109,-1908.5 109,-1878.5 0,-1878.5"/>
<text text-anchor="start" x="8" y="-1896.5" font-family="Helvetica,sans-Serif" font-size="10.00">std::enable_shared</text>
<text text-anchor="middle" x="54.5" y="-1885.5" font-family="Helvetica,sans-Serif" font-size="10.00">_from_this</text>
</a>
</g>
</g>
<!-- Node9 -->
<g id="node4" class="node">
<title>Node9</title>
<g id="a_node4"><a xlink:href="classccf_1_1Snapshotter.html" target="_top" xlink:title=" ">
<polygon fill="white" stroke="black" points="196,-1922 196,-1941 291,-1941 291,-1922 196,-1922"/>
<text text-anchor="middle" x="243.5" y="-1929" font-family="Helvetica,sans-Serif" font-size="10.00">ccf::Snapshotter</text>
</a>
</g>
</g>
<!-- Node8&#45;&gt;Node9 -->
<g id="edge2" class="edge">
<title>Node8&#45;&gt;Node9</title>
<path fill="none" stroke="midnightblue" d="M119.43,-1907.21C128.02,-1909.01 136.72,-1910.81 145,-1912.5 161.56,-1915.87 179.73,-1919.45 195.85,-1922.57"/>
<polygon fill="midnightblue" stroke="midnightblue" points="119.93,-1903.74 109.42,-1905.1 118.49,-1910.59 119.93,-1903.74"/>
</g>
<!-- Node7 -->
<g id="node5" class="node">
<title>Node7</title>
<g id="a_node5"><a xlink:href="classenclave_1_1Endpoint.html" target="_top" xlink:title=" ">
<polygon fill="white" stroke="black" points="191.5,-1884 191.5,-1903 295.5,-1903 295.5,-1884 191.5,-1884"/>
<text text-anchor="middle" x="243.5" y="-1891" font-family="Helvetica,sans-Serif" font-size="10.00">enclave::Endpoint</text>
</a>
</g>
</g>
<!-- Node8&#45;&gt;Node7 -->
<g id="edge3" class="edge">
<title>Node8&#45;&gt;Node7</title>
<path fill="none" stroke="midnightblue" d="M119.33,-1893.5C142.87,-1893.5 169.22,-1893.5 191.48,-1893.5"/>
<polygon fill="midnightblue" stroke="midnightblue" points="119.09,-1890 109.09,-1893.5 119.09,-1897 119.09,-1890"/>
</g>
<!-- Node10 -->
<g id="node9" class="node">
<title>Node10</title>
<g id="a_node9"><a xlink:href="classkv_1_1AbstractMap.html" target="_top" xlink:title=" ">
<polygon fill="white" stroke="black" points="196,-1846 196,-1865 291,-1865 291,-1846 196,-1846"/>
<text text-anchor="middle" x="243.5" y="-1853" font-family="Helvetica,sans-Serif" font-size="10.00">kv::AbstractMap</text>
</a>
</g>
</g>
<!-- Node8&#45;&gt;Node10 -->
<g id="edge8" class="edge">
<title>Node8&#45;&gt;Node10</title>
<path fill="none" stroke="midnightblue" d="M119.43,-1879.79C128.02,-1877.99 136.72,-1876.19 145,-1874.5 161.56,-1871.13 179.73,-1867.55 195.85,-1864.43"/>
<polygon fill="midnightblue" stroke="midnightblue" points="118.49,-1876.41 109.42,-1881.9 119.93,-1883.26 118.49,-1876.41"/>
</g>
<!-- Node6 -->
<g id="node6" class="node">
<title>Node6</title>
<g id="a_node6"><a xlink:href="classenclave_1_1TLSEndpoint.html" target="_top" xlink:title=" ">
<polygon fill="white" stroke="black" points="378,-1884 378,-1903 499,-1903 499,-1884 378,-1884"/>
<text text-anchor="middle" x="438.5" y="-1891" font-family="Helvetica,sans-Serif" font-size="10.00">enclave::TLSEndpoint</text>
</a>
</g>
</g>
<!-- Node7&#45;&gt;Node6 -->
<g id="edge4" class="edge">
<title>Node7&#45;&gt;Node6</title>
<path fill="none" stroke="midnightblue" d="M305.72,-1893.5C328.77,-1893.5 354.92,-1893.5 377.83,-1893.5"/>
<polygon fill="midnightblue" stroke="midnightblue" points="305.71,-1890 295.71,-1893.5 305.71,-1897 305.71,-1890"/>
</g>
<!-- Node2 -->
<g id="node7" class="node">
<title>Node2</title>
<g id="a_node7"><a xlink:href="classhttp_1_1HTTPEndpoint.html" target="_top" xlink:title=" ">
<polygon fill="white" stroke="black" points="548.5,-1884 548.5,-1903 658.5,-1903 658.5,-1884 548.5,-1884"/>
<text text-anchor="middle" x="603.5" y="-1891" font-family="Helvetica,sans-Serif" font-size="10.00">http::HTTPEndpoint</text>
</a>
</g>
</g>
<!-- Node6&#45;&gt;Node2 -->
<g id="edge5" class="edge">
<title>Node6&#45;&gt;Node2</title>
<path fill="none" stroke="midnightblue" d="M509.58,-1893.5C522.58,-1893.5 535.97,-1893.5 548.41,-1893.5"/>
<polygon fill="midnightblue" stroke="midnightblue" points="509.27,-1890 499.27,-1893.5 509.27,-1897 509.27,-1890"/>
</g>
<!-- Node2&#45;&gt;Node1 -->
<g id="edge6" class="edge">
<title>Node2&#45;&gt;Node1</title>
<path fill="none" stroke="midnightblue" d="M661.78,-1905.11C688.45,-1910.51 719.78,-1916.86 745.03,-1921.98"/>
<polygon fill="midnightblue" stroke="midnightblue" points="662.31,-1901.65 651.81,-1903.09 660.92,-1908.51 662.31,-1901.65"/>
</g>
<!-- Node3 -->
<g id="node8" class="node">
<title>Node3</title>
<g id="a_node8"><a xlink:href="classhttp_1_1HTTPServerEndpoint.html" target="_top" xlink:title=" ">
<polygon fill="white" stroke="black" points="722,-1884 722,-1903 864,-1903 864,-1884 722,-1884"/>
<text text-anchor="middle" x="793" y="-1891" font-family="Helvetica,sans-Serif" font-size="10.00">http::HTTPServerEndpoint</text>
</a>
</g>
</g>
<!-- Node2&#45;&gt;Node3 -->
<g id="edge7" class="edge">
<title>Node2&#45;&gt;Node3</title>
<path fill="none" stroke="midnightblue" d="M669.11,-1893.5C686.11,-1893.5 704.53,-1893.5 721.81,-1893.5"/>
<polygon fill="midnightblue" stroke="midnightblue" points="668.73,-1890 658.73,-1893.5 668.73,-1897 668.73,-1890"/>
</g>
<!-- Node11 -->
<g id="node10" class="node">
<title>Node11</title>
<g id="a_node10"><a xlink:href="classkv_1_1untyped_1_1Map.html" target="_top" xlink:title=" ">
<polygon fill="white" stroke="black" points="388,-1846 388,-1865 489,-1865 489,-1846 388,-1846"/>
<text text-anchor="middle" x="438.5" y="-1853" font-family="Helvetica,sans-Serif" font-size="10.00">kv::untyped::Map</text>
</a>
</g>
</g>
<!-- Node10&#45;&gt;Node11 -->
<g id="edge9" class="edge">
<title>Node10&#45;&gt;Node11</title>
<path fill="none" stroke="midnightblue" d="M301.45,-1855.5C328.87,-1855.5 361.44,-1855.5 387.84,-1855.5"/>
<polygon fill="midnightblue" stroke="midnightblue" points="301.22,-1852 291.22,-1855.5 301.22,-1859 301.22,-1852"/>
</g>
<!-- Node12 -->
<g id="node11" class="node">
<title>Node12</title>
<g id="a_node11"><a xlink:href="structkv_1_1GetName.html" target="_top" xlink:title=" ">
<polygon fill="white" stroke="black" points="14.5,-977 14.5,-996 94.5,-996 94.5,-977 14.5,-977"/>
<text text-anchor="middle" x="54.5" y="-984" font-family="Helvetica,sans-Serif" font-size="10.00">kv::GetName</text>
</a>
</g>
</g>
<!-- Node12&#45;&gt;Node10 -->
<g id="edge43" class="edge">
<title>Node12&#45;&gt;Node10</title>
<path fill="none" stroke="midnightblue" d="M56.19,-1006.19C60.65,-1127.77 86.92,-1773.1 145,-1836.5 157.76,-1850.42 177.44,-1855.91 195.79,-1857.64"/>
<polygon fill="midnightblue" stroke="midnightblue" points="59.69,-1005.97 55.83,-996.1 52.69,-1006.22 59.69,-1005.97"/>
</g>
<!-- Node13 -->
<g id="node12" class="node">
<title>Node13</title>
<g id="a_node12"><a xlink:href="classkv_1_1TypedMap.html" target="_top" xlink:title=" ">
<polygon fill="white" stroke="black" points="170,-1375.5 170,-1405.5 317,-1405.5 317,-1375.5 170,-1375.5"/>
<text text-anchor="start" x="178" y="-1393.5" font-family="Helvetica,sans-Serif" font-size="10.00">kv::TypedMap&lt; MemberId,</text>
<text text-anchor="middle" x="243.5" y="-1382.5" font-family="Helvetica,sans-Serif" font-size="10.00"> crypto::Pem &gt;</text>
</a>
</g>
</g>
<!-- Node12&#45;&gt;Node13 -->
<g id="edge10" class="edge">
<title>Node12&#45;&gt;Node13</title>
<path fill="none" stroke="midnightblue" d="M57.48,-1006.18C64.94,-1076.36 93.53,-1313.04 145,-1365.5 151.98,-1372.61 160.68,-1377.79 169.99,-1381.56"/>
<polygon fill="midnightblue" stroke="midnightblue" points="60.94,-1005.65 56.43,-996.06 53.98,-1006.37 60.94,-1005.65"/>
</g>
<!-- Node14 -->
<g id="node13" class="node">
<title>Node14</title>
<g id="a_node13"><a xlink:href="classkv_1_1TypedMap.html" target="_top" xlink:title=" ">
<polygon fill="white" stroke="black" points="170,-1326.5 170,-1356.5 317,-1356.5 317,-1326.5 170,-1326.5"/>
<text text-anchor="start" x="178" y="-1344.5" font-family="Helvetica,sans-Serif" font-size="10.00">kv::TypedMap&lt; MemberId,</text>
<text text-anchor="middle" x="243.5" y="-1333.5" font-family="Helvetica,sans-Serif" font-size="10.00"> MemberDetails &gt;</text>
</a>
</g>
</g>
<!-- Node12&#45;&gt;Node14 -->
<g id="edge11" class="edge">
<title>Node12&#45;&gt;Node14</title>
<path fill="none" stroke="midnightblue" d="M58.21,-1006.08C67.43,-1070.11 99.65,-1271.77 145,-1316.5 151.97,-1323.37 160.55,-1328.43 169.71,-1332.15"/>
<polygon fill="midnightblue" stroke="midnightblue" points="61.66,-1005.51 56.79,-996.1 54.73,-1006.49 61.66,-1005.51"/>
</g>
<!-- Node15 -->
<g id="node14" class="node">
<title>Node15</title>
<g id="a_node14"><a xlink:href="classkv_1_1TypedMap.html" target="_top" xlink:title=" ">
<polygon fill="white" stroke="black" points="185.5,-1277.5 185.5,-1307.5 301.5,-1307.5 301.5,-1277.5 185.5,-1277.5"/>
<text text-anchor="start" x="193.5" y="-1295.5" font-family="Helvetica,sans-Serif" font-size="10.00">kv::TypedMap&lt; std::</text>
<text text-anchor="middle" x="243.5" y="-1284.5" font-family="Helvetica,sans-Serif" font-size="10.00">string, Module &gt;</text>
</a>
</g>
</g>
<!-- Node12&#45;&gt;Node15 -->
<g id="edge12" class="edge">
<title>Node12&#45;&gt;Node15</title>
<path fill="none" stroke="midnightblue" d="M55.63,-1006.24C57.1,-1057.36 68.34,-1195.12 145,-1267.5 155.99,-1277.88 170.69,-1284.1 185.33,-1287.78"/>
<polygon fill="midnightblue" stroke="midnightblue" points="59.13,-1006.13 55.45,-996.19 52.13,-1006.26 59.13,-1006.13"/>
</g>
<!-- Node16 -->
<g id="node15" class="node">
<title>Node16</title>
<g id="a_node15"><a xlink:href="classkv_1_1TypedMap.html" target="_top" xlink:title=" ">
<polygon fill="white" stroke="black" points="185.5,-1217 185.5,-1258 301.5,-1258 301.5,-1217 185.5,-1217"/>
<text text-anchor="start" x="193.5" y="-1246" font-family="Helvetica,sans-Serif" font-size="10.00">kv::TypedMap&lt; std::</text>
<text text-anchor="start" x="193.5" y="-1235" font-family="Helvetica,sans-Serif" font-size="10.00">string, std::vector</text>
<text text-anchor="middle" x="243.5" y="-1224" font-family="Helvetica,sans-Serif" font-size="10.00">&lt; uint8_t &gt; &gt;</text>
</a>
</g>
</g>
<!-- Node12&#45;&gt;Node16 -->
<g id="edge13" class="edge">
<title>Node12&#45;&gt;Node16</title>
<path fill="none" stroke="midnightblue" d="M57.86,-1005.95C64.04,-1048.55 84.68,-1150.74 145,-1206.5 156.22,-1216.87 170.9,-1223.77 185.46,-1228.36"/>
<polygon fill="midnightblue" stroke="midnightblue" points="61.32,-1005.48 56.52,-996.03 54.39,-1006.41 61.32,-1005.48"/>
</g>
<!-- Node17 -->
<g id="node16" class="node">
<title>Node17</title>
<g id="a_node16"><a xlink:href="classkv_1_1TypedMap.html" target="_top" xlink:title=" ">
<polygon fill="white" stroke="black" points="166.5,-1167.5 166.5,-1197.5 320.5,-1197.5 320.5,-1167.5 166.5,-1167.5"/>
<text text-anchor="start" x="174.5" y="-1185.5" font-family="Helvetica,sans-Serif" font-size="10.00">kv::TypedMap&lt; CodeDigest,</text>
<text text-anchor="middle" x="243.5" y="-1174.5" font-family="Helvetica,sans-Serif" font-size="10.00"> CodeStatus &gt;</text>
</a>
</g>
</g>
<!-- Node12&#45;&gt;Node17 -->
<g id="edge14" class="edge">
<title>Node12&#45;&gt;Node17</title>
<path fill="none" stroke="midnightblue" d="M60.13,-1006.12C69.62,-1041.9 94.75,-1117.7 145,-1157.5 151.3,-1162.49 158.49,-1166.49 166.03,-1169.71"/>
<polygon fill="midnightblue" stroke="midnightblue" points="63.42,-1004.85 57.59,-996.01 56.63,-1006.56 63.42,-1004.85"/>
</g>
<!-- Node18 -->
<g id="node17" class="node">
<title>Node18</title>
<g id="a_node17"><a xlink:href="classkv_1_1TypedMap.html" target="_top" xlink:title=" ">
<polygon fill="white" stroke="black" points="170,-1118.5 170,-1148.5 317,-1148.5 317,-1118.5 170,-1118.5"/>
<text text-anchor="start" x="178" y="-1136.5" font-family="Helvetica,sans-Serif" font-size="10.00">kv::TypedMap&lt; MemberId,</text>
<text text-anchor="middle" x="243.5" y="-1125.5" font-family="Helvetica,sans-Serif" font-size="10.00"> MemberAck &gt;</text>
</a>
</g>
</g>
<!-- Node12&#45;&gt;Node18 -->
<g id="edge15" class="edge">
<title>Node12&#45;&gt;Node18</title>
<path fill="none" stroke="midnightblue" d="M64.12,-1005.37C77.49,-1032.46 105.83,-1082.02 145,-1108.5 152.53,-1113.59 161.02,-1117.64 169.78,-1120.87"/>
<polygon fill="midnightblue" stroke="midnightblue" points="67.2,-1003.7 59.74,-996.18 60.89,-1006.71 67.2,-1003.7"/>
</g>
<!-- Node19 -->
<g id="node18" class="node">
<title>Node19</title>
<g id="a_node18"><a xlink:href="classkv_1_1TypedMap.html" target="_top" xlink:title=" ">
<polygon fill="white" stroke="black" points="170,-1069.5 170,-1099.5 317,-1099.5 317,-1069.5 170,-1069.5"/>
<text text-anchor="start" x="178" y="-1087.5" font-family="Helvetica,sans-Serif" font-size="10.00">kv::TypedMap&lt; MemberId,</text>
<text text-anchor="middle" x="243.5" y="-1076.5" font-family="Helvetica,sans-Serif" font-size="10.00"> SignedReq &gt;</text>
</a>
</g>
</g>
<!-- Node12&#45;&gt;Node19 -->
<g id="edge16" class="edge">
<title>Node12&#45;&gt;Node19</title>
<path fill="none" stroke="midnightblue" d="M71.79,-1003.55C88.61,-1020.19 116.39,-1045.05 145,-1059.5 152.8,-1063.44 161.27,-1066.79 169.86,-1069.64"/>
<polygon fill="midnightblue" stroke="midnightblue" points="73.97,-1000.77 64.45,-996.12 68.99,-1005.69 73.97,-1000.77"/>
</g>
<!-- Node20 -->
<g id="node19" class="node">
<title>Node20</title>
<g id="a_node19"><a xlink:href="classkv_1_1TypedMap.html" target="_top" xlink:title=" ">
<polygon fill="white" stroke="black" points="164.5,-1020.5 164.5,-1050.5 322.5,-1050.5 322.5,-1020.5 164.5,-1020.5"/>
<text text-anchor="start" x="172.5" y="-1038.5" font-family="Helvetica,sans-Serif" font-size="10.00">kv::TypedMap&lt; MemberId,</text>
<text text-anchor="middle" x="243.5" y="-1027.5" font-family="Helvetica,sans-Serif" font-size="10.00"> EncryptedSubmittedShare &gt;</text>
</a>
</g>
</g>
<!-- Node12&#45;&gt;Node20 -->
<g id="edge17" class="edge">
<title>Node12&#45;&gt;Node20</title>
<path fill="none" stroke="midnightblue" d="M100.76,-998.74C114.92,-1002.54 130.6,-1006.72 145,-1010.5 157.42,-1013.76 170.75,-1017.21 183.44,-1020.47"/>
<polygon fill="midnightblue" stroke="midnightblue" points="101.32,-995.27 90.76,-996.05 99.51,-1002.03 101.32,-995.27"/>
</g>
<!-- Node21 -->
<g id="node20" class="node">
<title>Node21</title>
<g id="a_node20"><a xlink:href="classkv_1_1TypedMap.html" target="_top" xlink:title=" ">
<polygon fill="white" stroke="black" points="185.5,-971.5 185.5,-1001.5 301.5,-1001.5 301.5,-971.5 185.5,-971.5"/>
<text text-anchor="start" x="193.5" y="-989.5" font-family="Helvetica,sans-Serif" font-size="10.00">kv::TypedMap&lt; std::</text>
<text text-anchor="middle" x="243.5" y="-978.5" font-family="Helvetica,sans-Serif" font-size="10.00">string, std::string &gt;</text>
</a>
</g>
</g>
<!-- Node12&#45;&gt;Node21 -->
<g id="edge18" class="edge">
<title>Node12&#45;&gt;Node21</title>
<path fill="none" stroke="midnightblue" d="M104.92,-986.5C129.59,-986.5 159.58,-986.5 185.25,-986.5"/>
<polygon fill="midnightblue" stroke="midnightblue" points="104.7,-983 94.7,-986.5 104.7,-990 104.7,-983"/>
</g>
<!-- Node22 -->
<g id="node21" class="node">
<title>Node22</title>
<g id="a_node21"><a xlink:href="classkv_1_1TypedMap.html" target="_top" xlink:title=" ">
<polygon fill="white" stroke="black" points="172.5,-922.5 172.5,-952.5 314.5,-952.5 314.5,-922.5 172.5,-922.5"/>
<text text-anchor="start" x="180.5" y="-940.5" font-family="Helvetica,sans-Serif" font-size="10.00">kv::TypedMap&lt; JwtIssuer,</text>
<text text-anchor="middle" x="243.5" y="-929.5" font-family="Helvetica,sans-Serif" font-size="10.00"> JwtIssuerMetadata &gt;</text>
</a>
</g>
</g>
<!-- Node12&#45;&gt;Node22 -->
<g id="edge19" class="edge">
<title>Node12&#45;&gt;Node22</title>
<path fill="none" stroke="midnightblue" d="M98.45,-974.21C113.18,-970.07 129.79,-965.5 145,-961.5 156.38,-958.51 168.54,-955.43 180.27,-952.51"/>
<polygon fill="midnightblue" stroke="midnightblue" points="97.26,-970.91 88.59,-976.99 99.16,-977.65 97.26,-970.91"/>
</g>
<!-- Node23 -->
<g id="node22" class="node">
<title>Node23</title>
<g id="a_node22"><a xlink:href="classkv_1_1TypedMap.html" target="_top" xlink:title=" ">
<polygon fill="white" stroke="black" points="173.5,-873.5 173.5,-903.5 313.5,-903.5 313.5,-873.5 173.5,-873.5"/>
<text text-anchor="start" x="181.5" y="-891.5" font-family="Helvetica,sans-Serif" font-size="10.00">kv::TypedMap&lt; JwtKeyId,</text>
<text text-anchor="middle" x="243.5" y="-880.5" font-family="Helvetica,sans-Serif" font-size="10.00"> Cert &gt;</text>
</a>
</g>
</g>
<!-- Node12&#45;&gt;Node23 -->
<g id="edge20" class="edge">
<title>Node12&#45;&gt;Node23</title>
<path fill="none" stroke="midnightblue" d="M71.44,-969.42C88.18,-952.5 116.06,-927.06 145,-912.5 153.88,-908.03 163.63,-904.37 173.44,-901.37"/>
<polygon fill="midnightblue" stroke="midnightblue" points="68.59,-967.34 64.16,-976.96 73.63,-972.2 68.59,-967.34"/>
</g>
<!-- Node24 -->
<g id="node23" class="node">
<title>Node24</title>
<g id="a_node23"><a xlink:href="classkv_1_1TypedMap.html" target="_top" xlink:title=" ">
<polygon fill="white" stroke="black" points="173.5,-824.5 173.5,-854.5 313.5,-854.5 313.5,-824.5 173.5,-824.5"/>
<text text-anchor="start" x="181.5" y="-842.5" font-family="Helvetica,sans-Serif" font-size="10.00">kv::TypedMap&lt; JwtKeyId,</text>
<text text-anchor="middle" x="243.5" y="-831.5" font-family="Helvetica,sans-Serif" font-size="10.00"> JwtIssuer &gt;</text>
</a>
</g>
</g>
<!-- Node12&#45;&gt;Node24 -->
<g id="edge21" class="edge">
<title>Node12&#45;&gt;Node24</title>
<path fill="none" stroke="midnightblue" d="M64.05,-967.43C77.32,-940.05 105.54,-890.01 145,-863.5 153.54,-857.76 163.32,-853.4 173.32,-850.07"/>
<polygon fill="midnightblue" stroke="midnightblue" points="60.77,-966.17 59.7,-976.71 67.11,-969.14 60.77,-966.17"/>
</g>
<!-- Node25 -->
<g id="node24" class="node">
<title>Node25</title>
<g id="a_node24"><a xlink:href="classkv_1_1TypedMap.html" target="_top" xlink:title=" ">
<polygon fill="white" stroke="black" points="179,-775.5 179,-805.5 308,-805.5 308,-775.5 179,-775.5"/>
<text text-anchor="start" x="187" y="-793.5" font-family="Helvetica,sans-Serif" font-size="10.00">kv::TypedMap&lt; UserId,</text>
<text text-anchor="middle" x="243.5" y="-782.5" font-family="Helvetica,sans-Serif" font-size="10.00"> crypto::Pem &gt;</text>
</a>
</g>
</g>
<!-- Node12&#45;&gt;Node25 -->
<g id="edge22" class="edge">
<title>Node12&#45;&gt;Node25</title>
<path fill="none" stroke="midnightblue" d="M59.94,-967.18C69.22,-931.32 94.15,-854.47 145,-814.5 154.8,-806.8 166.73,-801.53 178.84,-797.93"/>
<polygon fill="midnightblue" stroke="midnightblue" points="56.54,-966.37 57.55,-976.91 63.33,-968.03 56.54,-966.37"/>
</g>
<!-- Node26 -->
<g id="node25" class="node">
<title>Node26</title>
<g id="a_node25"><a xlink:href="classkv_1_1TypedMap.html" target="_top" xlink:title=" ">
<polygon fill="white" stroke="black" points="179,-726.5 179,-756.5 308,-756.5 308,-726.5 179,-726.5"/>
<text text-anchor="start" x="187" y="-744.5" font-family="Helvetica,sans-Serif" font-size="10.00">kv::TypedMap&lt; UserId,</text>
<text text-anchor="middle" x="243.5" y="-733.5" font-family="Helvetica,sans-Serif" font-size="10.00"> UserDetails &gt;</text>
</a>
</g>
</g>
<!-- Node12&#45;&gt;Node26 -->
<g id="edge23" class="edge">
<title>Node12&#45;&gt;Node26</title>
<path fill="none" stroke="midnightblue" d="M57.56,-966.66C63.15,-923.26 82.66,-819.48 145,-765.5 154.55,-757.23 166.52,-751.71 178.76,-748.06"/>
<polygon fill="midnightblue" stroke="midnightblue" points="54.06,-966.43 56.37,-976.77 61.01,-967.25 54.06,-966.43"/>
</g>
<!-- Node27 -->
<g id="node26" class="node">
<title>Node27</title>
<g id="a_node26"><a xlink:href="classkv_1_1TypedMap.html" target="_top" xlink:title=" ">
<polygon fill="white" stroke="black" points="177.5,-677.5 177.5,-707.5 309.5,-707.5 309.5,-677.5 177.5,-677.5"/>
<text text-anchor="start" x="185.5" y="-695.5" font-family="Helvetica,sans-Serif" font-size="10.00">kv::TypedMap&lt; NodeId,</text>
<text text-anchor="middle" x="243.5" y="-684.5" font-family="Helvetica,sans-Serif" font-size="10.00"> NodeInfo &gt;</text>
</a>
</g>
</g>
<!-- Node12&#45;&gt;Node27 -->
<g id="edge24" class="edge">
<title>Node12&#45;&gt;Node27</title>
<path fill="none" stroke="midnightblue" d="M55.89,-966.82C57.98,-917.05 70.64,-785.22 145,-716.5 154.03,-708.16 165.47,-702.59 177.33,-698.9"/>
<polygon fill="midnightblue" stroke="midnightblue" points="52.39,-966.79 55.57,-976.89 59.38,-967.01 52.39,-966.79"/>
</g>
<!-- Node28 -->
<g id="node27" class="node">
<title>Node28</title>
<g id="a_node27"><a xlink:href="classkv_1_1TypedMap.html" target="_top" xlink:title=" ">
<polygon fill="white" stroke="black" points="177.5,-628.5 177.5,-658.5 309.5,-658.5 309.5,-628.5 177.5,-628.5"/>
<text text-anchor="start" x="185.5" y="-646.5" font-family="Helvetica,sans-Serif" font-size="10.00">kv::TypedMap&lt; NodeId,</text>
<text text-anchor="middle" x="243.5" y="-635.5" font-family="Helvetica,sans-Serif" font-size="10.00"> crypto::Pem &gt;</text>
</a>
</g>
</g>
<!-- Node12&#45;&gt;Node28 -->
<g id="edge25" class="edge">
<title>Node12&#45;&gt;Node28</title>
<path fill="none" stroke="midnightblue" d="M54.71,-966.75C53.63,-911.02 58.59,-751.18 145,-667.5 153.89,-658.89 165.35,-653.21 177.27,-649.5"/>
<polygon fill="midnightblue" stroke="midnightblue" points="51.22,-967.1 55.01,-976.99 58.22,-966.9 51.22,-967.1"/>
</g>
<!-- Node29 -->
<g id="node28" class="node">
<title>Node29</title>
<g id="a_node28"><a xlink:href="classkv_1_1TypedMap.html" target="_top" xlink:title=" ">
<polygon fill="white" stroke="black" points="149.5,-579.5 149.5,-609.5 337.5,-609.5 337.5,-579.5 149.5,-579.5"/>
<text text-anchor="start" x="157.5" y="-597.5" font-family="Helvetica,sans-Serif" font-size="10.00">kv::TypedMap&lt; kv::Reconfiguration</text>
<text text-anchor="middle" x="243.5" y="-586.5" font-family="Helvetica,sans-Serif" font-size="10.00">Id, ResharingResult &gt;</text>
</a>
</g>
</g>
<!-- Node12&#45;&gt;Node29 -->
<g id="edge26" class="edge">
<title>Node12&#45;&gt;Node29</title>
<path fill="none" stroke="midnightblue" d="M57.65,-966.5C65.49,-897.2 94.75,-668.89 145,-618.5 148.32,-615.17 152.03,-612.27 156,-609.75"/>
<polygon fill="midnightblue" stroke="midnightblue" points="54.12,-966.54 56.5,-976.86 61.08,-967.31 54.12,-966.54"/>
</g>
<!-- Node30 -->
<g id="node29" class="node">
<title>Node30</title>
<g id="a_node29"><a xlink:href="classkv_1_1TypedMap.html" target="_top" xlink:title=" ">
<polygon fill="white" stroke="black" points="186,-519 186,-560 301,-560 301,-519 186,-519"/>
<text text-anchor="start" x="194" y="-548" font-family="Helvetica,sans-Serif" font-size="10.00">kv::TypedMap&lt; tpcc</text>
<text text-anchor="start" x="194" y="-537" font-family="Helvetica,sans-Serif" font-size="10.00">::Stock::Key, tpcc::</text>
<text text-anchor="middle" x="243.5" y="-526" font-family="Helvetica,sans-Serif" font-size="10.00">Stock &gt;</text>
</a>
</g>
</g>
<!-- Node12&#45;&gt;Node30 -->
<g id="edge27" class="edge">
<title>Node12&#45;&gt;Node30</title>
<path fill="none" stroke="midnightblue" d="M57.15,-966.42C63.72,-891.46 90.27,-629.22 145,-569.5 155.65,-557.88 170.68,-550.71 185.76,-546.31"/>
<polygon fill="midnightblue" stroke="midnightblue" points="53.63,-966.52 56.27,-976.78 60.61,-967.12 53.63,-966.52"/>
</g>
<!-- Node31 -->
<g id="node30" class="node">
<title>Node31</title>
<g id="a_node30"><a xlink:href="classkv_1_1TypedMap.html" target="_top" xlink:title=" ">
<polygon fill="white" stroke="black" points="180,-459 180,-500 307,-500 307,-459 180,-459"/>
<text text-anchor="start" x="188" y="-488" font-family="Helvetica,sans-Serif" font-size="10.00">kv::TypedMap&lt; tpcc</text>
<text text-anchor="start" x="188" y="-477" font-family="Helvetica,sans-Serif" font-size="10.00">::Warehouse::Key, tpcc</text>
<text text-anchor="middle" x="243.5" y="-466" font-family="Helvetica,sans-Serif" font-size="10.00">::Warehouse &gt;</text>
</a>
</g>
</g>
<!-- Node12&#45;&gt;Node31 -->
<g id="edge28" class="edge">
<title>Node12&#45;&gt;Node31</title>
<path fill="none" stroke="midnightblue" d="M56.58,-966.22C61.32,-884.32 82.95,-578.99 145,-509.5 154.2,-499.2 166.85,-492.39 179.98,-487.9"/>
<polygon fill="midnightblue" stroke="midnightblue" points="53.06,-966.45 56,-976.63 60.05,-966.84 53.06,-966.45"/>
</g>
<!-- Node32 -->
<g id="node31" class="node">
<title>Node32</title>
<g id="a_node31"><a xlink:href="classkv_1_1TypedMap.html" target="_top" xlink:title=" ">
<polygon fill="white" stroke="black" points="186,-399 186,-440 301,-440 301,-399 186,-399"/>
<text text-anchor="start" x="194" y="-428" font-family="Helvetica,sans-Serif" font-size="10.00">kv::TypedMap&lt; tpcc</text>
<text text-anchor="start" x="194" y="-417" font-family="Helvetica,sans-Serif" font-size="10.00">::District::Key, tpcc</text>
<text text-anchor="middle" x="243.5" y="-406" font-family="Helvetica,sans-Serif" font-size="10.00">::District &gt;</text>
</a>
</g>
</g>
<!-- Node12&#45;&gt;Node32 -->
<g id="edge29" class="edge">
<title>Node12&#45;&gt;Node32</title>
<path fill="none" stroke="midnightblue" d="M56.1,-966.54C59.13,-878.89 75.47,-528.98 145,-449.5 155.49,-437.5 170.66,-430.23 185.92,-425.85"/>
<polygon fill="midnightblue" stroke="midnightblue" points="52.6,-966.6 55.77,-976.71 59.59,-966.83 52.6,-966.6"/>
</g>
<!-- Node33 -->
<g id="node32" class="node">
<title>Node33</title>
<g id="a_node32"><a xlink:href="classkv_1_1TypedMap.html" target="_top" xlink:title=" ">
<polygon fill="white" stroke="black" points="186,-339 186,-380 301,-380 301,-339 186,-339"/>
<text text-anchor="start" x="194" y="-368" font-family="Helvetica,sans-Serif" font-size="10.00">kv::TypedMap&lt; tpcc</text>
<text text-anchor="start" x="194" y="-357" font-family="Helvetica,sans-Serif" font-size="10.00">::History::Key, tpcc</text>
<text text-anchor="middle" x="243.5" y="-346" font-family="Helvetica,sans-Serif" font-size="10.00">::History &gt;</text>
</a>
</g>
</g>
<!-- Node12&#45;&gt;Node33 -->
<g id="edge30" class="edge">
<title>Node12&#45;&gt;Node33</title>
<path fill="none" stroke="midnightblue" d="M55.73,-966.74C57.2,-873.58 67.97,-479.02 145,-389.5 155.4,-377.42 170.53,-370.12 185.79,-365.74"/>
<polygon fill="midnightblue" stroke="midnightblue" points="52.23,-966.94 55.59,-976.99 59.23,-967.04 52.23,-966.94"/>
</g>
<!-- Node34 -->
<g id="node33" class="node">
<title>Node34</title>
<g id="a_node33"><a xlink:href="classkv_1_1TypedMap.html" target="_top" xlink:title=" ">
<polygon fill="white" stroke="black" points="183.5,-279 183.5,-320 303.5,-320 303.5,-279 183.5,-279"/>
<text text-anchor="start" x="191.5" y="-308" font-family="Helvetica,sans-Serif" font-size="10.00">kv::TypedMap&lt; tpcc</text>
<text text-anchor="start" x="191.5" y="-297" font-family="Helvetica,sans-Serif" font-size="10.00">::Customer::Key, tpcc</text>
<text text-anchor="middle" x="243.5" y="-286" font-family="Helvetica,sans-Serif" font-size="10.00">::Customer &gt;</text>
</a>
</g>
</g>
<!-- Node12&#45;&gt;Node34 -->
<g id="edge31" class="edge">
<title>Node12&#45;&gt;Node34</title>
<path fill="none" stroke="midnightblue" d="M55.43,-966.97C55.47,-868.69 60.44,-429.11 145,-329.5 154.8,-317.96 168.93,-310.78 183.4,-306.33"/>
<polygon fill="midnightblue" stroke="midnightblue" points="51.93,-967 55.44,-976.99 58.93,-966.99 51.93,-967"/>
</g>
<!-- Node35 -->
<g id="node34" class="node">
<title>Node35</title>
<g id="a_node34"><a xlink:href="classkv_1_1TypedMap.html" target="_top" xlink:title=" ">
<polygon fill="white" stroke="black" points="186,-219 186,-260 301,-260 301,-219 186,-219"/>
<text text-anchor="start" x="194" y="-248" font-family="Helvetica,sans-Serif" font-size="10.00">kv::TypedMap&lt; tpcc</text>
<text text-anchor="start" x="194" y="-237" font-family="Helvetica,sans-Serif" font-size="10.00">::Order::Key, tpcc::</text>
<text text-anchor="middle" x="243.5" y="-226" font-family="Helvetica,sans-Serif" font-size="10.00">Order &gt;</text>
</a>
</g>
</g>
<!-- Node12&#45;&gt;Node35 -->
<g id="edge32" class="edge">
<title>Node12&#45;&gt;Node35</title>
<path fill="none" stroke="midnightblue" d="M55.18,-966.51C53.9,-862 53.08,-379.02 145,-269.5 155.3,-257.22 170.51,-249.88 185.86,-245.51"/>
<polygon fill="midnightblue" stroke="midnightblue" points="51.68,-966.68 55.32,-976.63 58.68,-966.58 51.68,-966.68"/>
</g>
<!-- Node36 -->
<g id="node35" class="node">
<title>Node36</title>
<g id="a_node35"><a xlink:href="classkv_1_1TypedMap.html" target="_top" xlink:title=" ">
<polygon fill="white" stroke="black" points="183.5,-159 183.5,-200 303.5,-200 303.5,-159 183.5,-159"/>
<text text-anchor="start" x="191.5" y="-188" font-family="Helvetica,sans-Serif" font-size="10.00">kv::TypedMap&lt; tpcc</text>
<text text-anchor="start" x="191.5" y="-177" font-family="Helvetica,sans-Serif" font-size="10.00">::OrderLine::Key, tpcc</text>
<text text-anchor="middle" x="243.5" y="-166" font-family="Helvetica,sans-Serif" font-size="10.00">::OrderLine &gt;</text>
</a>
</g>
</g>
<!-- Node12&#45;&gt;Node36 -->
<g id="edge33" class="edge">
<title>Node12&#45;&gt;Node36</title>
<path fill="none" stroke="midnightblue" d="M56.49,-966.82C62.45,-851.81 94.96,-269.7 145,-209.5 154.74,-197.79 168.93,-190.56 183.5,-186.12"/>
<polygon fill="midnightblue" stroke="midnightblue" points="52.99,-966.81 55.97,-976.98 59.98,-967.17 52.99,-966.81"/>
</g>
<!-- Node37 -->
<g id="node36" class="node">
<title>Node37</title>
<g id="a_node36"><a xlink:href="classkv_1_1TypedMap.html" target="_top" xlink:title=" ">
<polygon fill="white" stroke="black" points="182.5,-99 182.5,-140 304.5,-140 304.5,-99 182.5,-99"/>
<text text-anchor="start" x="190.5" y="-128" font-family="Helvetica,sans-Serif" font-size="10.00">kv::TypedMap&lt; tpcc</text>
<text text-anchor="start" x="190.5" y="-117" font-family="Helvetica,sans-Serif" font-size="10.00">::NewOrder::Key, tpcc</text>
<text text-anchor="middle" x="243.5" y="-106" font-family="Helvetica,sans-Serif" font-size="10.00">::NewOrder &gt;</text>
</a>
</g>
</g>
<!-- Node12&#45;&gt;Node37 -->
<g id="edge34" class="edge">
<title>Node12&#45;&gt;Node37</title>
<path fill="none" stroke="midnightblue" d="M56.32,-966.81C61.51,-846.62 91.19,-214.77 145,-149.5 154.46,-138.02 168.21,-130.84 182.42,-126.38"/>
<polygon fill="midnightblue" stroke="midnightblue" points="52.82,-966.67 55.9,-976.81 59.82,-966.97 52.82,-966.67"/>
</g>
<!-- Node38 -->
<g id="node37" class="node">
<title>Node38</title>
<g id="a_node37"><a xlink:href="classkv_1_1TypedMap.html" target="_top" xlink:title=" ">
<polygon fill="white" stroke="black" points="176,-49.5 176,-79.5 311,-79.5 311,-49.5 176,-49.5"/>
<text text-anchor="start" x="184" y="-67.5" font-family="Helvetica,sans-Serif" font-size="10.00">kv::TypedMap&lt; tpcc</text>
<text text-anchor="middle" x="243.5" y="-56.5" font-family="Helvetica,sans-Serif" font-size="10.00">::Item::Key, tpcc::Item &gt;</text>
</a>
</g>
</g>
<!-- Node12&#45;&gt;Node38 -->
<g id="edge35" class="edge">
<title>Node12&#45;&gt;Node38</title>
<path fill="none" stroke="midnightblue" d="M56.13,-966.94C60.3,-842 85.73,-158.51 145,-89.5 152.97,-80.22 163.87,-74.15 175.5,-70.22"/>
<polygon fill="midnightblue" stroke="midnightblue" points="52.63,-966.87 55.8,-976.98 59.62,-967.1 52.63,-966.87"/>
</g>
<!-- Node39 -->
<g id="node38" class="node">
<title>Node39</title>
<g id="a_node38"><a xlink:href="classkv_1_1TypedValue.html" target="_top" xlink:title=" ">
<polygon fill="white" stroke="black" points="185.5,-0.5 185.5,-30.5 301.5,-30.5 301.5,-0.5 185.5,-0.5"/>
<text text-anchor="start" x="193.5" y="-18.5" font-family="Helvetica,sans-Serif" font-size="10.00">kv::TypedValue&lt; std</text>
<text text-anchor="middle" x="243.5" y="-7.5" font-family="Helvetica,sans-Serif" font-size="10.00">::string &gt;</text>
</a>
</g>
</g>
<!-- Node12&#45;&gt;Node39 -->
<g id="edge36" class="edge">
<title>Node12&#45;&gt;Node39</title>
<path fill="none" stroke="midnightblue" d="M56.02,-966.65C59.57,-836.87 82.17,-112.33 145,-39.5 155.19,-27.69 170.17,-21.2 185.35,-17.76"/>
<polygon fill="midnightblue" stroke="midnightblue" points="52.52,-966.65 55.75,-976.74 59.51,-966.84 52.52,-966.65"/>
</g>
<!-- Node40 -->
<g id="node39" class="node">
<title>Node40</title>
<g id="a_node39"><a xlink:href="classkv_1_1TypedValue.html" target="_top" xlink:title=" ">
<polygon fill="white" stroke="black" points="169,-1796.5 169,-1826.5 318,-1826.5 318,-1796.5 169,-1796.5"/>
<text text-anchor="start" x="177" y="-1814.5" font-family="Helvetica,sans-Serif" font-size="10.00">kv::TypedValue&lt; Encrypted</text>
<text text-anchor="middle" x="243.5" y="-1803.5" font-family="Helvetica,sans-Serif" font-size="10.00">LedgerSecretInfo &gt;</text>
</a>
</g>
</g>
<!-- Node12&#45;&gt;Node40 -->
<g id="edge37" class="edge">
<title>Node12&#45;&gt;Node40</title>
<path fill="none" stroke="midnightblue" d="M56.38,-1006.07C61.77,-1122.93 92.04,-1725.57 145,-1786.5 151.42,-1793.89 159.7,-1799.24 168.71,-1803.09"/>
<polygon fill="midnightblue" stroke="midnightblue" points="59.87,-1005.88 55.92,-996.05 52.88,-1006.2 59.87,-1005.88"/>
</g>
<!-- Node41 -->
<g id="node40" class="node">
<title>Node41</title>
<g id="a_node40"><a xlink:href="classkv_1_1TypedValue.html" target="_top" xlink:title=" ">
<polygon fill="white" stroke="black" points="160,-1758 160,-1777 327,-1777 327,-1758 160,-1758"/>
<text text-anchor="middle" x="243.5" y="-1765" font-family="Helvetica,sans-Serif" font-size="10.00">kv::TypedValue&lt; ServiceInfo &gt;</text>
</a>
</g>
</g>
<!-- Node12&#45;&gt;Node41 -->
<g id="edge38" class="edge">
<title>Node12&#45;&gt;Node41</title>
<path fill="none" stroke="midnightblue" d="M56.46,-1006.2C62.16,-1120.1 93.19,-1691.07 145,-1747.5 149.21,-1752.08 154.16,-1755.77 159.56,-1758.73"/>
<polygon fill="midnightblue" stroke="midnightblue" points="59.95,-1005.94 55.96,-996.13 52.96,-1006.29 59.95,-1005.94"/>
</g>
<!-- Node42 -->
<g id="node41" class="node">
<title>Node42</title>
<g id="a_node41"><a xlink:href="classkv_1_1TypedValue.html" target="_top" xlink:title=" ">
<polygon fill="white" stroke="black" points="158.5,-1708.5 158.5,-1738.5 328.5,-1738.5 328.5,-1708.5 158.5,-1708.5"/>
<text text-anchor="start" x="166.5" y="-1726.5" font-family="Helvetica,sans-Serif" font-size="10.00">kv::TypedValue&lt; LedgerSecrets</text>
<text text-anchor="middle" x="243.5" y="-1715.5" font-family="Helvetica,sans-Serif" font-size="10.00">ForNodes &gt;</text>
</a>
</g>
</g>
<!-- Node12&#45;&gt;Node42 -->
<g id="edge39" class="edge">
<title>Node12&#45;&gt;Node42</title>
<path fill="none" stroke="midnightblue" d="M55.11,-1006.43C53.46,-1110.62 51.11,-1591.97 145,-1698.5 148.81,-1702.83 153.26,-1706.45 158.12,-1709.49"/>
<polygon fill="midnightblue" stroke="midnightblue" points="58.61,-1006.4 55.28,-996.34 51.61,-1006.28 58.61,-1006.4"/>
</g>
<!-- Node43 -->
<g id="node42" class="node">
<title>Node43</title>
<g id="a_node42"><a xlink:href="classkv_1_1TypedValue.html" target="_top" xlink:title=" ">
<polygon fill="white" stroke="black" points="170.5,-1659.5 170.5,-1689.5 316.5,-1689.5 316.5,-1659.5 170.5,-1659.5"/>
<text text-anchor="start" x="178.5" y="-1677.5" font-family="Helvetica,sans-Serif" font-size="10.00">kv::TypedValue&lt; Snapshot</text>
<text text-anchor="middle" x="243.5" y="-1666.5" font-family="Helvetica,sans-Serif" font-size="10.00">Hash &gt;</text>
</a>
</g>
</g>
<!-- Node12&#45;&gt;Node43 -->
<g id="edge40" class="edge">
<title>Node12&#45;&gt;Node43</title>
<path fill="none" stroke="midnightblue" d="M55.31,-1006.29C54.78,-1105.84 57.38,-1551 145,-1649.5 151.85,-1657.2 160.72,-1662.68 170.32,-1666.56"/>
<polygon fill="midnightblue" stroke="midnightblue" points="58.81,-1006.16 55.39,-996.13 51.81,-1006.11 58.81,-1006.16"/>
</g>
<!-- Node44 -->
<g id="node43" class="node">
<title>Node44</title>
<g id="a_node43"><a xlink:href="classkv_1_1TypedValue.html" target="_top" xlink:title=" ">
<polygon fill="white" stroke="black" points="145,-1621 145,-1640 342,-1640 342,-1621 145,-1621"/>
<text text-anchor="middle" x="243.5" y="-1628" font-family="Helvetica,sans-Serif" font-size="10.00">kv::TypedValue&lt; PrimarySignature &gt;</text>
</a>
</g>
</g>
<!-- Node12&#45;&gt;Node44 -->
<g id="edge41" class="edge">
<title>Node12&#45;&gt;Node44</title>
<path fill="none" stroke="midnightblue" d="M55.41,-1006.11C55.36,-1101.97 60.1,-1520.35 145,-1610.5 148.91,-1614.65 153.43,-1618.06 158.34,-1620.86"/>
<polygon fill="midnightblue" stroke="midnightblue" points="58.91,-1006.07 55.43,-996.06 51.91,-1006.05 58.91,-1006.07"/>
</g>
<!-- Node45 -->
<g id="node44" class="node">
<title>Node45</title>
<g id="a_node44"><a xlink:href="classkv_1_1TypedValue.html" target="_top" xlink:title=" ">
<polygon fill="white" stroke="black" points="183,-1571.5 183,-1601.5 304,-1601.5 304,-1571.5 183,-1571.5"/>
<text text-anchor="start" x="191" y="-1589.5" font-family="Helvetica,sans-Serif" font-size="10.00">kv::TypedValue&lt; std</text>
<text text-anchor="middle" x="243.5" y="-1578.5" font-family="Helvetica,sans-Serif" font-size="10.00">::vector&lt; uint8_t &gt; &gt;</text>
</a>
</g>
</g>
<!-- Node12&#45;&gt;Node45 -->
<g id="edge42" class="edge">
<title>Node12&#45;&gt;Node45</title>
<path fill="none" stroke="midnightblue" d="M55.76,-1006.19C57.37,-1097.34 68.65,-1477.39 145,-1561.5 154.87,-1572.37 168.76,-1578.8 182.96,-1582.53"/>
<polygon fill="midnightblue" stroke="midnightblue" points="59.26,-1006.07 55.6,-996.13 52.26,-1006.18 59.26,-1006.07"/>
</g>
<!-- Node46 -->
<g id="node45" class="node">
<title>Node46</title>
<g id="a_node45"><a xlink:href="classkv_1_1TypedMap.html" target="_top" xlink:title=" ">
<polygon fill="white" stroke="black" points="172.5,-1522.5 172.5,-1552.5 314.5,-1552.5 314.5,-1522.5 172.5,-1522.5"/>
<text text-anchor="start" x="180.5" y="-1540.5" font-family="Helvetica,sans-Serif" font-size="10.00">kv::TypedMap&lt; K, V,</text>
<text text-anchor="middle" x="243.5" y="-1529.5" font-family="Helvetica,sans-Serif" font-size="10.00"> KSerialiser, VSerialiser &gt;</text>
</a>
</g>
</g>
<!-- Node12&#45;&gt;Node46 -->
<g id="edge44" class="edge">
<title>Node12&#45;&gt;Node46</title>
<path fill="none" stroke="midnightblue" d="M56.07,-1006.14C58.98,-1092.34 74.89,-1436.36 145,-1512.5 152.34,-1520.47 161.84,-1526.05 172.03,-1529.92"/>
<polygon fill="midnightblue" stroke="midnightblue" points="59.57,-1006.02 55.75,-996.13 52.57,-1006.24 59.57,-1006.02"/>
</g>
<!-- Node47 -->
<g id="node46" class="node">
<title>Node47</title>
<g id="a_node46"><a xlink:href="classkv_1_1TypedSet.html" target="_top" xlink:title=" ">
<polygon fill="white" stroke="black" points="164.5,-1473.5 164.5,-1503.5 322.5,-1503.5 322.5,-1473.5 164.5,-1473.5"/>
<text text-anchor="start" x="172.5" y="-1491.5" font-family="Helvetica,sans-Serif" font-size="10.00">kv::TypedSet&lt; K, KSerialiser,</text>
<text text-anchor="middle" x="243.5" y="-1480.5" font-family="Helvetica,sans-Serif" font-size="10.00"> Unit &gt;</text>
</a>
</g>
</g>
<!-- Node12&#45;&gt;Node47 -->
<g id="edge45" class="edge">
<title>Node12&#45;&gt;Node47</title>
<path fill="none" stroke="midnightblue" d="M56.46,-1006.33C60.79,-1087.76 81.18,-1395.36 145,-1463.5 150.49,-1469.37 157.16,-1473.93 164.41,-1477.48"/>
<polygon fill="midnightblue" stroke="midnightblue" points="59.94,-1005.82 55.93,-996.01 52.94,-1006.18 59.94,-1005.82"/>
</g>
<!-- Node48 -->
<g id="node47" class="node">
<title>Node48</title>
<g id="a_node47"><a xlink:href="classkv_1_1TypedValue.html" target="_top" xlink:title=" ">
<polygon fill="white" stroke="black" points="188.5,-1424.5 188.5,-1454.5 298.5,-1454.5 298.5,-1424.5 188.5,-1424.5"/>
<text text-anchor="start" x="196.5" y="-1442.5" font-family="Helvetica,sans-Serif" font-size="10.00">kv::TypedValue&lt; V,</text>
<text text-anchor="middle" x="243.5" y="-1431.5" font-family="Helvetica,sans-Serif" font-size="10.00"> VSerialiser, Unit &gt;</text>
</a>
</g>
</g>
<!-- Node12&#45;&gt;Node48 -->
<g id="edge46" class="edge">
<title>Node12&#45;&gt;Node48</title>
<path fill="none" stroke="midnightblue" d="M56.91,-1006.22C62.73,-1082.13 87.37,-1354.22 145,-1414.5 156.35,-1426.37 172.51,-1432.9 188.42,-1436.4"/>
<polygon fill="midnightblue" stroke="midnightblue" points="60.39,-1005.85 56.16,-996.13 53.41,-1006.37 60.39,-1005.85"/>
</g>
<!-- Node4 -->
<g id="node48" class="node">
<title>Node4</title>
<g id="a_node48"><a xlink:href="classhttp_1_1RequestProcessor.html" target="_top" xlink:title=" ">
<polygon fill="white" stroke="black" points="539,-1846 539,-1865 668,-1865 668,-1846 539,-1846"/>
<text text-anchor="middle" x="603.5" y="-1853" font-family="Helvetica,sans-Serif" font-size="10.00">http::RequestProcessor</text>
</a>
</g>
</g>
<!-- Node4&#45;&gt;Node3 -->
<g id="edge47" class="edge">
<title>Node4&#45;&gt;Node3</title>
<path fill="none" stroke="midnightblue" d="M661.78,-1867.11C688.45,-1872.51 719.78,-1878.86 745.03,-1883.98"/>
<polygon fill="midnightblue" stroke="midnightblue" points="662.31,-1863.65 651.81,-1865.09 660.92,-1870.51 662.31,-1863.65"/>
</g>
<!-- Node5 -->
<g id="node49" class="node">
<title>Node5</title>
<g id="a_node49"><a xlink:href="structhttp_1_1SimpleRequestProcessor.html" target="_top" xlink:title=" ">
<polygon fill="white" stroke="black" points="711.5,-1846 711.5,-1865 874.5,-1865 874.5,-1846 711.5,-1846"/>
<text text-anchor="middle" x="793" y="-1853" font-family="Helvetica,sans-Serif" font-size="10.00">http::SimpleRequestProcessor</text>
</a>
</g>
</g>
<!-- Node4&#45;&gt;Node5 -->
<g id="edge48" class="edge">
<title>Node4&#45;&gt;Node5</title>
<path fill="none" stroke="midnightblue" d="M678.42,-1855.5C689.17,-1855.5 700.29,-1855.5 711.17,-1855.5"/>
<polygon fill="midnightblue" stroke="midnightblue" points="678.24,-1852 668.24,-1855.5 678.24,-1859 678.24,-1852"/>
</g>
<!-- Node49 -->
<g id="node50" class="node">
<title>Node49</title>
<g id="a_node50"><a xlink:href="classhttp_1_1ResponseProcessor.html" target="_top" xlink:title=" ">
<polygon fill="white" stroke="black" points="535,-1808 535,-1827 672,-1827 672,-1808 535,-1808"/>
<text text-anchor="middle" x="603.5" y="-1815" font-family="Helvetica,sans-Serif" font-size="10.00">http::ResponseProcessor</text>
</a>
</g>
</g>
<!-- Node49&#45;&gt;Node1 -->
<g id="edge50" class="edge">
<title>Node49&#45;&gt;Node1</title>
<path fill="none" stroke="midnightblue" d="M665.64,-1831.88C667.87,-1833.28 670.01,-1834.82 672,-1836.5 700.55,-1860.62 678.83,-1889.13 708,-1912.5 712.78,-1916.33 718.19,-1919.43 723.9,-1921.92"/>
<polygon fill="midnightblue" stroke="midnightblue" points="667.07,-1828.68 656.59,-1827.13 663.81,-1834.88 667.07,-1828.68"/>
</g>
<!-- Node50 -->
<g id="node51" class="node">
<title>Node50</title>
<g id="a_node51"><a xlink:href="classclient_1_1HttpRpcTlsClient.html" target="_top" xlink:title=" ">
<polygon fill="white" stroke="black" points="727.5,-1770 727.5,-1789 858.5,-1789 858.5,-1770 727.5,-1770"/>
<text text-anchor="middle" x="793" y="-1777" font-family="Helvetica,sans-Serif" font-size="10.00">client::HttpRpcTlsClient</text>
</a>
</g>
</g>
<!-- Node49&#45;&gt;Node50 -->
<g id="edge49" class="edge">
<title>Node49&#45;&gt;Node50</title>
<path fill="none" stroke="midnightblue" d="M661.78,-1805.89C688.45,-1800.49 719.78,-1794.14 745.03,-1789.02"/>
<polygon fill="midnightblue" stroke="midnightblue" points="660.92,-1802.49 651.81,-1807.91 662.31,-1809.35 660.92,-1802.49"/>
</g>
<!-- Node52 -->
<g id="node52" class="node">
<title>Node52</title>
<g id="a_node52"><a xlink:href="structhttp_1_1SimpleResponseProcessor.html" target="_top" xlink:title=" ">
<polygon fill="white" stroke="black" points="708,-1808 708,-1827 878,-1827 878,-1808 708,-1808"/>
<text text-anchor="middle" x="793" y="-1815" font-family="Helvetica,sans-Serif" font-size="10.00">http::SimpleResponseProcessor</text>
</a>
</g>
</g>
<!-- Node49&#45;&gt;Node52 -->
<g id="edge51" class="edge">
<title>Node49&#45;&gt;Node52</title>
<path fill="none" stroke="midnightblue" d="M682.32,-1817.5C690.71,-1817.5 699.28,-1817.5 707.75,-1817.5"/>
<polygon fill="midnightblue" stroke="midnightblue" points="682.19,-1814 672.19,-1817.5 682.19,-1821 682.19,-1814"/>
</g>
<!-- Node51 -->
<g id="node53" class="node">
<title>Node51</title>
<g id="a_node53"><a xlink:href="classclient_1_1TlsClient.html" target="_top" xlink:title=" ">
<polygon fill="white" stroke="black" points="557.5,-1770 557.5,-1789 649.5,-1789 649.5,-1770 557.5,-1770"/>
<text text-anchor="middle" x="603.5" y="-1777" font-family="Helvetica,sans-Serif" font-size="10.00">client::TlsClient</text>
</a>
</g>
</g>
<!-- Node51&#45;&gt;Node50 -->
<g id="edge52" class="edge">
<title>Node51&#45;&gt;Node50</title>
<path fill="none" stroke="midnightblue" d="M659.97,-1779.5C681.07,-1779.5 705.3,-1779.5 727.19,-1779.5"/>
<polygon fill="midnightblue" stroke="midnightblue" points="659.89,-1776 649.89,-1779.5 659.89,-1783 659.89,-1776"/>
</g>
</g>
</svg>
