<?xml version="1.0" encoding="UTF-8" standalone="no"?>
<!DOCTYPE svg PUBLIC "-//W3C//DTD SVG 1.1//EN"
 "http://www.w3.org/Graphics/SVG/1.1/DTD/svg11.dtd">
<!-- Generated by graphviz version 2.43.0 (0)
 -->
<!-- Title: Graphical Class Hierarchy Pages: 1 -->
<svg width="320pt" height="142pt"
 viewBox="0.00 0.00 320.00 142.00" xmlns="http://www.w3.org/2000/svg" xmlns:xlink="http://www.w3.org/1999/xlink">
<g id="graph0" class="graph" transform="scale(1 1) rotate(0) translate(4 138)">
<title>Graphical Class Hierarchy</title>
<polygon fill="white" stroke="transparent" points="-4,4 -4,-138 316,-138 316,4 -4,4"/>
<!-- Node0 -->
<g id="node1" class="node">
<title>Node0</title>
<g id="a_node1"><a xlink:href="classkv_1_1ConsensusHook.html" target="_top" xlink:title=" ">
<polygon fill="white" stroke="black" points="0,-57.5 0,-76.5 112,-76.5 112,-57.5 0,-57.5"/>
<text text-anchor="middle" x="56" y="-64.5" font-family="Helvetica,sans-Serif" font-size="10.00">kv::ConsensusHook</text>
</a>
</g>
</g>
<!-- Node1 -->
<g id="node2" class="node">
<title>Node1</title>
<g id="a_node2"><a xlink:href="classccf_1_1ConfigurationChangeHook.html" target="_top" xlink:title=" ">
<polygon fill="white" stroke="black" points="148,-114.5 148,-133.5 312,-133.5 312,-114.5 148,-114.5"/>
<text text-anchor="middle" x="230" y="-121.5" font-family="Helvetica,sans-Serif" font-size="10.00">ccf::ConfigurationChangeHook</text>
</a>
</g>
</g>
<!-- Node0&#45;&gt;Node1 -->
<g id="edge1" class="edge">
<title>Node0&#45;&gt;Node1</title>
<path fill="none" stroke="midnightblue" d="M86.41,-80.74C104.01,-88.59 126.97,-98.19 148,-105 158.99,-108.56 171.03,-111.75 182.38,-114.45"/>
<polygon fill="midnightblue" stroke="midnightblue" points="87.79,-77.52 77.24,-76.59 84.9,-83.9 87.79,-77.52"/>
</g>
<!-- Node2 -->
<g id="node3" class="node">
<title>Node2</title>
<g id="a_node3"><a xlink:href="classccf_1_1ResharingsHook.html" target="_top" xlink:title=" ">
<polygon fill="white" stroke="black" points="172,-76.5 172,-95.5 288,-95.5 288,-76.5 172,-76.5"/>
<text text-anchor="middle" x="230" y="-83.5" font-family="Helvetica,sans-Serif" font-size="10.00">ccf::ResharingsHook</text>
</a>
</g>
</g>
<!-- Node0&#45;&gt;Node2 -->
<g id="edge2" class="edge">
<title>Node0&#45;&gt;Node2</title>
<path fill="none" stroke="midnightblue" d="M122.37,-74.22C138.7,-76.02 156.08,-77.94 171.96,-79.7"/>
<polygon fill="midnightblue" stroke="midnightblue" points="122.69,-70.74 112.37,-73.12 121.92,-77.69 122.69,-70.74"/>
</g>
<!-- Node3 -->
<g id="node4" class="node">
<title>Node3</title>
<g id="a_node4"><a xlink:href="classccf_1_1SerialisedMerkleTreeHook.html" target="_top" xlink:title=" ">
<polygon fill="white" stroke="black" points="148,-38.5 148,-57.5 312,-57.5 312,-38.5 148,-38.5"/>
<text text-anchor="middle" x="230" y="-45.5" font-family="Helvetica,sans-Serif" font-size="10.00">ccf::SerialisedMerkleTreeHook</text>
</a>
</g>
</g>
<!-- Node0&#45;&gt;Node3 -->
<g id="edge3" class="edge">
<title>Node0&#45;&gt;Node3</title>
<path fill="none" stroke="midnightblue" d="M122.34,-59.78C130.65,-58.86 139.23,-57.92 147.75,-56.98"/>
<polygon fill="midnightblue" stroke="midnightblue" points="121.92,-56.31 112.37,-60.88 122.69,-63.26 121.92,-56.31"/>
</g>
<!-- Node4 -->
<g id="node5" class="node">
<title>Node4</title>
<g id="a_node5"><a xlink:href="classccf_1_1SignaturesHook.html" target="_top" xlink:title=" ">
<polygon fill="white" stroke="black" points="173.5,-0.5 173.5,-19.5 286.5,-19.5 286.5,-0.5 173.5,-0.5"/>
<text text-anchor="middle" x="230" y="-7.5" font-family="Helvetica,sans-Serif" font-size="10.00">ccf::SignaturesHook</text>
</a>
</g>
</g>
<!-- Node0&#45;&gt;Node4 -->
<g id="edge4" class="edge">
<title>Node0&#45;&gt;Node4</title>
<path fill="none" stroke="midnightblue" d="M86.41,-53.26C104.01,-45.41 126.97,-35.81 148,-29 158.99,-25.44 171.03,-22.25 182.38,-19.55"/>
<polygon fill="midnightblue" stroke="midnightblue" points="84.9,-50.1 77.24,-57.41 87.79,-56.48 84.9,-50.1"/>
</g>
</g>
</svg>
