<?xml version="1.0" encoding="UTF-8" standalone="no"?>
<!DOCTYPE svg PUBLIC "-//W3C//DTD SVG 1.1//EN"
 "http://www.w3.org/Graphics/SVG/1.1/DTD/svg11.dtd">
<!-- Generated by graphviz version 2.43.0 (0)
 -->
<!-- Title: src/enclave/interface.h Pages: 1 -->
<!--zoomable 420 -->
<svg id="main" version="1.1" xmlns="http://www.w3.org/2000/svg" xmlns:xlink="http://www.w3.org/1999/xlink" xml:space="preserve" onload="init(evt)">
<style type="text/css"><![CDATA[
.edge:hover path { stroke: red; }
.edge:hover polygon { stroke: red; fill: red; }
]]></style>
<script type="text/javascript"><![CDATA[
var edges = document.getElementsByTagName('g');
if (edges && edges.length) {
  for (var i=0;i<edges.length;i++) {
    if (edges[i].id.substr(0,4)=='edge') {
      edges[i].setAttribute('class','edge');
    }
  }
}
]]></script>
        <defs>
                <circle id="rim" cx="0" cy="0" r="7"/>
                <circle id="rim2" cx="0" cy="0" r="3.5"/>
                <g id="zoomPlus">
                        <use xlink:href="#rim" fill="#404040">
                                <set attributeName="fill" to="#808080" begin="zoomplus.mouseover" end="zoomplus.mouseout"/>
                        </use>
                        <path d="M-4,0h8M0,-4v8" fill="none" stroke="white" stroke-width="1.5" pointer-events="none"/>
                </g>
                <g id="zoomMin">
                        <use xlink:href="#rim" fill="#404040">
                                <set attributeName="fill" to="#808080" begin="zoomminus.mouseover" end="zoomminus.mouseout"/>
                        </use>
                        <path d="M-4,0h8" fill="none" stroke="white" stroke-width="1.5" pointer-events="none"/>
                </g>
                <g id="dirArrow">
                        <path fill="none" stroke="white" stroke-width="1.5" d="M0,-3.0v7 M-2.5,-0.5L0,-3.0L2.5,-0.5"/>
                </g>
               <g id="resetDef">
                       <use xlink:href="#rim2" fill="#404040">
                               <set attributeName="fill" to="#808080" begin="reset.mouseover" end="reset.mouseout"/>
                       </use>
               </g>
        </defs>

<script type="text/javascript">
var viewWidth = 1863;
var viewHeight = 420;
var sectionId = 'dynsection-0';
</script>
<script xlink:href="svgpan.js"/>
<svg id="graph" class="graph">
<g id="viewport">
<title>src/enclave/interface.h</title>
<polygon fill="white" stroke="transparent" points="-4,4 -4,-416 1858.5,-416 1858.5,4 -4,4"/>
<!-- Node1 -->
<g id="node1" class="node">
<title>Node1</title>
<g id="a_node1"><a xlink:title=" ">
<polygon fill="#bfbfbf" stroke="black" points="670.5,-392.5 670.5,-411.5 798.5,-411.5 798.5,-392.5 670.5,-392.5"/>
<text text-anchor="middle" x="734.5" y="-399.5" font-family="Helvetica,sans-Serif" font-size="10.00">src/enclave/interface.h</text>
</a>
</g>
</g>
<!-- Node2 -->
<g id="node2" class="node">
<title>Node2</title>
<g id="a_node2"><a xlink:href="oversized_8h.html" target="_top" xlink:title=" ">
<polygon fill="white" stroke="black" points="766,-336.5 766,-355.5 853,-355.5 853,-336.5 766,-336.5"/>
<text text-anchor="middle" x="809.5" y="-343.5" font-family="Helvetica,sans-Serif" font-size="10.00">ds/oversized.h</text>
</a>
</g>
</g>
<!-- Node1&#45;&gt;Node2 -->
<g id="edge1" class="edge">
<title>Node1&#45;&gt;Node2</title>
<path fill="none" stroke="midnightblue" d="M746.55,-392.32C757.96,-384.11 775.33,-371.6 788.93,-361.81"/>
<polygon fill="midnightblue" stroke="midnightblue" points="791.16,-364.52 797.23,-355.83 787.07,-358.84 791.16,-364.52"/>
</g>
<!-- Node19 -->
<g id="node19" class="node">
<title>Node19</title>
<g id="a_node19"><a xlink:href="ring__buffer__types_8h.html" target="_top" xlink:title=" ">
<polygon fill="white" stroke="black" points="671.5,-168.5 671.5,-187.5 781.5,-187.5 781.5,-168.5 671.5,-168.5"/>
<text text-anchor="middle" x="726.5" y="-175.5" font-family="Helvetica,sans-Serif" font-size="10.00">ring_buffer_types.h</text>
</a>
</g>
</g>
<!-- Node1&#45;&gt;Node19 -->
<g id="edge65" class="edge">
<title>Node1&#45;&gt;Node19</title>
<path fill="none" stroke="midnightblue" d="M727.87,-392.44C715.44,-375.79 689.01,-337.34 679.5,-300 669.68,-261.44 695.76,-218.51 712.9,-195.58"/>
<polygon fill="midnightblue" stroke="midnightblue" points="715.76,-197.61 719.14,-187.57 710.23,-193.31 715.76,-197.61"/>
</g>
<!-- Node26 -->
<g id="node26" class="node">
<title>Node26</title>
<g id="a_node26"><a xlink:title=" ">
<polygon fill="white" stroke="#bfbfbf" points="461,-0.5 461,-19.5 508,-19.5 508,-0.5 461,-0.5"/>
<text text-anchor="middle" x="484.5" y="-7.5" font-family="Helvetica,sans-Serif" font-size="10.00">vector</text>
</a>
</g>
</g>
<!-- Node1&#45;&gt;Node26 -->
<g id="edge67" class="edge">
<title>Node1&#45;&gt;Node26</title>
<path fill="none" stroke="midnightblue" d="M670.41,-401.21C527.75,-399.96 196.5,-386.75 196.5,-291 196.5,-291 196.5,-291 196.5,-121 196.5,-90.9 192.99,-75.98 215.5,-56 224.26,-48.23 380.14,-25.59 450.52,-15.71"/>
<polygon fill="midnightblue" stroke="midnightblue" points="451.23,-19.14 460.65,-14.29 450.26,-12.21 451.23,-19.14"/>
</g>
<!-- Node42 -->
<g id="node42" class="node">
<title>Node42</title>
<g id="a_node42"><a xlink:title=" ">
<polygon fill="white" stroke="#bfbfbf" points="871.5,-336.5 871.5,-355.5 921.5,-355.5 921.5,-336.5 871.5,-336.5"/>
<text text-anchor="middle" x="896.5" y="-343.5" font-family="Helvetica,sans-Serif" font-size="10.00">chrono</text>
</a>
</g>
</g>
<!-- Node1&#45;&gt;Node42 -->
<g id="edge66" class="edge">
<title>Node1&#45;&gt;Node42</title>
<path fill="none" stroke="midnightblue" d="M760.17,-392.44C787.58,-383.31 831.19,-368.77 861.69,-358.6"/>
<polygon fill="midnightblue" stroke="midnightblue" points="863.1,-361.82 871.48,-355.34 860.89,-355.18 863.1,-361.82"/>
</g>
<!-- Node3 -->
<g id="node3" class="node">
<title>Node3</title>
<g id="a_node3"><a xlink:href="messaging_8h.html" target="_top" xlink:title=" ">
<polygon fill="white" stroke="black" points="1142,-280.5 1142,-299.5 1221,-299.5 1221,-280.5 1142,-280.5"/>
<text text-anchor="middle" x="1181.5" y="-287.5" font-family="Helvetica,sans-Serif" font-size="10.00">messaging.h</text>
</a>
</g>
</g>
<!-- Node2&#45;&gt;Node3 -->
<g id="edge2" class="edge">
<title>Node2&#45;&gt;Node3</title>
<path fill="none" stroke="midnightblue" d="M853.16,-337.49C856.32,-336.97 859.46,-336.47 862.5,-336 957.65,-321.21 1069.1,-305.96 1131.89,-297.56"/>
<polygon fill="midnightblue" stroke="midnightblue" points="1132.46,-301.01 1141.91,-296.22 1131.54,-294.08 1132.46,-301.01"/>
</g>
<!-- Node6 -->
<g id="node6" class="node">
<title>Node6</title>
<g id="a_node6"><a xlink:title=" ">
<polygon fill="white" stroke="#bfbfbf" points="1082,-112.5 1082,-131.5 1161,-131.5 1161,-112.5 1082,-112.5"/>
<text text-anchor="middle" x="1121.5" y="-119.5" font-family="Helvetica,sans-Serif" font-size="10.00">fmt/format.h</text>
</a>
</g>
</g>
<!-- Node2&#45;&gt;Node6 -->
<g id="edge63" class="edge">
<title>Node2&#45;&gt;Node6</title>
<path fill="none" stroke="midnightblue" d="M821.73,-336.3C869.2,-302.52 1041.57,-179.87 1101.11,-137.51"/>
<polygon fill="midnightblue" stroke="midnightblue" points="1103.24,-140.29 1109.35,-131.64 1099.18,-134.59 1103.24,-140.29"/>
</g>
<!-- Node18 -->
<g id="node18" class="node">
<title>Node18</title>
<g id="a_node18"><a xlink:href="ring__buffer_8h.html" target="_top" xlink:title=" ">
<polygon fill="white" stroke="black" points="838,-224.5 838,-243.5 915,-243.5 915,-224.5 838,-224.5"/>
<text text-anchor="middle" x="876.5" y="-231.5" font-family="Helvetica,sans-Serif" font-size="10.00">ring_buffer.h</text>
</a>
</g>
</g>
<!-- Node2&#45;&gt;Node18 -->
<g id="edge61" class="edge">
<title>Node2&#45;&gt;Node18</title>
<path fill="none" stroke="midnightblue" d="M814.76,-336.37C825.77,-318.3 851.42,-276.18 865.96,-252.31"/>
<polygon fill="midnightblue" stroke="midnightblue" points="869.05,-253.95 871.27,-243.59 863.08,-250.31 869.05,-253.95"/>
</g>
<!-- Node33 -->
<g id="node33" class="node">
<title>Node33</title>
<g id="a_node33"><a xlink:href="serialized_8h.html" target="_top" xlink:title=" ">
<polygon fill="white" stroke="black" points="945,-56.5 945,-75.5 1018,-75.5 1018,-56.5 945,-56.5"/>
<text text-anchor="middle" x="981.5" y="-63.5" font-family="Helvetica,sans-Serif" font-size="10.00">serialized.h</text>
</a>
</g>
</g>
<!-- Node2&#45;&gt;Node33 -->
<g id="edge62" class="edge">
<title>Node2&#45;&gt;Node33</title>
<path fill="none" stroke="midnightblue" d="M808.1,-336.45C804.12,-309.42 795.16,-224.21 829.5,-168 844.73,-143.08 916.86,-101.66 956.04,-80.44"/>
<polygon fill="midnightblue" stroke="midnightblue" points="958.08,-83.32 965.23,-75.5 954.77,-77.15 958.08,-83.32"/>
</g>
<!-- Node41 -->
<g id="node41" class="node">
<title>Node41</title>
<g id="a_node41"><a xlink:title=" ">
<polygon fill="white" stroke="#bfbfbf" points="688,-280.5 688,-299.5 781,-299.5 781,-280.5 688,-280.5"/>
<text text-anchor="middle" x="734.5" y="-287.5" font-family="Helvetica,sans-Serif" font-size="10.00">unordered_map</text>
</a>
</g>
</g>
<!-- Node2&#45;&gt;Node41 -->
<g id="edge64" class="edge">
<title>Node2&#45;&gt;Node41</title>
<path fill="none" stroke="midnightblue" d="M797.45,-336.32C786.04,-328.11 768.67,-315.6 755.07,-305.81"/>
<polygon fill="midnightblue" stroke="midnightblue" points="756.93,-302.84 746.77,-299.83 752.84,-308.52 756.93,-302.84"/>
</g>
<!-- Node4 -->
<g id="node4" class="node">
<title>Node4</title>
<g id="a_node4"><a xlink:href="logger_8h.html" target="_top" xlink:title=" ">
<polygon fill="white" stroke="black" points="1269,-224.5 1269,-243.5 1356,-243.5 1356,-224.5 1269,-224.5"/>
<text text-anchor="middle" x="1312.5" y="-231.5" font-family="Helvetica,sans-Serif" font-size="10.00">ccf/ds/logger.h</text>
</a>
</g>
</g>
<!-- Node3&#45;&gt;Node4 -->
<g id="edge3" class="edge">
<title>Node3&#45;&gt;Node4</title>
<path fill="none" stroke="midnightblue" d="M1202.26,-280.44C1223.82,-271.56 1257.76,-257.56 1282.29,-247.45"/>
<polygon fill="midnightblue" stroke="midnightblue" points="1283.93,-250.56 1291.84,-243.52 1281.26,-244.09 1283.93,-250.56"/>
</g>
<!-- Node10 -->
<g id="node10" class="node">
<title>Node10</title>
<g id="a_node10"><a xlink:title=" ">
<polygon fill="white" stroke="#bfbfbf" points="1788.5,-112.5 1788.5,-131.5 1826.5,-131.5 1826.5,-112.5 1788.5,-112.5"/>
<text text-anchor="middle" x="1807.5" y="-119.5" font-family="Helvetica,sans-Serif" font-size="10.00">map</text>
</a>
</g>
</g>
<!-- Node3&#45;&gt;Node10 -->
<g id="edge59" class="edge">
<title>Node3&#45;&gt;Node10</title>
<path fill="none" stroke="midnightblue" d="M1221.36,-288.34C1344.65,-285.43 1716.39,-269.92 1797.5,-188 1809.29,-176.09 1810.85,-156.47 1810.03,-141.9"/>
<polygon fill="midnightblue" stroke="midnightblue" points="1813.47,-141.15 1809.02,-131.54 1806.51,-141.83 1813.47,-141.15"/>
</g>
<!-- Node3&#45;&gt;Node18 -->
<g id="edge19" class="edge">
<title>Node3&#45;&gt;Node18</title>
<path fill="none" stroke="midnightblue" d="M1141.94,-282C1086.32,-272.15 985.12,-254.23 925.03,-243.59"/>
<polygon fill="midnightblue" stroke="midnightblue" points="925.49,-240.12 915.03,-241.82 924.27,-247.01 925.49,-240.12"/>
</g>
<!-- Node35 -->
<g id="node35" class="node">
<title>Node35</title>
<g id="a_node35"><a xlink:title=" ">
<polygon fill="white" stroke="#bfbfbf" points="1446,-0.5 1446,-19.5 1511,-19.5 1511,-0.5 1446,-0.5"/>
<text text-anchor="middle" x="1478.5" y="-7.5" font-family="Helvetica,sans-Serif" font-size="10.00">stdexcept</text>
</a>
</g>
</g>
<!-- Node3&#45;&gt;Node35 -->
<g id="edge60" class="edge">
<title>Node3&#45;&gt;Node35</title>
<path fill="none" stroke="midnightblue" d="M1221.08,-287.51C1328.49,-283.19 1623.73,-269.28 1717.5,-244 1782.57,-226.45 1854.5,-246.39 1854.5,-179 1854.5,-179 1854.5,-179 1854.5,-121 1854.5,-52.26 1620.08,-23.49 1521.43,-14.43"/>
<polygon fill="midnightblue" stroke="midnightblue" points="1521.48,-10.92 1511.21,-13.52 1520.86,-17.89 1521.48,-10.92"/>
</g>
<!-- Node38 -->
<g id="node38" class="node">
<title>Node38</title>
<g id="a_node38"><a xlink:title=" ">
<polygon fill="white" stroke="#bfbfbf" points="809.5,-112.5 809.5,-131.5 859.5,-131.5 859.5,-112.5 809.5,-112.5"/>
<text text-anchor="middle" x="834.5" y="-119.5" font-family="Helvetica,sans-Serif" font-size="10.00">atomic</text>
</a>
</g>
</g>
<!-- Node3&#45;&gt;Node38 -->
<g id="edge57" class="edge">
<title>Node3&#45;&gt;Node38</title>
<path fill="none" stroke="midnightblue" d="M1163.33,-280.31C1106.18,-252.97 929.82,-168.6 861.72,-136.02"/>
<polygon fill="midnightblue" stroke="midnightblue" points="863.02,-132.76 852.49,-131.61 860,-139.08 863.02,-132.76"/>
</g>
<!-- Node40 -->
<g id="node40" class="node">
<title>Node40</title>
<g id="a_node40"><a xlink:title=" ">
<polygon fill="white" stroke="#bfbfbf" points="1128,-224.5 1128,-243.5 1235,-243.5 1235,-224.5 1128,-224.5"/>
<text text-anchor="middle" x="1181.5" y="-231.5" font-family="Helvetica,sans-Serif" font-size="10.00">condition_variable</text>
</a>
</g>
</g>
<!-- Node3&#45;&gt;Node40 -->
<g id="edge58" class="edge">
<title>Node3&#45;&gt;Node40</title>
<path fill="none" stroke="midnightblue" d="M1181.5,-280.08C1181.5,-273.01 1181.5,-262.86 1181.5,-253.99"/>
<polygon fill="midnightblue" stroke="midnightblue" points="1185,-253.75 1181.5,-243.75 1178,-253.75 1185,-253.75"/>
</g>
<!-- Node5 -->
<g id="node5" class="node">
<title>Node5</title>
<g id="a_node5"><a xlink:href="enum__formatter_8h.html" target="_top" xlink:title=" ">
<polygon fill="white" stroke="black" points="1149.5,-168.5 1149.5,-187.5 1285.5,-187.5 1285.5,-168.5 1149.5,-168.5"/>
<text text-anchor="middle" x="1217.5" y="-175.5" font-family="Helvetica,sans-Serif" font-size="10.00">ccf/ds/enum_formatter.h</text>
</a>
</g>
</g>
<!-- Node4&#45;&gt;Node5 -->
<g id="edge4" class="edge">
<title>Node4&#45;&gt;Node5</title>
<path fill="none" stroke="midnightblue" d="M1297.24,-224.32C1282.28,-215.82 1259.25,-202.73 1241.77,-192.8"/>
<polygon fill="midnightblue" stroke="midnightblue" points="1243.15,-189.55 1232.73,-187.65 1239.69,-195.64 1243.15,-189.55"/>
</g>
<!-- Node4&#45;&gt;Node6 -->
<g id="edge13" class="edge">
<title>Node4&#45;&gt;Node6</title>
<path fill="none" stroke="midnightblue" d="M1268.86,-226.58C1224.13,-219.15 1158.65,-205.64 1140.5,-188 1128.13,-175.97 1123.7,-156.37 1122.17,-141.84"/>
<polygon fill="midnightblue" stroke="midnightblue" points="1125.64,-141.24 1121.47,-131.5 1118.65,-141.72 1125.64,-141.24"/>
</g>
<!-- Node7 -->
<g id="node7" class="node">
<title>Node7</title>
<g id="a_node7"><a xlink:href="thread__ids_8h.html" target="_top" xlink:title=" ">
<polygon fill="white" stroke="black" points="1680.5,-168.5 1680.5,-187.5 1788.5,-187.5 1788.5,-168.5 1680.5,-168.5"/>
<text text-anchor="middle" x="1734.5" y="-175.5" font-family="Helvetica,sans-Serif" font-size="10.00">ccf/ds/thread_ids.h</text>
</a>
</g>
</g>
<!-- Node4&#45;&gt;Node7 -->
<g id="edge6" class="edge">
<title>Node4&#45;&gt;Node7</title>
<path fill="none" stroke="midnightblue" d="M1356.19,-227.77C1421.96,-219.84 1550.6,-204.13 1670.15,-188.16"/>
<polygon fill="midnightblue" stroke="midnightblue" points="1670.76,-191.61 1680.21,-186.82 1669.84,-184.67 1670.76,-191.61"/>
</g>
<!-- Node12 -->
<g id="node12" class="node">
<title>Node12</title>
<g id="a_node12"><a xlink:title=" ">
<polygon fill="white" stroke="#bfbfbf" points="1304,-168.5 1304,-187.5 1383,-187.5 1383,-168.5 1304,-168.5"/>
<text text-anchor="middle" x="1343.5" y="-175.5" font-family="Helvetica,sans-Serif" font-size="10.00">fmt/chrono.h</text>
</a>
</g>
</g>
<!-- Node4&#45;&gt;Node12 -->
<g id="edge12" class="edge">
<title>Node4&#45;&gt;Node12</title>
<path fill="none" stroke="midnightblue" d="M1317.62,-224.08C1321.91,-216.61 1328.16,-205.72 1333.44,-196.52"/>
<polygon fill="midnightblue" stroke="midnightblue" points="1336.53,-198.17 1338.48,-187.75 1330.46,-194.68 1336.53,-198.17"/>
</g>
<!-- Node13 -->
<g id="node13" class="node">
<title>Node13</title>
<g id="a_node13"><a xlink:title=" ">
<polygon fill="white" stroke="#bfbfbf" points="1400.5,-168.5 1400.5,-187.5 1460.5,-187.5 1460.5,-168.5 1400.5,-168.5"/>
<text text-anchor="middle" x="1430.5" y="-175.5" font-family="Helvetica,sans-Serif" font-size="10.00">iostream</text>
</a>
</g>
</g>
<!-- Node4&#45;&gt;Node13 -->
<g id="edge14" class="edge">
<title>Node4&#45;&gt;Node13</title>
<path fill="none" stroke="midnightblue" d="M1331.2,-224.44C1350.44,-215.64 1380.65,-201.81 1402.7,-191.72"/>
<polygon fill="midnightblue" stroke="midnightblue" points="1404.25,-194.86 1411.89,-187.52 1401.34,-188.5 1404.25,-194.86"/>
</g>
<!-- Node14 -->
<g id="node14" class="node">
<title>Node14</title>
<g id="a_node14"><a xlink:title=" ">
<polygon fill="white" stroke="#bfbfbf" points="1478.5,-168.5 1478.5,-187.5 1588.5,-187.5 1588.5,-168.5 1478.5,-168.5"/>
<text text-anchor="middle" x="1533.5" y="-175.5" font-family="Helvetica,sans-Serif" font-size="10.00">nlohmann/json.hpp</text>
</a>
</g>
</g>
<!-- Node4&#45;&gt;Node14 -->
<g id="edge15" class="edge">
<title>Node4&#45;&gt;Node14</title>
<path fill="none" stroke="midnightblue" d="M1347.52,-224.44C1385.75,-215.1 1447.07,-200.12 1488.76,-189.93"/>
<polygon fill="midnightblue" stroke="midnightblue" points="1489.76,-193.29 1498.65,-187.52 1488.1,-186.49 1489.76,-193.29"/>
</g>
<!-- Node15 -->
<g id="node15" class="node">
<title>Node15</title>
<g id="a_node15"><a xlink:title=" ">
<polygon fill="white" stroke="#bfbfbf" points="965.5,-112.5 965.5,-131.5 1021.5,-131.5 1021.5,-112.5 965.5,-112.5"/>
<text text-anchor="middle" x="993.5" y="-119.5" font-family="Helvetica,sans-Serif" font-size="10.00">optional</text>
</a>
</g>
</g>
<!-- Node4&#45;&gt;Node15 -->
<g id="edge16" class="edge">
<title>Node4&#45;&gt;Node15</title>
<path fill="none" stroke="midnightblue" d="M1268.93,-227.02C1192.47,-216.38 1041.22,-194.65 1031.5,-188 1015.36,-176.95 1005.1,-156.6 999.37,-141.61"/>
<polygon fill="midnightblue" stroke="midnightblue" points="1002.56,-140.14 995.97,-131.84 995.95,-142.44 1002.56,-140.14"/>
</g>
<!-- Node16 -->
<g id="node16" class="node">
<title>Node16</title>
<g id="a_node16"><a xlink:title=" ">
<polygon fill="white" stroke="#bfbfbf" points="1606.5,-168.5 1606.5,-187.5 1662.5,-187.5 1662.5,-168.5 1606.5,-168.5"/>
<text text-anchor="middle" x="1634.5" y="-175.5" font-family="Helvetica,sans-Serif" font-size="10.00">sstream</text>
</a>
</g>
</g>
<!-- Node4&#45;&gt;Node16 -->
<g id="edge17" class="edge">
<title>Node4&#45;&gt;Node16</title>
<path fill="none" stroke="midnightblue" d="M1356.15,-227.24C1410.27,-219.85 1505.53,-206.03 1596.36,-188.1"/>
<polygon fill="midnightblue" stroke="midnightblue" points="1597.15,-191.51 1606.27,-186.12 1595.78,-184.64 1597.15,-191.51"/>
</g>
<!-- Node17 -->
<g id="node17" class="node">
<title>Node17</title>
<g id="a_node17"><a xlink:title=" ">
<polygon fill="white" stroke="#bfbfbf" points="336,-0.5 336,-19.5 405,-19.5 405,-0.5 336,-0.5"/>
<text text-anchor="middle" x="370.5" y="-7.5" font-family="Helvetica,sans-Serif" font-size="10.00">type_traits</text>
</a>
</g>
</g>
<!-- Node4&#45;&gt;Node17 -->
<g id="edge18" class="edge">
<title>Node4&#45;&gt;Node17</title>
<path fill="none" stroke="midnightblue" d="M1268.58,-224.91C1221.05,-215.74 1148.67,-200.45 1123.5,-188 1075.66,-164.33 1079.55,-133.06 1030.5,-112 913.59,-61.8 871.44,-100.04 746.5,-76 711.78,-69.32 704.14,-63.09 669.5,-56 579.99,-37.69 473.98,-23.48 415.28,-16.25"/>
<polygon fill="midnightblue" stroke="midnightblue" points="415.59,-12.76 405.24,-15.03 414.74,-19.71 415.59,-12.76"/>
</g>
<!-- Node5&#45;&gt;Node6 -->
<g id="edge5" class="edge">
<title>Node5&#45;&gt;Node6</title>
<path fill="none" stroke="midnightblue" d="M1202.08,-168.32C1186.96,-159.82 1163.68,-146.73 1146.03,-136.8"/>
<polygon fill="midnightblue" stroke="midnightblue" points="1147.32,-133.51 1136.89,-131.65 1143.89,-139.61 1147.32,-133.51"/>
</g>
<!-- Node7&#45;&gt;Node6 -->
<g id="edge7" class="edge">
<title>Node7&#45;&gt;Node6</title>
<path fill="none" stroke="midnightblue" d="M1680.23,-169.04C1677.28,-168.67 1674.35,-168.32 1671.5,-168 1487.55,-147.35 1267.98,-132.24 1171.33,-126.07"/>
<polygon fill="midnightblue" stroke="midnightblue" points="1171.47,-122.57 1161.27,-125.43 1171.02,-129.55 1171.47,-122.57"/>
</g>
<!-- Node8 -->
<g id="node8" class="node">
<title>Node8</title>
<g id="a_node8"><a xlink:title=" ">
<polygon fill="white" stroke="#bfbfbf" points="1556.5,-112.5 1556.5,-131.5 1642.5,-131.5 1642.5,-112.5 1556.5,-112.5"/>
<text text-anchor="middle" x="1599.5" y="-119.5" font-family="Helvetica,sans-Serif" font-size="10.00">fmt/ostream.h</text>
</a>
</g>
</g>
<!-- Node7&#45;&gt;Node8 -->
<g id="edge8" class="edge">
<title>Node7&#45;&gt;Node8</title>
<path fill="none" stroke="midnightblue" d="M1713.11,-168.44C1690.79,-159.52 1655.6,-145.44 1630.29,-135.32"/>
<polygon fill="midnightblue" stroke="midnightblue" points="1631.38,-131.98 1620.79,-131.52 1628.78,-138.48 1631.38,-131.98"/>
</g>
<!-- Node9 -->
<g id="node9" class="node">
<title>Node9</title>
<g id="a_node9"><a xlink:title=" ">
<polygon fill="white" stroke="#bfbfbf" points="1660.5,-112.5 1660.5,-131.5 1704.5,-131.5 1704.5,-112.5 1660.5,-112.5"/>
<text text-anchor="middle" x="1682.5" y="-119.5" font-family="Helvetica,sans-Serif" font-size="10.00">limits</text>
</a>
</g>
</g>
<!-- Node7&#45;&gt;Node9 -->
<g id="edge9" class="edge">
<title>Node7&#45;&gt;Node9</title>
<path fill="none" stroke="midnightblue" d="M1725.91,-168.08C1718.34,-160.22 1707.12,-148.57 1697.99,-139.08"/>
<polygon fill="midnightblue" stroke="midnightblue" points="1700.38,-136.53 1690.93,-131.75 1695.34,-141.38 1700.38,-136.53"/>
</g>
<!-- Node7&#45;&gt;Node10 -->
<g id="edge10" class="edge">
<title>Node7&#45;&gt;Node10</title>
<path fill="none" stroke="midnightblue" d="M1746.23,-168.32C1757.34,-160.11 1774.24,-147.6 1787.48,-137.81"/>
<polygon fill="midnightblue" stroke="midnightblue" points="1789.6,-140.59 1795.56,-131.83 1785.44,-134.97 1789.6,-140.59"/>
</g>
<!-- Node11 -->
<g id="node11" class="node">
<title>Node11</title>
<g id="a_node11"><a xlink:title=" ">
<polygon fill="white" stroke="#bfbfbf" points="1722.5,-112.5 1722.5,-131.5 1770.5,-131.5 1770.5,-112.5 1722.5,-112.5"/>
<text text-anchor="middle" x="1746.5" y="-119.5" font-family="Helvetica,sans-Serif" font-size="10.00">thread</text>
</a>
</g>
</g>
<!-- Node7&#45;&gt;Node11 -->
<g id="edge11" class="edge">
<title>Node7&#45;&gt;Node11</title>
<path fill="none" stroke="midnightblue" d="M1736.48,-168.08C1738.07,-160.93 1740.36,-150.64 1742.35,-141.69"/>
<polygon fill="midnightblue" stroke="midnightblue" points="1745.8,-142.27 1744.56,-131.75 1738.97,-140.75 1745.8,-142.27"/>
</g>
<!-- Node18&#45;&gt;Node19 -->
<g id="edge20" class="edge">
<title>Node18&#45;&gt;Node19</title>
<path fill="none" stroke="midnightblue" d="M852.73,-224.44C827.61,-215.4 787.79,-201.06 759.6,-190.92"/>
<polygon fill="midnightblue" stroke="midnightblue" points="760.75,-187.61 750.16,-187.52 758.38,-194.2 760.75,-187.61"/>
</g>
<!-- Node34 -->
<g id="node34" class="node">
<title>Node34</title>
<g id="a_node34"><a xlink:title=" ">
<polygon fill="white" stroke="#bfbfbf" points="1001.5,-0.5 1001.5,-19.5 1051.5,-19.5 1051.5,-0.5 1001.5,-0.5"/>
<text text-anchor="middle" x="1026.5" y="-7.5" font-family="Helvetica,sans-Serif" font-size="10.00">cstring</text>
</a>
</g>
</g>
<!-- Node18&#45;&gt;Node34 -->
<g id="edge55" class="edge">
<title>Node18&#45;&gt;Node34</title>
<path fill="none" stroke="midnightblue" d="M884.08,-224.34C891.66,-215.49 903.46,-201.21 912.5,-188 934.53,-155.78 928.15,-138.82 956.5,-112 982.2,-87.69 1008.98,-106.15 1027.5,-76 1035.98,-62.19 1034.63,-43.42 1031.81,-29.6"/>
<polygon fill="midnightblue" stroke="midnightblue" points="1035.18,-28.64 1029.4,-19.77 1028.39,-30.31 1035.18,-28.64"/>
</g>
<!-- Node39 -->
<g id="node39" class="node">
<title>Node39</title>
<g id="a_node39"><a xlink:title=" ">
<polygon fill="white" stroke="#bfbfbf" points="838,-168.5 838,-187.5 903,-187.5 903,-168.5 838,-168.5"/>
<text text-anchor="middle" x="870.5" y="-175.5" font-family="Helvetica,sans-Serif" font-size="10.00">functional</text>
</a>
</g>
</g>
<!-- Node18&#45;&gt;Node39 -->
<g id="edge56" class="edge">
<title>Node18&#45;&gt;Node39</title>
<path fill="none" stroke="midnightblue" d="M875.51,-224.08C874.71,-216.93 873.57,-206.64 872.58,-197.69"/>
<polygon fill="midnightblue" stroke="midnightblue" points="876.06,-197.3 871.47,-187.75 869.1,-198.08 876.06,-197.3"/>
</g>
<!-- Node19&#45;&gt;Node6 -->
<g id="edge51" class="edge">
<title>Node19&#45;&gt;Node6</title>
<path fill="none" stroke="midnightblue" d="M781.84,-169.43C859,-158.89 997.74,-139.92 1071.78,-129.8"/>
<polygon fill="midnightblue" stroke="midnightblue" points="1072.35,-133.25 1081.78,-128.43 1071.4,-126.32 1072.35,-133.25"/>
</g>
<!-- Node19&#45;&gt;Node15 -->
<g id="edge52" class="edge">
<title>Node19&#45;&gt;Node15</title>
<path fill="none" stroke="midnightblue" d="M768.81,-168.44C820.15,-158.06 905.96,-140.7 955.35,-130.71"/>
<polygon fill="midnightblue" stroke="midnightblue" points="956.21,-134.11 965.31,-128.7 954.82,-127.25 956.21,-134.11"/>
</g>
<!-- Node20 -->
<g id="node20" class="node">
<title>Node20</title>
<g id="a_node20"><a xlink:href="nonstd_8h.html" target="_top" xlink:title=" ">
<polygon fill="white" stroke="black" points="78.5,-56.5 78.5,-75.5 168.5,-75.5 168.5,-56.5 78.5,-56.5"/>
<text text-anchor="middle" x="123.5" y="-63.5" font-family="Helvetica,sans-Serif" font-size="10.00">ccf/ds/nonstd.h</text>
</a>
</g>
</g>
<!-- Node19&#45;&gt;Node20 -->
<g id="edge21" class="edge">
<title>Node19&#45;&gt;Node20</title>
<path fill="none" stroke="midnightblue" d="M671.27,-174.25C593.59,-169.6 447.96,-158.01 326.5,-132 264.42,-118.71 194.37,-94.04 154.92,-79.21"/>
<polygon fill="midnightblue" stroke="midnightblue" points="155.93,-75.85 145.34,-75.58 153.45,-82.39 155.93,-75.85"/>
</g>
<!-- Node24 -->
<g id="node24" class="node">
<title>Node24</title>
<g id="a_node24"><a xlink:title=" ">
<polygon fill="white" stroke="#bfbfbf" points="851.5,-0.5 851.5,-19.5 895.5,-19.5 895.5,-0.5 851.5,-0.5"/>
<text text-anchor="middle" x="873.5" y="-7.5" font-family="Helvetica,sans-Serif" font-size="10.00">string</text>
</a>
</g>
</g>
<!-- Node19&#45;&gt;Node24 -->
<g id="edge53" class="edge">
<title>Node19&#45;&gt;Node24</title>
<path fill="none" stroke="midnightblue" d="M735.19,-168.47C748.61,-155.52 775.43,-130.44 800.5,-112 825.24,-93.8 841.71,-101.04 859.5,-76 869,-62.62 872.27,-44.05 873.29,-30.18"/>
<polygon fill="midnightblue" stroke="midnightblue" points="876.8,-29.99 873.72,-19.86 869.81,-29.71 876.8,-29.99"/>
</g>
<!-- Node19&#45;&gt;Node26 -->
<g id="edge54" class="edge">
<title>Node19&#45;&gt;Node26</title>
<path fill="none" stroke="midnightblue" d="M725.07,-168.42C720.88,-146.17 706.56,-86.25 669.5,-56 625.9,-20.41 558.45,-12.25 518.17,-10.79"/>
<polygon fill="midnightblue" stroke="midnightblue" points="518.14,-7.28 508.06,-10.54 517.97,-14.28 518.14,-7.28"/>
</g>
<!-- Node27 -->
<g id="node27" class="node">
<title>Node27</title>
<g id="a_node27"><a xlink:href="ds_2hash_8h.html" target="_top" xlink:title=" ">
<polygon fill="white" stroke="black" points="595,-112.5 595,-131.5 658,-131.5 658,-112.5 595,-112.5"/>
<text text-anchor="middle" x="626.5" y="-119.5" font-family="Helvetica,sans-Serif" font-size="10.00">ds/hash.h</text>
</a>
</g>
</g>
<!-- Node19&#45;&gt;Node27 -->
<g id="edge29" class="edge">
<title>Node19&#45;&gt;Node27</title>
<path fill="none" stroke="midnightblue" d="M710.43,-168.32C694.54,-159.74 669.99,-146.49 651.54,-136.52"/>
<polygon fill="midnightblue" stroke="midnightblue" points="652.99,-133.33 642.53,-131.65 649.66,-139.49 652.99,-133.33"/>
</g>
<!-- Node32 -->
<g id="node32" class="node">
<title>Node32</title>
<g id="a_node32"><a xlink:href="serializer_8h.html" target="_top" xlink:title=" ">
<polygon fill="white" stroke="black" points="335.5,-112.5 335.5,-131.5 405.5,-131.5 405.5,-112.5 335.5,-112.5"/>
<text text-anchor="middle" x="370.5" y="-119.5" font-family="Helvetica,sans-Serif" font-size="10.00">serializer.h</text>
</a>
</g>
</g>
<!-- Node19&#45;&gt;Node32 -->
<g id="edge38" class="edge">
<title>Node19&#45;&gt;Node32</title>
<path fill="none" stroke="midnightblue" d="M671.27,-168.62C601.01,-157.96 480.99,-139.76 415.83,-129.88"/>
<polygon fill="midnightblue" stroke="midnightblue" points="416.27,-126.4 405.86,-128.36 415.22,-133.32 416.27,-126.4"/>
</g>
<!-- Node19&#45;&gt;Node38 -->
<g id="edge50" class="edge">
<title>Node19&#45;&gt;Node38</title>
<path fill="none" stroke="midnightblue" d="M743.85,-168.32C761.17,-159.66 788.02,-146.24 808,-136.25"/>
<polygon fill="midnightblue" stroke="midnightblue" points="809.81,-139.26 817.19,-131.65 806.68,-133 809.81,-139.26"/>
</g>
<!-- Node20&#45;&gt;Node17 -->
<g id="edge27" class="edge">
<title>Node20&#45;&gt;Node17</title>
<path fill="none" stroke="midnightblue" d="M162.64,-56.44C207.12,-46.72 279.57,-30.88 326.12,-20.7"/>
<polygon fill="midnightblue" stroke="midnightblue" points="326.91,-24.11 335.93,-18.56 325.41,-17.27 326.91,-24.11"/>
</g>
<!-- Node21 -->
<g id="node21" class="node">
<title>Node21</title>
<g id="a_node21"><a xlink:title=" ">
<polygon fill="white" stroke="#bfbfbf" points="91.5,-0.5 91.5,-19.5 155.5,-19.5 155.5,-0.5 91.5,-0.5"/>
<text text-anchor="middle" x="123.5" y="-7.5" font-family="Helvetica,sans-Serif" font-size="10.00">algorithm</text>
</a>
</g>
</g>
<!-- Node20&#45;&gt;Node21 -->
<g id="edge22" class="edge">
<title>Node20&#45;&gt;Node21</title>
<path fill="none" stroke="midnightblue" d="M123.5,-56.08C123.5,-49.01 123.5,-38.86 123.5,-29.99"/>
<polygon fill="midnightblue" stroke="midnightblue" points="127,-29.75 123.5,-19.75 120,-29.75 127,-29.75"/>
</g>
<!-- Node22 -->
<g id="node22" class="node">
<title>Node22</title>
<g id="a_node22"><a xlink:title=" ">
<polygon fill="white" stroke="#bfbfbf" points="258.5,-0.5 258.5,-19.5 300.5,-19.5 300.5,-0.5 258.5,-0.5"/>
<text text-anchor="middle" x="279.5" y="-7.5" font-family="Helvetica,sans-Serif" font-size="10.00">array</text>
</a>
</g>
</g>
<!-- Node20&#45;&gt;Node22 -->
<g id="edge23" class="edge">
<title>Node20&#45;&gt;Node22</title>
<path fill="none" stroke="midnightblue" d="M148.22,-56.44C175.42,-47.03 219.2,-31.87 248.63,-21.68"/>
<polygon fill="midnightblue" stroke="midnightblue" points="250.09,-24.88 258.4,-18.3 247.8,-18.27 250.09,-24.88"/>
</g>
<!-- Node23 -->
<g id="node23" class="node">
<title>Node23</title>
<g id="a_node23"><a xlink:title=" ">
<polygon fill="white" stroke="#bfbfbf" points="174,-0.5 174,-19.5 223,-19.5 223,-0.5 174,-0.5"/>
<text text-anchor="middle" x="198.5" y="-7.5" font-family="Helvetica,sans-Serif" font-size="10.00">cctype</text>
</a>
</g>
</g>
<!-- Node20&#45;&gt;Node23 -->
<g id="edge24" class="edge">
<title>Node20&#45;&gt;Node23</title>
<path fill="none" stroke="midnightblue" d="M135.55,-56.32C146.96,-48.11 164.33,-35.6 177.93,-25.81"/>
<polygon fill="midnightblue" stroke="midnightblue" points="180.16,-28.52 186.23,-19.83 176.07,-22.84 180.16,-28.52"/>
</g>
<!-- Node20&#45;&gt;Node24 -->
<g id="edge25" class="edge">
<title>Node20&#45;&gt;Node24</title>
<path fill="none" stroke="midnightblue" d="M168.86,-60.2C183.71,-58.73 200.3,-57.18 215.5,-56 492.02,-34.49 564.46,-62.74 838.5,-20 839.42,-19.86 840.36,-19.7 841.29,-19.53"/>
<polygon fill="midnightblue" stroke="midnightblue" points="842.37,-22.88 851.42,-17.37 840.91,-16.03 842.37,-22.88"/>
</g>
<!-- Node25 -->
<g id="node25" class="node">
<title>Node25</title>
<g id="a_node25"><a xlink:title=" ">
<polygon fill="white" stroke="#bfbfbf" points="0,-0.5 0,-19.5 73,-19.5 73,-0.5 0,-0.5"/>
<text text-anchor="middle" x="36.5" y="-7.5" font-family="Helvetica,sans-Serif" font-size="10.00">string_view</text>
</a>
</g>
</g>
<!-- Node20&#45;&gt;Node25 -->
<g id="edge26" class="edge">
<title>Node20&#45;&gt;Node25</title>
<path fill="none" stroke="midnightblue" d="M109.52,-56.32C95.95,-47.9 75.12,-34.97 59.18,-25.07"/>
<polygon fill="midnightblue" stroke="midnightblue" points="60.79,-21.95 50.44,-19.65 57.09,-27.9 60.79,-21.95"/>
</g>
<!-- Node20&#45;&gt;Node26 -->
<g id="edge28" class="edge">
<title>Node20&#45;&gt;Node26</title>
<path fill="none" stroke="midnightblue" d="M168.6,-58.1C173.29,-57.39 177.99,-56.68 182.5,-56 279.76,-41.34 394.67,-24.29 450.56,-16.02"/>
<polygon fill="midnightblue" stroke="midnightblue" points="451.23,-19.46 460.61,-14.53 450.21,-12.53 451.23,-19.46"/>
</g>
<!-- Node27&#45;&gt;Node22 -->
<g id="edge34" class="edge">
<title>Node27&#45;&gt;Node22</title>
<path fill="none" stroke="midnightblue" d="M599.56,-112.46C536.1,-92.34 377.51,-42.07 310.34,-20.78"/>
<polygon fill="midnightblue" stroke="midnightblue" points="311.33,-17.42 300.74,-17.73 309.21,-24.09 311.33,-17.42"/>
</g>
<!-- Node27&#45;&gt;Node26 -->
<g id="edge37" class="edge">
<title>Node27&#45;&gt;Node26</title>
<path fill="none" stroke="midnightblue" d="M594.81,-117.64C566.72,-112.99 526.53,-101.98 502.5,-76 490.96,-63.52 486.72,-44.29 485.21,-29.98"/>
<polygon fill="midnightblue" stroke="midnightblue" points="488.69,-29.51 484.5,-19.78 481.7,-30 488.69,-29.51"/>
</g>
<!-- Node28 -->
<g id="node28" class="node">
<title>Node28</title>
<g id="a_node28"><a xlink:href="siphash_8h.html" target="_top" xlink:title=" ">
<polygon fill="white" stroke="black" points="755,-56.5 755,-75.5 850,-75.5 850,-56.5 755,-56.5"/>
<text text-anchor="middle" x="802.5" y="-63.5" font-family="Helvetica,sans-Serif" font-size="10.00">ccf/ds/siphash.h</text>
</a>
</g>
</g>
<!-- Node27&#45;&gt;Node28 -->
<g id="edge30" class="edge">
<title>Node27&#45;&gt;Node28</title>
<path fill="none" stroke="midnightblue" d="M654.39,-112.44C684.25,-103.28 731.81,-88.69 764.96,-78.52"/>
<polygon fill="midnightblue" stroke="midnightblue" points="766.21,-81.8 774.74,-75.52 764.16,-75.1 766.21,-81.8"/>
</g>
<!-- Node30 -->
<g id="node30" class="node">
<title>Node30</title>
<g id="a_node30"><a xlink:title=" ">
<polygon fill="white" stroke="#bfbfbf" points="913.5,-0.5 913.5,-19.5 963.5,-19.5 963.5,-0.5 913.5,-0.5"/>
<text text-anchor="middle" x="938.5" y="-7.5" font-family="Helvetica,sans-Serif" font-size="10.00">cstdint</text>
</a>
</g>
</g>
<!-- Node27&#45;&gt;Node30 -->
<g id="edge35" class="edge">
<title>Node27&#45;&gt;Node30</title>
<path fill="none" stroke="midnightblue" d="M658.17,-119.8C704.46,-116.99 792.39,-107.56 859.5,-76 884.72,-64.14 908.71,-42.39 923.5,-27.34"/>
<polygon fill="midnightblue" stroke="midnightblue" points="926.35,-29.42 930.72,-19.77 921.28,-24.59 926.35,-29.42"/>
</g>
<!-- Node31 -->
<g id="node31" class="node">
<title>Node31</title>
<g id="a_node31"><a xlink:title=" ">
<polygon fill="white" stroke="#bfbfbf" points="512,-56.5 512,-75.5 661,-75.5 661,-56.5 512,-56.5"/>
<text text-anchor="middle" x="586.5" y="-63.5" font-family="Helvetica,sans-Serif" font-size="10.00">small_vector/SmallVector.h</text>
</a>
</g>
</g>
<!-- Node27&#45;&gt;Node31 -->
<g id="edge36" class="edge">
<title>Node27&#45;&gt;Node31</title>
<path fill="none" stroke="midnightblue" d="M619.89,-112.08C614.24,-104.46 605.96,-93.26 599.05,-83.94"/>
<polygon fill="midnightblue" stroke="midnightblue" points="601.75,-81.7 592.98,-75.75 596.12,-85.87 601.75,-81.7"/>
</g>
<!-- Node28&#45;&gt;Node26 -->
<g id="edge33" class="edge">
<title>Node28&#45;&gt;Node26</title>
<path fill="none" stroke="midnightblue" d="M754.89,-56.92C689.81,-45.86 574.69,-26.32 517.98,-16.69"/>
<polygon fill="midnightblue" stroke="midnightblue" points="518.54,-13.23 508.1,-15.01 517.37,-20.13 518.54,-13.23"/>
</g>
<!-- Node29 -->
<g id="node29" class="node">
<title>Node29</title>
<g id="a_node29"><a xlink:title=" ">
<polygon fill="white" stroke="#bfbfbf" points="776,-0.5 776,-19.5 829,-19.5 829,-0.5 776,-0.5"/>
<text text-anchor="middle" x="802.5" y="-7.5" font-family="Helvetica,sans-Serif" font-size="10.00">cstddef</text>
</a>
</g>
</g>
<!-- Node28&#45;&gt;Node29 -->
<g id="edge31" class="edge">
<title>Node28&#45;&gt;Node29</title>
<path fill="none" stroke="midnightblue" d="M802.5,-56.08C802.5,-49.01 802.5,-38.86 802.5,-29.99"/>
<polygon fill="midnightblue" stroke="midnightblue" points="806,-29.75 802.5,-19.75 799,-29.75 806,-29.75"/>
</g>
<!-- Node28&#45;&gt;Node30 -->
<g id="edge32" class="edge">
<title>Node28&#45;&gt;Node30</title>
<path fill="none" stroke="midnightblue" d="M824.05,-56.44C846.53,-47.52 881.99,-33.44 907.48,-23.32"/>
<polygon fill="midnightblue" stroke="midnightblue" points="909.05,-26.46 917.05,-19.52 906.47,-19.95 909.05,-26.46"/>
</g>
<!-- Node32&#45;&gt;Node17 -->
<g id="edge48" class="edge">
<title>Node32&#45;&gt;Node17</title>
<path fill="none" stroke="midnightblue" d="M370.5,-112.37C370.5,-94.62 370.5,-53.67 370.5,-29.6"/>
<polygon fill="midnightblue" stroke="midnightblue" points="374,-29.59 370.5,-19.59 367,-29.59 374,-29.59"/>
</g>
<!-- Node32&#45;&gt;Node20 -->
<g id="edge39" class="edge">
<title>Node32&#45;&gt;Node20</title>
<path fill="none" stroke="midnightblue" d="M335.37,-113.32C292.72,-104 220.54,-88.22 172.46,-77.7"/>
<polygon fill="midnightblue" stroke="midnightblue" points="173.1,-74.26 162.58,-75.54 171.6,-81.1 173.1,-74.26"/>
</g>
<!-- Node32&#45;&gt;Node26 -->
<g id="edge49" class="edge">
<title>Node32&#45;&gt;Node26</title>
<path fill="none" stroke="midnightblue" d="M379.45,-112.37C398.59,-93.89 443.78,-50.29 468.18,-26.74"/>
<polygon fill="midnightblue" stroke="midnightblue" points="470.83,-29.05 475.6,-19.59 465.97,-24.02 470.83,-29.05"/>
</g>
<!-- Node32&#45;&gt;Node33 -->
<g id="edge40" class="edge">
<title>Node32&#45;&gt;Node33</title>
<path fill="none" stroke="midnightblue" d="M405.54,-117.9C509.54,-108.71 816.48,-81.58 934.52,-71.15"/>
<polygon fill="midnightblue" stroke="midnightblue" points="935.02,-74.62 944.68,-70.25 934.41,-67.65 935.02,-74.62"/>
</g>
<!-- Node36 -->
<g id="node36" class="node">
<title>Node36</title>
<g id="a_node36"><a xlink:title=" ">
<polygon fill="white" stroke="#bfbfbf" points="284.5,-56.5 284.5,-75.5 342.5,-75.5 342.5,-56.5 284.5,-56.5"/>
<text text-anchor="middle" x="313.5" y="-63.5" font-family="Helvetica,sans-Serif" font-size="10.00">memory</text>
</a>
</g>
</g>
<!-- Node32&#45;&gt;Node36 -->
<g id="edge46" class="edge">
<title>Node32&#45;&gt;Node36</title>
<path fill="none" stroke="midnightblue" d="M361.34,-112.32C353,-104.42 340.47,-92.55 330.32,-82.94"/>
<polygon fill="midnightblue" stroke="midnightblue" points="332.49,-80.17 322.82,-75.83 327.68,-85.25 332.49,-80.17"/>
</g>
<!-- Node37 -->
<g id="node37" class="node">
<title>Node37</title>
<g id="a_node37"><a xlink:title=" ">
<polygon fill="white" stroke="#bfbfbf" points="225,-56.5 225,-75.5 266,-75.5 266,-56.5 225,-56.5"/>
<text text-anchor="middle" x="245.5" y="-63.5" font-family="Helvetica,sans-Serif" font-size="10.00">tuple</text>
</a>
</g>
</g>
<!-- Node32&#45;&gt;Node37 -->
<g id="edge47" class="edge">
<title>Node32&#45;&gt;Node37</title>
<path fill="none" stroke="midnightblue" d="M350.69,-112.44C330.21,-103.6 298.02,-89.69 274.64,-79.59"/>
<polygon fill="midnightblue" stroke="midnightblue" points="275.78,-76.27 265.21,-75.52 273.01,-82.7 275.78,-76.27"/>
</g>
<!-- Node33&#45;&gt;Node24 -->
<g id="edge44" class="edge">
<title>Node33&#45;&gt;Node24</title>
<path fill="none" stroke="midnightblue" d="M964.15,-56.32C946.83,-47.66 919.98,-34.24 900,-24.25"/>
<polygon fill="midnightblue" stroke="midnightblue" points="901.32,-21 890.81,-19.65 898.19,-27.26 901.32,-21"/>
</g>
<!-- Node33&#45;&gt;Node26 -->
<g id="edge45" class="edge">
<title>Node33&#45;&gt;Node26</title>
<path fill="none" stroke="midnightblue" d="M944.95,-61.03C852.11,-50.94 608.18,-24.44 518.34,-14.68"/>
<polygon fill="midnightblue" stroke="midnightblue" points="518.49,-11.17 508.17,-13.57 517.74,-18.13 518.49,-11.17"/>
</g>
<!-- Node33&#45;&gt;Node30 -->
<g id="edge41" class="edge">
<title>Node33&#45;&gt;Node30</title>
<path fill="none" stroke="midnightblue" d="M974.4,-56.08C968.26,-48.38 959.23,-37.03 951.76,-27.65"/>
<polygon fill="midnightblue" stroke="midnightblue" points="954.44,-25.39 945.47,-19.75 948.96,-29.75 954.44,-25.39"/>
</g>
<!-- Node33&#45;&gt;Node34 -->
<g id="edge42" class="edge">
<title>Node33&#45;&gt;Node34</title>
<path fill="none" stroke="midnightblue" d="M988.93,-56.08C995.35,-48.38 1004.81,-37.03 1012.62,-27.65"/>
<polygon fill="midnightblue" stroke="midnightblue" points="1015.49,-29.67 1019.21,-19.75 1010.12,-25.19 1015.49,-29.67"/>
</g>
<!-- Node33&#45;&gt;Node35 -->
<g id="edge43" class="edge">
<title>Node33&#45;&gt;Node35</title>
<path fill="none" stroke="midnightblue" d="M1018.05,-61.03C1107.93,-51.26 1339.43,-26.11 1435.61,-15.66"/>
<polygon fill="midnightblue" stroke="midnightblue" points="1436.28,-19.11 1445.84,-14.55 1435.52,-12.15 1436.28,-19.11"/>
</g>
</g>
</svg>
        <g id="navigator" transform="translate(0 0)" fill="#404254">
                <rect fill="#f2f5e9" fill-opacity="0.5" stroke="#606060" stroke-width=".5" x="0" y="0" width="60" height="60"/>
                <use id="zoomplus" xlink:href="#zoomPlus" x="17" y="9" onmousedown="handleZoom(evt,'in')"/>
                <use id="zoomminus" xlink:href="#zoomMin" x="42" y="9" onmousedown="handleZoom(evt,'out')"/>
                <use id="reset" xlink:href="#resetDef" x="30" y="36" onmousedown="handleReset()"/>
                <g id="arrowUp" xlink:href="#dirArrow" transform="translate(30 24)" onmousedown="handlePan(0,-1)">
                  <use xlink:href="#rim" fill="#404040">
                        <set attributeName="fill" to="#808080" begin="arrowUp.mouseover" end="arrowUp.mouseout"/>
                  </use>
                  <path fill="none" stroke="white" stroke-width="1.5" d="M0,-3.0v7 M-2.5,-0.5L0,-3.0L2.5,-0.5"/>
                </g>
                <g id="arrowRight" xlink:href="#dirArrow" transform="rotate(90) translate(36 -43)" onmousedown="handlePan(1,0)">
                  <use xlink:href="#rim" fill="#404040">
                        <set attributeName="fill" to="#808080" begin="arrowRight.mouseover" end="arrowRight.mouseout"/>
                  </use>
                  <path fill="none" stroke="white" stroke-width="1.5" d="M0,-3.0v7 M-2.5,-0.5L0,-3.0L2.5,-0.5"/>
                </g>
                <g id="arrowDown" xlink:href="#dirArrow" transform="rotate(180) translate(-30 -48)" onmousedown="handlePan(0,1)">
                  <use xlink:href="#rim" fill="#404040">
                        <set attributeName="fill" to="#808080" begin="arrowDown.mouseover" end="arrowDown.mouseout"/>
                  </use>
                  <path fill="none" stroke="white" stroke-width="1.5" d="M0,-3.0v7 M-2.5,-0.5L0,-3.0L2.5,-0.5"/>
                </g>
                <g id="arrowLeft" xlink:href="#dirArrow" transform="rotate(270) translate(-36 17)" onmousedown="handlePan(-1,0)">
                  <use xlink:href="#rim" fill="#404040">
                        <set attributeName="fill" to="#808080" begin="arrowLeft.mouseover" end="arrowLeft.mouseout"/>
                  </use>
                  <path fill="none" stroke="white" stroke-width="1.5" d="M0,-3.0v7 M-2.5,-0.5L0,-3.0L2.5,-0.5"/>
                </g>
        </g>
        <svg viewBox="0 0 15 15" width="100%" height="30px" preserveAspectRatio="xMaxYMin meet">
         <g id="arrow_out" transform="scale(0.3 0.3)">
          <a xlink:href="interface_8h__incl_org.svg" target="_base">
           <rect id="button" ry="5" rx="5" y="6" x="6" height="38" width="38"
                fill="#f2f5e9" fill-opacity="0.5" stroke="#606060" stroke-width="1.0"/>
           <path id="arrow"
             d="M 11.500037,31.436501 C 11.940474,20.09759 22.043105,11.32322 32.158766,21.979434 L 37.068811,17.246167 C 37.068811,17.246167 37.088388,32 37.088388,32 L 22.160133,31.978069 C 22.160133,31.978069 26.997745,27.140456 26.997745,27.140456 C 18.528582,18.264221 13.291696,25.230495 11.500037,31.436501 z"
             style="fill:#404040;"/>
          </a>
         </g>
        </svg>
</svg>
