<?xml version="1.0" encoding="UTF-8" standalone="no"?>
<!DOCTYPE svg PUBLIC "-//W3C//DTD SVG 1.1//EN"
 "http://www.w3.org/Graphics/SVG/1.1/DTD/svg11.dtd">
<!-- Generated by graphviz version 2.43.0 (0)
 -->
<!-- Title: src/crypto/key_pair.cpp Pages: 1 -->
<svg width="2375pt" height="543pt"
 viewBox="0.00 0.00 2375.00 543.00" xmlns="http://www.w3.org/2000/svg" xmlns:xlink="http://www.w3.org/1999/xlink">
<g id="graph0" class="graph" transform="scale(1 1) rotate(0) translate(4 539)">
<title>src/crypto/key_pair.cpp</title>
<polygon fill="white" stroke="transparent" points="-4,4 -4,-539 2371,-539 2371,4 -4,4"/>
<!-- Node1 -->
<g id="node1" class="node">
<title>Node1</title>
<g id="a_node1"><a xlink:title=" ">
<polygon fill="#bfbfbf" stroke="black" points="2100,-515.5 2100,-534.5 2228,-534.5 2228,-515.5 2100,-515.5"/>
<text text-anchor="middle" x="2164" y="-522.5" font-family="Helvetica,sans-Serif" font-size="10.00">src/crypto/key_pair.cpp</text>
</a>
</g>
</g>
<!-- Node2 -->
<g id="node2" class="node">
<title>Node2</title>
<g id="a_node2"><a xlink:href="include_2ccf_2crypto_2key__pair_8h.html" target="_top" xlink:title=" ">
<polygon fill="white" stroke="black" points="593.5,-398 593.5,-417 710.5,-417 710.5,-398 593.5,-398"/>
<text text-anchor="middle" x="652" y="-405" font-family="Helvetica,sans-Serif" font-size="10.00">ccf/crypto/key_pair.h</text>
</a>
</g>
</g>
<!-- Node1&#45;&gt;Node2 -->
<g id="edge1" class="edge">
<title>Node1&#45;&gt;Node2</title>
<path fill="none" stroke="midnightblue" d="M2099.85,-520.14C1979.33,-512.8 1710.89,-496.04 1485,-479 1201.21,-457.59 863.43,-427.61 720.88,-414.76"/>
<polygon fill="midnightblue" stroke="midnightblue" points="720.82,-411.24 710.55,-413.83 720.19,-418.21 720.82,-411.24"/>
</g>
<!-- Node7 -->
<g id="node7" class="node">
<title>Node7</title>
<g id="a_node7"><a xlink:title=" ">
<polygon fill="white" stroke="#bfbfbf" points="1008,-0.5 1008,-19.5 1052,-19.5 1052,-0.5 1008,-0.5"/>
<text text-anchor="middle" x="1030" y="-7.5" font-family="Helvetica,sans-Serif" font-size="10.00">string</text>
</a>
</g>
</g>
<!-- Node1&#45;&gt;Node7 -->
<g id="edge84" class="edge">
<title>Node1&#45;&gt;Node7</title>
<path fill="none" stroke="midnightblue" d="M2171.69,-515.44C2187.25,-497.2 2221,-452.55 2221,-408.5 2221,-408.5 2221,-408.5 2221,-121 2221,-40.11 2130.2,-72.44 2051,-56 1855.47,-15.42 1214.41,-11.41 1062.49,-11.04"/>
<polygon fill="midnightblue" stroke="midnightblue" points="1062.42,-7.53 1052.41,-11.01 1062.41,-14.53 1062.42,-7.53"/>
</g>
<!-- Node22 -->
<g id="node22" class="node">
<title>Node22</title>
<g id="a_node22"><a xlink:title=" ">
<polygon fill="white" stroke="#bfbfbf" points="1458,-224.5 1458,-243.5 1508,-243.5 1508,-224.5 1458,-224.5"/>
<text text-anchor="middle" x="1483" y="-231.5" font-family="Helvetica,sans-Serif" font-size="10.00">cstring</text>
</a>
</g>
</g>
<!-- Node1&#45;&gt;Node22 -->
<g id="edge80" class="edge">
<title>Node1&#45;&gt;Node22</title>
<path fill="none" stroke="midnightblue" d="M2163.01,-515.36C2158.38,-479.21 2135.29,-339.16 2050,-280 2006.38,-249.74 1635.98,-238.57 1518.56,-235.76"/>
<polygon fill="midnightblue" stroke="midnightblue" points="1518.39,-232.26 1508.32,-235.53 1518.23,-239.26 1518.39,-232.26"/>
</g>
<!-- Node24 -->
<g id="node24" class="node">
<title>Node24</title>
<g id="a_node24"><a xlink:title=" ">
<polygon fill="white" stroke="#bfbfbf" points="1803,-224.5 1803,-243.5 1861,-243.5 1861,-224.5 1803,-224.5"/>
<text text-anchor="middle" x="1832" y="-231.5" font-family="Helvetica,sans-Serif" font-size="10.00">memory</text>
</a>
</g>
</g>
<!-- Node1&#45;&gt;Node24 -->
<g id="edge83" class="edge">
<title>Node1&#45;&gt;Node24</title>
<path fill="none" stroke="midnightblue" d="M2166.41,-515.39C2171.52,-496.3 2183,-448.94 2183,-408.5 2183,-408.5 2183,-408.5 2183,-345 2183,-305.08 2156.38,-298.5 2121,-280 2078.31,-257.68 1940.12,-243.72 1871.46,-238"/>
<polygon fill="midnightblue" stroke="midnightblue" points="1871.71,-234.5 1861.46,-237.18 1871.14,-241.48 1871.71,-234.5"/>
</g>
<!-- Node31 -->
<g id="node31" class="node">
<title>Node31</title>
<g id="a_node31"><a xlink:href="src_2crypto_2openssl_2key__pair_8h.html" target="_top" xlink:title=" ">
<polygon fill="white" stroke="black" points="1493.5,-459.5 1493.5,-478.5 1600.5,-478.5 1600.5,-459.5 1493.5,-459.5"/>
<text text-anchor="middle" x="1547" y="-466.5" font-family="Helvetica,sans-Serif" font-size="10.00">openssl/key_pair.h</text>
</a>
</g>
</g>
<!-- Node1&#45;&gt;Node31 -->
<g id="edge54" class="edge">
<title>Node1&#45;&gt;Node31</title>
<path fill="none" stroke="midnightblue" d="M2099.72,-518.37C1981.1,-507.99 1729.16,-485.94 1610.86,-475.59"/>
<polygon fill="midnightblue" stroke="midnightblue" points="1611.13,-472.1 1600.87,-474.71 1610.52,-479.07 1611.13,-472.1"/>
</g>
<!-- Node32 -->
<g id="node32" class="node">
<title>Node32</title>
<g id="a_node32"><a xlink:href="src_2crypto_2openssl_2public__key_8h.html" target="_top" xlink:title=" ">
<polygon fill="white" stroke="black" points="1642,-392.5 1642,-422.5 1762,-422.5 1762,-392.5 1642,-392.5"/>
<text text-anchor="start" x="1650" y="-410.5" font-family="Helvetica,sans-Serif" font-size="10.00">crypto/openssl/public</text>
<text text-anchor="middle" x="1702" y="-399.5" font-family="Helvetica,sans-Serif" font-size="10.00">_key.h</text>
</a>
</g>
</g>
<!-- Node1&#45;&gt;Node32 -->
<g id="edge79" class="edge">
<title>Node1&#45;&gt;Node32</title>
<path fill="none" stroke="midnightblue" d="M2129.65,-515.41C2053.23,-496.31 1868.03,-450.01 1768.27,-425.07"/>
<polygon fill="midnightblue" stroke="midnightblue" points="1768.85,-421.61 1758.3,-422.58 1767.15,-428.4 1768.85,-421.61"/>
</g>
<!-- Node43 -->
<g id="node43" class="node">
<title>Node43</title>
<g id="a_node43"><a xlink:title=" ">
<polygon fill="white" stroke="#bfbfbf" points="2249,-459.5 2249,-478.5 2305,-478.5 2305,-459.5 2249,-459.5"/>
<text text-anchor="middle" x="2277" y="-466.5" font-family="Helvetica,sans-Serif" font-size="10.00">iomanip</text>
</a>
</g>
</g>
<!-- Node1&#45;&gt;Node43 -->
<g id="edge81" class="edge">
<title>Node1&#45;&gt;Node43</title>
<path fill="none" stroke="midnightblue" d="M2181.91,-515.44C2200.25,-506.68 2229.01,-492.94 2250.09,-482.86"/>
<polygon fill="midnightblue" stroke="midnightblue" points="2251.67,-485.99 2259.18,-478.52 2248.65,-479.67 2251.67,-485.99"/>
</g>
<!-- Node44 -->
<g id="node44" class="node">
<title>Node44</title>
<g id="a_node44"><a xlink:title=" ">
<polygon fill="white" stroke="#bfbfbf" points="2323,-459.5 2323,-478.5 2367,-478.5 2367,-459.5 2323,-459.5"/>
<text text-anchor="middle" x="2345" y="-466.5" font-family="Helvetica,sans-Serif" font-size="10.00">limits</text>
</a>
</g>
</g>
<!-- Node1&#45;&gt;Node44 -->
<g id="edge82" class="edge">
<title>Node1&#45;&gt;Node44</title>
<path fill="none" stroke="midnightblue" d="M2192.68,-515.44C2225.38,-505.69 2278.71,-489.78 2312.81,-479.6"/>
<polygon fill="midnightblue" stroke="midnightblue" points="2314.15,-482.86 2322.73,-476.64 2312.15,-476.15 2314.15,-482.86"/>
</g>
<!-- Node3 -->
<g id="node3" class="node">
<title>Node3</title>
<g id="a_node3"><a xlink:href="curve_8h.html" target="_top" xlink:title=" ">
<polygon fill="white" stroke="black" points="566,-280.5 566,-299.5 670,-299.5 670,-280.5 566,-280.5"/>
<text text-anchor="middle" x="618" y="-287.5" font-family="Helvetica,sans-Serif" font-size="10.00">ccf/crypto/curve.h</text>
</a>
</g>
</g>
<!-- Node2&#45;&gt;Node3 -->
<g id="edge2" class="edge">
<title>Node2&#45;&gt;Node3</title>
<path fill="none" stroke="midnightblue" d="M646.41,-397.96C640.32,-388.23 630.82,-371.64 626,-356 621.34,-340.87 619.38,-322.98 618.56,-309.79"/>
<polygon fill="midnightblue" stroke="midnightblue" points="622.05,-309.44 618.1,-299.61 615.06,-309.76 622.05,-309.44"/>
</g>
<!-- Node2&#45;&gt;Node7 -->
<g id="edge52" class="edge">
<title>Node2&#45;&gt;Node7</title>
<path fill="none" stroke="midnightblue" d="M710.72,-401.35C825.39,-387.74 1068,-339.93 1068,-179 1068,-179 1068,-179 1068,-121 1068,-86.81 1051.4,-49.76 1040.14,-28.57"/>
<polygon fill="midnightblue" stroke="midnightblue" points="1043.18,-26.83 1035.28,-19.77 1037.05,-30.22 1043.18,-26.83"/>
</g>
<!-- Node8 -->
<g id="node8" class="node">
<title>Node8</title>
<g id="a_node8"><a xlink:title=" ">
<polygon fill="white" stroke="#bfbfbf" points="401.5,-0.5 401.5,-19.5 448.5,-19.5 448.5,-0.5 401.5,-0.5"/>
<text text-anchor="middle" x="425" y="-7.5" font-family="Helvetica,sans-Serif" font-size="10.00">vector</text>
</a>
</g>
</g>
<!-- Node2&#45;&gt;Node8 -->
<g id="edge53" class="edge">
<title>Node2&#45;&gt;Node8</title>
<path fill="none" stroke="midnightblue" d="M593.38,-404.71C464.93,-399.2 170,-377.16 170,-291 170,-291 170,-291 170,-177 170,-112.28 198.22,-93.44 251,-56 293.16,-26.1 353.61,-16.05 391.03,-12.68"/>
<polygon fill="midnightblue" stroke="midnightblue" points="391.7,-16.14 401.4,-11.87 391.16,-9.16 391.7,-16.14"/>
</g>
<!-- Node21 -->
<g id="node21" class="node">
<title>Node21</title>
<g id="a_node21"><a xlink:href="pem_8h.html" target="_top" xlink:title=" ">
<polygon fill="white" stroke="black" points="802,-280.5 802,-299.5 900,-299.5 900,-280.5 802,-280.5"/>
<text text-anchor="middle" x="851" y="-287.5" font-family="Helvetica,sans-Serif" font-size="10.00">ccf/crypto/pem.h</text>
</a>
</g>
</g>
<!-- Node2&#45;&gt;Node21 -->
<g id="edge27" class="edge">
<title>Node2&#45;&gt;Node21</title>
<path fill="none" stroke="midnightblue" d="M678.08,-397.84C702.89,-389.05 740.81,-374.17 771,-356 794.8,-341.67 819.16,-320.82 834.64,-306.62"/>
<polygon fill="midnightblue" stroke="midnightblue" points="837.35,-308.88 842.27,-299.5 832.57,-303.77 837.35,-308.88"/>
</g>
<!-- Node26 -->
<g id="node26" class="node">
<title>Node26</title>
<g id="a_node26"><a xlink:href="include_2ccf_2crypto_2public__key_8h.html" target="_top" xlink:title=" ">
<polygon fill="white" stroke="black" points="634.5,-336.5 634.5,-355.5 761.5,-355.5 761.5,-336.5 634.5,-336.5"/>
<text text-anchor="middle" x="698" y="-343.5" font-family="Helvetica,sans-Serif" font-size="10.00">ccf/crypto/public_key.h</text>
</a>
</g>
</g>
<!-- Node2&#45;&gt;Node26 -->
<g id="edge35" class="edge">
<title>Node2&#45;&gt;Node26</title>
<path fill="none" stroke="midnightblue" d="M658.59,-397.98C665.49,-389.05 676.5,-374.81 685.13,-363.64"/>
<polygon fill="midnightblue" stroke="midnightblue" points="688.07,-365.56 691.42,-355.51 682.54,-361.28 688.07,-365.56"/>
</g>
<!-- Node28 -->
<g id="node28" class="node">
<title>Node28</title>
<g id="a_node28"><a xlink:href="san_8h.html" target="_top" xlink:title=" ">
<polygon fill="white" stroke="black" points="274,-224.5 274,-243.5 368,-243.5 368,-224.5 274,-224.5"/>
<text text-anchor="middle" x="321" y="-231.5" font-family="Helvetica,sans-Serif" font-size="10.00">ccf/crypto/san.h</text>
</a>
</g>
</g>
<!-- Node2&#45;&gt;Node28 -->
<g id="edge49" class="edge">
<title>Node2&#45;&gt;Node28</title>
<path fill="none" stroke="midnightblue" d="M593.33,-403.32C522.42,-396.2 404.48,-373.32 339,-300 327.68,-287.32 323.41,-268.12 321.83,-253.87"/>
<polygon fill="midnightblue" stroke="midnightblue" points="325.31,-253.43 321.06,-243.72 318.33,-253.95 325.31,-253.43"/>
</g>
<!-- Node29 -->
<g id="node29" class="node">
<title>Node29</title>
<g id="a_node29"><a xlink:title=" ">
<polygon fill="white" stroke="#bfbfbf" points="422,-280.5 422,-299.5 472,-299.5 472,-280.5 422,-280.5"/>
<text text-anchor="middle" x="447" y="-287.5" font-family="Helvetica,sans-Serif" font-size="10.00">cstdint</text>
</a>
</g>
</g>
<!-- Node2&#45;&gt;Node29 -->
<g id="edge50" class="edge">
<title>Node2&#45;&gt;Node29</title>
<path fill="none" stroke="midnightblue" d="M636.59,-397.82C601.19,-377.87 513.8,-328.64 471.17,-304.62"/>
<polygon fill="midnightblue" stroke="midnightblue" points="472.74,-301.48 462.31,-299.62 469.3,-307.58 472.74,-301.48"/>
</g>
<!-- Node30 -->
<g id="node30" class="node">
<title>Node30</title>
<g id="a_node30"><a xlink:title=" ">
<polygon fill="white" stroke="#bfbfbf" points="348,-280.5 348,-299.5 404,-299.5 404,-280.5 348,-280.5"/>
<text text-anchor="middle" x="376" y="-287.5" font-family="Helvetica,sans-Serif" font-size="10.00">optional</text>
</a>
</g>
</g>
<!-- Node2&#45;&gt;Node30 -->
<g id="edge51" class="edge">
<title>Node2&#45;&gt;Node30</title>
<path fill="none" stroke="midnightblue" d="M630.45,-397.85C605.68,-387.89 563.82,-370.95 528,-356 484.98,-338.04 435.36,-316.71 404.84,-303.51"/>
<polygon fill="midnightblue" stroke="midnightblue" points="406.2,-300.28 395.63,-299.52 403.42,-306.71 406.2,-300.28"/>
</g>
<!-- Node4 -->
<g id="node4" class="node">
<title>Node4</title>
<g id="a_node4"><a xlink:href="md__type_8h.html" target="_top" xlink:title=" ">
<polygon fill="white" stroke="black" points="424.5,-224.5 424.5,-243.5 543.5,-243.5 543.5,-224.5 424.5,-224.5"/>
<text text-anchor="middle" x="484" y="-231.5" font-family="Helvetica,sans-Serif" font-size="10.00">ccf/crypto/md_type.h</text>
</a>
</g>
</g>
<!-- Node3&#45;&gt;Node4 -->
<g id="edge3" class="edge">
<title>Node3&#45;&gt;Node4</title>
<path fill="none" stroke="midnightblue" d="M596.77,-280.44C574.62,-271.52 539.68,-257.44 514.56,-247.32"/>
<polygon fill="midnightblue" stroke="midnightblue" points="515.72,-244.01 505.13,-243.52 513.1,-250.5 515.72,-244.01"/>
</g>
<!-- Node5 -->
<g id="node5" class="node">
<title>Node5</title>
<g id="a_node5"><a xlink:href="json_8h.html" target="_top" xlink:title=" ">
<polygon fill="white" stroke="black" points="392.5,-168.5 392.5,-187.5 469.5,-187.5 469.5,-168.5 392.5,-168.5"/>
<text text-anchor="middle" x="431" y="-175.5" font-family="Helvetica,sans-Serif" font-size="10.00">ccf/ds/json.h</text>
</a>
</g>
</g>
<!-- Node3&#45;&gt;Node5 -->
<g id="edge23" class="edge">
<title>Node3&#45;&gt;Node5</title>
<path fill="none" stroke="midnightblue" d="M565.89,-280.9C508.95,-271.51 424.49,-255.82 415,-244 404.12,-230.45 411.41,-210.56 419.35,-196.35"/>
<polygon fill="midnightblue" stroke="midnightblue" points="422.49,-197.93 424.74,-187.58 416.52,-194.27 422.49,-197.93"/>
</g>
<!-- Node3&#45;&gt;Node7 -->
<g id="edge26" class="edge">
<title>Node3&#45;&gt;Node7</title>
<path fill="none" stroke="midnightblue" d="M665.65,-280.48C724.6,-268.09 825.87,-240.61 897,-188 957.19,-143.48 1002.78,-64.24 1021.14,-28.89"/>
<polygon fill="midnightblue" stroke="midnightblue" points="1024.36,-30.28 1025.78,-19.78 1018.12,-27.11 1024.36,-30.28"/>
</g>
<!-- Node16 -->
<g id="node16" class="node">
<title>Node16</title>
<g id="a_node16"><a xlink:title=" ">
<polygon fill="white" stroke="#bfbfbf" points="572.5,-56.5 572.5,-75.5 651.5,-75.5 651.5,-56.5 572.5,-56.5"/>
<text text-anchor="middle" x="612" y="-63.5" font-family="Helvetica,sans-Serif" font-size="10.00">fmt/format.h</text>
</a>
</g>
</g>
<!-- Node3&#45;&gt;Node16 -->
<g id="edge24" class="edge">
<title>Node3&#45;&gt;Node16</title>
<path fill="none" stroke="midnightblue" d="M610.2,-280.37C595.9,-263.89 565.92,-226.15 555,-188 543.67,-148.43 575.35,-105.66 595.92,-83.08"/>
<polygon fill="midnightblue" stroke="midnightblue" points="598.55,-85.38 602.89,-75.72 593.47,-80.57 598.55,-85.38"/>
</g>
<!-- Node19 -->
<g id="node19" class="node">
<title>Node19</title>
<g id="a_node19"><a xlink:href="enum__formatter_8h.html" target="_top" xlink:title=" ">
<polygon fill="white" stroke="black" points="564,-168.5 564,-187.5 700,-187.5 700,-168.5 564,-168.5"/>
<text text-anchor="middle" x="632" y="-175.5" font-family="Helvetica,sans-Serif" font-size="10.00">ccf/ds/enum_formatter.h</text>
</a>
</g>
</g>
<!-- Node3&#45;&gt;Node19 -->
<g id="edge21" class="edge">
<title>Node3&#45;&gt;Node19</title>
<path fill="none" stroke="midnightblue" d="M619.18,-280.38C620.4,-271.32 622.38,-256.66 624,-244 625.99,-228.47 628.15,-210.85 629.73,-197.87"/>
<polygon fill="midnightblue" stroke="midnightblue" points="633.22,-198.18 630.94,-187.83 626.27,-197.34 633.22,-198.18"/>
</g>
<!-- Node20 -->
<g id="node20" class="node">
<title>Node20</title>
<g id="a_node20"><a xlink:title=" ">
<polygon fill="white" stroke="#bfbfbf" points="1096.5,-224.5 1096.5,-243.5 1161.5,-243.5 1161.5,-224.5 1096.5,-224.5"/>
<text text-anchor="middle" x="1129" y="-231.5" font-family="Helvetica,sans-Serif" font-size="10.00">stdexcept</text>
</a>
</g>
</g>
<!-- Node3&#45;&gt;Node20 -->
<g id="edge25" class="edge">
<title>Node3&#45;&gt;Node20</title>
<path fill="none" stroke="midnightblue" d="M670.28,-283.47C771.56,-272.77 992.72,-249.4 1086.07,-239.54"/>
<polygon fill="midnightblue" stroke="midnightblue" points="1086.7,-242.99 1096.28,-238.46 1085.97,-236.03 1086.7,-242.99"/>
</g>
<!-- Node4&#45;&gt;Node5 -->
<g id="edge4" class="edge">
<title>Node4&#45;&gt;Node5</title>
<path fill="none" stroke="midnightblue" d="M475.25,-224.08C467.53,-216.22 456.1,-204.57 446.78,-195.08"/>
<polygon fill="midnightblue" stroke="midnightblue" points="449.09,-192.44 439.59,-187.75 444.1,-197.34 449.09,-192.44"/>
</g>
<!-- Node6 -->
<g id="node6" class="node">
<title>Node6</title>
<g id="a_node6"><a xlink:href="include_2ccf_2crypto_2base64_8h.html" target="_top" xlink:title=" ">
<polygon fill="white" stroke="black" points="442,-56.5 442,-75.5 554,-75.5 554,-56.5 442,-56.5"/>
<text text-anchor="middle" x="498" y="-63.5" font-family="Helvetica,sans-Serif" font-size="10.00">ccf/crypto/base64.h</text>
</a>
</g>
</g>
<!-- Node5&#45;&gt;Node6 -->
<g id="edge5" class="edge">
<title>Node5&#45;&gt;Node6</title>
<path fill="none" stroke="midnightblue" d="M465.18,-168.49C483.99,-161.88 505.74,-150.6 517,-132 526,-117.13 518.27,-97.75 510.12,-84.03"/>
<polygon fill="midnightblue" stroke="midnightblue" points="513.01,-82.04 504.62,-75.57 507.14,-85.86 513.01,-82.04"/>
</g>
<!-- Node9 -->
<g id="node9" class="node">
<title>Node9</title>
<g id="a_node9"><a xlink:href="include_2ccf_2ds_2json__schema_8h.html" target="_top" xlink:title=" ">
<polygon fill="white" stroke="black" points="274.5,-112.5 274.5,-131.5 395.5,-131.5 395.5,-112.5 274.5,-112.5"/>
<text text-anchor="middle" x="335" y="-119.5" font-family="Helvetica,sans-Serif" font-size="10.00">ccf/ds/json_schema.h</text>
</a>
</g>
</g>
<!-- Node5&#45;&gt;Node9 -->
<g id="edge8" class="edge">
<title>Node5&#45;&gt;Node9</title>
<path fill="none" stroke="midnightblue" d="M415.58,-168.32C400.46,-159.82 377.18,-146.73 359.53,-136.8"/>
<polygon fill="midnightblue" stroke="midnightblue" points="360.82,-133.51 350.39,-131.65 357.39,-139.61 360.82,-133.51"/>
</g>
<!-- Node5&#45;&gt;Node16 -->
<g id="edge19" class="edge">
<title>Node5&#45;&gt;Node16</title>
<path fill="none" stroke="midnightblue" d="M455.69,-168.47C477.18,-160.53 508.76,-147.59 534,-132 557.03,-117.77 580.5,-97.23 595.59,-83.06"/>
<polygon fill="midnightblue" stroke="midnightblue" points="598.24,-85.37 603.06,-75.93 593.41,-80.3 598.24,-85.37"/>
</g>
<!-- Node18 -->
<g id="node18" class="node">
<title>Node18</title>
<g id="a_node18"><a xlink:title=" ">
<polygon fill="white" stroke="#bfbfbf" points="452,-112.5 452,-131.5 508,-131.5 508,-112.5 452,-112.5"/>
<text text-anchor="middle" x="480" y="-119.5" font-family="Helvetica,sans-Serif" font-size="10.00">sstream</text>
</a>
</g>
</g>
<!-- Node5&#45;&gt;Node18 -->
<g id="edge20" class="edge">
<title>Node5&#45;&gt;Node18</title>
<path fill="none" stroke="midnightblue" d="M439.09,-168.08C446.16,-160.3 456.59,-148.8 465.15,-139.37"/>
<polygon fill="midnightblue" stroke="midnightblue" points="467.93,-141.51 472.06,-131.75 462.75,-136.8 467.93,-141.51"/>
</g>
<!-- Node6&#45;&gt;Node7 -->
<g id="edge6" class="edge">
<title>Node6&#45;&gt;Node7</title>
<path fill="none" stroke="midnightblue" d="M554.15,-57.19C557.48,-56.77 560.78,-56.37 564,-56 726.36,-37.1 921.21,-20.12 997.31,-13.71"/>
<polygon fill="midnightblue" stroke="midnightblue" points="997.98,-17.17 1007.66,-12.84 997.4,-10.19 997.98,-17.17"/>
</g>
<!-- Node6&#45;&gt;Node8 -->
<g id="edge7" class="edge">
<title>Node6&#45;&gt;Node8</title>
<path fill="none" stroke="midnightblue" d="M486.27,-56.32C475.16,-48.11 458.26,-35.6 445.02,-25.81"/>
<polygon fill="midnightblue" stroke="midnightblue" points="447.06,-22.97 436.94,-19.83 442.9,-28.59 447.06,-22.97"/>
</g>
<!-- Node10 -->
<g id="node10" class="node">
<title>Node10</title>
<g id="a_node10"><a xlink:href="nonstd_8h.html" target="_top" xlink:title=" ">
<polygon fill="white" stroke="black" points="90,-56.5 90,-75.5 180,-75.5 180,-56.5 90,-56.5"/>
<text text-anchor="middle" x="135" y="-63.5" font-family="Helvetica,sans-Serif" font-size="10.00">ccf/ds/nonstd.h</text>
</a>
</g>
</g>
<!-- Node9&#45;&gt;Node10 -->
<g id="edge9" class="edge">
<title>Node9&#45;&gt;Node10</title>
<path fill="none" stroke="midnightblue" d="M303.31,-112.44C268.93,-103.16 213.92,-88.31 176.21,-78.13"/>
<polygon fill="midnightblue" stroke="midnightblue" points="177.11,-74.74 166.54,-75.52 175.28,-81.5 177.11,-74.74"/>
</g>
<!-- Node9&#45;&gt;Node16 -->
<g id="edge17" class="edge">
<title>Node9&#45;&gt;Node16</title>
<path fill="none" stroke="midnightblue" d="M378.89,-112.44C428.8,-102.71 510.12,-86.86 562.32,-76.69"/>
<polygon fill="midnightblue" stroke="midnightblue" points="563.21,-80.08 572.35,-74.73 561.87,-73.21 563.21,-80.08"/>
</g>
<!-- Node17 -->
<g id="node17" class="node">
<title>Node17</title>
<g id="a_node17"><a xlink:title=" ">
<polygon fill="white" stroke="#bfbfbf" points="280,-56.5 280,-75.5 390,-75.5 390,-56.5 280,-56.5"/>
<text text-anchor="middle" x="335" y="-63.5" font-family="Helvetica,sans-Serif" font-size="10.00">nlohmann/json.hpp</text>
</a>
</g>
</g>
<!-- Node9&#45;&gt;Node17 -->
<g id="edge18" class="edge">
<title>Node9&#45;&gt;Node17</title>
<path fill="none" stroke="midnightblue" d="M335,-112.08C335,-105.01 335,-94.86 335,-85.99"/>
<polygon fill="midnightblue" stroke="midnightblue" points="338.5,-85.75 335,-75.75 331.5,-85.75 338.5,-85.75"/>
</g>
<!-- Node10&#45;&gt;Node7 -->
<g id="edge13" class="edge">
<title>Node10&#45;&gt;Node7</title>
<path fill="none" stroke="midnightblue" d="M180.02,-61.94C206.51,-60.16 240.65,-57.9 271,-56 552.52,-38.34 892.9,-18.81 997.72,-12.83"/>
<polygon fill="midnightblue" stroke="midnightblue" points="998.17,-16.31 1007.95,-12.25 997.77,-9.33 998.17,-16.31"/>
</g>
<!-- Node10&#45;&gt;Node8 -->
<g id="edge16" class="edge">
<title>Node10&#45;&gt;Node8</title>
<path fill="none" stroke="midnightblue" d="M180.31,-56.56C238.73,-45.68 339,-27.01 391.19,-17.29"/>
<polygon fill="midnightblue" stroke="midnightblue" points="392.08,-20.69 401.27,-15.42 390.8,-13.81 392.08,-20.69"/>
</g>
<!-- Node11 -->
<g id="node11" class="node">
<title>Node11</title>
<g id="a_node11"><a xlink:title=" ">
<polygon fill="white" stroke="#bfbfbf" points="0,-0.5 0,-19.5 64,-19.5 64,-0.5 0,-0.5"/>
<text text-anchor="middle" x="32" y="-7.5" font-family="Helvetica,sans-Serif" font-size="10.00">algorithm</text>
</a>
</g>
</g>
<!-- Node10&#45;&gt;Node11 -->
<g id="edge10" class="edge">
<title>Node10&#45;&gt;Node11</title>
<path fill="none" stroke="midnightblue" d="M118.45,-56.32C102.01,-47.7 76.57,-34.36 57.53,-24.39"/>
<polygon fill="midnightblue" stroke="midnightblue" points="58.99,-21.2 48.51,-19.65 55.74,-27.4 58.99,-21.2"/>
</g>
<!-- Node12 -->
<g id="node12" class="node">
<title>Node12</title>
<g id="a_node12"><a xlink:title=" ">
<polygon fill="white" stroke="#bfbfbf" points="82,-0.5 82,-19.5 124,-19.5 124,-0.5 82,-0.5"/>
<text text-anchor="middle" x="103" y="-7.5" font-family="Helvetica,sans-Serif" font-size="10.00">array</text>
</a>
</g>
</g>
<!-- Node10&#45;&gt;Node12 -->
<g id="edge11" class="edge">
<title>Node10&#45;&gt;Node12</title>
<path fill="none" stroke="midnightblue" d="M129.72,-56.08C125.29,-48.61 118.84,-37.72 113.38,-28.52"/>
<polygon fill="midnightblue" stroke="midnightblue" points="116.29,-26.57 108.19,-19.75 110.27,-30.14 116.29,-26.57"/>
</g>
<!-- Node13 -->
<g id="node13" class="node">
<title>Node13</title>
<g id="a_node13"><a xlink:title=" ">
<polygon fill="white" stroke="#bfbfbf" points="142.5,-0.5 142.5,-19.5 191.5,-19.5 191.5,-0.5 142.5,-0.5"/>
<text text-anchor="middle" x="167" y="-7.5" font-family="Helvetica,sans-Serif" font-size="10.00">cctype</text>
</a>
</g>
</g>
<!-- Node10&#45;&gt;Node13 -->
<g id="edge12" class="edge">
<title>Node10&#45;&gt;Node13</title>
<path fill="none" stroke="midnightblue" d="M140.28,-56.08C144.71,-48.61 151.16,-37.72 156.62,-28.52"/>
<polygon fill="midnightblue" stroke="midnightblue" points="159.73,-30.14 161.81,-19.75 153.71,-26.57 159.73,-30.14"/>
</g>
<!-- Node14 -->
<g id="node14" class="node">
<title>Node14</title>
<g id="a_node14"><a xlink:title=" ">
<polygon fill="white" stroke="#bfbfbf" points="692.5,-0.5 692.5,-19.5 765.5,-19.5 765.5,-0.5 692.5,-0.5"/>
<text text-anchor="middle" x="729" y="-7.5" font-family="Helvetica,sans-Serif" font-size="10.00">string_view</text>
</a>
</g>
</g>
<!-- Node10&#45;&gt;Node14 -->
<g id="edge14" class="edge">
<title>Node10&#45;&gt;Node14</title>
<path fill="none" stroke="midnightblue" d="M180.13,-60.9C290.03,-50.91 570.64,-25.4 682.22,-15.25"/>
<polygon fill="midnightblue" stroke="midnightblue" points="682.84,-18.71 692.48,-14.32 682.2,-11.74 682.84,-18.71"/>
</g>
<!-- Node15 -->
<g id="node15" class="node">
<title>Node15</title>
<g id="a_node15"><a xlink:title=" ">
<polygon fill="white" stroke="#bfbfbf" points="209.5,-0.5 209.5,-19.5 278.5,-19.5 278.5,-0.5 209.5,-0.5"/>
<text text-anchor="middle" x="244" y="-7.5" font-family="Helvetica,sans-Serif" font-size="10.00">type_traits</text>
</a>
</g>
</g>
<!-- Node10&#45;&gt;Node15 -->
<g id="edge15" class="edge">
<title>Node10&#45;&gt;Node15</title>
<path fill="none" stroke="midnightblue" d="M152.51,-56.32C170.07,-47.62 197.33,-34.12 217.53,-24.11"/>
<polygon fill="midnightblue" stroke="midnightblue" points="219.12,-27.23 226.53,-19.65 216.02,-20.96 219.12,-27.23"/>
</g>
<!-- Node19&#45;&gt;Node16 -->
<g id="edge22" class="edge">
<title>Node19&#45;&gt;Node16</title>
<path fill="none" stroke="midnightblue" d="M631.77,-168.08C631.3,-155.48 629.94,-131.78 626,-112 624.22,-103.07 621.34,-93.41 618.66,-85.33"/>
<polygon fill="midnightblue" stroke="midnightblue" points="621.94,-84.12 615.35,-75.82 615.33,-86.42 621.94,-84.12"/>
</g>
<!-- Node21&#45;&gt;Node5 -->
<g id="edge28" class="edge">
<title>Node21&#45;&gt;Node5</title>
<path fill="none" stroke="midnightblue" d="M818.39,-280.46C743.11,-260.74 557.21,-212.05 473.3,-190.08"/>
<polygon fill="midnightblue" stroke="midnightblue" points="474.15,-186.68 463.59,-187.53 472.37,-193.45 474.15,-186.68"/>
</g>
<!-- Node21&#45;&gt;Node8 -->
<g id="edge34" class="edge">
<title>Node21&#45;&gt;Node8</title>
<path fill="none" stroke="midnightblue" d="M849.32,-280.46C847.21,-267.5 844.87,-242.42 854,-224 865.06,-201.67 886.45,-210.58 897,-188 900.76,-179.95 901.52,-175.65 897,-168 844.61,-79.27 791.32,-89.87 694,-56 612.42,-27.6 510.5,-16.83 458.67,-12.98"/>
<polygon fill="midnightblue" stroke="midnightblue" points="458.91,-9.49 448.69,-12.28 458.42,-16.47 458.91,-9.49"/>
</g>
<!-- Node21&#45;&gt;Node14 -->
<g id="edge33" class="edge">
<title>Node21&#45;&gt;Node14</title>
<path fill="none" stroke="midnightblue" d="M851.16,-280.22C851.88,-266.47 855.23,-239.81 870,-224 901.68,-190.1 941.44,-226.05 968,-188 994.03,-150.7 1030.43,-146.23 930,-56 907.62,-35.89 827.81,-22.77 775.74,-16.15"/>
<polygon fill="midnightblue" stroke="midnightblue" points="776.08,-12.66 765.72,-14.91 775.22,-19.61 776.08,-12.66"/>
</g>
<!-- Node21&#45;&gt;Node22 -->
<g id="edge29" class="edge">
<title>Node21&#45;&gt;Node22</title>
<path fill="none" stroke="midnightblue" d="M900.07,-284.81C1022.88,-274.31 1341.29,-247.11 1447.75,-238.01"/>
<polygon fill="midnightblue" stroke="midnightblue" points="1448.28,-241.48 1457.95,-237.14 1447.69,-234.5 1448.28,-241.48"/>
</g>
<!-- Node23 -->
<g id="node23" class="node">
<title>Node23</title>
<g id="a_node23"><a xlink:title=" ">
<polygon fill="white" stroke="#bfbfbf" points="878.5,-224.5 878.5,-243.5 943.5,-243.5 943.5,-224.5 878.5,-224.5"/>
<text text-anchor="middle" x="911" y="-231.5" font-family="Helvetica,sans-Serif" font-size="10.00">exception</text>
</a>
</g>
</g>
<!-- Node21&#45;&gt;Node23 -->
<g id="edge30" class="edge">
<title>Node21&#45;&gt;Node23</title>
<path fill="none" stroke="midnightblue" d="M860.64,-280.32C869.51,-272.34 882.87,-260.31 893.61,-250.65"/>
<polygon fill="midnightblue" stroke="midnightblue" points="896.09,-253.13 901.18,-243.83 891.41,-247.92 896.09,-253.13"/>
</g>
<!-- Node21&#45;&gt;Node24 -->
<g id="edge31" class="edge">
<title>Node21&#45;&gt;Node24</title>
<path fill="none" stroke="midnightblue" d="M900.32,-286.29C1071.44,-276.87 1637.57,-245.7 1792.51,-237.17"/>
<polygon fill="midnightblue" stroke="midnightblue" points="1793.15,-240.64 1802.94,-236.6 1792.76,-233.65 1793.15,-240.64"/>
</g>
<!-- Node25 -->
<g id="node25" class="node">
<title>Node25</title>
<g id="a_node25"><a xlink:title=" ">
<polygon fill="white" stroke="#bfbfbf" points="962,-224.5 962,-243.5 1002,-243.5 1002,-224.5 962,-224.5"/>
<text text-anchor="middle" x="982" y="-231.5" font-family="Helvetica,sans-Serif" font-size="10.00">span</text>
</a>
</g>
</g>
<!-- Node21&#45;&gt;Node25 -->
<g id="edge32" class="edge">
<title>Node21&#45;&gt;Node25</title>
<path fill="none" stroke="midnightblue" d="M871.76,-280.44C893.44,-271.5 927.66,-257.4 952.23,-247.27"/>
<polygon fill="midnightblue" stroke="midnightblue" points="953.86,-250.39 961.77,-243.34 951.19,-243.91 953.86,-250.39"/>
</g>
<!-- Node26&#45;&gt;Node3 -->
<g id="edge36" class="edge">
<title>Node26&#45;&gt;Node3</title>
<path fill="none" stroke="midnightblue" d="M685.15,-336.32C672.78,-327.98 653.87,-315.21 639.26,-305.35"/>
<polygon fill="midnightblue" stroke="midnightblue" points="641.07,-302.35 630.82,-299.65 637.15,-308.15 641.07,-302.35"/>
</g>
<!-- Node26&#45;&gt;Node7 -->
<g id="edge47" class="edge">
<title>Node26&#45;&gt;Node7</title>
<path fill="none" stroke="midnightblue" d="M761.21,-336.47C803.86,-329.52 860.9,-317.89 909,-300 921.12,-295.49 1002.91,-254.08 1011,-244 1029.84,-220.53 1030,-209.1 1030,-179 1030,-179 1030,-179 1030,-121 1030,-88.95 1030,-51.64 1030,-29.75"/>
<polygon fill="midnightblue" stroke="midnightblue" points="1033.5,-29.56 1030,-19.56 1026.5,-29.56 1033.5,-29.56"/>
</g>
<!-- Node26&#45;&gt;Node8 -->
<g id="edge48" class="edge">
<title>Node26&#45;&gt;Node8</title>
<path fill="none" stroke="midnightblue" d="M645.1,-336.5C607.58,-329.41 556.54,-317.6 514,-300 498.15,-293.44 497.08,-285.96 481,-280 389.74,-246.17 337.8,-308.6 265,-244 242.49,-224.02 246,-209.1 246,-179 246,-179 246,-179 246,-121 246,-90.05 248.23,-76.96 271,-56 304.15,-25.49 356.9,-15.57 391.24,-12.4"/>
<polygon fill="midnightblue" stroke="midnightblue" points="391.56,-15.88 401.26,-11.62 391.02,-8.91 391.56,-15.88"/>
</g>
<!-- Node26&#45;&gt;Node21 -->
<g id="edge39" class="edge">
<title>Node26&#45;&gt;Node21</title>
<path fill="none" stroke="midnightblue" d="M722.24,-336.44C747.87,-327.4 788.49,-313.06 817.24,-302.92"/>
<polygon fill="midnightblue" stroke="midnightblue" points="818.61,-306.15 826.87,-299.52 816.28,-299.54 818.61,-306.15"/>
</g>
<!-- Node27 -->
<g id="node27" class="node">
<title>Node27</title>
<g id="a_node27"><a xlink:href="hash__bytes_8h.html" target="_top" xlink:title=" ">
<polygon fill="white" stroke="black" points="756,-168.5 756,-187.5 888,-187.5 888,-168.5 756,-168.5"/>
<text text-anchor="middle" x="822" y="-175.5" font-family="Helvetica,sans-Serif" font-size="10.00">ccf/crypto/hash_bytes.h</text>
</a>
</g>
</g>
<!-- Node26&#45;&gt;Node27 -->
<g id="edge37" class="edge">
<title>Node26&#45;&gt;Node27</title>
<path fill="none" stroke="midnightblue" d="M704.67,-336.08C724.52,-309.49 783.5,-230.54 809.48,-195.76"/>
<polygon fill="midnightblue" stroke="midnightblue" points="812.42,-197.67 815.6,-187.57 806.81,-193.49 812.42,-197.67"/>
</g>
<!-- Node26&#45;&gt;Node28 -->
<g id="edge40" class="edge">
<title>Node26&#45;&gt;Node28</title>
<path fill="none" stroke="midnightblue" d="M667.36,-336.44C638.53,-328.1 594.34,-314.58 557,-300 537.37,-292.34 533.92,-286.87 514,-280 469.36,-264.6 417.12,-252.78 378.25,-245.13"/>
<polygon fill="midnightblue" stroke="midnightblue" points="378.65,-241.64 368.17,-243.17 377.32,-248.51 378.65,-241.64"/>
</g>
<!-- Node26&#45;&gt;Node29 -->
<g id="edge45" class="edge">
<title>Node26&#45;&gt;Node29</title>
<path fill="none" stroke="midnightblue" d="M656.52,-336.42C613.75,-327.52 545.14,-313.1 486,-300 484.74,-299.72 483.46,-299.44 482.16,-299.15"/>
<polygon fill="midnightblue" stroke="midnightblue" points="482.69,-295.67 472.16,-296.87 481.14,-302.5 482.69,-295.67"/>
</g>
<!-- Node26&#45;&gt;Node30 -->
<g id="edge46" class="edge">
<title>Node26&#45;&gt;Node30</title>
<path fill="none" stroke="midnightblue" d="M634.35,-336.47C578.67,-328.67 495.45,-316.17 414.13,-300.1"/>
<polygon fill="midnightblue" stroke="midnightblue" points="414.72,-296.64 404.23,-298.12 413.35,-303.51 414.72,-296.64"/>
</g>
<!-- Node27&#45;&gt;Node8 -->
<g id="edge38" class="edge">
<title>Node27&#45;&gt;Node8</title>
<path fill="none" stroke="midnightblue" d="M813.89,-168.49C791.79,-145.89 727.68,-84.16 661,-56 592.91,-27.25 506.01,-16.74 458.96,-12.99"/>
<polygon fill="midnightblue" stroke="midnightblue" points="458.95,-9.48 448.72,-12.24 458.44,-16.46 458.95,-9.48"/>
</g>
<!-- Node28&#45;&gt;Node5 -->
<g id="edge41" class="edge">
<title>Node28&#45;&gt;Node5</title>
<path fill="none" stroke="midnightblue" d="M338.67,-224.32C356.39,-215.62 383.9,-202.12 404.29,-192.11"/>
<polygon fill="midnightblue" stroke="midnightblue" points="405.94,-195.2 413.37,-187.65 402.85,-188.92 405.94,-195.2"/>
</g>
<!-- Node28&#45;&gt;Node7 -->
<g id="edge44" class="edge">
<title>Node28&#45;&gt;Node7</title>
<path fill="none" stroke="midnightblue" d="M351.77,-224.49C383.48,-215.64 434.32,-201.26 478,-188 676.96,-127.6 914.31,-49.41 998.5,-21.48"/>
<polygon fill="midnightblue" stroke="midnightblue" points="999.6,-24.8 1007.99,-18.33 997.4,-18.16 999.6,-24.8"/>
</g>
<!-- Node28&#45;&gt;Node10 -->
<g id="edge42" class="edge">
<title>Node28&#45;&gt;Node10</title>
<path fill="none" stroke="midnightblue" d="M311.26,-224.31C281.38,-197.64 190.71,-116.72 152.39,-82.52"/>
<polygon fill="midnightblue" stroke="midnightblue" points="154.43,-79.65 144.64,-75.61 149.77,-84.88 154.43,-79.65"/>
</g>
<!-- Node28&#45;&gt;Node16 -->
<g id="edge43" class="edge">
<title>Node28&#45;&gt;Node16</title>
<path fill="none" stroke="midnightblue" d="M326.99,-224.36C343,-201.98 389.24,-141.76 443,-112 463.41,-100.7 520.22,-86.75 562.37,-77.4"/>
<polygon fill="midnightblue" stroke="midnightblue" points="563.18,-80.81 572.2,-75.25 561.68,-73.97 563.18,-80.81"/>
</g>
<!-- Node31&#45;&gt;Node2 -->
<g id="edge55" class="edge">
<title>Node31&#45;&gt;Node2</title>
<path fill="none" stroke="midnightblue" d="M1493.27,-464.53C1377.75,-457.06 1097.15,-438.84 862,-423 814.94,-419.83 761.96,-416.17 720.98,-413.32"/>
<polygon fill="midnightblue" stroke="midnightblue" points="721.05,-409.82 710.83,-412.62 720.57,-416.8 721.05,-409.82"/>
</g>
<!-- Node31&#45;&gt;Node7 -->
<g id="edge78" class="edge">
<title>Node31&#45;&gt;Node7</title>
<path fill="none" stroke="midnightblue" d="M1600.59,-463.69C1747.37,-450.41 2145,-404.01 2145,-291 2145,-291 2145,-291 2145,-121 2145,-9.19 1245.61,-9.49 1062.36,-10.71"/>
<polygon fill="midnightblue" stroke="midnightblue" points="1062.25,-7.21 1052.27,-10.78 1062.3,-14.21 1062.25,-7.21"/>
</g>
<!-- Node31&#45;&gt;Node20 -->
<g id="edge77" class="edge">
<title>Node31&#45;&gt;Node20</title>
<path fill="none" stroke="midnightblue" d="M1493.18,-462.62C1407.98,-452.3 1238.82,-424.35 1113,-356 1074.94,-335.33 1030.44,-317.57 1052,-280 1060.62,-264.99 1076.39,-254.5 1091.43,-247.46"/>
<polygon fill="midnightblue" stroke="midnightblue" points="1092.82,-250.67 1100.63,-243.51 1090.06,-244.24 1092.82,-250.67"/>
</g>
<!-- Node31&#45;&gt;Node26 -->
<g id="edge56" class="edge">
<title>Node31&#45;&gt;Node26</title>
<path fill="none" stroke="midnightblue" d="M1493.24,-466.76C1393.41,-463.77 1172.94,-453.96 990,-423 896.4,-407.16 788.99,-375.66 734.23,-358.61"/>
<polygon fill="midnightblue" stroke="midnightblue" points="735.22,-355.25 724.63,-355.6 733.13,-361.93 735.22,-355.25"/>
</g>
<!-- Node31&#45;&gt;Node32 -->
<g id="edge57" class="edge">
<title>Node31&#45;&gt;Node32</title>
<path fill="none" stroke="midnightblue" d="M1569.21,-459.48C1591.77,-450.81 1627.38,-437.15 1656.04,-426.14"/>
<polygon fill="midnightblue" stroke="midnightblue" points="1657.39,-429.37 1665.47,-422.52 1654.88,-422.84 1657.39,-429.37"/>
</g>
<!-- Node33 -->
<g id="node33" class="node">
<title>Node33</title>
<g id="a_node33"><a xlink:href="openssl__wrappers_8h.html" target="_top" xlink:title=" ">
<polygon fill="white" stroke="black" points="1490.5,-336.5 1490.5,-355.5 1603.5,-355.5 1603.5,-336.5 1490.5,-336.5"/>
<text text-anchor="middle" x="1547" y="-343.5" font-family="Helvetica,sans-Serif" font-size="10.00">openssl_wrappers.h</text>
</a>
</g>
</g>
<!-- Node31&#45;&gt;Node33 -->
<g id="edge76" class="edge">
<title>Node31&#45;&gt;Node33</title>
<path fill="none" stroke="midnightblue" d="M1547,-459.3C1547,-439.85 1547,-392.49 1547,-365.9"/>
<polygon fill="midnightblue" stroke="midnightblue" points="1550.5,-365.62 1547,-355.62 1543.5,-365.62 1550.5,-365.62"/>
</g>
<!-- Node32&#45;&gt;Node7 -->
<g id="edge75" class="edge">
<title>Node32&#45;&gt;Node7</title>
<path fill="none" stroke="midnightblue" d="M1762.19,-400.13C1866.31,-387.43 2069,-354.54 2069,-291 2069,-291 2069,-291 2069,-121 2069,-17.17 1237.92,-11.08 1062.34,-10.95"/>
<polygon fill="midnightblue" stroke="midnightblue" points="1062.18,-7.45 1052.18,-10.95 1062.18,-14.45 1062.18,-7.45"/>
</g>
<!-- Node32&#45;&gt;Node20 -->
<g id="edge74" class="edge">
<title>Node32&#45;&gt;Node20</title>
<path fill="none" stroke="midnightblue" d="M1641.81,-405.95C1496.93,-403.23 1135.26,-387.62 1061,-300 1044.52,-280.56 1073.4,-260.66 1098.47,-248.09"/>
<polygon fill="midnightblue" stroke="midnightblue" points="1100.26,-251.12 1107.78,-243.65 1097.25,-244.8 1100.26,-251.12"/>
</g>
<!-- Node32&#45;&gt;Node26 -->
<g id="edge58" class="edge">
<title>Node32&#45;&gt;Node26</title>
<path fill="none" stroke="midnightblue" d="M1641.83,-402.93C1467.46,-392.6 962.19,-362.66 771.77,-351.37"/>
<polygon fill="midnightblue" stroke="midnightblue" points="771.77,-347.87 761.58,-350.77 771.36,-354.85 771.77,-347.87"/>
</g>
<!-- Node32&#45;&gt;Node33 -->
<g id="edge59" class="edge">
<title>Node32&#45;&gt;Node33</title>
<path fill="none" stroke="midnightblue" d="M1665.27,-392.4C1639.03,-382.33 1604.07,-368.91 1578.98,-359.28"/>
<polygon fill="midnightblue" stroke="midnightblue" points="1580.14,-355.97 1569.55,-355.66 1577.64,-362.51 1580.14,-355.97"/>
</g>
<!-- Node37 -->
<g id="node37" class="node">
<title>Node37</title>
<g id="a_node37"><a xlink:title=" ">
<polygon fill="white" stroke="#bfbfbf" points="1961.5,-280.5 1961.5,-299.5 2040.5,-299.5 2040.5,-280.5 1961.5,-280.5"/>
<text text-anchor="middle" x="2001" y="-287.5" font-family="Helvetica,sans-Serif" font-size="10.00">openssl/err.h</text>
</a>
</g>
</g>
<!-- Node32&#45;&gt;Node37 -->
<g id="edge72" class="edge">
<title>Node32&#45;&gt;Node37</title>
<path fill="none" stroke="midnightblue" d="M1738.36,-392.45C1797.53,-369.6 1913.64,-324.75 1969.5,-303.17"/>
<polygon fill="midnightblue" stroke="midnightblue" points="1970.82,-306.41 1978.89,-299.54 1968.3,-299.88 1970.82,-306.41"/>
</g>
<!-- Node38 -->
<g id="node38" class="node">
<title>Node38</title>
<g id="a_node38"><a xlink:title=" ">
<polygon fill="white" stroke="#bfbfbf" points="1860,-280.5 1860,-299.5 1944,-299.5 1944,-280.5 1860,-280.5"/>
<text text-anchor="middle" x="1902" y="-287.5" font-family="Helvetica,sans-Serif" font-size="10.00">openssl/evp.h</text>
</a>
</g>
</g>
<!-- Node32&#45;&gt;Node38 -->
<g id="edge73" class="edge">
<title>Node32&#45;&gt;Node38</title>
<path fill="none" stroke="midnightblue" d="M1726.52,-392.34C1765.28,-369.96 1840.18,-326.7 1878.37,-304.65"/>
<polygon fill="midnightblue" stroke="midnightblue" points="1880.33,-307.55 1887.24,-299.52 1876.83,-301.49 1880.33,-307.55"/>
</g>
<!-- Node33&#45;&gt;Node16 -->
<g id="edge61" class="edge">
<title>Node33&#45;&gt;Node16</title>
<path fill="none" stroke="midnightblue" d="M1490.24,-344.56C1325.06,-342.88 852.55,-335.04 793,-300 733.07,-264.74 751.96,-222.68 709,-168 683.52,-135.57 649.22,-101.77 628.97,-82.66"/>
<polygon fill="midnightblue" stroke="midnightblue" points="631.16,-79.91 621.47,-75.64 626.38,-85.02 631.16,-79.91"/>
</g>
<!-- Node33&#45;&gt;Node21 -->
<g id="edge60" class="edge">
<title>Node33&#45;&gt;Node21</title>
<path fill="none" stroke="midnightblue" d="M1490.34,-340.6C1360.63,-330.54 1043.13,-305.91 910.62,-295.63"/>
<polygon fill="midnightblue" stroke="midnightblue" points="910.51,-292.11 900.27,-294.82 909.97,-299.09 910.51,-292.11"/>
</g>
<!-- Node33&#45;&gt;Node24 -->
<g id="edge62" class="edge">
<title>Node33&#45;&gt;Node24</title>
<path fill="none" stroke="midnightblue" d="M1603.5,-342.35C1672.21,-337.98 1782.77,-326.89 1813,-300 1826.02,-288.42 1830.33,-268.46 1831.66,-253.7"/>
<polygon fill="midnightblue" stroke="midnightblue" points="1835.15,-253.83 1832.18,-243.66 1828.16,-253.47 1835.15,-253.83"/>
</g>
<!-- Node34 -->
<g id="node34" class="node">
<title>Node34</title>
<g id="a_node34"><a xlink:title=" ">
<polygon fill="white" stroke="#bfbfbf" points="1502.5,-280.5 1502.5,-299.5 1591.5,-299.5 1591.5,-280.5 1502.5,-280.5"/>
<text text-anchor="middle" x="1547" y="-287.5" font-family="Helvetica,sans-Serif" font-size="10.00">openssl/asn1.h</text>
</a>
</g>
</g>
<!-- Node33&#45;&gt;Node34 -->
<g id="edge63" class="edge">
<title>Node33&#45;&gt;Node34</title>
<path fill="none" stroke="midnightblue" d="M1547,-336.08C1547,-329.01 1547,-318.86 1547,-309.99"/>
<polygon fill="midnightblue" stroke="midnightblue" points="1550.5,-309.75 1547,-299.75 1543.5,-309.75 1550.5,-309.75"/>
</g>
<!-- Node35 -->
<g id="node35" class="node">
<title>Node35</title>
<g id="a_node35"><a xlink:title=" ">
<polygon fill="white" stroke="#bfbfbf" points="1609.5,-280.5 1609.5,-299.5 1686.5,-299.5 1686.5,-280.5 1609.5,-280.5"/>
<text text-anchor="middle" x="1648" y="-287.5" font-family="Helvetica,sans-Serif" font-size="10.00">openssl/ec.h</text>
</a>
</g>
</g>
<!-- Node33&#45;&gt;Node35 -->
<g id="edge64" class="edge">
<title>Node33&#45;&gt;Node35</title>
<path fill="none" stroke="midnightblue" d="M1563.23,-336.32C1579.35,-327.7 1604.3,-314.36 1622.96,-304.39"/>
<polygon fill="midnightblue" stroke="midnightblue" points="1624.64,-307.46 1631.81,-299.65 1621.34,-301.28 1624.64,-307.46"/>
</g>
<!-- Node36 -->
<g id="node36" class="node">
<title>Node36</title>
<g id="a_node36"><a xlink:title=" ">
<polygon fill="white" stroke="#bfbfbf" points="1704.5,-280.5 1704.5,-299.5 1803.5,-299.5 1803.5,-280.5 1704.5,-280.5"/>
<text text-anchor="middle" x="1754" y="-287.5" font-family="Helvetica,sans-Serif" font-size="10.00">openssl/engine.h</text>
</a>
</g>
</g>
<!-- Node33&#45;&gt;Node36 -->
<g id="edge65" class="edge">
<title>Node33&#45;&gt;Node36</title>
<path fill="none" stroke="midnightblue" d="M1579.8,-336.44C1615.38,-327.16 1672.31,-312.31 1711.35,-302.13"/>
<polygon fill="midnightblue" stroke="midnightblue" points="1712.56,-305.43 1721.35,-299.52 1710.79,-298.65 1712.56,-305.43"/>
</g>
<!-- Node33&#45;&gt;Node37 -->
<g id="edge66" class="edge">
<title>Node33&#45;&gt;Node37</title>
<path fill="none" stroke="midnightblue" d="M1603.66,-340.07C1680.29,-333.11 1821.45,-319.22 1951.36,-300.15"/>
<polygon fill="midnightblue" stroke="midnightblue" points="1952.11,-303.58 1961.49,-298.65 1951.08,-296.66 1952.11,-303.58"/>
</g>
<!-- Node33&#45;&gt;Node38 -->
<g id="edge67" class="edge">
<title>Node33&#45;&gt;Node38</title>
<path fill="none" stroke="midnightblue" d="M1603.51,-336.67C1663.65,-327.76 1761.58,-313.14 1846,-300 1847.26,-299.8 1848.53,-299.61 1849.82,-299.4"/>
<polygon fill="midnightblue" stroke="midnightblue" points="1850.48,-302.84 1859.81,-297.83 1849.39,-295.93 1850.48,-302.84"/>
</g>
<!-- Node39 -->
<g id="node39" class="node">
<title>Node39</title>
<g id="a_node39"><a xlink:title=" ">
<polygon fill="white" stroke="#bfbfbf" points="1070,-280.5 1070,-299.5 1158,-299.5 1158,-280.5 1070,-280.5"/>
<text text-anchor="middle" x="1114" y="-287.5" font-family="Helvetica,sans-Serif" font-size="10.00">openssl/pem.h</text>
</a>
</g>
</g>
<!-- Node33&#45;&gt;Node39 -->
<g id="edge68" class="edge">
<title>Node33&#45;&gt;Node39</title>
<path fill="none" stroke="midnightblue" d="M1490.23,-339.18C1417.88,-331.56 1288.72,-317.29 1168.35,-300.13"/>
<polygon fill="midnightblue" stroke="midnightblue" points="1168.62,-296.64 1158.22,-298.68 1167.62,-303.57 1168.62,-296.64"/>
</g>
<!-- Node40 -->
<g id="node40" class="node">
<title>Node40</title>
<g id="a_node40"><a xlink:title=" ">
<polygon fill="white" stroke="#bfbfbf" points="1176,-280.5 1176,-299.5 1256,-299.5 1256,-280.5 1176,-280.5"/>
<text text-anchor="middle" x="1216" y="-287.5" font-family="Helvetica,sans-Serif" font-size="10.00">openssl/ssl.h</text>
</a>
</g>
</g>
<!-- Node33&#45;&gt;Node40 -->
<g id="edge69" class="edge">
<title>Node33&#45;&gt;Node40</title>
<path fill="none" stroke="midnightblue" d="M1491.02,-336.46C1436.24,-328.02 1350.17,-314.51 1266.08,-300.15"/>
<polygon fill="midnightblue" stroke="midnightblue" points="1266.55,-296.68 1256.1,-298.44 1265.36,-303.58 1266.55,-296.68"/>
</g>
<!-- Node41 -->
<g id="node41" class="node">
<title>Node41</title>
<g id="a_node41"><a xlink:title=" ">
<polygon fill="white" stroke="#bfbfbf" points="1274,-280.5 1274,-299.5 1364,-299.5 1364,-280.5 1274,-280.5"/>
<text text-anchor="middle" x="1319" y="-287.5" font-family="Helvetica,sans-Serif" font-size="10.00">openssl/x509.h</text>
</a>
</g>
</g>
<!-- Node33&#45;&gt;Node41 -->
<g id="edge70" class="edge">
<title>Node33&#45;&gt;Node41</title>
<path fill="none" stroke="midnightblue" d="M1510.87,-336.44C1471.35,-327.08 1407.9,-312.06 1364.89,-301.87"/>
<polygon fill="midnightblue" stroke="midnightblue" points="1365.5,-298.42 1354.96,-299.52 1363.88,-305.23 1365.5,-298.42"/>
</g>
<!-- Node42 -->
<g id="node42" class="node">
<title>Node42</title>
<g id="a_node42"><a xlink:title=" ">
<polygon fill="white" stroke="#bfbfbf" points="1382,-280.5 1382,-299.5 1484,-299.5 1484,-280.5 1382,-280.5"/>
<text text-anchor="middle" x="1433" y="-287.5" font-family="Helvetica,sans-Serif" font-size="10.00">openssl/x509v3.h</text>
</a>
</g>
</g>
<!-- Node33&#45;&gt;Node42 -->
<g id="edge71" class="edge">
<title>Node33&#45;&gt;Node42</title>
<path fill="none" stroke="midnightblue" d="M1528.94,-336.44C1510.43,-327.68 1481.42,-313.94 1460.14,-303.86"/>
<polygon fill="midnightblue" stroke="midnightblue" points="1461.51,-300.63 1450.98,-299.52 1458.52,-306.96 1461.51,-300.63"/>
</g>
</g>
</svg>
