<?xml version="1.0" encoding="UTF-8" standalone="no"?>
<!DOCTYPE svg PUBLIC "-//W3C//DTD SVG 1.1//EN"
 "http://www.w3.org/Graphics/SVG/1.1/DTD/svg11.dtd">
<!-- Generated by graphviz version 2.43.0 (0)
 -->
<!-- Title: src/consensus/ledger_enclave_types.h Pages: 1 -->
<svg width="1052pt" height="263pt"
 viewBox="0.00 0.00 1052.00 263.00" xmlns="http://www.w3.org/2000/svg" xmlns:xlink="http://www.w3.org/1999/xlink">
<g id="graph0" class="graph" transform="scale(1 1) rotate(0) translate(4 259)">
<title>src/consensus/ledger_enclave_types.h</title>
<polygon fill="white" stroke="transparent" points="-4,4 -4,-259 1048,-259 1048,4 -4,4"/>
<!-- Node1 -->
<g id="node1" class="node">
<title>Node1</title>
<g id="a_node1"><a xlink:title=" ">
<polygon fill="#bfbfbf" stroke="black" points="705.5,-224.5 705.5,-254.5 824.5,-254.5 824.5,-224.5 705.5,-224.5"/>
<text text-anchor="start" x="713.5" y="-242.5" font-family="Helvetica,sans-Serif" font-size="10.00">src/consensus/ledger</text>
<text text-anchor="middle" x="765" y="-231.5" font-family="Helvetica,sans-Serif" font-size="10.00">_enclave_types.h</text>
</a>
</g>
</g>
<!-- Node2 -->
<g id="node2" class="node">
<title>Node2</title>
<g id="a_node2"><a xlink:href="ring__buffer__types_8h.html" target="_top" xlink:title=" ">
<polygon fill="white" stroke="black" points="702.5,-168.5 702.5,-187.5 827.5,-187.5 827.5,-168.5 702.5,-168.5"/>
<text text-anchor="middle" x="765" y="-175.5" font-family="Helvetica,sans-Serif" font-size="10.00">ds/ring_buffer_types.h</text>
</a>
</g>
</g>
<!-- Node1&#45;&gt;Node2 -->
<g id="edge1" class="edge">
<title>Node1&#45;&gt;Node2</title>
<path fill="none" stroke="midnightblue" d="M765,-224.4C765,-216.47 765,-206.46 765,-197.86"/>
<polygon fill="midnightblue" stroke="midnightblue" points="768.5,-197.66 765,-187.66 761.5,-197.66 768.5,-197.66"/>
</g>
<!-- Node3 -->
<g id="node3" class="node">
<title>Node3</title>
<g id="a_node3"><a xlink:href="nonstd_8h.html" target="_top" xlink:title=" ">
<polygon fill="white" stroke="black" points="131,-56.5 131,-75.5 221,-75.5 221,-56.5 131,-56.5"/>
<text text-anchor="middle" x="176" y="-63.5" font-family="Helvetica,sans-Serif" font-size="10.00">ccf/ds/nonstd.h</text>
</a>
</g>
</g>
<!-- Node2&#45;&gt;Node3 -->
<g id="edge2" class="edge">
<title>Node2&#45;&gt;Node3</title>
<path fill="none" stroke="midnightblue" d="M702.39,-176.3C616.95,-174.06 459.61,-165.27 330,-132 282.77,-119.88 231.21,-95.67 201.34,-80.46"/>
<polygon fill="midnightblue" stroke="midnightblue" points="202.57,-77.16 192.08,-75.68 199.36,-83.38 202.57,-77.16"/>
</g>
<!-- Node7 -->
<g id="node7" class="node">
<title>Node7</title>
<g id="a_node7"><a xlink:title=" ">
<polygon fill="white" stroke="#bfbfbf" points="82,-0.5 82,-19.5 126,-19.5 126,-0.5 82,-0.5"/>
<text text-anchor="middle" x="104" y="-7.5" font-family="Helvetica,sans-Serif" font-size="10.00">string</text>
</a>
</g>
</g>
<!-- Node2&#45;&gt;Node7 -->
<g id="edge34" class="edge">
<title>Node2&#45;&gt;Node7</title>
<path fill="none" stroke="midnightblue" d="M702.28,-176.77C607.31,-175.2 421.9,-167.35 269,-132 200.88,-116.25 169.06,-127.7 122,-76 110.56,-63.43 106.3,-44.21 104.77,-29.93"/>
<polygon fill="midnightblue" stroke="midnightblue" points="108.24,-29.47 104.03,-19.75 101.26,-29.98 108.24,-29.47"/>
</g>
<!-- Node10 -->
<g id="node10" class="node">
<title>Node10</title>
<g id="a_node10"><a xlink:title=" ">
<polygon fill="white" stroke="#bfbfbf" points="692.5,-0.5 692.5,-19.5 739.5,-19.5 739.5,-0.5 692.5,-0.5"/>
<text text-anchor="middle" x="716" y="-7.5" font-family="Helvetica,sans-Serif" font-size="10.00">vector</text>
</a>
</g>
</g>
<!-- Node2&#45;&gt;Node10 -->
<g id="edge35" class="edge">
<title>Node2&#45;&gt;Node10</title>
<path fill="none" stroke="midnightblue" d="M768.5,-168.15C772.99,-155.62 779.79,-132.02 776,-112 771.02,-85.73 767.7,-78.97 754,-56 747.79,-45.59 739.19,-35.18 731.74,-26.99"/>
<polygon fill="midnightblue" stroke="midnightblue" points="734.21,-24.51 724.8,-19.63 729.12,-29.31 734.21,-24.51"/>
</g>
<!-- Node11 -->
<g id="node11" class="node">
<title>Node11</title>
<g id="a_node11"><a xlink:href="ds_2hash_8h.html" target="_top" xlink:title=" ">
<polygon fill="white" stroke="black" points="703.5,-112.5 703.5,-131.5 766.5,-131.5 766.5,-112.5 703.5,-112.5"/>
<text text-anchor="middle" x="735" y="-119.5" font-family="Helvetica,sans-Serif" font-size="10.00">ds/hash.h</text>
</a>
</g>
</g>
<!-- Node2&#45;&gt;Node11 -->
<g id="edge10" class="edge">
<title>Node2&#45;&gt;Node11</title>
<path fill="none" stroke="midnightblue" d="M760.05,-168.08C755.9,-160.61 749.85,-149.72 744.73,-140.52"/>
<polygon fill="midnightblue" stroke="midnightblue" points="747.78,-138.79 739.86,-131.75 741.66,-142.19 747.78,-138.79"/>
</g>
<!-- Node16 -->
<g id="node16" class="node">
<title>Node16</title>
<g id="a_node16"><a xlink:href="serializer_8h.html" target="_top" xlink:title=" ">
<polygon fill="white" stroke="black" points="339,-112.5 339,-131.5 409,-131.5 409,-112.5 339,-112.5"/>
<text text-anchor="middle" x="374" y="-119.5" font-family="Helvetica,sans-Serif" font-size="10.00">serializer.h</text>
</a>
</g>
</g>
<!-- Node2&#45;&gt;Node16 -->
<g id="edge19" class="edge">
<title>Node2&#45;&gt;Node16</title>
<path fill="none" stroke="midnightblue" d="M703.04,-168.44C624.09,-157.54 489.46,-138.95 419.39,-129.27"/>
<polygon fill="midnightblue" stroke="midnightblue" points="419.52,-125.75 409.13,-127.85 418.56,-132.69 419.52,-125.75"/>
</g>
<!-- Node22 -->
<g id="node22" class="node">
<title>Node22</title>
<g id="a_node22"><a xlink:title=" ">
<polygon fill="white" stroke="#bfbfbf" points="823,-112.5 823,-131.5 873,-131.5 873,-112.5 823,-112.5"/>
<text text-anchor="middle" x="848" y="-119.5" font-family="Helvetica,sans-Serif" font-size="10.00">atomic</text>
</a>
</g>
</g>
<!-- Node2&#45;&gt;Node22 -->
<g id="edge31" class="edge">
<title>Node2&#45;&gt;Node22</title>
<path fill="none" stroke="midnightblue" d="M778.34,-168.32C791.16,-159.98 810.78,-147.21 825.94,-137.35"/>
<polygon fill="midnightblue" stroke="midnightblue" points="828.22,-140.04 834.7,-131.65 824.41,-134.17 828.22,-140.04"/>
</g>
<!-- Node23 -->
<g id="node23" class="node">
<title>Node23</title>
<g id="a_node23"><a xlink:title=" ">
<polygon fill="white" stroke="#bfbfbf" points="891.5,-112.5 891.5,-131.5 970.5,-131.5 970.5,-112.5 891.5,-112.5"/>
<text text-anchor="middle" x="931" y="-119.5" font-family="Helvetica,sans-Serif" font-size="10.00">fmt/format.h</text>
</a>
</g>
</g>
<!-- Node2&#45;&gt;Node23 -->
<g id="edge32" class="edge">
<title>Node2&#45;&gt;Node23</title>
<path fill="none" stroke="midnightblue" d="M791.3,-168.44C819.35,-159.32 863.94,-144.81 895.18,-134.65"/>
<polygon fill="midnightblue" stroke="midnightblue" points="896.39,-137.94 904.82,-131.52 894.23,-131.28 896.39,-137.94"/>
</g>
<!-- Node24 -->
<g id="node24" class="node">
<title>Node24</title>
<g id="a_node24"><a xlink:title=" ">
<polygon fill="white" stroke="#bfbfbf" points="988,-112.5 988,-131.5 1044,-131.5 1044,-112.5 988,-112.5"/>
<text text-anchor="middle" x="1016" y="-119.5" font-family="Helvetica,sans-Serif" font-size="10.00">optional</text>
</a>
</g>
</g>
<!-- Node2&#45;&gt;Node24 -->
<g id="edge33" class="edge">
<title>Node2&#45;&gt;Node24</title>
<path fill="none" stroke="midnightblue" d="M808.35,-168.44C849.72,-160.15 914.05,-146.98 977.9,-132.43"/>
<polygon fill="midnightblue" stroke="midnightblue" points="978.76,-135.82 987.73,-130.18 977.2,-129 978.76,-135.82"/>
</g>
<!-- Node4 -->
<g id="node4" class="node">
<title>Node4</title>
<g id="a_node4"><a xlink:title=" ">
<polygon fill="white" stroke="#bfbfbf" points="0,-0.5 0,-19.5 64,-19.5 64,-0.5 0,-0.5"/>
<text text-anchor="middle" x="32" y="-7.5" font-family="Helvetica,sans-Serif" font-size="10.00">algorithm</text>
</a>
</g>
</g>
<!-- Node3&#45;&gt;Node4 -->
<g id="edge3" class="edge">
<title>Node3&#45;&gt;Node4</title>
<path fill="none" stroke="midnightblue" d="M153.18,-56.44C129.17,-47.44 91.17,-33.19 64.13,-23.05"/>
<polygon fill="midnightblue" stroke="midnightblue" points="65.3,-19.75 54.71,-19.52 62.84,-26.3 65.3,-19.75"/>
</g>
<!-- Node5 -->
<g id="node5" class="node">
<title>Node5</title>
<g id="a_node5"><a xlink:title=" ">
<polygon fill="white" stroke="#bfbfbf" points="391,-0.5 391,-19.5 433,-19.5 433,-0.5 391,-0.5"/>
<text text-anchor="middle" x="412" y="-7.5" font-family="Helvetica,sans-Serif" font-size="10.00">array</text>
</a>
</g>
</g>
<!-- Node3&#45;&gt;Node5 -->
<g id="edge4" class="edge">
<title>Node3&#45;&gt;Node5</title>
<path fill="none" stroke="midnightblue" d="M218.99,-56.43C260.61,-47.93 325.39,-34.16 381,-20 381.1,-19.97 381.2,-19.95 381.3,-19.92"/>
<polygon fill="midnightblue" stroke="midnightblue" points="381.96,-23.37 390.71,-17.38 380.14,-16.61 381.96,-23.37"/>
</g>
<!-- Node6 -->
<g id="node6" class="node">
<title>Node6</title>
<g id="a_node6"><a xlink:title=" ">
<polygon fill="white" stroke="#bfbfbf" points="144.5,-0.5 144.5,-19.5 193.5,-19.5 193.5,-0.5 144.5,-0.5"/>
<text text-anchor="middle" x="169" y="-7.5" font-family="Helvetica,sans-Serif" font-size="10.00">cctype</text>
</a>
</g>
</g>
<!-- Node3&#45;&gt;Node6 -->
<g id="edge5" class="edge">
<title>Node3&#45;&gt;Node6</title>
<path fill="none" stroke="midnightblue" d="M174.84,-56.08C173.92,-48.93 172.58,-38.64 171.42,-29.69"/>
<polygon fill="midnightblue" stroke="midnightblue" points="174.89,-29.22 170.13,-19.75 167.95,-30.12 174.89,-29.22"/>
</g>
<!-- Node3&#45;&gt;Node7 -->
<g id="edge6" class="edge">
<title>Node3&#45;&gt;Node7</title>
<path fill="none" stroke="midnightblue" d="M164.43,-56.32C153.58,-48.18 137.12,-35.84 124.12,-26.09"/>
<polygon fill="midnightblue" stroke="midnightblue" points="125.88,-23.03 115.78,-19.83 121.68,-28.63 125.88,-23.03"/>
</g>
<!-- Node8 -->
<g id="node8" class="node">
<title>Node8</title>
<g id="a_node8"><a xlink:title=" ">
<polygon fill="white" stroke="#bfbfbf" points="211.5,-0.5 211.5,-19.5 284.5,-19.5 284.5,-0.5 211.5,-0.5"/>
<text text-anchor="middle" x="248" y="-7.5" font-family="Helvetica,sans-Serif" font-size="10.00">string_view</text>
</a>
</g>
</g>
<!-- Node3&#45;&gt;Node8 -->
<g id="edge7" class="edge">
<title>Node3&#45;&gt;Node8</title>
<path fill="none" stroke="midnightblue" d="M187.57,-56.32C198.42,-48.18 214.88,-35.84 227.88,-26.09"/>
<polygon fill="midnightblue" stroke="midnightblue" points="230.32,-28.63 236.22,-19.83 226.12,-23.03 230.32,-28.63"/>
</g>
<!-- Node9 -->
<g id="node9" class="node">
<title>Node9</title>
<g id="a_node9"><a xlink:title=" ">
<polygon fill="white" stroke="#bfbfbf" points="302.5,-0.5 302.5,-19.5 371.5,-19.5 371.5,-0.5 302.5,-0.5"/>
<text text-anchor="middle" x="337" y="-7.5" font-family="Helvetica,sans-Serif" font-size="10.00">type_traits</text>
</a>
</g>
</g>
<!-- Node3&#45;&gt;Node9 -->
<g id="edge8" class="edge">
<title>Node3&#45;&gt;Node9</title>
<path fill="none" stroke="midnightblue" d="M201.51,-56.44C228.6,-47.36 271.59,-32.94 301.87,-22.78"/>
<polygon fill="midnightblue" stroke="midnightblue" points="303.24,-26.01 311.61,-19.52 301.01,-19.38 303.24,-26.01"/>
</g>
<!-- Node3&#45;&gt;Node10 -->
<g id="edge9" class="edge">
<title>Node3&#45;&gt;Node10</title>
<path fill="none" stroke="midnightblue" d="M221.11,-60.49C326.92,-49.91 589.13,-23.69 682.4,-14.36"/>
<polygon fill="midnightblue" stroke="midnightblue" points="682.81,-17.84 692.42,-13.36 682.12,-10.87 682.81,-17.84"/>
</g>
<!-- Node11&#45;&gt;Node5 -->
<g id="edge15" class="edge">
<title>Node11&#45;&gt;Node5</title>
<path fill="none" stroke="midnightblue" d="M703.35,-119.79C636.53,-116.67 483.8,-106.34 443,-76 427.98,-64.83 419.93,-44.51 415.83,-29.55"/>
<polygon fill="midnightblue" stroke="midnightblue" points="419.23,-28.72 413.5,-19.81 412.42,-30.35 419.23,-28.72"/>
</g>
<!-- Node11&#45;&gt;Node10 -->
<g id="edge18" class="edge">
<title>Node11&#45;&gt;Node10</title>
<path fill="none" stroke="midnightblue" d="M737.11,-112.45C739.85,-99.88 743.76,-75.79 739,-56 736.69,-46.42 731.98,-36.58 727.42,-28.56"/>
<polygon fill="midnightblue" stroke="midnightblue" points="730.29,-26.54 722.1,-19.81 724.31,-30.17 730.29,-26.54"/>
</g>
<!-- Node12 -->
<g id="node12" class="node">
<title>Node12</title>
<g id="a_node12"><a xlink:href="siphash_8h.html" target="_top" xlink:title=" ">
<polygon fill="white" stroke="black" points="823.5,-56.5 823.5,-75.5 918.5,-75.5 918.5,-56.5 823.5,-56.5"/>
<text text-anchor="middle" x="871" y="-63.5" font-family="Helvetica,sans-Serif" font-size="10.00">ccf/ds/siphash.h</text>
</a>
</g>
</g>
<!-- Node11&#45;&gt;Node12 -->
<g id="edge11" class="edge">
<title>Node11&#45;&gt;Node12</title>
<path fill="none" stroke="midnightblue" d="M756.55,-112.44C779.03,-103.52 814.49,-89.44 839.98,-79.32"/>
<polygon fill="midnightblue" stroke="midnightblue" points="841.55,-82.46 849.55,-75.52 838.97,-75.95 841.55,-82.46"/>
</g>
<!-- Node14 -->
<g id="node14" class="node">
<title>Node14</title>
<g id="a_node14"><a xlink:title=" ">
<polygon fill="white" stroke="#bfbfbf" points="881,-0.5 881,-19.5 931,-19.5 931,-0.5 881,-0.5"/>
<text text-anchor="middle" x="906" y="-7.5" font-family="Helvetica,sans-Serif" font-size="10.00">cstdint</text>
</a>
</g>
</g>
<!-- Node11&#45;&gt;Node14 -->
<g id="edge16" class="edge">
<title>Node11&#45;&gt;Node14</title>
<path fill="none" stroke="midnightblue" d="M766.91,-115.77C819.1,-106.9 917.97,-88.63 928,-76 939.06,-62.07 929.74,-42.28 920.04,-28.2"/>
<polygon fill="midnightblue" stroke="midnightblue" points="922.62,-25.81 913.83,-19.9 917.02,-30 922.62,-25.81"/>
</g>
<!-- Node15 -->
<g id="node15" class="node">
<title>Node15</title>
<g id="a_node15"><a xlink:title=" ">
<polygon fill="white" stroke="#bfbfbf" points="580.5,-56.5 580.5,-75.5 729.5,-75.5 729.5,-56.5 580.5,-56.5"/>
<text text-anchor="middle" x="655" y="-63.5" font-family="Helvetica,sans-Serif" font-size="10.00">small_vector/SmallVector.h</text>
</a>
</g>
</g>
<!-- Node11&#45;&gt;Node15 -->
<g id="edge17" class="edge">
<title>Node11&#45;&gt;Node15</title>
<path fill="none" stroke="midnightblue" d="M722.15,-112.32C709.78,-103.98 690.87,-91.21 676.26,-81.35"/>
<polygon fill="midnightblue" stroke="midnightblue" points="678.07,-78.35 667.82,-75.65 674.15,-84.15 678.07,-78.35"/>
</g>
<!-- Node12&#45;&gt;Node10 -->
<g id="edge14" class="edge">
<title>Node12&#45;&gt;Node10</title>
<path fill="none" stroke="midnightblue" d="M846.44,-56.44C820.25,-47.32 778.6,-32.81 749.43,-22.65"/>
<polygon fill="midnightblue" stroke="midnightblue" points="750.28,-19.24 739.68,-19.25 747.97,-25.85 750.28,-19.24"/>
</g>
<!-- Node13 -->
<g id="node13" class="node">
<title>Node13</title>
<g id="a_node13"><a xlink:title=" ">
<polygon fill="white" stroke="#bfbfbf" points="809.5,-0.5 809.5,-19.5 862.5,-19.5 862.5,-0.5 809.5,-0.5"/>
<text text-anchor="middle" x="836" y="-7.5" font-family="Helvetica,sans-Serif" font-size="10.00">cstddef</text>
</a>
</g>
</g>
<!-- Node12&#45;&gt;Node13 -->
<g id="edge12" class="edge">
<title>Node12&#45;&gt;Node13</title>
<path fill="none" stroke="midnightblue" d="M865.22,-56.08C860.33,-48.53 853.17,-37.49 847.17,-28.23"/>
<polygon fill="midnightblue" stroke="midnightblue" points="850.05,-26.24 841.67,-19.75 844.17,-30.05 850.05,-26.24"/>
</g>
<!-- Node12&#45;&gt;Node14 -->
<g id="edge13" class="edge">
<title>Node12&#45;&gt;Node14</title>
<path fill="none" stroke="midnightblue" d="M876.78,-56.08C881.67,-48.53 888.83,-37.49 894.83,-28.23"/>
<polygon fill="midnightblue" stroke="midnightblue" points="897.83,-30.05 900.33,-19.75 891.95,-26.24 897.83,-30.05"/>
</g>
<!-- Node16&#45;&gt;Node3 -->
<g id="edge20" class="edge">
<title>Node16&#45;&gt;Node3</title>
<path fill="none" stroke="midnightblue" d="M342.63,-112.44C308.74,-103.2 254.6,-88.44 217.28,-78.26"/>
<polygon fill="midnightblue" stroke="midnightblue" points="217.8,-74.77 207.23,-75.52 215.95,-81.52 217.8,-74.77"/>
</g>
<!-- Node16&#45;&gt;Node9 -->
<g id="edge29" class="edge">
<title>Node16&#45;&gt;Node9</title>
<path fill="none" stroke="midnightblue" d="M338.98,-116.26C314.57,-110.93 283.67,-99.67 268,-76 254.07,-54.95 281.61,-35.79 305.92,-23.81"/>
<polygon fill="midnightblue" stroke="midnightblue" points="307.4,-26.98 314.99,-19.58 304.45,-20.63 307.4,-26.98"/>
</g>
<!-- Node16&#45;&gt;Node10 -->
<g id="edge30" class="edge">
<title>Node16&#45;&gt;Node10</title>
<path fill="none" stroke="midnightblue" d="M409.03,-113.4C441.92,-105.73 492.19,-92.67 534,-76 551.73,-68.93 554.37,-63.32 572,-56 608.89,-40.68 652.94,-27.64 682.52,-19.6"/>
<polygon fill="midnightblue" stroke="midnightblue" points="683.59,-22.94 692.34,-16.97 681.78,-16.18 683.59,-22.94"/>
</g>
<!-- Node17 -->
<g id="node17" class="node">
<title>Node17</title>
<g id="a_node17"><a xlink:href="serialized_8h.html" target="_top" xlink:title=" ">
<polygon fill="white" stroke="black" points="451.5,-56.5 451.5,-75.5 524.5,-75.5 524.5,-56.5 451.5,-56.5"/>
<text text-anchor="middle" x="488" y="-63.5" font-family="Helvetica,sans-Serif" font-size="10.00">serialized.h</text>
</a>
</g>
</g>
<!-- Node16&#45;&gt;Node17 -->
<g id="edge21" class="edge">
<title>Node16&#45;&gt;Node17</title>
<path fill="none" stroke="midnightblue" d="M392.06,-112.44C410.57,-103.68 439.58,-89.94 460.86,-79.86"/>
<polygon fill="midnightblue" stroke="midnightblue" points="462.48,-82.96 470.02,-75.52 459.49,-76.63 462.48,-82.96"/>
</g>
<!-- Node20 -->
<g id="node20" class="node">
<title>Node20</title>
<g id="a_node20"><a xlink:title=" ">
<polygon fill="white" stroke="#bfbfbf" points="277,-56.5 277,-75.5 335,-75.5 335,-56.5 277,-56.5"/>
<text text-anchor="middle" x="306" y="-63.5" font-family="Helvetica,sans-Serif" font-size="10.00">memory</text>
</a>
</g>
</g>
<!-- Node16&#45;&gt;Node20 -->
<g id="edge27" class="edge">
<title>Node16&#45;&gt;Node20</title>
<path fill="none" stroke="midnightblue" d="M363.07,-112.32C352.83,-104.18 337.28,-91.84 325,-82.09"/>
<polygon fill="midnightblue" stroke="midnightblue" points="327.13,-79.31 317.12,-75.83 322.78,-84.79 327.13,-79.31"/>
</g>
<!-- Node21 -->
<g id="node21" class="node">
<title>Node21</title>
<g id="a_node21"><a xlink:title=" ">
<polygon fill="white" stroke="#bfbfbf" points="353.5,-56.5 353.5,-75.5 394.5,-75.5 394.5,-56.5 353.5,-56.5"/>
<text text-anchor="middle" x="374" y="-63.5" font-family="Helvetica,sans-Serif" font-size="10.00">tuple</text>
</a>
</g>
</g>
<!-- Node16&#45;&gt;Node21 -->
<g id="edge28" class="edge">
<title>Node16&#45;&gt;Node21</title>
<path fill="none" stroke="midnightblue" d="M374,-112.08C374,-105.01 374,-94.86 374,-85.99"/>
<polygon fill="midnightblue" stroke="midnightblue" points="377.5,-85.75 374,-75.75 370.5,-85.75 377.5,-85.75"/>
</g>
<!-- Node17&#45;&gt;Node7 -->
<g id="edge25" class="edge">
<title>Node17&#45;&gt;Node7</title>
<path fill="none" stroke="midnightblue" d="M451.37,-61.06C377.24,-52.98 210.82,-34.23 136.15,-19.9"/>
<polygon fill="midnightblue" stroke="midnightblue" points="136.74,-16.45 126.25,-17.91 135.36,-23.31 136.74,-16.45"/>
</g>
<!-- Node17&#45;&gt;Node10 -->
<g id="edge26" class="edge">
<title>Node17&#45;&gt;Node10</title>
<path fill="none" stroke="midnightblue" d="M524.13,-56.44C567.63,-46.14 640.11,-28.97 682.43,-18.95"/>
<polygon fill="midnightblue" stroke="midnightblue" points="683.33,-22.33 692.25,-16.62 681.72,-15.52 683.33,-22.33"/>
</g>
<!-- Node17&#45;&gt;Node14 -->
<g id="edge22" class="edge">
<title>Node17&#45;&gt;Node14</title>
<path fill="none" stroke="midnightblue" d="M524.6,-61.01C608.36,-51.84 810.81,-29.44 870.82,-19.83"/>
<polygon fill="midnightblue" stroke="midnightblue" points="871.59,-23.25 880.84,-18.09 870.39,-16.35 871.59,-23.25"/>
</g>
<!-- Node18 -->
<g id="node18" class="node">
<title>Node18</title>
<g id="a_node18"><a xlink:title=" ">
<polygon fill="white" stroke="#bfbfbf" points="536,-0.5 536,-19.5 586,-19.5 586,-0.5 536,-0.5"/>
<text text-anchor="middle" x="561" y="-7.5" font-family="Helvetica,sans-Serif" font-size="10.00">cstring</text>
</a>
</g>
</g>
<!-- Node17&#45;&gt;Node18 -->
<g id="edge23" class="edge">
<title>Node17&#45;&gt;Node18</title>
<path fill="none" stroke="midnightblue" d="M499.73,-56.32C510.84,-48.11 527.74,-35.6 540.98,-25.81"/>
<polygon fill="midnightblue" stroke="midnightblue" points="543.1,-28.59 549.06,-19.83 538.94,-22.97 543.1,-28.59"/>
</g>
<!-- Node19 -->
<g id="node19" class="node">
<title>Node19</title>
<g id="a_node19"><a xlink:title=" ">
<polygon fill="white" stroke="#bfbfbf" points="452.5,-0.5 452.5,-19.5 517.5,-19.5 517.5,-0.5 452.5,-0.5"/>
<text text-anchor="middle" x="485" y="-7.5" font-family="Helvetica,sans-Serif" font-size="10.00">stdexcept</text>
</a>
</g>
</g>
<!-- Node17&#45;&gt;Node19 -->
<g id="edge24" class="edge">
<title>Node17&#45;&gt;Node19</title>
<path fill="none" stroke="midnightblue" d="M487.5,-56.08C487.11,-49.01 486.55,-38.86 486.05,-29.99"/>
<polygon fill="midnightblue" stroke="midnightblue" points="489.54,-29.54 485.49,-19.75 482.55,-29.93 489.54,-29.54"/>
</g>
</g>
</svg>
