<?xml version="1.0" encoding="UTF-8" standalone="no"?>
<!DOCTYPE svg PUBLIC "-//W3C//DTD SVG 1.1//EN"
 "http://www.w3.org/Graphics/SVG/1.1/DTD/svg11.dtd">
<!-- Generated by graphviz version 2.43.0 (0)
 -->
<!-- Title: src/indexing/lfs_ringbuffer_types.h Pages: 1 -->
<svg width="1100pt" height="274pt"
 viewBox="0.00 0.00 1100.41 274.00" xmlns="http://www.w3.org/2000/svg" xmlns:xlink="http://www.w3.org/1999/xlink">
<g id="graph0" class="graph" transform="scale(1 1) rotate(0) translate(4 270)">
<title>src/indexing/lfs_ringbuffer_types.h</title>
<polygon fill="white" stroke="transparent" points="-4,4 -4,-270 1096.41,-270 1096.41,4 -4,4"/>
<!-- Node1 -->
<g id="node1" class="node">
<title>Node1</title>
<g id="a_node1"><a xlink:title=" ">
<polygon fill="#bfbfbf" stroke="black" points="583.91,-235.5 583.91,-265.5 726.91,-265.5 726.91,-235.5 583.91,-235.5"/>
<text text-anchor="start" x="591.91" y="-253.5" font-family="Helvetica,sans-Serif" font-size="10.00">src/indexing/lfs_ringbuffer</text>
<text text-anchor="middle" x="655.41" y="-242.5" font-family="Helvetica,sans-Serif" font-size="10.00">_types.h</text>
</a>
</g>
</g>
<!-- Node2 -->
<g id="node2" class="node">
<title>Node2</title>
<g id="a_node2"><a xlink:href="ring__buffer__types_8h.html" target="_top" xlink:title=" ">
<polygon fill="white" stroke="black" points="547.91,-179.5 547.91,-198.5 672.91,-198.5 672.91,-179.5 547.91,-179.5"/>
<text text-anchor="middle" x="610.41" y="-186.5" font-family="Helvetica,sans-Serif" font-size="10.00">ds/ring_buffer_types.h</text>
</a>
</g>
</g>
<!-- Node1&#45;&gt;Node2 -->
<g id="edge1" class="edge">
<title>Node1&#45;&gt;Node2</title>
<path fill="none" stroke="midnightblue" d="M644.75,-235.4C638.28,-226.84 629.98,-215.87 623.16,-206.86"/>
<polygon fill="midnightblue" stroke="midnightblue" points="625.79,-204.52 616.96,-198.66 620.2,-208.74 625.79,-204.52"/>
</g>
<!-- Node25 -->
<g id="node25" class="node">
<title>Node25</title>
<g id="a_node25"><a xlink:href="lfs__interface_8h.html" target="_top" xlink:title=" ">
<polygon fill="white" stroke="black" points="862.91,-123.5 862.91,-142.5 993.91,-142.5 993.91,-123.5 862.91,-123.5"/>
<text text-anchor="middle" x="928.41" y="-130.5" font-family="Helvetica,sans-Serif" font-size="10.00">indexing/lfs_interface.h</text>
</a>
</g>
</g>
<!-- Node1&#45;&gt;Node25 -->
<g id="edge36" class="edge">
<title>Node1&#45;&gt;Node25</title>
<path fill="none" stroke="midnightblue" d="M688.62,-235.45C742.3,-212.74 847.33,-168.3 898.7,-146.57"/>
<polygon fill="midnightblue" stroke="midnightblue" points="900.38,-149.66 908.22,-142.54 897.65,-143.22 900.38,-149.66"/>
</g>
<!-- Node3 -->
<g id="node3" class="node">
<title>Node3</title>
<g id="a_node3"><a xlink:href="nonstd_8h.html" target="_top" xlink:title=" ">
<polygon fill="white" stroke="black" points="675.41,-62 675.41,-81 765.41,-81 765.41,-62 675.41,-62"/>
<text text-anchor="middle" x="720.41" y="-69" font-family="Helvetica,sans-Serif" font-size="10.00">ccf/ds/nonstd.h</text>
</a>
</g>
</g>
<!-- Node2&#45;&gt;Node3 -->
<g id="edge2" class="edge">
<title>Node2&#45;&gt;Node3</title>
<path fill="none" stroke="midnightblue" d="M599.7,-179.16C585.35,-166.24 563.16,-141.7 576.41,-123 582.71,-114.12 640.34,-95.81 680.75,-83.85"/>
<polygon fill="midnightblue" stroke="midnightblue" points="681.75,-87.2 690.36,-81.03 679.77,-80.49 681.75,-87.2"/>
</g>
<!-- Node7 -->
<g id="node7" class="node">
<title>Node7</title>
<g id="a_node7"><a xlink:title=" ">
<polygon fill="white" stroke="#bfbfbf" points="926.41,-0.5 926.41,-19.5 970.41,-19.5 970.41,-0.5 926.41,-0.5"/>
<text text-anchor="middle" x="948.41" y="-7.5" font-family="Helvetica,sans-Serif" font-size="10.00">string</text>
</a>
</g>
</g>
<!-- Node2&#45;&gt;Node7 -->
<g id="edge34" class="edge">
<title>Node2&#45;&gt;Node7</title>
<path fill="none" stroke="midnightblue" d="M673.06,-180.56C725.08,-173.27 793.91,-160.66 815.41,-143 848.02,-116.22 824.04,-86.29 853.41,-56 862.8,-46.33 892.96,-32.84 916.81,-23.16"/>
<polygon fill="midnightblue" stroke="midnightblue" points="918.25,-26.35 926.24,-19.4 915.65,-19.85 918.25,-26.35"/>
</g>
<!-- Node10 -->
<g id="node10" class="node">
<title>Node10</title>
<g id="a_node10"><a xlink:title=" ">
<polygon fill="white" stroke="#bfbfbf" points="319.91,-0.5 319.91,-19.5 366.91,-19.5 366.91,-0.5 319.91,-0.5"/>
<text text-anchor="middle" x="343.41" y="-7.5" font-family="Helvetica,sans-Serif" font-size="10.00">vector</text>
</a>
</g>
</g>
<!-- Node2&#45;&gt;Node10 -->
<g id="edge35" class="edge">
<title>Node2&#45;&gt;Node10</title>
<path fill="none" stroke="midnightblue" d="M552.23,-179.44C520.47,-172.91 481.41,-161.73 450.41,-143 403.44,-114.61 368.22,-57.76 352.49,-28.82"/>
<polygon fill="midnightblue" stroke="midnightblue" points="355.51,-27.05 347.75,-19.83 349.32,-30.31 355.51,-27.05"/>
</g>
<!-- Node11 -->
<g id="node11" class="node">
<title>Node11</title>
<g id="a_node11"><a xlink:href="ds_2hash_8h.html" target="_top" xlink:title=" ">
<polygon fill="white" stroke="black" points="158.91,-123.5 158.91,-142.5 221.91,-142.5 221.91,-123.5 158.91,-123.5"/>
<text text-anchor="middle" x="190.41" y="-130.5" font-family="Helvetica,sans-Serif" font-size="10.00">ds/hash.h</text>
</a>
</g>
</g>
<!-- Node2&#45;&gt;Node11 -->
<g id="edge10" class="edge">
<title>Node2&#45;&gt;Node11</title>
<path fill="none" stroke="midnightblue" d="M547.54,-179.92C460.73,-168.75 306.51,-148.93 232.43,-139.4"/>
<polygon fill="midnightblue" stroke="midnightblue" points="232.46,-135.88 222.1,-138.07 231.57,-142.82 232.46,-135.88"/>
</g>
<!-- Node16 -->
<g id="node16" class="node">
<title>Node16</title>
<g id="a_node16"><a xlink:href="serializer_8h.html" target="_top" xlink:title=" ">
<polygon fill="white" stroke="black" points="459.41,-123.5 459.41,-142.5 529.41,-142.5 529.41,-123.5 459.41,-123.5"/>
<text text-anchor="middle" x="494.41" y="-130.5" font-family="Helvetica,sans-Serif" font-size="10.00">serializer.h</text>
</a>
</g>
</g>
<!-- Node2&#45;&gt;Node16 -->
<g id="edge19" class="edge">
<title>Node2&#45;&gt;Node16</title>
<path fill="none" stroke="midnightblue" d="M592.03,-179.44C573.2,-170.68 543.68,-156.94 522.04,-146.86"/>
<polygon fill="midnightblue" stroke="midnightblue" points="523.25,-143.56 512.71,-142.52 520.3,-149.91 523.25,-143.56"/>
</g>
<!-- Node22 -->
<g id="node22" class="node">
<title>Node22</title>
<g id="a_node22"><a xlink:title=" ">
<polygon fill="white" stroke="#bfbfbf" points="585.41,-123.5 585.41,-142.5 635.41,-142.5 635.41,-123.5 585.41,-123.5"/>
<text text-anchor="middle" x="610.41" y="-130.5" font-family="Helvetica,sans-Serif" font-size="10.00">atomic</text>
</a>
</g>
</g>
<!-- Node2&#45;&gt;Node22 -->
<g id="edge31" class="edge">
<title>Node2&#45;&gt;Node22</title>
<path fill="none" stroke="midnightblue" d="M610.41,-179.08C610.41,-172.01 610.41,-161.86 610.41,-152.99"/>
<polygon fill="midnightblue" stroke="midnightblue" points="613.92,-152.75 610.41,-142.75 606.92,-152.75 613.92,-152.75"/>
</g>
<!-- Node23 -->
<g id="node23" class="node">
<title>Node23</title>
<g id="a_node23"><a xlink:title=" ">
<polygon fill="white" stroke="#bfbfbf" points="653.91,-123.5 653.91,-142.5 732.91,-142.5 732.91,-123.5 653.91,-123.5"/>
<text text-anchor="middle" x="693.41" y="-130.5" font-family="Helvetica,sans-Serif" font-size="10.00">fmt/format.h</text>
</a>
</g>
</g>
<!-- Node2&#45;&gt;Node23 -->
<g id="edge32" class="edge">
<title>Node2&#45;&gt;Node23</title>
<path fill="none" stroke="midnightblue" d="M623.75,-179.32C636.58,-170.98 656.2,-158.21 671.35,-148.35"/>
<polygon fill="midnightblue" stroke="midnightblue" points="673.64,-151.04 680.11,-142.65 669.82,-145.17 673.64,-151.04"/>
</g>
<!-- Node24 -->
<g id="node24" class="node">
<title>Node24</title>
<g id="a_node24"><a xlink:title=" ">
<polygon fill="white" stroke="#bfbfbf" points="750.41,-123.5 750.41,-142.5 806.41,-142.5 806.41,-123.5 750.41,-123.5"/>
<text text-anchor="middle" x="778.41" y="-130.5" font-family="Helvetica,sans-Serif" font-size="10.00">optional</text>
</a>
</g>
</g>
<!-- Node2&#45;&gt;Node24 -->
<g id="edge33" class="edge">
<title>Node2&#45;&gt;Node24</title>
<path fill="none" stroke="midnightblue" d="M637.04,-179.44C665.42,-170.32 710.55,-155.81 742.17,-145.65"/>
<polygon fill="midnightblue" stroke="midnightblue" points="743.47,-148.91 751.92,-142.52 741.33,-142.24 743.47,-148.91"/>
</g>
<!-- Node4 -->
<g id="node4" class="node">
<title>Node4</title>
<g id="a_node4"><a xlink:title=" ">
<polygon fill="white" stroke="#bfbfbf" points="776.41,-0.5 776.41,-19.5 840.41,-19.5 840.41,-0.5 776.41,-0.5"/>
<text text-anchor="middle" x="808.41" y="-7.5" font-family="Helvetica,sans-Serif" font-size="10.00">algorithm</text>
</a>
</g>
</g>
<!-- Node3&#45;&gt;Node4 -->
<g id="edge3" class="edge">
<title>Node3&#45;&gt;Node4</title>
<path fill="none" stroke="midnightblue" d="M733.02,-61.98C747.14,-52.43 770.25,-36.81 787.16,-25.37"/>
<polygon fill="midnightblue" stroke="midnightblue" points="789.51,-28.01 795.83,-19.51 785.59,-22.21 789.51,-28.01"/>
</g>
<!-- Node5 -->
<g id="node5" class="node">
<title>Node5</title>
<g id="a_node5"><a xlink:title=" ">
<polygon fill="white" stroke="#bfbfbf" points="385.41,-0.5 385.41,-19.5 427.41,-19.5 427.41,-0.5 385.41,-0.5"/>
<text text-anchor="middle" x="406.41" y="-7.5" font-family="Helvetica,sans-Serif" font-size="10.00">array</text>
</a>
</g>
</g>
<!-- Node3&#45;&gt;Node5 -->
<g id="edge4" class="edge">
<title>Node3&#45;&gt;Node5</title>
<path fill="none" stroke="midnightblue" d="M675.18,-63.11C610.83,-52.5 495.08,-32.99 437.38,-19.97"/>
<polygon fill="midnightblue" stroke="midnightblue" points="438.17,-16.56 427.64,-17.7 436.58,-23.38 438.17,-16.56"/>
</g>
<!-- Node6 -->
<g id="node6" class="node">
<title>Node6</title>
<g id="a_node6"><a xlink:title=" ">
<polygon fill="white" stroke="#bfbfbf" points="858.91,-0.5 858.91,-19.5 907.91,-19.5 907.91,-0.5 858.91,-0.5"/>
<text text-anchor="middle" x="883.41" y="-7.5" font-family="Helvetica,sans-Serif" font-size="10.00">cctype</text>
</a>
</g>
</g>
<!-- Node3&#45;&gt;Node6 -->
<g id="edge5" class="edge">
<title>Node3&#45;&gt;Node6</title>
<path fill="none" stroke="midnightblue" d="M743.77,-61.98C771.73,-51.77 818.74,-34.61 850.41,-23.05"/>
<polygon fill="midnightblue" stroke="midnightblue" points="851.91,-26.23 860.1,-19.51 849.51,-19.65 851.91,-26.23"/>
</g>
<!-- Node3&#45;&gt;Node7 -->
<g id="edge6" class="edge">
<title>Node3&#45;&gt;Node7</title>
<path fill="none" stroke="midnightblue" d="M755.02,-61.98C792.43,-52.69 854.05,-37.17 916.12,-20.29"/>
<polygon fill="midnightblue" stroke="midnightblue" points="917.36,-23.58 926.09,-17.57 915.52,-16.83 917.36,-23.58"/>
</g>
<!-- Node8 -->
<g id="node8" class="node">
<title>Node8</title>
<g id="a_node8"><a xlink:title=" ">
<polygon fill="white" stroke="#bfbfbf" points="684.91,-0.5 684.91,-19.5 757.91,-19.5 757.91,-0.5 684.91,-0.5"/>
<text text-anchor="middle" x="721.41" y="-7.5" font-family="Helvetica,sans-Serif" font-size="10.00">string_view</text>
</a>
</g>
</g>
<!-- Node3&#45;&gt;Node8 -->
<g id="edge7" class="edge">
<title>Node3&#45;&gt;Node8</title>
<path fill="none" stroke="midnightblue" d="M720.56,-61.98C720.7,-53.58 720.92,-40.48 721.1,-29.66"/>
<polygon fill="midnightblue" stroke="midnightblue" points="724.6,-29.57 721.27,-19.51 717.6,-29.45 724.6,-29.57"/>
</g>
<!-- Node9 -->
<g id="node9" class="node">
<title>Node9</title>
<g id="a_node9"><a xlink:title=" ">
<polygon fill="white" stroke="#bfbfbf" points="597.91,-0.5 597.91,-19.5 666.91,-19.5 666.91,-0.5 597.91,-0.5"/>
<text text-anchor="middle" x="632.41" y="-7.5" font-family="Helvetica,sans-Serif" font-size="10.00">type_traits</text>
</a>
</g>
</g>
<!-- Node3&#45;&gt;Node9 -->
<g id="edge8" class="edge">
<title>Node3&#45;&gt;Node9</title>
<path fill="none" stroke="midnightblue" d="M707.81,-61.98C693.69,-52.43 670.58,-36.81 653.67,-25.37"/>
<polygon fill="midnightblue" stroke="midnightblue" points="655.24,-22.21 645,-19.51 651.32,-28.01 655.24,-22.21"/>
</g>
<!-- Node3&#45;&gt;Node10 -->
<g id="edge9" class="edge">
<title>Node3&#45;&gt;Node10</title>
<path fill="none" stroke="midnightblue" d="M675.02,-63.31C659.89,-60.94 642.93,-58.32 627.41,-56 519.12,-39.79 488.49,-42.69 377.07,-19.9"/>
<polygon fill="midnightblue" stroke="midnightblue" points="377.62,-16.44 367.12,-17.84 376.21,-23.3 377.62,-16.44"/>
</g>
<!-- Node11&#45;&gt;Node5 -->
<g id="edge15" class="edge">
<title>Node11&#45;&gt;Node5</title>
<path fill="none" stroke="midnightblue" d="M222.08,-125.38C250.3,-118.58 292.02,-106.23 324.41,-87 351.42,-70.97 377.04,-44.84 392.25,-27.79"/>
<polygon fill="midnightblue" stroke="midnightblue" points="395.28,-29.64 399.2,-19.8 389.99,-25.04 395.28,-29.64"/>
</g>
<!-- Node11&#45;&gt;Node10 -->
<g id="edge18" class="edge">
<title>Node11&#45;&gt;Node10</title>
<path fill="none" stroke="midnightblue" d="M181.13,-123.26C166.33,-108.28 140.69,-77.25 157.41,-56 176.03,-32.34 261.48,-19.63 309.83,-14.22"/>
<polygon fill="midnightblue" stroke="midnightblue" points="310.26,-17.7 319.83,-13.15 309.51,-10.74 310.26,-17.7"/>
</g>
<!-- Node12 -->
<g id="node12" class="node">
<title>Node12</title>
<g id="a_node12"><a xlink:href="siphash_8h.html" target="_top" xlink:title=" ">
<polygon fill="white" stroke="black" points="15.91,-62 15.91,-81 110.91,-81 110.91,-62 15.91,-62"/>
<text text-anchor="middle" x="63.41" y="-69" font-family="Helvetica,sans-Serif" font-size="10.00">ccf/ds/siphash.h</text>
</a>
</g>
</g>
<!-- Node11&#45;&gt;Node12 -->
<g id="edge11" class="edge">
<title>Node11&#45;&gt;Node12</title>
<path fill="none" stroke="midnightblue" d="M172.22,-123.48C150.91,-113.49 115.38,-96.85 90.75,-85.31"/>
<polygon fill="midnightblue" stroke="midnightblue" points="92.12,-82.08 81.58,-81.01 89.15,-88.42 92.12,-82.08"/>
</g>
<!-- Node14 -->
<g id="node14" class="node">
<title>Node14</title>
<g id="a_node14"><a xlink:title=" ">
<polygon fill="white" stroke="#bfbfbf" points="3.41,-0.5 3.41,-19.5 53.41,-19.5 53.41,-0.5 3.41,-0.5"/>
<text text-anchor="middle" x="28.41" y="-7.5" font-family="Helvetica,sans-Serif" font-size="10.00">cstdint</text>
</a>
</g>
</g>
<!-- Node11&#45;&gt;Node14 -->
<g id="edge16" class="edge">
<title>Node11&#45;&gt;Node14</title>
<path fill="none" stroke="midnightblue" d="M158.59,-128.88C111.03,-123.49 24.99,-110.67 6.41,-87 -7.04,-69.86 4.63,-44.78 15.45,-28.18"/>
<polygon fill="midnightblue" stroke="midnightblue" points="18.35,-30.14 21.21,-19.94 12.61,-26.13 18.35,-30.14"/>
</g>
<!-- Node15 -->
<g id="node15" class="node">
<title>Node15</title>
<g id="a_node15"><a xlink:title=" ">
<polygon fill="white" stroke="#bfbfbf" points="166.91,-62 166.91,-81 315.91,-81 315.91,-62 166.91,-62"/>
<text text-anchor="middle" x="241.41" y="-69" font-family="Helvetica,sans-Serif" font-size="10.00">small_vector/SmallVector.h</text>
</a>
</g>
</g>
<!-- Node11&#45;&gt;Node15 -->
<g id="edge17" class="edge">
<title>Node11&#45;&gt;Node15</title>
<path fill="none" stroke="midnightblue" d="M197.72,-123.48C205.45,-114.46 217.82,-100.02 227.43,-88.81"/>
<polygon fill="midnightblue" stroke="midnightblue" points="230.27,-90.88 234.12,-81.01 224.96,-86.32 230.27,-90.88"/>
</g>
<!-- Node12&#45;&gt;Node10 -->
<g id="edge14" class="edge">
<title>Node12&#45;&gt;Node10</title>
<path fill="none" stroke="midnightblue" d="M99.11,-61.98C107.72,-59.98 116.89,-57.88 125.41,-56 190.62,-41.65 267.09,-26.17 309.94,-17.63"/>
<polygon fill="midnightblue" stroke="midnightblue" points="310.7,-21.04 319.82,-15.66 309.33,-14.18 310.7,-21.04"/>
</g>
<!-- Node13 -->
<g id="node13" class="node">
<title>Node13</title>
<g id="a_node13"><a xlink:title=" ">
<polygon fill="white" stroke="#bfbfbf" points="71.91,-0.5 71.91,-19.5 124.91,-19.5 124.91,-0.5 71.91,-0.5"/>
<text text-anchor="middle" x="98.41" y="-7.5" font-family="Helvetica,sans-Serif" font-size="10.00">cstddef</text>
</a>
</g>
</g>
<!-- Node12&#45;&gt;Node13 -->
<g id="edge12" class="edge">
<title>Node12&#45;&gt;Node13</title>
<path fill="none" stroke="midnightblue" d="M68.43,-61.98C73.58,-53.23 81.73,-39.37 88.23,-28.31"/>
<polygon fill="midnightblue" stroke="midnightblue" points="91.36,-29.9 93.41,-19.51 85.32,-26.35 91.36,-29.9"/>
</g>
<!-- Node12&#45;&gt;Node14 -->
<g id="edge13" class="edge">
<title>Node12&#45;&gt;Node14</title>
<path fill="none" stroke="midnightblue" d="M58.4,-61.98C53.25,-53.23 45.1,-39.37 38.6,-28.31"/>
<polygon fill="midnightblue" stroke="midnightblue" points="41.51,-26.35 33.42,-19.51 35.47,-29.9 41.51,-26.35"/>
</g>
<!-- Node16&#45;&gt;Node3 -->
<g id="edge20" class="edge">
<title>Node16&#45;&gt;Node3</title>
<path fill="none" stroke="midnightblue" d="M526.8,-123.48C566.65,-112.98 634.43,-95.14 678.3,-83.59"/>
<polygon fill="midnightblue" stroke="midnightblue" points="679.32,-86.94 688.09,-81.01 677.53,-80.17 679.32,-86.94"/>
</g>
<!-- Node16&#45;&gt;Node9 -->
<g id="edge29" class="edge">
<title>Node16&#45;&gt;Node9</title>
<path fill="none" stroke="midnightblue" d="M529.53,-124.74C564.7,-116.69 615.31,-102.75 627.41,-87 639.85,-70.81 639.11,-46.51 636.56,-29.77"/>
<polygon fill="midnightblue" stroke="midnightblue" points="639.93,-28.76 634.64,-19.58 633.05,-30.05 639.93,-28.76"/>
</g>
<!-- Node16&#45;&gt;Node10 -->
<g id="edge30" class="edge">
<title>Node16&#45;&gt;Node10</title>
<path fill="none" stroke="midnightblue" d="M483.56,-123.3C458.09,-102.89 394.27,-51.75 362.29,-26.13"/>
<polygon fill="midnightblue" stroke="midnightblue" points="364.17,-23.15 354.18,-19.62 359.79,-28.61 364.17,-23.15"/>
</g>
<!-- Node17 -->
<g id="node17" class="node">
<title>Node17</title>
<g id="a_node17"><a xlink:href="serialized_8h.html" target="_top" xlink:title=" ">
<polygon fill="white" stroke="black" points="545.91,-62 545.91,-81 618.91,-81 618.91,-62 545.91,-62"/>
<text text-anchor="middle" x="582.41" y="-69" font-family="Helvetica,sans-Serif" font-size="10.00">serialized.h</text>
</a>
</g>
</g>
<!-- Node16&#45;&gt;Node17 -->
<g id="edge21" class="edge">
<title>Node16&#45;&gt;Node17</title>
<path fill="none" stroke="midnightblue" d="M507.02,-123.48C521.14,-113.93 544.25,-98.31 561.16,-86.87"/>
<polygon fill="midnightblue" stroke="midnightblue" points="563.51,-89.51 569.83,-81.01 559.59,-83.71 563.51,-89.51"/>
</g>
<!-- Node20 -->
<g id="node20" class="node">
<title>Node20</title>
<g id="a_node20"><a xlink:title=" ">
<polygon fill="white" stroke="#bfbfbf" points="862.41,-62 862.41,-81 920.41,-81 920.41,-62 862.41,-62"/>
<text text-anchor="middle" x="891.41" y="-69" font-family="Helvetica,sans-Serif" font-size="10.00">memory</text>
</a>
</g>
</g>
<!-- Node16&#45;&gt;Node20 -->
<g id="edge27" class="edge">
<title>Node16&#45;&gt;Node20</title>
<path fill="none" stroke="midnightblue" d="M529.65,-126.72C603.59,-115.64 774.53,-90.02 851.99,-78.41"/>
<polygon fill="midnightblue" stroke="midnightblue" points="852.91,-81.81 862.28,-76.87 851.87,-74.89 852.91,-81.81"/>
</g>
<!-- Node21 -->
<g id="node21" class="node">
<title>Node21</title>
<g id="a_node21"><a xlink:title=" ">
<polygon fill="white" stroke="#bfbfbf" points="447.91,-62 447.91,-81 488.91,-81 488.91,-62 447.91,-62"/>
<text text-anchor="middle" x="468.41" y="-69" font-family="Helvetica,sans-Serif" font-size="10.00">tuple</text>
</a>
</g>
</g>
<!-- Node16&#45;&gt;Node21 -->
<g id="edge28" class="edge">
<title>Node16&#45;&gt;Node21</title>
<path fill="none" stroke="midnightblue" d="M490.69,-123.48C486.94,-114.9 481.06,-101.43 476.27,-90.48"/>
<polygon fill="midnightblue" stroke="midnightblue" points="479.34,-88.77 472.13,-81.01 472.93,-91.57 479.34,-88.77"/>
</g>
<!-- Node17&#45;&gt;Node7 -->
<g id="edge25" class="edge">
<title>Node17&#45;&gt;Node7</title>
<path fill="none" stroke="midnightblue" d="M619.18,-63.92C633.86,-61.35 650.92,-58.45 666.41,-56 774.58,-38.91 805.52,-43.48 916.27,-19.99"/>
<polygon fill="midnightblue" stroke="midnightblue" points="917.12,-23.39 926.16,-17.87 915.65,-16.55 917.12,-23.39"/>
</g>
<!-- Node17&#45;&gt;Node10 -->
<g id="edge26" class="edge">
<title>Node17&#45;&gt;Node10</title>
<path fill="none" stroke="midnightblue" d="M553.35,-61.97C546.2,-59.95 538.55,-57.84 531.41,-56 465.88,-39.08 446.62,-37.43 376.89,-20.04"/>
<polygon fill="midnightblue" stroke="midnightblue" points="377.73,-16.64 367.18,-17.6 376.02,-23.43 377.73,-16.64"/>
</g>
<!-- Node17&#45;&gt;Node14 -->
<g id="edge22" class="edge">
<title>Node17&#45;&gt;Node14</title>
<path fill="none" stroke="midnightblue" d="M545.7,-63.52C530.76,-60.87 513.31,-58.01 497.41,-56 308.24,-32.08 255.39,-52.23 63.68,-19.92"/>
<polygon fill="midnightblue" stroke="midnightblue" points="64,-16.42 53.56,-18.18 62.82,-23.32 64,-16.42"/>
</g>
<!-- Node18 -->
<g id="node18" class="node">
<title>Node18</title>
<g id="a_node18"><a xlink:title=" ">
<polygon fill="white" stroke="#bfbfbf" points="529.41,-0.5 529.41,-19.5 579.41,-19.5 579.41,-0.5 529.41,-0.5"/>
<text text-anchor="middle" x="554.41" y="-7.5" font-family="Helvetica,sans-Serif" font-size="10.00">cstring</text>
</a>
</g>
</g>
<!-- Node17&#45;&gt;Node18 -->
<g id="edge23" class="edge">
<title>Node17&#45;&gt;Node18</title>
<path fill="none" stroke="midnightblue" d="M578.4,-61.98C574.33,-53.32 567.9,-39.65 562.72,-28.65"/>
<polygon fill="midnightblue" stroke="midnightblue" points="565.84,-27.07 558.42,-19.51 559.51,-30.05 565.84,-27.07"/>
</g>
<!-- Node19 -->
<g id="node19" class="node">
<title>Node19</title>
<g id="a_node19"><a xlink:title=" ">
<polygon fill="white" stroke="#bfbfbf" points="445.91,-0.5 445.91,-19.5 510.91,-19.5 510.91,-0.5 445.91,-0.5"/>
<text text-anchor="middle" x="478.41" y="-7.5" font-family="Helvetica,sans-Serif" font-size="10.00">stdexcept</text>
</a>
</g>
</g>
<!-- Node17&#45;&gt;Node19 -->
<g id="edge24" class="edge">
<title>Node17&#45;&gt;Node19</title>
<path fill="none" stroke="midnightblue" d="M567.51,-61.98C550.45,-52.21 522.25,-36.08 502.15,-24.58"/>
<polygon fill="midnightblue" stroke="midnightblue" points="503.71,-21.44 493.29,-19.51 500.23,-27.51 503.71,-21.44"/>
</g>
<!-- Node25&#45;&gt;Node7 -->
<g id="edge39" class="edge">
<title>Node25&#45;&gt;Node7</title>
<path fill="none" stroke="midnightblue" d="M929.85,-123.3C933.08,-103.76 940.97,-56.06 945.35,-29.55"/>
<polygon fill="midnightblue" stroke="midnightblue" points="948.81,-30.06 946.99,-19.62 941.91,-28.92 948.81,-30.06"/>
</g>
<!-- Node25&#45;&gt;Node10 -->
<g id="edge40" class="edge">
<title>Node25&#45;&gt;Node10</title>
<path fill="none" stroke="midnightblue" d="M862.7,-126.45C758.92,-117.38 565.8,-99.18 536.41,-87 515.96,-78.52 517.08,-66.18 497.41,-56 491.94,-53.16 420.26,-32.69 376.65,-20.36"/>
<polygon fill="midnightblue" stroke="midnightblue" points="377.59,-16.99 367.02,-17.64 375.69,-23.73 377.59,-16.99"/>
</g>
<!-- Node25&#45;&gt;Node20 -->
<g id="edge38" class="edge">
<title>Node25&#45;&gt;Node20</title>
<path fill="none" stroke="midnightblue" d="M923.11,-123.48C917.67,-114.73 909.06,-100.87 902.18,-89.81"/>
<polygon fill="midnightblue" stroke="midnightblue" points="904.96,-87.65 896.71,-81.01 899.01,-91.35 904.96,-87.65"/>
</g>
<!-- Node26 -->
<g id="node26" class="node">
<title>Node26</title>
<g id="a_node26"><a xlink:href="node__subsystem__interface_8h.html" target="_top" xlink:title=" ">
<polygon fill="white" stroke="black" points="976.41,-56.5 976.41,-86.5 1092.41,-86.5 1092.41,-56.5 976.41,-56.5"/>
<text text-anchor="start" x="984.41" y="-74.5" font-family="Helvetica,sans-Serif" font-size="10.00">ccf/node_subsystem</text>
<text text-anchor="middle" x="1034.41" y="-63.5" font-family="Helvetica,sans-Serif" font-size="10.00">_interface.h</text>
</a>
</g>
</g>
<!-- Node25&#45;&gt;Node26 -->
<g id="edge37" class="edge">
<title>Node25&#45;&gt;Node26</title>
<path fill="none" stroke="midnightblue" d="M943.6,-123.48C958.43,-115.15 981.49,-102.21 1000.66,-91.45"/>
<polygon fill="midnightblue" stroke="midnightblue" points="1002.43,-94.47 1009.43,-86.52 999,-88.37 1002.43,-94.47"/>
</g>
</g>
</svg>
