<?xml version="1.0" encoding="UTF-8" standalone="no"?>
<!DOCTYPE svg PUBLIC "-//W3C//DTD SVG 1.1//EN"
 "http://www.w3.org/Graphics/SVG/1.1/DTD/svg11.dtd">
<!-- Generated by graphviz version 2.43.0 (0)
 -->
<!-- Title: src/host/lfs_file_handler.h Pages: 1 -->
<svg width="1669pt" height="386pt"
 viewBox="0.00 0.00 1669.00 386.00" xmlns="http://www.w3.org/2000/svg" xmlns:xlink="http://www.w3.org/1999/xlink">
<g id="graph0" class="graph" transform="scale(1 1) rotate(0) translate(4 382)">
<title>src/host/lfs_file_handler.h</title>
<polygon fill="white" stroke="transparent" points="-4,4 -4,-382 1665,-382 1665,4 -4,4"/>
<!-- Node1 -->
<g id="node1" class="node">
<title>Node1</title>
<g id="a_node1"><a xlink:title=" ">
<polygon fill="#bfbfbf" stroke="black" points="1259.5,-358.5 1259.5,-377.5 1399.5,-377.5 1399.5,-358.5 1259.5,-358.5"/>
<text text-anchor="middle" x="1329.5" y="-365.5" font-family="Helvetica,sans-Serif" font-size="10.00">src/host/lfs_file_handler.h</text>
</a>
</g>
</g>
<!-- Node2 -->
<g id="node2" class="node">
<title>Node2</title>
<g id="a_node2"><a xlink:href="messaging_8h.html" target="_top" xlink:title=" ">
<polygon fill="white" stroke="black" points="951,-302.5 951,-321.5 1044,-321.5 1044,-302.5 951,-302.5"/>
<text text-anchor="middle" x="997.5" y="-309.5" font-family="Helvetica,sans-Serif" font-size="10.00">ds/messaging.h</text>
</a>
</g>
</g>
<!-- Node1&#45;&gt;Node2 -->
<g id="edge1" class="edge">
<title>Node1&#45;&gt;Node2</title>
<path fill="none" stroke="midnightblue" d="M1276.89,-358.44C1216.19,-348.57 1116.72,-332.39 1054.3,-322.24"/>
<polygon fill="midnightblue" stroke="midnightblue" points="1054.66,-318.75 1044.23,-320.6 1053.54,-325.66 1054.66,-318.75"/>
</g>
<!-- Node40 -->
<g id="node40" class="node">
<title>Node40</title>
<g id="a_node40"><a xlink:href="lfs__ringbuffer__types_8h.html" target="_top" xlink:title=" ">
<polygon fill="white" stroke="black" points="1414.5,-235.5 1414.5,-265.5 1540.5,-265.5 1540.5,-235.5 1414.5,-235.5"/>
<text text-anchor="start" x="1422.5" y="-253.5" font-family="Helvetica,sans-Serif" font-size="10.00">indexing/lfs_ringbuffer</text>
<text text-anchor="middle" x="1477.5" y="-242.5" font-family="Helvetica,sans-Serif" font-size="10.00">_types.h</text>
</a>
</g>
</g>
<!-- Node1&#45;&gt;Node40 -->
<g id="edge60" class="edge">
<title>Node1&#45;&gt;Node40</title>
<path fill="none" stroke="midnightblue" d="M1323.98,-358.07C1316.43,-344.59 1305.15,-318.84 1317.5,-302 1328.41,-287.12 1367.7,-274.6 1404.61,-265.75"/>
<polygon fill="midnightblue" stroke="midnightblue" points="1405.48,-269.14 1414.43,-263.46 1403.9,-262.32 1405.48,-269.14"/>
</g>
<!-- Node43 -->
<g id="node43" class="node">
<title>Node43</title>
<g id="a_node43"><a xlink:title=" ">
<polygon fill="white" stroke="#bfbfbf" points="1326.5,-302.5 1326.5,-321.5 1394.5,-321.5 1394.5,-302.5 1326.5,-302.5"/>
<text text-anchor="middle" x="1360.5" y="-309.5" font-family="Helvetica,sans-Serif" font-size="10.00">filesystem</text>
</a>
</g>
</g>
<!-- Node1&#45;&gt;Node43 -->
<g id="edge67" class="edge">
<title>Node1&#45;&gt;Node43</title>
<path fill="none" stroke="midnightblue" d="M1334.62,-358.08C1338.91,-350.61 1345.16,-339.72 1350.44,-330.52"/>
<polygon fill="midnightblue" stroke="midnightblue" points="1353.53,-332.17 1355.48,-321.75 1347.46,-328.68 1353.53,-332.17"/>
</g>
<!-- Node44 -->
<g id="node44" class="node">
<title>Node44</title>
<g id="a_node44"><a xlink:title=" ">
<polygon fill="white" stroke="#bfbfbf" points="1413,-302.5 1413,-321.5 1468,-321.5 1468,-302.5 1413,-302.5"/>
<text text-anchor="middle" x="1440.5" y="-309.5" font-family="Helvetica,sans-Serif" font-size="10.00">fstream</text>
</a>
</g>
</g>
<!-- Node1&#45;&gt;Node44 -->
<g id="edge68" class="edge">
<title>Node1&#45;&gt;Node44</title>
<path fill="none" stroke="midnightblue" d="M1347.33,-358.32C1365.22,-349.62 1392.98,-336.12 1413.55,-326.11"/>
<polygon fill="midnightblue" stroke="midnightblue" points="1415.25,-329.18 1422.71,-321.65 1412.19,-322.88 1415.25,-329.18"/>
</g>
<!-- Node3 -->
<g id="node3" class="node">
<title>Node3</title>
<g id="a_node3"><a xlink:href="logger_8h.html" target="_top" xlink:title=" ">
<polygon fill="white" stroke="black" points="954,-241 954,-260 1041,-260 1041,-241 954,-241"/>
<text text-anchor="middle" x="997.5" y="-248" font-family="Helvetica,sans-Serif" font-size="10.00">ccf/ds/logger.h</text>
</a>
</g>
</g>
<!-- Node2&#45;&gt;Node3 -->
<g id="edge2" class="edge">
<title>Node2&#45;&gt;Node3</title>
<path fill="none" stroke="midnightblue" d="M997.5,-302.48C997.5,-294.08 997.5,-280.98 997.5,-270.16"/>
<polygon fill="midnightblue" stroke="midnightblue" points="1001,-270.01 997.5,-260.01 994,-270.01 1001,-270.01"/>
</g>
<!-- Node9 -->
<g id="node9" class="node">
<title>Node9</title>
<g id="a_node9"><a xlink:title=" ">
<polygon fill="white" stroke="#bfbfbf" points="1241.5,-123.5 1241.5,-142.5 1279.5,-142.5 1279.5,-123.5 1241.5,-123.5"/>
<text text-anchor="middle" x="1260.5" y="-130.5" font-family="Helvetica,sans-Serif" font-size="10.00">map</text>
</a>
</g>
</g>
<!-- Node2&#45;&gt;Node9 -->
<g id="edge58" class="edge">
<title>Node2&#45;&gt;Node9</title>
<path fill="none" stroke="midnightblue" d="M1044.06,-304.04C1134.76,-289.41 1329.61,-252.35 1367.5,-199 1372.65,-191.75 1372.42,-186.4 1367.5,-179 1362.89,-172.06 1319.62,-155.32 1289.53,-144.33"/>
<polygon fill="midnightblue" stroke="midnightblue" points="1290.51,-140.96 1279.91,-140.84 1288.12,-147.54 1290.51,-140.96"/>
</g>
<!-- Node17 -->
<g id="node17" class="node">
<title>Node17</title>
<g id="a_node17"><a xlink:href="ring__buffer_8h.html" target="_top" xlink:title=" ">
<polygon fill="white" stroke="black" points="470,-241 470,-260 547,-260 547,-241 470,-241"/>
<text text-anchor="middle" x="508.5" y="-248" font-family="Helvetica,sans-Serif" font-size="10.00">ring_buffer.h</text>
</a>
</g>
</g>
<!-- Node2&#45;&gt;Node17 -->
<g id="edge18" class="edge">
<title>Node2&#45;&gt;Node17</title>
<path fill="none" stroke="midnightblue" d="M950.68,-308.69C870.44,-304.18 701.75,-292.24 561.5,-266 556.47,-265.06 551.22,-263.88 546.07,-262.59"/>
<polygon fill="midnightblue" stroke="midnightblue" points="546.92,-259.2 536.36,-260.04 545.14,-265.97 546.92,-259.2"/>
</g>
<!-- Node34 -->
<g id="node34" class="node">
<title>Node34</title>
<g id="a_node34"><a xlink:title=" ">
<polygon fill="white" stroke="#bfbfbf" points="0,-0.5 0,-19.5 65,-19.5 65,-0.5 0,-0.5"/>
<text text-anchor="middle" x="32.5" y="-7.5" font-family="Helvetica,sans-Serif" font-size="10.00">stdexcept</text>
</a>
</g>
</g>
<!-- Node2&#45;&gt;Node34 -->
<g id="edge59" class="edge">
<title>Node2&#45;&gt;Node34</title>
<path fill="none" stroke="midnightblue" d="M950.7,-310.23C755.15,-306.41 13.5,-285.63 13.5,-190 13.5,-190 13.5,-190 13.5,-132 13.5,-95.29 22.14,-53.06 27.77,-29.45"/>
<polygon fill="midnightblue" stroke="midnightblue" points="31.17,-30.28 30.17,-19.73 24.37,-28.6 31.17,-30.28"/>
</g>
<!-- Node37 -->
<g id="node37" class="node">
<title>Node37</title>
<g id="a_node37"><a xlink:title=" ">
<polygon fill="white" stroke="#bfbfbf" points="407.5,-123.5 407.5,-142.5 457.5,-142.5 457.5,-123.5 407.5,-123.5"/>
<text text-anchor="middle" x="432.5" y="-130.5" font-family="Helvetica,sans-Serif" font-size="10.00">atomic</text>
</a>
</g>
</g>
<!-- Node2&#45;&gt;Node37 -->
<g id="edge56" class="edge">
<title>Node2&#45;&gt;Node37</title>
<path fill="none" stroke="midnightblue" d="M959.1,-302.44C886.7,-285.83 725.53,-246.66 594.5,-199 574.31,-191.66 570.32,-187.28 550.5,-179 522.17,-167.17 489.54,-154.82 465.78,-146.06"/>
<polygon fill="midnightblue" stroke="midnightblue" points="466.77,-142.7 456.18,-142.54 464.36,-149.27 466.77,-142.7"/>
</g>
<!-- Node39 -->
<g id="node39" class="node">
<title>Node39</title>
<g id="a_node39"><a xlink:title=" ">
<polygon fill="white" stroke="#bfbfbf" points="1059,-241 1059,-260 1166,-260 1166,-241 1059,-241"/>
<text text-anchor="middle" x="1112.5" y="-248" font-family="Helvetica,sans-Serif" font-size="10.00">condition_variable</text>
</a>
</g>
</g>
<!-- Node2&#45;&gt;Node39 -->
<g id="edge57" class="edge">
<title>Node2&#45;&gt;Node39</title>
<path fill="none" stroke="midnightblue" d="M1013.98,-302.48C1033.11,-292.58 1064.87,-276.14 1087.15,-264.62"/>
<polygon fill="midnightblue" stroke="midnightblue" points="1088.78,-267.71 1096.05,-260.01 1085.56,-261.5 1088.78,-267.71"/>
</g>
<!-- Node4 -->
<g id="node4" class="node">
<title>Node4</title>
<g id="a_node4"><a xlink:href="enum__formatter_8h.html" target="_top" xlink:title=" ">
<polygon fill="white" stroke="black" points="881.5,-179.5 881.5,-198.5 1017.5,-198.5 1017.5,-179.5 881.5,-179.5"/>
<text text-anchor="middle" x="949.5" y="-186.5" font-family="Helvetica,sans-Serif" font-size="10.00">ccf/ds/enum_formatter.h</text>
</a>
</g>
</g>
<!-- Node3&#45;&gt;Node4 -->
<g id="edge3" class="edge">
<title>Node3&#45;&gt;Node4</title>
<path fill="none" stroke="midnightblue" d="M990.62,-240.98C983.35,-231.96 971.7,-217.52 962.66,-206.31"/>
<polygon fill="midnightblue" stroke="midnightblue" points="965.37,-204.09 956.36,-198.51 959.92,-208.49 965.37,-204.09"/>
</g>
<!-- Node5 -->
<g id="node5" class="node">
<title>Node5</title>
<g id="a_node5"><a xlink:title=" ">
<polygon fill="white" stroke="#bfbfbf" points="991,-123.5 991,-142.5 1070,-142.5 1070,-123.5 991,-123.5"/>
<text text-anchor="middle" x="1030.5" y="-130.5" font-family="Helvetica,sans-Serif" font-size="10.00">fmt/format.h</text>
</a>
</g>
</g>
<!-- Node3&#45;&gt;Node5 -->
<g id="edge12" class="edge">
<title>Node3&#45;&gt;Node5</title>
<path fill="none" stroke="midnightblue" d="M1004.2,-240.77C1011.17,-231.14 1021.74,-214.88 1026.5,-199 1031.02,-183.92 1031.81,-166.02 1031.59,-152.83"/>
<polygon fill="midnightblue" stroke="midnightblue" points="1035.07,-152.49 1031.2,-142.63 1028.08,-152.76 1035.07,-152.49"/>
</g>
<!-- Node6 -->
<g id="node6" class="node">
<title>Node6</title>
<g id="a_node6"><a xlink:href="thread__ids_8h.html" target="_top" xlink:title=" ">
<polygon fill="white" stroke="black" points="1414.5,-179.5 1414.5,-198.5 1522.5,-198.5 1522.5,-179.5 1414.5,-179.5"/>
<text text-anchor="middle" x="1468.5" y="-186.5" font-family="Helvetica,sans-Serif" font-size="10.00">ccf/ds/thread_ids.h</text>
</a>
</g>
</g>
<!-- Node3&#45;&gt;Node6 -->
<g id="edge5" class="edge">
<title>Node3&#45;&gt;Node6</title>
<path fill="none" stroke="midnightblue" d="M1025.36,-240.98C1033.41,-238.76 1042.25,-236.56 1050.5,-235 1116.63,-222.48 1304.4,-204.64 1404.24,-195.65"/>
<polygon fill="midnightblue" stroke="midnightblue" points="1404.56,-199.14 1414.21,-194.76 1403.93,-192.16 1404.56,-199.14"/>
</g>
<!-- Node11 -->
<g id="node11" class="node">
<title>Node11</title>
<g id="a_node11"><a xlink:title=" ">
<polygon fill="white" stroke="#bfbfbf" points="1074,-179.5 1074,-198.5 1153,-198.5 1153,-179.5 1074,-179.5"/>
<text text-anchor="middle" x="1113.5" y="-186.5" font-family="Helvetica,sans-Serif" font-size="10.00">fmt/chrono.h</text>
</a>
</g>
</g>
<!-- Node3&#45;&gt;Node11 -->
<g id="edge11" class="edge">
<title>Node3&#45;&gt;Node11</title>
<path fill="none" stroke="midnightblue" d="M1014.12,-240.98C1033.42,-231.08 1065.46,-214.64 1087.93,-203.12"/>
<polygon fill="midnightblue" stroke="midnightblue" points="1089.61,-206.19 1096.91,-198.51 1086.42,-199.96 1089.61,-206.19"/>
</g>
<!-- Node12 -->
<g id="node12" class="node">
<title>Node12</title>
<g id="a_node12"><a xlink:title=" ">
<polygon fill="white" stroke="#bfbfbf" points="1170.5,-179.5 1170.5,-198.5 1230.5,-198.5 1230.5,-179.5 1170.5,-179.5"/>
<text text-anchor="middle" x="1200.5" y="-186.5" font-family="Helvetica,sans-Serif" font-size="10.00">iostream</text>
</a>
</g>
</g>
<!-- Node3&#45;&gt;Node12 -->
<g id="edge13" class="edge">
<title>Node3&#45;&gt;Node12</title>
<path fill="none" stroke="midnightblue" d="M1026.58,-240.98C1062.08,-230.57 1122.25,-212.94 1161.67,-201.38"/>
<polygon fill="midnightblue" stroke="midnightblue" points="1162.86,-204.68 1171.47,-198.51 1160.89,-197.96 1162.86,-204.68"/>
</g>
<!-- Node13 -->
<g id="node13" class="node">
<title>Node13</title>
<g id="a_node13"><a xlink:title=" ">
<polygon fill="white" stroke="#bfbfbf" points="1248.5,-179.5 1248.5,-198.5 1358.5,-198.5 1358.5,-179.5 1248.5,-179.5"/>
<text text-anchor="middle" x="1303.5" y="-186.5" font-family="Helvetica,sans-Serif" font-size="10.00">nlohmann/json.hpp</text>
</a>
</g>
</g>
<!-- Node3&#45;&gt;Node13 -->
<g id="edge14" class="edge">
<title>Node3&#45;&gt;Node13</title>
<path fill="none" stroke="midnightblue" d="M1026.82,-240.97C1034.49,-238.88 1042.78,-236.74 1050.5,-235 1113.95,-220.71 1187.18,-208.1 1238.47,-199.89"/>
<polygon fill="midnightblue" stroke="midnightblue" points="1239.1,-203.34 1248.43,-198.31 1238.01,-196.43 1239.1,-203.34"/>
</g>
<!-- Node14 -->
<g id="node14" class="node">
<title>Node14</title>
<g id="a_node14"><a xlink:title=" ">
<polygon fill="white" stroke="#bfbfbf" points="849.5,-123.5 849.5,-142.5 905.5,-142.5 905.5,-123.5 849.5,-123.5"/>
<text text-anchor="middle" x="877.5" y="-130.5" font-family="Helvetica,sans-Serif" font-size="10.00">optional</text>
</a>
</g>
</g>
<!-- Node3&#45;&gt;Node14 -->
<g id="edge15" class="edge">
<title>Node3&#45;&gt;Node14</title>
<path fill="none" stroke="midnightblue" d="M953.82,-244.27C925.47,-238.36 890.56,-225.78 872.5,-199 863.32,-185.39 866.15,-166.34 870.32,-152.38"/>
<polygon fill="midnightblue" stroke="midnightblue" points="873.65,-153.47 873.6,-142.87 867.03,-151.19 873.65,-153.47"/>
</g>
<!-- Node15 -->
<g id="node15" class="node">
<title>Node15</title>
<g id="a_node15"><a xlink:title=" ">
<polygon fill="white" stroke="#bfbfbf" points="769.5,-179.5 769.5,-198.5 825.5,-198.5 825.5,-179.5 769.5,-179.5"/>
<text text-anchor="middle" x="797.5" y="-186.5" font-family="Helvetica,sans-Serif" font-size="10.00">sstream</text>
</a>
</g>
</g>
<!-- Node3&#45;&gt;Node15 -->
<g id="edge16" class="edge">
<title>Node3&#45;&gt;Node15</title>
<path fill="none" stroke="midnightblue" d="M968.84,-240.98C933.84,-230.56 874.51,-212.91 835.67,-201.36"/>
<polygon fill="midnightblue" stroke="midnightblue" points="836.36,-197.91 825.78,-198.41 834.37,-204.62 836.36,-197.91"/>
</g>
<!-- Node16 -->
<g id="node16" class="node">
<title>Node16</title>
<g id="a_node16"><a xlink:title=" ">
<polygon fill="white" stroke="#bfbfbf" points="899,-0.5 899,-19.5 968,-19.5 968,-0.5 899,-0.5"/>
<text text-anchor="middle" x="933.5" y="-7.5" font-family="Helvetica,sans-Serif" font-size="10.00">type_traits</text>
</a>
</g>
</g>
<!-- Node3&#45;&gt;Node16 -->
<g id="edge17" class="edge">
<title>Node3&#45;&gt;Node16</title>
<path fill="none" stroke="midnightblue" d="M953.79,-246.59C892.11,-241.48 784.35,-228.47 760.5,-199 754.91,-192.09 754.98,-185.96 760.5,-179 804.18,-123.93 867,-194.81 914.5,-143 942.97,-111.95 940.57,-58.37 936.8,-29.96"/>
<polygon fill="midnightblue" stroke="midnightblue" points="940.21,-29.13 935.24,-19.77 933.29,-30.19 940.21,-29.13"/>
</g>
<!-- Node4&#45;&gt;Node5 -->
<g id="edge4" class="edge">
<title>Node4&#45;&gt;Node5</title>
<path fill="none" stroke="midnightblue" d="M962.51,-179.32C975.03,-170.98 994.18,-158.21 1008.97,-148.35"/>
<polygon fill="midnightblue" stroke="midnightblue" points="1011.14,-151.11 1017.52,-142.65 1007.26,-145.29 1011.14,-151.11"/>
</g>
<!-- Node6&#45;&gt;Node5 -->
<g id="edge6" class="edge">
<title>Node6&#45;&gt;Node5</title>
<path fill="none" stroke="midnightblue" d="M1414.35,-181.32C1328.75,-170.77 1163.39,-150.38 1080.47,-140.16"/>
<polygon fill="midnightblue" stroke="midnightblue" points="1080.65,-136.66 1070.29,-138.91 1079.79,-143.6 1080.65,-136.66"/>
</g>
<!-- Node7 -->
<g id="node7" class="node">
<title>Node7</title>
<g id="a_node7"><a xlink:title=" ">
<polygon fill="white" stroke="#bfbfbf" points="1425.5,-123.5 1425.5,-142.5 1511.5,-142.5 1511.5,-123.5 1425.5,-123.5"/>
<text text-anchor="middle" x="1468.5" y="-130.5" font-family="Helvetica,sans-Serif" font-size="10.00">fmt/ostream.h</text>
</a>
</g>
</g>
<!-- Node6&#45;&gt;Node7 -->
<g id="edge7" class="edge">
<title>Node6&#45;&gt;Node7</title>
<path fill="none" stroke="midnightblue" d="M1468.5,-179.08C1468.5,-172.01 1468.5,-161.86 1468.5,-152.99"/>
<polygon fill="midnightblue" stroke="midnightblue" points="1472,-152.75 1468.5,-142.75 1465,-152.75 1472,-152.75"/>
</g>
<!-- Node8 -->
<g id="node8" class="node">
<title>Node8</title>
<g id="a_node8"><a xlink:title=" ">
<polygon fill="white" stroke="#bfbfbf" points="1297.5,-123.5 1297.5,-142.5 1341.5,-142.5 1341.5,-123.5 1297.5,-123.5"/>
<text text-anchor="middle" x="1319.5" y="-130.5" font-family="Helvetica,sans-Serif" font-size="10.00">limits</text>
</a>
</g>
</g>
<!-- Node6&#45;&gt;Node8 -->
<g id="edge8" class="edge">
<title>Node6&#45;&gt;Node8</title>
<path fill="none" stroke="midnightblue" d="M1444.89,-179.44C1419.6,-170.28 1379.33,-155.68 1351.28,-145.52"/>
<polygon fill="midnightblue" stroke="midnightblue" points="1352.14,-142.11 1341.54,-141.99 1349.75,-148.69 1352.14,-142.11"/>
</g>
<!-- Node6&#45;&gt;Node9 -->
<g id="edge9" class="edge">
<title>Node6&#45;&gt;Node9</title>
<path fill="none" stroke="midnightblue" d="M1431.42,-179.49C1396.97,-171.41 1344.02,-158.57 1289.55,-143.17"/>
<polygon fill="midnightblue" stroke="midnightblue" points="1290.31,-139.74 1279.73,-140.36 1288.39,-146.47 1290.31,-139.74"/>
</g>
<!-- Node10 -->
<g id="node10" class="node">
<title>Node10</title>
<g id="a_node10"><a xlink:title=" ">
<polygon fill="white" stroke="#bfbfbf" points="1359.5,-123.5 1359.5,-142.5 1407.5,-142.5 1407.5,-123.5 1359.5,-123.5"/>
<text text-anchor="middle" x="1383.5" y="-130.5" font-family="Helvetica,sans-Serif" font-size="10.00">thread</text>
</a>
</g>
</g>
<!-- Node6&#45;&gt;Node10 -->
<g id="edge10" class="edge">
<title>Node6&#45;&gt;Node10</title>
<path fill="none" stroke="midnightblue" d="M1454.84,-179.32C1441.58,-170.9 1421.23,-157.97 1405.65,-148.07"/>
<polygon fill="midnightblue" stroke="midnightblue" points="1407.44,-145.06 1397.12,-142.65 1403.69,-150.97 1407.44,-145.06"/>
</g>
<!-- Node18 -->
<g id="node18" class="node">
<title>Node18</title>
<g id="a_node18"><a xlink:href="ring__buffer__types_8h.html" target="_top" xlink:title=" ">
<polygon fill="white" stroke="black" points="603.5,-179.5 603.5,-198.5 713.5,-198.5 713.5,-179.5 603.5,-179.5"/>
<text text-anchor="middle" x="658.5" y="-186.5" font-family="Helvetica,sans-Serif" font-size="10.00">ring_buffer_types.h</text>
</a>
</g>
</g>
<!-- Node17&#45;&gt;Node18 -->
<g id="edge19" class="edge">
<title>Node17&#45;&gt;Node18</title>
<path fill="none" stroke="midnightblue" d="M529.99,-240.98C555.61,-230.81 598.61,-213.76 627.74,-202.2"/>
<polygon fill="midnightblue" stroke="midnightblue" points="629.04,-205.45 637.05,-198.51 626.46,-198.94 629.04,-205.45"/>
</g>
<!-- Node33 -->
<g id="node33" class="node">
<title>Node33</title>
<g id="a_node33"><a xlink:title=" ">
<polygon fill="white" stroke="#bfbfbf" points="191.5,-0.5 191.5,-19.5 241.5,-19.5 241.5,-0.5 191.5,-0.5"/>
<text text-anchor="middle" x="216.5" y="-7.5" font-family="Helvetica,sans-Serif" font-size="10.00">cstring</text>
</a>
</g>
</g>
<!-- Node17&#45;&gt;Node33 -->
<g id="edge54" class="edge">
<title>Node17&#45;&gt;Node33</title>
<path fill="none" stroke="midnightblue" d="M469.95,-247.71C385.38,-241.46 184.34,-213.35 98.5,-87 90.76,-75.6 90.68,-67.35 98.5,-56 103.49,-48.76 148.55,-32.93 181.51,-22.11"/>
<polygon fill="midnightblue" stroke="midnightblue" points="182.87,-25.35 191.3,-18.93 180.7,-18.69 182.87,-25.35"/>
</g>
<!-- Node38 -->
<g id="node38" class="node">
<title>Node38</title>
<g id="a_node38"><a xlink:title=" ">
<polygon fill="white" stroke="#bfbfbf" points="476,-179.5 476,-198.5 541,-198.5 541,-179.5 476,-179.5"/>
<text text-anchor="middle" x="508.5" y="-186.5" font-family="Helvetica,sans-Serif" font-size="10.00">functional</text>
</a>
</g>
</g>
<!-- Node17&#45;&gt;Node38 -->
<g id="edge55" class="edge">
<title>Node17&#45;&gt;Node38</title>
<path fill="none" stroke="midnightblue" d="M508.5,-240.98C508.5,-232.58 508.5,-219.48 508.5,-208.66"/>
<polygon fill="midnightblue" stroke="midnightblue" points="512,-208.51 508.5,-198.51 505,-208.51 512,-208.51"/>
</g>
<!-- Node18&#45;&gt;Node5 -->
<g id="edge50" class="edge">
<title>Node18&#45;&gt;Node5</title>
<path fill="none" stroke="midnightblue" d="M713.79,-179.97C785.98,-169.49 911.3,-151.3 980.68,-141.23"/>
<polygon fill="midnightblue" stroke="midnightblue" points="981.52,-144.65 990.91,-139.75 980.51,-137.72 981.52,-144.65"/>
</g>
<!-- Node18&#45;&gt;Node14 -->
<g id="edge51" class="edge">
<title>Node18&#45;&gt;Node14</title>
<path fill="none" stroke="midnightblue" d="M693.2,-179.44C733.01,-169.63 798.07,-153.59 839.29,-143.42"/>
<polygon fill="midnightblue" stroke="midnightblue" points="840.36,-146.76 849.23,-140.97 838.68,-139.97 840.36,-146.76"/>
</g>
<!-- Node19 -->
<g id="node19" class="node">
<title>Node19</title>
<g id="a_node19"><a xlink:href="nonstd_8h.html" target="_top" xlink:title=" ">
<polygon fill="white" stroke="black" points="739.5,-62 739.5,-81 829.5,-81 829.5,-62 739.5,-62"/>
<text text-anchor="middle" x="784.5" y="-69" font-family="Helvetica,sans-Serif" font-size="10.00">ccf/ds/nonstd.h</text>
</a>
</g>
</g>
<!-- Node18&#45;&gt;Node19 -->
<g id="edge20" class="edge">
<title>Node18&#45;&gt;Node19</title>
<path fill="none" stroke="midnightblue" d="M671.16,-179.24C683.43,-170.55 702.35,-156.59 717.5,-143 736.83,-125.66 757.12,-103.7 770.24,-88.94"/>
<polygon fill="midnightblue" stroke="midnightblue" points="773.1,-90.99 777.07,-81.17 767.84,-86.37 773.1,-90.99"/>
</g>
<!-- Node23 -->
<g id="node23" class="node">
<title>Node23</title>
<g id="a_node23"><a xlink:title=" ">
<polygon fill="white" stroke="#bfbfbf" points="836.5,-0.5 836.5,-19.5 880.5,-19.5 880.5,-0.5 836.5,-0.5"/>
<text text-anchor="middle" x="858.5" y="-7.5" font-family="Helvetica,sans-Serif" font-size="10.00">string</text>
</a>
</g>
</g>
<!-- Node18&#45;&gt;Node23 -->
<g id="edge52" class="edge">
<title>Node18&#45;&gt;Node23</title>
<path fill="none" stroke="midnightblue" d="M688.31,-179.46C728.62,-166.34 799.89,-137.32 838.5,-87 851.19,-70.47 855.85,-46.6 857.56,-30.05"/>
<polygon fill="midnightblue" stroke="midnightblue" points="861.06,-30.17 858.32,-19.93 854.08,-29.64 861.06,-30.17"/>
</g>
<!-- Node25 -->
<g id="node25" class="node">
<title>Node25</title>
<g id="a_node25"><a xlink:title=" ">
<polygon fill="white" stroke="#bfbfbf" points="469,-0.5 469,-19.5 516,-19.5 516,-0.5 469,-0.5"/>
<text text-anchor="middle" x="492.5" y="-7.5" font-family="Helvetica,sans-Serif" font-size="10.00">vector</text>
</a>
</g>
</g>
<!-- Node18&#45;&gt;Node25 -->
<g id="edge53" class="edge">
<title>Node18&#45;&gt;Node25</title>
<path fill="none" stroke="midnightblue" d="M650.49,-179.46C624.48,-151.73 542.06,-63.85 507.74,-27.24"/>
<polygon fill="midnightblue" stroke="midnightblue" points="510.21,-24.77 500.82,-19.87 505.11,-29.56 510.21,-24.77"/>
</g>
<!-- Node26 -->
<g id="node26" class="node">
<title>Node26</title>
<g id="a_node26"><a xlink:href="ds_2hash_8h.html" target="_top" xlink:title=" ">
<polygon fill="white" stroke="black" points="476,-123.5 476,-142.5 539,-142.5 539,-123.5 476,-123.5"/>
<text text-anchor="middle" x="507.5" y="-130.5" font-family="Helvetica,sans-Serif" font-size="10.00">ds/hash.h</text>
</a>
</g>
</g>
<!-- Node18&#45;&gt;Node26 -->
<g id="edge28" class="edge">
<title>Node18&#45;&gt;Node26</title>
<path fill="none" stroke="midnightblue" d="M634.57,-179.44C609.28,-170.4 569.2,-156.06 540.82,-145.92"/>
<polygon fill="midnightblue" stroke="midnightblue" points="541.91,-142.59 531.31,-142.52 539.55,-149.18 541.91,-142.59"/>
</g>
<!-- Node31 -->
<g id="node31" class="node">
<title>Node31</title>
<g id="a_node31"><a xlink:href="serializer_8h.html" target="_top" xlink:title=" ">
<polygon fill="white" stroke="black" points="638.5,-123.5 638.5,-142.5 708.5,-142.5 708.5,-123.5 638.5,-123.5"/>
<text text-anchor="middle" x="673.5" y="-130.5" font-family="Helvetica,sans-Serif" font-size="10.00">serializer.h</text>
</a>
</g>
</g>
<!-- Node18&#45;&gt;Node31 -->
<g id="edge37" class="edge">
<title>Node18&#45;&gt;Node31</title>
<path fill="none" stroke="midnightblue" d="M660.98,-179.08C662.99,-171.85 665.89,-161.41 668.39,-152.4"/>
<polygon fill="midnightblue" stroke="midnightblue" points="671.76,-153.32 671.07,-142.75 665.02,-151.45 671.76,-153.32"/>
</g>
<!-- Node18&#45;&gt;Node37 -->
<g id="edge49" class="edge">
<title>Node18&#45;&gt;Node37</title>
<path fill="none" stroke="midnightblue" d="M620.54,-179.44C583.79,-171.08 526.28,-157.8 467.55,-143.21"/>
<polygon fill="midnightblue" stroke="midnightblue" points="468.28,-139.79 457.73,-140.76 466.59,-146.58 468.28,-139.79"/>
</g>
<!-- Node19&#45;&gt;Node16 -->
<g id="edge26" class="edge">
<title>Node19&#45;&gt;Node16</title>
<path fill="none" stroke="midnightblue" d="M805.85,-61.98C831.19,-51.86 873.64,-34.9 902.57,-23.35"/>
<polygon fill="midnightblue" stroke="midnightblue" points="904.2,-26.47 912.19,-19.51 901.61,-19.97 904.2,-26.47"/>
</g>
<!-- Node20 -->
<g id="node20" class="node">
<title>Node20</title>
<g id="a_node20"><a xlink:title=" ">
<polygon fill="white" stroke="#bfbfbf" points="686.5,-0.5 686.5,-19.5 750.5,-19.5 750.5,-0.5 686.5,-0.5"/>
<text text-anchor="middle" x="718.5" y="-7.5" font-family="Helvetica,sans-Serif" font-size="10.00">algorithm</text>
</a>
</g>
</g>
<!-- Node19&#45;&gt;Node20 -->
<g id="edge21" class="edge">
<title>Node19&#45;&gt;Node20</title>
<path fill="none" stroke="midnightblue" d="M775.04,-61.98C764.75,-52.7 748.08,-37.67 735.51,-26.33"/>
<polygon fill="midnightblue" stroke="midnightblue" points="737.71,-23.61 727.94,-19.51 733.02,-28.8 737.71,-23.61"/>
</g>
<!-- Node21 -->
<g id="node21" class="node">
<title>Node21</title>
<g id="a_node21"><a xlink:title=" ">
<polygon fill="white" stroke="#bfbfbf" points="534.5,-0.5 534.5,-19.5 576.5,-19.5 576.5,-0.5 534.5,-0.5"/>
<text text-anchor="middle" x="555.5" y="-7.5" font-family="Helvetica,sans-Serif" font-size="10.00">array</text>
</a>
</g>
</g>
<!-- Node19&#45;&gt;Node21 -->
<g id="edge22" class="edge">
<title>Node19&#45;&gt;Node21</title>
<path fill="none" stroke="midnightblue" d="M749.72,-61.99C710.1,-52.22 643.49,-35.54 586.5,-20 586.4,-19.97 586.3,-19.95 586.21,-19.92"/>
<polygon fill="midnightblue" stroke="midnightblue" points="587.39,-16.62 576.82,-17.29 585.5,-23.36 587.39,-16.62"/>
</g>
<!-- Node22 -->
<g id="node22" class="node">
<title>Node22</title>
<g id="a_node22"><a xlink:title=" ">
<polygon fill="white" stroke="#bfbfbf" points="769,-0.5 769,-19.5 818,-19.5 818,-0.5 769,-0.5"/>
<text text-anchor="middle" x="793.5" y="-7.5" font-family="Helvetica,sans-Serif" font-size="10.00">cctype</text>
</a>
</g>
</g>
<!-- Node19&#45;&gt;Node22 -->
<g id="edge23" class="edge">
<title>Node19&#45;&gt;Node22</title>
<path fill="none" stroke="midnightblue" d="M785.79,-61.98C787.06,-53.58 789.04,-40.48 790.68,-29.66"/>
<polygon fill="midnightblue" stroke="midnightblue" points="794.18,-29.92 792.21,-19.51 787.26,-28.87 794.18,-29.92"/>
</g>
<!-- Node19&#45;&gt;Node23 -->
<g id="edge24" class="edge">
<title>Node19&#45;&gt;Node23</title>
<path fill="none" stroke="midnightblue" d="M795.1,-61.98C806.75,-52.61 825.69,-37.38 839.83,-26.01"/>
<polygon fill="midnightblue" stroke="midnightblue" points="842.32,-28.5 847.92,-19.51 837.93,-23.05 842.32,-28.5"/>
</g>
<!-- Node24 -->
<g id="node24" class="node">
<title>Node24</title>
<g id="a_node24"><a xlink:title=" ">
<polygon fill="white" stroke="#bfbfbf" points="595,-0.5 595,-19.5 668,-19.5 668,-0.5 595,-0.5"/>
<text text-anchor="middle" x="631.5" y="-7.5" font-family="Helvetica,sans-Serif" font-size="10.00">string_view</text>
</a>
</g>
</g>
<!-- Node19&#45;&gt;Node24 -->
<g id="edge25" class="edge">
<title>Node19&#45;&gt;Node24</title>
<path fill="none" stroke="midnightblue" d="M762.58,-61.98C736.45,-51.81 692.59,-34.76 662.87,-23.2"/>
<polygon fill="midnightblue" stroke="midnightblue" points="663.97,-19.87 653.38,-19.51 661.43,-26.4 663.97,-19.87"/>
</g>
<!-- Node19&#45;&gt;Node25 -->
<g id="edge27" class="edge">
<title>Node19&#45;&gt;Node25</title>
<path fill="none" stroke="midnightblue" d="M751.2,-61.93C742.83,-59.88 733.86,-57.78 725.5,-56 640.26,-37.87 615.33,-39.74 526.23,-19.99"/>
<polygon fill="midnightblue" stroke="midnightblue" points="526.75,-16.52 516.23,-17.74 525.22,-23.35 526.75,-16.52"/>
</g>
<!-- Node26&#45;&gt;Node21 -->
<g id="edge33" class="edge">
<title>Node26&#45;&gt;Node21</title>
<path fill="none" stroke="midnightblue" d="M510.95,-123.3C518.74,-103.68 537.79,-55.64 548.28,-29.19"/>
<polygon fill="midnightblue" stroke="midnightblue" points="551.65,-30.21 552.08,-19.62 545.14,-27.63 551.65,-30.21"/>
</g>
<!-- Node26&#45;&gt;Node25 -->
<g id="edge36" class="edge">
<title>Node26&#45;&gt;Node25</title>
<path fill="none" stroke="midnightblue" d="M506.42,-123.3C504.01,-103.85 498.14,-56.49 494.84,-29.9"/>
<polygon fill="midnightblue" stroke="midnightblue" points="498.27,-29.12 493.57,-19.62 491.33,-29.98 498.27,-29.12"/>
</g>
<!-- Node27 -->
<g id="node27" class="node">
<title>Node27</title>
<g id="a_node27"><a xlink:href="siphash_8h.html" target="_top" xlink:title=" ">
<polygon fill="white" stroke="black" points="118,-62 118,-81 213,-81 213,-62 118,-62"/>
<text text-anchor="middle" x="165.5" y="-69" font-family="Helvetica,sans-Serif" font-size="10.00">ccf/ds/siphash.h</text>
</a>
</g>
</g>
<!-- Node26&#45;&gt;Node27 -->
<g id="edge29" class="edge">
<title>Node26&#45;&gt;Node27</title>
<path fill="none" stroke="midnightblue" d="M475.76,-124.8C472.64,-124.16 469.51,-123.55 466.5,-123 358.24,-103.19 329.37,-108.83 221.5,-87 216.46,-85.98 211.2,-84.79 206,-83.54"/>
<polygon fill="midnightblue" stroke="midnightblue" points="206.72,-80.11 196.17,-81.08 205.02,-86.9 206.72,-80.11"/>
</g>
<!-- Node29 -->
<g id="node29" class="node">
<title>Node29</title>
<g id="a_node29"><a xlink:title=" ">
<polygon fill="white" stroke="#bfbfbf" points="259.5,-0.5 259.5,-19.5 309.5,-19.5 309.5,-0.5 259.5,-0.5"/>
<text text-anchor="middle" x="284.5" y="-7.5" font-family="Helvetica,sans-Serif" font-size="10.00">cstdint</text>
</a>
</g>
</g>
<!-- Node26&#45;&gt;Node29 -->
<g id="edge34" class="edge">
<title>Node26&#45;&gt;Node29</title>
<path fill="none" stroke="midnightblue" d="M475.79,-124.66C472.66,-124.05 469.52,-123.48 466.5,-123 387.54,-110.41 162.14,-146.3 108.5,-87 99.26,-76.78 100.04,-66.87 108.5,-56 146.61,-7.02 183.82,-33.54 249.37,-20.01"/>
<polygon fill="midnightblue" stroke="midnightblue" points="250.31,-23.39 259.26,-17.71 248.72,-16.57 250.31,-23.39"/>
</g>
<!-- Node30 -->
<g id="node30" class="node">
<title>Node30</title>
<g id="a_node30"><a xlink:title=" ">
<polygon fill="white" stroke="#bfbfbf" points="231,-62 231,-81 380,-81 380,-62 231,-62"/>
<text text-anchor="middle" x="305.5" y="-69" font-family="Helvetica,sans-Serif" font-size="10.00">small_vector/SmallVector.h</text>
</a>
</g>
</g>
<!-- Node26&#45;&gt;Node30 -->
<g id="edge35" class="edge">
<title>Node26&#45;&gt;Node30</title>
<path fill="none" stroke="midnightblue" d="M478.56,-123.48C443.23,-113.07 383.37,-95.44 344.14,-83.88"/>
<polygon fill="midnightblue" stroke="midnightblue" points="344.97,-80.48 334.39,-81.01 342.99,-87.19 344.97,-80.48"/>
</g>
<!-- Node27&#45;&gt;Node25 -->
<g id="edge32" class="edge">
<title>Node27&#45;&gt;Node25</title>
<path fill="none" stroke="midnightblue" d="M196.49,-61.95C204.59,-59.86 213.35,-57.73 221.5,-56 306.22,-38.04 407.1,-22.92 458.59,-15.64"/>
<polygon fill="midnightblue" stroke="midnightblue" points="459.39,-19.07 468.81,-14.21 458.42,-12.13 459.39,-19.07"/>
</g>
<!-- Node28 -->
<g id="node28" class="node">
<title>Node28</title>
<g id="a_node28"><a xlink:title=" ">
<polygon fill="white" stroke="#bfbfbf" points="120,-0.5 120,-19.5 173,-19.5 173,-0.5 120,-0.5"/>
<text text-anchor="middle" x="146.5" y="-7.5" font-family="Helvetica,sans-Serif" font-size="10.00">cstddef</text>
</a>
</g>
</g>
<!-- Node27&#45;&gt;Node28 -->
<g id="edge30" class="edge">
<title>Node27&#45;&gt;Node28</title>
<path fill="none" stroke="midnightblue" d="M162.78,-61.98C160.07,-53.49 155.83,-40.2 152.35,-29.32"/>
<polygon fill="midnightblue" stroke="midnightblue" points="155.59,-27.97 149.22,-19.51 148.93,-30.1 155.59,-27.97"/>
</g>
<!-- Node27&#45;&gt;Node29 -->
<g id="edge31" class="edge">
<title>Node27&#45;&gt;Node29</title>
<path fill="none" stroke="midnightblue" d="M182.55,-61.98C202.34,-52.08 235.22,-35.64 258.27,-24.12"/>
<polygon fill="midnightblue" stroke="midnightblue" points="260.1,-27.11 267.48,-19.51 256.97,-20.85 260.1,-27.11"/>
</g>
<!-- Node31&#45;&gt;Node16 -->
<g id="edge47" class="edge">
<title>Node31&#45;&gt;Node16</title>
<path fill="none" stroke="midnightblue" d="M708.82,-126.67C743.3,-120.5 796.55,-108.33 838.5,-87 869.68,-71.14 900.28,-43.99 918,-26.8"/>
<polygon fill="midnightblue" stroke="midnightblue" points="920.55,-29.2 925.19,-19.67 915.62,-24.22 920.55,-29.2"/>
</g>
<!-- Node31&#45;&gt;Node19 -->
<g id="edge38" class="edge">
<title>Node31&#45;&gt;Node19</title>
<path fill="none" stroke="midnightblue" d="M689.4,-123.48C707.78,-113.62 738.26,-97.29 759.74,-85.77"/>
<polygon fill="midnightblue" stroke="midnightblue" points="761.47,-88.82 768.63,-81.01 758.16,-82.65 761.47,-88.82"/>
</g>
<!-- Node31&#45;&gt;Node25 -->
<g id="edge48" class="edge">
<title>Node31&#45;&gt;Node25</title>
<path fill="none" stroke="midnightblue" d="M673.95,-123.39C674.28,-107.75 672.63,-74.61 654.5,-56 653.92,-55.41 573.41,-33.22 526.12,-20.23"/>
<polygon fill="midnightblue" stroke="midnightblue" points="526.86,-16.8 516.3,-17.53 525.01,-23.55 526.86,-16.8"/>
</g>
<!-- Node32 -->
<g id="node32" class="node">
<title>Node32</title>
<g id="a_node32"><a xlink:href="serialized_8h.html" target="_top" xlink:title=" ">
<polygon fill="white" stroke="black" points="398,-62 398,-81 471,-81 471,-62 398,-62"/>
<text text-anchor="middle" x="434.5" y="-69" font-family="Helvetica,sans-Serif" font-size="10.00">serialized.h</text>
</a>
</g>
</g>
<!-- Node31&#45;&gt;Node32 -->
<g id="edge39" class="edge">
<title>Node31&#45;&gt;Node32</title>
<path fill="none" stroke="midnightblue" d="M639.26,-123.48C596.93,-112.94 524.82,-94.99 478.45,-83.44"/>
<polygon fill="midnightblue" stroke="midnightblue" points="479.23,-80.03 468.68,-81.01 477.54,-86.82 479.23,-80.03"/>
</g>
<!-- Node35 -->
<g id="node35" class="node">
<title>Node35</title>
<g id="a_node35"><a xlink:title=" ">
<polygon fill="white" stroke="#bfbfbf" points="1110.5,-62 1110.5,-81 1168.5,-81 1168.5,-62 1110.5,-62"/>
<text text-anchor="middle" x="1139.5" y="-69" font-family="Helvetica,sans-Serif" font-size="10.00">memory</text>
</a>
</g>
</g>
<!-- Node31&#45;&gt;Node35 -->
<g id="edge45" class="edge">
<title>Node31&#45;&gt;Node35</title>
<path fill="none" stroke="midnightblue" d="M708.53,-127.53C793.73,-116.65 1011.38,-88.86 1100.53,-77.48"/>
<polygon fill="midnightblue" stroke="midnightblue" points="1101.02,-80.94 1110.49,-76.2 1100.13,-74 1101.02,-80.94"/>
</g>
<!-- Node36 -->
<g id="node36" class="node">
<title>Node36</title>
<g id="a_node36"><a xlink:title=" ">
<polygon fill="white" stroke="#bfbfbf" points="604,-62 604,-81 645,-81 645,-62 604,-62"/>
<text text-anchor="middle" x="624.5" y="-69" font-family="Helvetica,sans-Serif" font-size="10.00">tuple</text>
</a>
</g>
</g>
<!-- Node31&#45;&gt;Node36 -->
<g id="edge46" class="edge">
<title>Node31&#45;&gt;Node36</title>
<path fill="none" stroke="midnightblue" d="M666.48,-123.48C659.06,-114.46 647.17,-100.02 637.93,-88.81"/>
<polygon fill="midnightblue" stroke="midnightblue" points="640.57,-86.5 631.51,-81.01 635.16,-90.95 640.57,-86.5"/>
</g>
<!-- Node32&#45;&gt;Node23 -->
<g id="edge43" class="edge">
<title>Node32&#45;&gt;Node23</title>
<path fill="none" stroke="midnightblue" d="M471.12,-67.7C539.26,-62.08 690.25,-47.7 826.08,-20.01"/>
<polygon fill="midnightblue" stroke="midnightblue" points="827.17,-23.36 836.25,-17.91 825.75,-16.51 827.17,-23.36"/>
</g>
<!-- Node32&#45;&gt;Node25 -->
<g id="edge44" class="edge">
<title>Node32&#45;&gt;Node25</title>
<path fill="none" stroke="midnightblue" d="M442.81,-61.98C451.68,-52.87 465.95,-38.24 476.92,-26.98"/>
<polygon fill="midnightblue" stroke="midnightblue" points="479.73,-29.11 484.21,-19.51 474.72,-24.23 479.73,-29.11"/>
</g>
<!-- Node32&#45;&gt;Node29 -->
<g id="edge40" class="edge">
<title>Node32&#45;&gt;Node29</title>
<path fill="none" stroke="midnightblue" d="M413.01,-61.98C387.39,-51.81 344.39,-34.76 315.26,-23.2"/>
<polygon fill="midnightblue" stroke="midnightblue" points="316.54,-19.94 305.95,-19.51 313.96,-26.45 316.54,-19.94"/>
</g>
<!-- Node32&#45;&gt;Node33 -->
<g id="edge41" class="edge">
<title>Node32&#45;&gt;Node33</title>
<path fill="none" stroke="midnightblue" d="M408.3,-61.99C401.84,-59.96 394.94,-57.85 388.5,-56 330.56,-39.32 313.45,-36.38 251.63,-20.28"/>
<polygon fill="midnightblue" stroke="midnightblue" points="252.31,-16.84 241.75,-17.69 250.54,-23.61 252.31,-16.84"/>
</g>
<!-- Node32&#45;&gt;Node34 -->
<g id="edge42" class="edge">
<title>Node32&#45;&gt;Node34</title>
<path fill="none" stroke="midnightblue" d="M410.37,-62C403.38,-59.78 395.7,-57.58 388.5,-56 358.49,-49.43 163.41,-26.27 75.42,-15.99"/>
<polygon fill="midnightblue" stroke="midnightblue" points="75.58,-12.48 65.24,-14.8 74.77,-19.43 75.58,-12.48"/>
</g>
<!-- Node40&#45;&gt;Node18 -->
<g id="edge61" class="edge">
<title>Node40&#45;&gt;Node18</title>
<path fill="none" stroke="midnightblue" d="M1414.17,-245.42C1289.15,-237.27 1001.83,-218.14 760.5,-199 748.59,-198.06 735.91,-196.99 723.68,-195.92"/>
<polygon fill="midnightblue" stroke="midnightblue" points="723.81,-192.42 713.54,-195.04 723.19,-199.4 723.81,-192.42"/>
</g>
<!-- Node41 -->
<g id="node41" class="node">
<title>Node41</title>
<g id="a_node41"><a xlink:href="lfs__interface_8h.html" target="_top" xlink:title=" ">
<polygon fill="white" stroke="black" points="1530,-123.5 1530,-142.5 1661,-142.5 1661,-123.5 1530,-123.5"/>
<text text-anchor="middle" x="1595.5" y="-130.5" font-family="Helvetica,sans-Serif" font-size="10.00">indexing/lfs_interface.h</text>
</a>
</g>
</g>
<!-- Node40&#45;&gt;Node41 -->
<g id="edge62" class="edge">
<title>Node40&#45;&gt;Node41</title>
<path fill="none" stroke="midnightblue" d="M1493.26,-235.08C1504.11,-225.07 1518.81,-211.36 1531.5,-199 1548.41,-182.52 1567.32,-163.2 1580.18,-149.93"/>
<polygon fill="midnightblue" stroke="midnightblue" points="1582.9,-152.15 1587.32,-142.52 1577.86,-147.29 1582.9,-152.15"/>
</g>
<!-- Node41&#45;&gt;Node23 -->
<g id="edge65" class="edge">
<title>Node41&#45;&gt;Node23</title>
<path fill="none" stroke="midnightblue" d="M1552.91,-123.45C1477.46,-108.5 1315.29,-77.15 1177.5,-56 1053.66,-36.99 1018.29,-45.04 890.92,-19.77"/>
<polygon fill="midnightblue" stroke="midnightblue" points="891.27,-16.27 880.78,-17.72 889.89,-23.13 891.27,-16.27"/>
</g>
<!-- Node41&#45;&gt;Node25 -->
<g id="edge66" class="edge">
<title>Node41&#45;&gt;Node25</title>
<path fill="none" stroke="midnightblue" d="M1529.68,-123.82C1526.58,-123.53 1523.51,-123.25 1520.5,-123 1345.36,-108.52 899.42,-135.46 730.5,-87 703.53,-79.26 701.62,-66.26 675.5,-56 614.56,-32.05 593.78,-36.54 526.13,-20.05"/>
<polygon fill="midnightblue" stroke="midnightblue" points="526.82,-16.61 516.27,-17.58 525.12,-23.4 526.82,-16.61"/>
</g>
<!-- Node41&#45;&gt;Node35 -->
<g id="edge64" class="edge">
<title>Node41&#45;&gt;Node35</title>
<path fill="none" stroke="midnightblue" d="M1530.17,-123.48C1433.89,-110.91 1256.87,-87.81 1178.54,-77.59"/>
<polygon fill="midnightblue" stroke="midnightblue" points="1178.97,-74.12 1168.61,-76.3 1178.07,-81.06 1178.97,-74.12"/>
</g>
<!-- Node42 -->
<g id="node42" class="node">
<title>Node42</title>
<g id="a_node42"><a xlink:href="node__subsystem__interface_8h.html" target="_top" xlink:title=" ">
<polygon fill="white" stroke="black" points="1537.5,-56.5 1537.5,-86.5 1653.5,-86.5 1653.5,-56.5 1537.5,-56.5"/>
<text text-anchor="start" x="1545.5" y="-74.5" font-family="Helvetica,sans-Serif" font-size="10.00">ccf/node_subsystem</text>
<text text-anchor="middle" x="1595.5" y="-63.5" font-family="Helvetica,sans-Serif" font-size="10.00">_interface.h</text>
</a>
</g>
</g>
<!-- Node41&#45;&gt;Node42 -->
<g id="edge63" class="edge">
<title>Node41&#45;&gt;Node42</title>
<path fill="none" stroke="midnightblue" d="M1595.5,-123.48C1595.5,-116.47 1595.5,-106.19 1595.5,-96.7"/>
<polygon fill="midnightblue" stroke="midnightblue" points="1599,-96.52 1595.5,-86.52 1592,-96.52 1599,-96.52"/>
</g>
</g>
</svg>
