<?xml version="1.0" encoding="UTF-8" standalone="no"?>
<!DOCTYPE svg PUBLIC "-//W3C//DTD SVG 1.1//EN"
 "http://www.w3.org/Graphics/SVG/1.1/DTD/svg11.dtd">
<!-- Generated by graphviz version 2.43.0 (0)
 -->
<!-- Title: src/host/load_monitor.h Pages: 1 -->
<!--zoomable 364 -->
<svg id="main" version="1.1" xmlns="http://www.w3.org/2000/svg" xmlns:xlink="http://www.w3.org/1999/xlink" xml:space="preserve" onload="init(evt)">
<style type="text/css"><![CDATA[
.edge:hover path { stroke: red; }
.edge:hover polygon { stroke: red; fill: red; }
]]></style>
<script type="text/javascript"><![CDATA[
var edges = document.getElementsByTagName('g');
if (edges && edges.length) {
  for (var i=0;i<edges.length;i++) {
    if (edges[i].id.substr(0,4)=='edge') {
      edges[i].setAttribute('class','edge');
    }
  }
}
]]></script>
        <defs>
                <circle id="rim" cx="0" cy="0" r="7"/>
                <circle id="rim2" cx="0" cy="0" r="3.5"/>
                <g id="zoomPlus">
                        <use xlink:href="#rim" fill="#404040">
                                <set attributeName="fill" to="#808080" begin="zoomplus.mouseover" end="zoomplus.mouseout"/>
                        </use>
                        <path d="M-4,0h8M0,-4v8" fill="none" stroke="white" stroke-width="1.5" pointer-events="none"/>
                </g>
                <g id="zoomMin">
                        <use xlink:href="#rim" fill="#404040">
                                <set attributeName="fill" to="#808080" begin="zoomminus.mouseover" end="zoomminus.mouseout"/>
                        </use>
                        <path d="M-4,0h8" fill="none" stroke="white" stroke-width="1.5" pointer-events="none"/>
                </g>
                <g id="dirArrow">
                        <path fill="none" stroke="white" stroke-width="1.5" d="M0,-3.0v7 M-2.5,-0.5L0,-3.0L2.5,-0.5"/>
                </g>
               <g id="resetDef">
                       <use xlink:href="#rim2" fill="#404040">
                               <set attributeName="fill" to="#808080" begin="reset.mouseover" end="reset.mouseout"/>
                       </use>
               </g>
        </defs>

<script type="text/javascript">
var viewWidth = 1804;
var viewHeight = 364;
var sectionId = 'dynsection-0';
</script>
<script xlink:href="svgpan.js"/>
<svg id="graph" class="graph">
<g id="viewport">
<title>src/host/load_monitor.h</title>
<polygon fill="white" stroke="transparent" points="-4,4 -4,-360 1800,-360 1800,4 -4,4"/>
<!-- Node1 -->
<g id="node1" class="node">
<title>Node1</title>
<g id="a_node1"><a xlink:title=" ">
<polygon fill="#bfbfbf" stroke="black" points="1210.5,-336.5 1210.5,-355.5 1341.5,-355.5 1341.5,-336.5 1210.5,-336.5"/>
<text text-anchor="middle" x="1276" y="-343.5" font-family="Helvetica,sans-Serif" font-size="10.00">src/host/load_monitor.h</text>
</a>
</g>
</g>
<!-- Node2 -->
<g id="node2" class="node">
<title>Node2</title>
<g id="a_node2"><a xlink:href="messaging_8h.html" target="_top" xlink:title=" ">
<polygon fill="white" stroke="black" points="911.5,-280.5 911.5,-299.5 1004.5,-299.5 1004.5,-280.5 911.5,-280.5"/>
<text text-anchor="middle" x="958" y="-287.5" font-family="Helvetica,sans-Serif" font-size="10.00">ds/messaging.h</text>
</a>
</g>
</g>
<!-- Node1&#45;&gt;Node2 -->
<g id="edge1" class="edge">
<title>Node1&#45;&gt;Node2</title>
<path fill="none" stroke="midnightblue" d="M1225.61,-336.44C1168.16,-326.69 1074.48,-310.78 1014.58,-300.61"/>
<polygon fill="midnightblue" stroke="midnightblue" points="1014.98,-297.13 1004.53,-298.9 1013.8,-304.03 1014.98,-297.13"/>
</g>
<!-- Node40 -->
<g id="node40" class="node">
<title>Node40</title>
<g id="a_node40"><a xlink:href="timer_8h.html" target="_top" xlink:title=" ">
<polygon fill="white" stroke="black" points="1676.5,-280.5 1676.5,-299.5 1727.5,-299.5 1727.5,-280.5 1676.5,-280.5"/>
<text text-anchor="middle" x="1702" y="-287.5" font-family="Helvetica,sans-Serif" font-size="10.00">timer.h</text>
</a>
</g>
</g>
<!-- Node1&#45;&gt;Node40 -->
<g id="edge60" class="edge">
<title>Node1&#45;&gt;Node40</title>
<path fill="none" stroke="midnightblue" d="M1341.63,-336.68C1432.65,-325.14 1594.08,-304.68 1665.86,-295.58"/>
<polygon fill="midnightblue" stroke="midnightblue" points="1666.7,-299 1676.18,-294.27 1665.82,-292.06 1666.7,-299"/>
</g>
<!-- Node3 -->
<g id="node3" class="node">
<title>Node3</title>
<g id="a_node3"><a xlink:href="logger_8h.html" target="_top" xlink:title=" ">
<polygon fill="white" stroke="black" points="1101.5,-224.5 1101.5,-243.5 1188.5,-243.5 1188.5,-224.5 1101.5,-224.5"/>
<text text-anchor="middle" x="1145" y="-231.5" font-family="Helvetica,sans-Serif" font-size="10.00">ccf/ds/logger.h</text>
</a>
</g>
</g>
<!-- Node2&#45;&gt;Node3 -->
<g id="edge2" class="edge">
<title>Node2&#45;&gt;Node3</title>
<path fill="none" stroke="midnightblue" d="M987.63,-280.44C1019.5,-271.24 1070.33,-256.56 1105.56,-246.39"/>
<polygon fill="midnightblue" stroke="midnightblue" points="1106.87,-249.65 1115.51,-243.52 1104.93,-242.93 1106.87,-249.65"/>
</g>
<!-- Node9 -->
<g id="node9" class="node">
<title>Node9</title>
<g id="a_node9"><a xlink:title=" ">
<polygon fill="white" stroke="#bfbfbf" points="1629,-112.5 1629,-131.5 1667,-131.5 1667,-112.5 1629,-112.5"/>
<text text-anchor="middle" x="1648" y="-119.5" font-family="Helvetica,sans-Serif" font-size="10.00">map</text>
</a>
</g>
</g>
<!-- Node2&#45;&gt;Node9 -->
<g id="edge58" class="edge">
<title>Node2&#45;&gt;Node9</title>
<path fill="none" stroke="midnightblue" d="M1004.72,-288.3C1141.19,-285.32 1535.5,-269.66 1629,-188 1642.13,-176.54 1646.42,-156.56 1647.71,-141.77"/>
<polygon fill="midnightblue" stroke="midnightblue" points="1651.21,-141.86 1648.21,-131.7 1644.22,-141.51 1651.21,-141.86"/>
</g>
<!-- Node17 -->
<g id="node17" class="node">
<title>Node17</title>
<g id="a_node17"><a xlink:href="ring__buffer_8h.html" target="_top" xlink:title=" ">
<polygon fill="white" stroke="black" points="664.5,-224.5 664.5,-243.5 741.5,-243.5 741.5,-224.5 664.5,-224.5"/>
<text text-anchor="middle" x="703" y="-231.5" font-family="Helvetica,sans-Serif" font-size="10.00">ring_buffer.h</text>
</a>
</g>
</g>
<!-- Node2&#45;&gt;Node17 -->
<g id="edge18" class="edge">
<title>Node2&#45;&gt;Node17</title>
<path fill="none" stroke="midnightblue" d="M917.59,-280.44C872.49,-270.89 799.54,-255.44 751.42,-245.25"/>
<polygon fill="midnightblue" stroke="midnightblue" points="752.06,-241.81 741.55,-243.16 750.61,-248.66 752.06,-241.81"/>
</g>
<!-- Node34 -->
<g id="node34" class="node">
<title>Node34</title>
<g id="a_node34"><a xlink:title=" ">
<polygon fill="white" stroke="#bfbfbf" points="8.5,-0.5 8.5,-19.5 73.5,-19.5 73.5,-0.5 8.5,-0.5"/>
<text text-anchor="middle" x="41" y="-7.5" font-family="Helvetica,sans-Serif" font-size="10.00">stdexcept</text>
</a>
</g>
</g>
<!-- Node2&#45;&gt;Node34 -->
<g id="edge59" class="edge">
<title>Node2&#45;&gt;Node34</title>
<path fill="none" stroke="midnightblue" d="M911.47,-288.61C719.62,-286.39 0,-271.86 0,-179 0,-179 0,-179 0,-121 0,-86.52 17.91,-49.56 30.06,-28.47"/>
<polygon fill="midnightblue" stroke="midnightblue" points="33.16,-30.09 35.3,-19.71 27.16,-26.49 33.16,-30.09"/>
</g>
<!-- Node37 -->
<g id="node37" class="node">
<title>Node37</title>
<g id="a_node37"><a xlink:title=" ">
<polygon fill="white" stroke="#bfbfbf" points="837,-112.5 837,-131.5 887,-131.5 887,-112.5 837,-112.5"/>
<text text-anchor="middle" x="862" y="-119.5" font-family="Helvetica,sans-Serif" font-size="10.00">atomic</text>
</a>
</g>
</g>
<!-- Node2&#45;&gt;Node37 -->
<g id="edge56" class="edge">
<title>Node2&#45;&gt;Node37</title>
<path fill="none" stroke="midnightblue" d="M942.62,-280.33C918.01,-265.35 871.21,-231.95 858,-188 853.42,-172.77 855.08,-154.66 857.51,-141.43"/>
<polygon fill="midnightblue" stroke="midnightblue" points="860.93,-142.14 859.6,-131.63 854.09,-140.68 860.93,-142.14"/>
</g>
<!-- Node39 -->
<g id="node39" class="node">
<title>Node39</title>
<g id="a_node39"><a xlink:title=" ">
<polygon fill="white" stroke="#bfbfbf" points="904.5,-224.5 904.5,-243.5 1011.5,-243.5 1011.5,-224.5 904.5,-224.5"/>
<text text-anchor="middle" x="958" y="-231.5" font-family="Helvetica,sans-Serif" font-size="10.00">condition_variable</text>
</a>
</g>
</g>
<!-- Node2&#45;&gt;Node39 -->
<g id="edge57" class="edge">
<title>Node2&#45;&gt;Node39</title>
<path fill="none" stroke="midnightblue" d="M958,-280.08C958,-273.01 958,-262.86 958,-253.99"/>
<polygon fill="midnightblue" stroke="midnightblue" points="961.5,-253.75 958,-243.75 954.5,-253.75 961.5,-253.75"/>
</g>
<!-- Node4 -->
<g id="node4" class="node">
<title>Node4</title>
<g id="a_node4"><a xlink:href="enum__formatter_8h.html" target="_top" xlink:title=" ">
<polygon fill="white" stroke="black" points="1017,-168.5 1017,-187.5 1153,-187.5 1153,-168.5 1017,-168.5"/>
<text text-anchor="middle" x="1085" y="-175.5" font-family="Helvetica,sans-Serif" font-size="10.00">ccf/ds/enum_formatter.h</text>
</a>
</g>
</g>
<!-- Node3&#45;&gt;Node4 -->
<g id="edge3" class="edge">
<title>Node3&#45;&gt;Node4</title>
<path fill="none" stroke="midnightblue" d="M1135.36,-224.32C1126.49,-216.34 1113.13,-204.31 1102.39,-194.65"/>
<polygon fill="midnightblue" stroke="midnightblue" points="1104.59,-191.92 1094.82,-187.83 1099.91,-197.13 1104.59,-191.92"/>
</g>
<!-- Node5 -->
<g id="node5" class="node">
<title>Node5</title>
<g id="a_node5"><a xlink:title=" ">
<polygon fill="white" stroke="#bfbfbf" points="1093.5,-112.5 1093.5,-131.5 1172.5,-131.5 1172.5,-112.5 1093.5,-112.5"/>
<text text-anchor="middle" x="1133" y="-119.5" font-family="Helvetica,sans-Serif" font-size="10.00">fmt/format.h</text>
</a>
</g>
</g>
<!-- Node3&#45;&gt;Node5 -->
<g id="edge12" class="edge">
<title>Node3&#45;&gt;Node5</title>
<path fill="none" stroke="midnightblue" d="M1150.41,-224.12C1157.35,-211.56 1167.86,-187.92 1162,-168 1158.99,-157.76 1152.85,-147.66 1146.99,-139.63"/>
<polygon fill="midnightblue" stroke="midnightblue" points="1149.59,-137.27 1140.67,-131.54 1144.07,-141.58 1149.59,-137.27"/>
</g>
<!-- Node6 -->
<g id="node6" class="node">
<title>Node6</title>
<g id="a_node6"><a xlink:href="thread__ids_8h.html" target="_top" xlink:title=" ">
<polygon fill="white" stroke="black" points="1512,-168.5 1512,-187.5 1620,-187.5 1620,-168.5 1512,-168.5"/>
<text text-anchor="middle" x="1566" y="-175.5" font-family="Helvetica,sans-Serif" font-size="10.00">ccf/ds/thread_ids.h</text>
</a>
</g>
</g>
<!-- Node3&#45;&gt;Node6 -->
<g id="edge5" class="edge">
<title>Node3&#45;&gt;Node6</title>
<path fill="none" stroke="midnightblue" d="M1188.57,-227.76C1254.15,-219.83 1382.43,-204.1 1501.68,-188.16"/>
<polygon fill="midnightblue" stroke="midnightblue" points="1502.27,-191.61 1511.71,-186.81 1501.34,-184.67 1502.27,-191.61"/>
</g>
<!-- Node11 -->
<g id="node11" class="node">
<title>Node11</title>
<g id="a_node11"><a xlink:title=" ">
<polygon fill="white" stroke="#bfbfbf" points="1209.5,-168.5 1209.5,-187.5 1288.5,-187.5 1288.5,-168.5 1209.5,-168.5"/>
<text text-anchor="middle" x="1249" y="-175.5" font-family="Helvetica,sans-Serif" font-size="10.00">fmt/chrono.h</text>
</a>
</g>
</g>
<!-- Node3&#45;&gt;Node11 -->
<g id="edge11" class="edge">
<title>Node3&#45;&gt;Node11</title>
<path fill="none" stroke="midnightblue" d="M1161.71,-224.32C1178.31,-215.7 1204,-202.36 1223.22,-192.39"/>
<polygon fill="midnightblue" stroke="midnightblue" points="1225.07,-195.37 1232.33,-187.65 1221.84,-189.16 1225.07,-195.37"/>
</g>
<!-- Node12 -->
<g id="node12" class="node">
<title>Node12</title>
<g id="a_node12"><a xlink:title=" ">
<polygon fill="white" stroke="#bfbfbf" points="1306,-168.5 1306,-187.5 1366,-187.5 1366,-168.5 1306,-168.5"/>
<text text-anchor="middle" x="1336" y="-175.5" font-family="Helvetica,sans-Serif" font-size="10.00">iostream</text>
</a>
</g>
</g>
<!-- Node3&#45;&gt;Node12 -->
<g id="edge13" class="edge">
<title>Node3&#45;&gt;Node12</title>
<path fill="none" stroke="midnightblue" d="M1175.26,-224.44C1207.96,-215.2 1260.18,-200.44 1296.18,-190.26"/>
<polygon fill="midnightblue" stroke="midnightblue" points="1297.21,-193.61 1305.88,-187.52 1295.3,-186.87 1297.21,-193.61"/>
</g>
<!-- Node13 -->
<g id="node13" class="node">
<title>Node13</title>
<g id="a_node13"><a xlink:title=" ">
<polygon fill="white" stroke="#bfbfbf" points="1384,-168.5 1384,-187.5 1494,-187.5 1494,-168.5 1384,-168.5"/>
<text text-anchor="middle" x="1439" y="-175.5" font-family="Helvetica,sans-Serif" font-size="10.00">nlohmann/json.hpp</text>
</a>
</g>
</g>
<!-- Node3&#45;&gt;Node13 -->
<g id="edge14" class="edge">
<title>Node3&#45;&gt;Node13</title>
<path fill="none" stroke="midnightblue" d="M1188.7,-224.97C1240.3,-215.5 1326.26,-199.71 1382.78,-189.33"/>
<polygon fill="midnightblue" stroke="midnightblue" points="1383.43,-192.77 1392.63,-187.52 1382.17,-185.88 1383.43,-192.77"/>
</g>
<!-- Node14 -->
<g id="node14" class="node">
<title>Node14</title>
<g id="a_node14"><a xlink:title=" ">
<polygon fill="white" stroke="#bfbfbf" points="905,-112.5 905,-131.5 961,-131.5 961,-112.5 905,-112.5"/>
<text text-anchor="middle" x="933" y="-119.5" font-family="Helvetica,sans-Serif" font-size="10.00">optional</text>
</a>
</g>
</g>
<!-- Node3&#45;&gt;Node14 -->
<g id="edge15" class="edge">
<title>Node3&#45;&gt;Node14</title>
<path fill="none" stroke="midnightblue" d="M1101.49,-230.17C1064.75,-225.87 1012.31,-215.08 975,-188 958.73,-176.19 947.13,-155.97 940.3,-141.21"/>
<polygon fill="midnightblue" stroke="midnightblue" points="943.34,-139.43 936.17,-131.63 936.91,-142.2 943.34,-139.43"/>
</g>
<!-- Node15 -->
<g id="node15" class="node">
<title>Node15</title>
<g id="a_node15"><a xlink:title=" ">
<polygon fill="white" stroke="#bfbfbf" points="867,-168.5 867,-187.5 923,-187.5 923,-168.5 867,-168.5"/>
<text text-anchor="middle" x="895" y="-175.5" font-family="Helvetica,sans-Serif" font-size="10.00">sstream</text>
</a>
</g>
</g>
<!-- Node3&#45;&gt;Node15 -->
<g id="edge16" class="edge">
<title>Node3&#45;&gt;Node15</title>
<path fill="none" stroke="midnightblue" d="M1105.39,-224.44C1058.15,-214.24 979.77,-197.31 933.18,-187.25"/>
<polygon fill="midnightblue" stroke="midnightblue" points="933.69,-183.78 923.18,-185.09 932.21,-190.62 933.69,-183.78"/>
</g>
<!-- Node16 -->
<g id="node16" class="node">
<title>Node16</title>
<g id="a_node16"><a xlink:title=" ">
<polygon fill="white" stroke="#bfbfbf" points="939.5,-0.5 939.5,-19.5 1008.5,-19.5 1008.5,-0.5 939.5,-0.5"/>
<text text-anchor="middle" x="974" y="-7.5" font-family="Helvetica,sans-Serif" font-size="10.00">type_traits</text>
</a>
</g>
</g>
<!-- Node3&#45;&gt;Node16 -->
<g id="edge17" class="edge">
<title>Node3&#45;&gt;Node16</title>
<path fill="none" stroke="midnightblue" d="M1101.34,-230.01C1070.79,-225.54 1031.4,-214.59 1008,-188 968.26,-142.83 969.03,-65.67 971.88,-30.05"/>
<polygon fill="midnightblue" stroke="midnightblue" points="975.41,-29.96 972.87,-19.67 968.44,-29.29 975.41,-29.96"/>
</g>
<!-- Node4&#45;&gt;Node5 -->
<g id="edge4" class="edge">
<title>Node4&#45;&gt;Node5</title>
<path fill="none" stroke="midnightblue" d="M1092.93,-168.08C1099.85,-160.3 1110.07,-148.8 1118.45,-139.37"/>
<polygon fill="midnightblue" stroke="midnightblue" points="1121.19,-141.55 1125.22,-131.75 1115.96,-136.9 1121.19,-141.55"/>
</g>
<!-- Node6&#45;&gt;Node5 -->
<g id="edge6" class="edge">
<title>Node6&#45;&gt;Node5</title>
<path fill="none" stroke="midnightblue" d="M1511.71,-169.17C1508.77,-168.77 1505.85,-168.38 1503,-168 1388.51,-152.86 1253.82,-136.96 1182.75,-128.72"/>
<polygon fill="midnightblue" stroke="midnightblue" points="1183.07,-125.23 1172.73,-127.56 1182.26,-132.18 1183.07,-125.23"/>
</g>
<!-- Node7 -->
<g id="node7" class="node">
<title>Node7</title>
<g id="a_node7"><a xlink:title=" ">
<polygon fill="white" stroke="#bfbfbf" points="1397,-112.5 1397,-131.5 1483,-131.5 1483,-112.5 1397,-112.5"/>
<text text-anchor="middle" x="1440" y="-119.5" font-family="Helvetica,sans-Serif" font-size="10.00">fmt/ostream.h</text>
</a>
</g>
</g>
<!-- Node6&#45;&gt;Node7 -->
<g id="edge7" class="edge">
<title>Node6&#45;&gt;Node7</title>
<path fill="none" stroke="midnightblue" d="M1546.03,-168.44C1525.39,-159.6 1492.94,-145.69 1469.37,-135.59"/>
<polygon fill="midnightblue" stroke="midnightblue" points="1470.44,-132.24 1459.87,-131.52 1467.68,-138.67 1470.44,-132.24"/>
</g>
<!-- Node8 -->
<g id="node8" class="node">
<title>Node8</title>
<g id="a_node8"><a xlink:title=" ">
<polygon fill="white" stroke="#bfbfbf" points="1501,-112.5 1501,-131.5 1545,-131.5 1545,-112.5 1501,-112.5"/>
<text text-anchor="middle" x="1523" y="-119.5" font-family="Helvetica,sans-Serif" font-size="10.00">limits</text>
</a>
</g>
</g>
<!-- Node6&#45;&gt;Node8 -->
<g id="edge8" class="edge">
<title>Node6&#45;&gt;Node8</title>
<path fill="none" stroke="midnightblue" d="M1558.9,-168.08C1552.76,-160.38 1543.73,-149.03 1536.26,-139.65"/>
<polygon fill="midnightblue" stroke="midnightblue" points="1538.94,-137.39 1529.97,-131.75 1533.46,-141.75 1538.94,-137.39"/>
</g>
<!-- Node6&#45;&gt;Node9 -->
<g id="edge9" class="edge">
<title>Node6&#45;&gt;Node9</title>
<path fill="none" stroke="midnightblue" d="M1579.17,-168.32C1591.85,-159.98 1611.23,-147.21 1626.21,-137.35"/>
<polygon fill="midnightblue" stroke="midnightblue" points="1628.43,-140.08 1634.86,-131.65 1624.58,-134.23 1628.43,-140.08"/>
</g>
<!-- Node10 -->
<g id="node10" class="node">
<title>Node10</title>
<g id="a_node10"><a xlink:title=" ">
<polygon fill="white" stroke="#bfbfbf" points="1563,-112.5 1563,-131.5 1611,-131.5 1611,-112.5 1563,-112.5"/>
<text text-anchor="middle" x="1587" y="-119.5" font-family="Helvetica,sans-Serif" font-size="10.00">thread</text>
</a>
</g>
</g>
<!-- Node6&#45;&gt;Node10 -->
<g id="edge10" class="edge">
<title>Node6&#45;&gt;Node10</title>
<path fill="none" stroke="midnightblue" d="M1569.47,-168.08C1572.31,-160.77 1576.43,-150.18 1579.96,-141.1"/>
<polygon fill="midnightblue" stroke="midnightblue" points="1583.23,-142.34 1583.6,-131.75 1576.71,-139.8 1583.23,-142.34"/>
</g>
<!-- Node18 -->
<g id="node18" class="node">
<title>Node18</title>
<g id="a_node18"><a xlink:href="ring__buffer__types_8h.html" target="_top" xlink:title=" ">
<polygon fill="white" stroke="black" points="701,-168.5 701,-187.5 811,-187.5 811,-168.5 701,-168.5"/>
<text text-anchor="middle" x="756" y="-175.5" font-family="Helvetica,sans-Serif" font-size="10.00">ring_buffer_types.h</text>
</a>
</g>
</g>
<!-- Node17&#45;&gt;Node18 -->
<g id="edge19" class="edge">
<title>Node17&#45;&gt;Node18</title>
<path fill="none" stroke="midnightblue" d="M711.75,-224.08C719.47,-216.22 730.9,-204.57 740.22,-195.08"/>
<polygon fill="midnightblue" stroke="midnightblue" points="742.9,-197.34 747.41,-187.75 737.91,-192.44 742.9,-197.34"/>
</g>
<!-- Node33 -->
<g id="node33" class="node">
<title>Node33</title>
<g id="a_node33"><a xlink:title=" ">
<polygon fill="white" stroke="#bfbfbf" points="173,-0.5 173,-19.5 223,-19.5 223,-0.5 173,-0.5"/>
<text text-anchor="middle" x="198" y="-7.5" font-family="Helvetica,sans-Serif" font-size="10.00">cstring</text>
</a>
</g>
</g>
<!-- Node17&#45;&gt;Node33 -->
<g id="edge54" class="edge">
<title>Node17&#45;&gt;Node33</title>
<path fill="none" stroke="midnightblue" d="M664.49,-229.25C540.97,-216.35 158.59,-169.37 86,-76 62.15,-45.32 121.57,-26.44 162.68,-17.41"/>
<polygon fill="midnightblue" stroke="midnightblue" points="163.6,-20.79 172.68,-15.32 162.17,-13.94 163.6,-20.79"/>
</g>
<!-- Node38 -->
<g id="node38" class="node">
<title>Node38</title>
<g id="a_node38"><a xlink:title=" ">
<polygon fill="white" stroke="#bfbfbf" points="617.5,-168.5 617.5,-187.5 682.5,-187.5 682.5,-168.5 617.5,-168.5"/>
<text text-anchor="middle" x="650" y="-175.5" font-family="Helvetica,sans-Serif" font-size="10.00">functional</text>
</a>
</g>
</g>
<!-- Node17&#45;&gt;Node38 -->
<g id="edge55" class="edge">
<title>Node17&#45;&gt;Node38</title>
<path fill="none" stroke="midnightblue" d="M694.25,-224.08C686.53,-216.22 675.1,-204.57 665.78,-195.08"/>
<polygon fill="midnightblue" stroke="midnightblue" points="668.09,-192.44 658.59,-187.75 663.1,-197.34 668.09,-192.44"/>
</g>
<!-- Node18&#45;&gt;Node5 -->
<g id="edge50" class="edge">
<title>Node18&#45;&gt;Node5</title>
<path fill="none" stroke="midnightblue" d="M811.22,-169.09C884.62,-158.58 1013.2,-140.16 1083.55,-130.08"/>
<polygon fill="midnightblue" stroke="midnightblue" points="1084.09,-133.54 1093.5,-128.66 1083.1,-126.61 1084.09,-133.54"/>
</g>
<!-- Node18&#45;&gt;Node14 -->
<g id="edge51" class="edge">
<title>Node18&#45;&gt;Node14</title>
<path fill="none" stroke="midnightblue" d="M784.05,-168.44C814.08,-159.28 861.91,-144.69 895.24,-134.52"/>
<polygon fill="midnightblue" stroke="midnightblue" points="896.54,-137.78 905.09,-131.52 894.5,-131.09 896.54,-137.78"/>
</g>
<!-- Node19 -->
<g id="node19" class="node">
<title>Node19</title>
<g id="a_node19"><a xlink:href="nonstd_8h.html" target="_top" xlink:title=" ">
<polygon fill="white" stroke="black" points="763,-56.5 763,-75.5 853,-75.5 853,-56.5 763,-56.5"/>
<text text-anchor="middle" x="808" y="-63.5" font-family="Helvetica,sans-Serif" font-size="10.00">ccf/ds/nonstd.h</text>
</a>
</g>
</g>
<!-- Node18&#45;&gt;Node19 -->
<g id="edge20" class="edge">
<title>Node18&#45;&gt;Node19</title>
<path fill="none" stroke="midnightblue" d="M760.08,-168.37C768.55,-150.46 788.18,-108.92 799.52,-84.95"/>
<polygon fill="midnightblue" stroke="midnightblue" points="802.83,-86.13 803.94,-75.59 796.5,-83.14 802.83,-86.13"/>
</g>
<!-- Node23 -->
<g id="node23" class="node">
<title>Node23</title>
<g id="a_node23"><a xlink:title=" ">
<polygon fill="white" stroke="#bfbfbf" points="786,-0.5 786,-19.5 830,-19.5 830,-0.5 786,-0.5"/>
<text text-anchor="middle" x="808" y="-7.5" font-family="Helvetica,sans-Serif" font-size="10.00">string</text>
</a>
</g>
</g>
<!-- Node18&#45;&gt;Node23 -->
<g id="edge52" class="edge">
<title>Node18&#45;&gt;Node23</title>
<path fill="none" stroke="midnightblue" d="M765.51,-168.32C791.05,-144.95 859.4,-82.07 862,-76 870.64,-55.84 850.76,-37.05 832.73,-24.91"/>
<polygon fill="midnightblue" stroke="midnightblue" points="834.49,-21.88 824.17,-19.51 830.76,-27.81 834.49,-21.88"/>
</g>
<!-- Node25 -->
<g id="node25" class="node">
<title>Node25</title>
<g id="a_node25"><a xlink:title=" ">
<polygon fill="white" stroke="#bfbfbf" points="467.5,-0.5 467.5,-19.5 514.5,-19.5 514.5,-0.5 467.5,-0.5"/>
<text text-anchor="middle" x="491" y="-7.5" font-family="Helvetica,sans-Serif" font-size="10.00">vector</text>
</a>
</g>
</g>
<!-- Node18&#45;&gt;Node25 -->
<g id="edge53" class="edge">
<title>Node18&#45;&gt;Node25</title>
<path fill="none" stroke="midnightblue" d="M737.01,-168.47C718.18,-159.83 688.66,-145.82 664,-132 623.56,-109.34 614,-102.55 576,-76 552.53,-59.6 526.51,-39.39 509.52,-25.9"/>
<polygon fill="midnightblue" stroke="midnightblue" points="511.51,-23.01 501.51,-19.51 507.15,-28.48 511.51,-23.01"/>
</g>
<!-- Node26 -->
<g id="node26" class="node">
<title>Node26</title>
<g id="a_node26"><a xlink:href="ds_2hash_8h.html" target="_top" xlink:title=" ">
<polygon fill="white" stroke="black" points="404.5,-112.5 404.5,-131.5 467.5,-131.5 467.5,-112.5 404.5,-112.5"/>
<text text-anchor="middle" x="436" y="-119.5" font-family="Helvetica,sans-Serif" font-size="10.00">ds/hash.h</text>
</a>
</g>
</g>
<!-- Node18&#45;&gt;Node26 -->
<g id="edge28" class="edge">
<title>Node18&#45;&gt;Node26</title>
<path fill="none" stroke="midnightblue" d="M705.3,-168.44C642.29,-157.81 535.96,-139.87 477.54,-130.01"/>
<polygon fill="midnightblue" stroke="midnightblue" points="478,-126.54 467.55,-128.32 476.83,-133.44 478,-126.54"/>
</g>
<!-- Node31 -->
<g id="node31" class="node">
<title>Node31</title>
<g id="a_node31"><a xlink:href="serializer_8h.html" target="_top" xlink:title=" ">
<polygon fill="white" stroke="black" points="673,-112.5 673,-131.5 743,-131.5 743,-112.5 673,-112.5"/>
<text text-anchor="middle" x="708" y="-119.5" font-family="Helvetica,sans-Serif" font-size="10.00">serializer.h</text>
</a>
</g>
</g>
<!-- Node18&#45;&gt;Node31 -->
<g id="edge37" class="edge">
<title>Node18&#45;&gt;Node31</title>
<path fill="none" stroke="midnightblue" d="M748.07,-168.08C741.15,-160.3 730.93,-148.8 722.55,-139.37"/>
<polygon fill="midnightblue" stroke="midnightblue" points="725.04,-136.9 715.78,-131.75 719.81,-141.55 725.04,-136.9"/>
</g>
<!-- Node18&#45;&gt;Node37 -->
<g id="edge49" class="edge">
<title>Node18&#45;&gt;Node37</title>
<path fill="none" stroke="midnightblue" d="M773.03,-168.32C790.03,-159.66 816.38,-146.24 835.99,-136.25"/>
<polygon fill="midnightblue" stroke="midnightblue" points="837.69,-139.31 845.01,-131.65 834.51,-133.08 837.69,-139.31"/>
</g>
<!-- Node19&#45;&gt;Node16 -->
<g id="edge26" class="edge">
<title>Node19&#45;&gt;Node16</title>
<path fill="none" stroke="midnightblue" d="M834.3,-56.44C862.35,-47.32 906.94,-32.81 938.18,-22.65"/>
<polygon fill="midnightblue" stroke="midnightblue" points="939.39,-25.94 947.82,-19.52 937.23,-19.28 939.39,-25.94"/>
</g>
<!-- Node20 -->
<g id="node20" class="node">
<title>Node20</title>
<g id="a_node20"><a xlink:title=" ">
<polygon fill="white" stroke="#bfbfbf" points="636,-0.5 636,-19.5 700,-19.5 700,-0.5 636,-0.5"/>
<text text-anchor="middle" x="668" y="-7.5" font-family="Helvetica,sans-Serif" font-size="10.00">algorithm</text>
</a>
</g>
</g>
<!-- Node19&#45;&gt;Node20 -->
<g id="edge21" class="edge">
<title>Node19&#45;&gt;Node20</title>
<path fill="none" stroke="midnightblue" d="M785.82,-56.44C762.57,-47.48 725.85,-33.31 699.58,-23.18"/>
<polygon fill="midnightblue" stroke="midnightblue" points="700.67,-19.85 690.08,-19.52 698.15,-26.38 700.67,-19.85"/>
</g>
<!-- Node21 -->
<g id="node21" class="node">
<title>Node21</title>
<g id="a_node21"><a xlink:title=" ">
<polygon fill="white" stroke="#bfbfbf" points="558,-0.5 558,-19.5 600,-19.5 600,-0.5 558,-0.5"/>
<text text-anchor="middle" x="579" y="-7.5" font-family="Helvetica,sans-Serif" font-size="10.00">array</text>
</a>
</g>
</g>
<!-- Node19&#45;&gt;Node21 -->
<g id="edge22" class="edge">
<title>Node19&#45;&gt;Node21</title>
<path fill="none" stroke="midnightblue" d="M771.71,-56.44C727.07,-45.92 652.03,-28.22 609.98,-18.3"/>
<polygon fill="midnightblue" stroke="midnightblue" points="610.57,-14.85 600.03,-15.96 608.96,-21.66 610.57,-14.85"/>
</g>
<!-- Node22 -->
<g id="node22" class="node">
<title>Node22</title>
<g id="a_node22"><a xlink:title=" ">
<polygon fill="white" stroke="#bfbfbf" points="718.5,-0.5 718.5,-19.5 767.5,-19.5 767.5,-0.5 718.5,-0.5"/>
<text text-anchor="middle" x="743" y="-7.5" font-family="Helvetica,sans-Serif" font-size="10.00">cctype</text>
</a>
</g>
</g>
<!-- Node19&#45;&gt;Node22 -->
<g id="edge23" class="edge">
<title>Node19&#45;&gt;Node22</title>
<path fill="none" stroke="midnightblue" d="M797.56,-56.32C787.85,-48.26 773.18,-36.08 761.5,-26.37"/>
<polygon fill="midnightblue" stroke="midnightblue" points="763.56,-23.53 753.63,-19.83 759.09,-28.92 763.56,-23.53"/>
</g>
<!-- Node19&#45;&gt;Node23 -->
<g id="edge24" class="edge">
<title>Node19&#45;&gt;Node23</title>
<path fill="none" stroke="midnightblue" d="M808,-56.08C808,-49.01 808,-38.86 808,-29.99"/>
<polygon fill="midnightblue" stroke="midnightblue" points="811.5,-29.75 808,-19.75 804.5,-29.75 811.5,-29.75"/>
</g>
<!-- Node24 -->
<g id="node24" class="node">
<title>Node24</title>
<g id="a_node24"><a xlink:title=" ">
<polygon fill="white" stroke="#bfbfbf" points="848.5,-0.5 848.5,-19.5 921.5,-19.5 921.5,-0.5 848.5,-0.5"/>
<text text-anchor="middle" x="885" y="-7.5" font-family="Helvetica,sans-Serif" font-size="10.00">string_view</text>
</a>
</g>
</g>
<!-- Node19&#45;&gt;Node24 -->
<g id="edge25" class="edge">
<title>Node19&#45;&gt;Node24</title>
<path fill="none" stroke="midnightblue" d="M820.37,-56.32C832.16,-48.06 850.13,-35.45 864.14,-25.63"/>
<polygon fill="midnightblue" stroke="midnightblue" points="866.48,-28.26 872.66,-19.65 862.46,-22.53 866.48,-28.26"/>
</g>
<!-- Node19&#45;&gt;Node25 -->
<g id="edge27" class="edge">
<title>Node19&#45;&gt;Node25</title>
<path fill="none" stroke="midnightblue" d="M762.92,-57.32C698.55,-46.36 581.78,-26.46 524.5,-16.71"/>
<polygon fill="midnightblue" stroke="midnightblue" points="524.97,-13.24 514.53,-15.01 523.8,-20.14 524.97,-13.24"/>
</g>
<!-- Node26&#45;&gt;Node21 -->
<g id="edge33" class="edge">
<title>Node26&#45;&gt;Node21</title>
<path fill="none" stroke="midnightblue" d="M447.22,-112.37C471.55,-93.65 529.4,-49.15 559.72,-25.83"/>
<polygon fill="midnightblue" stroke="midnightblue" points="562.04,-28.46 567.83,-19.59 557.77,-22.91 562.04,-28.46"/>
</g>
<!-- Node26&#45;&gt;Node25 -->
<g id="edge36" class="edge">
<title>Node26&#45;&gt;Node25</title>
<path fill="none" stroke="midnightblue" d="M442.3,-112.34C448.56,-103.49 458.18,-89.21 465,-76 472.84,-60.81 479.91,-42.7 484.69,-29.45"/>
<polygon fill="midnightblue" stroke="midnightblue" points="488.13,-30.24 488.14,-19.64 481.52,-27.92 488.13,-30.24"/>
</g>
<!-- Node27 -->
<g id="node27" class="node">
<title>Node27</title>
<g id="a_node27"><a xlink:href="siphash_8h.html" target="_top" xlink:title=" ">
<polygon fill="white" stroke="black" points="361.5,-56.5 361.5,-75.5 456.5,-75.5 456.5,-56.5 361.5,-56.5"/>
<text text-anchor="middle" x="409" y="-63.5" font-family="Helvetica,sans-Serif" font-size="10.00">ccf/ds/siphash.h</text>
</a>
</g>
</g>
<!-- Node26&#45;&gt;Node27 -->
<g id="edge29" class="edge">
<title>Node26&#45;&gt;Node27</title>
<path fill="none" stroke="midnightblue" d="M431.54,-112.08C427.85,-104.69 422.48,-93.95 417.91,-84.81"/>
<polygon fill="midnightblue" stroke="midnightblue" points="420.98,-83.13 413.38,-75.75 414.72,-86.26 420.98,-83.13"/>
</g>
<!-- Node29 -->
<g id="node29" class="node">
<title>Node29</title>
<g id="a_node29"><a xlink:title=" ">
<polygon fill="white" stroke="#bfbfbf" points="282,-0.5 282,-19.5 332,-19.5 332,-0.5 282,-0.5"/>
<text text-anchor="middle" x="307" y="-7.5" font-family="Helvetica,sans-Serif" font-size="10.00">cstdint</text>
</a>
</g>
</g>
<!-- Node26&#45;&gt;Node29 -->
<g id="edge34" class="edge">
<title>Node26&#45;&gt;Node29</title>
<path fill="none" stroke="midnightblue" d="M404.28,-119.17C323.4,-114.2 114.34,-99.19 94,-76 88.14,-69.32 88.4,-62.9 94,-56 105.15,-42.25 214.05,-24.53 271.66,-16.01"/>
<polygon fill="midnightblue" stroke="midnightblue" points="272.4,-19.44 281.78,-14.53 271.38,-12.51 272.4,-19.44"/>
</g>
<!-- Node30 -->
<g id="node30" class="node">
<title>Node30</title>
<g id="a_node30"><a xlink:title=" ">
<polygon fill="white" stroke="#bfbfbf" points="103.5,-56.5 103.5,-75.5 252.5,-75.5 252.5,-56.5 103.5,-56.5"/>
<text text-anchor="middle" x="178" y="-63.5" font-family="Helvetica,sans-Serif" font-size="10.00">small_vector/SmallVector.h</text>
</a>
</g>
</g>
<!-- Node26&#45;&gt;Node30 -->
<g id="edge35" class="edge">
<title>Node26&#45;&gt;Node30</title>
<path fill="none" stroke="midnightblue" d="M404.36,-114.38C360.59,-105.22 281.06,-88.57 228.88,-77.65"/>
<polygon fill="midnightblue" stroke="midnightblue" points="229.33,-74.17 218.83,-75.55 227.9,-81.02 229.33,-74.17"/>
</g>
<!-- Node27&#45;&gt;Node25 -->
<g id="edge32" class="edge">
<title>Node27&#45;&gt;Node25</title>
<path fill="none" stroke="midnightblue" d="M422.17,-56.32C434.85,-47.98 454.23,-35.21 469.21,-25.35"/>
<polygon fill="midnightblue" stroke="midnightblue" points="471.43,-28.08 477.86,-19.65 467.58,-22.23 471.43,-28.08"/>
</g>
<!-- Node28 -->
<g id="node28" class="node">
<title>Node28</title>
<g id="a_node28"><a xlink:title=" ">
<polygon fill="white" stroke="#bfbfbf" points="382.5,-0.5 382.5,-19.5 435.5,-19.5 435.5,-0.5 382.5,-0.5"/>
<text text-anchor="middle" x="409" y="-7.5" font-family="Helvetica,sans-Serif" font-size="10.00">cstddef</text>
</a>
</g>
</g>
<!-- Node27&#45;&gt;Node28 -->
<g id="edge30" class="edge">
<title>Node27&#45;&gt;Node28</title>
<path fill="none" stroke="midnightblue" d="M409,-56.08C409,-49.01 409,-38.86 409,-29.99"/>
<polygon fill="midnightblue" stroke="midnightblue" points="412.5,-29.75 409,-19.75 405.5,-29.75 412.5,-29.75"/>
</g>
<!-- Node27&#45;&gt;Node29 -->
<g id="edge31" class="edge">
<title>Node27&#45;&gt;Node29</title>
<path fill="none" stroke="midnightblue" d="M392.61,-56.32C376.33,-47.7 351.13,-34.36 332.28,-24.39"/>
<polygon fill="midnightblue" stroke="midnightblue" points="333.82,-21.24 323.35,-19.65 330.55,-27.43 333.82,-21.24"/>
</g>
<!-- Node31&#45;&gt;Node16 -->
<g id="edge47" class="edge">
<title>Node31&#45;&gt;Node16</title>
<path fill="none" stroke="midnightblue" d="M743.09,-113.31C774.85,-105.76 822.58,-92.9 862,-76 895.27,-61.74 930.99,-39.7 952.92,-25.32"/>
<polygon fill="midnightblue" stroke="midnightblue" points="955.04,-28.11 961.43,-19.66 951.16,-22.28 955.04,-28.11"/>
</g>
<!-- Node31&#45;&gt;Node19 -->
<g id="edge38" class="edge">
<title>Node31&#45;&gt;Node19</title>
<path fill="none" stroke="midnightblue" d="M724.07,-112.32C739.96,-103.74 764.51,-90.49 782.96,-80.52"/>
<polygon fill="midnightblue" stroke="midnightblue" points="784.84,-83.49 791.97,-75.65 781.51,-77.33 784.84,-83.49"/>
</g>
<!-- Node31&#45;&gt;Node25 -->
<g id="edge48" class="edge">
<title>Node31&#45;&gt;Node25</title>
<path fill="none" stroke="midnightblue" d="M690.72,-112.42C672.59,-103.4 643.25,-88.78 618,-76 582.92,-58.25 542.52,-37.53 516.88,-24.34"/>
<polygon fill="midnightblue" stroke="midnightblue" points="518.31,-21.14 507.82,-19.67 515.11,-27.36 518.31,-21.14"/>
</g>
<!-- Node32 -->
<g id="node32" class="node">
<title>Node32</title>
<g id="a_node32"><a xlink:href="serialized_8h.html" target="_top" xlink:title=" ">
<polygon fill="white" stroke="black" points="270.5,-56.5 270.5,-75.5 343.5,-75.5 343.5,-56.5 270.5,-56.5"/>
<text text-anchor="middle" x="307" y="-63.5" font-family="Helvetica,sans-Serif" font-size="10.00">serialized.h</text>
</a>
</g>
</g>
<!-- Node31&#45;&gt;Node32 -->
<g id="edge39" class="edge">
<title>Node31&#45;&gt;Node32</title>
<path fill="none" stroke="midnightblue" d="M672.76,-117.39C610.39,-110.82 476.29,-95.88 353.73,-76.19"/>
<polygon fill="midnightblue" stroke="midnightblue" points="354.23,-72.73 343.8,-74.58 353.11,-79.64 354.23,-72.73"/>
</g>
<!-- Node35 -->
<g id="node35" class="node">
<title>Node35</title>
<g id="a_node35"><a xlink:title=" ">
<polygon fill="white" stroke="#bfbfbf" points="627,-56.5 627,-75.5 685,-75.5 685,-56.5 627,-56.5"/>
<text text-anchor="middle" x="656" y="-63.5" font-family="Helvetica,sans-Serif" font-size="10.00">memory</text>
</a>
</g>
</g>
<!-- Node31&#45;&gt;Node35 -->
<g id="edge45" class="edge">
<title>Node31&#45;&gt;Node35</title>
<path fill="none" stroke="midnightblue" d="M699.41,-112.08C691.84,-104.22 680.62,-92.57 671.49,-83.08"/>
<polygon fill="midnightblue" stroke="midnightblue" points="673.88,-80.53 664.43,-75.75 668.84,-85.38 673.88,-80.53"/>
</g>
<!-- Node36 -->
<g id="node36" class="node">
<title>Node36</title>
<g id="a_node36"><a xlink:title=" ">
<polygon fill="white" stroke="#bfbfbf" points="703.5,-56.5 703.5,-75.5 744.5,-75.5 744.5,-56.5 703.5,-56.5"/>
<text text-anchor="middle" x="724" y="-63.5" font-family="Helvetica,sans-Serif" font-size="10.00">tuple</text>
</a>
</g>
</g>
<!-- Node31&#45;&gt;Node36 -->
<g id="edge46" class="edge">
<title>Node31&#45;&gt;Node36</title>
<path fill="none" stroke="midnightblue" d="M710.64,-112.08C712.79,-104.85 715.88,-94.41 718.55,-85.4"/>
<polygon fill="midnightblue" stroke="midnightblue" points="721.92,-86.33 721.41,-75.75 715.21,-84.34 721.92,-86.33"/>
</g>
<!-- Node32&#45;&gt;Node23 -->
<g id="edge43" class="edge">
<title>Node32&#45;&gt;Node23</title>
<path fill="none" stroke="midnightblue" d="M343.78,-57.29C346.55,-56.82 349.32,-56.38 352,-56 536.04,-29.87 588.14,-52.94 775.83,-19.63"/>
<polygon fill="midnightblue" stroke="midnightblue" points="776.53,-23.06 785.75,-17.84 775.28,-16.17 776.53,-23.06"/>
</g>
<!-- Node32&#45;&gt;Node25 -->
<g id="edge44" class="edge">
<title>Node32&#45;&gt;Node25</title>
<path fill="none" stroke="midnightblue" d="M336.16,-56.44C369.17,-46.75 422.88,-30.99 457.57,-20.81"/>
<polygon fill="midnightblue" stroke="midnightblue" points="458.64,-24.15 467.25,-17.97 456.67,-17.43 458.64,-24.15"/>
</g>
<!-- Node32&#45;&gt;Node29 -->
<g id="edge40" class="edge">
<title>Node32&#45;&gt;Node29</title>
<path fill="none" stroke="midnightblue" d="M307,-56.08C307,-49.01 307,-38.86 307,-29.99"/>
<polygon fill="midnightblue" stroke="midnightblue" points="310.5,-29.75 307,-19.75 303.5,-29.75 310.5,-29.75"/>
</g>
<!-- Node32&#45;&gt;Node33 -->
<g id="edge41" class="edge">
<title>Node32&#45;&gt;Node33</title>
<path fill="none" stroke="midnightblue" d="M289.49,-56.32C271.93,-47.62 244.67,-34.12 224.47,-24.11"/>
<polygon fill="midnightblue" stroke="midnightblue" points="225.98,-20.96 215.47,-19.65 222.88,-27.23 225.98,-20.96"/>
</g>
<!-- Node32&#45;&gt;Node34 -->
<g id="edge42" class="edge">
<title>Node32&#45;&gt;Node34</title>
<path fill="none" stroke="midnightblue" d="M270.29,-57.55C221.39,-47.62 135.05,-30.09 83.42,-19.61"/>
<polygon fill="midnightblue" stroke="midnightblue" points="84.07,-16.17 73.58,-17.61 82.68,-23.03 84.07,-16.17"/>
</g>
<!-- Node41 -->
<g id="node41" class="node">
<title>Node41</title>
<g id="a_node41"><a xlink:href="proxy_8h.html" target="_top" xlink:title=" ">
<polygon fill="white" stroke="black" points="1676,-224.5 1676,-243.5 1728,-243.5 1728,-224.5 1676,-224.5"/>
<text text-anchor="middle" x="1702" y="-231.5" font-family="Helvetica,sans-Serif" font-size="10.00">proxy.h</text>
</a>
</g>
</g>
<!-- Node40&#45;&gt;Node41 -->
<g id="edge61" class="edge">
<title>Node40&#45;&gt;Node41</title>
<path fill="none" stroke="midnightblue" d="M1702,-280.08C1702,-273.01 1702,-262.86 1702,-253.99"/>
<polygon fill="midnightblue" stroke="midnightblue" points="1705.5,-253.75 1702,-243.75 1698.5,-253.75 1705.5,-253.75"/>
</g>
<!-- Node43 -->
<g id="node43" class="node">
<title>Node43</title>
<g id="a_node43"><a xlink:title=" ">
<polygon fill="white" stroke="#bfbfbf" points="1746,-224.5 1746,-243.5 1796,-243.5 1796,-224.5 1746,-224.5"/>
<text text-anchor="middle" x="1771" y="-231.5" font-family="Helvetica,sans-Serif" font-size="10.00">chrono</text>
</a>
</g>
</g>
<!-- Node40&#45;&gt;Node43 -->
<g id="edge63" class="edge">
<title>Node40&#45;&gt;Node43</title>
<path fill="none" stroke="midnightblue" d="M1713.09,-280.32C1723.49,-272.18 1739.26,-259.84 1751.72,-250.09"/>
<polygon fill="midnightblue" stroke="midnightblue" points="1753.99,-252.75 1759.71,-243.83 1749.68,-247.24 1753.99,-252.75"/>
</g>
<!-- Node42 -->
<g id="node42" class="node">
<title>Node42</title>
<g id="a_node42"><a xlink:title=" ">
<polygon fill="white" stroke="#bfbfbf" points="1683.5,-168.5 1683.5,-187.5 1720.5,-187.5 1720.5,-168.5 1683.5,-168.5"/>
<text text-anchor="middle" x="1702" y="-175.5" font-family="Helvetica,sans-Serif" font-size="10.00">uv.h</text>
</a>
</g>
</g>
<!-- Node41&#45;&gt;Node42 -->
<g id="edge62" class="edge">
<title>Node41&#45;&gt;Node42</title>
<path fill="none" stroke="midnightblue" d="M1702,-224.08C1702,-217.01 1702,-206.86 1702,-197.99"/>
<polygon fill="midnightblue" stroke="midnightblue" points="1705.5,-197.75 1702,-187.75 1698.5,-197.75 1705.5,-197.75"/>
</g>
</g>
</svg>
        <g id="navigator" transform="translate(0 0)" fill="#404254">
                <rect fill="#f2f5e9" fill-opacity="0.5" stroke="#606060" stroke-width=".5" x="0" y="0" width="60" height="60"/>
                <use id="zoomplus" xlink:href="#zoomPlus" x="17" y="9" onmousedown="handleZoom(evt,'in')"/>
                <use id="zoomminus" xlink:href="#zoomMin" x="42" y="9" onmousedown="handleZoom(evt,'out')"/>
                <use id="reset" xlink:href="#resetDef" x="30" y="36" onmousedown="handleReset()"/>
                <g id="arrowUp" xlink:href="#dirArrow" transform="translate(30 24)" onmousedown="handlePan(0,-1)">
                  <use xlink:href="#rim" fill="#404040">
                        <set attributeName="fill" to="#808080" begin="arrowUp.mouseover" end="arrowUp.mouseout"/>
                  </use>
                  <path fill="none" stroke="white" stroke-width="1.5" d="M0,-3.0v7 M-2.5,-0.5L0,-3.0L2.5,-0.5"/>
                </g>
                <g id="arrowRight" xlink:href="#dirArrow" transform="rotate(90) translate(36 -43)" onmousedown="handlePan(1,0)">
                  <use xlink:href="#rim" fill="#404040">
                        <set attributeName="fill" to="#808080" begin="arrowRight.mouseover" end="arrowRight.mouseout"/>
                  </use>
                  <path fill="none" stroke="white" stroke-width="1.5" d="M0,-3.0v7 M-2.5,-0.5L0,-3.0L2.5,-0.5"/>
                </g>
                <g id="arrowDown" xlink:href="#dirArrow" transform="rotate(180) translate(-30 -48)" onmousedown="handlePan(0,1)">
                  <use xlink:href="#rim" fill="#404040">
                        <set attributeName="fill" to="#808080" begin="arrowDown.mouseover" end="arrowDown.mouseout"/>
                  </use>
                  <path fill="none" stroke="white" stroke-width="1.5" d="M0,-3.0v7 M-2.5,-0.5L0,-3.0L2.5,-0.5"/>
                </g>
                <g id="arrowLeft" xlink:href="#dirArrow" transform="rotate(270) translate(-36 17)" onmousedown="handlePan(-1,0)">
                  <use xlink:href="#rim" fill="#404040">
                        <set attributeName="fill" to="#808080" begin="arrowLeft.mouseover" end="arrowLeft.mouseout"/>
                  </use>
                  <path fill="none" stroke="white" stroke-width="1.5" d="M0,-3.0v7 M-2.5,-0.5L0,-3.0L2.5,-0.5"/>
                </g>
        </g>
        <svg viewBox="0 0 15 15" width="100%" height="30px" preserveAspectRatio="xMaxYMin meet">
         <g id="arrow_out" transform="scale(0.3 0.3)">
          <a xlink:href="load__monitor_8h__incl_org.svg" target="_base">
           <rect id="button" ry="5" rx="5" y="6" x="6" height="38" width="38"
                fill="#f2f5e9" fill-opacity="0.5" stroke="#606060" stroke-width="1.0"/>
           <path id="arrow"
             d="M 11.500037,31.436501 C 11.940474,20.09759 22.043105,11.32322 32.158766,21.979434 L 37.068811,17.246167 C 37.068811,17.246167 37.088388,32 37.088388,32 L 22.160133,31.978069 C 22.160133,31.978069 26.997745,27.140456 26.997745,27.140456 C 18.528582,18.264221 13.291696,25.230495 11.500037,31.436501 z"
             style="fill:#404040;"/>
          </a>
         </g>
        </svg>
</svg>
