<?xml version="1.0" encoding="UTF-8" standalone="no"?>
<!DOCTYPE svg PUBLIC "-//W3C//DTD SVG 1.1//EN"
 "http://www.w3.org/Graphics/SVG/1.1/DTD/svg11.dtd">
<!-- Generated by graphviz version 2.43.0 (0)
 -->
<!-- Title: samples/apps/logging/logging_schema.h Pages: 1 -->
<!--zoomable 453 -->
<svg id="main" version="1.1" xmlns="http://www.w3.org/2000/svg" xmlns:xlink="http://www.w3.org/1999/xlink" xml:space="preserve" onload="init(evt)">
<style type="text/css"><![CDATA[
.edge:hover path { stroke: red; }
.edge:hover polygon { stroke: red; fill: red; }
]]></style>
<script type="text/javascript"><![CDATA[
var edges = document.getElementsByTagName('g');
if (edges && edges.length) {
  for (var i=0;i<edges.length;i++) {
    if (edges[i].id.substr(0,4)=='edge') {
      edges[i].setAttribute('class','edge');
    }
  }
}
]]></script>
        <defs>
                <circle id="rim" cx="0" cy="0" r="7"/>
                <circle id="rim2" cx="0" cy="0" r="3.5"/>
                <g id="zoomPlus">
                        <use xlink:href="#rim" fill="#404040">
                                <set attributeName="fill" to="#808080" begin="zoomplus.mouseover" end="zoomplus.mouseout"/>
                        </use>
                        <path d="M-4,0h8M0,-4v8" fill="none" stroke="white" stroke-width="1.5" pointer-events="none"/>
                </g>
                <g id="zoomMin">
                        <use xlink:href="#rim" fill="#404040">
                                <set attributeName="fill" to="#808080" begin="zoomminus.mouseover" end="zoomminus.mouseout"/>
                        </use>
                        <path d="M-4,0h8" fill="none" stroke="white" stroke-width="1.5" pointer-events="none"/>
                </g>
                <g id="dirArrow">
                        <path fill="none" stroke="white" stroke-width="1.5" d="M0,-3.0v7 M-2.5,-0.5L0,-3.0L2.5,-0.5"/>
                </g>
               <g id="resetDef">
                       <use xlink:href="#rim2" fill="#404040">
                               <set attributeName="fill" to="#808080" begin="reset.mouseover" end="reset.mouseout"/>
                       </use>
               </g>
        </defs>

<script type="text/javascript">
var viewWidth = 894;
var viewHeight = 453;
var sectionId = 'dynsection-0';
</script>
<script xlink:href="svgpan.js"/>
<svg id="graph" class="graph">
<g id="viewport">
<title>samples/apps/logging/logging_schema.h</title>
<polygon fill="white" stroke="transparent" points="-4,4 -4,-449 889.5,-449 889.5,4 -4,4"/>
<!-- Node1 -->
<g id="node1" class="node">
<title>Node1</title>
<g id="a_node1"><a xlink:title=" ">
<polygon fill="#bfbfbf" stroke="black" points="604.5,-414.5 604.5,-444.5 727.5,-444.5 727.5,-414.5 604.5,-414.5"/>
<text text-anchor="start" x="612.5" y="-432.5" font-family="Helvetica,sans-Serif" font-size="10.00">samples/apps/logging</text>
<text text-anchor="middle" x="666" y="-421.5" font-family="Helvetica,sans-Serif" font-size="10.00">/logging_schema.h</text>
</a>
</g>
</g>
<!-- Node2 -->
<g id="node2" class="node">
<title>Node2</title>
<g id="a_node2"><a xlink:href="json_8h.html" target="_top" xlink:title=" ">
<polygon fill="white" stroke="black" points="661.5,-241 661.5,-260 738.5,-260 738.5,-241 661.5,-241"/>
<text text-anchor="middle" x="700" y="-248" font-family="Helvetica,sans-Serif" font-size="10.00">ccf/ds/json.h</text>
</a>
</g>
</g>
<!-- Node1&#45;&gt;Node2 -->
<g id="edge1" class="edge">
<title>Node1&#45;&gt;Node2</title>
<path fill="none" stroke="midnightblue" d="M670.74,-414.49C673.99,-404.43 678.22,-390.5 681,-378 689.41,-340.2 695.18,-295.2 698,-270.35"/>
<polygon fill="midnightblue" stroke="midnightblue" points="701.51,-270.49 699.12,-260.17 694.55,-269.72 701.51,-270.49"/>
</g>
<!-- Node16 -->
<g id="node16" class="node">
<title>Node16</title>
<g id="a_node16"><a xlink:href="include_2ccf_2receipt_8h.html" target="_top" xlink:title=" ">
<polygon fill="white" stroke="black" points="594.5,-358.5 594.5,-377.5 671.5,-377.5 671.5,-358.5 594.5,-358.5"/>
<text text-anchor="middle" x="633" y="-365.5" font-family="Helvetica,sans-Serif" font-size="10.00">ccf/receipt.h</text>
</a>
</g>
</g>
<!-- Node1&#45;&gt;Node16 -->
<g id="edge18" class="edge">
<title>Node1&#45;&gt;Node16</title>
<path fill="none" stroke="midnightblue" d="M658.18,-414.4C653.53,-406.02 647.6,-395.33 642.66,-386.42"/>
<polygon fill="midnightblue" stroke="midnightblue" points="645.71,-384.71 637.8,-377.66 639.59,-388.1 645.71,-384.71"/>
</g>
<!-- Node3 -->
<g id="node3" class="node">
<title>Node3</title>
<g id="a_node3"><a xlink:href="include_2ccf_2crypto_2base64_8h.html" target="_top" xlink:title=" ">
<polygon fill="white" stroke="black" points="437,-112.5 437,-131.5 549,-131.5 549,-112.5 437,-112.5"/>
<text text-anchor="middle" x="493" y="-119.5" font-family="Helvetica,sans-Serif" font-size="10.00">ccf/crypto/base64.h</text>
</a>
</g>
</g>
<!-- Node2&#45;&gt;Node3 -->
<g id="edge2" class="edge">
<title>Node2&#45;&gt;Node3</title>
<path fill="none" stroke="midnightblue" d="M661.21,-241.44C608.76,-230.2 520.55,-209.98 510,-199 495.46,-183.87 492.3,-159.16 492.07,-142.04"/>
<polygon fill="midnightblue" stroke="midnightblue" points="495.58,-141.68 492.27,-131.61 488.58,-141.54 495.58,-141.68"/>
</g>
<!-- Node6 -->
<g id="node6" class="node">
<title>Node6</title>
<g id="a_node6"><a xlink:href="include_2ccf_2ds_2json__schema_8h.html" target="_top" xlink:title=" ">
<polygon fill="white" stroke="black" points="642.5,-174 642.5,-193 763.5,-193 763.5,-174 642.5,-174"/>
<text text-anchor="middle" x="703" y="-181" font-family="Helvetica,sans-Serif" font-size="10.00">ccf/ds/json_schema.h</text>
</a>
</g>
</g>
<!-- Node2&#45;&gt;Node6 -->
<g id="edge5" class="edge">
<title>Node2&#45;&gt;Node6</title>
<path fill="none" stroke="midnightblue" d="M700.4,-240.73C700.85,-231.18 701.56,-215.62 702.13,-203.28"/>
<polygon fill="midnightblue" stroke="midnightblue" points="705.64,-203.28 702.6,-193.13 698.64,-202.96 705.64,-203.28"/>
</g>
<!-- Node13 -->
<g id="node13" class="node">
<title>Node13</title>
<g id="a_node13"><a xlink:title=" ">
<polygon fill="white" stroke="#bfbfbf" points="806.5,-56.5 806.5,-75.5 885.5,-75.5 885.5,-56.5 806.5,-56.5"/>
<text text-anchor="middle" x="846" y="-63.5" font-family="Helvetica,sans-Serif" font-size="10.00">fmt/format.h</text>
</a>
</g>
</g>
<!-- Node2&#45;&gt;Node13 -->
<g id="edge16" class="edge">
<title>Node2&#45;&gt;Node13</title>
<path fill="none" stroke="midnightblue" d="M738.57,-248.09C773.31,-244.52 822.54,-233.26 847,-199 871.21,-165.08 860.52,-112.74 852.3,-85.27"/>
<polygon fill="midnightblue" stroke="midnightblue" points="855.63,-84.19 849.24,-75.74 848.96,-86.33 855.63,-84.19"/>
</g>
<!-- Node15 -->
<g id="node15" class="node">
<title>Node15</title>
<g id="a_node15"><a xlink:title=" ">
<polygon fill="white" stroke="#bfbfbf" points="782,-174 782,-193 838,-193 838,-174 782,-174"/>
<text text-anchor="middle" x="810" y="-181" font-family="Helvetica,sans-Serif" font-size="10.00">sstream</text>
</a>
</g>
</g>
<!-- Node2&#45;&gt;Node15 -->
<g id="edge17" class="edge">
<title>Node2&#45;&gt;Node15</title>
<path fill="none" stroke="midnightblue" d="M714.84,-240.73C733.31,-229.82 765.07,-211.05 786.78,-198.22"/>
<polygon fill="midnightblue" stroke="midnightblue" points="788.57,-201.23 795.4,-193.13 785.01,-195.2 788.57,-201.23"/>
</g>
<!-- Node4 -->
<g id="node4" class="node">
<title>Node4</title>
<g id="a_node4"><a xlink:title=" ">
<polygon fill="white" stroke="#bfbfbf" points="388,-56.5 388,-75.5 432,-75.5 432,-56.5 388,-56.5"/>
<text text-anchor="middle" x="410" y="-63.5" font-family="Helvetica,sans-Serif" font-size="10.00">string</text>
</a>
</g>
</g>
<!-- Node3&#45;&gt;Node4 -->
<g id="edge3" class="edge">
<title>Node3&#45;&gt;Node4</title>
<path fill="none" stroke="midnightblue" d="M479.66,-112.32C466.84,-103.98 447.22,-91.21 432.06,-81.35"/>
<polygon fill="midnightblue" stroke="midnightblue" points="433.59,-78.17 423.3,-75.65 429.78,-84.04 433.59,-78.17"/>
</g>
<!-- Node5 -->
<g id="node5" class="node">
<title>Node5</title>
<g id="a_node5"><a xlink:title=" ">
<polygon fill="white" stroke="#bfbfbf" points="550.5,-0.5 550.5,-19.5 597.5,-19.5 597.5,-0.5 550.5,-0.5"/>
<text text-anchor="middle" x="574" y="-7.5" font-family="Helvetica,sans-Serif" font-size="10.00">vector</text>
</a>
</g>
</g>
<!-- Node3&#45;&gt;Node5 -->
<g id="edge4" class="edge">
<title>Node3&#45;&gt;Node5</title>
<path fill="none" stroke="midnightblue" d="M534.05,-112.38C553.96,-105.92 576.09,-94.81 588,-76 597.04,-61.71 591.16,-42.5 584.46,-28.67"/>
<polygon fill="midnightblue" stroke="midnightblue" points="587.46,-26.86 579.65,-19.7 581.29,-30.17 587.46,-26.86"/>
</g>
<!-- Node7 -->
<g id="node7" class="node">
<title>Node7</title>
<g id="a_node7"><a xlink:href="nonstd_8h.html" target="_top" xlink:title=" ">
<polygon fill="white" stroke="black" points="290,-112.5 290,-131.5 380,-131.5 380,-112.5 290,-112.5"/>
<text text-anchor="middle" x="335" y="-119.5" font-family="Helvetica,sans-Serif" font-size="10.00">ccf/ds/nonstd.h</text>
</a>
</g>
</g>
<!-- Node6&#45;&gt;Node7 -->
<g id="edge6" class="edge">
<title>Node6&#45;&gt;Node7</title>
<path fill="none" stroke="midnightblue" d="M664.39,-173.98C654.51,-171.91 643.88,-169.78 634,-168 549.27,-152.73 450.38,-138.56 390.25,-130.34"/>
<polygon fill="midnightblue" stroke="midnightblue" points="390.6,-126.86 380.22,-128.98 389.65,-133.79 390.6,-126.86"/>
</g>
<!-- Node6&#45;&gt;Node13 -->
<g id="edge14" class="edge">
<title>Node6&#45;&gt;Node13</title>
<path fill="none" stroke="midnightblue" d="M728.91,-173.95C750.77,-165.77 781.95,-151.75 804,-132 818.82,-118.73 830.55,-99.07 837.8,-84.84"/>
<polygon fill="midnightblue" stroke="midnightblue" points="841.06,-86.14 842.27,-75.62 834.76,-83.09 841.06,-86.14"/>
</g>
<!-- Node14 -->
<g id="node14" class="node">
<title>Node14</title>
<g id="a_node14"><a xlink:title=" ">
<polygon fill="white" stroke="#bfbfbf" points="685,-112.5 685,-131.5 795,-131.5 795,-112.5 685,-112.5"/>
<text text-anchor="middle" x="740" y="-119.5" font-family="Helvetica,sans-Serif" font-size="10.00">nlohmann/json.hpp</text>
</a>
</g>
</g>
<!-- Node6&#45;&gt;Node14 -->
<g id="edge15" class="edge">
<title>Node6&#45;&gt;Node14</title>
<path fill="none" stroke="midnightblue" d="M708.3,-173.98C713.74,-165.23 722.36,-151.37 729.24,-140.31"/>
<polygon fill="midnightblue" stroke="midnightblue" points="732.4,-141.85 734.71,-131.51 726.46,-138.15 732.4,-141.85"/>
</g>
<!-- Node7&#45;&gt;Node4 -->
<g id="edge10" class="edge">
<title>Node7&#45;&gt;Node4</title>
<path fill="none" stroke="midnightblue" d="M347.05,-112.32C358.46,-104.11 375.83,-91.6 389.43,-81.81"/>
<polygon fill="midnightblue" stroke="midnightblue" points="391.66,-84.52 397.73,-75.83 387.57,-78.84 391.66,-84.52"/>
</g>
<!-- Node7&#45;&gt;Node5 -->
<g id="edge13" class="edge">
<title>Node7&#45;&gt;Node5</title>
<path fill="none" stroke="midnightblue" d="M380.32,-117.1C436.82,-111.34 529.01,-98.71 554,-76 566.95,-64.23 571.61,-44.3 573.24,-29.61"/>
<polygon fill="midnightblue" stroke="midnightblue" points="576.73,-29.84 573.98,-19.61 569.75,-29.32 576.73,-29.84"/>
</g>
<!-- Node8 -->
<g id="node8" class="node">
<title>Node8</title>
<g id="a_node8"><a xlink:title=" ">
<polygon fill="white" stroke="#bfbfbf" points="0,-56.5 0,-75.5 64,-75.5 64,-56.5 0,-56.5"/>
<text text-anchor="middle" x="32" y="-63.5" font-family="Helvetica,sans-Serif" font-size="10.00">algorithm</text>
</a>
</g>
</g>
<!-- Node7&#45;&gt;Node8 -->
<g id="edge7" class="edge">
<title>Node7&#45;&gt;Node8</title>
<path fill="none" stroke="midnightblue" d="M289.91,-113.9C239.66,-105.85 155.75,-91.97 74.14,-76.15"/>
<polygon fill="midnightblue" stroke="midnightblue" points="74.68,-72.69 64.2,-74.21 73.34,-79.56 74.68,-72.69"/>
</g>
<!-- Node9 -->
<g id="node9" class="node">
<title>Node9</title>
<g id="a_node9"><a xlink:title=" ">
<polygon fill="white" stroke="#bfbfbf" points="82,-56.5 82,-75.5 124,-75.5 124,-56.5 82,-56.5"/>
<text text-anchor="middle" x="103" y="-63.5" font-family="Helvetica,sans-Serif" font-size="10.00">array</text>
</a>
</g>
</g>
<!-- Node7&#45;&gt;Node9 -->
<g id="edge8" class="edge">
<title>Node7&#45;&gt;Node9</title>
<path fill="none" stroke="midnightblue" d="M292.62,-112.49C253.76,-104.48 194.42,-91.73 134.3,-76.2"/>
<polygon fill="midnightblue" stroke="midnightblue" points="134.81,-72.72 124.25,-73.58 133.05,-79.49 134.81,-72.72"/>
</g>
<!-- Node10 -->
<g id="node10" class="node">
<title>Node10</title>
<g id="a_node10"><a xlink:title=" ">
<polygon fill="white" stroke="#bfbfbf" points="142.5,-56.5 142.5,-75.5 191.5,-75.5 191.5,-56.5 142.5,-56.5"/>
<text text-anchor="middle" x="167" y="-63.5" font-family="Helvetica,sans-Serif" font-size="10.00">cctype</text>
</a>
</g>
</g>
<!-- Node7&#45;&gt;Node10 -->
<g id="edge9" class="edge">
<title>Node7&#45;&gt;Node10</title>
<path fill="none" stroke="midnightblue" d="M308.38,-112.44C279.41,-103.13 233,-88.21 201.31,-78.03"/>
<polygon fill="midnightblue" stroke="midnightblue" points="202.17,-74.63 191.58,-74.9 200.03,-81.29 202.17,-74.63"/>
</g>
<!-- Node11 -->
<g id="node11" class="node">
<title>Node11</title>
<g id="a_node11"><a xlink:title=" ">
<polygon fill="white" stroke="#bfbfbf" points="209.5,-56.5 209.5,-75.5 282.5,-75.5 282.5,-56.5 209.5,-56.5"/>
<text text-anchor="middle" x="246" y="-63.5" font-family="Helvetica,sans-Serif" font-size="10.00">string_view</text>
</a>
</g>
</g>
<!-- Node7&#45;&gt;Node11 -->
<g id="edge11" class="edge">
<title>Node7&#45;&gt;Node11</title>
<path fill="none" stroke="midnightblue" d="M320.7,-112.32C306.82,-103.9 285.51,-90.97 269.2,-81.07"/>
<polygon fill="midnightblue" stroke="midnightblue" points="270.63,-77.85 260.26,-75.65 267,-83.83 270.63,-77.85"/>
</g>
<!-- Node12 -->
<g id="node12" class="node">
<title>Node12</title>
<g id="a_node12"><a xlink:title=" ">
<polygon fill="white" stroke="#bfbfbf" points="300.5,-56.5 300.5,-75.5 369.5,-75.5 369.5,-56.5 300.5,-56.5"/>
<text text-anchor="middle" x="335" y="-63.5" font-family="Helvetica,sans-Serif" font-size="10.00">type_traits</text>
</a>
</g>
</g>
<!-- Node7&#45;&gt;Node12 -->
<g id="edge12" class="edge">
<title>Node7&#45;&gt;Node12</title>
<path fill="none" stroke="midnightblue" d="M335,-112.08C335,-105.01 335,-94.86 335,-85.99"/>
<polygon fill="midnightblue" stroke="midnightblue" points="338.5,-85.75 335,-75.75 331.5,-85.75 338.5,-85.75"/>
</g>
<!-- Node16&#45;&gt;Node2 -->
<g id="edge19" class="edge">
<title>Node16&#45;&gt;Node2</title>
<path fill="none" stroke="midnightblue" d="M638.04,-358.32C649,-339.42 675.2,-294.25 689.78,-269.12"/>
<polygon fill="midnightblue" stroke="midnightblue" points="692.92,-270.69 694.91,-260.28 686.86,-267.18 692.92,-270.69"/>
</g>
<!-- Node17 -->
<g id="node17" class="node">
<title>Node17</title>
<g id="a_node17"><a xlink:href="entity__id_8h.html" target="_top" xlink:title=" ">
<polygon fill="white" stroke="black" points="540,-302.5 540,-321.5 626,-321.5 626,-302.5 540,-302.5"/>
<text text-anchor="middle" x="583" y="-309.5" font-family="Helvetica,sans-Serif" font-size="10.00">ccf/entity_id.h</text>
</a>
</g>
</g>
<!-- Node16&#45;&gt;Node17 -->
<g id="edge20" class="edge">
<title>Node16&#45;&gt;Node17</title>
<path fill="none" stroke="midnightblue" d="M624.74,-358.08C617.54,-350.3 606.89,-338.8 598.15,-329.37"/>
<polygon fill="midnightblue" stroke="midnightblue" points="600.47,-326.71 591.1,-321.75 595.33,-331.47 600.47,-326.71"/>
</g>
<!-- Node17&#45;&gt;Node2 -->
<g id="edge21" class="edge">
<title>Node17&#45;&gt;Node2</title>
<path fill="none" stroke="midnightblue" d="M599.76,-302.48C619.22,-292.58 651.55,-276.14 674.21,-264.62"/>
<polygon fill="midnightblue" stroke="midnightblue" points="675.94,-267.66 683.27,-260.01 672.77,-261.42 675.94,-267.66"/>
</g>
<!-- Node17&#45;&gt;Node4 -->
<g id="edge32" class="edge">
<title>Node17&#45;&gt;Node4</title>
<path fill="none" stroke="midnightblue" d="M565.39,-302.47C550.26,-294.52 528.48,-281.57 513,-266 463.28,-215.98 456.61,-196.46 428,-132 421.32,-116.95 416.55,-98.82 413.6,-85.54"/>
<polygon fill="midnightblue" stroke="midnightblue" points="417.02,-84.77 411.56,-75.69 410.16,-86.19 417.02,-84.77"/>
</g>
<!-- Node18 -->
<g id="node18" class="node">
<title>Node18</title>
<g id="a_node18"><a xlink:href="blit__serialiser_8h.html" target="_top" xlink:title=" ">
<polygon fill="white" stroke="black" points="522.5,-235.5 522.5,-265.5 621.5,-265.5 621.5,-235.5 522.5,-235.5"/>
<text text-anchor="start" x="530.5" y="-253.5" font-family="Helvetica,sans-Serif" font-size="10.00">ccf/kv/serialisers</text>
<text text-anchor="middle" x="572" y="-242.5" font-family="Helvetica,sans-Serif" font-size="10.00">/blit_serialiser.h</text>
</a>
</g>
</g>
<!-- Node17&#45;&gt;Node18 -->
<g id="edge22" class="edge">
<title>Node17&#45;&gt;Node18</title>
<path fill="none" stroke="midnightblue" d="M581.42,-302.48C580.12,-295.4 578.19,-284.97 576.42,-275.39"/>
<polygon fill="midnightblue" stroke="midnightblue" points="579.85,-274.72 574.59,-265.52 572.97,-275.99 579.85,-274.72"/>
</g>
<!-- Node18&#45;&gt;Node7 -->
<g id="edge23" class="edge">
<title>Node18&#45;&gt;Node7</title>
<path fill="none" stroke="midnightblue" d="M545.73,-235.48C499.71,-210.92 405.13,-160.43 360.01,-136.35"/>
<polygon fill="midnightblue" stroke="midnightblue" points="361.64,-133.25 351.17,-131.63 358.34,-139.43 361.64,-133.25"/>
</g>
<!-- Node19 -->
<g id="node19" class="node">
<title>Node19</title>
<g id="a_node19"><a xlink:href="serialised__entry_8h.html" target="_top" xlink:title=" ">
<polygon fill="white" stroke="black" points="519.5,-168.5 519.5,-198.5 624.5,-198.5 624.5,-168.5 519.5,-168.5"/>
<text text-anchor="start" x="527.5" y="-186.5" font-family="Helvetica,sans-Serif" font-size="10.00">ccf/kv/serialisers</text>
<text text-anchor="middle" x="572" y="-175.5" font-family="Helvetica,sans-Serif" font-size="10.00">/serialised_entry.h</text>
</a>
</g>
</g>
<!-- Node18&#45;&gt;Node19 -->
<g id="edge24" class="edge">
<title>Node18&#45;&gt;Node19</title>
<path fill="none" stroke="midnightblue" d="M572,-235.4C572,-227.64 572,-217.81 572,-208.86"/>
<polygon fill="midnightblue" stroke="midnightblue" points="575.5,-208.58 572,-198.58 568.5,-208.58 575.5,-208.58"/>
</g>
<!-- Node20 -->
<g id="node20" class="node">
<title>Node20</title>
<g id="a_node20"><a xlink:href="byte__vector_8h.html" target="_top" xlink:title=" ">
<polygon fill="white" stroke="black" points="567,-112.5 567,-131.5 667,-131.5 667,-112.5 567,-112.5"/>
<text text-anchor="middle" x="617" y="-119.5" font-family="Helvetica,sans-Serif" font-size="10.00">ccf/byte_vector.h</text>
</a>
</g>
</g>
<!-- Node19&#45;&gt;Node20 -->
<g id="edge25" class="edge">
<title>Node19&#45;&gt;Node20</title>
<path fill="none" stroke="midnightblue" d="M582.66,-168.4C589.14,-159.84 597.43,-148.87 604.25,-139.86"/>
<polygon fill="midnightblue" stroke="midnightblue" points="607.21,-141.74 610.45,-131.66 601.63,-137.52 607.21,-141.74"/>
</g>
<!-- Node20&#45;&gt;Node13 -->
<g id="edge30" class="edge">
<title>Node20&#45;&gt;Node13</title>
<path fill="none" stroke="midnightblue" d="M653.29,-112.44C692.98,-103.08 756.71,-88.06 799.91,-77.87"/>
<polygon fill="midnightblue" stroke="midnightblue" points="800.95,-81.22 809.88,-75.52 799.35,-74.41 800.95,-81.22"/>
</g>
<!-- Node21 -->
<g id="node21" class="node">
<title>Node21</title>
<g id="a_node21"><a xlink:href="siphash_8h.html" target="_top" xlink:title=" ">
<polygon fill="white" stroke="black" points="450.5,-56.5 450.5,-75.5 545.5,-75.5 545.5,-56.5 450.5,-56.5"/>
<text text-anchor="middle" x="498" y="-63.5" font-family="Helvetica,sans-Serif" font-size="10.00">ccf/ds/siphash.h</text>
</a>
</g>
</g>
<!-- Node20&#45;&gt;Node21 -->
<g id="edge26" class="edge">
<title>Node20&#45;&gt;Node21</title>
<path fill="none" stroke="midnightblue" d="M598.14,-112.44C578.73,-103.64 548.27,-89.81 526.04,-79.72"/>
<polygon fill="midnightblue" stroke="midnightblue" points="527.32,-76.46 516.77,-75.52 524.43,-82.84 527.32,-76.46"/>
</g>
<!-- Node24 -->
<g id="node24" class="node">
<title>Node24</title>
<g id="a_node24"><a xlink:title=" ">
<polygon fill="white" stroke="#bfbfbf" points="639.5,-56.5 639.5,-75.5 788.5,-75.5 788.5,-56.5 639.5,-56.5"/>
<text text-anchor="middle" x="714" y="-63.5" font-family="Helvetica,sans-Serif" font-size="10.00">small_vector/SmallVector.h</text>
</a>
</g>
</g>
<!-- Node20&#45;&gt;Node24 -->
<g id="edge31" class="edge">
<title>Node20&#45;&gt;Node24</title>
<path fill="none" stroke="midnightblue" d="M632.58,-112.32C648,-103.74 671.81,-90.49 689.71,-80.52"/>
<polygon fill="midnightblue" stroke="midnightblue" points="691.42,-83.58 698.45,-75.65 688.01,-77.46 691.42,-83.58"/>
</g>
<!-- Node21&#45;&gt;Node5 -->
<g id="edge29" class="edge">
<title>Node21&#45;&gt;Node5</title>
<path fill="none" stroke="midnightblue" d="M510.21,-56.32C521.78,-48.11 539.38,-35.6 553.16,-25.81"/>
<polygon fill="midnightblue" stroke="midnightblue" points="555.44,-28.48 561.57,-19.83 551.39,-22.77 555.44,-28.48"/>
</g>
<!-- Node22 -->
<g id="node22" class="node">
<title>Node22</title>
<g id="a_node22"><a xlink:title=" ">
<polygon fill="white" stroke="#bfbfbf" points="475.5,-0.5 475.5,-19.5 528.5,-19.5 528.5,-0.5 475.5,-0.5"/>
<text text-anchor="middle" x="502" y="-7.5" font-family="Helvetica,sans-Serif" font-size="10.00">cstddef</text>
</a>
</g>
</g>
<!-- Node21&#45;&gt;Node22 -->
<g id="edge27" class="edge">
<title>Node21&#45;&gt;Node22</title>
<path fill="none" stroke="midnightblue" d="M498.66,-56.08C499.18,-49.01 499.94,-38.86 500.59,-29.99"/>
<polygon fill="midnightblue" stroke="midnightblue" points="504.1,-29.98 501.35,-19.75 497.12,-29.47 504.1,-29.98"/>
</g>
<!-- Node23 -->
<g id="node23" class="node">
<title>Node23</title>
<g id="a_node23"><a xlink:title=" ">
<polygon fill="white" stroke="#bfbfbf" points="407,-0.5 407,-19.5 457,-19.5 457,-0.5 407,-0.5"/>
<text text-anchor="middle" x="432" y="-7.5" font-family="Helvetica,sans-Serif" font-size="10.00">cstdint</text>
</a>
</g>
</g>
<!-- Node21&#45;&gt;Node23 -->
<g id="edge28" class="edge">
<title>Node21&#45;&gt;Node23</title>
<path fill="none" stroke="midnightblue" d="M487.4,-56.32C477.54,-48.26 462.65,-36.08 450.78,-26.37"/>
<polygon fill="midnightblue" stroke="midnightblue" points="452.75,-23.46 442.8,-19.83 448.32,-28.88 452.75,-23.46"/>
</g>
</g>
</svg>
        <g id="navigator" transform="translate(0 0)" fill="#404254">
                <rect fill="#f2f5e9" fill-opacity="0.5" stroke="#606060" stroke-width=".5" x="0" y="0" width="60" height="60"/>
                <use id="zoomplus" xlink:href="#zoomPlus" x="17" y="9" onmousedown="handleZoom(evt,'in')"/>
                <use id="zoomminus" xlink:href="#zoomMin" x="42" y="9" onmousedown="handleZoom(evt,'out')"/>
                <use id="reset" xlink:href="#resetDef" x="30" y="36" onmousedown="handleReset()"/>
                <g id="arrowUp" xlink:href="#dirArrow" transform="translate(30 24)" onmousedown="handlePan(0,-1)">
                  <use xlink:href="#rim" fill="#404040">
                        <set attributeName="fill" to="#808080" begin="arrowUp.mouseover" end="arrowUp.mouseout"/>
                  </use>
                  <path fill="none" stroke="white" stroke-width="1.5" d="M0,-3.0v7 M-2.5,-0.5L0,-3.0L2.5,-0.5"/>
                </g>
                <g id="arrowRight" xlink:href="#dirArrow" transform="rotate(90) translate(36 -43)" onmousedown="handlePan(1,0)">
                  <use xlink:href="#rim" fill="#404040">
                        <set attributeName="fill" to="#808080" begin="arrowRight.mouseover" end="arrowRight.mouseout"/>
                  </use>
                  <path fill="none" stroke="white" stroke-width="1.5" d="M0,-3.0v7 M-2.5,-0.5L0,-3.0L2.5,-0.5"/>
                </g>
                <g id="arrowDown" xlink:href="#dirArrow" transform="rotate(180) translate(-30 -48)" onmousedown="handlePan(0,1)">
                  <use xlink:href="#rim" fill="#404040">
                        <set attributeName="fill" to="#808080" begin="arrowDown.mouseover" end="arrowDown.mouseout"/>
                  </use>
                  <path fill="none" stroke="white" stroke-width="1.5" d="M0,-3.0v7 M-2.5,-0.5L0,-3.0L2.5,-0.5"/>
                </g>
                <g id="arrowLeft" xlink:href="#dirArrow" transform="rotate(270) translate(-36 17)" onmousedown="handlePan(-1,0)">
                  <use xlink:href="#rim" fill="#404040">
                        <set attributeName="fill" to="#808080" begin="arrowLeft.mouseover" end="arrowLeft.mouseout"/>
                  </use>
                  <path fill="none" stroke="white" stroke-width="1.5" d="M0,-3.0v7 M-2.5,-0.5L0,-3.0L2.5,-0.5"/>
                </g>
        </g>
        <svg viewBox="0 0 15 15" width="100%" height="30px" preserveAspectRatio="xMaxYMin meet">
         <g id="arrow_out" transform="scale(0.3 0.3)">
          <a xlink:href="logging__schema_8h__incl_org.svg" target="_base">
           <rect id="button" ry="5" rx="5" y="6" x="6" height="38" width="38"
                fill="#f2f5e9" fill-opacity="0.5" stroke="#606060" stroke-width="1.0"/>
           <path id="arrow"
             d="M 11.500037,31.436501 C 11.940474,20.09759 22.043105,11.32322 32.158766,21.979434 L 37.068811,17.246167 C 37.068811,17.246167 37.088388,32 37.088388,32 L 22.160133,31.978069 C 22.160133,31.978069 26.997745,27.140456 26.997745,27.140456 C 18.528582,18.264221 13.291696,25.230495 11.500037,31.436501 z"
             style="fill:#404040;"/>
          </a>
         </g>
        </svg>
</svg>
