<?xml version="1.0" encoding="UTF-8" standalone="no"?>
<!DOCTYPE svg PUBLIC "-//W3C//DTD SVG 1.1//EN"
 "http://www.w3.org/Graphics/SVG/1.1/DTD/svg11.dtd">
<!-- Generated by graphviz version 2.43.0 (0)
 -->
<!-- Title: src/ds/messaging.h Pages: 1 -->
<svg width="1790pt" height="308pt"
 viewBox="0.00 0.00 1789.50 308.00" xmlns="http://www.w3.org/2000/svg" xmlns:xlink="http://www.w3.org/1999/xlink">
<g id="graph0" class="graph" transform="scale(1 1) rotate(0) translate(4 304)">
<title>src/ds/messaging.h</title>
<polygon fill="white" stroke="transparent" points="-4,4 -4,-304 1785.5,-304 1785.5,4 -4,4"/>
<!-- Node1 -->
<g id="node1" class="node">
<title>Node1</title>
<g id="a_node1"><a xlink:title=" ">
<polygon fill="#bfbfbf" stroke="black" points="867,-280.5 867,-299.5 977,-299.5 977,-280.5 867,-280.5"/>
<text text-anchor="middle" x="922" y="-287.5" font-family="Helvetica,sans-Serif" font-size="10.00">src/ds/messaging.h</text>
</a>
</g>
</g>
<!-- Node2 -->
<g id="node2" class="node">
<title>Node2</title>
<g id="a_node2"><a xlink:href="logger_8h.html" target="_top" xlink:title=" ">
<polygon fill="white" stroke="black" points="468.5,-224.5 468.5,-243.5 555.5,-243.5 555.5,-224.5 468.5,-224.5"/>
<text text-anchor="middle" x="512" y="-231.5" font-family="Helvetica,sans-Serif" font-size="10.00">ccf/ds/logger.h</text>
</a>
</g>
</g>
<!-- Node1&#45;&gt;Node2 -->
<g id="edge1" class="edge">
<title>Node1&#45;&gt;Node2</title>
<path fill="none" stroke="midnightblue" d="M866.71,-281.72C787.84,-271.33 643.99,-252.38 565.9,-242.1"/>
<polygon fill="midnightblue" stroke="midnightblue" points="566.16,-238.6 555.79,-240.77 565.25,-245.54 566.16,-238.6"/>
</g>
<!-- Node8 -->
<g id="node8" class="node">
<title>Node8</title>
<g id="a_node8"><a xlink:title=" ">
<polygon fill="white" stroke="#bfbfbf" points="0,-112.5 0,-131.5 38,-131.5 38,-112.5 0,-112.5"/>
<text text-anchor="middle" x="19" y="-119.5" font-family="Helvetica,sans-Serif" font-size="10.00">map</text>
</a>
</g>
</g>
<!-- Node1&#45;&gt;Node8 -->
<g id="edge57" class="edge">
<title>Node1&#45;&gt;Node8</title>
<path fill="none" stroke="midnightblue" d="M866.73,-286.25C683.05,-276.64 101.07,-242.14 38,-188 24.78,-176.65 20.5,-156.65 19.24,-141.83"/>
<polygon fill="midnightblue" stroke="midnightblue" points="22.73,-141.55 18.76,-131.73 15.73,-141.88 22.73,-141.55"/>
</g>
<!-- Node16 -->
<g id="node16" class="node">
<title>Node16</title>
<g id="a_node16"><a xlink:href="ring__buffer_8h.html" target="_top" xlink:title=" ">
<polygon fill="white" stroke="black" points="931.5,-224.5 931.5,-243.5 1008.5,-243.5 1008.5,-224.5 931.5,-224.5"/>
<text text-anchor="middle" x="970" y="-231.5" font-family="Helvetica,sans-Serif" font-size="10.00">ring_buffer.h</text>
</a>
</g>
</g>
<!-- Node1&#45;&gt;Node16 -->
<g id="edge17" class="edge">
<title>Node1&#45;&gt;Node16</title>
<path fill="none" stroke="midnightblue" d="M929.93,-280.08C936.85,-272.3 947.07,-260.8 955.45,-251.37"/>
<polygon fill="midnightblue" stroke="midnightblue" points="958.19,-253.55 962.22,-243.75 952.96,-248.9 958.19,-253.55"/>
</g>
<!-- Node33 -->
<g id="node33" class="node">
<title>Node33</title>
<g id="a_node33"><a xlink:title=" ">
<polygon fill="white" stroke="#bfbfbf" points="1606.5,-0.5 1606.5,-19.5 1671.5,-19.5 1671.5,-0.5 1606.5,-0.5"/>
<text text-anchor="middle" x="1639" y="-7.5" font-family="Helvetica,sans-Serif" font-size="10.00">stdexcept</text>
</a>
</g>
</g>
<!-- Node1&#45;&gt;Node33 -->
<g id="edge58" class="edge">
<title>Node1&#45;&gt;Node33</title>
<path fill="none" stroke="midnightblue" d="M977.01,-286.43C1145.97,-277.82 1646,-246.62 1646,-179 1646,-179 1646,-179 1646,-121 1646,-88.88 1642.99,-51.6 1640.92,-29.73"/>
<polygon fill="midnightblue" stroke="midnightblue" points="1644.38,-29.15 1639.92,-19.55 1637.41,-29.84 1644.38,-29.15"/>
</g>
<!-- Node36 -->
<g id="node36" class="node">
<title>Node36</title>
<g id="a_node36"><a xlink:title=" ">
<polygon fill="white" stroke="#bfbfbf" points="795,-112.5 795,-131.5 845,-131.5 845,-112.5 795,-112.5"/>
<text text-anchor="middle" x="820" y="-119.5" font-family="Helvetica,sans-Serif" font-size="10.00">atomic</text>
</a>
</g>
</g>
<!-- Node1&#45;&gt;Node36 -->
<g id="edge55" class="edge">
<title>Node1&#45;&gt;Node36</title>
<path fill="none" stroke="midnightblue" d="M914.39,-280.32C899.87,-263.45 867.81,-224.66 847,-188 838.43,-172.91 831.06,-154.55 826.2,-141.2"/>
<polygon fill="midnightblue" stroke="midnightblue" points="829.48,-139.99 822.86,-131.73 822.88,-142.32 829.48,-139.99"/>
</g>
<!-- Node38 -->
<g id="node38" class="node">
<title>Node38</title>
<g id="a_node38"><a xlink:title=" ">
<polygon fill="white" stroke="#bfbfbf" points="1674.5,-224.5 1674.5,-243.5 1781.5,-243.5 1781.5,-224.5 1674.5,-224.5"/>
<text text-anchor="middle" x="1728" y="-231.5" font-family="Helvetica,sans-Serif" font-size="10.00">condition_variable</text>
</a>
</g>
</g>
<!-- Node1&#45;&gt;Node38 -->
<g id="edge56" class="edge">
<title>Node1&#45;&gt;Node38</title>
<path fill="none" stroke="midnightblue" d="M977.19,-286.97C1100.06,-282.16 1405.42,-268.58 1660,-244 1661.3,-243.87 1662.61,-243.74 1663.94,-243.61"/>
<polygon fill="midnightblue" stroke="midnightblue" points="1664.66,-247.05 1674.22,-242.47 1663.9,-240.09 1664.66,-247.05"/>
</g>
<!-- Node3 -->
<g id="node3" class="node">
<title>Node3</title>
<g id="a_node3"><a xlink:href="enum__formatter_8h.html" target="_top" xlink:title=" ">
<polygon fill="white" stroke="black" points="514,-168.5 514,-187.5 650,-187.5 650,-168.5 514,-168.5"/>
<text text-anchor="middle" x="582" y="-175.5" font-family="Helvetica,sans-Serif" font-size="10.00">ccf/ds/enum_formatter.h</text>
</a>
</g>
</g>
<!-- Node2&#45;&gt;Node3 -->
<g id="edge2" class="edge">
<title>Node2&#45;&gt;Node3</title>
<path fill="none" stroke="midnightblue" d="M523.25,-224.32C533.8,-216.18 549.8,-203.84 562.44,-194.09"/>
<polygon fill="midnightblue" stroke="midnightblue" points="564.77,-196.71 570.55,-187.83 560.49,-191.17 564.77,-196.71"/>
</g>
<!-- Node4 -->
<g id="node4" class="node">
<title>Node4</title>
<g id="a_node4"><a xlink:title=" ">
<polygon fill="white" stroke="#bfbfbf" points="430.5,-112.5 430.5,-131.5 509.5,-131.5 509.5,-112.5 430.5,-112.5"/>
<text text-anchor="middle" x="470" y="-119.5" font-family="Helvetica,sans-Serif" font-size="10.00">fmt/format.h</text>
</a>
</g>
</g>
<!-- Node2&#45;&gt;Node4 -->
<g id="edge11" class="edge">
<title>Node2&#45;&gt;Node4</title>
<path fill="none" stroke="midnightblue" d="M468.39,-231.19C437.36,-227.34 397.66,-216.66 377,-188 359.62,-163.89 395.04,-145.62 427.05,-134.68"/>
<polygon fill="midnightblue" stroke="midnightblue" points="428.38,-137.93 436.81,-131.52 426.22,-131.27 428.38,-137.93"/>
</g>
<!-- Node5 -->
<g id="node5" class="node">
<title>Node5</title>
<g id="a_node5"><a xlink:href="thread__ids_8h.html" target="_top" xlink:title=" ">
<polygon fill="white" stroke="black" points="47,-168.5 47,-187.5 155,-187.5 155,-168.5 47,-168.5"/>
<text text-anchor="middle" x="101" y="-175.5" font-family="Helvetica,sans-Serif" font-size="10.00">ccf/ds/thread_ids.h</text>
</a>
</g>
</g>
<!-- Node2&#45;&gt;Node5 -->
<g id="edge4" class="edge">
<title>Node2&#45;&gt;Node5</title>
<path fill="none" stroke="midnightblue" d="M468.3,-227.54C404.2,-219.49 280.66,-203.81 165.35,-188.17"/>
<polygon fill="midnightblue" stroke="midnightblue" points="165.67,-184.68 155.29,-186.8 164.73,-191.62 165.67,-184.68"/>
</g>
<!-- Node10 -->
<g id="node10" class="node">
<title>Node10</title>
<g id="a_node10"><a xlink:title=" ">
<polygon fill="white" stroke="#bfbfbf" points="173.5,-168.5 173.5,-187.5 252.5,-187.5 252.5,-168.5 173.5,-168.5"/>
<text text-anchor="middle" x="213" y="-175.5" font-family="Helvetica,sans-Serif" font-size="10.00">fmt/chrono.h</text>
</a>
</g>
</g>
<!-- Node2&#45;&gt;Node10 -->
<g id="edge10" class="edge">
<title>Node2&#45;&gt;Node10</title>
<path fill="none" stroke="midnightblue" d="M468.45,-225.3C420.43,-216.79 340.61,-202.56 262.55,-188.27"/>
<polygon fill="midnightblue" stroke="midnightblue" points="263.02,-184.8 252.55,-186.44 261.75,-191.69 263.02,-184.8"/>
</g>
<!-- Node11 -->
<g id="node11" class="node">
<title>Node11</title>
<g id="a_node11"><a xlink:title=" ">
<polygon fill="white" stroke="#bfbfbf" points="270,-168.5 270,-187.5 330,-187.5 330,-168.5 270,-168.5"/>
<text text-anchor="middle" x="300" y="-175.5" font-family="Helvetica,sans-Serif" font-size="10.00">iostream</text>
</a>
</g>
</g>
<!-- Node2&#45;&gt;Node11 -->
<g id="edge12" class="edge">
<title>Node2&#45;&gt;Node11</title>
<path fill="none" stroke="midnightblue" d="M478.41,-224.44C440.82,-214.87 379.95,-199.36 339.95,-189.18"/>
<polygon fill="midnightblue" stroke="midnightblue" points="340.56,-185.72 330.01,-186.64 338.83,-192.5 340.56,-185.72"/>
</g>
<!-- Node12 -->
<g id="node12" class="node">
<title>Node12</title>
<g id="a_node12"><a xlink:title=" ">
<polygon fill="white" stroke="#bfbfbf" points="386,-168.5 386,-187.5 496,-187.5 496,-168.5 386,-168.5"/>
<text text-anchor="middle" x="441" y="-175.5" font-family="Helvetica,sans-Serif" font-size="10.00">nlohmann/json.hpp</text>
</a>
</g>
</g>
<!-- Node2&#45;&gt;Node12 -->
<g id="edge13" class="edge">
<title>Node2&#45;&gt;Node12</title>
<path fill="none" stroke="midnightblue" d="M500.59,-224.32C489.89,-216.18 473.66,-203.84 460.84,-194.09"/>
<polygon fill="midnightblue" stroke="midnightblue" points="462.69,-191.1 452.61,-187.83 458.46,-196.67 462.69,-191.1"/>
</g>
<!-- Node13 -->
<g id="node13" class="node">
<title>Node13</title>
<g id="a_node13"><a xlink:title=" ">
<polygon fill="white" stroke="#bfbfbf" points="721,-112.5 721,-131.5 777,-131.5 777,-112.5 721,-112.5"/>
<text text-anchor="middle" x="749" y="-119.5" font-family="Helvetica,sans-Serif" font-size="10.00">optional</text>
</a>
</g>
</g>
<!-- Node2&#45;&gt;Node13 -->
<g id="edge14" class="edge">
<title>Node2&#45;&gt;Node13</title>
<path fill="none" stroke="midnightblue" d="M555.52,-231.95C622,-229.32 743.97,-220.13 771,-188 782.58,-174.24 772.85,-154.11 762.92,-139.9"/>
<polygon fill="midnightblue" stroke="midnightblue" points="765.42,-137.41 756.59,-131.55 759.84,-141.63 765.42,-137.41"/>
</g>
<!-- Node14 -->
<g id="node14" class="node">
<title>Node14</title>
<g id="a_node14"><a xlink:title=" ">
<polygon fill="white" stroke="#bfbfbf" points="706,-168.5 706,-187.5 762,-187.5 762,-168.5 706,-168.5"/>
<text text-anchor="middle" x="734" y="-175.5" font-family="Helvetica,sans-Serif" font-size="10.00">sstream</text>
</a>
</g>
</g>
<!-- Node2&#45;&gt;Node14 -->
<g id="edge15" class="edge">
<title>Node2&#45;&gt;Node14</title>
<path fill="none" stroke="midnightblue" d="M547.18,-224.44C587.73,-214.58 654.13,-198.43 695.88,-188.27"/>
<polygon fill="midnightblue" stroke="midnightblue" points="696.79,-191.65 705.68,-185.89 695.14,-184.85 696.79,-191.65"/>
</g>
<!-- Node15 -->
<g id="node15" class="node">
<title>Node15</title>
<g id="a_node15"><a xlink:title=" ">
<polygon fill="white" stroke="#bfbfbf" points="605.5,-0.5 605.5,-19.5 674.5,-19.5 674.5,-0.5 605.5,-0.5"/>
<text text-anchor="middle" x="640" y="-7.5" font-family="Helvetica,sans-Serif" font-size="10.00">type_traits</text>
</a>
</g>
</g>
<!-- Node2&#45;&gt;Node15 -->
<g id="edge16" class="edge">
<title>Node2&#45;&gt;Node15</title>
<path fill="none" stroke="midnightblue" d="M555.53,-232.72C589.74,-229.9 635.43,-219.86 659,-188 694.48,-140.04 665.65,-63.77 649.32,-29.15"/>
<polygon fill="midnightblue" stroke="midnightblue" points="652.29,-27.26 644.74,-19.82 646.01,-30.34 652.29,-27.26"/>
</g>
<!-- Node3&#45;&gt;Node4 -->
<g id="edge3" class="edge">
<title>Node3&#45;&gt;Node4</title>
<path fill="none" stroke="midnightblue" d="M564.01,-168.32C545.96,-159.62 517.95,-146.12 497.2,-136.11"/>
<polygon fill="midnightblue" stroke="midnightblue" points="498.48,-132.84 487.95,-131.65 495.44,-139.15 498.48,-132.84"/>
</g>
<!-- Node5&#45;&gt;Node4 -->
<g id="edge5" class="edge">
<title>Node5&#45;&gt;Node4</title>
<path fill="none" stroke="midnightblue" d="M155.05,-169.09C226.36,-158.65 350.89,-140.43 420.07,-130.31"/>
<polygon fill="midnightblue" stroke="midnightblue" points="420.89,-133.72 430.28,-128.81 419.88,-126.8 420.89,-133.72"/>
</g>
<!-- Node6 -->
<g id="node6" class="node">
<title>Node6</title>
<g id="a_node6"><a xlink:title=" ">
<polygon fill="white" stroke="#bfbfbf" points="56,-112.5 56,-131.5 142,-131.5 142,-112.5 56,-112.5"/>
<text text-anchor="middle" x="99" y="-119.5" font-family="Helvetica,sans-Serif" font-size="10.00">fmt/ostream.h</text>
</a>
</g>
</g>
<!-- Node5&#45;&gt;Node6 -->
<g id="edge6" class="edge">
<title>Node5&#45;&gt;Node6</title>
<path fill="none" stroke="midnightblue" d="M100.67,-168.08C100.41,-161.01 100.03,-150.86 99.7,-141.99"/>
<polygon fill="midnightblue" stroke="midnightblue" points="103.19,-141.61 99.32,-131.75 96.2,-141.87 103.19,-141.61"/>
</g>
<!-- Node7 -->
<g id="node7" class="node">
<title>Node7</title>
<g id="a_node7"><a xlink:title=" ">
<polygon fill="white" stroke="#bfbfbf" points="160,-112.5 160,-131.5 204,-131.5 204,-112.5 160,-112.5"/>
<text text-anchor="middle" x="182" y="-119.5" font-family="Helvetica,sans-Serif" font-size="10.00">limits</text>
</a>
</g>
</g>
<!-- Node5&#45;&gt;Node7 -->
<g id="edge7" class="edge">
<title>Node5&#45;&gt;Node7</title>
<path fill="none" stroke="midnightblue" d="M114.01,-168.32C126.53,-159.98 145.68,-147.21 160.47,-137.35"/>
<polygon fill="midnightblue" stroke="midnightblue" points="162.64,-140.11 169.02,-131.65 158.76,-134.29 162.64,-140.11"/>
</g>
<!-- Node5&#45;&gt;Node8 -->
<g id="edge8" class="edge">
<title>Node5&#45;&gt;Node8</title>
<path fill="none" stroke="midnightblue" d="M87.83,-168.32C75.15,-159.98 55.77,-147.21 40.79,-137.35"/>
<polygon fill="midnightblue" stroke="midnightblue" points="42.42,-134.23 32.14,-131.65 38.57,-140.08 42.42,-134.23"/>
</g>
<!-- Node9 -->
<g id="node9" class="node">
<title>Node9</title>
<g id="a_node9"><a xlink:title=" ">
<polygon fill="white" stroke="#bfbfbf" points="222,-112.5 222,-131.5 270,-131.5 270,-112.5 222,-112.5"/>
<text text-anchor="middle" x="246" y="-119.5" font-family="Helvetica,sans-Serif" font-size="10.00">thread</text>
</a>
</g>
</g>
<!-- Node5&#45;&gt;Node9 -->
<g id="edge9" class="edge">
<title>Node5&#45;&gt;Node9</title>
<path fill="none" stroke="midnightblue" d="M123.98,-168.44C148.16,-159.44 186.42,-145.19 213.65,-135.05"/>
<polygon fill="midnightblue" stroke="midnightblue" points="214.98,-138.29 223.13,-131.52 212.54,-131.73 214.98,-138.29"/>
</g>
<!-- Node17 -->
<g id="node17" class="node">
<title>Node17</title>
<g id="a_node17"><a xlink:href="ring__buffer__types_8h.html" target="_top" xlink:title=" ">
<polygon fill="white" stroke="black" points="856,-168.5 856,-187.5 966,-187.5 966,-168.5 856,-168.5"/>
<text text-anchor="middle" x="911" y="-175.5" font-family="Helvetica,sans-Serif" font-size="10.00">ring_buffer_types.h</text>
</a>
</g>
</g>
<!-- Node16&#45;&gt;Node17 -->
<g id="edge18" class="edge">
<title>Node16&#45;&gt;Node17</title>
<path fill="none" stroke="midnightblue" d="M960.52,-224.32C951.8,-216.34 938.66,-204.31 928.1,-194.65"/>
<polygon fill="midnightblue" stroke="midnightblue" points="930.39,-192 920.65,-187.83 925.67,-197.17 930.39,-192"/>
</g>
<!-- Node32 -->
<g id="node32" class="node">
<title>Node32</title>
<g id="a_node32"><a xlink:title=" ">
<polygon fill="white" stroke="#bfbfbf" points="1525,-0.5 1525,-19.5 1575,-19.5 1575,-0.5 1525,-0.5"/>
<text text-anchor="middle" x="1550" y="-7.5" font-family="Helvetica,sans-Serif" font-size="10.00">cstring</text>
</a>
</g>
</g>
<!-- Node16&#45;&gt;Node32 -->
<g id="edge53" class="edge">
<title>Node16&#45;&gt;Node32</title>
<path fill="none" stroke="midnightblue" d="M1008.63,-229.27C1132.55,-216.43 1516.15,-169.63 1589,-76 1601.46,-59.99 1584.78,-39.7 1569.53,-26.08"/>
<polygon fill="midnightblue" stroke="midnightblue" points="1571.75,-23.38 1561.85,-19.63 1567.25,-28.74 1571.75,-23.38"/>
</g>
<!-- Node37 -->
<g id="node37" class="node">
<title>Node37</title>
<g id="a_node37"><a xlink:title=" ">
<polygon fill="white" stroke="#bfbfbf" points="984.5,-168.5 984.5,-187.5 1049.5,-187.5 1049.5,-168.5 984.5,-168.5"/>
<text text-anchor="middle" x="1017" y="-175.5" font-family="Helvetica,sans-Serif" font-size="10.00">functional</text>
</a>
</g>
</g>
<!-- Node16&#45;&gt;Node37 -->
<g id="edge54" class="edge">
<title>Node16&#45;&gt;Node37</title>
<path fill="none" stroke="midnightblue" d="M977.76,-224.08C984.54,-216.3 994.54,-204.8 1002.76,-195.37"/>
<polygon fill="midnightblue" stroke="midnightblue" points="1005.46,-197.59 1009.38,-187.75 1000.18,-193 1005.46,-197.59"/>
</g>
<!-- Node17&#45;&gt;Node4 -->
<g id="edge49" class="edge">
<title>Node17&#45;&gt;Node4</title>
<path fill="none" stroke="midnightblue" d="M855.59,-170.22C768.87,-159.6 602.44,-139.22 519.51,-129.06"/>
<polygon fill="midnightblue" stroke="midnightblue" points="519.93,-125.59 509.58,-127.85 519.08,-132.54 519.93,-125.59"/>
</g>
<!-- Node17&#45;&gt;Node13 -->
<g id="edge50" class="edge">
<title>Node17&#45;&gt;Node13</title>
<path fill="none" stroke="midnightblue" d="M885.33,-168.44C858.08,-159.36 814.82,-144.94 784.35,-134.78"/>
<polygon fill="midnightblue" stroke="midnightblue" points="785.14,-131.36 774.55,-131.52 782.93,-138 785.14,-131.36"/>
</g>
<!-- Node18 -->
<g id="node18" class="node">
<title>Node18</title>
<g id="a_node18"><a xlink:href="nonstd_8h.html" target="_top" xlink:title=" ">
<polygon fill="white" stroke="black" points="755,-56.5 755,-75.5 845,-75.5 845,-56.5 755,-56.5"/>
<text text-anchor="middle" x="800" y="-63.5" font-family="Helvetica,sans-Serif" font-size="10.00">ccf/ds/nonstd.h</text>
</a>
</g>
</g>
<!-- Node17&#45;&gt;Node18 -->
<g id="edge19" class="edge">
<title>Node17&#45;&gt;Node18</title>
<path fill="none" stroke="midnightblue" d="M904.03,-168.2C893.66,-155.33 873.34,-130.86 854,-112 843.22,-101.48 830.28,-90.65 819.77,-82.24"/>
<polygon fill="midnightblue" stroke="midnightblue" points="821.63,-79.26 811.61,-75.82 817.3,-84.76 821.63,-79.26"/>
</g>
<!-- Node22 -->
<g id="node22" class="node">
<title>Node22</title>
<g id="a_node22"><a xlink:title=" ">
<polygon fill="white" stroke="#bfbfbf" points="994,-0.5 994,-19.5 1038,-19.5 1038,-0.5 994,-0.5"/>
<text text-anchor="middle" x="1016" y="-7.5" font-family="Helvetica,sans-Serif" font-size="10.00">string</text>
</a>
</g>
</g>
<!-- Node17&#45;&gt;Node22 -->
<g id="edge51" class="edge">
<title>Node17&#45;&gt;Node22</title>
<path fill="none" stroke="midnightblue" d="M910.38,-168.42C909.31,-147.18 909.27,-91.31 935,-56 947.04,-39.48 967.08,-28.27 984.22,-21.18"/>
<polygon fill="midnightblue" stroke="midnightblue" points="985.81,-24.31 993.89,-17.46 983.3,-17.78 985.81,-24.31"/>
</g>
<!-- Node24 -->
<g id="node24" class="node">
<title>Node24</title>
<g id="a_node24"><a xlink:title=" ">
<polygon fill="white" stroke="#bfbfbf" points="1148.5,-0.5 1148.5,-19.5 1195.5,-19.5 1195.5,-0.5 1148.5,-0.5"/>
<text text-anchor="middle" x="1172" y="-7.5" font-family="Helvetica,sans-Serif" font-size="10.00">vector</text>
</a>
</g>
</g>
<!-- Node17&#45;&gt;Node24 -->
<g id="edge52" class="edge">
<title>Node17&#45;&gt;Node24</title>
<path fill="none" stroke="midnightblue" d="M913.94,-168.16C922.51,-142.89 948.05,-71.22 967,-56 993.06,-35.07 1087.04,-21.03 1138.22,-14.75"/>
<polygon fill="midnightblue" stroke="midnightblue" points="1138.93,-18.19 1148.45,-13.53 1138.1,-11.24 1138.93,-18.19"/>
</g>
<!-- Node25 -->
<g id="node25" class="node">
<title>Node25</title>
<g id="a_node25"><a xlink:href="ds_2hash_8h.html" target="_top" xlink:title=" ">
<polygon fill="white" stroke="black" points="1047.5,-112.5 1047.5,-131.5 1110.5,-131.5 1110.5,-112.5 1047.5,-112.5"/>
<text text-anchor="middle" x="1079" y="-119.5" font-family="Helvetica,sans-Serif" font-size="10.00">ds/hash.h</text>
</a>
</g>
</g>
<!-- Node17&#45;&gt;Node25 -->
<g id="edge27" class="edge">
<title>Node17&#45;&gt;Node25</title>
<path fill="none" stroke="midnightblue" d="M937.62,-168.44C966.01,-159.32 1011.14,-144.81 1042.75,-134.65"/>
<polygon fill="midnightblue" stroke="midnightblue" points="1044.06,-137.91 1052.5,-131.52 1041.91,-131.24 1044.06,-137.91"/>
</g>
<!-- Node30 -->
<g id="node30" class="node">
<title>Node30</title>
<g id="a_node30"><a xlink:href="serializer_8h.html" target="_top" xlink:title=" ">
<polygon fill="white" stroke="black" points="1156,-112.5 1156,-131.5 1226,-131.5 1226,-112.5 1156,-112.5"/>
<text text-anchor="middle" x="1191" y="-119.5" font-family="Helvetica,sans-Serif" font-size="10.00">serializer.h</text>
</a>
</g>
</g>
<!-- Node17&#45;&gt;Node30 -->
<g id="edge36" class="edge">
<title>Node17&#45;&gt;Node30</title>
<path fill="none" stroke="midnightblue" d="M955.37,-168.44C1007.41,-158.41 1093.23,-141.86 1145.68,-131.74"/>
<polygon fill="midnightblue" stroke="midnightblue" points="1146.55,-135.14 1155.71,-129.81 1145.22,-128.26 1146.55,-135.14"/>
</g>
<!-- Node17&#45;&gt;Node36 -->
<g id="edge48" class="edge">
<title>Node17&#45;&gt;Node36</title>
<path fill="none" stroke="midnightblue" d="M896.38,-168.32C882.05,-159.82 859.99,-146.73 843.25,-136.8"/>
<polygon fill="midnightblue" stroke="midnightblue" points="844.97,-133.75 834.58,-131.65 841.4,-139.77 844.97,-133.75"/>
</g>
<!-- Node18&#45;&gt;Node15 -->
<g id="edge25" class="edge">
<title>Node18&#45;&gt;Node15</title>
<path fill="none" stroke="midnightblue" d="M774.65,-56.44C747.73,-47.36 705,-32.94 674.91,-22.78"/>
<polygon fill="midnightblue" stroke="midnightblue" points="675.83,-19.4 665.23,-19.52 673.59,-26.03 675.83,-19.4"/>
</g>
<!-- Node19 -->
<g id="node19" class="node">
<title>Node19</title>
<g id="a_node19"><a xlink:title=" ">
<polygon fill="white" stroke="#bfbfbf" points="693,-0.5 693,-19.5 757,-19.5 757,-0.5 693,-0.5"/>
<text text-anchor="middle" x="725" y="-7.5" font-family="Helvetica,sans-Serif" font-size="10.00">algorithm</text>
</a>
</g>
</g>
<!-- Node18&#45;&gt;Node19 -->
<g id="edge20" class="edge">
<title>Node18&#45;&gt;Node19</title>
<path fill="none" stroke="midnightblue" d="M787.95,-56.32C776.54,-48.11 759.17,-35.6 745.57,-25.81"/>
<polygon fill="midnightblue" stroke="midnightblue" points="747.43,-22.84 737.27,-19.83 743.34,-28.52 747.43,-22.84"/>
</g>
<!-- Node20 -->
<g id="node20" class="node">
<title>Node20</title>
<g id="a_node20"><a xlink:title=" ">
<polygon fill="white" stroke="#bfbfbf" points="934,-0.5 934,-19.5 976,-19.5 976,-0.5 934,-0.5"/>
<text text-anchor="middle" x="955" y="-7.5" font-family="Helvetica,sans-Serif" font-size="10.00">array</text>
</a>
</g>
</g>
<!-- Node18&#45;&gt;Node20 -->
<g id="edge21" class="edge">
<title>Node18&#45;&gt;Node20</title>
<path fill="none" stroke="midnightblue" d="M824.56,-56.44C851.44,-47.08 894.59,-32.05 923.84,-21.86"/>
<polygon fill="midnightblue" stroke="midnightblue" points="925.26,-25.07 933.55,-18.47 922.95,-18.46 925.26,-25.07"/>
</g>
<!-- Node21 -->
<g id="node21" class="node">
<title>Node21</title>
<g id="a_node21"><a xlink:title=" ">
<polygon fill="white" stroke="#bfbfbf" points="775.5,-0.5 775.5,-19.5 824.5,-19.5 824.5,-0.5 775.5,-0.5"/>
<text text-anchor="middle" x="800" y="-7.5" font-family="Helvetica,sans-Serif" font-size="10.00">cctype</text>
</a>
</g>
</g>
<!-- Node18&#45;&gt;Node21 -->
<g id="edge22" class="edge">
<title>Node18&#45;&gt;Node21</title>
<path fill="none" stroke="midnightblue" d="M800,-56.08C800,-49.01 800,-38.86 800,-29.99"/>
<polygon fill="midnightblue" stroke="midnightblue" points="803.5,-29.75 800,-19.75 796.5,-29.75 803.5,-29.75"/>
</g>
<!-- Node18&#45;&gt;Node22 -->
<g id="edge23" class="edge">
<title>Node18&#45;&gt;Node22</title>
<path fill="none" stroke="midnightblue" d="M837.33,-56.43C872.73,-48.19 927.64,-35.11 983.91,-20.21"/>
<polygon fill="midnightblue" stroke="midnightblue" points="984.92,-23.56 993.68,-17.61 983.12,-16.8 984.92,-23.56"/>
</g>
<!-- Node23 -->
<g id="node23" class="node">
<title>Node23</title>
<g id="a_node23"><a xlink:title=" ">
<polygon fill="white" stroke="#bfbfbf" points="842.5,-0.5 842.5,-19.5 915.5,-19.5 915.5,-0.5 842.5,-0.5"/>
<text text-anchor="middle" x="879" y="-7.5" font-family="Helvetica,sans-Serif" font-size="10.00">string_view</text>
</a>
</g>
</g>
<!-- Node18&#45;&gt;Node23 -->
<g id="edge24" class="edge">
<title>Node18&#45;&gt;Node23</title>
<path fill="none" stroke="midnightblue" d="M812.69,-56.32C824.9,-47.98 843.58,-35.21 858,-25.35"/>
<polygon fill="midnightblue" stroke="midnightblue" points="860.06,-28.19 866.34,-19.65 856.11,-22.41 860.06,-28.19"/>
</g>
<!-- Node18&#45;&gt;Node24 -->
<g id="edge26" class="edge">
<title>Node18&#45;&gt;Node24</title>
<path fill="none" stroke="midnightblue" d="M845.24,-58.43C920.78,-47.47 1070.92,-25.67 1138.11,-15.92"/>
<polygon fill="midnightblue" stroke="midnightblue" points="1138.77,-19.36 1148.16,-14.46 1137.76,-12.43 1138.77,-19.36"/>
</g>
<!-- Node25&#45;&gt;Node20 -->
<g id="edge32" class="edge">
<title>Node25&#45;&gt;Node20</title>
<path fill="none" stroke="midnightblue" d="M1047.28,-116.71C1021.7,-111.52 986.84,-100.25 967,-76 956.45,-63.1 954.01,-43.93 953.87,-29.74"/>
<polygon fill="midnightblue" stroke="midnightblue" points="957.37,-29.75 954.14,-19.65 950.37,-29.56 957.37,-29.75"/>
</g>
<!-- Node25&#45;&gt;Node24 -->
<g id="edge35" class="edge">
<title>Node25&#45;&gt;Node24</title>
<path fill="none" stroke="midnightblue" d="M1091.9,-112.46C1103.81,-104.14 1121.5,-90.63 1134,-76 1146.31,-61.59 1156.87,-42.64 1163.71,-28.93"/>
<polygon fill="midnightblue" stroke="midnightblue" points="1167.01,-30.15 1168.18,-19.62 1160.7,-27.12 1167.01,-30.15"/>
</g>
<!-- Node26 -->
<g id="node26" class="node">
<title>Node26</title>
<g id="a_node26"><a xlink:href="siphash_8h.html" target="_top" xlink:title=" ">
<polygon fill="white" stroke="black" points="1219.5,-56.5 1219.5,-75.5 1314.5,-75.5 1314.5,-56.5 1219.5,-56.5"/>
<text text-anchor="middle" x="1267" y="-63.5" font-family="Helvetica,sans-Serif" font-size="10.00">ccf/ds/siphash.h</text>
</a>
</g>
</g>
<!-- Node25&#45;&gt;Node26 -->
<g id="edge28" class="edge">
<title>Node25&#45;&gt;Node26</title>
<path fill="none" stroke="midnightblue" d="M1108.79,-112.44C1140.83,-103.24 1191.93,-88.56 1227.35,-78.39"/>
<polygon fill="midnightblue" stroke="midnightblue" points="1228.71,-81.64 1237.35,-75.52 1226.77,-74.91 1228.71,-81.64"/>
</g>
<!-- Node28 -->
<g id="node28" class="node">
<title>Node28</title>
<g id="a_node28"><a xlink:title=" ">
<polygon fill="white" stroke="#bfbfbf" points="1318,-0.5 1318,-19.5 1368,-19.5 1368,-0.5 1318,-0.5"/>
<text text-anchor="middle" x="1343" y="-7.5" font-family="Helvetica,sans-Serif" font-size="10.00">cstdint</text>
</a>
</g>
</g>
<!-- Node25&#45;&gt;Node28 -->
<g id="edge33" class="edge">
<title>Node25&#45;&gt;Node28</title>
<path fill="none" stroke="midnightblue" d="M1110.78,-116.07C1175.27,-105.94 1316.09,-83.13 1324,-76 1336.94,-64.33 1341.26,-44.38 1342.61,-29.66"/>
<polygon fill="midnightblue" stroke="midnightblue" points="1346.11,-29.81 1343.16,-19.64 1339.12,-29.43 1346.11,-29.81"/>
</g>
<!-- Node29 -->
<g id="node29" class="node">
<title>Node29</title>
<g id="a_node29"><a xlink:title=" ">
<polygon fill="white" stroke="#bfbfbf" points="976.5,-56.5 976.5,-75.5 1125.5,-75.5 1125.5,-56.5 976.5,-56.5"/>
<text text-anchor="middle" x="1051" y="-63.5" font-family="Helvetica,sans-Serif" font-size="10.00">small_vector/SmallVector.h</text>
</a>
</g>
</g>
<!-- Node25&#45;&gt;Node29 -->
<g id="edge34" class="edge">
<title>Node25&#45;&gt;Node29</title>
<path fill="none" stroke="midnightblue" d="M1074.38,-112.08C1070.54,-104.69 1064.98,-93.95 1060.24,-84.81"/>
<polygon fill="midnightblue" stroke="midnightblue" points="1063.25,-83.02 1055.54,-75.75 1057.03,-86.24 1063.25,-83.02"/>
</g>
<!-- Node26&#45;&gt;Node24 -->
<g id="edge31" class="edge">
<title>Node26&#45;&gt;Node24</title>
<path fill="none" stroke="midnightblue" d="M1251.74,-56.32C1236.78,-47.82 1213.75,-34.73 1196.27,-24.8"/>
<polygon fill="midnightblue" stroke="midnightblue" points="1197.65,-21.55 1187.23,-19.65 1194.19,-27.64 1197.65,-21.55"/>
</g>
<!-- Node27 -->
<g id="node27" class="node">
<title>Node27</title>
<g id="a_node27"><a xlink:title=" ">
<polygon fill="white" stroke="#bfbfbf" points="1240.5,-0.5 1240.5,-19.5 1293.5,-19.5 1293.5,-0.5 1240.5,-0.5"/>
<text text-anchor="middle" x="1267" y="-7.5" font-family="Helvetica,sans-Serif" font-size="10.00">cstddef</text>
</a>
</g>
</g>
<!-- Node26&#45;&gt;Node27 -->
<g id="edge29" class="edge">
<title>Node26&#45;&gt;Node27</title>
<path fill="none" stroke="midnightblue" d="M1267,-56.08C1267,-49.01 1267,-38.86 1267,-29.99"/>
<polygon fill="midnightblue" stroke="midnightblue" points="1270.5,-29.75 1267,-19.75 1263.5,-29.75 1270.5,-29.75"/>
</g>
<!-- Node26&#45;&gt;Node28 -->
<g id="edge30" class="edge">
<title>Node26&#45;&gt;Node28</title>
<path fill="none" stroke="midnightblue" d="M1279.21,-56.32C1290.78,-48.11 1308.38,-35.6 1322.16,-25.81"/>
<polygon fill="midnightblue" stroke="midnightblue" points="1324.44,-28.48 1330.57,-19.83 1320.39,-22.77 1324.44,-28.48"/>
</g>
<!-- Node30&#45;&gt;Node15 -->
<g id="edge46" class="edge">
<title>Node30&#45;&gt;Node15</title>
<path fill="none" stroke="midnightblue" d="M1155.87,-116.41C1144.15,-114.93 1131.02,-113.33 1119,-112 953.46,-93.67 903.93,-128.89 746,-76 712.48,-64.77 678.47,-41.31 658.31,-25.86"/>
<polygon fill="midnightblue" stroke="midnightblue" points="660.35,-23.01 650.32,-19.59 656.03,-28.52 660.35,-23.01"/>
</g>
<!-- Node30&#45;&gt;Node18 -->
<g id="edge37" class="edge">
<title>Node30&#45;&gt;Node18</title>
<path fill="none" stroke="midnightblue" d="M1155.96,-116.16C1087.83,-106.75 937.05,-85.93 855.3,-74.64"/>
<polygon fill="midnightblue" stroke="midnightblue" points="855.58,-71.14 845.2,-73.24 854.63,-78.08 855.58,-71.14"/>
</g>
<!-- Node30&#45;&gt;Node24 -->
<g id="edge47" class="edge">
<title>Node30&#45;&gt;Node24</title>
<path fill="none" stroke="midnightblue" d="M1189.51,-112.37C1186.44,-94.62 1179.37,-53.67 1175.21,-29.6"/>
<polygon fill="midnightblue" stroke="midnightblue" points="1178.64,-28.85 1173.48,-19.59 1171.74,-30.04 1178.64,-28.85"/>
</g>
<!-- Node31 -->
<g id="node31" class="node">
<title>Node31</title>
<g id="a_node31"><a xlink:href="serialized_8h.html" target="_top" xlink:title=" ">
<polygon fill="white" stroke="black" points="1506.5,-56.5 1506.5,-75.5 1579.5,-75.5 1579.5,-56.5 1506.5,-56.5"/>
<text text-anchor="middle" x="1543" y="-63.5" font-family="Helvetica,sans-Serif" font-size="10.00">serialized.h</text>
</a>
</g>
</g>
<!-- Node30&#45;&gt;Node31 -->
<g id="edge38" class="edge">
<title>Node30&#45;&gt;Node31</title>
<path fill="none" stroke="midnightblue" d="M1226.09,-116.46C1281.42,-109.17 1392.58,-93.99 1496.19,-76.25"/>
<polygon fill="midnightblue" stroke="midnightblue" points="1496.93,-79.67 1506.19,-74.52 1495.74,-72.77 1496.93,-79.67"/>
</g>
<!-- Node34 -->
<g id="node34" class="node">
<title>Node34</title>
<g id="a_node34"><a xlink:title=" ">
<polygon fill="white" stroke="#bfbfbf" points="1371,-56.5 1371,-75.5 1429,-75.5 1429,-56.5 1371,-56.5"/>
<text text-anchor="middle" x="1400" y="-63.5" font-family="Helvetica,sans-Serif" font-size="10.00">memory</text>
</a>
</g>
</g>
<!-- Node30&#45;&gt;Node34 -->
<g id="edge44" class="edge">
<title>Node30&#45;&gt;Node34</title>
<path fill="none" stroke="midnightblue" d="M1224.12,-112.44C1261.28,-102.84 1321.52,-87.28 1360.95,-77.09"/>
<polygon fill="midnightblue" stroke="midnightblue" points="1361.94,-80.45 1370.75,-74.56 1360.19,-73.67 1361.94,-80.45"/>
</g>
<!-- Node35 -->
<g id="node35" class="node">
<title>Node35</title>
<g id="a_node35"><a xlink:title=" ">
<polygon fill="white" stroke="#bfbfbf" points="1447.5,-56.5 1447.5,-75.5 1488.5,-75.5 1488.5,-56.5 1447.5,-56.5"/>
<text text-anchor="middle" x="1468" y="-63.5" font-family="Helvetica,sans-Serif" font-size="10.00">tuple</text>
</a>
</g>
</g>
<!-- Node30&#45;&gt;Node35 -->
<g id="edge45" class="edge">
<title>Node30&#45;&gt;Node35</title>
<path fill="none" stroke="midnightblue" d="M1226.02,-115.88C1272.25,-108.84 1356.3,-95.1 1437.54,-75.87"/>
<polygon fill="midnightblue" stroke="midnightblue" points="1438.52,-79.24 1447.43,-73.5 1436.88,-72.43 1438.52,-79.24"/>
</g>
<!-- Node31&#45;&gt;Node22 -->
<g id="edge42" class="edge">
<title>Node31&#45;&gt;Node22</title>
<path fill="none" stroke="midnightblue" d="M1506.22,-57.32C1503.44,-56.84 1500.68,-56.39 1498,-56 1410.61,-43.22 1141.82,-21.09 1048.4,-13.58"/>
<polygon fill="midnightblue" stroke="midnightblue" points="1048.4,-10.07 1038.15,-12.76 1047.84,-17.05 1048.4,-10.07"/>
</g>
<!-- Node31&#45;&gt;Node24 -->
<g id="edge43" class="edge">
<title>Node31&#45;&gt;Node24</title>
<path fill="none" stroke="midnightblue" d="M1506.2,-57.44C1503.43,-56.93 1500.67,-56.45 1498,-56 1380.34,-36.29 1350.1,-36.85 1232,-20 1223.47,-18.78 1214.27,-17.43 1205.7,-16.14"/>
<polygon fill="midnightblue" stroke="midnightblue" points="1206.05,-12.66 1195.64,-14.63 1205.01,-19.58 1206.05,-12.66"/>
</g>
<!-- Node31&#45;&gt;Node28 -->
<g id="edge39" class="edge">
<title>Node31&#45;&gt;Node28</title>
<path fill="none" stroke="midnightblue" d="M1511.31,-56.44C1475.06,-46.66 1415.89,-30.68 1378.22,-20.51"/>
<polygon fill="midnightblue" stroke="midnightblue" points="1378.78,-17.03 1368.21,-17.81 1376.95,-23.79 1378.78,-17.03"/>
</g>
<!-- Node31&#45;&gt;Node32 -->
<g id="edge40" class="edge">
<title>Node31&#45;&gt;Node32</title>
<path fill="none" stroke="midnightblue" d="M1544.16,-56.08C1545.08,-48.93 1546.42,-38.64 1547.58,-29.69"/>
<polygon fill="midnightblue" stroke="midnightblue" points="1551.05,-30.12 1548.87,-19.75 1544.11,-29.22 1551.05,-30.12"/>
</g>
<!-- Node31&#45;&gt;Node33 -->
<g id="edge41" class="edge">
<title>Node31&#45;&gt;Node33</title>
<path fill="none" stroke="midnightblue" d="M1558.42,-56.32C1573.54,-47.82 1596.82,-34.73 1614.47,-24.8"/>
<polygon fill="midnightblue" stroke="midnightblue" points="1616.61,-27.61 1623.61,-19.65 1613.18,-21.51 1616.61,-27.61"/>
</g>
</g>
</svg>
