<?xml version="1.0" encoding="UTF-8" standalone="no"?>
<!DOCTYPE svg PUBLIC "-//W3C//DTD SVG 1.1//EN"
 "http://www.w3.org/Graphics/SVG/1.1/DTD/svg11.dtd">
<!-- Generated by graphviz version 2.43.0 (0)
 -->
<!-- Title: include/ccf/node_context.h Pages: 1 -->
<!--zoomable 542 -->
<svg id="main" version="1.1" xmlns="http://www.w3.org/2000/svg" xmlns:xlink="http://www.w3.org/1999/xlink" xml:space="preserve" onload="init(evt)">
<style type="text/css"><![CDATA[
.edge:hover path { stroke: red; }
.edge:hover polygon { stroke: red; fill: red; }
]]></style>
<script type="text/javascript"><![CDATA[
var edges = document.getElementsByTagName('g');
if (edges && edges.length) {
  for (var i=0;i<edges.length;i++) {
    if (edges[i].id.substr(0,4)=='edge') {
      edges[i].setAttribute('class','edge');
    }
  }
}
]]></script>
        <defs>
                <circle id="rim" cx="0" cy="0" r="7"/>
                <circle id="rim2" cx="0" cy="0" r="3.5"/>
                <g id="zoomPlus">
                        <use xlink:href="#rim" fill="#404040">
                                <set attributeName="fill" to="#808080" begin="zoomplus.mouseover" end="zoomplus.mouseout"/>
                        </use>
                        <path d="M-4,0h8M0,-4v8" fill="none" stroke="white" stroke-width="1.5" pointer-events="none"/>
                </g>
                <g id="zoomMin">
                        <use xlink:href="#rim" fill="#404040">
                                <set attributeName="fill" to="#808080" begin="zoomminus.mouseover" end="zoomminus.mouseout"/>
                        </use>
                        <path d="M-4,0h8" fill="none" stroke="white" stroke-width="1.5" pointer-events="none"/>
                </g>
                <g id="dirArrow">
                        <path fill="none" stroke="white" stroke-width="1.5" d="M0,-3.0v7 M-2.5,-0.5L0,-3.0L2.5,-0.5"/>
                </g>
               <g id="resetDef">
                       <use xlink:href="#rim2" fill="#404040">
                               <set attributeName="fill" to="#808080" begin="reset.mouseover" end="reset.mouseout"/>
                       </use>
               </g>
        </defs>

<script type="text/javascript">
var viewWidth = 2321;
var viewHeight = 542;
var sectionId = 'dynsection-1';
</script>
<script xlink:href="svgpan.js"/>
<svg id="graph" class="graph">
<g id="viewport">
<title>include/ccf/node_context.h</title>
<polygon fill="white" stroke="transparent" points="-4,4 -4,-538 2316.93,-538 2316.93,4 -4,4"/>
<!-- Node1 -->
<g id="node1" class="node">
<title>Node1</title>
<g id="a_node1"><a xlink:title=" ">
<polygon fill="#bfbfbf" stroke="black" points="697,-514.5 697,-533.5 844,-533.5 844,-514.5 697,-514.5"/>
<text text-anchor="middle" x="770.5" y="-521.5" font-family="Helvetica,sans-Serif" font-size="10.00">include/ccf/node_context.h</text>
</a>
</g>
</g>
<!-- Node2 -->
<g id="node2" class="node">
<title>Node2</title>
<g id="a_node2"><a xlink:href="app__interface_8h.html" target="_top" xlink:title=" ">
<polygon fill="white" stroke="black" points="729.5,-308 729.5,-327 877.5,-327 877.5,-308 729.5,-308"/>
<text text-anchor="middle" x="803.5" y="-315" font-family="Helvetica,sans-Serif" font-size="10.00">include/ccf/app_interface.h</text>
</a>
</g>
</g>
<!-- Node1&#45;&gt;Node2 -->
<g id="edge1" class="edge">
<title>Node1&#45;&gt;Node2</title>
<path fill="none" stroke="midnightblue" d="M773.51,-504.34C780.42,-461.54 797.19,-357.59 802.12,-327.06"/>
<polygon fill="midnightblue" stroke="midnightblue" points="770.01,-504.04 771.88,-514.47 776.92,-505.16 770.01,-504.04"/>
</g>
<!-- Node4 -->
<g id="node4" class="node">
<title>Node4</title>
<g id="a_node4"><a xlink:href="nobuiltins_8cpp.html" target="_top" xlink:title=" ">
<polygon fill="white" stroke="black" points="0,-235.5 0,-265.5 135,-265.5 135,-235.5 0,-235.5"/>
<text text-anchor="start" x="8" y="-253.5" font-family="Helvetica,sans-Serif" font-size="10.00">samples/apps/nobuiltins</text>
<text text-anchor="middle" x="67.5" y="-242.5" font-family="Helvetica,sans-Serif" font-size="10.00">/nobuiltins.cpp</text>
</a>
</g>
</g>
<!-- Node1&#45;&gt;Node4 -->
<g id="edge65" class="edge">
<title>Node1&#45;&gt;Node4</title>
<path fill="none" stroke="midnightblue" d="M686.42,-517.95C525.9,-506.7 183.84,-474.47 95.5,-400 55.78,-366.52 60.75,-296 65.04,-265.76"/>
<polygon fill="midnightblue" stroke="midnightblue" points="686.51,-521.47 696.73,-518.66 686.99,-514.48 686.51,-521.47"/>
</g>
<!-- Node17 -->
<g id="node17" class="node">
<title>Node17</title>
<g id="a_node17"><a xlink:href="base__endpoint__registry_8h.html" target="_top" xlink:title=" ">
<polygon fill="white" stroke="black" points="517,-442 517,-472 660,-472 660,-442 517,-442"/>
<text text-anchor="start" x="525" y="-460" font-family="Helvetica,sans-Serif" font-size="10.00">include/ccf/base_endpoint</text>
<text text-anchor="middle" x="588.5" y="-449" font-family="Helvetica,sans-Serif" font-size="10.00">_registry.h</text>
</a>
</g>
</g>
<!-- Node1&#45;&gt;Node17 -->
<g id="edge19" class="edge">
<title>Node1&#45;&gt;Node17</title>
<path fill="none" stroke="midnightblue" d="M736.87,-510.99C706.02,-499.97 660.3,-483.64 627.78,-472.03"/>
<polygon fill="midnightblue" stroke="midnightblue" points="735.74,-514.3 746.33,-514.37 738.09,-507.71 735.74,-514.3"/>
</g>
<!-- Node19 -->
<g id="node19" class="node">
<title>Node19</title>
<g id="a_node19"><a xlink:href="common__endpoint__registry_8cpp.html" target="_top" xlink:title=" ">
<polygon fill="white" stroke="black" points="2013.5,-302.5 2013.5,-332.5 2141.5,-332.5 2141.5,-302.5 2013.5,-302.5"/>
<text text-anchor="start" x="2021.5" y="-320.5" font-family="Helvetica,sans-Serif" font-size="10.00">src/endpoints/common</text>
<text text-anchor="middle" x="2077.5" y="-309.5" font-family="Helvetica,sans-Serif" font-size="10.00">_endpoint_registry.cpp</text>
</a>
</g>
</g>
<!-- Node1&#45;&gt;Node19 -->
<g id="edge66" class="edge">
<title>Node1&#45;&gt;Node19</title>
<path fill="none" stroke="midnightblue" d="M854.38,-521.94C1065.43,-518.85 1614.47,-508.09 1794.5,-478 1915.17,-457.83 1974.54,-489 2058.5,-400 2075.85,-381.61 2078.39,-350.57 2078.24,-332.57"/>
<polygon fill="midnightblue" stroke="midnightblue" points="854.23,-518.44 844.28,-522.09 854.33,-525.44 854.23,-518.44"/>
</g>
<!-- Node40 -->
<g id="node40" class="node">
<title>Node40</title>
<g id="a_node40"><a xlink:href="seqnos__by__key__bucketed_8h.html" target="_top" xlink:title=" ">
<polygon fill="white" stroke="black" points="1662,-436.5 1662,-477.5 1785,-477.5 1785,-436.5 1662,-436.5"/>
<text text-anchor="start" x="1670" y="-465.5" font-family="Helvetica,sans-Serif" font-size="10.00">include/ccf/indexing</text>
<text text-anchor="start" x="1670" y="-454.5" font-family="Helvetica,sans-Serif" font-size="10.00">/strategies/seqnos_by</text>
<text text-anchor="middle" x="1723.5" y="-443.5" font-family="Helvetica,sans-Serif" font-size="10.00">_key_bucketed.h</text>
</a>
</g>
</g>
<!-- Node1&#45;&gt;Node40 -->
<g id="edge62" class="edge">
<title>Node1&#45;&gt;Node40</title>
<path fill="none" stroke="midnightblue" d="M854.22,-517.29C1042.62,-504.44 1496.35,-473.49 1661.8,-462.21"/>
<polygon fill="midnightblue" stroke="midnightblue" points="853.83,-513.81 844.09,-517.98 854.31,-520.79 853.83,-513.81"/>
</g>
<!-- Node3 -->
<g id="node3" class="node">
<title>Node3</title>
<g id="a_node3"><a xlink:href="logging_8cpp.html" target="_top" xlink:title=" ">
<polygon fill="white" stroke="black" points="1846,-235.5 1846,-265.5 1969,-265.5 1969,-235.5 1846,-235.5"/>
<text text-anchor="start" x="1854" y="-253.5" font-family="Helvetica,sans-Serif" font-size="10.00">samples/apps/logging</text>
<text text-anchor="middle" x="1907.5" y="-242.5" font-family="Helvetica,sans-Serif" font-size="10.00">/logging.cpp</text>
</a>
</g>
</g>
<!-- Node2&#45;&gt;Node3 -->
<g id="edge2" class="edge">
<title>Node2&#45;&gt;Node3</title>
<path fill="none" stroke="midnightblue" d="M887.83,-314.54C1059.54,-310.04 1461.97,-296.87 1798.5,-266 1813.9,-264.59 1830.46,-262.62 1845.92,-260.58"/>
<polygon fill="midnightblue" stroke="midnightblue" points="887.51,-311.05 877.6,-314.8 887.69,-318.04 887.51,-311.05"/>
</g>
<!-- Node2&#45;&gt;Node4 -->
<g id="edge3" class="edge">
<title>Node2&#45;&gt;Node4</title>
<path fill="none" stroke="midnightblue" d="M749.09,-306.23C739.27,-304.63 729.1,-303.13 719.5,-302 468.72,-272.48 403.31,-295.27 152.5,-266 146.85,-265.34 141,-264.56 135.15,-263.7"/>
<polygon fill="midnightblue" stroke="midnightblue" points="748.72,-309.72 759.16,-307.93 749.89,-302.82 748.72,-309.72"/>
</g>
<!-- Node5 -->
<g id="node5" class="node">
<title>Node5</title>
<g id="a_node5"><a xlink:href="js__generic_8cpp.html" target="_top" xlink:title=" ">
<polygon fill="white" stroke="black" points="552.5,-168.5 552.5,-198.5 662.5,-198.5 662.5,-168.5 552.5,-168.5"/>
<text text-anchor="start" x="560.5" y="-186.5" font-family="Helvetica,sans-Serif" font-size="10.00">src/apps/js_generic</text>
<text text-anchor="middle" x="607.5" y="-175.5" font-family="Helvetica,sans-Serif" font-size="10.00">/js_generic.cpp</text>
</a>
</g>
</g>
<!-- Node2&#45;&gt;Node5 -->
<g id="edge4" class="edge">
<title>Node2&#45;&gt;Node5</title>
<path fill="none" stroke="midnightblue" d="M745.18,-306.17C675.74,-293.6 568.31,-273.16 562.5,-266 545.18,-244.67 570.71,-215.73 589.81,-198.69"/>
<polygon fill="midnightblue" stroke="midnightblue" points="744.67,-309.64 755.13,-307.97 745.91,-302.75 744.67,-309.64"/>
</g>
<!-- Node6 -->
<g id="node6" class="node">
<title>Node6</title>
<g id="a_node6"><a xlink:href="js__generic__base_8cpp.html" target="_top" xlink:title=" ">
<polygon fill="white" stroke="black" points="1005.5,-235.5 1005.5,-265.5 1123.5,-265.5 1123.5,-235.5 1005.5,-235.5"/>
<text text-anchor="start" x="1013.5" y="-253.5" font-family="Helvetica,sans-Serif" font-size="10.00">src/apps/js_generic</text>
<text text-anchor="middle" x="1064.5" y="-242.5" font-family="Helvetica,sans-Serif" font-size="10.00">/js_generic_base.cpp</text>
</a>
</g>
</g>
<!-- Node2&#45;&gt;Node6 -->
<g id="edge5" class="edge">
<title>Node2&#45;&gt;Node6</title>
<path fill="none" stroke="midnightblue" d="M847.76,-305.48C891.94,-294.47 960,-277.52 1008.05,-265.56"/>
<polygon fill="midnightblue" stroke="midnightblue" points="846.75,-302.12 837.89,-307.94 848.44,-308.92 846.75,-302.12"/>
</g>
<!-- Node7 -->
<g id="node7" class="node">
<title>Node7</title>
<g id="a_node7"><a xlink:href="js__generic__base_8h.html" target="_top" xlink:title=" ">
<polygon fill="white" stroke="black" points="571.5,-235.5 571.5,-265.5 681.5,-265.5 681.5,-235.5 571.5,-235.5"/>
<text text-anchor="start" x="579.5" y="-253.5" font-family="Helvetica,sans-Serif" font-size="10.00">src/apps/js_generic</text>
<text text-anchor="middle" x="626.5" y="-242.5" font-family="Helvetica,sans-Serif" font-size="10.00">/js_generic_base.h</text>
</a>
</g>
</g>
<!-- Node2&#45;&gt;Node7 -->
<g id="edge6" class="edge">
<title>Node2&#45;&gt;Node7</title>
<path fill="none" stroke="midnightblue" d="M770.41,-304.35C740.4,-293.33 696.19,-277.09 664.7,-265.53"/>
<polygon fill="midnightblue" stroke="midnightblue" points="769.4,-307.71 780,-307.87 771.82,-301.14 769.4,-307.71"/>
</g>
<!-- Node8 -->
<g id="node8" class="node">
<title>Node8</title>
<g id="a_node8"><a xlink:href="js__v8_8cpp.html" target="_top" xlink:title=" ">
<polygon fill="white" stroke="black" points="704.5,-174 704.5,-193 838.5,-193 838.5,-174 704.5,-174"/>
<text text-anchor="middle" x="771.5" y="-181" font-family="Helvetica,sans-Serif" font-size="10.00">src/apps/js_v8/js_v8.cpp</text>
</a>
</g>
</g>
<!-- Node2&#45;&gt;Node8 -->
<g id="edge8" class="edge">
<title>Node2&#45;&gt;Node8</title>
<path fill="none" stroke="midnightblue" d="M771.1,-303.55C755.21,-295.34 737.56,-283.03 728.5,-266 714.37,-239.45 744.18,-207.94 761.02,-193.08"/>
<polygon fill="midnightblue" stroke="midnightblue" points="769.65,-306.74 780.18,-307.91 772.68,-300.43 769.65,-306.74"/>
</g>
<!-- Node9 -->
<g id="node9" class="node">
<title>Node9</title>
<g id="a_node9"><a xlink:href="js__v8__base_8cpp.html" target="_top" xlink:title=" ">
<polygon fill="white" stroke="black" points="161.5,-235.5 161.5,-265.5 275.5,-265.5 275.5,-235.5 161.5,-235.5"/>
<text text-anchor="start" x="169.5" y="-253.5" font-family="Helvetica,sans-Serif" font-size="10.00">src/apps/js_v8/js_v8</text>
<text text-anchor="middle" x="218.5" y="-242.5" font-family="Helvetica,sans-Serif" font-size="10.00">_base.cpp</text>
</a>
</g>
</g>
<!-- Node2&#45;&gt;Node9 -->
<g id="edge9" class="edge">
<title>Node2&#45;&gt;Node9</title>
<path fill="none" stroke="midnightblue" d="M748.4,-306.28C738.79,-304.7 728.87,-303.2 719.5,-302 529.27,-277.67 479.34,-293.23 289.5,-266 285.02,-265.36 280.39,-264.61 275.75,-263.8"/>
<polygon fill="midnightblue" stroke="midnightblue" points="747.83,-309.73 758.27,-307.95 748.99,-302.83 747.83,-309.73"/>
</g>
<!-- Node10 -->
<g id="node10" class="node">
<title>Node10</title>
<g id="a_node10"><a xlink:href="js__v8__base_8h.html" target="_top" xlink:title=" ">
<polygon fill="white" stroke="black" points="737.5,-235.5 737.5,-265.5 851.5,-265.5 851.5,-235.5 737.5,-235.5"/>
<text text-anchor="start" x="745.5" y="-253.5" font-family="Helvetica,sans-Serif" font-size="10.00">src/apps/js_v8/js_v8</text>
<text text-anchor="middle" x="794.5" y="-242.5" font-family="Helvetica,sans-Serif" font-size="10.00">_base.h</text>
</a>
</g>
</g>
<!-- Node2&#45;&gt;Node10 -->
<g id="edge10" class="edge">
<title>Node2&#45;&gt;Node10</title>
<path fill="none" stroke="midnightblue" d="M800.9,-297.74C799.48,-287.49 797.75,-275 796.45,-265.59"/>
<polygon fill="midnightblue" stroke="midnightblue" points="797.45,-298.31 802.29,-307.73 804.38,-297.35 797.45,-298.31"/>
</g>
<!-- Node11 -->
<g id="node11" class="node">
<title>Node11</title>
<g id="a_node11"><a xlink:href="tpcc_8cpp.html" target="_top" xlink:title=" ">
<polygon fill="white" stroke="black" points="332,-241 332,-260 477,-260 477,-241 332,-241"/>
<text text-anchor="middle" x="404.5" y="-248" font-family="Helvetica,sans-Serif" font-size="10.00">src/apps/tpcc/app/tpcc.cpp</text>
</a>
</g>
</g>
<!-- Node2&#45;&gt;Node11 -->
<g id="edge12" class="edge">
<title>Node2&#45;&gt;Node11</title>
<path fill="none" stroke="midnightblue" d="M744.8,-306.26C736.31,-304.81 727.69,-303.35 719.5,-302 618.28,-285.27 592.76,-282.43 491.5,-266 479.71,-264.09 467.03,-261.99 455.09,-260.01"/>
<polygon fill="midnightblue" stroke="midnightblue" points="744.21,-309.71 754.66,-307.95 745.4,-302.81 744.21,-309.71"/>
</g>
<!-- Node12 -->
<g id="node12" class="node">
<title>Node12</title>
<g id="a_node12"><a xlink:href="enclave_2enclave_8h.html" target="_top" xlink:title=" ">
<polygon fill="white" stroke="black" points="2041.5,-56.5 2041.5,-75.5 2163.5,-75.5 2163.5,-56.5 2041.5,-56.5"/>
<text text-anchor="middle" x="2102.5" y="-63.5" font-family="Helvetica,sans-Serif" font-size="10.00">src/enclave/enclave.h</text>
</a>
</g>
</g>
<!-- Node2&#45;&gt;Node12 -->
<g id="edge13" class="edge">
<title>Node2&#45;&gt;Node12</title>
<path fill="none" stroke="midnightblue" d="M747.76,-306.23C738.35,-304.68 728.66,-303.2 719.5,-302 675.59,-296.23 352.37,-298.7 322.5,-266 313.21,-255.83 314.45,-246.18 322.5,-235 425.16,-92.34 1739.56,-70.61 2041.13,-67.5"/>
<polygon fill="midnightblue" stroke="midnightblue" points="747.38,-309.72 757.83,-307.93 748.55,-302.81 747.38,-309.72"/>
</g>
<!-- Node14 -->
<g id="node14" class="node">
<title>Node14</title>
<g id="a_node14"><a xlink:href="no__plugins_8cpp.html" target="_top" xlink:title=" ">
<polygon fill="white" stroke="black" points="869.5,-241 869.5,-260 987.5,-260 987.5,-241 869.5,-241"/>
<text text-anchor="middle" x="928.5" y="-248" font-family="Helvetica,sans-Serif" font-size="10.00">src/js/no_plugins.cpp</text>
</a>
</g>
</g>
<!-- Node2&#45;&gt;Node14 -->
<g id="edge15" class="edge">
<title>Node2&#45;&gt;Node14</title>
<path fill="none" stroke="midnightblue" d="M829.26,-303.1C854.02,-290.23 890.69,-271.16 911.83,-260.17"/>
<polygon fill="midnightblue" stroke="midnightblue" points="827.36,-300.15 820.1,-307.87 830.59,-306.36 827.36,-300.15"/>
</g>
<!-- Node16 -->
<g id="node16" class="node">
<title>Node16</title>
<g id="a_node16"><a xlink:href="user__frontend_8h.html" target="_top" xlink:title=" ">
<polygon fill="white" stroke="black" points="1093,-112.5 1093,-131.5 1248,-131.5 1248,-112.5 1093,-112.5"/>
<text text-anchor="middle" x="1170.5" y="-119.5" font-family="Helvetica,sans-Serif" font-size="10.00">src/node/rpc/user_frontend.h</text>
</a>
</g>
</g>
<!-- Node2&#45;&gt;Node16 -->
<g id="edge17" class="edge">
<title>Node2&#45;&gt;Node16</title>
<path fill="none" stroke="midnightblue" d="M743.92,-306.23C672.09,-293.59 560.1,-272.95 553.5,-266 523.34,-234.26 513.67,-200.05 543.5,-168 580.21,-128.56 933.46,-123.19 1092.99,-122.8"/>
<polygon fill="midnightblue" stroke="midnightblue" points="743.32,-309.68 753.77,-307.96 744.53,-302.78 743.32,-309.68"/>
</g>
<!-- Node7&#45;&gt;Node5 -->
<g id="edge7" class="edge">
<title>Node7&#45;&gt;Node5</title>
<path fill="none" stroke="midnightblue" d="M619.54,-225.7C616.88,-216.59 613.93,-206.49 611.61,-198.58"/>
<polygon fill="midnightblue" stroke="midnightblue" points="616.21,-226.78 622.38,-235.4 622.93,-224.82 616.21,-226.78"/>
</g>
<!-- Node10&#45;&gt;Node8 -->
<g id="edge11" class="edge">
<title>Node10&#45;&gt;Node8</title>
<path fill="none" stroke="midnightblue" d="M786.16,-225.94C782.13,-214.54 777.53,-201.55 774.58,-193.19"/>
<polygon fill="midnightblue" stroke="midnightblue" points="782.87,-227.14 789.51,-235.4 789.47,-224.8 782.87,-227.14"/>
</g>
<!-- Node13 -->
<g id="node13" class="node">
<title>Node13</title>
<g id="a_node13"><a xlink:href="enclave_2main_8cpp.html" target="_top" xlink:title=" ">
<polygon fill="white" stroke="black" points="2042.5,-0.5 2042.5,-19.5 2162.5,-19.5 2162.5,-0.5 2042.5,-0.5"/>
<text text-anchor="middle" x="2102.5" y="-7.5" font-family="Helvetica,sans-Serif" font-size="10.00">src/enclave/main.cpp</text>
</a>
</g>
</g>
<!-- Node12&#45;&gt;Node13 -->
<g id="edge14" class="edge">
<title>Node12&#45;&gt;Node13</title>
<path fill="none" stroke="midnightblue" d="M2102.5,-45.8C2102.5,-36.91 2102.5,-26.78 2102.5,-19.75"/>
<polygon fill="midnightblue" stroke="midnightblue" points="2099,-46.08 2102.5,-56.08 2106,-46.08 2099,-46.08"/>
</g>
<!-- Node15 -->
<g id="node15" class="node">
<title>Node15</title>
<g id="a_node15"><a xlink:href="wrap_8cpp.html" target="_top" xlink:title=" ">
<polygon fill="white" stroke="black" points="1278,-174 1278,-193 1367,-193 1367,-174 1278,-174"/>
<text text-anchor="middle" x="1322.5" y="-181" font-family="Helvetica,sans-Serif" font-size="10.00">src/js/wrap.cpp</text>
</a>
</g>
</g>
<!-- Node14&#45;&gt;Node15 -->
<g id="edge16" class="edge">
<title>Node14&#45;&gt;Node15</title>
<path fill="none" stroke="midnightblue" d="M976.79,-238.85C983.4,-237.5 990.11,-236.17 996.5,-235 1096.62,-216.59 1214.87,-199.4 1277.81,-190.61"/>
<polygon fill="midnightblue" stroke="midnightblue" points="975.62,-235.52 966.55,-240.99 977.05,-242.37 975.62,-235.52"/>
</g>
<!-- Node16&#45;&gt;Node12 -->
<g id="edge18" class="edge">
<title>Node16&#45;&gt;Node12</title>
<path fill="none" stroke="midnightblue" d="M1258.45,-115.9C1445.9,-105.04 1880.73,-79.85 2041.4,-70.54"/>
<polygon fill="midnightblue" stroke="midnightblue" points="1258.14,-112.42 1248.36,-116.49 1258.54,-119.4 1258.14,-112.42"/>
</g>
<!-- Node17&#45;&gt;Node4 -->
<g id="edge32" class="edge">
<title>Node17&#45;&gt;Node4</title>
<path fill="none" stroke="midnightblue" d="M506.4,-456.01C389.35,-454.4 182.27,-445.04 124.5,-400 81.38,-366.38 70.86,-295.93 68.31,-265.74"/>
<polygon fill="midnightblue" stroke="midnightblue" points="506.7,-459.51 516.74,-456.14 506.79,-452.52 506.7,-459.51"/>
</g>
<!-- Node18 -->
<g id="node18" class="node">
<title>Node18</title>
<g id="a_node18"><a xlink:href="common__endpoint__registry_8h.html" target="_top" xlink:title=" ">
<polygon fill="white" stroke="black" points="1752,-369.5 1752,-399.5 1867,-399.5 1867,-369.5 1752,-369.5"/>
<text text-anchor="start" x="1760" y="-387.5" font-family="Helvetica,sans-Serif" font-size="10.00">include/ccf/common</text>
<text text-anchor="middle" x="1809.5" y="-376.5" font-family="Helvetica,sans-Serif" font-size="10.00">_endpoint_registry.h</text>
</a>
</g>
</g>
<!-- Node17&#45;&gt;Node18 -->
<g id="edge20" class="edge">
<title>Node17&#45;&gt;Node18</title>
<path fill="none" stroke="midnightblue" d="M670.33,-451.28C901.16,-437.95 1553.48,-400.28 1751.67,-388.84"/>
<polygon fill="midnightblue" stroke="midnightblue" points="670.1,-447.78 660.32,-451.85 670.51,-454.77 670.1,-447.78"/>
</g>
<!-- Node25 -->
<g id="node25" class="node">
<title>Node25</title>
<g id="a_node25"><a xlink:href="ccf__global_8h.html" target="_top" xlink:title=" ">
<polygon fill="white" stroke="black" points="469,-369.5 469,-399.5 580,-399.5 580,-369.5 469,-369.5"/>
<text text-anchor="start" x="477" y="-387.5" font-family="Helvetica,sans-Serif" font-size="10.00">src/apps/js_v8/tmpl</text>
<text text-anchor="middle" x="524.5" y="-376.5" font-family="Helvetica,sans-Serif" font-size="10.00">/ccf_global.h</text>
</a>
</g>
</g>
<!-- Node17&#45;&gt;Node25 -->
<g id="edge33" class="edge">
<title>Node17&#45;&gt;Node25</title>
<path fill="none" stroke="midnightblue" d="M568.56,-434.04C558.41,-422.86 546.36,-409.58 537.43,-399.75"/>
<polygon fill="midnightblue" stroke="midnightblue" points="566.24,-436.68 575.55,-441.73 571.42,-431.98 566.24,-436.68"/>
</g>
<!-- Node27 -->
<g id="node27" class="node">
<title>Node27</title>
<g id="a_node27"><a xlink:href="consensus_8h.html" target="_top" xlink:title=" ">
<polygon fill="white" stroke="black" points="598,-369.5 598,-399.5 709,-399.5 709,-369.5 598,-369.5"/>
<text text-anchor="start" x="606" y="-387.5" font-family="Helvetica,sans-Serif" font-size="10.00">src/apps/js_v8/tmpl</text>
<text text-anchor="middle" x="653.5" y="-376.5" font-family="Helvetica,sans-Serif" font-size="10.00">/consensus.h</text>
</a>
</g>
</g>
<!-- Node17&#45;&gt;Node27 -->
<g id="edge36" class="edge">
<title>Node17&#45;&gt;Node27</title>
<path fill="none" stroke="midnightblue" d="M608.45,-434.36C618.82,-423.11 631.21,-409.68 640.37,-399.75"/>
<polygon fill="midnightblue" stroke="midnightblue" points="605.86,-432.01 601.65,-441.73 611.01,-436.75 605.86,-432.01"/>
</g>
<!-- Node29 -->
<g id="node29" class="node">
<title>Node29</title>
<g id="a_node29"><a xlink:href="apps_2js__v8_2tmpl_2request_8h.html" target="_top" xlink:title=" ">
<polygon fill="white" stroke="black" points="134,-369.5 134,-399.5 245,-399.5 245,-369.5 134,-369.5"/>
<text text-anchor="start" x="142" y="-387.5" font-family="Helvetica,sans-Serif" font-size="10.00">src/apps/js_v8/tmpl</text>
<text text-anchor="middle" x="189.5" y="-376.5" font-family="Helvetica,sans-Serif" font-size="10.00">/request.h</text>
</a>
</g>
</g>
<!-- Node17&#45;&gt;Node29 -->
<g id="edge39" class="edge">
<title>Node17&#45;&gt;Node29</title>
<path fill="none" stroke="midnightblue" d="M506.79,-442.92C440.13,-432.05 343.58,-415.86 259.5,-400 254.87,-399.13 250.06,-398.19 245.25,-397.23"/>
<polygon fill="midnightblue" stroke="midnightblue" points="506.38,-446.4 516.81,-444.55 507.5,-439.49 506.38,-446.4"/>
</g>
<!-- Node31 -->
<g id="node31" class="node">
<title>Node31</title>
<g id="a_node31"><a xlink:href="request__authn__identity_8cpp.html" target="_top" xlink:title=" ">
<polygon fill="white" stroke="black" points="263,-302.5 263,-332.5 414,-332.5 414,-302.5 263,-302.5"/>
<text text-anchor="start" x="271" y="-320.5" font-family="Helvetica,sans-Serif" font-size="10.00">src/apps/js_v8/tmpl</text>
<text text-anchor="middle" x="338.5" y="-309.5" font-family="Helvetica,sans-Serif" font-size="10.00">/request_authn_identity.cpp</text>
</a>
</g>
</g>
<!-- Node17&#45;&gt;Node31 -->
<g id="edge42" class="edge">
<title>Node17&#45;&gt;Node31</title>
<path fill="none" stroke="midnightblue" d="M540.58,-438.21C515.73,-428.25 485.27,-414.85 459.5,-400 439.4,-388.42 436.62,-382.14 417.5,-369 398.99,-356.27 377.48,-342.59 361.58,-332.69"/>
<polygon fill="midnightblue" stroke="midnightblue" points="539.56,-441.58 550.15,-442 542.14,-435.07 539.56,-441.58"/>
</g>
<!-- Node32 -->
<g id="node32" class="node">
<title>Node32</title>
<g id="a_node32"><a xlink:href="request__authn__identity_8h.html" target="_top" xlink:title=" ">
<polygon fill="white" stroke="black" points="268.5,-369.5 268.5,-399.5 408.5,-399.5 408.5,-369.5 268.5,-369.5"/>
<text text-anchor="start" x="276.5" y="-387.5" font-family="Helvetica,sans-Serif" font-size="10.00">src/apps/js_v8/tmpl</text>
<text text-anchor="middle" x="338.5" y="-376.5" font-family="Helvetica,sans-Serif" font-size="10.00">/request_authn_identity.h</text>
</a>
</g>
</g>
<!-- Node17&#45;&gt;Node32 -->
<g id="edge43" class="edge">
<title>Node17&#45;&gt;Node32</title>
<path fill="none" stroke="midnightblue" d="M529.07,-439.24C486.23,-427.16 429.04,-411.03 388.52,-399.61"/>
<polygon fill="midnightblue" stroke="midnightblue" points="528.23,-442.64 538.81,-441.99 530.13,-435.9 528.23,-442.64"/>
</g>
<!-- Node33 -->
<g id="node33" class="node">
<title>Node33</title>
<g id="a_node33"><a xlink:href="base__endpoint__registry_8cpp.html" target="_top" xlink:title=" ">
<polygon fill="white" stroke="black" points="836.5,-369.5 836.5,-399.5 962.5,-399.5 962.5,-369.5 836.5,-369.5"/>
<text text-anchor="start" x="844.5" y="-387.5" font-family="Helvetica,sans-Serif" font-size="10.00">src/endpoints/base</text>
<text text-anchor="middle" x="899.5" y="-376.5" font-family="Helvetica,sans-Serif" font-size="10.00">_endpoint_registry.cpp</text>
</a>
</g>
</g>
<!-- Node17&#45;&gt;Node33 -->
<g id="edge46" class="edge">
<title>Node17&#45;&gt;Node33</title>
<path fill="none" stroke="midnightblue" d="M660.1,-439.77C713.74,-427.61 786.38,-411.14 837.54,-399.55"/>
<polygon fill="midnightblue" stroke="midnightblue" points="659.29,-436.36 650.32,-441.99 660.84,-443.19 659.29,-436.36"/>
</g>
<!-- Node34 -->
<g id="node34" class="node">
<title>Node34</title>
<g id="a_node34"><a xlink:href="wrap_8h.html" target="_top" xlink:title=" ">
<polygon fill="white" stroke="black" points="1446.5,-308 1446.5,-327 1524.5,-327 1524.5,-308 1446.5,-308"/>
<text text-anchor="middle" x="1485.5" y="-315" font-family="Helvetica,sans-Serif" font-size="10.00">src/js/wrap.h</text>
</a>
</g>
</g>
<!-- Node17&#45;&gt;Node34 -->
<g id="edge47" class="edge">
<title>Node17&#45;&gt;Node34</title>
<path fill="none" stroke="midnightblue" d="M628.06,-437.8C674.68,-417.26 754.97,-384.68 827.5,-369 1058.19,-319.14 1343.68,-316.82 1446.4,-317.82"/>
<polygon fill="midnightblue" stroke="midnightblue" points="626.36,-434.73 618.64,-441.99 629.2,-441.12 626.36,-434.73"/>
</g>
<!-- Node18&#45;&gt;Node2 -->
<g id="edge21" class="edge">
<title>Node18&#45;&gt;Node2</title>
<path fill="none" stroke="midnightblue" d="M1741.6,-379.11C1560.26,-367.4 1065.67,-335.44 877.51,-323.28"/>
<polygon fill="midnightblue" stroke="midnightblue" points="1741.59,-382.62 1751.8,-379.77 1742.05,-375.63 1741.59,-382.62"/>
</g>
<!-- Node18&#45;&gt;Node19 -->
<g id="edge22" class="edge">
<title>Node18&#45;&gt;Node19</title>
<path fill="none" stroke="midnightblue" d="M1877.04,-367.12C1920.89,-356.48 1977.46,-342.76 2019.32,-332.61"/>
<polygon fill="midnightblue" stroke="midnightblue" points="1876.22,-363.72 1867.32,-369.48 1877.87,-370.52 1876.22,-363.72"/>
</g>
<!-- Node20 -->
<g id="node20" class="node">
<title>Node20</title>
<g id="a_node20"><a xlink:href="member__frontend_8h.html" target="_top" xlink:title=" ">
<polygon fill="white" stroke="black" points="2168.5,-235.5 2168.5,-265.5 2288.5,-265.5 2288.5,-235.5 2168.5,-235.5"/>
<text text-anchor="start" x="2176.5" y="-253.5" font-family="Helvetica,sans-Serif" font-size="10.00">src/node/rpc/member</text>
<text text-anchor="middle" x="2228.5" y="-242.5" font-family="Helvetica,sans-Serif" font-size="10.00">_frontend.h</text>
</a>
</g>
</g>
<!-- Node18&#45;&gt;Node20 -->
<g id="edge23" class="edge">
<title>Node18&#45;&gt;Node20</title>
<path fill="none" stroke="midnightblue" d="M1877.08,-367.74C1905.66,-359.57 1938.71,-348.1 1966.5,-333 1985.65,-322.59 1984.9,-311.54 2004.5,-302 2019.22,-294.84 2107.26,-276.08 2168.48,-263.55"/>
<polygon fill="midnightblue" stroke="midnightblue" points="1875.87,-364.44 1867.17,-370.49 1877.74,-371.19 1875.87,-364.44"/>
</g>
<!-- Node21 -->
<g id="node21" class="node">
<title>Node21</title>
<g id="a_node21"><a xlink:href="node__frontend_8h.html" target="_top" xlink:title=" ">
<polygon fill="white" stroke="black" points="1799.5,-308 1799.5,-327 1957.5,-327 1957.5,-308 1799.5,-308"/>
<text text-anchor="middle" x="1878.5" y="-315" font-family="Helvetica,sans-Serif" font-size="10.00">src/node/rpc/node_frontend.h</text>
</a>
</g>
</g>
<!-- Node18&#45;&gt;Node21 -->
<g id="edge25" class="edge">
<title>Node18&#45;&gt;Node21</title>
<path fill="none" stroke="midnightblue" d="M1831.97,-362.34C1844.64,-350.4 1859.78,-336.14 1869.27,-327.19"/>
<polygon fill="midnightblue" stroke="midnightblue" points="1829.35,-359.99 1824.47,-369.4 1834.15,-365.09 1829.35,-359.99"/>
</g>
<!-- Node20&#45;&gt;Node12 -->
<g id="edge24" class="edge">
<title>Node20&#45;&gt;Node12</title>
<path fill="none" stroke="midnightblue" d="M2219,-225.98C2206.73,-197.29 2183.46,-148.14 2154.5,-112 2142.85,-97.47 2126.09,-83.94 2114.77,-75.58"/>
<polygon fill="midnightblue" stroke="midnightblue" points="2215.78,-227.35 2222.87,-235.22 2222.24,-224.65 2215.78,-227.35"/>
</g>
<!-- Node21&#45;&gt;Node12 -->
<g id="edge26" class="edge">
<title>Node21&#45;&gt;Node12</title>
<path fill="none" stroke="midnightblue" d="M1961.71,-306.82C2083.49,-292.59 2296.11,-267.56 2297.5,-266 2365.69,-189.09 2186.31,-102.75 2123.38,-75.62"/>
<polygon fill="midnightblue" stroke="midnightblue" points="1961.19,-303.35 1951.66,-307.99 1962,-310.31 1961.19,-303.35"/>
</g>
<!-- Node22 -->
<g id="node22" class="node">
<title>Node22</title>
<g id="a_node22"><a xlink:href="jwt__key__auto__refresh_8h.html" target="_top" xlink:title=" ">
<polygon fill="white" stroke="black" points="1987,-235.5 1987,-265.5 2112,-265.5 2112,-235.5 1987,-235.5"/>
<text text-anchor="start" x="1995" y="-253.5" font-family="Helvetica,sans-Serif" font-size="10.00">src/node/jwt_key_auto</text>
<text text-anchor="middle" x="2049.5" y="-242.5" font-family="Helvetica,sans-Serif" font-size="10.00">_refresh.h</text>
</a>
</g>
</g>
<!-- Node21&#45;&gt;Node22 -->
<g id="edge27" class="edge">
<title>Node21&#45;&gt;Node22</title>
<path fill="none" stroke="midnightblue" d="M1910.85,-304.2C1939.83,-293.19 1982.3,-277.04 2012.6,-265.53"/>
<polygon fill="midnightblue" stroke="midnightblue" points="1909.31,-301.04 1901.21,-307.87 1911.8,-307.59 1909.31,-301.04"/>
</g>
<!-- Node23 -->
<g id="node23" class="node">
<title>Node23</title>
<g id="a_node23"><a xlink:href="node__state_8h.html" target="_top" xlink:title=" ">
<polygon fill="white" stroke="black" points="1963.5,-174 1963.5,-193 2087.5,-193 2087.5,-174 1963.5,-174"/>
<text text-anchor="middle" x="2025.5" y="-181" font-family="Helvetica,sans-Serif" font-size="10.00">src/node/node_state.h</text>
</a>
</g>
</g>
<!-- Node22&#45;&gt;Node23 -->
<g id="edge28" class="edge">
<title>Node22&#45;&gt;Node23</title>
<path fill="none" stroke="midnightblue" d="M2040.8,-225.94C2036.59,-214.54 2031.79,-201.55 2028.71,-193.19"/>
<polygon fill="midnightblue" stroke="midnightblue" points="2037.55,-227.23 2044.29,-235.4 2044.11,-224.8 2037.55,-227.23"/>
</g>
<!-- Node23&#45;&gt;Node12 -->
<g id="edge29" class="edge">
<title>Node23&#45;&gt;Node12</title>
<path fill="none" stroke="midnightblue" d="M2047.61,-168.03C2059.8,-159.01 2074.29,-146.39 2083.5,-132 2095.04,-113.98 2099.77,-88.73 2101.55,-75.64"/>
<polygon fill="midnightblue" stroke="midnightblue" points="2045.39,-165.31 2039.24,-173.94 2049.43,-171.03 2045.39,-165.31"/>
</g>
<!-- Node24 -->
<g id="node24" class="node">
<title>Node24</title>
<g id="a_node24"><a xlink:href="gov__effects_8h.html" target="_top" xlink:title=" ">
<polygon fill="white" stroke="black" points="1930.5,-112.5 1930.5,-131.5 2074.5,-131.5 2074.5,-112.5 1930.5,-112.5"/>
<text text-anchor="middle" x="2002.5" y="-119.5" font-family="Helvetica,sans-Serif" font-size="10.00">src/node/rpc/gov_effects.h</text>
</a>
</g>
</g>
<!-- Node23&#45;&gt;Node24 -->
<g id="edge30" class="edge">
<title>Node23&#45;&gt;Node24</title>
<path fill="none" stroke="midnightblue" d="M2018.54,-164.5C2014.31,-153.55 2009.1,-140.07 2005.79,-131.51"/>
<polygon fill="midnightblue" stroke="midnightblue" points="2015.33,-165.91 2022.2,-173.98 2021.86,-163.39 2015.33,-165.91"/>
</g>
<!-- Node24&#45;&gt;Node12 -->
<g id="edge31" class="edge">
<title>Node24&#45;&gt;Node12</title>
<path fill="none" stroke="midnightblue" d="M2027.59,-107.45C2046.05,-97.48 2070.6,-84.23 2086.47,-75.65"/>
<polygon fill="midnightblue" stroke="midnightblue" points="2025.7,-104.49 2018.57,-112.32 2029.03,-110.65 2025.7,-104.49"/>
</g>
<!-- Node25&#45;&gt;Node9 -->
<g id="edge34" class="edge">
<title>Node25&#45;&gt;Node9</title>
<path fill="none" stroke="midnightblue" d="M498.86,-362.96C468.82,-338.9 423.05,-302.27 422.5,-302 409.27,-295.47 331.32,-277.03 275.71,-264.34"/>
<polygon fill="midnightblue" stroke="midnightblue" points="496.87,-365.85 506.86,-369.37 501.24,-360.38 496.87,-365.85"/>
</g>
<!-- Node26 -->
<g id="node26" class="node">
<title>Node26</title>
<g id="a_node26"><a xlink:href="ccf__global_8cpp.html" target="_top" xlink:title=" ">
<polygon fill="white" stroke="black" points="471,-302.5 471,-332.5 582,-332.5 582,-302.5 471,-302.5"/>
<text text-anchor="start" x="479" y="-320.5" font-family="Helvetica,sans-Serif" font-size="10.00">src/apps/js_v8/tmpl</text>
<text text-anchor="middle" x="526.5" y="-309.5" font-family="Helvetica,sans-Serif" font-size="10.00">/ccf_global.cpp</text>
</a>
</g>
</g>
<!-- Node25&#45;&gt;Node26 -->
<g id="edge35" class="edge">
<title>Node25&#45;&gt;Node26</title>
<path fill="none" stroke="midnightblue" d="M525.25,-359.11C525.53,-350.15 525.83,-340.32 526.07,-332.58"/>
<polygon fill="midnightblue" stroke="midnightblue" points="521.74,-359.29 524.93,-369.4 528.74,-359.51 521.74,-359.29"/>
</g>
<!-- Node27&#45;&gt;Node26 -->
<g id="edge37" class="edge">
<title>Node27&#45;&gt;Node26</title>
<path fill="none" stroke="midnightblue" d="M616.8,-364.71C596.77,-354.46 572.38,-341.98 554,-332.58"/>
<polygon fill="midnightblue" stroke="midnightblue" points="615.45,-367.96 625.94,-369.4 618.64,-361.72 615.45,-367.96"/>
</g>
<!-- Node28 -->
<g id="node28" class="node">
<title>Node28</title>
<g id="a_node28"><a xlink:href="apps_2js__v8_2tmpl_2consensus_8cpp.html" target="_top" xlink:title=" ">
<polygon fill="white" stroke="black" points="600,-302.5 600,-332.5 711,-332.5 711,-302.5 600,-302.5"/>
<text text-anchor="start" x="608" y="-320.5" font-family="Helvetica,sans-Serif" font-size="10.00">src/apps/js_v8/tmpl</text>
<text text-anchor="middle" x="655.5" y="-309.5" font-family="Helvetica,sans-Serif" font-size="10.00">/consensus.cpp</text>
</a>
</g>
</g>
<!-- Node27&#45;&gt;Node28 -->
<g id="edge38" class="edge">
<title>Node27&#45;&gt;Node28</title>
<path fill="none" stroke="midnightblue" d="M654.25,-359.11C654.53,-350.15 654.83,-340.32 655.07,-332.58"/>
<polygon fill="midnightblue" stroke="midnightblue" points="650.74,-359.29 653.93,-369.4 657.74,-359.51 650.74,-359.29"/>
</g>
<!-- Node29&#45;&gt;Node9 -->
<g id="edge40" class="edge">
<title>Node29&#45;&gt;Node9</title>
<path fill="none" stroke="midnightblue" d="M152.55,-363.72C141.45,-355.76 130.61,-345.48 124.5,-333 118.44,-320.62 117.43,-313.83 124.5,-302 134.67,-284.99 152.76,-273.37 170.38,-265.62"/>
<polygon fill="midnightblue" stroke="midnightblue" points="150.75,-366.72 161.02,-369.35 154.63,-360.9 150.75,-366.72"/>
</g>
<!-- Node30 -->
<g id="node30" class="node">
<title>Node30</title>
<g id="a_node30"><a xlink:href="request_8cpp.html" target="_top" xlink:title=" ">
<polygon fill="white" stroke="black" points="134,-302.5 134,-332.5 245,-332.5 245,-302.5 134,-302.5"/>
<text text-anchor="start" x="142" y="-320.5" font-family="Helvetica,sans-Serif" font-size="10.00">src/apps/js_v8/tmpl</text>
<text text-anchor="middle" x="189.5" y="-309.5" font-family="Helvetica,sans-Serif" font-size="10.00">/request.cpp</text>
</a>
</g>
</g>
<!-- Node29&#45;&gt;Node30 -->
<g id="edge41" class="edge">
<title>Node29&#45;&gt;Node30</title>
<path fill="none" stroke="midnightblue" d="M189.5,-359.11C189.5,-350.15 189.5,-340.32 189.5,-332.58"/>
<polygon fill="midnightblue" stroke="midnightblue" points="186,-359.4 189.5,-369.4 193,-359.4 186,-359.4"/>
</g>
<!-- Node32&#45;&gt;Node30 -->
<g id="edge44" class="edge">
<title>Node32&#45;&gt;Node30</title>
<path fill="none" stroke="midnightblue" d="M296.71,-365.27C272.98,-354.92 243.72,-342.15 221.77,-332.58"/>
<polygon fill="midnightblue" stroke="midnightblue" points="295.6,-368.61 306.17,-369.4 298.4,-362.19 295.6,-368.61"/>
</g>
<!-- Node32&#45;&gt;Node31 -->
<g id="edge45" class="edge">
<title>Node32&#45;&gt;Node31</title>
<path fill="none" stroke="midnightblue" d="M338.5,-359.11C338.5,-350.15 338.5,-340.32 338.5,-332.58"/>
<polygon fill="midnightblue" stroke="midnightblue" points="335,-359.4 338.5,-369.4 342,-359.4 335,-359.4"/>
</g>
<!-- Node34&#45;&gt;Node6 -->
<g id="edge48" class="edge">
<title>Node34&#45;&gt;Node6</title>
<path fill="none" stroke="midnightblue" d="M1436.4,-310.55C1368.06,-302.02 1240.48,-285.21 1132.5,-266 1129.65,-265.49 1126.73,-264.95 1123.79,-264.39"/>
<polygon fill="midnightblue" stroke="midnightblue" points="1436.09,-314.04 1446.45,-311.79 1436.95,-307.09 1436.09,-314.04"/>
</g>
<!-- Node34&#45;&gt;Node12 -->
<g id="edge49" class="edge">
<title>Node34&#45;&gt;Node12</title>
<path fill="none" stroke="midnightblue" d="M1534.82,-314.4C1680.78,-307.93 2101.64,-287.5 2121.5,-266 2172.6,-210.68 2123.42,-106.16 2107.25,-75.6"/>
<polygon fill="midnightblue" stroke="midnightblue" points="1534.64,-310.9 1524.8,-314.84 1534.94,-317.89 1534.64,-310.9"/>
</g>
<!-- Node34&#45;&gt;Node15 -->
<g id="edge59" class="edge">
<title>Node34&#45;&gt;Node15</title>
<path fill="none" stroke="midnightblue" d="M1436.22,-310C1386.64,-302.33 1315.19,-287.79 1298.5,-266 1281.28,-243.52 1303.39,-208.91 1315.52,-193.02"/>
<polygon fill="midnightblue" stroke="midnightblue" points="1435.72,-313.46 1446.13,-311.49 1436.76,-306.54 1435.72,-313.46"/>
</g>
<!-- Node34&#45;&gt;Node20 -->
<g id="edge61" class="edge">
<title>Node34&#45;&gt;Node20</title>
<path fill="none" stroke="midnightblue" d="M1534.72,-314.78C1645.72,-310.46 1923.87,-297.19 2154.5,-266 2159.04,-265.39 2163.72,-264.67 2168.42,-263.89"/>
<polygon fill="midnightblue" stroke="midnightblue" points="1534.36,-311.29 1524.5,-315.17 1534.63,-318.28 1534.36,-311.29"/>
</g>
<!-- Node34&#45;&gt;Node23 -->
<g id="edge60" class="edge">
<title>Node34&#45;&gt;Node23</title>
<path fill="none" stroke="midnightblue" d="M1535.01,-316.16C1598.62,-314.04 1711.21,-304.54 1798.5,-266 1818.76,-257.06 1817.73,-244.97 1837.5,-235 1879.9,-213.62 1932.39,-200.5 1971.12,-193.01"/>
<polygon fill="midnightblue" stroke="midnightblue" points="1534.76,-312.66 1524.86,-316.45 1534.96,-319.66 1534.76,-312.66"/>
</g>
<!-- Node35 -->
<g id="node35" class="node">
<title>Node35</title>
<g id="a_node35"><a xlink:href="js_2consensus_8cpp.html" target="_top" xlink:title=" ">
<polygon fill="white" stroke="black" points="1307.5,-241 1307.5,-260 1423.5,-260 1423.5,-241 1307.5,-241"/>
<text text-anchor="middle" x="1365.5" y="-248" font-family="Helvetica,sans-Serif" font-size="10.00">src/js/consensus.cpp</text>
</a>
</g>
</g>
<!-- Node34&#45;&gt;Node35 -->
<g id="edge50" class="edge">
<title>Node34&#45;&gt;Node35</title>
<path fill="none" stroke="midnightblue" d="M1460.5,-302.96C1436.71,-290.07 1401.63,-271.07 1381.43,-260.13"/>
<polygon fill="midnightblue" stroke="midnightblue" points="1458.86,-306.05 1469.32,-307.73 1462.19,-299.89 1458.86,-306.05"/>
</g>
<!-- Node36 -->
<g id="node36" class="node">
<title>Node36</title>
<g id="a_node36"><a xlink:href="conv_8cpp.html" target="_top" xlink:title=" ">
<polygon fill="white" stroke="black" points="1441.5,-241 1441.5,-260 1529.5,-260 1529.5,-241 1441.5,-241"/>
<text text-anchor="middle" x="1485.5" y="-248" font-family="Helvetica,sans-Serif" font-size="10.00">src/js/conv.cpp</text>
</a>
</g>
</g>
<!-- Node34&#45;&gt;Node36 -->
<g id="edge52" class="edge">
<title>Node34&#45;&gt;Node36</title>
<path fill="none" stroke="midnightblue" d="M1485.5,-297.54C1485.5,-285.17 1485.5,-269.62 1485.5,-260.13"/>
<polygon fill="midnightblue" stroke="midnightblue" points="1482,-297.73 1485.5,-307.73 1489,-297.73 1482,-297.73"/>
</g>
<!-- Node37 -->
<g id="node37" class="node">
<title>Node37</title>
<g id="a_node37"><a xlink:href="js_2crypto_8cpp.html" target="_top" xlink:title=" ">
<polygon fill="white" stroke="black" points="1547.5,-241 1547.5,-260 1643.5,-260 1643.5,-241 1547.5,-241"/>
<text text-anchor="middle" x="1595.5" y="-248" font-family="Helvetica,sans-Serif" font-size="10.00">src/js/crypto.cpp</text>
</a>
</g>
</g>
<!-- Node34&#45;&gt;Node37 -->
<g id="edge54" class="edge">
<title>Node34&#45;&gt;Node37</title>
<path fill="none" stroke="midnightblue" d="M1509,-302.62C1530.79,-289.74 1562.54,-270.98 1580.9,-260.13"/>
<polygon fill="midnightblue" stroke="midnightblue" points="1507.16,-299.63 1500.34,-307.73 1510.72,-305.66 1507.16,-299.63"/>
</g>
<!-- Node38 -->
<g id="node38" class="node">
<title>Node38</title>
<g id="a_node38"><a xlink:href="js_2historical_8cpp.html" target="_top" xlink:title=" ">
<polygon fill="white" stroke="black" points="1141.5,-241 1141.5,-260 1251.5,-260 1251.5,-241 1141.5,-241"/>
<text text-anchor="middle" x="1196.5" y="-248" font-family="Helvetica,sans-Serif" font-size="10.00">src/js/historical.cpp</text>
</a>
</g>
</g>
<!-- Node34&#45;&gt;Node38 -->
<g id="edge56" class="edge">
<title>Node34&#45;&gt;Node38</title>
<path fill="none" stroke="midnightblue" d="M1437.59,-305.72C1380.68,-292.92 1286.91,-271.83 1234.66,-260.08"/>
<polygon fill="midnightblue" stroke="midnightblue" points="1436.9,-309.16 1447.42,-307.94 1438.43,-302.33 1436.9,-309.16"/>
</g>
<!-- Node39 -->
<g id="node39" class="node">
<title>Node39</title>
<g id="a_node39"><a xlink:href="openenclave_8cpp.html" target="_top" xlink:title=" ">
<polygon fill="white" stroke="black" points="1661.5,-241 1661.5,-260 1789.5,-260 1789.5,-241 1661.5,-241"/>
<text text-anchor="middle" x="1725.5" y="-248" font-family="Helvetica,sans-Serif" font-size="10.00">src/js/openenclave.cpp</text>
</a>
</g>
</g>
<!-- Node34&#45;&gt;Node39 -->
<g id="edge58" class="edge">
<title>Node34&#45;&gt;Node39</title>
<path fill="none" stroke="midnightblue" d="M1527.03,-305.25C1574.46,-292.41 1651.04,-271.67 1693.88,-260.06"/>
<polygon fill="midnightblue" stroke="midnightblue" points="1526.11,-301.88 1517.37,-307.87 1527.94,-308.63 1526.11,-301.88"/>
</g>
<!-- Node35&#45;&gt;Node15 -->
<g id="edge51" class="edge">
<title>Node35&#45;&gt;Node15</title>
<path fill="none" stroke="midnightblue" d="M1353.95,-232.03C1345.62,-219.45 1334.74,-203.01 1328.21,-193.13"/>
<polygon fill="midnightblue" stroke="midnightblue" points="1351.26,-234.32 1359.7,-240.73 1357.1,-230.46 1351.26,-234.32"/>
</g>
<!-- Node36&#45;&gt;Node15 -->
<g id="edge53" class="edge">
<title>Node36&#45;&gt;Node15</title>
<path fill="none" stroke="midnightblue" d="M1454.42,-237.1C1422.05,-224.2 1372.22,-204.33 1343.98,-193.06"/>
<polygon fill="midnightblue" stroke="midnightblue" points="1453.27,-240.42 1463.85,-240.87 1455.86,-233.91 1453.27,-240.42"/>
</g>
<!-- Node37&#45;&gt;Node15 -->
<g id="edge55" class="edge">
<title>Node37&#45;&gt;Node15</title>
<path fill="none" stroke="midnightblue" d="M1552.67,-238.51C1547.89,-237.31 1543.09,-236.12 1538.5,-235 1476.02,-219.75 1403.14,-202.91 1360.01,-193.04"/>
<polygon fill="midnightblue" stroke="midnightblue" points="1551.82,-241.9 1562.37,-240.96 1553.53,-235.12 1551.82,-241.9"/>
</g>
<!-- Node38&#45;&gt;Node15 -->
<g id="edge57" class="edge">
<title>Node38&#45;&gt;Node15</title>
<path fill="none" stroke="midnightblue" d="M1222.14,-236.27C1247.09,-223.4 1284.3,-204.21 1305.7,-193.17"/>
<polygon fill="midnightblue" stroke="midnightblue" points="1220.51,-233.17 1213.23,-240.87 1223.72,-239.39 1220.51,-233.17"/>
</g>
<!-- Node40&#45;&gt;Node3 -->
<g id="edge63" class="edge">
<title>Node40&#45;&gt;Node3</title>
<path fill="none" stroke="midnightblue" d="M1727.42,-426.24C1730.4,-409 1735.41,-387.17 1743.5,-369 1758.29,-335.77 1762.29,-324.96 1790.5,-302 1810.57,-285.66 1836.74,-273.71 1859.23,-265.54"/>
<polygon fill="midnightblue" stroke="midnightblue" points="1723.94,-425.88 1725.82,-436.31 1730.85,-426.98 1723.94,-425.88"/>
</g>
<!-- Node41 -->
<g id="node41" class="node">
<title>Node41</title>
<g id="a_node41"><a xlink:href="seqnos__by__key__bucketed_8cpp.html" target="_top" xlink:title=" ">
<polygon fill="white" stroke="black" points="1885.5,-369.5 1885.5,-399.5 2049.5,-399.5 2049.5,-369.5 1885.5,-369.5"/>
<text text-anchor="start" x="1893.5" y="-387.5" font-family="Helvetica,sans-Serif" font-size="10.00">src/indexing/strategies</text>
<text text-anchor="middle" x="1967.5" y="-376.5" font-family="Helvetica,sans-Serif" font-size="10.00">/seqnos_by_key_bucketed.cpp</text>
</a>
</g>
</g>
<!-- Node40&#45;&gt;Node41 -->
<g id="edge64" class="edge">
<title>Node40&#45;&gt;Node41</title>
<path fill="none" stroke="midnightblue" d="M1794.76,-435.41C1834.71,-423.87 1883.5,-409.77 1919.02,-399.51"/>
<polygon fill="midnightblue" stroke="midnightblue" points="1793.71,-432.07 1785.07,-438.21 1795.65,-438.8 1793.71,-432.07"/>
</g>
</g>
</svg>
        <g id="navigator" transform="translate(0 0)" fill="#404254">
                <rect fill="#f2f5e9" fill-opacity="0.5" stroke="#606060" stroke-width=".5" x="0" y="0" width="60" height="60"/>
                <use id="zoomplus" xlink:href="#zoomPlus" x="17" y="9" onmousedown="handleZoom(evt,'in')"/>
                <use id="zoomminus" xlink:href="#zoomMin" x="42" y="9" onmousedown="handleZoom(evt,'out')"/>
                <use id="reset" xlink:href="#resetDef" x="30" y="36" onmousedown="handleReset()"/>
                <g id="arrowUp" xlink:href="#dirArrow" transform="translate(30 24)" onmousedown="handlePan(0,-1)">
                  <use xlink:href="#rim" fill="#404040">
                        <set attributeName="fill" to="#808080" begin="arrowUp.mouseover" end="arrowUp.mouseout"/>
                  </use>
                  <path fill="none" stroke="white" stroke-width="1.5" d="M0,-3.0v7 M-2.5,-0.5L0,-3.0L2.5,-0.5"/>
                </g>
                <g id="arrowRight" xlink:href="#dirArrow" transform="rotate(90) translate(36 -43)" onmousedown="handlePan(1,0)">
                  <use xlink:href="#rim" fill="#404040">
                        <set attributeName="fill" to="#808080" begin="arrowRight.mouseover" end="arrowRight.mouseout"/>
                  </use>
                  <path fill="none" stroke="white" stroke-width="1.5" d="M0,-3.0v7 M-2.5,-0.5L0,-3.0L2.5,-0.5"/>
                </g>
                <g id="arrowDown" xlink:href="#dirArrow" transform="rotate(180) translate(-30 -48)" onmousedown="handlePan(0,1)">
                  <use xlink:href="#rim" fill="#404040">
                        <set attributeName="fill" to="#808080" begin="arrowDown.mouseover" end="arrowDown.mouseout"/>
                  </use>
                  <path fill="none" stroke="white" stroke-width="1.5" d="M0,-3.0v7 M-2.5,-0.5L0,-3.0L2.5,-0.5"/>
                </g>
                <g id="arrowLeft" xlink:href="#dirArrow" transform="rotate(270) translate(-36 17)" onmousedown="handlePan(-1,0)">
                  <use xlink:href="#rim" fill="#404040">
                        <set attributeName="fill" to="#808080" begin="arrowLeft.mouseover" end="arrowLeft.mouseout"/>
                  </use>
                  <path fill="none" stroke="white" stroke-width="1.5" d="M0,-3.0v7 M-2.5,-0.5L0,-3.0L2.5,-0.5"/>
                </g>
        </g>
        <svg viewBox="0 0 15 15" width="100%" height="30px" preserveAspectRatio="xMaxYMin meet">
         <g id="arrow_out" transform="scale(0.3 0.3)">
          <a xlink:href="node__context_8h__dep__incl_org.svg" target="_base">
           <rect id="button" ry="5" rx="5" y="6" x="6" height="38" width="38"
                fill="#f2f5e9" fill-opacity="0.5" stroke="#606060" stroke-width="1.0"/>
           <path id="arrow"
             d="M 11.500037,31.436501 C 11.940474,20.09759 22.043105,11.32322 32.158766,21.979434 L 37.068811,17.246167 C 37.068811,17.246167 37.088388,32 37.088388,32 L 22.160133,31.978069 C 22.160133,31.978069 26.997745,27.140456 26.997745,27.140456 C 18.528582,18.264221 13.291696,25.230495 11.500037,31.436501 z"
             style="fill:#404040;"/>
          </a>
         </g>
        </svg>
</svg>
