<?xml version="1.0" encoding="UTF-8" standalone="no"?>
<!DOCTYPE svg PUBLIC "-//W3C//DTD SVG 1.1//EN"
 "http://www.w3.org/Graphics/SVG/1.1/DTD/svg11.dtd">
<!-- Generated by graphviz version 2.43.0 (0)
 -->
<!-- Title: src/node/rpc/node_interface.h Pages: 1 -->
<!--zoomable 397 -->
<svg id="main" version="1.1" xmlns="http://www.w3.org/2000/svg" xmlns:xlink="http://www.w3.org/1999/xlink" xml:space="preserve" onload="init(evt)">
<style type="text/css"><![CDATA[
.edge:hover path { stroke: red; }
.edge:hover polygon { stroke: red; fill: red; }
]]></style>
<script type="text/javascript"><![CDATA[
var edges = document.getElementsByTagName('g');
if (edges && edges.length) {
  for (var i=0;i<edges.length;i++) {
    if (edges[i].id.substr(0,4)=='edge') {
      edges[i].setAttribute('class','edge');
    }
  }
}
]]></script>
        <defs>
                <circle id="rim" cx="0" cy="0" r="7"/>
                <circle id="rim2" cx="0" cy="0" r="3.5"/>
                <g id="zoomPlus">
                        <use xlink:href="#rim" fill="#404040">
                                <set attributeName="fill" to="#808080" begin="zoomplus.mouseover" end="zoomplus.mouseout"/>
                        </use>
                        <path d="M-4,0h8M0,-4v8" fill="none" stroke="white" stroke-width="1.5" pointer-events="none"/>
                </g>
                <g id="zoomMin">
                        <use xlink:href="#rim" fill="#404040">
                                <set attributeName="fill" to="#808080" begin="zoomminus.mouseover" end="zoomminus.mouseout"/>
                        </use>
                        <path d="M-4,0h8" fill="none" stroke="white" stroke-width="1.5" pointer-events="none"/>
                </g>
                <g id="dirArrow">
                        <path fill="none" stroke="white" stroke-width="1.5" d="M0,-3.0v7 M-2.5,-0.5L0,-3.0L2.5,-0.5"/>
                </g>
               <g id="resetDef">
                       <use xlink:href="#rim2" fill="#404040">
                               <set attributeName="fill" to="#808080" begin="reset.mouseover" end="reset.mouseout"/>
                       </use>
               </g>
        </defs>

<script type="text/javascript">
var viewWidth = 1524;
var viewHeight = 397;
var sectionId = 'dynsection-1';
</script>
<script xlink:href="svgpan.js"/>
<svg id="graph" class="graph">
<g id="viewport">
<title>src/node/rpc/node_interface.h</title>
<polygon fill="white" stroke="transparent" points="-4,4 -4,-393 1519.54,-393 1519.54,4 -4,4"/>
<!-- Node1 -->
<g id="node1" class="node">
<title>Node1</title>
<g id="a_node1"><a xlink:title=" ">
<polygon fill="#bfbfbf" stroke="black" points="927.04,-369.5 927.04,-388.5 1088.04,-388.5 1088.04,-369.5 927.04,-369.5"/>
<text text-anchor="middle" x="1007.54" y="-376.5" font-family="Helvetica,sans-Serif" font-size="10.00">src/node/rpc/node_interface.h</text>
</a>
</g>
</g>
<!-- Node2 -->
<g id="node2" class="node">
<title>Node2</title>
<g id="a_node2"><a xlink:href="wrap_8cpp.html" target="_top" xlink:title=" ">
<polygon fill="white" stroke="black" points="203.04,-185 203.04,-204 292.04,-204 292.04,-185 203.04,-185"/>
<text text-anchor="middle" x="247.54" y="-192" font-family="Helvetica,sans-Serif" font-size="10.00">src/js/wrap.cpp</text>
</a>
</g>
</g>
<!-- Node1&#45;&gt;Node2 -->
<g id="edge1" class="edge">
<title>Node1&#45;&gt;Node2</title>
<path fill="none" stroke="midnightblue" d="M916.67,-375.65C682.22,-368.66 71.05,-344.11 11.54,-277 -44.26,-214.08 120.04,-199.72 202.9,-196.45"/>
<polygon fill="midnightblue" stroke="midnightblue" points="916.77,-379.16 926.87,-375.95 916.98,-372.16 916.77,-379.16"/>
</g>
<!-- Node3 -->
<g id="node3" class="node">
<title>Node3</title>
<g id="a_node3"><a xlink:href="wrap_8h.html" target="_top" xlink:title=" ">
<polygon fill="white" stroke="black" points="485.54,-313.5 485.54,-332.5 563.54,-332.5 563.54,-313.5 485.54,-313.5"/>
<text text-anchor="middle" x="524.54" y="-320.5" font-family="Helvetica,sans-Serif" font-size="10.00">src/js/wrap.h</text>
</a>
</g>
</g>
<!-- Node1&#45;&gt;Node3 -->
<g id="edge2" class="edge">
<title>Node1&#45;&gt;Node3</title>
<path fill="none" stroke="midnightblue" d="M921.26,-368.35C815.57,-356.54 641.04,-337.03 563.61,-328.37"/>
<polygon fill="midnightblue" stroke="midnightblue" points="920.94,-371.84 931.27,-369.47 921.72,-364.88 920.94,-371.84"/>
</g>
<!-- Node14 -->
<g id="node14" class="node">
<title>Node14</title>
<g id="a_node14"><a xlink:href="member__frontend_8h.html" target="_top" xlink:title=" ">
<polygon fill="white" stroke="black" points="860.54,-246.5 860.54,-276.5 980.54,-276.5 980.54,-246.5 860.54,-246.5"/>
<text text-anchor="start" x="868.54" y="-264.5" font-family="Helvetica,sans-Serif" font-size="10.00">src/node/rpc/member</text>
<text text-anchor="middle" x="920.54" y="-253.5" font-family="Helvetica,sans-Serif" font-size="10.00">_frontend.h</text>
</a>
</g>
</g>
<!-- Node1&#45;&gt;Node14 -->
<g id="edge26" class="edge">
<title>Node1&#45;&gt;Node14</title>
<path fill="none" stroke="midnightblue" d="M994.97,-361.39C988.55,-352.9 980.62,-342.4 973.54,-333 958.79,-313.43 941.78,-290.79 931.09,-276.55"/>
<polygon fill="midnightblue" stroke="midnightblue" points="992.19,-363.51 1001.01,-369.38 997.77,-359.29 992.19,-363.51"/>
</g>
<!-- Node15 -->
<g id="node15" class="node">
<title>Node15</title>
<g id="a_node15"><a xlink:href="historical__queries_8h.html" target="_top" xlink:title=" ">
<polygon fill="white" stroke="black" points="1169.54,-179.5 1169.54,-209.5 1275.54,-209.5 1275.54,-179.5 1169.54,-179.5"/>
<text text-anchor="start" x="1177.54" y="-197.5" font-family="Helvetica,sans-Serif" font-size="10.00">src/node/historical</text>
<text text-anchor="middle" x="1222.54" y="-186.5" font-family="Helvetica,sans-Serif" font-size="10.00">_queries.h</text>
</a>
</g>
</g>
<!-- Node1&#45;&gt;Node15 -->
<g id="edge22" class="edge">
<title>Node1&#45;&gt;Node15</title>
<path fill="none" stroke="midnightblue" d="M1077.9,-367.07C1102.63,-360.46 1129.28,-349.88 1149.54,-333 1189.82,-299.43 1210.97,-237.78 1218.85,-209.88"/>
<polygon fill="midnightblue" stroke="midnightblue" points="1077.03,-363.68 1068.17,-369.5 1078.72,-370.47 1077.03,-363.68"/>
</g>
<!-- Node17 -->
<g id="node17" class="node">
<title>Node17</title>
<g id="a_node17"><a xlink:href="node__frontend_8h.html" target="_top" xlink:title=" ">
<polygon fill="white" stroke="black" points="982.54,-313.5 982.54,-332.5 1140.54,-332.5 1140.54,-313.5 982.54,-313.5"/>
<text text-anchor="middle" x="1061.54" y="-320.5" font-family="Helvetica,sans-Serif" font-size="10.00">src/node/rpc/node_frontend.h</text>
</a>
</g>
</g>
<!-- Node1&#45;&gt;Node17 -->
<g id="edge27" class="edge">
<title>Node1&#45;&gt;Node17</title>
<path fill="none" stroke="midnightblue" d="M1023.54,-362C1033.1,-352.43 1044.9,-340.64 1052.79,-332.75"/>
<polygon fill="midnightblue" stroke="midnightblue" points="1021.05,-359.54 1016.45,-369.08 1026,-364.49 1021.05,-359.54"/>
</g>
<!-- Node19 -->
<g id="node19" class="node">
<title>Node19</title>
<g id="a_node19"><a xlink:href="node__operation_8h.html" target="_top" xlink:title=" ">
<polygon fill="white" stroke="black" points="1351.54,-118 1351.54,-137 1515.54,-137 1515.54,-118 1351.54,-118"/>
<text text-anchor="middle" x="1433.54" y="-125" font-family="Helvetica,sans-Serif" font-size="10.00">src/node/rpc/node_operation.h</text>
</a>
</g>
</g>
<!-- Node1&#45;&gt;Node19 -->
<g id="edge31" class="edge">
<title>Node1&#45;&gt;Node19</title>
<path fill="none" stroke="midnightblue" d="M1069.02,-367.33C1101,-360.29 1140.1,-349.29 1172.54,-333 1284.17,-276.94 1394.08,-168.98 1424.98,-137.39"/>
<polygon fill="midnightblue" stroke="midnightblue" points="1067.95,-363.98 1058.9,-369.48 1069.41,-370.82 1067.95,-363.98"/>
</g>
<!-- Node3&#45;&gt;Node2 -->
<g id="edge15" class="edge">
<title>Node3&#45;&gt;Node2</title>
<path fill="none" stroke="midnightblue" d="M525.16,-303.46C524.68,-286.12 521.07,-260.75 505.54,-246 475.42,-217.4 357.72,-203.94 292.2,-198.55"/>
<polygon fill="midnightblue" stroke="midnightblue" points="521.66,-303.48 525.12,-313.5 528.66,-303.51 521.66,-303.48"/>
</g>
<!-- Node4 -->
<g id="node4" class="node">
<title>Node4</title>
<g id="a_node4"><a xlink:href="js__generic__base_8cpp.html" target="_top" xlink:title=" ">
<polygon fill="white" stroke="black" points="686.54,-246.5 686.54,-276.5 804.54,-276.5 804.54,-246.5 686.54,-246.5"/>
<text text-anchor="start" x="694.54" y="-264.5" font-family="Helvetica,sans-Serif" font-size="10.00">src/apps/js_generic</text>
<text text-anchor="middle" x="745.54" y="-253.5" font-family="Helvetica,sans-Serif" font-size="10.00">/js_generic_base.cpp</text>
</a>
</g>
</g>
<!-- Node3&#45;&gt;Node4 -->
<g id="edge3" class="edge">
<title>Node3&#45;&gt;Node4</title>
<path fill="none" stroke="midnightblue" d="M565.92,-310.86C602,-301.14 654.52,-287.01 693.45,-276.52"/>
<polygon fill="midnightblue" stroke="midnightblue" points="564.95,-307.5 556.2,-313.48 566.77,-314.25 564.95,-307.5"/>
</g>
<!-- Node5 -->
<g id="node5" class="node">
<title>Node5</title>
<g id="a_node5"><a xlink:href="enclave_2enclave_8h.html" target="_top" xlink:title=" ">
<polygon fill="white" stroke="black" points="1061.54,-56.5 1061.54,-75.5 1183.54,-75.5 1183.54,-56.5 1061.54,-56.5"/>
<text text-anchor="middle" x="1122.54" y="-63.5" font-family="Helvetica,sans-Serif" font-size="10.00">src/enclave/enclave.h</text>
</a>
</g>
</g>
<!-- Node3&#45;&gt;Node5 -->
<g id="edge4" class="edge">
<title>Node3&#45;&gt;Node5</title>
<path fill="none" stroke="midnightblue" d="M475.3,-321.38C352.91,-319.32 42.49,-310.79 11.54,-277 2.23,-266.84 3.65,-257.29 11.54,-246 61.15,-175 110.32,-199.21 194.54,-179 515.27,-102.03 911.68,-76.68 1061.42,-69.5"/>
<polygon fill="midnightblue" stroke="midnightblue" points="475.45,-324.88 485.51,-321.54 475.57,-317.88 475.45,-324.88"/>
</g>
<!-- Node7 -->
<g id="node7" class="node">
<title>Node7</title>
<g id="a_node7"><a xlink:href="js_2consensus_8cpp.html" target="_top" xlink:title=" ">
<polygon fill="white" stroke="black" points="552.54,-252 552.54,-271 668.54,-271 668.54,-252 552.54,-252"/>
<text text-anchor="middle" x="610.54" y="-259" font-family="Helvetica,sans-Serif" font-size="10.00">src/js/consensus.cpp</text>
</a>
</g>
</g>
<!-- Node3&#45;&gt;Node7 -->
<g id="edge6" class="edge">
<title>Node3&#45;&gt;Node7</title>
<path fill="none" stroke="midnightblue" d="M545.33,-307.61C561.87,-296.17 584.45,-280.55 598.24,-271.01"/>
<polygon fill="midnightblue" stroke="midnightblue" points="543.09,-304.91 536.86,-313.48 547.07,-310.66 543.09,-304.91"/>
</g>
<!-- Node8 -->
<g id="node8" class="node">
<title>Node8</title>
<g id="a_node8"><a xlink:href="conv_8cpp.html" target="_top" xlink:title=" ">
<polygon fill="white" stroke="black" points="148.54,-252 148.54,-271 236.54,-271 236.54,-252 148.54,-252"/>
<text text-anchor="middle" x="192.54" y="-259" font-family="Helvetica,sans-Serif" font-size="10.00">src/js/conv.cpp</text>
</a>
</g>
</g>
<!-- Node3&#45;&gt;Node8 -->
<g id="edge8" class="edge">
<title>Node3&#45;&gt;Node8</title>
<path fill="none" stroke="midnightblue" d="M475.48,-315.71C419.53,-308.16 325.44,-294.32 245.54,-277 237.71,-275.3 229.31,-273.16 221.56,-271.04"/>
<polygon fill="midnightblue" stroke="midnightblue" points="475.1,-319.19 485.47,-317.05 476.03,-312.25 475.1,-319.19"/>
</g>
<!-- Node9 -->
<g id="node9" class="node">
<title>Node9</title>
<g id="a_node9"><a xlink:href="js_2crypto_8cpp.html" target="_top" xlink:title=" ">
<polygon fill="white" stroke="black" points="254.54,-252 254.54,-271 350.54,-271 350.54,-252 254.54,-252"/>
<text text-anchor="middle" x="302.54" y="-259" font-family="Helvetica,sans-Serif" font-size="10.00">src/js/crypto.cpp</text>
</a>
</g>
</g>
<!-- Node3&#45;&gt;Node9 -->
<g id="edge10" class="edge">
<title>Node3&#45;&gt;Node9</title>
<path fill="none" stroke="midnightblue" d="M482.83,-310.82C439.71,-299.26 373.33,-281.47 334.29,-271.01"/>
<polygon fill="midnightblue" stroke="midnightblue" points="482.17,-314.27 492.73,-313.48 483.98,-307.51 482.17,-314.27"/>
</g>
<!-- Node10 -->
<g id="node10" class="node">
<title>Node10</title>
<g id="a_node10"><a xlink:href="js_2historical_8cpp.html" target="_top" xlink:title=" ">
<polygon fill="white" stroke="black" points="20.54,-252 20.54,-271 130.54,-271 130.54,-252 20.54,-252"/>
<text text-anchor="middle" x="75.54" y="-259" font-family="Helvetica,sans-Serif" font-size="10.00">src/js/historical.cpp</text>
</a>
</g>
</g>
<!-- Node3&#45;&gt;Node10 -->
<g id="edge12" class="edge">
<title>Node3&#45;&gt;Node10</title>
<path fill="none" stroke="midnightblue" d="M474.92,-317.9C401.36,-311.44 259.18,-297.49 139.54,-277 129.88,-275.35 119.49,-273.17 109.95,-271"/>
<polygon fill="midnightblue" stroke="midnightblue" points="475,-321.42 485.27,-318.8 475.61,-314.45 475,-321.42"/>
</g>
<!-- Node11 -->
<g id="node11" class="node">
<title>Node11</title>
<g id="a_node11"><a xlink:href="openenclave_8cpp.html" target="_top" xlink:title=" ">
<polygon fill="white" stroke="black" points="368.54,-252 368.54,-271 496.54,-271 496.54,-252 368.54,-252"/>
<text text-anchor="middle" x="432.54" y="-259" font-family="Helvetica,sans-Serif" font-size="10.00">src/js/openenclave.cpp</text>
</a>
</g>
</g>
<!-- Node3&#45;&gt;Node11 -->
<g id="edge14" class="edge">
<title>Node3&#45;&gt;Node11</title>
<path fill="none" stroke="midnightblue" d="M502.78,-307.93C485.05,-296.46 460.58,-280.63 445.69,-271.01"/>
<polygon fill="midnightblue" stroke="midnightblue" points="501.06,-310.98 511.36,-313.48 504.86,-305.11 501.06,-310.98"/>
</g>
<!-- Node12 -->
<g id="node12" class="node">
<title>Node12</title>
<g id="a_node12"><a xlink:href="node__state_8h.html" target="_top" xlink:title=" ">
<polygon fill="white" stroke="black" points="891.54,-185 891.54,-204 1015.54,-204 1015.54,-185 891.54,-185"/>
<text text-anchor="middle" x="953.54" y="-192" font-family="Helvetica,sans-Serif" font-size="10.00">src/node/node_state.h</text>
</a>
</g>
</g>
<!-- Node3&#45;&gt;Node12 -->
<g id="edge16" class="edge">
<title>Node3&#45;&gt;Node12</title>
<path fill="none" stroke="midnightblue" d="M573.98,-322.07C633.36,-320.44 734.79,-312.11 813.54,-277 833.44,-268.12 833.21,-257.8 851.54,-246 878.29,-228.78 911.73,-213.24 932.87,-204.09"/>
<polygon fill="midnightblue" stroke="midnightblue" points="573.67,-318.58 563.75,-322.3 573.83,-325.58 573.67,-318.58"/>
</g>
<!-- Node3&#45;&gt;Node14 -->
<g id="edge20" class="edge">
<title>Node3&#45;&gt;Node14</title>
<path fill="none" stroke="midnightblue" d="M573.9,-315.95C637.2,-308 750.3,-293.14 846.54,-277 851.06,-276.24 855.72,-275.42 860.41,-274.57"/>
<polygon fill="midnightblue" stroke="midnightblue" points="573.29,-312.5 563.8,-317.22 574.16,-319.45 573.29,-312.5"/>
</g>
<!-- Node6 -->
<g id="node6" class="node">
<title>Node6</title>
<g id="a_node6"><a xlink:href="enclave_2main_8cpp.html" target="_top" xlink:title=" ">
<polygon fill="white" stroke="black" points="1062.54,-0.5 1062.54,-19.5 1182.54,-19.5 1182.54,-0.5 1062.54,-0.5"/>
<text text-anchor="middle" x="1122.54" y="-7.5" font-family="Helvetica,sans-Serif" font-size="10.00">src/enclave/main.cpp</text>
</a>
</g>
</g>
<!-- Node5&#45;&gt;Node6 -->
<g id="edge5" class="edge">
<title>Node5&#45;&gt;Node6</title>
<path fill="none" stroke="midnightblue" d="M1122.54,-45.8C1122.54,-36.91 1122.54,-26.78 1122.54,-19.75"/>
<polygon fill="midnightblue" stroke="midnightblue" points="1119.04,-46.08 1122.54,-56.08 1126.04,-46.08 1119.04,-46.08"/>
</g>
<!-- Node7&#45;&gt;Node2 -->
<g id="edge7" class="edge">
<title>Node7&#45;&gt;Node2</title>
<path fill="none" stroke="midnightblue" d="M559.08,-249.96C552.18,-248.6 545.19,-247.25 538.54,-246 451.6,-229.71 349.7,-212.44 292.47,-202.91"/>
<polygon fill="midnightblue" stroke="midnightblue" points="558.58,-253.43 569.07,-251.95 559.95,-246.57 558.58,-253.43"/>
</g>
<!-- Node8&#45;&gt;Node2 -->
<g id="edge9" class="edge">
<title>Node8&#45;&gt;Node2</title>
<path fill="none" stroke="midnightblue" d="M206.69,-243.77C217.42,-231.1 231.71,-214.2 240.24,-204.13"/>
<polygon fill="midnightblue" stroke="midnightblue" points="203.74,-241.84 199.96,-251.73 209.09,-246.36 203.74,-241.84"/>
</g>
<!-- Node9&#45;&gt;Node2 -->
<g id="edge11" class="edge">
<title>Node9&#45;&gt;Node2</title>
<path fill="none" stroke="midnightblue" d="M288.38,-243.77C277.66,-231.1 263.36,-214.2 254.84,-204.13"/>
<polygon fill="midnightblue" stroke="midnightblue" points="285.99,-246.36 295.12,-251.73 291.33,-241.84 285.99,-246.36"/>
</g>
<!-- Node10&#45;&gt;Node2 -->
<g id="edge13" class="edge">
<title>Node10&#45;&gt;Node2</title>
<path fill="none" stroke="midnightblue" d="M107.9,-248.27C142.04,-235.37 194.94,-215.38 224.88,-204.06"/>
<polygon fill="midnightblue" stroke="midnightblue" points="106.49,-245.06 98.38,-251.87 108.97,-251.61 106.49,-245.06"/>
</g>
<!-- Node12&#45;&gt;Node5 -->
<g id="edge17" class="edge">
<title>Node12&#45;&gt;Node5</title>
<path fill="none" stroke="midnightblue" d="M938.43,-177.04C924.14,-159.43 907.02,-131.4 922.54,-112 939.74,-90.5 1009.23,-78.55 1061.5,-72.46"/>
<polygon fill="midnightblue" stroke="midnightblue" points="935.9,-179.46 945.06,-184.77 941.21,-174.9 935.9,-179.46"/>
</g>
<!-- Node13 -->
<g id="node13" class="node">
<title>Node13</title>
<g id="a_node13"><a xlink:href="gov__effects_8h.html" target="_top" xlink:title=" ">
<polygon fill="white" stroke="black" points="931.54,-118 931.54,-137 1075.54,-137 1075.54,-118 931.54,-118"/>
<text text-anchor="middle" x="1003.54" y="-125" font-family="Helvetica,sans-Serif" font-size="10.00">src/node/rpc/gov_effects.h</text>
</a>
</g>
</g>
<!-- Node12&#45;&gt;Node13 -->
<g id="edge18" class="edge">
<title>Node12&#45;&gt;Node13</title>
<path fill="none" stroke="midnightblue" d="M966.41,-176.77C976.16,-164.1 989.15,-147.2 996.9,-137.13"/>
<polygon fill="midnightblue" stroke="midnightblue" points="963.6,-174.67 960.28,-184.73 969.15,-178.94 963.6,-174.67"/>
</g>
<!-- Node13&#45;&gt;Node5 -->
<g id="edge19" class="edge">
<title>Node13&#45;&gt;Node5</title>
<path fill="none" stroke="midnightblue" d="M1029.8,-113.37C1052.87,-101.83 1085.74,-85.4 1105.52,-75.51"/>
<polygon fill="midnightblue" stroke="midnightblue" points="1027.97,-110.37 1020.59,-117.98 1031.1,-116.63 1027.97,-110.37"/>
</g>
<!-- Node14&#45;&gt;Node5 -->
<g id="edge21" class="edge">
<title>Node14&#45;&gt;Node5</title>
<path fill="none" stroke="midnightblue" d="M967.38,-242.42C986.1,-234.04 1007.27,-223.03 1024.54,-210 1056.45,-185.93 1062.07,-176.06 1084.54,-143 1099.96,-120.31 1113.03,-90.47 1119.03,-75.85"/>
<polygon fill="midnightblue" stroke="midnightblue" points="965.91,-239.24 958.14,-246.44 968.7,-245.66 965.91,-239.24"/>
</g>
<!-- Node15&#45;&gt;Node5 -->
<g id="edge23" class="edge">
<title>Node15&#45;&gt;Node5</title>
<path fill="none" stroke="midnightblue" d="M1205.04,-171.37C1182.67,-143.06 1144.96,-95.37 1129.49,-75.79"/>
<polygon fill="midnightblue" stroke="midnightblue" points="1202.51,-173.8 1211.45,-179.48 1208,-169.46 1202.51,-173.8"/>
</g>
<!-- Node16 -->
<g id="node16" class="node">
<title>Node16</title>
<g id="a_node16"><a xlink:href="historical__transaction__fetcher_8h.html" target="_top" xlink:title=" ">
<polygon fill="white" stroke="black" points="1208.04,-112.5 1208.04,-142.5 1333.04,-142.5 1333.04,-112.5 1208.04,-112.5"/>
<text text-anchor="start" x="1216.04" y="-130.5" font-family="Helvetica,sans-Serif" font-size="10.00">src/indexing/historical</text>
<text text-anchor="middle" x="1270.54" y="-119.5" font-family="Helvetica,sans-Serif" font-size="10.00">_transaction_fetcher.h</text>
</a>
</g>
</g>
<!-- Node15&#45;&gt;Node16 -->
<g id="edge24" class="edge">
<title>Node15&#45;&gt;Node16</title>
<path fill="none" stroke="midnightblue" d="M1239.04,-171.16C1246.04,-161.68 1253.98,-150.92 1260.14,-142.58"/>
<polygon fill="midnightblue" stroke="midnightblue" points="1236.08,-169.27 1232.95,-179.4 1241.71,-173.43 1236.08,-169.27"/>
</g>
<!-- Node16&#45;&gt;Node5 -->
<g id="edge25" class="edge">
<title>Node16&#45;&gt;Node5</title>
<path fill="none" stroke="midnightblue" d="M1226.16,-108.66C1199.01,-97.75 1165.5,-84.27 1144.07,-75.66"/>
<polygon fill="midnightblue" stroke="midnightblue" points="1224.88,-111.92 1235.46,-112.4 1227.49,-105.42 1224.88,-111.92"/>
</g>
<!-- Node17&#45;&gt;Node5 -->
<g id="edge28" class="edge">
<title>Node17&#45;&gt;Node5</title>
<path fill="none" stroke="midnightblue" d="M1096.2,-309.24C1110.43,-302.08 1125.45,-291.59 1133.54,-277 1171.77,-208.03 1137.65,-105.94 1126.06,-75.73"/>
<polygon fill="midnightblue" stroke="midnightblue" points="1094.65,-306.1 1087.04,-313.47 1097.59,-312.45 1094.65,-306.1"/>
</g>
<!-- Node18 -->
<g id="node18" class="node">
<title>Node18</title>
<g id="a_node18"><a xlink:href="jwt__key__auto__refresh_8h.html" target="_top" xlink:title=" ">
<polygon fill="white" stroke="black" points="999.04,-246.5 999.04,-276.5 1124.04,-276.5 1124.04,-246.5 999.04,-246.5"/>
<text text-anchor="start" x="1007.04" y="-264.5" font-family="Helvetica,sans-Serif" font-size="10.00">src/node/jwt_key_auto</text>
<text text-anchor="middle" x="1061.54" y="-253.5" font-family="Helvetica,sans-Serif" font-size="10.00">_refresh.h</text>
</a>
</g>
</g>
<!-- Node17&#45;&gt;Node18 -->
<g id="edge29" class="edge">
<title>Node17&#45;&gt;Node18</title>
<path fill="none" stroke="midnightblue" d="M1061.54,-303.23C1061.54,-294.59 1061.54,-284.5 1061.54,-276.52"/>
<polygon fill="midnightblue" stroke="midnightblue" points="1058.04,-303.48 1061.54,-313.48 1065.04,-303.48 1058.04,-303.48"/>
</g>
<!-- Node18&#45;&gt;Node12 -->
<g id="edge30" class="edge">
<title>Node18&#45;&gt;Node12</title>
<path fill="none" stroke="midnightblue" d="M1029.37,-241.14C1008.85,-228.79 983.26,-213.39 967.67,-204.01"/>
<polygon fill="midnightblue" stroke="midnightblue" points="1027.73,-244.24 1038.1,-246.4 1031.34,-238.24 1027.73,-244.24"/>
</g>
<!-- Node19&#45;&gt;Node5 -->
<g id="edge32" class="edge">
<title>Node19&#45;&gt;Node5</title>
<path fill="none" stroke="midnightblue" d="M1378.89,-116.05C1318.64,-104.52 1222.86,-86.19 1167.01,-75.51"/>
<polygon fill="midnightblue" stroke="midnightblue" points="1378.5,-119.53 1388.98,-117.98 1379.81,-112.66 1378.5,-119.53"/>
</g>
</g>
</svg>
        <g id="navigator" transform="translate(0 0)" fill="#404254">
                <rect fill="#f2f5e9" fill-opacity="0.5" stroke="#606060" stroke-width=".5" x="0" y="0" width="60" height="60"/>
                <use id="zoomplus" xlink:href="#zoomPlus" x="17" y="9" onmousedown="handleZoom(evt,'in')"/>
                <use id="zoomminus" xlink:href="#zoomMin" x="42" y="9" onmousedown="handleZoom(evt,'out')"/>
                <use id="reset" xlink:href="#resetDef" x="30" y="36" onmousedown="handleReset()"/>
                <g id="arrowUp" xlink:href="#dirArrow" transform="translate(30 24)" onmousedown="handlePan(0,-1)">
                  <use xlink:href="#rim" fill="#404040">
                        <set attributeName="fill" to="#808080" begin="arrowUp.mouseover" end="arrowUp.mouseout"/>
                  </use>
                  <path fill="none" stroke="white" stroke-width="1.5" d="M0,-3.0v7 M-2.5,-0.5L0,-3.0L2.5,-0.5"/>
                </g>
                <g id="arrowRight" xlink:href="#dirArrow" transform="rotate(90) translate(36 -43)" onmousedown="handlePan(1,0)">
                  <use xlink:href="#rim" fill="#404040">
                        <set attributeName="fill" to="#808080" begin="arrowRight.mouseover" end="arrowRight.mouseout"/>
                  </use>
                  <path fill="none" stroke="white" stroke-width="1.5" d="M0,-3.0v7 M-2.5,-0.5L0,-3.0L2.5,-0.5"/>
                </g>
                <g id="arrowDown" xlink:href="#dirArrow" transform="rotate(180) translate(-30 -48)" onmousedown="handlePan(0,1)">
                  <use xlink:href="#rim" fill="#404040">
                        <set attributeName="fill" to="#808080" begin="arrowDown.mouseover" end="arrowDown.mouseout"/>
                  </use>
                  <path fill="none" stroke="white" stroke-width="1.5" d="M0,-3.0v7 M-2.5,-0.5L0,-3.0L2.5,-0.5"/>
                </g>
                <g id="arrowLeft" xlink:href="#dirArrow" transform="rotate(270) translate(-36 17)" onmousedown="handlePan(-1,0)">
                  <use xlink:href="#rim" fill="#404040">
                        <set attributeName="fill" to="#808080" begin="arrowLeft.mouseover" end="arrowLeft.mouseout"/>
                  </use>
                  <path fill="none" stroke="white" stroke-width="1.5" d="M0,-3.0v7 M-2.5,-0.5L0,-3.0L2.5,-0.5"/>
                </g>
        </g>
        <svg viewBox="0 0 15 15" width="100%" height="30px" preserveAspectRatio="xMaxYMin meet">
         <g id="arrow_out" transform="scale(0.3 0.3)">
          <a xlink:href="node__interface_8h__dep__incl_org.svg" target="_base">
           <rect id="button" ry="5" rx="5" y="6" x="6" height="38" width="38"
                fill="#f2f5e9" fill-opacity="0.5" stroke="#606060" stroke-width="1.0"/>
           <path id="arrow"
             d="M 11.500037,31.436501 C 11.940474,20.09759 22.043105,11.32322 32.158766,21.979434 L 37.068811,17.246167 C 37.068811,17.246167 37.088388,32 37.088388,32 L 22.160133,31.978069 C 22.160133,31.978069 26.997745,27.140456 26.997745,27.140456 C 18.528582,18.264221 13.291696,25.230495 11.500037,31.436501 z"
             style="fill:#404040;"/>
          </a>
         </g>
        </svg>
</svg>
