<?xml version="1.0" encoding="UTF-8" standalone="no"?>
<!DOCTYPE svg PUBLIC "-//W3C//DTD SVG 1.1//EN"
 "http://www.w3.org/Graphics/SVG/1.1/DTD/svg11.dtd">
<!-- Generated by graphviz version 2.43.0 (0)
 -->
<!-- Title: src/node/rpc/node_operation_interface.h Pages: 1 -->
<svg width="1280pt" height="464pt"
 viewBox="0.00 0.00 1280.05 464.00" xmlns="http://www.w3.org/2000/svg" xmlns:xlink="http://www.w3.org/1999/xlink">
<g id="graph0" class="graph" transform="scale(1 1) rotate(0) translate(4 460)">
<title>src/node/rpc/node_operation_interface.h</title>
<polygon fill="white" stroke="transparent" points="-4,4 -4,-460 1276.05,-460 1276.05,4 -4,4"/>
<!-- Node1 -->
<g id="node1" class="node">
<title>Node1</title>
<g id="a_node1"><a xlink:title=" ">
<polygon fill="#bfbfbf" stroke="black" points="269.01,-425.5 269.01,-455.5 424.01,-455.5 424.01,-425.5 269.01,-425.5"/>
<text text-anchor="start" x="277.01" y="-443.5" font-family="Helvetica,sans-Serif" font-size="10.00">src/node/rpc/node_operation</text>
<text text-anchor="middle" x="346.51" y="-432.5" font-family="Helvetica,sans-Serif" font-size="10.00">_interface.h</text>
</a>
</g>
</g>
<!-- Node2 -->
<g id="node2" class="node">
<title>Node2</title>
<g id="a_node2"><a xlink:href="member__frontend_8h.html" target="_top" xlink:title=" ">
<polygon fill="white" stroke="black" points="15.51,-246.5 15.51,-276.5 135.51,-276.5 135.51,-246.5 15.51,-246.5"/>
<text text-anchor="start" x="23.51" y="-264.5" font-family="Helvetica,sans-Serif" font-size="10.00">src/node/rpc/member</text>
<text text-anchor="middle" x="75.51" y="-253.5" font-family="Helvetica,sans-Serif" font-size="10.00">_frontend.h</text>
</a>
</g>
</g>
<!-- Node1&#45;&gt;Node2 -->
<g id="edge1" class="edge">
<title>Node1&#45;&gt;Node2</title>
<path fill="none" stroke="midnightblue" d="M286.73,-422.32C237.23,-405.76 167.35,-376.7 118.51,-333 100.78,-317.13 87.97,-292.2 81.15,-276.63"/>
<polygon fill="midnightblue" stroke="midnightblue" points="285.76,-425.69 296.35,-425.47 287.93,-419.03 285.76,-425.69"/>
</g>
<!-- Node5 -->
<g id="node5" class="node">
<title>Node5</title>
<g id="a_node5"><a xlink:href="node__interface_8h.html" target="_top" xlink:title=" ">
<polygon fill="white" stroke="black" points="266.01,-369.5 266.01,-388.5 427.01,-388.5 427.01,-369.5 266.01,-369.5"/>
<text text-anchor="middle" x="346.51" y="-376.5" font-family="Helvetica,sans-Serif" font-size="10.00">src/node/rpc/node_interface.h</text>
</a>
</g>
</g>
<!-- Node1&#45;&gt;Node5 -->
<g id="edge4" class="edge">
<title>Node1&#45;&gt;Node5</title>
<path fill="none" stroke="midnightblue" d="M346.51,-415.29C346.51,-405.86 346.51,-395.65 346.51,-388.66"/>
<polygon fill="midnightblue" stroke="midnightblue" points="343.01,-415.4 346.51,-425.4 350.01,-415.4 343.01,-415.4"/>
</g>
<!-- Node20 -->
<g id="node20" class="node">
<title>Node20</title>
<g id="a_node20"><a xlink:href="node__operation_8h.html" target="_top" xlink:title=" ">
<polygon fill="white" stroke="black" points="970.51,-313.5 970.51,-332.5 1134.51,-332.5 1134.51,-313.5 970.51,-313.5"/>
<text text-anchor="middle" x="1052.51" y="-320.5" font-family="Helvetica,sans-Serif" font-size="10.00">src/node/rpc/node_operation.h</text>
</a>
</g>
</g>
<!-- Node1&#45;&gt;Node20 -->
<g id="edge35" class="edge">
<title>Node1&#45;&gt;Node20</title>
<path fill="none" stroke="midnightblue" d="M434.09,-425.17C582.73,-400.86 879.93,-352.23 1000.2,-332.56"/>
<polygon fill="midnightblue" stroke="midnightblue" points="433.39,-421.74 424.09,-426.81 434.52,-428.65 433.39,-421.74"/>
</g>
<!-- Node3 -->
<g id="node3" class="node">
<title>Node3</title>
<g id="a_node3"><a xlink:href="enclave_2enclave_8h.html" target="_top" xlink:title=" ">
<polygon fill="white" stroke="black" points="943.51,-56.5 943.51,-75.5 1065.51,-75.5 1065.51,-56.5 943.51,-56.5"/>
<text text-anchor="middle" x="1004.51" y="-63.5" font-family="Helvetica,sans-Serif" font-size="10.00">src/enclave/enclave.h</text>
</a>
</g>
</g>
<!-- Node2&#45;&gt;Node3 -->
<g id="edge2" class="edge">
<title>Node2&#45;&gt;Node3</title>
<path fill="none" stroke="midnightblue" d="M134.94,-243.75C198.04,-226.28 300.84,-198.75 390.51,-179 596.07,-133.72 843.2,-92.67 950.46,-75.5"/>
<polygon fill="midnightblue" stroke="midnightblue" points="133.86,-240.41 125.16,-246.46 135.74,-247.16 133.86,-240.41"/>
</g>
<!-- Node4 -->
<g id="node4" class="node">
<title>Node4</title>
<g id="a_node4"><a xlink:href="enclave_2main_8cpp.html" target="_top" xlink:title=" ">
<polygon fill="white" stroke="black" points="944.51,-0.5 944.51,-19.5 1064.51,-19.5 1064.51,-0.5 944.51,-0.5"/>
<text text-anchor="middle" x="1004.51" y="-7.5" font-family="Helvetica,sans-Serif" font-size="10.00">src/enclave/main.cpp</text>
</a>
</g>
</g>
<!-- Node3&#45;&gt;Node4 -->
<g id="edge3" class="edge">
<title>Node3&#45;&gt;Node4</title>
<path fill="none" stroke="midnightblue" d="M1004.51,-45.8C1004.51,-36.91 1004.51,-26.78 1004.51,-19.75"/>
<polygon fill="midnightblue" stroke="midnightblue" points="1001.01,-46.08 1004.51,-56.08 1008.01,-46.08 1001.01,-46.08"/>
</g>
<!-- Node5&#45;&gt;Node2 -->
<g id="edge28" class="edge">
<title>Node5&#45;&gt;Node2</title>
<path fill="none" stroke="midnightblue" d="M255.74,-367.72C221.03,-361.16 182,-350.45 149.51,-333 123.25,-318.89 99.59,-292.94 86.43,-276.76"/>
<polygon fill="midnightblue" stroke="midnightblue" points="255.43,-371.21 265.89,-369.54 256.67,-364.33 255.43,-371.21"/>
</g>
<!-- Node6 -->
<g id="node6" class="node">
<title>Node6</title>
<g id="a_node6"><a xlink:href="wrap_8cpp.html" target="_top" xlink:title=" ">
<polygon fill="white" stroke="black" points="399.01,-185 399.01,-204 488.01,-204 488.01,-185 399.01,-185"/>
<text text-anchor="middle" x="443.51" y="-192" font-family="Helvetica,sans-Serif" font-size="10.00">src/js/wrap.cpp</text>
</a>
</g>
</g>
<!-- Node5&#45;&gt;Node6 -->
<g id="edge5" class="edge">
<title>Node5&#45;&gt;Node6</title>
<path fill="none" stroke="midnightblue" d="M308.64,-366.17C247.56,-345.19 138.39,-298.69 182.51,-246 211.79,-211.04 339.91,-219.45 384.51,-210 392.98,-208.21 402.07,-206.08 410.52,-204.01"/>
<polygon fill="midnightblue" stroke="midnightblue" points="307.77,-369.57 318.36,-369.43 309.99,-362.93 307.77,-369.57"/>
</g>
<!-- Node7 -->
<g id="node7" class="node">
<title>Node7</title>
<g id="a_node7"><a xlink:href="wrap_8h.html" target="_top" xlink:title=" ">
<polygon fill="white" stroke="black" points="490.51,-313.5 490.51,-332.5 568.51,-332.5 568.51,-313.5 490.51,-313.5"/>
<text text-anchor="middle" x="529.51" y="-320.5" font-family="Helvetica,sans-Serif" font-size="10.00">src/js/wrap.h</text>
</a>
</g>
</g>
<!-- Node5&#45;&gt;Node7 -->
<g id="edge6" class="edge">
<title>Node5&#45;&gt;Node7</title>
<path fill="none" stroke="midnightblue" d="M385.26,-366.57C419.78,-356.38 469.52,-341.7 500.65,-332.52"/>
<polygon fill="midnightblue" stroke="midnightblue" points="384.11,-363.26 375.51,-369.44 386.09,-369.97 384.11,-363.26"/>
</g>
<!-- Node16 -->
<g id="node16" class="node">
<title>Node16</title>
<g id="a_node16"><a xlink:href="historical__queries_8h.html" target="_top" xlink:title=" ">
<polygon fill="white" stroke="black" points="135.51,-179.5 135.51,-209.5 241.51,-209.5 241.51,-179.5 135.51,-179.5"/>
<text text-anchor="start" x="143.51" y="-197.5" font-family="Helvetica,sans-Serif" font-size="10.00">src/node/historical</text>
<text text-anchor="middle" x="188.51" y="-186.5" font-family="Helvetica,sans-Serif" font-size="10.00">_queries.h</text>
</a>
</g>
</g>
<!-- Node5&#45;&gt;Node16 -->
<g id="edge24" class="edge">
<title>Node5&#45;&gt;Node16</title>
<path fill="none" stroke="midnightblue" d="M274.73,-367.88C183.63,-353.26 34.87,-322.88 6.51,-277 -25.25,-225.61 70.86,-206.41 135.26,-199.4"/>
<polygon fill="midnightblue" stroke="midnightblue" points="274.3,-371.35 284.73,-369.45 275.39,-364.44 274.3,-371.35"/>
</g>
<!-- Node18 -->
<g id="node18" class="node">
<title>Node18</title>
<g id="a_node18"><a xlink:href="node__frontend_8h.html" target="_top" xlink:title=" ">
<polygon fill="white" stroke="black" points="794.51,-313.5 794.51,-332.5 952.51,-332.5 952.51,-313.5 794.51,-313.5"/>
<text text-anchor="middle" x="873.51" y="-320.5" font-family="Helvetica,sans-Serif" font-size="10.00">src/node/rpc/node_frontend.h</text>
</a>
</g>
</g>
<!-- Node5&#45;&gt;Node18 -->
<g id="edge29" class="edge">
<title>Node5&#45;&gt;Node18</title>
<path fill="none" stroke="midnightblue" d="M437.27,-368.7C537.86,-358.39 698.48,-341.94 794.2,-332.13"/>
<polygon fill="midnightblue" stroke="midnightblue" points="436.72,-365.24 427.13,-369.74 437.43,-372.2 436.72,-365.24"/>
</g>
<!-- Node5&#45;&gt;Node20 -->
<g id="edge33" class="edge">
<title>Node5&#45;&gt;Node20</title>
<path fill="none" stroke="midnightblue" d="M437.4,-372.08C557.46,-364.09 775.48,-349 961.51,-333 964.36,-332.76 967.26,-332.5 970.18,-332.24"/>
<polygon fill="midnightblue" stroke="midnightblue" points="436.9,-368.6 427.16,-372.76 437.37,-375.59 436.9,-368.6"/>
</g>
<!-- Node7&#45;&gt;Node2 -->
<g id="edge23" class="edge">
<title>Node7&#45;&gt;Node2</title>
<path fill="none" stroke="midnightblue" d="M480.18,-315.69C412.88,-307.07 288.55,-291.06 182.51,-277 167.37,-274.99 151.02,-272.79 135.77,-270.73"/>
<polygon fill="midnightblue" stroke="midnightblue" points="480.11,-319.21 490.48,-317.01 481,-312.27 480.11,-319.21"/>
</g>
<!-- Node7&#45;&gt;Node3 -->
<g id="edge8" class="edge">
<title>Node7&#45;&gt;Node3</title>
<path fill="none" stroke="midnightblue" d="M578.83,-320.6C690.71,-316.94 956.3,-305.32 984.51,-277 1040.87,-220.44 1015.75,-107.93 1007.05,-75.77"/>
<polygon fill="midnightblue" stroke="midnightblue" points="578.69,-317.1 568.81,-320.92 578.92,-324.1 578.69,-317.1"/>
</g>
<!-- Node7&#45;&gt;Node6 -->
<g id="edge18" class="edge">
<title>Node7&#45;&gt;Node6</title>
<path fill="none" stroke="midnightblue" d="M500.22,-308.69C486.83,-301.2 471.89,-290.59 462.51,-277 446.75,-254.16 443.93,-220.04 443.52,-204.18"/>
<polygon fill="midnightblue" stroke="midnightblue" points="498.68,-311.84 509.16,-313.39 501.93,-305.64 498.68,-311.84"/>
</g>
<!-- Node8 -->
<g id="node8" class="node">
<title>Node8</title>
<g id="a_node8"><a xlink:href="js__generic__base_8cpp.html" target="_top" xlink:title=" ">
<polygon fill="white" stroke="black" points="605.51,-246.5 605.51,-276.5 723.51,-276.5 723.51,-246.5 605.51,-246.5"/>
<text text-anchor="start" x="613.51" y="-264.5" font-family="Helvetica,sans-Serif" font-size="10.00">src/apps/js_generic</text>
<text text-anchor="middle" x="664.51" y="-253.5" font-family="Helvetica,sans-Serif" font-size="10.00">/js_generic_base.cpp</text>
</a>
</g>
</g>
<!-- Node7&#45;&gt;Node8 -->
<g id="edge7" class="edge">
<title>Node7&#45;&gt;Node8</title>
<path fill="none" stroke="midnightblue" d="M558.26,-309.33C580.1,-299.7 610.13,-286.47 632.7,-276.52"/>
<polygon fill="midnightblue" stroke="midnightblue" points="556.6,-306.24 548.86,-313.48 559.42,-312.64 556.6,-306.24"/>
</g>
<!-- Node9 -->
<g id="node9" class="node">
<title>Node9</title>
<g id="a_node9"><a xlink:href="js_2consensus_8cpp.html" target="_top" xlink:title=" ">
<polygon fill="white" stroke="black" points="471.51,-252 471.51,-271 587.51,-271 587.51,-252 471.51,-252"/>
<text text-anchor="middle" x="529.51" y="-259" font-family="Helvetica,sans-Serif" font-size="10.00">src/js/consensus.cpp</text>
</a>
</g>
</g>
<!-- Node7&#45;&gt;Node9 -->
<g id="edge9" class="edge">
<title>Node7&#45;&gt;Node9</title>
<path fill="none" stroke="midnightblue" d="M529.51,-303.32C529.51,-292.5 529.51,-279.4 529.51,-271.01"/>
<polygon fill="midnightblue" stroke="midnightblue" points="526.01,-303.48 529.51,-313.48 533.01,-303.48 526.01,-303.48"/>
</g>
<!-- Node10 -->
<g id="node10" class="node">
<title>Node10</title>
<g id="a_node10"><a xlink:href="conv_8cpp.html" target="_top" xlink:title=" ">
<polygon fill="white" stroke="black" points="887.51,-252 887.51,-271 975.51,-271 975.51,-252 887.51,-252"/>
<text text-anchor="middle" x="931.51" y="-259" font-family="Helvetica,sans-Serif" font-size="10.00">src/js/conv.cpp</text>
</a>
</g>
</g>
<!-- Node7&#45;&gt;Node10 -->
<g id="edge11" class="edge">
<title>Node7&#45;&gt;Node10</title>
<path fill="none" stroke="midnightblue" d="M578.51,-317.85C646.36,-311.6 772.54,-298.22 878.51,-277 886.56,-275.39 895.18,-273.22 903.08,-271.06"/>
<polygon fill="midnightblue" stroke="midnightblue" points="578.18,-314.36 568.53,-318.75 578.81,-321.33 578.18,-314.36"/>
</g>
<!-- Node11 -->
<g id="node11" class="node">
<title>Node11</title>
<g id="a_node11"><a xlink:href="js_2crypto_8cpp.html" target="_top" xlink:title=" ">
<polygon fill="white" stroke="black" points="191.51,-252 191.51,-271 287.51,-271 287.51,-252 191.51,-252"/>
<text text-anchor="middle" x="239.51" y="-259" font-family="Helvetica,sans-Serif" font-size="10.00">src/js/crypto.cpp</text>
</a>
</g>
</g>
<!-- Node7&#45;&gt;Node11 -->
<g id="edge13" class="edge">
<title>Node7&#45;&gt;Node11</title>
<path fill="none" stroke="midnightblue" d="M480.23,-313.34C432.95,-304.84 359.63,-291.11 296.51,-277 288.44,-275.2 279.77,-273.08 271.69,-271.03"/>
<polygon fill="midnightblue" stroke="midnightblue" points="479.74,-316.81 490.21,-315.13 480.98,-309.92 479.74,-316.81"/>
</g>
<!-- Node12 -->
<g id="node12" class="node">
<title>Node12</title>
<g id="a_node12"><a xlink:href="js_2historical_8cpp.html" target="_top" xlink:title=" ">
<polygon fill="white" stroke="black" points="305.51,-252 305.51,-271 415.51,-271 415.51,-252 305.51,-252"/>
<text text-anchor="middle" x="360.51" y="-259" font-family="Helvetica,sans-Serif" font-size="10.00">src/js/historical.cpp</text>
</a>
</g>
</g>
<!-- Node7&#45;&gt;Node12 -->
<g id="edge15" class="edge">
<title>Node7&#45;&gt;Node12</title>
<path fill="none" stroke="midnightblue" d="M495.67,-310.08C462.81,-298.52 413.78,-281.25 384.68,-271.01"/>
<polygon fill="midnightblue" stroke="midnightblue" points="494.71,-313.46 505.3,-313.48 497.03,-306.85 494.71,-313.46"/>
</g>
<!-- Node13 -->
<g id="node13" class="node">
<title>Node13</title>
<g id="a_node13"><a xlink:href="openenclave_8cpp.html" target="_top" xlink:title=" ">
<polygon fill="white" stroke="black" points="741.51,-252 741.51,-271 869.51,-271 869.51,-252 741.51,-252"/>
<text text-anchor="middle" x="805.51" y="-259" font-family="Helvetica,sans-Serif" font-size="10.00">src/js/openenclave.cpp</text>
</a>
</g>
</g>
<!-- Node7&#45;&gt;Node13 -->
<g id="edge17" class="edge">
<title>Node7&#45;&gt;Node13</title>
<path fill="none" stroke="midnightblue" d="M578.7,-311.4C632.18,-299.87 716.59,-281.67 765.95,-271.03"/>
<polygon fill="midnightblue" stroke="midnightblue" points="577.8,-308.01 568.77,-313.54 579.28,-314.85 577.8,-308.01"/>
</g>
<!-- Node14 -->
<g id="node14" class="node">
<title>Node14</title>
<g id="a_node14"><a xlink:href="node__state_8h.html" target="_top" xlink:title=" ">
<polygon fill="white" stroke="black" points="1046.51,-185 1046.51,-204 1170.51,-204 1170.51,-185 1046.51,-185"/>
<text text-anchor="middle" x="1108.51" y="-192" font-family="Helvetica,sans-Serif" font-size="10.00">src/node/node_state.h</text>
</a>
</g>
</g>
<!-- Node7&#45;&gt;Node14 -->
<g id="edge19" class="edge">
<title>Node7&#45;&gt;Node14</title>
<path fill="none" stroke="midnightblue" d="M578.8,-321.35C686.55,-319.31 939.68,-310.94 1017.51,-277 1036.96,-268.52 1081.56,-223.55 1100.15,-204.28"/>
<polygon fill="midnightblue" stroke="midnightblue" points="578.46,-317.86 568.53,-321.54 578.59,-324.86 578.46,-317.86"/>
</g>
<!-- Node9&#45;&gt;Node6 -->
<g id="edge10" class="edge">
<title>Node9&#45;&gt;Node6</title>
<path fill="none" stroke="midnightblue" d="M509.76,-245.57C492.78,-232.74 468.9,-214.69 454.93,-204.13"/>
<polygon fill="midnightblue" stroke="midnightblue" points="507.83,-248.5 517.92,-251.73 512.05,-242.91 507.83,-248.5"/>
</g>
<!-- Node10&#45;&gt;Node6 -->
<g id="edge12" class="edge">
<title>Node10&#45;&gt;Node6</title>
<path fill="none" stroke="midnightblue" d="M893.36,-249.32C888.4,-248.09 883.35,-246.94 878.51,-246 737.44,-218.68 567.57,-204.17 488.32,-198.45"/>
<polygon fill="midnightblue" stroke="midnightblue" points="892.81,-252.8 903.37,-251.95 894.59,-246.03 892.81,-252.8"/>
</g>
<!-- Node11&#45;&gt;Node6 -->
<g id="edge14" class="edge">
<title>Node11&#45;&gt;Node6</title>
<path fill="none" stroke="midnightblue" d="M276.34,-248.77C316.76,-235.89 380.68,-215.52 416.64,-204.06"/>
<polygon fill="midnightblue" stroke="midnightblue" points="275.07,-245.5 266.6,-251.87 277.19,-252.17 275.07,-245.5"/>
</g>
<!-- Node12&#45;&gt;Node6 -->
<g id="edge16" class="edge">
<title>Node12&#45;&gt;Node6</title>
<path fill="none" stroke="midnightblue" d="M379.58,-245.57C395.96,-232.74 419.02,-214.69 432.5,-204.13"/>
<polygon fill="midnightblue" stroke="midnightblue" points="377.42,-242.81 371.71,-251.73 381.74,-248.32 377.42,-242.81"/>
</g>
<!-- Node14&#45;&gt;Node3 -->
<g id="edge20" class="edge">
<title>Node14&#45;&gt;Node3</title>
<path fill="none" stroke="midnightblue" d="M1085.11,-179.44C1071.41,-170.34 1054.5,-157.51 1042.51,-143 1024.85,-121.62 1012.64,-90.66 1007.39,-75.71"/>
<polygon fill="midnightblue" stroke="midnightblue" points="1083.26,-182.41 1093.56,-184.86 1087.03,-176.52 1083.26,-182.41"/>
</g>
<!-- Node15 -->
<g id="node15" class="node">
<title>Node15</title>
<g id="a_node15"><a xlink:href="gov__effects_8h.html" target="_top" xlink:title=" ">
<polygon fill="white" stroke="black" points="1051.51,-118 1051.51,-137 1195.51,-137 1195.51,-118 1051.51,-118"/>
<text text-anchor="middle" x="1123.51" y="-125" font-family="Helvetica,sans-Serif" font-size="10.00">src/node/rpc/gov_effects.h</text>
</a>
</g>
</g>
<!-- Node14&#45;&gt;Node15 -->
<g id="edge21" class="edge">
<title>Node14&#45;&gt;Node15</title>
<path fill="none" stroke="midnightblue" d="M1112.8,-174.91C1115.67,-162.49 1119.31,-146.72 1121.52,-137.13"/>
<polygon fill="midnightblue" stroke="midnightblue" points="1109.38,-174.2 1110.54,-184.73 1116.2,-175.78 1109.38,-174.2"/>
</g>
<!-- Node15&#45;&gt;Node3 -->
<g id="edge22" class="edge">
<title>Node15&#45;&gt;Node3</title>
<path fill="none" stroke="midnightblue" d="M1097.25,-113.37C1074.18,-101.83 1041.31,-85.4 1021.53,-75.51"/>
<polygon fill="midnightblue" stroke="midnightblue" points="1095.96,-116.63 1106.46,-117.98 1099.09,-110.37 1095.96,-116.63"/>
</g>
<!-- Node16&#45;&gt;Node3 -->
<g id="edge25" class="edge">
<title>Node16&#45;&gt;Node3</title>
<path fill="none" stroke="midnightblue" d="M187.02,-169.28C187.32,-150.62 191.15,-125.76 207.51,-112 235.58,-88.41 761.89,-73.07 943.5,-68.46"/>
<polygon fill="midnightblue" stroke="midnightblue" points="183.53,-169.48 187.19,-179.42 190.52,-169.36 183.53,-169.48"/>
</g>
<!-- Node17 -->
<g id="node17" class="node">
<title>Node17</title>
<g id="a_node17"><a xlink:href="historical__transaction__fetcher_8h.html" target="_top" xlink:title=" ">
<polygon fill="white" stroke="black" points="217.01,-112.5 217.01,-142.5 342.01,-142.5 342.01,-112.5 217.01,-112.5"/>
<text text-anchor="start" x="225.01" y="-130.5" font-family="Helvetica,sans-Serif" font-size="10.00">src/indexing/historical</text>
<text text-anchor="middle" x="279.51" y="-119.5" font-family="Helvetica,sans-Serif" font-size="10.00">_transaction_fetcher.h</text>
</a>
</g>
</g>
<!-- Node16&#45;&gt;Node17 -->
<g id="edge26" class="edge">
<title>Node16&#45;&gt;Node17</title>
<path fill="none" stroke="midnightblue" d="M216.58,-173.45C230.58,-163.45 247.18,-151.6 259.81,-142.58"/>
<polygon fill="midnightblue" stroke="midnightblue" points="214.36,-170.74 208.26,-179.4 218.43,-176.43 214.36,-170.74"/>
</g>
<!-- Node17&#45;&gt;Node3 -->
<g id="edge27" class="edge">
<title>Node17&#45;&gt;Node3</title>
<path fill="none" stroke="midnightblue" d="M352.05,-112.6C353.55,-112.39 355.04,-112.19 356.51,-112 570.99,-84.45 827.72,-72.93 943.08,-68.88"/>
<polygon fill="midnightblue" stroke="midnightblue" points="351.41,-109.16 342.03,-114.09 352.44,-116.08 351.41,-109.16"/>
</g>
<!-- Node18&#45;&gt;Node3 -->
<g id="edge30" class="edge">
<title>Node18&#45;&gt;Node3</title>
<path fill="none" stroke="midnightblue" d="M962.68,-312.79C1057.98,-302.51 1196.55,-286.12 1204.51,-277 1252.75,-221.76 1250.33,-169.26 1204.51,-112 1187.31,-90.5 1117.82,-78.55 1065.55,-72.46"/>
<polygon fill="midnightblue" stroke="midnightblue" points="962.3,-309.31 952.73,-313.86 963.05,-316.27 962.3,-309.31"/>
</g>
<!-- Node19 -->
<g id="node19" class="node">
<title>Node19</title>
<g id="a_node19"><a xlink:href="jwt__key__auto__refresh_8h.html" target="_top" xlink:title=" ">
<polygon fill="white" stroke="black" points="1070.01,-246.5 1070.01,-276.5 1195.01,-276.5 1195.01,-246.5 1070.01,-246.5"/>
<text text-anchor="start" x="1078.01" y="-264.5" font-family="Helvetica,sans-Serif" font-size="10.00">src/node/jwt_key_auto</text>
<text text-anchor="middle" x="1132.51" y="-253.5" font-family="Helvetica,sans-Serif" font-size="10.00">_refresh.h</text>
</a>
</g>
</g>
<!-- Node18&#45;&gt;Node19 -->
<g id="edge31" class="edge">
<title>Node18&#45;&gt;Node19</title>
<path fill="none" stroke="midnightblue" d="M920.39,-311.23C962.72,-301.51 1025.26,-287.14 1071.47,-276.52"/>
<polygon fill="midnightblue" stroke="midnightblue" points="919.59,-307.82 910.62,-313.48 921.15,-314.65 919.59,-307.82"/>
</g>
<!-- Node19&#45;&gt;Node14 -->
<g id="edge32" class="edge">
<title>Node19&#45;&gt;Node14</title>
<path fill="none" stroke="midnightblue" d="M1123.82,-236.94C1119.61,-225.54 1114.81,-212.55 1111.72,-204.19"/>
<polygon fill="midnightblue" stroke="midnightblue" points="1120.56,-238.23 1127.31,-246.4 1127.13,-235.8 1120.56,-238.23"/>
</g>
<!-- Node20&#45;&gt;Node3 -->
<g id="edge34" class="edge">
<title>Node20&#45;&gt;Node3</title>
<path fill="none" stroke="midnightblue" d="M1135.65,-311.9C1178.51,-304.81 1224.49,-293.58 1237.51,-277 1282.83,-219.34 1284.19,-168.56 1237.51,-112 1216.11,-86.06 1127.25,-74.91 1065.68,-70.23"/>
<polygon fill="midnightblue" stroke="midnightblue" points="1135.03,-308.46 1125.71,-313.49 1136.14,-315.37 1135.03,-308.46"/>
</g>
</g>
</svg>
