<?xml version="1.0" encoding="UTF-8" standalone="no"?>
<!DOCTYPE svg PUBLIC "-//W3C//DTD SVG 1.1//EN"
 "http://www.w3.org/Graphics/SVG/1.1/DTD/svg11.dtd">
<!-- Generated by graphviz version 2.43.0 (0)
 -->
<!-- Title: include/ccf/node_context.h Pages: 1 -->
<!--zoomable 520 -->
<svg id="main" version="1.1" xmlns="http://www.w3.org/2000/svg" xmlns:xlink="http://www.w3.org/1999/xlink" xml:space="preserve" onload="init(evt)">
<style type="text/css"><![CDATA[
.edge:hover path { stroke: red; }
.edge:hover polygon { stroke: red; fill: red; }
]]></style>
<script type="text/javascript"><![CDATA[
var edges = document.getElementsByTagName('g');
if (edges && edges.length) {
  for (var i=0;i<edges.length;i++) {
    if (edges[i].id.substr(0,4)=='edge') {
      edges[i].setAttribute('class','edge');
    }
  }
}
]]></script>
        <defs>
                <circle id="rim" cx="0" cy="0" r="7"/>
                <circle id="rim2" cx="0" cy="0" r="3.5"/>
                <g id="zoomPlus">
                        <use xlink:href="#rim" fill="#404040">
                                <set attributeName="fill" to="#808080" begin="zoomplus.mouseover" end="zoomplus.mouseout"/>
                        </use>
                        <path d="M-4,0h8M0,-4v8" fill="none" stroke="white" stroke-width="1.5" pointer-events="none"/>
                </g>
                <g id="zoomMin">
                        <use xlink:href="#rim" fill="#404040">
                                <set attributeName="fill" to="#808080" begin="zoomminus.mouseover" end="zoomminus.mouseout"/>
                        </use>
                        <path d="M-4,0h8" fill="none" stroke="white" stroke-width="1.5" pointer-events="none"/>
                </g>
                <g id="dirArrow">
                        <path fill="none" stroke="white" stroke-width="1.5" d="M0,-3.0v7 M-2.5,-0.5L0,-3.0L2.5,-0.5"/>
                </g>
               <g id="resetDef">
                       <use xlink:href="#rim2" fill="#404040">
                               <set attributeName="fill" to="#808080" begin="reset.mouseover" end="reset.mouseout"/>
                       </use>
               </g>
        </defs>

<script type="text/javascript">
var viewWidth = 1291;
var viewHeight = 520;
var sectionId = 'dynsection-0';
</script>
<script xlink:href="svgpan.js"/>
<svg id="graph" class="graph">
<g id="viewport">
<title>include/ccf/node_context.h</title>
<polygon fill="white" stroke="transparent" points="-4,4 -4,-516 1286.5,-516 1286.5,4 -4,4"/>
<!-- Node1 -->
<g id="node1" class="node">
<title>Node1</title>
<g id="a_node1"><a xlink:title=" ">
<polygon fill="#bfbfbf" stroke="black" points="861,-492.5 861,-511.5 1008,-511.5 1008,-492.5 861,-492.5"/>
<text text-anchor="middle" x="934.5" y="-499.5" font-family="Helvetica,sans-Serif" font-size="10.00">include/ccf/node_context.h</text>
</a>
</g>
</g>
<!-- Node2 -->
<g id="node2" class="node">
<title>Node2</title>
<g id="a_node2"><a xlink:href="historical__queries__interface_8h.html" target="_top" xlink:title=" ">
<polygon fill="white" stroke="black" points="709.5,-425.5 709.5,-455.5 829.5,-455.5 829.5,-425.5 709.5,-425.5"/>
<text text-anchor="start" x="717.5" y="-443.5" font-family="Helvetica,sans-Serif" font-size="10.00">ccf/historical_queries</text>
<text text-anchor="middle" x="769.5" y="-432.5" font-family="Helvetica,sans-Serif" font-size="10.00">_interface.h</text>
</a>
</g>
</g>
<!-- Node1&#45;&gt;Node2 -->
<g id="edge1" class="edge">
<title>Node1&#45;&gt;Node2</title>
<path fill="none" stroke="midnightblue" d="M910.86,-492.48C886.74,-483.78 848.61,-470.03 818.02,-459"/>
<polygon fill="midnightblue" stroke="midnightblue" points="818.98,-455.62 808.39,-455.52 816.61,-462.21 818.98,-455.62"/>
</g>
<!-- Node3 -->
<g id="node3" class="node">
<title>Node3</title>
<g id="a_node3"><a xlink:href="node__subsystem__interface_8h.html" target="_top" xlink:title=" ">
<polygon fill="white" stroke="black" points="876.5,-358.5 876.5,-388.5 992.5,-388.5 992.5,-358.5 876.5,-358.5"/>
<text text-anchor="start" x="884.5" y="-376.5" font-family="Helvetica,sans-Serif" font-size="10.00">ccf/node_subsystem</text>
<text text-anchor="middle" x="934.5" y="-365.5" font-family="Helvetica,sans-Serif" font-size="10.00">_interface.h</text>
</a>
</g>
</g>
<!-- Node1&#45;&gt;Node3 -->
<g id="edge63" class="edge">
<title>Node1&#45;&gt;Node3</title>
<path fill="none" stroke="midnightblue" d="M934.5,-492.31C934.5,-473.3 934.5,-427.47 934.5,-398.9"/>
<polygon fill="midnightblue" stroke="midnightblue" points="938,-398.89 934.5,-388.89 931,-398.89 938,-398.89"/>
</g>
<!-- Node36 -->
<g id="node36" class="node">
<title>Node36</title>
<g id="a_node36"><a xlink:href="indexer__interface_8h.html" target="_top" xlink:title=" ">
<polygon fill="white" stroke="black" points="1018,-425.5 1018,-455.5 1133,-455.5 1133,-425.5 1018,-425.5"/>
<text text-anchor="start" x="1026" y="-443.5" font-family="Helvetica,sans-Serif" font-size="10.00">ccf/indexing/indexer</text>
<text text-anchor="middle" x="1075.5" y="-432.5" font-family="Helvetica,sans-Serif" font-size="10.00">_interface.h</text>
</a>
</g>
</g>
<!-- Node1&#45;&gt;Node36 -->
<g id="edge53" class="edge">
<title>Node1&#45;&gt;Node36</title>
<path fill="none" stroke="midnightblue" d="M954.7,-492.48C975.05,-483.89 1007.06,-470.38 1033.01,-459.43"/>
<polygon fill="midnightblue" stroke="midnightblue" points="1034.42,-462.64 1042.27,-455.52 1031.7,-456.19 1034.42,-462.64"/>
</g>
<!-- Node2&#45;&gt;Node3 -->
<g id="edge2" class="edge">
<title>Node2&#45;&gt;Node3</title>
<path fill="none" stroke="midnightblue" d="M805.3,-425.4C829.95,-415.69 862.89,-402.71 889.34,-392.29"/>
<polygon fill="midnightblue" stroke="midnightblue" points="890.75,-395.5 898.77,-388.58 888.18,-388.99 890.75,-395.5"/>
</g>
<!-- Node4 -->
<g id="node4" class="node">
<title>Node4</title>
<g id="a_node4"><a xlink:href="include_2ccf_2receipt_8h.html" target="_top" xlink:title=" ">
<polygon fill="white" stroke="black" points="637,-364 637,-383 714,-383 714,-364 637,-364"/>
<text text-anchor="middle" x="675.5" y="-371" font-family="Helvetica,sans-Serif" font-size="10.00">ccf/receipt.h</text>
</a>
</g>
</g>
<!-- Node2&#45;&gt;Node4 -->
<g id="edge3" class="edge">
<title>Node2&#45;&gt;Node4</title>
<path fill="none" stroke="midnightblue" d="M749.1,-425.4C733.49,-414.6 712.02,-399.76 696.31,-388.89"/>
<polygon fill="midnightblue" stroke="midnightblue" points="698.02,-385.82 687.8,-383.01 694.04,-391.57 698.02,-385.82"/>
</g>
<!-- Node27 -->
<g id="node27" class="node">
<title>Node27</title>
<g id="a_node27"><a xlink:href="seq__no__collection_8h.html" target="_top" xlink:title=" ">
<polygon fill="white" stroke="black" points="450.5,-364 450.5,-383 580.5,-383 580.5,-364 450.5,-364"/>
<text text-anchor="middle" x="515.5" y="-371" font-family="Helvetica,sans-Serif" font-size="10.00">ccf/seq_no_collection.h</text>
</a>
</g>
</g>
<!-- Node2&#45;&gt;Node27 -->
<g id="edge34" class="edge">
<title>Node2&#45;&gt;Node27</title>
<path fill="none" stroke="midnightblue" d="M714.7,-425.48C667.98,-413.52 601.75,-396.57 558.71,-385.56"/>
<polygon fill="midnightblue" stroke="midnightblue" points="559.38,-382.12 548.83,-383.03 557.65,-388.9 559.38,-382.12"/>
</g>
<!-- Node30 -->
<g id="node30" class="node">
<title>Node30</title>
<g id="a_node30"><a xlink:href="tx__id_8h.html" target="_top" xlink:title=" ">
<polygon fill="white" stroke="black" points="500,-302.5 500,-321.5 567,-321.5 567,-302.5 500,-302.5"/>
<text text-anchor="middle" x="533.5" y="-309.5" font-family="Helvetica,sans-Serif" font-size="10.00">ccf/tx_id.h</text>
</a>
</g>
</g>
<!-- Node2&#45;&gt;Node30 -->
<g id="edge50" class="edge">
<title>Node2&#45;&gt;Node30</title>
<path fill="none" stroke="midnightblue" d="M716.71,-425.46C689.14,-416.97 655.43,-404.73 627.5,-389 608.51,-378.3 606.44,-371.72 589.5,-358 577.11,-347.97 563.13,-336.73 552.24,-328"/>
<polygon fill="midnightblue" stroke="midnightblue" points="554.25,-325.13 544.25,-321.6 549.87,-330.59 554.25,-325.13"/>
</g>
<!-- Node33 -->
<g id="node33" class="node">
<title>Node33</title>
<g id="a_node33"><a xlink:href="store__ptr_8h.html" target="_top" xlink:title=" ">
<polygon fill="white" stroke="black" points="863.5,-302.5 863.5,-321.5 949.5,-321.5 949.5,-302.5 863.5,-302.5"/>
<text text-anchor="middle" x="906.5" y="-309.5" font-family="Helvetica,sans-Serif" font-size="10.00">ccf/store_ptr.h</text>
</a>
</g>
</g>
<!-- Node2&#45;&gt;Node33 -->
<g id="edge48" class="edge">
<title>Node2&#45;&gt;Node33</title>
<path fill="none" stroke="midnightblue" d="M762.8,-425.29C755.59,-407.71 747,-377.69 761.5,-358 782.38,-329.66 820.93,-318.64 853.04,-314.59"/>
<polygon fill="midnightblue" stroke="midnightblue" points="853.64,-318.04 863.21,-313.5 852.89,-311.08 853.64,-318.04"/>
</g>
<!-- Node34 -->
<g id="node34" class="node">
<title>Node34</title>
<g id="a_node34"><a xlink:title=" ">
<polygon fill="white" stroke="#bfbfbf" points="966.5,-241 966.5,-260 1024.5,-260 1024.5,-241 966.5,-241"/>
<text text-anchor="middle" x="995.5" y="-248" font-family="Helvetica,sans-Serif" font-size="10.00">memory</text>
</a>
</g>
</g>
<!-- Node2&#45;&gt;Node34 -->
<g id="edge52" class="edge">
<title>Node2&#45;&gt;Node34</title>
<path fill="none" stroke="midnightblue" d="M786.48,-425.14C813.35,-402.46 863.07,-360.62 867.5,-358 904.91,-335.82 926.15,-351.07 958.5,-322 974.2,-307.89 984.34,-285.52 989.96,-269.77"/>
<polygon fill="midnightblue" stroke="midnightblue" points="993.34,-270.7 993.15,-260.1 986.69,-268.51 993.34,-270.7"/>
</g>
<!-- Node35 -->
<g id="node35" class="node">
<title>Node35</title>
<g id="a_node35"><a xlink:title=" ">
<polygon fill="white" stroke="#bfbfbf" points="770.5,-364 770.5,-383 820.5,-383 820.5,-364 770.5,-364"/>
<text text-anchor="middle" x="795.5" y="-371" font-family="Helvetica,sans-Serif" font-size="10.00">chrono</text>
</a>
</g>
</g>
<!-- Node2&#45;&gt;Node35 -->
<g id="edge51" class="edge">
<title>Node2&#45;&gt;Node35</title>
<path fill="none" stroke="midnightblue" d="M775.14,-425.4C778.99,-415.76 784.13,-402.91 788.29,-392.54"/>
<polygon fill="midnightblue" stroke="midnightblue" points="791.56,-393.78 792.02,-383.19 785.06,-391.18 791.56,-393.78"/>
</g>
<!-- Node5 -->
<g id="node5" class="node">
<title>Node5</title>
<g id="a_node5"><a xlink:href="json_8h.html" target="_top" xlink:title=" ">
<polygon fill="white" stroke="black" points="639,-241 639,-260 716,-260 716,-241 639,-241"/>
<text text-anchor="middle" x="677.5" y="-248" font-family="Helvetica,sans-Serif" font-size="10.00">ccf/ds/json.h</text>
</a>
</g>
</g>
<!-- Node4&#45;&gt;Node5 -->
<g id="edge4" class="edge">
<title>Node4&#45;&gt;Node5</title>
<path fill="none" stroke="midnightblue" d="M675.64,-363.8C675.97,-344.35 676.75,-296.99 677.19,-270.4"/>
<polygon fill="midnightblue" stroke="midnightblue" points="680.69,-270.18 677.36,-260.12 673.69,-270.06 680.69,-270.18"/>
</g>
<!-- Node19 -->
<g id="node19" class="node">
<title>Node19</title>
<g id="a_node19"><a xlink:href="entity__id_8h.html" target="_top" xlink:title=" ">
<polygon fill="white" stroke="black" points="703.5,-302.5 703.5,-321.5 789.5,-321.5 789.5,-302.5 703.5,-302.5"/>
<text text-anchor="middle" x="746.5" y="-309.5" font-family="Helvetica,sans-Serif" font-size="10.00">ccf/entity_id.h</text>
</a>
</g>
</g>
<!-- Node4&#45;&gt;Node19 -->
<g id="edge21" class="edge">
<title>Node4&#45;&gt;Node19</title>
<path fill="none" stroke="midnightblue" d="M685.67,-363.98C696.85,-354.61 715.02,-339.38 728.59,-328.01"/>
<polygon fill="midnightblue" stroke="midnightblue" points="730.93,-330.61 736.35,-321.51 726.43,-325.25 730.93,-330.61"/>
</g>
<!-- Node6 -->
<g id="node6" class="node">
<title>Node6</title>
<g id="a_node6"><a xlink:href="include_2ccf_2crypto_2base64_8h.html" target="_top" xlink:title=" ">
<polygon fill="white" stroke="black" points="590.5,-112.5 590.5,-131.5 702.5,-131.5 702.5,-112.5 590.5,-112.5"/>
<text text-anchor="middle" x="646.5" y="-119.5" font-family="Helvetica,sans-Serif" font-size="10.00">ccf/crypto/base64.h</text>
</a>
</g>
</g>
<!-- Node5&#45;&gt;Node6 -->
<g id="edge5" class="edge">
<title>Node5&#45;&gt;Node6</title>
<path fill="none" stroke="midnightblue" d="M675.37,-240.81C670.39,-220.49 657.91,-169.55 651.1,-141.78"/>
<polygon fill="midnightblue" stroke="midnightblue" points="654.43,-140.64 648.65,-131.76 647.63,-142.3 654.43,-140.64"/>
</g>
<!-- Node9 -->
<g id="node9" class="node">
<title>Node9</title>
<g id="a_node9"><a xlink:href="include_2ccf_2ds_2json__schema_8h.html" target="_top" xlink:title=" ">
<polygon fill="white" stroke="black" points="430,-174 430,-193 551,-193 551,-174 430,-174"/>
<text text-anchor="middle" x="490.5" y="-181" font-family="Helvetica,sans-Serif" font-size="10.00">ccf/ds/json_schema.h</text>
</a>
</g>
</g>
<!-- Node5&#45;&gt;Node9 -->
<g id="edge8" class="edge">
<title>Node5&#45;&gt;Node9</title>
<path fill="none" stroke="midnightblue" d="M652.67,-240.87C619.88,-229.47 562,-209.35 524.99,-196.49"/>
<polygon fill="midnightblue" stroke="midnightblue" points="525.73,-193.04 515.14,-193.06 523.43,-199.65 525.73,-193.04"/>
</g>
<!-- Node16 -->
<g id="node16" class="node">
<title>Node16</title>
<g id="a_node16"><a xlink:title=" ">
<polygon fill="white" stroke="#bfbfbf" points="188,-56.5 188,-75.5 267,-75.5 267,-56.5 188,-56.5"/>
<text text-anchor="middle" x="227.5" y="-63.5" font-family="Helvetica,sans-Serif" font-size="10.00">fmt/format.h</text>
</a>
</g>
</g>
<!-- Node5&#45;&gt;Node16 -->
<g id="edge19" class="edge">
<title>Node5&#45;&gt;Node16</title>
<path fill="none" stroke="midnightblue" d="M638.73,-243.54C577.14,-233.8 459.9,-214.04 420.5,-199 365.95,-178.18 355.4,-165.39 307.5,-132 285.2,-116.46 261.21,-96.48 245.37,-82.8"/>
<polygon fill="midnightblue" stroke="midnightblue" points="247.32,-79.85 237.48,-75.91 242.71,-85.13 247.32,-79.85"/>
</g>
<!-- Node18 -->
<g id="node18" class="node">
<title>Node18</title>
<g id="a_node18"><a xlink:title=" ">
<polygon fill="white" stroke="#bfbfbf" points="682.5,-174 682.5,-193 738.5,-193 738.5,-174 682.5,-174"/>
<text text-anchor="middle" x="710.5" y="-181" font-family="Helvetica,sans-Serif" font-size="10.00">sstream</text>
</a>
</g>
</g>
<!-- Node5&#45;&gt;Node18 -->
<g id="edge20" class="edge">
<title>Node5&#45;&gt;Node18</title>
<path fill="none" stroke="midnightblue" d="M681.95,-240.73C686.95,-230.89 695.19,-214.66 701.53,-202.16"/>
<polygon fill="midnightblue" stroke="midnightblue" points="704.71,-203.63 706.12,-193.13 698.47,-200.46 704.71,-203.63"/>
</g>
<!-- Node7 -->
<g id="node7" class="node">
<title>Node7</title>
<g id="a_node7"><a xlink:title=" ">
<polygon fill="white" stroke="#bfbfbf" points="749.5,-56.5 749.5,-75.5 793.5,-75.5 793.5,-56.5 749.5,-56.5"/>
<text text-anchor="middle" x="771.5" y="-63.5" font-family="Helvetica,sans-Serif" font-size="10.00">string</text>
</a>
</g>
</g>
<!-- Node6&#45;&gt;Node7 -->
<g id="edge6" class="edge">
<title>Node6&#45;&gt;Node7</title>
<path fill="none" stroke="midnightblue" d="M666.31,-112.44C686.79,-103.6 718.98,-89.69 742.36,-79.59"/>
<polygon fill="midnightblue" stroke="midnightblue" points="743.99,-82.7 751.79,-75.52 741.22,-76.27 743.99,-82.7"/>
</g>
<!-- Node8 -->
<g id="node8" class="node">
<title>Node8</title>
<g id="a_node8"><a xlink:title=" ">
<polygon fill="white" stroke="#bfbfbf" points="531,-0.5 531,-19.5 578,-19.5 578,-0.5 531,-0.5"/>
<text text-anchor="middle" x="554.5" y="-7.5" font-family="Helvetica,sans-Serif" font-size="10.00">vector</text>
</a>
</g>
</g>
<!-- Node6&#45;&gt;Node8 -->
<g id="edge7" class="edge">
<title>Node6&#45;&gt;Node8</title>
<path fill="none" stroke="midnightblue" d="M663.69,-112.3C685.42,-100.15 718.2,-77.18 702.5,-56 676.41,-20.8 623.48,-12.19 588.5,-10.57"/>
<polygon fill="midnightblue" stroke="midnightblue" points="588.37,-7.07 578.28,-10.27 588.17,-14.07 588.37,-7.07"/>
</g>
<!-- Node10 -->
<g id="node10" class="node">
<title>Node10</title>
<g id="a_node10"><a xlink:href="nonstd_8h.html" target="_top" xlink:title=" ">
<polygon fill="white" stroke="black" points="482.5,-112.5 482.5,-131.5 572.5,-131.5 572.5,-112.5 482.5,-112.5"/>
<text text-anchor="middle" x="527.5" y="-119.5" font-family="Helvetica,sans-Serif" font-size="10.00">ccf/ds/nonstd.h</text>
</a>
</g>
</g>
<!-- Node9&#45;&gt;Node10 -->
<g id="edge9" class="edge">
<title>Node9&#45;&gt;Node10</title>
<path fill="none" stroke="midnightblue" d="M495.8,-173.98C501.24,-165.23 509.86,-151.37 516.74,-140.31"/>
<polygon fill="midnightblue" stroke="midnightblue" points="519.9,-141.85 522.21,-131.51 513.96,-138.15 519.9,-141.85"/>
</g>
<!-- Node9&#45;&gt;Node16 -->
<g id="edge17" class="edge">
<title>Node9&#45;&gt;Node16</title>
<path fill="none" stroke="midnightblue" d="M486.4,-173.99C478.68,-158.92 460.48,-127.68 435.5,-112 428.75,-107.76 336.64,-88.8 277.28,-76.88"/>
<polygon fill="midnightblue" stroke="midnightblue" points="277.82,-73.42 267.33,-74.89 276.44,-80.29 277.82,-73.42"/>
</g>
<!-- Node17 -->
<g id="node17" class="node">
<title>Node17</title>
<g id="a_node17"><a xlink:title=" ">
<polygon fill="white" stroke="#bfbfbf" points="316.5,-112.5 316.5,-131.5 426.5,-131.5 426.5,-112.5 316.5,-112.5"/>
<text text-anchor="middle" x="371.5" y="-119.5" font-family="Helvetica,sans-Serif" font-size="10.00">nlohmann/json.hpp</text>
</a>
</g>
</g>
<!-- Node9&#45;&gt;Node17 -->
<g id="edge18" class="edge">
<title>Node9&#45;&gt;Node17</title>
<path fill="none" stroke="midnightblue" d="M473.45,-173.98C453.66,-164.08 420.78,-147.64 397.73,-136.12"/>
<polygon fill="midnightblue" stroke="midnightblue" points="399.03,-132.85 388.52,-131.51 395.9,-139.11 399.03,-132.85"/>
</g>
<!-- Node10&#45;&gt;Node7 -->
<g id="edge13" class="edge">
<title>Node10&#45;&gt;Node7</title>
<path fill="none" stroke="midnightblue" d="M566.16,-112.44C614.06,-101.84 694.78,-83.98 739.41,-74.1"/>
<polygon fill="midnightblue" stroke="midnightblue" points="740.41,-77.47 749.42,-71.89 738.9,-70.63 740.41,-77.47"/>
</g>
<!-- Node10&#45;&gt;Node8 -->
<g id="edge16" class="edge">
<title>Node10&#45;&gt;Node8</title>
<path fill="none" stroke="midnightblue" d="M482.46,-114.09C438.7,-105.39 382.03,-87.6 405.5,-56 431.85,-20.51 485.36,-12 520.57,-10.48"/>
<polygon fill="midnightblue" stroke="midnightblue" points="520.95,-13.98 530.85,-10.22 520.76,-6.98 520.95,-13.98"/>
</g>
<!-- Node11 -->
<g id="node11" class="node">
<title>Node11</title>
<g id="a_node11"><a xlink:title=" ">
<polygon fill="white" stroke="#bfbfbf" points="569.5,-56.5 569.5,-75.5 633.5,-75.5 633.5,-56.5 569.5,-56.5"/>
<text text-anchor="middle" x="601.5" y="-63.5" font-family="Helvetica,sans-Serif" font-size="10.00">algorithm</text>
</a>
</g>
</g>
<!-- Node10&#45;&gt;Node11 -->
<g id="edge10" class="edge">
<title>Node10&#45;&gt;Node11</title>
<path fill="none" stroke="midnightblue" d="M539.39,-112.32C550.65,-104.11 567.79,-91.6 581.21,-81.81"/>
<polygon fill="midnightblue" stroke="midnightblue" points="583.38,-84.56 589.39,-75.83 579.25,-78.9 583.38,-84.56"/>
</g>
<!-- Node12 -->
<g id="node12" class="node">
<title>Node12</title>
<g id="a_node12"><a xlink:title=" ">
<polygon fill="white" stroke="#bfbfbf" points="651.5,-56.5 651.5,-75.5 693.5,-75.5 693.5,-56.5 651.5,-56.5"/>
<text text-anchor="middle" x="672.5" y="-63.5" font-family="Helvetica,sans-Serif" font-size="10.00">array</text>
</a>
</g>
</g>
<!-- Node10&#45;&gt;Node12 -->
<g id="edge11" class="edge">
<title>Node10&#45;&gt;Node12</title>
<path fill="none" stroke="midnightblue" d="M550.48,-112.44C575.08,-103.28 614.27,-88.68 641.58,-78.52"/>
<polygon fill="midnightblue" stroke="midnightblue" points="642.9,-81.76 651.05,-74.99 640.46,-75.2 642.9,-81.76"/>
</g>
<!-- Node13 -->
<g id="node13" class="node">
<title>Node13</title>
<g id="a_node13"><a xlink:title=" ">
<polygon fill="white" stroke="#bfbfbf" points="415,-56.5 415,-75.5 464,-75.5 464,-56.5 415,-56.5"/>
<text text-anchor="middle" x="439.5" y="-63.5" font-family="Helvetica,sans-Serif" font-size="10.00">cctype</text>
</a>
</g>
</g>
<!-- Node10&#45;&gt;Node13 -->
<g id="edge12" class="edge">
<title>Node10&#45;&gt;Node13</title>
<path fill="none" stroke="midnightblue" d="M513.36,-112.32C499.63,-103.9 478.56,-90.97 462.44,-81.07"/>
<polygon fill="midnightblue" stroke="midnightblue" points="463.96,-77.9 453.6,-75.65 460.3,-83.87 463.96,-77.9"/>
</g>
<!-- Node14 -->
<g id="node14" class="node">
<title>Node14</title>
<g id="a_node14"><a xlink:title=" ">
<polygon fill="white" stroke="#bfbfbf" points="285,-56.5 285,-75.5 358,-75.5 358,-56.5 285,-56.5"/>
<text text-anchor="middle" x="321.5" y="-63.5" font-family="Helvetica,sans-Serif" font-size="10.00">string_view</text>
</a>
</g>
</g>
<!-- Node10&#45;&gt;Node14 -->
<g id="edge14" class="edge">
<title>Node10&#45;&gt;Node14</title>
<path fill="none" stroke="midnightblue" d="M494.86,-112.44C459.45,-103.16 402.79,-88.31 363.95,-78.13"/>
<polygon fill="midnightblue" stroke="midnightblue" points="364.55,-74.67 353.99,-75.52 362.77,-81.44 364.55,-74.67"/>
</g>
<!-- Node15 -->
<g id="node15" class="node">
<title>Node15</title>
<g id="a_node15"><a xlink:title=" ">
<polygon fill="white" stroke="#bfbfbf" points="482,-56.5 482,-75.5 551,-75.5 551,-56.5 482,-56.5"/>
<text text-anchor="middle" x="516.5" y="-63.5" font-family="Helvetica,sans-Serif" font-size="10.00">type_traits</text>
</a>
</g>
</g>
<!-- Node10&#45;&gt;Node15 -->
<g id="edge15" class="edge">
<title>Node10&#45;&gt;Node15</title>
<path fill="none" stroke="midnightblue" d="M525.68,-112.08C524.23,-104.93 522.13,-94.64 520.31,-85.69"/>
<polygon fill="midnightblue" stroke="midnightblue" points="523.71,-84.85 518.28,-75.75 516.85,-86.25 523.71,-84.85"/>
</g>
<!-- Node19&#45;&gt;Node5 -->
<g id="edge22" class="edge">
<title>Node19&#45;&gt;Node5</title>
<path fill="none" stroke="midnightblue" d="M736.61,-302.48C725.85,-293.2 708.43,-278.17 695.28,-266.83"/>
<polygon fill="midnightblue" stroke="midnightblue" points="697.23,-263.89 687.37,-260.01 692.66,-269.19 697.23,-263.89"/>
</g>
<!-- Node19&#45;&gt;Node7 -->
<g id="edge33" class="edge">
<title>Node19&#45;&gt;Node7</title>
<path fill="none" stroke="midnightblue" d="M747.39,-302.32C750.99,-267.18 764.52,-135.12 769.58,-85.76"/>
<polygon fill="midnightblue" stroke="midnightblue" points="773.08,-85.88 770.62,-75.58 766.12,-85.17 773.08,-85.88"/>
</g>
<!-- Node20 -->
<g id="node20" class="node">
<title>Node20</title>
<g id="a_node20"><a xlink:href="blit__serialiser_8h.html" target="_top" xlink:title=" ">
<polygon fill="white" stroke="black" points="775,-235.5 775,-265.5 874,-265.5 874,-235.5 775,-235.5"/>
<text text-anchor="start" x="783" y="-253.5" font-family="Helvetica,sans-Serif" font-size="10.00">ccf/kv/serialisers</text>
<text text-anchor="middle" x="824.5" y="-242.5" font-family="Helvetica,sans-Serif" font-size="10.00">/blit_serialiser.h</text>
</a>
</g>
</g>
<!-- Node19&#45;&gt;Node20 -->
<g id="edge23" class="edge">
<title>Node19&#45;&gt;Node20</title>
<path fill="none" stroke="midnightblue" d="M757.68,-302.48C768.14,-294.49 784.18,-282.25 797.93,-271.77"/>
<polygon fill="midnightblue" stroke="midnightblue" points="800.29,-274.37 806.12,-265.52 796.04,-268.81 800.29,-274.37"/>
</g>
<!-- Node20&#45;&gt;Node10 -->
<g id="edge24" class="edge">
<title>Node20&#45;&gt;Node10</title>
<path fill="none" stroke="midnightblue" d="M815.41,-235.48C802.61,-216.93 777.44,-184.66 747.5,-168 733.21,-160.05 643.14,-143.19 582.77,-132.51"/>
<polygon fill="midnightblue" stroke="midnightblue" points="583.06,-129.01 572.61,-130.73 581.85,-135.91 583.06,-129.01"/>
</g>
<!-- Node21 -->
<g id="node21" class="node">
<title>Node21</title>
<g id="a_node21"><a xlink:href="serialised__entry_8h.html" target="_top" xlink:title=" ">
<polygon fill="white" stroke="black" points="833,-168.5 833,-198.5 938,-198.5 938,-168.5 833,-168.5"/>
<text text-anchor="start" x="841" y="-186.5" font-family="Helvetica,sans-Serif" font-size="10.00">ccf/kv/serialisers</text>
<text text-anchor="middle" x="885.5" y="-175.5" font-family="Helvetica,sans-Serif" font-size="10.00">/serialised_entry.h</text>
</a>
</g>
</g>
<!-- Node20&#45;&gt;Node21 -->
<g id="edge25" class="edge">
<title>Node20&#45;&gt;Node21</title>
<path fill="none" stroke="midnightblue" d="M837.74,-235.4C845.81,-226.79 856.29,-215.63 865.37,-205.94"/>
<polygon fill="midnightblue" stroke="midnightblue" points="868,-208.26 872.29,-198.58 862.89,-203.47 868,-208.26"/>
</g>
<!-- Node22 -->
<g id="node22" class="node">
<title>Node22</title>
<g id="a_node22"><a xlink:href="byte__vector_8h.html" target="_top" xlink:title=" ">
<polygon fill="white" stroke="black" points="835.5,-112.5 835.5,-131.5 935.5,-131.5 935.5,-112.5 835.5,-112.5"/>
<text text-anchor="middle" x="885.5" y="-119.5" font-family="Helvetica,sans-Serif" font-size="10.00">ccf/byte_vector.h</text>
</a>
</g>
</g>
<!-- Node21&#45;&gt;Node22 -->
<g id="edge26" class="edge">
<title>Node21&#45;&gt;Node22</title>
<path fill="none" stroke="midnightblue" d="M885.5,-168.4C885.5,-160.47 885.5,-150.46 885.5,-141.86"/>
<polygon fill="midnightblue" stroke="midnightblue" points="889,-141.66 885.5,-131.66 882,-141.66 889,-141.66"/>
</g>
<!-- Node22&#45;&gt;Node16 -->
<g id="edge31" class="edge">
<title>Node22&#45;&gt;Node16</title>
<path fill="none" stroke="midnightblue" d="M835.37,-118.03C713.1,-110.66 401.12,-91.16 277.25,-76.07"/>
<polygon fill="midnightblue" stroke="midnightblue" points="277.62,-72.59 267.26,-74.81 276.74,-79.53 277.62,-72.59"/>
</g>
<!-- Node23 -->
<g id="node23" class="node">
<title>Node23</title>
<g id="a_node23"><a xlink:href="siphash_8h.html" target="_top" xlink:title=" ">
<polygon fill="white" stroke="black" points="978,-56.5 978,-75.5 1073,-75.5 1073,-56.5 978,-56.5"/>
<text text-anchor="middle" x="1025.5" y="-63.5" font-family="Helvetica,sans-Serif" font-size="10.00">ccf/ds/siphash.h</text>
</a>
</g>
</g>
<!-- Node22&#45;&gt;Node23 -->
<g id="edge27" class="edge">
<title>Node22&#45;&gt;Node23</title>
<path fill="none" stroke="midnightblue" d="M907.68,-112.44C930.93,-103.48 967.65,-89.31 993.92,-79.18"/>
<polygon fill="midnightblue" stroke="midnightblue" points="995.35,-82.38 1003.42,-75.52 992.83,-75.85 995.35,-82.38"/>
</g>
<!-- Node26 -->
<g id="node26" class="node">
<title>Node26</title>
<g id="a_node26"><a xlink:title=" ">
<polygon fill="white" stroke="#bfbfbf" points="811,-56.5 811,-75.5 960,-75.5 960,-56.5 811,-56.5"/>
<text text-anchor="middle" x="885.5" y="-63.5" font-family="Helvetica,sans-Serif" font-size="10.00">small_vector/SmallVector.h</text>
</a>
</g>
</g>
<!-- Node22&#45;&gt;Node26 -->
<g id="edge32" class="edge">
<title>Node22&#45;&gt;Node26</title>
<path fill="none" stroke="midnightblue" d="M885.5,-112.08C885.5,-105.01 885.5,-94.86 885.5,-85.99"/>
<polygon fill="midnightblue" stroke="midnightblue" points="889,-85.75 885.5,-75.75 882,-85.75 889,-85.75"/>
</g>
<!-- Node23&#45;&gt;Node8 -->
<g id="edge30" class="edge">
<title>Node23&#45;&gt;Node8</title>
<path fill="none" stroke="midnightblue" d="M977.87,-57.17C975.04,-56.76 972.23,-56.37 969.5,-56 828.42,-37.03 659.53,-20.68 588.55,-14.1"/>
<polygon fill="midnightblue" stroke="midnightblue" points="588.69,-10.59 578.41,-13.16 588.05,-17.56 588.69,-10.59"/>
</g>
<!-- Node24 -->
<g id="node24" class="node">
<title>Node24</title>
<g id="a_node24"><a xlink:title=" ">
<polygon fill="white" stroke="#bfbfbf" points="999,-0.5 999,-19.5 1052,-19.5 1052,-0.5 999,-0.5"/>
<text text-anchor="middle" x="1025.5" y="-7.5" font-family="Helvetica,sans-Serif" font-size="10.00">cstddef</text>
</a>
</g>
</g>
<!-- Node23&#45;&gt;Node24 -->
<g id="edge28" class="edge">
<title>Node23&#45;&gt;Node24</title>
<path fill="none" stroke="midnightblue" d="M1025.5,-56.08C1025.5,-49.01 1025.5,-38.86 1025.5,-29.99"/>
<polygon fill="midnightblue" stroke="midnightblue" points="1029,-29.75 1025.5,-19.75 1022,-29.75 1029,-29.75"/>
</g>
<!-- Node25 -->
<g id="node25" class="node">
<title>Node25</title>
<g id="a_node25"><a xlink:title=" ">
<polygon fill="white" stroke="#bfbfbf" points="763.5,-0.5 763.5,-19.5 813.5,-19.5 813.5,-0.5 763.5,-0.5"/>
<text text-anchor="middle" x="788.5" y="-7.5" font-family="Helvetica,sans-Serif" font-size="10.00">cstdint</text>
</a>
</g>
</g>
<!-- Node23&#45;&gt;Node25 -->
<g id="edge29" class="edge">
<title>Node23&#45;&gt;Node25</title>
<path fill="none" stroke="midnightblue" d="M987.95,-56.44C942.75,-46.15 867.47,-28.99 823.47,-18.97"/>
<polygon fill="midnightblue" stroke="midnightblue" points="824.05,-15.51 813.52,-16.7 822.49,-22.33 824.05,-15.51"/>
</g>
<!-- Node28 -->
<g id="node28" class="node">
<title>Node28</title>
<g id="a_node28"><a xlink:href="contiguous__set_8h.html" target="_top" xlink:title=" ">
<polygon fill="white" stroke="black" points="0,-112.5 0,-131.5 131,-131.5 131,-112.5 0,-112.5"/>
<text text-anchor="middle" x="65.5" y="-119.5" font-family="Helvetica,sans-Serif" font-size="10.00">ccf/ds/contiguous_set.h</text>
</a>
</g>
</g>
<!-- Node27&#45;&gt;Node28 -->
<g id="edge35" class="edge">
<title>Node27&#45;&gt;Node28</title>
<path fill="none" stroke="midnightblue" d="M450.19,-368.6C370.45,-360.75 235.19,-337.13 145.5,-266 103.81,-232.94 80.34,-171.86 70.71,-141.35"/>
<polygon fill="midnightblue" stroke="midnightblue" points="74.01,-140.17 67.79,-131.6 67.31,-142.18 74.01,-140.17"/>
</g>
<!-- Node27&#45;&gt;Node30 -->
<g id="edge39" class="edge">
<title>Node27&#45;&gt;Node30</title>
<path fill="none" stroke="midnightblue" d="M518.08,-363.98C520.65,-355.49 524.67,-342.2 527.96,-331.32"/>
<polygon fill="midnightblue" stroke="midnightblue" points="531.38,-332.09 530.93,-321.51 524.68,-330.07 531.38,-332.09"/>
</g>
<!-- Node28&#45;&gt;Node8 -->
<g id="edge38" class="edge">
<title>Node28&#45;&gt;Node8</title>
<path fill="none" stroke="midnightblue" d="M72.86,-112.42C85.87,-97.95 114.46,-68.98 145.5,-56 213.13,-27.73 435.17,-15.87 520.59,-12.27"/>
<polygon fill="midnightblue" stroke="midnightblue" points="520.93,-15.76 530.78,-11.86 520.65,-8.77 520.93,-15.76"/>
</g>
<!-- Node28&#45;&gt;Node16 -->
<g id="edge36" class="edge">
<title>Node28&#45;&gt;Node16</title>
<path fill="none" stroke="midnightblue" d="M91.17,-112.44C118.42,-103.36 161.68,-88.94 192.15,-78.78"/>
<polygon fill="midnightblue" stroke="midnightblue" points="193.57,-82 201.95,-75.52 191.36,-75.36 193.57,-82"/>
</g>
<!-- Node29 -->
<g id="node29" class="node">
<title>Node29</title>
<g id="a_node29"><a xlink:title=" ">
<polygon fill="white" stroke="#bfbfbf" points="37.5,-56.5 37.5,-75.5 93.5,-75.5 93.5,-56.5 37.5,-56.5"/>
<text text-anchor="middle" x="65.5" y="-63.5" font-family="Helvetica,sans-Serif" font-size="10.00">numeric</text>
</a>
</g>
</g>
<!-- Node28&#45;&gt;Node29 -->
<g id="edge37" class="edge">
<title>Node28&#45;&gt;Node29</title>
<path fill="none" stroke="midnightblue" d="M65.5,-112.08C65.5,-105.01 65.5,-94.86 65.5,-85.99"/>
<polygon fill="midnightblue" stroke="midnightblue" points="69,-85.75 65.5,-75.75 62,-85.75 69,-85.75"/>
</g>
<!-- Node30&#45;&gt;Node5 -->
<g id="edge40" class="edge">
<title>Node30&#45;&gt;Node5</title>
<path fill="none" stroke="midnightblue" d="M554.13,-302.48C578.62,-292.36 619.65,-275.4 647.61,-263.85"/>
<polygon fill="midnightblue" stroke="midnightblue" points="649,-267.06 656.91,-260.01 646.33,-260.59 649,-267.06"/>
</g>
<!-- Node30&#45;&gt;Node7 -->
<g id="edge46" class="edge">
<title>Node30&#45;&gt;Node7</title>
<path fill="none" stroke="midnightblue" d="M541.91,-302.18C563.49,-279.6 622.73,-217.95 673.5,-168 690.08,-151.69 695.16,-148.56 711.5,-132 727.43,-115.86 744.94,-96.72 756.92,-83.4"/>
<polygon fill="midnightblue" stroke="midnightblue" points="759.85,-85.37 763.91,-75.58 754.63,-80.7 759.85,-85.37"/>
</g>
<!-- Node30&#45;&gt;Node14 -->
<g id="edge47" class="edge">
<title>Node30&#45;&gt;Node14</title>
<path fill="none" stroke="midnightblue" d="M511.87,-302.39C463.43,-281.73 347.4,-224.08 307.5,-132 300.92,-116.81 306.11,-98.23 311.94,-84.84"/>
<polygon fill="midnightblue" stroke="midnightblue" points="315.14,-86.27 316.35,-75.74 308.84,-83.22 315.14,-86.27"/>
</g>
<!-- Node30&#45;&gt;Node16 -->
<g id="edge43" class="edge">
<title>Node30&#45;&gt;Node16</title>
<path fill="none" stroke="midnightblue" d="M499.71,-305.11C469.66,-298.79 425.34,-286.75 391.5,-266 315.31,-219.3 258.22,-124.43 236.77,-84.91"/>
<polygon fill="midnightblue" stroke="midnightblue" points="239.78,-83.1 231.99,-75.91 233.59,-86.39 239.78,-83.1"/>
</g>
<!-- Node30&#45;&gt;Node17 -->
<g id="edge44" class="edge">
<title>Node30&#45;&gt;Node17</title>
<path fill="none" stroke="midnightblue" d="M523.41,-302.36C502.72,-284.37 454.59,-241.05 420.5,-199 405.27,-180.22 390.63,-156.52 381.38,-140.63"/>
<polygon fill="midnightblue" stroke="midnightblue" points="384.37,-138.8 376.36,-131.85 378.29,-142.27 384.37,-138.8"/>
</g>
<!-- Node30&#45;&gt;Node25 -->
<g id="edge42" class="edge">
<title>Node30&#45;&gt;Node25</title>
<path fill="none" stroke="midnightblue" d="M499.98,-306.97C408.18,-295.02 159.5,-256.04 159.5,-184.5 159.5,-184.5 159.5,-184.5 159.5,-121 159.5,-90.9 155.1,-74.93 178.5,-56 200.96,-37.83 626.18,-18.03 753.06,-12.5"/>
<polygon fill="midnightblue" stroke="midnightblue" points="753.53,-15.99 763.37,-12.06 753.23,-8.99 753.53,-15.99"/>
</g>
<!-- Node31 -->
<g id="node31" class="node">
<title>Node31</title>
<g id="a_node31"><a xlink:title=" ">
<polygon fill="white" stroke="#bfbfbf" points="503,-241 503,-260 564,-260 564,-241 503,-241"/>
<text text-anchor="middle" x="533.5" y="-248" font-family="Helvetica,sans-Serif" font-size="10.00">charconv</text>
</a>
</g>
</g>
<!-- Node30&#45;&gt;Node31 -->
<g id="edge41" class="edge">
<title>Node30&#45;&gt;Node31</title>
<path fill="none" stroke="midnightblue" d="M533.5,-302.48C533.5,-294.08 533.5,-280.98 533.5,-270.16"/>
<polygon fill="midnightblue" stroke="midnightblue" points="537,-270.01 533.5,-260.01 530,-270.01 537,-270.01"/>
</g>
<!-- Node32 -->
<g id="node32" class="node">
<title>Node32</title>
<g id="a_node32"><a xlink:title=" ">
<polygon fill="white" stroke="#bfbfbf" points="892.5,-241 892.5,-260 948.5,-260 948.5,-241 892.5,-241"/>
<text text-anchor="middle" x="920.5" y="-248" font-family="Helvetica,sans-Serif" font-size="10.00">optional</text>
</a>
</g>
</g>
<!-- Node30&#45;&gt;Node32 -->
<g id="edge45" class="edge">
<title>Node30&#45;&gt;Node32</title>
<path fill="none" stroke="midnightblue" d="M567.31,-309.41C630.38,-305.85 769.85,-295.1 883.5,-266 886.17,-265.32 888.9,-264.5 891.61,-263.59"/>
<polygon fill="midnightblue" stroke="midnightblue" points="893.02,-266.81 901.21,-260.09 890.62,-260.23 893.02,-266.81"/>
</g>
<!-- Node33&#45;&gt;Node34 -->
<g id="edge49" class="edge">
<title>Node33&#45;&gt;Node34</title>
<path fill="none" stroke="midnightblue" d="M919.25,-302.48C933.53,-292.93 956.9,-277.31 974.01,-265.87"/>
<polygon fill="midnightblue" stroke="midnightblue" points="976.4,-268.48 982.77,-260.01 972.51,-262.66 976.4,-268.48"/>
</g>
<!-- Node36&#45;&gt;Node3 -->
<g id="edge59" class="edge">
<title>Node36&#45;&gt;Node3</title>
<path fill="none" stroke="midnightblue" d="M1044.91,-425.4C1024.21,-415.86 996.68,-403.16 974.28,-392.84"/>
<polygon fill="midnightblue" stroke="midnightblue" points="975.58,-389.58 965.04,-388.58 972.65,-395.94 975.58,-389.58"/>
</g>
<!-- Node36&#45;&gt;Node34 -->
<g id="edge61" class="edge">
<title>Node36&#45;&gt;Node34</title>
<path fill="none" stroke="midnightblue" d="M1133.06,-430.18C1157.2,-423.12 1182.98,-410.73 1197.5,-389 1205.16,-377.55 1204.62,-369.8 1197.5,-358 1162.13,-299.37 1082.54,-271.37 1034.5,-259.37"/>
<polygon fill="midnightblue" stroke="midnightblue" points="1035.29,-255.96 1024.75,-257.04 1033.67,-262.77 1035.29,-255.96"/>
</g>
<!-- Node37 -->
<g id="node37" class="node">
<title>Node37</title>
<g id="a_node37"><a xlink:href="strategy_8h.html" target="_top" xlink:title=" ">
<polygon fill="white" stroke="black" points="1061,-364 1061,-383 1188,-383 1188,-364 1061,-364"/>
<text text-anchor="middle" x="1124.5" y="-371" font-family="Helvetica,sans-Serif" font-size="10.00">ccf/indexing/strategy.h</text>
</a>
</g>
</g>
<!-- Node36&#45;&gt;Node37 -->
<g id="edge54" class="edge">
<title>Node36&#45;&gt;Node37</title>
<path fill="none" stroke="midnightblue" d="M1086.13,-425.4C1093.7,-415.36 1103.89,-401.84 1111.87,-391.25"/>
<polygon fill="midnightblue" stroke="midnightblue" points="1114.72,-393.29 1117.95,-383.19 1109.13,-389.07 1114.72,-393.29"/>
</g>
<!-- Node38 -->
<g id="node38" class="node">
<title>Node38</title>
<g id="a_node38"><a xlink:title=" ">
<polygon fill="white" stroke="#bfbfbf" points="1244.5,-364 1244.5,-383 1282.5,-383 1282.5,-364 1244.5,-364"/>
<text text-anchor="middle" x="1263.5" y="-371" font-family="Helvetica,sans-Serif" font-size="10.00">map</text>
</a>
</g>
</g>
<!-- Node36&#45;&gt;Node38 -->
<g id="edge60" class="edge">
<title>Node36&#45;&gt;Node38</title>
<path fill="none" stroke="midnightblue" d="M1122.72,-425.45C1153.65,-415.92 1194.8,-402.62 1230.5,-389 1232.11,-388.39 1233.75,-387.74 1235.4,-387.07"/>
<polygon fill="midnightblue" stroke="midnightblue" points="1236.93,-390.22 1244.79,-383.11 1234.21,-383.77 1236.93,-390.22"/>
</g>
<!-- Node39 -->
<g id="node39" class="node">
<title>Node39</title>
<g id="a_node39"><a xlink:title=" ">
<polygon fill="white" stroke="#bfbfbf" points="1010.5,-364 1010.5,-383 1042.5,-383 1042.5,-364 1010.5,-364"/>
<text text-anchor="middle" x="1026.5" y="-371" font-family="Helvetica,sans-Serif" font-size="10.00">set</text>
</a>
</g>
</g>
<!-- Node36&#45;&gt;Node39 -->
<g id="edge62" class="edge">
<title>Node36&#45;&gt;Node39</title>
<path fill="none" stroke="midnightblue" d="M1064.87,-425.4C1057.3,-415.36 1047.11,-401.84 1039.13,-391.25"/>
<polygon fill="midnightblue" stroke="midnightblue" points="1041.87,-389.07 1033.05,-383.19 1036.28,-393.29 1041.87,-389.07"/>
</g>
<!-- Node37&#45;&gt;Node7 -->
<g id="edge58" class="edge">
<title>Node37&#45;&gt;Node7</title>
<path fill="none" stroke="midnightblue" d="M1146.55,-363.95C1183.64,-347.96 1254.5,-309.77 1254.5,-251.5 1254.5,-251.5 1254.5,-251.5 1254.5,-182.5 1254.5,-82.23 921.97,-101.03 803.6,-75.94"/>
<polygon fill="midnightblue" stroke="midnightblue" points="804.35,-72.52 793.81,-73.63 802.74,-79.33 804.35,-72.52"/>
</g>
<!-- Node37&#45;&gt;Node30 -->
<g id="edge56" class="edge">
<title>Node37&#45;&gt;Node30</title>
<path fill="none" stroke="midnightblue" d="M1085.61,-363.96C1074.63,-361.77 1062.63,-359.58 1051.5,-358 876.78,-333.13 666.81,-320 577.33,-315.19"/>
<polygon fill="midnightblue" stroke="midnightblue" points="577.45,-311.69 567.28,-314.65 577.08,-318.68 577.45,-311.69"/>
</g>
<!-- Node37&#45;&gt;Node32 -->
<g id="edge57" class="edge">
<title>Node37&#45;&gt;Node32</title>
<path fill="none" stroke="midnightblue" d="M1082.06,-363.96C1072.04,-361.97 1061.4,-359.89 1051.5,-358 1007.78,-349.66 883,-356.18 854.5,-322 837.19,-301.24 867.85,-278.67 892.93,-264.8"/>
<polygon fill="midnightblue" stroke="midnightblue" points="894.61,-267.87 901.82,-260.11 891.34,-261.68 894.61,-267.87"/>
</g>
<!-- Node37&#45;&gt;Node33 -->
<g id="edge55" class="edge">
<title>Node37&#45;&gt;Node33</title>
<path fill="none" stroke="midnightblue" d="M1093.27,-363.98C1054.9,-353.5 989.71,-335.71 947.39,-324.16"/>
<polygon fill="midnightblue" stroke="midnightblue" points="948.24,-320.77 937.68,-321.51 946.4,-327.52 948.24,-320.77"/>
</g>
</g>
</svg>
        <g id="navigator" transform="translate(0 0)" fill="#404254">
                <rect fill="#f2f5e9" fill-opacity="0.5" stroke="#606060" stroke-width=".5" x="0" y="0" width="60" height="60"/>
                <use id="zoomplus" xlink:href="#zoomPlus" x="17" y="9" onmousedown="handleZoom(evt,'in')"/>
                <use id="zoomminus" xlink:href="#zoomMin" x="42" y="9" onmousedown="handleZoom(evt,'out')"/>
                <use id="reset" xlink:href="#resetDef" x="30" y="36" onmousedown="handleReset()"/>
                <g id="arrowUp" xlink:href="#dirArrow" transform="translate(30 24)" onmousedown="handlePan(0,-1)">
                  <use xlink:href="#rim" fill="#404040">
                        <set attributeName="fill" to="#808080" begin="arrowUp.mouseover" end="arrowUp.mouseout"/>
                  </use>
                  <path fill="none" stroke="white" stroke-width="1.5" d="M0,-3.0v7 M-2.5,-0.5L0,-3.0L2.5,-0.5"/>
                </g>
                <g id="arrowRight" xlink:href="#dirArrow" transform="rotate(90) translate(36 -43)" onmousedown="handlePan(1,0)">
                  <use xlink:href="#rim" fill="#404040">
                        <set attributeName="fill" to="#808080" begin="arrowRight.mouseover" end="arrowRight.mouseout"/>
                  </use>
                  <path fill="none" stroke="white" stroke-width="1.5" d="M0,-3.0v7 M-2.5,-0.5L0,-3.0L2.5,-0.5"/>
                </g>
                <g id="arrowDown" xlink:href="#dirArrow" transform="rotate(180) translate(-30 -48)" onmousedown="handlePan(0,1)">
                  <use xlink:href="#rim" fill="#404040">
                        <set attributeName="fill" to="#808080" begin="arrowDown.mouseover" end="arrowDown.mouseout"/>
                  </use>
                  <path fill="none" stroke="white" stroke-width="1.5" d="M0,-3.0v7 M-2.5,-0.5L0,-3.0L2.5,-0.5"/>
                </g>
                <g id="arrowLeft" xlink:href="#dirArrow" transform="rotate(270) translate(-36 17)" onmousedown="handlePan(-1,0)">
                  <use xlink:href="#rim" fill="#404040">
                        <set attributeName="fill" to="#808080" begin="arrowLeft.mouseover" end="arrowLeft.mouseout"/>
                  </use>
                  <path fill="none" stroke="white" stroke-width="1.5" d="M0,-3.0v7 M-2.5,-0.5L0,-3.0L2.5,-0.5"/>
                </g>
        </g>
        <svg viewBox="0 0 15 15" width="100%" height="30px" preserveAspectRatio="xMaxYMin meet">
         <g id="arrow_out" transform="scale(0.3 0.3)">
          <a xlink:href="node__context_8h__incl_org.svg" target="_base">
           <rect id="button" ry="5" rx="5" y="6" x="6" height="38" width="38"
                fill="#f2f5e9" fill-opacity="0.5" stroke="#606060" stroke-width="1.0"/>
           <path id="arrow"
             d="M 11.500037,31.436501 C 11.940474,20.09759 22.043105,11.32322 32.158766,21.979434 L 37.068811,17.246167 C 37.068811,17.246167 37.088388,32 37.088388,32 L 22.160133,31.978069 C 22.160133,31.978069 26.997745,27.140456 26.997745,27.140456 C 18.528582,18.264221 13.291696,25.230495 11.500037,31.436501 z"
             style="fill:#404040;"/>
          </a>
         </g>
        </svg>
</svg>
