<?xml version="1.0" encoding="UTF-8" standalone="no"?>
<!DOCTYPE svg PUBLIC "-//W3C//DTD SVG 1.1//EN"
 "http://www.w3.org/Graphics/SVG/1.1/DTD/svg11.dtd">
<!-- Generated by graphviz version 2.43.0 (0)
 -->
<!-- Title: include/ccf/node_startup_state.h Pages: 1 -->
<svg width="1810pt" height="609pt"
 viewBox="0.00 0.00 1810.00 609.00" xmlns="http://www.w3.org/2000/svg" xmlns:xlink="http://www.w3.org/1999/xlink">
<g id="graph0" class="graph" transform="scale(1 1) rotate(0) translate(4 605)">
<title>include/ccf/node_startup_state.h</title>
<polygon fill="white" stroke="transparent" points="-4,4 -4,-605 1806,-605 1806,4 -4,4"/>
<!-- Node1 -->
<g id="node1" class="node">
<title>Node1</title>
<g id="a_node1"><a xlink:title=" ">
<polygon fill="#bfbfbf" stroke="black" points="1408,-570.5 1408,-600.5 1544,-600.5 1544,-570.5 1408,-570.5"/>
<text text-anchor="start" x="1416" y="-588.5" font-family="Helvetica,sans-Serif" font-size="10.00">include/ccf/node_startup</text>
<text text-anchor="middle" x="1476" y="-577.5" font-family="Helvetica,sans-Serif" font-size="10.00">_state.h</text>
</a>
</g>
</g>
<!-- Node2 -->
<g id="node2" class="node">
<title>Node2</title>
<g id="a_node2"><a xlink:href="node__call__types_8h.html" target="_top" xlink:title=" ">
<polygon fill="white" stroke="black" points="881.5,-503.5 881.5,-533.5 1006.5,-533.5 1006.5,-503.5 881.5,-503.5"/>
<text text-anchor="start" x="889.5" y="-521.5" font-family="Helvetica,sans-Serif" font-size="10.00">src/node/rpc/node_call</text>
<text text-anchor="middle" x="944" y="-510.5" font-family="Helvetica,sans-Serif" font-size="10.00">_types.h</text>
</a>
</g>
</g>
<!-- Node1&#45;&gt;Node2 -->
<g id="edge1" class="edge">
<title>Node1&#45;&gt;Node2</title>
<path fill="none" stroke="midnightblue" d="M1397.81,-574.95C1291.75,-561.99 1104.38,-539.09 1006.89,-527.18"/>
<polygon fill="midnightblue" stroke="midnightblue" points="1397.46,-578.43 1407.81,-576.17 1398.31,-571.48 1397.46,-578.43"/>
</g>
<!-- Node16 -->
<g id="node16" class="node">
<title>Node16</title>
<g id="a_node16"><a xlink:href="node__interface_8h.html" target="_top" xlink:title=" ">
<polygon fill="white" stroke="black" points="1501.5,-380.5 1501.5,-399.5 1662.5,-399.5 1662.5,-380.5 1501.5,-380.5"/>
<text text-anchor="middle" x="1582" y="-387.5" font-family="Helvetica,sans-Serif" font-size="10.00">src/node/rpc/node_interface.h</text>
</a>
</g>
</g>
<!-- Node1&#45;&gt;Node16 -->
<g id="edge24" class="edge">
<title>Node1&#45;&gt;Node16</title>
<path fill="none" stroke="midnightblue" d="M1496.43,-562.57C1516.22,-540.18 1545.72,-503.59 1563,-467 1573.8,-444.13 1578.94,-414.37 1580.94,-399.81"/>
<polygon fill="midnightblue" stroke="midnightblue" points="1493.69,-560.38 1489.61,-570.15 1498.9,-565.06 1493.69,-560.38"/>
</g>
<!-- Node27 -->
<g id="node27" class="node">
<title>Node27</title>
<g id="a_node27"><a xlink:href="node__operation__interface_8h.html" target="_top" xlink:title=" ">
<polygon fill="white" stroke="black" points="1398.5,-436.5 1398.5,-466.5 1553.5,-466.5 1553.5,-436.5 1398.5,-436.5"/>
<text text-anchor="start" x="1406.5" y="-454.5" font-family="Helvetica,sans-Serif" font-size="10.00">src/node/rpc/node_operation</text>
<text text-anchor="middle" x="1476" y="-443.5" font-family="Helvetica,sans-Serif" font-size="10.00">_interface.h</text>
</a>
</g>
</g>
<!-- Node1&#45;&gt;Node27 -->
<g id="edge49" class="edge">
<title>Node1&#45;&gt;Node27</title>
<path fill="none" stroke="midnightblue" d="M1476,-560.02C1476,-532.51 1476,-488.79 1476,-466.52"/>
<polygon fill="midnightblue" stroke="midnightblue" points="1472.5,-560.37 1476,-570.37 1479.5,-560.37 1472.5,-560.37"/>
</g>
<!-- Node3 -->
<g id="node3" class="node">
<title>Node3</title>
<g id="a_node3"><a xlink:href="call__types_8h.html" target="_top" xlink:title=" ">
<polygon fill="white" stroke="black" points="402.5,-442 402.5,-461 539.5,-461 539.5,-442 402.5,-442"/>
<text text-anchor="middle" x="471" y="-449" font-family="Helvetica,sans-Serif" font-size="10.00">src/node/rpc/call_types.h</text>
</a>
</g>
</g>
<!-- Node2&#45;&gt;Node3 -->
<g id="edge2" class="edge">
<title>Node2&#45;&gt;Node3</title>
<path fill="none" stroke="midnightblue" d="M871.05,-507.48C778.37,-494.74 620.03,-472.98 532.94,-461.01"/>
<polygon fill="midnightblue" stroke="midnightblue" points="870.81,-510.97 881.19,-508.87 871.76,-504.04 870.81,-510.97"/>
</g>
<!-- Node4 -->
<g id="node4" class="node">
<title>Node4</title>
<g id="a_node4"><a xlink:href="nobuiltins_8cpp.html" target="_top" xlink:title=" ">
<polygon fill="white" stroke="black" points="134.5,-313.5 134.5,-343.5 269.5,-343.5 269.5,-313.5 134.5,-313.5"/>
<text text-anchor="start" x="142.5" y="-331.5" font-family="Helvetica,sans-Serif" font-size="10.00">samples/apps/nobuiltins</text>
<text text-anchor="middle" x="202" y="-320.5" font-family="Helvetica,sans-Serif" font-size="10.00">/nobuiltins.cpp</text>
</a>
</g>
</g>
<!-- Node3&#45;&gt;Node4 -->
<g id="edge3" class="edge">
<title>Node3&#45;&gt;Node4</title>
<path fill="none" stroke="midnightblue" d="M406,-439.9C369.32,-432.21 323.47,-419.62 286,-400 257.66,-385.16 230.34,-359.44 214.91,-343.5"/>
<polygon fill="midnightblue" stroke="midnightblue" points="405.59,-443.39 416.08,-441.95 406.98,-436.53 405.59,-443.39"/>
</g>
<!-- Node5 -->
<g id="node5" class="node">
<title>Node5</title>
<g id="a_node5"><a xlink:href="common__endpoint__registry_8cpp.html" target="_top" xlink:title=" ">
<polygon fill="white" stroke="black" points="326,-313.5 326,-343.5 454,-343.5 454,-313.5 326,-313.5"/>
<text text-anchor="start" x="334" y="-331.5" font-family="Helvetica,sans-Serif" font-size="10.00">src/endpoints/common</text>
<text text-anchor="middle" x="390" y="-320.5" font-family="Helvetica,sans-Serif" font-size="10.00">_endpoint_registry.cpp</text>
</a>
</g>
</g>
<!-- Node3&#45;&gt;Node5 -->
<g id="edge4" class="edge">
<title>Node3&#45;&gt;Node5</title>
<path fill="none" stroke="midnightblue" d="M469.1,-431.43C466.87,-416.45 462.11,-395.6 452,-380 442.33,-365.09 426.83,-352.47 413.75,-343.57"/>
<polygon fill="midnightblue" stroke="midnightblue" points="465.65,-432.06 470.35,-441.55 472.59,-431.2 465.65,-432.06"/>
</g>
<!-- Node6 -->
<g id="node6" class="node">
<title>Node6</title>
<g id="a_node6"><a xlink:href="wrap_8cpp.html" target="_top" xlink:title=" ">
<polygon fill="white" stroke="black" points="1308.5,-185 1308.5,-204 1397.5,-204 1397.5,-185 1308.5,-185"/>
<text text-anchor="middle" x="1353" y="-192" font-family="Helvetica,sans-Serif" font-size="10.00">src/js/wrap.cpp</text>
</a>
</g>
</g>
<!-- Node3&#45;&gt;Node6 -->
<g id="edge5" class="edge">
<title>Node3&#45;&gt;Node6</title>
<path fill="none" stroke="midnightblue" d="M549.71,-449.64C767.93,-445.43 1372.57,-420.76 1494,-277 1502.89,-266.47 1501.93,-257.27 1494,-246 1487.34,-236.54 1421.77,-215.82 1382.44,-204.07"/>
<polygon fill="midnightblue" stroke="midnightblue" points="549.55,-446.14 539.61,-449.83 549.68,-453.14 549.55,-446.14"/>
</g>
<!-- Node7 -->
<g id="node7" class="node">
<title>Node7</title>
<g id="a_node7"><a xlink:href="resharing_8h.html" target="_top" xlink:title=" ">
<polygon fill="white" stroke="black" points="0,-319 0,-338 116,-338 116,-319 0,-319"/>
<text text-anchor="middle" x="58" y="-326" font-family="Helvetica,sans-Serif" font-size="10.00">src/node/resharing.h</text>
</a>
</g>
</g>
<!-- Node3&#45;&gt;Node7 -->
<g id="edge6" class="edge">
<title>Node3&#45;&gt;Node7</title>
<path fill="none" stroke="midnightblue" d="M416.52,-439.97C371.7,-430.83 306.72,-416.5 251,-400 187.21,-381.11 113.93,-352.33 78.85,-338.09"/>
<polygon fill="midnightblue" stroke="midnightblue" points="415.84,-443.4 426.33,-441.95 417.22,-436.54 415.84,-443.4"/>
</g>
<!-- Node12 -->
<g id="node12" class="node">
<title>Node12</title>
<g id="a_node12"><a xlink:href="member__frontend_8h.html" target="_top" xlink:title=" ">
<polygon fill="white" stroke="black" points="546,-246.5 546,-276.5 666,-276.5 666,-246.5 546,-246.5"/>
<text text-anchor="start" x="554" y="-264.5" font-family="Helvetica,sans-Serif" font-size="10.00">src/node/rpc/member</text>
<text text-anchor="middle" x="606" y="-253.5" font-family="Helvetica,sans-Serif" font-size="10.00">_frontend.h</text>
</a>
</g>
</g>
<!-- Node3&#45;&gt;Node12 -->
<g id="edge12" class="edge">
<title>Node3&#45;&gt;Node12</title>
<path fill="none" stroke="midnightblue" d="M515.55,-438.93C560.04,-424.73 625.99,-395.9 656,-344 662.9,-332.07 661.24,-325.74 656,-313 649.95,-298.28 637.3,-285.57 626.24,-276.59"/>
<polygon fill="midnightblue" stroke="midnightblue" points="514.38,-435.63 505.85,-441.9 516.44,-442.32 514.38,-435.63"/>
</g>
<!-- Node13 -->
<g id="node13" class="node">
<title>Node13</title>
<g id="a_node13"><a xlink:href="serialization_8h.html" target="_top" xlink:title=" ">
<polygon fill="white" stroke="black" points="295,-380.5 295,-399.5 443,-399.5 443,-380.5 295,-380.5"/>
<text text-anchor="middle" x="369" y="-387.5" font-family="Helvetica,sans-Serif" font-size="10.00">src/node/rpc/serialization.h</text>
</a>
</g>
</g>
<!-- Node3&#45;&gt;Node13 -->
<g id="edge14" class="edge">
<title>Node3&#45;&gt;Node13</title>
<path fill="none" stroke="midnightblue" d="M447.69,-436.9C427.96,-425.4 400.31,-409.27 383.59,-399.51"/>
<polygon fill="midnightblue" stroke="midnightblue" points="445.98,-439.96 456.39,-441.98 449.51,-433.91 445.98,-439.96"/>
</g>
<!-- Node8 -->
<g id="node8" class="node">
<title>Node8</title>
<g id="a_node8"><a xlink:href="node__state_8h.html" target="_top" xlink:title=" ">
<polygon fill="white" stroke="black" points="291,-185 291,-204 415,-204 415,-185 291,-185"/>
<text text-anchor="middle" x="353" y="-192" font-family="Helvetica,sans-Serif" font-size="10.00">src/node/node_state.h</text>
</a>
</g>
</g>
<!-- Node7&#45;&gt;Node8 -->
<g id="edge7" class="edge">
<title>Node7&#45;&gt;Node8</title>
<path fill="none" stroke="midnightblue" d="M86.61,-314.7C146.47,-287.91 283.56,-226.57 333.96,-204.02"/>
<polygon fill="midnightblue" stroke="midnightblue" points="85.05,-311.56 77.36,-318.84 87.91,-317.95 85.05,-311.56"/>
</g>
<!-- Node9 -->
<g id="node9" class="node">
<title>Node9</title>
<g id="a_node9"><a xlink:href="enclave_2enclave_8h.html" target="_top" xlink:title=" ">
<polygon fill="white" stroke="black" points="611,-56.5 611,-75.5 733,-75.5 733,-56.5 611,-56.5"/>
<text text-anchor="middle" x="672" y="-63.5" font-family="Helvetica,sans-Serif" font-size="10.00">src/enclave/enclave.h</text>
</a>
</g>
</g>
<!-- Node8&#45;&gt;Node9 -->
<g id="edge8" class="edge">
<title>Node8&#45;&gt;Node9</title>
<path fill="none" stroke="midnightblue" d="M341.89,-175.72C332.11,-157.55 321.62,-129.58 337,-112 371.87,-72.14 524.11,-66.12 610.87,-66.03"/>
<polygon fill="midnightblue" stroke="midnightblue" points="339.04,-177.78 347.08,-184.67 345.1,-174.27 339.04,-177.78"/>
</g>
<!-- Node11 -->
<g id="node11" class="node">
<title>Node11</title>
<g id="a_node11"><a xlink:href="gov__effects_8h.html" target="_top" xlink:title=" ">
<polygon fill="white" stroke="black" points="346,-118 346,-137 490,-137 490,-118 346,-118"/>
<text text-anchor="middle" x="418" y="-125" font-family="Helvetica,sans-Serif" font-size="10.00">src/node/rpc/gov_effects.h</text>
</a>
</g>
</g>
<!-- Node8&#45;&gt;Node11 -->
<g id="edge10" class="edge">
<title>Node8&#45;&gt;Node11</title>
<path fill="none" stroke="midnightblue" d="M369,-177.5C381.75,-164.75 399.11,-147.39 409.37,-137.13"/>
<polygon fill="midnightblue" stroke="midnightblue" points="366.36,-175.19 361.77,-184.73 371.31,-180.14 366.36,-175.19"/>
</g>
<!-- Node10 -->
<g id="node10" class="node">
<title>Node10</title>
<g id="a_node10"><a xlink:href="enclave_2main_8cpp.html" target="_top" xlink:title=" ">
<polygon fill="white" stroke="black" points="612,-0.5 612,-19.5 732,-19.5 732,-0.5 612,-0.5"/>
<text text-anchor="middle" x="672" y="-7.5" font-family="Helvetica,sans-Serif" font-size="10.00">src/enclave/main.cpp</text>
</a>
</g>
</g>
<!-- Node9&#45;&gt;Node10 -->
<g id="edge9" class="edge">
<title>Node9&#45;&gt;Node10</title>
<path fill="none" stroke="midnightblue" d="M672,-45.8C672,-36.91 672,-26.78 672,-19.75"/>
<polygon fill="midnightblue" stroke="midnightblue" points="668.5,-46.08 672,-56.08 675.5,-46.08 668.5,-46.08"/>
</g>
<!-- Node11&#45;&gt;Node9 -->
<g id="edge11" class="edge">
<title>Node11&#45;&gt;Node9</title>
<path fill="none" stroke="midnightblue" d="M464.16,-115.69C513.45,-104.14 590.53,-86.08 635.68,-75.51"/>
<polygon fill="midnightblue" stroke="midnightblue" points="463.33,-112.29 454.39,-117.98 464.93,-119.1 463.33,-112.29"/>
</g>
<!-- Node12&#45;&gt;Node9 -->
<g id="edge13" class="edge">
<title>Node12&#45;&gt;Node9</title>
<path fill="none" stroke="midnightblue" d="M614.17,-236.55C628.95,-193.2 659.51,-103.61 669.07,-75.58"/>
<polygon fill="midnightblue" stroke="midnightblue" points="610.77,-235.68 610.85,-246.27 617.39,-237.94 610.77,-235.68"/>
</g>
<!-- Node13&#45;&gt;Node4 -->
<g id="edge15" class="edge">
<title>Node13&#45;&gt;Node4</title>
<path fill="none" stroke="midnightblue" d="M335.61,-377.1C308.44,-367.42 270.03,-353.74 241.36,-343.52"/>
<polygon fill="midnightblue" stroke="midnightblue" points="334.48,-380.42 345.07,-380.48 336.83,-373.82 334.48,-380.42"/>
</g>
<!-- Node13&#45;&gt;Node5 -->
<g id="edge16" class="edge">
<title>Node13&#45;&gt;Node5</title>
<path fill="none" stroke="midnightblue" d="M375.42,-370.82C378.51,-362.04 382.17,-351.68 385.05,-343.52"/>
<polygon fill="midnightblue" stroke="midnightblue" points="372.04,-369.88 372.01,-380.48 378.64,-372.21 372.04,-369.88"/>
</g>
<!-- Node13&#45;&gt;Node7 -->
<g id="edge18" class="edge">
<title>Node13&#45;&gt;Node7</title>
<path fill="none" stroke="midnightblue" d="M310.67,-378.65C261.39,-369.8 188.99,-356.55 126,-344 116.65,-342.14 106.59,-340.04 97.16,-338.04"/>
<polygon fill="midnightblue" stroke="midnightblue" points="310.06,-382.1 320.52,-380.42 311.29,-375.21 310.06,-382.1"/>
</g>
<!-- Node13&#45;&gt;Node8 -->
<g id="edge17" class="edge">
<title>Node13&#45;&gt;Node8</title>
<path fill="none" stroke="midnightblue" d="M344.63,-374.73C334.05,-367.09 322.78,-356.64 317,-344 312.17,-333.43 309.09,-273.76 318,-246 323.28,-229.55 335.89,-213.69 344.44,-204.27"/>
<polygon fill="midnightblue" stroke="midnightblue" points="342.96,-377.82 353.22,-380.47 346.85,-372 342.96,-377.82"/>
</g>
<!-- Node13&#45;&gt;Node12 -->
<g id="edge19" class="edge">
<title>Node13&#45;&gt;Node12</title>
<path fill="none" stroke="midnightblue" d="M453.25,-386.5C523.39,-382.42 615.47,-371.78 639,-344 655.97,-323.97 635.24,-294.06 619.81,-276.59"/>
<polygon fill="midnightblue" stroke="midnightblue" points="452.86,-383.01 443.07,-387.05 453.24,-390 452.86,-383.01"/>
</g>
<!-- Node14 -->
<g id="node14" class="node">
<title>Node14</title>
<g id="a_node14"><a xlink:href="node__frontend_8h.html" target="_top" xlink:title=" ">
<polygon fill="white" stroke="black" points="472,-319 472,-338 630,-338 630,-319 472,-319"/>
<text text-anchor="middle" x="551" y="-326" font-family="Helvetica,sans-Serif" font-size="10.00">src/node/rpc/node_frontend.h</text>
</a>
</g>
</g>
<!-- Node13&#45;&gt;Node14 -->
<g id="edge20" class="edge">
<title>Node13&#45;&gt;Node14</title>
<path fill="none" stroke="midnightblue" d="M405,-377.23C440.37,-365.67 493.5,-348.3 524.97,-338.01"/>
<polygon fill="midnightblue" stroke="midnightblue" points="403.49,-374.04 395.08,-380.48 405.67,-380.69 403.49,-374.04"/>
</g>
<!-- Node14&#45;&gt;Node9 -->
<g id="edge21" class="edge">
<title>Node14&#45;&gt;Node9</title>
<path fill="none" stroke="midnightblue" d="M542.79,-309.05C536.49,-292.27 529.97,-266.99 537,-246 562.58,-169.6 635.06,-99.72 661.87,-75.77"/>
<polygon fill="midnightblue" stroke="midnightblue" points="539.72,-310.79 546.75,-318.72 546.2,-308.14 539.72,-310.79"/>
</g>
<!-- Node15 -->
<g id="node15" class="node">
<title>Node15</title>
<g id="a_node15"><a xlink:href="jwt__key__auto__refresh_8h.html" target="_top" xlink:title=" ">
<polygon fill="white" stroke="black" points="326.5,-246.5 326.5,-276.5 451.5,-276.5 451.5,-246.5 326.5,-246.5"/>
<text text-anchor="start" x="334.5" y="-264.5" font-family="Helvetica,sans-Serif" font-size="10.00">src/node/jwt_key_auto</text>
<text text-anchor="middle" x="389" y="-253.5" font-family="Helvetica,sans-Serif" font-size="10.00">_refresh.h</text>
</a>
</g>
</g>
<!-- Node14&#45;&gt;Node15 -->
<g id="edge22" class="edge">
<title>Node14&#45;&gt;Node15</title>
<path fill="none" stroke="midnightblue" d="M519.99,-315.06C492.55,-304.05 452.53,-287.99 423.96,-276.53"/>
<polygon fill="midnightblue" stroke="midnightblue" points="518.9,-318.39 529.49,-318.87 521.51,-311.9 518.9,-318.39"/>
</g>
<!-- Node15&#45;&gt;Node8 -->
<g id="edge23" class="edge">
<title>Node15&#45;&gt;Node8</title>
<path fill="none" stroke="midnightblue" d="M376.33,-237.63C369.93,-226.07 362.53,-212.71 357.82,-204.19"/>
<polygon fill="midnightblue" stroke="midnightblue" points="373.28,-239.34 381.19,-246.4 379.41,-235.95 373.28,-239.34"/>
</g>
<!-- Node16&#45;&gt;Node6 -->
<g id="edge25" class="edge">
<title>Node16&#45;&gt;Node6</title>
<path fill="none" stroke="midnightblue" d="M1583.25,-370.02C1584.14,-339.54 1581.19,-279.69 1548,-246 1502.31,-199.62 1468.96,-226.59 1406,-210 1398.8,-208.1 1391.07,-206.02 1383.8,-204.03"/>
<polygon fill="midnightblue" stroke="midnightblue" points="1579.74,-370 1582.77,-380.15 1586.74,-370.33 1579.74,-370"/>
</g>
<!-- Node16&#45;&gt;Node12 -->
<g id="edge45" class="edge">
<title>Node16&#45;&gt;Node12</title>
<path fill="none" stroke="midnightblue" d="M1491.17,-385.61C1375.98,-380.48 1171.47,-368.61 998,-344 877.22,-326.86 737.81,-294.92 662.08,-276.52"/>
<polygon fill="midnightblue" stroke="midnightblue" points="1491.21,-389.11 1501.35,-386.05 1491.51,-382.12 1491.21,-389.11"/>
</g>
<!-- Node16&#45;&gt;Node14 -->
<g id="edge46" class="edge">
<title>Node16&#45;&gt;Node14</title>
<path fill="none" stroke="midnightblue" d="M1490.94,-383.74C1291.36,-372.23 818.22,-344.92 630.11,-334.07"/>
<polygon fill="midnightblue" stroke="midnightblue" points="1490.91,-387.25 1501.1,-384.33 1491.32,-380.26 1490.91,-387.25"/>
</g>
<!-- Node17 -->
<g id="node17" class="node">
<title>Node17</title>
<g id="a_node17"><a xlink:href="wrap_8h.html" target="_top" xlink:title=" ">
<polygon fill="white" stroke="black" points="1007,-319 1007,-338 1085,-338 1085,-319 1007,-319"/>
<text text-anchor="middle" x="1046" y="-326" font-family="Helvetica,sans-Serif" font-size="10.00">src/js/wrap.h</text>
</a>
</g>
</g>
<!-- Node16&#45;&gt;Node17 -->
<g id="edge26" class="edge">
<title>Node16&#45;&gt;Node17</title>
<path fill="none" stroke="midnightblue" d="M1495.11,-379.35C1377,-366.24 1170.7,-343.34 1085.02,-333.83"/>
<polygon fill="midnightblue" stroke="midnightblue" points="1494.88,-382.85 1505.2,-380.48 1495.65,-375.89 1494.88,-382.85"/>
</g>
<!-- Node24 -->
<g id="node24" class="node">
<title>Node24</title>
<g id="a_node24"><a xlink:href="historical__queries_8h.html" target="_top" xlink:title=" ">
<polygon fill="white" stroke="black" points="1415,-179.5 1415,-209.5 1521,-209.5 1521,-179.5 1415,-179.5"/>
<text text-anchor="start" x="1423" y="-197.5" font-family="Helvetica,sans-Serif" font-size="10.00">src/node/historical</text>
<text text-anchor="middle" x="1468" y="-186.5" font-family="Helvetica,sans-Serif" font-size="10.00">_queries.h</text>
</a>
</g>
</g>
<!-- Node16&#45;&gt;Node24 -->
<g id="edge41" class="edge">
<title>Node16&#45;&gt;Node24</title>
<path fill="none" stroke="midnightblue" d="M1588.68,-370.69C1598.03,-341.6 1611.23,-284.24 1586,-246 1571.52,-224.05 1545.32,-211.61 1521.28,-204.57"/>
<polygon fill="midnightblue" stroke="midnightblue" points="1585.3,-369.76 1585.37,-380.35 1591.92,-372.02 1585.3,-369.76"/>
</g>
<!-- Node26 -->
<g id="node26" class="node">
<title>Node26</title>
<g id="a_node26"><a xlink:href="node__operation_8h.html" target="_top" xlink:title=" ">
<polygon fill="white" stroke="black" points="1638,-319 1638,-338 1802,-338 1802,-319 1638,-319"/>
<text text-anchor="middle" x="1720" y="-326" font-family="Helvetica,sans-Serif" font-size="10.00">src/node/rpc/node_operation.h</text>
</a>
</g>
</g>
<!-- Node16&#45;&gt;Node26 -->
<g id="edge47" class="edge">
<title>Node16&#45;&gt;Node26</title>
<path fill="none" stroke="midnightblue" d="M1611.04,-376.48C1637.84,-364.92 1676.92,-348.08 1700.26,-338.01"/>
<polygon fill="midnightblue" stroke="midnightblue" points="1609.57,-373.3 1601.77,-380.48 1612.34,-379.73 1609.57,-373.3"/>
</g>
<!-- Node17&#45;&gt;Node6 -->
<g id="edge38" class="edge">
<title>Node17&#45;&gt;Node6</title>
<path fill="none" stroke="midnightblue" d="M1095.51,-325.34C1203.37,-320.11 1451.98,-305.12 1477,-277 1486.16,-266.71 1484.69,-257.43 1477,-246 1466.3,-230.09 1417.88,-213.71 1384.81,-204.07"/>
<polygon fill="midnightblue" stroke="midnightblue" points="1095.03,-321.85 1085.21,-325.83 1095.37,-328.85 1095.03,-321.85"/>
</g>
<!-- Node17&#45;&gt;Node8 -->
<g id="edge39" class="edge">
<title>Node17&#45;&gt;Node8</title>
<path fill="none" stroke="midnightblue" d="M996.83,-327.76C904.93,-327.12 701.53,-320.4 537,-277 519.9,-272.49 414.72,-224.12 371.51,-204.1"/>
<polygon fill="midnightblue" stroke="midnightblue" points="996.93,-331.26 1006.95,-327.81 996.96,-324.26 996.93,-331.26"/>
</g>
<!-- Node17&#45;&gt;Node9 -->
<g id="edge28" class="edge">
<title>Node17&#45;&gt;Node9</title>
<path fill="none" stroke="midnightblue" d="M996.68,-321.53C906.48,-310.4 723.16,-286.74 713,-277 654.54,-220.96 665.91,-108.08 670.58,-75.8"/>
<polygon fill="midnightblue" stroke="midnightblue" points="996.33,-325.01 1006.68,-322.76 997.18,-318.07 996.33,-325.01"/>
</g>
<!-- Node17&#45;&gt;Node12 -->
<g id="edge40" class="edge">
<title>Node17&#45;&gt;Node12</title>
<path fill="none" stroke="midnightblue" d="M996.55,-321.58C926.09,-312.93 792.84,-295.82 680,-277 675.48,-276.25 670.81,-275.43 666.12,-274.58"/>
<polygon fill="midnightblue" stroke="midnightblue" points="996.54,-325.1 1006.89,-322.84 997.39,-318.15 996.54,-325.1"/>
</g>
<!-- Node18 -->
<g id="node18" class="node">
<title>Node18</title>
<g id="a_node18"><a xlink:href="js__generic__base_8cpp.html" target="_top" xlink:title=" ">
<polygon fill="white" stroke="black" points="1108,-246.5 1108,-276.5 1226,-276.5 1226,-246.5 1108,-246.5"/>
<text text-anchor="start" x="1116" y="-264.5" font-family="Helvetica,sans-Serif" font-size="10.00">src/apps/js_generic</text>
<text text-anchor="middle" x="1167" y="-253.5" font-family="Helvetica,sans-Serif" font-size="10.00">/js_generic_base.cpp</text>
</a>
</g>
</g>
<!-- Node17&#45;&gt;Node18 -->
<g id="edge27" class="edge">
<title>Node17&#45;&gt;Node18</title>
<path fill="none" stroke="midnightblue" d="M1071.31,-313.9C1091.67,-302.97 1120.18,-287.65 1140.77,-276.59"/>
<polygon fill="midnightblue" stroke="midnightblue" points="1069.47,-310.92 1062.32,-318.73 1072.78,-317.08 1069.47,-310.92"/>
</g>
<!-- Node19 -->
<g id="node19" class="node">
<title>Node19</title>
<g id="a_node19"><a xlink:href="js_2consensus_8cpp.html" target="_top" xlink:title=" ">
<polygon fill="white" stroke="black" points="722,-252 722,-271 838,-271 838,-252 722,-252"/>
<text text-anchor="middle" x="780" y="-259" font-family="Helvetica,sans-Serif" font-size="10.00">src/js/consensus.cpp</text>
</a>
</g>
</g>
<!-- Node17&#45;&gt;Node19 -->
<g id="edge29" class="edge">
<title>Node17&#45;&gt;Node19</title>
<path fill="none" stroke="midnightblue" d="M1000.92,-316.48C948.45,-303.66 862.91,-282.76 815.13,-271.08"/>
<polygon fill="midnightblue" stroke="midnightblue" points="1000.41,-319.96 1010.95,-318.94 1002.07,-313.16 1000.41,-319.96"/>
</g>
<!-- Node20 -->
<g id="node20" class="node">
<title>Node20</title>
<g id="a_node20"><a xlink:href="conv_8cpp.html" target="_top" xlink:title=" ">
<polygon fill="white" stroke="black" points="1002,-252 1002,-271 1090,-271 1090,-252 1002,-252"/>
<text text-anchor="middle" x="1046" y="-259" font-family="Helvetica,sans-Serif" font-size="10.00">src/js/conv.cpp</text>
</a>
</g>
</g>
<!-- Node17&#45;&gt;Node20 -->
<g id="edge31" class="edge">
<title>Node17&#45;&gt;Node20</title>
<path fill="none" stroke="midnightblue" d="M1046,-308.54C1046,-296.17 1046,-280.62 1046,-271.13"/>
<polygon fill="midnightblue" stroke="midnightblue" points="1042.5,-308.73 1046,-318.73 1049.5,-308.73 1042.5,-308.73"/>
</g>
<!-- Node21 -->
<g id="node21" class="node">
<title>Node21</title>
<g id="a_node21"><a xlink:href="js_2crypto_8cpp.html" target="_top" xlink:title=" ">
<polygon fill="white" stroke="black" points="1244,-252 1244,-271 1340,-271 1340,-252 1244,-252"/>
<text text-anchor="middle" x="1292" y="-259" font-family="Helvetica,sans-Serif" font-size="10.00">src/js/crypto.cpp</text>
</a>
</g>
</g>
<!-- Node17&#45;&gt;Node21 -->
<g id="edge33" class="edge">
<title>Node17&#45;&gt;Node21</title>
<path fill="none" stroke="midnightblue" d="M1088.3,-316.32C1136.87,-303.49 1215.51,-282.71 1259.52,-271.08"/>
<polygon fill="midnightblue" stroke="midnightblue" points="1087.19,-313 1078.41,-318.94 1088.98,-319.76 1087.19,-313"/>
</g>
<!-- Node22 -->
<g id="node22" class="node">
<title>Node22</title>
<g id="a_node22"><a xlink:href="js_2historical_8cpp.html" target="_top" xlink:title=" ">
<polygon fill="white" stroke="black" points="1358,-252 1358,-271 1468,-271 1468,-252 1358,-252"/>
<text text-anchor="middle" x="1413" y="-259" font-family="Helvetica,sans-Serif" font-size="10.00">src/js/historical.cpp</text>
</a>
</g>
</g>
<!-- Node17&#45;&gt;Node22 -->
<g id="edge35" class="edge">
<title>Node17&#45;&gt;Node22</title>
<path fill="none" stroke="midnightblue" d="M1095.33,-320.17C1155.42,-311.04 1259.96,-294.49 1349,-277 1358.06,-275.22 1367.79,-273.12 1376.86,-271.07"/>
<polygon fill="midnightblue" stroke="midnightblue" points="1094.72,-316.73 1085.35,-321.68 1095.76,-323.65 1094.72,-316.73"/>
</g>
<!-- Node23 -->
<g id="node23" class="node">
<title>Node23</title>
<g id="a_node23"><a xlink:href="openenclave_8cpp.html" target="_top" xlink:title=" ">
<polygon fill="white" stroke="black" points="856,-252 856,-271 984,-271 984,-252 856,-252"/>
<text text-anchor="middle" x="920" y="-259" font-family="Helvetica,sans-Serif" font-size="10.00">src/js/openenclave.cpp</text>
</a>
</g>
</g>
<!-- Node17&#45;&gt;Node23 -->
<g id="edge37" class="edge">
<title>Node17&#45;&gt;Node23</title>
<path fill="none" stroke="midnightblue" d="M1020.36,-314.27C995.41,-301.4 958.2,-282.21 936.8,-271.17"/>
<polygon fill="midnightblue" stroke="midnightblue" points="1018.78,-317.39 1029.27,-318.87 1021.99,-311.17 1018.78,-317.39"/>
</g>
<!-- Node19&#45;&gt;Node6 -->
<g id="edge30" class="edge">
<title>Node19&#45;&gt;Node6</title>
<path fill="none" stroke="midnightblue" d="M825.84,-249.86C832.9,-248.43 840.13,-247.08 847,-246 1016.4,-219.3 1220.06,-204.05 1308.45,-198.24"/>
<polygon fill="midnightblue" stroke="midnightblue" points="824.74,-246.51 815.67,-251.99 826.18,-253.36 824.74,-246.51"/>
</g>
<!-- Node20&#45;&gt;Node6 -->
<g id="edge32" class="edge">
<title>Node20&#45;&gt;Node6</title>
<path fill="none" stroke="midnightblue" d="M1085.45,-249.38C1090.01,-248.19 1094.6,-247.04 1099,-246 1171.86,-228.81 1257.39,-212.62 1308.29,-203.4"/>
<polygon fill="midnightblue" stroke="midnightblue" points="1084.38,-246.04 1075.62,-252 1086.18,-252.8 1084.38,-246.04"/>
</g>
<!-- Node21&#45;&gt;Node6 -->
<g id="edge34" class="edge">
<title>Node21&#45;&gt;Node6</title>
<path fill="none" stroke="midnightblue" d="M1307.36,-244.13C1319.29,-231.42 1335.36,-214.3 1344.9,-204.13"/>
<polygon fill="midnightblue" stroke="midnightblue" points="1304.52,-242.05 1300.23,-251.73 1309.62,-246.84 1304.52,-242.05"/>
</g>
<!-- Node22&#45;&gt;Node6 -->
<g id="edge36" class="edge">
<title>Node22&#45;&gt;Node6</title>
<path fill="none" stroke="midnightblue" d="M1397.89,-244.13C1386.16,-231.42 1370.35,-214.3 1360.96,-204.13"/>
<polygon fill="midnightblue" stroke="midnightblue" points="1395.55,-246.76 1404.91,-251.73 1400.7,-242.01 1395.55,-246.76"/>
</g>
<!-- Node24&#45;&gt;Node9 -->
<g id="edge42" class="edge">
<title>Node24&#45;&gt;Node9</title>
<path fill="none" stroke="midnightblue" d="M1404.67,-178.62C1150.82,-129.6 858.09,-90.47 733.28,-74.61"/>
<polygon fill="midnightblue" stroke="midnightblue" points="1404.34,-182.12 1414.83,-180.59 1405.68,-175.25 1404.34,-182.12"/>
</g>
<!-- Node25 -->
<g id="node25" class="node">
<title>Node25</title>
<g id="a_node25"><a xlink:href="historical__transaction__fetcher_8h.html" target="_top" xlink:title=" ">
<polygon fill="white" stroke="black" points="1229.5,-112.5 1229.5,-142.5 1354.5,-142.5 1354.5,-112.5 1229.5,-112.5"/>
<text text-anchor="start" x="1237.5" y="-130.5" font-family="Helvetica,sans-Serif" font-size="10.00">src/indexing/historical</text>
<text text-anchor="middle" x="1292" y="-119.5" font-family="Helvetica,sans-Serif" font-size="10.00">_transaction_fetcher.h</text>
</a>
</g>
</g>
<!-- Node24&#45;&gt;Node25 -->
<g id="edge43" class="edge">
<title>Node24&#45;&gt;Node25</title>
<path fill="none" stroke="midnightblue" d="M1420.12,-175.82C1391.83,-165.37 1356.51,-152.32 1330.11,-142.58"/>
<polygon fill="midnightblue" stroke="midnightblue" points="1419.22,-179.21 1429.81,-179.4 1421.64,-172.65 1419.22,-179.21"/>
</g>
<!-- Node25&#45;&gt;Node9 -->
<g id="edge44" class="edge">
<title>Node25&#45;&gt;Node9</title>
<path fill="none" stroke="midnightblue" d="M1219.33,-119.53C1096.09,-107.7 848.29,-83.92 733.26,-72.88"/>
<polygon fill="midnightblue" stroke="midnightblue" points="1219.14,-123.02 1229.43,-120.49 1219.81,-116.06 1219.14,-123.02"/>
</g>
<!-- Node26&#45;&gt;Node9 -->
<g id="edge48" class="edge">
<title>Node26&#45;&gt;Node9</title>
<path fill="none" stroke="midnightblue" d="M1703.29,-311.77C1671.57,-282.53 1599.56,-219.16 1530,-179 1461.1,-139.23 1441.57,-129.69 1364,-112 1244.79,-84.81 879.09,-72.44 733.11,-68.49"/>
<polygon fill="midnightblue" stroke="midnightblue" points="1701.09,-314.5 1710.8,-318.74 1705.86,-309.37 1701.09,-314.5"/>
</g>
<!-- Node27&#45;&gt;Node12 -->
<g id="edge50" class="edge">
<title>Node27&#45;&gt;Node12</title>
<path fill="none" stroke="midnightblue" d="M1388.25,-441.91C1261.46,-428.22 1020.36,-397.41 821,-344 753.72,-325.97 678.26,-294.65 637.04,-276.54"/>
<polygon fill="midnightblue" stroke="midnightblue" points="1387.99,-445.4 1398.3,-442.98 1388.73,-438.44 1387.99,-445.4"/>
</g>
<!-- Node27&#45;&gt;Node16 -->
<g id="edge51" class="edge">
<title>Node27&#45;&gt;Node16</title>
<path fill="none" stroke="midnightblue" d="M1510.1,-431.36C1529.1,-420.69 1551.83,-407.93 1566.58,-399.66"/>
<polygon fill="midnightblue" stroke="midnightblue" points="1508.13,-428.45 1501.12,-436.4 1511.55,-434.56 1508.13,-428.45"/>
</g>
<!-- Node27&#45;&gt;Node26 -->
<g id="edge52" class="edge">
<title>Node27&#45;&gt;Node26</title>
<path fill="none" stroke="midnightblue" d="M1563.99,-441.59C1599.97,-434.6 1640.47,-422.16 1672,-400 1694.78,-383.99 1709.99,-353.48 1716.46,-338.39"/>
<polygon fill="midnightblue" stroke="midnightblue" points="1563.18,-438.18 1553.97,-443.41 1564.43,-445.06 1563.18,-438.18"/>
</g>
</g>
</svg>
