<?xml version="1.0" encoding="UTF-8" standalone="no"?>
<!DOCTYPE svg PUBLIC "-//W3C//DTD SVG 1.1//EN"
 "http://www.w3.org/Graphics/SVG/1.1/DTD/svg11.dtd">
<!-- Generated by graphviz version 2.43.0 (0)
 -->
<!-- Title: src/ds/non_blocking.h Pages: 1 -->
<svg width="1022pt" height="308pt"
 viewBox="0.00 0.00 1022.00 308.00" xmlns="http://www.w3.org/2000/svg" xmlns:xlink="http://www.w3.org/1999/xlink">
<g id="graph0" class="graph" transform="scale(1 1) rotate(0) translate(4 304)">
<title>src/ds/non_blocking.h</title>
<polygon fill="white" stroke="transparent" points="-4,4 -4,-304 1018,-304 1018,4 -4,4"/>
<!-- Node1 -->
<g id="node1" class="node">
<title>Node1</title>
<g id="a_node1"><a xlink:title=" ">
<polygon fill="#bfbfbf" stroke="black" points="709,-280.5 709,-299.5 831,-299.5 831,-280.5 709,-280.5"/>
<text text-anchor="middle" x="770" y="-287.5" font-family="Helvetica,sans-Serif" font-size="10.00">src/ds/non_blocking.h</text>
</a>
</g>
</g>
<!-- Node2 -->
<g id="node2" class="node">
<title>Node2</title>
<g id="a_node2"><a xlink:href="ring__buffer_8h.html" target="_top" xlink:title=" ">
<polygon fill="white" stroke="black" points="648.5,-224.5 648.5,-243.5 725.5,-243.5 725.5,-224.5 648.5,-224.5"/>
<text text-anchor="middle" x="687" y="-231.5" font-family="Helvetica,sans-Serif" font-size="10.00">ring_buffer.h</text>
</a>
</g>
</g>
<!-- Node1&#45;&gt;Node2 -->
<g id="edge1" class="edge">
<title>Node1&#45;&gt;Node2</title>
<path fill="none" stroke="midnightblue" d="M756.66,-280.32C743.84,-271.98 724.22,-259.21 709.06,-249.35"/>
<polygon fill="midnightblue" stroke="midnightblue" points="710.59,-246.17 700.3,-243.65 706.78,-252.04 710.59,-246.17"/>
</g>
<!-- Node11 -->
<g id="node11" class="node">
<title>Node11</title>
<g id="a_node11"><a xlink:title=" ">
<polygon fill="white" stroke="#bfbfbf" points="540.5,-0.5 540.5,-19.5 587.5,-19.5 587.5,-0.5 540.5,-0.5"/>
<text text-anchor="middle" x="564" y="-7.5" font-family="Helvetica,sans-Serif" font-size="10.00">vector</text>
</a>
</g>
</g>
<!-- Node1&#45;&gt;Node11 -->
<g id="edge42" class="edge">
<title>Node1&#45;&gt;Node11</title>
<path fill="none" stroke="midnightblue" d="M774.25,-280.11C789.69,-246.39 839.07,-124.76 783,-56 760.01,-27.81 653.3,-16.78 597.78,-12.89"/>
<polygon fill="midnightblue" stroke="midnightblue" points="597.93,-9.39 587.72,-12.22 597.47,-16.38 597.93,-9.39"/>
</g>
<!-- Node21 -->
<g id="node21" class="node">
<title>Node21</title>
<g id="a_node21"><a xlink:title=" ">
<polygon fill="white" stroke="#bfbfbf" points="62,-56.5 62,-75.5 120,-75.5 120,-56.5 62,-56.5"/>
<text text-anchor="middle" x="91" y="-63.5" font-family="Helvetica,sans-Serif" font-size="10.00">memory</text>
</a>
</g>
</g>
<!-- Node1&#45;&gt;Node21 -->
<g id="edge41" class="edge">
<title>Node1&#45;&gt;Node21</title>
<path fill="none" stroke="midnightblue" d="M708.72,-287.68C589,-282.29 320.03,-256.13 140,-132 122.42,-119.88 108.52,-99.42 100.08,-84.68"/>
<polygon fill="midnightblue" stroke="midnightblue" points="102.98,-82.69 95.13,-75.58 96.83,-86.03 102.98,-82.69"/>
</g>
<!-- Node24 -->
<g id="node24" class="node">
<title>Node24</title>
<g id="a_node24"><a xlink:title=" ">
<polygon fill="white" stroke="#bfbfbf" points="662.5,-112.5 662.5,-131.5 741.5,-131.5 741.5,-112.5 662.5,-112.5"/>
<text text-anchor="middle" x="702" y="-119.5" font-family="Helvetica,sans-Serif" font-size="10.00">fmt/format.h</text>
</a>
</g>
</g>
<!-- Node1&#45;&gt;Node24 -->
<g id="edge40" class="edge">
<title>Node1&#45;&gt;Node24</title>
<path fill="none" stroke="midnightblue" d="M766.34,-280.08C755.59,-253.83 723.93,-176.55 709.42,-141.12"/>
<polygon fill="midnightblue" stroke="midnightblue" points="712.54,-139.5 705.51,-131.57 706.06,-142.15 712.54,-139.5"/>
</g>
<!-- Node27 -->
<g id="node27" class="node">
<title>Node27</title>
<g id="a_node27"><a xlink:title=" ">
<polygon fill="white" stroke="#bfbfbf" points="836.5,-224.5 836.5,-243.5 883.5,-243.5 883.5,-224.5 836.5,-224.5"/>
<text text-anchor="middle" x="860" y="-231.5" font-family="Helvetica,sans-Serif" font-size="10.00">deque</text>
</a>
</g>
</g>
<!-- Node1&#45;&gt;Node27 -->
<g id="edge39" class="edge">
<title>Node1&#45;&gt;Node27</title>
<path fill="none" stroke="midnightblue" d="M784.46,-280.32C798.5,-271.9 820.05,-258.97 836.54,-249.07"/>
<polygon fill="midnightblue" stroke="midnightblue" points="838.8,-251.8 845.58,-243.65 835.2,-245.8 838.8,-251.8"/>
</g>
<!-- Node3 -->
<g id="node3" class="node">
<title>Node3</title>
<g id="a_node3"><a xlink:href="ring__buffer__types_8h.html" target="_top" xlink:title=" ">
<polygon fill="white" stroke="black" points="342,-168.5 342,-187.5 452,-187.5 452,-168.5 342,-168.5"/>
<text text-anchor="middle" x="397" y="-175.5" font-family="Helvetica,sans-Serif" font-size="10.00">ring_buffer_types.h</text>
</a>
</g>
</g>
<!-- Node2&#45;&gt;Node3 -->
<g id="edge2" class="edge">
<title>Node2&#45;&gt;Node3</title>
<path fill="none" stroke="midnightblue" d="M648.49,-225.83C598.35,-216.49 510.33,-200.1 452.86,-189.4"/>
<polygon fill="midnightblue" stroke="midnightblue" points="453.32,-185.93 442.85,-187.54 452.04,-192.81 453.32,-185.93"/>
</g>
<!-- Node19 -->
<g id="node19" class="node">
<title>Node19</title>
<g id="a_node19"><a xlink:title=" ">
<polygon fill="white" stroke="#bfbfbf" points="964,-0.5 964,-19.5 1014,-19.5 1014,-0.5 964,-0.5"/>
<text text-anchor="middle" x="989" y="-7.5" font-family="Helvetica,sans-Serif" font-size="10.00">cstring</text>
</a>
</g>
</g>
<!-- Node2&#45;&gt;Node19 -->
<g id="edge37" class="edge">
<title>Node2&#45;&gt;Node19</title>
<path fill="none" stroke="midnightblue" d="M720.2,-224.37C780.33,-206.96 907.09,-161.79 973,-76 983.18,-62.75 986.97,-43.89 988.34,-29.89"/>
<polygon fill="midnightblue" stroke="midnightblue" points="991.86,-29.71 989.01,-19.51 984.87,-29.26 991.86,-29.71"/>
</g>
<!-- Node26 -->
<g id="node26" class="node">
<title>Node26</title>
<g id="a_node26"><a xlink:title=" ">
<polygon fill="white" stroke="#bfbfbf" points="638.5,-168.5 638.5,-187.5 703.5,-187.5 703.5,-168.5 638.5,-168.5"/>
<text text-anchor="middle" x="671" y="-175.5" font-family="Helvetica,sans-Serif" font-size="10.00">functional</text>
</a>
</g>
</g>
<!-- Node2&#45;&gt;Node26 -->
<g id="edge38" class="edge">
<title>Node2&#45;&gt;Node26</title>
<path fill="none" stroke="midnightblue" d="M684.36,-224.08C682.21,-216.85 679.12,-206.41 676.45,-197.4"/>
<polygon fill="midnightblue" stroke="midnightblue" points="679.79,-196.34 673.59,-187.75 673.08,-198.33 679.79,-196.34"/>
</g>
<!-- Node4 -->
<g id="node4" class="node">
<title>Node4</title>
<g id="a_node4"><a xlink:href="nonstd_8h.html" target="_top" xlink:title=" ">
<polygon fill="white" stroke="black" points="138,-56.5 138,-75.5 228,-75.5 228,-56.5 138,-56.5"/>
<text text-anchor="middle" x="183" y="-63.5" font-family="Helvetica,sans-Serif" font-size="10.00">ccf/ds/nonstd.h</text>
</a>
</g>
</g>
<!-- Node3&#45;&gt;Node4 -->
<g id="edge3" class="edge">
<title>Node3&#45;&gt;Node4</title>
<path fill="none" stroke="midnightblue" d="M341.99,-175.01C276.3,-171.34 172.22,-160.99 148,-132 135.38,-116.9 150.49,-96.52 164.61,-82.64"/>
<polygon fill="midnightblue" stroke="midnightblue" points="167.19,-85.02 172.17,-75.67 162.45,-79.87 167.19,-85.02"/>
</g>
<!-- Node8 -->
<g id="node8" class="node">
<title>Node8</title>
<g id="a_node8"><a xlink:title=" ">
<polygon fill="white" stroke="#bfbfbf" points="388,-0.5 388,-19.5 432,-19.5 432,-0.5 388,-0.5"/>
<text text-anchor="middle" x="410" y="-7.5" font-family="Helvetica,sans-Serif" font-size="10.00">string</text>
</a>
</g>
</g>
<!-- Node3&#45;&gt;Node8 -->
<g id="edge35" class="edge">
<title>Node3&#45;&gt;Node8</title>
<path fill="none" stroke="midnightblue" d="M397.7,-168.08C399.75,-141.95 405.75,-65.21 408.55,-29.58"/>
<polygon fill="midnightblue" stroke="midnightblue" points="412.04,-29.81 409.33,-19.57 405.06,-29.26 412.04,-29.81"/>
</g>
<!-- Node3&#45;&gt;Node11 -->
<g id="edge36" class="edge">
<title>Node3&#45;&gt;Node11</title>
<path fill="none" stroke="midnightblue" d="M416,-168.29C446.33,-153.48 505.76,-120.6 540,-76 550.52,-62.3 556.79,-43.51 560.27,-29.66"/>
<polygon fill="midnightblue" stroke="midnightblue" points="563.71,-30.33 562.49,-19.8 556.88,-28.79 563.71,-30.33"/>
</g>
<!-- Node12 -->
<g id="node12" class="node">
<title>Node12</title>
<g id="a_node12"><a xlink:href="ds_2hash_8h.html" target="_top" xlink:title=" ">
<polygon fill="white" stroke="black" points="581.5,-112.5 581.5,-131.5 644.5,-131.5 644.5,-112.5 581.5,-112.5"/>
<text text-anchor="middle" x="613" y="-119.5" font-family="Helvetica,sans-Serif" font-size="10.00">ds/hash.h</text>
</a>
</g>
</g>
<!-- Node3&#45;&gt;Node12 -->
<g id="edge11" class="edge">
<title>Node3&#45;&gt;Node12</title>
<path fill="none" stroke="midnightblue" d="M431.23,-168.44C469.28,-158.93 530.74,-143.57 571.5,-133.37"/>
<polygon fill="midnightblue" stroke="midnightblue" points="572.54,-136.72 581.39,-130.9 570.84,-129.93 572.54,-136.72"/>
</g>
<!-- Node17 -->
<g id="node17" class="node">
<title>Node17</title>
<g id="a_node17"><a xlink:href="serializer_8h.html" target="_top" xlink:title=" ">
<polygon fill="white" stroke="black" points="299,-112.5 299,-131.5 369,-131.5 369,-112.5 299,-112.5"/>
<text text-anchor="middle" x="334" y="-119.5" font-family="Helvetica,sans-Serif" font-size="10.00">serializer.h</text>
</a>
</g>
</g>
<!-- Node3&#45;&gt;Node17 -->
<g id="edge20" class="edge">
<title>Node3&#45;&gt;Node17</title>
<path fill="none" stroke="midnightblue" d="M386.88,-168.32C377.47,-160.26 363.26,-148.08 351.93,-138.37"/>
<polygon fill="midnightblue" stroke="midnightblue" points="354.18,-135.68 344.31,-131.83 349.62,-141 354.18,-135.68"/>
</g>
<!-- Node23 -->
<g id="node23" class="node">
<title>Node23</title>
<g id="a_node23"><a xlink:title=" ">
<polygon fill="white" stroke="#bfbfbf" points="157,-112.5 157,-131.5 207,-131.5 207,-112.5 157,-112.5"/>
<text text-anchor="middle" x="182" y="-119.5" font-family="Helvetica,sans-Serif" font-size="10.00">atomic</text>
</a>
</g>
</g>
<!-- Node3&#45;&gt;Node23 -->
<g id="edge32" class="edge">
<title>Node3&#45;&gt;Node23</title>
<path fill="none" stroke="midnightblue" d="M361.92,-168.45C327.43,-160 273.01,-146.57 216.98,-132.22"/>
<polygon fill="midnightblue" stroke="midnightblue" points="217.8,-128.82 207.24,-129.73 216.06,-135.6 217.8,-128.82"/>
</g>
<!-- Node3&#45;&gt;Node24 -->
<g id="edge33" class="edge">
<title>Node3&#45;&gt;Node24</title>
<path fill="none" stroke="midnightblue" d="M446.1,-168.48C495.53,-159.88 574.26,-146.12 652.4,-132.1"/>
<polygon fill="midnightblue" stroke="midnightblue" points="653.2,-135.51 662.42,-130.3 651.96,-128.62 653.2,-135.51"/>
</g>
<!-- Node25 -->
<g id="node25" class="node">
<title>Node25</title>
<g id="a_node25"><a xlink:title=" ">
<polygon fill="white" stroke="#bfbfbf" points="225,-112.5 225,-131.5 281,-131.5 281,-112.5 225,-112.5"/>
<text text-anchor="middle" x="253" y="-119.5" font-family="Helvetica,sans-Serif" font-size="10.00">optional</text>
</a>
</g>
</g>
<!-- Node3&#45;&gt;Node25 -->
<g id="edge34" class="edge">
<title>Node3&#45;&gt;Node25</title>
<path fill="none" stroke="midnightblue" d="M374.18,-168.44C350.17,-159.44 312.17,-145.19 285.13,-135.05"/>
<polygon fill="midnightblue" stroke="midnightblue" points="286.3,-131.75 275.71,-131.52 283.84,-138.3 286.3,-131.75"/>
</g>
<!-- Node5 -->
<g id="node5" class="node">
<title>Node5</title>
<g id="a_node5"><a xlink:title=" ">
<polygon fill="white" stroke="#bfbfbf" points="0,-0.5 0,-19.5 64,-19.5 64,-0.5 0,-0.5"/>
<text text-anchor="middle" x="32" y="-7.5" font-family="Helvetica,sans-Serif" font-size="10.00">algorithm</text>
</a>
</g>
</g>
<!-- Node4&#45;&gt;Node5 -->
<g id="edge4" class="edge">
<title>Node4&#45;&gt;Node5</title>
<path fill="none" stroke="midnightblue" d="M159.07,-56.44C133.78,-47.4 93.7,-33.06 65.32,-22.92"/>
<polygon fill="midnightblue" stroke="midnightblue" points="66.41,-19.59 55.81,-19.52 64.05,-26.18 66.41,-19.59"/>
</g>
<!-- Node6 -->
<g id="node6" class="node">
<title>Node6</title>
<g id="a_node6"><a xlink:title=" ">
<polygon fill="white" stroke="#bfbfbf" points="328,-0.5 328,-19.5 370,-19.5 370,-0.5 328,-0.5"/>
<text text-anchor="middle" x="349" y="-7.5" font-family="Helvetica,sans-Serif" font-size="10.00">array</text>
</a>
</g>
</g>
<!-- Node4&#45;&gt;Node6 -->
<g id="edge5" class="edge">
<title>Node4&#45;&gt;Node6</title>
<path fill="none" stroke="midnightblue" d="M209.3,-56.44C238.92,-46.81 286.98,-31.18 318.29,-20.99"/>
<polygon fill="midnightblue" stroke="midnightblue" points="319.4,-24.31 327.82,-17.89 317.23,-17.65 319.4,-24.31"/>
</g>
<!-- Node7 -->
<g id="node7" class="node">
<title>Node7</title>
<g id="a_node7"><a xlink:title=" ">
<polygon fill="white" stroke="#bfbfbf" points="82.5,-0.5 82.5,-19.5 131.5,-19.5 131.5,-0.5 82.5,-0.5"/>
<text text-anchor="middle" x="107" y="-7.5" font-family="Helvetica,sans-Serif" font-size="10.00">cctype</text>
</a>
</g>
</g>
<!-- Node4&#45;&gt;Node7 -->
<g id="edge6" class="edge">
<title>Node4&#45;&gt;Node7</title>
<path fill="none" stroke="midnightblue" d="M170.79,-56.32C159.22,-48.11 141.62,-35.6 127.84,-25.81"/>
<polygon fill="midnightblue" stroke="midnightblue" points="129.61,-22.77 119.43,-19.83 125.56,-28.48 129.61,-22.77"/>
</g>
<!-- Node4&#45;&gt;Node8 -->
<g id="edge7" class="edge">
<title>Node4&#45;&gt;Node8</title>
<path fill="none" stroke="midnightblue" d="M223.33,-56.44C260.97,-48.3 318.92,-35.37 377.84,-20.2"/>
<polygon fill="midnightblue" stroke="midnightblue" points="378.89,-23.54 387.69,-17.64 377.13,-16.76 378.89,-23.54"/>
</g>
<!-- Node9 -->
<g id="node9" class="node">
<title>Node9</title>
<g id="a_node9"><a xlink:title=" ">
<polygon fill="white" stroke="#bfbfbf" points="149.5,-0.5 149.5,-19.5 222.5,-19.5 222.5,-0.5 149.5,-0.5"/>
<text text-anchor="middle" x="186" y="-7.5" font-family="Helvetica,sans-Serif" font-size="10.00">string_view</text>
</a>
</g>
</g>
<!-- Node4&#45;&gt;Node9 -->
<g id="edge8" class="edge">
<title>Node4&#45;&gt;Node9</title>
<path fill="none" stroke="midnightblue" d="M183.5,-56.08C183.89,-49.01 184.45,-38.86 184.95,-29.99"/>
<polygon fill="midnightblue" stroke="midnightblue" points="188.45,-29.93 185.51,-19.75 181.46,-29.54 188.45,-29.93"/>
</g>
<!-- Node10 -->
<g id="node10" class="node">
<title>Node10</title>
<g id="a_node10"><a xlink:title=" ">
<polygon fill="white" stroke="#bfbfbf" points="240.5,-0.5 240.5,-19.5 309.5,-19.5 309.5,-0.5 240.5,-0.5"/>
<text text-anchor="middle" x="275" y="-7.5" font-family="Helvetica,sans-Serif" font-size="10.00">type_traits</text>
</a>
</g>
</g>
<!-- Node4&#45;&gt;Node10 -->
<g id="edge9" class="edge">
<title>Node4&#45;&gt;Node10</title>
<path fill="none" stroke="midnightblue" d="M197.78,-56.32C212.27,-47.82 234.57,-34.73 251.49,-24.8"/>
<polygon fill="midnightblue" stroke="midnightblue" points="253.4,-27.74 260.26,-19.65 249.86,-21.7 253.4,-27.74"/>
</g>
<!-- Node4&#45;&gt;Node11 -->
<g id="edge10" class="edge">
<title>Node4&#45;&gt;Node11</title>
<path fill="none" stroke="midnightblue" d="M228.06,-57.34C231.08,-56.87 234.08,-56.42 237,-56 364.11,-37.63 400.08,-45 530.34,-19.85"/>
<polygon fill="midnightblue" stroke="midnightblue" points="531.16,-23.26 540.3,-17.9 529.82,-16.39 531.16,-23.26"/>
</g>
<!-- Node12&#45;&gt;Node6 -->
<g id="edge16" class="edge">
<title>Node12&#45;&gt;Node6</title>
<path fill="none" stroke="midnightblue" d="M581.49,-115.37C547.72,-108.65 493.04,-95.78 449,-76 418.7,-62.39 387.1,-40.31 367.73,-25.72"/>
<polygon fill="midnightblue" stroke="midnightblue" points="369.81,-22.91 359.75,-19.6 365.56,-28.46 369.81,-22.91"/>
</g>
<!-- Node12&#45;&gt;Node11 -->
<g id="edge19" class="edge">
<title>Node12&#45;&gt;Node11</title>
<path fill="none" stroke="midnightblue" d="M609.16,-112.37C601.18,-94.46 582.67,-52.92 572,-28.95"/>
<polygon fill="midnightblue" stroke="midnightblue" points="575.09,-27.3 567.83,-19.59 568.7,-30.15 575.09,-27.3"/>
</g>
<!-- Node13 -->
<g id="node13" class="node">
<title>Node13</title>
<g id="a_node13"><a xlink:href="siphash_8h.html" target="_top" xlink:title=" ">
<polygon fill="white" stroke="black" points="868.5,-56.5 868.5,-75.5 963.5,-75.5 963.5,-56.5 868.5,-56.5"/>
<text text-anchor="middle" x="916" y="-63.5" font-family="Helvetica,sans-Serif" font-size="10.00">ccf/ds/siphash.h</text>
</a>
</g>
</g>
<!-- Node12&#45;&gt;Node13 -->
<g id="edge12" class="edge">
<title>Node12&#45;&gt;Node13</title>
<path fill="none" stroke="midnightblue" d="M644.85,-113.68C647.6,-113.09 650.35,-112.53 653,-112 723.44,-98.06 805,-84.5 858.39,-75.98"/>
<polygon fill="midnightblue" stroke="midnightblue" points="859.03,-79.42 868.35,-74.39 857.93,-72.51 859.03,-79.42"/>
</g>
<!-- Node15 -->
<g id="node15" class="node">
<title>Node15</title>
<g id="a_node15"><a xlink:title=" ">
<polygon fill="white" stroke="#bfbfbf" points="815,-0.5 815,-19.5 865,-19.5 865,-0.5 815,-0.5"/>
<text text-anchor="middle" x="840" y="-7.5" font-family="Helvetica,sans-Serif" font-size="10.00">cstdint</text>
</a>
</g>
</g>
<!-- Node12&#45;&gt;Node15 -->
<g id="edge17" class="edge">
<title>Node12&#45;&gt;Node15</title>
<path fill="none" stroke="midnightblue" d="M644.82,-113.64C690.69,-102.87 771.22,-83.3 783,-76 802.47,-63.94 818.98,-43.16 829.14,-28.35"/>
<polygon fill="midnightblue" stroke="midnightblue" points="832.3,-29.9 834.87,-19.62 826.45,-26.06 832.3,-29.9"/>
</g>
<!-- Node16 -->
<g id="node16" class="node">
<title>Node16</title>
<g id="a_node16"><a xlink:title=" ">
<polygon fill="white" stroke="#bfbfbf" points="625.5,-56.5 625.5,-75.5 774.5,-75.5 774.5,-56.5 625.5,-56.5"/>
<text text-anchor="middle" x="700" y="-63.5" font-family="Helvetica,sans-Serif" font-size="10.00">small_vector/SmallVector.h</text>
</a>
</g>
</g>
<!-- Node12&#45;&gt;Node16 -->
<g id="edge18" class="edge">
<title>Node12&#45;&gt;Node16</title>
<path fill="none" stroke="midnightblue" d="M626.98,-112.32C640.55,-103.9 661.38,-90.97 677.32,-81.07"/>
<polygon fill="midnightblue" stroke="midnightblue" points="679.41,-83.9 686.06,-75.65 675.71,-77.95 679.41,-83.9"/>
</g>
<!-- Node13&#45;&gt;Node11 -->
<g id="edge15" class="edge">
<title>Node13&#45;&gt;Node11</title>
<path fill="none" stroke="midnightblue" d="M868.16,-57.66C796.02,-46.59 661.12,-25.9 598.09,-16.23"/>
<polygon fill="midnightblue" stroke="midnightblue" points="598.31,-12.72 587.9,-14.67 597.25,-19.64 598.31,-12.72"/>
</g>
<!-- Node14 -->
<g id="node14" class="node">
<title>Node14</title>
<g id="a_node14"><a xlink:title=" ">
<polygon fill="white" stroke="#bfbfbf" points="889.5,-0.5 889.5,-19.5 942.5,-19.5 942.5,-0.5 889.5,-0.5"/>
<text text-anchor="middle" x="916" y="-7.5" font-family="Helvetica,sans-Serif" font-size="10.00">cstddef</text>
</a>
</g>
</g>
<!-- Node13&#45;&gt;Node14 -->
<g id="edge13" class="edge">
<title>Node13&#45;&gt;Node14</title>
<path fill="none" stroke="midnightblue" d="M916,-56.08C916,-49.01 916,-38.86 916,-29.99"/>
<polygon fill="midnightblue" stroke="midnightblue" points="919.5,-29.75 916,-19.75 912.5,-29.75 919.5,-29.75"/>
</g>
<!-- Node13&#45;&gt;Node15 -->
<g id="edge14" class="edge">
<title>Node13&#45;&gt;Node15</title>
<path fill="none" stroke="midnightblue" d="M903.79,-56.32C892.22,-48.11 874.62,-35.6 860.84,-25.81"/>
<polygon fill="midnightblue" stroke="midnightblue" points="862.61,-22.77 852.43,-19.83 858.56,-28.48 862.61,-22.77"/>
</g>
<!-- Node17&#45;&gt;Node4 -->
<g id="edge21" class="edge">
<title>Node17&#45;&gt;Node4</title>
<path fill="none" stroke="midnightblue" d="M310.07,-112.44C284.78,-103.4 244.7,-89.06 216.32,-78.92"/>
<polygon fill="midnightblue" stroke="midnightblue" points="217.41,-75.59 206.81,-75.52 215.05,-82.18 217.41,-75.59"/>
</g>
<!-- Node17&#45;&gt;Node10 -->
<g id="edge30" class="edge">
<title>Node17&#45;&gt;Node10</title>
<path fill="none" stroke="midnightblue" d="M329.37,-112.37C319.72,-94.38 297.29,-52.55 284.45,-28.63"/>
<polygon fill="midnightblue" stroke="midnightblue" points="287.42,-26.75 279.61,-19.59 281.25,-30.06 287.42,-26.75"/>
</g>
<!-- Node17&#45;&gt;Node11 -->
<g id="edge31" class="edge">
<title>Node17&#45;&gt;Node11</title>
<path fill="none" stroke="midnightblue" d="M347.82,-112.34C369.08,-99.21 411.3,-73.92 449,-56 475.94,-43.19 507.56,-31.02 530.82,-22.57"/>
<polygon fill="midnightblue" stroke="midnightblue" points="532.01,-25.86 540.24,-19.18 529.65,-19.27 532.01,-25.86"/>
</g>
<!-- Node18 -->
<g id="node18" class="node">
<title>Node18</title>
<g id="a_node18"><a xlink:href="serialized_8h.html" target="_top" xlink:title=" ">
<polygon fill="white" stroke="black" points="458.5,-56.5 458.5,-75.5 531.5,-75.5 531.5,-56.5 458.5,-56.5"/>
<text text-anchor="middle" x="495" y="-63.5" font-family="Helvetica,sans-Serif" font-size="10.00">serialized.h</text>
</a>
</g>
</g>
<!-- Node17&#45;&gt;Node18 -->
<g id="edge22" class="edge">
<title>Node17&#45;&gt;Node18</title>
<path fill="none" stroke="midnightblue" d="M359.51,-112.44C386.6,-103.36 429.59,-88.94 459.87,-78.78"/>
<polygon fill="midnightblue" stroke="midnightblue" points="461.24,-82.01 469.61,-75.52 459.01,-75.38 461.24,-82.01"/>
</g>
<!-- Node17&#45;&gt;Node21 -->
<g id="edge28" class="edge">
<title>Node17&#45;&gt;Node21</title>
<path fill="none" stroke="midnightblue" d="M298.77,-113.45C259.9,-105.08 195.21,-91.03 130.07,-76.22"/>
<polygon fill="midnightblue" stroke="midnightblue" points="130.56,-72.74 120.03,-73.93 129.01,-79.56 130.56,-72.74"/>
</g>
<!-- Node22 -->
<g id="node22" class="node">
<title>Node22</title>
<g id="a_node22"><a xlink:title=" ">
<polygon fill="white" stroke="#bfbfbf" points="246.5,-56.5 246.5,-75.5 287.5,-75.5 287.5,-56.5 246.5,-56.5"/>
<text text-anchor="middle" x="267" y="-63.5" font-family="Helvetica,sans-Serif" font-size="10.00">tuple</text>
</a>
</g>
</g>
<!-- Node17&#45;&gt;Node22 -->
<g id="edge29" class="edge">
<title>Node17&#45;&gt;Node22</title>
<path fill="none" stroke="midnightblue" d="M323.24,-112.32C313.23,-104.26 298.11,-92.08 286.07,-82.37"/>
<polygon fill="midnightblue" stroke="midnightblue" points="287.94,-79.38 277.96,-75.83 283.55,-84.83 287.94,-79.38"/>
</g>
<!-- Node18&#45;&gt;Node8 -->
<g id="edge26" class="edge">
<title>Node18&#45;&gt;Node8</title>
<path fill="none" stroke="midnightblue" d="M481.34,-56.32C468.08,-47.9 447.73,-34.97 432.15,-25.07"/>
<polygon fill="midnightblue" stroke="midnightblue" points="433.94,-22.06 423.62,-19.65 430.19,-27.97 433.94,-22.06"/>
</g>
<!-- Node18&#45;&gt;Node11 -->
<g id="edge27" class="edge">
<title>Node18&#45;&gt;Node11</title>
<path fill="none" stroke="midnightblue" d="M506.09,-56.32C516.49,-48.18 532.26,-35.84 544.72,-26.09"/>
<polygon fill="midnightblue" stroke="midnightblue" points="546.99,-28.75 552.71,-19.83 542.68,-23.24 546.99,-28.75"/>
</g>
<!-- Node18&#45;&gt;Node15 -->
<g id="edge23" class="edge">
<title>Node18&#45;&gt;Node15</title>
<path fill="none" stroke="midnightblue" d="M531.59,-59.27C598.29,-48.83 738.8,-26.84 804.6,-16.54"/>
<polygon fill="midnightblue" stroke="midnightblue" points="805.53,-19.94 814.87,-14.93 804.45,-13.02 805.53,-19.94"/>
</g>
<!-- Node18&#45;&gt;Node19 -->
<g id="edge24" class="edge">
<title>Node18&#45;&gt;Node19</title>
<path fill="none" stroke="midnightblue" d="M531.82,-62.01C625.35,-54.31 870.38,-33.46 951,-20 951.91,-19.85 952.82,-19.69 953.75,-19.52"/>
<polygon fill="midnightblue" stroke="midnightblue" points="954.65,-22.91 963.75,-17.48 953.25,-16.05 954.65,-22.91"/>
</g>
<!-- Node20 -->
<g id="node20" class="node">
<title>Node20</title>
<g id="a_node20"><a xlink:title=" ">
<polygon fill="white" stroke="#bfbfbf" points="457.5,-0.5 457.5,-19.5 522.5,-19.5 522.5,-0.5 457.5,-0.5"/>
<text text-anchor="middle" x="490" y="-7.5" font-family="Helvetica,sans-Serif" font-size="10.00">stdexcept</text>
</a>
</g>
</g>
<!-- Node18&#45;&gt;Node20 -->
<g id="edge25" class="edge">
<title>Node18&#45;&gt;Node20</title>
<path fill="none" stroke="midnightblue" d="M494.17,-56.08C493.52,-49.01 492.58,-38.86 491.76,-29.99"/>
<polygon fill="midnightblue" stroke="midnightblue" points="495.22,-29.39 490.81,-19.75 488.25,-30.03 495.22,-29.39"/>
</g>
</g>
</svg>
