<?xml version="1.0" encoding="UTF-8" standalone="no"?>
<!DOCTYPE svg PUBLIC "-//W3C//DTD SVG 1.1//EN"
 "http://www.w3.org/Graphics/SVG/1.1/DTD/svg11.dtd">
<!-- Generated by graphviz version 2.43.0 (0)
 -->
<!-- Title: include/ccf/ds/openapi.h Pages: 1 -->
<svg width="695pt" height="252pt"
 viewBox="0.00 0.00 694.88 252.00" xmlns="http://www.w3.org/2000/svg" xmlns:xlink="http://www.w3.org/1999/xlink">
<g id="graph0" class="graph" transform="scale(1 1) rotate(0) translate(4 248)">
<title>include/ccf/ds/openapi.h</title>
<polygon fill="white" stroke="transparent" points="-4,4 -4,-248 690.88,-248 690.88,4 -4,4"/>
<!-- Node1 -->
<g id="node1" class="node">
<title>Node1</title>
<g id="a_node1"><a xlink:title=" ">
<polygon fill="#bfbfbf" stroke="black" points="333.88,-224.5 333.88,-243.5 467.88,-243.5 467.88,-224.5 333.88,-224.5"/>
<text text-anchor="middle" x="400.88" y="-231.5" font-family="Helvetica,sans-Serif" font-size="10.00">include/ccf/ds/openapi.h</text>
</a>
</g>
</g>
<!-- Node2 -->
<g id="node2" class="node">
<title>Node2</title>
<g id="a_node2"><a xlink:href="json_8h.html" target="_top" xlink:title=" ">
<polygon fill="white" stroke="black" points="161.38,-168.5 161.38,-187.5 238.38,-187.5 238.38,-168.5 161.38,-168.5"/>
<text text-anchor="middle" x="199.88" y="-175.5" font-family="Helvetica,sans-Serif" font-size="10.00">ccf/ds/json.h</text>
</a>
</g>
</g>
<!-- Node1&#45;&gt;Node2 -->
<g id="edge1" class="edge">
<title>Node1&#45;&gt;Node2</title>
<path fill="none" stroke="midnightblue" d="M369.04,-224.44C334.49,-215.16 279.2,-200.31 241.3,-190.13"/>
<polygon fill="midnightblue" stroke="midnightblue" points="242.15,-186.73 231.58,-187.52 240.33,-193.49 242.15,-186.73"/>
</g>
<!-- Node4 -->
<g id="node4" class="node">
<title>Node4</title>
<g id="a_node4"><a xlink:title=" ">
<polygon fill="white" stroke="#bfbfbf" points="9.88,-0.5 9.88,-19.5 53.88,-19.5 53.88,-0.5 9.88,-0.5"/>
<text text-anchor="middle" x="31.88" y="-7.5" font-family="Helvetica,sans-Serif" font-size="10.00">string</text>
</a>
</g>
</g>
<!-- Node1&#45;&gt;Node4 -->
<g id="edge23" class="edge">
<title>Node1&#45;&gt;Node4</title>
<path fill="none" stroke="midnightblue" d="M333.7,-229.31C282.14,-224.5 210.16,-213.44 151.88,-188 75.96,-154.85 39.89,-150.12 2.88,-76 -5.27,-59.68 5.63,-40.56 16.32,-27.3"/>
<polygon fill="midnightblue" stroke="midnightblue" points="19.17,-29.36 23.11,-19.52 13.89,-24.76 19.17,-29.36"/>
</g>
<!-- Node7 -->
<g id="node7" class="node">
<title>Node7</title>
<g id="a_node7"><a xlink:href="nonstd_8h.html" target="_top" xlink:title=" ">
<polygon fill="white" stroke="black" points="239.88,-56.5 239.88,-75.5 329.88,-75.5 329.88,-56.5 239.88,-56.5"/>
<text text-anchor="middle" x="284.88" y="-63.5" font-family="Helvetica,sans-Serif" font-size="10.00">ccf/ds/nonstd.h</text>
</a>
</g>
</g>
<!-- Node1&#45;&gt;Node7 -->
<g id="edge18" class="edge">
<title>Node1&#45;&gt;Node7</title>
<path fill="none" stroke="midnightblue" d="M398.38,-224.3C392,-203.27 373.52,-148.66 343.88,-112 334.01,-99.78 320.16,-89 308.36,-81.05"/>
<polygon fill="midnightblue" stroke="midnightblue" points="310.14,-78.03 299.84,-75.55 306.34,-83.91 310.14,-78.03"/>
</g>
<!-- Node14 -->
<g id="node14" class="node">
<title>Node14</title>
<g id="a_node14"><a xlink:title=" ">
<polygon fill="white" stroke="#bfbfbf" points="347.88,-56.5 347.88,-75.5 457.88,-75.5 457.88,-56.5 347.88,-56.5"/>
<text text-anchor="middle" x="402.88" y="-63.5" font-family="Helvetica,sans-Serif" font-size="10.00">nlohmann/json.hpp</text>
</a>
</g>
</g>
<!-- Node1&#45;&gt;Node14 -->
<g id="edge21" class="edge">
<title>Node1&#45;&gt;Node14</title>
<path fill="none" stroke="midnightblue" d="M400.99,-224.08C401.31,-197.95 402.23,-121.21 402.66,-85.58"/>
<polygon fill="midnightblue" stroke="midnightblue" points="406.16,-85.61 402.78,-75.57 399.16,-85.53 406.16,-85.61"/>
</g>
<!-- Node16 -->
<g id="node16" class="node">
<title>Node16</title>
<g id="a_node16"><a xlink:href="http__status_8h.html" target="_top" xlink:title=" ">
<polygon fill="white" stroke="black" points="428.88,-168.5 428.88,-187.5 526.88,-187.5 526.88,-168.5 428.88,-168.5"/>
<text text-anchor="middle" x="477.88" y="-175.5" font-family="Helvetica,sans-Serif" font-size="10.00">ccf/http_status.h</text>
</a>
</g>
</g>
<!-- Node1&#45;&gt;Node16 -->
<g id="edge19" class="edge">
<title>Node1&#45;&gt;Node16</title>
<path fill="none" stroke="midnightblue" d="M413.26,-224.32C425.04,-216.06 443.02,-203.45 457.02,-193.63"/>
<polygon fill="midnightblue" stroke="midnightblue" points="459.37,-196.26 465.54,-187.65 455.35,-190.53 459.37,-196.26"/>
</g>
<!-- Node17 -->
<g id="node17" class="node">
<title>Node17</title>
<g id="a_node17"><a xlink:title=" ">
<polygon fill="white" stroke="#bfbfbf" points="544.88,-168.5 544.88,-187.5 624.88,-187.5 624.88,-168.5 544.88,-168.5"/>
<text text-anchor="middle" x="584.88" y="-175.5" font-family="Helvetica,sans-Serif" font-size="10.00">llhttp/llhttp.h</text>
</a>
</g>
</g>
<!-- Node1&#45;&gt;Node17 -->
<g id="edge20" class="edge">
<title>Node1&#45;&gt;Node17</title>
<path fill="none" stroke="midnightblue" d="M430.04,-224.44C461.4,-215.24 511.42,-200.56 546.08,-190.39"/>
<polygon fill="midnightblue" stroke="midnightblue" points="547.26,-193.69 555.87,-187.52 545.28,-186.97 547.26,-193.69"/>
</g>
<!-- Node18 -->
<g id="node18" class="node">
<title>Node18</title>
<g id="a_node18"><a xlink:title=" ">
<polygon fill="white" stroke="#bfbfbf" points="642.88,-168.5 642.88,-187.5 686.88,-187.5 686.88,-168.5 642.88,-168.5"/>
<text text-anchor="middle" x="664.88" y="-175.5" font-family="Helvetica,sans-Serif" font-size="10.00">regex</text>
</a>
</g>
</g>
<!-- Node1&#45;&gt;Node18 -->
<g id="edge22" class="edge">
<title>Node1&#45;&gt;Node18</title>
<path fill="none" stroke="midnightblue" d="M452.54,-224.43C497.73,-216.61 565.31,-204.16 632.67,-188.13"/>
<polygon fill="midnightblue" stroke="midnightblue" points="633.7,-191.48 642.6,-185.74 632.06,-184.67 633.7,-191.48"/>
</g>
<!-- Node3 -->
<g id="node3" class="node">
<title>Node3</title>
<g id="a_node3"><a xlink:href="include_2ccf_2crypto_2base64_8h.html" target="_top" xlink:title=" ">
<polygon fill="white" stroke="black" points="11.88,-56.5 11.88,-75.5 123.88,-75.5 123.88,-56.5 11.88,-56.5"/>
<text text-anchor="middle" x="67.88" y="-63.5" font-family="Helvetica,sans-Serif" font-size="10.00">ccf/crypto/base64.h</text>
</a>
</g>
</g>
<!-- Node2&#45;&gt;Node3 -->
<g id="edge2" class="edge">
<title>Node2&#45;&gt;Node3</title>
<path fill="none" stroke="midnightblue" d="M181.93,-168.48C165.81,-160.37 141.99,-147.16 123.88,-132 106.84,-117.72 90.63,-97.99 80.08,-84.02"/>
<polygon fill="midnightblue" stroke="midnightblue" points="82.76,-81.76 74.01,-75.79 77.12,-85.92 82.76,-81.76"/>
</g>
<!-- Node6 -->
<g id="node6" class="node">
<title>Node6</title>
<g id="a_node6"><a xlink:href="include_2ccf_2ds_2json__schema_8h.html" target="_top" xlink:title=" ">
<polygon fill="white" stroke="black" points="139.38,-112.5 139.38,-131.5 260.38,-131.5 260.38,-112.5 139.38,-112.5"/>
<text text-anchor="middle" x="199.88" y="-119.5" font-family="Helvetica,sans-Serif" font-size="10.00">ccf/ds/json_schema.h</text>
</a>
</g>
</g>
<!-- Node2&#45;&gt;Node6 -->
<g id="edge5" class="edge">
<title>Node2&#45;&gt;Node6</title>
<path fill="none" stroke="midnightblue" d="M199.88,-168.08C199.88,-161.01 199.88,-150.86 199.88,-141.99"/>
<polygon fill="midnightblue" stroke="midnightblue" points="203.38,-141.75 199.88,-131.75 196.38,-141.75 203.38,-141.75"/>
</g>
<!-- Node13 -->
<g id="node13" class="node">
<title>Node13</title>
<g id="a_node13"><a xlink:title=" ">
<polygon fill="white" stroke="#bfbfbf" points="142.38,-56.5 142.38,-75.5 221.38,-75.5 221.38,-56.5 142.38,-56.5"/>
<text text-anchor="middle" x="181.88" y="-63.5" font-family="Helvetica,sans-Serif" font-size="10.00">fmt/format.h</text>
</a>
</g>
</g>
<!-- Node2&#45;&gt;Node13 -->
<g id="edge16" class="edge">
<title>Node2&#45;&gt;Node13</title>
<path fill="none" stroke="midnightblue" d="M175.42,-168.44C159.32,-161.38 139.51,-149.63 129.88,-132 119.41,-112.82 139.46,-93.61 157.63,-81.11"/>
<polygon fill="midnightblue" stroke="midnightblue" points="159.75,-83.9 166.25,-75.54 155.95,-78.02 159.75,-83.9"/>
</g>
<!-- Node15 -->
<g id="node15" class="node">
<title>Node15</title>
<g id="a_node15"><a xlink:title=" ">
<polygon fill="white" stroke="#bfbfbf" points="278.88,-112.5 278.88,-131.5 334.88,-131.5 334.88,-112.5 278.88,-112.5"/>
<text text-anchor="middle" x="306.88" y="-119.5" font-family="Helvetica,sans-Serif" font-size="10.00">sstream</text>
</a>
</g>
</g>
<!-- Node2&#45;&gt;Node15 -->
<g id="edge17" class="edge">
<title>Node2&#45;&gt;Node15</title>
<path fill="none" stroke="midnightblue" d="M217.08,-168.32C234.24,-159.66 260.83,-146.24 280.63,-136.25"/>
<polygon fill="midnightblue" stroke="midnightblue" points="282.39,-139.28 289.74,-131.65 279.23,-133.04 282.39,-139.28"/>
</g>
<!-- Node3&#45;&gt;Node4 -->
<g id="edge3" class="edge">
<title>Node3&#45;&gt;Node4</title>
<path fill="none" stroke="midnightblue" d="M61.94,-56.08C56.91,-48.53 49.55,-37.49 43.37,-28.23"/>
<polygon fill="midnightblue" stroke="midnightblue" points="46.18,-26.13 37.72,-19.75 40.35,-30.01 46.18,-26.13"/>
</g>
<!-- Node5 -->
<g id="node5" class="node">
<title>Node5</title>
<g id="a_node5"><a xlink:title=" ">
<polygon fill="white" stroke="#bfbfbf" points="72.38,-0.5 72.38,-19.5 119.38,-19.5 119.38,-0.5 72.38,-0.5"/>
<text text-anchor="middle" x="95.88" y="-7.5" font-family="Helvetica,sans-Serif" font-size="10.00">vector</text>
</a>
</g>
</g>
<!-- Node3&#45;&gt;Node5 -->
<g id="edge4" class="edge">
<title>Node3&#45;&gt;Node5</title>
<path fill="none" stroke="midnightblue" d="M72.51,-56.08C76.34,-48.69 81.91,-37.95 86.65,-28.81"/>
<polygon fill="midnightblue" stroke="midnightblue" points="89.85,-30.24 91.35,-19.75 83.64,-27.02 89.85,-30.24"/>
</g>
<!-- Node6&#45;&gt;Node7 -->
<g id="edge6" class="edge">
<title>Node6&#45;&gt;Node7</title>
<path fill="none" stroke="midnightblue" d="M213.54,-112.32C226.8,-103.9 247.15,-90.97 262.73,-81.07"/>
<polygon fill="midnightblue" stroke="midnightblue" points="264.7,-83.97 271.26,-75.65 260.94,-78.06 264.7,-83.97"/>
</g>
<!-- Node6&#45;&gt;Node13 -->
<g id="edge14" class="edge">
<title>Node6&#45;&gt;Node13</title>
<path fill="none" stroke="midnightblue" d="M196.91,-112.08C194.5,-104.85 191.02,-94.41 188.02,-85.4"/>
<polygon fill="midnightblue" stroke="midnightblue" points="191.28,-84.13 184.8,-75.75 184.64,-86.34 191.28,-84.13"/>
</g>
<!-- Node6&#45;&gt;Node14 -->
<g id="edge15" class="edge">
<title>Node6&#45;&gt;Node14</title>
<path fill="none" stroke="midnightblue" d="M232.05,-112.44C266.94,-103.16 322.78,-88.31 361.06,-78.13"/>
<polygon fill="midnightblue" stroke="midnightblue" points="362.11,-81.47 370.87,-75.52 360.31,-74.7 362.11,-81.47"/>
</g>
<!-- Node7&#45;&gt;Node4 -->
<g id="edge10" class="edge">
<title>Node7&#45;&gt;Node4</title>
<path fill="none" stroke="midnightblue" d="M239.57,-56.95C196.65,-49.07 130.19,-36.22 63.95,-20.11"/>
<polygon fill="midnightblue" stroke="midnightblue" points="64.72,-16.7 54.18,-17.71 63.05,-23.49 64.72,-16.7"/>
</g>
<!-- Node7&#45;&gt;Node5 -->
<g id="edge13" class="edge">
<title>Node7&#45;&gt;Node5</title>
<path fill="none" stroke="midnightblue" d="M254.94,-56.44C220.74,-46.67 164.93,-30.73 129.33,-20.56"/>
<polygon fill="midnightblue" stroke="midnightblue" points="130,-17.11 119.42,-17.73 128.08,-23.84 130,-17.11"/>
</g>
<!-- Node8 -->
<g id="node8" class="node">
<title>Node8</title>
<g id="a_node8"><a xlink:title=" ">
<polygon fill="white" stroke="#bfbfbf" points="224.88,-0.5 224.88,-19.5 288.88,-19.5 288.88,-0.5 224.88,-0.5"/>
<text text-anchor="middle" x="256.88" y="-7.5" font-family="Helvetica,sans-Serif" font-size="10.00">algorithm</text>
</a>
</g>
</g>
<!-- Node7&#45;&gt;Node8 -->
<g id="edge7" class="edge">
<title>Node7&#45;&gt;Node8</title>
<path fill="none" stroke="midnightblue" d="M280.26,-56.08C276.43,-48.69 270.86,-37.95 266.12,-28.81"/>
<polygon fill="midnightblue" stroke="midnightblue" points="269.13,-27.02 261.42,-19.75 262.92,-30.24 269.13,-27.02"/>
</g>
<!-- Node9 -->
<g id="node9" class="node">
<title>Node9</title>
<g id="a_node9"><a xlink:title=" ">
<polygon fill="white" stroke="#bfbfbf" points="306.88,-0.5 306.88,-19.5 348.88,-19.5 348.88,-0.5 306.88,-0.5"/>
<text text-anchor="middle" x="327.88" y="-7.5" font-family="Helvetica,sans-Serif" font-size="10.00">array</text>
</a>
</g>
</g>
<!-- Node7&#45;&gt;Node9 -->
<g id="edge8" class="edge">
<title>Node7&#45;&gt;Node9</title>
<path fill="none" stroke="midnightblue" d="M291.99,-56.08C298.12,-48.38 307.15,-37.03 314.62,-27.65"/>
<polygon fill="midnightblue" stroke="midnightblue" points="317.43,-29.75 320.92,-19.75 311.95,-25.39 317.43,-29.75"/>
</g>
<!-- Node10 -->
<g id="node10" class="node">
<title>Node10</title>
<g id="a_node10"><a xlink:title=" ">
<polygon fill="white" stroke="#bfbfbf" points="367.38,-0.5 367.38,-19.5 416.38,-19.5 416.38,-0.5 367.38,-0.5"/>
<text text-anchor="middle" x="391.88" y="-7.5" font-family="Helvetica,sans-Serif" font-size="10.00">cctype</text>
</a>
</g>
</g>
<!-- Node7&#45;&gt;Node10 -->
<g id="edge9" class="edge">
<title>Node7&#45;&gt;Node10</title>
<path fill="none" stroke="midnightblue" d="M302.08,-56.32C319.24,-47.66 345.83,-34.24 365.63,-24.25"/>
<polygon fill="midnightblue" stroke="midnightblue" points="367.39,-27.28 374.74,-19.65 364.23,-21.04 367.39,-27.28"/>
</g>
<!-- Node11 -->
<g id="node11" class="node">
<title>Node11</title>
<g id="a_node11"><a xlink:title=" ">
<polygon fill="white" stroke="#bfbfbf" points="434.38,-0.5 434.38,-19.5 507.38,-19.5 507.38,-0.5 434.38,-0.5"/>
<text text-anchor="middle" x="470.88" y="-7.5" font-family="Helvetica,sans-Serif" font-size="10.00">string_view</text>
</a>
</g>
</g>
<!-- Node7&#45;&gt;Node11 -->
<g id="edge11" class="edge">
<title>Node7&#45;&gt;Node11</title>
<path fill="none" stroke="midnightblue" d="M314.36,-56.44C346.06,-47.24 396.62,-32.56 431.66,-22.39"/>
<polygon fill="midnightblue" stroke="midnightblue" points="432.92,-25.67 441.55,-19.52 430.97,-18.94 432.92,-25.67"/>
</g>
<!-- Node12 -->
<g id="node12" class="node">
<title>Node12</title>
<g id="a_node12"><a xlink:title=" ">
<polygon fill="white" stroke="#bfbfbf" points="137.38,-0.5 137.38,-19.5 206.38,-19.5 206.38,-0.5 137.38,-0.5"/>
<text text-anchor="middle" x="171.88" y="-7.5" font-family="Helvetica,sans-Serif" font-size="10.00">type_traits</text>
</a>
</g>
</g>
<!-- Node7&#45;&gt;Node12 -->
<g id="edge12" class="edge">
<title>Node7&#45;&gt;Node12</title>
<path fill="none" stroke="midnightblue" d="M266.98,-56.44C248.63,-47.68 219.88,-33.94 198.79,-23.86"/>
<polygon fill="midnightblue" stroke="midnightblue" points="200.24,-20.67 189.71,-19.52 197.22,-26.99 200.24,-20.67"/>
</g>
</g>
</svg>
