<?xml version="1.0" encoding="UTF-8" standalone="no"?>
<!DOCTYPE svg PUBLIC "-//W3C//DTD SVG 1.1//EN"
 "http://www.w3.org/Graphics/SVG/1.1/DTD/svg11.dtd">
<!-- Generated by graphviz version 2.43.0 (0)
 -->
<!-- Title: src/crypto/openssl/symmetric_key.cpp Pages: 1 -->
<svg width="2108pt" height="453pt"
 viewBox="0.00 0.00 2107.62 453.00" xmlns="http://www.w3.org/2000/svg" xmlns:xlink="http://www.w3.org/1999/xlink">
<g id="graph0" class="graph" transform="scale(1 1) rotate(0) translate(4 449)">
<title>src/crypto/openssl/symmetric_key.cpp</title>
<polygon fill="white" stroke="transparent" points="-4,4 -4,-449 2103.62,-449 2103.62,4 -4,4"/>
<!-- Node1 -->
<g id="node1" class="node">
<title>Node1</title>
<g id="a_node1"><a xlink:title=" ">
<polygon fill="#bfbfbf" stroke="black" points="1467.62,-414.5 1467.62,-444.5 1580.62,-444.5 1580.62,-414.5 1467.62,-414.5"/>
<text text-anchor="start" x="1475.62" y="-432.5" font-family="Helvetica,sans-Serif" font-size="10.00">src/crypto/openssl</text>
<text text-anchor="middle" x="1524.12" y="-421.5" font-family="Helvetica,sans-Serif" font-size="10.00">/symmetric_key.cpp</text>
</a>
</g>
</g>
<!-- Node2 -->
<g id="node2" class="node">
<title>Node2</title>
<g id="a_node2"><a xlink:href="src_2crypto_2openssl_2symmetric__key_8h.html" target="_top" xlink:title=" ">
<polygon fill="white" stroke="black" points="860.62,-347.5 860.62,-377.5 1003.62,-377.5 1003.62,-347.5 860.62,-347.5"/>
<text text-anchor="start" x="868.62" y="-365.5" font-family="Helvetica,sans-Serif" font-size="10.00">crypto/openssl/symmetric</text>
<text text-anchor="middle" x="932.12" y="-354.5" font-family="Helvetica,sans-Serif" font-size="10.00">_key.h</text>
</a>
</g>
</g>
<!-- Node1&#45;&gt;Node2 -->
<g id="edge1" class="edge">
<title>Node1&#45;&gt;Node2</title>
<path fill="none" stroke="midnightblue" d="M1467.36,-422.27C1361.94,-410.69 1135.61,-385.84 1013.77,-372.46"/>
<polygon fill="midnightblue" stroke="midnightblue" points="1014.07,-368.98 1003.74,-371.36 1013.3,-375.93 1014.07,-368.98"/>
</g>
<!-- Node3 -->
<g id="node3" class="node">
<title>Node3</title>
<g id="a_node3"><a xlink:href="include_2ccf_2crypto_2symmetric__key_8h.html" target="_top" xlink:title=" ">
<polygon fill="white" stroke="black" points="354.12,-280.5 354.12,-310.5 474.12,-310.5 474.12,-280.5 354.12,-280.5"/>
<text text-anchor="start" x="362.12" y="-298.5" font-family="Helvetica,sans-Serif" font-size="10.00">ccf/crypto/symmetric</text>
<text text-anchor="middle" x="414.12" y="-287.5" font-family="Helvetica,sans-Serif" font-size="10.00">_key.h</text>
</a>
</g>
</g>
<!-- Node1&#45;&gt;Node3 -->
<g id="edge50" class="edge">
<title>Node1&#45;&gt;Node3</title>
<path fill="none" stroke="midnightblue" d="M1467.27,-426.32C1351.23,-421.41 1078.93,-407.53 852.12,-378 721.35,-360.97 570.48,-330.47 484.3,-312"/>
<polygon fill="midnightblue" stroke="midnightblue" points="484.88,-308.55 474.37,-309.87 483.41,-315.39 484.88,-308.55"/>
</g>
<!-- Node13 -->
<g id="node13" class="node">
<title>Node13</title>
<g id="a_node13"><a xlink:href="openssl__wrappers_8h.html" target="_top" xlink:title=" ">
<polygon fill="white" stroke="black" points="936.62,-286 936.62,-305 1049.62,-305 1049.62,-286 936.62,-286"/>
<text text-anchor="middle" x="993.12" y="-293" font-family="Helvetica,sans-Serif" font-size="10.00">openssl_wrappers.h</text>
</a>
</g>
</g>
<!-- Node1&#45;&gt;Node13 -->
<g id="edge67" class="edge">
<title>Node1&#45;&gt;Node13</title>
<path fill="none" stroke="midnightblue" d="M1467.8,-414.5C1361.57,-388.09 1133.66,-331.44 1037.44,-307.52"/>
<polygon fill="midnightblue" stroke="midnightblue" points="1038.01,-304.05 1027.46,-305.04 1036.32,-310.85 1038.01,-304.05"/>
</g>
<!-- Node33 -->
<g id="node33" class="node">
<title>Node33</title>
<g id="a_node33"><a xlink:title=" ">
<polygon fill="white" stroke="#bfbfbf" points="1482.12,-224.5 1482.12,-243.5 1566.12,-243.5 1566.12,-224.5 1482.12,-224.5"/>
<text text-anchor="middle" x="1524.12" y="-231.5" font-family="Helvetica,sans-Serif" font-size="10.00">openssl/evp.h</text>
</a>
</g>
</g>
<!-- Node1&#45;&gt;Node33 -->
<g id="edge77" class="edge">
<title>Node1&#45;&gt;Node33</title>
<path fill="none" stroke="midnightblue" d="M1524.12,-414.27C1524.12,-379.94 1524.12,-292.57 1524.12,-253.9"/>
<polygon fill="midnightblue" stroke="midnightblue" points="1527.62,-253.58 1524.12,-243.58 1520.62,-253.58 1527.62,-253.58"/>
</g>
<!-- Node39 -->
<g id="node39" class="node">
<title>Node39</title>
<g id="a_node39"><a xlink:href="logger_8h.html" target="_top" xlink:title=" ">
<polygon fill="white" stroke="black" points="1323.62,-168.5 1323.62,-187.5 1410.62,-187.5 1410.62,-168.5 1323.62,-168.5"/>
<text text-anchor="middle" x="1367.12" y="-175.5" font-family="Helvetica,sans-Serif" font-size="10.00">ccf/ds/logger.h</text>
</a>
</g>
</g>
<!-- Node1&#45;&gt;Node39 -->
<g id="edge51" class="edge">
<title>Node1&#45;&gt;Node39</title>
<path fill="none" stroke="midnightblue" d="M1580.73,-421.36C1716.34,-402.15 2040.69,-342.66 1931.12,-224 1896.94,-186.99 1555.33,-180.4 1420.98,-179.24"/>
<polygon fill="midnightblue" stroke="midnightblue" points="1420.94,-175.74 1410.91,-179.16 1420.89,-182.74 1420.94,-175.74"/>
</g>
<!-- Node49 -->
<g id="node49" class="node">
<title>Node49</title>
<g id="a_node49"><a xlink:href="thread__messaging_8h.html" target="_top" xlink:title=" ">
<polygon fill="white" stroke="black" points="1652.12,-286 1652.12,-305 1782.12,-305 1782.12,-286 1652.12,-286"/>
<text text-anchor="middle" x="1717.12" y="-293" font-family="Helvetica,sans-Serif" font-size="10.00">ds/thread_messaging.h</text>
</a>
</g>
</g>
<!-- Node1&#45;&gt;Node49 -->
<g id="edge68" class="edge">
<title>Node1&#45;&gt;Node49</title>
<path fill="none" stroke="midnightblue" d="M1544.78,-414.37C1581.71,-389.11 1658.69,-336.46 1695.98,-310.96"/>
<polygon fill="midnightblue" stroke="midnightblue" points="1698.27,-313.63 1704.55,-305.1 1694.32,-307.85 1698.27,-313.63"/>
</g>
<!-- Node54 -->
<g id="node54" class="node">
<title>Node54</title>
<g id="a_node54"><a xlink:title=" ">
<polygon fill="white" stroke="#bfbfbf" points="2016.62,-353 2016.62,-372 2099.62,-372 2099.62,-353 2016.62,-353"/>
<text text-anchor="middle" x="2058.12" y="-360" font-family="Helvetica,sans-Serif" font-size="10.00">openssl/aes.h</text>
</a>
</g>
</g>
<!-- Node1&#45;&gt;Node54 -->
<g id="edge76" class="edge">
<title>Node1&#45;&gt;Node54</title>
<path fill="none" stroke="midnightblue" d="M1580.8,-425.24C1670.69,-419.45 1851.24,-405.35 2002.12,-378 2007.56,-377.01 2013.24,-375.78 2018.82,-374.46"/>
<polygon fill="midnightblue" stroke="midnightblue" points="2019.8,-377.82 2028.66,-372 2018.11,-371.03 2019.8,-377.82"/>
</g>
<!-- Node2&#45;&gt;Node3 -->
<g id="edge2" class="edge">
<title>Node2&#45;&gt;Node3</title>
<path fill="none" stroke="midnightblue" d="M860.37,-352.5C761.11,-340.04 583.02,-317.69 484.5,-305.33"/>
<polygon fill="midnightblue" stroke="midnightblue" points="484.7,-301.83 474.34,-304.06 483.83,-308.77 484.7,-301.83"/>
</g>
<!-- Node2&#45;&gt;Node13 -->
<g id="edge13" class="edge">
<title>Node2&#45;&gt;Node13</title>
<path fill="none" stroke="midnightblue" d="M945.36,-347.4C954.96,-337.16 967.97,-323.3 977.99,-312.62"/>
<polygon fill="midnightblue" stroke="midnightblue" points="980.67,-314.88 984.96,-305.19 975.57,-310.09 980.67,-314.88"/>
</g>
<!-- Node38 -->
<g id="node38" class="node">
<title>Node38</title>
<g id="a_node38"><a xlink:title=" ">
<polygon fill="white" stroke="#bfbfbf" points="821.62,-286 821.62,-305 918.62,-305 918.62,-286 821.62,-286"/>
<text text-anchor="middle" x="870.12" y="-293" font-family="Helvetica,sans-Serif" font-size="10.00">openssl/crypto.h</text>
</a>
</g>
</g>
<!-- Node2&#45;&gt;Node38 -->
<g id="edge49" class="edge">
<title>Node2&#45;&gt;Node38</title>
<path fill="none" stroke="midnightblue" d="M918.67,-347.4C908.91,-337.16 895.68,-323.3 885.5,-312.62"/>
<polygon fill="midnightblue" stroke="midnightblue" points="887.85,-310.01 878.41,-305.19 882.78,-314.85 887.85,-310.01"/>
</g>
<!-- Node4 -->
<g id="node4" class="node">
<title>Node4</title>
<g id="a_node4"><a xlink:href="include_2ccf_2crypto_2entropy_8h.html" target="_top" xlink:title=" ">
<polygon fill="white" stroke="black" points="164.62,-224.5 164.62,-243.5 277.62,-243.5 277.62,-224.5 164.62,-224.5"/>
<text text-anchor="middle" x="221.12" y="-231.5" font-family="Helvetica,sans-Serif" font-size="10.00">ccf/crypto/entropy.h</text>
</a>
</g>
</g>
<!-- Node3&#45;&gt;Node4 -->
<g id="edge3" class="edge">
<title>Node3&#45;&gt;Node4</title>
<path fill="none" stroke="midnightblue" d="M368.38,-280.4C334.89,-270.07 289.99,-256.23 258.61,-246.56"/>
<polygon fill="midnightblue" stroke="midnightblue" points="259.51,-243.17 248.92,-243.57 257.45,-249.86 259.51,-243.17"/>
</g>
<!-- Node11 -->
<g id="node11" class="node">
<title>Node11</title>
<g id="a_node11"><a xlink:title=" ">
<polygon fill="white" stroke="#bfbfbf" points="508.62,-0.5 508.62,-19.5 555.62,-19.5 555.62,-0.5 508.62,-0.5"/>
<text text-anchor="middle" x="532.12" y="-7.5" font-family="Helvetica,sans-Serif" font-size="10.00">vector</text>
</a>
</g>
</g>
<!-- Node3&#45;&gt;Node11 -->
<g id="edge12" class="edge">
<title>Node3&#45;&gt;Node11</title>
<path fill="none" stroke="midnightblue" d="M406.25,-280.41C395.12,-259.13 376.12,-217.21 376.12,-179 376.12,-179 376.12,-179 376.12,-121 376.12,-61.54 452.76,-31.39 498.6,-18.68"/>
<polygon fill="midnightblue" stroke="midnightblue" points="499.65,-22.02 508.43,-16.09 497.87,-15.25 499.65,-22.02"/>
</g>
<!-- Node12 -->
<g id="node12" class="node">
<title>Node12</title>
<g id="a_node12"><a xlink:title=" ">
<polygon fill="white" stroke="#bfbfbf" points="480.12,-168.5 480.12,-187.5 520.12,-187.5 520.12,-168.5 480.12,-168.5"/>
<text text-anchor="middle" x="500.12" y="-175.5" font-family="Helvetica,sans-Serif" font-size="10.00">span</text>
</a>
</g>
</g>
<!-- Node3&#45;&gt;Node12 -->
<g id="edge11" class="edge">
<title>Node3&#45;&gt;Node12</title>
<path fill="none" stroke="midnightblue" d="M424.67,-280.34C440.58,-258.96 470.69,-218.53 487.66,-195.73"/>
<polygon fill="midnightblue" stroke="midnightblue" points="490.5,-197.78 493.67,-187.67 484.89,-193.6 490.5,-197.78"/>
</g>
<!-- Node5 -->
<g id="node5" class="node">
<title>Node5</title>
<g id="a_node5"><a xlink:title=" ">
<polygon fill="white" stroke="#bfbfbf" points="228.12,-168.5 228.12,-187.5 280.12,-187.5 280.12,-168.5 228.12,-168.5"/>
<text text-anchor="middle" x="254.12" y="-175.5" font-family="Helvetica,sans-Serif" font-size="10.00">cassert</text>
</a>
</g>
</g>
<!-- Node4&#45;&gt;Node5 -->
<g id="edge4" class="edge">
<title>Node4&#45;&gt;Node5</title>
<path fill="none" stroke="midnightblue" d="M226.57,-224.08C231.14,-216.61 237.79,-205.72 243.41,-196.52"/>
<polygon fill="midnightblue" stroke="midnightblue" points="246.55,-198.11 248.77,-187.75 240.57,-194.46 246.55,-198.11"/>
</g>
<!-- Node6 -->
<g id="node6" class="node">
<title>Node6</title>
<g id="a_node6"><a xlink:title=" ">
<polygon fill="white" stroke="#bfbfbf" points="13.12,-168.5 13.12,-187.5 63.12,-187.5 63.12,-168.5 13.12,-168.5"/>
<text text-anchor="middle" x="38.12" y="-175.5" font-family="Helvetica,sans-Serif" font-size="10.00">cstdint</text>
</a>
</g>
</g>
<!-- Node4&#45;&gt;Node6 -->
<g id="edge5" class="edge">
<title>Node4&#45;&gt;Node6</title>
<path fill="none" stroke="midnightblue" d="M192.12,-224.44C159.74,-214.89 107.36,-199.43 72.83,-189.24"/>
<polygon fill="midnightblue" stroke="midnightblue" points="73.74,-185.86 63.16,-186.39 71.76,-192.58 73.74,-185.86"/>
</g>
<!-- Node7 -->
<g id="node7" class="node">
<title>Node7</title>
<g id="a_node7"><a xlink:title=" ">
<polygon fill="white" stroke="#bfbfbf" points="298.12,-168.5 298.12,-187.5 348.12,-187.5 348.12,-168.5 298.12,-168.5"/>
<text text-anchor="middle" x="323.12" y="-175.5" font-family="Helvetica,sans-Serif" font-size="10.00">cstring</text>
</a>
</g>
</g>
<!-- Node4&#45;&gt;Node7 -->
<g id="edge6" class="edge">
<title>Node4&#45;&gt;Node7</title>
<path fill="none" stroke="midnightblue" d="M237.51,-224.32C253.79,-215.7 278.99,-202.36 297.84,-192.39"/>
<polygon fill="midnightblue" stroke="midnightblue" points="299.57,-195.43 306.77,-187.65 296.3,-189.24 299.57,-195.43"/>
</g>
<!-- Node8 -->
<g id="node8" class="node">
<title>Node8</title>
<g id="a_node8"><a xlink:title=" ">
<polygon fill="white" stroke="#bfbfbf" points="404.12,-168.5 404.12,-187.5 462.12,-187.5 462.12,-168.5 404.12,-168.5"/>
<text text-anchor="middle" x="433.12" y="-175.5" font-family="Helvetica,sans-Serif" font-size="10.00">memory</text>
</a>
</g>
</g>
<!-- Node4&#45;&gt;Node8 -->
<g id="edge7" class="edge">
<title>Node4&#45;&gt;Node8</title>
<path fill="none" stroke="midnightblue" d="M254.71,-224.44C292.63,-214.79 354.22,-199.1 394.2,-188.92"/>
<polygon fill="midnightblue" stroke="midnightblue" points="395.29,-192.25 404.12,-186.39 393.56,-185.47 395.29,-192.25"/>
</g>
<!-- Node9 -->
<g id="node9" class="node">
<title>Node9</title>
<g id="a_node9"><a xlink:title=" ">
<polygon fill="white" stroke="#bfbfbf" points="81.62,-168.5 81.62,-187.5 146.62,-187.5 146.62,-168.5 81.62,-168.5"/>
<text text-anchor="middle" x="114.12" y="-175.5" font-family="Helvetica,sans-Serif" font-size="10.00">stdexcept</text>
</a>
</g>
</g>
<!-- Node4&#45;&gt;Node9 -->
<g id="edge8" class="edge">
<title>Node4&#45;&gt;Node9</title>
<path fill="none" stroke="midnightblue" d="M203.93,-224.32C186.77,-215.66 160.18,-202.24 140.37,-192.25"/>
<polygon fill="midnightblue" stroke="midnightblue" points="141.77,-189.04 131.27,-187.65 138.62,-195.28 141.77,-189.04"/>
</g>
<!-- Node10 -->
<g id="node10" class="node">
<title>Node10</title>
<g id="a_node10"><a xlink:title=" ">
<polygon fill="white" stroke="#bfbfbf" points="164.62,-168.5 164.62,-187.5 209.62,-187.5 209.62,-168.5 164.62,-168.5"/>
<text text-anchor="middle" x="187.12" y="-175.5" font-family="Helvetica,sans-Serif" font-size="10.00">utility</text>
</a>
</g>
</g>
<!-- Node4&#45;&gt;Node10 -->
<g id="edge9" class="edge">
<title>Node4&#45;&gt;Node10</title>
<path fill="none" stroke="midnightblue" d="M215.51,-224.08C210.75,-216.53 203.8,-205.49 197.97,-196.23"/>
<polygon fill="midnightblue" stroke="midnightblue" points="200.92,-194.35 192.63,-187.75 195,-198.08 200.92,-194.35"/>
</g>
<!-- Node4&#45;&gt;Node11 -->
<g id="edge10" class="edge">
<title>Node4&#45;&gt;Node11</title>
<path fill="none" stroke="midnightblue" d="M164.38,-229.18C106.98,-223.98 23.98,-212.39 4.12,-188 -1.49,-181.11 -1.14,-175.16 4.12,-168 64.62,-85.69 391.85,-31.42 498.5,-15.71"/>
<polygon fill="midnightblue" stroke="midnightblue" points="499.01,-19.18 508.4,-14.27 498,-12.25 499.01,-19.18"/>
</g>
<!-- Node13&#45;&gt;Node8 -->
<g id="edge39" class="edge">
<title>Node13&#45;&gt;Node8</title>
<path fill="none" stroke="midnightblue" d="M959.22,-285.99C949.25,-283.75 938.3,-281.53 928.12,-280 827.38,-264.87 557.42,-298.13 471.12,-244 454.37,-233.49 444.15,-212.7 438.59,-197.46"/>
<polygon fill="midnightblue" stroke="midnightblue" points="441.78,-195.97 435.33,-187.56 435.13,-198.15 441.78,-195.97"/>
</g>
<!-- Node14 -->
<g id="node14" class="node">
<title>Node14</title>
<g id="a_node14"><a xlink:href="pem_8h.html" target="_top" xlink:title=" ">
<polygon fill="white" stroke="black" points="480.12,-224.5 480.12,-243.5 578.12,-243.5 578.12,-224.5 480.12,-224.5"/>
<text text-anchor="middle" x="529.12" y="-231.5" font-family="Helvetica,sans-Serif" font-size="10.00">ccf/crypto/pem.h</text>
</a>
</g>
</g>
<!-- Node13&#45;&gt;Node14 -->
<g id="edge14" class="edge">
<title>Node13&#45;&gt;Node14</title>
<path fill="none" stroke="midnightblue" d="M958.18,-285.95C948.49,-283.78 937.93,-281.61 928.12,-280 779.93,-255.61 741.15,-262.62 592.12,-244 590.86,-243.84 589.58,-243.68 588.29,-243.51"/>
<polygon fill="midnightblue" stroke="midnightblue" points="588.65,-240.03 578.28,-242.19 587.74,-246.97 588.65,-240.03"/>
</g>
<!-- Node25 -->
<g id="node25" class="node">
<title>Node25</title>
<g id="a_node25"><a xlink:title=" ">
<polygon fill="white" stroke="#bfbfbf" points="986.62,-56.5 986.62,-75.5 1065.62,-75.5 1065.62,-56.5 986.62,-56.5"/>
<text text-anchor="middle" x="1026.12" y="-63.5" font-family="Helvetica,sans-Serif" font-size="10.00">fmt/format.h</text>
</a>
</g>
</g>
<!-- Node13&#45;&gt;Node25 -->
<g id="edge38" class="edge">
<title>Node13&#45;&gt;Node25</title>
<path fill="none" stroke="midnightblue" d="M957.83,-285.95C948.23,-283.81 937.81,-281.65 928.12,-280 861.5,-268.63 670.99,-294.54 626.12,-244 620.22,-237.35 620.51,-230.9 626.12,-224 675.68,-163.07 724.11,-211.25 799.12,-188 860.78,-168.89 876.57,-163.11 933.12,-132 960.26,-117.07 989.16,-95.95 1007.4,-81.88"/>
<polygon fill="midnightblue" stroke="midnightblue" points="1009.72,-84.52 1015.45,-75.6 1005.42,-79 1009.72,-84.52"/>
</g>
<!-- Node29 -->
<g id="node29" class="node">
<title>Node29</title>
<g id="a_node29"><a xlink:title=" ">
<polygon fill="white" stroke="#bfbfbf" points="634.62,-224.5 634.62,-243.5 723.62,-243.5 723.62,-224.5 634.62,-224.5"/>
<text text-anchor="middle" x="679.12" y="-231.5" font-family="Helvetica,sans-Serif" font-size="10.00">openssl/asn1.h</text>
</a>
</g>
</g>
<!-- Node13&#45;&gt;Node29 -->
<g id="edge40" class="edge">
<title>Node13&#45;&gt;Node29</title>
<path fill="none" stroke="midnightblue" d="M956.05,-285.96C946.94,-283.93 937.19,-281.83 928.12,-280 861.45,-266.54 784.34,-252.9 733.81,-244.22"/>
<polygon fill="midnightblue" stroke="midnightblue" points="734.2,-240.74 723.76,-242.5 733.02,-247.64 734.2,-240.74"/>
</g>
<!-- Node30 -->
<g id="node30" class="node">
<title>Node30</title>
<g id="a_node30"><a xlink:title=" ">
<polygon fill="white" stroke="#bfbfbf" points="741.62,-224.5 741.62,-243.5 818.62,-243.5 818.62,-224.5 741.62,-224.5"/>
<text text-anchor="middle" x="780.12" y="-231.5" font-family="Helvetica,sans-Serif" font-size="10.00">openssl/ec.h</text>
</a>
</g>
</g>
<!-- Node13&#45;&gt;Node30 -->
<g id="edge41" class="edge">
<title>Node13&#45;&gt;Node30</title>
<path fill="none" stroke="midnightblue" d="M962.6,-285.98C925.2,-275.53 861.69,-257.79 820.33,-246.23"/>
<polygon fill="midnightblue" stroke="midnightblue" points="821.16,-242.83 810.58,-243.51 819.27,-249.57 821.16,-242.83"/>
</g>
<!-- Node31 -->
<g id="node31" class="node">
<title>Node31</title>
<g id="a_node31"><a xlink:title=" ">
<polygon fill="white" stroke="#bfbfbf" points="836.62,-224.5 836.62,-243.5 935.62,-243.5 935.62,-224.5 836.62,-224.5"/>
<text text-anchor="middle" x="886.12" y="-231.5" font-family="Helvetica,sans-Serif" font-size="10.00">openssl/engine.h</text>
</a>
</g>
</g>
<!-- Node13&#45;&gt;Node31 -->
<g id="edge42" class="edge">
<title>Node13&#45;&gt;Node31</title>
<path fill="none" stroke="midnightblue" d="M977.79,-285.98C960.15,-276.17 930.96,-259.93 910.26,-248.42"/>
<polygon fill="midnightblue" stroke="midnightblue" points="911.86,-245.31 901.42,-243.51 908.46,-251.43 911.86,-245.31"/>
</g>
<!-- Node32 -->
<g id="node32" class="node">
<title>Node32</title>
<g id="a_node32"><a xlink:title=" ">
<polygon fill="white" stroke="#bfbfbf" points="953.62,-224.5 953.62,-243.5 1032.62,-243.5 1032.62,-224.5 953.62,-224.5"/>
<text text-anchor="middle" x="993.12" y="-231.5" font-family="Helvetica,sans-Serif" font-size="10.00">openssl/err.h</text>
</a>
</g>
</g>
<!-- Node13&#45;&gt;Node32 -->
<g id="edge43" class="edge">
<title>Node13&#45;&gt;Node32</title>
<path fill="none" stroke="midnightblue" d="M993.12,-285.98C993.12,-277.58 993.12,-264.48 993.12,-253.66"/>
<polygon fill="midnightblue" stroke="midnightblue" points="996.62,-253.51 993.12,-243.51 989.62,-253.51 996.62,-253.51"/>
</g>
<!-- Node13&#45;&gt;Node33 -->
<g id="edge44" class="edge">
<title>Node13&#45;&gt;Node33</title>
<path fill="none" stroke="midnightblue" d="M1049.81,-289.83C1137.92,-282.28 1313.27,-266.13 1471.92,-244.09"/>
<polygon fill="midnightblue" stroke="midnightblue" points="1472.44,-247.55 1481.86,-242.69 1471.47,-240.61 1472.44,-247.55"/>
</g>
<!-- Node34 -->
<g id="node34" class="node">
<title>Node34</title>
<g id="a_node34"><a xlink:title=" ">
<polygon fill="white" stroke="#bfbfbf" points="1050.12,-224.5 1050.12,-243.5 1138.12,-243.5 1138.12,-224.5 1050.12,-224.5"/>
<text text-anchor="middle" x="1094.12" y="-231.5" font-family="Helvetica,sans-Serif" font-size="10.00">openssl/pem.h</text>
</a>
</g>
</g>
<!-- Node13&#45;&gt;Node34 -->
<g id="edge45" class="edge">
<title>Node13&#45;&gt;Node34</title>
<path fill="none" stroke="midnightblue" d="M1007.59,-285.98C1024.09,-276.25 1051.3,-260.23 1070.8,-248.74"/>
<polygon fill="midnightblue" stroke="midnightblue" points="1072.84,-251.6 1079.68,-243.51 1069.28,-245.57 1072.84,-251.6"/>
</g>
<!-- Node35 -->
<g id="node35" class="node">
<title>Node35</title>
<g id="a_node35"><a xlink:title=" ">
<polygon fill="white" stroke="#bfbfbf" points="1156.12,-224.5 1156.12,-243.5 1236.12,-243.5 1236.12,-224.5 1156.12,-224.5"/>
<text text-anchor="middle" x="1196.12" y="-231.5" font-family="Helvetica,sans-Serif" font-size="10.00">openssl/ssl.h</text>
</a>
</g>
</g>
<!-- Node13&#45;&gt;Node35 -->
<g id="edge46" class="edge">
<title>Node13&#45;&gt;Node35</title>
<path fill="none" stroke="midnightblue" d="M1022.21,-285.98C1057.71,-275.57 1117.87,-257.94 1157.3,-246.38"/>
<polygon fill="midnightblue" stroke="midnightblue" points="1158.48,-249.68 1167.09,-243.51 1156.51,-242.96 1158.48,-249.68"/>
</g>
<!-- Node36 -->
<g id="node36" class="node">
<title>Node36</title>
<g id="a_node36"><a xlink:title=" ">
<polygon fill="white" stroke="#bfbfbf" points="1254.12,-224.5 1254.12,-243.5 1344.12,-243.5 1344.12,-224.5 1254.12,-224.5"/>
<text text-anchor="middle" x="1299.12" y="-231.5" font-family="Helvetica,sans-Serif" font-size="10.00">openssl/x509.h</text>
</a>
</g>
</g>
<!-- Node13&#45;&gt;Node36 -->
<g id="edge47" class="edge">
<title>Node13&#45;&gt;Node36</title>
<path fill="none" stroke="midnightblue" d="M1036.96,-285.98C1091.95,-275.28 1186.2,-256.96 1245.44,-245.44"/>
<polygon fill="midnightblue" stroke="midnightblue" points="1246.21,-248.85 1255.36,-243.51 1244.88,-241.98 1246.21,-248.85"/>
</g>
<!-- Node37 -->
<g id="node37" class="node">
<title>Node37</title>
<g id="a_node37"><a xlink:title=" ">
<polygon fill="white" stroke="#bfbfbf" points="1362.12,-224.5 1362.12,-243.5 1464.12,-243.5 1464.12,-224.5 1362.12,-224.5"/>
<text text-anchor="middle" x="1413.12" y="-231.5" font-family="Helvetica,sans-Serif" font-size="10.00">openssl/x509v3.h</text>
</a>
</g>
</g>
<!-- Node13&#45;&gt;Node37 -->
<g id="edge48" class="edge">
<title>Node13&#45;&gt;Node37</title>
<path fill="none" stroke="midnightblue" d="M1049.89,-286.71C1118.76,-277.21 1238.72,-260.56 1351.84,-244.17"/>
<polygon fill="midnightblue" stroke="midnightblue" points="1352.67,-247.59 1362.06,-242.69 1351.66,-240.66 1352.67,-247.59"/>
</g>
<!-- Node14&#45;&gt;Node7 -->
<g id="edge32" class="edge">
<title>Node14&#45;&gt;Node7</title>
<path fill="none" stroke="midnightblue" d="M496.48,-224.44C458.68,-214.53 396.65,-198.27 357.94,-188.13"/>
<polygon fill="midnightblue" stroke="midnightblue" points="358.72,-184.71 348.16,-185.56 356.94,-191.48 358.72,-184.71"/>
</g>
<!-- Node14&#45;&gt;Node8 -->
<g id="edge34" class="edge">
<title>Node14&#45;&gt;Node8</title>
<path fill="none" stroke="midnightblue" d="M513.7,-224.32C498.58,-215.82 475.31,-202.73 457.65,-192.8"/>
<polygon fill="midnightblue" stroke="midnightblue" points="458.94,-189.51 448.51,-187.65 455.51,-195.61 458.94,-189.51"/>
</g>
<!-- Node14&#45;&gt;Node11 -->
<g id="edge37" class="edge">
<title>Node14&#45;&gt;Node11</title>
<path fill="none" stroke="midnightblue" d="M529.24,-224.3C529.68,-191.63 531.24,-75.87 531.87,-29.96"/>
<polygon fill="midnightblue" stroke="midnightblue" points="535.37,-29.93 532,-19.88 528.37,-29.84 535.37,-29.93"/>
</g>
<!-- Node14&#45;&gt;Node12 -->
<g id="edge35" class="edge">
<title>Node14&#45;&gt;Node12</title>
<path fill="none" stroke="midnightblue" d="M524.33,-224.08C520.36,-216.69 514.6,-205.95 509.69,-196.81"/>
<polygon fill="midnightblue" stroke="midnightblue" points="512.64,-194.91 504.82,-187.75 506.47,-198.22 512.64,-194.91"/>
</g>
<!-- Node15 -->
<g id="node15" class="node">
<title>Node15</title>
<g id="a_node15"><a xlink:href="json_8h.html" target="_top" xlink:title=" ">
<polygon fill="white" stroke="black" points="712.62,-168.5 712.62,-187.5 789.62,-187.5 789.62,-168.5 712.62,-168.5"/>
<text text-anchor="middle" x="751.12" y="-175.5" font-family="Helvetica,sans-Serif" font-size="10.00">ccf/ds/json.h</text>
</a>
</g>
</g>
<!-- Node14&#45;&gt;Node15 -->
<g id="edge15" class="edge">
<title>Node14&#45;&gt;Node15</title>
<path fill="none" stroke="midnightblue" d="M564.3,-224.44C602.7,-215.1 664.3,-200.12 706.18,-189.93"/>
<polygon fill="midnightblue" stroke="midnightblue" points="707.22,-193.28 716.11,-187.52 705.57,-186.48 707.22,-193.28"/>
</g>
<!-- Node23 -->
<g id="node23" class="node">
<title>Node23</title>
<g id="a_node23"><a xlink:title=" ">
<polygon fill="white" stroke="#bfbfbf" points="573.62,-0.5 573.62,-19.5 646.62,-19.5 646.62,-0.5 573.62,-0.5"/>
<text text-anchor="middle" x="610.12" y="-7.5" font-family="Helvetica,sans-Serif" font-size="10.00">string_view</text>
</a>
</g>
</g>
<!-- Node14&#45;&gt;Node23 -->
<g id="edge36" class="edge">
<title>Node14&#45;&gt;Node23</title>
<path fill="none" stroke="midnightblue" d="M532.3,-224.3C544.27,-191.49 586.81,-74.88 603.42,-29.38"/>
<polygon fill="midnightblue" stroke="midnightblue" points="606.74,-30.48 606.88,-19.88 600.16,-28.08 606.74,-30.48"/>
</g>
<!-- Node28 -->
<g id="node28" class="node">
<title>Node28</title>
<g id="a_node28"><a xlink:title=" ">
<polygon fill="white" stroke="#bfbfbf" points="614.62,-168.5 614.62,-187.5 679.62,-187.5 679.62,-168.5 614.62,-168.5"/>
<text text-anchor="middle" x="647.12" y="-175.5" font-family="Helvetica,sans-Serif" font-size="10.00">exception</text>
</a>
</g>
</g>
<!-- Node14&#45;&gt;Node28 -->
<g id="edge33" class="edge">
<title>Node14&#45;&gt;Node28</title>
<path fill="none" stroke="midnightblue" d="M547.82,-224.44C567.07,-215.64 597.27,-201.81 619.32,-191.72"/>
<polygon fill="midnightblue" stroke="midnightblue" points="620.87,-194.86 628.51,-187.52 617.96,-188.5 620.87,-194.86"/>
</g>
<!-- Node16 -->
<g id="node16" class="node">
<title>Node16</title>
<g id="a_node16"><a xlink:href="include_2ccf_2crypto_2base64_8h.html" target="_top" xlink:title=" ">
<polygon fill="white" stroke="black" points="614.12,-56.5 614.12,-75.5 726.12,-75.5 726.12,-56.5 614.12,-56.5"/>
<text text-anchor="middle" x="670.12" y="-63.5" font-family="Helvetica,sans-Serif" font-size="10.00">ccf/crypto/base64.h</text>
</a>
</g>
</g>
<!-- Node15&#45;&gt;Node16 -->
<g id="edge16" class="edge">
<title>Node15&#45;&gt;Node16</title>
<path fill="none" stroke="midnightblue" d="M729.29,-168.39C713.66,-161.07 693.46,-149.02 682.12,-132 673.07,-118.42 670.38,-99.87 669.76,-86.07"/>
<polygon fill="midnightblue" stroke="midnightblue" points="673.26,-85.76 669.65,-75.8 666.26,-85.84 673.26,-85.76"/>
</g>
<!-- Node18 -->
<g id="node18" class="node">
<title>Node18</title>
<g id="a_node18"><a xlink:href="include_2ccf_2ds_2json__schema_8h.html" target="_top" xlink:title=" ">
<polygon fill="white" stroke="black" points="690.62,-112.5 690.62,-131.5 811.62,-131.5 811.62,-112.5 690.62,-112.5"/>
<text text-anchor="middle" x="751.12" y="-119.5" font-family="Helvetica,sans-Serif" font-size="10.00">ccf/ds/json_schema.h</text>
</a>
</g>
</g>
<!-- Node15&#45;&gt;Node18 -->
<g id="edge19" class="edge">
<title>Node15&#45;&gt;Node18</title>
<path fill="none" stroke="midnightblue" d="M751.12,-168.08C751.12,-161.01 751.12,-150.86 751.12,-141.99"/>
<polygon fill="midnightblue" stroke="midnightblue" points="754.62,-141.75 751.12,-131.75 747.62,-141.75 754.62,-141.75"/>
</g>
<!-- Node15&#45;&gt;Node25 -->
<g id="edge30" class="edge">
<title>Node15&#45;&gt;Node25</title>
<path fill="none" stroke="midnightblue" d="M764.37,-168.39C788.71,-152.68 839.79,-120.23 859.12,-112 897.05,-95.85 942.33,-84.08 976.17,-76.64"/>
<polygon fill="midnightblue" stroke="midnightblue" points="977.24,-79.99 986.28,-74.47 975.77,-73.14 977.24,-79.99"/>
</g>
<!-- Node27 -->
<g id="node27" class="node">
<title>Node27</title>
<g id="a_node27"><a xlink:title=" ">
<polygon fill="white" stroke="#bfbfbf" points="868.12,-112.5 868.12,-131.5 924.12,-131.5 924.12,-112.5 868.12,-112.5"/>
<text text-anchor="middle" x="896.12" y="-119.5" font-family="Helvetica,sans-Serif" font-size="10.00">sstream</text>
</a>
</g>
</g>
<!-- Node15&#45;&gt;Node27 -->
<g id="edge31" class="edge">
<title>Node15&#45;&gt;Node27</title>
<path fill="none" stroke="midnightblue" d="M774.1,-168.44C798.28,-159.44 836.54,-145.19 863.77,-135.05"/>
<polygon fill="midnightblue" stroke="midnightblue" points="865.1,-138.29 873.25,-131.52 862.66,-131.73 865.1,-138.29"/>
</g>
<!-- Node16&#45;&gt;Node11 -->
<g id="edge18" class="edge">
<title>Node16&#45;&gt;Node11</title>
<path fill="none" stroke="midnightblue" d="M648.26,-56.44C625.34,-47.48 589.15,-33.31 563.26,-23.18"/>
<polygon fill="midnightblue" stroke="midnightblue" points="564.47,-19.9 553.89,-19.52 561.92,-26.42 564.47,-19.9"/>
</g>
<!-- Node17 -->
<g id="node17" class="node">
<title>Node17</title>
<g id="a_node17"><a xlink:title=" ">
<polygon fill="white" stroke="#bfbfbf" points="665.12,-0.5 665.12,-19.5 709.12,-19.5 709.12,-0.5 665.12,-0.5"/>
<text text-anchor="middle" x="687.12" y="-7.5" font-family="Helvetica,sans-Serif" font-size="10.00">string</text>
</a>
</g>
</g>
<!-- Node16&#45;&gt;Node17 -->
<g id="edge17" class="edge">
<title>Node16&#45;&gt;Node17</title>
<path fill="none" stroke="midnightblue" d="M672.93,-56.08C675.21,-48.85 678.49,-38.41 681.33,-29.4"/>
<polygon fill="midnightblue" stroke="midnightblue" points="684.7,-30.34 684.37,-19.75 678.03,-28.24 684.7,-30.34"/>
</g>
<!-- Node19 -->
<g id="node19" class="node">
<title>Node19</title>
<g id="a_node19"><a xlink:href="nonstd_8h.html" target="_top" xlink:title=" ">
<polygon fill="white" stroke="black" points="744.12,-56.5 744.12,-75.5 834.12,-75.5 834.12,-56.5 744.12,-56.5"/>
<text text-anchor="middle" x="789.12" y="-63.5" font-family="Helvetica,sans-Serif" font-size="10.00">ccf/ds/nonstd.h</text>
</a>
</g>
</g>
<!-- Node18&#45;&gt;Node19 -->
<g id="edge20" class="edge">
<title>Node18&#45;&gt;Node19</title>
<path fill="none" stroke="midnightblue" d="M757.4,-112.08C762.76,-104.46 770.64,-93.26 777.2,-83.94"/>
<polygon fill="midnightblue" stroke="midnightblue" points="780.07,-85.94 782.96,-75.75 774.35,-81.91 780.07,-85.94"/>
</g>
<!-- Node18&#45;&gt;Node25 -->
<g id="edge28" class="edge">
<title>Node18&#45;&gt;Node25</title>
<path fill="none" stroke="midnightblue" d="M794.7,-112.44C844.11,-102.74 924.51,-86.95 976.35,-76.77"/>
<polygon fill="midnightblue" stroke="midnightblue" points="977.18,-80.18 986.32,-74.82 975.84,-73.31 977.18,-80.18"/>
</g>
<!-- Node26 -->
<g id="node26" class="node">
<title>Node26</title>
<g id="a_node26"><a xlink:title=" ">
<polygon fill="white" stroke="#bfbfbf" points="856.12,-56.5 856.12,-75.5 966.12,-75.5 966.12,-56.5 856.12,-56.5"/>
<text text-anchor="middle" x="911.12" y="-63.5" font-family="Helvetica,sans-Serif" font-size="10.00">nlohmann/json.hpp</text>
</a>
</g>
</g>
<!-- Node18&#45;&gt;Node26 -->
<g id="edge29" class="edge">
<title>Node18&#45;&gt;Node26</title>
<path fill="none" stroke="midnightblue" d="M776.47,-112.44C803.39,-103.36 846.12,-88.94 876.21,-78.78"/>
<polygon fill="midnightblue" stroke="midnightblue" points="877.53,-82.03 885.89,-75.52 875.29,-75.4 877.53,-82.03"/>
</g>
<!-- Node19&#45;&gt;Node11 -->
<g id="edge27" class="edge">
<title>Node19&#45;&gt;Node11</title>
<path fill="none" stroke="midnightblue" d="M743.88,-56.85C700.62,-48.84 633.36,-35.85 565.83,-20.04"/>
<polygon fill="midnightblue" stroke="midnightblue" points="566.4,-16.58 555.87,-17.68 564.79,-23.39 566.4,-16.58"/>
</g>
<!-- Node19&#45;&gt;Node17 -->
<g id="edge24" class="edge">
<title>Node19&#45;&gt;Node17</title>
<path fill="none" stroke="midnightblue" d="M772.73,-56.32C756.45,-47.7 731.25,-34.36 712.41,-24.39"/>
<polygon fill="midnightblue" stroke="midnightblue" points="713.94,-21.24 703.47,-19.65 710.67,-27.43 713.94,-21.24"/>
</g>
<!-- Node20 -->
<g id="node20" class="node">
<title>Node20</title>
<g id="a_node20"><a xlink:title=" ">
<polygon fill="white" stroke="#bfbfbf" points="727.12,-0.5 727.12,-19.5 791.12,-19.5 791.12,-0.5 727.12,-0.5"/>
<text text-anchor="middle" x="759.12" y="-7.5" font-family="Helvetica,sans-Serif" font-size="10.00">algorithm</text>
</a>
</g>
</g>
<!-- Node19&#45;&gt;Node20 -->
<g id="edge21" class="edge">
<title>Node19&#45;&gt;Node20</title>
<path fill="none" stroke="midnightblue" d="M784.17,-56.08C780.02,-48.61 773.97,-37.72 768.85,-28.52"/>
<polygon fill="midnightblue" stroke="midnightblue" points="771.9,-26.79 763.98,-19.75 765.78,-30.19 771.9,-26.79"/>
</g>
<!-- Node21 -->
<g id="node21" class="node">
<title>Node21</title>
<g id="a_node21"><a xlink:title=" ">
<polygon fill="white" stroke="#bfbfbf" points="809.12,-0.5 809.12,-19.5 851.12,-19.5 851.12,-0.5 809.12,-0.5"/>
<text text-anchor="middle" x="830.12" y="-7.5" font-family="Helvetica,sans-Serif" font-size="10.00">array</text>
</a>
</g>
</g>
<!-- Node19&#45;&gt;Node21 -->
<g id="edge22" class="edge">
<title>Node19&#45;&gt;Node21</title>
<path fill="none" stroke="midnightblue" d="M795.89,-56.08C801.68,-48.46 810.18,-37.26 817.26,-27.94"/>
<polygon fill="midnightblue" stroke="midnightblue" points="820.22,-29.83 823.48,-19.75 814.64,-25.6 820.22,-29.83"/>
</g>
<!-- Node22 -->
<g id="node22" class="node">
<title>Node22</title>
<g id="a_node22"><a xlink:title=" ">
<polygon fill="white" stroke="#bfbfbf" points="869.62,-0.5 869.62,-19.5 918.62,-19.5 918.62,-0.5 869.62,-0.5"/>
<text text-anchor="middle" x="894.12" y="-7.5" font-family="Helvetica,sans-Serif" font-size="10.00">cctype</text>
</a>
</g>
</g>
<!-- Node19&#45;&gt;Node22 -->
<g id="edge23" class="edge">
<title>Node19&#45;&gt;Node22</title>
<path fill="none" stroke="midnightblue" d="M805.99,-56.32C822.83,-47.66 848.93,-34.24 868.36,-24.25"/>
<polygon fill="midnightblue" stroke="midnightblue" points="870,-27.34 877.29,-19.65 866.8,-21.12 870,-27.34"/>
</g>
<!-- Node19&#45;&gt;Node23 -->
<g id="edge25" class="edge">
<title>Node19&#45;&gt;Node23</title>
<path fill="none" stroke="midnightblue" d="M760.76,-56.44C730.38,-47.28 682.01,-32.69 648.31,-22.52"/>
<polygon fill="midnightblue" stroke="midnightblue" points="648.94,-19.05 638.35,-19.52 646.91,-25.76 648.94,-19.05"/>
</g>
<!-- Node24 -->
<g id="node24" class="node">
<title>Node24</title>
<g id="a_node24"><a xlink:title=" ">
<polygon fill="white" stroke="#bfbfbf" points="1152.62,-0.5 1152.62,-19.5 1221.62,-19.5 1221.62,-0.5 1152.62,-0.5"/>
<text text-anchor="middle" x="1187.12" y="-7.5" font-family="Helvetica,sans-Serif" font-size="10.00">type_traits</text>
</a>
</g>
</g>
<!-- Node19&#45;&gt;Node24 -->
<g id="edge26" class="edge">
<title>Node19&#45;&gt;Node24</title>
<path fill="none" stroke="midnightblue" d="M834.38,-57.88C838.69,-57.23 842.99,-56.59 847.12,-56 952.64,-40.83 1076.86,-24.87 1142.02,-16.64"/>
<polygon fill="midnightblue" stroke="midnightblue" points="1142.85,-20.07 1152.33,-15.34 1141.98,-13.12 1142.85,-20.07"/>
</g>
<!-- Node39&#45;&gt;Node24 -->
<g id="edge66" class="edge">
<title>Node39&#45;&gt;Node24</title>
<path fill="none" stroke="midnightblue" d="M1371.83,-168.31C1378.26,-155.15 1387.82,-129.81 1377.12,-112 1345.73,-59.76 1277.17,-33.08 1231.58,-20.6"/>
<polygon fill="midnightblue" stroke="midnightblue" points="1232.21,-17.15 1221.65,-18.01 1230.44,-23.92 1232.21,-17.15"/>
</g>
<!-- Node39&#45;&gt;Node25 -->
<g id="edge61" class="edge">
<title>Node39&#45;&gt;Node25</title>
<path fill="none" stroke="midnightblue" d="M1323.52,-176.36C1246.16,-174.34 1089.18,-166.05 1048.12,-132 1034.53,-120.73 1029.3,-100.72 1027.31,-85.87"/>
<polygon fill="midnightblue" stroke="midnightblue" points="1030.78,-85.37 1026.33,-75.75 1023.81,-86.04 1030.78,-85.37"/>
</g>
<!-- Node39&#45;&gt;Node26 -->
<g id="edge63" class="edge">
<title>Node39&#45;&gt;Node26</title>
<path fill="none" stroke="midnightblue" d="M1323.44,-176.23C1258.08,-173.97 1131.66,-165.24 1030.12,-132 993.35,-119.96 954.75,-96.59 931.82,-81.4"/>
<polygon fill="midnightblue" stroke="midnightblue" points="933.53,-78.33 923.28,-75.64 929.61,-84.13 933.53,-78.33"/>
</g>
<!-- Node39&#45;&gt;Node27 -->
<g id="edge65" class="edge">
<title>Node39&#45;&gt;Node27</title>
<path fill="none" stroke="midnightblue" d="M1323.38,-173.96C1245.56,-168.21 1078.09,-154.27 938.12,-132 936.88,-131.8 935.62,-131.59 934.35,-131.37"/>
<polygon fill="midnightblue" stroke="midnightblue" points="934.99,-127.93 924.51,-129.51 933.69,-134.81 934.99,-127.93"/>
</g>
<!-- Node40 -->
<g id="node40" class="node">
<title>Node40</title>
<g id="a_node40"><a xlink:href="enum__formatter_8h.html" target="_top" xlink:title=" ">
<polygon fill="white" stroke="black" points="1154.12,-112.5 1154.12,-131.5 1290.12,-131.5 1290.12,-112.5 1154.12,-112.5"/>
<text text-anchor="middle" x="1222.12" y="-119.5" font-family="Helvetica,sans-Serif" font-size="10.00">ccf/ds/enum_formatter.h</text>
</a>
</g>
</g>
<!-- Node39&#45;&gt;Node40 -->
<g id="edge52" class="edge">
<title>Node39&#45;&gt;Node40</title>
<path fill="none" stroke="midnightblue" d="M1344.15,-168.44C1319.96,-159.44 1281.7,-145.19 1254.48,-135.05"/>
<polygon fill="midnightblue" stroke="midnightblue" points="1255.58,-131.73 1244.99,-131.52 1253.14,-138.29 1255.58,-131.73"/>
</g>
<!-- Node41 -->
<g id="node41" class="node">
<title>Node41</title>
<g id="a_node41"><a xlink:href="thread__ids_8h.html" target="_top" xlink:title=" ">
<polygon fill="white" stroke="black" points="1498.12,-112.5 1498.12,-131.5 1606.12,-131.5 1606.12,-112.5 1498.12,-112.5"/>
<text text-anchor="middle" x="1552.12" y="-119.5" font-family="Helvetica,sans-Serif" font-size="10.00">ccf/ds/thread_ids.h</text>
</a>
</g>
</g>
<!-- Node39&#45;&gt;Node41 -->
<g id="edge54" class="edge">
<title>Node39&#45;&gt;Node41</title>
<path fill="none" stroke="midnightblue" d="M1396.44,-168.44C1427.96,-159.24 1478.25,-144.56 1513.11,-134.39"/>
<polygon fill="midnightblue" stroke="midnightblue" points="1514.33,-137.68 1522.94,-131.52 1512.36,-130.96 1514.33,-137.68"/>
</g>
<!-- Node46 -->
<g id="node46" class="node">
<title>Node46</title>
<g id="a_node46"><a xlink:title=" ">
<polygon fill="white" stroke="#bfbfbf" points="1056.62,-112.5 1056.62,-131.5 1135.62,-131.5 1135.62,-112.5 1056.62,-112.5"/>
<text text-anchor="middle" x="1096.12" y="-119.5" font-family="Helvetica,sans-Serif" font-size="10.00">fmt/chrono.h</text>
</a>
</g>
</g>
<!-- Node39&#45;&gt;Node46 -->
<g id="edge60" class="edge">
<title>Node39&#45;&gt;Node46</title>
<path fill="none" stroke="midnightblue" d="M1324.18,-168.44C1275.63,-158.77 1196.71,-143.04 1145.61,-132.86"/>
<polygon fill="midnightblue" stroke="midnightblue" points="1146.27,-129.42 1135.78,-130.9 1144.9,-136.29 1146.27,-129.42"/>
</g>
<!-- Node47 -->
<g id="node47" class="node">
<title>Node47</title>
<g id="a_node47"><a xlink:title=" ">
<polygon fill="white" stroke="#bfbfbf" points="1308.12,-112.5 1308.12,-131.5 1368.12,-131.5 1368.12,-112.5 1308.12,-112.5"/>
<text text-anchor="middle" x="1338.12" y="-119.5" font-family="Helvetica,sans-Serif" font-size="10.00">iostream</text>
</a>
</g>
</g>
<!-- Node39&#45;&gt;Node47 -->
<g id="edge62" class="edge">
<title>Node39&#45;&gt;Node47</title>
<path fill="none" stroke="midnightblue" d="M1362.33,-168.08C1358.36,-160.69 1352.6,-149.95 1347.69,-140.81"/>
<polygon fill="midnightblue" stroke="midnightblue" points="1350.64,-138.91 1342.82,-131.75 1344.47,-142.22 1350.64,-138.91"/>
</g>
<!-- Node48 -->
<g id="node48" class="node">
<title>Node48</title>
<g id="a_node48"><a xlink:title=" ">
<polygon fill="white" stroke="#bfbfbf" points="1424.12,-112.5 1424.12,-131.5 1480.12,-131.5 1480.12,-112.5 1424.12,-112.5"/>
<text text-anchor="middle" x="1452.12" y="-119.5" font-family="Helvetica,sans-Serif" font-size="10.00">optional</text>
</a>
</g>
</g>
<!-- Node39&#45;&gt;Node48 -->
<g id="edge64" class="edge">
<title>Node39&#45;&gt;Node48</title>
<path fill="none" stroke="midnightblue" d="M1380.78,-168.32C1394.04,-159.9 1414.39,-146.97 1429.97,-137.07"/>
<polygon fill="midnightblue" stroke="midnightblue" points="1431.93,-139.97 1438.5,-131.65 1428.18,-134.06 1431.93,-139.97"/>
</g>
<!-- Node40&#45;&gt;Node25 -->
<g id="edge53" class="edge">
<title>Node40&#45;&gt;Node25</title>
<path fill="none" stroke="midnightblue" d="M1191.06,-112.44C1157.52,-103.2 1103.92,-88.44 1066.98,-78.26"/>
<polygon fill="midnightblue" stroke="midnightblue" points="1067.6,-74.8 1057.03,-75.52 1065.74,-81.55 1067.6,-74.8"/>
</g>
<!-- Node41&#45;&gt;Node25 -->
<g id="edge55" class="edge">
<title>Node41&#45;&gt;Node25</title>
<path fill="none" stroke="midnightblue" d="M1497.85,-113.09C1494.9,-112.71 1491.97,-112.34 1489.12,-112 1339.02,-93.99 1160.87,-78.26 1075.95,-71.1"/>
<polygon fill="midnightblue" stroke="midnightblue" points="1076.08,-67.6 1065.82,-70.25 1075.5,-74.58 1076.08,-67.6"/>
</g>
<!-- Node42 -->
<g id="node42" class="node">
<title>Node42</title>
<g id="a_node42"><a xlink:title=" ">
<polygon fill="white" stroke="#bfbfbf" points="1425.12,-56.5 1425.12,-75.5 1511.12,-75.5 1511.12,-56.5 1425.12,-56.5"/>
<text text-anchor="middle" x="1468.12" y="-63.5" font-family="Helvetica,sans-Serif" font-size="10.00">fmt/ostream.h</text>
</a>
</g>
</g>
<!-- Node41&#45;&gt;Node42 -->
<g id="edge56" class="edge">
<title>Node41&#45;&gt;Node42</title>
<path fill="none" stroke="midnightblue" d="M1538.63,-112.32C1525.52,-103.9 1505.41,-90.97 1490.01,-81.07"/>
<polygon fill="midnightblue" stroke="midnightblue" points="1491.89,-78.12 1481.58,-75.65 1488.1,-84.01 1491.89,-78.12"/>
</g>
<!-- Node43 -->
<g id="node43" class="node">
<title>Node43</title>
<g id="a_node43"><a xlink:title=" ">
<polygon fill="white" stroke="#bfbfbf" points="1529.12,-56.5 1529.12,-75.5 1573.12,-75.5 1573.12,-56.5 1529.12,-56.5"/>
<text text-anchor="middle" x="1551.12" y="-63.5" font-family="Helvetica,sans-Serif" font-size="10.00">limits</text>
</a>
</g>
</g>
<!-- Node41&#45;&gt;Node43 -->
<g id="edge57" class="edge">
<title>Node41&#45;&gt;Node43</title>
<path fill="none" stroke="midnightblue" d="M1551.96,-112.08C1551.83,-105.01 1551.64,-94.86 1551.47,-85.99"/>
<polygon fill="midnightblue" stroke="midnightblue" points="1554.97,-85.68 1551.28,-75.75 1547.97,-85.81 1554.97,-85.68"/>
</g>
<!-- Node44 -->
<g id="node44" class="node">
<title>Node44</title>
<g id="a_node44"><a xlink:title=" ">
<polygon fill="white" stroke="#bfbfbf" points="1591.12,-56.5 1591.12,-75.5 1629.12,-75.5 1629.12,-56.5 1591.12,-56.5"/>
<text text-anchor="middle" x="1610.12" y="-63.5" font-family="Helvetica,sans-Serif" font-size="10.00">map</text>
</a>
</g>
</g>
<!-- Node41&#45;&gt;Node44 -->
<g id="edge58" class="edge">
<title>Node41&#45;&gt;Node44</title>
<path fill="none" stroke="midnightblue" d="M1561.44,-112.32C1570.01,-104.34 1582.93,-92.31 1593.31,-82.65"/>
<polygon fill="midnightblue" stroke="midnightblue" points="1595.7,-85.21 1600.63,-75.83 1590.93,-80.09 1595.7,-85.21"/>
</g>
<!-- Node45 -->
<g id="node45" class="node">
<title>Node45</title>
<g id="a_node45"><a xlink:title=" ">
<polygon fill="white" stroke="#bfbfbf" points="1647.12,-56.5 1647.12,-75.5 1695.12,-75.5 1695.12,-56.5 1647.12,-56.5"/>
<text text-anchor="middle" x="1671.12" y="-63.5" font-family="Helvetica,sans-Serif" font-size="10.00">thread</text>
</a>
</g>
</g>
<!-- Node41&#45;&gt;Node45 -->
<g id="edge59" class="edge">
<title>Node41&#45;&gt;Node45</title>
<path fill="none" stroke="midnightblue" d="M1570.98,-112.44C1590.39,-103.64 1620.85,-89.81 1643.09,-79.72"/>
<polygon fill="midnightblue" stroke="midnightblue" points="1644.69,-82.84 1652.35,-75.52 1641.8,-76.46 1644.69,-82.84"/>
</g>
<!-- Node49&#45;&gt;Node39 -->
<g id="edge71" class="edge">
<title>Node49&#45;&gt;Node39</title>
<path fill="none" stroke="midnightblue" d="M1710.92,-285.85C1699.45,-270.57 1673.31,-239.01 1643.12,-224 1571.76,-188.52 1478.44,-180.04 1420.66,-178.52"/>
<polygon fill="midnightblue" stroke="midnightblue" points="1420.72,-175.02 1410.65,-178.32 1420.58,-182.02 1420.72,-175.02"/>
</g>
<!-- Node49&#45;&gt;Node41 -->
<g id="edge72" class="edge">
<title>Node49&#45;&gt;Node41</title>
<path fill="none" stroke="midnightblue" d="M1782.36,-294.02C1859.48,-291.07 1972.47,-277.82 1931.12,-224 1893,-174.39 1714.35,-143.96 1616.54,-130.74"/>
<polygon fill="midnightblue" stroke="midnightblue" points="1616.85,-127.25 1606.47,-129.4 1615.92,-134.19 1616.85,-127.25"/>
</g>
<!-- Node50 -->
<g id="node50" class="node">
<title>Node50</title>
<g id="a_node50"><a xlink:href="ccf__assert_8h.html" target="_top" xlink:title=" ">
<polygon fill="white" stroke="black" points="1830.12,-224.5 1830.12,-243.5 1922.12,-243.5 1922.12,-224.5 1830.12,-224.5"/>
<text text-anchor="middle" x="1876.12" y="-231.5" font-family="Helvetica,sans-Serif" font-size="10.00">ccf/ccf_assert.h</text>
</a>
</g>
</g>
<!-- Node49&#45;&gt;Node50 -->
<g id="edge69" class="edge">
<title>Node49&#45;&gt;Node50</title>
<path fill="none" stroke="midnightblue" d="M1739.9,-285.98C1767.18,-275.77 1813.03,-258.61 1843.92,-247.05"/>
<polygon fill="midnightblue" stroke="midnightblue" points="1845.24,-250.29 1853.38,-243.51 1842.79,-243.74 1845.24,-250.29"/>
</g>
<!-- Node51 -->
<g id="node51" class="node">
<title>Node51</title>
<g id="a_node51"><a xlink:title=" ">
<polygon fill="white" stroke="#bfbfbf" points="1762.12,-224.5 1762.12,-243.5 1812.12,-243.5 1812.12,-224.5 1762.12,-224.5"/>
<text text-anchor="middle" x="1787.12" y="-231.5" font-family="Helvetica,sans-Serif" font-size="10.00">atomic</text>
</a>
</g>
</g>
<!-- Node49&#45;&gt;Node51 -->
<g id="edge73" class="edge">
<title>Node49&#45;&gt;Node51</title>
<path fill="none" stroke="midnightblue" d="M1727.15,-285.98C1738.17,-276.61 1756.08,-261.38 1769.47,-250.01"/>
<polygon fill="midnightblue" stroke="midnightblue" points="1771.76,-252.65 1777.11,-243.51 1767.22,-247.32 1771.76,-252.65"/>
</g>
<!-- Node52 -->
<g id="node52" class="node">
<title>Node52</title>
<g id="a_node52"><a xlink:title=" ">
<polygon fill="white" stroke="#bfbfbf" points="1584.12,-224.5 1584.12,-243.5 1634.12,-243.5 1634.12,-224.5 1584.12,-224.5"/>
<text text-anchor="middle" x="1609.12" y="-231.5" font-family="Helvetica,sans-Serif" font-size="10.00">chrono</text>
</a>
</g>
</g>
<!-- Node49&#45;&gt;Node52 -->
<g id="edge74" class="edge">
<title>Node49&#45;&gt;Node52</title>
<path fill="none" stroke="midnightblue" d="M1701.65,-285.98C1683.84,-276.17 1654.38,-259.93 1633.49,-248.42"/>
<polygon fill="midnightblue" stroke="midnightblue" points="1635.01,-245.27 1624.57,-243.51 1631.64,-251.4 1635.01,-245.27"/>
</g>
<!-- Node53 -->
<g id="node53" class="node">
<title>Node53</title>
<g id="a_node53"><a xlink:title=" ">
<polygon fill="white" stroke="#bfbfbf" points="1690.62,-224.5 1690.62,-243.5 1743.62,-243.5 1743.62,-224.5 1690.62,-224.5"/>
<text text-anchor="middle" x="1717.12" y="-231.5" font-family="Helvetica,sans-Serif" font-size="10.00">cstddef</text>
</a>
</g>
</g>
<!-- Node49&#45;&gt;Node53 -->
<g id="edge75" class="edge">
<title>Node49&#45;&gt;Node53</title>
<path fill="none" stroke="midnightblue" d="M1717.12,-285.98C1717.12,-277.58 1717.12,-264.48 1717.12,-253.66"/>
<polygon fill="midnightblue" stroke="midnightblue" points="1720.62,-253.51 1717.12,-243.51 1713.62,-253.51 1720.62,-253.51"/>
</g>
<!-- Node50&#45;&gt;Node39 -->
<g id="edge70" class="edge">
<title>Node50&#45;&gt;Node39</title>
<path fill="none" stroke="midnightblue" d="M1829.94,-225.22C1826.96,-224.79 1824,-224.38 1821.12,-224 1676.94,-205.08 1506.06,-190.15 1420.93,-183.22"/>
<polygon fill="midnightblue" stroke="midnightblue" points="1420.99,-179.72 1410.74,-182.4 1420.42,-186.69 1420.99,-179.72"/>
</g>
</g>
</svg>
