<?xml version="1.0" encoding="UTF-8" standalone="no"?>
<!DOCTYPE svg PUBLIC "-//W3C//DTD SVG 1.1//EN"
 "http://www.w3.org/Graphics/SVG/1.1/DTD/svg11.dtd">
<!-- Generated by graphviz version 2.43.0 (0)
 -->
<!-- Title: src/crypto/openssl/hash.cpp Pages: 1 -->
<!--zoomable 431 -->
<svg id="main" version="1.1" xmlns="http://www.w3.org/2000/svg" xmlns:xlink="http://www.w3.org/1999/xlink" xml:space="preserve" onload="init(evt)">
<style type="text/css"><![CDATA[
.edge:hover path { stroke: red; }
.edge:hover polygon { stroke: red; fill: red; }
]]></style>
<script type="text/javascript"><![CDATA[
var edges = document.getElementsByTagName('g');
if (edges && edges.length) {
  for (var i=0;i<edges.length;i++) {
    if (edges[i].id.substr(0,4)=='edge') {
      edges[i].setAttribute('class','edge');
    }
  }
}
]]></script>
        <defs>
                <circle id="rim" cx="0" cy="0" r="7"/>
                <circle id="rim2" cx="0" cy="0" r="3.5"/>
                <g id="zoomPlus">
                        <use xlink:href="#rim" fill="#404040">
                                <set attributeName="fill" to="#808080" begin="zoomplus.mouseover" end="zoomplus.mouseout"/>
                        </use>
                        <path d="M-4,0h8M0,-4v8" fill="none" stroke="white" stroke-width="1.5" pointer-events="none"/>
                </g>
                <g id="zoomMin">
                        <use xlink:href="#rim" fill="#404040">
                                <set attributeName="fill" to="#808080" begin="zoomminus.mouseover" end="zoomminus.mouseout"/>
                        </use>
                        <path d="M-4,0h8" fill="none" stroke="white" stroke-width="1.5" pointer-events="none"/>
                </g>
                <g id="dirArrow">
                        <path fill="none" stroke="white" stroke-width="1.5" d="M0,-3.0v7 M-2.5,-0.5L0,-3.0L2.5,-0.5"/>
                </g>
               <g id="resetDef">
                       <use xlink:href="#rim2" fill="#404040">
                               <set attributeName="fill" to="#808080" begin="reset.mouseover" end="reset.mouseout"/>
                       </use>
               </g>
        </defs>

<script type="text/javascript">
var viewWidth = 1706;
var viewHeight = 431;
var sectionId = 'dynsection-0';
</script>
<script xlink:href="svgpan.js"/>
<svg id="graph" class="graph">
<g id="viewport">
<title>src/crypto/openssl/hash.cpp</title>
<polygon fill="white" stroke="transparent" points="-4,4 -4,-427 1701.64,-427 1701.64,4 -4,4"/>
<!-- Node1 -->
<g id="node1" class="node">
<title>Node1</title>
<g id="a_node1"><a xlink:title=" ">
<polygon fill="#bfbfbf" stroke="black" points="881.5,-392.5 881.5,-422.5 986.5,-422.5 986.5,-392.5 881.5,-392.5"/>
<text text-anchor="start" x="889.5" y="-410.5" font-family="Helvetica,sans-Serif" font-size="10.00">src/crypto/openssl</text>
<text text-anchor="middle" x="934" y="-399.5" font-family="Helvetica,sans-Serif" font-size="10.00">/hash.cpp</text>
</a>
</g>
</g>
<!-- Node2 -->
<g id="node2" class="node">
<title>Node2</title>
<g id="a_node2"><a xlink:href="crypto_2openssl_2hash_8h.html" target="_top" xlink:title=" ">
<polygon fill="white" stroke="black" points="571.5,-336.5 571.5,-355.5 694.5,-355.5 694.5,-336.5 571.5,-336.5"/>
<text text-anchor="middle" x="633" y="-343.5" font-family="Helvetica,sans-Serif" font-size="10.00">crypto/openssl/hash.h</text>
</a>
</g>
</g>
<!-- Node1&#45;&gt;Node2 -->
<g id="edge1" class="edge">
<title>Node1&#45;&gt;Node2</title>
<path fill="none" stroke="midnightblue" d="M881.23,-396.07C826.47,-385.24 741.29,-368.41 686.33,-357.54"/>
<polygon fill="midnightblue" stroke="midnightblue" points="686.92,-354.09 676.43,-355.59 685.56,-360.96 686.92,-354.09"/>
</g>
<!-- Node39 -->
<g id="node39" class="node">
<title>Node39</title>
<g id="a_node39"><a xlink:title=" ">
<polygon fill="white" stroke="#bfbfbf" points="1103.5,-280.5 1103.5,-299.5 1186.5,-299.5 1186.5,-280.5 1103.5,-280.5"/>
<text text-anchor="middle" x="1145" y="-287.5" font-family="Helvetica,sans-Serif" font-size="10.00">openssl/sha.h</text>
</a>
</g>
</g>
<!-- Node1&#45;&gt;Node39 -->
<g id="edge56" class="edge">
<title>Node1&#45;&gt;Node39</title>
<path fill="none" stroke="midnightblue" d="M933.77,-392.48C934.29,-376.54 937.69,-350.81 953,-336 958.15,-331.01 1038.83,-313.27 1093.94,-301.61"/>
<polygon fill="midnightblue" stroke="midnightblue" points="1094.85,-305 1103.91,-299.51 1093.41,-298.15 1094.85,-305"/>
</g>
<!-- Node40 -->
<g id="node40" class="node">
<title>Node40</title>
<g id="a_node40"><a xlink:title=" ">
<polygon fill="white" stroke="#bfbfbf" points="962.5,-336.5 962.5,-355.5 1027.5,-355.5 1027.5,-336.5 962.5,-336.5"/>
<text text-anchor="middle" x="995" y="-343.5" font-family="Helvetica,sans-Serif" font-size="10.00">stdexcept</text>
</a>
</g>
</g>
<!-- Node1&#45;&gt;Node40 -->
<g id="edge57" class="edge">
<title>Node1&#45;&gt;Node40</title>
<path fill="none" stroke="midnightblue" d="M948.46,-392.4C957.59,-383.49 969.42,-371.95 978.86,-362.74"/>
<polygon fill="midnightblue" stroke="midnightblue" points="981.41,-365.15 986.12,-355.66 976.52,-360.13 981.41,-365.15"/>
</g>
<!-- Node3 -->
<g id="node3" class="node">
<title>Node3</title>
<g id="a_node3"><a xlink:href="hash__provider_8h.html" target="_top" xlink:title=" ">
<polygon fill="white" stroke="black" points="249.5,-280.5 249.5,-299.5 394.5,-299.5 394.5,-280.5 249.5,-280.5"/>
<text text-anchor="middle" x="322" y="-287.5" font-family="Helvetica,sans-Serif" font-size="10.00">ccf/crypto/hash_provider.h</text>
</a>
</g>
</g>
<!-- Node2&#45;&gt;Node3 -->
<g id="edge2" class="edge">
<title>Node2&#45;&gt;Node3</title>
<path fill="none" stroke="midnightblue" d="M583.72,-336.44C528.67,-326.89 439.6,-311.42 380.92,-301.23"/>
<polygon fill="midnightblue" stroke="midnightblue" points="381.5,-297.78 371.05,-299.52 380.3,-304.68 381.5,-297.78"/>
</g>
<!-- Node17 -->
<g id="node17" class="node">
<title>Node17</title>
<g id="a_node17"><a xlink:title=" ">
<polygon fill="white" stroke="#bfbfbf" points="496.5,-56.5 496.5,-75.5 575.5,-75.5 575.5,-56.5 496.5,-56.5"/>
<text text-anchor="middle" x="536" y="-63.5" font-family="Helvetica,sans-Serif" font-size="10.00">fmt/format.h</text>
</a>
</g>
</g>
<!-- Node2&#45;&gt;Node17 -->
<g id="edge55" class="edge">
<title>Node2&#45;&gt;Node17</title>
<path fill="none" stroke="midnightblue" d="M622.67,-336.5C603.2,-319.44 563,-278.91 563,-235 563,-235 563,-235 563,-177 563,-143.86 551.3,-106.68 543.3,-85.14"/>
<polygon fill="midnightblue" stroke="midnightblue" points="546.51,-83.73 539.64,-75.66 539.98,-86.25 546.51,-83.73"/>
</g>
<!-- Node24 -->
<g id="node24" class="node">
<title>Node24</title>
<g id="a_node24"><a xlink:href="openssl__wrappers_8h.html" target="_top" xlink:title=" ">
<polygon fill="white" stroke="black" points="972.5,-280.5 972.5,-299.5 1085.5,-299.5 1085.5,-280.5 972.5,-280.5"/>
<text text-anchor="middle" x="1029" y="-287.5" font-family="Helvetica,sans-Serif" font-size="10.00">openssl_wrappers.h</text>
</a>
</g>
</g>
<!-- Node2&#45;&gt;Node24 -->
<g id="edge32" class="edge">
<title>Node2&#45;&gt;Node24</title>
<path fill="none" stroke="midnightblue" d="M694.88,-336.56C767.49,-326.66 887.44,-310.3 962.14,-300.12"/>
<polygon fill="midnightblue" stroke="midnightblue" points="962.93,-303.54 972.37,-298.72 961.99,-296.61 962.93,-303.54"/>
</g>
<!-- Node33 -->
<g id="node33" class="node">
<title>Node33</title>
<g id="a_node33"><a xlink:title=" ">
<polygon fill="white" stroke="#bfbfbf" points="591,-224.5 591,-243.5 675,-243.5 675,-224.5 591,-224.5"/>
<text text-anchor="middle" x="633" y="-231.5" font-family="Helvetica,sans-Serif" font-size="10.00">openssl/evp.h</text>
</a>
</g>
</g>
<!-- Node2&#45;&gt;Node33 -->
<g id="edge52" class="edge">
<title>Node2&#45;&gt;Node33</title>
<path fill="none" stroke="midnightblue" d="M633,-336.37C633,-318.62 633,-277.67 633,-253.6"/>
<polygon fill="midnightblue" stroke="midnightblue" points="636.5,-253.59 633,-243.59 629.5,-253.59 636.5,-253.59"/>
</g>
<!-- Node38 -->
<g id="node38" class="node">
<title>Node38</title>
<g id="a_node38"><a xlink:title=" ">
<polygon fill="white" stroke="#bfbfbf" points="453.5,-280.5 453.5,-299.5 534.5,-299.5 534.5,-280.5 453.5,-280.5"/>
<text text-anchor="middle" x="494" y="-287.5" font-family="Helvetica,sans-Serif" font-size="10.00">openssl/kdf.h</text>
</a>
</g>
</g>
<!-- Node2&#45;&gt;Node38 -->
<g id="edge53" class="edge">
<title>Node2&#45;&gt;Node38</title>
<path fill="none" stroke="midnightblue" d="M610.98,-336.44C587.9,-327.48 551.44,-313.31 525.36,-303.18"/>
<polygon fill="midnightblue" stroke="midnightblue" points="526.51,-299.88 515.92,-299.52 523.98,-306.4 526.51,-299.88"/>
</g>
<!-- Node2&#45;&gt;Node39 -->
<g id="edge54" class="edge">
<title>Node2&#45;&gt;Node39</title>
<path fill="none" stroke="midnightblue" d="M694.84,-340.58C781.65,-334.01 944.77,-320.39 1093.1,-300.17"/>
<polygon fill="midnightblue" stroke="midnightblue" points="1093.87,-303.6 1103.3,-298.77 1092.91,-296.66 1093.87,-303.6"/>
</g>
<!-- Node4 -->
<g id="node4" class="node">
<title>Node4</title>
<g id="a_node4"><a xlink:href="hash__bytes_8h.html" target="_top" xlink:title=" ">
<polygon fill="white" stroke="black" points="629,-112.5 629,-131.5 761,-131.5 761,-112.5 629,-112.5"/>
<text text-anchor="middle" x="695" y="-119.5" font-family="Helvetica,sans-Serif" font-size="10.00">ccf/crypto/hash_bytes.h</text>
</a>
</g>
</g>
<!-- Node3&#45;&gt;Node4 -->
<g id="edge3" class="edge">
<title>Node3&#45;&gt;Node4</title>
<path fill="none" stroke="midnightblue" d="M377.06,-280.44C414.44,-273.46 464.43,-261.8 506,-244 573.11,-215.26 643.24,-163.76 676.01,-138.22"/>
<polygon fill="midnightblue" stroke="midnightblue" points="678.54,-140.69 684.23,-131.75 674.21,-135.19 678.54,-140.69"/>
</g>
<!-- Node5 -->
<g id="node5" class="node">
<title>Node5</title>
<g id="a_node5"><a xlink:title=" ">
<polygon fill="white" stroke="#bfbfbf" points="398.5,-0.5 398.5,-19.5 445.5,-19.5 445.5,-0.5 398.5,-0.5"/>
<text text-anchor="middle" x="422" y="-7.5" font-family="Helvetica,sans-Serif" font-size="10.00">vector</text>
</a>
</g>
</g>
<!-- Node3&#45;&gt;Node5 -->
<g id="edge31" class="edge">
<title>Node3&#45;&gt;Node5</title>
<path fill="none" stroke="midnightblue" d="M249.29,-286.45C181.45,-282.36 87.3,-271.71 64,-244 58.28,-237.2 60.96,-232.35 64,-224 81.9,-174.83 181.85,-78.69 229,-56 243.29,-49.13 337.03,-28.83 388.43,-17.99"/>
<polygon fill="midnightblue" stroke="midnightblue" points="389.34,-21.38 398.4,-15.9 387.9,-14.53 389.34,-21.38"/>
</g>
<!-- Node6 -->
<g id="node6" class="node">
<title>Node6</title>
<g id="a_node6"><a xlink:href="md__type_8h.html" target="_top" xlink:title=" ">
<polygon fill="white" stroke="black" points="73.5,-224.5 73.5,-243.5 192.5,-243.5 192.5,-224.5 73.5,-224.5"/>
<text text-anchor="middle" x="133" y="-231.5" font-family="Helvetica,sans-Serif" font-size="10.00">ccf/crypto/md_type.h</text>
</a>
</g>
</g>
<!-- Node3&#45;&gt;Node6 -->
<g id="edge5" class="edge">
<title>Node3&#45;&gt;Node6</title>
<path fill="none" stroke="midnightblue" d="M292.05,-280.44C259.84,-271.24 208.47,-256.56 172.86,-246.39"/>
<polygon fill="midnightblue" stroke="midnightblue" points="173.38,-242.9 162.81,-243.52 171.46,-249.63 173.38,-242.9"/>
</g>
<!-- Node13 -->
<g id="node13" class="node">
<title>Node13</title>
<g id="a_node13"><a xlink:title=" ">
<polygon fill="white" stroke="#bfbfbf" points="0,-0.5 0,-19.5 42,-19.5 42,-0.5 0,-0.5"/>
<text text-anchor="middle" x="21" y="-7.5" font-family="Helvetica,sans-Serif" font-size="10.00">array</text>
</a>
</g>
</g>
<!-- Node3&#45;&gt;Node13 -->
<g id="edge28" class="edge">
<title>Node3&#45;&gt;Node13</title>
<path fill="none" stroke="midnightblue" d="M249.43,-282.65C182.43,-275.73 88.64,-263.04 57,-244 25.77,-225.21 7,-215.45 7,-179 7,-179 7,-179 7,-121 7,-88.54 13.07,-51.12 17.22,-29.36"/>
<polygon fill="midnightblue" stroke="midnightblue" points="20.66,-30 19.17,-19.51 13.79,-28.64 20.66,-30"/>
</g>
<!-- Node20 -->
<g id="node20" class="node">
<title>Node20</title>
<g id="a_node20"><a xlink:href="sha256__hash_8h.html" target="_top" xlink:title=" ">
<polygon fill="white" stroke="black" points="211,-224.5 211,-243.5 351,-243.5 351,-224.5 211,-224.5"/>
<text text-anchor="middle" x="281" y="-231.5" font-family="Helvetica,sans-Serif" font-size="10.00">ccf/crypto/sha256_hash.h</text>
</a>
</g>
</g>
<!-- Node3&#45;&gt;Node20 -->
<g id="edge23" class="edge">
<title>Node3&#45;&gt;Node20</title>
<path fill="none" stroke="midnightblue" d="M315.23,-280.08C309.44,-272.46 300.94,-261.26 293.86,-251.94"/>
<polygon fill="midnightblue" stroke="midnightblue" points="296.48,-249.6 287.64,-243.75 290.9,-253.83 296.48,-249.6"/>
</g>
<!-- Node22 -->
<g id="node22" class="node">
<title>Node22</title>
<g id="a_node22"><a xlink:title=" ">
<polygon fill="white" stroke="#bfbfbf" points="447,-224.5 447,-243.5 497,-243.5 497,-224.5 447,-224.5"/>
<text text-anchor="middle" x="472" y="-231.5" font-family="Helvetica,sans-Serif" font-size="10.00">cstdint</text>
</a>
</g>
</g>
<!-- Node3&#45;&gt;Node22 -->
<g id="edge29" class="edge">
<title>Node3&#45;&gt;Node22</title>
<path fill="none" stroke="midnightblue" d="M345.77,-280.44C370.89,-271.4 410.71,-257.06 438.9,-246.92"/>
<polygon fill="midnightblue" stroke="midnightblue" points="440.12,-250.2 448.34,-243.52 437.75,-243.61 440.12,-250.2"/>
</g>
<!-- Node23 -->
<g id="node23" class="node">
<title>Node23</title>
<g id="a_node23"><a xlink:title=" ">
<polygon fill="white" stroke="#bfbfbf" points="369,-224.5 369,-243.5 429,-243.5 429,-224.5 369,-224.5"/>
<text text-anchor="middle" x="399" y="-231.5" font-family="Helvetica,sans-Serif" font-size="10.00">iostream</text>
</a>
</g>
</g>
<!-- Node3&#45;&gt;Node23 -->
<g id="edge30" class="edge">
<title>Node3&#45;&gt;Node23</title>
<path fill="none" stroke="midnightblue" d="M334.37,-280.32C346.16,-272.06 364.13,-259.45 378.14,-249.63"/>
<polygon fill="midnightblue" stroke="midnightblue" points="380.48,-252.26 386.66,-243.65 376.46,-246.53 380.48,-252.26"/>
</g>
<!-- Node4&#45;&gt;Node5 -->
<g id="edge4" class="edge">
<title>Node4&#45;&gt;Node5</title>
<path fill="none" stroke="midnightblue" d="M682.9,-112.49C663.07,-98.88 622.05,-72.1 584,-56 541.31,-37.93 489.24,-24.96 455.86,-17.72"/>
<polygon fill="midnightblue" stroke="midnightblue" points="456.22,-14.22 445.71,-15.57 454.77,-21.07 456.22,-14.22"/>
</g>
<!-- Node7 -->
<g id="node7" class="node">
<title>Node7</title>
<g id="a_node7"><a xlink:href="json_8h.html" target="_top" xlink:title=" ">
<polygon fill="white" stroke="black" points="278.5,-168.5 278.5,-187.5 355.5,-187.5 355.5,-168.5 278.5,-168.5"/>
<text text-anchor="middle" x="317" y="-175.5" font-family="Helvetica,sans-Serif" font-size="10.00">ccf/ds/json.h</text>
</a>
</g>
</g>
<!-- Node6&#45;&gt;Node7 -->
<g id="edge6" class="edge">
<title>Node6&#45;&gt;Node7</title>
<path fill="none" stroke="midnightblue" d="M162.16,-224.44C193.51,-215.24 243.53,-200.56 278.2,-190.39"/>
<polygon fill="midnightblue" stroke="midnightblue" points="279.37,-193.69 287.98,-187.52 277.4,-186.97 279.37,-193.69"/>
</g>
<!-- Node8 -->
<g id="node8" class="node">
<title>Node8</title>
<g id="a_node8"><a xlink:href="include_2ccf_2crypto_2base64_8h.html" target="_top" xlink:title=" ">
<polygon fill="white" stroke="black" points="366,-56.5 366,-75.5 478,-75.5 478,-56.5 366,-56.5"/>
<text text-anchor="middle" x="422" y="-63.5" font-family="Helvetica,sans-Serif" font-size="10.00">ccf/crypto/base64.h</text>
</a>
</g>
</g>
<!-- Node7&#45;&gt;Node8 -->
<g id="edge7" class="edge">
<title>Node7&#45;&gt;Node8</title>
<path fill="none" stroke="midnightblue" d="M318.21,-168.46C320.5,-155.03 326.59,-128.8 341,-112 353.31,-97.64 371.4,-86.98 387.37,-79.64"/>
<polygon fill="midnightblue" stroke="midnightblue" points="389.17,-82.68 396.96,-75.51 386.39,-76.25 389.17,-82.68"/>
</g>
<!-- Node10 -->
<g id="node10" class="node">
<title>Node10</title>
<g id="a_node10"><a xlink:href="include_2ccf_2ds_2json__schema_8h.html" target="_top" xlink:title=" ">
<polygon fill="white" stroke="black" points="167.5,-112.5 167.5,-131.5 288.5,-131.5 288.5,-112.5 167.5,-112.5"/>
<text text-anchor="middle" x="228" y="-119.5" font-family="Helvetica,sans-Serif" font-size="10.00">ccf/ds/json_schema.h</text>
</a>
</g>
</g>
<!-- Node7&#45;&gt;Node10 -->
<g id="edge10" class="edge">
<title>Node7&#45;&gt;Node10</title>
<path fill="none" stroke="midnightblue" d="M302.7,-168.32C288.82,-159.9 267.51,-146.97 251.2,-137.07"/>
<polygon fill="midnightblue" stroke="midnightblue" points="252.63,-133.85 242.26,-131.65 249,-139.83 252.63,-133.85"/>
</g>
<!-- Node7&#45;&gt;Node17 -->
<g id="edge21" class="edge">
<title>Node7&#45;&gt;Node17</title>
<path fill="none" stroke="midnightblue" d="M322.15,-168.41C330.98,-154.43 350.36,-126.85 374,-112 392.74,-100.23 446.13,-86.61 486.53,-77.47"/>
<polygon fill="midnightblue" stroke="midnightblue" points="487.5,-80.84 496.5,-75.24 485.98,-74.01 487.5,-80.84"/>
</g>
<!-- Node19 -->
<g id="node19" class="node">
<title>Node19</title>
<g id="a_node19"><a xlink:title=" ">
<polygon fill="white" stroke="#bfbfbf" points="383,-112.5 383,-131.5 439,-131.5 439,-112.5 383,-112.5"/>
<text text-anchor="middle" x="411" y="-119.5" font-family="Helvetica,sans-Serif" font-size="10.00">sstream</text>
</a>
</g>
</g>
<!-- Node7&#45;&gt;Node19 -->
<g id="edge22" class="edge">
<title>Node7&#45;&gt;Node19</title>
<path fill="none" stroke="midnightblue" d="M332.1,-168.32C346.9,-159.82 369.69,-146.73 386.98,-136.8"/>
<polygon fill="midnightblue" stroke="midnightblue" points="389.01,-139.67 395.93,-131.65 385.52,-133.6 389.01,-139.67"/>
</g>
<!-- Node8&#45;&gt;Node5 -->
<g id="edge9" class="edge">
<title>Node8&#45;&gt;Node5</title>
<path fill="none" stroke="midnightblue" d="M422,-56.08C422,-49.01 422,-38.86 422,-29.99"/>
<polygon fill="midnightblue" stroke="midnightblue" points="425.5,-29.75 422,-19.75 418.5,-29.75 425.5,-29.75"/>
</g>
<!-- Node9 -->
<g id="node9" class="node">
<title>Node9</title>
<g id="a_node9"><a xlink:title=" ">
<polygon fill="white" stroke="#bfbfbf" points="323,-0.5 323,-19.5 367,-19.5 367,-0.5 323,-0.5"/>
<text text-anchor="middle" x="345" y="-7.5" font-family="Helvetica,sans-Serif" font-size="10.00">string</text>
</a>
</g>
</g>
<!-- Node8&#45;&gt;Node9 -->
<g id="edge8" class="edge">
<title>Node8&#45;&gt;Node9</title>
<path fill="none" stroke="midnightblue" d="M409.63,-56.32C397.84,-48.06 379.87,-35.45 365.86,-25.63"/>
<polygon fill="midnightblue" stroke="midnightblue" points="367.54,-22.53 357.34,-19.65 363.52,-28.26 367.54,-22.53"/>
</g>
<!-- Node11 -->
<g id="node11" class="node">
<title>Node11</title>
<g id="a_node11"><a xlink:href="nonstd_8h.html" target="_top" xlink:title=" ">
<polygon fill="white" stroke="black" points="92,-56.5 92,-75.5 182,-75.5 182,-56.5 92,-56.5"/>
<text text-anchor="middle" x="137" y="-63.5" font-family="Helvetica,sans-Serif" font-size="10.00">ccf/ds/nonstd.h</text>
</a>
</g>
</g>
<!-- Node10&#45;&gt;Node11 -->
<g id="edge11" class="edge">
<title>Node10&#45;&gt;Node11</title>
<path fill="none" stroke="midnightblue" d="M213.38,-112.32C199.05,-103.82 176.99,-90.73 160.25,-80.8"/>
<polygon fill="midnightblue" stroke="midnightblue" points="161.97,-77.75 151.58,-75.65 158.4,-83.77 161.97,-77.75"/>
</g>
<!-- Node10&#45;&gt;Node17 -->
<g id="edge19" class="edge">
<title>Node10&#45;&gt;Node17</title>
<path fill="none" stroke="midnightblue" d="M278.16,-112.43C328.21,-103.85 407.6,-90.15 486.33,-76.11"/>
<polygon fill="midnightblue" stroke="midnightblue" points="487.2,-79.51 496.43,-74.3 485.97,-72.62 487.2,-79.51"/>
</g>
<!-- Node18 -->
<g id="node18" class="node">
<title>Node18</title>
<g id="a_node18"><a xlink:title=" ">
<polygon fill="white" stroke="#bfbfbf" points="238,-56.5 238,-75.5 348,-75.5 348,-56.5 238,-56.5"/>
<text text-anchor="middle" x="293" y="-63.5" font-family="Helvetica,sans-Serif" font-size="10.00">nlohmann/json.hpp</text>
</a>
</g>
</g>
<!-- Node10&#45;&gt;Node18 -->
<g id="edge20" class="edge">
<title>Node10&#45;&gt;Node18</title>
<path fill="none" stroke="midnightblue" d="M238.44,-112.32C248.15,-104.26 262.82,-92.08 274.5,-82.37"/>
<polygon fill="midnightblue" stroke="midnightblue" points="276.91,-84.92 282.37,-75.83 272.44,-79.53 276.91,-84.92"/>
</g>
<!-- Node11&#45;&gt;Node5 -->
<g id="edge18" class="edge">
<title>Node11&#45;&gt;Node5</title>
<path fill="none" stroke="midnightblue" d="M182.39,-56.55C230.48,-47.58 308.62,-32.93 376,-20 379.93,-19.24 384.05,-18.45 388.15,-17.65"/>
<polygon fill="midnightblue" stroke="midnightblue" points="388.99,-21.05 398.13,-15.7 387.65,-14.18 388.99,-21.05"/>
</g>
<!-- Node11&#45;&gt;Node9 -->
<g id="edge15" class="edge">
<title>Node11&#45;&gt;Node9</title>
<path fill="none" stroke="midnightblue" d="M169.96,-56.44C209.18,-46.26 274.23,-29.37 313.02,-19.3"/>
<polygon fill="midnightblue" stroke="midnightblue" points="313.95,-22.68 322.75,-16.78 312.19,-15.9 313.95,-22.68"/>
</g>
<!-- Node12 -->
<g id="node12" class="node">
<title>Node12</title>
<g id="a_node12"><a xlink:title=" ">
<polygon fill="white" stroke="#bfbfbf" points="60,-0.5 60,-19.5 124,-19.5 124,-0.5 60,-0.5"/>
<text text-anchor="middle" x="92" y="-7.5" font-family="Helvetica,sans-Serif" font-size="10.00">algorithm</text>
</a>
</g>
</g>
<!-- Node11&#45;&gt;Node12 -->
<g id="edge12" class="edge">
<title>Node11&#45;&gt;Node12</title>
<path fill="none" stroke="midnightblue" d="M129.57,-56.08C123.15,-48.38 113.69,-37.03 105.88,-27.65"/>
<polygon fill="midnightblue" stroke="midnightblue" points="108.38,-25.19 99.29,-19.75 103.01,-29.67 108.38,-25.19"/>
</g>
<!-- Node11&#45;&gt;Node13 -->
<g id="edge13" class="edge">
<title>Node11&#45;&gt;Node13</title>
<path fill="none" stroke="midnightblue" d="M118.62,-56.44C99.78,-47.68 70.27,-33.94 48.62,-23.86"/>
<polygon fill="midnightblue" stroke="midnightblue" points="49.84,-20.56 39.29,-19.52 46.88,-26.91 49.84,-20.56"/>
</g>
<!-- Node14 -->
<g id="node14" class="node">
<title>Node14</title>
<g id="a_node14"><a xlink:title=" ">
<polygon fill="white" stroke="#bfbfbf" points="142.5,-0.5 142.5,-19.5 191.5,-19.5 191.5,-0.5 142.5,-0.5"/>
<text text-anchor="middle" x="167" y="-7.5" font-family="Helvetica,sans-Serif" font-size="10.00">cctype</text>
</a>
</g>
</g>
<!-- Node11&#45;&gt;Node14 -->
<g id="edge14" class="edge">
<title>Node11&#45;&gt;Node14</title>
<path fill="none" stroke="midnightblue" d="M141.95,-56.08C146.1,-48.61 152.15,-37.72 157.27,-28.52"/>
<polygon fill="midnightblue" stroke="midnightblue" points="160.34,-30.19 162.14,-19.75 154.22,-26.79 160.34,-30.19"/>
</g>
<!-- Node15 -->
<g id="node15" class="node">
<title>Node15</title>
<g id="a_node15"><a xlink:title=" ">
<polygon fill="white" stroke="#bfbfbf" points="766.5,-0.5 766.5,-19.5 839.5,-19.5 839.5,-0.5 766.5,-0.5"/>
<text text-anchor="middle" x="803" y="-7.5" font-family="Helvetica,sans-Serif" font-size="10.00">string_view</text>
</a>
</g>
</g>
<!-- Node11&#45;&gt;Node15 -->
<g id="edge16" class="edge">
<title>Node11&#45;&gt;Node15</title>
<path fill="none" stroke="midnightblue" d="M182.37,-60.39C197.23,-58.92 213.81,-57.34 229,-56 424.75,-38.75 658.35,-21.46 756.23,-14.36"/>
<polygon fill="midnightblue" stroke="midnightblue" points="756.66,-17.84 766.38,-13.62 756.15,-10.86 756.66,-17.84"/>
</g>
<!-- Node16 -->
<g id="node16" class="node">
<title>Node16</title>
<g id="a_node16"><a xlink:title=" ">
<polygon fill="white" stroke="#bfbfbf" points="209.5,-0.5 209.5,-19.5 278.5,-19.5 278.5,-0.5 209.5,-0.5"/>
<text text-anchor="middle" x="244" y="-7.5" font-family="Helvetica,sans-Serif" font-size="10.00">type_traits</text>
</a>
</g>
</g>
<!-- Node11&#45;&gt;Node16 -->
<g id="edge17" class="edge">
<title>Node11&#45;&gt;Node16</title>
<path fill="none" stroke="midnightblue" d="M154.19,-56.32C171.35,-47.66 197.95,-34.24 217.75,-24.25"/>
<polygon fill="midnightblue" stroke="midnightblue" points="219.5,-27.28 226.85,-19.65 216.35,-21.04 219.5,-27.28"/>
</g>
<!-- Node20&#45;&gt;Node7 -->
<g id="edge24" class="edge">
<title>Node20&#45;&gt;Node7</title>
<path fill="none" stroke="midnightblue" d="M286.94,-224.08C291.98,-216.53 299.34,-205.49 305.51,-196.23"/>
<polygon fill="midnightblue" stroke="midnightblue" points="308.53,-198.01 311.17,-187.75 302.71,-194.13 308.53,-198.01"/>
</g>
<!-- Node20&#45;&gt;Node13 -->
<g id="edge25" class="edge">
<title>Node20&#45;&gt;Node13</title>
<path fill="none" stroke="midnightblue" d="M268.93,-224.34C237.29,-201.46 149.75,-136.92 83,-76 65.83,-60.33 47.63,-40.87 35.43,-27.35"/>
<polygon fill="midnightblue" stroke="midnightblue" points="37.94,-24.91 28.67,-19.78 32.72,-29.57 37.94,-24.91"/>
</g>
<!-- Node20&#45;&gt;Node17 -->
<g id="edge27" class="edge">
<title>Node20&#45;&gt;Node17</title>
<path fill="none" stroke="midnightblue" d="M297.79,-224.47C314.73,-215.73 341.54,-201.54 364,-188 421.49,-153.35 485.12,-106.06 516.41,-82.16"/>
<polygon fill="midnightblue" stroke="midnightblue" points="518.9,-84.66 524.7,-75.8 514.64,-79.11 518.9,-84.66"/>
</g>
<!-- Node21 -->
<g id="node21" class="node">
<title>Node21</title>
<g id="a_node21"><a xlink:title=" ">
<polygon fill="white" stroke="#bfbfbf" points="495,-168.5 495,-187.5 535,-187.5 535,-168.5 495,-168.5"/>
<text text-anchor="middle" x="515" y="-175.5" font-family="Helvetica,sans-Serif" font-size="10.00">span</text>
</a>
</g>
</g>
<!-- Node20&#45;&gt;Node21 -->
<g id="edge26" class="edge">
<title>Node20&#45;&gt;Node21</title>
<path fill="none" stroke="midnightblue" d="M320.95,-224.47C361.39,-215.73 425.69,-201.54 481,-188 482.27,-187.69 483.56,-187.37 484.87,-187.04"/>
<polygon fill="midnightblue" stroke="midnightblue" points="486.09,-190.34 494.9,-184.45 484.34,-183.56 486.09,-190.34"/>
</g>
<!-- Node24&#45;&gt;Node17 -->
<g id="edge41" class="edge">
<title>Node24&#45;&gt;Node17</title>
<path fill="none" stroke="midnightblue" d="M1029.07,-280.45C1028.71,-266.54 1025.87,-239.05 1010,-224 977.7,-193.36 660.18,-151.17 620,-132 593.64,-119.42 567.74,-97.53 551.83,-82.66"/>
<polygon fill="midnightblue" stroke="midnightblue" points="554.11,-80 544.46,-75.61 549.27,-85.05 554.11,-80"/>
</g>
<!-- Node25 -->
<g id="node25" class="node">
<title>Node25</title>
<g id="a_node25"><a xlink:href="pem_8h.html" target="_top" xlink:title=" ">
<polygon fill="white" stroke="black" points="1057,-224.5 1057,-243.5 1155,-243.5 1155,-224.5 1057,-224.5"/>
<text text-anchor="middle" x="1106" y="-231.5" font-family="Helvetica,sans-Serif" font-size="10.00">ccf/crypto/pem.h</text>
</a>
</g>
</g>
<!-- Node24&#45;&gt;Node25 -->
<g id="edge33" class="edge">
<title>Node24&#45;&gt;Node25</title>
<path fill="none" stroke="midnightblue" d="M1041.37,-280.32C1053.16,-272.06 1071.13,-259.45 1085.14,-249.63"/>
<polygon fill="midnightblue" stroke="midnightblue" points="1087.48,-252.26 1093.66,-243.65 1083.46,-246.53 1087.48,-252.26"/>
</g>
<!-- Node28 -->
<g id="node28" class="node">
<title>Node28</title>
<g id="a_node28"><a xlink:title=" ">
<polygon fill="white" stroke="#bfbfbf" points="1424,-168.5 1424,-187.5 1482,-187.5 1482,-168.5 1424,-168.5"/>
<text text-anchor="middle" x="1453" y="-175.5" font-family="Helvetica,sans-Serif" font-size="10.00">memory</text>
</a>
</g>
</g>
<!-- Node24&#45;&gt;Node28 -->
<g id="edge42" class="edge">
<title>Node24&#45;&gt;Node28</title>
<path fill="none" stroke="midnightblue" d="M1085.85,-280.97C1088.94,-280.62 1092.01,-280.29 1095,-280 1160.47,-273.55 1640.92,-291.91 1686,-244 1742.94,-183.48 1572.67,-177.68 1492.4,-178.17"/>
<polygon fill="midnightblue" stroke="midnightblue" points="1492.12,-174.67 1482.16,-178.27 1492.19,-181.67 1492.12,-174.67"/>
</g>
<!-- Node29 -->
<g id="node29" class="node">
<title>Node29</title>
<g id="a_node29"><a xlink:title=" ">
<polygon fill="white" stroke="#bfbfbf" points="1173.5,-224.5 1173.5,-243.5 1262.5,-243.5 1262.5,-224.5 1173.5,-224.5"/>
<text text-anchor="middle" x="1218" y="-231.5" font-family="Helvetica,sans-Serif" font-size="10.00">openssl/asn1.h</text>
</a>
</g>
</g>
<!-- Node24&#45;&gt;Node29 -->
<g id="edge43" class="edge">
<title>Node24&#45;&gt;Node29</title>
<path fill="none" stroke="midnightblue" d="M1058.95,-280.44C1091.16,-271.24 1142.53,-256.56 1178.14,-246.39"/>
<polygon fill="midnightblue" stroke="midnightblue" points="1179.54,-249.63 1188.19,-243.52 1177.62,-242.9 1179.54,-249.63"/>
</g>
<!-- Node30 -->
<g id="node30" class="node">
<title>Node30</title>
<g id="a_node30"><a xlink:title=" ">
<polygon fill="white" stroke="#bfbfbf" points="1280.5,-224.5 1280.5,-243.5 1357.5,-243.5 1357.5,-224.5 1280.5,-224.5"/>
<text text-anchor="middle" x="1319" y="-231.5" font-family="Helvetica,sans-Serif" font-size="10.00">openssl/ec.h</text>
</a>
</g>
</g>
<!-- Node24&#45;&gt;Node30 -->
<g id="edge44" class="edge">
<title>Node24&#45;&gt;Node30</title>
<path fill="none" stroke="midnightblue" d="M1075.6,-280.46C1122.43,-271.85 1196.95,-258.11 1270.39,-244.3"/>
<polygon fill="midnightblue" stroke="midnightblue" points="1271.1,-247.72 1280.27,-242.43 1269.8,-240.85 1271.1,-247.72"/>
</g>
<!-- Node31 -->
<g id="node31" class="node">
<title>Node31</title>
<g id="a_node31"><a xlink:title=" ">
<polygon fill="white" stroke="#bfbfbf" points="1375.5,-224.5 1375.5,-243.5 1474.5,-243.5 1474.5,-224.5 1375.5,-224.5"/>
<text text-anchor="middle" x="1425" y="-231.5" font-family="Helvetica,sans-Serif" font-size="10.00">openssl/engine.h</text>
</a>
</g>
</g>
<!-- Node24&#45;&gt;Node31 -->
<g id="edge45" class="edge">
<title>Node24&#45;&gt;Node31</title>
<path fill="none" stroke="midnightblue" d="M1085.52,-281.28C1088.73,-280.84 1091.91,-280.42 1095,-280 1212.67,-264.19 1244.63,-261.49 1365.33,-244.22"/>
<polygon fill="midnightblue" stroke="midnightblue" points="1365.94,-247.67 1375.34,-242.78 1364.94,-240.74 1365.94,-247.67"/>
</g>
<!-- Node32 -->
<g id="node32" class="node">
<title>Node32</title>
<g id="a_node32"><a xlink:title=" ">
<polygon fill="white" stroke="#bfbfbf" points="1492.5,-224.5 1492.5,-243.5 1571.5,-243.5 1571.5,-224.5 1492.5,-224.5"/>
<text text-anchor="middle" x="1532" y="-231.5" font-family="Helvetica,sans-Serif" font-size="10.00">openssl/err.h</text>
</a>
</g>
</g>
<!-- Node24&#45;&gt;Node32 -->
<g id="edge46" class="edge">
<title>Node24&#45;&gt;Node32</title>
<path fill="none" stroke="midnightblue" d="M1085.51,-281.13C1088.72,-280.74 1091.9,-280.35 1095,-280 1264.3,-260.63 1310.35,-267.75 1482.59,-244.08"/>
<polygon fill="midnightblue" stroke="midnightblue" points="1483.07,-247.55 1492.5,-242.71 1482.11,-240.62 1483.07,-247.55"/>
</g>
<!-- Node24&#45;&gt;Node33 -->
<g id="edge47" class="edge">
<title>Node24&#45;&gt;Node33</title>
<path fill="none" stroke="midnightblue" d="M972.42,-282.41C906.05,-274.51 792.49,-260.43 685.04,-244.1"/>
<polygon fill="midnightblue" stroke="midnightblue" points="685.41,-240.62 675,-242.57 684.36,-247.54 685.41,-240.62"/>
</g>
<!-- Node34 -->
<g id="node34" class="node">
<title>Node34</title>
<g id="a_node34"><a xlink:title=" ">
<polygon fill="white" stroke="#bfbfbf" points="1589,-224.5 1589,-243.5 1677,-243.5 1677,-224.5 1589,-224.5"/>
<text text-anchor="middle" x="1633" y="-231.5" font-family="Helvetica,sans-Serif" font-size="10.00">openssl/pem.h</text>
</a>
</g>
</g>
<!-- Node24&#45;&gt;Node34 -->
<g id="edge48" class="edge">
<title>Node24&#45;&gt;Node34</title>
<path fill="none" stroke="midnightblue" d="M1085.85,-281.02C1088.95,-280.66 1092.01,-280.31 1095,-280 1307.14,-257.7 1364.31,-270.11 1578.79,-244.18"/>
<polygon fill="midnightblue" stroke="midnightblue" points="1579.29,-247.64 1588.79,-242.95 1578.44,-240.69 1579.29,-247.64"/>
</g>
<!-- Node35 -->
<g id="node35" class="node">
<title>Node35</title>
<g id="a_node35"><a xlink:title=" ">
<polygon fill="white" stroke="#bfbfbf" points="693,-224.5 693,-243.5 773,-243.5 773,-224.5 693,-224.5"/>
<text text-anchor="middle" x="733" y="-231.5" font-family="Helvetica,sans-Serif" font-size="10.00">openssl/ssl.h</text>
</a>
</g>
</g>
<!-- Node24&#45;&gt;Node35 -->
<g id="edge49" class="edge">
<title>Node24&#45;&gt;Node35</title>
<path fill="none" stroke="midnightblue" d="M982.1,-280.48C934.55,-271.83 858.56,-258 783.25,-244.23"/>
<polygon fill="midnightblue" stroke="midnightblue" points="783.58,-240.73 773.11,-242.37 782.32,-247.61 783.58,-240.73"/>
</g>
<!-- Node36 -->
<g id="node36" class="node">
<title>Node36</title>
<g id="a_node36"><a xlink:title=" ">
<polygon fill="white" stroke="#bfbfbf" points="791,-224.5 791,-243.5 881,-243.5 881,-224.5 791,-224.5"/>
<text text-anchor="middle" x="836" y="-231.5" font-family="Helvetica,sans-Serif" font-size="10.00">openssl/x509.h</text>
</a>
</g>
</g>
<!-- Node24&#45;&gt;Node36 -->
<g id="edge50" class="edge">
<title>Node24&#45;&gt;Node36</title>
<path fill="none" stroke="midnightblue" d="M998.42,-280.44C965.39,-271.2 912.61,-256.44 876.23,-246.26"/>
<polygon fill="midnightblue" stroke="midnightblue" points="877.01,-242.84 866.44,-243.52 875.13,-249.58 877.01,-242.84"/>
</g>
<!-- Node37 -->
<g id="node37" class="node">
<title>Node37</title>
<g id="a_node37"><a xlink:title=" ">
<polygon fill="white" stroke="#bfbfbf" points="899,-224.5 899,-243.5 1001,-243.5 1001,-224.5 899,-224.5"/>
<text text-anchor="middle" x="950" y="-231.5" font-family="Helvetica,sans-Serif" font-size="10.00">openssl/x509v3.h</text>
</a>
</g>
</g>
<!-- Node24&#45;&gt;Node37 -->
<g id="edge51" class="edge">
<title>Node24&#45;&gt;Node37</title>
<path fill="none" stroke="midnightblue" d="M1016.31,-280.32C1004.1,-271.98 985.42,-259.21 971,-249.35"/>
<polygon fill="midnightblue" stroke="midnightblue" points="972.89,-246.41 962.66,-243.65 968.94,-252.19 972.89,-246.41"/>
</g>
<!-- Node25&#45;&gt;Node5 -->
<g id="edge40" class="edge">
<title>Node25&#45;&gt;Node5</title>
<path fill="none" stroke="midnightblue" d="M1103.4,-224.35C1098.7,-210.28 1087.46,-182.58 1068,-168 903.04,-44.45 818.45,-103.95 618,-56 560.96,-42.35 494.38,-27.24 455.34,-18.46"/>
<polygon fill="midnightblue" stroke="midnightblue" points="456.09,-15.04 445.57,-16.26 454.56,-21.87 456.09,-15.04"/>
</g>
<!-- Node25&#45;&gt;Node7 -->
<g id="edge34" class="edge">
<title>Node25&#45;&gt;Node7</title>
<path fill="none" stroke="midnightblue" d="M1056.69,-228.1C1041.71,-226.69 1025.19,-225.2 1010,-224 768.45,-204.84 479.05,-188.03 365.81,-181.69"/>
<polygon fill="midnightblue" stroke="midnightblue" points="365.9,-178.19 355.72,-181.12 365.51,-185.18 365.9,-178.19"/>
</g>
<!-- Node25&#45;&gt;Node15 -->
<g id="edge39" class="edge">
<title>Node25&#45;&gt;Node15</title>
<path fill="none" stroke="midnightblue" d="M1109.16,-224.25C1118.8,-195.85 1144.6,-105.26 1101,-56 1068.66,-19.47 925.31,-12.28 849.84,-11.07"/>
<polygon fill="midnightblue" stroke="midnightblue" points="849.7,-7.57 839.66,-10.94 849.61,-14.57 849.7,-7.57"/>
</g>
<!-- Node25&#45;&gt;Node21 -->
<g id="edge38" class="edge">
<title>Node25&#45;&gt;Node21</title>
<path fill="none" stroke="midnightblue" d="M1056.67,-228.35C1041.68,-226.94 1025.17,-225.4 1010,-224 833.97,-207.75 622.68,-188.69 545.29,-181.72"/>
<polygon fill="midnightblue" stroke="midnightblue" points="545.55,-178.23 535.28,-180.82 544.92,-185.2 545.55,-178.23"/>
</g>
<!-- Node26 -->
<g id="node26" class="node">
<title>Node26</title>
<g id="a_node26"><a xlink:title=" ">
<polygon fill="white" stroke="#bfbfbf" points="1009,-168.5 1009,-187.5 1059,-187.5 1059,-168.5 1009,-168.5"/>
<text text-anchor="middle" x="1034" y="-175.5" font-family="Helvetica,sans-Serif" font-size="10.00">cstring</text>
</a>
</g>
</g>
<!-- Node25&#45;&gt;Node26 -->
<g id="edge35" class="edge">
<title>Node25&#45;&gt;Node26</title>
<path fill="none" stroke="midnightblue" d="M1094.43,-224.32C1083.58,-216.18 1067.12,-203.84 1054.12,-194.09"/>
<polygon fill="midnightblue" stroke="midnightblue" points="1055.88,-191.03 1045.78,-187.83 1051.68,-196.63 1055.88,-191.03"/>
</g>
<!-- Node27 -->
<g id="node27" class="node">
<title>Node27</title>
<g id="a_node27"><a xlink:title=" ">
<polygon fill="white" stroke="#bfbfbf" points="925.5,-168.5 925.5,-187.5 990.5,-187.5 990.5,-168.5 925.5,-168.5"/>
<text text-anchor="middle" x="958" y="-175.5" font-family="Helvetica,sans-Serif" font-size="10.00">exception</text>
</a>
</g>
</g>
<!-- Node25&#45;&gt;Node27 -->
<g id="edge36" class="edge">
<title>Node25&#45;&gt;Node27</title>
<path fill="none" stroke="midnightblue" d="M1082.55,-224.44C1057.87,-215.44 1018.81,-201.19 991.02,-191.05"/>
<polygon fill="midnightblue" stroke="midnightblue" points="991.94,-187.66 981.34,-187.52 989.54,-194.23 991.94,-187.66"/>
</g>
<!-- Node25&#45;&gt;Node28 -->
<g id="edge37" class="edge">
<title>Node25&#45;&gt;Node28</title>
<path fill="none" stroke="midnightblue" d="M1155.35,-225.32C1224.83,-214.51 1350.09,-195.02 1413.67,-185.12"/>
<polygon fill="midnightblue" stroke="midnightblue" points="1414.36,-188.56 1423.7,-183.56 1413.28,-181.64 1414.36,-188.56"/>
</g>
</g>
</svg>
        <g id="navigator" transform="translate(0 0)" fill="#404254">
                <rect fill="#f2f5e9" fill-opacity="0.5" stroke="#606060" stroke-width=".5" x="0" y="0" width="60" height="60"/>
                <use id="zoomplus" xlink:href="#zoomPlus" x="17" y="9" onmousedown="handleZoom(evt,'in')"/>
                <use id="zoomminus" xlink:href="#zoomMin" x="42" y="9" onmousedown="handleZoom(evt,'out')"/>
                <use id="reset" xlink:href="#resetDef" x="30" y="36" onmousedown="handleReset()"/>
                <g id="arrowUp" xlink:href="#dirArrow" transform="translate(30 24)" onmousedown="handlePan(0,-1)">
                  <use xlink:href="#rim" fill="#404040">
                        <set attributeName="fill" to="#808080" begin="arrowUp.mouseover" end="arrowUp.mouseout"/>
                  </use>
                  <path fill="none" stroke="white" stroke-width="1.5" d="M0,-3.0v7 M-2.5,-0.5L0,-3.0L2.5,-0.5"/>
                </g>
                <g id="arrowRight" xlink:href="#dirArrow" transform="rotate(90) translate(36 -43)" onmousedown="handlePan(1,0)">
                  <use xlink:href="#rim" fill="#404040">
                        <set attributeName="fill" to="#808080" begin="arrowRight.mouseover" end="arrowRight.mouseout"/>
                  </use>
                  <path fill="none" stroke="white" stroke-width="1.5" d="M0,-3.0v7 M-2.5,-0.5L0,-3.0L2.5,-0.5"/>
                </g>
                <g id="arrowDown" xlink:href="#dirArrow" transform="rotate(180) translate(-30 -48)" onmousedown="handlePan(0,1)">
                  <use xlink:href="#rim" fill="#404040">
                        <set attributeName="fill" to="#808080" begin="arrowDown.mouseover" end="arrowDown.mouseout"/>
                  </use>
                  <path fill="none" stroke="white" stroke-width="1.5" d="M0,-3.0v7 M-2.5,-0.5L0,-3.0L2.5,-0.5"/>
                </g>
                <g id="arrowLeft" xlink:href="#dirArrow" transform="rotate(270) translate(-36 17)" onmousedown="handlePan(-1,0)">
                  <use xlink:href="#rim" fill="#404040">
                        <set attributeName="fill" to="#808080" begin="arrowLeft.mouseover" end="arrowLeft.mouseout"/>
                  </use>
                  <path fill="none" stroke="white" stroke-width="1.5" d="M0,-3.0v7 M-2.5,-0.5L0,-3.0L2.5,-0.5"/>
                </g>
        </g>
        <svg viewBox="0 0 15 15" width="100%" height="30px" preserveAspectRatio="xMaxYMin meet">
         <g id="arrow_out" transform="scale(0.3 0.3)">
          <a xlink:href="openssl_2hash_8cpp__incl_org.svg" target="_base">
           <rect id="button" ry="5" rx="5" y="6" x="6" height="38" width="38"
                fill="#f2f5e9" fill-opacity="0.5" stroke="#606060" stroke-width="1.0"/>
           <path id="arrow"
             d="M 11.500037,31.436501 C 11.940474,20.09759 22.043105,11.32322 32.158766,21.979434 L 37.068811,17.246167 C 37.068811,17.246167 37.088388,32 37.088388,32 L 22.160133,31.978069 C 22.160133,31.978069 26.997745,27.140456 26.997745,27.140456 C 18.528582,18.264221 13.291696,25.230495 11.500037,31.436501 z"
             style="fill:#404040;"/>
          </a>
         </g>
        </svg>
</svg>
