<?xml version="1.0" encoding="UTF-8" standalone="no"?>
<!DOCTYPE svg PUBLIC "-//W3C//DTD SVG 1.1//EN"
 "http://www.w3.org/Graphics/SVG/1.1/DTD/svg11.dtd">
<!-- Generated by graphviz version 2.43.0 (0)
 -->
<!-- Title: src/crypto/openssl/openssl_wrappers.h Pages: 1 -->
<svg width="1411pt" height="319pt"
 viewBox="0.00 0.00 1411.00 319.00" xmlns="http://www.w3.org/2000/svg" xmlns:xlink="http://www.w3.org/1999/xlink">
<g id="graph0" class="graph" transform="scale(1 1) rotate(0) translate(4 315)">
<title>src/crypto/openssl/openssl_wrappers.h</title>
<polygon fill="white" stroke="transparent" points="-4,4 -4,-315 1407,-315 1407,4 -4,4"/>
<!-- Node1 -->
<g id="node1" class="node">
<title>Node1</title>
<g id="a_node1"><a xlink:title=" ">
<polygon fill="#bfbfbf" stroke="black" points="718,-280.5 718,-310.5 834,-310.5 834,-280.5 718,-280.5"/>
<text text-anchor="start" x="726" y="-298.5" font-family="Helvetica,sans-Serif" font-size="10.00">src/crypto/openssl</text>
<text text-anchor="middle" x="776" y="-287.5" font-family="Helvetica,sans-Serif" font-size="10.00">/openssl_wrappers.h</text>
</a>
</g>
</g>
<!-- Node2 -->
<g id="node2" class="node">
<title>Node2</title>
<g id="a_node2"><a xlink:href="pem_8h.html" target="_top" xlink:title=" ">
<polygon fill="white" stroke="black" points="317,-224.5 317,-243.5 415,-243.5 415,-224.5 317,-224.5"/>
<text text-anchor="middle" x="366" y="-231.5" font-family="Helvetica,sans-Serif" font-size="10.00">ccf/crypto/pem.h</text>
</a>
</g>
</g>
<!-- Node1&#45;&gt;Node2 -->
<g id="edge1" class="edge">
<title>Node1&#45;&gt;Node2</title>
<path fill="none" stroke="midnightblue" d="M717.69,-286.04C640.04,-274.77 503.42,-254.94 425.28,-243.6"/>
<polygon fill="midnightblue" stroke="midnightblue" points="425.52,-240.1 415.12,-242.13 424.52,-247.03 425.52,-240.1"/>
</g>
<!-- Node14 -->
<g id="node14" class="node">
<title>Node14</title>
<g id="a_node14"><a xlink:title=" ">
<polygon fill="white" stroke="#bfbfbf" points="130.5,-56.5 130.5,-75.5 209.5,-75.5 209.5,-56.5 130.5,-56.5"/>
<text text-anchor="middle" x="170" y="-63.5" font-family="Helvetica,sans-Serif" font-size="10.00">fmt/format.h</text>
</a>
</g>
</g>
<!-- Node1&#45;&gt;Node14 -->
<g id="edge25" class="edge">
<title>Node1&#45;&gt;Node14</title>
<path fill="none" stroke="midnightblue" d="M717.87,-294.26C569.93,-292.31 185.14,-278.46 104,-188 81.29,-162.68 78.24,-141.6 95,-112 103.35,-97.26 118.66,-86.82 133.29,-79.73"/>
<polygon fill="midnightblue" stroke="midnightblue" points="135,-82.8 142.72,-75.55 132.16,-76.4 135,-82.8"/>
</g>
<!-- Node19 -->
<g id="node19" class="node">
<title>Node19</title>
<g id="a_node19"><a xlink:title=" ">
<polygon fill="white" stroke="#bfbfbf" points="540,-168.5 540,-187.5 598,-187.5 598,-168.5 540,-168.5"/>
<text text-anchor="middle" x="569" y="-175.5" font-family="Helvetica,sans-Serif" font-size="10.00">memory</text>
</a>
</g>
</g>
<!-- Node1&#45;&gt;Node19 -->
<g id="edge26" class="edge">
<title>Node1&#45;&gt;Node19</title>
<path fill="none" stroke="midnightblue" d="M717.77,-293.75C636.42,-291.33 495.07,-281.66 463,-244 439.87,-216.84 490.76,-197.66 529.75,-187.48"/>
<polygon fill="midnightblue" stroke="midnightblue" points="531,-190.77 539.86,-184.96 529.31,-183.98 531,-190.77"/>
</g>
<!-- Node21 -->
<g id="node21" class="node">
<title>Node21</title>
<g id="a_node21"><a xlink:title=" ">
<polygon fill="white" stroke="#bfbfbf" points="471.5,-224.5 471.5,-243.5 560.5,-243.5 560.5,-224.5 471.5,-224.5"/>
<text text-anchor="middle" x="516" y="-231.5" font-family="Helvetica,sans-Serif" font-size="10.00">openssl/asn1.h</text>
</a>
</g>
</g>
<!-- Node1&#45;&gt;Node21 -->
<g id="edge27" class="edge">
<title>Node1&#45;&gt;Node21</title>
<path fill="none" stroke="midnightblue" d="M717.97,-281.22C671.32,-270.54 606.61,-255.74 563.12,-245.78"/>
<polygon fill="midnightblue" stroke="midnightblue" points="563.89,-242.37 553.36,-243.55 562.33,-249.19 563.89,-242.37"/>
</g>
<!-- Node22 -->
<g id="node22" class="node">
<title>Node22</title>
<g id="a_node22"><a xlink:title=" ">
<polygon fill="white" stroke="#bfbfbf" points="578.5,-224.5 578.5,-243.5 655.5,-243.5 655.5,-224.5 578.5,-224.5"/>
<text text-anchor="middle" x="617" y="-231.5" font-family="Helvetica,sans-Serif" font-size="10.00">openssl/ec.h</text>
</a>
</g>
</g>
<!-- Node1&#45;&gt;Node22 -->
<g id="edge28" class="edge">
<title>Node1&#45;&gt;Node22</title>
<path fill="none" stroke="midnightblue" d="M738.32,-280.4C711.4,-270.33 675.55,-256.91 649.81,-247.28"/>
<polygon fill="midnightblue" stroke="midnightblue" points="650.73,-243.88 640.14,-243.66 648.27,-250.44 650.73,-243.88"/>
</g>
<!-- Node23 -->
<g id="node23" class="node">
<title>Node23</title>
<g id="a_node23"><a xlink:title=" ">
<polygon fill="white" stroke="#bfbfbf" points="673.5,-224.5 673.5,-243.5 772.5,-243.5 772.5,-224.5 673.5,-224.5"/>
<text text-anchor="middle" x="723" y="-231.5" font-family="Helvetica,sans-Serif" font-size="10.00">openssl/engine.h</text>
</a>
</g>
</g>
<!-- Node1&#45;&gt;Node23 -->
<g id="edge29" class="edge">
<title>Node1&#45;&gt;Node23</title>
<path fill="none" stroke="midnightblue" d="M763.44,-280.4C755.66,-271.66 745.64,-260.41 737.52,-251.3"/>
<polygon fill="midnightblue" stroke="midnightblue" points="739.98,-248.8 730.71,-243.66 734.75,-253.45 739.98,-248.8"/>
</g>
<!-- Node24 -->
<g id="node24" class="node">
<title>Node24</title>
<g id="a_node24"><a xlink:title=" ">
<polygon fill="white" stroke="#bfbfbf" points="790.5,-224.5 790.5,-243.5 869.5,-243.5 869.5,-224.5 790.5,-224.5"/>
<text text-anchor="middle" x="830" y="-231.5" font-family="Helvetica,sans-Serif" font-size="10.00">openssl/err.h</text>
</a>
</g>
</g>
<!-- Node1&#45;&gt;Node24 -->
<g id="edge30" class="edge">
<title>Node1&#45;&gt;Node24</title>
<path fill="none" stroke="midnightblue" d="M788.8,-280.4C796.72,-271.66 806.94,-260.41 815.21,-251.3"/>
<polygon fill="midnightblue" stroke="midnightblue" points="818.01,-253.42 822.14,-243.66 812.83,-248.71 818.01,-253.42"/>
</g>
<!-- Node25 -->
<g id="node25" class="node">
<title>Node25</title>
<g id="a_node25"><a xlink:title=" ">
<polygon fill="white" stroke="#bfbfbf" points="887,-224.5 887,-243.5 971,-243.5 971,-224.5 887,-224.5"/>
<text text-anchor="middle" x="929" y="-231.5" font-family="Helvetica,sans-Serif" font-size="10.00">openssl/evp.h</text>
</a>
</g>
</g>
<!-- Node1&#45;&gt;Node25 -->
<g id="edge31" class="edge">
<title>Node1&#45;&gt;Node25</title>
<path fill="none" stroke="midnightblue" d="M812.26,-280.4C838.04,-270.37 872.36,-257.03 897.1,-247.4"/>
<polygon fill="midnightblue" stroke="midnightblue" points="898.69,-250.54 906.74,-243.66 896.15,-244.02 898.69,-250.54"/>
</g>
<!-- Node26 -->
<g id="node26" class="node">
<title>Node26</title>
<g id="a_node26"><a xlink:title=" ">
<polygon fill="white" stroke="#bfbfbf" points="989,-224.5 989,-243.5 1077,-243.5 1077,-224.5 989,-224.5"/>
<text text-anchor="middle" x="1033" y="-231.5" font-family="Helvetica,sans-Serif" font-size="10.00">openssl/pem.h</text>
</a>
</g>
</g>
<!-- Node1&#45;&gt;Node26 -->
<g id="edge32" class="edge">
<title>Node1&#45;&gt;Node26</title>
<path fill="none" stroke="midnightblue" d="M834.32,-281C880.25,-270.36 943.43,-255.74 986.12,-245.85"/>
<polygon fill="midnightblue" stroke="midnightblue" points="987.02,-249.24 995.97,-243.57 985.44,-242.42 987.02,-249.24"/>
</g>
<!-- Node27 -->
<g id="node27" class="node">
<title>Node27</title>
<g id="a_node27"><a xlink:title=" ">
<polygon fill="white" stroke="#bfbfbf" points="1095,-224.5 1095,-243.5 1175,-243.5 1175,-224.5 1095,-224.5"/>
<text text-anchor="middle" x="1135" y="-231.5" font-family="Helvetica,sans-Serif" font-size="10.00">openssl/ssl.h</text>
</a>
</g>
</g>
<!-- Node1&#45;&gt;Node27 -->
<g id="edge33" class="edge">
<title>Node1&#45;&gt;Node27</title>
<path fill="none" stroke="midnightblue" d="M834.05,-285.4C894.25,-275.89 991.37,-260.31 1084.98,-244.15"/>
<polygon fill="midnightblue" stroke="midnightblue" points="1085.64,-247.59 1094.9,-242.43 1084.45,-240.69 1085.64,-247.59"/>
</g>
<!-- Node28 -->
<g id="node28" class="node">
<title>Node28</title>
<g id="a_node28"><a xlink:title=" ">
<polygon fill="white" stroke="#bfbfbf" points="1193,-224.5 1193,-243.5 1283,-243.5 1283,-224.5 1193,-224.5"/>
<text text-anchor="middle" x="1238" y="-231.5" font-family="Helvetica,sans-Serif" font-size="10.00">openssl/x509.h</text>
</a>
</g>
</g>
<!-- Node1&#45;&gt;Node28 -->
<g id="edge34" class="edge">
<title>Node1&#45;&gt;Node28</title>
<path fill="none" stroke="midnightblue" d="M834.21,-288.07C911.45,-279.37 1052.3,-262.91 1182.77,-244.13"/>
<polygon fill="midnightblue" stroke="midnightblue" points="1183.55,-247.55 1192.94,-242.66 1182.54,-240.62 1183.55,-247.55"/>
</g>
<!-- Node29 -->
<g id="node29" class="node">
<title>Node29</title>
<g id="a_node29"><a xlink:title=" ">
<polygon fill="white" stroke="#bfbfbf" points="1301,-224.5 1301,-243.5 1403,-243.5 1403,-224.5 1301,-224.5"/>
<text text-anchor="middle" x="1352" y="-231.5" font-family="Helvetica,sans-Serif" font-size="10.00">openssl/x509v3.h</text>
</a>
</g>
</g>
<!-- Node1&#45;&gt;Node29 -->
<g id="edge35" class="edge">
<title>Node1&#45;&gt;Node29</title>
<path fill="none" stroke="midnightblue" d="M834.15,-289.79C927.98,-281.97 1118.85,-265.18 1290.96,-244.07"/>
<polygon fill="midnightblue" stroke="midnightblue" points="1291.47,-247.54 1300.96,-242.84 1290.61,-240.59 1291.47,-247.54"/>
</g>
<!-- Node3 -->
<g id="node3" class="node">
<title>Node3</title>
<g id="a_node3"><a xlink:href="json_8h.html" target="_top" xlink:title=" ">
<polygon fill="white" stroke="black" points="171.5,-168.5 171.5,-187.5 248.5,-187.5 248.5,-168.5 171.5,-168.5"/>
<text text-anchor="middle" x="210" y="-175.5" font-family="Helvetica,sans-Serif" font-size="10.00">ccf/ds/json.h</text>
</a>
</g>
</g>
<!-- Node2&#45;&gt;Node3 -->
<g id="edge2" class="edge">
<title>Node2&#45;&gt;Node3</title>
<path fill="none" stroke="midnightblue" d="M341.28,-224.44C315.15,-215.4 273.74,-201.06 244.42,-190.92"/>
<polygon fill="midnightblue" stroke="midnightblue" points="245.2,-187.48 234.6,-187.52 242.91,-194.1 245.2,-187.48"/>
</g>
<!-- Node6 -->
<g id="node6" class="node">
<title>Node6</title>
<g id="a_node6"><a xlink:title=" ">
<polygon fill="white" stroke="#bfbfbf" points="149.5,-0.5 149.5,-19.5 196.5,-19.5 196.5,-0.5 149.5,-0.5"/>
<text text-anchor="middle" x="173" y="-7.5" font-family="Helvetica,sans-Serif" font-size="10.00">vector</text>
</a>
</g>
</g>
<!-- Node2&#45;&gt;Node6 -->
<g id="edge24" class="edge">
<title>Node2&#45;&gt;Node6</title>
<path fill="none" stroke="midnightblue" d="M368.13,-224.31C374.49,-196.09 390.31,-105.99 347,-56 306.64,-9.41 271.93,-33.93 206.64,-19.9"/>
<polygon fill="midnightblue" stroke="midnightblue" points="207.32,-16.46 196.78,-17.54 205.69,-23.27 207.32,-16.46"/>
</g>
<!-- Node12 -->
<g id="node12" class="node">
<title>Node12</title>
<g id="a_node12"><a xlink:title=" ">
<polygon fill="white" stroke="#bfbfbf" points="574.5,-0.5 574.5,-19.5 647.5,-19.5 647.5,-0.5 574.5,-0.5"/>
<text text-anchor="middle" x="611" y="-7.5" font-family="Helvetica,sans-Serif" font-size="10.00">string_view</text>
</a>
</g>
</g>
<!-- Node2&#45;&gt;Node12 -->
<g id="edge23" class="edge">
<title>Node2&#45;&gt;Node12</title>
<path fill="none" stroke="midnightblue" d="M395.54,-224.35C417.3,-217.01 446.84,-204.96 469,-188 529.93,-141.36 580.35,-63.23 600.97,-28.53"/>
<polygon fill="midnightblue" stroke="midnightblue" points="604.17,-29.99 606.19,-19.59 598.13,-26.46 604.17,-29.99"/>
</g>
<!-- Node17 -->
<g id="node17" class="node">
<title>Node17</title>
<g id="a_node17"><a xlink:title=" ">
<polygon fill="white" stroke="#bfbfbf" points="288,-168.5 288,-187.5 338,-187.5 338,-168.5 288,-168.5"/>
<text text-anchor="middle" x="313" y="-175.5" font-family="Helvetica,sans-Serif" font-size="10.00">cstring</text>
</a>
</g>
</g>
<!-- Node2&#45;&gt;Node17 -->
<g id="edge19" class="edge">
<title>Node2&#45;&gt;Node17</title>
<path fill="none" stroke="midnightblue" d="M357.25,-224.08C349.53,-216.22 338.1,-204.57 328.78,-195.08"/>
<polygon fill="midnightblue" stroke="midnightblue" points="331.09,-192.44 321.59,-187.75 326.1,-197.34 331.09,-192.44"/>
</g>
<!-- Node18 -->
<g id="node18" class="node">
<title>Node18</title>
<g id="a_node18"><a xlink:title=" ">
<polygon fill="white" stroke="#bfbfbf" points="394.5,-168.5 394.5,-187.5 459.5,-187.5 459.5,-168.5 394.5,-168.5"/>
<text text-anchor="middle" x="427" y="-175.5" font-family="Helvetica,sans-Serif" font-size="10.00">exception</text>
</a>
</g>
</g>
<!-- Node2&#45;&gt;Node18 -->
<g id="edge20" class="edge">
<title>Node2&#45;&gt;Node18</title>
<path fill="none" stroke="midnightblue" d="M375.8,-224.32C384.82,-216.34 398.41,-204.31 409.32,-194.65"/>
<polygon fill="midnightblue" stroke="midnightblue" points="411.85,-197.08 417.02,-187.83 407.21,-191.84 411.85,-197.08"/>
</g>
<!-- Node2&#45;&gt;Node19 -->
<g id="edge21" class="edge">
<title>Node2&#45;&gt;Node19</title>
<path fill="none" stroke="midnightblue" d="M398.17,-224.44C433.98,-214.92 491.86,-199.52 530.17,-189.33"/>
<polygon fill="midnightblue" stroke="midnightblue" points="531.18,-192.68 539.94,-186.73 529.38,-185.92 531.18,-192.68"/>
</g>
<!-- Node20 -->
<g id="node20" class="node">
<title>Node20</title>
<g id="a_node20"><a xlink:title=" ">
<polygon fill="white" stroke="#bfbfbf" points="113,-168.5 113,-187.5 153,-187.5 153,-168.5 113,-168.5"/>
<text text-anchor="middle" x="133" y="-175.5" font-family="Helvetica,sans-Serif" font-size="10.00">span</text>
</a>
</g>
</g>
<!-- Node2&#45;&gt;Node20 -->
<g id="edge22" class="edge">
<title>Node2&#45;&gt;Node20</title>
<path fill="none" stroke="midnightblue" d="M322.37,-224.48C283,-216.54 223.31,-203.9 162.92,-188.08"/>
<polygon fill="midnightblue" stroke="midnightblue" points="163.78,-184.69 153.22,-185.51 161.99,-191.45 163.78,-184.69"/>
</g>
<!-- Node4 -->
<g id="node4" class="node">
<title>Node4</title>
<g id="a_node4"><a xlink:href="include_2ccf_2crypto_2base64_8h.html" target="_top" xlink:title=" ">
<polygon fill="white" stroke="black" points="0,-56.5 0,-75.5 112,-75.5 112,-56.5 0,-56.5"/>
<text text-anchor="middle" x="56" y="-63.5" font-family="Helvetica,sans-Serif" font-size="10.00">ccf/crypto/base64.h</text>
</a>
</g>
</g>
<!-- Node3&#45;&gt;Node4 -->
<g id="edge3" class="edge">
<title>Node3&#45;&gt;Node4</title>
<path fill="none" stroke="midnightblue" d="M171.49,-168.72C147.42,-162 116.94,-150.54 95,-132 80.12,-119.42 69.4,-99.65 63.02,-85.21"/>
<polygon fill="midnightblue" stroke="midnightblue" points="66.19,-83.73 59.13,-75.82 59.72,-86.4 66.19,-83.73"/>
</g>
<!-- Node7 -->
<g id="node7" class="node">
<title>Node7</title>
<g id="a_node7"><a xlink:href="include_2ccf_2ds_2json__schema_8h.html" target="_top" xlink:title=" ">
<polygon fill="white" stroke="black" points="216.5,-112.5 216.5,-131.5 337.5,-131.5 337.5,-112.5 216.5,-112.5"/>
<text text-anchor="middle" x="277" y="-119.5" font-family="Helvetica,sans-Serif" font-size="10.00">ccf/ds/json_schema.h</text>
</a>
</g>
</g>
<!-- Node3&#45;&gt;Node7 -->
<g id="edge6" class="edge">
<title>Node3&#45;&gt;Node7</title>
<path fill="none" stroke="midnightblue" d="M220.76,-168.32C230.77,-160.26 245.89,-148.08 257.93,-138.37"/>
<polygon fill="midnightblue" stroke="midnightblue" points="260.45,-140.83 266.04,-131.83 256.06,-135.38 260.45,-140.83"/>
</g>
<!-- Node3&#45;&gt;Node14 -->
<g id="edge17" class="edge">
<title>Node3&#45;&gt;Node14</title>
<path fill="none" stroke="midnightblue" d="M206.86,-168.37C200.38,-150.54 185.38,-109.3 176.64,-85.27"/>
<polygon fill="midnightblue" stroke="midnightblue" points="179.83,-83.79 173.12,-75.59 173.25,-86.19 179.83,-83.79"/>
</g>
<!-- Node16 -->
<g id="node16" class="node">
<title>Node16</title>
<g id="a_node16"><a xlink:title=" ">
<polygon fill="white" stroke="#bfbfbf" points="104,-112.5 104,-131.5 160,-131.5 160,-112.5 104,-112.5"/>
<text text-anchor="middle" x="132" y="-119.5" font-family="Helvetica,sans-Serif" font-size="10.00">sstream</text>
</a>
</g>
</g>
<!-- Node3&#45;&gt;Node16 -->
<g id="edge18" class="edge">
<title>Node3&#45;&gt;Node16</title>
<path fill="none" stroke="midnightblue" d="M197.47,-168.32C185.41,-159.98 166.97,-147.21 152.73,-137.35"/>
<polygon fill="midnightblue" stroke="midnightblue" points="154.72,-134.47 144.5,-131.65 150.73,-140.22 154.72,-134.47"/>
</g>
<!-- Node5 -->
<g id="node5" class="node">
<title>Node5</title>
<g id="a_node5"><a xlink:title=" ">
<polygon fill="white" stroke="#bfbfbf" points="215,-0.5 215,-19.5 259,-19.5 259,-0.5 215,-0.5"/>
<text text-anchor="middle" x="237" y="-7.5" font-family="Helvetica,sans-Serif" font-size="10.00">string</text>
</a>
</g>
</g>
<!-- Node4&#45;&gt;Node5 -->
<g id="edge4" class="edge">
<title>Node4&#45;&gt;Node5</title>
<path fill="none" stroke="midnightblue" d="M84.68,-56.44C117.38,-46.69 170.71,-30.78 204.81,-20.6"/>
<polygon fill="midnightblue" stroke="midnightblue" points="206.15,-23.86 214.73,-17.64 204.15,-17.15 206.15,-23.86"/>
</g>
<!-- Node4&#45;&gt;Node6 -->
<g id="edge5" class="edge">
<title>Node4&#45;&gt;Node6</title>
<path fill="none" stroke="midnightblue" d="M74.54,-56.44C93.62,-47.64 123.57,-33.81 145.44,-23.72"/>
<polygon fill="midnightblue" stroke="midnightblue" points="146.93,-26.88 154.55,-19.52 144,-20.53 146.93,-26.88"/>
</g>
<!-- Node8 -->
<g id="node8" class="node">
<title>Node8</title>
<g id="a_node8"><a xlink:href="nonstd_8h.html" target="_top" xlink:title=" ">
<polygon fill="white" stroke="black" points="394,-56.5 394,-75.5 484,-75.5 484,-56.5 394,-56.5"/>
<text text-anchor="middle" x="439" y="-63.5" font-family="Helvetica,sans-Serif" font-size="10.00">ccf/ds/nonstd.h</text>
</a>
</g>
</g>
<!-- Node7&#45;&gt;Node8 -->
<g id="edge7" class="edge">
<title>Node7&#45;&gt;Node8</title>
<path fill="none" stroke="midnightblue" d="M302.67,-112.44C329.92,-103.36 373.18,-88.94 403.65,-78.78"/>
<polygon fill="midnightblue" stroke="midnightblue" points="405.07,-82 413.45,-75.52 402.86,-75.36 405.07,-82"/>
</g>
<!-- Node7&#45;&gt;Node14 -->
<g id="edge15" class="edge">
<title>Node7&#45;&gt;Node14</title>
<path fill="none" stroke="midnightblue" d="M259.81,-112.32C242.65,-103.66 216.05,-90.24 196.25,-80.25"/>
<polygon fill="midnightblue" stroke="midnightblue" points="197.65,-77.04 187.15,-75.65 194.5,-83.28 197.65,-77.04"/>
</g>
<!-- Node15 -->
<g id="node15" class="node">
<title>Node15</title>
<g id="a_node15"><a xlink:title=" ">
<polygon fill="white" stroke="#bfbfbf" points="228,-56.5 228,-75.5 338,-75.5 338,-56.5 228,-56.5"/>
<text text-anchor="middle" x="283" y="-63.5" font-family="Helvetica,sans-Serif" font-size="10.00">nlohmann/json.hpp</text>
</a>
</g>
</g>
<!-- Node7&#45;&gt;Node15 -->
<g id="edge16" class="edge">
<title>Node7&#45;&gt;Node15</title>
<path fill="none" stroke="midnightblue" d="M277.99,-112.08C278.79,-104.93 279.93,-94.64 280.92,-85.69"/>
<polygon fill="midnightblue" stroke="midnightblue" points="284.4,-86.08 282.03,-75.75 277.44,-85.3 284.4,-86.08"/>
</g>
<!-- Node8&#45;&gt;Node5 -->
<g id="edge11" class="edge">
<title>Node8&#45;&gt;Node5</title>
<path fill="none" stroke="midnightblue" d="M405.51,-56.45C373.01,-48.1 322.05,-34.85 269.22,-20.29"/>
<polygon fill="midnightblue" stroke="midnightblue" points="269.9,-16.85 259.33,-17.56 268.04,-23.6 269.9,-16.85"/>
</g>
<!-- Node8&#45;&gt;Node6 -->
<g id="edge14" class="edge">
<title>Node8&#45;&gt;Node6</title>
<path fill="none" stroke="midnightblue" d="M393.68,-57.29C348.69,-49.41 277.56,-36.32 206.73,-20.02"/>
<polygon fill="midnightblue" stroke="midnightblue" points="207.27,-16.56 196.74,-17.7 205.69,-23.38 207.27,-16.56"/>
</g>
<!-- Node9 -->
<g id="node9" class="node">
<title>Node9</title>
<g id="a_node9"><a xlink:title=" ">
<polygon fill="white" stroke="#bfbfbf" points="492,-0.5 492,-19.5 556,-19.5 556,-0.5 492,-0.5"/>
<text text-anchor="middle" x="524" y="-7.5" font-family="Helvetica,sans-Serif" font-size="10.00">algorithm</text>
</a>
</g>
</g>
<!-- Node8&#45;&gt;Node9 -->
<g id="edge8" class="edge">
<title>Node8&#45;&gt;Node9</title>
<path fill="none" stroke="midnightblue" d="M452.66,-56.32C465.92,-47.9 486.27,-34.97 501.85,-25.07"/>
<polygon fill="midnightblue" stroke="midnightblue" points="503.81,-27.97 510.38,-19.65 500.06,-22.06 503.81,-27.97"/>
</g>
<!-- Node10 -->
<g id="node10" class="node">
<title>Node10</title>
<g id="a_node10"><a xlink:title=" ">
<polygon fill="white" stroke="#bfbfbf" points="277,-0.5 277,-19.5 319,-19.5 319,-0.5 277,-0.5"/>
<text text-anchor="middle" x="298" y="-7.5" font-family="Helvetica,sans-Serif" font-size="10.00">array</text>
</a>
</g>
</g>
<!-- Node8&#45;&gt;Node10 -->
<g id="edge9" class="edge">
<title>Node8&#45;&gt;Node10</title>
<path fill="none" stroke="midnightblue" d="M416.66,-56.44C392.97,-47.37 355.39,-32.98 328.88,-22.83"/>
<polygon fill="midnightblue" stroke="midnightblue" points="329.9,-19.47 319.31,-19.16 327.4,-26.01 329.9,-19.47"/>
</g>
<!-- Node11 -->
<g id="node11" class="node">
<title>Node11</title>
<g id="a_node11"><a xlink:title=" ">
<polygon fill="white" stroke="#bfbfbf" points="337.5,-0.5 337.5,-19.5 386.5,-19.5 386.5,-0.5 337.5,-0.5"/>
<text text-anchor="middle" x="362" y="-7.5" font-family="Helvetica,sans-Serif" font-size="10.00">cctype</text>
</a>
</g>
</g>
<!-- Node8&#45;&gt;Node11 -->
<g id="edge10" class="edge">
<title>Node8&#45;&gt;Node11</title>
<path fill="none" stroke="midnightblue" d="M426.63,-56.32C414.84,-48.06 396.87,-35.45 382.86,-25.63"/>
<polygon fill="midnightblue" stroke="midnightblue" points="384.54,-22.53 374.34,-19.65 380.52,-28.26 384.54,-22.53"/>
</g>
<!-- Node8&#45;&gt;Node12 -->
<g id="edge12" class="edge">
<title>Node8&#45;&gt;Node12</title>
<path fill="none" stroke="midnightblue" d="M466.25,-56.44C495.44,-47.28 541.92,-32.69 574.31,-22.52"/>
<polygon fill="midnightblue" stroke="midnightblue" points="575.38,-25.85 583.87,-19.52 573.28,-19.17 575.38,-25.85"/>
</g>
<!-- Node13 -->
<g id="node13" class="node">
<title>Node13</title>
<g id="a_node13"><a xlink:title=" ">
<polygon fill="white" stroke="#bfbfbf" points="404.5,-0.5 404.5,-19.5 473.5,-19.5 473.5,-0.5 404.5,-0.5"/>
<text text-anchor="middle" x="439" y="-7.5" font-family="Helvetica,sans-Serif" font-size="10.00">type_traits</text>
</a>
</g>
</g>
<!-- Node8&#45;&gt;Node13 -->
<g id="edge13" class="edge">
<title>Node8&#45;&gt;Node13</title>
<path fill="none" stroke="midnightblue" d="M439,-56.08C439,-49.01 439,-38.86 439,-29.99"/>
<polygon fill="midnightblue" stroke="midnightblue" points="442.5,-29.75 439,-19.75 435.5,-29.75 442.5,-29.75"/>
</g>
</g>
</svg>
