<?xml version="1.0" encoding="UTF-8" standalone="no"?>
<!DOCTYPE svg PUBLIC "-//W3C//DTD SVG 1.1//EN"
 "http://www.w3.org/Graphics/SVG/1.1/DTD/svg11.dtd">
<!-- Generated by graphviz version 2.43.0 (0)
 -->
<!-- Title: src/ds/oversized.h Pages: 1 -->
<svg width="1777pt" height="364pt"
 viewBox="0.00 0.00 1777.26 364.00" xmlns="http://www.w3.org/2000/svg" xmlns:xlink="http://www.w3.org/1999/xlink">
<g id="graph0" class="graph" transform="scale(1 1) rotate(0) translate(4 360)">
<title>src/ds/oversized.h</title>
<polygon fill="white" stroke="transparent" points="-4,4 -4,-360 1773.26,-360 1773.26,4 -4,4"/>
<!-- Node1 -->
<g id="node1" class="node">
<title>Node1</title>
<g id="a_node1"><a xlink:title=" ">
<polygon fill="#bfbfbf" stroke="black" points="876.26,-336.5 876.26,-355.5 980.26,-355.5 980.26,-336.5 876.26,-336.5"/>
<text text-anchor="middle" x="928.26" y="-343.5" font-family="Helvetica,sans-Serif" font-size="10.00">src/ds/oversized.h</text>
</a>
</g>
</g>
<!-- Node2 -->
<g id="node2" class="node">
<title>Node2</title>
<g id="a_node2"><a xlink:href="messaging_8h.html" target="_top" xlink:title=" ">
<polygon fill="white" stroke="black" points="982.76,-280.5 982.76,-299.5 1061.76,-299.5 1061.76,-280.5 982.76,-280.5"/>
<text text-anchor="middle" x="1022.26" y="-287.5" font-family="Helvetica,sans-Serif" font-size="10.00">messaging.h</text>
</a>
</g>
</g>
<!-- Node1&#45;&gt;Node2 -->
<g id="edge1" class="edge">
<title>Node1&#45;&gt;Node2</title>
<path fill="none" stroke="midnightblue" d="M943.37,-336.32C958.17,-327.82 980.96,-314.73 998.25,-304.8"/>
<polygon fill="midnightblue" stroke="midnightblue" points="1000.27,-307.67 1007.2,-299.65 996.78,-301.6 1000.27,-307.67"/>
</g>
<!-- Node5 -->
<g id="node5" class="node">
<title>Node5</title>
<g id="a_node5"><a xlink:title=" ">
<polygon fill="white" stroke="#bfbfbf" points="1256.76,-112.5 1256.76,-131.5 1335.76,-131.5 1335.76,-112.5 1256.76,-112.5"/>
<text text-anchor="middle" x="1296.26" y="-119.5" font-family="Helvetica,sans-Serif" font-size="10.00">fmt/format.h</text>
</a>
</g>
</g>
<!-- Node1&#45;&gt;Node5 -->
<g id="edge62" class="edge">
<title>Node1&#45;&gt;Node5</title>
<path fill="none" stroke="midnightblue" d="M929.73,-336.11C935.11,-306.46 956.76,-210.52 1017.26,-168 1053.35,-142.64 1176.34,-130.71 1246.38,-125.85"/>
<polygon fill="midnightblue" stroke="midnightblue" points="1246.99,-129.32 1256.73,-125.16 1246.52,-122.33 1246.99,-129.32"/>
</g>
<!-- Node17 -->
<g id="node17" class="node">
<title>Node17</title>
<g id="a_node17"><a xlink:href="ring__buffer_8h.html" target="_top" xlink:title=" ">
<polygon fill="white" stroke="black" points="793.76,-224.5 793.76,-243.5 870.76,-243.5 870.76,-224.5 793.76,-224.5"/>
<text text-anchor="middle" x="832.26" y="-231.5" font-family="Helvetica,sans-Serif" font-size="10.00">ring_buffer.h</text>
</a>
</g>
</g>
<!-- Node1&#45;&gt;Node17 -->
<g id="edge60" class="edge">
<title>Node1&#45;&gt;Node17</title>
<path fill="none" stroke="midnightblue" d="M920.73,-336.37C904.75,-318.05 867.22,-275.05 846.54,-251.36"/>
<polygon fill="midnightblue" stroke="midnightblue" points="848.97,-248.82 839.76,-243.59 843.7,-253.43 848.97,-248.82"/>
</g>
<!-- Node32 -->
<g id="node32" class="node">
<title>Node32</title>
<g id="a_node32"><a xlink:href="serialized_8h.html" target="_top" xlink:title=" ">
<polygon fill="white" stroke="black" points="554.76,-56.5 554.76,-75.5 627.76,-75.5 627.76,-56.5 554.76,-56.5"/>
<text text-anchor="middle" x="591.26" y="-63.5" font-family="Helvetica,sans-Serif" font-size="10.00">serialized.h</text>
</a>
</g>
</g>
<!-- Node1&#45;&gt;Node32 -->
<g id="edge61" class="edge">
<title>Node1&#45;&gt;Node32</title>
<path fill="none" stroke="midnightblue" d="M876.25,-340.18C775.88,-329.42 565.26,-299.2 565.26,-235 565.26,-235 565.26,-235 565.26,-177 565.26,-143.93 576.53,-106.73 584.23,-85.17"/>
<polygon fill="midnightblue" stroke="midnightblue" points="587.56,-86.27 587.76,-75.68 580.99,-83.83 587.56,-86.27"/>
</g>
<!-- Node40 -->
<g id="node40" class="node">
<title>Node40</title>
<g id="a_node40"><a xlink:title=" ">
<polygon fill="white" stroke="#bfbfbf" points="1079.76,-280.5 1079.76,-299.5 1172.76,-299.5 1172.76,-280.5 1079.76,-280.5"/>
<text text-anchor="middle" x="1126.26" y="-287.5" font-family="Helvetica,sans-Serif" font-size="10.00">unordered_map</text>
</a>
</g>
</g>
<!-- Node1&#45;&gt;Node40 -->
<g id="edge63" class="edge">
<title>Node1&#45;&gt;Node40</title>
<path fill="none" stroke="midnightblue" d="M959.64,-336.44C993.53,-327.2 1047.67,-312.44 1084.99,-302.26"/>
<polygon fill="midnightblue" stroke="midnightblue" points="1086.31,-305.52 1095.04,-299.52 1084.47,-298.77 1086.31,-305.52"/>
</g>
<!-- Node3 -->
<g id="node3" class="node">
<title>Node3</title>
<g id="a_node3"><a xlink:href="logger_8h.html" target="_top" xlink:title=" ">
<polygon fill="white" stroke="black" points="1195.76,-224.5 1195.76,-243.5 1282.76,-243.5 1282.76,-224.5 1195.76,-224.5"/>
<text text-anchor="middle" x="1239.26" y="-231.5" font-family="Helvetica,sans-Serif" font-size="10.00">ccf/ds/logger.h</text>
</a>
</g>
</g>
<!-- Node2&#45;&gt;Node3 -->
<g id="edge2" class="edge">
<title>Node2&#45;&gt;Node3</title>
<path fill="none" stroke="midnightblue" d="M1056.65,-280.44C1094.19,-271.1 1154.39,-256.12 1195.33,-245.93"/>
<polygon fill="midnightblue" stroke="midnightblue" points="1196.18,-249.33 1205.04,-243.52 1194.49,-242.53 1196.18,-249.33"/>
</g>
<!-- Node9 -->
<g id="node9" class="node">
<title>Node9</title>
<g id="a_node9"><a xlink:title=" ">
<polygon fill="white" stroke="#bfbfbf" points="1662.26,-112.5 1662.26,-131.5 1700.26,-131.5 1700.26,-112.5 1662.26,-112.5"/>
<text text-anchor="middle" x="1681.26" y="-119.5" font-family="Helvetica,sans-Serif" font-size="10.00">map</text>
</a>
</g>
</g>
<!-- Node2&#45;&gt;Node9 -->
<g id="edge58" class="edge">
<title>Node2&#45;&gt;Node9</title>
<path fill="none" stroke="midnightblue" d="M1061.82,-281.6C1065.01,-281.04 1068.19,-280.5 1071.26,-280 1213.28,-256.78 1618.01,-296.74 1712.26,-188 1724.72,-173.63 1711.42,-153.38 1698.58,-139.32"/>
<polygon fill="midnightblue" stroke="midnightblue" points="1700.77,-136.55 1691.27,-131.84 1695.76,-141.44 1700.77,-136.55"/>
</g>
<!-- Node2&#45;&gt;Node17 -->
<g id="edge18" class="edge">
<title>Node2&#45;&gt;Node17</title>
<path fill="none" stroke="midnightblue" d="M992.16,-280.44C959.64,-271.2 907.69,-256.44 871.87,-246.26"/>
<polygon fill="midnightblue" stroke="midnightblue" points="872.8,-242.88 862.23,-243.52 870.89,-249.62 872.8,-242.88"/>
</g>
<!-- Node34 -->
<g id="node34" class="node">
<title>Node34</title>
<g id="a_node34"><a xlink:title=" ">
<polygon fill="white" stroke="#bfbfbf" points="1323.76,-0.5 1323.76,-19.5 1388.76,-19.5 1388.76,-0.5 1323.76,-0.5"/>
<text text-anchor="middle" x="1356.26" y="-7.5" font-family="Helvetica,sans-Serif" font-size="10.00">stdexcept</text>
</a>
</g>
</g>
<!-- Node2&#45;&gt;Node34 -->
<g id="edge59" class="edge">
<title>Node2&#45;&gt;Node34</title>
<path fill="none" stroke="midnightblue" d="M1061.78,-281.33C1064.98,-280.83 1068.17,-280.38 1071.26,-280 1322.32,-249.1 1395.04,-309.88 1639.26,-244 1701.63,-227.18 1769.26,-243.6 1769.26,-179 1769.26,-179 1769.26,-179 1769.26,-121 1769.26,-44.97 1504.62,-20.18 1399.02,-13.31"/>
<polygon fill="midnightblue" stroke="midnightblue" points="1399.22,-9.81 1389.02,-12.68 1398.78,-16.8 1399.22,-9.81"/>
</g>
<!-- Node37 -->
<g id="node37" class="node">
<title>Node37</title>
<g id="a_node37"><a xlink:title=" ">
<polygon fill="white" stroke="#bfbfbf" points="859.26,-112.5 859.26,-131.5 909.26,-131.5 909.26,-112.5 859.26,-112.5"/>
<text text-anchor="middle" x="884.26" y="-119.5" font-family="Helvetica,sans-Serif" font-size="10.00">atomic</text>
</a>
</g>
</g>
<!-- Node2&#45;&gt;Node37 -->
<g id="edge56" class="edge">
<title>Node2&#45;&gt;Node37</title>
<path fill="none" stroke="midnightblue" d="M1014.84,-280.08C992.65,-253.38 926.55,-173.87 897.83,-139.32"/>
<polygon fill="midnightblue" stroke="midnightblue" points="900.47,-137.02 891.39,-131.57 895.09,-141.5 900.47,-137.02"/>
</g>
<!-- Node39 -->
<g id="node39" class="node">
<title>Node39</title>
<g id="a_node39"><a xlink:title=" ">
<polygon fill="white" stroke="#bfbfbf" points="994.76,-224.5 994.76,-243.5 1101.76,-243.5 1101.76,-224.5 994.76,-224.5"/>
<text text-anchor="middle" x="1048.26" y="-231.5" font-family="Helvetica,sans-Serif" font-size="10.00">condition_variable</text>
</a>
</g>
</g>
<!-- Node2&#45;&gt;Node39 -->
<g id="edge57" class="edge">
<title>Node2&#45;&gt;Node39</title>
<path fill="none" stroke="midnightblue" d="M1026.56,-280.08C1030.12,-272.69 1035.29,-261.95 1039.69,-252.81"/>
<polygon fill="midnightblue" stroke="midnightblue" points="1042.87,-254.28 1044.05,-243.75 1036.56,-251.24 1042.87,-254.28"/>
</g>
<!-- Node4 -->
<g id="node4" class="node">
<title>Node4</title>
<g id="a_node4"><a xlink:href="enum__formatter_8h.html" target="_top" xlink:title=" ">
<polygon fill="white" stroke="black" points="1228.26,-168.5 1228.26,-187.5 1364.26,-187.5 1364.26,-168.5 1228.26,-168.5"/>
<text text-anchor="middle" x="1296.26" y="-175.5" font-family="Helvetica,sans-Serif" font-size="10.00">ccf/ds/enum_formatter.h</text>
</a>
</g>
</g>
<!-- Node3&#45;&gt;Node4 -->
<g id="edge3" class="edge">
<title>Node3&#45;&gt;Node4</title>
<path fill="none" stroke="midnightblue" d="M1248.42,-224.32C1256.77,-216.42 1269.3,-204.55 1279.44,-194.94"/>
<polygon fill="midnightblue" stroke="midnightblue" points="1282.09,-197.25 1286.94,-187.83 1277.27,-192.17 1282.09,-197.25"/>
</g>
<!-- Node3&#45;&gt;Node5 -->
<g id="edge12" class="edge">
<title>Node3&#45;&gt;Node5</title>
<path fill="none" stroke="midnightblue" d="M1282.89,-231.05C1313.64,-227.12 1352.85,-216.39 1373.26,-188 1388.98,-166.15 1357.99,-147.08 1330.76,-135.35"/>
<polygon fill="midnightblue" stroke="midnightblue" points="1331.95,-132.05 1321.37,-131.51 1329.3,-138.53 1331.95,-132.05"/>
</g>
<!-- Node6 -->
<g id="node6" class="node">
<title>Node6</title>
<g id="a_node6"><a xlink:href="thread__ids_8h.html" target="_top" xlink:title=" ">
<polygon fill="white" stroke="black" points="1420.26,-168.5 1420.26,-187.5 1528.26,-187.5 1528.26,-168.5 1420.26,-168.5"/>
<text text-anchor="middle" x="1474.26" y="-175.5" font-family="Helvetica,sans-Serif" font-size="10.00">ccf/ds/thread_ids.h</text>
</a>
</g>
</g>
<!-- Node3&#45;&gt;Node6 -->
<g id="edge5" class="edge">
<title>Node3&#45;&gt;Node6</title>
<path fill="none" stroke="midnightblue" d="M1276.5,-224.44C1317.32,-215.06 1382.91,-199.99 1427.25,-189.8"/>
<polygon fill="midnightblue" stroke="midnightblue" points="1428.24,-193.17 1437.2,-187.52 1426.67,-186.34 1428.24,-193.17"/>
</g>
<!-- Node11 -->
<g id="node11" class="node">
<title>Node11</title>
<g id="a_node11"><a xlink:title=" ">
<polygon fill="white" stroke="#bfbfbf" points="1546.76,-168.5 1546.76,-187.5 1625.76,-187.5 1625.76,-168.5 1546.76,-168.5"/>
<text text-anchor="middle" x="1586.26" y="-175.5" font-family="Helvetica,sans-Serif" font-size="10.00">fmt/chrono.h</text>
</a>
</g>
</g>
<!-- Node3&#45;&gt;Node11 -->
<g id="edge11" class="edge">
<title>Node3&#45;&gt;Node11</title>
<path fill="none" stroke="midnightblue" d="M1283.26,-226.8C1339.53,-218.78 1440.24,-204.08 1536.77,-188.04"/>
<polygon fill="midnightblue" stroke="midnightblue" points="1537.42,-191.48 1546.7,-186.38 1536.26,-184.57 1537.42,-191.48"/>
</g>
<!-- Node12 -->
<g id="node12" class="node">
<title>Node12</title>
<g id="a_node12"><a xlink:title=" ">
<polygon fill="white" stroke="#bfbfbf" points="1643.26,-168.5 1643.26,-187.5 1703.26,-187.5 1703.26,-168.5 1643.26,-168.5"/>
<text text-anchor="middle" x="1673.26" y="-175.5" font-family="Helvetica,sans-Serif" font-size="10.00">iostream</text>
</a>
</g>
</g>
<!-- Node3&#45;&gt;Node12 -->
<g id="edge13" class="edge">
<title>Node3&#45;&gt;Node12</title>
<path fill="none" stroke="midnightblue" d="M1282.87,-229.76C1354.28,-224.08 1500.76,-210.86 1633.14,-188.22"/>
<polygon fill="midnightblue" stroke="midnightblue" points="1633.79,-191.66 1643.05,-186.5 1632.6,-184.76 1633.79,-191.66"/>
</g>
<!-- Node13 -->
<g id="node13" class="node">
<title>Node13</title>
<g id="a_node13"><a xlink:title=" ">
<polygon fill="white" stroke="#bfbfbf" points="1026.26,-168.5 1026.26,-187.5 1136.26,-187.5 1136.26,-168.5 1026.26,-168.5"/>
<text text-anchor="middle" x="1081.26" y="-175.5" font-family="Helvetica,sans-Serif" font-size="10.00">nlohmann/json.hpp</text>
</a>
</g>
</g>
<!-- Node3&#45;&gt;Node13 -->
<g id="edge14" class="edge">
<title>Node3&#45;&gt;Node13</title>
<path fill="none" stroke="midnightblue" d="M1214.23,-224.44C1187.65,-215.36 1145.45,-200.94 1115.74,-190.78"/>
<polygon fill="midnightblue" stroke="midnightblue" points="1116.78,-187.44 1106.18,-187.52 1114.51,-194.06 1116.78,-187.44"/>
</g>
<!-- Node14 -->
<g id="node14" class="node">
<title>Node14</title>
<g id="a_node14"><a xlink:title=" ">
<polygon fill="white" stroke="#bfbfbf" points="927.26,-112.5 927.26,-131.5 983.26,-131.5 983.26,-112.5 927.26,-112.5"/>
<text text-anchor="middle" x="955.26" y="-119.5" font-family="Helvetica,sans-Serif" font-size="10.00">optional</text>
</a>
</g>
</g>
<!-- Node3&#45;&gt;Node14 -->
<g id="edge15" class="edge">
<title>Node3&#45;&gt;Node14</title>
<path fill="none" stroke="midnightblue" d="M1195.74,-230.2C1131.79,-225.3 1016.51,-213.18 984.26,-188 969.83,-176.73 962.39,-156.72 958.68,-141.87"/>
<polygon fill="midnightblue" stroke="midnightblue" points="962.03,-140.8 956.52,-131.75 955.18,-142.26 962.03,-140.8"/>
</g>
<!-- Node15 -->
<g id="node15" class="node">
<title>Node15</title>
<g id="a_node15"><a xlink:title=" ">
<polygon fill="white" stroke="#bfbfbf" points="1154.26,-168.5 1154.26,-187.5 1210.26,-187.5 1210.26,-168.5 1154.26,-168.5"/>
<text text-anchor="middle" x="1182.26" y="-175.5" font-family="Helvetica,sans-Serif" font-size="10.00">sstream</text>
</a>
</g>
</g>
<!-- Node3&#45;&gt;Node15 -->
<g id="edge16" class="edge">
<title>Node3&#45;&gt;Node15</title>
<path fill="none" stroke="midnightblue" d="M1230.11,-224.32C1221.76,-216.42 1209.23,-204.55 1199.09,-194.94"/>
<polygon fill="midnightblue" stroke="midnightblue" points="1201.26,-192.17 1191.59,-187.83 1196.44,-197.25 1201.26,-192.17"/>
</g>
<!-- Node16 -->
<g id="node16" class="node">
<title>Node16</title>
<g id="a_node16"><a xlink:title=" ">
<polygon fill="white" stroke="#bfbfbf" points="754.76,-0.5 754.76,-19.5 823.76,-19.5 823.76,-0.5 754.76,-0.5"/>
<text text-anchor="middle" x="789.26" y="-7.5" font-family="Helvetica,sans-Serif" font-size="10.00">type_traits</text>
</a>
</g>
</g>
<!-- Node3&#45;&gt;Node16 -->
<g id="edge17" class="edge">
<title>Node3&#45;&gt;Node16</title>
<path fill="none" stroke="midnightblue" d="M1195.35,-229.3C1138.36,-223.64 1043.13,-210.99 1017.26,-188 990.68,-164.38 1015.53,-138.89 992.26,-112 950.26,-63.47 879.42,-35.79 833.51,-22.09"/>
<polygon fill="midnightblue" stroke="midnightblue" points="834.41,-18.7 823.83,-19.29 832.47,-25.43 834.41,-18.7"/>
</g>
<!-- Node4&#45;&gt;Node5 -->
<g id="edge4" class="edge">
<title>Node4&#45;&gt;Node5</title>
<path fill="none" stroke="midnightblue" d="M1296.26,-168.08C1296.26,-161.01 1296.26,-150.86 1296.26,-141.99"/>
<polygon fill="midnightblue" stroke="midnightblue" points="1299.76,-141.75 1296.26,-131.75 1292.76,-141.75 1299.76,-141.75"/>
</g>
<!-- Node6&#45;&gt;Node5 -->
<g id="edge6" class="edge">
<title>Node6&#45;&gt;Node5</title>
<path fill="none" stroke="midnightblue" d="M1446.06,-168.44C1415.85,-159.28 1367.75,-144.69 1334.23,-134.52"/>
<polygon fill="midnightblue" stroke="midnightblue" points="1334.92,-131.07 1324.34,-131.52 1332.89,-137.77 1334.92,-131.07"/>
</g>
<!-- Node7 -->
<g id="node7" class="node">
<title>Node7</title>
<g id="a_node7"><a xlink:title=" ">
<polygon fill="white" stroke="#bfbfbf" points="1516.26,-112.5 1516.26,-131.5 1602.26,-131.5 1602.26,-112.5 1516.26,-112.5"/>
<text text-anchor="middle" x="1559.26" y="-119.5" font-family="Helvetica,sans-Serif" font-size="10.00">fmt/ostream.h</text>
</a>
</g>
</g>
<!-- Node6&#45;&gt;Node7 -->
<g id="edge7" class="edge">
<title>Node6&#45;&gt;Node7</title>
<path fill="none" stroke="midnightblue" d="M1487.92,-168.32C1501.18,-159.9 1521.53,-146.97 1537.11,-137.07"/>
<polygon fill="midnightblue" stroke="midnightblue" points="1539.08,-139.97 1545.64,-131.65 1535.32,-134.06 1539.08,-139.97"/>
</g>
<!-- Node8 -->
<g id="node8" class="node">
<title>Node8</title>
<g id="a_node8"><a xlink:title=" ">
<polygon fill="white" stroke="#bfbfbf" points="1388.26,-112.5 1388.26,-131.5 1432.26,-131.5 1432.26,-112.5 1388.26,-112.5"/>
<text text-anchor="middle" x="1410.26" y="-119.5" font-family="Helvetica,sans-Serif" font-size="10.00">limits</text>
</a>
</g>
</g>
<!-- Node6&#45;&gt;Node8 -->
<g id="edge8" class="edge">
<title>Node6&#45;&gt;Node8</title>
<path fill="none" stroke="midnightblue" d="M1463.98,-168.32C1454.43,-160.26 1439.98,-148.08 1428.48,-138.37"/>
<polygon fill="midnightblue" stroke="midnightblue" points="1430.63,-135.61 1420.73,-131.83 1426.12,-140.96 1430.63,-135.61"/>
</g>
<!-- Node6&#45;&gt;Node9 -->
<g id="edge9" class="edge">
<title>Node6&#45;&gt;Node9</title>
<path fill="none" stroke="midnightblue" d="M1507.06,-168.44C1547.08,-158.01 1614.1,-140.52 1652.29,-130.56"/>
<polygon fill="midnightblue" stroke="midnightblue" points="1653.46,-133.87 1662.25,-127.96 1651.69,-127.1 1653.46,-133.87"/>
</g>
<!-- Node10 -->
<g id="node10" class="node">
<title>Node10</title>
<g id="a_node10"><a xlink:title=" ">
<polygon fill="white" stroke="#bfbfbf" points="1450.26,-112.5 1450.26,-131.5 1498.26,-131.5 1498.26,-112.5 1450.26,-112.5"/>
<text text-anchor="middle" x="1474.26" y="-119.5" font-family="Helvetica,sans-Serif" font-size="10.00">thread</text>
</a>
</g>
</g>
<!-- Node6&#45;&gt;Node10 -->
<g id="edge10" class="edge">
<title>Node6&#45;&gt;Node10</title>
<path fill="none" stroke="midnightblue" d="M1474.26,-168.08C1474.26,-161.01 1474.26,-150.86 1474.26,-141.99"/>
<polygon fill="midnightblue" stroke="midnightblue" points="1477.76,-141.75 1474.26,-131.75 1470.76,-141.75 1477.76,-141.75"/>
</g>
<!-- Node18 -->
<g id="node18" class="node">
<title>Node18</title>
<g id="a_node18"><a xlink:href="ring__buffer__types_8h.html" target="_top" xlink:title=" ">
<polygon fill="white" stroke="black" points="610.26,-168.5 610.26,-187.5 720.26,-187.5 720.26,-168.5 610.26,-168.5"/>
<text text-anchor="middle" x="665.26" y="-175.5" font-family="Helvetica,sans-Serif" font-size="10.00">ring_buffer_types.h</text>
</a>
</g>
</g>
<!-- Node17&#45;&gt;Node18 -->
<g id="edge19" class="edge">
<title>Node17&#45;&gt;Node18</title>
<path fill="none" stroke="midnightblue" d="M805.8,-224.44C777.59,-215.32 732.72,-200.81 701.3,-190.65"/>
<polygon fill="midnightblue" stroke="midnightblue" points="702.19,-187.26 691.6,-187.52 700.04,-193.92 702.19,-187.26"/>
</g>
<!-- Node33 -->
<g id="node33" class="node">
<title>Node33</title>
<g id="a_node33"><a xlink:title=" ">
<polygon fill="white" stroke="#bfbfbf" points="842.26,-0.5 842.26,-19.5 892.26,-19.5 892.26,-0.5 842.26,-0.5"/>
<text text-anchor="middle" x="867.26" y="-7.5" font-family="Helvetica,sans-Serif" font-size="10.00">cstring</text>
</a>
</g>
</g>
<!-- Node17&#45;&gt;Node33 -->
<g id="edge54" class="edge">
<title>Node17&#45;&gt;Node33</title>
<path fill="none" stroke="midnightblue" d="M833.47,-224.48C836.3,-204.71 843.58,-154.16 850.26,-112 854.82,-83.24 860.51,-49.94 864.01,-29.68"/>
<polygon fill="midnightblue" stroke="midnightblue" points="867.49,-30.09 865.75,-19.64 860.59,-28.89 867.49,-30.09"/>
</g>
<!-- Node38 -->
<g id="node38" class="node">
<title>Node38</title>
<g id="a_node38"><a xlink:title=" ">
<polygon fill="white" stroke="#bfbfbf" points="738.76,-168.5 738.76,-187.5 803.76,-187.5 803.76,-168.5 738.76,-168.5"/>
<text text-anchor="middle" x="771.26" y="-175.5" font-family="Helvetica,sans-Serif" font-size="10.00">functional</text>
</a>
</g>
</g>
<!-- Node17&#45;&gt;Node38 -->
<g id="edge55" class="edge">
<title>Node17&#45;&gt;Node38</title>
<path fill="none" stroke="midnightblue" d="M822.46,-224.32C813.45,-216.34 799.86,-204.31 788.95,-194.65"/>
<polygon fill="midnightblue" stroke="midnightblue" points="791.05,-191.84 781.24,-187.83 786.41,-197.08 791.05,-191.84"/>
</g>
<!-- Node18&#45;&gt;Node5 -->
<g id="edge50" class="edge">
<title>Node18&#45;&gt;Node5</title>
<path fill="none" stroke="midnightblue" d="M720.4,-169.03C723.39,-168.67 726.36,-168.32 729.26,-168 920.05,-147.03 1147.99,-131.96 1246.68,-125.92"/>
<polygon fill="midnightblue" stroke="midnightblue" points="1246.89,-129.42 1256.66,-125.32 1246.47,-122.43 1246.89,-129.42"/>
</g>
<!-- Node18&#45;&gt;Node14 -->
<g id="edge51" class="edge">
<title>Node18&#45;&gt;Node14</title>
<path fill="none" stroke="midnightblue" d="M718.76,-168.48C767.89,-160.44 842.93,-147.58 917.05,-132.16"/>
<polygon fill="midnightblue" stroke="midnightblue" points="917.96,-135.54 927.02,-130.06 916.52,-128.69 917.96,-135.54"/>
</g>
<!-- Node19 -->
<g id="node19" class="node">
<title>Node19</title>
<g id="a_node19"><a xlink:href="nonstd_8h.html" target="_top" xlink:title=" ">
<polygon fill="white" stroke="black" points="446.26,-56.5 446.26,-75.5 536.26,-75.5 536.26,-56.5 446.26,-56.5"/>
<text text-anchor="middle" x="491.26" y="-63.5" font-family="Helvetica,sans-Serif" font-size="10.00">ccf/ds/nonstd.h</text>
</a>
</g>
</g>
<!-- Node18&#45;&gt;Node19 -->
<g id="edge20" class="edge">
<title>Node18&#45;&gt;Node19</title>
<path fill="none" stroke="midnightblue" d="M651.61,-168.37C621.62,-149.41 549.79,-104 513.32,-80.94"/>
<polygon fill="midnightblue" stroke="midnightblue" points="515.18,-77.98 504.85,-75.59 511.44,-83.89 515.18,-77.98"/>
</g>
<!-- Node23 -->
<g id="node23" class="node">
<title>Node23</title>
<g id="a_node23"><a xlink:title=" ">
<polygon fill="white" stroke="#bfbfbf" points="673.26,-0.5 673.26,-19.5 717.26,-19.5 717.26,-0.5 673.26,-0.5"/>
<text text-anchor="middle" x="695.26" y="-7.5" font-family="Helvetica,sans-Serif" font-size="10.00">string</text>
</a>
</g>
</g>
<!-- Node18&#45;&gt;Node23 -->
<g id="edge52" class="edge">
<title>Node18&#45;&gt;Node23</title>
<path fill="none" stroke="midnightblue" d="M680.67,-168.26C705.49,-153.18 753.45,-119.63 772.26,-76 782.95,-51.21 752.79,-32.69 727.13,-21.89"/>
<polygon fill="midnightblue" stroke="midnightblue" points="728.2,-18.55 717.61,-18.13 725.63,-25.06 728.2,-18.55"/>
</g>
<!-- Node25 -->
<g id="node25" class="node">
<title>Node25</title>
<g id="a_node25"><a xlink:title=" ">
<polygon fill="white" stroke="#bfbfbf" points="305.76,-0.5 305.76,-19.5 352.76,-19.5 352.76,-0.5 305.76,-0.5"/>
<text text-anchor="middle" x="329.26" y="-7.5" font-family="Helvetica,sans-Serif" font-size="10.00">vector</text>
</a>
</g>
</g>
<!-- Node18&#45;&gt;Node25 -->
<g id="edge53" class="edge">
<title>Node18&#45;&gt;Node25</title>
<path fill="none" stroke="midnightblue" d="M627.25,-168.49C572.36,-155.01 469.17,-125.12 393.26,-76 373,-62.89 354.19,-42.36 342.28,-27.88"/>
<polygon fill="midnightblue" stroke="midnightblue" points="344.77,-25.4 335.8,-19.78 339.3,-29.77 344.77,-25.4"/>
</g>
<!-- Node26 -->
<g id="node26" class="node">
<title>Node26</title>
<g id="a_node26"><a xlink:href="ds_2hash_8h.html" target="_top" xlink:title=" ">
<polygon fill="white" stroke="black" points="157.76,-112.5 157.76,-131.5 220.76,-131.5 220.76,-112.5 157.76,-112.5"/>
<text text-anchor="middle" x="189.26" y="-119.5" font-family="Helvetica,sans-Serif" font-size="10.00">ds/hash.h</text>
</a>
</g>
</g>
<!-- Node18&#45;&gt;Node26 -->
<g id="edge28" class="edge">
<title>Node18&#45;&gt;Node26</title>
<path fill="none" stroke="midnightblue" d="M610.2,-170.75C513.88,-159.83 316.9,-137.48 230.94,-127.73"/>
<polygon fill="midnightblue" stroke="midnightblue" points="231.11,-124.22 220.78,-126.58 230.32,-131.18 231.11,-124.22"/>
</g>
<!-- Node31 -->
<g id="node31" class="node">
<title>Node31</title>
<g id="a_node31"><a xlink:href="serializer_8h.html" target="_top" xlink:title=" ">
<polygon fill="white" stroke="black" points="631.26,-112.5 631.26,-131.5 701.26,-131.5 701.26,-112.5 631.26,-112.5"/>
<text text-anchor="middle" x="666.26" y="-119.5" font-family="Helvetica,sans-Serif" font-size="10.00">serializer.h</text>
</a>
</g>
</g>
<!-- Node18&#45;&gt;Node31 -->
<g id="edge37" class="edge">
<title>Node18&#45;&gt;Node31</title>
<path fill="none" stroke="midnightblue" d="M665.43,-168.08C665.56,-161.01 665.75,-150.86 665.91,-141.99"/>
<polygon fill="midnightblue" stroke="midnightblue" points="669.42,-141.81 666.1,-131.75 662.42,-141.68 669.42,-141.81"/>
</g>
<!-- Node18&#45;&gt;Node37 -->
<g id="edge49" class="edge">
<title>Node18&#45;&gt;Node37</title>
<path fill="none" stroke="midnightblue" d="M699.96,-168.44C740.88,-158.35 808.49,-141.68 849.45,-131.58"/>
<polygon fill="midnightblue" stroke="midnightblue" points="850.39,-134.96 859.26,-129.16 848.71,-128.16 850.39,-134.96"/>
</g>
<!-- Node19&#45;&gt;Node16 -->
<g id="edge26" class="edge">
<title>Node19&#45;&gt;Node16</title>
<path fill="none" stroke="midnightblue" d="M536.52,-56.8C592.93,-46.58 688.72,-29.22 744.77,-19.06"/>
<polygon fill="midnightblue" stroke="midnightblue" points="745.54,-22.48 754.75,-17.25 744.29,-15.59 745.54,-22.48"/>
</g>
<!-- Node20 -->
<g id="node20" class="node">
<title>Node20</title>
<g id="a_node20"><a xlink:title=" ">
<polygon fill="white" stroke="#bfbfbf" points="523.26,-0.5 523.26,-19.5 587.26,-19.5 587.26,-0.5 523.26,-0.5"/>
<text text-anchor="middle" x="555.26" y="-7.5" font-family="Helvetica,sans-Serif" font-size="10.00">algorithm</text>
</a>
</g>
</g>
<!-- Node19&#45;&gt;Node20 -->
<g id="edge21" class="edge">
<title>Node19&#45;&gt;Node20</title>
<path fill="none" stroke="midnightblue" d="M501.55,-56.32C511.1,-48.26 525.54,-36.08 537.05,-26.37"/>
<polygon fill="midnightblue" stroke="midnightblue" points="539.41,-28.96 544.79,-19.83 534.89,-23.61 539.41,-28.96"/>
</g>
<!-- Node21 -->
<g id="node21" class="node">
<title>Node21</title>
<g id="a_node21"><a xlink:title=" ">
<polygon fill="white" stroke="#bfbfbf" points="371.26,-0.5 371.26,-19.5 413.26,-19.5 413.26,-0.5 371.26,-0.5"/>
<text text-anchor="middle" x="392.26" y="-7.5" font-family="Helvetica,sans-Serif" font-size="10.00">array</text>
</a>
</g>
</g>
<!-- Node19&#45;&gt;Node21 -->
<g id="edge22" class="edge">
<title>Node19&#45;&gt;Node21</title>
<path fill="none" stroke="midnightblue" d="M475.36,-56.32C459.63,-47.74 435.32,-34.49 417.05,-24.52"/>
<polygon fill="midnightblue" stroke="midnightblue" points="418.59,-21.37 408.13,-19.65 415.23,-27.52 418.59,-21.37"/>
</g>
<!-- Node22 -->
<g id="node22" class="node">
<title>Node22</title>
<g id="a_node22"><a xlink:title=" ">
<polygon fill="white" stroke="#bfbfbf" points="605.76,-0.5 605.76,-19.5 654.76,-19.5 654.76,-0.5 605.76,-0.5"/>
<text text-anchor="middle" x="630.26" y="-7.5" font-family="Helvetica,sans-Serif" font-size="10.00">cctype</text>
</a>
</g>
</g>
<!-- Node19&#45;&gt;Node22 -->
<g id="edge23" class="edge">
<title>Node19&#45;&gt;Node22</title>
<path fill="none" stroke="midnightblue" d="M513.29,-56.44C536.37,-47.48 572.83,-33.31 598.9,-23.18"/>
<polygon fill="midnightblue" stroke="midnightblue" points="600.29,-26.4 608.34,-19.52 597.75,-19.88 600.29,-26.4"/>
</g>
<!-- Node19&#45;&gt;Node23 -->
<g id="edge24" class="edge">
<title>Node19&#45;&gt;Node23</title>
<path fill="none" stroke="midnightblue" d="M524.61,-56.47C559.29,-47.55 615.16,-33.06 663.26,-20 663.36,-19.97 663.47,-19.95 663.57,-19.92"/>
<polygon fill="midnightblue" stroke="midnightblue" points="664.53,-23.28 673.24,-17.25 662.67,-16.53 664.53,-23.28"/>
</g>
<!-- Node24 -->
<g id="node24" class="node">
<title>Node24</title>
<g id="a_node24"><a xlink:title=" ">
<polygon fill="white" stroke="#bfbfbf" points="431.76,-0.5 431.76,-19.5 504.76,-19.5 504.76,-0.5 431.76,-0.5"/>
<text text-anchor="middle" x="468.26" y="-7.5" font-family="Helvetica,sans-Serif" font-size="10.00">string_view</text>
</a>
</g>
</g>
<!-- Node19&#45;&gt;Node24 -->
<g id="edge25" class="edge">
<title>Node19&#45;&gt;Node24</title>
<path fill="none" stroke="midnightblue" d="M487.47,-56.08C484.35,-48.77 479.84,-38.18 475.97,-29.1"/>
<polygon fill="midnightblue" stroke="midnightblue" points="479.13,-27.58 471.99,-19.75 472.69,-30.32 479.13,-27.58"/>
</g>
<!-- Node19&#45;&gt;Node25 -->
<g id="edge27" class="edge">
<title>Node19&#45;&gt;Node25</title>
<path fill="none" stroke="midnightblue" d="M465.59,-56.44C437.78,-47.17 393.29,-32.34 362.75,-22.16"/>
<polygon fill="midnightblue" stroke="midnightblue" points="363.56,-18.74 352.97,-18.9 361.35,-25.38 363.56,-18.74"/>
</g>
<!-- Node26&#45;&gt;Node21 -->
<g id="edge33" class="edge">
<title>Node26&#45;&gt;Node21</title>
<path fill="none" stroke="midnightblue" d="M220.97,-114.45C249.21,-107.68 290.95,-95.36 323.26,-76 344.98,-62.99 365.51,-42.15 378.44,-27.58"/>
<polygon fill="midnightblue" stroke="midnightblue" points="381.24,-29.7 385.12,-19.84 375.94,-25.12 381.24,-29.7"/>
</g>
<!-- Node26&#45;&gt;Node25 -->
<g id="edge36" class="edge">
<title>Node26&#45;&gt;Node25</title>
<path fill="none" stroke="midnightblue" d="M179.05,-112.41C164.8,-99.39 142.18,-74.22 156.26,-56 173.17,-34.13 250.31,-20.91 295.67,-14.89"/>
<polygon fill="midnightblue" stroke="midnightblue" points="296.17,-18.35 305.65,-13.61 295.29,-11.41 296.17,-18.35"/>
</g>
<!-- Node27 -->
<g id="node27" class="node">
<title>Node27</title>
<g id="a_node27"><a xlink:href="siphash_8h.html" target="_top" xlink:title=" ">
<polygon fill="white" stroke="black" points="14.76,-56.5 14.76,-75.5 109.76,-75.5 109.76,-56.5 14.76,-56.5"/>
<text text-anchor="middle" x="62.26" y="-63.5" font-family="Helvetica,sans-Serif" font-size="10.00">ccf/ds/siphash.h</text>
</a>
</g>
</g>
<!-- Node26&#45;&gt;Node27 -->
<g id="edge29" class="edge">
<title>Node26&#45;&gt;Node27</title>
<path fill="none" stroke="midnightblue" d="M169.14,-112.44C148.24,-103.56 115.33,-89.56 91.55,-79.45"/>
<polygon fill="midnightblue" stroke="midnightblue" points="92.87,-76.21 82.29,-75.52 90.13,-82.65 92.87,-76.21"/>
</g>
<!-- Node29 -->
<g id="node29" class="node">
<title>Node29</title>
<g id="a_node29"><a xlink:title=" ">
<polygon fill="white" stroke="#bfbfbf" points="2.26,-0.5 2.26,-19.5 52.26,-19.5 52.26,-0.5 2.26,-0.5"/>
<text text-anchor="middle" x="27.26" y="-7.5" font-family="Helvetica,sans-Serif" font-size="10.00">cstdint</text>
</a>
</g>
</g>
<!-- Node26&#45;&gt;Node29 -->
<g id="edge34" class="edge">
<title>Node26&#45;&gt;Node29</title>
<path fill="none" stroke="midnightblue" d="M157.44,-117.88C109.88,-112.49 23.84,-99.67 5.26,-76 -5.72,-62.01 3.59,-42.23 13.26,-28.17"/>
<polygon fill="midnightblue" stroke="midnightblue" points="16.27,-29.98 19.46,-19.88 10.67,-25.79 16.27,-29.98"/>
</g>
<!-- Node30 -->
<g id="node30" class="node">
<title>Node30</title>
<g id="a_node30"><a xlink:title=" ">
<polygon fill="white" stroke="#bfbfbf" points="165.76,-56.5 165.76,-75.5 314.76,-75.5 314.76,-56.5 165.76,-56.5"/>
<text text-anchor="middle" x="240.26" y="-63.5" font-family="Helvetica,sans-Serif" font-size="10.00">small_vector/SmallVector.h</text>
</a>
</g>
</g>
<!-- Node26&#45;&gt;Node30 -->
<g id="edge35" class="edge">
<title>Node26&#45;&gt;Node30</title>
<path fill="none" stroke="midnightblue" d="M197.69,-112.08C205.11,-104.22 216.12,-92.57 225.08,-83.08"/>
<polygon fill="midnightblue" stroke="midnightblue" points="227.68,-85.42 232,-75.75 222.59,-80.62 227.68,-85.42"/>
</g>
<!-- Node27&#45;&gt;Node25 -->
<g id="edge32" class="edge">
<title>Node27&#45;&gt;Node25</title>
<path fill="none" stroke="midnightblue" d="M104.57,-56.44C157.45,-45.75 246.89,-27.66 295.45,-17.84"/>
<polygon fill="midnightblue" stroke="midnightblue" points="296.34,-21.23 305.45,-15.82 294.95,-14.37 296.34,-21.23"/>
</g>
<!-- Node28 -->
<g id="node28" class="node">
<title>Node28</title>
<g id="a_node28"><a xlink:title=" ">
<polygon fill="white" stroke="#bfbfbf" points="70.76,-0.5 70.76,-19.5 123.76,-19.5 123.76,-0.5 70.76,-0.5"/>
<text text-anchor="middle" x="97.26" y="-7.5" font-family="Helvetica,sans-Serif" font-size="10.00">cstddef</text>
</a>
</g>
</g>
<!-- Node27&#45;&gt;Node28 -->
<g id="edge30" class="edge">
<title>Node27&#45;&gt;Node28</title>
<path fill="none" stroke="midnightblue" d="M68.04,-56.08C72.94,-48.53 80.09,-37.49 86.1,-28.23"/>
<polygon fill="midnightblue" stroke="midnightblue" points="89.09,-30.05 91.59,-19.75 83.22,-26.24 89.09,-30.05"/>
</g>
<!-- Node27&#45;&gt;Node29 -->
<g id="edge31" class="edge">
<title>Node27&#45;&gt;Node29</title>
<path fill="none" stroke="midnightblue" d="M56.48,-56.08C51.59,-48.53 44.44,-37.49 38.43,-28.23"/>
<polygon fill="midnightblue" stroke="midnightblue" points="41.31,-26.24 32.94,-19.75 35.44,-30.05 41.31,-26.24"/>
</g>
<!-- Node31&#45;&gt;Node16 -->
<g id="edge47" class="edge">
<title>Node31&#45;&gt;Node16</title>
<path fill="none" stroke="midnightblue" d="M701.32,-114.5C724.62,-108.4 754.16,-96.95 772.26,-76 783.34,-63.19 787.32,-44 788.69,-29.79"/>
<polygon fill="midnightblue" stroke="midnightblue" points="792.19,-29.88 789.32,-19.68 785.2,-29.44 792.19,-29.88"/>
</g>
<!-- Node31&#45;&gt;Node19 -->
<g id="edge38" class="edge">
<title>Node31&#45;&gt;Node19</title>
<path fill="none" stroke="midnightblue" d="M638.53,-112.44C608.84,-103.28 561.55,-88.69 528.59,-78.52"/>
<polygon fill="midnightblue" stroke="midnightblue" points="529.45,-75.12 518.86,-75.52 527.39,-81.81 529.45,-75.12"/>
</g>
<!-- Node31&#45;&gt;Node25 -->
<g id="edge48" class="edge">
<title>Node31&#45;&gt;Node25</title>
<path fill="none" stroke="midnightblue" d="M631.08,-117.91C585.2,-113.03 503.05,-101.36 437.26,-76 404.18,-63.25 369.71,-40.6 348.87,-25.69"/>
<polygon fill="midnightblue" stroke="midnightblue" points="350.7,-22.7 340.55,-19.64 346.58,-28.35 350.7,-22.7"/>
</g>
<!-- Node31&#45;&gt;Node32 -->
<g id="edge39" class="edge">
<title>Node31&#45;&gt;Node32</title>
<path fill="none" stroke="midnightblue" d="M654.21,-112.32C642.8,-104.11 625.43,-91.6 611.83,-81.81"/>
<polygon fill="midnightblue" stroke="midnightblue" points="613.69,-78.84 603.53,-75.83 609.6,-84.52 613.69,-78.84"/>
</g>
<!-- Node35 -->
<g id="node35" class="node">
<title>Node35</title>
<g id="a_node35"><a xlink:title=" ">
<polygon fill="white" stroke="#bfbfbf" points="705.26,-56.5 705.26,-75.5 763.26,-75.5 763.26,-56.5 705.26,-56.5"/>
<text text-anchor="middle" x="734.26" y="-63.5" font-family="Helvetica,sans-Serif" font-size="10.00">memory</text>
</a>
</g>
</g>
<!-- Node31&#45;&gt;Node35 -->
<g id="edge45" class="edge">
<title>Node31&#45;&gt;Node35</title>
<path fill="none" stroke="midnightblue" d="M677.19,-112.32C687.44,-104.18 702.98,-91.84 715.26,-82.09"/>
<polygon fill="midnightblue" stroke="midnightblue" points="717.49,-84.79 723.14,-75.83 713.13,-79.31 717.49,-84.79"/>
</g>
<!-- Node36 -->
<g id="node36" class="node">
<title>Node36</title>
<g id="a_node36"><a xlink:title=" ">
<polygon fill="white" stroke="#bfbfbf" points="645.76,-56.5 645.76,-75.5 686.76,-75.5 686.76,-56.5 645.76,-56.5"/>
<text text-anchor="middle" x="666.26" y="-63.5" font-family="Helvetica,sans-Serif" font-size="10.00">tuple</text>
</a>
</g>
</g>
<!-- Node31&#45;&gt;Node36 -->
<g id="edge46" class="edge">
<title>Node31&#45;&gt;Node36</title>
<path fill="none" stroke="midnightblue" d="M666.26,-112.08C666.26,-105.01 666.26,-94.86 666.26,-85.99"/>
<polygon fill="midnightblue" stroke="midnightblue" points="669.76,-85.75 666.26,-75.75 662.76,-85.75 669.76,-85.75"/>
</g>
<!-- Node32&#45;&gt;Node23 -->
<g id="edge43" class="edge">
<title>Node32&#45;&gt;Node23</title>
<path fill="none" stroke="midnightblue" d="M607.97,-56.32C624.58,-47.7 650.27,-34.36 669.48,-24.39"/>
<polygon fill="midnightblue" stroke="midnightblue" points="671.33,-27.37 678.6,-19.65 668.11,-21.16 671.33,-27.37"/>
</g>
<!-- Node32&#45;&gt;Node25 -->
<g id="edge44" class="edge">
<title>Node32&#45;&gt;Node25</title>
<path fill="none" stroke="midnightblue" d="M554.38,-57.79C498.77,-46.91 396.97,-26.98 363.05,-19.88"/>
<polygon fill="midnightblue" stroke="midnightblue" points="363.52,-16.4 353,-17.69 362.03,-23.24 363.52,-16.4"/>
</g>
<!-- Node32&#45;&gt;Node29 -->
<g id="edge40" class="edge">
<title>Node32&#45;&gt;Node29</title>
<path fill="none" stroke="midnightblue" d="M554.67,-57.43C551.5,-56.9 548.33,-56.41 545.26,-56 334.72,-27.68 275.76,-54.9 62.35,-19.87"/>
<polygon fill="midnightblue" stroke="midnightblue" points="62.84,-16.4 52.4,-18.21 61.69,-23.31 62.84,-16.4"/>
</g>
<!-- Node32&#45;&gt;Node33 -->
<g id="edge41" class="edge">
<title>Node32&#45;&gt;Node33</title>
<path fill="none" stroke="midnightblue" d="M628.09,-57.59C630.86,-57.04 633.6,-56.51 636.26,-56 723.25,-39.31 745.77,-39.04 832.26,-20 832.36,-19.98 832.46,-19.96 832.56,-19.93"/>
<polygon fill="midnightblue" stroke="midnightblue" points="833.14,-23.39 842.08,-17.7 831.54,-16.58 833.14,-23.39"/>
</g>
<!-- Node32&#45;&gt;Node34 -->
<g id="edge42" class="edge">
<title>Node32&#45;&gt;Node34</title>
<path fill="none" stroke="midnightblue" d="M628.03,-57.23C630.81,-56.77 633.58,-56.35 636.26,-56 891.62,-22.64 1201.26,-13.84 1313.25,-11.67"/>
<polygon fill="midnightblue" stroke="midnightblue" points="1313.53,-15.16 1323.46,-11.48 1313.4,-8.16 1313.53,-15.16"/>
</g>
</g>
</svg>
