<?xml version="1.0" encoding="UTF-8" standalone="no"?>
<!DOCTYPE svg PUBLIC "-//W3C//DTD SVG 1.1//EN"
 "http://www.w3.org/Graphics/SVG/1.1/DTD/svg11.dtd">
<!-- Generated by graphviz version 2.43.0 (0)
 -->
<!-- Title: src/host/process_launcher.h Pages: 1 -->
<svg width="1905pt" height="476pt"
 viewBox="0.00 0.00 1905.00 476.00" xmlns="http://www.w3.org/2000/svg" xmlns:xlink="http://www.w3.org/1999/xlink">
<g id="graph0" class="graph" transform="scale(1 1) rotate(0) translate(4 472)">
<title>src/host/process_launcher.h</title>
<polygon fill="white" stroke="transparent" points="-4,4 -4,-472 1901,-472 1901,4 -4,4"/>
<!-- Node1 -->
<g id="node1" class="node">
<title>Node1</title>
<g id="a_node1"><a xlink:title=" ">
<polygon fill="#bfbfbf" stroke="black" points="1137.5,-448.5 1137.5,-467.5 1288.5,-467.5 1288.5,-448.5 1137.5,-448.5"/>
<text text-anchor="middle" x="1213" y="-455.5" font-family="Helvetica,sans-Serif" font-size="10.00">src/host/process_launcher.h</text>
</a>
</g>
</g>
<!-- Node2 -->
<g id="node2" class="node">
<title>Node2</title>
<g id="a_node2"><a xlink:href="messaging_8h.html" target="_top" xlink:title=" ">
<polygon fill="white" stroke="black" points="820.5,-280.5 820.5,-299.5 913.5,-299.5 913.5,-280.5 820.5,-280.5"/>
<text text-anchor="middle" x="867" y="-287.5" font-family="Helvetica,sans-Serif" font-size="10.00">ds/messaging.h</text>
</a>
</g>
</g>
<!-- Node1&#45;&gt;Node2 -->
<g id="edge1" class="edge">
<title>Node1&#45;&gt;Node2</title>
<path fill="none" stroke="midnightblue" d="M1172.82,-448.46C1115.93,-435.11 1010.14,-405.56 932,-356 911.46,-342.98 892.35,-322.43 880.23,-307.93"/>
<polygon fill="midnightblue" stroke="midnightblue" points="882.66,-305.37 873.65,-299.8 877.23,-309.77 882.66,-305.37"/>
</g>
<!-- Node40 -->
<g id="node40" class="node">
<title>Node40</title>
<g id="a_node40"><a xlink:href="interface_8h.html" target="_top" xlink:title=" ">
<polygon fill="white" stroke="black" points="1117,-392.5 1117,-411.5 1227,-411.5 1227,-392.5 1117,-392.5"/>
<text text-anchor="middle" x="1172" y="-399.5" font-family="Helvetica,sans-Serif" font-size="10.00">enclave/interface.h</text>
</a>
</g>
</g>
<!-- Node1&#45;&gt;Node40 -->
<g id="edge60" class="edge">
<title>Node1&#45;&gt;Node40</title>
<path fill="none" stroke="midnightblue" d="M1206.23,-448.08C1200.44,-440.46 1191.94,-429.26 1184.86,-419.94"/>
<polygon fill="midnightblue" stroke="midnightblue" points="1187.48,-417.6 1178.64,-411.75 1181.9,-421.83 1187.48,-417.6"/>
</g>
<!-- Node42 -->
<g id="node42" class="node">
<title>Node42</title>
<g id="a_node42"><a xlink:title=" ">
<polygon fill="white" stroke="#bfbfbf" points="709.5,-280.5 709.5,-299.5 802.5,-299.5 802.5,-280.5 709.5,-280.5"/>
<text text-anchor="middle" x="756" y="-287.5" font-family="Helvetica,sans-Serif" font-size="10.00">unordered_map</text>
</a>
</g>
</g>
<!-- Node1&#45;&gt;Node42 -->
<g id="edge72" class="edge">
<title>Node1&#45;&gt;Node42</title>
<path fill="none" stroke="midnightblue" d="M1153.44,-448.44C1110.34,-441.27 1051.12,-429.39 1001,-412 915.37,-382.29 821.1,-329.53 778.77,-304.68"/>
<polygon fill="midnightblue" stroke="midnightblue" points="780.48,-301.62 770.09,-299.54 776.91,-307.64 780.48,-301.62"/>
</g>
<!-- Node43 -->
<g id="node43" class="node">
<title>Node43</title>
<g id="a_node43"><a xlink:title=" ">
<polygon fill="white" stroke="#bfbfbf" points="1847,-336.5 1847,-355.5 1897,-355.5 1897,-336.5 1847,-336.5"/>
<text text-anchor="middle" x="1872" y="-343.5" font-family="Helvetica,sans-Serif" font-size="10.00">chrono</text>
</a>
</g>
</g>
<!-- Node1&#45;&gt;Node43 -->
<g id="edge70" class="edge">
<title>Node1&#45;&gt;Node43</title>
<path fill="none" stroke="midnightblue" d="M1218.18,-448.3C1227.45,-433.64 1248.43,-404.4 1275,-392 1387.6,-339.44 1710.06,-374.03 1833,-356 1834.28,-355.81 1835.57,-355.61 1836.88,-355.38"/>
<polygon fill="midnightblue" stroke="midnightblue" points="1837.8,-358.77 1846.94,-353.41 1836.45,-351.9 1837.8,-358.77"/>
</g>
<!-- Node44 -->
<g id="node44" class="node">
<title>Node44</title>
<g id="a_node44"><a xlink:title=" ">
<polygon fill="white" stroke="#bfbfbf" points="1283.5,-392.5 1283.5,-411.5 1330.5,-411.5 1330.5,-392.5 1283.5,-392.5"/>
<text text-anchor="middle" x="1307" y="-399.5" font-family="Helvetica,sans-Serif" font-size="10.00">queue</text>
</a>
</g>
</g>
<!-- Node1&#45;&gt;Node44 -->
<g id="edge71" class="edge">
<title>Node1&#45;&gt;Node44</title>
<path fill="none" stroke="midnightblue" d="M1228.1,-448.32C1242.9,-439.82 1265.69,-426.73 1282.98,-416.8"/>
<polygon fill="midnightblue" stroke="midnightblue" points="1285.01,-419.67 1291.93,-411.65 1281.52,-413.6 1285.01,-419.67"/>
</g>
<!-- Node45 -->
<g id="node45" class="node">
<title>Node45</title>
<g id="a_node45"><a xlink:title=" ">
<polygon fill="white" stroke="#bfbfbf" points="1348.5,-392.5 1348.5,-411.5 1385.5,-411.5 1385.5,-392.5 1348.5,-392.5"/>
<text text-anchor="middle" x="1367" y="-399.5" font-family="Helvetica,sans-Serif" font-size="10.00">uv.h</text>
</a>
</g>
</g>
<!-- Node1&#45;&gt;Node45 -->
<g id="edge73" class="edge">
<title>Node1&#45;&gt;Node45</title>
<path fill="none" stroke="midnightblue" d="M1237.4,-448.44C1264.87,-438.81 1309.43,-423.19 1338.48,-413"/>
<polygon fill="midnightblue" stroke="midnightblue" points="1339.77,-416.26 1348.05,-409.64 1337.46,-409.65 1339.77,-416.26"/>
</g>
<!-- Node3 -->
<g id="node3" class="node">
<title>Node3</title>
<g id="a_node3"><a xlink:href="logger_8h.html" target="_top" xlink:title=" ">
<polygon fill="white" stroke="black" points="500.5,-224.5 500.5,-243.5 587.5,-243.5 587.5,-224.5 500.5,-224.5"/>
<text text-anchor="middle" x="544" y="-231.5" font-family="Helvetica,sans-Serif" font-size="10.00">ccf/ds/logger.h</text>
</a>
</g>
</g>
<!-- Node2&#45;&gt;Node3 -->
<g id="edge2" class="edge">
<title>Node2&#45;&gt;Node3</title>
<path fill="none" stroke="midnightblue" d="M820.38,-281.21C761.3,-271.33 659.69,-254.34 597.51,-243.95"/>
<polygon fill="midnightblue" stroke="midnightblue" points="597.94,-240.47 587.5,-242.27 596.79,-247.37 597.94,-240.47"/>
</g>
<!-- Node9 -->
<g id="node9" class="node">
<title>Node9</title>
<g id="a_node9"><a xlink:title=" ">
<polygon fill="white" stroke="#bfbfbf" points="0,-112.5 0,-131.5 38,-131.5 38,-112.5 0,-112.5"/>
<text text-anchor="middle" x="19" y="-119.5" font-family="Helvetica,sans-Serif" font-size="10.00">map</text>
</a>
</g>
</g>
<!-- Node2&#45;&gt;Node9 -->
<g id="edge58" class="edge">
<title>Node2&#45;&gt;Node9</title>
<path fill="none" stroke="midnightblue" d="M820.27,-281.32C817.14,-280.86 814.02,-280.41 811,-280 669.2,-260.64 633.13,-260.78 491,-244 289.53,-220.22 192.54,-319.42 38,-188 24.72,-176.71 20.45,-156.71 19.21,-141.86"/>
<polygon fill="midnightblue" stroke="midnightblue" points="22.7,-141.58 18.75,-131.74 15.71,-141.89 22.7,-141.58"/>
</g>
<!-- Node17 -->
<g id="node17" class="node">
<title>Node17</title>
<g id="a_node17"><a xlink:href="ring__buffer_8h.html" target="_top" xlink:title=" ">
<polygon fill="white" stroke="black" points="970.5,-224.5 970.5,-243.5 1047.5,-243.5 1047.5,-224.5 970.5,-224.5"/>
<text text-anchor="middle" x="1009" y="-231.5" font-family="Helvetica,sans-Serif" font-size="10.00">ring_buffer.h</text>
</a>
</g>
</g>
<!-- Node2&#45;&gt;Node17 -->
<g id="edge18" class="edge">
<title>Node2&#45;&gt;Node17</title>
<path fill="none" stroke="midnightblue" d="M889.5,-280.44C913.08,-271.48 950.32,-257.31 976.96,-247.18"/>
<polygon fill="midnightblue" stroke="midnightblue" points="978.5,-250.34 986.6,-243.52 976.01,-243.8 978.5,-250.34"/>
</g>
<!-- Node34 -->
<g id="node34" class="node">
<title>Node34</title>
<g id="a_node34"><a xlink:title=" ">
<polygon fill="white" stroke="#bfbfbf" points="880.5,-0.5 880.5,-19.5 945.5,-19.5 945.5,-0.5 880.5,-0.5"/>
<text text-anchor="middle" x="913" y="-7.5" font-family="Helvetica,sans-Serif" font-size="10.00">stdexcept</text>
</a>
</g>
</g>
<!-- Node2&#45;&gt;Node34 -->
<g id="edge59" class="edge">
<title>Node2&#45;&gt;Node34</title>
<path fill="none" stroke="midnightblue" d="M861.58,-280.25C850.86,-262.1 828,-218.71 828,-179 828,-179 828,-179 828,-121 828,-79.76 865.86,-44.57 891.05,-25.73"/>
<polygon fill="midnightblue" stroke="midnightblue" points="893.27,-28.44 899.34,-19.76 889.18,-22.76 893.27,-28.44"/>
</g>
<!-- Node37 -->
<g id="node37" class="node">
<title>Node37</title>
<g id="a_node37"><a xlink:title=" ">
<polygon fill="white" stroke="#bfbfbf" points="930,-112.5 930,-131.5 980,-131.5 980,-112.5 930,-112.5"/>
<text text-anchor="middle" x="955" y="-119.5" font-family="Helvetica,sans-Serif" font-size="10.00">atomic</text>
</a>
</g>
</g>
<!-- Node2&#45;&gt;Node37 -->
<g id="edge56" class="edge">
<title>Node2&#45;&gt;Node37</title>
<path fill="none" stroke="midnightblue" d="M870.41,-280.22C878.44,-259.88 899.65,-208.24 923,-168 928.65,-158.26 935.86,-147.98 942,-139.71"/>
<polygon fill="midnightblue" stroke="midnightblue" points="944.86,-141.72 948.12,-131.64 939.29,-137.49 944.86,-141.72"/>
</g>
<!-- Node39 -->
<g id="node39" class="node">
<title>Node39</title>
<g id="a_node39"><a xlink:title=" ">
<polygon fill="white" stroke="#bfbfbf" points="692.5,-224.5 692.5,-243.5 799.5,-243.5 799.5,-224.5 692.5,-224.5"/>
<text text-anchor="middle" x="746" y="-231.5" font-family="Helvetica,sans-Serif" font-size="10.00">condition_variable</text>
</a>
</g>
</g>
<!-- Node2&#45;&gt;Node39 -->
<g id="edge57" class="edge">
<title>Node2&#45;&gt;Node39</title>
<path fill="none" stroke="midnightblue" d="M847.83,-280.44C828.09,-271.64 797.11,-257.81 774.51,-247.72"/>
<polygon fill="midnightblue" stroke="midnightblue" points="775.64,-244.4 765.08,-243.52 772.79,-250.79 775.64,-244.4"/>
</g>
<!-- Node4 -->
<g id="node4" class="node">
<title>Node4</title>
<g id="a_node4"><a xlink:href="enum__formatter_8h.html" target="_top" xlink:title=" ">
<polygon fill="white" stroke="black" points="413,-168.5 413,-187.5 549,-187.5 549,-168.5 413,-168.5"/>
<text text-anchor="middle" x="481" y="-175.5" font-family="Helvetica,sans-Serif" font-size="10.00">ccf/ds/enum_formatter.h</text>
</a>
</g>
</g>
<!-- Node3&#45;&gt;Node4 -->
<g id="edge3" class="edge">
<title>Node3&#45;&gt;Node4</title>
<path fill="none" stroke="midnightblue" d="M533.88,-224.32C524.47,-216.26 510.26,-204.08 498.93,-194.37"/>
<polygon fill="midnightblue" stroke="midnightblue" points="501.18,-191.68 491.31,-187.83 496.62,-197 501.18,-191.68"/>
</g>
<!-- Node5 -->
<g id="node5" class="node">
<title>Node5</title>
<g id="a_node5"><a xlink:title=" ">
<polygon fill="white" stroke="#bfbfbf" points="441.5,-112.5 441.5,-131.5 520.5,-131.5 520.5,-112.5 441.5,-112.5"/>
<text text-anchor="middle" x="481" y="-119.5" font-family="Helvetica,sans-Serif" font-size="10.00">fmt/format.h</text>
</a>
</g>
</g>
<!-- Node3&#45;&gt;Node5 -->
<g id="edge12" class="edge">
<title>Node3&#45;&gt;Node5</title>
<path fill="none" stroke="midnightblue" d="M500.31,-230.42C412.52,-224.79 221.4,-210.12 202,-188 196.14,-181.32 196.24,-174.77 202,-168 230.84,-134.13 358.81,-125.67 431,-123.61"/>
<polygon fill="midnightblue" stroke="midnightblue" points="431.32,-127.1 441.23,-123.35 431.14,-120.1 431.32,-127.1"/>
</g>
<!-- Node6 -->
<g id="node6" class="node">
<title>Node6</title>
<g id="a_node6"><a xlink:href="thread__ids_8h.html" target="_top" xlink:title=" ">
<polygon fill="white" stroke="black" points="47,-168.5 47,-187.5 155,-187.5 155,-168.5 47,-168.5"/>
<text text-anchor="middle" x="101" y="-175.5" font-family="Helvetica,sans-Serif" font-size="10.00">ccf/ds/thread_ids.h</text>
</a>
</g>
</g>
<!-- Node3&#45;&gt;Node6 -->
<g id="edge5" class="edge">
<title>Node3&#45;&gt;Node6</title>
<path fill="none" stroke="midnightblue" d="M500.39,-227.94C430.44,-219.79 288.86,-203.12 169,-188 167.74,-187.84 166.46,-187.68 165.18,-187.52"/>
<polygon fill="midnightblue" stroke="midnightblue" points="165.55,-184.03 155.18,-186.23 164.66,-190.98 165.55,-184.03"/>
</g>
<!-- Node11 -->
<g id="node11" class="node">
<title>Node11</title>
<g id="a_node11"><a xlink:title=" ">
<polygon fill="white" stroke="#bfbfbf" points="567.5,-168.5 567.5,-187.5 646.5,-187.5 646.5,-168.5 567.5,-168.5"/>
<text text-anchor="middle" x="607" y="-175.5" font-family="Helvetica,sans-Serif" font-size="10.00">fmt/chrono.h</text>
</a>
</g>
</g>
<!-- Node3&#45;&gt;Node11 -->
<g id="edge11" class="edge">
<title>Node3&#45;&gt;Node11</title>
<path fill="none" stroke="midnightblue" d="M554.12,-224.32C563.53,-216.26 577.74,-204.08 589.07,-194.37"/>
<polygon fill="midnightblue" stroke="midnightblue" points="591.38,-197 596.69,-187.83 586.82,-191.68 591.38,-197"/>
</g>
<!-- Node12 -->
<g id="node12" class="node">
<title>Node12</title>
<g id="a_node12"><a xlink:title=" ">
<polygon fill="white" stroke="#bfbfbf" points="664,-168.5 664,-187.5 724,-187.5 724,-168.5 664,-168.5"/>
<text text-anchor="middle" x="694" y="-175.5" font-family="Helvetica,sans-Serif" font-size="10.00">iostream</text>
</a>
</g>
</g>
<!-- Node3&#45;&gt;Node12 -->
<g id="edge13" class="edge">
<title>Node3&#45;&gt;Node12</title>
<path fill="none" stroke="midnightblue" d="M567.77,-224.44C592.89,-215.4 632.71,-201.06 660.9,-190.92"/>
<polygon fill="midnightblue" stroke="midnightblue" points="662.12,-194.2 670.34,-187.52 659.75,-187.61 662.12,-194.2"/>
</g>
<!-- Node13 -->
<g id="node13" class="node">
<title>Node13</title>
<g id="a_node13"><a xlink:title=" ">
<polygon fill="white" stroke="#bfbfbf" points="211,-168.5 211,-187.5 321,-187.5 321,-168.5 211,-168.5"/>
<text text-anchor="middle" x="266" y="-175.5" font-family="Helvetica,sans-Serif" font-size="10.00">nlohmann/json.hpp</text>
</a>
</g>
</g>
<!-- Node3&#45;&gt;Node13 -->
<g id="edge14" class="edge">
<title>Node3&#45;&gt;Node13</title>
<path fill="none" stroke="midnightblue" d="M500.26,-224.5C451.42,-215.02 372.34,-199.66 319.77,-189.44"/>
<polygon fill="midnightblue" stroke="midnightblue" points="320.43,-186.01 309.95,-187.54 319.1,-192.88 320.43,-186.01"/>
</g>
<!-- Node14 -->
<g id="node14" class="node">
<title>Node14</title>
<g id="a_node14"><a xlink:title=" ">
<polygon fill="white" stroke="#bfbfbf" points="856,-112.5 856,-131.5 912,-131.5 912,-112.5 856,-112.5"/>
<text text-anchor="middle" x="884" y="-119.5" font-family="Helvetica,sans-Serif" font-size="10.00">optional</text>
</a>
</g>
</g>
<!-- Node3&#45;&gt;Node14 -->
<g id="edge15" class="edge">
<title>Node3&#45;&gt;Node14</title>
<path fill="none" stroke="midnightblue" d="M587.84,-232.12C641.18,-229.56 732.9,-220.34 804,-188 829.56,-176.37 853.85,-154.57 868.82,-139.44"/>
<polygon fill="midnightblue" stroke="midnightblue" points="871.72,-141.47 876.12,-131.83 866.67,-136.62 871.72,-141.47"/>
</g>
<!-- Node15 -->
<g id="node15" class="node">
<title>Node15</title>
<g id="a_node15"><a xlink:title=" ">
<polygon fill="white" stroke="#bfbfbf" points="339,-168.5 339,-187.5 395,-187.5 395,-168.5 339,-168.5"/>
<text text-anchor="middle" x="367" y="-175.5" font-family="Helvetica,sans-Serif" font-size="10.00">sstream</text>
</a>
</g>
</g>
<!-- Node3&#45;&gt;Node15 -->
<g id="edge16" class="edge">
<title>Node3&#45;&gt;Node15</title>
<path fill="none" stroke="midnightblue" d="M515.95,-224.44C485.92,-215.28 438.09,-200.69 404.76,-190.52"/>
<polygon fill="midnightblue" stroke="midnightblue" points="405.5,-187.09 394.91,-187.52 403.46,-193.78 405.5,-187.09"/>
</g>
<!-- Node16 -->
<g id="node16" class="node">
<title>Node16</title>
<g id="a_node16"><a xlink:title=" ">
<polygon fill="white" stroke="#bfbfbf" points="726.5,-0.5 726.5,-19.5 795.5,-19.5 795.5,-0.5 726.5,-0.5"/>
<text text-anchor="middle" x="761" y="-7.5" font-family="Helvetica,sans-Serif" font-size="10.00">type_traits</text>
</a>
</g>
</g>
<!-- Node3&#45;&gt;Node16 -->
<g id="edge17" class="edge">
<title>Node3&#45;&gt;Node16</title>
<path fill="none" stroke="midnightblue" d="M587.5,-228.24C637.02,-221.9 713.58,-208.97 733,-188 773.82,-143.92 768.99,-65.63 764.15,-29.82"/>
<polygon fill="midnightblue" stroke="midnightblue" points="767.59,-29.15 762.64,-19.78 760.67,-30.19 767.59,-29.15"/>
</g>
<!-- Node4&#45;&gt;Node5 -->
<g id="edge4" class="edge">
<title>Node4&#45;&gt;Node5</title>
<path fill="none" stroke="midnightblue" d="M481,-168.08C481,-161.01 481,-150.86 481,-141.99"/>
<polygon fill="midnightblue" stroke="midnightblue" points="484.5,-141.75 481,-131.75 477.5,-141.75 484.5,-141.75"/>
</g>
<!-- Node6&#45;&gt;Node5 -->
<g id="edge6" class="edge">
<title>Node6&#45;&gt;Node5</title>
<path fill="none" stroke="midnightblue" d="M155.04,-169.32C228.77,-158.84 359.85,-140.22 431.26,-130.07"/>
<polygon fill="midnightblue" stroke="midnightblue" points="431.94,-133.51 441.35,-128.63 430.96,-126.58 431.94,-133.51"/>
</g>
<!-- Node7 -->
<g id="node7" class="node">
<title>Node7</title>
<g id="a_node7"><a xlink:title=" ">
<polygon fill="white" stroke="#bfbfbf" points="56,-112.5 56,-131.5 142,-131.5 142,-112.5 56,-112.5"/>
<text text-anchor="middle" x="99" y="-119.5" font-family="Helvetica,sans-Serif" font-size="10.00">fmt/ostream.h</text>
</a>
</g>
</g>
<!-- Node6&#45;&gt;Node7 -->
<g id="edge7" class="edge">
<title>Node6&#45;&gt;Node7</title>
<path fill="none" stroke="midnightblue" d="M100.67,-168.08C100.41,-161.01 100.03,-150.86 99.7,-141.99"/>
<polygon fill="midnightblue" stroke="midnightblue" points="103.19,-141.61 99.32,-131.75 96.2,-141.87 103.19,-141.61"/>
</g>
<!-- Node8 -->
<g id="node8" class="node">
<title>Node8</title>
<g id="a_node8"><a xlink:title=" ">
<polygon fill="white" stroke="#bfbfbf" points="160,-112.5 160,-131.5 204,-131.5 204,-112.5 160,-112.5"/>
<text text-anchor="middle" x="182" y="-119.5" font-family="Helvetica,sans-Serif" font-size="10.00">limits</text>
</a>
</g>
</g>
<!-- Node6&#45;&gt;Node8 -->
<g id="edge8" class="edge">
<title>Node6&#45;&gt;Node8</title>
<path fill="none" stroke="midnightblue" d="M114.01,-168.32C126.53,-159.98 145.68,-147.21 160.47,-137.35"/>
<polygon fill="midnightblue" stroke="midnightblue" points="162.64,-140.11 169.02,-131.65 158.76,-134.29 162.64,-140.11"/>
</g>
<!-- Node6&#45;&gt;Node9 -->
<g id="edge9" class="edge">
<title>Node6&#45;&gt;Node9</title>
<path fill="none" stroke="midnightblue" d="M87.83,-168.32C75.15,-159.98 55.77,-147.21 40.79,-137.35"/>
<polygon fill="midnightblue" stroke="midnightblue" points="42.42,-134.23 32.14,-131.65 38.57,-140.08 42.42,-134.23"/>
</g>
<!-- Node10 -->
<g id="node10" class="node">
<title>Node10</title>
<g id="a_node10"><a xlink:title=" ">
<polygon fill="white" stroke="#bfbfbf" points="222,-112.5 222,-131.5 270,-131.5 270,-112.5 222,-112.5"/>
<text text-anchor="middle" x="246" y="-119.5" font-family="Helvetica,sans-Serif" font-size="10.00">thread</text>
</a>
</g>
</g>
<!-- Node6&#45;&gt;Node10 -->
<g id="edge10" class="edge">
<title>Node6&#45;&gt;Node10</title>
<path fill="none" stroke="midnightblue" d="M123.98,-168.44C148.16,-159.44 186.42,-145.19 213.65,-135.05"/>
<polygon fill="midnightblue" stroke="midnightblue" points="214.98,-138.29 223.13,-131.52 212.54,-131.73 214.98,-138.29"/>
</g>
<!-- Node18 -->
<g id="node18" class="node">
<title>Node18</title>
<g id="a_node18"><a xlink:href="ring__buffer__types_8h.html" target="_top" xlink:title=" ">
<polygon fill="white" stroke="black" points="1016,-168.5 1016,-187.5 1126,-187.5 1126,-168.5 1016,-168.5"/>
<text text-anchor="middle" x="1071" y="-175.5" font-family="Helvetica,sans-Serif" font-size="10.00">ring_buffer_types.h</text>
</a>
</g>
</g>
<!-- Node17&#45;&gt;Node18 -->
<g id="edge19" class="edge">
<title>Node17&#45;&gt;Node18</title>
<path fill="none" stroke="midnightblue" d="M1018.96,-224.32C1028.13,-216.34 1041.94,-204.31 1053.03,-194.65"/>
<polygon fill="midnightblue" stroke="midnightblue" points="1055.62,-197.04 1060.86,-187.83 1051.02,-191.76 1055.62,-197.04"/>
</g>
<!-- Node33 -->
<g id="node33" class="node">
<title>Node33</title>
<g id="a_node33"><a xlink:title=" ">
<polygon fill="white" stroke="#bfbfbf" points="1259,-0.5 1259,-19.5 1309,-19.5 1309,-0.5 1259,-0.5"/>
<text text-anchor="middle" x="1284" y="-7.5" font-family="Helvetica,sans-Serif" font-size="10.00">cstring</text>
</a>
</g>
</g>
<!-- Node17&#45;&gt;Node33 -->
<g id="edge54" class="edge">
<title>Node17&#45;&gt;Node33</title>
<path fill="none" stroke="midnightblue" d="M1047.68,-230.61C1076.97,-226.53 1115.4,-215.82 1135,-188 1151.51,-164.57 1113.19,-158.79 1103,-132 1091,-100.43 1082.15,-82.57 1103,-56 1142.66,-5.46 1181.2,-33.77 1249,-19.97"/>
<polygon fill="midnightblue" stroke="midnightblue" points="1249.8,-23.38 1258.76,-17.74 1248.23,-16.56 1249.8,-23.38"/>
</g>
<!-- Node38 -->
<g id="node38" class="node">
<title>Node38</title>
<g id="a_node38"><a xlink:title=" ">
<polygon fill="white" stroke="#bfbfbf" points="932.5,-168.5 932.5,-187.5 997.5,-187.5 997.5,-168.5 932.5,-168.5"/>
<text text-anchor="middle" x="965" y="-175.5" font-family="Helvetica,sans-Serif" font-size="10.00">functional</text>
</a>
</g>
</g>
<!-- Node17&#45;&gt;Node38 -->
<g id="edge55" class="edge">
<title>Node17&#45;&gt;Node38</title>
<path fill="none" stroke="midnightblue" d="M1001.73,-224.08C995.46,-216.38 986.21,-205.03 978.57,-195.65"/>
<polygon fill="midnightblue" stroke="midnightblue" points="981.16,-193.29 972.13,-187.75 975.73,-197.71 981.16,-193.29"/>
</g>
<!-- Node18&#45;&gt;Node5 -->
<g id="edge50" class="edge">
<title>Node18&#45;&gt;Node5</title>
<path fill="none" stroke="midnightblue" d="M1015.71,-169.14C1012.42,-168.74 1009.17,-168.36 1006,-168 831.62,-148.47 623.83,-132.94 530.58,-126.38"/>
<polygon fill="midnightblue" stroke="midnightblue" points="530.8,-122.89 520.58,-125.69 530.32,-129.87 530.8,-122.89"/>
</g>
<!-- Node18&#45;&gt;Node14 -->
<g id="edge51" class="edge">
<title>Node18&#45;&gt;Node14</title>
<path fill="none" stroke="midnightblue" d="M1041.37,-168.44C1009.12,-159.13 957.47,-144.22 922.2,-134.03"/>
<polygon fill="midnightblue" stroke="midnightblue" points="922.85,-130.57 912.27,-131.16 920.9,-137.3 922.85,-130.57"/>
</g>
<!-- Node19 -->
<g id="node19" class="node">
<title>Node19</title>
<g id="a_node19"><a xlink:href="nonstd_8h.html" target="_top" xlink:title=" ">
<polygon fill="white" stroke="black" points="928,-56.5 928,-75.5 1018,-75.5 1018,-56.5 928,-56.5"/>
<text text-anchor="middle" x="973" y="-63.5" font-family="Helvetica,sans-Serif" font-size="10.00">ccf/ds/nonstd.h</text>
</a>
</g>
</g>
<!-- Node18&#45;&gt;Node19 -->
<g id="edge20" class="edge">
<title>Node18&#45;&gt;Node19</title>
<path fill="none" stroke="midnightblue" d="M1063.31,-168.37C1046.99,-150.05 1008.68,-107.05 987.58,-83.36"/>
<polygon fill="midnightblue" stroke="midnightblue" points="989.92,-80.73 980.65,-75.59 984.69,-85.39 989.92,-80.73"/>
</g>
<!-- Node23 -->
<g id="node23" class="node">
<title>Node23</title>
<g id="a_node23"><a xlink:title=" ">
<polygon fill="white" stroke="#bfbfbf" points="1137,-0.5 1137,-19.5 1181,-19.5 1181,-0.5 1137,-0.5"/>
<text text-anchor="middle" x="1159" y="-7.5" font-family="Helvetica,sans-Serif" font-size="10.00">string</text>
</a>
</g>
</g>
<!-- Node18&#45;&gt;Node23 -->
<g id="edge52" class="edge">
<title>Node18&#45;&gt;Node23</title>
<path fill="none" stroke="midnightblue" d="M1068.02,-168.26C1061.38,-147.13 1047.66,-92.33 1070,-56 1076.63,-45.22 1104.69,-32.09 1127.55,-22.8"/>
<polygon fill="midnightblue" stroke="midnightblue" points="1128.95,-26.01 1136.95,-19.07 1126.37,-19.5 1128.95,-26.01"/>
</g>
<!-- Node25 -->
<g id="node25" class="node">
<title>Node25</title>
<g id="a_node25"><a xlink:title=" ">
<polygon fill="white" stroke="#bfbfbf" points="1515.5,-0.5 1515.5,-19.5 1562.5,-19.5 1562.5,-0.5 1515.5,-0.5"/>
<text text-anchor="middle" x="1539" y="-7.5" font-family="Helvetica,sans-Serif" font-size="10.00">vector</text>
</a>
</g>
</g>
<!-- Node18&#45;&gt;Node25 -->
<g id="edge53" class="edge">
<title>Node18&#45;&gt;Node25</title>
<path fill="none" stroke="midnightblue" d="M1126.14,-177.7C1272.61,-178.24 1665.54,-170.68 1743,-76 1789.58,-19.06 1642.21,-11.31 1572.94,-10.73"/>
<polygon fill="midnightblue" stroke="midnightblue" points="1572.54,-7.22 1562.53,-10.69 1572.52,-14.22 1572.54,-7.22"/>
</g>
<!-- Node26 -->
<g id="node26" class="node">
<title>Node26</title>
<g id="a_node26"><a xlink:href="ds_2hash_8h.html" target="_top" xlink:title=" ">
<polygon fill="white" stroke="black" points="1393.5,-112.5 1393.5,-131.5 1456.5,-131.5 1456.5,-112.5 1393.5,-112.5"/>
<text text-anchor="middle" x="1425" y="-119.5" font-family="Helvetica,sans-Serif" font-size="10.00">ds/hash.h</text>
</a>
</g>
</g>
<!-- Node18&#45;&gt;Node26 -->
<g id="edge28" class="edge">
<title>Node18&#45;&gt;Node26</title>
<path fill="none" stroke="midnightblue" d="M1126.31,-168.56C1197.42,-157.72 1319.3,-139.12 1383.16,-129.38"/>
<polygon fill="midnightblue" stroke="midnightblue" points="1383.92,-132.81 1393.27,-127.84 1382.86,-125.89 1383.92,-132.81"/>
</g>
<!-- Node31 -->
<g id="node31" class="node">
<title>Node31</title>
<g id="a_node31"><a xlink:href="serializer_8h.html" target="_top" xlink:title=" ">
<polygon fill="white" stroke="black" points="1112,-112.5 1112,-131.5 1182,-131.5 1182,-112.5 1112,-112.5"/>
<text text-anchor="middle" x="1147" y="-119.5" font-family="Helvetica,sans-Serif" font-size="10.00">serializer.h</text>
</a>
</g>
</g>
<!-- Node18&#45;&gt;Node31 -->
<g id="edge37" class="edge">
<title>Node18&#45;&gt;Node31</title>
<path fill="none" stroke="midnightblue" d="M1083.21,-168.32C1094.78,-160.11 1112.38,-147.6 1126.16,-137.81"/>
<polygon fill="midnightblue" stroke="midnightblue" points="1128.44,-140.48 1134.57,-131.83 1124.39,-134.77 1128.44,-140.48"/>
</g>
<!-- Node18&#45;&gt;Node37 -->
<g id="edge49" class="edge">
<title>Node18&#45;&gt;Node37</title>
<path fill="none" stroke="midnightblue" d="M1052.62,-168.44C1033.78,-159.68 1004.27,-145.94 982.62,-135.86"/>
<polygon fill="midnightblue" stroke="midnightblue" points="983.84,-132.56 973.29,-131.52 980.88,-138.91 983.84,-132.56"/>
</g>
<!-- Node19&#45;&gt;Node16 -->
<g id="edge26" class="edge">
<title>Node19&#45;&gt;Node16</title>
<path fill="none" stroke="midnightblue" d="M939.41,-56.44C902.81,-47.12 844.16,-32.18 804.17,-22"/>
<polygon fill="midnightblue" stroke="midnightblue" points="804.99,-18.59 794.43,-19.52 803.26,-25.38 804.99,-18.59"/>
</g>
<!-- Node20 -->
<g id="node20" class="node">
<title>Node20</title>
<g id="a_node20"><a xlink:title=" ">
<polygon fill="white" stroke="#bfbfbf" points="1055,-0.5 1055,-19.5 1119,-19.5 1119,-0.5 1055,-0.5"/>
<text text-anchor="middle" x="1087" y="-7.5" font-family="Helvetica,sans-Serif" font-size="10.00">algorithm</text>
</a>
</g>
</g>
<!-- Node19&#45;&gt;Node20 -->
<g id="edge21" class="edge">
<title>Node19&#45;&gt;Node20</title>
<path fill="none" stroke="midnightblue" d="M991.06,-56.44C1009.57,-47.68 1038.58,-33.94 1059.86,-23.86"/>
<polygon fill="midnightblue" stroke="midnightblue" points="1061.48,-26.96 1069.02,-19.52 1058.49,-20.63 1061.48,-26.96"/>
</g>
<!-- Node21 -->
<g id="node21" class="node">
<title>Node21</title>
<g id="a_node21"><a xlink:title=" ">
<polygon fill="white" stroke="#bfbfbf" points="1199,-0.5 1199,-19.5 1241,-19.5 1241,-0.5 1199,-0.5"/>
<text text-anchor="middle" x="1220" y="-7.5" font-family="Helvetica,sans-Serif" font-size="10.00">array</text>
</a>
</g>
</g>
<!-- Node19&#45;&gt;Node21 -->
<g id="edge22" class="edge">
<title>Node19&#45;&gt;Node21</title>
<path fill="none" stroke="midnightblue" d="M1018.15,-56.82C1060.07,-48.97 1124.4,-36.24 1188.84,-20.13"/>
<polygon fill="midnightblue" stroke="midnightblue" points="1189.92,-23.47 1198.76,-17.62 1188.21,-16.68 1189.92,-23.47"/>
</g>
<!-- Node22 -->
<g id="node22" class="node">
<title>Node22</title>
<g id="a_node22"><a xlink:title=" ">
<polygon fill="white" stroke="#bfbfbf" points="813.5,-0.5 813.5,-19.5 862.5,-19.5 862.5,-0.5 813.5,-0.5"/>
<text text-anchor="middle" x="838" y="-7.5" font-family="Helvetica,sans-Serif" font-size="10.00">cctype</text>
</a>
</g>
</g>
<!-- Node19&#45;&gt;Node22 -->
<g id="edge23" class="edge">
<title>Node19&#45;&gt;Node22</title>
<path fill="none" stroke="midnightblue" d="M951.61,-56.44C929.29,-47.52 894.1,-33.44 868.79,-23.32"/>
<polygon fill="midnightblue" stroke="midnightblue" points="869.88,-19.98 859.29,-19.52 867.28,-26.48 869.88,-19.98"/>
</g>
<!-- Node19&#45;&gt;Node23 -->
<g id="edge24" class="edge">
<title>Node19&#45;&gt;Node23</title>
<path fill="none" stroke="midnightblue" d="M1002.47,-56.44C1036.5,-46.56 1092.27,-30.37 1127.24,-20.22"/>
<polygon fill="midnightblue" stroke="midnightblue" points="1128.32,-23.55 1136.95,-17.4 1126.37,-16.83 1128.32,-23.55"/>
</g>
<!-- Node24 -->
<g id="node24" class="node">
<title>Node24</title>
<g id="a_node24"><a xlink:title=" ">
<polygon fill="white" stroke="#bfbfbf" points="963.5,-0.5 963.5,-19.5 1036.5,-19.5 1036.5,-0.5 963.5,-0.5"/>
<text text-anchor="middle" x="1000" y="-7.5" font-family="Helvetica,sans-Serif" font-size="10.00">string_view</text>
</a>
</g>
</g>
<!-- Node19&#45;&gt;Node24 -->
<g id="edge25" class="edge">
<title>Node19&#45;&gt;Node24</title>
<path fill="none" stroke="midnightblue" d="M977.46,-56.08C981.15,-48.69 986.52,-37.95 991.09,-28.81"/>
<polygon fill="midnightblue" stroke="midnightblue" points="994.28,-30.26 995.62,-19.75 988.02,-27.13 994.28,-30.26"/>
</g>
<!-- Node19&#45;&gt;Node25 -->
<g id="edge27" class="edge">
<title>Node19&#45;&gt;Node25</title>
<path fill="none" stroke="midnightblue" d="M1018.26,-61.92C1128.14,-54.33 1406.72,-34.26 1499,-20 1501.09,-19.68 1503.23,-19.31 1505.39,-18.91"/>
<polygon fill="midnightblue" stroke="midnightblue" points="1506.31,-22.29 1515.41,-16.87 1504.91,-15.43 1506.31,-22.29"/>
</g>
<!-- Node26&#45;&gt;Node21 -->
<g id="edge33" class="edge">
<title>Node26&#45;&gt;Node21</title>
<path fill="none" stroke="midnightblue" d="M1414.08,-112.39C1396.91,-99.11 1362.2,-73.35 1330,-56 1304.32,-42.17 1273.47,-29.89 1250.98,-21.67"/>
<polygon fill="midnightblue" stroke="midnightblue" points="1251.88,-18.27 1241.28,-18.19 1249.51,-24.86 1251.88,-18.27"/>
</g>
<!-- Node26&#45;&gt;Node25 -->
<g id="edge36" class="edge">
<title>Node26&#45;&gt;Node25</title>
<path fill="none" stroke="midnightblue" d="M1456.59,-121.21C1526.45,-120.94 1690.59,-115.96 1725,-76 1768.56,-25.42 1637.64,-14.18 1572.93,-11.7"/>
<polygon fill="midnightblue" stroke="midnightblue" points="1572.89,-8.2 1562.78,-11.36 1572.65,-15.19 1572.89,-8.2"/>
</g>
<!-- Node27 -->
<g id="node27" class="node">
<title>Node27</title>
<g id="a_node27"><a xlink:href="siphash_8h.html" target="_top" xlink:title=" ">
<polygon fill="white" stroke="black" points="1415.5,-56.5 1415.5,-75.5 1510.5,-75.5 1510.5,-56.5 1415.5,-56.5"/>
<text text-anchor="middle" x="1463" y="-63.5" font-family="Helvetica,sans-Serif" font-size="10.00">ccf/ds/siphash.h</text>
</a>
</g>
</g>
<!-- Node26&#45;&gt;Node27 -->
<g id="edge29" class="edge">
<title>Node26&#45;&gt;Node27</title>
<path fill="none" stroke="midnightblue" d="M1431.27,-112.08C1436.64,-104.46 1444.52,-93.26 1451.08,-83.94"/>
<polygon fill="midnightblue" stroke="midnightblue" points="1453.95,-85.94 1456.84,-75.75 1448.22,-81.91 1453.95,-85.94"/>
</g>
<!-- Node29 -->
<g id="node29" class="node">
<title>Node29</title>
<g id="a_node29"><a xlink:title=" ">
<polygon fill="white" stroke="#bfbfbf" points="1362,-0.5 1362,-19.5 1412,-19.5 1412,-0.5 1362,-0.5"/>
<text text-anchor="middle" x="1387" y="-7.5" font-family="Helvetica,sans-Serif" font-size="10.00">cstdint</text>
</a>
</g>
</g>
<!-- Node26&#45;&gt;Node29 -->
<g id="edge34" class="edge">
<title>Node26&#45;&gt;Node29</title>
<path fill="none" stroke="midnightblue" d="M1421.34,-112.45C1417.54,-103.46 1411.54,-88.85 1407,-76 1401.53,-60.52 1396.1,-42.68 1392.28,-29.61"/>
<polygon fill="midnightblue" stroke="midnightblue" points="1395.62,-28.55 1389.49,-19.91 1388.9,-30.48 1395.62,-28.55"/>
</g>
<!-- Node30 -->
<g id="node30" class="node">
<title>Node30</title>
<g id="a_node30"><a xlink:title=" ">
<polygon fill="white" stroke="#bfbfbf" points="1566.5,-56.5 1566.5,-75.5 1715.5,-75.5 1715.5,-56.5 1566.5,-56.5"/>
<text text-anchor="middle" x="1641" y="-63.5" font-family="Helvetica,sans-Serif" font-size="10.00">small_vector/SmallVector.h</text>
</a>
</g>
</g>
<!-- Node26&#45;&gt;Node30 -->
<g id="edge35" class="edge">
<title>Node26&#45;&gt;Node30</title>
<path fill="none" stroke="midnightblue" d="M1456.87,-113.03C1493.95,-103.76 1555.38,-88.4 1596.99,-78"/>
<polygon fill="midnightblue" stroke="midnightblue" points="1598,-81.36 1606.86,-75.54 1596.31,-74.57 1598,-81.36"/>
</g>
<!-- Node27&#45;&gt;Node25 -->
<g id="edge32" class="edge">
<title>Node27&#45;&gt;Node25</title>
<path fill="none" stroke="midnightblue" d="M1475.21,-56.32C1486.78,-48.11 1504.38,-35.6 1518.16,-25.81"/>
<polygon fill="midnightblue" stroke="midnightblue" points="1520.44,-28.48 1526.57,-19.83 1516.39,-22.77 1520.44,-28.48"/>
</g>
<!-- Node28 -->
<g id="node28" class="node">
<title>Node28</title>
<g id="a_node28"><a xlink:title=" ">
<polygon fill="white" stroke="#bfbfbf" points="1436.5,-0.5 1436.5,-19.5 1489.5,-19.5 1489.5,-0.5 1436.5,-0.5"/>
<text text-anchor="middle" x="1463" y="-7.5" font-family="Helvetica,sans-Serif" font-size="10.00">cstddef</text>
</a>
</g>
</g>
<!-- Node27&#45;&gt;Node28 -->
<g id="edge30" class="edge">
<title>Node27&#45;&gt;Node28</title>
<path fill="none" stroke="midnightblue" d="M1463,-56.08C1463,-49.01 1463,-38.86 1463,-29.99"/>
<polygon fill="midnightblue" stroke="midnightblue" points="1466.5,-29.75 1463,-19.75 1459.5,-29.75 1466.5,-29.75"/>
</g>
<!-- Node27&#45;&gt;Node29 -->
<g id="edge31" class="edge">
<title>Node27&#45;&gt;Node29</title>
<path fill="none" stroke="midnightblue" d="M1450.79,-56.32C1439.22,-48.11 1421.62,-35.6 1407.84,-25.81"/>
<polygon fill="midnightblue" stroke="midnightblue" points="1409.61,-22.77 1399.43,-19.83 1405.56,-28.48 1409.61,-22.77"/>
</g>
<!-- Node31&#45;&gt;Node16 -->
<g id="edge47" class="edge">
<title>Node31&#45;&gt;Node16</title>
<path fill="none" stroke="midnightblue" d="M1111.72,-116.23C1066.46,-109.6 985.83,-96.13 919,-76 871.59,-61.72 818.83,-38.42 787.85,-23.94"/>
<polygon fill="midnightblue" stroke="midnightblue" points="789.13,-20.68 778.59,-19.57 786.14,-27.01 789.13,-20.68"/>
</g>
<!-- Node31&#45;&gt;Node19 -->
<g id="edge38" class="edge">
<title>Node31&#45;&gt;Node19</title>
<path fill="none" stroke="midnightblue" d="M1119.43,-112.44C1089.9,-103.28 1042.88,-88.69 1010.12,-78.52"/>
<polygon fill="midnightblue" stroke="midnightblue" points="1011.03,-75.14 1000.44,-75.52 1008.96,-81.82 1011.03,-75.14"/>
</g>
<!-- Node31&#45;&gt;Node25 -->
<g id="edge48" class="edge">
<title>Node31&#45;&gt;Node25</title>
<path fill="none" stroke="midnightblue" d="M1182.15,-118.95C1270.11,-113.51 1494.47,-97.64 1520,-76 1533.29,-64.73 1537.56,-44.72 1538.8,-29.87"/>
<polygon fill="midnightblue" stroke="midnightblue" points="1542.3,-29.9 1539.26,-19.75 1535.31,-29.58 1542.3,-29.9"/>
</g>
<!-- Node32 -->
<g id="node32" class="node">
<title>Node32</title>
<g id="a_node32"><a xlink:href="serialized_8h.html" target="_top" xlink:title=" ">
<polygon fill="white" stroke="black" points="1247.5,-56.5 1247.5,-75.5 1320.5,-75.5 1320.5,-56.5 1247.5,-56.5"/>
<text text-anchor="middle" x="1284" y="-63.5" font-family="Helvetica,sans-Serif" font-size="10.00">serialized.h</text>
</a>
</g>
</g>
<!-- Node31&#45;&gt;Node32 -->
<g id="edge39" class="edge">
<title>Node31&#45;&gt;Node32</title>
<path fill="none" stroke="midnightblue" d="M1168.71,-112.44C1191.35,-103.52 1227.07,-89.44 1252.75,-79.32"/>
<polygon fill="midnightblue" stroke="midnightblue" points="1254.37,-82.44 1262.39,-75.52 1251.81,-75.93 1254.37,-82.44"/>
</g>
<!-- Node35 -->
<g id="node35" class="node">
<title>Node35</title>
<g id="a_node35"><a xlink:title=" ">
<polygon fill="white" stroke="#bfbfbf" points="1112,-56.5 1112,-75.5 1170,-75.5 1170,-56.5 1112,-56.5"/>
<text text-anchor="middle" x="1141" y="-63.5" font-family="Helvetica,sans-Serif" font-size="10.00">memory</text>
</a>
</g>
</g>
<!-- Node31&#45;&gt;Node35 -->
<g id="edge45" class="edge">
<title>Node31&#45;&gt;Node35</title>
<path fill="none" stroke="midnightblue" d="M1146.01,-112.08C1145.21,-104.93 1144.07,-94.64 1143.08,-85.69"/>
<polygon fill="midnightblue" stroke="midnightblue" points="1146.56,-85.3 1141.97,-75.75 1139.6,-86.08 1146.56,-85.3"/>
</g>
<!-- Node36 -->
<g id="node36" class="node">
<title>Node36</title>
<g id="a_node36"><a xlink:title=" ">
<polygon fill="white" stroke="#bfbfbf" points="1188.5,-56.5 1188.5,-75.5 1229.5,-75.5 1229.5,-56.5 1188.5,-56.5"/>
<text text-anchor="middle" x="1209" y="-63.5" font-family="Helvetica,sans-Serif" font-size="10.00">tuple</text>
</a>
</g>
</g>
<!-- Node31&#45;&gt;Node36 -->
<g id="edge46" class="edge">
<title>Node31&#45;&gt;Node36</title>
<path fill="none" stroke="midnightblue" d="M1156.96,-112.32C1166.13,-104.34 1179.94,-92.31 1191.03,-82.65"/>
<polygon fill="midnightblue" stroke="midnightblue" points="1193.62,-85.04 1198.86,-75.83 1189.02,-79.76 1193.62,-85.04"/>
</g>
<!-- Node32&#45;&gt;Node23 -->
<g id="edge43" class="edge">
<title>Node32&#45;&gt;Node23</title>
<path fill="none" stroke="midnightblue" d="M1264.19,-56.44C1243.71,-47.6 1211.52,-33.69 1188.14,-23.59"/>
<polygon fill="midnightblue" stroke="midnightblue" points="1189.28,-20.27 1178.71,-19.52 1186.51,-26.7 1189.28,-20.27"/>
</g>
<!-- Node32&#45;&gt;Node25 -->
<g id="edge44" class="edge">
<title>Node32&#45;&gt;Node25</title>
<path fill="none" stroke="midnightblue" d="M1320.56,-57.52C1363.36,-48.73 1436.39,-33.59 1499,-20 1501.07,-19.55 1503.19,-19.09 1505.33,-18.61"/>
<polygon fill="midnightblue" stroke="midnightblue" points="1506.32,-21.98 1515.32,-16.39 1504.8,-15.15 1506.32,-21.98"/>
</g>
<!-- Node32&#45;&gt;Node29 -->
<g id="edge40" class="edge">
<title>Node32&#45;&gt;Node29</title>
<path fill="none" stroke="midnightblue" d="M1300.55,-56.32C1316.99,-47.7 1342.43,-34.36 1361.47,-24.39"/>
<polygon fill="midnightblue" stroke="midnightblue" points="1363.26,-27.4 1370.49,-19.65 1360.01,-21.2 1363.26,-27.4"/>
</g>
<!-- Node32&#45;&gt;Node33 -->
<g id="edge41" class="edge">
<title>Node32&#45;&gt;Node33</title>
<path fill="none" stroke="midnightblue" d="M1284,-56.08C1284,-49.01 1284,-38.86 1284,-29.99"/>
<polygon fill="midnightblue" stroke="midnightblue" points="1287.5,-29.75 1284,-19.75 1280.5,-29.75 1287.5,-29.75"/>
</g>
<!-- Node32&#45;&gt;Node34 -->
<g id="edge42" class="edge">
<title>Node32&#45;&gt;Node34</title>
<path fill="none" stroke="midnightblue" d="M1247.2,-57.42C1244.43,-56.91 1241.67,-56.44 1239,-56 1116.19,-35.99 1081.56,-41.41 955.65,-20.16"/>
<polygon fill="midnightblue" stroke="midnightblue" points="956.07,-16.68 945.62,-18.44 954.89,-23.58 956.07,-16.68"/>
</g>
<!-- Node40&#45;&gt;Node18 -->
<g id="edge67" class="edge">
<title>Node40&#45;&gt;Node18</title>
<path fill="none" stroke="midnightblue" d="M1168.04,-392.3C1153.09,-359.42 1099.84,-242.39 1079.23,-197.09"/>
<polygon fill="midnightblue" stroke="midnightblue" points="1082.37,-195.54 1075.04,-187.88 1076,-198.44 1082.37,-195.54"/>
</g>
<!-- Node40&#45;&gt;Node25 -->
<g id="edge69" class="edge">
<title>Node40&#45;&gt;Node25</title>
<path fill="none" stroke="midnightblue" d="M1227.16,-393.07C1383.63,-370.39 1819,-305.95 1819,-291 1819,-291 1819,-291 1819,-121 1819,-82.28 1794.58,-75.28 1761,-56 1701.01,-21.56 1618.65,-13.2 1572.98,-11.35"/>
<polygon fill="midnightblue" stroke="midnightblue" points="1572.85,-7.84 1562.74,-11.01 1572.62,-14.84 1572.85,-7.84"/>
</g>
<!-- Node41 -->
<g id="node41" class="node">
<title>Node41</title>
<g id="a_node41"><a xlink:href="oversized_8h.html" target="_top" xlink:title=" ">
<polygon fill="white" stroke="black" points="941.5,-336.5 941.5,-355.5 1028.5,-355.5 1028.5,-336.5 941.5,-336.5"/>
<text text-anchor="middle" x="985" y="-343.5" font-family="Helvetica,sans-Serif" font-size="10.00">ds/oversized.h</text>
</a>
</g>
</g>
<!-- Node40&#45;&gt;Node41 -->
<g id="edge61" class="edge">
<title>Node40&#45;&gt;Node41</title>
<path fill="none" stroke="midnightblue" d="M1142.37,-392.44C1110.5,-383.24 1059.67,-368.56 1024.44,-358.39"/>
<polygon fill="midnightblue" stroke="midnightblue" points="1025.07,-354.93 1014.49,-355.52 1023.13,-361.65 1025.07,-354.93"/>
</g>
<!-- Node40&#45;&gt;Node43 -->
<g id="edge68" class="edge">
<title>Node40&#45;&gt;Node43</title>
<path fill="none" stroke="midnightblue" d="M1227.32,-393.44C1231.95,-392.92 1236.55,-392.42 1241,-392 1503.4,-366.94 1572.12,-393.77 1833,-356 1834.28,-355.82 1835.57,-355.61 1836.88,-355.39"/>
<polygon fill="midnightblue" stroke="midnightblue" points="1837.79,-358.78 1846.94,-353.43 1836.46,-351.9 1837.79,-358.78"/>
</g>
<!-- Node41&#45;&gt;Node2 -->
<g id="edge62" class="edge">
<title>Node41&#45;&gt;Node2</title>
<path fill="none" stroke="midnightblue" d="M966.3,-336.44C947.06,-327.64 916.85,-313.81 894.8,-303.72"/>
<polygon fill="midnightblue" stroke="midnightblue" points="896.16,-300.5 885.61,-299.52 893.25,-306.86 896.16,-300.5"/>
</g>
<!-- Node41&#45;&gt;Node5 -->
<g id="edge65" class="edge">
<title>Node41&#45;&gt;Node5</title>
<path fill="none" stroke="midnightblue" d="M977.88,-336.29C966.82,-323.1 944.45,-297.72 922,-280 845.34,-219.52 824.52,-202.02 733,-168 665.58,-142.94 582.68,-131.58 530.83,-126.61"/>
<polygon fill="midnightblue" stroke="midnightblue" points="530.84,-123.1 520.57,-125.68 530.2,-130.07 530.84,-123.1"/>
</g>
<!-- Node41&#45;&gt;Node17 -->
<g id="edge63" class="edge">
<title>Node41&#45;&gt;Node17</title>
<path fill="none" stroke="midnightblue" d="M986.88,-336.37C990.76,-318.62 999.69,-277.67 1004.94,-253.6"/>
<polygon fill="midnightblue" stroke="midnightblue" points="1008.41,-254.11 1007.13,-243.59 1001.57,-252.62 1008.41,-254.11"/>
</g>
<!-- Node41&#45;&gt;Node32 -->
<g id="edge64" class="edge">
<title>Node41&#45;&gt;Node32</title>
<path fill="none" stroke="midnightblue" d="M994.28,-336.38C1036.65,-296.97 1212.15,-133.81 1267.32,-82.51"/>
<polygon fill="midnightblue" stroke="midnightblue" points="1269.89,-84.9 1274.83,-75.52 1265.13,-79.77 1269.89,-84.9"/>
</g>
<!-- Node41&#45;&gt;Node42 -->
<g id="edge66" class="edge">
<title>Node41&#45;&gt;Node42</title>
<path fill="none" stroke="midnightblue" d="M948.71,-336.44C909.02,-327.08 845.29,-312.06 802.09,-301.87"/>
<polygon fill="midnightblue" stroke="midnightblue" points="802.65,-298.41 792.12,-299.52 801.05,-305.22 802.65,-298.41"/>
</g>
</g>
</svg>
