<?xml version="1.0" encoding="UTF-8" standalone="no"?>
<!DOCTYPE svg PUBLIC "-//W3C//DTD SVG 1.1//EN"
 "http://www.w3.org/Graphics/SVG/1.1/DTD/svg11.dtd">
<!-- Generated by graphviz version 2.43.0 (0)
 -->
<!-- Title: include/ccf/node/quote.h Pages: 1 -->
<!--zoomable 520 -->
<svg id="main" version="1.1" xmlns="http://www.w3.org/2000/svg" xmlns:xlink="http://www.w3.org/1999/xlink" xml:space="preserve" onload="init(evt)">
<style type="text/css"><![CDATA[
.edge:hover path { stroke: red; }
.edge:hover polygon { stroke: red; fill: red; }
]]></style>
<script type="text/javascript"><![CDATA[
var edges = document.getElementsByTagName('g');
if (edges && edges.length) {
  for (var i=0;i<edges.length;i++) {
    if (edges[i].id.substr(0,4)=='edge') {
      edges[i].setAttribute('class','edge');
    }
  }
}
]]></script>
        <defs>
                <circle id="rim" cx="0" cy="0" r="7"/>
                <circle id="rim2" cx="0" cy="0" r="3.5"/>
                <g id="zoomPlus">
                        <use xlink:href="#rim" fill="#404040">
                                <set attributeName="fill" to="#808080" begin="zoomplus.mouseover" end="zoomplus.mouseout"/>
                        </use>
                        <path d="M-4,0h8M0,-4v8" fill="none" stroke="white" stroke-width="1.5" pointer-events="none"/>
                </g>
                <g id="zoomMin">
                        <use xlink:href="#rim" fill="#404040">
                                <set attributeName="fill" to="#808080" begin="zoomminus.mouseover" end="zoomminus.mouseout"/>
                        </use>
                        <path d="M-4,0h8" fill="none" stroke="white" stroke-width="1.5" pointer-events="none"/>
                </g>
                <g id="dirArrow">
                        <path fill="none" stroke="white" stroke-width="1.5" d="M0,-3.0v7 M-2.5,-0.5L0,-3.0L2.5,-0.5"/>
                </g>
               <g id="resetDef">
                       <use xlink:href="#rim2" fill="#404040">
                               <set attributeName="fill" to="#808080" begin="reset.mouseover" end="reset.mouseout"/>
                       </use>
               </g>
        </defs>

<script type="text/javascript">
var viewWidth = 1303;
var viewHeight = 520;
var sectionId = 'dynsection-1';
</script>
<script xlink:href="svgpan.js"/>
<svg id="graph" class="graph">
<g id="viewport">
<title>include/ccf/node/quote.h</title>
<polygon fill="white" stroke="transparent" points="-4,4 -4,-516 1298.71,-516 1298.71,4 -4,4"/>
<!-- Node1 -->
<g id="node1" class="node">
<title>Node1</title>
<g id="a_node1"><a xlink:title=" ">
<polygon fill="#bfbfbf" stroke="black" points="777.71,-492.5 777.71,-511.5 913.71,-511.5 913.71,-492.5 777.71,-492.5"/>
<text text-anchor="middle" x="845.71" y="-499.5" font-family="Helvetica,sans-Serif" font-size="10.00">include/ccf/node/quote.h</text>
</a>
</g>
</g>
<!-- Node2 -->
<g id="node2" class="node">
<title>Node2</title>
<g id="a_node2"><a xlink:href="quote_8cpp.html" target="_top" xlink:title=" ">
<polygon fill="white" stroke="black" points="645.21,-431 645.21,-450 754.21,-450 754.21,-431 645.21,-431"/>
<text text-anchor="middle" x="699.71" y="-438" font-family="Helvetica,sans-Serif" font-size="10.00">src/node/quote.cpp</text>
</a>
</g>
</g>
<!-- Node1&#45;&gt;Node2 -->
<g id="edge1" class="edge">
<title>Node1&#45;&gt;Node2</title>
<path fill="none" stroke="midnightblue" d="M815.36,-488.63C787,-477.07 745.4,-460.12 720.59,-450.01"/>
<polygon fill="midnightblue" stroke="midnightblue" points="814.21,-491.94 824.8,-492.48 816.86,-485.46 814.21,-491.94"/>
</g>
<!-- Node3 -->
<g id="node3" class="node">
<title>Node3</title>
<g id="a_node3"><a xlink:href="member__frontend_8h.html" target="_top" xlink:title=" ">
<polygon fill="white" stroke="black" points="1174.71,-246.5 1174.71,-276.5 1294.71,-276.5 1294.71,-246.5 1174.71,-246.5"/>
<text text-anchor="start" x="1182.71" y="-264.5" font-family="Helvetica,sans-Serif" font-size="10.00">src/node/rpc/member</text>
<text text-anchor="middle" x="1234.71" y="-253.5" font-family="Helvetica,sans-Serif" font-size="10.00">_frontend.h</text>
</a>
</g>
</g>
<!-- Node1&#45;&gt;Node3 -->
<g id="edge2" class="edge">
<title>Node1&#45;&gt;Node3</title>
<path fill="none" stroke="midnightblue" d="M908.41,-490.41C991.24,-472.94 1135.39,-429.88 1210.71,-333 1223.81,-316.16 1229.99,-291.74 1232.74,-276.51"/>
<polygon fill="midnightblue" stroke="midnightblue" points="907.48,-487.02 898.38,-492.46 908.88,-493.88 907.48,-487.02"/>
</g>
<!-- Node6 -->
<g id="node6" class="node">
<title>Node6</title>
<g id="a_node6"><a xlink:href="node__frontend_8h.html" target="_top" xlink:title=" ">
<polygon fill="white" stroke="black" points="186.71,-313.5 186.71,-332.5 344.71,-332.5 344.71,-313.5 186.71,-313.5"/>
<text text-anchor="middle" x="265.71" y="-320.5" font-family="Helvetica,sans-Serif" font-size="10.00">src/node/rpc/node_frontend.h</text>
</a>
</g>
</g>
<!-- Node1&#45;&gt;Node6 -->
<g id="edge5" class="edge">
<title>Node1&#45;&gt;Node6</title>
<path fill="none" stroke="midnightblue" d="M832.6,-484.56C817.62,-466.97 791.44,-439.63 762.71,-425 626.58,-355.69 446.69,-333.93 344.88,-327.11"/>
<polygon fill="midnightblue" stroke="midnightblue" points="829.94,-486.84 839.01,-492.32 835.33,-482.38 829.94,-486.84"/>
</g>
<!-- Node10 -->
<g id="node10" class="node">
<title>Node10</title>
<g id="a_node10"><a xlink:href="node__operation__interface_8h.html" target="_top" xlink:title=" ">
<polygon fill="white" stroke="black" points="832.21,-425.5 832.21,-455.5 987.21,-455.5 987.21,-425.5 832.21,-425.5"/>
<text text-anchor="start" x="840.21" y="-443.5" font-family="Helvetica,sans-Serif" font-size="10.00">src/node/rpc/node_operation</text>
<text text-anchor="middle" x="909.71" y="-432.5" font-family="Helvetica,sans-Serif" font-size="10.00">_interface.h</text>
</a>
</g>
</g>
<!-- Node1&#45;&gt;Node10 -->
<g id="edge12" class="edge">
<title>Node1&#45;&gt;Node10</title>
<path fill="none" stroke="midnightblue" d="M862.23,-485.65C872.23,-476.35 884.9,-464.57 894.63,-455.52"/>
<polygon fill="midnightblue" stroke="midnightblue" points="859.82,-483.1 854.88,-492.48 864.59,-488.23 859.82,-483.1"/>
</g>
<!-- Node4 -->
<g id="node4" class="node">
<title>Node4</title>
<g id="a_node4"><a xlink:href="enclave_2enclave_8h.html" target="_top" xlink:title=" ">
<polygon fill="white" stroke="black" points="175.71,-56.5 175.71,-75.5 297.71,-75.5 297.71,-56.5 175.71,-56.5"/>
<text text-anchor="middle" x="236.71" y="-63.5" font-family="Helvetica,sans-Serif" font-size="10.00">src/enclave/enclave.h</text>
</a>
</g>
</g>
<!-- Node3&#45;&gt;Node4 -->
<g id="edge3" class="edge">
<title>Node3&#45;&gt;Node4</title>
<path fill="none" stroke="midnightblue" d="M1196.56,-241.99C1127.2,-209.31 975,-142 838.71,-112 736.87,-89.58 429.6,-74.82 297.81,-69.36"/>
<polygon fill="midnightblue" stroke="midnightblue" points="1195.25,-245.24 1205.78,-246.36 1198.25,-238.92 1195.25,-245.24"/>
</g>
<!-- Node5 -->
<g id="node5" class="node">
<title>Node5</title>
<g id="a_node5"><a xlink:href="enclave_2main_8cpp.html" target="_top" xlink:title=" ">
<polygon fill="white" stroke="black" points="176.71,-0.5 176.71,-19.5 296.71,-19.5 296.71,-0.5 176.71,-0.5"/>
<text text-anchor="middle" x="236.71" y="-7.5" font-family="Helvetica,sans-Serif" font-size="10.00">src/enclave/main.cpp</text>
</a>
</g>
</g>
<!-- Node4&#45;&gt;Node5 -->
<g id="edge4" class="edge">
<title>Node4&#45;&gt;Node5</title>
<path fill="none" stroke="midnightblue" d="M236.71,-45.8C236.71,-36.91 236.71,-26.78 236.71,-19.75"/>
<polygon fill="midnightblue" stroke="midnightblue" points="233.21,-46.08 236.71,-56.08 240.21,-46.08 233.21,-46.08"/>
</g>
<!-- Node6&#45;&gt;Node4 -->
<g id="edge6" class="edge">
<title>Node6&#45;&gt;Node4</title>
<path fill="none" stroke="midnightblue" d="M176.27,-316.11C119.24,-310.28 52.76,-298.9 34.71,-277 -11.92,-220.4 -11.16,-169.22 34.71,-112 52.16,-90.24 122.74,-78.32 175.59,-72.31"/>
<polygon fill="midnightblue" stroke="midnightblue" points="176.14,-319.62 186.43,-317.11 176.82,-312.65 176.14,-319.62"/>
</g>
<!-- Node7 -->
<g id="node7" class="node">
<title>Node7</title>
<g id="a_node7"><a xlink:href="jwt__key__auto__refresh_8h.html" target="_top" xlink:title=" ">
<polygon fill="white" stroke="black" points="77.21,-246.5 77.21,-276.5 202.21,-276.5 202.21,-246.5 77.21,-246.5"/>
<text text-anchor="start" x="85.21" y="-264.5" font-family="Helvetica,sans-Serif" font-size="10.00">src/node/jwt_key_auto</text>
<text text-anchor="middle" x="139.71" y="-253.5" font-family="Helvetica,sans-Serif" font-size="10.00">_refresh.h</text>
</a>
</g>
</g>
<!-- Node6&#45;&gt;Node7 -->
<g id="edge7" class="edge">
<title>Node6&#45;&gt;Node7</title>
<path fill="none" stroke="midnightblue" d="M238.61,-309.2C218.25,-299.58 190.37,-286.42 169.41,-276.52"/>
<polygon fill="midnightblue" stroke="midnightblue" points="237.12,-312.37 247.66,-313.48 240.11,-306.04 237.12,-312.37"/>
</g>
<!-- Node8 -->
<g id="node8" class="node">
<title>Node8</title>
<g id="a_node8"><a xlink:href="node__state_8h.html" target="_top" xlink:title=" ">
<polygon fill="white" stroke="black" points="96.71,-185 96.71,-204 220.71,-204 220.71,-185 96.71,-185"/>
<text text-anchor="middle" x="158.71" y="-192" font-family="Helvetica,sans-Serif" font-size="10.00">src/node/node_state.h</text>
</a>
</g>
</g>
<!-- Node7&#45;&gt;Node8 -->
<g id="edge8" class="edge">
<title>Node7&#45;&gt;Node8</title>
<path fill="none" stroke="midnightblue" d="M146.7,-236.6C150.01,-225.28 153.76,-212.46 156.17,-204.19"/>
<polygon fill="midnightblue" stroke="midnightblue" points="143.28,-235.82 143.84,-246.4 150,-237.78 143.28,-235.82"/>
</g>
<!-- Node8&#45;&gt;Node4 -->
<g id="edge9" class="edge">
<title>Node8&#45;&gt;Node4</title>
<path fill="none" stroke="midnightblue" d="M137.34,-178.59C116.3,-162.05 89.51,-134.7 105.71,-112 121.71,-89.59 149.6,-78.22 175.55,-72.51"/>
<polygon fill="midnightblue" stroke="midnightblue" points="135.48,-181.57 145.58,-184.77 139.68,-175.97 135.48,-181.57"/>
</g>
<!-- Node9 -->
<g id="node9" class="node">
<title>Node9</title>
<g id="a_node9"><a xlink:href="gov__effects_8h.html" target="_top" xlink:title=" ">
<polygon fill="white" stroke="black" points="114.71,-118 114.71,-137 258.71,-137 258.71,-118 114.71,-118"/>
<text text-anchor="middle" x="186.71" y="-125" font-family="Helvetica,sans-Serif" font-size="10.00">src/node/rpc/gov_effects.h</text>
</a>
</g>
</g>
<!-- Node8&#45;&gt;Node9 -->
<g id="edge10" class="edge">
<title>Node8&#45;&gt;Node9</title>
<path fill="none" stroke="midnightblue" d="M166.56,-175.29C171.93,-162.81 178.82,-146.81 183,-137.13"/>
<polygon fill="midnightblue" stroke="midnightblue" points="163.23,-174.16 162.49,-184.73 169.66,-176.93 163.23,-174.16"/>
</g>
<!-- Node9&#45;&gt;Node4 -->
<g id="edge11" class="edge">
<title>Node9&#45;&gt;Node4</title>
<path fill="none" stroke="midnightblue" d="M200.44,-110.17C209.86,-98.95 221.99,-84.52 229.56,-75.51"/>
<polygon fill="midnightblue" stroke="midnightblue" points="197.63,-108.07 193.88,-117.98 202.99,-112.57 197.63,-108.07"/>
</g>
<!-- Node10&#45;&gt;Node3 -->
<g id="edge13" class="edge">
<title>Node10&#45;&gt;Node3</title>
<path fill="none" stroke="midnightblue" d="M988.84,-423.01C1048.37,-407.53 1129.39,-379.62 1187.71,-333 1206.9,-317.66 1221.06,-292.33 1228.58,-276.58"/>
<polygon fill="midnightblue" stroke="midnightblue" points="987.93,-419.63 979.1,-425.48 989.66,-426.42 987.93,-419.63"/>
</g>
<!-- Node11 -->
<g id="node11" class="node">
<title>Node11</title>
<g id="a_node11"><a xlink:href="node__interface_8h.html" target="_top" xlink:title=" ">
<polygon fill="white" stroke="black" points="849.21,-369.5 849.21,-388.5 1010.21,-388.5 1010.21,-369.5 849.21,-369.5"/>
<text text-anchor="middle" x="929.71" y="-376.5" font-family="Helvetica,sans-Serif" font-size="10.00">src/node/rpc/node_interface.h</text>
</a>
</g>
</g>
<!-- Node10&#45;&gt;Node11 -->
<g id="edge14" class="edge">
<title>Node10&#45;&gt;Node11</title>
<path fill="none" stroke="midnightblue" d="M917.65,-415.9C920.87,-406.3 924.4,-395.81 926.8,-388.66"/>
<polygon fill="midnightblue" stroke="midnightblue" points="914.32,-414.81 914.45,-425.4 920.96,-417.04 914.32,-414.81"/>
</g>
<!-- Node22 -->
<g id="node22" class="node">
<title>Node22</title>
<g id="a_node22"><a xlink:href="node__operation_8h.html" target="_top" xlink:title=" ">
<polygon fill="white" stroke="black" points="528.71,-313.5 528.71,-332.5 692.71,-332.5 692.71,-313.5 528.71,-313.5"/>
<text text-anchor="middle" x="610.71" y="-320.5" font-family="Helvetica,sans-Serif" font-size="10.00">src/node/rpc/node_operation.h</text>
</a>
</g>
</g>
<!-- Node10&#45;&gt;Node22 -->
<g id="edge39" class="edge">
<title>Node10&#45;&gt;Node22</title>
<path fill="none" stroke="midnightblue" d="M882.94,-419.34C860.85,-403.58 828.14,-382.2 796.71,-369 754.44,-351.25 703.69,-339.56 665.89,-332.55"/>
<polygon fill="midnightblue" stroke="midnightblue" points="880.99,-422.25 891.15,-425.28 885.1,-416.58 880.99,-422.25"/>
</g>
<!-- Node11&#45;&gt;Node3 -->
<g id="edge35" class="edge">
<title>Node11&#45;&gt;Node3</title>
<path fill="none" stroke="midnightblue" d="M1020.54,-372.27C1064.79,-366.56 1117.61,-355.27 1160.71,-333 1187.36,-319.24 1211.07,-292.92 1224.11,-276.62"/>
<polygon fill="midnightblue" stroke="midnightblue" points="1019.87,-368.82 1010.36,-373.5 1020.71,-375.77 1019.87,-368.82"/>
</g>
<!-- Node11&#45;&gt;Node6 -->
<g id="edge36" class="edge">
<title>Node11&#45;&gt;Node6</title>
<path fill="none" stroke="midnightblue" d="M838.96,-370.62C708.19,-359.98 468.87,-340.52 344.88,-330.44"/>
<polygon fill="midnightblue" stroke="midnightblue" points="838.71,-374.11 848.96,-371.43 839.27,-367.13 838.71,-374.11"/>
</g>
<!-- Node12 -->
<g id="node12" class="node">
<title>Node12</title>
<g id="a_node12"><a xlink:href="wrap_8cpp.html" target="_top" xlink:title=" ">
<polygon fill="white" stroke="black" points="663.21,-185 663.21,-204 752.21,-204 752.21,-185 663.21,-185"/>
<text text-anchor="middle" x="707.71" y="-192" font-family="Helvetica,sans-Serif" font-size="10.00">src/js/wrap.cpp</text>
</a>
</g>
</g>
<!-- Node11&#45;&gt;Node12 -->
<g id="edge15" class="edge">
<title>Node11&#45;&gt;Node12</title>
<path fill="none" stroke="midnightblue" d="M966.21,-366.01C1026.31,-344.46 1135.14,-296.67 1089.71,-246 1040.62,-191.24 832.96,-223.75 760.71,-210 752.47,-208.43 743.63,-206.23 735.58,-204.01"/>
<polygon fill="midnightblue" stroke="midnightblue" points="964.94,-362.75 956.66,-369.37 967.26,-369.36 964.94,-362.75"/>
</g>
<!-- Node13 -->
<g id="node13" class="node">
<title>Node13</title>
<g id="a_node13"><a xlink:href="wrap_8h.html" target="_top" xlink:title=" ">
<polygon fill="white" stroke="black" points="710.71,-313.5 710.71,-332.5 788.71,-332.5 788.71,-313.5 710.71,-313.5"/>
<text text-anchor="middle" x="749.71" y="-320.5" font-family="Helvetica,sans-Serif" font-size="10.00">src/js/wrap.h</text>
</a>
</g>
</g>
<!-- Node11&#45;&gt;Node13 -->
<g id="edge16" class="edge">
<title>Node11&#45;&gt;Node13</title>
<path fill="none" stroke="midnightblue" d="M891.61,-366.57C857.65,-356.38 808.72,-341.7 778.1,-332.52"/>
<polygon fill="midnightblue" stroke="midnightblue" points="890.61,-369.92 901.19,-369.44 892.62,-363.22 890.61,-369.92"/>
</g>
<!-- Node20 -->
<g id="node20" class="node">
<title>Node20</title>
<g id="a_node20"><a xlink:href="historical__queries_8h.html" target="_top" xlink:title=" ">
<polygon fill="white" stroke="black" points="769.71,-179.5 769.71,-209.5 875.71,-209.5 875.71,-179.5 769.71,-179.5"/>
<text text-anchor="start" x="777.71" y="-197.5" font-family="Helvetica,sans-Serif" font-size="10.00">src/node/historical</text>
<text text-anchor="middle" x="822.71" y="-186.5" font-family="Helvetica,sans-Serif" font-size="10.00">_queries.h</text>
</a>
</g>
</g>
<!-- Node11&#45;&gt;Node20 -->
<g id="edge31" class="edge">
<title>Node11&#45;&gt;Node20</title>
<path fill="none" stroke="midnightblue" d="M1018.81,-367.99C1062.81,-361.02 1109.32,-349.88 1122.71,-333 1146.75,-302.71 1147.68,-275.52 1122.71,-246 1114.78,-236.62 960.01,-214.21 875.96,-202.66"/>
<polygon fill="midnightblue" stroke="midnightblue" points="1018.25,-364.53 1008.89,-369.5 1019.3,-371.45 1018.25,-364.53"/>
</g>
<!-- Node11&#45;&gt;Node22 -->
<g id="edge37" class="edge">
<title>Node11&#45;&gt;Node22</title>
<path fill="none" stroke="midnightblue" d="M869.03,-367.73C808.75,-357.52 717.39,-342.06 661.02,-332.52"/>
<polygon fill="midnightblue" stroke="midnightblue" points="868.72,-371.23 879.17,-369.44 869.89,-364.32 868.72,-371.23"/>
</g>
<!-- Node13&#45;&gt;Node3 -->
<g id="edge30" class="edge">
<title>Node13&#45;&gt;Node3</title>
<path fill="none" stroke="midnightblue" d="M799.16,-315.93C888.78,-304.94 1077.72,-281.76 1174.62,-269.87"/>
<polygon fill="midnightblue" stroke="midnightblue" points="798.49,-312.49 788.99,-317.18 799.34,-319.44 798.49,-312.49"/>
</g>
<!-- Node13&#45;&gt;Node4 -->
<g id="edge18" class="edge">
<title>Node13&#45;&gt;Node4</title>
<path fill="none" stroke="midnightblue" d="M700.07,-313.23C622.72,-306.89 319.23,-307.46 287.71,-277 234.6,-225.66 293.87,-181.08 267.71,-112 262.41,-97.98 251.84,-84.13 244.53,-75.57"/>
<polygon fill="midnightblue" stroke="midnightblue" points="700.16,-316.76 710.47,-314.32 700.89,-309.8 700.16,-316.76"/>
</g>
<!-- Node13&#45;&gt;Node8 -->
<g id="edge29" class="edge">
<title>Node13&#45;&gt;Node8</title>
<path fill="none" stroke="midnightblue" d="M700.31,-313.06C587.58,-300.68 344.02,-313.93 254.71,-277 234.41,-268.6 186.81,-223.15 167.29,-204.01"/>
<polygon fill="midnightblue" stroke="midnightblue" points="700.13,-316.56 710.47,-314.3 700.97,-309.61 700.13,-316.56"/>
</g>
<!-- Node13&#45;&gt;Node12 -->
<g id="edge28" class="edge">
<title>Node13&#45;&gt;Node12</title>
<path fill="none" stroke="midnightblue" d="M761.8,-304.49C771.1,-288.68 780.94,-265.04 771.71,-246 762.33,-226.64 741.53,-212.47 726.17,-204.15"/>
<polygon fill="midnightblue" stroke="midnightblue" points="758.66,-302.9 756.25,-313.22 764.57,-306.66 758.66,-302.9"/>
</g>
<!-- Node14 -->
<g id="node14" class="node">
<title>Node14</title>
<g id="a_node14"><a xlink:href="js__generic__base_8cpp.html" target="_top" xlink:title=" ">
<polygon fill="white" stroke="black" points="296.71,-246.5 296.71,-276.5 414.71,-276.5 414.71,-246.5 296.71,-246.5"/>
<text text-anchor="start" x="304.71" y="-264.5" font-family="Helvetica,sans-Serif" font-size="10.00">src/apps/js_generic</text>
<text text-anchor="middle" x="355.71" y="-253.5" font-family="Helvetica,sans-Serif" font-size="10.00">/js_generic_base.cpp</text>
</a>
</g>
</g>
<!-- Node13&#45;&gt;Node14 -->
<g id="edge17" class="edge">
<title>Node13&#45;&gt;Node14</title>
<path fill="none" stroke="midnightblue" d="M700.47,-312.89C576.9,-293.73 543.28,-297.45 423.71,-277 420.86,-276.51 417.94,-275.99 415,-275.44"/>
<polygon fill="midnightblue" stroke="midnightblue" points="700.29,-316.4 710.71,-314.5 701.38,-309.49 700.29,-316.4"/>
</g>
<!-- Node15 -->
<g id="node15" class="node">
<title>Node15</title>
<g id="a_node15"><a xlink:href="js_2consensus_8cpp.html" target="_top" xlink:title=" ">
<polygon fill="white" stroke="black" points="964.71,-252 964.71,-271 1080.71,-271 1080.71,-252 964.71,-252"/>
<text text-anchor="middle" x="1022.71" y="-259" font-family="Helvetica,sans-Serif" font-size="10.00">src/js/consensus.cpp</text>
</a>
</g>
</g>
<!-- Node13&#45;&gt;Node15 -->
<g id="edge19" class="edge">
<title>Node13&#45;&gt;Node15</title>
<path fill="none" stroke="midnightblue" d="M798.67,-311.33C851.61,-299.79 934.95,-281.63 983.67,-271.01"/>
<polygon fill="midnightblue" stroke="midnightblue" points="797.85,-307.93 788.83,-313.48 799.34,-314.77 797.85,-307.93"/>
</g>
<!-- Node16 -->
<g id="node16" class="node">
<title>Node16</title>
<g id="a_node16"><a xlink:href="conv_8cpp.html" target="_top" xlink:title=" ">
<polygon fill="white" stroke="black" points="432.71,-252 432.71,-271 520.71,-271 520.71,-252 432.71,-252"/>
<text text-anchor="middle" x="476.71" y="-259" font-family="Helvetica,sans-Serif" font-size="10.00">src/js/conv.cpp</text>
</a>
</g>
</g>
<!-- Node13&#45;&gt;Node16 -->
<g id="edge21" class="edge">
<title>Node13&#45;&gt;Node16</title>
<path fill="none" stroke="midnightblue" d="M700.47,-312.32C645.92,-301.52 561.48,-284.59 529.71,-277 522.2,-275.21 514.13,-273.09 506.62,-271.05"/>
<polygon fill="midnightblue" stroke="midnightblue" points="699.8,-315.75 710.29,-314.26 701.16,-308.88 699.8,-315.75"/>
</g>
<!-- Node17 -->
<g id="node17" class="node">
<title>Node17</title>
<g id="a_node17"><a xlink:href="js_2crypto_8cpp.html" target="_top" xlink:title=" ">
<polygon fill="white" stroke="black" points="538.71,-252 538.71,-271 634.71,-271 634.71,-252 538.71,-252"/>
<text text-anchor="middle" x="586.71" y="-259" font-family="Helvetica,sans-Serif" font-size="10.00">src/js/crypto.cpp</text>
</a>
</g>
</g>
<!-- Node13&#45;&gt;Node17 -->
<g id="edge23" class="edge">
<title>Node13&#45;&gt;Node17</title>
<path fill="none" stroke="midnightblue" d="M716.66,-309.93C684.97,-298.37 637.96,-281.21 610.02,-271.01"/>
<polygon fill="midnightblue" stroke="midnightblue" points="715.77,-313.33 726.36,-313.48 718.17,-306.76 715.77,-313.33"/>
</g>
<!-- Node18 -->
<g id="node18" class="node">
<title>Node18</title>
<g id="a_node18"><a xlink:href="js_2historical_8cpp.html" target="_top" xlink:title=" ">
<polygon fill="white" stroke="black" points="652.71,-252 652.71,-271 762.71,-271 762.71,-252 652.71,-252"/>
<text text-anchor="middle" x="707.71" y="-259" font-family="Helvetica,sans-Serif" font-size="10.00">src/js/historical.cpp</text>
</a>
</g>
</g>
<!-- Node13&#45;&gt;Node18 -->
<g id="edge25" class="edge">
<title>Node13&#45;&gt;Node18</title>
<path fill="none" stroke="midnightblue" d="M737.72,-305.01C729.87,-293.89 719.95,-279.84 713.72,-271.01"/>
<polygon fill="midnightblue" stroke="midnightblue" points="735.07,-307.32 743.7,-313.48 740.79,-303.29 735.07,-307.32"/>
</g>
<!-- Node19 -->
<g id="node19" class="node">
<title>Node19</title>
<g id="a_node19"><a xlink:href="openenclave_8cpp.html" target="_top" xlink:title=" ">
<polygon fill="white" stroke="black" points="818.71,-252 818.71,-271 946.71,-271 946.71,-252 818.71,-252"/>
<text text-anchor="middle" x="882.71" y="-259" font-family="Helvetica,sans-Serif" font-size="10.00">src/js/openenclave.cpp</text>
</a>
</g>
</g>
<!-- Node13&#45;&gt;Node19 -->
<g id="edge27" class="edge">
<title>Node13&#45;&gt;Node19</title>
<path fill="none" stroke="midnightblue" d="M778.04,-309.33C803.86,-297.78 841.29,-281.03 863.69,-271.01"/>
<polygon fill="midnightblue" stroke="midnightblue" points="776.47,-306.2 768.77,-313.48 779.33,-312.59 776.47,-306.2"/>
</g>
<!-- Node15&#45;&gt;Node12 -->
<g id="edge20" class="edge">
<title>Node15&#45;&gt;Node12</title>
<path fill="none" stroke="midnightblue" d="M973.94,-249.76C967.81,-248.47 961.62,-247.18 955.71,-246 869.3,-228.68 846.63,-229.65 760.71,-210 753.09,-208.26 744.91,-206.14 737.32,-204.07"/>
<polygon fill="midnightblue" stroke="midnightblue" points="973.63,-253.27 984.14,-251.94 975.09,-246.43 973.63,-253.27"/>
</g>
<!-- Node16&#45;&gt;Node12 -->
<g id="edge22" class="edge">
<title>Node16&#45;&gt;Node12</title>
<path fill="none" stroke="midnightblue" d="M517.26,-249.09C562.96,-236.23 636.22,-215.62 677.28,-204.06"/>
<polygon fill="midnightblue" stroke="midnightblue" points="516.07,-245.79 507.39,-251.87 517.96,-252.53 516.07,-245.79"/>
</g>
<!-- Node17&#45;&gt;Node12 -->
<g id="edge24" class="edge">
<title>Node17&#45;&gt;Node12</title>
<path fill="none" stroke="midnightblue" d="M611.92,-246.96C635.91,-234.07 671.28,-215.07 691.65,-204.13"/>
<polygon fill="midnightblue" stroke="midnightblue" points="610.19,-243.92 603.03,-251.73 613.5,-250.08 610.19,-243.92"/>
</g>
<!-- Node18&#45;&gt;Node12 -->
<g id="edge26" class="edge">
<title>Node18&#45;&gt;Node12</title>
<path fill="none" stroke="midnightblue" d="M707.71,-241.54C707.71,-229.17 707.71,-213.62 707.71,-204.13"/>
<polygon fill="midnightblue" stroke="midnightblue" points="704.21,-241.73 707.71,-251.73 711.21,-241.73 704.21,-241.73"/>
</g>
<!-- Node20&#45;&gt;Node4 -->
<g id="edge32" class="edge">
<title>Node20&#45;&gt;Node4</title>
<path fill="none" stroke="midnightblue" d="M759.67,-178.79C573.68,-137.25 364.79,-93.56 277.87,-75.52"/>
<polygon fill="midnightblue" stroke="midnightblue" points="759.11,-182.25 769.63,-181.01 760.63,-175.42 759.11,-182.25"/>
</g>
<!-- Node21 -->
<g id="node21" class="node">
<title>Node21</title>
<g id="a_node21"><a xlink:href="historical__transaction__fetcher_8h.html" target="_top" xlink:title=" ">
<polygon fill="white" stroke="black" points="705.21,-112.5 705.21,-142.5 830.21,-142.5 830.21,-112.5 705.21,-112.5"/>
<text text-anchor="start" x="713.21" y="-130.5" font-family="Helvetica,sans-Serif" font-size="10.00">src/indexing/historical</text>
<text text-anchor="middle" x="767.71" y="-119.5" font-family="Helvetica,sans-Serif" font-size="10.00">_transaction_fetcher.h</text>
</a>
</g>
</g>
<!-- Node20&#45;&gt;Node21 -->
<g id="edge33" class="edge">
<title>Node20&#45;&gt;Node21</title>
<path fill="none" stroke="midnightblue" d="M804.3,-171.74C796.16,-162.12 786.83,-151.09 779.62,-142.58"/>
<polygon fill="midnightblue" stroke="midnightblue" points="801.65,-174.02 810.78,-179.4 806.99,-169.5 801.65,-174.02"/>
</g>
<!-- Node21&#45;&gt;Node4 -->
<g id="edge34" class="edge">
<title>Node21&#45;&gt;Node4</title>
<path fill="none" stroke="midnightblue" d="M694.75,-118.32C589.39,-106.52 396.51,-84.91 298.06,-73.87"/>
<polygon fill="midnightblue" stroke="midnightblue" points="694.65,-121.83 704.98,-119.47 695.43,-114.88 694.65,-121.83"/>
</g>
<!-- Node22&#45;&gt;Node4 -->
<g id="edge38" class="edge">
<title>Node22&#45;&gt;Node4</title>
<path fill="none" stroke="midnightblue" d="M518.27,-317.57C367.24,-309.88 82.73,-293.32 67.71,-277 35.82,-242.35 -0.56,-219.84 97.71,-112 117.62,-90.16 148.19,-78.88 175.6,-73.07"/>
<polygon fill="midnightblue" stroke="midnightblue" points="518.3,-321.08 528.46,-318.09 518.65,-314.08 518.3,-321.08"/>
</g>
</g>
</svg>
        <g id="navigator" transform="translate(0 0)" fill="#404254">
                <rect fill="#f2f5e9" fill-opacity="0.5" stroke="#606060" stroke-width=".5" x="0" y="0" width="60" height="60"/>
                <use id="zoomplus" xlink:href="#zoomPlus" x="17" y="9" onmousedown="handleZoom(evt,'in')"/>
                <use id="zoomminus" xlink:href="#zoomMin" x="42" y="9" onmousedown="handleZoom(evt,'out')"/>
                <use id="reset" xlink:href="#resetDef" x="30" y="36" onmousedown="handleReset()"/>
                <g id="arrowUp" xlink:href="#dirArrow" transform="translate(30 24)" onmousedown="handlePan(0,-1)">
                  <use xlink:href="#rim" fill="#404040">
                        <set attributeName="fill" to="#808080" begin="arrowUp.mouseover" end="arrowUp.mouseout"/>
                  </use>
                  <path fill="none" stroke="white" stroke-width="1.5" d="M0,-3.0v7 M-2.5,-0.5L0,-3.0L2.5,-0.5"/>
                </g>
                <g id="arrowRight" xlink:href="#dirArrow" transform="rotate(90) translate(36 -43)" onmousedown="handlePan(1,0)">
                  <use xlink:href="#rim" fill="#404040">
                        <set attributeName="fill" to="#808080" begin="arrowRight.mouseover" end="arrowRight.mouseout"/>
                  </use>
                  <path fill="none" stroke="white" stroke-width="1.5" d="M0,-3.0v7 M-2.5,-0.5L0,-3.0L2.5,-0.5"/>
                </g>
                <g id="arrowDown" xlink:href="#dirArrow" transform="rotate(180) translate(-30 -48)" onmousedown="handlePan(0,1)">
                  <use xlink:href="#rim" fill="#404040">
                        <set attributeName="fill" to="#808080" begin="arrowDown.mouseover" end="arrowDown.mouseout"/>
                  </use>
                  <path fill="none" stroke="white" stroke-width="1.5" d="M0,-3.0v7 M-2.5,-0.5L0,-3.0L2.5,-0.5"/>
                </g>
                <g id="arrowLeft" xlink:href="#dirArrow" transform="rotate(270) translate(-36 17)" onmousedown="handlePan(-1,0)">
                  <use xlink:href="#rim" fill="#404040">
                        <set attributeName="fill" to="#808080" begin="arrowLeft.mouseover" end="arrowLeft.mouseout"/>
                  </use>
                  <path fill="none" stroke="white" stroke-width="1.5" d="M0,-3.0v7 M-2.5,-0.5L0,-3.0L2.5,-0.5"/>
                </g>
        </g>
        <svg viewBox="0 0 15 15" width="100%" height="30px" preserveAspectRatio="xMaxYMin meet">
         <g id="arrow_out" transform="scale(0.3 0.3)">
          <a xlink:href="quote_8h__dep__incl_org.svg" target="_base">
           <rect id="button" ry="5" rx="5" y="6" x="6" height="38" width="38"
                fill="#f2f5e9" fill-opacity="0.5" stroke="#606060" stroke-width="1.0"/>
           <path id="arrow"
             d="M 11.500037,31.436501 C 11.940474,20.09759 22.043105,11.32322 32.158766,21.979434 L 37.068811,17.246167 C 37.068811,17.246167 37.088388,32 37.088388,32 L 22.160133,31.978069 C 22.160133,31.978069 26.997745,27.140456 26.997745,27.140456 C 18.528582,18.264221 13.291696,25.230495 11.500037,31.436501 z"
             style="fill:#404040;"/>
          </a>
         </g>
        </svg>
</svg>
