<?xml version="1.0" encoding="UTF-8" standalone="no"?>
<!DOCTYPE svg PUBLIC "-//W3C//DTD SVG 1.1//EN"
 "http://www.w3.org/Graphics/SVG/1.1/DTD/svg11.dtd">
<!-- Generated by graphviz version 2.43.0 (0)
 -->
<!-- Title: src/ds/ring_buffer.h Pages: 1 -->
<svg width="1065pt" height="252pt"
 viewBox="0.00 0.00 1065.00 252.00" xmlns="http://www.w3.org/2000/svg" xmlns:xlink="http://www.w3.org/1999/xlink">
<g id="graph0" class="graph" transform="scale(1 1) rotate(0) translate(4 248)">
<title>src/ds/ring_buffer.h</title>
<polygon fill="white" stroke="transparent" points="-4,4 -4,-248 1061,-248 1061,4 -4,4"/>
<!-- Node1 -->
<g id="node1" class="node">
<title>Node1</title>
<g id="a_node1"><a xlink:title=" ">
<polygon fill="#bfbfbf" stroke="black" points="909,-224.5 909,-243.5 1018,-243.5 1018,-224.5 909,-224.5"/>
<text text-anchor="middle" x="963.5" y="-231.5" font-family="Helvetica,sans-Serif" font-size="10.00">src/ds/ring_buffer.h</text>
</a>
</g>
</g>
<!-- Node2 -->
<g id="node2" class="node">
<title>Node2</title>
<g id="a_node2"><a xlink:href="ring__buffer__types_8h.html" target="_top" xlink:title=" ">
<polygon fill="white" stroke="black" points="390.5,-168.5 390.5,-187.5 500.5,-187.5 500.5,-168.5 390.5,-168.5"/>
<text text-anchor="middle" x="445.5" y="-175.5" font-family="Helvetica,sans-Serif" font-size="10.00">ring_buffer_types.h</text>
</a>
</g>
</g>
<!-- Node1&#45;&gt;Node2 -->
<g id="edge1" class="edge">
<title>Node1&#45;&gt;Node2</title>
<path fill="none" stroke="midnightblue" d="M908.56,-227.27C812.3,-217.24 613.63,-196.53 510.63,-185.79"/>
<polygon fill="midnightblue" stroke="midnightblue" points="510.97,-182.31 500.66,-184.75 510.24,-189.27 510.97,-182.31"/>
</g>
<!-- Node18 -->
<g id="node18" class="node">
<title>Node18</title>
<g id="a_node18"><a xlink:title=" ">
<polygon fill="white" stroke="#bfbfbf" points="688.5,-0.5 688.5,-19.5 738.5,-19.5 738.5,-0.5 688.5,-0.5"/>
<text text-anchor="middle" x="713.5" y="-7.5" font-family="Helvetica,sans-Serif" font-size="10.00">cstring</text>
</a>
</g>
</g>
<!-- Node1&#45;&gt;Node18 -->
<g id="edge36" class="edge">
<title>Node1&#45;&gt;Node18</title>
<path fill="none" stroke="midnightblue" d="M965.83,-224.19C972.79,-195.62 990.35,-104.56 945.5,-56 885.11,9.38 835.43,-39.1 748.5,-20 748.4,-19.98 748.3,-19.96 748.2,-19.93"/>
<polygon fill="midnightblue" stroke="midnightblue" points="749.22,-16.58 738.68,-17.7 747.62,-23.39 749.22,-16.58"/>
</g>
<!-- Node25 -->
<g id="node25" class="node">
<title>Node25</title>
<g id="a_node25"><a xlink:title=" ">
<polygon fill="white" stroke="#bfbfbf" points="992,-168.5 992,-187.5 1057,-187.5 1057,-168.5 992,-168.5"/>
<text text-anchor="middle" x="1024.5" y="-175.5" font-family="Helvetica,sans-Serif" font-size="10.00">functional</text>
</a>
</g>
</g>
<!-- Node1&#45;&gt;Node25 -->
<g id="edge37" class="edge">
<title>Node1&#45;&gt;Node25</title>
<path fill="none" stroke="midnightblue" d="M973.3,-224.32C982.32,-216.34 995.91,-204.31 1006.82,-194.65"/>
<polygon fill="midnightblue" stroke="midnightblue" points="1009.35,-197.08 1014.52,-187.83 1004.71,-191.84 1009.35,-197.08"/>
</g>
<!-- Node3 -->
<g id="node3" class="node">
<title>Node3</title>
<g id="a_node3"><a xlink:href="nonstd_8h.html" target="_top" xlink:title=" ">
<polygon fill="white" stroke="black" points="109.5,-56.5 109.5,-75.5 199.5,-75.5 199.5,-56.5 109.5,-56.5"/>
<text text-anchor="middle" x="154.5" y="-63.5" font-family="Helvetica,sans-Serif" font-size="10.00">ccf/ds/nonstd.h</text>
</a>
</g>
</g>
<!-- Node2&#45;&gt;Node3 -->
<g id="edge2" class="edge">
<title>Node2&#45;&gt;Node3</title>
<path fill="none" stroke="midnightblue" d="M390.24,-177.1C339.43,-174.86 263.69,-165.44 207.5,-132 188.41,-120.64 173.25,-99.73 164.11,-84.69"/>
<polygon fill="midnightblue" stroke="midnightblue" points="167.02,-82.73 159,-75.82 160.96,-86.23 167.02,-82.73"/>
</g>
<!-- Node7 -->
<g id="node7" class="node">
<title>Node7</title>
<g id="a_node7"><a xlink:title=" ">
<polygon fill="white" stroke="#bfbfbf" points="387.5,-0.5 387.5,-19.5 431.5,-19.5 431.5,-0.5 387.5,-0.5"/>
<text text-anchor="middle" x="409.5" y="-7.5" font-family="Helvetica,sans-Serif" font-size="10.00">string</text>
</a>
</g>
</g>
<!-- Node2&#45;&gt;Node7 -->
<g id="edge34" class="edge">
<title>Node2&#45;&gt;Node7</title>
<path fill="none" stroke="midnightblue" d="M500.62,-168.86C540.53,-160.24 584.68,-143.36 567.5,-112 566.55,-110.26 475.2,-52.46 431.86,-25.1"/>
<polygon fill="midnightblue" stroke="midnightblue" points="433.47,-21.98 423.14,-19.6 429.73,-27.9 433.47,-21.98"/>
</g>
<!-- Node10 -->
<g id="node10" class="node">
<title>Node10</title>
<g id="a_node10"><a xlink:title=" ">
<polygon fill="white" stroke="#bfbfbf" points="465,-0.5 465,-19.5 512,-19.5 512,-0.5 465,-0.5"/>
<text text-anchor="middle" x="488.5" y="-7.5" font-family="Helvetica,sans-Serif" font-size="10.00">vector</text>
</a>
</g>
</g>
<!-- Node2&#45;&gt;Node10 -->
<g id="edge35" class="edge">
<title>Node2&#45;&gt;Node10</title>
<path fill="none" stroke="midnightblue" d="M390.36,-172.56C336.18,-166.91 259,-155 240.5,-132 229.53,-118.37 224.57,-79.68 246.5,-56 276.29,-23.83 397.4,-28.04 440.5,-20 445.03,-19.16 449.8,-18.26 454.5,-17.38"/>
<polygon fill="midnightblue" stroke="midnightblue" points="455.39,-20.78 464.57,-15.5 454.1,-13.9 455.39,-20.78"/>
</g>
<!-- Node11 -->
<g id="node11" class="node">
<title>Node11</title>
<g id="a_node11"><a xlink:href="ds_2hash_8h.html" target="_top" xlink:title=" ">
<polygon fill="white" stroke="black" points="615,-112.5 615,-131.5 678,-131.5 678,-112.5 615,-112.5"/>
<text text-anchor="middle" x="646.5" y="-119.5" font-family="Helvetica,sans-Serif" font-size="10.00">ds/hash.h</text>
</a>
</g>
</g>
<!-- Node2&#45;&gt;Node11 -->
<g id="edge10" class="edge">
<title>Node2&#45;&gt;Node11</title>
<path fill="none" stroke="midnightblue" d="M477.35,-168.44C511.9,-159.16 567.18,-144.31 605.08,-134.13"/>
<polygon fill="midnightblue" stroke="midnightblue" points="606.05,-137.49 614.8,-131.52 604.23,-130.73 606.05,-137.49"/>
</g>
<!-- Node16 -->
<g id="node16" class="node">
<title>Node16</title>
<g id="a_node16"><a xlink:href="serializer_8h.html" target="_top" xlink:title=" ">
<polygon fill="white" stroke="black" points="249.5,-112.5 249.5,-131.5 319.5,-131.5 319.5,-112.5 249.5,-112.5"/>
<text text-anchor="middle" x="284.5" y="-119.5" font-family="Helvetica,sans-Serif" font-size="10.00">serializer.h</text>
</a>
</g>
</g>
<!-- Node2&#45;&gt;Node16 -->
<g id="edge19" class="edge">
<title>Node2&#45;&gt;Node16</title>
<path fill="none" stroke="midnightblue" d="M419.99,-168.44C392.9,-159.36 349.91,-144.94 319.63,-134.78"/>
<polygon fill="midnightblue" stroke="midnightblue" points="320.49,-131.38 309.89,-131.52 318.26,-138.01 320.49,-131.38"/>
</g>
<!-- Node22 -->
<g id="node22" class="node">
<title>Node22</title>
<g id="a_node22"><a xlink:title=" ">
<polygon fill="white" stroke="#bfbfbf" points="337.5,-112.5 337.5,-131.5 387.5,-131.5 387.5,-112.5 337.5,-112.5"/>
<text text-anchor="middle" x="362.5" y="-119.5" font-family="Helvetica,sans-Serif" font-size="10.00">atomic</text>
</a>
</g>
</g>
<!-- Node2&#45;&gt;Node22 -->
<g id="edge31" class="edge">
<title>Node2&#45;&gt;Node22</title>
<path fill="none" stroke="midnightblue" d="M432.16,-168.32C419.34,-159.98 399.72,-147.21 384.56,-137.35"/>
<polygon fill="midnightblue" stroke="midnightblue" points="386.09,-134.17 375.8,-131.65 382.28,-140.04 386.09,-134.17"/>
</g>
<!-- Node23 -->
<g id="node23" class="node">
<title>Node23</title>
<g id="a_node23"><a xlink:title=" ">
<polygon fill="white" stroke="#bfbfbf" points="406,-112.5 406,-131.5 485,-131.5 485,-112.5 406,-112.5"/>
<text text-anchor="middle" x="445.5" y="-119.5" font-family="Helvetica,sans-Serif" font-size="10.00">fmt/format.h</text>
</a>
</g>
</g>
<!-- Node2&#45;&gt;Node23 -->
<g id="edge32" class="edge">
<title>Node2&#45;&gt;Node23</title>
<path fill="none" stroke="midnightblue" d="M445.5,-168.08C445.5,-161.01 445.5,-150.86 445.5,-141.99"/>
<polygon fill="midnightblue" stroke="midnightblue" points="449,-141.75 445.5,-131.75 442,-141.75 449,-141.75"/>
</g>
<!-- Node24 -->
<g id="node24" class="node">
<title>Node24</title>
<g id="a_node24"><a xlink:title=" ">
<polygon fill="white" stroke="#bfbfbf" points="502.5,-112.5 502.5,-131.5 558.5,-131.5 558.5,-112.5 502.5,-112.5"/>
<text text-anchor="middle" x="530.5" y="-119.5" font-family="Helvetica,sans-Serif" font-size="10.00">optional</text>
</a>
</g>
</g>
<!-- Node2&#45;&gt;Node24 -->
<g id="edge33" class="edge">
<title>Node2&#45;&gt;Node24</title>
<path fill="none" stroke="midnightblue" d="M459.16,-168.32C472.42,-159.9 492.77,-146.97 508.35,-137.07"/>
<polygon fill="midnightblue" stroke="midnightblue" points="510.31,-139.97 516.88,-131.65 506.56,-134.06 510.31,-139.97"/>
</g>
<!-- Node4 -->
<g id="node4" class="node">
<title>Node4</title>
<g id="a_node4"><a xlink:title=" ">
<polygon fill="white" stroke="#bfbfbf" points="245.5,-0.5 245.5,-19.5 309.5,-19.5 309.5,-0.5 245.5,-0.5"/>
<text text-anchor="middle" x="277.5" y="-7.5" font-family="Helvetica,sans-Serif" font-size="10.00">algorithm</text>
</a>
</g>
</g>
<!-- Node3&#45;&gt;Node4 -->
<g id="edge3" class="edge">
<title>Node3&#45;&gt;Node4</title>
<path fill="none" stroke="midnightblue" d="M173.99,-56.44C194.14,-47.6 225.82,-33.69 248.83,-23.59"/>
<polygon fill="midnightblue" stroke="midnightblue" points="250.35,-26.74 258.1,-19.52 247.54,-20.33 250.35,-26.74"/>
</g>
<!-- Node5 -->
<g id="node5" class="node">
<title>Node5</title>
<g id="a_node5"><a xlink:title=" ">
<polygon fill="white" stroke="#bfbfbf" points="327.5,-0.5 327.5,-19.5 369.5,-19.5 369.5,-0.5 327.5,-0.5"/>
<text text-anchor="middle" x="348.5" y="-7.5" font-family="Helvetica,sans-Serif" font-size="10.00">array</text>
</a>
</g>
</g>
<!-- Node3&#45;&gt;Node5 -->
<g id="edge4" class="edge">
<title>Node3&#45;&gt;Node5</title>
<path fill="none" stroke="midnightblue" d="M186.62,-56.43C217.72,-48.07 266.46,-34.84 317.35,-20.28"/>
<polygon fill="midnightblue" stroke="midnightblue" points="318.57,-23.58 327.21,-17.45 316.64,-16.85 318.57,-23.58"/>
</g>
<!-- Node6 -->
<g id="node6" class="node">
<title>Node6</title>
<g id="a_node6"><a xlink:title=" ">
<polygon fill="white" stroke="#bfbfbf" points="87,-0.5 87,-19.5 136,-19.5 136,-0.5 87,-0.5"/>
<text text-anchor="middle" x="111.5" y="-7.5" font-family="Helvetica,sans-Serif" font-size="10.00">cctype</text>
</a>
</g>
</g>
<!-- Node3&#45;&gt;Node6 -->
<g id="edge5" class="edge">
<title>Node3&#45;&gt;Node6</title>
<path fill="none" stroke="midnightblue" d="M147.4,-56.08C141.26,-48.38 132.23,-37.03 124.76,-27.65"/>
<polygon fill="midnightblue" stroke="midnightblue" points="127.44,-25.39 118.47,-19.75 121.96,-29.75 127.44,-25.39"/>
</g>
<!-- Node3&#45;&gt;Node7 -->
<g id="edge6" class="edge">
<title>Node3&#45;&gt;Node7</title>
<path fill="none" stroke="midnightblue" d="M199.8,-57.06C243.09,-49.21 310.38,-36.34 377.34,-20.13"/>
<polygon fill="midnightblue" stroke="midnightblue" points="378.33,-23.49 387.21,-17.72 376.66,-16.69 378.33,-23.49"/>
</g>
<!-- Node8 -->
<g id="node8" class="node">
<title>Node8</title>
<g id="a_node8"><a xlink:title=" ">
<polygon fill="white" stroke="#bfbfbf" points="154,-0.5 154,-19.5 227,-19.5 227,-0.5 154,-0.5"/>
<text text-anchor="middle" x="190.5" y="-7.5" font-family="Helvetica,sans-Serif" font-size="10.00">string_view</text>
</a>
</g>
</g>
<!-- Node3&#45;&gt;Node8 -->
<g id="edge7" class="edge">
<title>Node3&#45;&gt;Node8</title>
<path fill="none" stroke="midnightblue" d="M160.44,-56.08C165.48,-48.53 172.84,-37.49 179.01,-28.23"/>
<polygon fill="midnightblue" stroke="midnightblue" points="182.03,-30.01 184.67,-19.75 176.21,-26.13 182.03,-30.01"/>
</g>
<!-- Node9 -->
<g id="node9" class="node">
<title>Node9</title>
<g id="a_node9"><a xlink:title=" ">
<polygon fill="white" stroke="#bfbfbf" points="0,-0.5 0,-19.5 69,-19.5 69,-0.5 0,-0.5"/>
<text text-anchor="middle" x="34.5" y="-7.5" font-family="Helvetica,sans-Serif" font-size="10.00">type_traits</text>
</a>
</g>
</g>
<!-- Node3&#45;&gt;Node9 -->
<g id="edge8" class="edge">
<title>Node3&#45;&gt;Node9</title>
<path fill="none" stroke="midnightblue" d="M135.49,-56.44C115.91,-47.64 85.19,-33.81 62.77,-23.72"/>
<polygon fill="midnightblue" stroke="midnightblue" points="63.98,-20.43 53.43,-19.52 61.11,-26.81 63.98,-20.43"/>
</g>
<!-- Node3&#45;&gt;Node10 -->
<g id="edge9" class="edge">
<title>Node3&#45;&gt;Node10</title>
<path fill="none" stroke="midnightblue" d="M199.67,-58.06C268.16,-47.5 395.12,-27.82 440.5,-20 445.04,-19.22 449.82,-18.36 454.52,-17.5"/>
<polygon fill="midnightblue" stroke="midnightblue" points="455.41,-20.89 464.6,-15.62 454.13,-14.01 455.41,-20.89"/>
</g>
<!-- Node11&#45;&gt;Node5 -->
<g id="edge15" class="edge">
<title>Node11&#45;&gt;Node5</title>
<path fill="none" stroke="midnightblue" d="M619.66,-112.45C592.5,-103.69 549.38,-89.49 512.5,-76 465.32,-58.74 411.27,-36.91 378.52,-23.46"/>
<polygon fill="midnightblue" stroke="midnightblue" points="379.65,-20.14 369.08,-19.56 376.99,-26.61 379.65,-20.14"/>
</g>
<!-- Node11&#45;&gt;Node10 -->
<g id="edge18" class="edge">
<title>Node11&#45;&gt;Node10</title>
<path fill="none" stroke="midnightblue" d="M614.88,-113.31C591.24,-106.4 559.06,-94.48 535.5,-76 519.12,-63.15 505.84,-43.14 497.63,-28.72"/>
<polygon fill="midnightblue" stroke="midnightblue" points="500.62,-26.9 492.78,-19.78 494.47,-30.24 500.62,-26.9"/>
</g>
<!-- Node12 -->
<g id="node12" class="node">
<title>Node12</title>
<g id="a_node12"><a xlink:href="siphash_8h.html" target="_top" xlink:title=" ">
<polygon fill="white" stroke="black" points="674,-56.5 674,-75.5 769,-75.5 769,-56.5 674,-56.5"/>
<text text-anchor="middle" x="721.5" y="-63.5" font-family="Helvetica,sans-Serif" font-size="10.00">ccf/ds/siphash.h</text>
</a>
</g>
</g>
<!-- Node11&#45;&gt;Node12 -->
<g id="edge11" class="edge">
<title>Node11&#45;&gt;Node12</title>
<path fill="none" stroke="midnightblue" d="M658.55,-112.32C669.96,-104.11 687.33,-91.6 700.93,-81.81"/>
<polygon fill="midnightblue" stroke="midnightblue" points="703.16,-84.52 709.23,-75.83 699.07,-78.84 703.16,-84.52"/>
</g>
<!-- Node14 -->
<g id="node14" class="node">
<title>Node14</title>
<g id="a_node14"><a xlink:title=" ">
<polygon fill="white" stroke="#bfbfbf" points="620.5,-0.5 620.5,-19.5 670.5,-19.5 670.5,-0.5 620.5,-0.5"/>
<text text-anchor="middle" x="645.5" y="-7.5" font-family="Helvetica,sans-Serif" font-size="10.00">cstdint</text>
</a>
</g>
</g>
<!-- Node11&#45;&gt;Node14 -->
<g id="edge16" class="edge">
<title>Node11&#45;&gt;Node14</title>
<path fill="none" stroke="midnightblue" d="M646.42,-112.37C646.26,-94.62 645.89,-53.67 645.67,-29.6"/>
<polygon fill="midnightblue" stroke="midnightblue" points="649.17,-29.56 645.58,-19.59 642.17,-29.62 649.17,-29.56"/>
</g>
<!-- Node15 -->
<g id="node15" class="node">
<title>Node15</title>
<g id="a_node15"><a xlink:title=" ">
<polygon fill="white" stroke="#bfbfbf" points="787,-56.5 787,-75.5 936,-75.5 936,-56.5 787,-56.5"/>
<text text-anchor="middle" x="861.5" y="-63.5" font-family="Helvetica,sans-Serif" font-size="10.00">small_vector/SmallVector.h</text>
</a>
</g>
</g>
<!-- Node11&#45;&gt;Node15 -->
<g id="edge17" class="edge">
<title>Node11&#45;&gt;Node15</title>
<path fill="none" stroke="midnightblue" d="M678.22,-113.03C715.13,-103.76 776.28,-88.4 817.7,-78"/>
<polygon fill="midnightblue" stroke="midnightblue" points="818.67,-81.37 827.51,-75.54 816.96,-74.58 818.67,-81.37"/>
</g>
<!-- Node12&#45;&gt;Node10 -->
<g id="edge14" class="edge">
<title>Node12&#45;&gt;Node10</title>
<path fill="none" stroke="midnightblue" d="M684.58,-56.44C639.89,-46.09 565.27,-28.79 522.12,-18.79"/>
<polygon fill="midnightblue" stroke="midnightblue" points="522.65,-15.32 512.12,-16.47 521.07,-22.14 522.65,-15.32"/>
</g>
<!-- Node13 -->
<g id="node13" class="node">
<title>Node13</title>
<g id="a_node13"><a xlink:title=" ">
<polygon fill="white" stroke="#bfbfbf" points="757,-0.5 757,-19.5 810,-19.5 810,-0.5 757,-0.5"/>
<text text-anchor="middle" x="783.5" y="-7.5" font-family="Helvetica,sans-Serif" font-size="10.00">cstddef</text>
</a>
</g>
</g>
<!-- Node12&#45;&gt;Node13 -->
<g id="edge12" class="edge">
<title>Node12&#45;&gt;Node13</title>
<path fill="none" stroke="midnightblue" d="M731.46,-56.32C740.63,-48.34 754.44,-36.31 765.53,-26.65"/>
<polygon fill="midnightblue" stroke="midnightblue" points="768.12,-29.04 773.36,-19.83 763.52,-23.76 768.12,-29.04"/>
</g>
<!-- Node12&#45;&gt;Node14 -->
<g id="edge13" class="edge">
<title>Node12&#45;&gt;Node14</title>
<path fill="none" stroke="midnightblue" d="M709.29,-56.32C697.72,-48.11 680.12,-35.6 666.34,-25.81"/>
<polygon fill="midnightblue" stroke="midnightblue" points="668.11,-22.77 657.93,-19.83 664.06,-28.48 668.11,-22.77"/>
</g>
<!-- Node16&#45;&gt;Node3 -->
<g id="edge20" class="edge">
<title>Node16&#45;&gt;Node3</title>
<path fill="none" stroke="midnightblue" d="M263.9,-112.44C242.51,-103.56 208.82,-89.56 184.48,-79.45"/>
<polygon fill="midnightblue" stroke="midnightblue" points="185.58,-76.12 175,-75.52 182.89,-82.58 185.58,-76.12"/>
</g>
<!-- Node16&#45;&gt;Node9 -->
<g id="edge29" class="edge">
<title>Node16&#45;&gt;Node9</title>
<path fill="none" stroke="midnightblue" d="M249.24,-118C210.63,-113.49 147.89,-102.43 100.5,-76 78.66,-63.82 59,-42.46 46.93,-27.56"/>
<polygon fill="midnightblue" stroke="midnightblue" points="49.67,-25.37 40.75,-19.65 44.15,-29.69 49.67,-25.37"/>
</g>
<!-- Node16&#45;&gt;Node10 -->
<g id="edge30" class="edge">
<title>Node16&#45;&gt;Node10</title>
<path fill="none" stroke="midnightblue" d="M305.12,-112.39C325.19,-103.81 356.4,-89.93 382.5,-76 412.69,-59.89 446.14,-38.8 467.24,-25.08"/>
<polygon fill="midnightblue" stroke="midnightblue" points="469.29,-27.92 475.74,-19.52 465.45,-22.07 469.29,-27.92"/>
</g>
<!-- Node17 -->
<g id="node17" class="node">
<title>Node17</title>
<g id="a_node17"><a xlink:href="serialized_8h.html" target="_top" xlink:title=" ">
<polygon fill="white" stroke="black" points="544,-56.5 544,-75.5 617,-75.5 617,-56.5 544,-56.5"/>
<text text-anchor="middle" x="580.5" y="-63.5" font-family="Helvetica,sans-Serif" font-size="10.00">serialized.h</text>
</a>
</g>
</g>
<!-- Node16&#45;&gt;Node17 -->
<g id="edge21" class="edge">
<title>Node16&#45;&gt;Node17</title>
<path fill="none" stroke="midnightblue" d="M319.55,-113.75C322.57,-113.15 325.59,-112.56 328.5,-112 399.96,-98.31 483.09,-83.73 533.73,-74.99"/>
<polygon fill="midnightblue" stroke="midnightblue" points="534.46,-78.42 543.72,-73.27 533.27,-71.52 534.46,-78.42"/>
</g>
<!-- Node20 -->
<g id="node20" class="node">
<title>Node20</title>
<g id="a_node20"><a xlink:title=" ">
<polygon fill="white" stroke="#bfbfbf" points="255.5,-56.5 255.5,-75.5 313.5,-75.5 313.5,-56.5 255.5,-56.5"/>
<text text-anchor="middle" x="284.5" y="-63.5" font-family="Helvetica,sans-Serif" font-size="10.00">memory</text>
</a>
</g>
</g>
<!-- Node16&#45;&gt;Node20 -->
<g id="edge27" class="edge">
<title>Node16&#45;&gt;Node20</title>
<path fill="none" stroke="midnightblue" d="M284.5,-112.08C284.5,-105.01 284.5,-94.86 284.5,-85.99"/>
<polygon fill="midnightblue" stroke="midnightblue" points="288,-85.75 284.5,-75.75 281,-85.75 288,-85.75"/>
</g>
<!-- Node21 -->
<g id="node21" class="node">
<title>Node21</title>
<g id="a_node21"><a xlink:title=" ">
<polygon fill="white" stroke="#bfbfbf" points="332,-56.5 332,-75.5 373,-75.5 373,-56.5 332,-56.5"/>
<text text-anchor="middle" x="352.5" y="-63.5" font-family="Helvetica,sans-Serif" font-size="10.00">tuple</text>
</a>
</g>
</g>
<!-- Node16&#45;&gt;Node21 -->
<g id="edge28" class="edge">
<title>Node16&#45;&gt;Node21</title>
<path fill="none" stroke="midnightblue" d="M295.43,-112.32C305.67,-104.18 321.22,-91.84 333.5,-82.09"/>
<polygon fill="midnightblue" stroke="midnightblue" points="335.72,-84.79 341.38,-75.83 331.37,-79.31 335.72,-84.79"/>
</g>
<!-- Node17&#45;&gt;Node7 -->
<g id="edge25" class="edge">
<title>Node17&#45;&gt;Node7</title>
<path fill="none" stroke="midnightblue" d="M553.4,-56.44C522.98,-46.84 473.66,-31.26 441.4,-21.07"/>
<polygon fill="midnightblue" stroke="midnightblue" points="442.16,-17.64 431.57,-17.97 440.06,-24.32 442.16,-17.64"/>
</g>
<!-- Node17&#45;&gt;Node10 -->
<g id="edge26" class="edge">
<title>Node17&#45;&gt;Node10</title>
<path fill="none" stroke="midnightblue" d="M565.72,-56.32C551.23,-47.82 528.93,-34.73 512.01,-24.8"/>
<polygon fill="midnightblue" stroke="midnightblue" points="513.64,-21.7 503.24,-19.65 510.1,-27.74 513.64,-21.7"/>
</g>
<!-- Node17&#45;&gt;Node14 -->
<g id="edge22" class="edge">
<title>Node17&#45;&gt;Node14</title>
<path fill="none" stroke="midnightblue" d="M590.94,-56.32C600.65,-48.26 615.32,-36.08 627,-26.37"/>
<polygon fill="midnightblue" stroke="midnightblue" points="629.41,-28.92 634.87,-19.83 624.94,-23.53 629.41,-28.92"/>
</g>
<!-- Node17&#45;&gt;Node18 -->
<g id="edge23" class="edge">
<title>Node17&#45;&gt;Node18</title>
<path fill="none" stroke="midnightblue" d="M601.57,-56.44C623.56,-47.52 658.23,-33.44 683.16,-23.32"/>
<polygon fill="midnightblue" stroke="midnightblue" points="684.58,-26.52 692.52,-19.52 681.94,-20.04 684.58,-26.52"/>
</g>
<!-- Node19 -->
<g id="node19" class="node">
<title>Node19</title>
<g id="a_node19"><a xlink:title=" ">
<polygon fill="white" stroke="#bfbfbf" points="537,-0.5 537,-19.5 602,-19.5 602,-0.5 537,-0.5"/>
<text text-anchor="middle" x="569.5" y="-7.5" font-family="Helvetica,sans-Serif" font-size="10.00">stdexcept</text>
</a>
</g>
</g>
<!-- Node17&#45;&gt;Node19 -->
<g id="edge24" class="edge">
<title>Node17&#45;&gt;Node19</title>
<path fill="none" stroke="midnightblue" d="M578.68,-56.08C577.23,-48.93 575.13,-38.64 573.31,-29.69"/>
<polygon fill="midnightblue" stroke="midnightblue" points="576.71,-28.85 571.28,-19.75 569.85,-30.25 576.71,-28.85"/>
</g>
</g>
</svg>
