<?xml version="1.0" encoding="UTF-8" standalone="no"?>
<!DOCTYPE svg PUBLIC "-//W3C//DTD SVG 1.1//EN"
 "http://www.w3.org/Graphics/SVG/1.1/DTD/svg11.dtd">
<!-- Generated by graphviz version 2.43.0 (0)
 -->
<!-- Title: src/host/rpc_connections.h Pages: 1 -->
<!--zoomable 308 -->
<svg id="main" version="1.1" xmlns="http://www.w3.org/2000/svg" xmlns:xlink="http://www.w3.org/1999/xlink" xml:space="preserve" onload="init(evt)">
<style type="text/css"><![CDATA[
.edge:hover path { stroke: red; }
.edge:hover polygon { stroke: red; fill: red; }
]]></style>
<script type="text/javascript"><![CDATA[
var edges = document.getElementsByTagName('g');
if (edges && edges.length) {
  for (var i=0;i<edges.length;i++) {
    if (edges[i].id.substr(0,4)=='edge') {
      edges[i].setAttribute('class','edge');
    }
  }
}
]]></script>
        <defs>
                <circle id="rim" cx="0" cy="0" r="7"/>
                <circle id="rim2" cx="0" cy="0" r="3.5"/>
                <g id="zoomPlus">
                        <use xlink:href="#rim" fill="#404040">
                                <set attributeName="fill" to="#808080" begin="zoomplus.mouseover" end="zoomplus.mouseout"/>
                        </use>
                        <path d="M-4,0h8M0,-4v8" fill="none" stroke="white" stroke-width="1.5" pointer-events="none"/>
                </g>
                <g id="zoomMin">
                        <use xlink:href="#rim" fill="#404040">
                                <set attributeName="fill" to="#808080" begin="zoomminus.mouseover" end="zoomminus.mouseout"/>
                        </use>
                        <path d="M-4,0h8" fill="none" stroke="white" stroke-width="1.5" pointer-events="none"/>
                </g>
                <g id="dirArrow">
                        <path fill="none" stroke="white" stroke-width="1.5" d="M0,-3.0v7 M-2.5,-0.5L0,-3.0L2.5,-0.5"/>
                </g>
               <g id="resetDef">
                       <use xlink:href="#rim2" fill="#404040">
                               <set attributeName="fill" to="#808080" begin="reset.mouseover" end="reset.mouseout"/>
                       </use>
               </g>
        </defs>

<script type="text/javascript">
var viewWidth = 1748;
var viewHeight = 308;
var sectionId = 'dynsection-0';
</script>
<script xlink:href="svgpan.js"/>
<svg id="graph" class="graph">
<g id="viewport">
<title>src/host/rpc_connections.h</title>
<polygon fill="white" stroke="transparent" points="-4,4 -4,-304 1744.26,-304 1744.26,4 -4,4"/>
<!-- Node1 -->
<g id="node1" class="node">
<title>Node1</title>
<g id="a_node1"><a xlink:title=" ">
<polygon fill="#bfbfbf" stroke="black" points="941.26,-280.5 941.26,-299.5 1087.26,-299.5 1087.26,-280.5 941.26,-280.5"/>
<text text-anchor="middle" x="1014.26" y="-287.5" font-family="Helvetica,sans-Serif" font-size="10.00">src/host/rpc_connections.h</text>
</a>
</g>
</g>
<!-- Node2 -->
<g id="node2" class="node">
<title>Node2</title>
<g id="a_node2"><a xlink:href="msg__types_8h.html" target="_top" xlink:title=" ">
<polygon fill="white" stroke="black" points="752.76,-224.5 752.76,-243.5 855.76,-243.5 855.76,-224.5 752.76,-224.5"/>
<text text-anchor="middle" x="804.26" y="-231.5" font-family="Helvetica,sans-Serif" font-size="10.00">../tls/msg_types.h</text>
</a>
</g>
</g>
<!-- Node1&#45;&gt;Node2 -->
<g id="edge1" class="edge">
<title>Node1&#45;&gt;Node2</title>
<path fill="none" stroke="midnightblue" d="M980.99,-280.44C944.82,-271.14 886.89,-256.25 847.28,-246.06"/>
<polygon fill="midnightblue" stroke="midnightblue" points="847.94,-242.62 837.38,-243.52 846.2,-249.4 847.94,-242.62"/>
</g>
<!-- Node26 -->
<g id="node26" class="node">
<title>Node26</title>
<g id="a_node26"><a xlink:href="tcp_8h.html" target="_top" xlink:title=" ">
<polygon fill="white" stroke="black" points="993.76,-224.5 993.76,-243.5 1034.76,-243.5 1034.76,-224.5 993.76,-224.5"/>
<text text-anchor="middle" x="1014.26" y="-231.5" font-family="Helvetica,sans-Serif" font-size="10.00">tcp.h</text>
</a>
</g>
</g>
<!-- Node1&#45;&gt;Node26 -->
<g id="edge37" class="edge">
<title>Node1&#45;&gt;Node26</title>
<path fill="none" stroke="midnightblue" d="M1014.26,-280.08C1014.26,-273.01 1014.26,-262.86 1014.26,-253.99"/>
<polygon fill="midnightblue" stroke="midnightblue" points="1017.76,-253.75 1014.26,-243.75 1010.76,-253.75 1017.76,-253.75"/>
</g>
<!-- Node43 -->
<g id="node43" class="node">
<title>Node43</title>
<g id="a_node43"><a xlink:title=" ">
<polygon fill="white" stroke="#bfbfbf" points="1052.76,-224.5 1052.76,-243.5 1145.76,-243.5 1145.76,-224.5 1052.76,-224.5"/>
<text text-anchor="middle" x="1099.26" y="-231.5" font-family="Helvetica,sans-Serif" font-size="10.00">unordered_map</text>
</a>
</g>
</g>
<!-- Node1&#45;&gt;Node43 -->
<g id="edge63" class="edge">
<title>Node1&#45;&gt;Node43</title>
<path fill="none" stroke="midnightblue" d="M1027.92,-280.32C1041.18,-271.9 1061.53,-258.97 1077.11,-249.07"/>
<polygon fill="midnightblue" stroke="midnightblue" points="1079.08,-251.97 1085.64,-243.65 1075.32,-246.06 1079.08,-251.97"/>
</g>
<!-- Node3 -->
<g id="node3" class="node">
<title>Node3</title>
<g id="a_node3"><a xlink:href="ring__buffer__types_8h.html" target="_top" xlink:title=" ">
<polygon fill="white" stroke="black" points="588.76,-168.5 588.76,-187.5 713.76,-187.5 713.76,-168.5 588.76,-168.5"/>
<text text-anchor="middle" x="651.26" y="-175.5" font-family="Helvetica,sans-Serif" font-size="10.00">ds/ring_buffer_types.h</text>
</a>
</g>
</g>
<!-- Node2&#45;&gt;Node3 -->
<g id="edge2" class="edge">
<title>Node2&#45;&gt;Node3</title>
<path fill="none" stroke="midnightblue" d="M780.02,-224.44C754.39,-215.4 713.78,-201.06 685.03,-190.92"/>
<polygon fill="midnightblue" stroke="midnightblue" points="685.99,-187.54 675.39,-187.52 683.66,-194.15 685.99,-187.54"/>
</g>
<!-- Node4 -->
<g id="node4" class="node">
<title>Node4</title>
<g id="a_node4"><a xlink:href="nonstd_8h.html" target="_top" xlink:title=" ">
<polygon fill="white" stroke="black" points="446.26,-56.5 446.26,-75.5 536.26,-75.5 536.26,-56.5 446.26,-56.5"/>
<text text-anchor="middle" x="491.26" y="-63.5" font-family="Helvetica,sans-Serif" font-size="10.00">ccf/ds/nonstd.h</text>
</a>
</g>
</g>
<!-- Node3&#45;&gt;Node4 -->
<g id="edge3" class="edge">
<title>Node3&#45;&gt;Node4</title>
<path fill="none" stroke="midnightblue" d="M641.28,-168.29C626.19,-155.32 596.46,-130.48 569.26,-112 552.34,-100.5 532.34,-89 516.83,-80.51"/>
<polygon fill="midnightblue" stroke="midnightblue" points="518.28,-77.31 507.82,-75.63 514.95,-83.47 518.28,-77.31"/>
</g>
<!-- Node8 -->
<g id="node8" class="node">
<title>Node8</title>
<g id="a_node8"><a xlink:title=" ">
<polygon fill="white" stroke="#bfbfbf" points="631.26,-0.5 631.26,-19.5 675.26,-19.5 675.26,-0.5 631.26,-0.5"/>
<text text-anchor="middle" x="653.26" y="-7.5" font-family="Helvetica,sans-Serif" font-size="10.00">string</text>
</a>
</g>
</g>
<!-- Node3&#45;&gt;Node8 -->
<g id="edge35" class="edge">
<title>Node3&#45;&gt;Node8</title>
<path fill="none" stroke="midnightblue" d="M672.56,-168.49C715.49,-150.08 805.62,-104.27 772.26,-56 767.06,-48.47 718.66,-31.81 685.21,-21.01"/>
<polygon fill="midnightblue" stroke="midnightblue" points="685.96,-17.58 675.37,-17.86 683.83,-24.24 685.96,-17.58"/>
</g>
<!-- Node11 -->
<g id="node11" class="node">
<title>Node11</title>
<g id="a_node11"><a xlink:title=" ">
<polygon fill="white" stroke="#bfbfbf" points="325.76,-0.5 325.76,-19.5 372.76,-19.5 372.76,-0.5 325.76,-0.5"/>
<text text-anchor="middle" x="349.26" y="-7.5" font-family="Helvetica,sans-Serif" font-size="10.00">vector</text>
</a>
</g>
</g>
<!-- Node3&#45;&gt;Node11 -->
<g id="edge36" class="edge">
<title>Node3&#45;&gt;Node11</title>
<path fill="none" stroke="midnightblue" d="M607.79,-168.44C553.92,-155.99 461.75,-128.41 400.26,-76 384.12,-62.24 369.61,-42.69 360.23,-28.63"/>
<polygon fill="midnightblue" stroke="midnightblue" points="362.97,-26.41 354.6,-19.91 357.09,-30.21 362.97,-26.41"/>
</g>
<!-- Node12 -->
<g id="node12" class="node">
<title>Node12</title>
<g id="a_node12"><a xlink:href="ds_2hash_8h.html" target="_top" xlink:title=" ">
<polygon fill="white" stroke="black" points="157.76,-112.5 157.76,-131.5 220.76,-131.5 220.76,-112.5 157.76,-112.5"/>
<text text-anchor="middle" x="189.26" y="-119.5" font-family="Helvetica,sans-Serif" font-size="10.00">ds/hash.h</text>
</a>
</g>
</g>
<!-- Node3&#45;&gt;Node12 -->
<g id="edge11" class="edge">
<title>Node3&#45;&gt;Node12</title>
<path fill="none" stroke="midnightblue" d="M588.48,-169.66C492.73,-158.47 312.78,-137.44 231.28,-127.91"/>
<polygon fill="midnightblue" stroke="midnightblue" points="231.25,-124.38 220.91,-126.7 230.44,-131.34 231.25,-124.38"/>
</g>
<!-- Node17 -->
<g id="node17" class="node">
<title>Node17</title>
<g id="a_node17"><a xlink:href="serializer_8h.html" target="_top" xlink:title=" ">
<polygon fill="white" stroke="black" points="616.26,-112.5 616.26,-131.5 686.26,-131.5 686.26,-112.5 616.26,-112.5"/>
<text text-anchor="middle" x="651.26" y="-119.5" font-family="Helvetica,sans-Serif" font-size="10.00">serializer.h</text>
</a>
</g>
</g>
<!-- Node3&#45;&gt;Node17 -->
<g id="edge20" class="edge">
<title>Node3&#45;&gt;Node17</title>
<path fill="none" stroke="midnightblue" d="M651.26,-168.08C651.26,-161.01 651.26,-150.86 651.26,-141.99"/>
<polygon fill="midnightblue" stroke="midnightblue" points="654.76,-141.75 651.26,-131.75 647.76,-141.75 654.76,-141.75"/>
</g>
<!-- Node23 -->
<g id="node23" class="node">
<title>Node23</title>
<g id="a_node23"><a xlink:title=" ">
<polygon fill="white" stroke="#bfbfbf" points="510.26,-112.5 510.26,-131.5 560.26,-131.5 560.26,-112.5 510.26,-112.5"/>
<text text-anchor="middle" x="535.26" y="-119.5" font-family="Helvetica,sans-Serif" font-size="10.00">atomic</text>
</a>
</g>
</g>
<!-- Node3&#45;&gt;Node23 -->
<g id="edge32" class="edge">
<title>Node3&#45;&gt;Node23</title>
<path fill="none" stroke="midnightblue" d="M632.88,-168.44C614.05,-159.68 584.53,-145.94 562.88,-135.86"/>
<polygon fill="midnightblue" stroke="midnightblue" points="564.1,-132.56 553.56,-131.52 561.15,-138.91 564.1,-132.56"/>
</g>
<!-- Node24 -->
<g id="node24" class="node">
<title>Node24</title>
<g id="a_node24"><a xlink:title=" ">
<polygon fill="white" stroke="#bfbfbf" points="1046.76,-0.5 1046.76,-19.5 1125.76,-19.5 1125.76,-0.5 1046.76,-0.5"/>
<text text-anchor="middle" x="1086.26" y="-7.5" font-family="Helvetica,sans-Serif" font-size="10.00">fmt/format.h</text>
</a>
</g>
</g>
<!-- Node3&#45;&gt;Node24 -->
<g id="edge33" class="edge">
<title>Node3&#45;&gt;Node24</title>
<path fill="none" stroke="midnightblue" d="M676.75,-168.47C700.25,-160.25 735.84,-146.89 765.26,-132 821.93,-103.33 827.55,-80.21 886.26,-56 935.4,-35.74 995.27,-23.8 1036.63,-17.37"/>
<polygon fill="midnightblue" stroke="midnightblue" points="1037.36,-20.8 1046.73,-15.86 1036.32,-13.88 1037.36,-20.8"/>
</g>
<!-- Node25 -->
<g id="node25" class="node">
<title>Node25</title>
<g id="a_node25"><a xlink:title=" ">
<polygon fill="white" stroke="#bfbfbf" points="895.26,-56.5 895.26,-75.5 951.26,-75.5 951.26,-56.5 895.26,-56.5"/>
<text text-anchor="middle" x="923.26" y="-63.5" font-family="Helvetica,sans-Serif" font-size="10.00">optional</text>
</a>
</g>
</g>
<!-- Node3&#45;&gt;Node25 -->
<g id="edge34" class="edge">
<title>Node3&#45;&gt;Node25</title>
<path fill="none" stroke="midnightblue" d="M713.77,-170.33C772.24,-163.1 854.48,-150.14 881.26,-132 898.08,-120.62 909.68,-100.02 916.36,-85.06"/>
<polygon fill="midnightblue" stroke="midnightblue" points="919.61,-86.36 920.2,-75.78 913.14,-83.68 919.61,-86.36"/>
</g>
<!-- Node5 -->
<g id="node5" class="node">
<title>Node5</title>
<g id="a_node5"><a xlink:title=" ">
<polygon fill="white" stroke="#bfbfbf" points="549.26,-0.5 549.26,-19.5 613.26,-19.5 613.26,-0.5 549.26,-0.5"/>
<text text-anchor="middle" x="581.26" y="-7.5" font-family="Helvetica,sans-Serif" font-size="10.00">algorithm</text>
</a>
</g>
</g>
<!-- Node4&#45;&gt;Node5 -->
<g id="edge4" class="edge">
<title>Node4&#45;&gt;Node5</title>
<path fill="none" stroke="midnightblue" d="M505.72,-56.32C519.76,-47.9 541.31,-34.97 557.81,-25.07"/>
<polygon fill="midnightblue" stroke="midnightblue" points="560.07,-27.8 566.84,-19.65 556.46,-21.8 560.07,-27.8"/>
</g>
<!-- Node6 -->
<g id="node6" class="node">
<title>Node6</title>
<g id="a_node6"><a xlink:title=" ">
<polygon fill="white" stroke="#bfbfbf" points="221.26,-0.5 221.26,-19.5 263.26,-19.5 263.26,-0.5 221.26,-0.5"/>
<text text-anchor="middle" x="242.26" y="-7.5" font-family="Helvetica,sans-Serif" font-size="10.00">array</text>
</a>
</g>
</g>
<!-- Node4&#45;&gt;Node6 -->
<g id="edge5" class="edge">
<title>Node4&#45;&gt;Node6</title>
<path fill="none" stroke="midnightblue" d="M451.81,-56.44C402.32,-45.71 318.49,-27.53 273.32,-17.73"/>
<polygon fill="midnightblue" stroke="midnightblue" points="274.01,-14.3 263.5,-15.6 272.53,-21.14 274.01,-14.3"/>
</g>
<!-- Node7 -->
<g id="node7" class="node">
<title>Node7</title>
<g id="a_node7"><a xlink:title=" ">
<polygon fill="white" stroke="#bfbfbf" points="390.76,-0.5 390.76,-19.5 439.76,-19.5 439.76,-0.5 390.76,-0.5"/>
<text text-anchor="middle" x="415.26" y="-7.5" font-family="Helvetica,sans-Serif" font-size="10.00">cctype</text>
</a>
</g>
</g>
<!-- Node4&#45;&gt;Node7 -->
<g id="edge6" class="edge">
<title>Node4&#45;&gt;Node7</title>
<path fill="none" stroke="midnightblue" d="M479.05,-56.32C467.49,-48.11 449.89,-35.6 436.1,-25.81"/>
<polygon fill="midnightblue" stroke="midnightblue" points="437.88,-22.77 427.7,-19.83 433.82,-28.48 437.88,-22.77"/>
</g>
<!-- Node4&#45;&gt;Node8 -->
<g id="edge7" class="edge">
<title>Node4&#45;&gt;Node8</title>
<path fill="none" stroke="midnightblue" d="M516.93,-56.44C545.23,-47.01 590.78,-31.83 621.35,-21.64"/>
<polygon fill="midnightblue" stroke="midnightblue" points="622.72,-24.87 631.1,-18.39 620.5,-18.23 622.72,-24.87"/>
</g>
<!-- Node9 -->
<g id="node9" class="node">
<title>Node9</title>
<g id="a_node9"><a xlink:title=" ">
<polygon fill="white" stroke="#bfbfbf" points="457.76,-0.5 457.76,-19.5 530.76,-19.5 530.76,-0.5 457.76,-0.5"/>
<text text-anchor="middle" x="494.26" y="-7.5" font-family="Helvetica,sans-Serif" font-size="10.00">string_view</text>
</a>
</g>
</g>
<!-- Node4&#45;&gt;Node9 -->
<g id="edge8" class="edge">
<title>Node4&#45;&gt;Node9</title>
<path fill="none" stroke="midnightblue" d="M491.76,-56.08C492.15,-49.01 492.72,-38.86 493.21,-29.99"/>
<polygon fill="midnightblue" stroke="midnightblue" points="496.72,-29.93 493.78,-19.75 489.73,-29.54 496.72,-29.93"/>
</g>
<!-- Node10 -->
<g id="node10" class="node">
<title>Node10</title>
<g id="a_node10"><a xlink:title=" ">
<polygon fill="white" stroke="#bfbfbf" points="845.76,-0.5 845.76,-19.5 914.76,-19.5 914.76,-0.5 845.76,-0.5"/>
<text text-anchor="middle" x="880.26" y="-7.5" font-family="Helvetica,sans-Serif" font-size="10.00">type_traits</text>
</a>
</g>
</g>
<!-- Node4&#45;&gt;Node10 -->
<g id="edge9" class="edge">
<title>Node4&#45;&gt;Node10</title>
<path fill="none" stroke="midnightblue" d="M536.32,-57.34C539.35,-56.88 542.35,-56.42 545.26,-56 671.08,-37.74 705.97,-40.9 835.8,-19.95"/>
<polygon fill="midnightblue" stroke="midnightblue" points="836.42,-23.4 845.72,-18.33 835.29,-16.49 836.42,-23.4"/>
</g>
<!-- Node4&#45;&gt;Node11 -->
<g id="edge10" class="edge">
<title>Node4&#45;&gt;Node11</title>
<path fill="none" stroke="midnightblue" d="M468.76,-56.44C445.19,-47.48 407.94,-33.31 381.3,-23.18"/>
<polygon fill="midnightblue" stroke="midnightblue" points="382.25,-19.8 371.66,-19.52 379.76,-26.34 382.25,-19.8"/>
</g>
<!-- Node12&#45;&gt;Node6 -->
<g id="edge16" class="edge">
<title>Node12&#45;&gt;Node6</title>
<path fill="none" stroke="midnightblue" d="M179.15,-112.37C165.57,-99.71 144.47,-75.49 156.26,-56 168.15,-36.36 191.75,-24.88 211.22,-18.43"/>
<polygon fill="midnightblue" stroke="midnightblue" points="212.38,-21.74 220.94,-15.51 210.36,-15.04 212.38,-21.74"/>
</g>
<!-- Node12&#45;&gt;Node11 -->
<g id="edge19" class="edge">
<title>Node12&#45;&gt;Node11</title>
<path fill="none" stroke="midnightblue" d="M221.04,-117.93C250.93,-113.46 295.17,-102.55 323.26,-76 336.22,-63.76 342.86,-44.22 346.17,-29.75"/>
<polygon fill="midnightblue" stroke="midnightblue" points="349.62,-30.37 348.11,-19.89 342.75,-29.03 349.62,-30.37"/>
</g>
<!-- Node13 -->
<g id="node13" class="node">
<title>Node13</title>
<g id="a_node13"><a xlink:href="siphash_8h.html" target="_top" xlink:title=" ">
<polygon fill="white" stroke="black" points="14.76,-56.5 14.76,-75.5 109.76,-75.5 109.76,-56.5 14.76,-56.5"/>
<text text-anchor="middle" x="62.26" y="-63.5" font-family="Helvetica,sans-Serif" font-size="10.00">ccf/ds/siphash.h</text>
</a>
</g>
</g>
<!-- Node12&#45;&gt;Node13 -->
<g id="edge12" class="edge">
<title>Node12&#45;&gt;Node13</title>
<path fill="none" stroke="midnightblue" d="M169.14,-112.44C148.24,-103.56 115.33,-89.56 91.55,-79.45"/>
<polygon fill="midnightblue" stroke="midnightblue" points="92.87,-76.21 82.29,-75.52 90.13,-82.65 92.87,-76.21"/>
</g>
<!-- Node15 -->
<g id="node15" class="node">
<title>Node15</title>
<g id="a_node15"><a xlink:title=" ">
<polygon fill="white" stroke="#bfbfbf" points="2.26,-0.5 2.26,-19.5 52.26,-19.5 52.26,-0.5 2.26,-0.5"/>
<text text-anchor="middle" x="27.26" y="-7.5" font-family="Helvetica,sans-Serif" font-size="10.00">cstdint</text>
</a>
</g>
</g>
<!-- Node12&#45;&gt;Node15 -->
<g id="edge17" class="edge">
<title>Node12&#45;&gt;Node15</title>
<path fill="none" stroke="midnightblue" d="M157.44,-117.88C109.88,-112.49 23.84,-99.67 5.26,-76 -5.72,-62.01 3.59,-42.23 13.26,-28.17"/>
<polygon fill="midnightblue" stroke="midnightblue" points="16.27,-29.98 19.46,-19.88 10.67,-25.79 16.27,-29.98"/>
</g>
<!-- Node16 -->
<g id="node16" class="node">
<title>Node16</title>
<g id="a_node16"><a xlink:title=" ">
<polygon fill="white" stroke="#bfbfbf" points="165.76,-56.5 165.76,-75.5 314.76,-75.5 314.76,-56.5 165.76,-56.5"/>
<text text-anchor="middle" x="240.26" y="-63.5" font-family="Helvetica,sans-Serif" font-size="10.00">small_vector/SmallVector.h</text>
</a>
</g>
</g>
<!-- Node12&#45;&gt;Node16 -->
<g id="edge18" class="edge">
<title>Node12&#45;&gt;Node16</title>
<path fill="none" stroke="midnightblue" d="M197.69,-112.08C205.11,-104.22 216.12,-92.57 225.08,-83.08"/>
<polygon fill="midnightblue" stroke="midnightblue" points="227.68,-85.42 232,-75.75 222.59,-80.62 227.68,-85.42"/>
</g>
<!-- Node13&#45;&gt;Node11 -->
<g id="edge15" class="edge">
<title>Node13&#45;&gt;Node11</title>
<path fill="none" stroke="midnightblue" d="M107.74,-56.44C165.56,-45.56 264.04,-27.03 315.57,-17.34"/>
<polygon fill="midnightblue" stroke="midnightblue" points="316.35,-20.76 325.53,-15.47 315.05,-13.88 316.35,-20.76"/>
</g>
<!-- Node14 -->
<g id="node14" class="node">
<title>Node14</title>
<g id="a_node14"><a xlink:title=" ">
<polygon fill="white" stroke="#bfbfbf" points="70.76,-0.5 70.76,-19.5 123.76,-19.5 123.76,-0.5 70.76,-0.5"/>
<text text-anchor="middle" x="97.26" y="-7.5" font-family="Helvetica,sans-Serif" font-size="10.00">cstddef</text>
</a>
</g>
</g>
<!-- Node13&#45;&gt;Node14 -->
<g id="edge13" class="edge">
<title>Node13&#45;&gt;Node14</title>
<path fill="none" stroke="midnightblue" d="M68.04,-56.08C72.94,-48.53 80.09,-37.49 86.1,-28.23"/>
<polygon fill="midnightblue" stroke="midnightblue" points="89.09,-30.05 91.59,-19.75 83.22,-26.24 89.09,-30.05"/>
</g>
<!-- Node13&#45;&gt;Node15 -->
<g id="edge14" class="edge">
<title>Node13&#45;&gt;Node15</title>
<path fill="none" stroke="midnightblue" d="M56.48,-56.08C51.59,-48.53 44.44,-37.49 38.43,-28.23"/>
<polygon fill="midnightblue" stroke="midnightblue" points="41.31,-26.24 32.94,-19.75 35.44,-30.05 41.31,-26.24"/>
</g>
<!-- Node17&#45;&gt;Node4 -->
<g id="edge21" class="edge">
<title>Node17&#45;&gt;Node4</title>
<path fill="none" stroke="midnightblue" d="M625.91,-112.44C598.99,-103.36 556.27,-88.94 526.18,-78.78"/>
<polygon fill="midnightblue" stroke="midnightblue" points="527.09,-75.4 516.5,-75.52 524.85,-82.03 527.09,-75.4"/>
</g>
<!-- Node17&#45;&gt;Node10 -->
<g id="edge30" class="edge">
<title>Node17&#45;&gt;Node10</title>
<path fill="none" stroke="midnightblue" d="M678.77,-112.4C703.7,-104.22 741.17,-90.98 772.26,-76 803.69,-60.86 837.86,-39.37 859.16,-25.31"/>
<polygon fill="midnightblue" stroke="midnightblue" points="861.35,-28.06 867.73,-19.6 857.47,-22.24 861.35,-28.06"/>
</g>
<!-- Node17&#45;&gt;Node11 -->
<g id="edge31" class="edge">
<title>Node17&#45;&gt;Node11</title>
<path fill="none" stroke="midnightblue" d="M615.86,-115.44C563.65,-106.92 468.79,-90.14 437.26,-76 409.82,-63.69 382.65,-41.73 365.92,-26.77"/>
<polygon fill="midnightblue" stroke="midnightblue" points="367.91,-23.85 358.17,-19.68 363.18,-29.01 367.91,-23.85"/>
</g>
<!-- Node18 -->
<g id="node18" class="node">
<title>Node18</title>
<g id="a_node18"><a xlink:href="serialized_8h.html" target="_top" xlink:title=" ">
<polygon fill="white" stroke="black" points="689.76,-56.5 689.76,-75.5 762.76,-75.5 762.76,-56.5 689.76,-56.5"/>
<text text-anchor="middle" x="726.26" y="-63.5" font-family="Helvetica,sans-Serif" font-size="10.00">serialized.h</text>
</a>
</g>
</g>
<!-- Node17&#45;&gt;Node18 -->
<g id="edge22" class="edge">
<title>Node17&#45;&gt;Node18</title>
<path fill="none" stroke="midnightblue" d="M663.31,-112.32C674.73,-104.11 692.09,-91.6 705.7,-81.81"/>
<polygon fill="midnightblue" stroke="midnightblue" points="707.92,-84.52 713.99,-75.83 703.83,-78.84 707.92,-84.52"/>
</g>
<!-- Node21 -->
<g id="node21" class="node">
<title>Node21</title>
<g id="a_node21"><a xlink:title=" ">
<polygon fill="white" stroke="#bfbfbf" points="554.26,-56.5 554.26,-75.5 612.26,-75.5 612.26,-56.5 554.26,-56.5"/>
<text text-anchor="middle" x="583.26" y="-63.5" font-family="Helvetica,sans-Serif" font-size="10.00">memory</text>
</a>
</g>
</g>
<!-- Node17&#45;&gt;Node21 -->
<g id="edge28" class="edge">
<title>Node17&#45;&gt;Node21</title>
<path fill="none" stroke="midnightblue" d="M640.34,-112.32C630.09,-104.18 614.54,-91.84 602.26,-82.09"/>
<polygon fill="midnightblue" stroke="midnightblue" points="604.4,-79.31 594.39,-75.83 600.04,-84.79 604.4,-79.31"/>
</g>
<!-- Node22 -->
<g id="node22" class="node">
<title>Node22</title>
<g id="a_node22"><a xlink:title=" ">
<polygon fill="white" stroke="#bfbfbf" points="630.76,-56.5 630.76,-75.5 671.76,-75.5 671.76,-56.5 630.76,-56.5"/>
<text text-anchor="middle" x="651.26" y="-63.5" font-family="Helvetica,sans-Serif" font-size="10.00">tuple</text>
</a>
</g>
</g>
<!-- Node17&#45;&gt;Node22 -->
<g id="edge29" class="edge">
<title>Node17&#45;&gt;Node22</title>
<path fill="none" stroke="midnightblue" d="M651.26,-112.08C651.26,-105.01 651.26,-94.86 651.26,-85.99"/>
<polygon fill="midnightblue" stroke="midnightblue" points="654.76,-85.75 651.26,-75.75 647.76,-85.75 654.76,-85.75"/>
</g>
<!-- Node18&#45;&gt;Node8 -->
<g id="edge26" class="edge">
<title>Node18&#45;&gt;Node8</title>
<path fill="none" stroke="midnightblue" d="M714.54,-56.32C703.43,-48.11 686.52,-35.6 673.28,-25.81"/>
<polygon fill="midnightblue" stroke="midnightblue" points="675.33,-22.97 665.21,-19.83 671.16,-28.59 675.33,-22.97"/>
</g>
<!-- Node18&#45;&gt;Node11 -->
<g id="edge27" class="edge">
<title>Node18&#45;&gt;Node11</title>
<path fill="none" stroke="midnightblue" d="M689.47,-57.4C686.7,-56.9 683.94,-56.43 681.26,-56 551.89,-35.33 514.76,-45.72 383,-20.09"/>
<polygon fill="midnightblue" stroke="midnightblue" points="383.42,-16.6 372.93,-18.1 382.06,-23.47 383.42,-16.6"/>
</g>
<!-- Node18&#45;&gt;Node15 -->
<g id="edge23" class="edge">
<title>Node18&#45;&gt;Node15</title>
<path fill="none" stroke="midnightblue" d="M689.5,-57.21C686.72,-56.76 683.95,-56.34 681.26,-56 410.83,-21.28 335.66,-62.5 62.61,-19.87"/>
<polygon fill="midnightblue" stroke="midnightblue" points="62.82,-16.36 52.39,-18.25 61.72,-23.28 62.82,-16.36"/>
</g>
<!-- Node19 -->
<g id="node19" class="node">
<title>Node19</title>
<g id="a_node19"><a xlink:title=" ">
<polygon fill="white" stroke="#bfbfbf" points="777.26,-0.5 777.26,-19.5 827.26,-19.5 827.26,-0.5 777.26,-0.5"/>
<text text-anchor="middle" x="802.26" y="-7.5" font-family="Helvetica,sans-Serif" font-size="10.00">cstring</text>
</a>
</g>
</g>
<!-- Node18&#45;&gt;Node19 -->
<g id="edge24" class="edge">
<title>Node18&#45;&gt;Node19</title>
<path fill="none" stroke="midnightblue" d="M738.47,-56.32C750.04,-48.11 767.64,-35.6 781.42,-25.81"/>
<polygon fill="midnightblue" stroke="midnightblue" points="783.71,-28.48 789.83,-19.83 779.65,-22.77 783.71,-28.48"/>
</g>
<!-- Node20 -->
<g id="node20" class="node">
<title>Node20</title>
<g id="a_node20"><a xlink:title=" ">
<polygon fill="white" stroke="#bfbfbf" points="693.76,-0.5 693.76,-19.5 758.76,-19.5 758.76,-0.5 693.76,-0.5"/>
<text text-anchor="middle" x="726.26" y="-7.5" font-family="Helvetica,sans-Serif" font-size="10.00">stdexcept</text>
</a>
</g>
</g>
<!-- Node18&#45;&gt;Node20 -->
<g id="edge25" class="edge">
<title>Node18&#45;&gt;Node20</title>
<path fill="none" stroke="midnightblue" d="M726.26,-56.08C726.26,-49.01 726.26,-38.86 726.26,-29.99"/>
<polygon fill="midnightblue" stroke="midnightblue" points="729.76,-29.75 726.26,-19.75 722.76,-29.75 729.76,-29.75"/>
</g>
<!-- Node26&#45;&gt;Node25 -->
<g id="edge62" class="edge">
<title>Node26&#45;&gt;Node25</title>
<path fill="none" stroke="midnightblue" d="M1009.37,-224.08C994.92,-197.72 952.25,-119.88 932.95,-84.66"/>
<polygon fill="midnightblue" stroke="midnightblue" points="935.84,-82.65 927.96,-75.57 929.7,-86.02 935.84,-82.65"/>
</g>
<!-- Node27 -->
<g id="node27" class="node">
<title>Node27</title>
<g id="a_node27"><a xlink:href="before__io_8h.html" target="_top" xlink:title=" ">
<polygon fill="white" stroke="black" points="1010.76,-168.5 1010.76,-187.5 1081.76,-187.5 1081.76,-168.5 1010.76,-168.5"/>
<text text-anchor="middle" x="1046.26" y="-175.5" font-family="Helvetica,sans-Serif" font-size="10.00">before_io.h</text>
</a>
</g>
</g>
<!-- Node26&#45;&gt;Node27 -->
<g id="edge38" class="edge">
<title>Node26&#45;&gt;Node27</title>
<path fill="none" stroke="midnightblue" d="M1019.55,-224.08C1023.97,-216.61 1030.43,-205.72 1035.88,-196.52"/>
<polygon fill="midnightblue" stroke="midnightblue" points="1038.99,-198.14 1041.08,-187.75 1032.97,-194.57 1038.99,-198.14"/>
</g>
<!-- Node28 -->
<g id="node28" class="node">
<title>Node28</title>
<g id="a_node28"><a xlink:href="proxy_8h.html" target="_top" xlink:title=" ">
<polygon fill="white" stroke="black" points="971.26,-112.5 971.26,-131.5 1023.26,-131.5 1023.26,-112.5 971.26,-112.5"/>
<text text-anchor="middle" x="997.26" y="-119.5" font-family="Helvetica,sans-Serif" font-size="10.00">proxy.h</text>
</a>
</g>
</g>
<!-- Node26&#45;&gt;Node28 -->
<g id="edge61" class="edge">
<title>Node26&#45;&gt;Node28</title>
<path fill="none" stroke="midnightblue" d="M1011.49,-224.48C1008.68,-215.5 1004.46,-200.91 1002.26,-188 999.65,-172.64 998.4,-155 997.8,-141.98"/>
<polygon fill="midnightblue" stroke="midnightblue" points="1001.3,-141.76 997.43,-131.89 994.3,-142.02 1001.3,-141.76"/>
</g>
<!-- Node30 -->
<g id="node30" class="node">
<title>Node30</title>
<g id="a_node30"><a xlink:href="logger_8h.html" target="_top" xlink:title=" ">
<polygon fill="white" stroke="black" points="1183.76,-112.5 1183.76,-131.5 1270.76,-131.5 1270.76,-112.5 1183.76,-112.5"/>
<text text-anchor="middle" x="1227.26" y="-119.5" font-family="Helvetica,sans-Serif" font-size="10.00">ccf/ds/logger.h</text>
</a>
</g>
</g>
<!-- Node26&#45;&gt;Node30 -->
<g id="edge41" class="edge">
<title>Node26&#45;&gt;Node30</title>
<path fill="none" stroke="midnightblue" d="M1034.97,-226.74C1070.87,-215.83 1141.84,-193.89 1152.26,-188 1175.55,-174.83 1198.17,-153.73 1212.38,-139.16"/>
<polygon fill="midnightblue" stroke="midnightblue" points="1214.99,-141.49 1219.35,-131.83 1209.92,-136.66 1214.99,-141.49"/>
</g>
<!-- Node41 -->
<g id="node41" class="node">
<title>Node41</title>
<g id="a_node41"><a xlink:href="dns_8h.html" target="_top" xlink:title=" ">
<polygon fill="white" stroke="black" points="1099.76,-168.5 1099.76,-187.5 1142.76,-187.5 1142.76,-168.5 1099.76,-168.5"/>
<text text-anchor="middle" x="1121.26" y="-175.5" font-family="Helvetica,sans-Serif" font-size="10.00">dns.h</text>
</a>
</g>
</g>
<!-- Node26&#45;&gt;Node41 -->
<g id="edge57" class="edge">
<title>Node26&#45;&gt;Node41</title>
<path fill="none" stroke="midnightblue" d="M1031.46,-224.32C1048.61,-215.66 1075.21,-202.24 1095.01,-192.25"/>
<polygon fill="midnightblue" stroke="midnightblue" points="1096.76,-195.28 1104.11,-187.65 1093.61,-189.04 1096.76,-195.28"/>
</g>
<!-- Node27&#45;&gt;Node28 -->
<g id="edge39" class="edge">
<title>Node27&#45;&gt;Node28</title>
<path fill="none" stroke="midnightblue" d="M1038.17,-168.08C1031.11,-160.3 1020.68,-148.8 1012.11,-139.37"/>
<polygon fill="midnightblue" stroke="midnightblue" points="1014.52,-136.8 1005.2,-131.75 1009.33,-141.51 1014.52,-136.8"/>
</g>
<!-- Node29 -->
<g id="node29" class="node">
<title>Node29</title>
<g id="a_node29"><a xlink:title=" ">
<polygon fill="white" stroke="#bfbfbf" points="969.76,-56.5 969.76,-75.5 1006.76,-75.5 1006.76,-56.5 969.76,-56.5"/>
<text text-anchor="middle" x="988.26" y="-63.5" font-family="Helvetica,sans-Serif" font-size="10.00">uv.h</text>
</a>
</g>
</g>
<!-- Node28&#45;&gt;Node29 -->
<g id="edge40" class="edge">
<title>Node28&#45;&gt;Node29</title>
<path fill="none" stroke="midnightblue" d="M995.78,-112.08C994.58,-104.93 992.87,-94.64 991.38,-85.69"/>
<polygon fill="midnightblue" stroke="midnightblue" points="994.82,-85.04 989.72,-75.75 987.91,-86.19 994.82,-85.04"/>
</g>
<!-- Node30&#45;&gt;Node10 -->
<g id="edge56" class="edge">
<title>Node30&#45;&gt;Node10</title>
<path fill="none" stroke="midnightblue" d="M1198.56,-112.46C1168.7,-103.54 1120.63,-89.04 1079.26,-76 1021.75,-57.86 955.18,-35.93 915.47,-22.74"/>
<polygon fill="midnightblue" stroke="midnightblue" points="916.56,-19.42 905.97,-19.58 914.35,-26.06 916.56,-19.42"/>
</g>
<!-- Node30&#45;&gt;Node24 -->
<g id="edge51" class="edge">
<title>Node30&#45;&gt;Node24</title>
<path fill="none" stroke="midnightblue" d="M1186.02,-112.44C1150.84,-104.25 1104.12,-90.95 1092.26,-76 1082.04,-63.11 1081.48,-43.93 1082.92,-29.75"/>
<polygon fill="midnightblue" stroke="midnightblue" points="1086.41,-30.05 1084.35,-19.66 1079.48,-29.07 1086.41,-30.05"/>
</g>
<!-- Node30&#45;&gt;Node25 -->
<g id="edge54" class="edge">
<title>Node30&#45;&gt;Node25</title>
<path fill="none" stroke="midnightblue" d="M1183.59,-113.58C1180.43,-113.05 1177.3,-112.51 1174.26,-112 1079.6,-95.96 1055.36,-95.07 961.26,-76 961.16,-75.98 961.06,-75.96 960.96,-75.94"/>
<polygon fill="midnightblue" stroke="midnightblue" points="961.95,-72.57 951.44,-73.89 960.48,-79.42 961.95,-72.57"/>
</g>
<!-- Node31 -->
<g id="node31" class="node">
<title>Node31</title>
<g id="a_node31"><a xlink:href="enum__formatter_8h.html" target="_top" xlink:title=" ">
<polygon fill="white" stroke="black" points="1101.26,-56.5 1101.26,-75.5 1237.26,-75.5 1237.26,-56.5 1101.26,-56.5"/>
<text text-anchor="middle" x="1169.26" y="-63.5" font-family="Helvetica,sans-Serif" font-size="10.00">ccf/ds/enum_formatter.h</text>
</a>
</g>
</g>
<!-- Node30&#45;&gt;Node31 -->
<g id="edge42" class="edge">
<title>Node30&#45;&gt;Node31</title>
<path fill="none" stroke="midnightblue" d="M1217.95,-112.32C1209.37,-104.34 1196.45,-92.31 1186.08,-82.65"/>
<polygon fill="midnightblue" stroke="midnightblue" points="1188.46,-80.09 1178.75,-75.83 1183.69,-85.21 1188.46,-80.09"/>
</g>
<!-- Node32 -->
<g id="node32" class="node">
<title>Node32</title>
<g id="a_node32"><a xlink:href="thread__ids_8h.html" target="_top" xlink:title=" ">
<polygon fill="white" stroke="black" points="1255.26,-56.5 1255.26,-75.5 1363.26,-75.5 1363.26,-56.5 1255.26,-56.5"/>
<text text-anchor="middle" x="1309.26" y="-63.5" font-family="Helvetica,sans-Serif" font-size="10.00">ccf/ds/thread_ids.h</text>
</a>
</g>
</g>
<!-- Node30&#45;&gt;Node32 -->
<g id="edge44" class="edge">
<title>Node30&#45;&gt;Node32</title>
<path fill="none" stroke="midnightblue" d="M1240.44,-112.32C1253.11,-103.98 1272.5,-91.21 1287.47,-81.35"/>
<polygon fill="midnightblue" stroke="midnightblue" points="1289.69,-84.08 1296.12,-75.65 1285.84,-78.23 1289.69,-84.08"/>
</g>
<!-- Node37 -->
<g id="node37" class="node">
<title>Node37</title>
<g id="a_node37"><a xlink:title=" ">
<polygon fill="white" stroke="#bfbfbf" points="1381.76,-56.5 1381.76,-75.5 1460.76,-75.5 1460.76,-56.5 1381.76,-56.5"/>
<text text-anchor="middle" x="1421.26" y="-63.5" font-family="Helvetica,sans-Serif" font-size="10.00">fmt/chrono.h</text>
</a>
</g>
</g>
<!-- Node30&#45;&gt;Node37 -->
<g id="edge50" class="edge">
<title>Node30&#45;&gt;Node37</title>
<path fill="none" stroke="midnightblue" d="M1258,-112.44C1291.21,-103.2 1344.25,-88.44 1380.82,-78.26"/>
<polygon fill="midnightblue" stroke="midnightblue" points="1381.97,-81.57 1390.67,-75.52 1380.1,-74.83 1381.97,-81.57"/>
</g>
<!-- Node38 -->
<g id="node38" class="node">
<title>Node38</title>
<g id="a_node38"><a xlink:title=" ">
<polygon fill="white" stroke="#bfbfbf" points="1478.26,-56.5 1478.26,-75.5 1538.26,-75.5 1538.26,-56.5 1478.26,-56.5"/>
<text text-anchor="middle" x="1508.26" y="-63.5" font-family="Helvetica,sans-Serif" font-size="10.00">iostream</text>
</a>
</g>
</g>
<!-- Node30&#45;&gt;Node38 -->
<g id="edge52" class="edge">
<title>Node30&#45;&gt;Node38</title>
<path fill="none" stroke="midnightblue" d="M1270.85,-113.6C1317.49,-105.53 1393.87,-91.89 1468.04,-76.4"/>
<polygon fill="midnightblue" stroke="midnightblue" points="1468.94,-79.79 1478.01,-74.31 1467.5,-72.94 1468.94,-79.79"/>
</g>
<!-- Node39 -->
<g id="node39" class="node">
<title>Node39</title>
<g id="a_node39"><a xlink:title=" ">
<polygon fill="white" stroke="#bfbfbf" points="1556.26,-56.5 1556.26,-75.5 1666.26,-75.5 1666.26,-56.5 1556.26,-56.5"/>
<text text-anchor="middle" x="1611.26" y="-63.5" font-family="Helvetica,sans-Serif" font-size="10.00">nlohmann/json.hpp</text>
</a>
</g>
</g>
<!-- Node30&#45;&gt;Node39 -->
<g id="edge53" class="edge">
<title>Node30&#45;&gt;Node39</title>
<path fill="none" stroke="midnightblue" d="M1270.94,-114.86C1338.2,-105.4 1467.53,-87.21 1545.95,-76.18"/>
<polygon fill="midnightblue" stroke="midnightblue" points="1546.78,-79.6 1556.2,-74.74 1545.81,-72.67 1546.78,-79.6"/>
</g>
<!-- Node40 -->
<g id="node40" class="node">
<title>Node40</title>
<g id="a_node40"><a xlink:title=" ">
<polygon fill="white" stroke="#bfbfbf" points="1684.26,-56.5 1684.26,-75.5 1740.26,-75.5 1740.26,-56.5 1684.26,-56.5"/>
<text text-anchor="middle" x="1712.26" y="-63.5" font-family="Helvetica,sans-Serif" font-size="10.00">sstream</text>
</a>
</g>
</g>
<!-- Node30&#45;&gt;Node40 -->
<g id="edge55" class="edge">
<title>Node30&#45;&gt;Node40</title>
<path fill="none" stroke="midnightblue" d="M1270.78,-118.64C1349.42,-113.93 1520.54,-101.71 1673.99,-76"/>
<polygon fill="midnightblue" stroke="midnightblue" points="1674.79,-79.41 1684.07,-74.29 1673.62,-72.51 1674.79,-79.41"/>
</g>
<!-- Node31&#45;&gt;Node24 -->
<g id="edge43" class="edge">
<title>Node31&#45;&gt;Node24</title>
<path fill="none" stroke="midnightblue" d="M1155.93,-56.32C1143.1,-47.98 1123.48,-35.21 1108.32,-25.35"/>
<polygon fill="midnightblue" stroke="midnightblue" points="1109.86,-22.17 1099.57,-19.65 1106.04,-28.04 1109.86,-22.17"/>
</g>
<!-- Node32&#45;&gt;Node24 -->
<g id="edge45" class="edge">
<title>Node32&#45;&gt;Node24</title>
<path fill="none" stroke="midnightblue" d="M1273.93,-56.44C1235.35,-47.1 1173.48,-32.12 1131.41,-21.93"/>
<polygon fill="midnightblue" stroke="midnightblue" points="1131.98,-18.47 1121.43,-19.52 1130.33,-25.27 1131.98,-18.47"/>
</g>
<!-- Node33 -->
<g id="node33" class="node">
<title>Node33</title>
<g id="a_node33"><a xlink:title=" ">
<polygon fill="white" stroke="#bfbfbf" points="1170.26,-0.5 1170.26,-19.5 1256.26,-19.5 1256.26,-0.5 1170.26,-0.5"/>
<text text-anchor="middle" x="1213.26" y="-7.5" font-family="Helvetica,sans-Serif" font-size="10.00">fmt/ostream.h</text>
</a>
</g>
</g>
<!-- Node32&#45;&gt;Node33 -->
<g id="edge46" class="edge">
<title>Node32&#45;&gt;Node33</title>
<path fill="none" stroke="midnightblue" d="M1293.84,-56.32C1278.72,-47.82 1255.45,-34.73 1237.79,-24.8"/>
<polygon fill="midnightblue" stroke="midnightblue" points="1239.08,-21.51 1228.65,-19.65 1235.65,-27.61 1239.08,-21.51"/>
</g>
<!-- Node34 -->
<g id="node34" class="node">
<title>Node34</title>
<g id="a_node34"><a xlink:title=" ">
<polygon fill="white" stroke="#bfbfbf" points="1274.26,-0.5 1274.26,-19.5 1318.26,-19.5 1318.26,-0.5 1274.26,-0.5"/>
<text text-anchor="middle" x="1296.26" y="-7.5" font-family="Helvetica,sans-Serif" font-size="10.00">limits</text>
</a>
</g>
</g>
<!-- Node32&#45;&gt;Node34 -->
<g id="edge47" class="edge">
<title>Node32&#45;&gt;Node34</title>
<path fill="none" stroke="midnightblue" d="M1307.12,-56.08C1305.39,-48.93 1302.92,-38.64 1300.76,-29.69"/>
<polygon fill="midnightblue" stroke="midnightblue" points="1304.11,-28.65 1298.37,-19.75 1297.31,-30.29 1304.11,-28.65"/>
</g>
<!-- Node35 -->
<g id="node35" class="node">
<title>Node35</title>
<g id="a_node35"><a xlink:title=" ">
<polygon fill="white" stroke="#bfbfbf" points="1336.26,-0.5 1336.26,-19.5 1374.26,-19.5 1374.26,-0.5 1336.26,-0.5"/>
<text text-anchor="middle" x="1355.26" y="-7.5" font-family="Helvetica,sans-Serif" font-size="10.00">map</text>
</a>
</g>
</g>
<!-- Node32&#45;&gt;Node35 -->
<g id="edge48" class="edge">
<title>Node32&#45;&gt;Node35</title>
<path fill="none" stroke="midnightblue" d="M1316.86,-56.08C1323.49,-48.3 1333.28,-36.8 1341.32,-27.37"/>
<polygon fill="midnightblue" stroke="midnightblue" points="1343.99,-29.63 1347.81,-19.75 1338.66,-25.09 1343.99,-29.63"/>
</g>
<!-- Node36 -->
<g id="node36" class="node">
<title>Node36</title>
<g id="a_node36"><a xlink:title=" ">
<polygon fill="white" stroke="#bfbfbf" points="1392.26,-0.5 1392.26,-19.5 1440.26,-19.5 1440.26,-0.5 1392.26,-0.5"/>
<text text-anchor="middle" x="1416.26" y="-7.5" font-family="Helvetica,sans-Serif" font-size="10.00">thread</text>
</a>
</g>
</g>
<!-- Node32&#45;&gt;Node36 -->
<g id="edge49" class="edge">
<title>Node32&#45;&gt;Node36</title>
<path fill="none" stroke="midnightblue" d="M1326.46,-56.32C1343.61,-47.66 1370.21,-34.24 1390.01,-24.25"/>
<polygon fill="midnightblue" stroke="midnightblue" points="1391.76,-27.28 1399.11,-19.65 1388.61,-21.04 1391.76,-27.28"/>
</g>
<!-- Node41&#45;&gt;Node29 -->
<g id="edge60" class="edge">
<title>Node41&#45;&gt;Node29</title>
<path fill="none" stroke="midnightblue" d="M1110.83,-168.37C1088.3,-149.73 1034.85,-105.53 1006.56,-82.13"/>
<polygon fill="midnightblue" stroke="midnightblue" points="1008.59,-79.27 998.65,-75.59 1004.13,-84.66 1008.59,-79.27"/>
</g>
<!-- Node41&#45;&gt;Node30 -->
<g id="edge58" class="edge">
<title>Node41&#45;&gt;Node30</title>
<path fill="none" stroke="midnightblue" d="M1138.29,-168.32C1155.29,-159.66 1181.64,-146.24 1201.26,-136.25"/>
<polygon fill="midnightblue" stroke="midnightblue" points="1202.95,-139.31 1210.28,-131.65 1199.78,-133.08 1202.95,-139.31"/>
</g>
<!-- Node42 -->
<g id="node42" class="node">
<title>Node42</title>
<g id="a_node42"><a xlink:title=" ">
<polygon fill="white" stroke="#bfbfbf" points="1079.26,-112.5 1079.26,-131.5 1165.26,-131.5 1165.26,-112.5 1079.26,-112.5"/>
<text text-anchor="middle" x="1122.26" y="-119.5" font-family="Helvetica,sans-Serif" font-size="10.00">unordered_set</text>
</a>
</g>
</g>
<!-- Node41&#45;&gt;Node42 -->
<g id="edge59" class="edge">
<title>Node41&#45;&gt;Node42</title>
<path fill="none" stroke="midnightblue" d="M1121.43,-168.08C1121.56,-161.01 1121.75,-150.86 1121.91,-141.99"/>
<polygon fill="midnightblue" stroke="midnightblue" points="1125.42,-141.81 1122.1,-131.75 1118.42,-141.68 1125.42,-141.81"/>
</g>
</g>
</svg>
        <g id="navigator" transform="translate(0 0)" fill="#404254">
                <rect fill="#f2f5e9" fill-opacity="0.5" stroke="#606060" stroke-width=".5" x="0" y="0" width="60" height="60"/>
                <use id="zoomplus" xlink:href="#zoomPlus" x="17" y="9" onmousedown="handleZoom(evt,'in')"/>
                <use id="zoomminus" xlink:href="#zoomMin" x="42" y="9" onmousedown="handleZoom(evt,'out')"/>
                <use id="reset" xlink:href="#resetDef" x="30" y="36" onmousedown="handleReset()"/>
                <g id="arrowUp" xlink:href="#dirArrow" transform="translate(30 24)" onmousedown="handlePan(0,-1)">
                  <use xlink:href="#rim" fill="#404040">
                        <set attributeName="fill" to="#808080" begin="arrowUp.mouseover" end="arrowUp.mouseout"/>
                  </use>
                  <path fill="none" stroke="white" stroke-width="1.5" d="M0,-3.0v7 M-2.5,-0.5L0,-3.0L2.5,-0.5"/>
                </g>
                <g id="arrowRight" xlink:href="#dirArrow" transform="rotate(90) translate(36 -43)" onmousedown="handlePan(1,0)">
                  <use xlink:href="#rim" fill="#404040">
                        <set attributeName="fill" to="#808080" begin="arrowRight.mouseover" end="arrowRight.mouseout"/>
                  </use>
                  <path fill="none" stroke="white" stroke-width="1.5" d="M0,-3.0v7 M-2.5,-0.5L0,-3.0L2.5,-0.5"/>
                </g>
                <g id="arrowDown" xlink:href="#dirArrow" transform="rotate(180) translate(-30 -48)" onmousedown="handlePan(0,1)">
                  <use xlink:href="#rim" fill="#404040">
                        <set attributeName="fill" to="#808080" begin="arrowDown.mouseover" end="arrowDown.mouseout"/>
                  </use>
                  <path fill="none" stroke="white" stroke-width="1.5" d="M0,-3.0v7 M-2.5,-0.5L0,-3.0L2.5,-0.5"/>
                </g>
                <g id="arrowLeft" xlink:href="#dirArrow" transform="rotate(270) translate(-36 17)" onmousedown="handlePan(-1,0)">
                  <use xlink:href="#rim" fill="#404040">
                        <set attributeName="fill" to="#808080" begin="arrowLeft.mouseover" end="arrowLeft.mouseout"/>
                  </use>
                  <path fill="none" stroke="white" stroke-width="1.5" d="M0,-3.0v7 M-2.5,-0.5L0,-3.0L2.5,-0.5"/>
                </g>
        </g>
        <svg viewBox="0 0 15 15" width="100%" height="30px" preserveAspectRatio="xMaxYMin meet">
         <g id="arrow_out" transform="scale(0.3 0.3)">
          <a xlink:href="rpc__connections_8h__incl_org.svg" target="_base">
           <rect id="button" ry="5" rx="5" y="6" x="6" height="38" width="38"
                fill="#f2f5e9" fill-opacity="0.5" stroke="#606060" stroke-width="1.0"/>
           <path id="arrow"
             d="M 11.500037,31.436501 C 11.940474,20.09759 22.043105,11.32322 32.158766,21.979434 L 37.068811,17.246167 C 37.068811,17.246167 37.088388,32 37.088388,32 L 22.160133,31.978069 C 22.160133,31.978069 26.997745,27.140456 26.997745,27.140456 C 18.528582,18.264221 13.291696,25.230495 11.500037,31.436501 z"
             style="fill:#404040;"/>
          </a>
         </g>
        </svg>
</svg>
