<?xml version="1.0" encoding="UTF-8" standalone="no"?>
<!DOCTYPE svg PUBLIC "-//W3C//DTD SVG 1.1//EN"
 "http://www.w3.org/Graphics/SVG/1.1/DTD/svg11.dtd">
<!-- Generated by graphviz version 2.43.0 (0)
 -->
<!-- Title: src/enclave/rpc_map.h Pages: 1 -->
<!--zoomable 420 -->
<svg id="main" version="1.1" xmlns="http://www.w3.org/2000/svg" xmlns:xlink="http://www.w3.org/1999/xlink" xml:space="preserve" onload="init(evt)">
<style type="text/css"><![CDATA[
.edge:hover path { stroke: red; }
.edge:hover polygon { stroke: red; fill: red; }
]]></style>
<script type="text/javascript"><![CDATA[
var edges = document.getElementsByTagName('g');
if (edges && edges.length) {
  for (var i=0;i<edges.length;i++) {
    if (edges[i].id.substr(0,4)=='edge') {
      edges[i].setAttribute('class','edge');
    }
  }
}
]]></script>
        <defs>
                <circle id="rim" cx="0" cy="0" r="7"/>
                <circle id="rim2" cx="0" cy="0" r="3.5"/>
                <g id="zoomPlus">
                        <use xlink:href="#rim" fill="#404040">
                                <set attributeName="fill" to="#808080" begin="zoomplus.mouseover" end="zoomplus.mouseout"/>
                        </use>
                        <path d="M-4,0h8M0,-4v8" fill="none" stroke="white" stroke-width="1.5" pointer-events="none"/>
                </g>
                <g id="zoomMin">
                        <use xlink:href="#rim" fill="#404040">
                                <set attributeName="fill" to="#808080" begin="zoomminus.mouseover" end="zoomminus.mouseout"/>
                        </use>
                        <path d="M-4,0h8" fill="none" stroke="white" stroke-width="1.5" pointer-events="none"/>
                </g>
                <g id="dirArrow">
                        <path fill="none" stroke="white" stroke-width="1.5" d="M0,-3.0v7 M-2.5,-0.5L0,-3.0L2.5,-0.5"/>
                </g>
               <g id="resetDef">
                       <use xlink:href="#rim2" fill="#404040">
                               <set attributeName="fill" to="#808080" begin="reset.mouseover" end="reset.mouseout"/>
                       </use>
               </g>
        </defs>

<script type="text/javascript">
var viewWidth = 1643;
var viewHeight = 420;
var sectionId = 'dynsection-0';
</script>
<script xlink:href="svgpan.js"/>
<svg id="graph" class="graph">
<g id="viewport">
<title>src/enclave/rpc_map.h</title>
<polygon fill="white" stroke="transparent" points="-4,4 -4,-416 1638.93,-416 1638.93,4 -4,4"/>
<!-- Node1 -->
<g id="node1" class="node">
<title>Node1</title>
<g id="a_node1"><a xlink:title=" ">
<polygon fill="#bfbfbf" stroke="black" points="619.19,-392.5 619.19,-411.5 745.19,-411.5 745.19,-392.5 619.19,-392.5"/>
<text text-anchor="middle" x="682.19" y="-399.5" font-family="Helvetica,sans-Serif" font-size="10.00">src/enclave/rpc_map.h</text>
</a>
</g>
</g>
<!-- Node2 -->
<g id="node2" class="node">
<title>Node2</title>
<g id="a_node2"><a xlink:href="actors_8h.html" target="_top" xlink:title=" ">
<polygon fill="white" stroke="black" points="597.69,-336.5 597.69,-355.5 670.69,-355.5 670.69,-336.5 597.69,-336.5"/>
<text text-anchor="middle" x="634.19" y="-343.5" font-family="Helvetica,sans-Serif" font-size="10.00">ccf/actors.h</text>
</a>
</g>
</g>
<!-- Node1&#45;&gt;Node2 -->
<g id="edge1" class="edge">
<title>Node1&#45;&gt;Node2</title>
<path fill="none" stroke="midnightblue" d="M674.26,-392.08C667.34,-384.3 657.12,-372.8 648.73,-363.37"/>
<polygon fill="midnightblue" stroke="midnightblue" points="651.22,-360.9 641.96,-355.75 645.99,-365.55 651.22,-360.9"/>
</g>
<!-- Node4 -->
<g id="node4" class="node">
<title>Node4</title>
<g id="a_node4"><a xlink:href="rpc__handler_8h.html" target="_top" xlink:title=" ">
<polygon fill="white" stroke="black" points="1372.19,-336.5 1372.19,-355.5 1454.19,-355.5 1454.19,-336.5 1372.19,-336.5"/>
<text text-anchor="middle" x="1413.19" y="-343.5" font-family="Helvetica,sans-Serif" font-size="10.00">rpc_handler.h</text>
</a>
</g>
</g>
<!-- Node1&#45;&gt;Node4 -->
<g id="edge3" class="edge">
<title>Node1&#45;&gt;Node4</title>
<path fill="none" stroke="midnightblue" d="M745.46,-396.33C887.97,-385.8 1231.76,-360.4 1362.01,-350.78"/>
<polygon fill="midnightblue" stroke="midnightblue" points="1362.4,-354.26 1372.11,-350.03 1361.88,-347.28 1362.4,-354.26"/>
</g>
<!-- Node3 -->
<g id="node3" class="node">
<title>Node3</title>
<g id="a_node3"><a xlink:title=" ">
<polygon fill="white" stroke="#bfbfbf" points="17.19,-168.5 17.19,-187.5 67.19,-187.5 67.19,-168.5 17.19,-168.5"/>
<text text-anchor="middle" x="42.19" y="-175.5" font-family="Helvetica,sans-Serif" font-size="10.00">cstdint</text>
</a>
</g>
</g>
<!-- Node2&#45;&gt;Node3 -->
<g id="edge2" class="edge">
<title>Node2&#45;&gt;Node3</title>
<path fill="none" stroke="midnightblue" d="M597.56,-342.23C488.14,-333.36 166.04,-302.74 81.19,-244 64.99,-232.79 54.4,-212.47 48.4,-197.52"/>
<polygon fill="midnightblue" stroke="midnightblue" points="51.56,-195.98 44.82,-187.8 44.99,-198.39 51.56,-195.98"/>
</g>
<!-- Node5 -->
<g id="node5" class="node">
<title>Node5</title>
<g id="a_node5"><a xlink:href="tx_8h.html" target="_top" xlink:title=" ">
<polygon fill="white" stroke="black" points="543.69,-280.5 543.69,-299.5 596.69,-299.5 596.69,-280.5 543.69,-280.5"/>
<text text-anchor="middle" x="570.19" y="-287.5" font-family="Helvetica,sans-Serif" font-size="10.00">ccf/tx.h</text>
</a>
</g>
</g>
<!-- Node4&#45;&gt;Node5 -->
<g id="edge4" class="edge">
<title>Node4&#45;&gt;Node5</title>
<path fill="none" stroke="midnightblue" d="M1371.95,-342.36C1227.3,-333.09 744.23,-302.15 606.89,-293.35"/>
<polygon fill="midnightblue" stroke="midnightblue" points="607.08,-289.86 596.87,-292.71 606.63,-296.84 607.08,-289.86"/>
</g>
<!-- Node12 -->
<g id="node12" class="node">
<title>Node12</title>
<g id="a_node12"><a xlink:title=" ">
<polygon fill="white" stroke="#bfbfbf" points="1362.19,-56.5 1362.19,-75.5 1406.19,-75.5 1406.19,-56.5 1362.19,-56.5"/>
<text text-anchor="middle" x="1384.19" y="-63.5" font-family="Helvetica,sans-Serif" font-size="10.00">limits</text>
</a>
</g>
</g>
<!-- Node4&#45;&gt;Node12 -->
<g id="edge60" class="edge">
<title>Node4&#45;&gt;Node12</title>
<path fill="none" stroke="midnightblue" d="M1396.07,-336.37C1382.33,-328.61 1363.53,-315.99 1352.19,-300 1334.7,-275.35 1332.19,-265.23 1332.19,-235 1332.19,-235 1332.19,-235 1332.19,-177 1332.19,-141.12 1355.08,-104.42 1370.49,-83.79"/>
<polygon fill="midnightblue" stroke="midnightblue" points="1373.37,-85.79 1376.73,-75.74 1367.84,-81.5 1373.37,-85.79"/>
</g>
<!-- Node25 -->
<g id="node25" class="node">
<title>Node25</title>
<g id="a_node25"><a xlink:title=" ">
<polygon fill="white" stroke="#bfbfbf" points="1234.69,-0.5 1234.69,-19.5 1281.69,-19.5 1281.69,-0.5 1234.69,-0.5"/>
<text text-anchor="middle" x="1258.19" y="-7.5" font-family="Helvetica,sans-Serif" font-size="10.00">vector</text>
</a>
</g>
</g>
<!-- Node4&#45;&gt;Node25 -->
<g id="edge62" class="edge">
<title>Node4&#45;&gt;Node25</title>
<path fill="none" stroke="midnightblue" d="M1454.61,-340.74C1506.76,-334.55 1592.31,-321.43 1615.19,-300 1637.15,-279.42 1634.19,-265.1 1634.19,-235 1634.19,-235 1634.19,-235 1634.19,-121 1634.19,-50.02 1384.21,-21.66 1291.9,-13.61"/>
<polygon fill="midnightblue" stroke="midnightblue" points="1291.97,-10.1 1281.71,-12.74 1291.38,-17.07 1291.97,-10.1"/>
</g>
<!-- Node37 -->
<g id="node37" class="node">
<title>Node37</title>
<g id="a_node37"><a xlink:href="forwarder__types_8h.html" target="_top" xlink:title=" ">
<polygon fill="white" stroke="black" points="1360.69,-280.5 1360.69,-299.5 1465.69,-299.5 1465.69,-280.5 1360.69,-280.5"/>
<text text-anchor="middle" x="1413.19" y="-287.5" font-family="Helvetica,sans-Serif" font-size="10.00">forwarder_types.h</text>
</a>
</g>
</g>
<!-- Node4&#45;&gt;Node37 -->
<g id="edge57" class="edge">
<title>Node4&#45;&gt;Node37</title>
<path fill="none" stroke="midnightblue" d="M1413.19,-336.08C1413.19,-329.01 1413.19,-318.86 1413.19,-309.99"/>
<polygon fill="midnightblue" stroke="midnightblue" points="1416.69,-309.75 1413.19,-299.75 1409.69,-309.75 1416.69,-309.75"/>
</g>
<!-- Node38 -->
<g id="node38" class="node">
<title>Node38</title>
<g id="a_node38"><a xlink:title=" ">
<polygon fill="white" stroke="#bfbfbf" points="1484.19,-280.5 1484.19,-299.5 1534.19,-299.5 1534.19,-280.5 1484.19,-280.5"/>
<text text-anchor="middle" x="1509.19" y="-287.5" font-family="Helvetica,sans-Serif" font-size="10.00">chrono</text>
</a>
</g>
</g>
<!-- Node4&#45;&gt;Node38 -->
<g id="edge59" class="edge">
<title>Node4&#45;&gt;Node38</title>
<path fill="none" stroke="midnightblue" d="M1428.61,-336.32C1443.72,-327.82 1467,-314.73 1484.66,-304.8"/>
<polygon fill="midnightblue" stroke="midnightblue" points="1486.8,-307.61 1493.8,-299.65 1483.37,-301.51 1486.8,-307.61"/>
</g>
<!-- Node39 -->
<g id="node39" class="node">
<title>Node39</title>
<g id="a_node39"><a xlink:title=" ">
<polygon fill="white" stroke="#bfbfbf" points="1552.69,-280.5 1552.69,-299.5 1605.69,-299.5 1605.69,-280.5 1552.69,-280.5"/>
<text text-anchor="middle" x="1579.19" y="-287.5" font-family="Helvetica,sans-Serif" font-size="10.00">stdint.h</text>
</a>
</g>
</g>
<!-- Node4&#45;&gt;Node39 -->
<g id="edge61" class="edge">
<title>Node4&#45;&gt;Node39</title>
<path fill="none" stroke="midnightblue" d="M1439.49,-336.44C1467.54,-327.32 1512.13,-312.81 1543.37,-302.65"/>
<polygon fill="midnightblue" stroke="midnightblue" points="1544.58,-305.94 1553.01,-299.52 1542.41,-299.28 1544.58,-305.94"/>
</g>
<!-- Node6 -->
<g id="node6" class="node">
<title>Node6</title>
<g id="a_node6"><a xlink:href="ccf__assert_8h.html" target="_top" xlink:title=" ">
<polygon fill="white" stroke="black" points="775.19,-224.5 775.19,-243.5 867.19,-243.5 867.19,-224.5 775.19,-224.5"/>
<text text-anchor="middle" x="821.19" y="-231.5" font-family="Helvetica,sans-Serif" font-size="10.00">ccf/ccf_assert.h</text>
</a>
</g>
</g>
<!-- Node5&#45;&gt;Node6 -->
<g id="edge5" class="edge">
<title>Node5&#45;&gt;Node6</title>
<path fill="none" stroke="midnightblue" d="M597.05,-283.22C638.54,-274.29 718.91,-257 771.28,-245.74"/>
<polygon fill="midnightblue" stroke="midnightblue" points="772.32,-249.09 781.36,-243.57 770.85,-242.25 772.32,-249.09"/>
</g>
<!-- Node13 -->
<g id="node13" class="node">
<title>Node13</title>
<g id="a_node13"><a xlink:title=" ">
<polygon fill="white" stroke="#bfbfbf" points="1306.19,-56.5 1306.19,-75.5 1344.19,-75.5 1344.19,-56.5 1306.19,-56.5"/>
<text text-anchor="middle" x="1325.19" y="-63.5" font-family="Helvetica,sans-Serif" font-size="10.00">map</text>
</a>
</g>
</g>
<!-- Node5&#45;&gt;Node13 -->
<g id="edge53" class="edge">
<title>Node5&#45;&gt;Node13</title>
<path fill="none" stroke="midnightblue" d="M596.86,-289.76C695.91,-291.31 1048.45,-285.26 1275.19,-132 1293.01,-119.95 1307.22,-99.48 1315.86,-84.72"/>
<polygon fill="midnightblue" stroke="midnightblue" points="1319.14,-86.04 1320.94,-75.6 1313.02,-82.63 1319.14,-86.04"/>
</g>
<!-- Node18 -->
<g id="node18" class="node">
<title>Node18</title>
<g id="a_node18"><a xlink:title=" ">
<polygon fill="white" stroke="#bfbfbf" points="161.19,-112.5 161.19,-131.5 217.19,-131.5 217.19,-112.5 161.19,-112.5"/>
<text text-anchor="middle" x="189.19" y="-119.5" font-family="Helvetica,sans-Serif" font-size="10.00">optional</text>
</a>
</g>
</g>
<!-- Node5&#45;&gt;Node18 -->
<g id="edge55" class="edge">
<title>Node5&#45;&gt;Node18</title>
<path fill="none" stroke="midnightblue" d="M543.64,-288.63C441.46,-286.59 75.85,-273.35 8.19,-188 -31.11,-138.43 86.88,-126.63 150.89,-123.84"/>
<polygon fill="midnightblue" stroke="midnightblue" points="151.18,-127.34 161.04,-123.46 150.91,-120.34 151.18,-127.34"/>
</g>
<!-- Node21 -->
<g id="node21" class="node">
<title>Node21</title>
<g id="a_node21"><a xlink:href="sha256__hash_8h.html" target="_top" xlink:title=" ">
<polygon fill="white" stroke="black" points="617.19,-224.5 617.19,-243.5 757.19,-243.5 757.19,-224.5 617.19,-224.5"/>
<text text-anchor="middle" x="687.19" y="-231.5" font-family="Helvetica,sans-Serif" font-size="10.00">ccf/crypto/sha256_hash.h</text>
</a>
</g>
</g>
<!-- Node5&#45;&gt;Node21 -->
<g id="edge22" class="edge">
<title>Node5&#45;&gt;Node21</title>
<path fill="none" stroke="midnightblue" d="M588.72,-280.44C607.81,-271.64 637.76,-257.81 659.62,-247.72"/>
<polygon fill="midnightblue" stroke="midnightblue" points="661.12,-250.88 668.73,-243.52 658.19,-244.53 661.12,-250.88"/>
</g>
<!-- Node24 -->
<g id="node24" class="node">
<title>Node24</title>
<g id="a_node24"><a xlink:title=" ">
<polygon fill="white" stroke="#bfbfbf" points="297.19,-0.5 297.19,-19.5 341.19,-19.5 341.19,-0.5 297.19,-0.5"/>
<text text-anchor="middle" x="319.19" y="-7.5" font-family="Helvetica,sans-Serif" font-size="10.00">string</text>
</a>
</g>
</g>
<!-- Node5&#45;&gt;Node24 -->
<g id="edge56" class="edge">
<title>Node5&#45;&gt;Node24</title>
<path fill="none" stroke="midnightblue" d="M543.63,-288.59C443.6,-286.33 95.19,-271.79 95.19,-179 95.19,-179 95.19,-179 95.19,-121 95.19,-78.73 225.34,-36.99 287.22,-19.53"/>
<polygon fill="midnightblue" stroke="midnightblue" points="288.19,-22.89 296.89,-16.84 286.32,-16.15 288.19,-22.89"/>
</g>
<!-- Node33 -->
<g id="node33" class="node">
<title>Node33</title>
<g id="a_node33"><a xlink:href="tx__id_8h.html" target="_top" xlink:title=" ">
<polygon fill="white" stroke="black" points="255.69,-224.5 255.69,-243.5 322.69,-243.5 322.69,-224.5 255.69,-224.5"/>
<text text-anchor="middle" x="289.19" y="-231.5" font-family="Helvetica,sans-Serif" font-size="10.00">ccf/tx_id.h</text>
</a>
</g>
</g>
<!-- Node5&#45;&gt;Node33 -->
<g id="edge43" class="edge">
<title>Node5&#45;&gt;Node33</title>
<path fill="none" stroke="midnightblue" d="M543.5,-283.87C495.03,-274.56 392.13,-254.78 333.16,-243.45"/>
<polygon fill="midnightblue" stroke="midnightblue" points="333.51,-239.95 323.03,-241.5 332.19,-246.83 333.51,-239.95"/>
</g>
<!-- Node35 -->
<g id="node35" class="node">
<title>Node35</title>
<g id="a_node35"><a xlink:title=" ">
<polygon fill="white" stroke="#bfbfbf" points="491.19,-224.5 491.19,-243.5 523.19,-243.5 523.19,-224.5 491.19,-224.5"/>
<text text-anchor="middle" x="507.19" y="-231.5" font-family="Helvetica,sans-Serif" font-size="10.00">list</text>
</a>
</g>
</g>
<!-- Node5&#45;&gt;Node35 -->
<g id="edge52" class="edge">
<title>Node5&#45;&gt;Node35</title>
<path fill="none" stroke="midnightblue" d="M560.06,-280.32C550.66,-272.26 536.44,-260.08 525.12,-250.37"/>
<polygon fill="midnightblue" stroke="midnightblue" points="527.36,-247.68 517.49,-243.83 522.81,-253 527.36,-247.68"/>
</g>
<!-- Node36 -->
<g id="node36" class="node">
<title>Node36</title>
<g id="a_node36"><a xlink:title=" ">
<polygon fill="white" stroke="#bfbfbf" points="541.19,-224.5 541.19,-243.5 599.19,-243.5 599.19,-224.5 541.19,-224.5"/>
<text text-anchor="middle" x="570.19" y="-231.5" font-family="Helvetica,sans-Serif" font-size="10.00">memory</text>
</a>
</g>
</g>
<!-- Node5&#45;&gt;Node36 -->
<g id="edge54" class="edge">
<title>Node5&#45;&gt;Node36</title>
<path fill="none" stroke="midnightblue" d="M570.19,-280.08C570.19,-273.01 570.19,-262.86 570.19,-253.99"/>
<polygon fill="midnightblue" stroke="midnightblue" points="573.69,-253.75 570.19,-243.75 566.69,-253.75 573.69,-253.75"/>
</g>
<!-- Node7 -->
<g id="node7" class="node">
<title>Node7</title>
<g id="a_node7"><a xlink:href="logger_8h.html" target="_top" xlink:title=" ">
<polygon fill="white" stroke="black" points="777.69,-168.5 777.69,-187.5 864.69,-187.5 864.69,-168.5 777.69,-168.5"/>
<text text-anchor="middle" x="821.19" y="-175.5" font-family="Helvetica,sans-Serif" font-size="10.00">ccf/ds/logger.h</text>
</a>
</g>
</g>
<!-- Node6&#45;&gt;Node7 -->
<g id="edge6" class="edge">
<title>Node6&#45;&gt;Node7</title>
<path fill="none" stroke="midnightblue" d="M821.19,-224.08C821.19,-217.01 821.19,-206.86 821.19,-197.99"/>
<polygon fill="midnightblue" stroke="midnightblue" points="824.69,-197.75 821.19,-187.75 817.69,-197.75 824.69,-197.75"/>
</g>
<!-- Node8 -->
<g id="node8" class="node">
<title>Node8</title>
<g id="a_node8"><a xlink:href="enum__formatter_8h.html" target="_top" xlink:title=" ">
<polygon fill="white" stroke="black" points="753.19,-112.5 753.19,-131.5 889.19,-131.5 889.19,-112.5 753.19,-112.5"/>
<text text-anchor="middle" x="821.19" y="-119.5" font-family="Helvetica,sans-Serif" font-size="10.00">ccf/ds/enum_formatter.h</text>
</a>
</g>
</g>
<!-- Node7&#45;&gt;Node8 -->
<g id="edge7" class="edge">
<title>Node7&#45;&gt;Node8</title>
<path fill="none" stroke="midnightblue" d="M821.19,-168.08C821.19,-161.01 821.19,-150.86 821.19,-141.99"/>
<polygon fill="midnightblue" stroke="midnightblue" points="824.69,-141.75 821.19,-131.75 817.69,-141.75 824.69,-141.75"/>
</g>
<!-- Node9 -->
<g id="node9" class="node">
<title>Node9</title>
<g id="a_node9"><a xlink:title=" ">
<polygon fill="white" stroke="#bfbfbf" points="647.69,-56.5 647.69,-75.5 726.69,-75.5 726.69,-56.5 647.69,-56.5"/>
<text text-anchor="middle" x="687.19" y="-63.5" font-family="Helvetica,sans-Serif" font-size="10.00">fmt/format.h</text>
</a>
</g>
</g>
<!-- Node7&#45;&gt;Node9 -->
<g id="edge16" class="edge">
<title>Node7&#45;&gt;Node9</title>
<path fill="none" stroke="midnightblue" d="M803.01,-168.49C786.71,-160.38 762.58,-147.18 744.19,-132 726.9,-117.74 710.39,-98 699.63,-84.03"/>
<polygon fill="midnightblue" stroke="midnightblue" points="702.25,-81.69 693.44,-75.8 696.65,-85.89 702.25,-81.69"/>
</g>
<!-- Node10 -->
<g id="node10" class="node">
<title>Node10</title>
<g id="a_node10"><a xlink:href="thread__ids_8h.html" target="_top" xlink:title=" ">
<polygon fill="white" stroke="black" points="1158.19,-112.5 1158.19,-131.5 1266.19,-131.5 1266.19,-112.5 1158.19,-112.5"/>
<text text-anchor="middle" x="1212.19" y="-119.5" font-family="Helvetica,sans-Serif" font-size="10.00">ccf/ds/thread_ids.h</text>
</a>
</g>
</g>
<!-- Node7&#45;&gt;Node10 -->
<g id="edge9" class="edge">
<title>Node7&#45;&gt;Node10</title>
<path fill="none" stroke="midnightblue" d="M864.9,-170.96C933.89,-161.43 1068.36,-142.86 1148.22,-131.83"/>
<polygon fill="midnightblue" stroke="midnightblue" points="1148.73,-135.3 1158.15,-130.46 1147.77,-128.36 1148.73,-135.3"/>
</g>
<!-- Node15 -->
<g id="node15" class="node">
<title>Node15</title>
<g id="a_node15"><a xlink:title=" ">
<polygon fill="white" stroke="#bfbfbf" points="907.69,-112.5 907.69,-131.5 986.69,-131.5 986.69,-112.5 907.69,-112.5"/>
<text text-anchor="middle" x="947.19" y="-119.5" font-family="Helvetica,sans-Serif" font-size="10.00">fmt/chrono.h</text>
</a>
</g>
</g>
<!-- Node7&#45;&gt;Node15 -->
<g id="edge15" class="edge">
<title>Node7&#45;&gt;Node15</title>
<path fill="none" stroke="midnightblue" d="M841.15,-168.44C861.79,-159.6 894.25,-145.69 917.82,-135.59"/>
<polygon fill="midnightblue" stroke="midnightblue" points="919.5,-138.67 927.31,-131.52 916.74,-132.24 919.5,-138.67"/>
</g>
<!-- Node16 -->
<g id="node16" class="node">
<title>Node16</title>
<g id="a_node16"><a xlink:title=" ">
<polygon fill="white" stroke="#bfbfbf" points="1004.19,-112.5 1004.19,-131.5 1064.19,-131.5 1064.19,-112.5 1004.19,-112.5"/>
<text text-anchor="middle" x="1034.19" y="-119.5" font-family="Helvetica,sans-Serif" font-size="10.00">iostream</text>
</a>
</g>
</g>
<!-- Node7&#45;&gt;Node16 -->
<g id="edge17" class="edge">
<title>Node7&#45;&gt;Node16</title>
<path fill="none" stroke="midnightblue" d="M854.94,-168.44C892.78,-158.85 954.12,-143.3 994.3,-133.11"/>
<polygon fill="midnightblue" stroke="midnightblue" points="995.2,-136.49 1004.04,-130.64 993.48,-129.71 995.2,-136.49"/>
</g>
<!-- Node17 -->
<g id="node17" class="node">
<title>Node17</title>
<g id="a_node17"><a xlink:title=" ">
<polygon fill="white" stroke="#bfbfbf" points="273.19,-56.5 273.19,-75.5 383.19,-75.5 383.19,-56.5 273.19,-56.5"/>
<text text-anchor="middle" x="328.19" y="-63.5" font-family="Helvetica,sans-Serif" font-size="10.00">nlohmann/json.hpp</text>
</a>
</g>
</g>
<!-- Node7&#45;&gt;Node17 -->
<g id="edge18" class="edge">
<title>Node7&#45;&gt;Node17</title>
<path fill="none" stroke="midnightblue" d="M777.66,-169.8C773.12,-169.15 768.56,-168.53 764.19,-168 717.36,-162.32 376.36,-163.43 341.19,-132 328.46,-120.64 326.12,-100.64 326.39,-85.82"/>
<polygon fill="midnightblue" stroke="midnightblue" points="329.89,-85.91 326.99,-75.72 322.91,-85.5 329.89,-85.91"/>
</g>
<!-- Node7&#45;&gt;Node18 -->
<g id="edge19" class="edge">
<title>Node7&#45;&gt;Node18</title>
<path fill="none" stroke="midnightblue" d="M777.66,-169.77C773.12,-169.12 768.56,-168.52 764.19,-168 750.81,-166.42 353.6,-135.7 227.33,-125.94"/>
<polygon fill="midnightblue" stroke="midnightblue" points="227.57,-122.45 217.33,-125.17 227.03,-129.43 227.57,-122.45"/>
</g>
<!-- Node19 -->
<g id="node19" class="node">
<title>Node19</title>
<g id="a_node19"><a xlink:title=" ">
<polygon fill="white" stroke="#bfbfbf" points="603.19,-112.5 603.19,-131.5 659.19,-131.5 659.19,-112.5 603.19,-112.5"/>
<text text-anchor="middle" x="631.19" y="-119.5" font-family="Helvetica,sans-Serif" font-size="10.00">sstream</text>
</a>
</g>
</g>
<!-- Node7&#45;&gt;Node19 -->
<g id="edge20" class="edge">
<title>Node7&#45;&gt;Node19</title>
<path fill="none" stroke="midnightblue" d="M791.08,-168.44C757.99,-159.04 704.77,-143.91 668.91,-133.72"/>
<polygon fill="midnightblue" stroke="midnightblue" points="669.87,-130.36 659.29,-130.99 667.95,-137.09 669.87,-130.36"/>
</g>
<!-- Node20 -->
<g id="node20" class="node">
<title>Node20</title>
<g id="a_node20"><a xlink:title=" ">
<polygon fill="white" stroke="#bfbfbf" points="774.69,-0.5 774.69,-19.5 843.69,-19.5 843.69,-0.5 774.69,-0.5"/>
<text text-anchor="middle" x="809.19" y="-7.5" font-family="Helvetica,sans-Serif" font-size="10.00">type_traits</text>
</a>
</g>
</g>
<!-- Node7&#45;&gt;Node20 -->
<g id="edge21" class="edge">
<title>Node7&#45;&gt;Node20</title>
<path fill="none" stroke="midnightblue" d="M864.87,-175.7C929.85,-172.75 1047.12,-163.14 1073.19,-132 1137.23,-55.51 944.54,-24.97 853.74,-15.05"/>
<polygon fill="midnightblue" stroke="midnightblue" points="854.03,-11.56 843.72,-13.99 853.29,-18.52 854.03,-11.56"/>
</g>
<!-- Node8&#45;&gt;Node9 -->
<g id="edge8" class="edge">
<title>Node8&#45;&gt;Node9</title>
<path fill="none" stroke="midnightblue" d="M799.95,-112.44C777.8,-103.52 742.87,-89.44 717.75,-79.32"/>
<polygon fill="midnightblue" stroke="midnightblue" points="718.9,-76.01 708.32,-75.52 716.29,-82.5 718.9,-76.01"/>
</g>
<!-- Node10&#45;&gt;Node9 -->
<g id="edge10" class="edge">
<title>Node10&#45;&gt;Node9</title>
<path fill="none" stroke="midnightblue" d="M1157.98,-115.42C1055.63,-104.9 835.36,-82.24 736.72,-72.1"/>
<polygon fill="midnightblue" stroke="midnightblue" points="737.02,-68.61 726.72,-71.07 736.31,-75.57 737.02,-68.61"/>
</g>
<!-- Node11 -->
<g id="node11" class="node">
<title>Node11</title>
<g id="a_node11"><a xlink:title=" ">
<polygon fill="white" stroke="#bfbfbf" points="1136.19,-56.5 1136.19,-75.5 1222.19,-75.5 1222.19,-56.5 1136.19,-56.5"/>
<text text-anchor="middle" x="1179.19" y="-63.5" font-family="Helvetica,sans-Serif" font-size="10.00">fmt/ostream.h</text>
</a>
</g>
</g>
<!-- Node10&#45;&gt;Node11 -->
<g id="edge11" class="edge">
<title>Node10&#45;&gt;Node11</title>
<path fill="none" stroke="midnightblue" d="M1206.74,-112.08C1202.17,-104.61 1195.52,-93.72 1189.89,-84.52"/>
<polygon fill="midnightblue" stroke="midnightblue" points="1192.73,-82.46 1184.53,-75.75 1186.76,-86.11 1192.73,-82.46"/>
</g>
<!-- Node10&#45;&gt;Node12 -->
<g id="edge12" class="edge">
<title>Node10&#45;&gt;Node12</title>
<path fill="none" stroke="midnightblue" d="M1239.44,-112.44C1270.04,-102.84 1319.65,-87.26 1352.09,-77.07"/>
<polygon fill="midnightblue" stroke="midnightblue" points="1353.49,-80.31 1361.98,-73.97 1351.39,-73.63 1353.49,-80.31"/>
</g>
<!-- Node10&#45;&gt;Node13 -->
<g id="edge13" class="edge">
<title>Node10&#45;&gt;Node13</title>
<path fill="none" stroke="midnightblue" d="M1230.09,-112.44C1248.44,-103.68 1277.19,-89.94 1298.28,-79.86"/>
<polygon fill="midnightblue" stroke="midnightblue" points="1299.85,-82.99 1307.36,-75.52 1296.83,-76.67 1299.85,-82.99"/>
</g>
<!-- Node14 -->
<g id="node14" class="node">
<title>Node14</title>
<g id="a_node14"><a xlink:title=" ">
<polygon fill="white" stroke="#bfbfbf" points="1240.19,-56.5 1240.19,-75.5 1288.19,-75.5 1288.19,-56.5 1240.19,-56.5"/>
<text text-anchor="middle" x="1264.19" y="-63.5" font-family="Helvetica,sans-Serif" font-size="10.00">thread</text>
</a>
</g>
</g>
<!-- Node10&#45;&gt;Node14 -->
<g id="edge14" class="edge">
<title>Node10&#45;&gt;Node14</title>
<path fill="none" stroke="midnightblue" d="M1220.77,-112.08C1228.34,-104.22 1239.56,-92.57 1248.7,-83.08"/>
<polygon fill="midnightblue" stroke="midnightblue" points="1251.34,-85.38 1255.76,-75.75 1246.3,-80.53 1251.34,-85.38"/>
</g>
<!-- Node21&#45;&gt;Node9 -->
<g id="edge42" class="edge">
<title>Node21&#45;&gt;Node9</title>
<path fill="none" stroke="midnightblue" d="M687.19,-224.08C687.19,-197.95 687.19,-121.21 687.19,-85.58"/>
<polygon fill="midnightblue" stroke="midnightblue" points="690.69,-85.57 687.19,-75.57 683.69,-85.57 690.69,-85.57"/>
</g>
<!-- Node22 -->
<g id="node22" class="node">
<title>Node22</title>
<g id="a_node22"><a xlink:href="json_8h.html" target="_top" xlink:title=" ">
<polygon fill="white" stroke="black" points="565.69,-168.5 565.69,-187.5 642.69,-187.5 642.69,-168.5 565.69,-168.5"/>
<text text-anchor="middle" x="604.19" y="-175.5" font-family="Helvetica,sans-Serif" font-size="10.00">ccf/ds/json.h</text>
</a>
</g>
</g>
<!-- Node21&#45;&gt;Node22 -->
<g id="edge23" class="edge">
<title>Node21&#45;&gt;Node22</title>
<path fill="none" stroke="midnightblue" d="M673.85,-224.32C661.02,-215.98 641.4,-203.21 626.25,-193.35"/>
<polygon fill="midnightblue" stroke="midnightblue" points="627.78,-190.17 617.49,-187.65 623.96,-196.04 627.78,-190.17"/>
</g>
<!-- Node29 -->
<g id="node29" class="node">
<title>Node29</title>
<g id="a_node29"><a xlink:title=" ">
<polygon fill="white" stroke="#bfbfbf" points="982.19,-0.5 982.19,-19.5 1024.19,-19.5 1024.19,-0.5 982.19,-0.5"/>
<text text-anchor="middle" x="1003.19" y="-7.5" font-family="Helvetica,sans-Serif" font-size="10.00">array</text>
</a>
</g>
</g>
<!-- Node21&#45;&gt;Node29 -->
<g id="edge40" class="edge">
<title>Node21&#45;&gt;Node29</title>
<path fill="none" stroke="midnightblue" d="M735.19,-224.45C837.62,-205.72 1070.09,-160.49 1092.19,-132 1107.34,-112.46 1085.38,-73.82 1071.19,-56 1060.58,-42.68 1044.94,-31.95 1031.32,-24.31"/>
<polygon fill="midnightblue" stroke="midnightblue" points="1032.79,-21.12 1022.31,-19.52 1029.5,-27.3 1032.79,-21.12"/>
</g>
<!-- Node32 -->
<g id="node32" class="node">
<title>Node32</title>
<g id="a_node32"><a xlink:title=" ">
<polygon fill="white" stroke="#bfbfbf" points="715.19,-168.5 715.19,-187.5 755.19,-187.5 755.19,-168.5 715.19,-168.5"/>
<text text-anchor="middle" x="735.19" y="-175.5" font-family="Helvetica,sans-Serif" font-size="10.00">span</text>
</a>
</g>
</g>
<!-- Node21&#45;&gt;Node32 -->
<g id="edge41" class="edge">
<title>Node21&#45;&gt;Node32</title>
<path fill="none" stroke="midnightblue" d="M695.11,-224.08C702.03,-216.3 712.25,-204.8 720.64,-195.37"/>
<polygon fill="midnightblue" stroke="midnightblue" points="723.38,-197.55 727.41,-187.75 718.15,-192.9 723.38,-197.55"/>
</g>
<!-- Node22&#45;&gt;Node9 -->
<g id="edge38" class="edge">
<title>Node22&#45;&gt;Node9</title>
<path fill="none" stroke="midnightblue" d="M599.39,-168.26C592.86,-155.03 583.15,-129.61 594.19,-112 604.06,-96.25 621.19,-85.87 638.07,-79.11"/>
<polygon fill="midnightblue" stroke="midnightblue" points="639.73,-82.23 647.93,-75.52 637.34,-75.65 639.73,-82.23"/>
</g>
<!-- Node22&#45;&gt;Node19 -->
<g id="edge39" class="edge">
<title>Node22&#45;&gt;Node19</title>
<path fill="none" stroke="midnightblue" d="M608.64,-168.08C612.34,-160.69 617.71,-149.95 622.28,-140.81"/>
<polygon fill="midnightblue" stroke="midnightblue" points="625.47,-142.26 626.81,-131.75 619.21,-139.13 625.47,-142.26"/>
</g>
<!-- Node23 -->
<g id="node23" class="node">
<title>Node23</title>
<g id="a_node23"><a xlink:href="include_2ccf_2crypto_2base64_8h.html" target="_top" xlink:title=" ">
<polygon fill="white" stroke="black" points="509.19,-56.5 509.19,-75.5 621.19,-75.5 621.19,-56.5 509.19,-56.5"/>
<text text-anchor="middle" x="565.19" y="-63.5" font-family="Helvetica,sans-Serif" font-size="10.00">ccf/crypto/base64.h</text>
</a>
</g>
</g>
<!-- Node22&#45;&gt;Node23 -->
<g id="edge24" class="edge">
<title>Node22&#45;&gt;Node23</title>
<path fill="none" stroke="midnightblue" d="M591.69,-168.3C581.31,-160.25 567.3,-147.24 561.19,-132 555.27,-117.24 557.06,-99.08 559.87,-85.72"/>
<polygon fill="midnightblue" stroke="midnightblue" points="563.33,-86.34 562.33,-75.79 556.53,-84.65 563.33,-86.34"/>
</g>
<!-- Node26 -->
<g id="node26" class="node">
<title>Node26</title>
<g id="a_node26"><a xlink:href="include_2ccf_2ds_2json__schema_8h.html" target="_top" xlink:title=" ">
<polygon fill="white" stroke="black" points="349.69,-112.5 349.69,-131.5 470.69,-131.5 470.69,-112.5 349.69,-112.5"/>
<text text-anchor="middle" x="410.19" y="-119.5" font-family="Helvetica,sans-Serif" font-size="10.00">ccf/ds/json_schema.h</text>
</a>
</g>
</g>
<!-- Node22&#45;&gt;Node26 -->
<g id="edge27" class="edge">
<title>Node22&#45;&gt;Node26</title>
<path fill="none" stroke="midnightblue" d="M573.45,-168.44C540.24,-159.2 487.19,-144.44 450.63,-134.26"/>
<polygon fill="midnightblue" stroke="midnightblue" points="451.35,-130.83 440.78,-131.52 449.48,-137.57 451.35,-130.83"/>
</g>
<!-- Node23&#45;&gt;Node24 -->
<g id="edge25" class="edge">
<title>Node23&#45;&gt;Node24</title>
<path fill="none" stroke="midnightblue" d="M526.21,-56.44C477.82,-45.82 396.19,-27.9 351.25,-18.04"/>
<polygon fill="midnightblue" stroke="midnightblue" points="351.97,-14.61 341.45,-15.89 350.47,-21.45 351.97,-14.61"/>
</g>
<!-- Node23&#45;&gt;Node25 -->
<g id="edge26" class="edge">
<title>Node23&#45;&gt;Node25</title>
<path fill="none" stroke="midnightblue" d="M621.32,-57.88C627.34,-57.21 633.39,-56.56 639.19,-56 862.01,-34.36 1130.89,-18.21 1224.28,-12.89"/>
<polygon fill="midnightblue" stroke="midnightblue" points="1224.75,-16.36 1234.54,-12.31 1224.36,-9.38 1224.75,-16.36"/>
</g>
<!-- Node26&#45;&gt;Node9 -->
<g id="edge36" class="edge">
<title>Node26&#45;&gt;Node9</title>
<path fill="none" stroke="midnightblue" d="M454.08,-112.44C503.99,-102.71 585.3,-86.86 637.5,-76.69"/>
<polygon fill="midnightblue" stroke="midnightblue" points="638.39,-80.08 647.54,-74.73 637.05,-73.21 638.39,-80.08"/>
</g>
<!-- Node26&#45;&gt;Node17 -->
<g id="edge37" class="edge">
<title>Node26&#45;&gt;Node17</title>
<path fill="none" stroke="midnightblue" d="M397.01,-112.32C384.34,-103.98 364.95,-91.21 349.98,-81.35"/>
<polygon fill="midnightblue" stroke="midnightblue" points="351.6,-78.23 341.33,-75.65 347.75,-84.08 351.6,-78.23"/>
</g>
<!-- Node27 -->
<g id="node27" class="node">
<title>Node27</title>
<g id="a_node27"><a xlink:href="nonstd_8h.html" target="_top" xlink:title=" ">
<polygon fill="white" stroke="black" points="401.19,-56.5 401.19,-75.5 491.19,-75.5 491.19,-56.5 401.19,-56.5"/>
<text text-anchor="middle" x="446.19" y="-63.5" font-family="Helvetica,sans-Serif" font-size="10.00">ccf/ds/nonstd.h</text>
</a>
</g>
</g>
<!-- Node26&#45;&gt;Node27 -->
<g id="edge28" class="edge">
<title>Node26&#45;&gt;Node27</title>
<path fill="none" stroke="midnightblue" d="M416.13,-112.08C421.16,-104.53 428.52,-93.49 434.7,-84.23"/>
<polygon fill="midnightblue" stroke="midnightblue" points="437.72,-86.01 440.35,-75.75 431.89,-82.13 437.72,-86.01"/>
</g>
<!-- Node27&#45;&gt;Node20 -->
<g id="edge34" class="edge">
<title>Node27&#45;&gt;Node20</title>
<path fill="none" stroke="midnightblue" d="M491.26,-57.42C494.28,-56.93 497.27,-56.45 500.19,-56 594.11,-41.34 704.34,-25.65 764.47,-17.22"/>
<polygon fill="midnightblue" stroke="midnightblue" points="764.98,-20.68 774.39,-15.83 764.01,-13.75 764.98,-20.68"/>
</g>
<!-- Node27&#45;&gt;Node24 -->
<g id="edge32" class="edge">
<title>Node27&#45;&gt;Node24</title>
<path fill="none" stroke="midnightblue" d="M426.06,-56.44C405.16,-47.56 372.25,-33.56 348.47,-23.45"/>
<polygon fill="midnightblue" stroke="midnightblue" points="349.79,-20.21 339.21,-19.52 347.05,-26.65 349.79,-20.21"/>
</g>
<!-- Node27&#45;&gt;Node25 -->
<g id="edge35" class="edge">
<title>Node27&#45;&gt;Node25</title>
<path fill="none" stroke="midnightblue" d="M491.22,-57.13C494.25,-56.71 497.26,-56.33 500.19,-56 643.55,-39.84 1095.84,-18.42 1224.02,-12.55"/>
<polygon fill="midnightblue" stroke="midnightblue" points="1224.56,-16.02 1234.39,-12.07 1224.24,-9.03 1224.56,-16.02"/>
</g>
<!-- Node28 -->
<g id="node28" class="node">
<title>Node28</title>
<g id="a_node28"><a xlink:title=" ">
<polygon fill="white" stroke="#bfbfbf" points="451.19,-0.5 451.19,-19.5 515.19,-19.5 515.19,-0.5 451.19,-0.5"/>
<text text-anchor="middle" x="483.19" y="-7.5" font-family="Helvetica,sans-Serif" font-size="10.00">algorithm</text>
</a>
</g>
</g>
<!-- Node27&#45;&gt;Node28 -->
<g id="edge29" class="edge">
<title>Node27&#45;&gt;Node28</title>
<path fill="none" stroke="midnightblue" d="M452.29,-56.08C457.47,-48.53 465.03,-37.49 471.38,-28.23"/>
<polygon fill="midnightblue" stroke="midnightblue" points="474.42,-29.98 477.19,-19.75 468.65,-26.02 474.42,-29.98"/>
</g>
<!-- Node27&#45;&gt;Node29 -->
<g id="edge30" class="edge">
<title>Node27&#45;&gt;Node29</title>
<path fill="none" stroke="midnightblue" d="M491.23,-57.23C494.26,-56.79 497.26,-56.37 500.19,-56 677.93,-33.27 892.48,-18.15 971.77,-12.98"/>
<polygon fill="midnightblue" stroke="midnightblue" points="972.29,-16.45 982.04,-12.31 971.83,-9.47 972.29,-16.45"/>
</g>
<!-- Node30 -->
<g id="node30" class="node">
<title>Node30</title>
<g id="a_node30"><a xlink:title=" ">
<polygon fill="white" stroke="#bfbfbf" points="383.69,-0.5 383.69,-19.5 432.69,-19.5 432.69,-0.5 383.69,-0.5"/>
<text text-anchor="middle" x="408.19" y="-7.5" font-family="Helvetica,sans-Serif" font-size="10.00">cctype</text>
</a>
</g>
</g>
<!-- Node27&#45;&gt;Node30 -->
<g id="edge31" class="edge">
<title>Node27&#45;&gt;Node30</title>
<path fill="none" stroke="midnightblue" d="M439.91,-56.08C434.54,-48.46 426.67,-37.26 420.11,-27.94"/>
<polygon fill="midnightblue" stroke="midnightblue" points="422.96,-25.91 414.34,-19.75 417.24,-29.94 422.96,-25.91"/>
</g>
<!-- Node31 -->
<g id="node31" class="node">
<title>Node31</title>
<g id="a_node31"><a xlink:title=" ">
<polygon fill="white" stroke="#bfbfbf" points="157.69,-0.5 157.69,-19.5 230.69,-19.5 230.69,-0.5 157.69,-0.5"/>
<text text-anchor="middle" x="194.19" y="-7.5" font-family="Helvetica,sans-Serif" font-size="10.00">string_view</text>
</a>
</g>
</g>
<!-- Node27&#45;&gt;Node31 -->
<g id="edge33" class="edge">
<title>Node27&#45;&gt;Node31</title>
<path fill="none" stroke="midnightblue" d="M406.26,-56.44C361.39,-46.83 288.63,-31.24 241.1,-21.05"/>
<polygon fill="midnightblue" stroke="midnightblue" points="241.57,-17.57 231.06,-18.9 240.1,-24.42 241.57,-17.57"/>
</g>
<!-- Node33&#45;&gt;Node3 -->
<g id="edge46" class="edge">
<title>Node33&#45;&gt;Node3</title>
<path fill="none" stroke="midnightblue" d="M255.62,-225.66C208.92,-215.45 124.76,-197.05 77.27,-186.67"/>
<polygon fill="midnightblue" stroke="midnightblue" points="77.95,-183.24 67.43,-184.52 76.46,-190.08 77.95,-183.24"/>
</g>
<!-- Node33&#45;&gt;Node9 -->
<g id="edge47" class="edge">
<title>Node33&#45;&gt;Node9</title>
<path fill="none" stroke="midnightblue" d="M309.75,-224.42C375.25,-197.1 579.29,-112 656.85,-79.65"/>
<polygon fill="midnightblue" stroke="midnightblue" points="658.63,-82.7 666.51,-75.62 655.93,-76.24 658.63,-82.7"/>
</g>
<!-- Node33&#45;&gt;Node17 -->
<g id="edge48" class="edge">
<title>Node33&#45;&gt;Node17</title>
<path fill="none" stroke="midnightblue" d="M292.12,-224.44C295.15,-215.45 299.87,-200.83 303.19,-188 312.45,-152.12 320.59,-109.57 324.91,-85.69"/>
<polygon fill="midnightblue" stroke="midnightblue" points="328.4,-86.03 326.71,-75.57 321.51,-84.81 328.4,-86.03"/>
</g>
<!-- Node33&#45;&gt;Node18 -->
<g id="edge49" class="edge">
<title>Node33&#45;&gt;Node18</title>
<path fill="none" stroke="midnightblue" d="M255.5,-226.98C233.22,-221.09 205.57,-209.69 191.19,-188 182.22,-174.49 182.69,-155.68 184.82,-141.77"/>
<polygon fill="midnightblue" stroke="midnightblue" points="188.28,-142.34 186.74,-131.86 181.4,-141.01 188.28,-142.34"/>
</g>
<!-- Node33&#45;&gt;Node22 -->
<g id="edge44" class="edge">
<title>Node33&#45;&gt;Node22</title>
<path fill="none" stroke="midnightblue" d="M322.9,-227.22C378.86,-217.63 491.17,-198.37 555.66,-187.32"/>
<polygon fill="midnightblue" stroke="midnightblue" points="556.32,-190.76 565.58,-185.62 555.14,-183.86 556.32,-190.76"/>
</g>
<!-- Node33&#45;&gt;Node24 -->
<g id="edge50" class="edge">
<title>Node33&#45;&gt;Node24</title>
<path fill="none" stroke="midnightblue" d="M286.74,-224.48C278.01,-193.43 249.7,-86.57 264.19,-56 270.31,-43.07 282.18,-32.62 293.33,-25.05"/>
<polygon fill="midnightblue" stroke="midnightblue" points="295.38,-27.9 301.99,-19.61 291.66,-21.97 295.38,-27.9"/>
</g>
<!-- Node33&#45;&gt;Node31 -->
<g id="edge51" class="edge">
<title>Node33&#45;&gt;Node31</title>
<path fill="none" stroke="midnightblue" d="M255.25,-225.68C231.8,-219.15 201.17,-207.52 180.19,-188 159.81,-169.05 158.58,-159.08 152.19,-132 143.2,-93.96 166.36,-51.11 181.75,-27.99"/>
<polygon fill="midnightblue" stroke="midnightblue" points="184.73,-29.83 187.57,-19.62 178.99,-25.84 184.73,-29.83"/>
</g>
<!-- Node34 -->
<g id="node34" class="node">
<title>Node34</title>
<g id="a_node34"><a xlink:title=" ">
<polygon fill="white" stroke="#bfbfbf" points="199.69,-168.5 199.69,-187.5 260.69,-187.5 260.69,-168.5 199.69,-168.5"/>
<text text-anchor="middle" x="230.19" y="-175.5" font-family="Helvetica,sans-Serif" font-size="10.00">charconv</text>
</a>
</g>
</g>
<!-- Node33&#45;&gt;Node34 -->
<g id="edge45" class="edge">
<title>Node33&#45;&gt;Node34</title>
<path fill="none" stroke="midnightblue" d="M279.71,-224.32C270.98,-216.34 257.84,-204.31 247.29,-194.65"/>
<polygon fill="midnightblue" stroke="midnightblue" points="249.58,-192 239.84,-187.83 244.85,-197.17 249.58,-192"/>
</g>
<!-- Node37&#45;&gt;Node25 -->
<g id="edge58" class="edge">
<title>Node37&#45;&gt;Node25</title>
<path fill="none" stroke="midnightblue" d="M1416.02,-280.27C1421.75,-261.79 1434.19,-217.3 1434.19,-179 1434.19,-179 1434.19,-179 1434.19,-121 1434.19,-90.9 1436.52,-77.23 1415.19,-56 1382.39,-23.38 1327.64,-14.06 1292.24,-11.59"/>
<polygon fill="midnightblue" stroke="midnightblue" points="1292.09,-8.08 1281.91,-11.03 1291.71,-15.07 1292.09,-8.08"/>
</g>
</g>
</svg>
        <g id="navigator" transform="translate(0 0)" fill="#404254">
                <rect fill="#f2f5e9" fill-opacity="0.5" stroke="#606060" stroke-width=".5" x="0" y="0" width="60" height="60"/>
                <use id="zoomplus" xlink:href="#zoomPlus" x="17" y="9" onmousedown="handleZoom(evt,'in')"/>
                <use id="zoomminus" xlink:href="#zoomMin" x="42" y="9" onmousedown="handleZoom(evt,'out')"/>
                <use id="reset" xlink:href="#resetDef" x="30" y="36" onmousedown="handleReset()"/>
                <g id="arrowUp" xlink:href="#dirArrow" transform="translate(30 24)" onmousedown="handlePan(0,-1)">
                  <use xlink:href="#rim" fill="#404040">
                        <set attributeName="fill" to="#808080" begin="arrowUp.mouseover" end="arrowUp.mouseout"/>
                  </use>
                  <path fill="none" stroke="white" stroke-width="1.5" d="M0,-3.0v7 M-2.5,-0.5L0,-3.0L2.5,-0.5"/>
                </g>
                <g id="arrowRight" xlink:href="#dirArrow" transform="rotate(90) translate(36 -43)" onmousedown="handlePan(1,0)">
                  <use xlink:href="#rim" fill="#404040">
                        <set attributeName="fill" to="#808080" begin="arrowRight.mouseover" end="arrowRight.mouseout"/>
                  </use>
                  <path fill="none" stroke="white" stroke-width="1.5" d="M0,-3.0v7 M-2.5,-0.5L0,-3.0L2.5,-0.5"/>
                </g>
                <g id="arrowDown" xlink:href="#dirArrow" transform="rotate(180) translate(-30 -48)" onmousedown="handlePan(0,1)">
                  <use xlink:href="#rim" fill="#404040">
                        <set attributeName="fill" to="#808080" begin="arrowDown.mouseover" end="arrowDown.mouseout"/>
                  </use>
                  <path fill="none" stroke="white" stroke-width="1.5" d="M0,-3.0v7 M-2.5,-0.5L0,-3.0L2.5,-0.5"/>
                </g>
                <g id="arrowLeft" xlink:href="#dirArrow" transform="rotate(270) translate(-36 17)" onmousedown="handlePan(-1,0)">
                  <use xlink:href="#rim" fill="#404040">
                        <set attributeName="fill" to="#808080" begin="arrowLeft.mouseover" end="arrowLeft.mouseout"/>
                  </use>
                  <path fill="none" stroke="white" stroke-width="1.5" d="M0,-3.0v7 M-2.5,-0.5L0,-3.0L2.5,-0.5"/>
                </g>
        </g>
        <svg viewBox="0 0 15 15" width="100%" height="30px" preserveAspectRatio="xMaxYMin meet">
         <g id="arrow_out" transform="scale(0.3 0.3)">
          <a xlink:href="rpc__map_8h__incl_org.svg" target="_base">
           <rect id="button" ry="5" rx="5" y="6" x="6" height="38" width="38"
                fill="#f2f5e9" fill-opacity="0.5" stroke="#606060" stroke-width="1.0"/>
           <path id="arrow"
             d="M 11.500037,31.436501 C 11.940474,20.09759 22.043105,11.32322 32.158766,21.979434 L 37.068811,17.246167 C 37.068811,17.246167 37.088388,32 37.088388,32 L 22.160133,31.978069 C 22.160133,31.978069 26.997745,27.140456 26.997745,27.140456 C 18.528582,18.264221 13.291696,25.230495 11.500037,31.436501 z"
             style="fill:#404040;"/>
          </a>
         </g>
        </svg>
</svg>
