<?xml version="1.0" encoding="UTF-8" standalone="no"?>
<!DOCTYPE svg PUBLIC "-//W3C//DTD SVG 1.1//EN"
 "http://www.w3.org/Graphics/SVG/1.1/DTD/svg11.dtd">
<!-- Generated by graphviz version 2.43.0 (0)
 -->
<!-- Title: src/enclave/rpc_handler.h Pages: 1 -->
<svg width="1747pt" height="364pt"
 viewBox="0.00 0.00 1746.50 364.00" xmlns="http://www.w3.org/2000/svg" xmlns:xlink="http://www.w3.org/1999/xlink">
<g id="graph0" class="graph" transform="scale(1 1) rotate(0) translate(4 360)">
<title>src/enclave/rpc_handler.h</title>
<polygon fill="white" stroke="transparent" points="-4,4 -4,-360 1742.5,-360 1742.5,4 -4,4"/>
<!-- Node1 -->
<g id="node1" class="node">
<title>Node1</title>
<g id="a_node1"><a xlink:title=" ">
<polygon fill="#bfbfbf" stroke="black" points="1435,-336.5 1435,-355.5 1575,-355.5 1575,-336.5 1435,-336.5"/>
<text text-anchor="middle" x="1505" y="-343.5" font-family="Helvetica,sans-Serif" font-size="10.00">src/enclave/rpc_handler.h</text>
</a>
</g>
</g>
<!-- Node2 -->
<g id="node2" class="node">
<title>Node2</title>
<g id="a_node2"><a xlink:href="tx_8h.html" target="_top" xlink:title=" ">
<polygon fill="white" stroke="black" points="668.5,-280.5 668.5,-299.5 721.5,-299.5 721.5,-280.5 668.5,-280.5"/>
<text text-anchor="middle" x="695" y="-287.5" font-family="Helvetica,sans-Serif" font-size="10.00">ccf/tx.h</text>
</a>
</g>
</g>
<!-- Node1&#45;&gt;Node2 -->
<g id="edge1" class="edge">
<title>Node1&#45;&gt;Node2</title>
<path fill="none" stroke="midnightblue" d="M1434.89,-340.33C1269.08,-329.27 857.36,-301.82 731.89,-293.46"/>
<polygon fill="midnightblue" stroke="midnightblue" points="731.87,-289.95 721.66,-292.78 731.4,-296.93 731.87,-289.95"/>
</g>
<!-- Node9 -->
<g id="node9" class="node">
<title>Node9</title>
<g id="a_node9"><a xlink:title=" ">
<polygon fill="white" stroke="#bfbfbf" points="1021,-56.5 1021,-75.5 1065,-75.5 1065,-56.5 1021,-56.5"/>
<text text-anchor="middle" x="1043" y="-63.5" font-family="Helvetica,sans-Serif" font-size="10.00">limits</text>
</a>
</g>
</g>
<!-- Node1&#45;&gt;Node9 -->
<g id="edge57" class="edge">
<title>Node1&#45;&gt;Node9</title>
<path fill="none" stroke="midnightblue" d="M1491.34,-336.29C1442.29,-305.1 1270.23,-196.31 1125,-112 1106.1,-101.03 1084.41,-89.15 1068.08,-80.36"/>
<polygon fill="midnightblue" stroke="midnightblue" points="1069.62,-77.21 1059.15,-75.57 1066.31,-83.38 1069.62,-77.21"/>
</g>
<!-- Node22 -->
<g id="node22" class="node">
<title>Node22</title>
<g id="a_node22"><a xlink:title=" ">
<polygon fill="white" stroke="#bfbfbf" points="1356.5,-0.5 1356.5,-19.5 1403.5,-19.5 1403.5,-0.5 1356.5,-0.5"/>
<text text-anchor="middle" x="1380" y="-7.5" font-family="Helvetica,sans-Serif" font-size="10.00">vector</text>
</a>
</g>
</g>
<!-- Node1&#45;&gt;Node22 -->
<g id="edge59" class="edge">
<title>Node1&#45;&gt;Node22</title>
<path fill="none" stroke="midnightblue" d="M1499.44,-336.27C1488.45,-318.15 1465,-274.83 1465,-235 1465,-235 1465,-235 1465,-121 1465,-79.76 1427.14,-44.57 1401.95,-25.73"/>
<polygon fill="midnightblue" stroke="midnightblue" points="1403.82,-22.76 1393.66,-19.76 1399.73,-28.44 1403.82,-22.76"/>
</g>
<!-- Node35 -->
<g id="node35" class="node">
<title>Node35</title>
<g id="a_node35"><a xlink:href="forwarder__types_8h.html" target="_top" xlink:title=" ">
<polygon fill="white" stroke="black" points="1493.5,-280.5 1493.5,-299.5 1598.5,-299.5 1598.5,-280.5 1493.5,-280.5"/>
<text text-anchor="middle" x="1546" y="-287.5" font-family="Helvetica,sans-Serif" font-size="10.00">forwarder_types.h</text>
</a>
</g>
</g>
<!-- Node1&#45;&gt;Node35 -->
<g id="edge54" class="edge">
<title>Node1&#45;&gt;Node35</title>
<path fill="none" stroke="midnightblue" d="M1511.77,-336.08C1517.56,-328.46 1526.06,-317.26 1533.14,-307.94"/>
<polygon fill="midnightblue" stroke="midnightblue" points="1536.1,-309.83 1539.36,-299.75 1530.52,-305.6 1536.1,-309.83"/>
</g>
<!-- Node36 -->
<g id="node36" class="node">
<title>Node36</title>
<g id="a_node36"><a xlink:title=" ">
<polygon fill="white" stroke="#bfbfbf" points="1617,-280.5 1617,-299.5 1667,-299.5 1667,-280.5 1617,-280.5"/>
<text text-anchor="middle" x="1642" y="-287.5" font-family="Helvetica,sans-Serif" font-size="10.00">chrono</text>
</a>
</g>
</g>
<!-- Node1&#45;&gt;Node36 -->
<g id="edge56" class="edge">
<title>Node1&#45;&gt;Node36</title>
<path fill="none" stroke="midnightblue" d="M1526.71,-336.44C1549.35,-327.52 1585.07,-313.44 1610.75,-303.32"/>
<polygon fill="midnightblue" stroke="midnightblue" points="1612.37,-306.44 1620.39,-299.52 1609.81,-299.93 1612.37,-306.44"/>
</g>
<!-- Node37 -->
<g id="node37" class="node">
<title>Node37</title>
<g id="a_node37"><a xlink:title=" ">
<polygon fill="white" stroke="#bfbfbf" points="1685.5,-280.5 1685.5,-299.5 1738.5,-299.5 1738.5,-280.5 1685.5,-280.5"/>
<text text-anchor="middle" x="1712" y="-287.5" font-family="Helvetica,sans-Serif" font-size="10.00">stdint.h</text>
</a>
</g>
</g>
<!-- Node1&#45;&gt;Node37 -->
<g id="edge58" class="edge">
<title>Node1&#45;&gt;Node37</title>
<path fill="none" stroke="midnightblue" d="M1537.8,-336.44C1575.26,-326.67 1636.4,-310.72 1675.39,-300.55"/>
<polygon fill="midnightblue" stroke="midnightblue" points="1676.49,-303.88 1685.28,-297.97 1674.72,-297.11 1676.49,-303.88"/>
</g>
<!-- Node3 -->
<g id="node3" class="node">
<title>Node3</title>
<g id="a_node3"><a xlink:href="ccf__assert_8h.html" target="_top" xlink:title=" ">
<polygon fill="white" stroke="black" points="562,-224.5 562,-243.5 654,-243.5 654,-224.5 562,-224.5"/>
<text text-anchor="middle" x="608" y="-231.5" font-family="Helvetica,sans-Serif" font-size="10.00">ccf/ccf_assert.h</text>
</a>
</g>
</g>
<!-- Node2&#45;&gt;Node3 -->
<g id="edge2" class="edge">
<title>Node2&#45;&gt;Node3</title>
<path fill="none" stroke="midnightblue" d="M681.02,-280.32C667.45,-271.9 646.62,-258.97 630.68,-249.07"/>
<polygon fill="midnightblue" stroke="midnightblue" points="632.29,-245.95 621.94,-243.65 628.59,-251.9 632.29,-245.95"/>
</g>
<!-- Node10 -->
<g id="node10" class="node">
<title>Node10</title>
<g id="a_node10"><a xlink:title=" ">
<polygon fill="white" stroke="#bfbfbf" points="205,-56.5 205,-75.5 243,-75.5 243,-56.5 205,-56.5"/>
<text text-anchor="middle" x="224" y="-63.5" font-family="Helvetica,sans-Serif" font-size="10.00">map</text>
</a>
</g>
</g>
<!-- Node2&#45;&gt;Node10 -->
<g id="edge50" class="edge">
<title>Node2&#45;&gt;Node10</title>
<path fill="none" stroke="midnightblue" d="M668.44,-285.47C568.74,-271.61 219.18,-217.5 155,-132 139.23,-110.99 169.95,-90.91 195.31,-78.77"/>
<polygon fill="midnightblue" stroke="midnightblue" points="197.01,-81.84 204.66,-74.52 194.11,-75.47 197.01,-81.84"/>
</g>
<!-- Node15 -->
<g id="node15" class="node">
<title>Node15</title>
<g id="a_node15"><a xlink:title=" ">
<polygon fill="white" stroke="#bfbfbf" points="733,-112.5 733,-131.5 789,-131.5 789,-112.5 733,-112.5"/>
<text text-anchor="middle" x="761" y="-119.5" font-family="Helvetica,sans-Serif" font-size="10.00">optional</text>
</a>
</g>
</g>
<!-- Node2&#45;&gt;Node15 -->
<g id="edge52" class="edge">
<title>Node2&#45;&gt;Node15</title>
<path fill="none" stroke="midnightblue" d="M697.06,-280.45C700.19,-267.9 706.55,-243.81 714,-224 723.65,-198.31 728.42,-192.88 740,-168 744.19,-159 748.86,-148.99 752.73,-140.7"/>
<polygon fill="midnightblue" stroke="midnightblue" points="755.91,-142.17 756.97,-131.62 749.57,-139.2 755.91,-142.17"/>
</g>
<!-- Node18 -->
<g id="node18" class="node">
<title>Node18</title>
<g id="a_node18"><a xlink:href="sha256__hash_8h.html" target="_top" xlink:title=" ">
<polygon fill="white" stroke="black" points="723,-224.5 723,-243.5 863,-243.5 863,-224.5 723,-224.5"/>
<text text-anchor="middle" x="793" y="-231.5" font-family="Helvetica,sans-Serif" font-size="10.00">ccf/crypto/sha256_hash.h</text>
</a>
</g>
</g>
<!-- Node2&#45;&gt;Node18 -->
<g id="edge19" class="edge">
<title>Node2&#45;&gt;Node18</title>
<path fill="none" stroke="midnightblue" d="M710.75,-280.32C726.32,-271.74 750.38,-258.49 768.46,-248.52"/>
<polygon fill="midnightblue" stroke="midnightblue" points="770.22,-251.55 777.29,-243.65 766.85,-245.42 770.22,-251.55"/>
</g>
<!-- Node21 -->
<g id="node21" class="node">
<title>Node21</title>
<g id="a_node21"><a xlink:title=" ">
<polygon fill="white" stroke="#bfbfbf" points="1284,-0.5 1284,-19.5 1328,-19.5 1328,-0.5 1284,-0.5"/>
<text text-anchor="middle" x="1306" y="-7.5" font-family="Helvetica,sans-Serif" font-size="10.00">string</text>
</a>
</g>
</g>
<!-- Node2&#45;&gt;Node21 -->
<g id="edge53" class="edge">
<title>Node2&#45;&gt;Node21</title>
<path fill="none" stroke="midnightblue" d="M721.92,-287.85C853.98,-281.88 1427,-251.77 1427,-179 1427,-179 1427,-179 1427,-121 1427,-90.9 1427.84,-78.63 1408,-56 1389.96,-35.43 1360.75,-23.86 1338.2,-17.61"/>
<polygon fill="midnightblue" stroke="midnightblue" points="1338.92,-14.19 1328.37,-15.11 1337.19,-20.97 1338.92,-14.19"/>
</g>
<!-- Node30 -->
<g id="node30" class="node">
<title>Node30</title>
<g id="a_node30"><a xlink:href="tx__id_8h.html" target="_top" xlink:title=" ">
<polygon fill="white" stroke="black" points="1049.5,-224.5 1049.5,-243.5 1116.5,-243.5 1116.5,-224.5 1049.5,-224.5"/>
<text text-anchor="middle" x="1083" y="-231.5" font-family="Helvetica,sans-Serif" font-size="10.00">ccf/tx_id.h</text>
</a>
</g>
</g>
<!-- Node2&#45;&gt;Node30 -->
<g id="edge40" class="edge">
<title>Node2&#45;&gt;Node30</title>
<path fill="none" stroke="midnightblue" d="M721.67,-285.29C787.46,-276.13 958.01,-252.4 1039.03,-241.12"/>
<polygon fill="midnightblue" stroke="midnightblue" points="1039.96,-244.52 1049.38,-239.68 1038.99,-237.59 1039.96,-244.52"/>
</g>
<!-- Node33 -->
<g id="node33" class="node">
<title>Node33</title>
<g id="a_node33"><a xlink:title=" ">
<polygon fill="white" stroke="#bfbfbf" points="0,-224.5 0,-243.5 32,-243.5 32,-224.5 0,-224.5"/>
<text text-anchor="middle" x="16" y="-231.5" font-family="Helvetica,sans-Serif" font-size="10.00">list</text>
</a>
</g>
</g>
<!-- Node2&#45;&gt;Node33 -->
<g id="edge49" class="edge">
<title>Node2&#45;&gt;Node33</title>
<path fill="none" stroke="midnightblue" d="M668.21,-288.14C563.76,-284.66 183.16,-270.55 42.33,-243.62"/>
<polygon fill="midnightblue" stroke="midnightblue" points="42.71,-240.12 32.22,-241.57 41.33,-246.98 42.71,-240.12"/>
</g>
<!-- Node34 -->
<g id="node34" class="node">
<title>Node34</title>
<g id="a_node34"><a xlink:title=" ">
<polygon fill="white" stroke="#bfbfbf" points="50,-224.5 50,-243.5 108,-243.5 108,-224.5 50,-224.5"/>
<text text-anchor="middle" x="79" y="-231.5" font-family="Helvetica,sans-Serif" font-size="10.00">memory</text>
</a>
</g>
</g>
<!-- Node2&#45;&gt;Node34 -->
<g id="edge51" class="edge">
<title>Node2&#45;&gt;Node34</title>
<path fill="none" stroke="midnightblue" d="M668.31,-288.12C586.34,-285.15 331.16,-273.98 122,-244 120.73,-243.82 119.43,-243.62 118.13,-243.41"/>
<polygon fill="midnightblue" stroke="midnightblue" points="118.52,-239.92 108.05,-241.61 117.28,-246.81 118.52,-239.92"/>
</g>
<!-- Node4 -->
<g id="node4" class="node">
<title>Node4</title>
<g id="a_node4"><a xlink:href="logger_8h.html" target="_top" xlink:title=" ">
<polygon fill="white" stroke="black" points="546.5,-168.5 546.5,-187.5 633.5,-187.5 633.5,-168.5 546.5,-168.5"/>
<text text-anchor="middle" x="590" y="-175.5" font-family="Helvetica,sans-Serif" font-size="10.00">ccf/ds/logger.h</text>
</a>
</g>
</g>
<!-- Node3&#45;&gt;Node4 -->
<g id="edge3" class="edge">
<title>Node3&#45;&gt;Node4</title>
<path fill="none" stroke="midnightblue" d="M605.03,-224.08C602.62,-216.85 599.14,-206.41 596.13,-197.4"/>
<polygon fill="midnightblue" stroke="midnightblue" points="599.4,-196.13 592.92,-187.75 592.76,-198.34 599.4,-196.13"/>
</g>
<!-- Node5 -->
<g id="node5" class="node">
<title>Node5</title>
<g id="a_node5"><a xlink:href="enum__formatter_8h.html" target="_top" xlink:title=" ">
<polygon fill="white" stroke="black" points="503,-112.5 503,-131.5 639,-131.5 639,-112.5 503,-112.5"/>
<text text-anchor="middle" x="571" y="-119.5" font-family="Helvetica,sans-Serif" font-size="10.00">ccf/ds/enum_formatter.h</text>
</a>
</g>
</g>
<!-- Node4&#45;&gt;Node5 -->
<g id="edge4" class="edge">
<title>Node4&#45;&gt;Node5</title>
<path fill="none" stroke="midnightblue" d="M586.86,-168.08C584.32,-160.85 580.64,-150.41 577.47,-141.4"/>
<polygon fill="midnightblue" stroke="midnightblue" points="580.7,-140.02 574.08,-131.75 574.1,-142.35 580.7,-140.02"/>
</g>
<!-- Node6 -->
<g id="node6" class="node">
<title>Node6</title>
<g id="a_node6"><a xlink:title=" ">
<polygon fill="white" stroke="#bfbfbf" points="777.5,-56.5 777.5,-75.5 856.5,-75.5 856.5,-56.5 777.5,-56.5"/>
<text text-anchor="middle" x="817" y="-63.5" font-family="Helvetica,sans-Serif" font-size="10.00">fmt/format.h</text>
</a>
</g>
</g>
<!-- Node4&#45;&gt;Node6 -->
<g id="edge13" class="edge">
<title>Node4&#45;&gt;Node6</title>
<path fill="none" stroke="midnightblue" d="M601.31,-168.49C619.46,-155.11 656.58,-128.94 691,-112 718.96,-98.23 752.23,-86.54 777.56,-78.52"/>
<polygon fill="midnightblue" stroke="midnightblue" points="778.68,-81.84 787.19,-75.53 776.61,-75.15 778.68,-81.84"/>
</g>
<!-- Node7 -->
<g id="node7" class="node">
<title>Node7</title>
<g id="a_node7"><a xlink:href="thread__ids_8h.html" target="_top" xlink:title=" ">
<polygon fill="white" stroke="black" points="377,-112.5 377,-131.5 485,-131.5 485,-112.5 377,-112.5"/>
<text text-anchor="middle" x="431" y="-119.5" font-family="Helvetica,sans-Serif" font-size="10.00">ccf/ds/thread_ids.h</text>
</a>
</g>
</g>
<!-- Node4&#45;&gt;Node7 -->
<g id="edge6" class="edge">
<title>Node4&#45;&gt;Node7</title>
<path fill="none" stroke="midnightblue" d="M564.81,-168.44C538.06,-159.36 495.6,-144.94 465.69,-134.78"/>
<polygon fill="midnightblue" stroke="midnightblue" points="466.67,-131.42 456.08,-131.52 464.42,-138.05 466.67,-131.42"/>
</g>
<!-- Node12 -->
<g id="node12" class="node">
<title>Node12</title>
<g id="a_node12"><a xlink:title=" ">
<polygon fill="white" stroke="#bfbfbf" points="164.5,-112.5 164.5,-131.5 243.5,-131.5 243.5,-112.5 164.5,-112.5"/>
<text text-anchor="middle" x="204" y="-119.5" font-family="Helvetica,sans-Serif" font-size="10.00">fmt/chrono.h</text>
</a>
</g>
</g>
<!-- Node4&#45;&gt;Node12 -->
<g id="edge12" class="edge">
<title>Node4&#45;&gt;Node12</title>
<path fill="none" stroke="midnightblue" d="M546.41,-171.95C483.81,-164.52 364.61,-149.78 253.55,-132.18"/>
<polygon fill="midnightblue" stroke="midnightblue" points="253.95,-128.7 243.52,-130.58 252.85,-135.61 253.95,-128.7"/>
</g>
<!-- Node13 -->
<g id="node13" class="node">
<title>Node13</title>
<g id="a_node13"><a xlink:title=" ">
<polygon fill="white" stroke="#bfbfbf" points="261,-112.5 261,-131.5 321,-131.5 321,-112.5 261,-112.5"/>
<text text-anchor="middle" x="291" y="-119.5" font-family="Helvetica,sans-Serif" font-size="10.00">iostream</text>
</a>
</g>
</g>
<!-- Node4&#45;&gt;Node13 -->
<g id="edge14" class="edge">
<title>Node4&#45;&gt;Node13</title>
<path fill="none" stroke="midnightblue" d="M546.17,-169.64C495.31,-161.01 408.97,-146.09 335,-132 333.75,-131.76 332.48,-131.52 331.2,-131.27"/>
<polygon fill="midnightblue" stroke="midnightblue" points="331.76,-127.81 321.28,-129.3 330.41,-134.68 331.76,-127.81"/>
</g>
<!-- Node14 -->
<g id="node14" class="node">
<title>Node14</title>
<g id="a_node14"><a xlink:title=" ">
<polygon fill="white" stroke="#bfbfbf" points="1083,-56.5 1083,-75.5 1193,-75.5 1193,-56.5 1083,-56.5"/>
<text text-anchor="middle" x="1138" y="-63.5" font-family="Helvetica,sans-Serif" font-size="10.00">nlohmann/json.hpp</text>
</a>
</g>
</g>
<!-- Node4&#45;&gt;Node14 -->
<g id="edge15" class="edge">
<title>Node4&#45;&gt;Node14</title>
<path fill="none" stroke="midnightblue" d="M609.73,-168.47C629.68,-159.73 661.28,-145.53 688,-132 704.33,-123.73 706.54,-117.49 724,-112 870.11,-66.03 916.86,-93.7 1072.91,-76.06"/>
<polygon fill="midnightblue" stroke="midnightblue" points="1073.34,-79.53 1082.86,-74.89 1072.52,-72.58 1073.34,-79.53"/>
</g>
<!-- Node4&#45;&gt;Node15 -->
<g id="edge16" class="edge">
<title>Node4&#45;&gt;Node15</title>
<path fill="none" stroke="midnightblue" d="M617.1,-168.44C645.99,-159.32 691.92,-144.81 724.11,-134.65"/>
<polygon fill="midnightblue" stroke="midnightblue" points="725.55,-137.87 734.03,-131.52 723.44,-131.19 725.55,-137.87"/>
</g>
<!-- Node16 -->
<g id="node16" class="node">
<title>Node16</title>
<g id="a_node16"><a xlink:title=" ">
<polygon fill="white" stroke="#bfbfbf" points="845,-112.5 845,-131.5 901,-131.5 901,-112.5 845,-112.5"/>
<text text-anchor="middle" x="873" y="-119.5" font-family="Helvetica,sans-Serif" font-size="10.00">sstream</text>
</a>
</g>
</g>
<!-- Node4&#45;&gt;Node16 -->
<g id="edge17" class="edge">
<title>Node4&#45;&gt;Node16</title>
<path fill="none" stroke="midnightblue" d="M633.6,-168.68C688.69,-158.17 782.61,-140.25 834.94,-130.26"/>
<polygon fill="midnightblue" stroke="midnightblue" points="835.66,-133.69 844.83,-128.38 834.35,-126.81 835.66,-133.69"/>
</g>
<!-- Node17 -->
<g id="node17" class="node">
<title>Node17</title>
<g id="a_node17"><a xlink:title=" ">
<polygon fill="white" stroke="#bfbfbf" points="626.5,-0.5 626.5,-19.5 695.5,-19.5 695.5,-0.5 626.5,-0.5"/>
<text text-anchor="middle" x="661" y="-7.5" font-family="Helvetica,sans-Serif" font-size="10.00">type_traits</text>
</a>
</g>
</g>
<!-- Node4&#45;&gt;Node17 -->
<g id="edge18" class="edge">
<title>Node4&#45;&gt;Node17</title>
<path fill="none" stroke="midnightblue" d="M546.41,-174.52C488.27,-170.2 390.09,-159.02 368,-132 356.83,-118.34 351.5,-79.62 374,-56 406.45,-21.93 544.04,-13.62 616.28,-11.62"/>
<polygon fill="midnightblue" stroke="midnightblue" points="616.54,-15.11 626.45,-11.36 616.37,-8.11 616.54,-15.11"/>
</g>
<!-- Node5&#45;&gt;Node6 -->
<g id="edge5" class="edge">
<title>Node5&#45;&gt;Node6</title>
<path fill="none" stroke="midnightblue" d="M609.98,-112.44C652.89,-103.02 721.95,-87.87 768.37,-77.68"/>
<polygon fill="midnightblue" stroke="midnightblue" points="769.19,-81.08 778.2,-75.52 767.69,-74.24 769.19,-81.08"/>
</g>
<!-- Node7&#45;&gt;Node6 -->
<g id="edge7" class="edge">
<title>Node7&#45;&gt;Node6</title>
<path fill="none" stroke="midnightblue" d="M485.29,-113.23C488.24,-112.81 491.16,-112.4 494,-112 590.65,-98.36 703.62,-82.68 767.08,-73.9"/>
<polygon fill="midnightblue" stroke="midnightblue" points="767.79,-77.34 777.21,-72.5 766.83,-70.4 767.79,-77.34"/>
</g>
<!-- Node8 -->
<g id="node8" class="node">
<title>Node8</title>
<g id="a_node8"><a xlink:title=" ">
<polygon fill="white" stroke="#bfbfbf" points="383,-56.5 383,-75.5 469,-75.5 469,-56.5 383,-56.5"/>
<text text-anchor="middle" x="426" y="-63.5" font-family="Helvetica,sans-Serif" font-size="10.00">fmt/ostream.h</text>
</a>
</g>
</g>
<!-- Node7&#45;&gt;Node8 -->
<g id="edge8" class="edge">
<title>Node7&#45;&gt;Node8</title>
<path fill="none" stroke="midnightblue" d="M430.17,-112.08C429.52,-105.01 428.58,-94.86 427.76,-85.99"/>
<polygon fill="midnightblue" stroke="midnightblue" points="431.22,-85.39 426.81,-75.75 424.25,-86.03 431.22,-85.39"/>
</g>
<!-- Node7&#45;&gt;Node9 -->
<g id="edge9" class="edge">
<title>Node7&#45;&gt;Node9</title>
<path fill="none" stroke="midnightblue" d="M485.27,-112.99C488.22,-112.64 491.14,-112.3 494,-112 720.24,-88.01 783.02,-115.6 1010.86,-75.82"/>
<polygon fill="midnightblue" stroke="midnightblue" points="1011.55,-79.25 1020.78,-74.06 1010.33,-72.36 1011.55,-79.25"/>
</g>
<!-- Node7&#45;&gt;Node10 -->
<g id="edge10" class="edge">
<title>Node7&#45;&gt;Node10</title>
<path fill="none" stroke="midnightblue" d="M398.2,-112.44C358.19,-102.01 291.17,-84.52 252.97,-74.56"/>
<polygon fill="midnightblue" stroke="midnightblue" points="253.57,-71.1 243.01,-71.96 251.8,-77.87 253.57,-71.1"/>
</g>
<!-- Node11 -->
<g id="node11" class="node">
<title>Node11</title>
<g id="a_node11"><a xlink:title=" ">
<polygon fill="white" stroke="#bfbfbf" points="487,-56.5 487,-75.5 535,-75.5 535,-56.5 487,-56.5"/>
<text text-anchor="middle" x="511" y="-63.5" font-family="Helvetica,sans-Serif" font-size="10.00">thread</text>
</a>
</g>
</g>
<!-- Node7&#45;&gt;Node11 -->
<g id="edge11" class="edge">
<title>Node7&#45;&gt;Node11</title>
<path fill="none" stroke="midnightblue" d="M443.85,-112.32C456.22,-103.98 475.13,-91.21 489.74,-81.35"/>
<polygon fill="midnightblue" stroke="midnightblue" points="491.85,-84.15 498.18,-75.65 487.93,-78.35 491.85,-84.15"/>
</g>
<!-- Node18&#45;&gt;Node6 -->
<g id="edge39" class="edge">
<title>Node18&#45;&gt;Node6</title>
<path fill="none" stroke="midnightblue" d="M794.29,-224.08C798.07,-197.95 809.16,-121.21 814.31,-85.58"/>
<polygon fill="midnightblue" stroke="midnightblue" points="817.79,-85.97 815.76,-75.57 810.87,-84.96 817.79,-85.97"/>
</g>
<!-- Node19 -->
<g id="node19" class="node">
<title>Node19</title>
<g id="a_node19"><a xlink:href="json_8h.html" target="_top" xlink:title=" ">
<polygon fill="white" stroke="black" points="883.5,-168.5 883.5,-187.5 960.5,-187.5 960.5,-168.5 883.5,-168.5"/>
<text text-anchor="middle" x="922" y="-175.5" font-family="Helvetica,sans-Serif" font-size="10.00">ccf/ds/json.h</text>
</a>
</g>
</g>
<!-- Node18&#45;&gt;Node19 -->
<g id="edge20" class="edge">
<title>Node18&#45;&gt;Node19</title>
<path fill="none" stroke="midnightblue" d="M813.44,-224.44C834.67,-215.56 868.1,-201.56 892.25,-191.45"/>
<polygon fill="midnightblue" stroke="midnightblue" points="893.78,-194.61 901.66,-187.52 891.08,-188.15 893.78,-194.61"/>
</g>
<!-- Node26 -->
<g id="node26" class="node">
<title>Node26</title>
<g id="a_node26"><a xlink:title=" ">
<polygon fill="white" stroke="#bfbfbf" points="216,-0.5 216,-19.5 258,-19.5 258,-0.5 216,-0.5"/>
<text text-anchor="middle" x="237" y="-7.5" font-family="Helvetica,sans-Serif" font-size="10.00">array</text>
</a>
</g>
</g>
<!-- Node18&#45;&gt;Node26 -->
<g id="edge37" class="edge">
<title>Node18&#45;&gt;Node26</title>
<path fill="none" stroke="midnightblue" d="M722.97,-227C564.96,-212.77 191.64,-174.9 155,-132 124.44,-96.22 181.17,-48.79 214.77,-25.36"/>
<polygon fill="midnightblue" stroke="midnightblue" points="216.84,-28.19 223.15,-19.68 212.91,-22.39 216.84,-28.19"/>
</g>
<!-- Node29 -->
<g id="node29" class="node">
<title>Node29</title>
<g id="a_node29"><a xlink:title=" ">
<polygon fill="white" stroke="#bfbfbf" points="749,-168.5 749,-187.5 789,-187.5 789,-168.5 749,-168.5"/>
<text text-anchor="middle" x="769" y="-175.5" font-family="Helvetica,sans-Serif" font-size="10.00">span</text>
</a>
</g>
</g>
<!-- Node18&#45;&gt;Node29 -->
<g id="edge38" class="edge">
<title>Node18&#45;&gt;Node29</title>
<path fill="none" stroke="midnightblue" d="M789.04,-224.08C785.79,-216.77 781.08,-206.18 777.05,-197.1"/>
<polygon fill="midnightblue" stroke="midnightblue" points="780.15,-195.47 772.89,-187.75 773.75,-198.31 780.15,-195.47"/>
</g>
<!-- Node19&#45;&gt;Node6 -->
<g id="edge35" class="edge">
<title>Node19&#45;&gt;Node6</title>
<path fill="none" stroke="midnightblue" d="M922.72,-168.45C923.4,-155.02 922.8,-128.79 910,-112 898.16,-96.47 879.58,-86.02 862.13,-79.12"/>
<polygon fill="midnightblue" stroke="midnightblue" points="863.19,-75.79 852.6,-75.65 860.8,-82.36 863.19,-75.79"/>
</g>
<!-- Node19&#45;&gt;Node16 -->
<g id="edge36" class="edge">
<title>Node19&#45;&gt;Node16</title>
<path fill="none" stroke="midnightblue" d="M913.91,-168.08C906.84,-160.3 896.41,-148.8 887.85,-139.37"/>
<polygon fill="midnightblue" stroke="midnightblue" points="890.25,-136.8 880.94,-131.75 885.07,-141.51 890.25,-136.8"/>
</g>
<!-- Node20 -->
<g id="node20" class="node">
<title>Node20</title>
<g id="a_node20"><a xlink:href="include_2ccf_2crypto_2base64_8h.html" target="_top" xlink:title=" ">
<polygon fill="white" stroke="black" points="1287,-56.5 1287,-75.5 1399,-75.5 1399,-56.5 1287,-56.5"/>
<text text-anchor="middle" x="1343" y="-63.5" font-family="Helvetica,sans-Serif" font-size="10.00">ccf/crypto/base64.h</text>
</a>
</g>
</g>
<!-- Node19&#45;&gt;Node20 -->
<g id="edge21" class="edge">
<title>Node19&#45;&gt;Node20</title>
<path fill="none" stroke="midnightblue" d="M960.74,-169.27C1001.73,-160.9 1068.22,-146.74 1125,-132 1189.59,-115.24 1263.88,-92.29 1306.93,-78.62"/>
<polygon fill="midnightblue" stroke="midnightblue" points="1308.2,-81.89 1316.66,-75.52 1306.07,-75.22 1308.2,-81.89"/>
</g>
<!-- Node23 -->
<g id="node23" class="node">
<title>Node23</title>
<g id="a_node23"><a xlink:href="include_2ccf_2ds_2json__schema_8h.html" target="_top" xlink:title=" ">
<polygon fill="white" stroke="black" points="995.5,-112.5 995.5,-131.5 1116.5,-131.5 1116.5,-112.5 995.5,-112.5"/>
<text text-anchor="middle" x="1056" y="-119.5" font-family="Helvetica,sans-Serif" font-size="10.00">ccf/ds/json_schema.h</text>
</a>
</g>
</g>
<!-- Node19&#45;&gt;Node23 -->
<g id="edge24" class="edge">
<title>Node19&#45;&gt;Node23</title>
<path fill="none" stroke="midnightblue" d="M943.23,-168.44C965.38,-159.52 1000.32,-145.44 1025.44,-135.32"/>
<polygon fill="midnightblue" stroke="midnightblue" points="1026.9,-138.5 1034.87,-131.52 1024.28,-132.01 1026.9,-138.5"/>
</g>
<!-- Node20&#45;&gt;Node21 -->
<g id="edge22" class="edge">
<title>Node20&#45;&gt;Node21</title>
<path fill="none" stroke="midnightblue" d="M1336.89,-56.08C1331.72,-48.53 1324.15,-37.49 1317.81,-28.23"/>
<polygon fill="midnightblue" stroke="midnightblue" points="1320.54,-26.02 1312,-19.75 1314.76,-29.98 1320.54,-26.02"/>
</g>
<!-- Node20&#45;&gt;Node22 -->
<g id="edge23" class="edge">
<title>Node20&#45;&gt;Node22</title>
<path fill="none" stroke="midnightblue" d="M1349.11,-56.08C1354.28,-48.53 1361.85,-37.49 1368.19,-28.23"/>
<polygon fill="midnightblue" stroke="midnightblue" points="1371.24,-29.98 1374,-19.75 1365.46,-26.02 1371.24,-29.98"/>
</g>
<!-- Node23&#45;&gt;Node6 -->
<g id="edge33" class="edge">
<title>Node23&#45;&gt;Node6</title>
<path fill="none" stroke="midnightblue" d="M1018.13,-112.44C976.52,-103.04 909.63,-87.93 864.53,-77.74"/>
<polygon fill="midnightblue" stroke="midnightblue" points="865.22,-74.31 854.69,-75.52 863.68,-81.13 865.22,-74.31"/>
</g>
<!-- Node23&#45;&gt;Node14 -->
<g id="edge34" class="edge">
<title>Node23&#45;&gt;Node14</title>
<path fill="none" stroke="midnightblue" d="M1069.17,-112.32C1081.85,-103.98 1101.23,-91.21 1116.21,-81.35"/>
<polygon fill="midnightblue" stroke="midnightblue" points="1118.43,-84.08 1124.86,-75.65 1114.58,-78.23 1118.43,-84.08"/>
</g>
<!-- Node24 -->
<g id="node24" class="node">
<title>Node24</title>
<g id="a_node24"><a xlink:href="nonstd_8h.html" target="_top" xlink:title=" ">
<polygon fill="white" stroke="black" points="913,-56.5 913,-75.5 1003,-75.5 1003,-56.5 913,-56.5"/>
<text text-anchor="middle" x="958" y="-63.5" font-family="Helvetica,sans-Serif" font-size="10.00">ccf/ds/nonstd.h</text>
</a>
</g>
</g>
<!-- Node23&#45;&gt;Node24 -->
<g id="edge25" class="edge">
<title>Node23&#45;&gt;Node24</title>
<path fill="none" stroke="midnightblue" d="M1040.25,-112.32C1024.68,-103.74 1000.62,-90.49 982.54,-80.52"/>
<polygon fill="midnightblue" stroke="midnightblue" points="984.15,-77.42 973.71,-75.65 980.78,-83.55 984.15,-77.42"/>
</g>
<!-- Node24&#45;&gt;Node17 -->
<g id="edge31" class="edge">
<title>Node24&#45;&gt;Node17</title>
<path fill="none" stroke="midnightblue" d="M912.89,-56.8C856.83,-46.6 761.73,-29.31 705.8,-19.15"/>
<polygon fill="midnightblue" stroke="midnightblue" points="706.3,-15.68 695.84,-17.33 705.05,-22.57 706.3,-15.68"/>
</g>
<!-- Node24&#45;&gt;Node21 -->
<g id="edge29" class="edge">
<title>Node24&#45;&gt;Node21</title>
<path fill="none" stroke="midnightblue" d="M1003.07,-57.44C1006.09,-56.95 1009.09,-56.47 1012,-56 1107.13,-40.79 1219.74,-23.85 1273.84,-15.78"/>
<polygon fill="midnightblue" stroke="midnightblue" points="1274.48,-19.22 1283.86,-14.29 1273.45,-12.3 1274.48,-19.22"/>
</g>
<!-- Node24&#45;&gt;Node22 -->
<g id="edge32" class="edge">
<title>Node24&#45;&gt;Node22</title>
<path fill="none" stroke="midnightblue" d="M1003.05,-57.3C1006.08,-56.84 1009.08,-56.4 1012,-56 1155.95,-36.05 1193.49,-42.91 1337,-20 1340.06,-19.51 1343.24,-18.95 1346.42,-18.35"/>
<polygon fill="midnightblue" stroke="midnightblue" points="1347.29,-21.75 1356.42,-16.36 1345.93,-14.88 1347.29,-21.75"/>
</g>
<!-- Node25 -->
<g id="node25" class="node">
<title>Node25</title>
<g id="a_node25"><a xlink:title=" ">
<polygon fill="white" stroke="#bfbfbf" points="889,-0.5 889,-19.5 953,-19.5 953,-0.5 889,-0.5"/>
<text text-anchor="middle" x="921" y="-7.5" font-family="Helvetica,sans-Serif" font-size="10.00">algorithm</text>
</a>
</g>
</g>
<!-- Node24&#45;&gt;Node25 -->
<g id="edge26" class="edge">
<title>Node24&#45;&gt;Node25</title>
<path fill="none" stroke="midnightblue" d="M951.89,-56.08C946.72,-48.53 939.15,-37.49 932.81,-28.23"/>
<polygon fill="midnightblue" stroke="midnightblue" points="935.54,-26.02 927,-19.75 929.76,-29.98 935.54,-26.02"/>
</g>
<!-- Node24&#45;&gt;Node26 -->
<g id="edge27" class="edge">
<title>Node24&#45;&gt;Node26</title>
<path fill="none" stroke="midnightblue" d="M912.61,-60.38C897.47,-58.9 880.52,-57.31 865,-56 636.07,-36.72 359.74,-18.77 268.15,-12.96"/>
<polygon fill="midnightblue" stroke="midnightblue" points="268.36,-9.46 258.16,-12.32 267.92,-16.45 268.36,-9.46"/>
</g>
<!-- Node27 -->
<g id="node27" class="node">
<title>Node27</title>
<g id="a_node27"><a xlink:title=" ">
<polygon fill="white" stroke="#bfbfbf" points="971.5,-0.5 971.5,-19.5 1020.5,-19.5 1020.5,-0.5 971.5,-0.5"/>
<text text-anchor="middle" x="996" y="-7.5" font-family="Helvetica,sans-Serif" font-size="10.00">cctype</text>
</a>
</g>
</g>
<!-- Node24&#45;&gt;Node27 -->
<g id="edge28" class="edge">
<title>Node24&#45;&gt;Node27</title>
<path fill="none" stroke="midnightblue" d="M964.27,-56.08C969.64,-48.46 977.52,-37.26 984.08,-27.94"/>
<polygon fill="midnightblue" stroke="midnightblue" points="986.95,-29.94 989.84,-19.75 981.22,-25.91 986.95,-29.94"/>
</g>
<!-- Node28 -->
<g id="node28" class="node">
<title>Node28</title>
<g id="a_node28"><a xlink:title=" ">
<polygon fill="white" stroke="#bfbfbf" points="1147.5,-0.5 1147.5,-19.5 1220.5,-19.5 1220.5,-0.5 1147.5,-0.5"/>
<text text-anchor="middle" x="1184" y="-7.5" font-family="Helvetica,sans-Serif" font-size="10.00">string_view</text>
</a>
</g>
</g>
<!-- Node24&#45;&gt;Node28 -->
<g id="edge30" class="edge">
<title>Node24&#45;&gt;Node28</title>
<path fill="none" stroke="midnightblue" d="M993.81,-56.44C1032.99,-47.08 1095.88,-32.06 1138.52,-21.87"/>
<polygon fill="midnightblue" stroke="midnightblue" points="1139.44,-25.24 1148.36,-19.52 1137.82,-18.44 1139.44,-25.24"/>
</g>
<!-- Node30&#45;&gt;Node6 -->
<g id="edge44" class="edge">
<title>Node30&#45;&gt;Node6</title>
<path fill="none" stroke="midnightblue" d="M1093.4,-224.47C1107.94,-211.51 1131.05,-186.43 1117,-168 1080.4,-119.98 1043.36,-150.86 986,-132 936.61,-115.76 880.5,-93.37 846.97,-79.56"/>
<polygon fill="midnightblue" stroke="midnightblue" points="847.89,-76.16 837.32,-75.57 845.22,-82.63 847.89,-76.16"/>
</g>
<!-- Node30&#45;&gt;Node14 -->
<g id="edge45" class="edge">
<title>Node30&#45;&gt;Node14</title>
<path fill="none" stroke="midnightblue" d="M1105.79,-224.47C1121.33,-217.32 1140.71,-205.44 1150,-188 1167.56,-155.06 1155.13,-109.89 1145.77,-85.11"/>
<polygon fill="midnightblue" stroke="midnightblue" points="1148.9,-83.52 1141.92,-75.55 1142.41,-86.13 1148.9,-83.52"/>
</g>
<!-- Node30&#45;&gt;Node15 -->
<g id="edge46" class="edge">
<title>Node30&#45;&gt;Node15</title>
<path fill="none" stroke="midnightblue" d="M1049.14,-228.99C1007.02,-223.28 933.41,-210.84 874,-188 839.62,-174.78 803.28,-152.1 781.37,-137.33"/>
<polygon fill="midnightblue" stroke="midnightblue" points="783.14,-134.3 772.91,-131.53 779.18,-140.07 783.14,-134.3"/>
</g>
<!-- Node30&#45;&gt;Node19 -->
<g id="edge41" class="edge">
<title>Node30&#45;&gt;Node19</title>
<path fill="none" stroke="midnightblue" d="M1057.49,-224.44C1030.4,-215.36 987.41,-200.94 957.13,-190.78"/>
<polygon fill="midnightblue" stroke="midnightblue" points="957.99,-187.38 947.39,-187.52 955.76,-194.01 957.99,-187.38"/>
</g>
<!-- Node30&#45;&gt;Node21 -->
<g id="edge47" class="edge">
<title>Node30&#45;&gt;Node21</title>
<path fill="none" stroke="midnightblue" d="M1116.62,-224.47C1139.21,-217.48 1168.63,-205.8 1190,-188 1197.25,-181.96 1267.58,-71.6 1295.07,-28.27"/>
<polygon fill="midnightblue" stroke="midnightblue" points="1298.13,-29.98 1300.53,-19.66 1292.22,-26.23 1298.13,-29.98"/>
</g>
<!-- Node30&#45;&gt;Node28 -->
<g id="edge48" class="edge">
<title>Node30&#45;&gt;Node28</title>
<path fill="none" stroke="midnightblue" d="M1111.19,-224.47C1129.79,-217.47 1153.34,-205.78 1168,-188 1206.53,-141.25 1213.46,-115.49 1202,-56 1200.21,-46.7 1196.52,-36.89 1192.94,-28.8"/>
<polygon fill="midnightblue" stroke="midnightblue" points="1196.06,-27.21 1188.62,-19.66 1189.73,-30.2 1196.06,-27.21"/>
</g>
<!-- Node31 -->
<g id="node31" class="node">
<title>Node31</title>
<g id="a_node31"><a xlink:title=" ">
<polygon fill="white" stroke="#bfbfbf" points="978.5,-168.5 978.5,-187.5 1039.5,-187.5 1039.5,-168.5 978.5,-168.5"/>
<text text-anchor="middle" x="1009" y="-175.5" font-family="Helvetica,sans-Serif" font-size="10.00">charconv</text>
</a>
</g>
</g>
<!-- Node30&#45;&gt;Node31 -->
<g id="edge42" class="edge">
<title>Node30&#45;&gt;Node31</title>
<path fill="none" stroke="midnightblue" d="M1071.11,-224.32C1059.85,-216.11 1042.71,-203.6 1029.29,-193.81"/>
<polygon fill="midnightblue" stroke="midnightblue" points="1031.25,-190.9 1021.11,-187.83 1027.12,-196.56 1031.25,-190.9"/>
</g>
<!-- Node32 -->
<g id="node32" class="node">
<title>Node32</title>
<g id="a_node32"><a xlink:title=" ">
<polygon fill="white" stroke="#bfbfbf" points="1058,-168.5 1058,-187.5 1108,-187.5 1108,-168.5 1058,-168.5"/>
<text text-anchor="middle" x="1083" y="-175.5" font-family="Helvetica,sans-Serif" font-size="10.00">cstdint</text>
</a>
</g>
</g>
<!-- Node30&#45;&gt;Node32 -->
<g id="edge43" class="edge">
<title>Node30&#45;&gt;Node32</title>
<path fill="none" stroke="midnightblue" d="M1083,-224.08C1083,-217.01 1083,-206.86 1083,-197.99"/>
<polygon fill="midnightblue" stroke="midnightblue" points="1086.5,-197.75 1083,-187.75 1079.5,-197.75 1086.5,-197.75"/>
</g>
<!-- Node35&#45;&gt;Node22 -->
<g id="edge55" class="edge">
<title>Node35&#45;&gt;Node22</title>
<path fill="none" stroke="midnightblue" d="M1543.03,-280.28C1537.03,-261.82 1524,-217.37 1524,-179 1524,-179 1524,-179 1524,-121 1524,-65.66 1456.02,-34.44 1413.47,-20.32"/>
<polygon fill="midnightblue" stroke="midnightblue" points="1414.37,-16.93 1403.78,-17.25 1412.25,-23.6 1414.37,-16.93"/>
</g>
</g>
</svg>
