<?xml version="1.0" encoding="UTF-8" standalone="no"?>
<!DOCTYPE svg PUBLIC "-//W3C//DTD SVG 1.1//EN"
 "http://www.w3.org/Graphics/SVG/1.1/DTD/svg11.dtd">
<!-- Generated by graphviz version 2.43.0 (0)
 -->
<!-- Title: src/indexing/strategies/seqnos_by_key_in_memory.cpp Pages: 1 -->
<!--zoomable 509 -->
<svg id="main" version="1.1" xmlns="http://www.w3.org/2000/svg" xmlns:xlink="http://www.w3.org/1999/xlink" xml:space="preserve" onload="init(evt)">
<style type="text/css"><![CDATA[
.edge:hover path { stroke: red; }
.edge:hover polygon { stroke: red; fill: red; }
]]></style>
<script type="text/javascript"><![CDATA[
var edges = document.getElementsByTagName('g');
if (edges && edges.length) {
  for (var i=0;i<edges.length;i++) {
    if (edges[i].id.substr(0,4)=='edge') {
      edges[i].setAttribute('class','edge');
    }
  }
}
]]></script>
        <defs>
                <circle id="rim" cx="0" cy="0" r="7"/>
                <circle id="rim2" cx="0" cy="0" r="3.5"/>
                <g id="zoomPlus">
                        <use xlink:href="#rim" fill="#404040">
                                <set attributeName="fill" to="#808080" begin="zoomplus.mouseover" end="zoomplus.mouseout"/>
                        </use>
                        <path d="M-4,0h8M0,-4v8" fill="none" stroke="white" stroke-width="1.5" pointer-events="none"/>
                </g>
                <g id="zoomMin">
                        <use xlink:href="#rim" fill="#404040">
                                <set attributeName="fill" to="#808080" begin="zoomminus.mouseover" end="zoomminus.mouseout"/>
                        </use>
                        <path d="M-4,0h8" fill="none" stroke="white" stroke-width="1.5" pointer-events="none"/>
                </g>
                <g id="dirArrow">
                        <path fill="none" stroke="white" stroke-width="1.5" d="M0,-3.0v7 M-2.5,-0.5L0,-3.0L2.5,-0.5"/>
                </g>
               <g id="resetDef">
                       <use xlink:href="#rim2" fill="#404040">
                               <set attributeName="fill" to="#808080" begin="reset.mouseover" end="reset.mouseout"/>
                       </use>
               </g>
        </defs>

<script type="text/javascript">
var viewWidth = 997;
var viewHeight = 509;
var sectionId = 'dynsection-0';
</script>
<script xlink:href="svgpan.js"/>
<svg id="graph" class="graph">
<g id="viewport">
<title>src/indexing/strategies/seqnos_by_key_in_memory.cpp</title>
<polygon fill="white" stroke="transparent" points="-4,4 -4,-505 992.5,-505 992.5,4 -4,4"/>
<!-- Node1 -->
<g id="node1" class="node">
<title>Node1</title>
<g id="a_node1"><a xlink:title=" ">
<polygon fill="#bfbfbf" stroke="black" points="542.5,-470.5 542.5,-500.5 715.5,-500.5 715.5,-470.5 542.5,-470.5"/>
<text text-anchor="start" x="550.5" y="-488.5" font-family="Helvetica,sans-Serif" font-size="10.00">src/indexing/strategies</text>
<text text-anchor="middle" x="629" y="-477.5" font-family="Helvetica,sans-Serif" font-size="10.00">/seqnos_by_key_in_memory.cpp</text>
</a>
</g>
</g>
<!-- Node2 -->
<g id="node2" class="node">
<title>Node2</title>
<g id="a_node2"><a xlink:href="seqnos__by__key__in__memory_8h.html" target="_top" xlink:title=" ">
<polygon fill="white" stroke="black" points="548,-403.5 548,-433.5 710,-433.5 710,-403.5 548,-403.5"/>
<text text-anchor="start" x="556" y="-421.5" font-family="Helvetica,sans-Serif" font-size="10.00">ccf/indexing/strategies</text>
<text text-anchor="middle" x="629" y="-410.5" font-family="Helvetica,sans-Serif" font-size="10.00">/seqnos_by_key_in_memory.h</text>
</a>
</g>
</g>
<!-- Node1&#45;&gt;Node2 -->
<g id="edge1" class="edge">
<title>Node1&#45;&gt;Node2</title>
<path fill="none" stroke="midnightblue" d="M629,-470.4C629,-462.64 629,-452.81 629,-443.86"/>
<polygon fill="midnightblue" stroke="midnightblue" points="632.5,-443.58 629,-433.58 625.5,-443.58 632.5,-443.58"/>
</g>
<!-- Node3 -->
<g id="node3" class="node">
<title>Node3</title>
<g id="a_node3"><a xlink:href="visit__each__entry__in__map_8h.html" target="_top" xlink:title=" ">
<polygon fill="white" stroke="black" points="503,-336.5 503,-366.5 653,-366.5 653,-336.5 503,-336.5"/>
<text text-anchor="start" x="511" y="-354.5" font-family="Helvetica,sans-Serif" font-size="10.00">ccf/indexing/strategies</text>
<text text-anchor="middle" x="578" y="-343.5" font-family="Helvetica,sans-Serif" font-size="10.00">/visit_each_entry_in_map.h</text>
</a>
</g>
</g>
<!-- Node2&#45;&gt;Node3 -->
<g id="edge2" class="edge">
<title>Node2&#45;&gt;Node3</title>
<path fill="none" stroke="midnightblue" d="M617.93,-403.4C611.32,-394.96 602.77,-384.07 595.28,-374.52"/>
<polygon fill="midnightblue" stroke="midnightblue" points="597.97,-372.28 589.04,-366.58 592.46,-376.6 597.97,-372.28"/>
</g>
<!-- Node29 -->
<g id="node29" class="node">
<title>Node29</title>
<g id="a_node29"><a xlink:href="seq__no__collection_8h.html" target="_top" xlink:title=" ">
<polygon fill="white" stroke="black" points="646,-280.5 646,-299.5 776,-299.5 776,-280.5 646,-280.5"/>
<text text-anchor="middle" x="711" y="-287.5" font-family="Helvetica,sans-Serif" font-size="10.00">ccf/seq_no_collection.h</text>
</a>
</g>
</g>
<!-- Node2&#45;&gt;Node29 -->
<g id="edge40" class="edge">
<title>Node2&#45;&gt;Node29</title>
<path fill="none" stroke="midnightblue" d="M638.27,-403.37C644.9,-393.25 654.02,-379.3 662,-367 675.02,-346.93 689.9,-323.83 699.82,-308.41"/>
<polygon fill="midnightblue" stroke="midnightblue" points="702.82,-310.21 705.28,-299.9 696.93,-306.42 702.82,-310.21"/>
</g>
<!-- Node4 -->
<g id="node4" class="node">
<title>Node4</title>
<g id="a_node4"><a xlink:href="byte__vector_8h.html" target="_top" xlink:title=" ">
<polygon fill="white" stroke="black" points="528,-280.5 528,-299.5 628,-299.5 628,-280.5 528,-280.5"/>
<text text-anchor="middle" x="578" y="-287.5" font-family="Helvetica,sans-Serif" font-size="10.00">ccf/byte_vector.h</text>
</a>
</g>
</g>
<!-- Node3&#45;&gt;Node4 -->
<g id="edge3" class="edge">
<title>Node3&#45;&gt;Node4</title>
<path fill="none" stroke="midnightblue" d="M578,-336.4C578,-328.47 578,-318.46 578,-309.86"/>
<polygon fill="midnightblue" stroke="midnightblue" points="581.5,-309.66 578,-299.66 574.5,-309.66 581.5,-309.66"/>
</g>
<!-- Node11 -->
<g id="node11" class="node">
<title>Node11</title>
<g id="a_node11"><a xlink:href="strategy_8h.html" target="_top" xlink:title=" ">
<polygon fill="white" stroke="black" points="284.5,-280.5 284.5,-299.5 411.5,-299.5 411.5,-280.5 284.5,-280.5"/>
<text text-anchor="middle" x="348" y="-287.5" font-family="Helvetica,sans-Serif" font-size="10.00">ccf/indexing/strategy.h</text>
</a>
</g>
</g>
<!-- Node3&#45;&gt;Node11 -->
<g id="edge10" class="edge">
<title>Node3&#45;&gt;Node11</title>
<path fill="none" stroke="midnightblue" d="M523.78,-336.47C483.24,-325.99 428.55,-311.84 390.99,-302.12"/>
<polygon fill="midnightblue" stroke="midnightblue" points="391.44,-298.62 380.88,-299.51 389.69,-305.4 391.44,-298.62"/>
</g>
<!-- Node5 -->
<g id="node5" class="node">
<title>Node5</title>
<g id="a_node5"><a xlink:href="siphash_8h.html" target="_top" xlink:title=" ">
<polygon fill="white" stroke="black" points="200.5,-224.5 200.5,-243.5 295.5,-243.5 295.5,-224.5 200.5,-224.5"/>
<text text-anchor="middle" x="248" y="-231.5" font-family="Helvetica,sans-Serif" font-size="10.00">ccf/ds/siphash.h</text>
</a>
</g>
</g>
<!-- Node4&#45;&gt;Node5 -->
<g id="edge4" class="edge">
<title>Node4&#45;&gt;Node5</title>
<path fill="none" stroke="midnightblue" d="M527.88,-280.8C468.19,-271.03 368.67,-254.75 305.79,-244.46"/>
<polygon fill="midnightblue" stroke="midnightblue" points="306.07,-240.96 295.64,-242.8 304.94,-247.86 306.07,-240.96"/>
</g>
<!-- Node9 -->
<g id="node9" class="node">
<title>Node9</title>
<g id="a_node9"><a xlink:title=" ">
<polygon fill="white" stroke="#bfbfbf" points="625.5,-56.5 625.5,-75.5 704.5,-75.5 704.5,-56.5 625.5,-56.5"/>
<text text-anchor="middle" x="665" y="-63.5" font-family="Helvetica,sans-Serif" font-size="10.00">fmt/format.h</text>
</a>
</g>
</g>
<!-- Node4&#45;&gt;Node9 -->
<g id="edge8" class="edge">
<title>Node4&#45;&gt;Node9</title>
<path fill="none" stroke="midnightblue" d="M594.95,-280.26C622.55,-265.19 677.1,-231.65 707,-188 726.56,-159.45 739.35,-143.02 724,-112 717.4,-98.66 704.74,-88.19 692.83,-80.73"/>
<polygon fill="midnightblue" stroke="midnightblue" points="694.39,-77.59 683.98,-75.6 690.88,-83.64 694.39,-77.59"/>
</g>
<!-- Node10 -->
<g id="node10" class="node">
<title>Node10</title>
<g id="a_node10"><a xlink:title=" ">
<polygon fill="white" stroke="#bfbfbf" points="737.5,-224.5 737.5,-243.5 886.5,-243.5 886.5,-224.5 737.5,-224.5"/>
<text text-anchor="middle" x="812" y="-231.5" font-family="Helvetica,sans-Serif" font-size="10.00">small_vector/SmallVector.h</text>
</a>
</g>
</g>
<!-- Node4&#45;&gt;Node10 -->
<g id="edge9" class="edge">
<title>Node4&#45;&gt;Node10</title>
<path fill="none" stroke="midnightblue" d="M615.08,-280.44C655.73,-271.06 721.03,-255.99 765.18,-245.8"/>
<polygon fill="midnightblue" stroke="midnightblue" points="766.14,-249.18 775.1,-243.52 764.56,-242.35 766.14,-249.18"/>
</g>
<!-- Node6 -->
<g id="node6" class="node">
<title>Node6</title>
<g id="a_node6"><a xlink:title=" ">
<polygon fill="white" stroke="#bfbfbf" points="142.5,-168.5 142.5,-187.5 195.5,-187.5 195.5,-168.5 142.5,-168.5"/>
<text text-anchor="middle" x="169" y="-175.5" font-family="Helvetica,sans-Serif" font-size="10.00">cstddef</text>
</a>
</g>
</g>
<!-- Node5&#45;&gt;Node6 -->
<g id="edge5" class="edge">
<title>Node5&#45;&gt;Node6</title>
<path fill="none" stroke="midnightblue" d="M235.31,-224.32C223.1,-215.98 204.42,-203.21 190,-193.35"/>
<polygon fill="midnightblue" stroke="midnightblue" points="191.89,-190.41 181.66,-187.65 187.94,-196.19 191.89,-190.41"/>
</g>
<!-- Node7 -->
<g id="node7" class="node">
<title>Node7</title>
<g id="a_node7"><a xlink:title=" ">
<polygon fill="white" stroke="#bfbfbf" points="252,-168.5 252,-187.5 302,-187.5 302,-168.5 252,-168.5"/>
<text text-anchor="middle" x="277" y="-175.5" font-family="Helvetica,sans-Serif" font-size="10.00">cstdint</text>
</a>
</g>
</g>
<!-- Node5&#45;&gt;Node7 -->
<g id="edge6" class="edge">
<title>Node5&#45;&gt;Node7</title>
<path fill="none" stroke="midnightblue" d="M252.79,-224.08C256.76,-216.69 262.53,-205.95 267.43,-196.81"/>
<polygon fill="midnightblue" stroke="midnightblue" points="270.65,-198.22 272.3,-187.75 264.49,-194.91 270.65,-198.22"/>
</g>
<!-- Node8 -->
<g id="node8" class="node">
<title>Node8</title>
<g id="a_node8"><a xlink:title=" ">
<polygon fill="white" stroke="#bfbfbf" points="508.5,-0.5 508.5,-19.5 555.5,-19.5 555.5,-0.5 508.5,-0.5"/>
<text text-anchor="middle" x="532" y="-7.5" font-family="Helvetica,sans-Serif" font-size="10.00">vector</text>
</a>
</g>
</g>
<!-- Node5&#45;&gt;Node8 -->
<g id="edge7" class="edge">
<title>Node5&#45;&gt;Node8</title>
<path fill="none" stroke="midnightblue" d="M244.85,-224.18C240.77,-211.28 235.08,-186.77 243,-168 270.74,-102.27 295.83,-90.99 358,-56 402.67,-30.86 461.66,-19.45 498.2,-14.51"/>
<polygon fill="midnightblue" stroke="midnightblue" points="498.85,-17.95 508.33,-13.23 497.97,-11.01 498.85,-17.95"/>
</g>
<!-- Node12 -->
<g id="node12" class="node">
<title>Node12</title>
<g id="a_node12"><a xlink:href="store__ptr_8h.html" target="_top" xlink:title=" ">
<polygon fill="white" stroke="black" points="0,-224.5 0,-243.5 86,-243.5 86,-224.5 0,-224.5"/>
<text text-anchor="middle" x="43" y="-231.5" font-family="Helvetica,sans-Serif" font-size="10.00">ccf/store_ptr.h</text>
</a>
</g>
</g>
<!-- Node11&#45;&gt;Node12 -->
<g id="edge11" class="edge">
<title>Node11&#45;&gt;Node12</title>
<path fill="none" stroke="midnightblue" d="M299.67,-280.44C244.21,-270.62 153.54,-254.57 96.14,-244.41"/>
<polygon fill="midnightblue" stroke="midnightblue" points="96.63,-240.94 86.17,-242.64 95.41,-247.83 96.63,-240.94"/>
</g>
<!-- Node14 -->
<g id="node14" class="node">
<title>Node14</title>
<g id="a_node14"><a xlink:href="tx__id_8h.html" target="_top" xlink:title=" ">
<polygon fill="white" stroke="black" points="442.5,-224.5 442.5,-243.5 509.5,-243.5 509.5,-224.5 442.5,-224.5"/>
<text text-anchor="middle" x="476" y="-231.5" font-family="Helvetica,sans-Serif" font-size="10.00">ccf/tx_id.h</text>
</a>
</g>
</g>
<!-- Node11&#45;&gt;Node14 -->
<g id="edge13" class="edge">
<title>Node11&#45;&gt;Node14</title>
<path fill="none" stroke="midnightblue" d="M368.28,-280.44C389.35,-271.56 422.52,-257.56 446.49,-247.45"/>
<polygon fill="midnightblue" stroke="midnightblue" points="447.96,-250.63 455.81,-243.52 445.24,-244.18 447.96,-250.63"/>
</g>
<!-- Node17 -->
<g id="node17" class="node">
<title>Node17</title>
<g id="a_node17"><a xlink:title=" ">
<polygon fill="white" stroke="#bfbfbf" points="359,-0.5 359,-19.5 403,-19.5 403,-0.5 359,-0.5"/>
<text text-anchor="middle" x="381" y="-7.5" font-family="Helvetica,sans-Serif" font-size="10.00">string</text>
</a>
</g>
</g>
<!-- Node11&#45;&gt;Node17 -->
<g id="edge39" class="edge">
<title>Node11&#45;&gt;Node17</title>
<path fill="none" stroke="midnightblue" d="M284.37,-285.71C215.08,-278.29 114,-254.53 114,-179 114,-179 114,-179 114,-121 114,-20.62 277.33,-9.97 348.5,-10.09"/>
<polygon fill="midnightblue" stroke="midnightblue" points="348.66,-13.6 358.69,-10.19 348.73,-6.6 348.66,-13.6"/>
</g>
<!-- Node28 -->
<g id="node28" class="node">
<title>Node28</title>
<g id="a_node28"><a xlink:title=" ">
<polygon fill="white" stroke="#bfbfbf" points="320,-168.5 320,-187.5 376,-187.5 376,-168.5 320,-168.5"/>
<text text-anchor="middle" x="348" y="-175.5" font-family="Helvetica,sans-Serif" font-size="10.00">optional</text>
</a>
</g>
</g>
<!-- Node11&#45;&gt;Node28 -->
<g id="edge38" class="edge">
<title>Node11&#45;&gt;Node28</title>
<path fill="none" stroke="midnightblue" d="M348,-280.37C348,-262.62 348,-221.67 348,-197.6"/>
<polygon fill="midnightblue" stroke="midnightblue" points="351.5,-197.59 348,-187.59 344.5,-197.59 351.5,-197.59"/>
</g>
<!-- Node13 -->
<g id="node13" class="node">
<title>Node13</title>
<g id="a_node13"><a xlink:title=" ">
<polygon fill="white" stroke="#bfbfbf" points="14,-168.5 14,-187.5 72,-187.5 72,-168.5 14,-168.5"/>
<text text-anchor="middle" x="43" y="-175.5" font-family="Helvetica,sans-Serif" font-size="10.00">memory</text>
</a>
</g>
</g>
<!-- Node12&#45;&gt;Node13 -->
<g id="edge12" class="edge">
<title>Node12&#45;&gt;Node13</title>
<path fill="none" stroke="midnightblue" d="M43,-224.08C43,-217.01 43,-206.86 43,-197.99"/>
<polygon fill="midnightblue" stroke="midnightblue" points="46.5,-197.75 43,-187.75 39.5,-197.75 46.5,-197.75"/>
</g>
<!-- Node14&#45;&gt;Node7 -->
<g id="edge32" class="edge">
<title>Node14&#45;&gt;Node7</title>
<path fill="none" stroke="midnightblue" d="M444.47,-224.44C408.4,-214.66 349.52,-198.68 312.05,-188.51"/>
<polygon fill="midnightblue" stroke="midnightblue" points="312.65,-185.05 302.08,-185.81 310.82,-191.8 312.65,-185.05"/>
</g>
<!-- Node14&#45;&gt;Node9 -->
<g id="edge33" class="edge">
<title>Node14&#45;&gt;Node9</title>
<path fill="none" stroke="midnightblue" d="M496.03,-224.45C552.05,-200.51 706.42,-134.41 708,-132 719.3,-114.75 701.9,-95 685.97,-81.84"/>
<polygon fill="midnightblue" stroke="midnightblue" points="687.98,-78.97 677.93,-75.61 683.69,-84.5 687.98,-78.97"/>
</g>
<!-- Node15 -->
<g id="node15" class="node">
<title>Node15</title>
<g id="a_node15"><a xlink:href="json_8h.html" target="_top" xlink:title=" ">
<polygon fill="white" stroke="black" points="470.5,-168.5 470.5,-187.5 547.5,-187.5 547.5,-168.5 470.5,-168.5"/>
<text text-anchor="middle" x="509" y="-175.5" font-family="Helvetica,sans-Serif" font-size="10.00">ccf/ds/json.h</text>
</a>
</g>
</g>
<!-- Node14&#45;&gt;Node15 -->
<g id="edge14" class="edge">
<title>Node14&#45;&gt;Node15</title>
<path fill="none" stroke="midnightblue" d="M481.45,-224.08C486.01,-216.61 492.67,-205.72 498.29,-196.52"/>
<polygon fill="midnightblue" stroke="midnightblue" points="501.42,-198.11 503.65,-187.75 495.45,-194.46 501.42,-198.11"/>
</g>
<!-- Node14&#45;&gt;Node17 -->
<g id="edge36" class="edge">
<title>Node14&#45;&gt;Node17</title>
<path fill="none" stroke="midnightblue" d="M466.1,-224.36C441.88,-202.5 380.03,-141.98 358,-76 352.57,-59.74 360.42,-41.32 368.38,-28.26"/>
<polygon fill="midnightblue" stroke="midnightblue" points="371.39,-30.06 374.02,-19.8 365.56,-26.18 371.39,-30.06"/>
</g>
<!-- Node23 -->
<g id="node23" class="node">
<title>Node23</title>
<g id="a_node23"><a xlink:title=" ">
<polygon fill="white" stroke="#bfbfbf" points="915.5,-0.5 915.5,-19.5 988.5,-19.5 988.5,-0.5 915.5,-0.5"/>
<text text-anchor="middle" x="952" y="-7.5" font-family="Helvetica,sans-Serif" font-size="10.00">string_view</text>
</a>
</g>
</g>
<!-- Node14&#45;&gt;Node23 -->
<g id="edge37" class="edge">
<title>Node14&#45;&gt;Node23</title>
<path fill="none" stroke="midnightblue" d="M509.82,-230.49C605.77,-222.62 876.53,-195.16 934,-132 959.53,-103.95 958.2,-56.16 955.06,-29.81"/>
<polygon fill="midnightblue" stroke="midnightblue" points="958.49,-29.07 953.63,-19.66 951.56,-30.05 958.49,-29.07"/>
</g>
<!-- Node25 -->
<g id="node25" class="node">
<title>Node25</title>
<g id="a_node25"><a xlink:title=" ">
<polygon fill="white" stroke="#bfbfbf" points="497,-56.5 497,-75.5 607,-75.5 607,-56.5 497,-56.5"/>
<text text-anchor="middle" x="552" y="-63.5" font-family="Helvetica,sans-Serif" font-size="10.00">nlohmann/json.hpp</text>
</a>
</g>
</g>
<!-- Node14&#45;&gt;Node25 -->
<g id="edge34" class="edge">
<title>Node14&#45;&gt;Node25</title>
<path fill="none" stroke="midnightblue" d="M472.14,-224.25C468.44,-215.33 463.11,-201.01 461,-188 455.33,-153.04 462.39,-139.27 485,-112 495.83,-98.94 511.4,-88.17 524.8,-80.44"/>
<polygon fill="midnightblue" stroke="midnightblue" points="526.57,-83.47 533.65,-75.59 523.2,-77.33 526.57,-83.47"/>
</g>
<!-- Node27 -->
<g id="node27" class="node">
<title>Node27</title>
<g id="a_node27"><a xlink:title=" ">
<polygon fill="white" stroke="#bfbfbf" points="637.5,-168.5 637.5,-187.5 698.5,-187.5 698.5,-168.5 637.5,-168.5"/>
<text text-anchor="middle" x="668" y="-175.5" font-family="Helvetica,sans-Serif" font-size="10.00">charconv</text>
</a>
</g>
</g>
<!-- Node14&#45;&gt;Node27 -->
<g id="edge31" class="edge">
<title>Node14&#45;&gt;Node27</title>
<path fill="none" stroke="midnightblue" d="M506.42,-224.44C539.28,-215.2 591.78,-200.44 627.97,-190.26"/>
<polygon fill="midnightblue" stroke="midnightblue" points="629.04,-193.59 637.72,-187.52 627.15,-186.85 629.04,-193.59"/>
</g>
<!-- Node14&#45;&gt;Node28 -->
<g id="edge35" class="edge">
<title>Node14&#45;&gt;Node28</title>
<path fill="none" stroke="midnightblue" d="M455.72,-224.44C434.65,-215.56 401.48,-201.56 377.51,-191.45"/>
<polygon fill="midnightblue" stroke="midnightblue" points="378.76,-188.18 368.19,-187.52 376.04,-194.63 378.76,-188.18"/>
</g>
<!-- Node15&#45;&gt;Node9 -->
<g id="edge29" class="edge">
<title>Node15&#45;&gt;Node9</title>
<path fill="none" stroke="midnightblue" d="M503.02,-168.47C494.43,-155.07 480.99,-128.88 494,-112 501.57,-102.18 567.65,-86.84 615.4,-76.85"/>
<polygon fill="midnightblue" stroke="midnightblue" points="616.2,-80.26 625.29,-74.81 614.78,-73.41 616.2,-80.26"/>
</g>
<!-- Node16 -->
<g id="node16" class="node">
<title>Node16</title>
<g id="a_node16"><a xlink:href="include_2ccf_2crypto_2base64_8h.html" target="_top" xlink:title=" ">
<polygon fill="white" stroke="black" points="367,-56.5 367,-75.5 479,-75.5 479,-56.5 367,-56.5"/>
<text text-anchor="middle" x="423" y="-63.5" font-family="Helvetica,sans-Serif" font-size="10.00">ccf/crypto/base64.h</text>
</a>
</g>
</g>
<!-- Node15&#45;&gt;Node16 -->
<g id="edge15" class="edge">
<title>Node15&#45;&gt;Node16</title>
<path fill="none" stroke="midnightblue" d="M498.23,-168.47C487.9,-159.94 472.25,-146.11 461,-132 449.31,-117.34 438.79,-98.7 431.8,-85.15"/>
<polygon fill="midnightblue" stroke="midnightblue" points="434.79,-83.3 427.18,-75.92 428.53,-86.43 434.79,-83.3"/>
</g>
<!-- Node18 -->
<g id="node18" class="node">
<title>Node18</title>
<g id="a_node18"><a xlink:href="include_2ccf_2ds_2json__schema_8h.html" target="_top" xlink:title=" ">
<polygon fill="white" stroke="black" points="503.5,-112.5 503.5,-131.5 624.5,-131.5 624.5,-112.5 503.5,-112.5"/>
<text text-anchor="middle" x="564" y="-119.5" font-family="Helvetica,sans-Serif" font-size="10.00">ccf/ds/json_schema.h</text>
</a>
</g>
</g>
<!-- Node15&#45;&gt;Node18 -->
<g id="edge18" class="edge">
<title>Node15&#45;&gt;Node18</title>
<path fill="none" stroke="midnightblue" d="M518.08,-168.08C526.17,-160.14 538.2,-148.34 547.91,-138.8"/>
<polygon fill="midnightblue" stroke="midnightblue" points="550.4,-141.25 555.09,-131.75 545.5,-136.26 550.4,-141.25"/>
</g>
<!-- Node26 -->
<g id="node26" class="node">
<title>Node26</title>
<g id="a_node26"><a xlink:title=" ">
<polygon fill="white" stroke="#bfbfbf" points="643,-112.5 643,-131.5 699,-131.5 699,-112.5 643,-112.5"/>
<text text-anchor="middle" x="671" y="-119.5" font-family="Helvetica,sans-Serif" font-size="10.00">sstream</text>
</a>
</g>
</g>
<!-- Node15&#45;&gt;Node26 -->
<g id="edge30" class="edge">
<title>Node15&#45;&gt;Node26</title>
<path fill="none" stroke="midnightblue" d="M534.67,-168.44C561.92,-159.36 605.18,-144.94 635.65,-134.78"/>
<polygon fill="midnightblue" stroke="midnightblue" points="637.07,-138 645.45,-131.52 634.86,-131.36 637.07,-138"/>
</g>
<!-- Node16&#45;&gt;Node8 -->
<g id="edge17" class="edge">
<title>Node16&#45;&gt;Node8</title>
<path fill="none" stroke="midnightblue" d="M440.51,-56.32C458.07,-47.62 485.33,-34.12 505.53,-24.11"/>
<polygon fill="midnightblue" stroke="midnightblue" points="507.12,-27.23 514.53,-19.65 504.02,-20.96 507.12,-27.23"/>
</g>
<!-- Node16&#45;&gt;Node17 -->
<g id="edge16" class="edge">
<title>Node16&#45;&gt;Node17</title>
<path fill="none" stroke="midnightblue" d="M416.06,-56.08C410.07,-48.38 401.25,-37.03 393.95,-27.65"/>
<polygon fill="midnightblue" stroke="midnightblue" points="396.71,-25.5 387.81,-19.75 391.18,-29.79 396.71,-25.5"/>
</g>
<!-- Node18&#45;&gt;Node9 -->
<g id="edge27" class="edge">
<title>Node18&#45;&gt;Node9</title>
<path fill="none" stroke="midnightblue" d="M580.23,-112.32C596.35,-103.7 621.3,-90.36 639.96,-80.39"/>
<polygon fill="midnightblue" stroke="midnightblue" points="641.64,-83.46 648.81,-75.65 638.34,-77.28 641.64,-83.46"/>
</g>
<!-- Node19 -->
<g id="node19" class="node">
<title>Node19</title>
<g id="a_node19"><a xlink:href="nonstd_8h.html" target="_top" xlink:title=" ">
<polygon fill="white" stroke="black" points="761,-56.5 761,-75.5 851,-75.5 851,-56.5 761,-56.5"/>
<text text-anchor="middle" x="806" y="-63.5" font-family="Helvetica,sans-Serif" font-size="10.00">ccf/ds/nonstd.h</text>
</a>
</g>
</g>
<!-- Node18&#45;&gt;Node19 -->
<g id="edge19" class="edge">
<title>Node18&#45;&gt;Node19</title>
<path fill="none" stroke="midnightblue" d="M602.35,-112.44C644.47,-103.04 712.21,-87.93 757.87,-77.74"/>
<polygon fill="midnightblue" stroke="midnightblue" points="758.84,-81.11 767.83,-75.52 757.31,-74.28 758.84,-81.11"/>
</g>
<!-- Node18&#45;&gt;Node25 -->
<g id="edge28" class="edge">
<title>Node18&#45;&gt;Node25</title>
<path fill="none" stroke="midnightblue" d="M562.02,-112.08C560.43,-104.93 558.14,-94.64 556.15,-85.69"/>
<polygon fill="midnightblue" stroke="midnightblue" points="559.53,-84.75 553.94,-75.75 552.7,-86.27 559.53,-84.75"/>
</g>
<!-- Node19&#45;&gt;Node8 -->
<g id="edge26" class="edge">
<title>Node19&#45;&gt;Node8</title>
<path fill="none" stroke="midnightblue" d="M762.58,-56.44C707.92,-45.67 615.19,-27.39 565.62,-17.62"/>
<polygon fill="midnightblue" stroke="midnightblue" points="566.21,-14.17 555.72,-15.67 564.86,-21.04 566.21,-14.17"/>
</g>
<!-- Node19&#45;&gt;Node17 -->
<g id="edge23" class="edge">
<title>Node19&#45;&gt;Node17</title>
<path fill="none" stroke="midnightblue" d="M760.92,-59.27C674.79,-48.33 488.73,-24.69 413.52,-15.13"/>
<polygon fill="midnightblue" stroke="midnightblue" points="413.62,-11.62 403.26,-13.83 412.74,-18.56 413.62,-11.62"/>
</g>
<!-- Node20 -->
<g id="node20" class="node">
<title>Node20</title>
<g id="a_node20"><a xlink:title=" ">
<polygon fill="white" stroke="#bfbfbf" points="704,-0.5 704,-19.5 768,-19.5 768,-0.5 704,-0.5"/>
<text text-anchor="middle" x="736" y="-7.5" font-family="Helvetica,sans-Serif" font-size="10.00">algorithm</text>
</a>
</g>
</g>
<!-- Node19&#45;&gt;Node20 -->
<g id="edge20" class="edge">
<title>Node19&#45;&gt;Node20</title>
<path fill="none" stroke="midnightblue" d="M794.75,-56.32C784.2,-48.18 768.2,-35.84 755.56,-26.09"/>
<polygon fill="midnightblue" stroke="midnightblue" points="757.51,-23.17 747.45,-19.83 753.23,-28.71 757.51,-23.17"/>
</g>
<!-- Node21 -->
<g id="node21" class="node">
<title>Node21</title>
<g id="a_node21"><a xlink:title=" ">
<polygon fill="white" stroke="#bfbfbf" points="786,-0.5 786,-19.5 828,-19.5 828,-0.5 786,-0.5"/>
<text text-anchor="middle" x="807" y="-7.5" font-family="Helvetica,sans-Serif" font-size="10.00">array</text>
</a>
</g>
</g>
<!-- Node19&#45;&gt;Node21 -->
<g id="edge21" class="edge">
<title>Node19&#45;&gt;Node21</title>
<path fill="none" stroke="midnightblue" d="M806.17,-56.08C806.3,-49.01 806.48,-38.86 806.65,-29.99"/>
<polygon fill="midnightblue" stroke="midnightblue" points="810.15,-29.81 806.84,-19.75 803.15,-29.68 810.15,-29.81"/>
</g>
<!-- Node22 -->
<g id="node22" class="node">
<title>Node22</title>
<g id="a_node22"><a xlink:title=" ">
<polygon fill="white" stroke="#bfbfbf" points="846.5,-0.5 846.5,-19.5 895.5,-19.5 895.5,-0.5 846.5,-0.5"/>
<text text-anchor="middle" x="871" y="-7.5" font-family="Helvetica,sans-Serif" font-size="10.00">cctype</text>
</a>
</g>
</g>
<!-- Node19&#45;&gt;Node22 -->
<g id="edge22" class="edge">
<title>Node19&#45;&gt;Node22</title>
<path fill="none" stroke="midnightblue" d="M816.44,-56.32C826.15,-48.26 840.82,-36.08 852.5,-26.37"/>
<polygon fill="midnightblue" stroke="midnightblue" points="854.91,-28.92 860.37,-19.83 850.44,-23.53 854.91,-28.92"/>
</g>
<!-- Node19&#45;&gt;Node23 -->
<g id="edge24" class="edge">
<title>Node19&#45;&gt;Node23</title>
<path fill="none" stroke="midnightblue" d="M829.13,-56.44C853.48,-47.44 892.01,-33.19 919.42,-23.05"/>
<polygon fill="midnightblue" stroke="midnightblue" points="920.81,-26.27 928.97,-19.52 918.38,-19.7 920.81,-26.27"/>
</g>
<!-- Node24 -->
<g id="node24" class="node">
<title>Node24</title>
<g id="a_node24"><a xlink:title=" ">
<polygon fill="white" stroke="#bfbfbf" points="616.5,-0.5 616.5,-19.5 685.5,-19.5 685.5,-0.5 616.5,-0.5"/>
<text text-anchor="middle" x="651" y="-7.5" font-family="Helvetica,sans-Serif" font-size="10.00">type_traits</text>
</a>
</g>
</g>
<!-- Node19&#45;&gt;Node24 -->
<g id="edge25" class="edge">
<title>Node19&#45;&gt;Node24</title>
<path fill="none" stroke="midnightblue" d="M781.44,-56.44C755.48,-47.4 714.33,-33.06 685.2,-22.92"/>
<polygon fill="midnightblue" stroke="midnightblue" points="686.04,-19.5 675.45,-19.52 683.74,-26.11 686.04,-19.5"/>
</g>
<!-- Node29&#45;&gt;Node14 -->
<g id="edge45" class="edge">
<title>Node29&#45;&gt;Node14</title>
<path fill="none" stroke="midnightblue" d="M673.76,-280.44C631.86,-270.81 563.87,-255.19 519.54,-245"/>
<polygon fill="midnightblue" stroke="midnightblue" points="520.17,-241.56 509.64,-242.73 518.6,-248.38 520.17,-241.56"/>
</g>
<!-- Node30 -->
<g id="node30" class="node">
<title>Node30</title>
<g id="a_node30"><a xlink:href="contiguous__set_8h.html" target="_top" xlink:title=" ">
<polygon fill="white" stroke="black" points="793.5,-112.5 793.5,-131.5 924.5,-131.5 924.5,-112.5 793.5,-112.5"/>
<text text-anchor="middle" x="859" y="-119.5" font-family="Helvetica,sans-Serif" font-size="10.00">ccf/ds/contiguous_set.h</text>
</a>
</g>
</g>
<!-- Node29&#45;&gt;Node30 -->
<g id="edge41" class="edge">
<title>Node29&#45;&gt;Node30</title>
<path fill="none" stroke="midnightblue" d="M776.48,-281.53C823.2,-274.7 880.28,-262.75 895,-244 919.59,-212.68 891.14,-164.87 872.55,-139.75"/>
<polygon fill="midnightblue" stroke="midnightblue" points="875.15,-137.38 866.27,-131.6 869.6,-141.65 875.15,-137.38"/>
</g>
<!-- Node30&#45;&gt;Node8 -->
<g id="edge44" class="edge">
<title>Node30&#45;&gt;Node8</title>
<path fill="none" stroke="midnightblue" d="M837.07,-112.34C815.29,-103.61 781.04,-89.53 752,-76 734.34,-67.77 731.24,-62.84 713,-56 663.19,-37.32 602.77,-24.08 565.87,-17"/>
<polygon fill="midnightblue" stroke="midnightblue" points="566.14,-13.49 555.66,-15.08 564.85,-20.37 566.14,-13.49"/>
</g>
<!-- Node30&#45;&gt;Node9 -->
<g id="edge42" class="edge">
<title>Node30&#45;&gt;Node9</title>
<path fill="none" stroke="midnightblue" d="M828.26,-112.44C795.06,-103.2 742.01,-88.44 705.44,-78.26"/>
<polygon fill="midnightblue" stroke="midnightblue" points="706.17,-74.83 695.6,-75.52 704.29,-81.57 706.17,-74.83"/>
</g>
<!-- Node31 -->
<g id="node31" class="node">
<title>Node31</title>
<g id="a_node31"><a xlink:title=" ">
<polygon fill="white" stroke="#bfbfbf" points="869,-56.5 869,-75.5 925,-75.5 925,-56.5 869,-56.5"/>
<text text-anchor="middle" x="897" y="-63.5" font-family="Helvetica,sans-Serif" font-size="10.00">numeric</text>
</a>
</g>
</g>
<!-- Node30&#45;&gt;Node31 -->
<g id="edge43" class="edge">
<title>Node30&#45;&gt;Node31</title>
<path fill="none" stroke="midnightblue" d="M865.27,-112.08C870.64,-104.46 878.52,-93.26 885.08,-83.94"/>
<polygon fill="midnightblue" stroke="midnightblue" points="887.95,-85.94 890.84,-75.75 882.22,-81.91 887.95,-85.94"/>
</g>
</g>
</svg>
        <g id="navigator" transform="translate(0 0)" fill="#404254">
                <rect fill="#f2f5e9" fill-opacity="0.5" stroke="#606060" stroke-width=".5" x="0" y="0" width="60" height="60"/>
                <use id="zoomplus" xlink:href="#zoomPlus" x="17" y="9" onmousedown="handleZoom(evt,'in')"/>
                <use id="zoomminus" xlink:href="#zoomMin" x="42" y="9" onmousedown="handleZoom(evt,'out')"/>
                <use id="reset" xlink:href="#resetDef" x="30" y="36" onmousedown="handleReset()"/>
                <g id="arrowUp" xlink:href="#dirArrow" transform="translate(30 24)" onmousedown="handlePan(0,-1)">
                  <use xlink:href="#rim" fill="#404040">
                        <set attributeName="fill" to="#808080" begin="arrowUp.mouseover" end="arrowUp.mouseout"/>
                  </use>
                  <path fill="none" stroke="white" stroke-width="1.5" d="M0,-3.0v7 M-2.5,-0.5L0,-3.0L2.5,-0.5"/>
                </g>
                <g id="arrowRight" xlink:href="#dirArrow" transform="rotate(90) translate(36 -43)" onmousedown="handlePan(1,0)">
                  <use xlink:href="#rim" fill="#404040">
                        <set attributeName="fill" to="#808080" begin="arrowRight.mouseover" end="arrowRight.mouseout"/>
                  </use>
                  <path fill="none" stroke="white" stroke-width="1.5" d="M0,-3.0v7 M-2.5,-0.5L0,-3.0L2.5,-0.5"/>
                </g>
                <g id="arrowDown" xlink:href="#dirArrow" transform="rotate(180) translate(-30 -48)" onmousedown="handlePan(0,1)">
                  <use xlink:href="#rim" fill="#404040">
                        <set attributeName="fill" to="#808080" begin="arrowDown.mouseover" end="arrowDown.mouseout"/>
                  </use>
                  <path fill="none" stroke="white" stroke-width="1.5" d="M0,-3.0v7 M-2.5,-0.5L0,-3.0L2.5,-0.5"/>
                </g>
                <g id="arrowLeft" xlink:href="#dirArrow" transform="rotate(270) translate(-36 17)" onmousedown="handlePan(-1,0)">
                  <use xlink:href="#rim" fill="#404040">
                        <set attributeName="fill" to="#808080" begin="arrowLeft.mouseover" end="arrowLeft.mouseout"/>
                  </use>
                  <path fill="none" stroke="white" stroke-width="1.5" d="M0,-3.0v7 M-2.5,-0.5L0,-3.0L2.5,-0.5"/>
                </g>
        </g>
        <svg viewBox="0 0 15 15" width="100%" height="30px" preserveAspectRatio="xMaxYMin meet">
         <g id="arrow_out" transform="scale(0.3 0.3)">
          <a xlink:href="seqnos__by__key__in__memory_8cpp__incl_org.svg" target="_base">
           <rect id="button" ry="5" rx="5" y="6" x="6" height="38" width="38"
                fill="#f2f5e9" fill-opacity="0.5" stroke="#606060" stroke-width="1.0"/>
           <path id="arrow"
             d="M 11.500037,31.436501 C 11.940474,20.09759 22.043105,11.32322 32.158766,21.979434 L 37.068811,17.246167 C 37.068811,17.246167 37.088388,32 37.088388,32 L 22.160133,31.978069 C 22.160133,31.978069 26.997745,27.140456 26.997745,27.140456 C 18.528582,18.264221 13.291696,25.230495 11.500037,31.436501 z"
             style="fill:#404040;"/>
          </a>
         </g>
        </svg>
</svg>
