<?xml version="1.0" encoding="UTF-8" standalone="no"?>
<!DOCTYPE svg PUBLIC "-//W3C//DTD SVG 1.1//EN"
 "http://www.w3.org/Graphics/SVG/1.1/DTD/svg11.dtd">
<!-- Generated by graphviz version 2.43.0 (0)
 -->
<!-- Title: include/ccf/indexing/strategies/seqnos_by_key_bucketed.h Pages: 1 -->
<svg width="1351pt" height="598pt"
 viewBox="0.00 0.00 1351.13 598.00" xmlns="http://www.w3.org/2000/svg" xmlns:xlink="http://www.w3.org/1999/xlink">
<g id="graph0" class="graph" transform="scale(1 1) rotate(0) translate(4 594)">
<title>include/ccf/indexing/strategies/seqnos_by_key_bucketed.h</title>
<polygon fill="white" stroke="transparent" points="-4,4 -4,-594 1347.13,-594 1347.13,4 -4,4"/>
<!-- Node1 -->
<g id="node1" class="node">
<title>Node1</title>
<g id="a_node1"><a xlink:title=" ">
<polygon fill="#bfbfbf" stroke="black" points="731.63,-548.5 731.63,-589.5 854.63,-589.5 854.63,-548.5 731.63,-548.5"/>
<text text-anchor="start" x="739.63" y="-577.5" font-family="Helvetica,sans-Serif" font-size="10.00">include/ccf/indexing</text>
<text text-anchor="start" x="739.63" y="-566.5" font-family="Helvetica,sans-Serif" font-size="10.00">/strategies/seqnos_by</text>
<text text-anchor="middle" x="793.13" y="-555.5" font-family="Helvetica,sans-Serif" font-size="10.00">_key_bucketed.h</text>
</a>
</g>
</g>
<!-- Node2 -->
<g id="node2" class="node">
<title>Node2</title>
<g id="a_node2"><a xlink:href="visit__each__entry__in__map_8h.html" target="_top" xlink:title=" ">
<polygon fill="white" stroke="black" points="718.13,-425.5 718.13,-455.5 868.13,-455.5 868.13,-425.5 718.13,-425.5"/>
<text text-anchor="start" x="726.13" y="-443.5" font-family="Helvetica,sans-Serif" font-size="10.00">ccf/indexing/strategies</text>
<text text-anchor="middle" x="793.13" y="-432.5" font-family="Helvetica,sans-Serif" font-size="10.00">/visit_each_entry_in_map.h</text>
</a>
</g>
</g>
<!-- Node1&#45;&gt;Node2 -->
<g id="edge1" class="edge">
<title>Node1&#45;&gt;Node2</title>
<path fill="none" stroke="midnightblue" d="M793.13,-548.23C793.13,-525.94 793.13,-489.67 793.13,-465.7"/>
<polygon fill="midnightblue" stroke="midnightblue" points="796.63,-465.64 793.13,-455.64 789.63,-465.64 796.63,-465.64"/>
</g>
<!-- Node28 -->
<g id="node28" class="node">
<title>Node28</title>
<g id="a_node28"><a xlink:href="node__context_8h.html" target="_top" xlink:title=" ">
<polygon fill="white" stroke="black" points="976.63,-492.5 976.63,-511.5 1085.63,-511.5 1085.63,-492.5 976.63,-492.5"/>
<text text-anchor="middle" x="1031.13" y="-499.5" font-family="Helvetica,sans-Serif" font-size="10.00">ccf/node_context.h</text>
</a>
</g>
</g>
<!-- Node1&#45;&gt;Node28 -->
<g id="edge39" class="edge">
<title>Node1&#45;&gt;Node28</title>
<path fill="none" stroke="midnightblue" d="M854.73,-551.18C897.28,-539.55 952.71,-524.42 989.98,-514.24"/>
<polygon fill="midnightblue" stroke="midnightblue" points="991.26,-517.52 999.99,-511.51 989.42,-510.76 991.26,-517.52"/>
</g>
<!-- Node35 -->
<g id="node35" class="node">
<title>Node35</title>
<g id="a_node35"><a xlink:href="seq__no__collection_8h.html" target="_top" xlink:title=" ">
<polygon fill="white" stroke="black" points="512.13,-364 512.13,-383 642.13,-383 642.13,-364 512.13,-364"/>
<text text-anchor="middle" x="577.13" y="-371" font-family="Helvetica,sans-Serif" font-size="10.00">ccf/seq_no_collection.h</text>
</a>
</g>
</g>
<!-- Node1&#45;&gt;Node35 -->
<g id="edge68" class="edge">
<title>Node1&#45;&gt;Node35</title>
<path fill="none" stroke="midnightblue" d="M771.23,-548.38C728.35,-509.97 634.1,-425.54 594.84,-390.37"/>
<polygon fill="midnightblue" stroke="midnightblue" points="596.71,-387.34 586.92,-383.27 592.04,-392.55 596.71,-387.34"/>
</g>
<!-- Node3 -->
<g id="node3" class="node">
<title>Node3</title>
<g id="a_node3"><a xlink:href="byte__vector_8h.html" target="_top" xlink:title=" ">
<polygon fill="white" stroke="black" points="170.13,-112.5 170.13,-131.5 270.13,-131.5 270.13,-112.5 170.13,-112.5"/>
<text text-anchor="middle" x="220.13" y="-119.5" font-family="Helvetica,sans-Serif" font-size="10.00">ccf/byte_vector.h</text>
</a>
</g>
</g>
<!-- Node2&#45;&gt;Node3 -->
<g id="edge2" class="edge">
<title>Node2&#45;&gt;Node3</title>
<path fill="none" stroke="midnightblue" d="M718.1,-436.54C657.74,-431.82 571.96,-419.74 503.13,-389 373.57,-331.14 265.78,-188.66 231.52,-139.78"/>
<polygon fill="midnightblue" stroke="midnightblue" points="234.39,-137.78 225.83,-131.54 228.63,-141.76 234.39,-137.78"/>
</g>
<!-- Node10 -->
<g id="node10" class="node">
<title>Node10</title>
<g id="a_node10"><a xlink:href="strategy_8h.html" target="_top" xlink:title=" ">
<polygon fill="white" stroke="black" points="861.63,-364 861.63,-383 988.63,-383 988.63,-364 861.63,-364"/>
<text text-anchor="middle" x="925.13" y="-371" font-family="Helvetica,sans-Serif" font-size="10.00">ccf/indexing/strategy.h</text>
</a>
</g>
</g>
<!-- Node2&#45;&gt;Node10 -->
<g id="edge9" class="edge">
<title>Node2&#45;&gt;Node10</title>
<path fill="none" stroke="midnightblue" d="M821.77,-425.4C844.63,-414.14 876.39,-398.5 898.65,-387.54"/>
<polygon fill="midnightblue" stroke="midnightblue" points="900.43,-390.56 907.85,-383.01 897.34,-384.28 900.43,-390.56"/>
</g>
<!-- Node4 -->
<g id="node4" class="node">
<title>Node4</title>
<g id="a_node4"><a xlink:href="siphash_8h.html" target="_top" xlink:title=" ">
<polygon fill="white" stroke="black" points="91.63,-56.5 91.63,-75.5 186.63,-75.5 186.63,-56.5 91.63,-56.5"/>
<text text-anchor="middle" x="139.13" y="-63.5" font-family="Helvetica,sans-Serif" font-size="10.00">ccf/ds/siphash.h</text>
</a>
</g>
</g>
<!-- Node3&#45;&gt;Node4 -->
<g id="edge3" class="edge">
<title>Node3&#45;&gt;Node4</title>
<path fill="none" stroke="midnightblue" d="M207.12,-112.32C194.6,-103.98 175.45,-91.21 160.66,-81.35"/>
<polygon fill="midnightblue" stroke="midnightblue" points="162.37,-78.29 152.11,-75.65 158.49,-84.11 162.37,-78.29"/>
</g>
<!-- Node8 -->
<g id="node8" class="node">
<title>Node8</title>
<g id="a_node8"><a xlink:title=" ">
<polygon fill="white" stroke="#bfbfbf" points="409.63,-56.5 409.63,-75.5 488.63,-75.5 488.63,-56.5 409.63,-56.5"/>
<text text-anchor="middle" x="449.13" y="-63.5" font-family="Helvetica,sans-Serif" font-size="10.00">fmt/format.h</text>
</a>
</g>
</g>
<!-- Node3&#45;&gt;Node8 -->
<g id="edge7" class="edge">
<title>Node3&#45;&gt;Node8</title>
<path fill="none" stroke="midnightblue" d="M256.42,-112.44C296.11,-103.08 359.84,-88.06 403.04,-77.87"/>
<polygon fill="midnightblue" stroke="midnightblue" points="404.08,-81.22 413.01,-75.52 402.48,-74.41 404.08,-81.22"/>
</g>
<!-- Node9 -->
<g id="node9" class="node">
<title>Node9</title>
<g id="a_node9"><a xlink:title=" ">
<polygon fill="white" stroke="#bfbfbf" points="242.63,-56.5 242.63,-75.5 391.63,-75.5 391.63,-56.5 242.63,-56.5"/>
<text text-anchor="middle" x="317.13" y="-63.5" font-family="Helvetica,sans-Serif" font-size="10.00">small_vector/SmallVector.h</text>
</a>
</g>
</g>
<!-- Node3&#45;&gt;Node9 -->
<g id="edge8" class="edge">
<title>Node3&#45;&gt;Node9</title>
<path fill="none" stroke="midnightblue" d="M235.72,-112.32C251.13,-103.74 274.94,-90.49 292.84,-80.52"/>
<polygon fill="midnightblue" stroke="midnightblue" points="294.55,-83.58 301.58,-75.65 291.14,-77.46 294.55,-83.58"/>
</g>
<!-- Node5 -->
<g id="node5" class="node">
<title>Node5</title>
<g id="a_node5"><a xlink:title=" ">
<polygon fill="white" stroke="#bfbfbf" points="112.63,-0.5 112.63,-19.5 165.63,-19.5 165.63,-0.5 112.63,-0.5"/>
<text text-anchor="middle" x="139.13" y="-7.5" font-family="Helvetica,sans-Serif" font-size="10.00">cstddef</text>
</a>
</g>
</g>
<!-- Node4&#45;&gt;Node5 -->
<g id="edge4" class="edge">
<title>Node4&#45;&gt;Node5</title>
<path fill="none" stroke="midnightblue" d="M139.13,-56.08C139.13,-49.01 139.13,-38.86 139.13,-29.99"/>
<polygon fill="midnightblue" stroke="midnightblue" points="142.63,-29.75 139.13,-19.75 135.63,-29.75 142.63,-29.75"/>
</g>
<!-- Node6 -->
<g id="node6" class="node">
<title>Node6</title>
<g id="a_node6"><a xlink:title=" ">
<polygon fill="white" stroke="#bfbfbf" points="4.13,-0.5 4.13,-19.5 54.13,-19.5 54.13,-0.5 4.13,-0.5"/>
<text text-anchor="middle" x="29.13" y="-7.5" font-family="Helvetica,sans-Serif" font-size="10.00">cstdint</text>
</a>
</g>
</g>
<!-- Node4&#45;&gt;Node6 -->
<g id="edge5" class="edge">
<title>Node4&#45;&gt;Node6</title>
<path fill="none" stroke="midnightblue" d="M121.46,-56.32C103.74,-47.62 76.23,-34.12 55.84,-24.11"/>
<polygon fill="midnightblue" stroke="midnightblue" points="57.28,-20.92 46.76,-19.65 54.19,-27.2 57.28,-20.92"/>
</g>
<!-- Node7 -->
<g id="node7" class="node">
<title>Node7</title>
<g id="a_node7"><a xlink:title=" ">
<polygon fill="white" stroke="#bfbfbf" points="536.63,-0.5 536.63,-19.5 583.63,-19.5 583.63,-0.5 536.63,-0.5"/>
<text text-anchor="middle" x="560.13" y="-7.5" font-family="Helvetica,sans-Serif" font-size="10.00">vector</text>
</a>
</g>
</g>
<!-- Node4&#45;&gt;Node7 -->
<g id="edge6" class="edge">
<title>Node4&#45;&gt;Node7</title>
<path fill="none" stroke="midnightblue" d="M186.84,-57.98C191.67,-57.3 196.5,-56.63 201.13,-56 320.58,-39.85 462.68,-22.62 526.34,-15.01"/>
<polygon fill="midnightblue" stroke="midnightblue" points="527.07,-18.45 536.59,-13.79 526.24,-11.5 527.07,-18.45"/>
</g>
<!-- Node11 -->
<g id="node11" class="node">
<title>Node11</title>
<g id="a_node11"><a xlink:href="store__ptr_8h.html" target="_top" xlink:title=" ">
<polygon fill="white" stroke="black" points="974.13,-302.5 974.13,-321.5 1060.13,-321.5 1060.13,-302.5 974.13,-302.5"/>
<text text-anchor="middle" x="1017.13" y="-309.5" font-family="Helvetica,sans-Serif" font-size="10.00">ccf/store_ptr.h</text>
</a>
</g>
</g>
<!-- Node10&#45;&gt;Node11 -->
<g id="edge10" class="edge">
<title>Node10&#45;&gt;Node11</title>
<path fill="none" stroke="midnightblue" d="M938.31,-363.98C953.21,-354.34 977.68,-338.52 995.4,-327.05"/>
<polygon fill="midnightblue" stroke="midnightblue" points="997.48,-329.88 1003.97,-321.51 993.68,-324 997.48,-329.88"/>
</g>
<!-- Node13 -->
<g id="node13" class="node">
<title>Node13</title>
<g id="a_node13"><a xlink:href="tx__id_8h.html" target="_top" xlink:title=" ">
<polygon fill="white" stroke="black" points="544.63,-302.5 544.63,-321.5 611.63,-321.5 611.63,-302.5 544.63,-302.5"/>
<text text-anchor="middle" x="578.13" y="-309.5" font-family="Helvetica,sans-Serif" font-size="10.00">ccf/tx_id.h</text>
</a>
</g>
</g>
<!-- Node10&#45;&gt;Node13 -->
<g id="edge12" class="edge">
<title>Node10&#45;&gt;Node13</title>
<path fill="none" stroke="midnightblue" d="M884.06,-363.96C873.96,-361.93 863.17,-359.83 853.13,-358 771.53,-343.11 675.88,-327.98 621.61,-319.61"/>
<polygon fill="midnightblue" stroke="midnightblue" points="622.06,-316.14 611.64,-318.08 620.99,-323.06 622.06,-316.14"/>
</g>
<!-- Node16 -->
<g id="node16" class="node">
<title>Node16</title>
<g id="a_node16"><a xlink:title=" ">
<polygon fill="white" stroke="#bfbfbf" points="971.13,-56.5 971.13,-75.5 1015.13,-75.5 1015.13,-56.5 971.13,-56.5"/>
<text text-anchor="middle" x="993.13" y="-63.5" font-family="Helvetica,sans-Serif" font-size="10.00">string</text>
</a>
</g>
</g>
<!-- Node10&#45;&gt;Node16 -->
<g id="edge38" class="edge">
<title>Node10&#45;&gt;Node16</title>
<path fill="none" stroke="midnightblue" d="M929.71,-363.6C936.8,-350.02 951.1,-323.43 965.13,-302 976.09,-285.27 982.77,-283.67 992.13,-266 1006.87,-238.18 1009.72,-230.01 1015.13,-199 1021.78,-160.91 1025.18,-149.6 1016.13,-112 1013.82,-102.42 1009.11,-92.58 1004.55,-84.56"/>
<polygon fill="midnightblue" stroke="midnightblue" points="1007.42,-82.54 999.24,-75.81 1001.44,-86.17 1007.42,-82.54"/>
</g>
<!-- Node27 -->
<g id="node27" class="node">
<title>Node27</title>
<g id="a_node27"><a xlink:title=" ">
<polygon fill="white" stroke="#bfbfbf" points="724.13,-241 724.13,-260 780.13,-260 780.13,-241 724.13,-241"/>
<text text-anchor="middle" x="752.13" y="-248" font-family="Helvetica,sans-Serif" font-size="10.00">optional</text>
</a>
</g>
</g>
<!-- Node10&#45;&gt;Node27 -->
<g id="edge37" class="edge">
<title>Node10&#45;&gt;Node27</title>
<path fill="none" stroke="midnightblue" d="M912.97,-363.99C883.75,-343.56 809.37,-291.54 772.92,-266.04"/>
<polygon fill="midnightblue" stroke="midnightblue" points="774.71,-263.02 764.51,-260.16 770.7,-268.76 774.71,-263.02"/>
</g>
<!-- Node12 -->
<g id="node12" class="node">
<title>Node12</title>
<g id="a_node12"><a xlink:title=" ">
<polygon fill="white" stroke="#bfbfbf" points="1059.13,-241 1059.13,-260 1117.13,-260 1117.13,-241 1059.13,-241"/>
<text text-anchor="middle" x="1088.13" y="-248" font-family="Helvetica,sans-Serif" font-size="10.00">memory</text>
</a>
</g>
</g>
<!-- Node11&#45;&gt;Node12 -->
<g id="edge11" class="edge">
<title>Node11&#45;&gt;Node12</title>
<path fill="none" stroke="midnightblue" d="M1027.3,-302.48C1038.48,-293.11 1056.65,-277.88 1070.22,-266.51"/>
<polygon fill="midnightblue" stroke="midnightblue" points="1072.56,-269.11 1077.98,-260.01 1068.06,-263.75 1072.56,-269.11"/>
</g>
<!-- Node13&#45;&gt;Node6 -->
<g id="edge31" class="edge">
<title>Node13&#45;&gt;Node6</title>
<path fill="none" stroke="midnightblue" d="M544.53,-305.7C432.61,-287.29 75.9,-222.26 11.13,-132 -11.07,-101.06 6.66,-54.11 19.27,-28.75"/>
<polygon fill="midnightblue" stroke="midnightblue" points="22.53,-30.07 24.08,-19.59 16.33,-26.82 22.53,-30.07"/>
</g>
<!-- Node13&#45;&gt;Node8 -->
<g id="edge32" class="edge">
<title>Node13&#45;&gt;Node8</title>
<path fill="none" stroke="midnightblue" d="M544.62,-308.2C486.25,-301.3 367.37,-277.78 317.13,-199 284.69,-148.13 369.25,-101.44 417.79,-79.75"/>
<polygon fill="midnightblue" stroke="midnightblue" points="419.48,-82.83 427.26,-75.63 416.69,-76.41 419.48,-82.83"/>
</g>
<!-- Node14 -->
<g id="node14" class="node">
<title>Node14</title>
<g id="a_node14"><a xlink:href="json_8h.html" target="_top" xlink:title=" ">
<polygon fill="white" stroke="black" points="798.63,-241 798.63,-260 875.63,-260 875.63,-241 798.63,-241"/>
<text text-anchor="middle" x="837.13" y="-248" font-family="Helvetica,sans-Serif" font-size="10.00">ccf/ds/json.h</text>
</a>
</g>
</g>
<!-- Node13&#45;&gt;Node14 -->
<g id="edge13" class="edge">
<title>Node13&#45;&gt;Node14</title>
<path fill="none" stroke="midnightblue" d="M611.95,-304.69C653.79,-296.67 727.1,-281.95 789.13,-266 792.8,-265.06 796.62,-264.01 800.41,-262.93"/>
<polygon fill="midnightblue" stroke="midnightblue" points="801.72,-266.2 810.33,-260.03 799.75,-259.48 801.72,-266.2"/>
</g>
<!-- Node13&#45;&gt;Node16 -->
<g id="edge35" class="edge">
<title>Node13&#45;&gt;Node16</title>
<path fill="none" stroke="midnightblue" d="M611.76,-307.78C686.78,-300.35 862.96,-281.48 885.13,-266 949.35,-221.16 979.03,-125.55 989.03,-85.38"/>
<polygon fill="midnightblue" stroke="midnightblue" points="992.45,-86.15 991.34,-75.61 985.63,-84.54 992.45,-86.15"/>
</g>
<!-- Node22 -->
<g id="node22" class="node">
<title>Node22</title>
<g id="a_node22"><a xlink:title=" ">
<polygon fill="white" stroke="#bfbfbf" points="506.63,-56.5 506.63,-75.5 579.63,-75.5 579.63,-56.5 506.63,-56.5"/>
<text text-anchor="middle" x="543.13" y="-63.5" font-family="Helvetica,sans-Serif" font-size="10.00">string_view</text>
</a>
</g>
</g>
<!-- Node13&#45;&gt;Node22 -->
<g id="edge36" class="edge">
<title>Node13&#45;&gt;Node22</title>
<path fill="none" stroke="midnightblue" d="M576.88,-302.32C571.85,-267.18 552.9,-135.12 545.82,-85.76"/>
<polygon fill="midnightblue" stroke="midnightblue" points="549.25,-84.98 544.36,-75.58 542.32,-85.98 549.25,-84.98"/>
</g>
<!-- Node24 -->
<g id="node24" class="node">
<title>Node24</title>
<g id="a_node24"><a xlink:title=" ">
<polygon fill="white" stroke="#bfbfbf" points="405.13,-112.5 405.13,-131.5 515.13,-131.5 515.13,-112.5 405.13,-112.5"/>
<text text-anchor="middle" x="460.13" y="-119.5" font-family="Helvetica,sans-Serif" font-size="10.00">nlohmann/json.hpp</text>
</a>
</g>
</g>
<!-- Node13&#45;&gt;Node24 -->
<g id="edge33" class="edge">
<title>Node13&#45;&gt;Node24</title>
<path fill="none" stroke="midnightblue" d="M544.31,-304.47C522.21,-298.37 494.65,-286.93 479.13,-266 451.74,-229.06 453.87,-171.54 457.26,-141.97"/>
<polygon fill="midnightblue" stroke="midnightblue" points="460.76,-142.16 458.61,-131.78 453.83,-141.24 460.76,-142.16"/>
</g>
<!-- Node26 -->
<g id="node26" class="node">
<title>Node26</title>
<g id="a_node26"><a xlink:title=" ">
<polygon fill="white" stroke="#bfbfbf" points="488.63,-241 488.63,-260 549.63,-260 549.63,-241 488.63,-241"/>
<text text-anchor="middle" x="519.13" y="-248" font-family="Helvetica,sans-Serif" font-size="10.00">charconv</text>
</a>
</g>
</g>
<!-- Node13&#45;&gt;Node26 -->
<g id="edge30" class="edge">
<title>Node13&#45;&gt;Node26</title>
<path fill="none" stroke="midnightblue" d="M569.68,-302.48C560.56,-293.28 545.86,-278.46 534.66,-267.16"/>
<polygon fill="midnightblue" stroke="midnightblue" points="537.09,-264.65 527.57,-260.01 532.12,-269.57 537.09,-264.65"/>
</g>
<!-- Node13&#45;&gt;Node27 -->
<g id="edge34" class="edge">
<title>Node13&#45;&gt;Node27</title>
<path fill="none" stroke="midnightblue" d="M605.58,-302.48C633.35,-293.75 677.44,-279.56 715.13,-266 717.03,-265.32 718.98,-264.6 720.94,-263.87"/>
<polygon fill="midnightblue" stroke="midnightblue" points="722.6,-266.98 730.69,-260.14 720.1,-260.44 722.6,-266.98"/>
</g>
<!-- Node14&#45;&gt;Node8 -->
<g id="edge28" class="edge">
<title>Node14&#45;&gt;Node8</title>
<path fill="none" stroke="midnightblue" d="M824.5,-240.91C801.06,-225.19 748.95,-191.28 702.13,-168 626.66,-130.47 533.65,-96.24 484.1,-78.91"/>
<polygon fill="midnightblue" stroke="midnightblue" points="485.09,-75.55 474.5,-75.57 482.8,-82.16 485.09,-75.55"/>
</g>
<!-- Node15 -->
<g id="node15" class="node">
<title>Node15</title>
<g id="a_node15"><a xlink:href="include_2ccf_2crypto_2base64_8h.html" target="_top" xlink:title=" ">
<polygon fill="white" stroke="black" points="815.13,-112.5 815.13,-131.5 927.13,-131.5 927.13,-112.5 815.13,-112.5"/>
<text text-anchor="middle" x="871.13" y="-119.5" font-family="Helvetica,sans-Serif" font-size="10.00">ccf/crypto/base64.h</text>
</a>
</g>
</g>
<!-- Node14&#45;&gt;Node15 -->
<g id="edge14" class="edge">
<title>Node14&#45;&gt;Node15</title>
<path fill="none" stroke="midnightblue" d="M839.79,-240.95C842.89,-230.94 848.08,-213.82 852.13,-199 857.44,-179.58 862.96,-157.2 866.68,-141.78"/>
<polygon fill="midnightblue" stroke="midnightblue" points="870.11,-142.46 869.03,-131.93 863.3,-140.84 870.11,-142.46"/>
</g>
<!-- Node17 -->
<g id="node17" class="node">
<title>Node17</title>
<g id="a_node17"><a xlink:href="include_2ccf_2ds_2json__schema_8h.html" target="_top" xlink:title=" ">
<polygon fill="white" stroke="black" points="571.63,-174 571.63,-193 692.63,-193 692.63,-174 571.63,-174"/>
<text text-anchor="middle" x="632.13" y="-181" font-family="Helvetica,sans-Serif" font-size="10.00">ccf/ds/json_schema.h</text>
</a>
</g>
</g>
<!-- Node14&#45;&gt;Node17 -->
<g id="edge17" class="edge">
<title>Node14&#45;&gt;Node17</title>
<path fill="none" stroke="midnightblue" d="M809.91,-240.87C773.66,-229.38 709.43,-209.01 668.9,-196.16"/>
<polygon fill="midnightblue" stroke="midnightblue" points="669.73,-192.75 659.14,-193.06 667.61,-199.42 669.73,-192.75"/>
</g>
<!-- Node25 -->
<g id="node25" class="node">
<title>Node25</title>
<g id="a_node25"><a xlink:title=" ">
<polygon fill="white" stroke="#bfbfbf" points="787.13,-174 787.13,-193 843.13,-193 843.13,-174 787.13,-174"/>
<text text-anchor="middle" x="815.13" y="-181" font-family="Helvetica,sans-Serif" font-size="10.00">sstream</text>
</a>
</g>
</g>
<!-- Node14&#45;&gt;Node25 -->
<g id="edge29" class="edge">
<title>Node14&#45;&gt;Node25</title>
<path fill="none" stroke="midnightblue" d="M834.16,-240.73C830.9,-231.09 825.56,-215.3 821.36,-202.91"/>
<polygon fill="midnightblue" stroke="midnightblue" points="824.57,-201.48 818.05,-193.13 817.94,-203.72 824.57,-201.48"/>
</g>
<!-- Node15&#45;&gt;Node7 -->
<g id="edge16" class="edge">
<title>Node15&#45;&gt;Node7</title>
<path fill="none" stroke="midnightblue" d="M881.16,-112.13C895.14,-98.74 917.13,-73.11 902.13,-56 881.96,-33 676.18,-18.05 593.88,-12.95"/>
<polygon fill="midnightblue" stroke="midnightblue" points="593.99,-9.45 583.8,-12.34 593.56,-16.44 593.99,-9.45"/>
</g>
<!-- Node15&#45;&gt;Node16 -->
<g id="edge15" class="edge">
<title>Node15&#45;&gt;Node16</title>
<path fill="none" stroke="midnightblue" d="M890.46,-112.44C910.45,-103.6 941.87,-89.69 964.69,-79.59"/>
<polygon fill="midnightblue" stroke="midnightblue" points="966.16,-82.76 973.89,-75.52 963.33,-76.36 966.16,-82.76"/>
</g>
<!-- Node17&#45;&gt;Node8 -->
<g id="edge26" class="edge">
<title>Node17&#45;&gt;Node8</title>
<path fill="none" stroke="midnightblue" d="M619.27,-173.88C599.13,-160.43 558.86,-133.74 524.13,-112 507.13,-101.36 487.71,-89.72 472.89,-80.95"/>
<polygon fill="midnightblue" stroke="midnightblue" points="474.28,-77.7 463.89,-75.63 470.72,-83.73 474.28,-77.7"/>
</g>
<!-- Node18 -->
<g id="node18" class="node">
<title>Node18</title>
<g id="a_node18"><a xlink:href="nonstd_8h.html" target="_top" xlink:title=" ">
<polygon fill="white" stroke="black" points="707.13,-112.5 707.13,-131.5 797.13,-131.5 797.13,-112.5 707.13,-112.5"/>
<text text-anchor="middle" x="752.13" y="-119.5" font-family="Helvetica,sans-Serif" font-size="10.00">ccf/ds/nonstd.h</text>
</a>
</g>
</g>
<!-- Node17&#45;&gt;Node18 -->
<g id="edge18" class="edge">
<title>Node17&#45;&gt;Node18</title>
<path fill="none" stroke="midnightblue" d="M649.32,-173.98C669.37,-164.03 702.73,-147.49 725.99,-135.96"/>
<polygon fill="midnightblue" stroke="midnightblue" points="727.57,-139.09 734.97,-131.51 724.46,-132.82 727.57,-139.09"/>
</g>
<!-- Node17&#45;&gt;Node24 -->
<g id="edge27" class="edge">
<title>Node17&#45;&gt;Node24</title>
<path fill="none" stroke="midnightblue" d="M607.49,-173.98C577.86,-163.72 527.95,-146.46 494.53,-134.9"/>
<polygon fill="midnightblue" stroke="midnightblue" points="495.32,-131.47 484.73,-131.51 493.03,-138.09 495.32,-131.47"/>
</g>
<!-- Node18&#45;&gt;Node7 -->
<g id="edge25" class="edge">
<title>Node18&#45;&gt;Node7</title>
<path fill="none" stroke="midnightblue" d="M794.09,-112.49C829.15,-104.42 875.13,-91.29 886.13,-76 891.32,-68.78 891.97,-62.7 886.13,-56 848.57,-12.89 670.46,-9.68 594.54,-10.34"/>
<polygon fill="midnightblue" stroke="midnightblue" points="594.07,-6.84 584.11,-10.46 594.15,-13.84 594.07,-6.84"/>
</g>
<!-- Node18&#45;&gt;Node16 -->
<g id="edge22" class="edge">
<title>Node18&#45;&gt;Node16</title>
<path fill="none" stroke="midnightblue" d="M790.32,-112.44C837.5,-101.87 916.94,-84.07 961.09,-74.18"/>
<polygon fill="midnightblue" stroke="midnightblue" points="962,-77.56 971,-71.96 960.47,-70.73 962,-77.56"/>
</g>
<!-- Node19 -->
<g id="node19" class="node">
<title>Node19</title>
<g id="a_node19"><a xlink:title=" ">
<polygon fill="white" stroke="#bfbfbf" points="598.13,-56.5 598.13,-75.5 662.13,-75.5 662.13,-56.5 598.13,-56.5"/>
<text text-anchor="middle" x="630.13" y="-63.5" font-family="Helvetica,sans-Serif" font-size="10.00">algorithm</text>
</a>
</g>
</g>
<!-- Node18&#45;&gt;Node19 -->
<g id="edge19" class="edge">
<title>Node18&#45;&gt;Node19</title>
<path fill="none" stroke="midnightblue" d="M732.8,-112.44C712.81,-103.6 681.39,-89.69 658.57,-79.59"/>
<polygon fill="midnightblue" stroke="midnightblue" points="659.93,-76.36 649.37,-75.52 657.1,-82.76 659.93,-76.36"/>
</g>
<!-- Node20 -->
<g id="node20" class="node">
<title>Node20</title>
<g id="a_node20"><a xlink:title=" ">
<polygon fill="white" stroke="#bfbfbf" points="680.13,-56.5 680.13,-75.5 722.13,-75.5 722.13,-56.5 680.13,-56.5"/>
<text text-anchor="middle" x="701.13" y="-63.5" font-family="Helvetica,sans-Serif" font-size="10.00">array</text>
</a>
</g>
</g>
<!-- Node18&#45;&gt;Node20 -->
<g id="edge20" class="edge">
<title>Node18&#45;&gt;Node20</title>
<path fill="none" stroke="midnightblue" d="M743.71,-112.08C736.28,-104.22 725.28,-92.57 716.32,-83.08"/>
<polygon fill="midnightblue" stroke="midnightblue" points="718.81,-80.62 709.4,-75.75 713.72,-85.42 718.81,-80.62"/>
</g>
<!-- Node21 -->
<g id="node21" class="node">
<title>Node21</title>
<g id="a_node21"><a xlink:title=" ">
<polygon fill="white" stroke="#bfbfbf" points="740.63,-56.5 740.63,-75.5 789.63,-75.5 789.63,-56.5 740.63,-56.5"/>
<text text-anchor="middle" x="765.13" y="-63.5" font-family="Helvetica,sans-Serif" font-size="10.00">cctype</text>
</a>
</g>
</g>
<!-- Node18&#45;&gt;Node21 -->
<g id="edge21" class="edge">
<title>Node18&#45;&gt;Node21</title>
<path fill="none" stroke="midnightblue" d="M754.28,-112.08C756,-104.93 758.48,-94.64 760.63,-85.69"/>
<polygon fill="midnightblue" stroke="midnightblue" points="764.09,-86.29 763.02,-75.75 757.28,-84.65 764.09,-86.29"/>
</g>
<!-- Node18&#45;&gt;Node22 -->
<g id="edge23" class="edge">
<title>Node18&#45;&gt;Node22</title>
<path fill="none" stroke="midnightblue" d="M719.01,-112.44C683.01,-103.14 625.36,-88.25 585.94,-78.06"/>
<polygon fill="midnightblue" stroke="midnightblue" points="586.65,-74.63 576.09,-75.52 584.9,-81.41 586.65,-74.63"/>
</g>
<!-- Node23 -->
<g id="node23" class="node">
<title>Node23</title>
<g id="a_node23"><a xlink:title=" ">
<polygon fill="white" stroke="#bfbfbf" points="807.63,-56.5 807.63,-75.5 876.63,-75.5 876.63,-56.5 807.63,-56.5"/>
<text text-anchor="middle" x="842.13" y="-63.5" font-family="Helvetica,sans-Serif" font-size="10.00">type_traits</text>
</a>
</g>
</g>
<!-- Node18&#45;&gt;Node23 -->
<g id="edge24" class="edge">
<title>Node18&#45;&gt;Node23</title>
<path fill="none" stroke="midnightblue" d="M766.59,-112.32C780.63,-103.9 802.18,-90.97 818.67,-81.07"/>
<polygon fill="midnightblue" stroke="midnightblue" points="820.93,-83.8 827.71,-75.65 817.33,-77.8 820.93,-83.8"/>
</g>
<!-- Node29 -->
<g id="node29" class="node">
<title>Node29</title>
<g id="a_node29"><a xlink:href="historical__queries__interface_8h.html" target="_top" xlink:title=" ">
<polygon fill="white" stroke="black" points="919.13,-425.5 919.13,-455.5 1039.13,-455.5 1039.13,-425.5 919.13,-425.5"/>
<text text-anchor="start" x="927.13" y="-443.5" font-family="Helvetica,sans-Serif" font-size="10.00">ccf/historical_queries</text>
<text text-anchor="middle" x="979.13" y="-432.5" font-family="Helvetica,sans-Serif" font-size="10.00">_interface.h</text>
</a>
</g>
</g>
<!-- Node28&#45;&gt;Node29 -->
<g id="edge40" class="edge">
<title>Node28&#45;&gt;Node29</title>
<path fill="none" stroke="midnightblue" d="M1023.68,-492.48C1017.03,-484.87 1007.01,-473.4 998.15,-463.26"/>
<polygon fill="midnightblue" stroke="midnightblue" points="1000.6,-460.75 991.39,-455.52 995.33,-465.36 1000.6,-460.75"/>
</g>
<!-- Node30 -->
<g id="node30" class="node">
<title>Node30</title>
<g id="a_node30"><a xlink:href="node__subsystem__interface_8h.html" target="_top" xlink:title=" ">
<polygon fill="white" stroke="black" points="1083.13,-358.5 1083.13,-388.5 1199.13,-388.5 1199.13,-358.5 1083.13,-358.5"/>
<text text-anchor="start" x="1091.13" y="-376.5" font-family="Helvetica,sans-Serif" font-size="10.00">ccf/node_subsystem</text>
<text text-anchor="middle" x="1141.13" y="-365.5" font-family="Helvetica,sans-Serif" font-size="10.00">_interface.h</text>
</a>
</g>
</g>
<!-- Node28&#45;&gt;Node30 -->
<g id="edge67" class="edge">
<title>Node28&#45;&gt;Node30</title>
<path fill="none" stroke="midnightblue" d="M1038.69,-492.31C1055.66,-472.8 1097.19,-425.03 1121.85,-396.67"/>
<polygon fill="midnightblue" stroke="midnightblue" points="1124.7,-398.73 1128.62,-388.89 1119.42,-394.14 1124.7,-398.73"/>
</g>
<!-- Node39 -->
<g id="node39" class="node">
<title>Node39</title>
<g id="a_node39"><a xlink:href="indexer__interface_8h.html" target="_top" xlink:title=" ">
<polygon fill="white" stroke="black" points="1120.63,-425.5 1120.63,-455.5 1235.63,-455.5 1235.63,-425.5 1120.63,-425.5"/>
<text text-anchor="start" x="1128.63" y="-443.5" font-family="Helvetica,sans-Serif" font-size="10.00">ccf/indexing/indexer</text>
<text text-anchor="middle" x="1178.13" y="-432.5" font-family="Helvetica,sans-Serif" font-size="10.00">_interface.h</text>
</a>
</g>
</g>
<!-- Node28&#45;&gt;Node39 -->
<g id="edge61" class="edge">
<title>Node28&#45;&gt;Node39</title>
<path fill="none" stroke="midnightblue" d="M1052.19,-492.48C1073.5,-483.85 1107.07,-470.26 1134.19,-459.29"/>
<polygon fill="midnightblue" stroke="midnightblue" points="1135.53,-462.52 1143.49,-455.52 1132.9,-456.03 1135.53,-462.52"/>
</g>
<!-- Node29&#45;&gt;Node11 -->
<g id="edge57" class="edge">
<title>Node29&#45;&gt;Node11</title>
<path fill="none" stroke="midnightblue" d="M985.07,-425.07C989.06,-415.05 994.28,-401.34 998.13,-389 1004.19,-369.57 1009.66,-346.88 1013.16,-331.38"/>
<polygon fill="midnightblue" stroke="midnightblue" points="1016.6,-332.04 1015.34,-321.52 1009.76,-330.53 1016.6,-332.04"/>
</g>
<!-- Node29&#45;&gt;Node12 -->
<g id="edge60" class="edge">
<title>Node29&#45;&gt;Node12</title>
<path fill="none" stroke="midnightblue" d="M993.13,-425.2C1012.88,-404.26 1048.78,-363.25 1069.13,-322 1077.36,-305.33 1082.39,-284.63 1085.19,-269.98"/>
<polygon fill="midnightblue" stroke="midnightblue" points="1088.64,-270.58 1086.92,-260.13 1081.75,-269.38 1088.64,-270.58"/>
</g>
<!-- Node29&#45;&gt;Node13 -->
<g id="edge58" class="edge">
<title>Node29&#45;&gt;Node13</title>
<path fill="none" stroke="midnightblue" d="M918.87,-430.67C840.09,-418.88 709.67,-398.38 689.13,-389 669.3,-379.95 668.89,-370.64 651.13,-358 635.31,-346.74 616.66,-335.28 602.17,-326.73"/>
<polygon fill="midnightblue" stroke="midnightblue" points="603.72,-323.59 593.32,-321.58 600.2,-329.64 603.72,-323.59"/>
</g>
<!-- Node29&#45;&gt;Node30 -->
<g id="edge41" class="edge">
<title>Node29&#45;&gt;Node30</title>
<path fill="none" stroke="midnightblue" d="M1014.28,-425.4C1038.38,-415.73 1070.54,-402.82 1096.45,-392.43"/>
<polygon fill="midnightblue" stroke="midnightblue" points="1098.07,-395.55 1106.05,-388.58 1095.46,-389.05 1098.07,-395.55"/>
</g>
<!-- Node31 -->
<g id="node31" class="node">
<title>Node31</title>
<g id="a_node31"><a xlink:href="include_2ccf_2receipt_8h.html" target="_top" xlink:title=" ">
<polygon fill="white" stroke="black" points="766.63,-364 766.63,-383 843.63,-383 843.63,-364 766.63,-364"/>
<text text-anchor="middle" x="805.13" y="-371" font-family="Helvetica,sans-Serif" font-size="10.00">ccf/receipt.h</text>
</a>
</g>
</g>
<!-- Node29&#45;&gt;Node31 -->
<g id="edge42" class="edge">
<title>Node29&#45;&gt;Node31</title>
<path fill="none" stroke="midnightblue" d="M941.38,-425.4C910.3,-413.79 866.74,-397.51 837.31,-386.52"/>
<polygon fill="midnightblue" stroke="midnightblue" points="838.5,-383.23 827.9,-383.01 836.05,-389.79 838.5,-383.23"/>
</g>
<!-- Node29&#45;&gt;Node35 -->
<g id="edge51" class="edge">
<title>Node29&#45;&gt;Node35</title>
<path fill="none" stroke="midnightblue" d="M918.93,-430.57C854,-420.83 747.62,-404.55 656.13,-389 648.49,-387.7 640.45,-386.29 632.54,-384.86"/>
<polygon fill="midnightblue" stroke="midnightblue" points="633.09,-381.4 622.63,-383.06 631.84,-388.29 633.09,-381.4"/>
</g>
<!-- Node38 -->
<g id="node38" class="node">
<title>Node38</title>
<g id="a_node38"><a xlink:title=" ">
<polygon fill="white" stroke="#bfbfbf" points="698.13,-364 698.13,-383 748.13,-383 748.13,-364 698.13,-364"/>
<text text-anchor="middle" x="723.13" y="-371" font-family="Helvetica,sans-Serif" font-size="10.00">chrono</text>
</a>
</g>
</g>
<!-- Node29&#45;&gt;Node38 -->
<g id="edge59" class="edge">
<title>Node29&#45;&gt;Node38</title>
<path fill="none" stroke="midnightblue" d="M918.84,-428.57C873.99,-419.76 811.56,-406.04 758.13,-389 755.99,-388.32 753.8,-387.56 751.61,-386.76"/>
<polygon fill="midnightblue" stroke="midnightblue" points="752.76,-383.45 742.17,-383.07 750.21,-389.97 752.76,-383.45"/>
</g>
<!-- Node31&#45;&gt;Node14 -->
<g id="edge43" class="edge">
<title>Node31&#45;&gt;Node14</title>
<path fill="none" stroke="midnightblue" d="M807.43,-363.8C812.6,-344.26 825.21,-296.56 832.23,-270.05"/>
<polygon fill="midnightblue" stroke="midnightblue" points="835.68,-270.69 834.85,-260.12 828.91,-268.9 835.68,-270.69"/>
</g>
<!-- Node32 -->
<g id="node32" class="node">
<title>Node32</title>
<g id="a_node32"><a xlink:href="entity__id_8h.html" target="_top" xlink:title=" ">
<polygon fill="white" stroke="black" points="720.13,-302.5 720.13,-321.5 806.13,-321.5 806.13,-302.5 720.13,-302.5"/>
<text text-anchor="middle" x="763.13" y="-309.5" font-family="Helvetica,sans-Serif" font-size="10.00">ccf/entity_id.h</text>
</a>
</g>
</g>
<!-- Node31&#45;&gt;Node32 -->
<g id="edge44" class="edge">
<title>Node31&#45;&gt;Node32</title>
<path fill="none" stroke="midnightblue" d="M799.11,-363.98C792.88,-355.14 782.96,-341.09 775.11,-329.98"/>
<polygon fill="midnightblue" stroke="midnightblue" points="777.76,-327.66 769.14,-321.51 772.04,-331.7 777.76,-327.66"/>
</g>
<!-- Node32&#45;&gt;Node14 -->
<g id="edge45" class="edge">
<title>Node32&#45;&gt;Node14</title>
<path fill="none" stroke="midnightblue" d="M773.73,-302.48C785.38,-293.11 804.32,-277.88 818.47,-266.51"/>
<polygon fill="midnightblue" stroke="midnightblue" points="820.95,-269 826.55,-260.01 816.56,-263.55 820.95,-269"/>
</g>
<!-- Node32&#45;&gt;Node16 -->
<g id="edge50" class="edge">
<title>Node32&#45;&gt;Node16</title>
<path fill="none" stroke="midnightblue" d="M806.4,-307.36C860.24,-301.88 947.71,-289.56 969.13,-266 1015.37,-215.15 1004.55,-124.31 997.19,-85.46"/>
<polygon fill="midnightblue" stroke="midnightblue" points="1000.6,-84.66 995.17,-75.56 993.74,-86.06 1000.6,-84.66"/>
</g>
<!-- Node33 -->
<g id="node33" class="node">
<title>Node33</title>
<g id="a_node33"><a xlink:href="blit__serialiser_8h.html" target="_top" xlink:title=" ">
<polygon fill="white" stroke="black" points="606.63,-235.5 606.63,-265.5 705.63,-265.5 705.63,-235.5 606.63,-235.5"/>
<text text-anchor="start" x="614.63" y="-253.5" font-family="Helvetica,sans-Serif" font-size="10.00">ccf/kv/serialisers</text>
<text text-anchor="middle" x="656.13" y="-242.5" font-family="Helvetica,sans-Serif" font-size="10.00">/blit_serialiser.h</text>
</a>
</g>
</g>
<!-- Node32&#45;&gt;Node33 -->
<g id="edge46" class="edge">
<title>Node32&#45;&gt;Node33</title>
<path fill="none" stroke="midnightblue" d="M747.8,-302.48C732.83,-294.15 709.55,-281.21 690.2,-270.45"/>
<polygon fill="midnightblue" stroke="midnightblue" points="691.79,-267.32 681.35,-265.52 688.39,-273.44 691.79,-267.32"/>
</g>
<!-- Node33&#45;&gt;Node18 -->
<g id="edge47" class="edge">
<title>Node33&#45;&gt;Node18</title>
<path fill="none" stroke="midnightblue" d="M670.04,-235.44C679.51,-225.59 692.09,-211.93 702.13,-199 717.05,-179.79 732.12,-156.18 741.75,-140.42"/>
<polygon fill="midnightblue" stroke="midnightblue" points="744.83,-142.1 747,-131.74 738.84,-138.49 744.83,-142.1"/>
</g>
<!-- Node34 -->
<g id="node34" class="node">
<title>Node34</title>
<g id="a_node34"><a xlink:href="serialised__entry_8h.html" target="_top" xlink:title=" ">
<polygon fill="white" stroke="black" points="326.63,-168.5 326.63,-198.5 431.63,-198.5 431.63,-168.5 326.63,-168.5"/>
<text text-anchor="start" x="334.63" y="-186.5" font-family="Helvetica,sans-Serif" font-size="10.00">ccf/kv/serialisers</text>
<text text-anchor="middle" x="379.13" y="-175.5" font-family="Helvetica,sans-Serif" font-size="10.00">/serialised_entry.h</text>
</a>
</g>
</g>
<!-- Node33&#45;&gt;Node34 -->
<g id="edge48" class="edge">
<title>Node33&#45;&gt;Node34</title>
<path fill="none" stroke="midnightblue" d="M606.61,-237.88C560.6,-227.08 491.88,-210.96 442.02,-199.26"/>
<polygon fill="midnightblue" stroke="midnightblue" points="442.53,-195.78 432,-196.91 440.93,-202.6 442.53,-195.78"/>
</g>
<!-- Node34&#45;&gt;Node3 -->
<g id="edge49" class="edge">
<title>Node34&#45;&gt;Node3</title>
<path fill="none" stroke="midnightblue" d="M341.45,-168.4C314.53,-158.33 278.68,-144.91 252.94,-135.28"/>
<polygon fill="midnightblue" stroke="midnightblue" points="253.86,-131.88 243.27,-131.66 251.41,-138.44 253.86,-131.88"/>
</g>
<!-- Node35&#45;&gt;Node13 -->
<g id="edge56" class="edge">
<title>Node35&#45;&gt;Node13</title>
<path fill="none" stroke="midnightblue" d="M577.27,-363.98C577.41,-355.58 577.64,-342.48 577.82,-331.66"/>
<polygon fill="midnightblue" stroke="midnightblue" points="581.32,-331.57 577.99,-321.51 574.32,-331.45 581.32,-331.57"/>
</g>
<!-- Node36 -->
<g id="node36" class="node">
<title>Node36</title>
<g id="a_node36"><a xlink:href="contiguous__set_8h.html" target="_top" xlink:title=" ">
<polygon fill="white" stroke="black" points="20.63,-112.5 20.63,-131.5 151.63,-131.5 151.63,-112.5 20.63,-112.5"/>
<text text-anchor="middle" x="86.13" y="-119.5" font-family="Helvetica,sans-Serif" font-size="10.00">ccf/ds/contiguous_set.h</text>
</a>
</g>
</g>
<!-- Node35&#45;&gt;Node36 -->
<g id="edge52" class="edge">
<title>Node35&#45;&gt;Node36</title>
<path fill="none" stroke="midnightblue" d="M557.53,-363.96C517.56,-346.43 423.93,-304.76 347.13,-266 258.21,-221.12 155.2,-162.74 109.75,-136.64"/>
<polygon fill="midnightblue" stroke="midnightblue" points="111.36,-133.53 100.95,-131.58 107.87,-139.6 111.36,-133.53"/>
</g>
<!-- Node36&#45;&gt;Node7 -->
<g id="edge55" class="edge">
<title>Node36&#45;&gt;Node7</title>
<path fill="none" stroke="midnightblue" d="M108.52,-112.46C130.74,-103.82 165.65,-89.81 195.13,-76 212.41,-67.91 214.96,-61.83 233.13,-56 336.59,-22.79 466.19,-14.09 526.44,-11.81"/>
<polygon fill="midnightblue" stroke="midnightblue" points="526.65,-15.3 536.52,-11.46 526.41,-8.31 526.65,-15.3"/>
</g>
<!-- Node36&#45;&gt;Node8 -->
<g id="edge53" class="edge">
<title>Node36&#45;&gt;Node8</title>
<path fill="none" stroke="midnightblue" d="M150.89,-112.48C212.23,-104.23 307.16,-91.03 399.49,-76.05"/>
<polygon fill="midnightblue" stroke="midnightblue" points="400.27,-79.47 409.57,-74.4 399.14,-72.56 400.27,-79.47"/>
</g>
<!-- Node37 -->
<g id="node37" class="node">
<title>Node37</title>
<g id="a_node37"><a xlink:title=" ">
<polygon fill="white" stroke="#bfbfbf" points="17.13,-56.5 17.13,-75.5 73.13,-75.5 73.13,-56.5 17.13,-56.5"/>
<text text-anchor="middle" x="45.13" y="-63.5" font-family="Helvetica,sans-Serif" font-size="10.00">numeric</text>
</a>
</g>
</g>
<!-- Node36&#45;&gt;Node37 -->
<g id="edge54" class="edge">
<title>Node36&#45;&gt;Node37</title>
<path fill="none" stroke="midnightblue" d="M79.36,-112.08C73.57,-104.46 65.07,-93.26 57.99,-83.94"/>
<polygon fill="midnightblue" stroke="midnightblue" points="60.61,-81.6 51.77,-75.75 55.03,-85.83 60.61,-81.6"/>
</g>
<!-- Node39&#45;&gt;Node10 -->
<g id="edge62" class="edge">
<title>Node39&#45;&gt;Node10</title>
<path fill="none" stroke="midnightblue" d="M1123.54,-425.48C1077.01,-413.52 1011.04,-396.57 968.17,-385.56"/>
<polygon fill="midnightblue" stroke="midnightblue" points="968.88,-382.13 958.33,-383.03 967.14,-388.91 968.88,-382.13"/>
</g>
<!-- Node39&#45;&gt;Node12 -->
<g id="edge65" class="edge">
<title>Node39&#45;&gt;Node12</title>
<path fill="none" stroke="midnightblue" d="M1190.01,-425.42C1202.35,-408.98 1218.52,-381.1 1208.13,-358 1188.86,-315.13 1142.86,-282.5 1113.74,-265.24"/>
<polygon fill="midnightblue" stroke="midnightblue" points="1115.34,-262.13 1104.93,-260.19 1111.86,-268.2 1115.34,-262.13"/>
</g>
<!-- Node39&#45;&gt;Node30 -->
<g id="edge63" class="edge">
<title>Node39&#45;&gt;Node30</title>
<path fill="none" stroke="midnightblue" d="M1170.1,-425.4C1165.45,-417.22 1159.47,-406.73 1154.16,-397.39"/>
<polygon fill="midnightblue" stroke="midnightblue" points="1157.13,-395.54 1149.14,-388.58 1151.05,-399 1157.13,-395.54"/>
</g>
<!-- Node40 -->
<g id="node40" class="node">
<title>Node40</title>
<g id="a_node40"><a xlink:title=" ">
<polygon fill="white" stroke="#bfbfbf" points="1255.13,-364 1255.13,-383 1293.13,-383 1293.13,-364 1255.13,-364"/>
<text text-anchor="middle" x="1274.13" y="-371" font-family="Helvetica,sans-Serif" font-size="10.00">map</text>
</a>
</g>
</g>
<!-- Node39&#45;&gt;Node40 -->
<g id="edge64" class="edge">
<title>Node39&#45;&gt;Node40</title>
<path fill="none" stroke="midnightblue" d="M1198.96,-425.4C1214.91,-414.6 1236.83,-399.76 1252.88,-388.89"/>
<polygon fill="midnightblue" stroke="midnightblue" points="1255.25,-391.51 1261.57,-383.01 1251.32,-385.72 1255.25,-391.51"/>
</g>
<!-- Node41 -->
<g id="node41" class="node">
<title>Node41</title>
<g id="a_node41"><a xlink:title=" ">
<polygon fill="white" stroke="#bfbfbf" points="1311.13,-364 1311.13,-383 1343.13,-383 1343.13,-364 1311.13,-364"/>
<text text-anchor="middle" x="1327.13" y="-371" font-family="Helvetica,sans-Serif" font-size="10.00">set</text>
</a>
</g>
</g>
<!-- Node39&#45;&gt;Node41 -->
<g id="edge66" class="edge">
<title>Node39&#45;&gt;Node41</title>
<path fill="none" stroke="midnightblue" d="M1216.45,-425.48C1241.26,-416.01 1274.06,-402.77 1302.13,-389 1302.81,-388.67 1303.49,-388.33 1304.17,-387.98"/>
<polygon fill="midnightblue" stroke="midnightblue" points="1305.94,-391 1313.04,-383.13 1302.59,-384.85 1305.94,-391"/>
</g>
</g>
</svg>
