<?xml version="1.0" encoding="UTF-8" standalone="no"?>
<!DOCTYPE svg PUBLIC "-//W3C//DTD SVG 1.1//EN"
 "http://www.w3.org/Graphics/SVG/1.1/DTD/svg11.dtd">
<!-- Generated by graphviz version 2.43.0 (0)
 -->
<!-- Title: src/apps/tpcc/app/serialise_msgpack.h Pages: 1 -->
<svg width="1103pt" height="464pt"
 viewBox="0.00 0.00 1102.50 464.00" xmlns="http://www.w3.org/2000/svg" xmlns:xlink="http://www.w3.org/1999/xlink">
<g id="graph0" class="graph" transform="scale(1 1) rotate(0) translate(4 460)">
<title>src/apps/tpcc/app/serialise_msgpack.h</title>
<polygon fill="white" stroke="transparent" points="-4,4 -4,-460 1098.5,-460 1098.5,4 -4,4"/>
<!-- Node1 -->
<g id="node1" class="node">
<title>Node1</title>
<g id="a_node1"><a xlink:title=" ">
<polygon fill="#bfbfbf" stroke="black" points="560.5,-425.5 560.5,-455.5 706.5,-455.5 706.5,-425.5 560.5,-425.5"/>
<text text-anchor="start" x="568.5" y="-443.5" font-family="Helvetica,sans-Serif" font-size="10.00">src/apps/tpcc/app/serialise</text>
<text text-anchor="middle" x="633.5" y="-432.5" font-family="Helvetica,sans-Serif" font-size="10.00">_msgpack.h</text>
</a>
</g>
</g>
<!-- Node2 -->
<g id="node2" class="node">
<title>Node2</title>
<g id="a_node2"><a xlink:href="kv_2map_8h.html" target="_top" xlink:title=" ">
<polygon fill="white" stroke="black" points="593.5,-369.5 593.5,-388.5 673.5,-388.5 673.5,-369.5 593.5,-369.5"/>
<text text-anchor="middle" x="633.5" y="-376.5" font-family="Helvetica,sans-Serif" font-size="10.00">ccf/kv/map.h</text>
</a>
</g>
</g>
<!-- Node1&#45;&gt;Node2 -->
<g id="edge1" class="edge">
<title>Node1&#45;&gt;Node2</title>
<path fill="none" stroke="midnightblue" d="M633.5,-425.4C633.5,-417.47 633.5,-407.46 633.5,-398.86"/>
<polygon fill="midnightblue" stroke="midnightblue" points="637,-398.66 633.5,-388.66 630,-398.66 637,-398.66"/>
</g>
<!-- Node12 -->
<g id="node12" class="node">
<title>Node12</title>
<g id="a_node12"><a xlink:href="serialised__entry_8h.html" target="_top" xlink:title=" ">
<polygon fill="white" stroke="black" points="489,-168.5 489,-198.5 594,-198.5 594,-168.5 489,-168.5"/>
<text text-anchor="start" x="497" y="-186.5" font-family="Helvetica,sans-Serif" font-size="10.00">ccf/kv/serialisers</text>
<text text-anchor="middle" x="541.5" y="-175.5" font-family="Helvetica,sans-Serif" font-size="10.00">/serialised_entry.h</text>
</a>
</g>
</g>
<!-- Node1&#45;&gt;Node12 -->
<g id="edge41" class="edge">
<title>Node1&#45;&gt;Node12</title>
<path fill="none" stroke="midnightblue" d="M560.19,-436.39C488.8,-428.99 383.78,-405.53 332.5,-333 287.41,-269.21 402.36,-223.1 479.11,-200.4"/>
<polygon fill="midnightblue" stroke="midnightblue" points="480.1,-203.75 488.74,-197.61 478.16,-197.03 480.1,-203.75"/>
</g>
<!-- Node32 -->
<g id="node32" class="node">
<title>Node32</title>
<g id="a_node32"><a xlink:title=" ">
<polygon fill="white" stroke="#bfbfbf" points="692,-369.5 692,-388.5 821,-388.5 821,-369.5 692,-369.5"/>
<text text-anchor="middle" x="756.5" y="-376.5" font-family="Helvetica,sans-Serif" font-size="10.00">msgpack/msgpack.hpp</text>
</a>
</g>
</g>
<!-- Node1&#45;&gt;Node32 -->
<g id="edge42" class="edge">
<title>Node1&#45;&gt;Node32</title>
<path fill="none" stroke="midnightblue" d="M662.65,-425.4C682.92,-415.59 709.74,-402.62 729.52,-393.05"/>
<polygon fill="midnightblue" stroke="midnightblue" points="731.12,-396.16 738.6,-388.66 728.08,-389.86 731.12,-396.16"/>
</g>
<!-- Node3 -->
<g id="node3" class="node">
<title>Node3</title>
<g id="a_node3"><a xlink:href="get__name_8h.html" target="_top" xlink:title=" ">
<polygon fill="white" stroke="black" points="342,-308 342,-327 449,-327 449,-308 342,-308"/>
<text text-anchor="middle" x="395.5" y="-315" font-family="Helvetica,sans-Serif" font-size="10.00">ccf/kv/get_name.h</text>
</a>
</g>
</g>
<!-- Node2&#45;&gt;Node3 -->
<g id="edge2" class="edge">
<title>Node2&#45;&gt;Node3</title>
<path fill="none" stroke="midnightblue" d="M599.4,-369.48C557.25,-358.94 485.45,-340.99 439.27,-329.44"/>
<polygon fill="midnightblue" stroke="midnightblue" points="440.09,-326.04 429.54,-327.01 438.39,-332.83 440.09,-326.04"/>
</g>
<!-- Node5 -->
<g id="node5" class="node">
<title>Node5</title>
<g id="a_node5"><a xlink:href="include_2ccf_2kv_2hooks_8h.html" target="_top" xlink:title=" ">
<polygon fill="white" stroke="black" points="928,-241 928,-260 1015,-260 1015,-241 928,-241"/>
<text text-anchor="middle" x="971.5" y="-248" font-family="Helvetica,sans-Serif" font-size="10.00">ccf/kv/hooks.h</text>
</a>
</g>
</g>
<!-- Node2&#45;&gt;Node5 -->
<g id="edge4" class="edge">
<title>Node2&#45;&gt;Node5</title>
<path fill="none" stroke="midnightblue" d="M673.59,-370.49C676.6,-369.97 679.6,-369.47 682.5,-369 740.53,-359.69 899.31,-370.58 944.5,-333 963.09,-317.54 968.96,-288.94 970.77,-270.06"/>
<polygon fill="midnightblue" stroke="midnightblue" points="974.27,-270.22 971.44,-260.01 967.28,-269.76 974.27,-270.22"/>
</g>
<!-- Node9 -->
<g id="node9" class="node">
<title>Node9</title>
<g id="a_node9"><a xlink:href="map__handle_8h.html" target="_top" xlink:title=" ">
<polygon fill="white" stroke="black" points="701.5,-308 701.5,-327 819.5,-327 819.5,-308 701.5,-308"/>
<text text-anchor="middle" x="760.5" y="-315" font-family="Helvetica,sans-Serif" font-size="10.00">ccf/kv/map_handle.h</text>
</a>
</g>
</g>
<!-- Node2&#45;&gt;Node9 -->
<g id="edge8" class="edge">
<title>Node2&#45;&gt;Node9</title>
<path fill="none" stroke="midnightblue" d="M651.7,-369.48C673.01,-359.49 708.53,-342.85 733.16,-331.31"/>
<polygon fill="midnightblue" stroke="midnightblue" points="734.77,-334.42 742.34,-327.01 731.8,-328.08 734.77,-334.42"/>
</g>
<!-- Node21 -->
<g id="node21" class="node">
<title>Node21</title>
<g id="a_node21"><a xlink:href="blit__serialiser_8h.html" target="_top" xlink:title=" ">
<polygon fill="white" stroke="black" points="467,-302.5 467,-332.5 566,-332.5 566,-302.5 467,-302.5"/>
<text text-anchor="start" x="475" y="-320.5" font-family="Helvetica,sans-Serif" font-size="10.00">ccf/kv/serialisers</text>
<text text-anchor="middle" x="516.5" y="-309.5" font-family="Helvetica,sans-Serif" font-size="10.00">/blit_serialiser.h</text>
</a>
</g>
</g>
<!-- Node2&#45;&gt;Node21 -->
<g id="edge23" class="edge">
<title>Node2&#45;&gt;Node21</title>
<path fill="none" stroke="midnightblue" d="M616.74,-369.48C600.22,-361.08 574.45,-347.97 553.18,-337.15"/>
<polygon fill="midnightblue" stroke="midnightblue" points="554.57,-333.94 544.07,-332.52 551.4,-340.18 554.57,-333.94"/>
</g>
<!-- Node28 -->
<g id="node28" class="node">
<title>Node28</title>
<g id="a_node28"><a xlink:href="json__serialiser_8h.html" target="_top" xlink:title=" ">
<polygon fill="white" stroke="black" points="584,-302.5 584,-332.5 683,-332.5 683,-302.5 584,-302.5"/>
<text text-anchor="start" x="592" y="-320.5" font-family="Helvetica,sans-Serif" font-size="10.00">ccf/kv/serialisers</text>
<text text-anchor="middle" x="633.5" y="-309.5" font-family="Helvetica,sans-Serif" font-size="10.00">/json_serialiser.h</text>
</a>
</g>
</g>
<!-- Node2&#45;&gt;Node28 -->
<g id="edge33" class="edge">
<title>Node2&#45;&gt;Node28</title>
<path fill="none" stroke="midnightblue" d="M633.5,-369.48C633.5,-362.47 633.5,-352.19 633.5,-342.7"/>
<polygon fill="midnightblue" stroke="midnightblue" points="637,-342.52 633.5,-332.52 630,-342.52 637,-342.52"/>
</g>
<!-- Node30 -->
<g id="node30" class="node">
<title>Node30</title>
<g id="a_node30"><a xlink:href="untyped_8h.html" target="_top" xlink:title=" ">
<polygon fill="white" stroke="black" points="837.5,-308 837.5,-327 935.5,-327 935.5,-308 837.5,-308"/>
<text text-anchor="middle" x="886.5" y="-315" font-family="Helvetica,sans-Serif" font-size="10.00">ccf/kv/untyped.h</text>
</a>
</g>
</g>
<!-- Node2&#45;&gt;Node30 -->
<g id="edge36" class="edge">
<title>Node2&#45;&gt;Node30</title>
<path fill="none" stroke="midnightblue" d="M671.29,-369.49C710.61,-360.59 773.94,-346.11 828.5,-333 833.17,-331.88 838.05,-330.69 842.91,-329.49"/>
<polygon fill="midnightblue" stroke="midnightblue" points="843.93,-332.84 852.79,-327.04 842.24,-326.05 843.93,-332.84"/>
</g>
<!-- Node4 -->
<g id="node4" class="node">
<title>Node4</title>
<g id="a_node4"><a xlink:title=" ">
<polygon fill="white" stroke="#bfbfbf" points="426.5,-174 426.5,-193 470.5,-193 470.5,-174 426.5,-174"/>
<text text-anchor="middle" x="448.5" y="-181" font-family="Helvetica,sans-Serif" font-size="10.00">string</text>
</a>
</g>
</g>
<!-- Node3&#45;&gt;Node4 -->
<g id="edge3" class="edge">
<title>Node3&#45;&gt;Node4</title>
<path fill="none" stroke="midnightblue" d="M398.98,-307.84C407.51,-286.58 429.64,-231.46 441.21,-202.65"/>
<polygon fill="midnightblue" stroke="midnightblue" points="444.6,-203.61 445.08,-193.02 438.1,-201 444.6,-203.61"/>
</g>
<!-- Node6 -->
<g id="node6" class="node">
<title>Node6</title>
<g id="a_node6"><a xlink:href="version_8h.html" target="_top" xlink:title=" ">
<polygon fill="white" stroke="black" points="924.5,-174 924.5,-193 1018.5,-193 1018.5,-174 924.5,-174"/>
<text text-anchor="middle" x="971.5" y="-181" font-family="Helvetica,sans-Serif" font-size="10.00">ccf/kv/version.h</text>
</a>
</g>
</g>
<!-- Node5&#45;&gt;Node6 -->
<g id="edge5" class="edge">
<title>Node5&#45;&gt;Node6</title>
<path fill="none" stroke="midnightblue" d="M971.5,-240.73C971.5,-231.18 971.5,-215.62 971.5,-203.28"/>
<polygon fill="midnightblue" stroke="midnightblue" points="975,-203.13 971.5,-193.13 968,-203.13 975,-203.13"/>
</g>
<!-- Node7 -->
<g id="node7" class="node">
<title>Node7</title>
<g id="a_node7"><a xlink:title=" ">
<polygon fill="white" stroke="#bfbfbf" points="841,-174 841,-193 906,-193 906,-174 841,-174"/>
<text text-anchor="middle" x="873.5" y="-181" font-family="Helvetica,sans-Serif" font-size="10.00">functional</text>
</a>
</g>
</g>
<!-- Node5&#45;&gt;Node7 -->
<g id="edge6" class="edge">
<title>Node5&#45;&gt;Node7</title>
<path fill="none" stroke="midnightblue" d="M958.28,-240.73C942.05,-229.96 914.28,-211.55 894.97,-198.74"/>
<polygon fill="midnightblue" stroke="midnightblue" points="896.78,-195.74 886.51,-193.13 892.91,-201.57 896.78,-195.74"/>
</g>
<!-- Node8 -->
<g id="node8" class="node">
<title>Node8</title>
<g id="a_node8"><a xlink:title=" ">
<polygon fill="white" stroke="#bfbfbf" points="1036.5,-174 1036.5,-193 1094.5,-193 1094.5,-174 1036.5,-174"/>
<text text-anchor="middle" x="1065.5" y="-181" font-family="Helvetica,sans-Serif" font-size="10.00">memory</text>
</a>
</g>
</g>
<!-- Node5&#45;&gt;Node8 -->
<g id="edge7" class="edge">
<title>Node5&#45;&gt;Node8</title>
<path fill="none" stroke="midnightblue" d="M984.18,-240.73C999.68,-230.01 1026.14,-211.72 1044.66,-198.91"/>
<polygon fill="midnightblue" stroke="midnightblue" points="1046.79,-201.69 1053.02,-193.13 1042.81,-195.94 1046.79,-201.69"/>
</g>
<!-- Node10 -->
<g id="node10" class="node">
<title>Node10</title>
<g id="a_node10"><a xlink:href="untyped__map__handle_8h.html" target="_top" xlink:title=" ">
<polygon fill="white" stroke="black" points="699.5,-235.5 699.5,-265.5 815.5,-265.5 815.5,-235.5 699.5,-235.5"/>
<text text-anchor="start" x="707.5" y="-253.5" font-family="Helvetica,sans-Serif" font-size="10.00">ccf/kv/untyped_map</text>
<text text-anchor="middle" x="757.5" y="-242.5" font-family="Helvetica,sans-Serif" font-size="10.00">_handle.h</text>
</a>
</g>
</g>
<!-- Node9&#45;&gt;Node10 -->
<g id="edge9" class="edge">
<title>Node9&#45;&gt;Node10</title>
<path fill="none" stroke="midnightblue" d="M760.1,-307.73C759.72,-299.54 759.13,-286.92 758.62,-275.71"/>
<polygon fill="midnightblue" stroke="midnightblue" points="762.11,-275.42 758.15,-265.59 755.12,-275.74 762.11,-275.42"/>
</g>
<!-- Node10&#45;&gt;Node4 -->
<g id="edge22" class="edge">
<title>Node10&#45;&gt;Node4</title>
<path fill="none" stroke="midnightblue" d="M699.48,-243.38C642.49,-236.35 553.58,-222.61 479.5,-199 477.83,-198.47 476.13,-197.86 474.43,-197.21"/>
<polygon fill="midnightblue" stroke="midnightblue" points="475.48,-193.86 464.91,-193.14 472.73,-200.29 475.48,-193.86"/>
</g>
<!-- Node10&#45;&gt;Node6 -->
<g id="edge19" class="edge">
<title>Node10&#45;&gt;Node6</title>
<path fill="none" stroke="midnightblue" d="M803.67,-235.48C842.53,-223.67 897.42,-207 933.71,-195.98"/>
<polygon fill="midnightblue" stroke="midnightblue" points="934.87,-199.28 943.42,-193.03 932.84,-192.59 934.87,-199.28"/>
</g>
<!-- Node10&#45;&gt;Node7 -->
<g id="edge20" class="edge">
<title>Node10&#45;&gt;Node7</title>
<path fill="none" stroke="midnightblue" d="M782.67,-235.4C802.48,-224.29 829.92,-208.92 849.44,-197.98"/>
<polygon fill="midnightblue" stroke="midnightblue" points="851.31,-200.95 858.32,-193.01 847.88,-194.84 851.31,-200.95"/>
</g>
<!-- Node11 -->
<g id="node11" class="node">
<title>Node11</title>
<g id="a_node11"><a xlink:href="abstract__handle_8h.html" target="_top" xlink:title=" ">
<polygon fill="white" stroke="black" points="612.5,-174 612.5,-193 748.5,-193 748.5,-174 612.5,-174"/>
<text text-anchor="middle" x="680.5" y="-181" font-family="Helvetica,sans-Serif" font-size="10.00">ccf/kv/abstract_handle.h</text>
</a>
</g>
</g>
<!-- Node10&#45;&gt;Node11 -->
<g id="edge10" class="edge">
<title>Node10&#45;&gt;Node11</title>
<path fill="none" stroke="midnightblue" d="M740.79,-235.4C728.31,-224.86 711.27,-210.48 698.49,-199.69"/>
<polygon fill="midnightblue" stroke="midnightblue" points="700.7,-196.97 690.8,-193.19 696.18,-202.32 700.7,-196.97"/>
</g>
<!-- Node10&#45;&gt;Node12 -->
<g id="edge11" class="edge">
<title>Node10&#45;&gt;Node12</title>
<path fill="none" stroke="midnightblue" d="M710.9,-235.48C677.8,-225.51 633.17,-212.09 598.03,-201.51"/>
<polygon fill="midnightblue" stroke="midnightblue" points="598.98,-198.14 588.39,-198.61 596.96,-204.84 598.98,-198.14"/>
</g>
<!-- Node20 -->
<g id="node20" class="node">
<title>Node20</title>
<g id="a_node20"><a xlink:title=" ">
<polygon fill="white" stroke="#bfbfbf" points="766.5,-174 766.5,-193 822.5,-193 822.5,-174 766.5,-174"/>
<text text-anchor="middle" x="794.5" y="-181" font-family="Helvetica,sans-Serif" font-size="10.00">optional</text>
</a>
</g>
</g>
<!-- Node10&#45;&gt;Node20 -->
<g id="edge21" class="edge">
<title>Node10&#45;&gt;Node20</title>
<path fill="none" stroke="midnightblue" d="M765.53,-235.4C771.13,-225.56 778.63,-212.38 784.6,-201.89"/>
<polygon fill="midnightblue" stroke="midnightblue" points="787.65,-203.62 789.55,-193.19 781.56,-200.15 787.65,-203.62"/>
</g>
<!-- Node13 -->
<g id="node13" class="node">
<title>Node13</title>
<g id="a_node13"><a xlink:href="byte__vector_8h.html" target="_top" xlink:title=" ">
<polygon fill="white" stroke="black" points="456.5,-112.5 456.5,-131.5 556.5,-131.5 556.5,-112.5 456.5,-112.5"/>
<text text-anchor="middle" x="506.5" y="-119.5" font-family="Helvetica,sans-Serif" font-size="10.00">ccf/byte_vector.h</text>
</a>
</g>
</g>
<!-- Node12&#45;&gt;Node13 -->
<g id="edge12" class="edge">
<title>Node12&#45;&gt;Node13</title>
<path fill="none" stroke="midnightblue" d="M533.21,-168.4C528.28,-160.02 521.99,-149.33 516.75,-140.42"/>
<polygon fill="midnightblue" stroke="midnightblue" points="519.68,-138.5 511.59,-131.66 513.65,-142.05 519.68,-138.5"/>
</g>
<!-- Node14 -->
<g id="node14" class="node">
<title>Node14</title>
<g id="a_node14"><a xlink:href="siphash_8h.html" target="_top" xlink:title=" ">
<polygon fill="white" stroke="black" points="250,-56.5 250,-75.5 345,-75.5 345,-56.5 250,-56.5"/>
<text text-anchor="middle" x="297.5" y="-63.5" font-family="Helvetica,sans-Serif" font-size="10.00">ccf/ds/siphash.h</text>
</a>
</g>
</g>
<!-- Node13&#45;&gt;Node14 -->
<g id="edge13" class="edge">
<title>Node13&#45;&gt;Node14</title>
<path fill="none" stroke="midnightblue" d="M473.38,-112.44C437.38,-103.14 379.73,-88.25 340.31,-78.06"/>
<polygon fill="midnightblue" stroke="midnightblue" points="341.02,-74.63 330.46,-75.52 339.27,-81.41 341.02,-74.63"/>
</g>
<!-- Node18 -->
<g id="node18" class="node">
<title>Node18</title>
<g id="a_node18"><a xlink:title=" ">
<polygon fill="white" stroke="#bfbfbf" points="432,-56.5 432,-75.5 511,-75.5 511,-56.5 432,-56.5"/>
<text text-anchor="middle" x="471.5" y="-63.5" font-family="Helvetica,sans-Serif" font-size="10.00">fmt/format.h</text>
</a>
</g>
</g>
<!-- Node13&#45;&gt;Node18 -->
<g id="edge17" class="edge">
<title>Node13&#45;&gt;Node18</title>
<path fill="none" stroke="midnightblue" d="M500.72,-112.08C495.83,-104.53 488.67,-93.49 482.67,-84.23"/>
<polygon fill="midnightblue" stroke="midnightblue" points="485.55,-82.24 477.17,-75.75 479.67,-86.05 485.55,-82.24"/>
</g>
<!-- Node19 -->
<g id="node19" class="node">
<title>Node19</title>
<g id="a_node19"><a xlink:title=" ">
<polygon fill="white" stroke="#bfbfbf" points="529,-56.5 529,-75.5 678,-75.5 678,-56.5 529,-56.5"/>
<text text-anchor="middle" x="603.5" y="-63.5" font-family="Helvetica,sans-Serif" font-size="10.00">small_vector/SmallVector.h</text>
</a>
</g>
</g>
<!-- Node13&#45;&gt;Node19 -->
<g id="edge18" class="edge">
<title>Node13&#45;&gt;Node19</title>
<path fill="none" stroke="midnightblue" d="M522.08,-112.32C537.5,-103.74 561.31,-90.49 579.21,-80.52"/>
<polygon fill="midnightblue" stroke="midnightblue" points="580.92,-83.58 587.95,-75.65 577.51,-77.46 580.92,-83.58"/>
</g>
<!-- Node15 -->
<g id="node15" class="node">
<title>Node15</title>
<g id="a_node15"><a xlink:title=" ">
<polygon fill="white" stroke="#bfbfbf" points="305,-0.5 305,-19.5 358,-19.5 358,-0.5 305,-0.5"/>
<text text-anchor="middle" x="331.5" y="-7.5" font-family="Helvetica,sans-Serif" font-size="10.00">cstddef</text>
</a>
</g>
</g>
<!-- Node14&#45;&gt;Node15 -->
<g id="edge14" class="edge">
<title>Node14&#45;&gt;Node15</title>
<path fill="none" stroke="midnightblue" d="M303.11,-56.08C307.87,-48.53 314.82,-37.49 320.65,-28.23"/>
<polygon fill="midnightblue" stroke="midnightblue" points="323.62,-30.08 325.99,-19.75 317.7,-26.35 323.62,-30.08"/>
</g>
<!-- Node16 -->
<g id="node16" class="node">
<title>Node16</title>
<g id="a_node16"><a xlink:title=" ">
<polygon fill="white" stroke="#bfbfbf" points="236.5,-0.5 236.5,-19.5 286.5,-19.5 286.5,-0.5 236.5,-0.5"/>
<text text-anchor="middle" x="261.5" y="-7.5" font-family="Helvetica,sans-Serif" font-size="10.00">cstdint</text>
</a>
</g>
</g>
<!-- Node14&#45;&gt;Node16 -->
<g id="edge15" class="edge">
<title>Node14&#45;&gt;Node16</title>
<path fill="none" stroke="midnightblue" d="M291.56,-56.08C286.52,-48.53 279.16,-37.49 272.99,-28.23"/>
<polygon fill="midnightblue" stroke="midnightblue" points="275.79,-26.13 267.33,-19.75 269.97,-30.01 275.79,-26.13"/>
</g>
<!-- Node17 -->
<g id="node17" class="node">
<title>Node17</title>
<g id="a_node17"><a xlink:title=" ">
<polygon fill="white" stroke="#bfbfbf" points="169,-0.5 169,-19.5 216,-19.5 216,-0.5 169,-0.5"/>
<text text-anchor="middle" x="192.5" y="-7.5" font-family="Helvetica,sans-Serif" font-size="10.00">vector</text>
</a>
</g>
</g>
<!-- Node14&#45;&gt;Node17 -->
<g id="edge16" class="edge">
<title>Node14&#45;&gt;Node17</title>
<path fill="none" stroke="midnightblue" d="M280.63,-56.32C263.79,-47.66 237.69,-34.24 218.26,-24.25"/>
<polygon fill="midnightblue" stroke="midnightblue" points="219.82,-21.12 209.33,-19.65 216.62,-27.34 219.82,-21.12"/>
</g>
<!-- Node21&#45;&gt;Node12 -->
<g id="edge32" class="edge">
<title>Node21&#45;&gt;Node12</title>
<path fill="none" stroke="midnightblue" d="M504.69,-302.45C492.41,-286.04 476.31,-258.19 486.5,-235 491.67,-223.22 501.1,-212.99 510.7,-204.87"/>
<polygon fill="midnightblue" stroke="midnightblue" points="513.03,-207.5 518.72,-198.56 508.7,-202 513.03,-207.5"/>
</g>
<!-- Node22 -->
<g id="node22" class="node">
<title>Node22</title>
<g id="a_node22"><a xlink:href="nonstd_8h.html" target="_top" xlink:title=" ">
<polygon fill="white" stroke="black" points="203.5,-241 203.5,-260 293.5,-260 293.5,-241 203.5,-241"/>
<text text-anchor="middle" x="248.5" y="-248" font-family="Helvetica,sans-Serif" font-size="10.00">ccf/ds/nonstd.h</text>
</a>
</g>
</g>
<!-- Node21&#45;&gt;Node22 -->
<g id="edge24" class="edge">
<title>Node21&#45;&gt;Node22</title>
<path fill="none" stroke="midnightblue" d="M466.93,-304.3C463.74,-303.52 460.57,-302.75 457.5,-302 401.09,-288.25 336.08,-272.57 293.74,-262.38"/>
<polygon fill="midnightblue" stroke="midnightblue" points="294.55,-258.97 284.01,-260.04 292.91,-265.78 294.55,-258.97"/>
</g>
<!-- Node22&#45;&gt;Node4 -->
<g id="edge28" class="edge">
<title>Node22&#45;&gt;Node4</title>
<path fill="none" stroke="midnightblue" d="M281.45,-241C315.64,-231.85 370.44,-216.27 416.5,-199 418.11,-198.4 419.75,-197.75 421.4,-197.08"/>
<polygon fill="midnightblue" stroke="midnightblue" points="422.94,-200.23 430.74,-193.06 420.17,-193.8 422.94,-200.23"/>
</g>
<!-- Node22&#45;&gt;Node17 -->
<g id="edge31" class="edge">
<title>Node22&#45;&gt;Node17</title>
<path fill="none" stroke="midnightblue" d="M238.73,-240.94C228.91,-231.7 214.3,-215.98 207.5,-199 184.21,-140.83 187.36,-64.57 190.43,-29.78"/>
<polygon fill="midnightblue" stroke="midnightblue" points="193.93,-29.95 191.43,-19.65 186.97,-29.26 193.93,-29.95"/>
</g>
<!-- Node23 -->
<g id="node23" class="node">
<title>Node23</title>
<g id="a_node23"><a xlink:title=" ">
<polygon fill="white" stroke="#bfbfbf" points="216.5,-174 216.5,-193 280.5,-193 280.5,-174 216.5,-174"/>
<text text-anchor="middle" x="248.5" y="-181" font-family="Helvetica,sans-Serif" font-size="10.00">algorithm</text>
</a>
</g>
</g>
<!-- Node22&#45;&gt;Node23 -->
<g id="edge25" class="edge">
<title>Node22&#45;&gt;Node23</title>
<path fill="none" stroke="midnightblue" d="M248.5,-240.73C248.5,-231.18 248.5,-215.62 248.5,-203.28"/>
<polygon fill="midnightblue" stroke="midnightblue" points="252,-203.13 248.5,-193.13 245,-203.13 252,-203.13"/>
</g>
<!-- Node24 -->
<g id="node24" class="node">
<title>Node24</title>
<g id="a_node24"><a xlink:title=" ">
<polygon fill="white" stroke="#bfbfbf" points="298.5,-174 298.5,-193 340.5,-193 340.5,-174 298.5,-174"/>
<text text-anchor="middle" x="319.5" y="-181" font-family="Helvetica,sans-Serif" font-size="10.00">array</text>
</a>
</g>
</g>
<!-- Node22&#45;&gt;Node24 -->
<g id="edge26" class="edge">
<title>Node22&#45;&gt;Node24</title>
<path fill="none" stroke="midnightblue" d="M258.08,-240.73C269.47,-230.31 288.69,-212.71 302.6,-199.97"/>
<polygon fill="midnightblue" stroke="midnightblue" points="305.06,-202.46 310.08,-193.13 300.34,-197.3 305.06,-202.46"/>
</g>
<!-- Node25 -->
<g id="node25" class="node">
<title>Node25</title>
<g id="a_node25"><a xlink:title=" ">
<polygon fill="white" stroke="#bfbfbf" points="359,-174 359,-193 408,-193 408,-174 359,-174"/>
<text text-anchor="middle" x="383.5" y="-181" font-family="Helvetica,sans-Serif" font-size="10.00">cctype</text>
</a>
</g>
</g>
<!-- Node22&#45;&gt;Node25 -->
<g id="edge27" class="edge">
<title>Node22&#45;&gt;Node25</title>
<path fill="none" stroke="midnightblue" d="M266.43,-240.87C289.42,-229.8 329.53,-210.49 356.3,-197.6"/>
<polygon fill="midnightblue" stroke="midnightblue" points="358.01,-200.66 365.5,-193.17 354.97,-194.35 358.01,-200.66"/>
</g>
<!-- Node26 -->
<g id="node26" class="node">
<title>Node26</title>
<g id="a_node26"><a xlink:title=" ">
<polygon fill="white" stroke="#bfbfbf" points="0,-174 0,-193 73,-193 73,-174 0,-174"/>
<text text-anchor="middle" x="36.5" y="-181" font-family="Helvetica,sans-Serif" font-size="10.00">string_view</text>
</a>
</g>
</g>
<!-- Node22&#45;&gt;Node26 -->
<g id="edge29" class="edge">
<title>Node22&#45;&gt;Node26</title>
<path fill="none" stroke="midnightblue" d="M219.79,-240.99C186.48,-231.08 129.93,-214.12 81.5,-199 78.54,-198.08 75.47,-197.11 72.4,-196.13"/>
<polygon fill="midnightblue" stroke="midnightblue" points="73.24,-192.73 62.65,-193.01 71.11,-199.39 73.24,-192.73"/>
</g>
<!-- Node27 -->
<g id="node27" class="node">
<title>Node27</title>
<g id="a_node27"><a xlink:title=" ">
<polygon fill="white" stroke="#bfbfbf" points="91,-174 91,-193 160,-193 160,-174 91,-174"/>
<text text-anchor="middle" x="125.5" y="-181" font-family="Helvetica,sans-Serif" font-size="10.00">type_traits</text>
</a>
</g>
</g>
<!-- Node22&#45;&gt;Node27 -->
<g id="edge30" class="edge">
<title>Node22&#45;&gt;Node27</title>
<path fill="none" stroke="midnightblue" d="M232.17,-240.87C211.4,-229.89 175.31,-210.82 150.93,-197.94"/>
<polygon fill="midnightblue" stroke="midnightblue" points="152.38,-194.75 141.9,-193.17 149.11,-200.93 152.38,-194.75"/>
</g>
<!-- Node28&#45;&gt;Node12 -->
<g id="edge34" class="edge">
<title>Node28&#45;&gt;Node12</title>
<path fill="none" stroke="midnightblue" d="M633.23,-302.31C632.26,-285.01 628.47,-255.54 614.5,-235 605.84,-222.27 592.81,-211.78 580.15,-203.72"/>
<polygon fill="midnightblue" stroke="midnightblue" points="581.88,-200.68 571.51,-198.54 578.28,-206.68 581.88,-200.68"/>
</g>
<!-- Node29 -->
<g id="node29" class="node">
<title>Node29</title>
<g id="a_node29"><a xlink:title=" ">
<polygon fill="white" stroke="#bfbfbf" points="495.5,-241 495.5,-260 605.5,-260 605.5,-241 495.5,-241"/>
<text text-anchor="middle" x="550.5" y="-248" font-family="Helvetica,sans-Serif" font-size="10.00">nlohmann/json.hpp</text>
</a>
</g>
</g>
<!-- Node28&#45;&gt;Node29 -->
<g id="edge35" class="edge">
<title>Node28&#45;&gt;Node29</title>
<path fill="none" stroke="midnightblue" d="M615.49,-302.4C601.91,-291.76 583.32,-277.2 569.5,-266.38"/>
<polygon fill="midnightblue" stroke="midnightblue" points="571.63,-263.6 561.6,-260.19 567.32,-269.12 571.63,-263.6"/>
</g>
<!-- Node30&#45;&gt;Node5 -->
<g id="edge37" class="edge">
<title>Node30&#45;&gt;Node5</title>
<path fill="none" stroke="midnightblue" d="M897.96,-307.73C911.86,-297.11 935.48,-279.05 952.19,-266.26"/>
<polygon fill="midnightblue" stroke="midnightblue" points="954.4,-268.98 960.22,-260.13 950.15,-263.42 954.4,-268.98"/>
</g>
<!-- Node30&#45;&gt;Node12 -->
<g id="edge38" class="edge">
<title>Node30&#45;&gt;Node12</title>
<path fill="none" stroke="midnightblue" d="M852.25,-307.92C798.11,-294.33 698.08,-269.05 690.5,-266 664.47,-255.52 660.08,-248.53 635.5,-235 616.15,-224.35 594.44,-212.67 576.76,-203.22"/>
<polygon fill="midnightblue" stroke="midnightblue" points="578.38,-200.13 567.91,-198.51 575.09,-206.3 578.38,-200.13"/>
</g>
<!-- Node30&#45;&gt;Node20 -->
<g id="edge40" class="edge">
<title>Node30&#45;&gt;Node20</title>
<path fill="none" stroke="midnightblue" d="M888.31,-307.86C891.11,-292.05 894.82,-258.01 880.5,-235 873.62,-223.94 845.1,-208.43 822.77,-197.52"/>
<polygon fill="midnightblue" stroke="midnightblue" points="824.19,-194.32 813.66,-193.16 821.17,-200.64 824.19,-194.32"/>
</g>
<!-- Node31 -->
<g id="node31" class="node">
<title>Node31</title>
<g id="a_node31"><a xlink:title=" ">
<polygon fill="white" stroke="#bfbfbf" points="833.5,-241 833.5,-260 871.5,-260 871.5,-241 833.5,-241"/>
<text text-anchor="middle" x="852.5" y="-248" font-family="Helvetica,sans-Serif" font-size="10.00">map</text>
</a>
</g>
</g>
<!-- Node30&#45;&gt;Node31 -->
<g id="edge39" class="edge">
<title>Node30&#45;&gt;Node31</title>
<path fill="none" stroke="midnightblue" d="M881.91,-307.73C876.77,-297.89 868.28,-281.66 861.74,-269.16"/>
<polygon fill="midnightblue" stroke="midnightblue" points="864.75,-267.37 857.01,-260.13 858.55,-270.61 864.75,-267.37"/>
</g>
</g>
</svg>
