<?xml version="1.0" encoding="UTF-8" standalone="no"?>
<!DOCTYPE svg PUBLIC "-//W3C//DTD SVG 1.1//EN"
 "http://www.w3.org/Graphics/SVG/1.1/DTD/svg11.dtd">
<!-- Generated by graphviz version 2.43.0 (0)
 -->
<!-- Title: include/ccf/service/tables/service.h Pages: 1 -->
<svg width="2421pt" height="598pt"
 viewBox="0.00 0.00 2420.92 598.00" xmlns="http://www.w3.org/2000/svg" xmlns:xlink="http://www.w3.org/1999/xlink">
<g id="graph0" class="graph" transform="scale(1 1) rotate(0) translate(4 594)">
<title>include/ccf/service/tables/service.h</title>
<polygon fill="white" stroke="transparent" points="-4,4 -4,-594 2416.92,-594 2416.92,4 -4,4"/>
<!-- Node1 -->
<g id="node1" class="node">
<title>Node1</title>
<g id="a_node1"><a xlink:title=" ">
<polygon fill="#bfbfbf" stroke="black" points="1419.42,-559.5 1419.42,-589.5 1526.42,-589.5 1526.42,-559.5 1419.42,-559.5"/>
<text text-anchor="start" x="1427.42" y="-577.5" font-family="Helvetica,sans-Serif" font-size="10.00">include/ccf/service</text>
<text text-anchor="middle" x="1472.92" y="-566.5" font-family="Helvetica,sans-Serif" font-size="10.00">/tables/service.h</text>
</a>
</g>
</g>
<!-- Node2 -->
<g id="node2" class="node">
<title>Node2</title>
<g id="a_node2"><a xlink:href="node__state_8h.html" target="_top" xlink:title=" ">
<polygon fill="white" stroke="black" points="1200.92,-168.5 1200.92,-187.5 1324.92,-187.5 1324.92,-168.5 1200.92,-168.5"/>
<text text-anchor="middle" x="1262.92" y="-175.5" font-family="Helvetica,sans-Serif" font-size="10.00">src/node/node_state.h</text>
</a>
</g>
</g>
<!-- Node1&#45;&gt;Node2 -->
<g id="edge1" class="edge">
<title>Node1&#45;&gt;Node2</title>
<path fill="none" stroke="midnightblue" d="M1408.81,-562.09C1274.4,-536.74 970.57,-471.38 910.92,-389 868.68,-330.67 888.61,-293.1 988.92,-224 1022.41,-200.93 1130.81,-188.72 1200.8,-183.08"/>
<polygon fill="midnightblue" stroke="midnightblue" points="1408.49,-565.6 1418.96,-563.99 1409.78,-558.71 1408.49,-565.6"/>
</g>
<!-- Node6 -->
<g id="node6" class="node">
<title>Node6</title>
<g id="a_node6"><a xlink:href="frontend_8h.html" target="_top" xlink:title=" ">
<polygon fill="white" stroke="black" points="1538.42,-364 1538.42,-383 1667.42,-383 1667.42,-364 1538.42,-364"/>
<text text-anchor="middle" x="1602.92" y="-371" font-family="Helvetica,sans-Serif" font-size="10.00">src/node/rpc/frontend.h</text>
</a>
</g>
</g>
<!-- Node1&#45;&gt;Node6 -->
<g id="edge6" class="edge">
<title>Node1&#45;&gt;Node6</title>
<path fill="none" stroke="midnightblue" d="M1487.85,-550.64C1516.5,-506.79 1578.02,-412.62 1597.13,-383.36"/>
<polygon fill="midnightblue" stroke="midnightblue" points="1484.81,-548.9 1482.27,-559.19 1490.67,-552.73 1484.81,-548.9"/>
</g>
<!-- Node11 -->
<g id="node11" class="node">
<title>Node11</title>
<g id="a_node11"><a xlink:href="node__call__types_8h.html" target="_top" xlink:title=" ">
<polygon fill="white" stroke="black" points="1647.42,-492.5 1647.42,-522.5 1772.42,-522.5 1772.42,-492.5 1647.42,-492.5"/>
<text text-anchor="start" x="1655.42" y="-510.5" font-family="Helvetica,sans-Serif" font-size="10.00">src/node/rpc/node_call</text>
<text text-anchor="middle" x="1709.92" y="-499.5" font-family="Helvetica,sans-Serif" font-size="10.00">_types.h</text>
</a>
</g>
</g>
<!-- Node1&#45;&gt;Node11 -->
<g id="edge16" class="edge">
<title>Node1&#45;&gt;Node11</title>
<path fill="none" stroke="midnightblue" d="M1534.12,-556.71C1572.69,-546.14 1621.92,-532.63 1658.47,-522.61"/>
<polygon fill="midnightblue" stroke="midnightblue" points="1532.77,-553.46 1524.05,-559.48 1534.62,-560.21 1532.77,-553.46"/>
</g>
<!-- Node18 -->
<g id="node18" class="node">
<title>Node18</title>
<g id="a_node18"><a xlink:href="network__tables_8h.html" target="_top" xlink:title=" ">
<polygon fill="white" stroke="black" points="1161.92,-425.5 1161.92,-455.5 1273.92,-455.5 1273.92,-425.5 1161.92,-425.5"/>
<text text-anchor="start" x="1169.92" y="-443.5" font-family="Helvetica,sans-Serif" font-size="10.00">src/service/network</text>
<text text-anchor="middle" x="1217.92" y="-432.5" font-family="Helvetica,sans-Serif" font-size="10.00">_tables.h</text>
</a>
</g>
</g>
<!-- Node1&#45;&gt;Node18 -->
<g id="edge31" class="edge">
<title>Node1&#45;&gt;Node18</title>
<path fill="none" stroke="midnightblue" d="M1436.47,-554.63C1384.71,-527.84 1291.08,-479.37 1245.01,-455.52"/>
<polygon fill="midnightblue" stroke="midnightblue" points="1435.14,-557.88 1445.63,-559.37 1438.36,-551.67 1435.14,-557.88"/>
</g>
<!-- Node3 -->
<g id="node3" class="node">
<title>Node3</title>
<g id="a_node3"><a xlink:href="enclave_2enclave_8h.html" target="_top" xlink:title=" ">
<polygon fill="white" stroke="black" points="1301.92,-56.5 1301.92,-75.5 1423.92,-75.5 1423.92,-56.5 1301.92,-56.5"/>
<text text-anchor="middle" x="1362.92" y="-63.5" font-family="Helvetica,sans-Serif" font-size="10.00">src/enclave/enclave.h</text>
</a>
</g>
</g>
<!-- Node2&#45;&gt;Node3 -->
<g id="edge2" class="edge">
<title>Node2&#45;&gt;Node3</title>
<path fill="none" stroke="midnightblue" d="M1298.67,-164.41C1314.57,-157.17 1332.28,-146.57 1343.92,-132 1357.42,-115.1 1361.33,-88.91 1362.46,-75.52"/>
<polygon fill="midnightblue" stroke="midnightblue" points="1296.91,-161.36 1289.08,-168.49 1299.65,-167.8 1296.91,-161.36"/>
</g>
<!-- Node5 -->
<g id="node5" class="node">
<title>Node5</title>
<g id="a_node5"><a xlink:href="gov__effects_8h.html" target="_top" xlink:title=" ">
<polygon fill="white" stroke="black" points="1190.92,-112.5 1190.92,-131.5 1334.92,-131.5 1334.92,-112.5 1190.92,-112.5"/>
<text text-anchor="middle" x="1262.92" y="-119.5" font-family="Helvetica,sans-Serif" font-size="10.00">src/node/rpc/gov_effects.h</text>
</a>
</g>
</g>
<!-- Node2&#45;&gt;Node5 -->
<g id="edge4" class="edge">
<title>Node2&#45;&gt;Node5</title>
<path fill="none" stroke="midnightblue" d="M1262.92,-157.8C1262.92,-148.91 1262.92,-138.78 1262.92,-131.75"/>
<polygon fill="midnightblue" stroke="midnightblue" points="1259.42,-158.08 1262.92,-168.08 1266.42,-158.08 1259.42,-158.08"/>
</g>
<!-- Node4 -->
<g id="node4" class="node">
<title>Node4</title>
<g id="a_node4"><a xlink:href="enclave_2main_8cpp.html" target="_top" xlink:title=" ">
<polygon fill="white" stroke="black" points="1302.92,-0.5 1302.92,-19.5 1422.92,-19.5 1422.92,-0.5 1302.92,-0.5"/>
<text text-anchor="middle" x="1362.92" y="-7.5" font-family="Helvetica,sans-Serif" font-size="10.00">src/enclave/main.cpp</text>
</a>
</g>
</g>
<!-- Node3&#45;&gt;Node4 -->
<g id="edge3" class="edge">
<title>Node3&#45;&gt;Node4</title>
<path fill="none" stroke="midnightblue" d="M1362.92,-45.8C1362.92,-36.91 1362.92,-26.78 1362.92,-19.75"/>
<polygon fill="midnightblue" stroke="midnightblue" points="1359.42,-46.08 1362.92,-56.08 1366.42,-46.08 1359.42,-46.08"/>
</g>
<!-- Node5&#45;&gt;Node3 -->
<g id="edge5" class="edge">
<title>Node5&#45;&gt;Node3</title>
<path fill="none" stroke="midnightblue" d="M1288.01,-107.45C1306.47,-97.48 1331.02,-84.23 1346.89,-75.65"/>
<polygon fill="midnightblue" stroke="midnightblue" points="1286.12,-104.49 1278.99,-112.32 1289.45,-110.65 1286.12,-104.49"/>
</g>
<!-- Node6&#45;&gt;Node2 -->
<g id="edge7" class="edge">
<title>Node6&#45;&gt;Node2</title>
<path fill="none" stroke="midnightblue" d="M1603.18,-353.39C1602.4,-335.18 1598.42,-308.07 1582.92,-291 1562.51,-268.53 1367.28,-209.57 1292.17,-187.5"/>
<polygon fill="midnightblue" stroke="midnightblue" points="1599.68,-353.7 1603.32,-363.65 1606.68,-353.6 1599.68,-353.7"/>
</g>
<!-- Node7 -->
<g id="node7" class="node">
<title>Node7</title>
<g id="a_node7"><a xlink:href="member__frontend_8h.html" target="_top" xlink:title=" ">
<polygon fill="white" stroke="black" points="1756.92,-224.5 1756.92,-254.5 1876.92,-254.5 1876.92,-224.5 1756.92,-224.5"/>
<text text-anchor="start" x="1764.92" y="-242.5" font-family="Helvetica,sans-Serif" font-size="10.00">src/node/rpc/member</text>
<text text-anchor="middle" x="1816.92" y="-231.5" font-family="Helvetica,sans-Serif" font-size="10.00">_frontend.h</text>
</a>
</g>
</g>
<!-- Node6&#45;&gt;Node7 -->
<g id="edge8" class="edge">
<title>Node6&#45;&gt;Node7</title>
<path fill="none" stroke="midnightblue" d="M1677.67,-365.93C1736.57,-359.03 1811.85,-345.76 1830.92,-322 1846.47,-302.63 1834.61,-272.22 1825.28,-254.54"/>
<polygon fill="midnightblue" stroke="midnightblue" points="1677.17,-362.47 1667.62,-367.07 1677.95,-369.42 1677.17,-362.47"/>
</g>
<!-- Node8 -->
<g id="node8" class="node">
<title>Node8</title>
<g id="a_node8"><a xlink:href="node__frontend_8h.html" target="_top" xlink:title=" ">
<polygon fill="white" stroke="black" points="1630.92,-297 1630.92,-316 1788.92,-316 1788.92,-297 1630.92,-297"/>
<text text-anchor="middle" x="1709.92" y="-304" font-family="Helvetica,sans-Serif" font-size="10.00">src/node/rpc/node_frontend.h</text>
</a>
</g>
</g>
<!-- Node6&#45;&gt;Node8 -->
<g id="edge10" class="edge">
<title>Node6&#45;&gt;Node8</title>
<path fill="none" stroke="midnightblue" d="M1626.06,-358.44C1647.25,-345.57 1677.94,-326.93 1695.72,-316.13"/>
<polygon fill="midnightblue" stroke="midnightblue" points="1624.08,-355.55 1617.35,-363.73 1627.71,-361.53 1624.08,-355.55"/>
</g>
<!-- Node10 -->
<g id="node10" class="node">
<title>Node10</title>
<g id="a_node10"><a xlink:href="user__frontend_8h.html" target="_top" xlink:title=" ">
<polygon fill="white" stroke="black" points="1419.42,-297 1419.42,-316 1574.42,-316 1574.42,-297 1419.42,-297"/>
<text text-anchor="middle" x="1496.92" y="-304" font-family="Helvetica,sans-Serif" font-size="10.00">src/node/rpc/user_frontend.h</text>
</a>
</g>
</g>
<!-- Node6&#45;&gt;Node10 -->
<g id="edge14" class="edge">
<title>Node6&#45;&gt;Node10</title>
<path fill="none" stroke="midnightblue" d="M1579.99,-358.44C1559,-345.57 1528.6,-326.93 1510.99,-316.13"/>
<polygon fill="midnightblue" stroke="midnightblue" points="1578.27,-361.49 1588.62,-363.73 1581.93,-355.52 1578.27,-361.49"/>
</g>
<!-- Node7&#45;&gt;Node3 -->
<g id="edge9" class="edge">
<title>Node7&#45;&gt;Node3</title>
<path fill="none" stroke="midnightblue" d="M1806.85,-214.96C1792.9,-185.47 1764.69,-135.91 1723.92,-112 1674.48,-83 1513.68,-72.5 1424.28,-68.85"/>
<polygon fill="midnightblue" stroke="midnightblue" points="1803.7,-216.48 1811.04,-224.12 1810.07,-213.57 1803.7,-216.48"/>
</g>
<!-- Node8&#45;&gt;Node3 -->
<g id="edge11" class="edge">
<title>Node8&#45;&gt;Node3</title>
<path fill="none" stroke="midnightblue" d="M1702.58,-287.25C1690.4,-258.83 1663.7,-203.59 1626.92,-168 1595.21,-137.31 1585.2,-130.03 1544.92,-112 1504.66,-93.98 1456.03,-82.43 1419.17,-75.55"/>
<polygon fill="midnightblue" stroke="midnightblue" points="1699.45,-288.84 1706.52,-296.73 1705.91,-286.15 1699.45,-288.84"/>
</g>
<!-- Node9 -->
<g id="node9" class="node">
<title>Node9</title>
<g id="a_node9"><a xlink:href="jwt__key__auto__refresh_8h.html" target="_top" xlink:title=" ">
<polygon fill="white" stroke="black" points="1518.42,-224.5 1518.42,-254.5 1643.42,-254.5 1643.42,-224.5 1518.42,-224.5"/>
<text text-anchor="start" x="1526.42" y="-242.5" font-family="Helvetica,sans-Serif" font-size="10.00">src/node/jwt_key_auto</text>
<text text-anchor="middle" x="1580.92" y="-231.5" font-family="Helvetica,sans-Serif" font-size="10.00">_refresh.h</text>
</a>
</g>
</g>
<!-- Node8&#45;&gt;Node9 -->
<g id="edge12" class="edge">
<title>Node8&#45;&gt;Node9</title>
<path fill="none" stroke="midnightblue" d="M1683.81,-292.34C1662.09,-281.4 1631.25,-265.86 1609,-254.65"/>
<polygon fill="midnightblue" stroke="midnightblue" points="1682.28,-295.49 1692.79,-296.87 1685.43,-289.24 1682.28,-295.49"/>
</g>
<!-- Node9&#45;&gt;Node2 -->
<g id="edge13" class="edge">
<title>Node9&#45;&gt;Node2</title>
<path fill="none" stroke="midnightblue" d="M1508.35,-224.83C1506.86,-224.55 1505.38,-224.27 1503.92,-224 1435.94,-211.25 1357.16,-196.56 1308.68,-187.52"/>
<polygon fill="midnightblue" stroke="midnightblue" points="1507.83,-228.29 1518.31,-226.7 1509.12,-221.42 1507.83,-228.29"/>
</g>
<!-- Node10&#45;&gt;Node3 -->
<g id="edge15" class="edge">
<title>Node10&#45;&gt;Node3</title>
<path fill="none" stroke="midnightblue" d="M1568.56,-294.9C1619.43,-283.91 1674.94,-262.71 1651.92,-224 1597.85,-133.09 1470.7,-91.54 1404.55,-75.52"/>
<polygon fill="midnightblue" stroke="midnightblue" points="1567.56,-291.53 1558.47,-296.96 1568.97,-298.39 1567.56,-291.53"/>
</g>
<!-- Node12 -->
<g id="node12" class="node">
<title>Node12</title>
<g id="a_node12"><a xlink:href="call__types_8h.html" target="_top" xlink:title=" ">
<polygon fill="white" stroke="black" points="1894.42,-431 1894.42,-450 2031.42,-450 2031.42,-431 1894.42,-431"/>
<text text-anchor="middle" x="1962.92" y="-438" font-family="Helvetica,sans-Serif" font-size="10.00">src/node/rpc/call_types.h</text>
</a>
</g>
</g>
<!-- Node11&#45;&gt;Node12 -->
<g id="edge17" class="edge">
<title>Node11&#45;&gt;Node12</title>
<path fill="none" stroke="midnightblue" d="M1774.49,-489.91C1824.04,-477.18 1890.42,-460.13 1929.72,-450.03"/>
<polygon fill="midnightblue" stroke="midnightblue" points="1773.32,-486.6 1764.5,-492.48 1775.06,-493.38 1773.32,-486.6"/>
</g>
<!-- Node12&#45;&gt;Node7 -->
<g id="edge23" class="edge">
<title>Node12&#45;&gt;Node7</title>
<path fill="none" stroke="midnightblue" d="M1950.7,-422.85C1922.53,-384.45 1853.41,-290.24 1827.21,-254.53"/>
<polygon fill="midnightblue" stroke="midnightblue" points="1947.91,-424.96 1956.65,-430.95 1953.55,-420.82 1947.91,-424.96"/>
</g>
<!-- Node13 -->
<g id="node13" class="node">
<title>Node13</title>
<g id="a_node13"><a xlink:href="nobuiltins_8cpp.html" target="_top" xlink:title=" ">
<polygon fill="white" stroke="black" points="2131.42,-291.5 2131.42,-321.5 2266.42,-321.5 2266.42,-291.5 2131.42,-291.5"/>
<text text-anchor="start" x="2139.42" y="-309.5" font-family="Helvetica,sans-Serif" font-size="10.00">samples/apps/nobuiltins</text>
<text text-anchor="middle" x="2198.92" y="-298.5" font-family="Helvetica,sans-Serif" font-size="10.00">/nobuiltins.cpp</text>
</a>
</g>
</g>
<!-- Node12&#45;&gt;Node13 -->
<g id="edge18" class="edge">
<title>Node12&#45;&gt;Node13</title>
<path fill="none" stroke="midnightblue" d="M2041.79,-431.14C2076.96,-424.28 2117.27,-411.77 2147.92,-389 2171.36,-371.58 2186.59,-339.89 2193.87,-321.58"/>
<polygon fill="midnightblue" stroke="midnightblue" points="2040.75,-427.77 2031.54,-433.01 2042,-434.66 2040.75,-427.77"/>
</g>
<!-- Node14 -->
<g id="node14" class="node">
<title>Node14</title>
<g id="a_node14"><a xlink:href="common__endpoint__registry_8cpp.html" target="_top" xlink:title=" ">
<polygon fill="white" stroke="black" points="2284.92,-291.5 2284.92,-321.5 2412.92,-321.5 2412.92,-291.5 2284.92,-291.5"/>
<text text-anchor="start" x="2292.92" y="-309.5" font-family="Helvetica,sans-Serif" font-size="10.00">src/endpoints/common</text>
<text text-anchor="middle" x="2348.92" y="-298.5" font-family="Helvetica,sans-Serif" font-size="10.00">_endpoint_registry.cpp</text>
</a>
</g>
</g>
<!-- Node12&#45;&gt;Node14 -->
<g id="edge19" class="edge">
<title>Node12&#45;&gt;Node14</title>
<path fill="none" stroke="midnightblue" d="M2020.9,-429.02C2064.04,-420.42 2123.99,-406.78 2174.92,-389 2229.4,-369.98 2289.71,-339.44 2323.09,-321.65"/>
<polygon fill="midnightblue" stroke="midnightblue" points="2020.01,-425.63 2010.87,-430.99 2021.35,-432.49 2020.01,-425.63"/>
</g>
<!-- Node15 -->
<g id="node15" class="node">
<title>Node15</title>
<g id="a_node15"><a xlink:href="wrap_8cpp.html" target="_top" xlink:title=" ">
<polygon fill="white" stroke="black" points="467.42,-168.5 467.42,-187.5 556.42,-187.5 556.42,-168.5 467.42,-168.5"/>
<text text-anchor="middle" x="511.92" y="-175.5" font-family="Helvetica,sans-Serif" font-size="10.00">src/js/wrap.cpp</text>
</a>
</g>
</g>
<!-- Node12&#45;&gt;Node15 -->
<g id="edge20" class="edge">
<title>Node12&#45;&gt;Node15</title>
<path fill="none" stroke="midnightblue" d="M1884.28,-437.54C1687.03,-432.24 1181.95,-416.18 1110.92,-389 1090.24,-381.09 1091.78,-367.8 1071.92,-358 1012.76,-328.81 986.83,-351.7 927.92,-322 866.74,-291.16 871.49,-251.92 808.92,-224 725.22,-186.66 616.46,-179.38 556.5,-178.48"/>
<polygon fill="midnightblue" stroke="midnightblue" points="1884.19,-441.04 1894.28,-437.81 1884.38,-434.04 1884.19,-441.04"/>
</g>
<!-- Node16 -->
<g id="node16" class="node">
<title>Node16</title>
<g id="a_node16"><a xlink:href="resharing_8h.html" target="_top" xlink:title=" ">
<polygon fill="white" stroke="black" points="1958.92,-297 1958.92,-316 2074.92,-316 2074.92,-297 1958.92,-297"/>
<text text-anchor="middle" x="2016.92" y="-304" font-family="Helvetica,sans-Serif" font-size="10.00">src/node/resharing.h</text>
</a>
</g>
</g>
<!-- Node12&#45;&gt;Node16 -->
<g id="edge21" class="edge">
<title>Node12&#45;&gt;Node16</title>
<path fill="none" stroke="midnightblue" d="M1965.31,-420.32C1967.89,-403.38 1972.92,-378.29 1981.92,-358 1989.01,-342.01 2001.38,-325.78 2009.36,-316.18"/>
<polygon fill="midnightblue" stroke="midnightblue" points="1961.79,-420.2 1963.88,-430.59 1968.72,-421.16 1961.79,-420.2"/>
</g>
<!-- Node17 -->
<g id="node17" class="node">
<title>Node17</title>
<g id="a_node17"><a xlink:href="serialization_8h.html" target="_top" xlink:title=" ">
<polygon fill="white" stroke="black" points="1990.92,-364 1990.92,-383 2138.92,-383 2138.92,-364 1990.92,-364"/>
<text text-anchor="middle" x="2064.92" y="-371" font-family="Helvetica,sans-Serif" font-size="10.00">src/node/rpc/serialization.h</text>
</a>
</g>
</g>
<!-- Node12&#45;&gt;Node17 -->
<g id="edge24" class="edge">
<title>Node12&#45;&gt;Node17</title>
<path fill="none" stroke="midnightblue" d="M1985.25,-425.27C2005.44,-412.4 2034.51,-393.88 2051.38,-383.13"/>
<polygon fill="midnightblue" stroke="midnightblue" points="1983.23,-422.41 1976.68,-430.73 1986.99,-428.31 1983.23,-422.41"/>
</g>
<!-- Node16&#45;&gt;Node2 -->
<g id="edge22" class="edge">
<title>Node16&#45;&gt;Node2</title>
<path fill="none" stroke="midnightblue" d="M1999.08,-290.39C1975.12,-271.09 1930.39,-238.46 1885.92,-224 1782.92,-190.51 1461.36,-181.89 1325.02,-179.71"/>
<polygon fill="midnightblue" stroke="midnightblue" points="1996.98,-293.2 2006.93,-296.84 2001.43,-287.79 1996.98,-293.2"/>
</g>
<!-- Node17&#45;&gt;Node2 -->
<g id="edge27" class="edge">
<title>Node17&#45;&gt;Node2</title>
<path fill="none" stroke="midnightblue" d="M2076.1,-355.29C2085.9,-337.81 2096.75,-310.58 2083.92,-291 2043,-228.57 2002.44,-241.66 1929.92,-224 1816.24,-196.32 1467.88,-184.33 1325.02,-180.48"/>
<polygon fill="midnightblue" stroke="midnightblue" points="2073.08,-353.52 2070.91,-363.89 2079.07,-357.13 2073.08,-353.52"/>
</g>
<!-- Node17&#45;&gt;Node7 -->
<g id="edge29" class="edge">
<title>Node17&#45;&gt;Node7</title>
<path fill="none" stroke="midnightblue" d="M2032.25,-360.29C2008.73,-351 1976.59,-337.24 1949.92,-322 1929.46,-310.31 1926.78,-303.67 1906.92,-291 1886.23,-277.8 1861.91,-264.26 1843.77,-254.53"/>
<polygon fill="midnightblue" stroke="midnightblue" points="2031.17,-363.63 2041.75,-363.99 2033.71,-357.11 2031.17,-363.63"/>
</g>
<!-- Node17&#45;&gt;Node8 -->
<g id="edge30" class="edge">
<title>Node17&#45;&gt;Node8</title>
<path fill="none" stroke="midnightblue" d="M2008.21,-362.12C1938.43,-349.34 1821.29,-327.89 1756.52,-316.03"/>
<polygon fill="midnightblue" stroke="midnightblue" points="2007.68,-365.58 2018.14,-363.94 2008.94,-358.69 2007.68,-365.58"/>
</g>
<!-- Node17&#45;&gt;Node13 -->
<g id="edge25" class="edge">
<title>Node17&#45;&gt;Node13</title>
<path fill="none" stroke="midnightblue" d="M2091.77,-359.47C2114.43,-348.49 2146.78,-332.79 2170,-321.53"/>
<polygon fill="midnightblue" stroke="midnightblue" points="2090.18,-356.35 2082.71,-363.87 2093.24,-362.65 2090.18,-356.35"/>
</g>
<!-- Node17&#45;&gt;Node14 -->
<g id="edge26" class="edge">
<title>Node17&#45;&gt;Node14</title>
<path fill="none" stroke="midnightblue" d="M2112.17,-361.69C2160.22,-350.69 2234.88,-333.6 2287.49,-321.56"/>
<polygon fill="midnightblue" stroke="midnightblue" points="2111.31,-358.29 2102.34,-363.94 2112.87,-365.12 2111.31,-358.29"/>
</g>
<!-- Node17&#45;&gt;Node16 -->
<g id="edge28" class="edge">
<title>Node17&#45;&gt;Node16</title>
<path fill="none" stroke="midnightblue" d="M2052.29,-355.4C2042.97,-342.77 2030.66,-326.1 2023.29,-316.13"/>
<polygon fill="midnightblue" stroke="midnightblue" points="2049.69,-357.77 2058.45,-363.73 2055.32,-353.61 2049.69,-357.77"/>
</g>
<!-- Node19 -->
<g id="node19" class="node">
<title>Node19</title>
<g id="a_node19"><a xlink:href="kv__module__loader_8cpp.html" target="_top" xlink:title=" ">
<polygon fill="white" stroke="black" points="920.42,-358.5 920.42,-388.5 1063.42,-388.5 1063.42,-358.5 920.42,-358.5"/>
<text text-anchor="start" x="928.42" y="-376.5" font-family="Helvetica,sans-Serif" font-size="10.00">src/apps/js_v8/kv_module</text>
<text text-anchor="middle" x="991.92" y="-365.5" font-family="Helvetica,sans-Serif" font-size="10.00">_loader.cpp</text>
</a>
</g>
</g>
<!-- Node18&#45;&gt;Node19 -->
<g id="edge32" class="edge">
<title>Node18&#45;&gt;Node19</title>
<path fill="none" stroke="midnightblue" d="M1159.09,-422.58C1122.38,-412.02 1075.69,-398.59 1040.98,-388.61"/>
<polygon fill="midnightblue" stroke="midnightblue" points="1158.58,-426.08 1169.16,-425.48 1160.52,-419.35 1158.58,-426.08"/>
</g>
<!-- Node20 -->
<g id="node20" class="node">
<title>Node20</title>
<g id="a_node20"><a xlink:href="network__state_8h.html" target="_top" xlink:title=" ">
<polygon fill="white" stroke="black" points="1119.92,-364 1119.92,-383 1259.92,-383 1259.92,-364 1119.92,-364"/>
<text text-anchor="middle" x="1189.92" y="-371" font-family="Helvetica,sans-Serif" font-size="10.00">src/node/network_state.h</text>
</a>
</g>
</g>
<!-- Node18&#45;&gt;Node20 -->
<g id="edge33" class="edge">
<title>Node18&#45;&gt;Node20</title>
<path fill="none" stroke="midnightblue" d="M1207.77,-415.94C1202.86,-404.54 1197.26,-391.55 1193.66,-383.19"/>
<polygon fill="midnightblue" stroke="midnightblue" points="1204.67,-417.6 1211.84,-425.4 1211.1,-414.83 1204.67,-417.6"/>
</g>
<!-- Node31 -->
<g id="node31" class="node">
<title>Node31</title>
<g id="a_node31"><a xlink:href="genesis__gen_8h.html" target="_top" xlink:title=" ">
<polygon fill="white" stroke="black" points="1277.92,-358.5 1277.92,-388.5 1387.92,-388.5 1387.92,-358.5 1277.92,-358.5"/>
<text text-anchor="start" x="1285.92" y="-376.5" font-family="Helvetica,sans-Serif" font-size="10.00">src/service/genesis</text>
<text text-anchor="middle" x="1332.92" y="-365.5" font-family="Helvetica,sans-Serif" font-size="10.00">_gen.h</text>
</a>
</g>
</g>
<!-- Node18&#45;&gt;Node31 -->
<g id="edge60" class="edge">
<title>Node18&#45;&gt;Node31</title>
<path fill="none" stroke="midnightblue" d="M1251.9,-420.3C1269.89,-410.12 1291.6,-397.85 1308.01,-388.58"/>
<polygon fill="midnightblue" stroke="midnightblue" points="1249.86,-417.43 1242.87,-425.4 1253.3,-423.52 1249.86,-417.43"/>
</g>
<!-- Node20&#45;&gt;Node2 -->
<g id="edge50" class="edge">
<title>Node20&#45;&gt;Node2</title>
<path fill="none" stroke="midnightblue" d="M1137.79,-361.69C1096.66,-352.2 1043.67,-337.52 1027.92,-322 996.12,-290.67 977.2,-258.18 1005.92,-224 1030.32,-194.95 1132.81,-184.65 1200.76,-181"/>
<polygon fill="midnightblue" stroke="midnightblue" points="1137.17,-365.14 1147.7,-363.93 1138.72,-358.31 1137.17,-365.14"/>
</g>
<!-- Node20&#45;&gt;Node3 -->
<g id="edge34" class="edge">
<title>Node20&#45;&gt;Node3</title>
<path fill="none" stroke="midnightblue" d="M1133.03,-361.96C1084.94,-352.24 1020.51,-337.08 998.92,-322 962.68,-296.7 941.92,-284.7 941.92,-240.5 941.92,-240.5 941.92,-240.5 941.92,-177 941.92,-103.53 1184.94,-78.2 1301.7,-70.28"/>
<polygon fill="midnightblue" stroke="midnightblue" points="1132.53,-365.43 1143.03,-363.95 1133.9,-358.56 1132.53,-365.43"/>
</g>
<!-- Node20&#45;&gt;Node8 -->
<g id="edge51" class="edge">
<title>Node20&#45;&gt;Node8</title>
<path fill="none" stroke="midnightblue" d="M1243.22,-362.21C1251.8,-360.7 1260.59,-359.24 1268.92,-358 1271.17,-357.67 1509.84,-330.37 1635.07,-316.05"/>
<polygon fill="midnightblue" stroke="midnightblue" points="1242.52,-358.78 1233.29,-363.99 1243.76,-365.67 1242.52,-358.78"/>
</g>
<!-- Node20&#45;&gt;Node10 -->
<g id="edge52" class="edge">
<title>Node20&#45;&gt;Node10</title>
<path fill="none" stroke="midnightblue" d="M1240.44,-361.8C1300.86,-349.01 1400.77,-327.86 1456.38,-316.08"/>
<polygon fill="midnightblue" stroke="midnightblue" points="1239.43,-358.44 1230.37,-363.94 1240.88,-365.29 1239.43,-358.44"/>
</g>
<!-- Node21 -->
<g id="node21" class="node">
<title>Node21</title>
<g id="a_node21"><a xlink:href="wrap_8h.html" target="_top" xlink:title=" ">
<polygon fill="white" stroke="black" points="532.92,-297 532.92,-316 610.92,-316 610.92,-297 532.92,-297"/>
<text text-anchor="middle" x="571.92" y="-304" font-family="Helvetica,sans-Serif" font-size="10.00">src/js/wrap.h</text>
</a>
</g>
</g>
<!-- Node20&#45;&gt;Node21 -->
<g id="edge35" class="edge">
<title>Node20&#45;&gt;Node21</title>
<path fill="none" stroke="midnightblue" d="M1112.35,-362.73C1098.88,-361.1 1085,-359.46 1071.92,-358 900.46,-338.81 695.54,-319.13 611.17,-311.17"/>
<polygon fill="midnightblue" stroke="midnightblue" points="1112.21,-366.23 1122.56,-363.97 1113.05,-359.29 1112.21,-366.23"/>
</g>
<!-- Node28 -->
<g id="node28" class="node">
<title>Node28</title>
<g id="a_node28"><a xlink:href="secret__broadcast_8h.html" target="_top" xlink:title=" ">
<polygon fill="white" stroke="black" points="1046.42,-297 1046.42,-316 1199.42,-316 1199.42,-297 1046.42,-297"/>
<text text-anchor="middle" x="1122.92" y="-304" font-family="Helvetica,sans-Serif" font-size="10.00">src/node/secret_broadcast.h</text>
</a>
</g>
</g>
<!-- Node20&#45;&gt;Node28 -->
<g id="edge53" class="edge">
<title>Node20&#45;&gt;Node28</title>
<path fill="none" stroke="midnightblue" d="M1173.42,-356.5C1160.28,-343.75 1142.39,-326.39 1131.81,-316.13"/>
<polygon fill="midnightblue" stroke="midnightblue" points="1171.27,-359.28 1180.88,-363.73 1176.14,-354.26 1171.27,-359.28"/>
</g>
<!-- Node29 -->
<g id="node29" class="node">
<title>Node29</title>
<g id="a_node29"><a xlink:href="share__manager_8h.html" target="_top" xlink:title=" ">
<polygon fill="white" stroke="black" points="1256.42,-297 1256.42,-316 1401.42,-316 1401.42,-297 1256.42,-297"/>
<text text-anchor="middle" x="1328.92" y="-304" font-family="Helvetica,sans-Serif" font-size="10.00">src/node/share_manager.h</text>
</a>
</g>
</g>
<!-- Node20&#45;&gt;Node29 -->
<g id="edge55" class="edge">
<title>Node20&#45;&gt;Node29</title>
<path fill="none" stroke="midnightblue" d="M1217.48,-359.61C1245.01,-346.74 1286.56,-327.31 1310.38,-316.17"/>
<polygon fill="midnightblue" stroke="midnightblue" points="1215.95,-356.46 1208.38,-363.87 1218.92,-362.8 1215.95,-356.46"/>
</g>
<!-- Node30 -->
<g id="node30" class="node">
<title>Node30</title>
<g id="a_node30"><a xlink:href="snapshotter_8h.html" target="_top" xlink:title=" ">
<polygon fill="white" stroke="black" points="1015.42,-230 1015.42,-249 1142.42,-249 1142.42,-230 1015.42,-230"/>
<text text-anchor="middle" x="1078.92" y="-237" font-family="Helvetica,sans-Serif" font-size="10.00">src/node/snapshotter.h</text>
</a>
</g>
</g>
<!-- Node20&#45;&gt;Node30 -->
<g id="edge58" class="edge">
<title>Node20&#45;&gt;Node30</title>
<path fill="none" stroke="midnightblue" d="M1135.67,-361.61C1096.63,-352.55 1048.84,-338.49 1036.92,-322 1019.2,-297.49 1050.92,-264.47 1068.45,-249.07"/>
<polygon fill="midnightblue" stroke="midnightblue" points="1135.37,-365.13 1145.9,-363.92 1136.91,-358.3 1135.37,-365.13"/>
</g>
<!-- Node21&#45;&gt;Node2 -->
<g id="edge48" class="edge">
<title>Node21&#45;&gt;Node2</title>
<path fill="none" stroke="midnightblue" d="M620.85,-297.37C669.16,-288.81 744.89,-273.95 808.92,-255 845.88,-244.06 852.5,-233.27 889.92,-224 997.24,-197.42 1125.96,-186.31 1200.7,-181.84"/>
<polygon fill="midnightblue" stroke="midnightblue" points="620.22,-293.93 610.97,-299.1 621.42,-300.83 620.22,-293.93"/>
</g>
<!-- Node21&#45;&gt;Node3 -->
<g id="edge37" class="edge">
<title>Node21&#45;&gt;Node3</title>
<path fill="none" stroke="midnightblue" d="M522.72,-304.81C391.61,-302.47 41.42,-292.72 6.92,-255 -2.38,-244.83 -2.2,-234.33 6.92,-224 93.96,-125.49 1048.71,-79.8 1301.7,-69.37"/>
<polygon fill="midnightblue" stroke="midnightblue" points="522.82,-308.31 532.88,-304.99 522.94,-301.32 522.82,-308.31"/>
</g>
<!-- Node21&#45;&gt;Node7 -->
<g id="edge49" class="edge">
<title>Node21&#45;&gt;Node7</title>
<path fill="none" stroke="midnightblue" d="M621.21,-303.91C774.21,-298.84 1254.65,-281.73 1651.92,-255 1686.64,-252.66 1725.4,-249.3 1756.62,-246.4"/>
<polygon fill="midnightblue" stroke="midnightblue" points="621.06,-300.42 611.18,-304.25 621.29,-307.41 621.06,-300.42"/>
</g>
<!-- Node21&#45;&gt;Node15 -->
<g id="edge47" class="edge">
<title>Node21&#45;&gt;Node15</title>
<path fill="none" stroke="midnightblue" d="M593.08,-290.73C613.94,-274.32 640.57,-247.08 624.92,-224 609.63,-201.45 581.06,-190.2 556.47,-184.59"/>
<polygon fill="midnightblue" stroke="midnightblue" points="590.82,-288.06 584.92,-296.86 595.02,-293.66 590.82,-288.06"/>
</g>
<!-- Node22 -->
<g id="node22" class="node">
<title>Node22</title>
<g id="a_node22"><a xlink:href="js__generic__base_8cpp.html" target="_top" xlink:title=" ">
<polygon fill="white" stroke="black" points="257.92,-224.5 257.92,-254.5 375.92,-254.5 375.92,-224.5 257.92,-224.5"/>
<text text-anchor="start" x="265.92" y="-242.5" font-family="Helvetica,sans-Serif" font-size="10.00">src/apps/js_generic</text>
<text text-anchor="middle" x="316.92" y="-231.5" font-family="Helvetica,sans-Serif" font-size="10.00">/js_generic_base.cpp</text>
</a>
</g>
</g>
<!-- Node21&#45;&gt;Node22 -->
<g id="edge36" class="edge">
<title>Node21&#45;&gt;Node22</title>
<path fill="none" stroke="midnightblue" d="M528.4,-294.41C485.23,-283.4 418.92,-266.5 372.07,-254.56"/>
<polygon fill="midnightblue" stroke="midnightblue" points="527.77,-297.86 538.32,-296.94 529.49,-291.07 527.77,-297.86"/>
</g>
<!-- Node23 -->
<g id="node23" class="node">
<title>Node23</title>
<g id="a_node23"><a xlink:href="js_2consensus_8cpp.html" target="_top" xlink:title=" ">
<polygon fill="white" stroke="black" points="393.92,-230 393.92,-249 509.92,-249 509.92,-230 393.92,-230"/>
<text text-anchor="middle" x="451.92" y="-237" font-family="Helvetica,sans-Serif" font-size="10.00">src/js/consensus.cpp</text>
</a>
</g>
</g>
<!-- Node21&#45;&gt;Node23 -->
<g id="edge38" class="edge">
<title>Node21&#45;&gt;Node23</title>
<path fill="none" stroke="midnightblue" d="M546.92,-291.96C523.13,-279.07 488.05,-260.07 467.85,-249.13"/>
<polygon fill="midnightblue" stroke="midnightblue" points="545.28,-295.05 555.74,-296.73 548.61,-288.89 545.28,-295.05"/>
</g>
<!-- Node24 -->
<g id="node24" class="node">
<title>Node24</title>
<g id="a_node24"><a xlink:href="conv_8cpp.html" target="_top" xlink:title=" ">
<polygon fill="white" stroke="black" points="527.92,-230 527.92,-249 615.92,-249 615.92,-230 527.92,-230"/>
<text text-anchor="middle" x="571.92" y="-237" font-family="Helvetica,sans-Serif" font-size="10.00">src/js/conv.cpp</text>
</a>
</g>
</g>
<!-- Node21&#45;&gt;Node24 -->
<g id="edge40" class="edge">
<title>Node21&#45;&gt;Node24</title>
<path fill="none" stroke="midnightblue" d="M571.92,-286.54C571.92,-274.17 571.92,-258.62 571.92,-249.13"/>
<polygon fill="midnightblue" stroke="midnightblue" points="568.42,-286.73 571.92,-296.73 575.42,-286.73 568.42,-286.73"/>
</g>
<!-- Node25 -->
<g id="node25" class="node">
<title>Node25</title>
<g id="a_node25"><a xlink:href="js_2crypto_8cpp.html" target="_top" xlink:title=" ">
<polygon fill="white" stroke="black" points="143.92,-230 143.92,-249 239.92,-249 239.92,-230 143.92,-230"/>
<text text-anchor="middle" x="191.92" y="-237" font-family="Helvetica,sans-Serif" font-size="10.00">src/js/crypto.cpp</text>
</a>
</g>
</g>
<!-- Node21&#45;&gt;Node25 -->
<g id="edge42" class="edge">
<title>Node21&#45;&gt;Node25</title>
<path fill="none" stroke="midnightblue" d="M522.54,-299.25C458.95,-290.86 345.17,-274.72 248.92,-255 240.52,-253.28 231.49,-251.13 223.16,-249.01"/>
<polygon fill="midnightblue" stroke="midnightblue" points="522.31,-302.75 532.68,-300.58 523.22,-295.81 522.31,-302.75"/>
</g>
<!-- Node26 -->
<g id="node26" class="node">
<title>Node26</title>
<g id="a_node26"><a xlink:href="js_2historical_8cpp.html" target="_top" xlink:title=" ">
<polygon fill="white" stroke="black" points="15.92,-230 15.92,-249 125.92,-249 125.92,-230 15.92,-230"/>
<text text-anchor="middle" x="70.92" y="-237" font-family="Helvetica,sans-Serif" font-size="10.00">src/js/historical.cpp</text>
</a>
</g>
</g>
<!-- Node21&#45;&gt;Node26 -->
<g id="edge44" class="edge">
<title>Node21&#45;&gt;Node26</title>
<path fill="none" stroke="midnightblue" d="M522.42,-301.53C441.15,-294.62 274.52,-278.81 134.92,-255 125.26,-253.35 114.87,-251.18 105.33,-249.01"/>
<polygon fill="midnightblue" stroke="midnightblue" points="522.58,-305.06 532.84,-302.41 523.17,-298.08 522.58,-305.06"/>
</g>
<!-- Node27 -->
<g id="node27" class="node">
<title>Node27</title>
<g id="a_node27"><a xlink:href="openenclave_8cpp.html" target="_top" xlink:title=" ">
<polygon fill="white" stroke="black" points="671.92,-230 671.92,-249 799.92,-249 799.92,-230 671.92,-230"/>
<text text-anchor="middle" x="735.92" y="-237" font-family="Helvetica,sans-Serif" font-size="10.00">src/js/openenclave.cpp</text>
</a>
</g>
</g>
<!-- Node21&#45;&gt;Node27 -->
<g id="edge46" class="edge">
<title>Node21&#45;&gt;Node27</title>
<path fill="none" stroke="midnightblue" d="M603.19,-293.1C635.76,-280.2 685.89,-260.33 714.31,-249.06"/>
<polygon fill="midnightblue" stroke="midnightblue" points="601.7,-289.93 593.7,-296.87 604.28,-296.44 601.7,-289.93"/>
</g>
<!-- Node23&#45;&gt;Node15 -->
<g id="edge39" class="edge">
<title>Node23&#45;&gt;Node15</title>
<path fill="none" stroke="midnightblue" d="M467.73,-222.82C479.13,-211.52 494.08,-196.69 503.34,-187.51"/>
<polygon fill="midnightblue" stroke="midnightblue" points="465.15,-220.45 460.52,-229.98 470.08,-225.42 465.15,-220.45"/>
</g>
<!-- Node24&#45;&gt;Node15 -->
<g id="edge41" class="edge">
<title>Node24&#45;&gt;Node15</title>
<path fill="none" stroke="midnightblue" d="M556.11,-222.82C544.71,-211.52 529.76,-196.69 520.5,-187.51"/>
<polygon fill="midnightblue" stroke="midnightblue" points="553.76,-225.42 563.32,-229.98 558.69,-220.45 553.76,-225.42"/>
</g>
<!-- Node25&#45;&gt;Node15 -->
<g id="edge43" class="edge">
<title>Node25&#45;&gt;Node15</title>
<path fill="none" stroke="midnightblue" d="M233.36,-227.55C238.59,-226.29 243.87,-225.07 248.92,-224 325.04,-207.83 414.52,-193.5 467.04,-185.56"/>
<polygon fill="midnightblue" stroke="midnightblue" points="232.34,-224.2 223.47,-230 234.02,-230.99 232.34,-224.2"/>
</g>
<!-- Node26&#45;&gt;Node15 -->
<g id="edge45" class="edge">
<title>Node26&#45;&gt;Node15</title>
<path fill="none" stroke="midnightblue" d="M115.64,-227.75C122.08,-226.38 128.66,-225.08 134.92,-224 254.28,-203.41 396.52,-189.2 467.3,-182.81"/>
<polygon fill="midnightblue" stroke="midnightblue" points="114.68,-224.37 105.66,-229.94 116.18,-231.21 114.68,-224.37"/>
</g>
<!-- Node28&#45;&gt;Node2 -->
<g id="edge54" class="edge">
<title>Node28&#45;&gt;Node2</title>
<path fill="none" stroke="midnightblue" d="M1140.05,-290.02C1169.73,-263.2 1229.78,-208.94 1253.23,-187.76"/>
<polygon fill="midnightblue" stroke="midnightblue" points="1137.61,-287.5 1132.54,-296.81 1142.31,-292.7 1137.61,-287.5"/>
</g>
<!-- Node29&#45;&gt;Node2 -->
<g id="edge56" class="edge">
<title>Node29&#45;&gt;Node2</title>
<path fill="none" stroke="midnightblue" d="M1319.74,-287.9C1305.41,-260.44 1278.26,-208.4 1267.49,-187.76"/>
<polygon fill="midnightblue" stroke="midnightblue" points="1316.65,-289.56 1324.38,-296.81 1322.86,-286.32 1316.65,-289.56"/>
</g>
<!-- Node29&#45;&gt;Node7 -->
<g id="edge57" class="edge">
<title>Node29&#45;&gt;Node7</title>
<path fill="none" stroke="midnightblue" d="M1384.22,-295.19C1392.81,-293.71 1401.59,-292.26 1409.92,-291 1532.77,-272.4 1677.24,-255.69 1756.78,-246.94"/>
<polygon fill="midnightblue" stroke="midnightblue" points="1383.5,-291.76 1374.26,-296.94 1384.71,-298.66 1383.5,-291.76"/>
</g>
<!-- Node30&#45;&gt;Node2 -->
<g id="edge59" class="edge">
<title>Node30&#45;&gt;Node2</title>
<path fill="none" stroke="midnightblue" d="M1114.85,-226.88C1150.62,-215.32 1204.66,-197.84 1236.61,-187.51"/>
<polygon fill="midnightblue" stroke="midnightblue" points="1113.72,-223.57 1105.28,-229.98 1115.87,-230.23 1113.72,-223.57"/>
</g>
<!-- Node31&#45;&gt;Node2 -->
<g id="edge61" class="edge">
<title>Node31&#45;&gt;Node2</title>
<path fill="none" stroke="midnightblue" d="M1281.57,-353.66C1267.89,-346.02 1254.75,-335.68 1246.92,-322 1221.23,-277.12 1247.55,-211.32 1258.56,-187.78"/>
<polygon fill="midnightblue" stroke="midnightblue" points="1280.1,-356.84 1290.59,-358.3 1283.3,-350.61 1280.1,-356.84"/>
</g>
<!-- Node31&#45;&gt;Node7 -->
<g id="edge62" class="edge">
<title>Node31&#45;&gt;Node7</title>
<path fill="none" stroke="midnightblue" d="M1398.38,-367.39C1522.97,-357.39 1783.16,-335.08 1797.92,-322 1816.95,-305.14 1818.84,-273.25 1818.13,-254.75"/>
<polygon fill="midnightblue" stroke="midnightblue" points="1397.89,-363.92 1388.21,-368.2 1398.45,-370.9 1397.89,-363.92"/>
</g>
<!-- Node31&#45;&gt;Node8 -->
<g id="edge63" class="edge">
<title>Node31&#45;&gt;Node8</title>
<path fill="none" stroke="midnightblue" d="M1398.36,-361.22C1473.01,-348.35 1593.38,-327.59 1660.56,-316.01"/>
<polygon fill="midnightblue" stroke="midnightblue" points="1397.4,-357.83 1388.14,-362.98 1398.59,-364.73 1397.4,-357.83"/>
</g>
<!-- Node31&#45;&gt;Node28 -->
<g id="edge64" class="edge">
<title>Node31&#45;&gt;Node28</title>
<path fill="none" stroke="midnightblue" d="M1278.03,-355.51C1237.05,-342.83 1182.76,-326.02 1150.47,-316.03"/>
<polygon fill="midnightblue" stroke="midnightblue" points="1277.02,-358.86 1287.61,-358.48 1279.09,-352.18 1277.02,-358.86"/>
</g>
<!-- Node31&#45;&gt;Node29 -->
<g id="edge65" class="edge">
<title>Node31&#45;&gt;Node29</title>
<path fill="none" stroke="midnightblue" d="M1331.43,-348.25C1330.74,-337.02 1329.96,-324.38 1329.45,-316.19"/>
<polygon fill="midnightblue" stroke="midnightblue" points="1327.94,-348.63 1332.05,-358.4 1334.93,-348.2 1327.94,-348.63"/>
</g>
</g>
</svg>
