<?xml version="1.0" encoding="UTF-8" standalone="no"?>
<!DOCTYPE svg PUBLIC "-//W3C//DTD SVG 1.1//EN"
 "http://www.w3.org/Graphics/SVG/1.1/DTD/svg11.dtd">
<!-- Generated by graphviz version 2.43.0 (0)
 -->
<!-- Title: include/ccf/service/tables/service.h Pages: 1 -->
<!--zoomable 520 -->
<svg id="main" version="1.1" xmlns="http://www.w3.org/2000/svg" xmlns:xlink="http://www.w3.org/1999/xlink" xml:space="preserve" onload="init(evt)">
<style type="text/css"><![CDATA[
.edge:hover path { stroke: red; }
.edge:hover polygon { stroke: red; fill: red; }
]]></style>
<script type="text/javascript"><![CDATA[
var edges = document.getElementsByTagName('g');
if (edges && edges.length) {
  for (var i=0;i<edges.length;i++) {
    if (edges[i].id.substr(0,4)=='edge') {
      edges[i].setAttribute('class','edge');
    }
  }
}
]]></script>
        <defs>
                <circle id="rim" cx="0" cy="0" r="7"/>
                <circle id="rim2" cx="0" cy="0" r="3.5"/>
                <g id="zoomPlus">
                        <use xlink:href="#rim" fill="#404040">
                                <set attributeName="fill" to="#808080" begin="zoomplus.mouseover" end="zoomplus.mouseout"/>
                        </use>
                        <path d="M-4,0h8M0,-4v8" fill="none" stroke="white" stroke-width="1.5" pointer-events="none"/>
                </g>
                <g id="zoomMin">
                        <use xlink:href="#rim" fill="#404040">
                                <set attributeName="fill" to="#808080" begin="zoomminus.mouseover" end="zoomminus.mouseout"/>
                        </use>
                        <path d="M-4,0h8" fill="none" stroke="white" stroke-width="1.5" pointer-events="none"/>
                </g>
                <g id="dirArrow">
                        <path fill="none" stroke="white" stroke-width="1.5" d="M0,-3.0v7 M-2.5,-0.5L0,-3.0L2.5,-0.5"/>
                </g>
               <g id="resetDef">
                       <use xlink:href="#rim2" fill="#404040">
                               <set attributeName="fill" to="#808080" begin="reset.mouseover" end="reset.mouseout"/>
                       </use>
               </g>
        </defs>

<script type="text/javascript">
var viewWidth = 1324;
var viewHeight = 520;
var sectionId = 'dynsection-0';
</script>
<script xlink:href="svgpan.js"/>
<svg id="graph" class="graph">
<g id="viewport">
<title>include/ccf/service/tables/service.h</title>
<polygon fill="white" stroke="transparent" points="-4,4 -4,-516 1319.5,-516 1319.5,4 -4,4"/>
<!-- Node1 -->
<g id="node1" class="node">
<title>Node1</title>
<g id="a_node1"><a xlink:title=" ">
<polygon fill="#bfbfbf" stroke="black" points="386,-481.5 386,-511.5 493,-511.5 493,-481.5 386,-481.5"/>
<text text-anchor="start" x="394" y="-499.5" font-family="Helvetica,sans-Serif" font-size="10.00">include/ccf/service</text>
<text text-anchor="middle" x="439.5" y="-488.5" font-family="Helvetica,sans-Serif" font-size="10.00">/tables/service.h</text>
</a>
</g>
</g>
<!-- Node2 -->
<g id="node2" class="node">
<title>Node2</title>
<g id="a_node2"><a xlink:href="json_8h.html" target="_top" xlink:title=" ">
<polygon fill="white" stroke="black" points="148,-369.5 148,-388.5 225,-388.5 225,-369.5 148,-369.5"/>
<text text-anchor="middle" x="186.5" y="-376.5" font-family="Helvetica,sans-Serif" font-size="10.00">ccf/ds/json.h</text>
</a>
</g>
</g>
<!-- Node1&#45;&gt;Node2 -->
<g id="edge1" class="edge">
<title>Node1&#45;&gt;Node2</title>
<path fill="none" stroke="midnightblue" d="M408.73,-481.45C359.08,-458.79 262.05,-414.49 214.34,-392.71"/>
<polygon fill="midnightblue" stroke="midnightblue" points="215.76,-389.51 205.21,-388.54 212.86,-395.88 215.76,-389.51"/>
</g>
<!-- Node16 -->
<g id="node16" class="node">
<title>Node16</title>
<g id="a_node16"><a xlink:href="service_2map_8h.html" target="_top" xlink:title=" ">
<polygon fill="white" stroke="black" points="592,-425.5 592,-444.5 695,-444.5 695,-425.5 592,-425.5"/>
<text text-anchor="middle" x="643.5" y="-432.5" font-family="Helvetica,sans-Serif" font-size="10.00">ccf/service/map.h</text>
</a>
</g>
</g>
<!-- Node1&#45;&gt;Node16 -->
<g id="edge18" class="edge">
<title>Node1&#45;&gt;Node16</title>
<path fill="none" stroke="midnightblue" d="M487.59,-481.47C523.24,-471.08 571.23,-457.08 604.51,-447.37"/>
<polygon fill="midnightblue" stroke="midnightblue" points="605.72,-450.67 614.34,-444.51 603.76,-443.95 605.72,-450.67"/>
</g>
<!-- Node3 -->
<g id="node3" class="node">
<title>Node3</title>
<g id="a_node3"><a xlink:href="include_2ccf_2crypto_2base64_8h.html" target="_top" xlink:title=" ">
<polygon fill="white" stroke="black" points="442.5,-241 442.5,-260 554.5,-260 554.5,-241 442.5,-241"/>
<text text-anchor="middle" x="498.5" y="-248" font-family="Helvetica,sans-Serif" font-size="10.00">ccf/crypto/base64.h</text>
</a>
</g>
</g>
<!-- Node2&#45;&gt;Node3 -->
<g id="edge2" class="edge">
<title>Node2&#45;&gt;Node3</title>
<path fill="none" stroke="midnightblue" d="M200.47,-369.36C214.57,-360.53 236.86,-346.27 255.5,-333 273.82,-319.96 275.26,-311.81 295.5,-302 338.67,-281.06 391.34,-268.29 432.22,-260.82"/>
<polygon fill="midnightblue" stroke="midnightblue" points="432.83,-264.27 442.07,-259.09 431.62,-257.38 432.83,-264.27"/>
</g>
<!-- Node6 -->
<g id="node6" class="node">
<title>Node6</title>
<g id="a_node6"><a xlink:href="include_2ccf_2ds_2json__schema_8h.html" target="_top" xlink:title=" ">
<polygon fill="white" stroke="black" points="126,-308 126,-327 247,-327 247,-308 126,-308"/>
<text text-anchor="middle" x="186.5" y="-315" font-family="Helvetica,sans-Serif" font-size="10.00">ccf/ds/json_schema.h</text>
</a>
</g>
</g>
<!-- Node2&#45;&gt;Node6 -->
<g id="edge5" class="edge">
<title>Node2&#45;&gt;Node6</title>
<path fill="none" stroke="midnightblue" d="M186.5,-369.48C186.5,-361.08 186.5,-347.98 186.5,-337.16"/>
<polygon fill="midnightblue" stroke="midnightblue" points="190,-337.01 186.5,-327.01 183,-337.01 190,-337.01"/>
</g>
<!-- Node13 -->
<g id="node13" class="node">
<title>Node13</title>
<g id="a_node13"><a xlink:title=" ">
<polygon fill="white" stroke="#bfbfbf" points="0,-56.5 0,-75.5 79,-75.5 79,-56.5 0,-56.5"/>
<text text-anchor="middle" x="39.5" y="-63.5" font-family="Helvetica,sans-Serif" font-size="10.00">fmt/format.h</text>
</a>
</g>
</g>
<!-- Node2&#45;&gt;Node13 -->
<g id="edge16" class="edge">
<title>Node2&#45;&gt;Node13</title>
<path fill="none" stroke="midnightblue" d="M147.93,-376.2C115.28,-372.57 69.59,-362.17 42.5,-333 17.19,-305.75 23.5,-288.69 23.5,-251.5 23.5,-251.5 23.5,-251.5 23.5,-182.5 23.5,-148.04 30.58,-108.33 35.32,-85.6"/>
<polygon fill="midnightblue" stroke="midnightblue" points="38.78,-86.15 37.47,-75.64 31.94,-84.67 38.78,-86.15"/>
</g>
<!-- Node15 -->
<g id="node15" class="node">
<title>Node15</title>
<g id="a_node15"><a xlink:title=" ">
<polygon fill="white" stroke="#bfbfbf" points="51.5,-308 51.5,-327 107.5,-327 107.5,-308 51.5,-308"/>
<text text-anchor="middle" x="79.5" y="-315" font-family="Helvetica,sans-Serif" font-size="10.00">sstream</text>
</a>
</g>
</g>
<!-- Node2&#45;&gt;Node15 -->
<g id="edge17" class="edge">
<title>Node2&#45;&gt;Node15</title>
<path fill="none" stroke="midnightblue" d="M171.17,-369.48C153.53,-359.67 124.34,-343.43 103.64,-331.92"/>
<polygon fill="midnightblue" stroke="midnightblue" points="105.24,-328.81 94.8,-327.01 101.84,-334.93 105.24,-328.81"/>
</g>
<!-- Node4 -->
<g id="node4" class="node">
<title>Node4</title>
<g id="a_node4"><a xlink:title=" ">
<polygon fill="white" stroke="#bfbfbf" points="561.5,-174 561.5,-193 605.5,-193 605.5,-174 561.5,-174"/>
<text text-anchor="middle" x="583.5" y="-181" font-family="Helvetica,sans-Serif" font-size="10.00">string</text>
</a>
</g>
</g>
<!-- Node3&#45;&gt;Node4 -->
<g id="edge3" class="edge">
<title>Node3&#45;&gt;Node4</title>
<path fill="none" stroke="midnightblue" d="M509.96,-240.73C523.86,-230.11 547.48,-212.05 564.19,-199.26"/>
<polygon fill="midnightblue" stroke="midnightblue" points="566.4,-201.98 572.22,-193.13 562.15,-196.42 566.4,-201.98"/>
</g>
<!-- Node5 -->
<g id="node5" class="node">
<title>Node5</title>
<g id="a_node5"><a xlink:title=" ">
<polygon fill="white" stroke="#bfbfbf" points="510,-0.5 510,-19.5 557,-19.5 557,-0.5 510,-0.5"/>
<text text-anchor="middle" x="533.5" y="-7.5" font-family="Helvetica,sans-Serif" font-size="10.00">vector</text>
</a>
</g>
</g>
<!-- Node3&#45;&gt;Node5 -->
<g id="edge4" class="edge">
<title>Node3&#45;&gt;Node5</title>
<path fill="none" stroke="midnightblue" d="M501.9,-240.71C505.6,-230.75 511.41,-213.95 514.5,-199 527.09,-138.08 531.45,-64.25 532.87,-30.07"/>
<polygon fill="midnightblue" stroke="midnightblue" points="536.38,-29.84 533.26,-19.72 529.39,-29.58 536.38,-29.84"/>
</g>
<!-- Node7 -->
<g id="node7" class="node">
<title>Node7</title>
<g id="a_node7"><a xlink:href="nonstd_8h.html" target="_top" xlink:title=" ">
<polygon fill="white" stroke="black" points="259.5,-241 259.5,-260 349.5,-260 349.5,-241 259.5,-241"/>
<text text-anchor="middle" x="304.5" y="-248" font-family="Helvetica,sans-Serif" font-size="10.00">ccf/ds/nonstd.h</text>
</a>
</g>
</g>
<!-- Node6&#45;&gt;Node7 -->
<g id="edge6" class="edge">
<title>Node6&#45;&gt;Node7</title>
<path fill="none" stroke="midnightblue" d="M202.41,-307.73C222.32,-296.77 256.61,-277.88 279.9,-265.05"/>
<polygon fill="midnightblue" stroke="midnightblue" points="281.77,-268.02 288.84,-260.13 278.39,-261.89 281.77,-268.02"/>
</g>
<!-- Node6&#45;&gt;Node13 -->
<g id="edge14" class="edge">
<title>Node6&#45;&gt;Node13</title>
<path fill="none" stroke="midnightblue" d="M171.81,-307.93C157.59,-299 136.22,-283.84 122.5,-266 78.03,-208.19 53.17,-123.1 43.83,-85.75"/>
<polygon fill="midnightblue" stroke="midnightblue" points="47.18,-84.67 41.43,-75.77 40.37,-86.31 47.18,-84.67"/>
</g>
<!-- Node14 -->
<g id="node14" class="node">
<title>Node14</title>
<g id="a_node14"><a xlink:title=" ">
<polygon fill="white" stroke="#bfbfbf" points="131.5,-241 131.5,-260 241.5,-260 241.5,-241 131.5,-241"/>
<text text-anchor="middle" x="186.5" y="-248" font-family="Helvetica,sans-Serif" font-size="10.00">nlohmann/json.hpp</text>
</a>
</g>
</g>
<!-- Node6&#45;&gt;Node14 -->
<g id="edge15" class="edge">
<title>Node6&#45;&gt;Node14</title>
<path fill="none" stroke="midnightblue" d="M186.5,-307.73C186.5,-298.18 186.5,-282.62 186.5,-270.28"/>
<polygon fill="midnightblue" stroke="midnightblue" points="190,-270.13 186.5,-260.13 183,-270.13 190,-270.13"/>
</g>
<!-- Node7&#45;&gt;Node4 -->
<g id="edge10" class="edge">
<title>Node7&#45;&gt;Node4</title>
<path fill="none" stroke="midnightblue" d="M341.26,-240.94C396.22,-228.13 498.91,-204.21 551.17,-192.03"/>
<polygon fill="midnightblue" stroke="midnightblue" points="552.27,-195.37 561.22,-189.69 550.68,-188.55 552.27,-195.37"/>
</g>
<!-- Node7&#45;&gt;Node5 -->
<g id="edge13" class="edge">
<title>Node7&#45;&gt;Node5</title>
<path fill="none" stroke="midnightblue" d="M273.33,-240.91C222.59,-226.89 127.63,-200.5 126.5,-199 118.19,-188.01 118.71,-179.36 126.5,-168 213.53,-41.15 418.7,-16.76 499.73,-12.09"/>
<polygon fill="midnightblue" stroke="midnightblue" points="500.06,-15.58 509.87,-11.57 499.7,-8.59 500.06,-15.58"/>
</g>
<!-- Node8 -->
<g id="node8" class="node">
<title>Node8</title>
<g id="a_node8"><a xlink:title=" ">
<polygon fill="white" stroke="#bfbfbf" points="135.5,-174 135.5,-193 199.5,-193 199.5,-174 135.5,-174"/>
<text text-anchor="middle" x="167.5" y="-181" font-family="Helvetica,sans-Serif" font-size="10.00">algorithm</text>
</a>
</g>
</g>
<!-- Node7&#45;&gt;Node8 -->
<g id="edge7" class="edge">
<title>Node7&#45;&gt;Node8</title>
<path fill="none" stroke="midnightblue" d="M286.31,-240.87C262.97,-229.8 222.27,-210.49 195.11,-197.6"/>
<polygon fill="midnightblue" stroke="midnightblue" points="196.3,-194.29 185.77,-193.17 193.3,-200.62 196.3,-194.29"/>
</g>
<!-- Node9 -->
<g id="node9" class="node">
<title>Node9</title>
<g id="a_node9"><a xlink:title=" ">
<polygon fill="white" stroke="#bfbfbf" points="217.5,-174 217.5,-193 259.5,-193 259.5,-174 217.5,-174"/>
<text text-anchor="middle" x="238.5" y="-181" font-family="Helvetica,sans-Serif" font-size="10.00">array</text>
</a>
</g>
</g>
<!-- Node7&#45;&gt;Node9 -->
<g id="edge8" class="edge">
<title>Node7&#45;&gt;Node9</title>
<path fill="none" stroke="midnightblue" d="M295.6,-240.73C285.11,-230.4 267.48,-213.04 254.58,-200.33"/>
<polygon fill="midnightblue" stroke="midnightblue" points="256.84,-197.65 247.26,-193.13 251.93,-202.64 256.84,-197.65"/>
</g>
<!-- Node10 -->
<g id="node10" class="node">
<title>Node10</title>
<g id="a_node10"><a xlink:title=" ">
<polygon fill="white" stroke="#bfbfbf" points="278,-174 278,-193 327,-193 327,-174 278,-174"/>
<text text-anchor="middle" x="302.5" y="-181" font-family="Helvetica,sans-Serif" font-size="10.00">cctype</text>
</a>
</g>
</g>
<!-- Node7&#45;&gt;Node10 -->
<g id="edge9" class="edge">
<title>Node7&#45;&gt;Node10</title>
<path fill="none" stroke="midnightblue" d="M304.23,-240.73C303.94,-231.18 303.46,-215.62 303.08,-203.28"/>
<polygon fill="midnightblue" stroke="midnightblue" points="306.57,-203.01 302.77,-193.13 299.57,-203.23 306.57,-203.01"/>
</g>
<!-- Node11 -->
<g id="node11" class="node">
<title>Node11</title>
<g id="a_node11"><a xlink:title=" ">
<polygon fill="white" stroke="#bfbfbf" points="345,-174 345,-193 418,-193 418,-174 345,-174"/>
<text text-anchor="middle" x="381.5" y="-181" font-family="Helvetica,sans-Serif" font-size="10.00">string_view</text>
</a>
</g>
</g>
<!-- Node7&#45;&gt;Node11 -->
<g id="edge11" class="edge">
<title>Node7&#45;&gt;Node11</title>
<path fill="none" stroke="midnightblue" d="M314.88,-240.73C327.35,-230.21 348.47,-212.38 363.59,-199.62"/>
<polygon fill="midnightblue" stroke="midnightblue" points="365.9,-202.25 371.28,-193.13 361.38,-196.9 365.9,-202.25"/>
</g>
<!-- Node12 -->
<g id="node12" class="node">
<title>Node12</title>
<g id="a_node12"><a xlink:title=" ">
<polygon fill="white" stroke="#bfbfbf" points="436,-174 436,-193 505,-193 505,-174 436,-174"/>
<text text-anchor="middle" x="470.5" y="-181" font-family="Helvetica,sans-Serif" font-size="10.00">type_traits</text>
</a>
</g>
</g>
<!-- Node7&#45;&gt;Node12 -->
<g id="edge12" class="edge">
<title>Node7&#45;&gt;Node12</title>
<path fill="none" stroke="midnightblue" d="M326.54,-240.87C355.4,-229.57 406.15,-209.7 439.04,-196.82"/>
<polygon fill="midnightblue" stroke="midnightblue" points="440.59,-199.97 448.63,-193.06 438.04,-193.45 440.59,-199.97"/>
</g>
<!-- Node17 -->
<g id="node17" class="node">
<title>Node17</title>
<g id="a_node17"><a xlink:href="kv_2map_8h.html" target="_top" xlink:title=" ">
<polygon fill="white" stroke="black" points="747.5,-369.5 747.5,-388.5 827.5,-388.5 827.5,-369.5 747.5,-369.5"/>
<text text-anchor="middle" x="787.5" y="-376.5" font-family="Helvetica,sans-Serif" font-size="10.00">ccf/kv/map.h</text>
</a>
</g>
</g>
<!-- Node16&#45;&gt;Node17 -->
<g id="edge19" class="edge">
<title>Node16&#45;&gt;Node17</title>
<path fill="none" stroke="midnightblue" d="M666.32,-425.44C690.33,-416.44 728.33,-402.19 755.37,-392.05"/>
<polygon fill="midnightblue" stroke="midnightblue" points="756.66,-395.3 764.79,-388.52 754.2,-388.75 756.66,-395.3"/>
</g>
<!-- Node37 -->
<g id="node37" class="node">
<title>Node37</title>
<g id="a_node37"><a xlink:href="set_8h.html" target="_top" xlink:title=" ">
<polygon fill="white" stroke="black" points="656,-369.5 656,-388.5 729,-388.5 729,-369.5 656,-369.5"/>
<text text-anchor="middle" x="692.5" y="-376.5" font-family="Helvetica,sans-Serif" font-size="10.00">ccf/kv/set.h</text>
</a>
</g>
</g>
<!-- Node16&#45;&gt;Node37 -->
<g id="edge52" class="edge">
<title>Node16&#45;&gt;Node37</title>
<path fill="none" stroke="midnightblue" d="M651.59,-425.08C658.66,-417.3 669.09,-405.8 677.65,-396.37"/>
<polygon fill="midnightblue" stroke="midnightblue" points="680.43,-398.51 684.56,-388.75 675.25,-393.8 680.43,-398.51"/>
</g>
<!-- Node40 -->
<g id="node40" class="node">
<title>Node40</title>
<g id="a_node40"><a xlink:href="value_8h.html" target="_top" xlink:title=" ">
<polygon fill="white" stroke="black" points="553,-369.5 553,-388.5 638,-388.5 638,-369.5 553,-369.5"/>
<text text-anchor="middle" x="595.5" y="-376.5" font-family="Helvetica,sans-Serif" font-size="10.00">ccf/kv/value.h</text>
</a>
</g>
</g>
<!-- Node16&#45;&gt;Node40 -->
<g id="edge62" class="edge">
<title>Node16&#45;&gt;Node40</title>
<path fill="none" stroke="midnightblue" d="M635.57,-425.08C628.65,-417.3 618.43,-405.8 610.05,-396.37"/>
<polygon fill="midnightblue" stroke="midnightblue" points="612.54,-393.9 603.28,-388.75 607.31,-398.55 612.54,-393.9"/>
</g>
<!-- Node18 -->
<g id="node18" class="node">
<title>Node18</title>
<g id="a_node18"><a xlink:href="get__name_8h.html" target="_top" xlink:title=" ">
<polygon fill="white" stroke="black" points="421,-308 421,-327 528,-327 528,-308 421,-308"/>
<text text-anchor="middle" x="474.5" y="-315" font-family="Helvetica,sans-Serif" font-size="10.00">ccf/kv/get_name.h</text>
</a>
</g>
</g>
<!-- Node17&#45;&gt;Node18 -->
<g id="edge20" class="edge">
<title>Node17&#45;&gt;Node18</title>
<path fill="none" stroke="midnightblue" d="M747.39,-370.62C744.38,-370.07 741.39,-369.52 738.5,-369 649.2,-352.8 626.41,-351.18 537.5,-333 531.79,-331.83 525.81,-330.54 519.9,-329.23"/>
<polygon fill="midnightblue" stroke="midnightblue" points="520.61,-325.8 510.08,-327.01 519.07,-332.63 520.61,-325.8"/>
</g>
<!-- Node19 -->
<g id="node19" class="node">
<title>Node19</title>
<g id="a_node19"><a xlink:href="include_2ccf_2kv_2hooks_8h.html" target="_top" xlink:title=" ">
<polygon fill="white" stroke="black" points="1152,-241 1152,-260 1239,-260 1239,-241 1152,-241"/>
<text text-anchor="middle" x="1195.5" y="-248" font-family="Helvetica,sans-Serif" font-size="10.00">ccf/kv/hooks.h</text>
</a>
</g>
</g>
<!-- Node17&#45;&gt;Node19 -->
<g id="edge22" class="edge">
<title>Node17&#45;&gt;Node19</title>
<path fill="none" stroke="midnightblue" d="M827.76,-377.09C934.69,-374.25 1219.54,-363.83 1247.5,-333 1266.51,-312.04 1237.92,-283.33 1216.19,-266.18"/>
<polygon fill="midnightblue" stroke="midnightblue" points="1218.11,-263.24 1208.02,-260 1213.88,-268.83 1218.11,-263.24"/>
</g>
<!-- Node23 -->
<g id="node23" class="node">
<title>Node23</title>
<g id="a_node23"><a xlink:href="map__handle_8h.html" target="_top" xlink:title=" ">
<polygon fill="white" stroke="black" points="1049.5,-308 1049.5,-327 1167.5,-327 1167.5,-308 1049.5,-308"/>
<text text-anchor="middle" x="1108.5" y="-315" font-family="Helvetica,sans-Serif" font-size="10.00">ccf/kv/map_handle.h</text>
</a>
</g>
</g>
<!-- Node17&#45;&gt;Node23 -->
<g id="edge26" class="edge">
<title>Node17&#45;&gt;Node23</title>
<path fill="none" stroke="midnightblue" d="M827.89,-371.25C877.9,-362.8 965.63,-347.64 1040.5,-333 1046.72,-331.78 1053.25,-330.46 1059.7,-329.12"/>
<polygon fill="midnightblue" stroke="midnightblue" points="1060.64,-332.49 1069.71,-327.01 1059.2,-325.64 1060.64,-332.49"/>
</g>
<!-- Node33 -->
<g id="node33" class="node">
<title>Node33</title>
<g id="a_node33"><a xlink:href="blit__serialiser_8h.html" target="_top" xlink:title=" ">
<polygon fill="white" stroke="black" points="546,-302.5 546,-332.5 645,-332.5 645,-302.5 546,-302.5"/>
<text text-anchor="start" x="554" y="-320.5" font-family="Helvetica,sans-Serif" font-size="10.00">ccf/kv/serialisers</text>
<text text-anchor="middle" x="595.5" y="-309.5" font-family="Helvetica,sans-Serif" font-size="10.00">/blit_serialiser.h</text>
</a>
</g>
</g>
<!-- Node17&#45;&gt;Node33 -->
<g id="edge41" class="edge">
<title>Node17&#45;&gt;Node33</title>
<path fill="none" stroke="midnightblue" d="M759.99,-369.48C731.56,-360.66 686.4,-346.67 650.58,-335.57"/>
<polygon fill="midnightblue" stroke="midnightblue" points="651.34,-332.14 640.75,-332.52 649.27,-338.83 651.34,-332.14"/>
</g>
<!-- Node34 -->
<g id="node34" class="node">
<title>Node34</title>
<g id="a_node34"><a xlink:href="json__serialiser_8h.html" target="_top" xlink:title=" ">
<polygon fill="white" stroke="black" points="304,-302.5 304,-332.5 403,-332.5 403,-302.5 304,-302.5"/>
<text text-anchor="start" x="312" y="-320.5" font-family="Helvetica,sans-Serif" font-size="10.00">ccf/kv/serialisers</text>
<text text-anchor="middle" x="353.5" y="-309.5" font-family="Helvetica,sans-Serif" font-size="10.00">/json_serialiser.h</text>
</a>
</g>
</g>
<!-- Node17&#45;&gt;Node34 -->
<g id="edge44" class="edge">
<title>Node17&#45;&gt;Node34</title>
<path fill="none" stroke="midnightblue" d="M747.43,-370.4C744.41,-369.9 741.41,-369.43 738.5,-369 597.52,-348.3 557.8,-357.99 413.42,-333"/>
<polygon fill="midnightblue" stroke="midnightblue" points="413.75,-329.51 403.3,-331.22 412.54,-336.4 413.75,-329.51"/>
</g>
<!-- Node35 -->
<g id="node35" class="node">
<title>Node35</title>
<g id="a_node35"><a xlink:href="untyped_8h.html" target="_top" xlink:title=" ">
<polygon fill="white" stroke="black" points="933.5,-308 933.5,-327 1031.5,-327 1031.5,-308 933.5,-308"/>
<text text-anchor="middle" x="982.5" y="-315" font-family="Helvetica,sans-Serif" font-size="10.00">ccf/kv/untyped.h</text>
</a>
</g>
</g>
<!-- Node17&#45;&gt;Node35 -->
<g id="edge47" class="edge">
<title>Node17&#45;&gt;Node35</title>
<path fill="none" stroke="midnightblue" d="M815.44,-369.48C849.47,-359.09 907.08,-341.51 944.96,-329.95"/>
<polygon fill="midnightblue" stroke="midnightblue" points="946.07,-333.28 954.61,-327.01 944.03,-326.58 946.07,-333.28"/>
</g>
<!-- Node18&#45;&gt;Node4 -->
<g id="edge21" class="edge">
<title>Node18&#45;&gt;Node4</title>
<path fill="none" stroke="midnightblue" d="M501.01,-308C521.1,-300.2 547.85,-286.69 563.5,-266 577.34,-247.7 581.72,-221.07 583.04,-203.28"/>
<polygon fill="midnightblue" stroke="midnightblue" points="586.55,-203.21 583.54,-193.05 579.56,-202.87 586.55,-203.21"/>
</g>
<!-- Node20 -->
<g id="node20" class="node">
<title>Node20</title>
<g id="a_node20"><a xlink:href="version_8h.html" target="_top" xlink:title=" ">
<polygon fill="white" stroke="black" points="1145.5,-174 1145.5,-193 1239.5,-193 1239.5,-174 1145.5,-174"/>
<text text-anchor="middle" x="1192.5" y="-181" font-family="Helvetica,sans-Serif" font-size="10.00">ccf/kv/version.h</text>
</a>
</g>
</g>
<!-- Node19&#45;&gt;Node20 -->
<g id="edge23" class="edge">
<title>Node19&#45;&gt;Node20</title>
<path fill="none" stroke="midnightblue" d="M1195.1,-240.73C1194.65,-231.18 1193.94,-215.62 1193.37,-203.28"/>
<polygon fill="midnightblue" stroke="midnightblue" points="1196.86,-202.96 1192.9,-193.13 1189.86,-203.28 1196.86,-202.96"/>
</g>
<!-- Node21 -->
<g id="node21" class="node">
<title>Node21</title>
<g id="a_node21"><a xlink:title=" ">
<polygon fill="white" stroke="#bfbfbf" points="1062,-174 1062,-193 1127,-193 1127,-174 1062,-174"/>
<text text-anchor="middle" x="1094.5" y="-181" font-family="Helvetica,sans-Serif" font-size="10.00">functional</text>
</a>
</g>
</g>
<!-- Node19&#45;&gt;Node21 -->
<g id="edge24" class="edge">
<title>Node19&#45;&gt;Node21</title>
<path fill="none" stroke="midnightblue" d="M1181.88,-240.73C1165.07,-229.92 1136.27,-211.38 1116.36,-198.57"/>
<polygon fill="midnightblue" stroke="midnightblue" points="1118.21,-195.6 1107.91,-193.13 1114.42,-201.48 1118.21,-195.6"/>
</g>
<!-- Node22 -->
<g id="node22" class="node">
<title>Node22</title>
<g id="a_node22"><a xlink:title=" ">
<polygon fill="white" stroke="#bfbfbf" points="1257.5,-174 1257.5,-193 1315.5,-193 1315.5,-174 1257.5,-174"/>
<text text-anchor="middle" x="1286.5" y="-181" font-family="Helvetica,sans-Serif" font-size="10.00">memory</text>
</a>
</g>
</g>
<!-- Node19&#45;&gt;Node22 -->
<g id="edge25" class="edge">
<title>Node19&#45;&gt;Node22</title>
<path fill="none" stroke="midnightblue" d="M1207.77,-240.73C1222.65,-230.11 1247.93,-212.05 1265.83,-199.26"/>
<polygon fill="midnightblue" stroke="midnightblue" points="1268.32,-201.79 1274.42,-193.13 1264.25,-196.09 1268.32,-201.79"/>
</g>
<!-- Node24 -->
<g id="node24" class="node">
<title>Node24</title>
<g id="a_node24"><a xlink:href="untyped__map__handle_8h.html" target="_top" xlink:title=" ">
<polygon fill="white" stroke="black" points="915.5,-235.5 915.5,-265.5 1031.5,-265.5 1031.5,-235.5 915.5,-235.5"/>
<text text-anchor="start" x="923.5" y="-253.5" font-family="Helvetica,sans-Serif" font-size="10.00">ccf/kv/untyped_map</text>
<text text-anchor="middle" x="973.5" y="-242.5" font-family="Helvetica,sans-Serif" font-size="10.00">_handle.h</text>
</a>
</g>
</g>
<!-- Node23&#45;&gt;Node24 -->
<g id="edge27" class="edge">
<title>Node23&#45;&gt;Node24</title>
<path fill="none" stroke="midnightblue" d="M1090.57,-307.87C1070.58,-298.24 1037.65,-282.39 1011.8,-269.94"/>
<polygon fill="midnightblue" stroke="midnightblue" points="1013.16,-266.71 1002.64,-265.53 1010.13,-273.02 1013.16,-266.71"/>
</g>
<!-- Node24&#45;&gt;Node4 -->
<g id="edge40" class="edge">
<title>Node24&#45;&gt;Node4</title>
<path fill="none" stroke="midnightblue" d="M915.33,-242.34C848.82,-233.76 736.82,-218.12 641.5,-199 633.04,-197.3 623.95,-195.18 615.54,-193.08"/>
<polygon fill="midnightblue" stroke="midnightblue" points="616.25,-189.65 605.7,-190.57 614.52,-196.43 616.25,-189.65"/>
</g>
<!-- Node24&#45;&gt;Node20 -->
<g id="edge37" class="edge">
<title>Node24&#45;&gt;Node20</title>
<path fill="none" stroke="midnightblue" d="M1020.75,-235.48C1060.52,-223.67 1116.69,-207 1153.83,-195.98"/>
<polygon fill="midnightblue" stroke="midnightblue" points="1155.17,-199.23 1163.76,-193.03 1153.18,-192.52 1155.17,-199.23"/>
</g>
<!-- Node24&#45;&gt;Node21 -->
<g id="edge38" class="edge">
<title>Node24&#45;&gt;Node21</title>
<path fill="none" stroke="midnightblue" d="M999.76,-235.4C1020.52,-224.24 1049.3,-208.78 1069.68,-197.83"/>
<polygon fill="midnightblue" stroke="midnightblue" points="1071.51,-200.82 1078.66,-193.01 1068.2,-194.66 1071.51,-200.82"/>
</g>
<!-- Node25 -->
<g id="node25" class="node">
<title>Node25</title>
<g id="a_node25"><a xlink:href="abstract__handle_8h.html" target="_top" xlink:title=" ">
<polygon fill="white" stroke="black" points="907.5,-174 907.5,-193 1043.5,-193 1043.5,-174 907.5,-174"/>
<text text-anchor="middle" x="975.5" y="-181" font-family="Helvetica,sans-Serif" font-size="10.00">ccf/kv/abstract_handle.h</text>
</a>
</g>
</g>
<!-- Node24&#45;&gt;Node25 -->
<g id="edge28" class="edge">
<title>Node24&#45;&gt;Node25</title>
<path fill="none" stroke="midnightblue" d="M973.93,-235.4C974.22,-226.06 974.6,-213.71 974.91,-203.52"/>
<polygon fill="midnightblue" stroke="midnightblue" points="978.42,-203.3 975.23,-193.19 971.43,-203.08 978.42,-203.3"/>
</g>
<!-- Node26 -->
<g id="node26" class="node">
<title>Node26</title>
<g id="a_node26"><a xlink:href="serialised__entry_8h.html" target="_top" xlink:title=" ">
<polygon fill="white" stroke="black" points="650,-168.5 650,-198.5 755,-198.5 755,-168.5 650,-168.5"/>
<text text-anchor="start" x="658" y="-186.5" font-family="Helvetica,sans-Serif" font-size="10.00">ccf/kv/serialisers</text>
<text text-anchor="middle" x="702.5" y="-175.5" font-family="Helvetica,sans-Serif" font-size="10.00">/serialised_entry.h</text>
</a>
</g>
</g>
<!-- Node24&#45;&gt;Node26 -->
<g id="edge29" class="edge">
<title>Node24&#45;&gt;Node26</title>
<path fill="none" stroke="midnightblue" d="M915.36,-235.56C871.12,-224.94 810.33,-210.36 765.03,-199.5"/>
<polygon fill="midnightblue" stroke="midnightblue" points="765.58,-196.03 755.04,-197.1 763.94,-202.84 765.58,-196.03"/>
</g>
<!-- Node32 -->
<g id="node32" class="node">
<title>Node32</title>
<g id="a_node32"><a xlink:title=" ">
<polygon fill="white" stroke="#bfbfbf" points="833.5,-174 833.5,-193 889.5,-193 889.5,-174 833.5,-174"/>
<text text-anchor="middle" x="861.5" y="-181" font-family="Helvetica,sans-Serif" font-size="10.00">optional</text>
</a>
</g>
</g>
<!-- Node24&#45;&gt;Node32 -->
<g id="edge39" class="edge">
<title>Node24&#45;&gt;Node32</title>
<path fill="none" stroke="midnightblue" d="M949.2,-235.4C930.15,-224.34 903.82,-209.06 884.99,-198.13"/>
<polygon fill="midnightblue" stroke="midnightblue" points="886.56,-195 876.16,-193.01 883.05,-201.05 886.56,-195"/>
</g>
<!-- Node27 -->
<g id="node27" class="node">
<title>Node27</title>
<g id="a_node27"><a xlink:href="byte__vector_8h.html" target="_top" xlink:title=" ">
<polygon fill="white" stroke="black" points="629.5,-112.5 629.5,-131.5 729.5,-131.5 729.5,-112.5 629.5,-112.5"/>
<text text-anchor="middle" x="679.5" y="-119.5" font-family="Helvetica,sans-Serif" font-size="10.00">ccf/byte_vector.h</text>
</a>
</g>
</g>
<!-- Node26&#45;&gt;Node27 -->
<g id="edge30" class="edge">
<title>Node26&#45;&gt;Node27</title>
<path fill="none" stroke="midnightblue" d="M697.05,-168.4C693.88,-160.2 689.85,-149.78 686.46,-140.99"/>
<polygon fill="midnightblue" stroke="midnightblue" points="689.72,-139.72 682.85,-131.66 683.19,-142.25 689.72,-139.72"/>
</g>
<!-- Node27&#45;&gt;Node13 -->
<g id="edge35" class="edge">
<title>Node27&#45;&gt;Node13</title>
<path fill="none" stroke="midnightblue" d="M629.28,-116.76C509.71,-106.67 209.25,-81.32 89.7,-71.24"/>
<polygon fill="midnightblue" stroke="midnightblue" points="89.64,-67.72 79.38,-70.37 89.05,-74.69 89.64,-67.72"/>
</g>
<!-- Node28 -->
<g id="node28" class="node">
<title>Node28</title>
<g id="a_node28"><a xlink:href="siphash_8h.html" target="_top" xlink:title=" ">
<polygon fill="white" stroke="black" points="728,-56.5 728,-75.5 823,-75.5 823,-56.5 728,-56.5"/>
<text text-anchor="middle" x="775.5" y="-63.5" font-family="Helvetica,sans-Serif" font-size="10.00">ccf/ds/siphash.h</text>
</a>
</g>
</g>
<!-- Node27&#45;&gt;Node28 -->
<g id="edge31" class="edge">
<title>Node27&#45;&gt;Node28</title>
<path fill="none" stroke="midnightblue" d="M694.92,-112.32C710.04,-103.82 733.32,-90.73 750.97,-80.8"/>
<polygon fill="midnightblue" stroke="midnightblue" points="753.11,-83.61 760.11,-75.65 749.68,-77.51 753.11,-83.61"/>
</g>
<!-- Node31 -->
<g id="node31" class="node">
<title>Node31</title>
<g id="a_node31"><a xlink:title=" ">
<polygon fill="white" stroke="#bfbfbf" points="561,-56.5 561,-75.5 710,-75.5 710,-56.5 561,-56.5"/>
<text text-anchor="middle" x="635.5" y="-63.5" font-family="Helvetica,sans-Serif" font-size="10.00">small_vector/SmallVector.h</text>
</a>
</g>
</g>
<!-- Node27&#45;&gt;Node31 -->
<g id="edge36" class="edge">
<title>Node27&#45;&gt;Node31</title>
<path fill="none" stroke="midnightblue" d="M672.23,-112.08C665.96,-104.38 656.71,-93.03 649.07,-83.65"/>
<polygon fill="midnightblue" stroke="midnightblue" points="651.66,-81.29 642.63,-75.75 646.23,-85.71 651.66,-81.29"/>
</g>
<!-- Node28&#45;&gt;Node5 -->
<g id="edge34" class="edge">
<title>Node28&#45;&gt;Node5</title>
<path fill="none" stroke="midnightblue" d="M737.15,-56.44C690.27,-45.98 611.67,-28.44 567.07,-18.49"/>
<polygon fill="midnightblue" stroke="midnightblue" points="567.55,-15.01 557.03,-16.25 566.03,-21.84 567.55,-15.01"/>
</g>
<!-- Node29 -->
<g id="node29" class="node">
<title>Node29</title>
<g id="a_node29"><a xlink:title=" ">
<polygon fill="white" stroke="#bfbfbf" points="784,-0.5 784,-19.5 837,-19.5 837,-0.5 784,-0.5"/>
<text text-anchor="middle" x="810.5" y="-7.5" font-family="Helvetica,sans-Serif" font-size="10.00">cstddef</text>
</a>
</g>
</g>
<!-- Node28&#45;&gt;Node29 -->
<g id="edge32" class="edge">
<title>Node28&#45;&gt;Node29</title>
<path fill="none" stroke="midnightblue" d="M781.28,-56.08C786.17,-48.53 793.33,-37.49 799.33,-28.23"/>
<polygon fill="midnightblue" stroke="midnightblue" points="802.33,-30.05 804.83,-19.75 796.45,-26.24 802.33,-30.05"/>
</g>
<!-- Node30 -->
<g id="node30" class="node">
<title>Node30</title>
<g id="a_node30"><a xlink:title=" ">
<polygon fill="white" stroke="#bfbfbf" points="715.5,-0.5 715.5,-19.5 765.5,-19.5 765.5,-0.5 715.5,-0.5"/>
<text text-anchor="middle" x="740.5" y="-7.5" font-family="Helvetica,sans-Serif" font-size="10.00">cstdint</text>
</a>
</g>
</g>
<!-- Node28&#45;&gt;Node30 -->
<g id="edge33" class="edge">
<title>Node28&#45;&gt;Node30</title>
<path fill="none" stroke="midnightblue" d="M769.72,-56.08C764.83,-48.53 757.67,-37.49 751.67,-28.23"/>
<polygon fill="midnightblue" stroke="midnightblue" points="754.55,-26.24 746.17,-19.75 748.67,-30.05 754.55,-26.24"/>
</g>
<!-- Node33&#45;&gt;Node7 -->
<g id="edge42" class="edge">
<title>Node33&#45;&gt;Node7</title>
<path fill="none" stroke="midnightblue" d="M545.85,-303.98C543.03,-303.3 540.23,-302.64 537.5,-302 475.16,-287.46 403.11,-272.05 355.83,-262.14"/>
<polygon fill="midnightblue" stroke="midnightblue" points="356.34,-258.67 345.84,-260.05 354.91,-265.52 356.34,-258.67"/>
</g>
<!-- Node33&#45;&gt;Node26 -->
<g id="edge43" class="edge">
<title>Node33&#45;&gt;Node26</title>
<path fill="none" stroke="midnightblue" d="M606.95,-302.37C625.61,-279.35 662.72,-233.57 684.8,-206.34"/>
<polygon fill="midnightblue" stroke="midnightblue" points="687.55,-208.5 691.13,-198.52 682.12,-204.09 687.55,-208.5"/>
</g>
<!-- Node34&#45;&gt;Node14 -->
<g id="edge46" class="edge">
<title>Node34&#45;&gt;Node14</title>
<path fill="none" stroke="midnightblue" d="M317.26,-302.4C287.57,-290.84 245.99,-274.66 217.75,-263.66"/>
<polygon fill="midnightblue" stroke="midnightblue" points="218.94,-260.37 208.36,-260.01 216.41,-266.9 218.94,-260.37"/>
</g>
<!-- Node34&#45;&gt;Node26 -->
<g id="edge45" class="edge">
<title>Node34&#45;&gt;Node26</title>
<path fill="none" stroke="midnightblue" d="M403.07,-304.29C406.26,-303.51 409.42,-302.74 412.5,-302 479.56,-285.77 499.49,-291.73 563.5,-266 604.08,-249.69 646.93,-222.91 674.15,-204.53"/>
<polygon fill="midnightblue" stroke="midnightblue" points="676.47,-207.18 682.75,-198.64 672.52,-201.4 676.47,-207.18"/>
</g>
<!-- Node35&#45;&gt;Node19 -->
<g id="edge48" class="edge">
<title>Node35&#45;&gt;Node19</title>
<path fill="none" stroke="midnightblue" d="M1010.78,-307.87C1048.61,-296.33 1115.75,-275.84 1157.83,-263"/>
<polygon fill="midnightblue" stroke="midnightblue" points="1158.89,-266.33 1167.44,-260.06 1156.85,-259.63 1158.89,-266.33"/>
</g>
<!-- Node35&#45;&gt;Node26 -->
<g id="edge49" class="edge">
<title>Node35&#45;&gt;Node26</title>
<path fill="none" stroke="midnightblue" d="M964.02,-307.82C943.58,-298.1 909.81,-281.65 881.5,-266 858.28,-253.17 854.26,-246.8 830.5,-235 805.58,-222.62 776.85,-211.06 752.92,-202.13"/>
<polygon fill="midnightblue" stroke="midnightblue" points="753.93,-198.76 743.33,-198.59 751.5,-205.33 753.93,-198.76"/>
</g>
<!-- Node35&#45;&gt;Node32 -->
<g id="edge51" class="edge">
<title>Node35&#45;&gt;Node32</title>
<path fill="none" stroke="midnightblue" d="M964.75,-307.89C948.12,-299.14 923.35,-284.29 906.5,-266 889.18,-247.2 876.08,-220.52 868.6,-202.87"/>
<polygon fill="midnightblue" stroke="midnightblue" points="871.68,-201.16 864.68,-193.2 865.2,-203.79 871.68,-201.16"/>
</g>
<!-- Node36 -->
<g id="node36" class="node">
<title>Node36</title>
<g id="a_node36"><a xlink:title=" ">
<polygon fill="white" stroke="#bfbfbf" points="783.5,-241 783.5,-260 821.5,-260 821.5,-241 783.5,-241"/>
<text text-anchor="middle" x="802.5" y="-248" font-family="Helvetica,sans-Serif" font-size="10.00">map</text>
</a>
</g>
</g>
<!-- Node35&#45;&gt;Node36 -->
<g id="edge50" class="edge">
<title>Node35&#45;&gt;Node36</title>
<path fill="none" stroke="midnightblue" d="M955.43,-307.95C925.75,-298.4 876.85,-282.15 835.5,-266 833.9,-265.37 832.26,-264.71 830.61,-264.04"/>
<polygon fill="midnightblue" stroke="midnightblue" points="831.81,-260.74 821.23,-260.05 829.07,-267.19 831.81,-260.74"/>
</g>
<!-- Node37&#45;&gt;Node18 -->
<g id="edge53" class="edge">
<title>Node37&#45;&gt;Node18</title>
<path fill="none" stroke="midnightblue" d="M661.27,-369.48C622.9,-359 557.71,-341.21 515.39,-329.66"/>
<polygon fill="midnightblue" stroke="midnightblue" points="516.24,-326.27 505.68,-327.01 514.4,-333.02 516.24,-326.27"/>
</g>
<!-- Node37&#45;&gt;Node19 -->
<g id="edge54" class="edge">
<title>Node37&#45;&gt;Node19</title>
<path fill="none" stroke="midnightblue" d="M729.09,-370.44C732.27,-369.91 735.44,-369.42 738.5,-369 790.51,-361.95 1173.83,-371.5 1209.5,-333 1225.38,-315.86 1215.41,-287.57 1206.04,-269.24"/>
<polygon fill="midnightblue" stroke="midnightblue" points="1209.09,-267.52 1201.2,-260.44 1202.95,-270.89 1209.09,-267.52"/>
</g>
<!-- Node37&#45;&gt;Node33 -->
<g id="edge55" class="edge">
<title>Node37&#45;&gt;Node33</title>
<path fill="none" stroke="midnightblue" d="M678.6,-369.48C665.22,-361.27 644.5,-348.56 627.1,-337.88"/>
<polygon fill="midnightblue" stroke="midnightblue" points="628.72,-334.77 618.36,-332.52 625.06,-340.74 628.72,-334.77"/>
</g>
<!-- Node37&#45;&gt;Node34 -->
<g id="edge56" class="edge">
<title>Node37&#45;&gt;Node34</title>
<path fill="none" stroke="midnightblue" d="M655.69,-370.5C652.92,-369.98 650.17,-369.47 647.5,-369 546.6,-351.19 517.85,-353.47 413.05,-332.99"/>
<polygon fill="midnightblue" stroke="midnightblue" points="413.49,-329.51 403,-331 412.13,-336.38 413.49,-329.51"/>
</g>
<!-- Node37&#45;&gt;Node35 -->
<g id="edge61" class="edge">
<title>Node37&#45;&gt;Node35</title>
<path fill="none" stroke="midnightblue" d="M729.16,-370.82C732.32,-370.2 735.46,-369.59 738.5,-369 821.15,-352.92 842.29,-351.22 924.5,-333 929.5,-331.89 934.73,-330.67 939.91,-329.42"/>
<polygon fill="midnightblue" stroke="midnightblue" points="940.87,-332.79 949.75,-327.01 939.21,-325.99 940.87,-332.79"/>
</g>
<!-- Node38 -->
<g id="node38" class="node">
<title>Node38</title>
<g id="a_node38"><a xlink:href="set__handle_8h.html" target="_top" xlink:title=" ">
<polygon fill="white" stroke="black" points="804,-308 804,-327 915,-327 915,-308 804,-308"/>
<text text-anchor="middle" x="859.5" y="-315" font-family="Helvetica,sans-Serif" font-size="10.00">ccf/kv/set_handle.h</text>
</a>
</g>
</g>
<!-- Node37&#45;&gt;Node38 -->
<g id="edge57" class="edge">
<title>Node37&#45;&gt;Node38</title>
<path fill="none" stroke="midnightblue" d="M716.43,-369.48C745.2,-359.22 793.66,-341.96 826.1,-330.4"/>
<polygon fill="midnightblue" stroke="midnightblue" points="827.37,-333.66 835.62,-327.01 825.02,-327.07 827.37,-333.66"/>
</g>
<!-- Node38&#45;&gt;Node24 -->
<g id="edge60" class="edge">
<title>Node38&#45;&gt;Node24</title>
<path fill="none" stroke="midnightblue" d="M874.87,-307.73C891.47,-298.27 918.4,-282.91 939.94,-270.64"/>
<polygon fill="midnightblue" stroke="midnightblue" points="941.84,-273.58 948.79,-265.59 938.37,-267.5 941.84,-273.58"/>
</g>
<!-- Node39 -->
<g id="node39" class="node">
<title>Node39</title>
<g id="a_node39"><a xlink:href="unit_8h.html" target="_top" xlink:title=" ">
<polygon fill="white" stroke="black" points="687,-241 687,-260 764,-260 764,-241 687,-241"/>
<text text-anchor="middle" x="725.5" y="-248" font-family="Helvetica,sans-Serif" font-size="10.00">ccf/kv/unit.h</text>
</a>
</g>
</g>
<!-- Node38&#45;&gt;Node39 -->
<g id="edge58" class="edge">
<title>Node38&#45;&gt;Node39</title>
<path fill="none" stroke="midnightblue" d="M841.71,-307.87C818.88,-296.8 779.07,-277.49 752.5,-264.6"/>
<polygon fill="midnightblue" stroke="midnightblue" points="753.89,-261.38 743.37,-260.17 750.84,-267.68 753.89,-261.38"/>
</g>
<!-- Node39&#45;&gt;Node26 -->
<g id="edge59" class="edge">
<title>Node39&#45;&gt;Node26</title>
<path fill="none" stroke="midnightblue" d="M722.4,-240.73C719.44,-232.37 714.85,-219.4 710.82,-208.02"/>
<polygon fill="midnightblue" stroke="midnightblue" points="714.12,-206.85 707.49,-198.59 707.52,-209.18 714.12,-206.85"/>
</g>
<!-- Node40&#45;&gt;Node18 -->
<g id="edge63" class="edge">
<title>Node40&#45;&gt;Node18</title>
<path fill="none" stroke="midnightblue" d="M578.16,-369.48C557.95,-359.53 524.31,-342.99 500.86,-331.46"/>
<polygon fill="midnightblue" stroke="midnightblue" points="502.32,-328.28 491.8,-327.01 499.23,-334.56 502.32,-328.28"/>
</g>
<!-- Node40&#45;&gt;Node19 -->
<g id="edge64" class="edge">
<title>Node40&#45;&gt;Node19</title>
<path fill="none" stroke="midnightblue" d="M638.01,-370.27C641.22,-369.8 644.41,-369.37 647.5,-369 705.99,-361.97 1131.63,-371.17 1176.5,-333 1194.46,-317.73 1197.28,-289.08 1196.95,-270.14"/>
<polygon fill="midnightblue" stroke="midnightblue" points="1200.44,-269.87 1196.45,-260.05 1193.45,-270.21 1200.44,-269.87"/>
</g>
<!-- Node40&#45;&gt;Node33 -->
<g id="edge65" class="edge">
<title>Node40&#45;&gt;Node33</title>
<path fill="none" stroke="midnightblue" d="M595.5,-369.48C595.5,-362.47 595.5,-352.19 595.5,-342.7"/>
<polygon fill="midnightblue" stroke="midnightblue" points="599,-342.52 595.5,-332.52 592,-342.52 599,-342.52"/>
</g>
<!-- Node40&#45;&gt;Node34 -->
<g id="edge66" class="edge">
<title>Node40&#45;&gt;Node34</title>
<path fill="none" stroke="midnightblue" d="M560.83,-369.48C522.35,-360.02 459.58,-344.58 413.17,-333.17"/>
<polygon fill="midnightblue" stroke="midnightblue" points="413.78,-329.72 403.23,-330.73 412.11,-336.51 413.78,-329.72"/>
</g>
<!-- Node40&#45;&gt;Node35 -->
<g id="edge67" class="edge">
<title>Node40&#45;&gt;Node35</title>
<path fill="none" stroke="midnightblue" d="M638.04,-370.49C641.24,-369.97 644.42,-369.47 647.5,-369 770.25,-350.41 802.52,-356.09 924.5,-333 929.92,-331.97 935.58,-330.75 941.16,-329.45"/>
<polygon fill="midnightblue" stroke="midnightblue" points="942.14,-332.82 951.04,-327.07 940.5,-326.01 942.14,-332.82"/>
</g>
<!-- Node41 -->
<g id="node41" class="node">
<title>Node41</title>
<g id="a_node41"><a xlink:href="value__handle_8h.html" target="_top" xlink:title=" ">
<polygon fill="white" stroke="black" points="663,-308 663,-327 786,-327 786,-308 663,-308"/>
<text text-anchor="middle" x="724.5" y="-315" font-family="Helvetica,sans-Serif" font-size="10.00">ccf/kv/value_handle.h</text>
</a>
</g>
</g>
<!-- Node40&#45;&gt;Node41 -->
<g id="edge68" class="edge">
<title>Node40&#45;&gt;Node41</title>
<path fill="none" stroke="midnightblue" d="M613.98,-369.48C635.63,-359.49 671.71,-342.85 696.73,-331.31"/>
<polygon fill="midnightblue" stroke="midnightblue" points="698.44,-334.38 706.05,-327.01 695.51,-328.02 698.44,-334.38"/>
</g>
<!-- Node41&#45;&gt;Node24 -->
<g id="edge70" class="edge">
<title>Node41&#45;&gt;Node24</title>
<path fill="none" stroke="midnightblue" d="M757.31,-307.94C795.98,-297.84 861.13,-280.83 909.83,-268.12"/>
<polygon fill="midnightblue" stroke="midnightblue" points="910.85,-271.47 919.64,-265.56 909.08,-264.7 910.85,-271.47"/>
</g>
<!-- Node41&#45;&gt;Node39 -->
<g id="edge69" class="edge">
<title>Node41&#45;&gt;Node39</title>
<path fill="none" stroke="midnightblue" d="M724.63,-307.73C724.78,-298.18 725.02,-282.62 725.21,-270.28"/>
<polygon fill="midnightblue" stroke="midnightblue" points="728.71,-270.18 725.37,-260.13 721.71,-270.07 728.71,-270.18"/>
</g>
</g>
</svg>
        <g id="navigator" transform="translate(0 0)" fill="#404254">
                <rect fill="#f2f5e9" fill-opacity="0.5" stroke="#606060" stroke-width=".5" x="0" y="0" width="60" height="60"/>
                <use id="zoomplus" xlink:href="#zoomPlus" x="17" y="9" onmousedown="handleZoom(evt,'in')"/>
                <use id="zoomminus" xlink:href="#zoomMin" x="42" y="9" onmousedown="handleZoom(evt,'out')"/>
                <use id="reset" xlink:href="#resetDef" x="30" y="36" onmousedown="handleReset()"/>
                <g id="arrowUp" xlink:href="#dirArrow" transform="translate(30 24)" onmousedown="handlePan(0,-1)">
                  <use xlink:href="#rim" fill="#404040">
                        <set attributeName="fill" to="#808080" begin="arrowUp.mouseover" end="arrowUp.mouseout"/>
                  </use>
                  <path fill="none" stroke="white" stroke-width="1.5" d="M0,-3.0v7 M-2.5,-0.5L0,-3.0L2.5,-0.5"/>
                </g>
                <g id="arrowRight" xlink:href="#dirArrow" transform="rotate(90) translate(36 -43)" onmousedown="handlePan(1,0)">
                  <use xlink:href="#rim" fill="#404040">
                        <set attributeName="fill" to="#808080" begin="arrowRight.mouseover" end="arrowRight.mouseout"/>
                  </use>
                  <path fill="none" stroke="white" stroke-width="1.5" d="M0,-3.0v7 M-2.5,-0.5L0,-3.0L2.5,-0.5"/>
                </g>
                <g id="arrowDown" xlink:href="#dirArrow" transform="rotate(180) translate(-30 -48)" onmousedown="handlePan(0,1)">
                  <use xlink:href="#rim" fill="#404040">
                        <set attributeName="fill" to="#808080" begin="arrowDown.mouseover" end="arrowDown.mouseout"/>
                  </use>
                  <path fill="none" stroke="white" stroke-width="1.5" d="M0,-3.0v7 M-2.5,-0.5L0,-3.0L2.5,-0.5"/>
                </g>
                <g id="arrowLeft" xlink:href="#dirArrow" transform="rotate(270) translate(-36 17)" onmousedown="handlePan(-1,0)">
                  <use xlink:href="#rim" fill="#404040">
                        <set attributeName="fill" to="#808080" begin="arrowLeft.mouseover" end="arrowLeft.mouseout"/>
                  </use>
                  <path fill="none" stroke="white" stroke-width="1.5" d="M0,-3.0v7 M-2.5,-0.5L0,-3.0L2.5,-0.5"/>
                </g>
        </g>
        <svg viewBox="0 0 15 15" width="100%" height="30px" preserveAspectRatio="xMaxYMin meet">
         <g id="arrow_out" transform="scale(0.3 0.3)">
          <a xlink:href="service_8h__incl_org.svg" target="_base">
           <rect id="button" ry="5" rx="5" y="6" x="6" height="38" width="38"
                fill="#f2f5e9" fill-opacity="0.5" stroke="#606060" stroke-width="1.0"/>
           <path id="arrow"
             d="M 11.500037,31.436501 C 11.940474,20.09759 22.043105,11.32322 32.158766,21.979434 L 37.068811,17.246167 C 37.068811,17.246167 37.088388,32 37.088388,32 L 22.160133,31.978069 C 22.160133,31.978069 26.997745,27.140456 26.997745,27.140456 C 18.528582,18.264221 13.291696,25.230495 11.500037,31.436501 z"
             style="fill:#404040;"/>
          </a>
         </g>
        </svg>
</svg>
