<?xml version="1.0" encoding="UTF-8" standalone="no"?>
<!DOCTYPE svg PUBLIC "-//W3C//DTD SVG 1.1//EN"
 "http://www.w3.org/Graphics/SVG/1.1/DTD/svg11.dtd">
<!-- Generated by graphviz version 2.43.0 (0)
 -->
<!-- Title: src/node/session_metrics.h Pages: 1 -->
<!--zoomable 587 -->
<svg id="main" version="1.1" xmlns="http://www.w3.org/2000/svg" xmlns:xlink="http://www.w3.org/1999/xlink" xml:space="preserve" onload="init(evt)">
<style type="text/css"><![CDATA[
.edge:hover path { stroke: red; }
.edge:hover polygon { stroke: red; fill: red; }
]]></style>
<script type="text/javascript"><![CDATA[
var edges = document.getElementsByTagName('g');
if (edges && edges.length) {
  for (var i=0;i<edges.length;i++) {
    if (edges[i].id.substr(0,4)=='edge') {
      edges[i].setAttribute('class','edge');
    }
  }
}
]]></script>
        <defs>
                <circle id="rim" cx="0" cy="0" r="7"/>
                <circle id="rim2" cx="0" cy="0" r="3.5"/>
                <g id="zoomPlus">
                        <use xlink:href="#rim" fill="#404040">
                                <set attributeName="fill" to="#808080" begin="zoomplus.mouseover" end="zoomplus.mouseout"/>
                        </use>
                        <path d="M-4,0h8M0,-4v8" fill="none" stroke="white" stroke-width="1.5" pointer-events="none"/>
                </g>
                <g id="zoomMin">
                        <use xlink:href="#rim" fill="#404040">
                                <set attributeName="fill" to="#808080" begin="zoomminus.mouseover" end="zoomminus.mouseout"/>
                        </use>
                        <path d="M-4,0h8" fill="none" stroke="white" stroke-width="1.5" pointer-events="none"/>
                </g>
                <g id="dirArrow">
                        <path fill="none" stroke="white" stroke-width="1.5" d="M0,-3.0v7 M-2.5,-0.5L0,-3.0L2.5,-0.5"/>
                </g>
               <g id="resetDef">
                       <use xlink:href="#rim2" fill="#404040">
                               <set attributeName="fill" to="#808080" begin="reset.mouseover" end="reset.mouseout"/>
                       </use>
               </g>
        </defs>

<script type="text/javascript">
var viewWidth = 1749;
var viewHeight = 587;
var sectionId = 'dynsection-1';
</script>
<script xlink:href="svgpan.js"/>
<svg id="graph" class="graph">
<g id="viewport">
<title>src/node/session_metrics.h</title>
<polygon fill="white" stroke="transparent" points="-4,4 -4,-583 1745,-583 1745,4 -4,4"/>
<!-- Node1 -->
<g id="node1" class="node">
<title>Node1</title>
<g id="a_node1"><a xlink:title=" ">
<polygon fill="#bfbfbf" stroke="black" points="875.5,-559.5 875.5,-578.5 1024.5,-578.5 1024.5,-559.5 875.5,-559.5"/>
<text text-anchor="middle" x="950" y="-566.5" font-family="Helvetica,sans-Serif" font-size="10.00">src/node/session_metrics.h</text>
</a>
</g>
</g>
<!-- Node2 -->
<g id="node2" class="node">
<title>Node2</title>
<g id="a_node2"><a xlink:href="rpc__sessions_8h.html" target="_top" xlink:title=" ">
<polygon fill="white" stroke="black" points="240,-503.5 240,-522.5 386,-522.5 386,-503.5 240,-503.5"/>
<text text-anchor="middle" x="313" y="-510.5" font-family="Helvetica,sans-Serif" font-size="10.00">src/enclave/rpc_sessions.h</text>
</a>
</g>
</g>
<!-- Node1&#45;&gt;Node2 -->
<g id="edge1" class="edge">
<title>Node1&#45;&gt;Node2</title>
<path fill="none" stroke="midnightblue" d="M865.39,-560.83C739.55,-550.16 505.19,-530.29 386.27,-520.21"/>
<polygon fill="midnightblue" stroke="midnightblue" points="865.11,-564.32 875.37,-561.67 865.7,-557.34 865.11,-564.32"/>
</g>
<!-- Node10 -->
<g id="node10" class="node">
<title>Node10</title>
<g id="a_node10"><a xlink:href="node__frontend_8h.html" target="_top" xlink:title=" ">
<polygon fill="white" stroke="black" points="440,-313.5 440,-332.5 598,-332.5 598,-313.5 440,-313.5"/>
<text text-anchor="middle" x="519" y="-320.5" font-family="Helvetica,sans-Serif" font-size="10.00">src/node/rpc/node_frontend.h</text>
</a>
</g>
</g>
<!-- Node1&#45;&gt;Node10 -->
<g id="edge23" class="edge">
<title>Node1&#45;&gt;Node10</title>
<path fill="none" stroke="midnightblue" d="M925.73,-554.26C846.72,-509.53 598.25,-368.87 534.19,-332.6"/>
<polygon fill="midnightblue" stroke="midnightblue" points="924.49,-557.58 934.91,-559.46 927.94,-551.49 924.49,-557.58"/>
</g>
<!-- Node15 -->
<g id="node15" class="node">
<title>Node15</title>
<g id="a_node15"><a xlink:href="node__interface_8h.html" target="_top" xlink:title=" ">
<polygon fill="white" stroke="black" points="1356.5,-375 1356.5,-394 1517.5,-394 1517.5,-375 1356.5,-375"/>
<text text-anchor="middle" x="1437" y="-382" font-family="Helvetica,sans-Serif" font-size="10.00">src/node/rpc/node_interface.h</text>
</a>
</g>
</g>
<!-- Node1&#45;&gt;Node15 -->
<g id="edge24" class="edge">
<title>Node1&#45;&gt;Node15</title>
<path fill="none" stroke="midnightblue" d="M982.45,-555.84C1074.46,-521.36 1335.44,-423.56 1414.21,-394.04"/>
<polygon fill="midnightblue" stroke="midnightblue" points="980.97,-552.66 972.84,-559.44 983.43,-559.21 980.97,-552.66"/>
</g>
<!-- Node28 -->
<g id="node28" class="node">
<title>Node28</title>
<g id="a_node28"><a xlink:href="node__operation__interface_8h.html" target="_top" xlink:title=" ">
<polygon fill="white" stroke="black" points="1415.5,-436.5 1415.5,-466.5 1570.5,-466.5 1570.5,-436.5 1415.5,-436.5"/>
<text text-anchor="start" x="1423.5" y="-454.5" font-family="Helvetica,sans-Serif" font-size="10.00">src/node/rpc/node_operation</text>
<text text-anchor="middle" x="1493" y="-443.5" font-family="Helvetica,sans-Serif" font-size="10.00">_interface.h</text>
</a>
</g>
</g>
<!-- Node1&#45;&gt;Node28 -->
<g id="edge50" class="edge">
<title>Node1&#45;&gt;Node28</title>
<path fill="none" stroke="midnightblue" d="M1022.69,-558.03C1078.33,-549.93 1156.85,-537.51 1225,-523 1302.64,-506.47 1391.53,-481.96 1444.92,-466.63"/>
<polygon fill="midnightblue" stroke="midnightblue" points="1021.97,-554.6 1012.57,-559.49 1022.97,-561.53 1021.97,-554.6"/>
</g>
<!-- Node3 -->
<g id="node3" class="node">
<title>Node3</title>
<g id="a_node3"><a xlink:href="enclave_2enclave_8h.html" target="_top" xlink:title=" ">
<polygon fill="white" stroke="black" points="534,-56.5 534,-75.5 656,-75.5 656,-56.5 534,-56.5"/>
<text text-anchor="middle" x="595" y="-63.5" font-family="Helvetica,sans-Serif" font-size="10.00">src/enclave/enclave.h</text>
</a>
</g>
</g>
<!-- Node2&#45;&gt;Node3 -->
<g id="edge2" class="edge">
<title>Node2&#45;&gt;Node3</title>
<path fill="none" stroke="midnightblue" d="M229.67,-504.84C164.93,-497.95 81.5,-485.79 53,-467 16.92,-443.22 0,-428.71 0,-385.5 0,-385.5 0,-385.5 0,-193.5 0,-85.19 382.01,-69.23 533.84,-67.17"/>
<polygon fill="midnightblue" stroke="midnightblue" points="229.59,-508.34 239.89,-505.9 230.31,-501.38 229.59,-508.34"/>
</g>
<!-- Node5 -->
<g id="node5" class="node">
<title>Node5</title>
<g id="a_node5"><a xlink:href="node__client_8h.html" target="_top" xlink:title=" ">
<polygon fill="white" stroke="black" points="250,-442 250,-461 376,-461 376,-442 250,-442"/>
<text text-anchor="middle" x="313" y="-449" font-family="Helvetica,sans-Serif" font-size="10.00">src/node/node_client.h</text>
</a>
</g>
</g>
<!-- Node2&#45;&gt;Node5 -->
<g id="edge4" class="edge">
<title>Node2&#45;&gt;Node5</title>
<path fill="none" stroke="midnightblue" d="M313,-493.32C313,-482.5 313,-469.4 313,-461.01"/>
<polygon fill="midnightblue" stroke="midnightblue" points="309.5,-493.48 313,-503.48 316.5,-493.48 309.5,-493.48"/>
</g>
<!-- Node8 -->
<g id="node8" class="node">
<title>Node8</title>
<g id="a_node8"><a xlink:href="node__state_8h.html" target="_top" xlink:title=" ">
<polygon fill="white" stroke="black" points="266,-185 266,-204 390,-204 390,-185 266,-185"/>
<text text-anchor="middle" x="328" y="-192" font-family="Helvetica,sans-Serif" font-size="10.00">src/node/node_state.h</text>
</a>
</g>
</g>
<!-- Node2&#45;&gt;Node8 -->
<g id="edge20" class="edge">
<title>Node2&#45;&gt;Node8</title>
<path fill="none" stroke="midnightblue" d="M229.46,-507.85C148.54,-498.78 38,-470.8 38,-385.5 38,-385.5 38,-385.5 38,-322 38,-223.4 180.58,-200.88 265.79,-196.22"/>
<polygon fill="midnightblue" stroke="midnightblue" points="229.36,-511.35 239.67,-508.91 230.08,-504.39 229.36,-511.35"/>
</g>
<!-- Node14 -->
<g id="node14" class="node">
<title>Node14</title>
<g id="a_node14"><a xlink:href="resharing_8h.html" target="_top" xlink:title=" ">
<polygon fill="white" stroke="black" points="434,-442 434,-461 550,-461 550,-442 434,-442"/>
<text text-anchor="middle" x="492" y="-449" font-family="Helvetica,sans-Serif" font-size="10.00">src/node/resharing.h</text>
</a>
</g>
</g>
<!-- Node2&#45;&gt;Node14 -->
<g id="edge21" class="edge">
<title>Node2&#45;&gt;Node14</title>
<path fill="none" stroke="midnightblue" d="M348.4,-500.23C383.2,-488.67 435.45,-471.3 466.4,-461.01"/>
<polygon fill="midnightblue" stroke="midnightblue" points="347.03,-497 338.65,-503.48 349.24,-503.64 347.03,-497"/>
</g>
<!-- Node4 -->
<g id="node4" class="node">
<title>Node4</title>
<g id="a_node4"><a xlink:href="enclave_2main_8cpp.html" target="_top" xlink:title=" ">
<polygon fill="white" stroke="black" points="535,-0.5 535,-19.5 655,-19.5 655,-0.5 535,-0.5"/>
<text text-anchor="middle" x="595" y="-7.5" font-family="Helvetica,sans-Serif" font-size="10.00">src/enclave/main.cpp</text>
</a>
</g>
</g>
<!-- Node3&#45;&gt;Node4 -->
<g id="edge3" class="edge">
<title>Node3&#45;&gt;Node4</title>
<path fill="none" stroke="midnightblue" d="M595,-45.8C595,-36.91 595,-26.78 595,-19.75"/>
<polygon fill="midnightblue" stroke="midnightblue" points="591.5,-46.08 595,-56.08 598.5,-46.08 591.5,-46.08"/>
</g>
<!-- Node6 -->
<g id="node6" class="node">
<title>Node6</title>
<g id="a_node6"><a xlink:href="orc__requests_8h.html" target="_top" xlink:title=" ">
<polygon fill="white" stroke="black" points="378.5,-369.5 378.5,-399.5 497.5,-399.5 497.5,-369.5 378.5,-369.5"/>
<text text-anchor="start" x="386.5" y="-387.5" font-family="Helvetica,sans-Serif" font-size="10.00">src/consensus/aft/orc</text>
<text text-anchor="middle" x="438" y="-376.5" font-family="Helvetica,sans-Serif" font-size="10.00">_requests.h</text>
</a>
</g>
</g>
<!-- Node5&#45;&gt;Node6 -->
<g id="edge5" class="edge">
<title>Node5&#45;&gt;Node6</title>
<path fill="none" stroke="midnightblue" d="M338.59,-437.19C359.61,-426.26 389.33,-410.81 410.79,-399.65"/>
<polygon fill="midnightblue" stroke="midnightblue" points="336.86,-434.15 329.6,-441.87 340.09,-440.36 336.86,-434.15"/>
</g>
<!-- Node7 -->
<g id="node7" class="node">
<title>Node7</title>
<g id="a_node7"><a xlink:href="raft_8h.html" target="_top" xlink:title=" ">
<polygon fill="white" stroke="black" points="239.5,-313.5 239.5,-332.5 368.5,-332.5 368.5,-313.5 239.5,-313.5"/>
<text text-anchor="middle" x="304" y="-320.5" font-family="Helvetica,sans-Serif" font-size="10.00">src/consensus/aft/raft.h</text>
</a>
</g>
</g>
<!-- Node5&#45;&gt;Node7 -->
<g id="edge15" class="edge">
<title>Node5&#45;&gt;Node7</title>
<path fill="none" stroke="midnightblue" d="M321.9,-432.78C329.06,-416.18 337.02,-390.74 331,-369 327.16,-355.13 317.77,-341.24 311.15,-332.64"/>
<polygon fill="midnightblue" stroke="midnightblue" points="318.72,-431.32 317.67,-441.86 325.07,-434.27 318.72,-431.32"/>
</g>
<!-- Node12 -->
<g id="node12" class="node">
<title>Node12</title>
<g id="a_node12"><a xlink:href="http__node__client_8h.html" target="_top" xlink:title=" ">
<polygon fill="white" stroke="black" points="66,-369.5 66,-399.5 176,-399.5 176,-369.5 66,-369.5"/>
<text text-anchor="start" x="74" y="-387.5" font-family="Helvetica,sans-Serif" font-size="10.00">src/node/http_node</text>
<text text-anchor="middle" x="121" y="-376.5" font-family="Helvetica,sans-Serif" font-size="10.00">_client.h</text>
</a>
</g>
</g>
<!-- Node5&#45;&gt;Node12 -->
<g id="edge16" class="edge">
<title>Node5&#45;&gt;Node12</title>
<path fill="none" stroke="midnightblue" d="M277.95,-438.63C245.39,-427.61 196.89,-411.19 162.44,-399.53"/>
<polygon fill="midnightblue" stroke="midnightblue" points="276.91,-441.98 287.5,-441.87 279.15,-435.35 276.91,-441.98"/>
</g>
<!-- Node13 -->
<g id="node13" class="node">
<title>Node13</title>
<g id="a_node13"><a xlink:href="retired__nodes__cleanup_8h.html" target="_top" xlink:title=" ">
<polygon fill="white" stroke="black" points="194,-369.5 194,-399.5 322,-399.5 322,-369.5 194,-369.5"/>
<text text-anchor="start" x="202" y="-387.5" font-family="Helvetica,sans-Serif" font-size="10.00">src/node/retired_nodes</text>
<text text-anchor="middle" x="258" y="-376.5" font-family="Helvetica,sans-Serif" font-size="10.00">_cleanup.h</text>
</a>
</g>
</g>
<!-- Node5&#45;&gt;Node13 -->
<g id="edge18" class="edge">
<title>Node5&#45;&gt;Node13</title>
<path fill="none" stroke="midnightblue" d="M299.03,-433.99C290.04,-423.36 278.48,-409.7 269.92,-399.59"/>
<polygon fill="midnightblue" stroke="midnightblue" points="296.45,-436.36 305.58,-441.73 301.79,-431.84 296.45,-436.36"/>
</g>
<!-- Node6&#45;&gt;Node7 -->
<g id="edge6" class="edge">
<title>Node6&#45;&gt;Node7</title>
<path fill="none" stroke="midnightblue" d="M396.85,-365.23C372.45,-354.39 342.65,-341.16 323.5,-332.66"/>
<polygon fill="midnightblue" stroke="midnightblue" points="395.68,-368.54 406.24,-369.4 398.52,-362.14 395.68,-368.54"/>
</g>
<!-- Node6&#45;&gt;Node10 -->
<g id="edge11" class="edge">
<title>Node6&#45;&gt;Node10</title>
<path fill="none" stroke="midnightblue" d="M465.65,-363.19C479.83,-352.77 496.36,-340.63 507.21,-332.66"/>
<polygon fill="midnightblue" stroke="midnightblue" points="463.18,-360.66 457.2,-369.4 467.33,-366.3 463.18,-360.66"/>
</g>
<!-- Node7&#45;&gt;Node8 -->
<g id="edge7" class="edge">
<title>Node7&#45;&gt;Node8</title>
<path fill="none" stroke="midnightblue" d="M307.55,-303.31C312.81,-275.58 322.47,-224.63 326.34,-204.26"/>
<polygon fill="midnightblue" stroke="midnightblue" points="304.08,-302.83 305.65,-313.31 310.95,-304.13 304.08,-302.83"/>
</g>
<!-- Node8&#45;&gt;Node3 -->
<g id="edge8" class="edge">
<title>Node8&#45;&gt;Node3</title>
<path fill="none" stroke="midnightblue" d="M324.53,-174.63C322.31,-156.18 322.31,-128.52 338,-112 364.17,-84.46 466.39,-73.69 533.76,-69.54"/>
<polygon fill="midnightblue" stroke="midnightblue" points="321.1,-175.39 326.08,-184.75 328.02,-174.33 321.1,-175.39"/>
</g>
<!-- Node9 -->
<g id="node9" class="node">
<title>Node9</title>
<g id="a_node9"><a xlink:href="gov__effects_8h.html" target="_top" xlink:title=" ">
<polygon fill="white" stroke="black" points="347,-118 347,-137 491,-137 491,-118 347,-118"/>
<text text-anchor="middle" x="419" y="-125" font-family="Helvetica,sans-Serif" font-size="10.00">src/node/rpc/gov_effects.h</text>
</a>
</g>
</g>
<!-- Node8&#45;&gt;Node9 -->
<g id="edge9" class="edge">
<title>Node8&#45;&gt;Node9</title>
<path fill="none" stroke="midnightblue" d="M348.41,-178.92C366.4,-166.07 392.01,-147.78 406.92,-137.13"/>
<polygon fill="midnightblue" stroke="midnightblue" points="346.38,-176.07 340.27,-184.73 350.44,-181.77 346.38,-176.07"/>
</g>
<!-- Node9&#45;&gt;Node3 -->
<g id="edge10" class="edge">
<title>Node9&#45;&gt;Node3</title>
<path fill="none" stroke="midnightblue" d="M453.81,-114.73C488.02,-103.17 539.4,-85.8 569.83,-75.51"/>
<polygon fill="midnightblue" stroke="midnightblue" points="452.57,-111.46 444.22,-117.98 454.81,-118.09 452.57,-111.46"/>
</g>
<!-- Node10&#45;&gt;Node3 -->
<g id="edge12" class="edge">
<title>Node10&#45;&gt;Node3</title>
<path fill="none" stroke="midnightblue" d="M524.39,-303.4C535.05,-266.73 559.61,-182.55 581,-112 584.85,-99.32 589.43,-84.66 592.28,-75.62"/>
<polygon fill="midnightblue" stroke="midnightblue" points="520.98,-302.6 521.55,-313.18 527.7,-304.56 520.98,-302.6"/>
</g>
<!-- Node11 -->
<g id="node11" class="node">
<title>Node11</title>
<g id="a_node11"><a xlink:href="jwt__key__auto__refresh_8h.html" target="_top" xlink:title=" ">
<polygon fill="white" stroke="black" points="365.5,-246.5 365.5,-276.5 490.5,-276.5 490.5,-246.5 365.5,-246.5"/>
<text text-anchor="start" x="373.5" y="-264.5" font-family="Helvetica,sans-Serif" font-size="10.00">src/node/jwt_key_auto</text>
<text text-anchor="middle" x="428" y="-253.5" font-family="Helvetica,sans-Serif" font-size="10.00">_refresh.h</text>
</a>
</g>
</g>
<!-- Node10&#45;&gt;Node11 -->
<g id="edge13" class="edge">
<title>Node10&#45;&gt;Node11</title>
<path fill="none" stroke="midnightblue" d="M497.19,-307.74C482.73,-298.28 463.83,-285.93 449.45,-276.52"/>
<polygon fill="midnightblue" stroke="midnightblue" points="495.68,-310.93 505.96,-313.48 499.51,-305.07 495.68,-310.93"/>
</g>
<!-- Node11&#45;&gt;Node8 -->
<g id="edge14" class="edge">
<title>Node11&#45;&gt;Node8</title>
<path fill="none" stroke="midnightblue" d="M397.7,-240.81C378.79,-228.51 355.39,-213.3 341.09,-204.01"/>
<polygon fill="midnightblue" stroke="midnightblue" points="396.01,-243.88 406.3,-246.4 399.82,-238.01 396.01,-243.88"/>
</g>
<!-- Node12&#45;&gt;Node8 -->
<g id="edge17" class="edge">
<title>Node12&#45;&gt;Node8</title>
<path fill="none" stroke="midnightblue" d="M144.09,-362.53C189.21,-321.55 287.4,-232.37 318.41,-204.21"/>
<polygon fill="midnightblue" stroke="midnightblue" points="141.61,-360.06 136.56,-369.37 146.31,-365.24 141.61,-360.06"/>
</g>
<!-- Node13&#45;&gt;Node7 -->
<g id="edge19" class="edge">
<title>Node13&#45;&gt;Node7</title>
<path fill="none" stroke="midnightblue" d="M275.08,-361.4C282.81,-351.41 291.49,-340.18 297.31,-332.66"/>
<polygon fill="midnightblue" stroke="midnightblue" points="272.25,-359.35 268.9,-369.4 277.79,-363.63 272.25,-359.35"/>
</g>
<!-- Node14&#45;&gt;Node8 -->
<g id="edge22" class="edge">
<title>Node14&#45;&gt;Node8</title>
<path fill="none" stroke="midnightblue" d="M501.99,-432.81C510.41,-415.31 519.28,-388.41 507,-369 487.01,-337.42 463.02,-352.28 431,-333 395.36,-311.55 380.51,-310.61 356,-277 339.16,-253.91 331.86,-219.91 329.24,-204.13"/>
<polygon fill="midnightblue" stroke="midnightblue" points="498.77,-431.41 497.25,-441.9 504.98,-434.65 498.77,-431.41"/>
</g>
<!-- Node15&#45;&gt;Node10 -->
<g id="edge47" class="edge">
<title>Node15&#45;&gt;Node10</title>
<path fill="none" stroke="midnightblue" d="M1346.12,-377.61C1166.33,-365.96 767.98,-340.14 598.17,-329.13"/>
<polygon fill="midnightblue" stroke="midnightblue" points="1346.13,-381.12 1356.34,-378.27 1346.59,-374.13 1346.13,-381.12"/>
</g>
<!-- Node16 -->
<g id="node16" class="node">
<title>Node16</title>
<g id="a_node16"><a xlink:href="wrap_8cpp.html" target="_top" xlink:title=" ">
<polygon fill="white" stroke="black" points="866.5,-185 866.5,-204 955.5,-204 955.5,-185 866.5,-185"/>
<text text-anchor="middle" x="911" y="-192" font-family="Helvetica,sans-Serif" font-size="10.00">src/js/wrap.cpp</text>
</a>
</g>
</g>
<!-- Node15&#45;&gt;Node16 -->
<g id="edge25" class="edge">
<title>Node15&#45;&gt;Node16</title>
<path fill="none" stroke="midnightblue" d="M1437.4,-364.92C1436.95,-334.66 1431.17,-275.18 1395,-246 1320.2,-185.65 1058.64,-226.75 964,-210 955.64,-208.52 946.69,-206.32 938.56,-204.07"/>
<polygon fill="midnightblue" stroke="midnightblue" points="1433.9,-364.95 1437.37,-374.96 1440.9,-364.98 1433.9,-364.95"/>
</g>
<!-- Node17 -->
<g id="node17" class="node">
<title>Node17</title>
<g id="a_node17"><a xlink:href="wrap_8h.html" target="_top" xlink:title=" ">
<polygon fill="white" stroke="black" points="993,-313.5 993,-332.5 1071,-332.5 1071,-313.5 993,-313.5"/>
<text text-anchor="middle" x="1032" y="-320.5" font-family="Helvetica,sans-Serif" font-size="10.00">src/js/wrap.h</text>
</a>
</g>
</g>
<!-- Node15&#45;&gt;Node17 -->
<g id="edge26" class="edge">
<title>Node15&#45;&gt;Node17</title>
<path fill="none" stroke="midnightblue" d="M1368.85,-373.49C1283.4,-360.93 1139.81,-339.84 1071.03,-329.73"/>
<polygon fill="midnightblue" stroke="midnightblue" points="1368.57,-376.98 1378.97,-374.98 1369.59,-370.06 1368.57,-376.98"/>
</g>
<!-- Node24 -->
<g id="node24" class="node">
<title>Node24</title>
<g id="a_node24"><a xlink:href="member__frontend_8h.html" target="_top" xlink:title=" ">
<polygon fill="white" stroke="black" points="1501,-246.5 1501,-276.5 1621,-276.5 1621,-246.5 1501,-246.5"/>
<text text-anchor="start" x="1509" y="-264.5" font-family="Helvetica,sans-Serif" font-size="10.00">src/node/rpc/member</text>
<text text-anchor="middle" x="1561" y="-253.5" font-family="Helvetica,sans-Serif" font-size="10.00">_frontend.h</text>
</a>
</g>
</g>
<!-- Node15&#45;&gt;Node24 -->
<g id="edge46" class="edge">
<title>Node15&#45;&gt;Node24</title>
<path fill="none" stroke="midnightblue" d="M1453.32,-367.57C1477.74,-343.75 1523.38,-299.21 1546.61,-276.54"/>
<polygon fill="midnightblue" stroke="midnightblue" points="1450.63,-365.31 1445.92,-374.8 1455.52,-370.32 1450.63,-365.31"/>
</g>
<!-- Node25 -->
<g id="node25" class="node">
<title>Node25</title>
<g id="a_node25"><a xlink:href="historical__queries_8h.html" target="_top" xlink:title=" ">
<polygon fill="white" stroke="black" points="973,-179.5 973,-209.5 1079,-209.5 1079,-179.5 973,-179.5"/>
<text text-anchor="start" x="981" y="-197.5" font-family="Helvetica,sans-Serif" font-size="10.00">src/node/historical</text>
<text text-anchor="middle" x="1026" y="-186.5" font-family="Helvetica,sans-Serif" font-size="10.00">_queries.h</text>
</a>
</g>
</g>
<!-- Node15&#45;&gt;Node25 -->
<g id="edge42" class="edge">
<title>Node15&#45;&gt;Node25</title>
<path fill="none" stroke="midnightblue" d="M1446,-365.41C1459.01,-336.35 1478.47,-279.2 1449,-246 1424.82,-218.76 1187.36,-203.54 1079.19,-197.97"/>
<polygon fill="midnightblue" stroke="midnightblue" points="1442.69,-364.2 1441.6,-374.74 1449.03,-367.19 1442.69,-364.2"/>
</g>
<!-- Node27 -->
<g id="node27" class="node">
<title>Node27</title>
<g id="a_node27"><a xlink:href="node__operation_8h.html" target="_top" xlink:title=" ">
<polygon fill="white" stroke="black" points="1577,-313.5 1577,-332.5 1741,-332.5 1741,-313.5 1577,-313.5"/>
<text text-anchor="middle" x="1659" y="-320.5" font-family="Helvetica,sans-Serif" font-size="10.00">src/node/rpc/node_operation.h</text>
</a>
</g>
</g>
<!-- Node15&#45;&gt;Node27 -->
<g id="edge48" class="edge">
<title>Node15&#45;&gt;Node27</title>
<path fill="none" stroke="midnightblue" d="M1478.7,-372.32C1521.83,-360.76 1588.21,-342.97 1627.25,-332.51"/>
<polygon fill="midnightblue" stroke="midnightblue" points="1477.56,-369.01 1468.81,-374.98 1479.37,-375.77 1477.56,-369.01"/>
</g>
<!-- Node17&#45;&gt;Node3 -->
<g id="edge28" class="edge">
<title>Node17&#45;&gt;Node3</title>
<path fill="none" stroke="midnightblue" d="M982.65,-320.14C877.62,-315.71 639.44,-302.88 614,-277 585.51,-248.02 592.14,-111.38 594.41,-75.6"/>
<polygon fill="midnightblue" stroke="midnightblue" points="982.55,-323.64 992.69,-320.56 982.84,-316.65 982.55,-323.64"/>
</g>
<!-- Node17&#45;&gt;Node8 -->
<g id="edge39" class="edge">
<title>Node17&#45;&gt;Node8</title>
<path fill="none" stroke="midnightblue" d="M982.59,-321.28C898.87,-319.13 724.26,-310.61 581,-277 543.07,-268.1 535.93,-258.42 499,-246 450.73,-229.77 393.89,-213.55 359.42,-204.02"/>
<polygon fill="midnightblue" stroke="midnightblue" points="982.75,-324.78 992.83,-321.52 982.91,-317.79 982.75,-324.78"/>
</g>
<!-- Node17&#45;&gt;Node16 -->
<g id="edge38" class="edge">
<title>Node17&#45;&gt;Node16</title>
<path fill="none" stroke="midnightblue" d="M1081.3,-319.14C1172.2,-313.36 1358.73,-298.94 1378,-277 1387.09,-266.65 1387.31,-256.16 1378,-246 1346.8,-211.97 1009.45,-218.13 964,-210 955.64,-208.51 946.69,-206.3 938.57,-204.05"/>
<polygon fill="midnightblue" stroke="midnightblue" points="1081,-315.65 1071.23,-319.77 1081.43,-322.64 1081,-315.65"/>
</g>
<!-- Node18 -->
<g id="node18" class="node">
<title>Node18</title>
<g id="a_node18"><a xlink:href="js__generic__base_8cpp.html" target="_top" xlink:title=" ">
<polygon fill="white" stroke="black" points="1105,-246.5 1105,-276.5 1223,-276.5 1223,-246.5 1105,-246.5"/>
<text text-anchor="start" x="1113" y="-264.5" font-family="Helvetica,sans-Serif" font-size="10.00">src/apps/js_generic</text>
<text text-anchor="middle" x="1164" y="-253.5" font-family="Helvetica,sans-Serif" font-size="10.00">/js_generic_base.cpp</text>
</a>
</g>
</g>
<!-- Node17&#45;&gt;Node18 -->
<g id="edge27" class="edge">
<title>Node17&#45;&gt;Node18</title>
<path fill="none" stroke="midnightblue" d="M1060.11,-309.33C1081.46,-299.7 1110.83,-286.47 1132.89,-276.52"/>
<polygon fill="midnightblue" stroke="midnightblue" points="1058.59,-306.17 1050.91,-313.48 1061.47,-312.56 1058.59,-306.17"/>
</g>
<!-- Node19 -->
<g id="node19" class="node">
<title>Node19</title>
<g id="a_node19"><a xlink:href="js_2consensus_8cpp.html" target="_top" xlink:title=" ">
<polygon fill="white" stroke="black" points="623,-252 623,-271 739,-271 739,-252 623,-252"/>
<text text-anchor="middle" x="681" y="-259" font-family="Helvetica,sans-Serif" font-size="10.00">src/js/consensus.cpp</text>
</a>
</g>
</g>
<!-- Node17&#45;&gt;Node19 -->
<g id="edge29" class="edge">
<title>Node17&#45;&gt;Node19</title>
<path fill="none" stroke="midnightblue" d="M982.7,-315.04C925.95,-306.84 829.99,-292.36 748,-277 738.41,-275.2 728.09,-273.07 718.49,-271"/>
<polygon fill="midnightblue" stroke="midnightblue" points="982.44,-318.54 992.83,-316.5 983.43,-311.61 982.44,-318.54"/>
</g>
<!-- Node20 -->
<g id="node20" class="node">
<title>Node20</title>
<g id="a_node20"><a xlink:href="conv_8cpp.html" target="_top" xlink:title=" ">
<polygon fill="white" stroke="black" points="757,-252 757,-271 845,-271 845,-252 757,-252"/>
<text text-anchor="middle" x="801" y="-259" font-family="Helvetica,sans-Serif" font-size="10.00">src/js/conv.cpp</text>
</a>
</g>
</g>
<!-- Node17&#45;&gt;Node20 -->
<g id="edge31" class="edge">
<title>Node17&#45;&gt;Node20</title>
<path fill="none" stroke="midnightblue" d="M987.77,-311.07C951.72,-302.1 899.5,-288.98 854,-277 846.8,-275.11 839.07,-273.02 831.8,-271.04"/>
<polygon fill="midnightblue" stroke="midnightblue" points="986.94,-314.47 997.49,-313.49 988.63,-307.68 986.94,-314.47"/>
</g>
<!-- Node21 -->
<g id="node21" class="node">
<title>Node21</title>
<g id="a_node21"><a xlink:href="js_2crypto_8cpp.html" target="_top" xlink:title=" ">
<polygon fill="white" stroke="black" points="863,-252 863,-271 959,-271 959,-252 863,-252"/>
<text text-anchor="middle" x="911" y="-259" font-family="Helvetica,sans-Serif" font-size="10.00">src/js/crypto.cpp</text>
</a>
</g>
</g>
<!-- Node17&#45;&gt;Node21 -->
<g id="edge33" class="edge">
<title>Node17&#45;&gt;Node21</title>
<path fill="none" stroke="midnightblue" d="M1005.61,-309.02C982.14,-297.48 948.51,-280.94 928.3,-271.01"/>
<polygon fill="midnightblue" stroke="midnightblue" points="1004.15,-312.2 1014.66,-313.48 1007.23,-305.92 1004.15,-312.2"/>
</g>
<!-- Node22 -->
<g id="node22" class="node">
<title>Node22</title>
<g id="a_node22"><a xlink:href="js_2historical_8cpp.html" target="_top" xlink:title=" ">
<polygon fill="white" stroke="black" points="977,-252 977,-271 1087,-271 1087,-252 977,-252"/>
<text text-anchor="middle" x="1032" y="-259" font-family="Helvetica,sans-Serif" font-size="10.00">src/js/historical.cpp</text>
</a>
</g>
</g>
<!-- Node17&#45;&gt;Node22 -->
<g id="edge35" class="edge">
<title>Node17&#45;&gt;Node22</title>
<path fill="none" stroke="midnightblue" d="M1032,-303.32C1032,-292.5 1032,-279.4 1032,-271.01"/>
<polygon fill="midnightblue" stroke="midnightblue" points="1028.5,-303.48 1032,-313.48 1035.5,-303.48 1028.5,-303.48"/>
</g>
<!-- Node23 -->
<g id="node23" class="node">
<title>Node23</title>
<g id="a_node23"><a xlink:href="openenclave_8cpp.html" target="_top" xlink:title=" ">
<polygon fill="white" stroke="black" points="1241,-252 1241,-271 1369,-271 1369,-252 1241,-252"/>
<text text-anchor="middle" x="1305" y="-259" font-family="Helvetica,sans-Serif" font-size="10.00">src/js/openenclave.cpp</text>
</a>
</g>
</g>
<!-- Node17&#45;&gt;Node23 -->
<g id="edge37" class="edge">
<title>Node17&#45;&gt;Node23</title>
<path fill="none" stroke="midnightblue" d="M1080.95,-311.33C1133.9,-299.79 1217.24,-281.63 1265.96,-271.01"/>
<polygon fill="midnightblue" stroke="midnightblue" points="1080.14,-307.93 1071.11,-313.48 1081.63,-314.77 1080.14,-307.93"/>
</g>
<!-- Node17&#45;&gt;Node24 -->
<g id="edge40" class="edge">
<title>Node17&#45;&gt;Node24</title>
<path fill="none" stroke="midnightblue" d="M1081.5,-316.43C1178.96,-305.47 1395.39,-281.13 1500.88,-269.26"/>
<polygon fill="midnightblue" stroke="midnightblue" points="1080.87,-312.98 1071.33,-317.58 1081.66,-319.94 1080.87,-312.98"/>
</g>
<!-- Node19&#45;&gt;Node16 -->
<g id="edge30" class="edge">
<title>Node19&#45;&gt;Node16</title>
<path fill="none" stroke="midnightblue" d="M721.37,-249.09C766.87,-236.23 839.81,-215.62 880.7,-204.06"/>
<polygon fill="midnightblue" stroke="midnightblue" points="720.21,-245.78 711.54,-251.87 722.12,-252.52 720.21,-245.78"/>
</g>
<!-- Node20&#45;&gt;Node16 -->
<g id="edge32" class="edge">
<title>Node20&#45;&gt;Node16</title>
<path fill="none" stroke="midnightblue" d="M824.5,-246.62C846.29,-233.74 878.04,-214.98 896.4,-204.13"/>
<polygon fill="midnightblue" stroke="midnightblue" points="822.66,-243.63 815.84,-251.73 826.22,-249.66 822.66,-243.63"/>
</g>
<!-- Node21&#45;&gt;Node16 -->
<g id="edge34" class="edge">
<title>Node21&#45;&gt;Node16</title>
<path fill="none" stroke="midnightblue" d="M911,-241.54C911,-229.17 911,-213.62 911,-204.13"/>
<polygon fill="midnightblue" stroke="midnightblue" points="907.5,-241.73 911,-251.73 914.5,-241.73 907.5,-241.73"/>
</g>
<!-- Node22&#45;&gt;Node16 -->
<g id="edge36" class="edge">
<title>Node22&#45;&gt;Node16</title>
<path fill="none" stroke="midnightblue" d="M1006.79,-246.96C982.8,-234.07 947.44,-215.07 927.06,-204.13"/>
<polygon fill="midnightblue" stroke="midnightblue" points="1005.22,-250.08 1015.68,-251.73 1008.53,-243.92 1005.22,-250.08"/>
</g>
<!-- Node24&#45;&gt;Node3 -->
<g id="edge41" class="edge">
<title>Node24&#45;&gt;Node3</title>
<path fill="none" stroke="midnightblue" d="M1491.7,-244.12C1368.47,-215.29 1102.92,-154.52 877,-112 800.51,-97.6 711.77,-83.94 654.58,-75.53"/>
<polygon fill="midnightblue" stroke="midnightblue" points="1491.22,-247.6 1501.76,-246.47 1492.82,-240.79 1491.22,-247.6"/>
</g>
<!-- Node25&#45;&gt;Node3 -->
<g id="edge43" class="edge">
<title>Node25&#45;&gt;Node3</title>
<path fill="none" stroke="midnightblue" d="M986.4,-175.25C945.66,-157.08 879.99,-129.44 821,-112 764.8,-95.38 698.91,-83.05 652.82,-75.54"/>
<polygon fill="midnightblue" stroke="midnightblue" points="985.15,-178.53 995.71,-179.43 988.02,-172.14 985.15,-178.53"/>
</g>
<!-- Node26 -->
<g id="node26" class="node">
<title>Node26</title>
<g id="a_node26"><a xlink:href="historical__transaction__fetcher_8h.html" target="_top" xlink:title=" ">
<polygon fill="white" stroke="black" points="686.5,-112.5 686.5,-142.5 811.5,-142.5 811.5,-112.5 686.5,-112.5"/>
<text text-anchor="start" x="694.5" y="-130.5" font-family="Helvetica,sans-Serif" font-size="10.00">src/indexing/historical</text>
<text text-anchor="middle" x="749" y="-119.5" font-family="Helvetica,sans-Serif" font-size="10.00">_transaction_fetcher.h</text>
</a>
</g>
</g>
<!-- Node25&#45;&gt;Node26 -->
<g id="edge44" class="edge">
<title>Node25&#45;&gt;Node26</title>
<path fill="none" stroke="midnightblue" d="M962.9,-178.51C906.04,-165.11 850.47,-152.13 809.53,-142.59"/>
<polygon fill="midnightblue" stroke="midnightblue" points="962.24,-181.95 972.77,-180.84 963.84,-175.13 962.24,-181.95"/>
</g>
<!-- Node26&#45;&gt;Node3 -->
<g id="edge45" class="edge">
<title>Node26&#45;&gt;Node3</title>
<path fill="none" stroke="midnightblue" d="M702.82,-108.66C674.58,-97.75 639.71,-84.27 617.41,-75.66"/>
<polygon fill="midnightblue" stroke="midnightblue" points="701.91,-112.06 712.5,-112.4 704.44,-105.53 701.91,-112.06"/>
</g>
<!-- Node27&#45;&gt;Node3 -->
<g id="edge49" class="edge">
<title>Node27&#45;&gt;Node3</title>
<path fill="none" stroke="midnightblue" d="M1656.96,-303.29C1654.04,-285.83 1646.98,-260.37 1630,-246 1399.54,-50.93 1262.08,-160.09 964,-112 856.17,-94.6 729.63,-80.54 656.25,-73.01"/>
<polygon fill="midnightblue" stroke="midnightblue" points="1653.53,-303.98 1658.35,-313.41 1660.46,-303.03 1653.53,-303.98"/>
</g>
<!-- Node28&#45;&gt;Node15 -->
<g id="edge52" class="edge">
<title>Node28&#45;&gt;Node15</title>
<path fill="none" stroke="midnightblue" d="M1474.18,-428.66C1464.02,-416.86 1452.05,-402.97 1444.49,-394.19"/>
<polygon fill="midnightblue" stroke="midnightblue" points="1471.67,-431.1 1480.85,-436.4 1476.97,-426.54 1471.67,-431.1"/>
</g>
<!-- Node28&#45;&gt;Node24 -->
<g id="edge51" class="edge">
<title>Node28&#45;&gt;Node24</title>
<path fill="none" stroke="midnightblue" d="M1510.55,-428.1C1516.47,-419.66 1522.67,-409.75 1527,-400 1545.94,-357.29 1555.5,-302.24 1559.16,-276.69"/>
<polygon fill="midnightblue" stroke="midnightblue" points="1507.65,-426.14 1504.57,-436.28 1513.3,-430.27 1507.65,-426.14"/>
</g>
<!-- Node28&#45;&gt;Node27 -->
<g id="edge53" class="edge">
<title>Node28&#45;&gt;Node27</title>
<path fill="none" stroke="midnightblue" d="M1521.5,-430.38C1534.29,-421.24 1549.5,-410.21 1563,-400 1594.54,-376.16 1630.93,-346.84 1648.47,-332.59"/>
<polygon fill="midnightblue" stroke="midnightblue" points="1519.2,-427.72 1513.09,-436.37 1523.26,-433.42 1519.2,-427.72"/>
</g>
</g>
</svg>
        <g id="navigator" transform="translate(0 0)" fill="#404254">
                <rect fill="#f2f5e9" fill-opacity="0.5" stroke="#606060" stroke-width=".5" x="0" y="0" width="60" height="60"/>
                <use id="zoomplus" xlink:href="#zoomPlus" x="17" y="9" onmousedown="handleZoom(evt,'in')"/>
                <use id="zoomminus" xlink:href="#zoomMin" x="42" y="9" onmousedown="handleZoom(evt,'out')"/>
                <use id="reset" xlink:href="#resetDef" x="30" y="36" onmousedown="handleReset()"/>
                <g id="arrowUp" xlink:href="#dirArrow" transform="translate(30 24)" onmousedown="handlePan(0,-1)">
                  <use xlink:href="#rim" fill="#404040">
                        <set attributeName="fill" to="#808080" begin="arrowUp.mouseover" end="arrowUp.mouseout"/>
                  </use>
                  <path fill="none" stroke="white" stroke-width="1.5" d="M0,-3.0v7 M-2.5,-0.5L0,-3.0L2.5,-0.5"/>
                </g>
                <g id="arrowRight" xlink:href="#dirArrow" transform="rotate(90) translate(36 -43)" onmousedown="handlePan(1,0)">
                  <use xlink:href="#rim" fill="#404040">
                        <set attributeName="fill" to="#808080" begin="arrowRight.mouseover" end="arrowRight.mouseout"/>
                  </use>
                  <path fill="none" stroke="white" stroke-width="1.5" d="M0,-3.0v7 M-2.5,-0.5L0,-3.0L2.5,-0.5"/>
                </g>
                <g id="arrowDown" xlink:href="#dirArrow" transform="rotate(180) translate(-30 -48)" onmousedown="handlePan(0,1)">
                  <use xlink:href="#rim" fill="#404040">
                        <set attributeName="fill" to="#808080" begin="arrowDown.mouseover" end="arrowDown.mouseout"/>
                  </use>
                  <path fill="none" stroke="white" stroke-width="1.5" d="M0,-3.0v7 M-2.5,-0.5L0,-3.0L2.5,-0.5"/>
                </g>
                <g id="arrowLeft" xlink:href="#dirArrow" transform="rotate(270) translate(-36 17)" onmousedown="handlePan(-1,0)">
                  <use xlink:href="#rim" fill="#404040">
                        <set attributeName="fill" to="#808080" begin="arrowLeft.mouseover" end="arrowLeft.mouseout"/>
                  </use>
                  <path fill="none" stroke="white" stroke-width="1.5" d="M0,-3.0v7 M-2.5,-0.5L0,-3.0L2.5,-0.5"/>
                </g>
        </g>
        <svg viewBox="0 0 15 15" width="100%" height="30px" preserveAspectRatio="xMaxYMin meet">
         <g id="arrow_out" transform="scale(0.3 0.3)">
          <a xlink:href="session__metrics_8h__dep__incl_org.svg" target="_base">
           <rect id="button" ry="5" rx="5" y="6" x="6" height="38" width="38"
                fill="#f2f5e9" fill-opacity="0.5" stroke="#606060" stroke-width="1.0"/>
           <path id="arrow"
             d="M 11.500037,31.436501 C 11.940474,20.09759 22.043105,11.32322 32.158766,21.979434 L 37.068811,17.246167 C 37.068811,17.246167 37.088388,32 37.088388,32 L 22.160133,31.978069 C 22.160133,31.978069 26.997745,27.140456 26.997745,27.140456 C 18.528582,18.264221 13.291696,25.230495 11.500037,31.436501 z"
             style="fill:#404040;"/>
          </a>
         </g>
        </svg>
</svg>
