<?xml version="1.0" encoding="UTF-8" standalone="no"?>
<!DOCTYPE svg PUBLIC "-//W3C//DTD SVG 1.1//EN"
 "http://www.w3.org/Graphics/SVG/1.1/DTD/svg11.dtd">
<!-- Generated by graphviz version 2.43.0 (0)
 -->
<!-- Title: src/kv/snapshot.h Pages: 1 -->
<svg width="2295pt" height="587pt"
 viewBox="0.00 0.00 2294.50 587.00" xmlns="http://www.w3.org/2000/svg" xmlns:xlink="http://www.w3.org/1999/xlink">
<g id="graph0" class="graph" transform="scale(1 1) rotate(0) translate(4 583)">
<title>src/kv/snapshot.h</title>
<polygon fill="white" stroke="transparent" points="-4,4 -4,-583 2290.5,-583 2290.5,4 -4,4"/>
<!-- Node1 -->
<g id="node1" class="node">
<title>Node1</title>
<g id="a_node1"><a xlink:title=" ">
<polygon fill="#bfbfbf" stroke="black" points="362,-559.5 362,-578.5 464,-578.5 464,-559.5 362,-559.5"/>
<text text-anchor="middle" x="413" y="-566.5" font-family="Helvetica,sans-Serif" font-size="10.00">src/kv/snapshot.h</text>
</a>
</g>
</g>
<!-- Node2 -->
<g id="node2" class="node">
<title>Node2</title>
<g id="a_node2"><a xlink:href="store_8h.html" target="_top" xlink:title=" ">
<polygon fill="white" stroke="black" points="371.5,-503.5 371.5,-522.5 454.5,-522.5 454.5,-503.5 371.5,-503.5"/>
<text text-anchor="middle" x="413" y="-510.5" font-family="Helvetica,sans-Serif" font-size="10.00">src/kv/store.h</text>
</a>
</g>
</g>
<!-- Node1&#45;&gt;Node2 -->
<g id="edge1" class="edge">
<title>Node1&#45;&gt;Node2</title>
<path fill="none" stroke="midnightblue" d="M413,-548.8C413,-539.91 413,-529.78 413,-522.75"/>
<polygon fill="midnightblue" stroke="midnightblue" points="409.5,-549.08 413,-559.08 416.5,-549.08 409.5,-549.08"/>
</g>
<!-- Node3 -->
<g id="node3" class="node">
<title>Node3</title>
<g id="a_node3"><a xlink:href="logging_8cpp.html" target="_top" xlink:title=" ">
<polygon fill="white" stroke="black" points="2.5,-436.5 2.5,-466.5 125.5,-466.5 125.5,-436.5 2.5,-436.5"/>
<text text-anchor="start" x="10.5" y="-454.5" font-family="Helvetica,sans-Serif" font-size="10.00">samples/apps/logging</text>
<text text-anchor="middle" x="64" y="-443.5" font-family="Helvetica,sans-Serif" font-size="10.00">/logging.cpp</text>
</a>
</g>
</g>
<!-- Node2&#45;&gt;Node3 -->
<g id="edge2" class="edge">
<title>Node2&#45;&gt;Node3</title>
<path fill="none" stroke="midnightblue" d="M361.13,-503.85C306.17,-495.12 216.86,-480.67 140,-467 135.37,-466.18 130.59,-465.31 125.78,-464.42"/>
<polygon fill="midnightblue" stroke="midnightblue" points="360.89,-507.35 371.32,-505.46 361.99,-500.44 360.89,-507.35"/>
</g>
<!-- Node4 -->
<g id="node4" class="node">
<title>Node4</title>
<g id="a_node4"><a xlink:href="indexer_8h.html" target="_top" xlink:title=" ">
<polygon fill="white" stroke="black" points="515.5,-442 515.5,-461 638.5,-461 638.5,-442 515.5,-442"/>
<text text-anchor="middle" x="577" y="-449" font-family="Helvetica,sans-Serif" font-size="10.00">src/indexing/indexer.h</text>
</a>
</g>
</g>
<!-- Node2&#45;&gt;Node4 -->
<g id="edge3" class="edge">
<title>Node2&#45;&gt;Node4</title>
<path fill="none" stroke="midnightblue" d="M446.26,-499.93C478.14,-488.37 525.43,-471.21 553.55,-461.01"/>
<polygon fill="midnightblue" stroke="midnightblue" points="444.7,-496.77 436.5,-503.48 447.09,-503.35 444.7,-496.77"/>
</g>
<!-- Node9 -->
<g id="node9" class="node">
<title>Node9</title>
<g id="a_node9"><a xlink:href="visit__each__entry__in__map_8cpp.html" target="_top" xlink:title=" ">
<polygon fill="white" stroke="black" points="182.5,-436.5 182.5,-466.5 343.5,-466.5 343.5,-436.5 182.5,-436.5"/>
<text text-anchor="start" x="190.5" y="-454.5" font-family="Helvetica,sans-Serif" font-size="10.00">src/indexing/strategies</text>
<text text-anchor="middle" x="263" y="-443.5" font-family="Helvetica,sans-Serif" font-size="10.00">/visit_each_entry_in_map.cpp</text>
</a>
</g>
</g>
<!-- Node2&#45;&gt;Node9 -->
<g id="edge9" class="edge">
<title>Node2&#45;&gt;Node9</title>
<path fill="none" stroke="midnightblue" d="M382.04,-499.72C357.69,-490.06 323.76,-476.6 298.35,-466.52"/>
<polygon fill="midnightblue" stroke="midnightblue" points="380.92,-503.04 391.51,-503.48 383.5,-496.53 380.92,-503.04"/>
</g>
<!-- Node10 -->
<g id="node10" class="node">
<title>Node10</title>
<g id="a_node10"><a xlink:href="historical__queries_8h.html" target="_top" xlink:title=" ">
<polygon fill="white" stroke="black" points="0,-302.5 0,-332.5 106,-332.5 106,-302.5 0,-302.5"/>
<text text-anchor="start" x="8" y="-320.5" font-family="Helvetica,sans-Serif" font-size="10.00">src/node/historical</text>
<text text-anchor="middle" x="53" y="-309.5" font-family="Helvetica,sans-Serif" font-size="10.00">_queries.h</text>
</a>
</g>
</g>
<!-- Node2&#45;&gt;Node10 -->
<g id="edge10" class="edge">
<title>Node2&#45;&gt;Node10</title>
<path fill="none" stroke="midnightblue" d="M361.16,-512.41C309.94,-510.6 231.06,-501.66 173,-467 144.11,-449.75 85.58,-366.48 62.59,-332.74"/>
<polygon fill="midnightblue" stroke="midnightblue" points="361.24,-515.92 371.34,-512.69 361.44,-508.92 361.24,-515.92"/>
</g>
<!-- Node12 -->
<g id="node12" class="node">
<title>Node12</title>
<g id="a_node12"><a xlink:href="history_8h.html" target="_top" xlink:title=" ">
<polygon fill="white" stroke="black" points="362,-442 362,-461 464,-461 464,-442 362,-442"/>
<text text-anchor="middle" x="413" y="-449" font-family="Helvetica,sans-Serif" font-size="10.00">src/node/history.h</text>
</a>
</g>
</g>
<!-- Node2&#45;&gt;Node12 -->
<g id="edge14" class="edge">
<title>Node2&#45;&gt;Node12</title>
<path fill="none" stroke="midnightblue" d="M413,-493.32C413,-482.5 413,-469.4 413,-461.01"/>
<polygon fill="midnightblue" stroke="midnightblue" points="409.5,-493.48 413,-503.48 416.5,-493.48 409.5,-493.48"/>
</g>
<!-- Node20 -->
<g id="node20" class="node">
<title>Node20</title>
<g id="a_node20"><a xlink:href="frontend_8h.html" target="_top" xlink:title=" ">
<polygon fill="white" stroke="black" points="1246.5,-375 1246.5,-394 1375.5,-394 1375.5,-375 1246.5,-375"/>
<text text-anchor="middle" x="1311" y="-382" font-family="Helvetica,sans-Serif" font-size="10.00">src/node/rpc/frontend.h</text>
</a>
</g>
</g>
<!-- Node2&#45;&gt;Node20 -->
<g id="edge27" class="edge">
<title>Node2&#45;&gt;Node20</title>
<path fill="none" stroke="midnightblue" d="M464.94,-510.25C562.47,-506.42 779.47,-495.23 960,-467 1080.22,-448.2 1220.37,-410.92 1280.78,-394.1"/>
<polygon fill="midnightblue" stroke="midnightblue" points="464.62,-506.76 454.76,-510.64 464.89,-513.76 464.62,-506.76"/>
</g>
<!-- Node25 -->
<g id="node25" class="node">
<title>Node25</title>
<g id="a_node25"><a xlink:href="network__tables_8h.html" target="_top" xlink:title=" ">
<polygon fill="white" stroke="black" points="839,-436.5 839,-466.5 951,-466.5 951,-436.5 839,-436.5"/>
<text text-anchor="start" x="847" y="-454.5" font-family="Helvetica,sans-Serif" font-size="10.00">src/service/network</text>
<text text-anchor="middle" x="895" y="-443.5" font-family="Helvetica,sans-Serif" font-size="10.00">_tables.h</text>
</a>
</g>
</g>
<!-- Node2&#45;&gt;Node25 -->
<g id="edge37" class="edge">
<title>Node2&#45;&gt;Node25</title>
<path fill="none" stroke="midnightblue" d="M464.6,-505.63C555.74,-494.38 744.47,-471.08 838.79,-459.44"/>
<polygon fill="midnightblue" stroke="midnightblue" points="464.01,-502.18 454.51,-506.88 464.87,-509.12 464.01,-502.18"/>
</g>
<!-- Node5 -->
<g id="node5" class="node">
<title>Node5</title>
<g id="a_node5"><a xlink:href="node__state_8h.html" target="_top" xlink:title=" ">
<polygon fill="white" stroke="black" points="765,-179.5 765,-198.5 889,-198.5 889,-179.5 765,-179.5"/>
<text text-anchor="middle" x="827" y="-186.5" font-family="Helvetica,sans-Serif" font-size="10.00">src/node/node_state.h</text>
</a>
</g>
</g>
<!-- Node4&#45;&gt;Node5 -->
<g id="edge4" class="edge">
<title>Node4&#45;&gt;Node5</title>
<path fill="none" stroke="midnightblue" d="M584.96,-432.72C603.82,-392.42 654.93,-293.1 725,-235 746.01,-217.58 774.82,-205.7 796.46,-198.54"/>
<polygon fill="midnightblue" stroke="midnightblue" points="581.77,-431.29 580.78,-441.84 588.13,-434.21 581.77,-431.29"/>
</g>
<!-- Node6 -->
<g id="node6" class="node">
<title>Node6</title>
<g id="a_node6"><a xlink:href="enclave_2enclave_8h.html" target="_top" xlink:title=" ">
<polygon fill="white" stroke="black" points="1055,-56.5 1055,-75.5 1177,-75.5 1177,-56.5 1055,-56.5"/>
<text text-anchor="middle" x="1116" y="-63.5" font-family="Helvetica,sans-Serif" font-size="10.00">src/enclave/enclave.h</text>
</a>
</g>
</g>
<!-- Node5&#45;&gt;Node6 -->
<g id="edge5" class="edge">
<title>Node5&#45;&gt;Node6</title>
<path fill="none" stroke="midnightblue" d="M861.88,-176.06C886.65,-167.38 920.61,-155.08 950,-143 1004.82,-120.46 1068.13,-90.3 1098.27,-75.68"/>
<polygon fill="midnightblue" stroke="midnightblue" points="860.49,-172.84 852.19,-179.43 862.79,-179.45 860.49,-172.84"/>
</g>
<!-- Node8 -->
<g id="node8" class="node">
<title>Node8</title>
<g id="a_node8"><a xlink:href="gov__effects_8h.html" target="_top" xlink:title=" ">
<polygon fill="white" stroke="black" points="797,-118 797,-137 941,-137 941,-118 797,-118"/>
<text text-anchor="middle" x="869" y="-125" font-family="Helvetica,sans-Serif" font-size="10.00">src/node/rpc/gov_effects.h</text>
</a>
</g>
</g>
<!-- Node5&#45;&gt;Node8 -->
<g id="edge7" class="edge">
<title>Node5&#45;&gt;Node8</title>
<path fill="none" stroke="midnightblue" d="M839,-171.01C846.84,-159.89 856.76,-145.84 862.99,-137.01"/>
<polygon fill="midnightblue" stroke="midnightblue" points="835.93,-169.29 833.02,-179.48 841.64,-173.32 835.93,-169.29"/>
</g>
<!-- Node7 -->
<g id="node7" class="node">
<title>Node7</title>
<g id="a_node7"><a xlink:href="enclave_2main_8cpp.html" target="_top" xlink:title=" ">
<polygon fill="white" stroke="black" points="1056,-0.5 1056,-19.5 1176,-19.5 1176,-0.5 1056,-0.5"/>
<text text-anchor="middle" x="1116" y="-7.5" font-family="Helvetica,sans-Serif" font-size="10.00">src/enclave/main.cpp</text>
</a>
</g>
</g>
<!-- Node6&#45;&gt;Node7 -->
<g id="edge6" class="edge">
<title>Node6&#45;&gt;Node7</title>
<path fill="none" stroke="midnightblue" d="M1116,-45.8C1116,-36.91 1116,-26.78 1116,-19.75"/>
<polygon fill="midnightblue" stroke="midnightblue" points="1112.5,-46.08 1116,-56.08 1119.5,-46.08 1112.5,-46.08"/>
</g>
<!-- Node8&#45;&gt;Node6 -->
<g id="edge8" class="edge">
<title>Node8&#45;&gt;Node6</title>
<path fill="none" stroke="midnightblue" d="M914.19,-115.61C962.13,-104.07 1036.87,-86.06 1080.68,-75.51"/>
<polygon fill="midnightblue" stroke="midnightblue" points="913.29,-112.23 904.39,-117.98 914.93,-119.04 913.29,-112.23"/>
</g>
<!-- Node10&#45;&gt;Node6 -->
<g id="edge11" class="edge">
<title>Node10&#45;&gt;Node6</title>
<path fill="none" stroke="midnightblue" d="M57.59,-292.27C61.94,-274.74 69.95,-251.36 84,-235 180.86,-122.25 248.88,-139.23 395,-112 520.92,-88.54 904.87,-73.87 1054.96,-68.9"/>
<polygon fill="midnightblue" stroke="midnightblue" points="54.11,-291.79 55.34,-302.31 60.95,-293.32 54.11,-291.79"/>
</g>
<!-- Node11 -->
<g id="node11" class="node">
<title>Node11</title>
<g id="a_node11"><a xlink:href="historical__transaction__fetcher_8h.html" target="_top" xlink:title=" ">
<polygon fill="white" stroke="black" points="403.5,-112.5 403.5,-142.5 528.5,-142.5 528.5,-112.5 403.5,-112.5"/>
<text text-anchor="start" x="411.5" y="-130.5" font-family="Helvetica,sans-Serif" font-size="10.00">src/indexing/historical</text>
<text text-anchor="middle" x="466" y="-119.5" font-family="Helvetica,sans-Serif" font-size="10.00">_transaction_fetcher.h</text>
</a>
</g>
</g>
<!-- Node10&#45;&gt;Node11 -->
<g id="edge12" class="edge">
<title>Node10&#45;&gt;Node11</title>
<path fill="none" stroke="midnightblue" d="M66.49,-293.6C78.39,-275.26 97.35,-250.18 120,-235 207.96,-176.02 330.03,-148.54 403.2,-136.65"/>
<polygon fill="midnightblue" stroke="midnightblue" points="63.42,-291.9 61.07,-302.23 69.35,-295.62 63.42,-291.9"/>
</g>
<!-- Node11&#45;&gt;Node6 -->
<g id="edge13" class="edge">
<title>Node11&#45;&gt;Node6</title>
<path fill="none" stroke="midnightblue" d="M538.8,-119.84C667.9,-108.02 934.65,-83.6 1054.88,-72.59"/>
<polygon fill="midnightblue" stroke="midnightblue" points="538.26,-116.37 528.62,-120.77 538.9,-123.34 538.26,-116.37"/>
</g>
<!-- Node12&#45;&gt;Node5 -->
<g id="edge16" class="edge">
<title>Node12&#45;&gt;Node5</title>
<path fill="none" stroke="midnightblue" d="M408.75,-432.05C400.08,-389.04 385.88,-282.2 446,-235 494.2,-197.16 669.94,-190.47 764.98,-189.7"/>
<polygon fill="midnightblue" stroke="midnightblue" points="405.36,-432.93 410.89,-441.96 412.2,-431.45 405.36,-432.93"/>
</g>
<!-- Node12&#45;&gt;Node10 -->
<g id="edge15" class="edge">
<title>Node12&#45;&gt;Node10</title>
<path fill="none" stroke="midnightblue" d="M371.23,-439.2C337.2,-429.67 288.08,-415.2 246,-400 215.04,-388.82 131.38,-352.71 85.02,-332.51"/>
<polygon fill="midnightblue" stroke="midnightblue" points="370.71,-442.68 381.28,-441.99 372.58,-435.94 370.71,-442.68"/>
</g>
<!-- Node13 -->
<g id="node13" class="node">
<title>Node13</title>
<g id="a_node13"><a xlink:href="snapshot__serdes_8h.html" target="_top" xlink:title=" ">
<polygon fill="white" stroke="black" points="430,-308 430,-327 582,-327 582,-308 430,-308"/>
<text text-anchor="middle" x="506" y="-315" font-family="Helvetica,sans-Serif" font-size="10.00">src/node/snapshot_serdes.h</text>
</a>
</g>
</g>
<!-- Node12&#45;&gt;Node13 -->
<g id="edge17" class="edge">
<title>Node12&#45;&gt;Node13</title>
<path fill="none" stroke="midnightblue" d="M424.86,-433.66C444.93,-405.18 484.86,-348.5 500,-327.02"/>
<polygon fill="midnightblue" stroke="midnightblue" points="422,-431.65 419.1,-441.84 427.72,-435.68 422,-431.65"/>
</g>
<!-- Node15 -->
<g id="node15" class="node">
<title>Node15</title>
<g id="a_node15"><a xlink:href="tx__receipt_8h.html" target="_top" xlink:title=" ">
<polygon fill="white" stroke="black" points="254.5,-375 254.5,-394 373.5,-394 373.5,-375 254.5,-375"/>
<text text-anchor="middle" x="314" y="-382" font-family="Helvetica,sans-Serif" font-size="10.00">src/node/tx_receipt.h</text>
</a>
</g>
</g>
<!-- Node12&#45;&gt;Node15 -->
<g id="edge20" class="edge">
<title>Node12&#45;&gt;Node15</title>
<path fill="none" stroke="midnightblue" d="M391.06,-436.09C371.47,-423.24 343.44,-404.83 327.14,-394.13"/>
<polygon fill="midnightblue" stroke="midnightblue" points="389.37,-439.17 399.65,-441.73 393.21,-433.32 389.37,-439.17"/>
</g>
<!-- Node14 -->
<g id="node14" class="node">
<title>Node14</title>
<g id="a_node14"><a xlink:href="snapshotter_8h.html" target="_top" xlink:title=" ">
<polygon fill="white" stroke="black" points="454.5,-241 454.5,-260 581.5,-260 581.5,-241 454.5,-241"/>
<text text-anchor="middle" x="518" y="-248" font-family="Helvetica,sans-Serif" font-size="10.00">src/node/snapshotter.h</text>
</a>
</g>
</g>
<!-- Node13&#45;&gt;Node14 -->
<g id="edge18" class="edge">
<title>Node13&#45;&gt;Node14</title>
<path fill="none" stroke="midnightblue" d="M509.5,-297.54C511.78,-285.17 514.65,-269.62 516.41,-260.13"/>
<polygon fill="midnightblue" stroke="midnightblue" points="505.99,-297.26 507.62,-307.73 512.88,-298.54 505.99,-297.26"/>
</g>
<!-- Node14&#45;&gt;Node5 -->
<g id="edge19" class="edge">
<title>Node14&#45;&gt;Node5</title>
<path fill="none" stroke="midnightblue" d="M572.29,-239.05C632.16,-227.52 727.32,-209.19 782.81,-198.51"/>
<polygon fill="midnightblue" stroke="midnightblue" points="571.43,-235.65 562.27,-240.98 572.75,-242.52 571.43,-235.65"/>
</g>
<!-- Node15&#45;&gt;Node10 -->
<g id="edge24" class="edge">
<title>Node15&#45;&gt;Node10</title>
<path fill="none" stroke="midnightblue" d="M269.8,-372.49C224.55,-361.22 154.22,-343.71 106.01,-331.7"/>
<polygon fill="midnightblue" stroke="midnightblue" points="269.06,-375.92 279.61,-374.94 270.75,-369.12 269.06,-375.92"/>
</g>
<!-- Node15&#45;&gt;Node13 -->
<g id="edge26" class="edge">
<title>Node15&#45;&gt;Node13</title>
<path fill="none" stroke="midnightblue" d="M349.15,-371.6C387.21,-358.71 447,-338.47 480.7,-327.06"/>
<polygon fill="midnightblue" stroke="midnightblue" points="347.85,-368.35 339.5,-374.87 350.09,-374.98 347.85,-368.35"/>
</g>
<!-- Node16 -->
<g id="node16" class="node">
<title>Node16</title>
<g id="a_node16"><a xlink:href="src_2apps_2js__v8_2tmpl_2receipt_8h.html" target="_top" xlink:title=" ">
<polygon fill="white" stroke="black" points="262.5,-302.5 262.5,-332.5 373.5,-332.5 373.5,-302.5 262.5,-302.5"/>
<text text-anchor="start" x="270.5" y="-320.5" font-family="Helvetica,sans-Serif" font-size="10.00">src/apps/js_v8/tmpl</text>
<text text-anchor="middle" x="318" y="-309.5" font-family="Helvetica,sans-Serif" font-size="10.00">/receipt.h</text>
</a>
</g>
</g>
<!-- Node15&#45;&gt;Node16 -->
<g id="edge21" class="edge">
<title>Node15&#45;&gt;Node16</title>
<path fill="none" stroke="midnightblue" d="M315.15,-364.74C315.79,-354.49 316.55,-342 317.13,-332.59"/>
<polygon fill="midnightblue" stroke="midnightblue" points="311.66,-364.54 314.54,-374.73 318.65,-364.97 311.66,-364.54"/>
</g>
<!-- Node19 -->
<g id="node19" class="node">
<title>Node19</title>
<g id="a_node19"><a xlink:href="historical__queries__adapter_8cpp.html" target="_top" xlink:title=" ">
<polygon fill="white" stroke="black" points="124,-302.5 124,-332.5 244,-332.5 244,-302.5 124,-302.5"/>
<text text-anchor="start" x="132" y="-320.5" font-family="Helvetica,sans-Serif" font-size="10.00">src/node/historical</text>
<text text-anchor="middle" x="184" y="-309.5" font-family="Helvetica,sans-Serif" font-size="10.00">_queries_adapter.cpp</text>
</a>
</g>
</g>
<!-- Node15&#45;&gt;Node19 -->
<g id="edge25" class="edge">
<title>Node15&#45;&gt;Node19</title>
<path fill="none" stroke="midnightblue" d="M287.68,-370.34C265.8,-359.4 234.72,-343.86 212.3,-332.65"/>
<polygon fill="midnightblue" stroke="midnightblue" points="286.23,-373.53 296.74,-374.87 289.36,-367.27 286.23,-373.53"/>
</g>
<!-- Node17 -->
<g id="node17" class="node">
<title>Node17</title>
<g id="a_node17"><a xlink:href="historical__state_8cpp.html" target="_top" xlink:title=" ">
<polygon fill="white" stroke="black" points="129.5,-235.5 129.5,-265.5 244.5,-265.5 244.5,-235.5 129.5,-235.5"/>
<text text-anchor="start" x="137.5" y="-253.5" font-family="Helvetica,sans-Serif" font-size="10.00">src/apps/js_v8/tmpl</text>
<text text-anchor="middle" x="187" y="-242.5" font-family="Helvetica,sans-Serif" font-size="10.00">/historical_state.cpp</text>
</a>
</g>
</g>
<!-- Node16&#45;&gt;Node17 -->
<g id="edge22" class="edge">
<title>Node16&#45;&gt;Node17</title>
<path fill="none" stroke="midnightblue" d="M280.42,-297.85C259.71,-287.58 234.41,-275.03 215.37,-265.58"/>
<polygon fill="midnightblue" stroke="midnightblue" points="279.06,-301.09 289.57,-302.4 282.17,-294.82 279.06,-301.09"/>
</g>
<!-- Node18 -->
<g id="node18" class="node">
<title>Node18</title>
<g id="a_node18"><a xlink:href="receipt_8cpp.html" target="_top" xlink:title=" ">
<polygon fill="white" stroke="black" points="262.5,-235.5 262.5,-265.5 373.5,-265.5 373.5,-235.5 262.5,-235.5"/>
<text text-anchor="start" x="270.5" y="-253.5" font-family="Helvetica,sans-Serif" font-size="10.00">src/apps/js_v8/tmpl</text>
<text text-anchor="middle" x="318" y="-242.5" font-family="Helvetica,sans-Serif" font-size="10.00">/receipt.cpp</text>
</a>
</g>
</g>
<!-- Node16&#45;&gt;Node18 -->
<g id="edge23" class="edge">
<title>Node16&#45;&gt;Node18</title>
<path fill="none" stroke="midnightblue" d="M318,-292.11C318,-283.15 318,-273.32 318,-265.58"/>
<polygon fill="midnightblue" stroke="midnightblue" points="314.5,-292.4 318,-302.4 321.5,-292.4 314.5,-292.4"/>
</g>
<!-- Node20&#45;&gt;Node5 -->
<g id="edge28" class="edge">
<title>Node20&#45;&gt;Node5</title>
<path fill="none" stroke="midnightblue" d="M1312.2,-364.58C1312.28,-345.87 1309.18,-317.8 1292,-302 1211.01,-227.48 1147.71,-310.38 1047,-266 1027.06,-257.21 1028.5,-244.74 1009,-235 971.44,-216.23 925.52,-204.95 889.2,-198.38"/>
<polygon fill="midnightblue" stroke="midnightblue" points="1308.7,-364.72 1311.85,-374.83 1315.69,-364.96 1308.7,-364.72"/>
</g>
<!-- Node21 -->
<g id="node21" class="node">
<title>Node21</title>
<g id="a_node21"><a xlink:href="member__frontend_8h.html" target="_top" xlink:title=" ">
<polygon fill="white" stroke="black" points="1056,-235.5 1056,-265.5 1176,-265.5 1176,-235.5 1056,-235.5"/>
<text text-anchor="start" x="1064" y="-253.5" font-family="Helvetica,sans-Serif" font-size="10.00">src/node/rpc/member</text>
<text text-anchor="middle" x="1116" y="-242.5" font-family="Helvetica,sans-Serif" font-size="10.00">_frontend.h</text>
</a>
</g>
</g>
<!-- Node20&#45;&gt;Node21 -->
<g id="edge29" class="edge">
<title>Node20&#45;&gt;Node21</title>
<path fill="none" stroke="midnightblue" d="M1321.1,-366C1329.96,-348.06 1339.39,-320.28 1325,-302 1315.65,-290.12 1234.44,-273.05 1176.06,-262.12"/>
<polygon fill="midnightblue" stroke="midnightblue" points="1318,-364.36 1316.38,-374.83 1324.18,-367.65 1318,-364.36"/>
</g>
<!-- Node22 -->
<g id="node22" class="node">
<title>Node22</title>
<g id="a_node22"><a xlink:href="node__frontend_8h.html" target="_top" xlink:title=" ">
<polygon fill="white" stroke="black" points="1125,-308 1125,-327 1283,-327 1283,-308 1125,-308"/>
<text text-anchor="middle" x="1204" y="-315" font-family="Helvetica,sans-Serif" font-size="10.00">src/node/rpc/node_frontend.h</text>
</a>
</g>
</g>
<!-- Node20&#45;&gt;Node22 -->
<g id="edge31" class="edge">
<title>Node20&#45;&gt;Node22</title>
<path fill="none" stroke="midnightblue" d="M1287.86,-369.44C1266.67,-356.57 1235.98,-337.93 1218.2,-327.13"/>
<polygon fill="midnightblue" stroke="midnightblue" points="1286.21,-372.53 1296.57,-374.73 1289.84,-366.55 1286.21,-372.53"/>
</g>
<!-- Node24 -->
<g id="node24" class="node">
<title>Node24</title>
<g id="a_node24"><a xlink:href="user__frontend_8h.html" target="_top" xlink:title=" ">
<polygon fill="white" stroke="black" points="2131.5,-308 2131.5,-327 2286.5,-327 2286.5,-308 2131.5,-308"/>
<text text-anchor="middle" x="2209" y="-315" font-family="Helvetica,sans-Serif" font-size="10.00">src/node/rpc/user_frontend.h</text>
</a>
</g>
</g>
<!-- Node20&#45;&gt;Node24 -->
<g id="edge35" class="edge">
<title>Node20&#45;&gt;Node24</title>
<path fill="none" stroke="midnightblue" d="M1386.07,-381.15C1528.79,-376.15 1848.98,-362.45 2117,-333 2131.14,-331.45 2146.43,-329.25 2160.41,-327.03"/>
<polygon fill="midnightblue" stroke="midnightblue" points="1385.56,-377.66 1375.69,-381.51 1385.81,-384.66 1385.56,-377.66"/>
</g>
<!-- Node21&#45;&gt;Node6 -->
<g id="edge30" class="edge">
<title>Node21&#45;&gt;Node6</title>
<path fill="none" stroke="midnightblue" d="M1116,-225.27C1116,-184.19 1116,-102.69 1116,-75.82"/>
<polygon fill="midnightblue" stroke="midnightblue" points="1112.5,-225.48 1116,-235.48 1119.5,-225.48 1112.5,-225.48"/>
</g>
<!-- Node22&#45;&gt;Node6 -->
<g id="edge32" class="edge">
<title>Node22&#45;&gt;Node6</title>
<path fill="none" stroke="midnightblue" d="M1200.52,-297.74C1197.21,-281.07 1191.76,-256.14 1185,-235 1164.94,-172.23 1131.64,-99.98 1120.09,-75.56"/>
<polygon fill="midnightblue" stroke="midnightblue" points="1197.13,-298.65 1202.45,-307.81 1204,-297.33 1197.13,-298.65"/>
</g>
<!-- Node23 -->
<g id="node23" class="node">
<title>Node23</title>
<g id="a_node23"><a xlink:href="jwt__key__auto__refresh_8h.html" target="_top" xlink:title=" ">
<polygon fill="white" stroke="black" points="874.5,-235.5 874.5,-265.5 999.5,-265.5 999.5,-235.5 874.5,-235.5"/>
<text text-anchor="start" x="882.5" y="-253.5" font-family="Helvetica,sans-Serif" font-size="10.00">src/node/jwt_key_auto</text>
<text text-anchor="middle" x="937" y="-242.5" font-family="Helvetica,sans-Serif" font-size="10.00">_refresh.h</text>
</a>
</g>
</g>
<!-- Node22&#45;&gt;Node23 -->
<g id="edge33" class="edge">
<title>Node22&#45;&gt;Node23</title>
<path fill="none" stroke="midnightblue" d="M1159.01,-305.55C1113.82,-294.55 1044,-277.55 994.75,-265.56"/>
<polygon fill="midnightblue" stroke="midnightblue" points="1158.28,-308.97 1168.82,-307.94 1159.93,-302.17 1158.28,-308.97"/>
</g>
<!-- Node23&#45;&gt;Node5 -->
<g id="edge34" class="edge">
<title>Node23&#45;&gt;Node5</title>
<path fill="none" stroke="midnightblue" d="M901.88,-230.51C882.11,-219.81 858.38,-206.97 843.01,-198.66"/>
<polygon fill="midnightblue" stroke="midnightblue" points="900.47,-233.72 910.93,-235.4 903.8,-227.56 900.47,-233.72"/>
</g>
<!-- Node24&#45;&gt;Node6 -->
<g id="edge36" class="edge">
<title>Node24&#45;&gt;Node6</title>
<path fill="none" stroke="midnightblue" d="M2208.57,-297.95C2206.5,-256.54 2195.09,-156.7 2134,-112 2095.3,-83.68 1391.56,-71.05 1177.35,-67.85"/>
<polygon fill="midnightblue" stroke="midnightblue" points="2205.07,-298.12 2208.94,-307.98 2212.07,-297.86 2205.07,-298.12"/>
</g>
<!-- Node26 -->
<g id="node26" class="node">
<title>Node26</title>
<g id="a_node26"><a xlink:href="kv__module__loader_8cpp.html" target="_top" xlink:title=" ">
<polygon fill="white" stroke="black" points="895.5,-369.5 895.5,-399.5 1038.5,-399.5 1038.5,-369.5 895.5,-369.5"/>
<text text-anchor="start" x="903.5" y="-387.5" font-family="Helvetica,sans-Serif" font-size="10.00">src/apps/js_v8/kv_module</text>
<text text-anchor="middle" x="967" y="-376.5" font-family="Helvetica,sans-Serif" font-size="10.00">_loader.cpp</text>
</a>
</g>
</g>
<!-- Node25&#45;&gt;Node26 -->
<g id="edge38" class="edge">
<title>Node25&#45;&gt;Node26</title>
<path fill="none" stroke="midnightblue" d="M918.15,-429.6C929.02,-419.78 941.7,-408.34 951.41,-399.58"/>
<polygon fill="midnightblue" stroke="midnightblue" points="915.7,-427.1 910.62,-436.4 920.39,-432.29 915.7,-427.1"/>
</g>
<!-- Node27 -->
<g id="node27" class="node">
<title>Node27</title>
<g id="a_node27"><a xlink:href="network__state_8h.html" target="_top" xlink:title=" ">
<polygon fill="white" stroke="black" points="1057,-375 1057,-394 1197,-394 1197,-375 1057,-375"/>
<text text-anchor="middle" x="1127" y="-382" font-family="Helvetica,sans-Serif" font-size="10.00">src/node/network_state.h</text>
</a>
</g>
</g>
<!-- Node25&#45;&gt;Node27 -->
<g id="edge39" class="edge">
<title>Node25&#45;&gt;Node27</title>
<path fill="none" stroke="midnightblue" d="M954.78,-433.75C1000.16,-421.04 1060.67,-404.09 1096.56,-394.03"/>
<polygon fill="midnightblue" stroke="midnightblue" points="953.74,-430.41 945.05,-436.48 955.63,-437.15 953.74,-430.41"/>
</g>
<!-- Node38 -->
<g id="node38" class="node">
<title>Node38</title>
<g id="a_node38"><a xlink:href="genesis__gen_8h.html" target="_top" xlink:title=" ">
<polygon fill="white" stroke="black" points="767,-369.5 767,-399.5 877,-399.5 877,-369.5 767,-369.5"/>
<text text-anchor="start" x="775" y="-387.5" font-family="Helvetica,sans-Serif" font-size="10.00">src/service/genesis</text>
<text text-anchor="middle" x="822" y="-376.5" font-family="Helvetica,sans-Serif" font-size="10.00">_gen.h</text>
</a>
</g>
</g>
<!-- Node25&#45;&gt;Node38 -->
<g id="edge65" class="edge">
<title>Node25&#45;&gt;Node38</title>
<path fill="none" stroke="midnightblue" d="M871.53,-429.6C860.5,-419.78 847.66,-408.34 837.81,-399.58"/>
<polygon fill="midnightblue" stroke="midnightblue" points="869.36,-432.36 879.16,-436.4 874.02,-427.13 869.36,-432.36"/>
</g>
<!-- Node27&#45;&gt;Node5 -->
<g id="edge56" class="edge">
<title>Node27&#45;&gt;Node5</title>
<path fill="none" stroke="midnightblue" d="M1114.26,-367.02C1098.8,-348.23 1070.93,-318.04 1040,-302 969.89,-265.65 928.85,-313.81 866,-266 843.34,-248.76 832.73,-214.63 828.84,-198.64"/>
<polygon fill="midnightblue" stroke="midnightblue" points="1111.66,-369.36 1120.64,-374.99 1117.12,-364.99 1111.66,-369.36"/>
</g>
<!-- Node27&#45;&gt;Node6 -->
<g id="edge40" class="edge">
<title>Node27&#45;&gt;Node6</title>
<path fill="none" stroke="midnightblue" d="M1201.18,-373.64C1213.48,-372.05 1226.09,-370.46 1238,-369 1429.71,-345.56 1973,-410.63 2101,-266 2228.04,-122.45 1411.18,-78.71 1177.3,-69.21"/>
<polygon fill="midnightblue" stroke="midnightblue" points="1200.42,-370.21 1190.96,-374.96 1201.32,-377.15 1200.42,-370.21"/>
</g>
<!-- Node27&#45;&gt;Node14 -->
<g id="edge64" class="edge">
<title>Node27&#45;&gt;Node14</title>
<path fill="none" stroke="midnightblue" d="M1074.01,-373.2C1065.34,-371.68 1056.43,-370.22 1048,-369 896.72,-347.19 853.82,-371.84 706,-333 638.91,-315.37 564.95,-277.31 533.51,-260.17"/>
<polygon fill="midnightblue" stroke="midnightblue" points="1073.59,-376.68 1084.05,-375 1074.82,-369.79 1073.59,-376.68"/>
</g>
<!-- Node27&#45;&gt;Node22 -->
<g id="edge57" class="edge">
<title>Node27&#45;&gt;Node22</title>
<path fill="none" stroke="midnightblue" d="M1145.11,-368.21C1160.28,-355.41 1181.39,-337.59 1193.78,-327.13"/>
<polygon fill="midnightblue" stroke="midnightblue" points="1142.77,-365.61 1137.38,-374.73 1147.28,-370.96 1142.77,-365.61"/>
</g>
<!-- Node27&#45;&gt;Node24 -->
<g id="edge58" class="edge">
<title>Node27&#45;&gt;Node24</title>
<path fill="none" stroke="midnightblue" d="M1194.74,-373.68C1209,-371.88 1223.98,-370.2 1238,-369 1627.57,-335.64 1727.91,-371.5 2117,-333 2131.64,-331.55 2147.5,-329.3 2161.86,-327"/>
<polygon fill="midnightblue" stroke="midnightblue" points="1193.98,-370.25 1184.51,-375 1194.87,-377.19 1193.98,-370.25"/>
</g>
<!-- Node28 -->
<g id="node28" class="node">
<title>Node28</title>
<g id="a_node28"><a xlink:href="wrap_8h.html" target="_top" xlink:title=" ">
<polygon fill="white" stroke="black" points="1467,-308 1467,-327 1545,-327 1545,-308 1467,-308"/>
<text text-anchor="middle" x="1506" y="-315" font-family="Helvetica,sans-Serif" font-size="10.00">src/js/wrap.h</text>
</a>
</g>
</g>
<!-- Node27&#45;&gt;Node28 -->
<g id="edge41" class="edge">
<title>Node27&#45;&gt;Node28</title>
<path fill="none" stroke="midnightblue" d="M1187.15,-373.18C1265.58,-359.73 1400.56,-336.58 1466.89,-325.21"/>
<polygon fill="midnightblue" stroke="midnightblue" points="1186.2,-369.8 1176.94,-374.94 1187.39,-376.69 1186.2,-369.8"/>
</g>
<!-- Node36 -->
<g id="node36" class="node">
<title>Node36</title>
<g id="a_node36"><a xlink:href="secret__broadcast_8h.html" target="_top" xlink:title=" ">
<polygon fill="white" stroke="black" points="714.5,-308 714.5,-327 867.5,-327 867.5,-308 714.5,-308"/>
<text text-anchor="middle" x="791" y="-315" font-family="Helvetica,sans-Serif" font-size="10.00">src/node/secret_broadcast.h</text>
</a>
</g>
</g>
<!-- Node27&#45;&gt;Node36 -->
<g id="edge59" class="edge">
<title>Node27&#45;&gt;Node36</title>
<path fill="none" stroke="midnightblue" d="M1072.51,-372.96C1006.38,-360.16 896.16,-338.84 835.1,-327.03"/>
<polygon fill="midnightblue" stroke="midnightblue" points="1072.25,-376.47 1082.73,-374.94 1073.58,-369.6 1072.25,-376.47"/>
</g>
<!-- Node37 -->
<g id="node37" class="node">
<title>Node37</title>
<g id="a_node37"><a xlink:href="share__manager_8h.html" target="_top" xlink:title=" ">
<polygon fill="white" stroke="black" points="885.5,-308 885.5,-327 1030.5,-327 1030.5,-308 885.5,-308"/>
<text text-anchor="middle" x="958" y="-315" font-family="Helvetica,sans-Serif" font-size="10.00">src/node/share_manager.h</text>
</a>
</g>
</g>
<!-- Node27&#45;&gt;Node37 -->
<g id="edge61" class="edge">
<title>Node27&#45;&gt;Node37</title>
<path fill="none" stroke="midnightblue" d="M1095.2,-371.27C1061.66,-358.37 1009.68,-338.38 980.27,-327.06"/>
<polygon fill="midnightblue" stroke="midnightblue" points="1093.97,-374.55 1104.56,-374.87 1096.48,-368.01 1093.97,-374.55"/>
</g>
<!-- Node28&#45;&gt;Node5 -->
<g id="edge54" class="edge">
<title>Node28&#45;&gt;Node5</title>
<path fill="none" stroke="midnightblue" d="M1456.88,-308.51C1407.97,-300.01 1331.01,-285.15 1266,-266 1229.02,-255.11 1222.39,-244.36 1185,-235 1083.22,-209.52 961.36,-198.12 889.28,-193.28"/>
<polygon fill="midnightblue" stroke="midnightblue" points="1456.42,-311.98 1466.87,-310.23 1457.61,-305.09 1456.42,-311.98"/>
</g>
<!-- Node28&#45;&gt;Node6 -->
<g id="edge43" class="edge">
<title>Node28&#45;&gt;Node6</title>
<path fill="none" stroke="midnightblue" d="M1456.69,-312.6C1412.73,-307.3 1347.95,-294.9 1299,-266 1296.18,-264.33 1158.8,-113.9 1123.96,-75.73"/>
<polygon fill="midnightblue" stroke="midnightblue" points="1456.51,-316.1 1466.84,-313.74 1457.3,-309.14 1456.51,-316.1"/>
</g>
<!-- Node28&#45;&gt;Node21 -->
<g id="edge55" class="edge">
<title>Node28&#45;&gt;Node21</title>
<path fill="none" stroke="midnightblue" d="M1456.74,-308.29C1385.31,-296.38 1253.12,-274.35 1176.07,-261.51"/>
<polygon fill="midnightblue" stroke="midnightblue" points="1456.38,-311.78 1466.82,-309.97 1457.53,-304.87 1456.38,-311.78"/>
</g>
<!-- Node29 -->
<g id="node29" class="node">
<title>Node29</title>
<g id="a_node29"><a xlink:href="js__generic__base_8cpp.html" target="_top" xlink:title=" ">
<polygon fill="white" stroke="black" points="1588,-235.5 1588,-265.5 1706,-265.5 1706,-235.5 1588,-235.5"/>
<text text-anchor="start" x="1596" y="-253.5" font-family="Helvetica,sans-Serif" font-size="10.00">src/apps/js_generic</text>
<text text-anchor="middle" x="1647" y="-242.5" font-family="Helvetica,sans-Serif" font-size="10.00">/js_generic_base.cpp</text>
</a>
</g>
</g>
<!-- Node28&#45;&gt;Node29 -->
<g id="edge42" class="edge">
<title>Node28&#45;&gt;Node29</title>
<path fill="none" stroke="midnightblue" d="M1533.94,-303.62C1557.79,-292.63 1592.03,-276.84 1616.57,-265.53"/>
<polygon fill="midnightblue" stroke="midnightblue" points="1532.34,-300.5 1524.72,-307.87 1535.27,-306.86 1532.34,-300.5"/>
</g>
<!-- Node30 -->
<g id="node30" class="node">
<title>Node30</title>
<g id="a_node30"><a xlink:href="js_2consensus_8cpp.html" target="_top" xlink:title=" ">
<polygon fill="white" stroke="black" points="1308,-241 1308,-260 1424,-260 1424,-241 1308,-241"/>
<text text-anchor="middle" x="1366" y="-248" font-family="Helvetica,sans-Serif" font-size="10.00">src/js/consensus.cpp</text>
</a>
</g>
</g>
<!-- Node28&#45;&gt;Node30 -->
<g id="edge44" class="edge">
<title>Node28&#45;&gt;Node30</title>
<path fill="none" stroke="midnightblue" d="M1478.24,-303.61C1450.51,-290.74 1408.66,-271.31 1384.67,-260.17"/>
<polygon fill="midnightblue" stroke="midnightblue" points="1476.87,-306.83 1487.41,-307.87 1479.81,-300.48 1476.87,-306.83"/>
</g>
<!-- Node31 -->
<g id="node31" class="node">
<title>Node31</title>
<g id="a_node31"><a xlink:href="wrap_8cpp.html" target="_top" xlink:title=" ">
<polygon fill="white" stroke="black" points="1855.5,-179.5 1855.5,-198.5 1944.5,-198.5 1944.5,-179.5 1855.5,-179.5"/>
<text text-anchor="middle" x="1900" y="-186.5" font-family="Helvetica,sans-Serif" font-size="10.00">src/js/wrap.cpp</text>
</a>
</g>
</g>
<!-- Node28&#45;&gt;Node31 -->
<g id="edge53" class="edge">
<title>Node28&#45;&gt;Node31</title>
<path fill="none" stroke="midnightblue" d="M1555.42,-314.61C1666.96,-309.85 1930.57,-295.55 1957,-266 1966.18,-255.73 1963.01,-247.4 1957,-235 1948.97,-218.43 1931.56,-206.13 1918.08,-198.61"/>
<polygon fill="midnightblue" stroke="midnightblue" points="1554.96,-311.13 1545.12,-315.05 1555.25,-318.12 1554.96,-311.13"/>
</g>
<!-- Node32 -->
<g id="node32" class="node">
<title>Node32</title>
<g id="a_node32"><a xlink:href="conv_8cpp.html" target="_top" xlink:title=" ">
<polygon fill="white" stroke="black" points="2004,-241 2004,-260 2092,-260 2092,-241 2004,-241"/>
<text text-anchor="middle" x="2048" y="-248" font-family="Helvetica,sans-Serif" font-size="10.00">src/js/conv.cpp</text>
</a>
</g>
</g>
<!-- Node28&#45;&gt;Node32 -->
<g id="edge46" class="edge">
<title>Node28&#45;&gt;Node32</title>
<path fill="none" stroke="midnightblue" d="M1555.37,-313.66C1643.27,-308.08 1832.5,-293.76 1990,-266 1998.89,-264.43 2008.44,-262.26 2017.17,-260.06"/>
<polygon fill="midnightblue" stroke="midnightblue" points="1554.92,-310.18 1545.16,-314.29 1555.35,-317.16 1554.92,-310.18"/>
</g>
<!-- Node33 -->
<g id="node33" class="node">
<title>Node33</title>
<g id="a_node33"><a xlink:href="js_2crypto_8cpp.html" target="_top" xlink:title=" ">
<polygon fill="white" stroke="black" points="1852,-241 1852,-260 1948,-260 1948,-241 1852,-241"/>
<text text-anchor="middle" x="1900" y="-248" font-family="Helvetica,sans-Serif" font-size="10.00">src/js/crypto.cpp</text>
</a>
</g>
</g>
<!-- Node28&#45;&gt;Node33 -->
<g id="edge48" class="edge">
<title>Node28&#45;&gt;Node33</title>
<path fill="none" stroke="midnightblue" d="M1555.24,-310.7C1621.12,-302.57 1741.44,-286.47 1843,-266 1851.41,-264.31 1860.44,-262.16 1868.77,-260.05"/>
<polygon fill="midnightblue" stroke="midnightblue" points="1554.64,-307.24 1545.14,-311.93 1555.49,-314.19 1554.64,-307.24"/>
</g>
<!-- Node34 -->
<g id="node34" class="node">
<title>Node34</title>
<g id="a_node34"><a xlink:href="js_2historical_8cpp.html" target="_top" xlink:title=" ">
<polygon fill="white" stroke="black" points="1724,-241 1724,-260 1834,-260 1834,-241 1724,-241"/>
<text text-anchor="middle" x="1779" y="-248" font-family="Helvetica,sans-Serif" font-size="10.00">src/js/historical.cpp</text>
</a>
</g>
</g>
<!-- Node28&#45;&gt;Node34 -->
<g id="edge50" class="edge">
<title>Node28&#45;&gt;Node34</title>
<path fill="none" stroke="midnightblue" d="M1551.93,-305.56C1605.75,-292.75 1693.8,-271.78 1742.95,-260.08"/>
<polygon fill="midnightblue" stroke="midnightblue" points="1550.89,-302.21 1541.97,-307.94 1552.51,-309.02 1550.89,-302.21"/>
</g>
<!-- Node35 -->
<g id="node35" class="node">
<title>Node35</title>
<g id="a_node35"><a xlink:href="openenclave_8cpp.html" target="_top" xlink:title=" ">
<polygon fill="white" stroke="black" points="1442,-241 1442,-260 1570,-260 1570,-241 1442,-241"/>
<text text-anchor="middle" x="1506" y="-248" font-family="Helvetica,sans-Serif" font-size="10.00">src/js/openenclave.cpp</text>
</a>
</g>
</g>
<!-- Node28&#45;&gt;Node35 -->
<g id="edge52" class="edge">
<title>Node28&#45;&gt;Node35</title>
<path fill="none" stroke="midnightblue" d="M1506,-297.54C1506,-285.17 1506,-269.62 1506,-260.13"/>
<polygon fill="midnightblue" stroke="midnightblue" points="1502.5,-297.73 1506,-307.73 1509.5,-297.73 1502.5,-297.73"/>
</g>
<!-- Node30&#45;&gt;Node31 -->
<g id="edge45" class="edge">
<title>Node30&#45;&gt;Node31</title>
<path fill="none" stroke="midnightblue" d="M1411.84,-238.84C1418.9,-237.41 1426.13,-236.07 1433,-235 1587.12,-210.98 1771.98,-197.72 1855.35,-192.56"/>
<polygon fill="midnightblue" stroke="midnightblue" points="1410.74,-235.49 1401.67,-240.97 1412.18,-242.34 1410.74,-235.49"/>
</g>
<!-- Node32&#45;&gt;Node31 -->
<g id="edge47" class="edge">
<title>Node32&#45;&gt;Node31</title>
<path fill="none" stroke="midnightblue" d="M2017.23,-237.13C1988.48,-225.57 1946.32,-208.62 1921.17,-198.51"/>
<polygon fill="midnightblue" stroke="midnightblue" points="2016.21,-240.49 2026.8,-240.98 2018.82,-234 2016.21,-240.49"/>
</g>
<!-- Node33&#45;&gt;Node31 -->
<g id="edge49" class="edge">
<title>Node33&#45;&gt;Node31</title>
<path fill="none" stroke="midnightblue" d="M1900,-230.82C1900,-220 1900,-206.9 1900,-198.51"/>
<polygon fill="midnightblue" stroke="midnightblue" points="1896.5,-230.98 1900,-240.98 1903.5,-230.98 1896.5,-230.98"/>
</g>
<!-- Node34&#45;&gt;Node31 -->
<g id="edge51" class="edge">
<title>Node34&#45;&gt;Node31</title>
<path fill="none" stroke="midnightblue" d="M1805.39,-236.52C1828.86,-224.98 1862.49,-208.44 1882.7,-198.51"/>
<polygon fill="midnightblue" stroke="midnightblue" points="1803.77,-233.42 1796.34,-240.98 1806.85,-239.7 1803.77,-233.42"/>
</g>
<!-- Node36&#45;&gt;Node5 -->
<g id="edge60" class="edge">
<title>Node36&#45;&gt;Node5</title>
<path fill="none" stroke="midnightblue" d="M788.6,-297.39C787.2,-280.49 786.89,-255.43 794,-235 798.97,-220.73 810.13,-207.14 818.1,-198.7"/>
<polygon fill="midnightblue" stroke="midnightblue" points="785.15,-298.04 789.67,-307.63 792.11,-297.32 785.15,-298.04"/>
</g>
<!-- Node37&#45;&gt;Node5 -->
<g id="edge62" class="edge">
<title>Node37&#45;&gt;Node5</title>
<path fill="none" stroke="midnightblue" d="M892.22,-305.05C869.55,-297.72 846.29,-285.69 832,-266 817.4,-245.88 821.55,-214.32 824.78,-198.98"/>
<polygon fill="midnightblue" stroke="midnightblue" points="891.29,-308.43 901.87,-307.92 893.28,-301.72 891.29,-308.43"/>
</g>
<!-- Node37&#45;&gt;Node21 -->
<g id="edge63" class="edge">
<title>Node37&#45;&gt;Node21</title>
<path fill="none" stroke="midnightblue" d="M988.24,-304.06C1015.01,-293.05 1054.03,-276.99 1081.9,-265.53"/>
<polygon fill="midnightblue" stroke="midnightblue" points="986.9,-300.83 978.98,-307.87 989.56,-307.3 986.9,-300.83"/>
</g>
<!-- Node38&#45;&gt;Node5 -->
<g id="edge66" class="edge">
<title>Node38&#45;&gt;Node5</title>
<path fill="none" stroke="midnightblue" d="M757.18,-370C737.38,-362.51 717.74,-350.92 706,-333 698.45,-321.48 700.48,-314.62 706,-302 727.78,-252.16 783.88,-214.61 811.36,-198.56"/>
<polygon fill="midnightblue" stroke="midnightblue" points="756.29,-373.4 766.89,-373.36 758.58,-366.78 756.29,-373.4"/>
</g>
<!-- Node38&#45;&gt;Node21 -->
<g id="edge67" class="edge">
<title>Node38&#45;&gt;Node21</title>
<path fill="none" stroke="midnightblue" d="M887.12,-368.89C950.12,-354.69 1036.59,-334.97 1040,-333 1069.31,-316.06 1094.07,-284.2 1106.79,-265.73"/>
<polygon fill="midnightblue" stroke="midnightblue" points="886.22,-365.51 877.23,-371.12 887.75,-372.34 886.22,-365.51"/>
</g>
<!-- Node38&#45;&gt;Node22 -->
<g id="edge68" class="edge">
<title>Node38&#45;&gt;Node22</title>
<path fill="none" stroke="midnightblue" d="M887.23,-369.1C935.14,-360.58 1071.73,-339.14 1149.2,-327.04"/>
<polygon fill="midnightblue" stroke="midnightblue" points="886.47,-365.68 877.27,-370.93 887.74,-372.56 886.47,-365.68"/>
</g>
<!-- Node38&#45;&gt;Node36 -->
<g id="edge69" class="edge">
<title>Node38&#45;&gt;Node36</title>
<path fill="none" stroke="midnightblue" d="M810.93,-360.29C805.45,-348.8 799.17,-335.63 795.15,-327.19"/>
<polygon fill="midnightblue" stroke="midnightblue" points="807.81,-361.88 815.27,-369.4 814.13,-358.86 807.81,-361.88"/>
</g>
<!-- Node38&#45;&gt;Node37 -->
<g id="edge70" class="edge">
<title>Node38&#45;&gt;Node37</title>
<path fill="none" stroke="midnightblue" d="M860.78,-364.97C886.9,-352.48 920.13,-336.6 940.2,-327.01"/>
<polygon fill="midnightblue" stroke="midnightblue" points="859.02,-361.93 851.51,-369.4 862.04,-368.24 859.02,-361.93"/>
</g>
</g>
</svg>
