<?xml version="1.0" encoding="UTF-8" standalone="no"?>
<!DOCTYPE svg PUBLIC "-//W3C//DTD SVG 1.1//EN"
 "http://www.w3.org/Graphics/SVG/1.1/DTD/svg11.dtd">
<!-- Generated by graphviz version 2.43.0 (0)
 -->
<!-- Title: src/service/tables/snapshot_evidence.h Pages: 1 -->
<svg width="2354pt" height="654pt"
 viewBox="0.00 0.00 2353.50 654.00" xmlns="http://www.w3.org/2000/svg" xmlns:xlink="http://www.w3.org/1999/xlink">
<g id="graph0" class="graph" transform="scale(1 1) rotate(0) translate(4 650)">
<title>src/service/tables/snapshot_evidence.h</title>
<polygon fill="white" stroke="transparent" points="-4,4 -4,-650 2349.5,-650 2349.5,4 -4,4"/>
<!-- Node1 -->
<g id="node1" class="node">
<title>Node1</title>
<g id="a_node1"><a xlink:title=" ">
<polygon fill="#bfbfbf" stroke="black" points="1129.5,-615.5 1129.5,-645.5 1251.5,-645.5 1251.5,-615.5 1129.5,-615.5"/>
<text text-anchor="start" x="1137.5" y="-633.5" font-family="Helvetica,sans-Serif" font-size="10.00">src/service/tables</text>
<text text-anchor="middle" x="1190.5" y="-622.5" font-family="Helvetica,sans-Serif" font-size="10.00">/snapshot_evidence.h</text>
</a>
</g>
</g>
<!-- Node2 -->
<g id="node2" class="node">
<title>Node2</title>
<g id="a_node2"><a xlink:href="deserialise_8h.html" target="_top" xlink:title=" ">
<polygon fill="white" stroke="black" points="718,-559.5 718,-578.5 829,-578.5 829,-559.5 718,-559.5"/>
<text text-anchor="middle" x="773.5" y="-566.5" font-family="Helvetica,sans-Serif" font-size="10.00">src/kv/deserialise.h</text>
</a>
</g>
</g>
<!-- Node1&#45;&gt;Node2 -->
<g id="edge1" class="edge">
<title>Node1&#45;&gt;Node2</title>
<path fill="none" stroke="midnightblue" d="M1119.42,-619.36C1037.32,-607.64 903.96,-588.61 829.08,-577.93"/>
<polygon fill="midnightblue" stroke="midnightblue" points="1119.02,-622.84 1129.42,-620.78 1120.01,-615.91 1119.02,-622.84"/>
</g>
<!-- Node15 -->
<g id="node15" class="node">
<title>Node15</title>
<g id="a_node15"><a xlink:href="snapshotter_8h.html" target="_top" xlink:title=" ">
<polygon fill="white" stroke="black" points="1274,-241 1274,-260 1401,-260 1401,-241 1274,-241"/>
<text text-anchor="middle" x="1337.5" y="-248" font-family="Helvetica,sans-Serif" font-size="10.00">src/node/snapshotter.h</text>
</a>
</g>
</g>
<!-- Node1&#45;&gt;Node15 -->
<g id="edge72" class="edge">
<title>Node1&#45;&gt;Node15</title>
<path fill="none" stroke="midnightblue" d="M1261.92,-619.51C1360.03,-603.75 1524.5,-569.11 1524.5,-514 1524.5,-514 1524.5,-514 1524.5,-383.5 1524.5,-343.15 1514.76,-328.69 1484.5,-302 1459.1,-279.6 1423.28,-267.03 1393.35,-260.03"/>
<polygon fill="midnightblue" stroke="midnightblue" points="1261.09,-616.1 1251.76,-621.11 1262.18,-623.01 1261.09,-616.1"/>
</g>
<!-- Node26 -->
<g id="node26" class="node">
<title>Node26</title>
<g id="a_node26"><a xlink:href="network__tables_8h.html" target="_top" xlink:title=" ">
<polygon fill="white" stroke="black" points="1134.5,-436.5 1134.5,-466.5 1246.5,-466.5 1246.5,-436.5 1134.5,-436.5"/>
<text text-anchor="start" x="1142.5" y="-454.5" font-family="Helvetica,sans-Serif" font-size="10.00">src/service/network</text>
<text text-anchor="middle" x="1190.5" y="-443.5" font-family="Helvetica,sans-Serif" font-size="10.00">_tables.h</text>
</a>
</g>
</g>
<!-- Node1&#45;&gt;Node26 -->
<g id="edge73" class="edge">
<title>Node1&#45;&gt;Node26</title>
<path fill="none" stroke="midnightblue" d="M1190.5,-605.26C1190.5,-567.8 1190.5,-496.98 1190.5,-466.75"/>
<polygon fill="midnightblue" stroke="midnightblue" points="1187,-605.31 1190.5,-615.31 1194,-605.31 1187,-605.31"/>
</g>
<!-- Node3 -->
<g id="node3" class="node">
<title>Node3</title>
<g id="a_node3"><a xlink:href="store_8h.html" target="_top" xlink:title=" ">
<polygon fill="white" stroke="black" points="442,-503.5 442,-522.5 525,-522.5 525,-503.5 442,-503.5"/>
<text text-anchor="middle" x="483.5" y="-510.5" font-family="Helvetica,sans-Serif" font-size="10.00">src/kv/store.h</text>
</a>
</g>
</g>
<!-- Node2&#45;&gt;Node3 -->
<g id="edge2" class="edge">
<title>Node2&#45;&gt;Node3</title>
<path fill="none" stroke="midnightblue" d="M717.38,-557.55C661.03,-547.06 575.52,-531.13 525.01,-521.73"/>
<polygon fill="midnightblue" stroke="midnightblue" points="717.08,-561.05 727.55,-559.44 718.36,-554.17 717.08,-561.05"/>
</g>
<!-- Node4 -->
<g id="node4" class="node">
<title>Node4</title>
<g id="a_node4"><a xlink:href="logging_8cpp.html" target="_top" xlink:title=" ">
<polygon fill="white" stroke="black" points="467,-436.5 467,-466.5 590,-466.5 590,-436.5 467,-436.5"/>
<text text-anchor="start" x="475" y="-454.5" font-family="Helvetica,sans-Serif" font-size="10.00">samples/apps/logging</text>
<text text-anchor="middle" x="528.5" y="-443.5" font-family="Helvetica,sans-Serif" font-size="10.00">/logging.cpp</text>
</a>
</g>
</g>
<!-- Node3&#45;&gt;Node4 -->
<g id="edge3" class="edge">
<title>Node3&#45;&gt;Node4</title>
<path fill="none" stroke="midnightblue" d="M496.17,-495.25C503.02,-486.19 511.39,-475.12 517.89,-466.52"/>
<polygon fill="midnightblue" stroke="midnightblue" points="493.19,-493.39 489.95,-503.48 498.77,-497.61 493.19,-493.39"/>
</g>
<!-- Node5 -->
<g id="node5" class="node">
<title>Node5</title>
<g id="a_node5"><a xlink:href="indexer_8h.html" target="_top" xlink:title=" ">
<polygon fill="white" stroke="black" points="608,-442 608,-461 731,-461 731,-442 608,-442"/>
<text text-anchor="middle" x="669.5" y="-449" font-family="Helvetica,sans-Serif" font-size="10.00">src/indexing/indexer.h</text>
</a>
</g>
</g>
<!-- Node3&#45;&gt;Node5 -->
<g id="edge4" class="edge">
<title>Node3&#45;&gt;Node5</title>
<path fill="none" stroke="midnightblue" d="M519.82,-500.38C555.98,-488.82 610.6,-471.34 642.9,-461.01"/>
<polygon fill="midnightblue" stroke="midnightblue" points="518.61,-497.09 510.15,-503.48 520.74,-503.76 518.61,-497.09"/>
</g>
<!-- Node10 -->
<g id="node10" class="node">
<title>Node10</title>
<g id="a_node10"><a xlink:href="visit__each__entry__in__map_8cpp.html" target="_top" xlink:title=" ">
<polygon fill="white" stroke="black" points="0,-436.5 0,-466.5 161,-466.5 161,-436.5 0,-436.5"/>
<text text-anchor="start" x="8" y="-454.5" font-family="Helvetica,sans-Serif" font-size="10.00">src/indexing/strategies</text>
<text text-anchor="middle" x="80.5" y="-443.5" font-family="Helvetica,sans-Serif" font-size="10.00">/visit_each_entry_in_map.cpp</text>
</a>
</g>
</g>
<!-- Node3&#45;&gt;Node10 -->
<g id="edge10" class="edge">
<title>Node3&#45;&gt;Node10</title>
<path fill="none" stroke="midnightblue" d="M431.46,-504.5C370.21,-495.65 265.43,-480.43 175.5,-467 170.8,-466.3 165.96,-465.57 161.09,-464.84"/>
<polygon fill="midnightblue" stroke="midnightblue" points="431.24,-508 441.64,-505.97 432.24,-501.08 431.24,-508"/>
</g>
<!-- Node11 -->
<g id="node11" class="node">
<title>Node11</title>
<g id="a_node11"><a xlink:href="historical__queries_8h.html" target="_top" xlink:title=" ">
<polygon fill="white" stroke="black" points="1.5,-302.5 1.5,-332.5 107.5,-332.5 107.5,-302.5 1.5,-302.5"/>
<text text-anchor="start" x="9.5" y="-320.5" font-family="Helvetica,sans-Serif" font-size="10.00">src/node/historical</text>
<text text-anchor="middle" x="54.5" y="-309.5" font-family="Helvetica,sans-Serif" font-size="10.00">_queries.h</text>
</a>
</g>
</g>
<!-- Node3&#45;&gt;Node11 -->
<g id="edge11" class="edge">
<title>Node3&#45;&gt;Node11</title>
<path fill="none" stroke="midnightblue" d="M431.58,-503.68C393.97,-496.62 342.41,-484.76 299.5,-467 208.96,-429.53 112.68,-361.79 73.11,-332.56"/>
<polygon fill="midnightblue" stroke="midnightblue" points="431.34,-507.2 441.8,-505.55 432.59,-500.31 431.34,-507.2"/>
</g>
<!-- Node13 -->
<g id="node13" class="node">
<title>Node13</title>
<g id="a_node13"><a xlink:href="history_8h.html" target="_top" xlink:title=" ">
<polygon fill="white" stroke="black" points="308.5,-442 308.5,-461 410.5,-461 410.5,-442 308.5,-442"/>
<text text-anchor="middle" x="359.5" y="-449" font-family="Helvetica,sans-Serif" font-size="10.00">src/node/history.h</text>
</a>
</g>
</g>
<!-- Node3&#45;&gt;Node13 -->
<g id="edge15" class="edge">
<title>Node3&#45;&gt;Node13</title>
<path fill="none" stroke="midnightblue" d="M456.45,-499.02C432.4,-487.48 397.94,-470.94 377.23,-461.01"/>
<polygon fill="midnightblue" stroke="midnightblue" points="455.2,-502.3 465.73,-503.48 458.23,-495.99 455.2,-502.3"/>
</g>
<!-- Node21 -->
<g id="node21" class="node">
<title>Node21</title>
<g id="a_node21"><a xlink:href="frontend_8h.html" target="_top" xlink:title=" ">
<polygon fill="white" stroke="black" points="691,-375 691,-394 820,-394 820,-375 691,-375"/>
<text text-anchor="middle" x="755.5" y="-382" font-family="Helvetica,sans-Serif" font-size="10.00">src/node/rpc/frontend.h</text>
</a>
</g>
</g>
<!-- Node3&#45;&gt;Node21 -->
<g id="edge28" class="edge">
<title>Node3&#45;&gt;Node21</title>
<path fill="none" stroke="midnightblue" d="M469.61,-495.21C457.56,-478.52 444.13,-453.01 458.5,-436 487.64,-401.48 612.7,-390.55 690.95,-387.1"/>
<polygon fill="midnightblue" stroke="midnightblue" points="467.1,-497.69 475.98,-503.47 472.64,-493.41 467.1,-497.69"/>
</g>
<!-- Node3&#45;&gt;Node26 -->
<g id="edge38" class="edge">
<title>Node3&#45;&gt;Node26</title>
<path fill="none" stroke="midnightblue" d="M535.12,-507.66C664.3,-496.78 1000.74,-468.47 1134.49,-457.21"/>
<polygon fill="midnightblue" stroke="midnightblue" points="534.76,-504.17 525.09,-508.5 535.34,-511.15 534.76,-504.17"/>
</g>
<!-- Node6 -->
<g id="node6" class="node">
<title>Node6</title>
<g id="a_node6"><a xlink:href="node__state_8h.html" target="_top" xlink:title=" ">
<polygon fill="white" stroke="black" points="969.5,-179.5 969.5,-198.5 1093.5,-198.5 1093.5,-179.5 969.5,-179.5"/>
<text text-anchor="middle" x="1031.5" y="-186.5" font-family="Helvetica,sans-Serif" font-size="10.00">src/node/node_state.h</text>
</a>
</g>
</g>
<!-- Node5&#45;&gt;Node6 -->
<g id="edge5" class="edge">
<title>Node5&#45;&gt;Node6</title>
<path fill="none" stroke="midnightblue" d="M663.39,-432.16C654.85,-403.34 642.2,-346.16 659.5,-302 674.3,-264.22 685.59,-253.88 721.5,-235 763.38,-212.98 891.54,-200.1 969.35,-194.11"/>
<polygon fill="midnightblue" stroke="midnightblue" points="660.06,-433.24 666.4,-441.74 666.74,-431.15 660.06,-433.24"/>
</g>
<!-- Node7 -->
<g id="node7" class="node">
<title>Node7</title>
<g id="a_node7"><a xlink:href="enclave_2enclave_8h.html" target="_top" xlink:title=" ">
<polygon fill="white" stroke="black" points="770.5,-56.5 770.5,-75.5 892.5,-75.5 892.5,-56.5 770.5,-56.5"/>
<text text-anchor="middle" x="831.5" y="-63.5" font-family="Helvetica,sans-Serif" font-size="10.00">src/enclave/enclave.h</text>
</a>
</g>
</g>
<!-- Node6&#45;&gt;Node7 -->
<g id="edge6" class="edge">
<title>Node6&#45;&gt;Node7</title>
<path fill="none" stroke="midnightblue" d="M1031.93,-168.86C1031.24,-151.68 1027.43,-126.91 1012.5,-112 995.66,-95.18 938.48,-82.84 892.84,-75.38"/>
<polygon fill="midnightblue" stroke="midnightblue" points="1028.43,-169.36 1032,-179.34 1035.43,-169.32 1028.43,-169.36"/>
</g>
<!-- Node9 -->
<g id="node9" class="node">
<title>Node9</title>
<g id="a_node9"><a xlink:href="gov__effects_8h.html" target="_top" xlink:title=" ">
<polygon fill="white" stroke="black" points="859.5,-118 859.5,-137 1003.5,-137 1003.5,-118 859.5,-118"/>
<text text-anchor="middle" x="931.5" y="-125" font-family="Helvetica,sans-Serif" font-size="10.00">src/node/rpc/gov_effects.h</text>
</a>
</g>
</g>
<!-- Node6&#45;&gt;Node9 -->
<g id="edge8" class="edge">
<title>Node6&#45;&gt;Node9</title>
<path fill="none" stroke="midnightblue" d="M1008.38,-174.24C989.06,-162.75 962.13,-146.72 945.8,-137.01"/>
<polygon fill="midnightblue" stroke="midnightblue" points="1006.79,-177.37 1017.17,-179.48 1010.37,-171.35 1006.79,-177.37"/>
</g>
<!-- Node8 -->
<g id="node8" class="node">
<title>Node8</title>
<g id="a_node8"><a xlink:href="enclave_2main_8cpp.html" target="_top" xlink:title=" ">
<polygon fill="white" stroke="black" points="771.5,-0.5 771.5,-19.5 891.5,-19.5 891.5,-0.5 771.5,-0.5"/>
<text text-anchor="middle" x="831.5" y="-7.5" font-family="Helvetica,sans-Serif" font-size="10.00">src/enclave/main.cpp</text>
</a>
</g>
</g>
<!-- Node7&#45;&gt;Node8 -->
<g id="edge7" class="edge">
<title>Node7&#45;&gt;Node8</title>
<path fill="none" stroke="midnightblue" d="M831.5,-45.8C831.5,-36.91 831.5,-26.78 831.5,-19.75"/>
<polygon fill="midnightblue" stroke="midnightblue" points="828,-46.08 831.5,-56.08 835,-46.08 828,-46.08"/>
</g>
<!-- Node9&#45;&gt;Node7 -->
<g id="edge9" class="edge">
<title>Node9&#45;&gt;Node7</title>
<path fill="none" stroke="midnightblue" d="M908.38,-112.74C889.06,-101.25 862.13,-85.22 845.8,-75.51"/>
<polygon fill="midnightblue" stroke="midnightblue" points="906.79,-115.87 917.17,-117.98 910.37,-109.85 906.79,-115.87"/>
</g>
<!-- Node11&#45;&gt;Node7 -->
<g id="edge12" class="edge">
<title>Node11&#45;&gt;Node7</title>
<path fill="none" stroke="midnightblue" d="M89.67,-297.68C121.68,-280.73 170.38,-255.43 213.5,-235 337.07,-176.45 363.8,-148.76 495.5,-112 589.32,-85.81 702.26,-74.68 770.39,-70.08"/>
<polygon fill="midnightblue" stroke="midnightblue" points="87.89,-294.66 80.69,-302.44 91.17,-300.84 87.89,-294.66"/>
</g>
<!-- Node12 -->
<g id="node12" class="node">
<title>Node12</title>
<g id="a_node12"><a xlink:href="historical__transaction__fetcher_8h.html" target="_top" xlink:title=" ">
<polygon fill="white" stroke="black" points="9,-112.5 9,-142.5 134,-142.5 134,-112.5 9,-112.5"/>
<text text-anchor="start" x="17" y="-130.5" font-family="Helvetica,sans-Serif" font-size="10.00">src/indexing/historical</text>
<text text-anchor="middle" x="71.5" y="-119.5" font-family="Helvetica,sans-Serif" font-size="10.00">_transaction_fetcher.h</text>
</a>
</g>
</g>
<!-- Node11&#45;&gt;Node12 -->
<g id="edge13" class="edge">
<title>Node11&#45;&gt;Node12</title>
<path fill="none" stroke="midnightblue" d="M56.7,-292.21C60.3,-252.37 67.35,-174.37 70.23,-142.54"/>
<polygon fill="midnightblue" stroke="midnightblue" points="53.19,-292.09 55.78,-302.37 60.16,-292.73 53.19,-292.09"/>
</g>
<!-- Node12&#45;&gt;Node7 -->
<g id="edge14" class="edge">
<title>Node12&#45;&gt;Node7</title>
<path fill="none" stroke="midnightblue" d="M144.37,-115.48C154.15,-114.2 164.06,-112.99 173.5,-112 392.43,-88.98 653.62,-75.16 770.14,-69.7"/>
<polygon fill="midnightblue" stroke="midnightblue" points="143.7,-112.04 134.26,-116.85 144.63,-118.98 143.7,-112.04"/>
</g>
<!-- Node13&#45;&gt;Node6 -->
<g id="edge17" class="edge">
<title>Node13&#45;&gt;Node6</title>
<path fill="none" stroke="midnightblue" d="M368.78,-432.74C373.67,-423.14 379.64,-411.03 384.5,-400 403.33,-357.25 387.7,-333.17 422.5,-302 502.78,-230.1 830.87,-202.12 969.36,-193.37"/>
<polygon fill="midnightblue" stroke="midnightblue" points="365.64,-431.18 364.17,-441.67 371.87,-434.39 365.64,-431.18"/>
</g>
<!-- Node13&#45;&gt;Node11 -->
<g id="edge16" class="edge">
<title>Node13&#45;&gt;Node11</title>
<path fill="none" stroke="midnightblue" d="M327.45,-437.96C304.61,-428.57 273.48,-414.83 247.5,-400 226.72,-388.14 224.82,-379.84 203.5,-369 173.06,-353.53 136.83,-341.13 107.71,-332.48"/>
<polygon fill="midnightblue" stroke="midnightblue" points="326.42,-441.32 337,-441.83 329.05,-434.83 326.42,-441.32"/>
</g>
<!-- Node14 -->
<g id="node14" class="node">
<title>Node14</title>
<g id="a_node14"><a xlink:href="snapshot__serdes_8h.html" target="_top" xlink:title=" ">
<polygon fill="white" stroke="black" points="431.5,-308 431.5,-327 583.5,-327 583.5,-308 431.5,-308"/>
<text text-anchor="middle" x="507.5" y="-315" font-family="Helvetica,sans-Serif" font-size="10.00">src/node/snapshot_serdes.h</text>
</a>
</g>
</g>
<!-- Node13&#45;&gt;Node14 -->
<g id="edge18" class="edge">
<title>Node13&#45;&gt;Node14</title>
<path fill="none" stroke="midnightblue" d="M377.04,-435.38C388.59,-425.39 404,-411.98 417.5,-400 447.13,-373.69 481.78,-342.07 498.1,-327.13"/>
<polygon fill="midnightblue" stroke="midnightblue" points="374.68,-432.79 369.4,-441.98 379.26,-438.09 374.68,-432.79"/>
</g>
<!-- Node16 -->
<g id="node16" class="node">
<title>Node16</title>
<g id="a_node16"><a xlink:href="tx__receipt_8h.html" target="_top" xlink:title=" ">
<polygon fill="white" stroke="black" points="256,-375 256,-394 375,-394 375,-375 256,-375"/>
<text text-anchor="middle" x="315.5" y="-382" font-family="Helvetica,sans-Serif" font-size="10.00">src/node/tx_receipt.h</text>
</a>
</g>
</g>
<!-- Node13&#45;&gt;Node16 -->
<g id="edge21" class="edge">
<title>Node13&#45;&gt;Node16</title>
<path fill="none" stroke="midnightblue" d="M347.93,-433.4C339.38,-420.77 328.09,-404.1 321.34,-394.13"/>
<polygon fill="midnightblue" stroke="midnightblue" points="345.06,-435.41 353.57,-441.73 350.86,-431.49 345.06,-435.41"/>
</g>
<!-- Node14&#45;&gt;Node15 -->
<g id="edge19" class="edge">
<title>Node14&#45;&gt;Node15</title>
<path fill="none" stroke="midnightblue" d="M593.69,-308.46C618.18,-306.27 644.88,-303.96 669.5,-302 899.99,-283.69 958.08,-285.2 1188.5,-266 1216.47,-263.67 1247.36,-260.72 1273.73,-258.1"/>
<polygon fill="midnightblue" stroke="midnightblue" points="593.35,-304.98 583.7,-309.36 593.98,-311.95 593.35,-304.98"/>
</g>
<!-- Node15&#45;&gt;Node6 -->
<g id="edge20" class="edge">
<title>Node15&#45;&gt;Node6</title>
<path fill="none" stroke="midnightblue" d="M1283.73,-239.05C1224.45,-227.52 1130.21,-209.19 1075.26,-198.51"/>
<polygon fill="midnightblue" stroke="midnightblue" points="1283.17,-242.5 1293.66,-240.98 1284.51,-235.63 1283.17,-242.5"/>
</g>
<!-- Node16&#45;&gt;Node11 -->
<g id="edge25" class="edge">
<title>Node16&#45;&gt;Node11</title>
<path fill="none" stroke="midnightblue" d="M271.3,-372.49C226.05,-361.22 155.72,-343.71 107.51,-331.7"/>
<polygon fill="midnightblue" stroke="midnightblue" points="270.56,-375.92 281.11,-374.94 272.25,-369.12 270.56,-375.92"/>
</g>
<!-- Node16&#45;&gt;Node14 -->
<g id="edge27" class="edge">
<title>Node16&#45;&gt;Node14</title>
<path fill="none" stroke="midnightblue" d="M350.65,-371.6C388.71,-358.71 448.5,-338.47 482.2,-327.06"/>
<polygon fill="midnightblue" stroke="midnightblue" points="349.35,-368.35 341,-374.87 351.59,-374.98 349.35,-368.35"/>
</g>
<!-- Node17 -->
<g id="node17" class="node">
<title>Node17</title>
<g id="a_node17"><a xlink:href="src_2apps_2js__v8_2tmpl_2receipt_8h.html" target="_top" xlink:title=" ">
<polygon fill="white" stroke="black" points="264,-302.5 264,-332.5 375,-332.5 375,-302.5 264,-302.5"/>
<text text-anchor="start" x="272" y="-320.5" font-family="Helvetica,sans-Serif" font-size="10.00">src/apps/js_v8/tmpl</text>
<text text-anchor="middle" x="319.5" y="-309.5" font-family="Helvetica,sans-Serif" font-size="10.00">/receipt.h</text>
</a>
</g>
</g>
<!-- Node16&#45;&gt;Node17 -->
<g id="edge22" class="edge">
<title>Node16&#45;&gt;Node17</title>
<path fill="none" stroke="midnightblue" d="M316.65,-364.74C317.29,-354.49 318.05,-342 318.63,-332.59"/>
<polygon fill="midnightblue" stroke="midnightblue" points="313.16,-364.54 316.04,-374.73 320.15,-364.97 313.16,-364.54"/>
</g>
<!-- Node20 -->
<g id="node20" class="node">
<title>Node20</title>
<g id="a_node20"><a xlink:href="historical__queries__adapter_8cpp.html" target="_top" xlink:title=" ">
<polygon fill="white" stroke="black" points="125.5,-302.5 125.5,-332.5 245.5,-332.5 245.5,-302.5 125.5,-302.5"/>
<text text-anchor="start" x="133.5" y="-320.5" font-family="Helvetica,sans-Serif" font-size="10.00">src/node/historical</text>
<text text-anchor="middle" x="185.5" y="-309.5" font-family="Helvetica,sans-Serif" font-size="10.00">_queries_adapter.cpp</text>
</a>
</g>
</g>
<!-- Node16&#45;&gt;Node20 -->
<g id="edge26" class="edge">
<title>Node16&#45;&gt;Node20</title>
<path fill="none" stroke="midnightblue" d="M289.18,-370.34C267.3,-359.4 236.22,-343.86 213.8,-332.65"/>
<polygon fill="midnightblue" stroke="midnightblue" points="287.73,-373.53 298.24,-374.87 290.86,-367.27 287.73,-373.53"/>
</g>
<!-- Node18 -->
<g id="node18" class="node">
<title>Node18</title>
<g id="a_node18"><a xlink:href="historical__state_8cpp.html" target="_top" xlink:title=" ">
<polygon fill="white" stroke="black" points="222,-235.5 222,-265.5 337,-265.5 337,-235.5 222,-235.5"/>
<text text-anchor="start" x="230" y="-253.5" font-family="Helvetica,sans-Serif" font-size="10.00">src/apps/js_v8/tmpl</text>
<text text-anchor="middle" x="279.5" y="-242.5" font-family="Helvetica,sans-Serif" font-size="10.00">/historical_state.cpp</text>
</a>
</g>
</g>
<!-- Node17&#45;&gt;Node18 -->
<g id="edge23" class="edge">
<title>Node17&#45;&gt;Node18</title>
<path fill="none" stroke="midnightblue" d="M305.57,-293.87C299.78,-284.46 293.24,-273.83 288.16,-265.58"/>
<polygon fill="midnightblue" stroke="midnightblue" points="302.6,-295.71 310.82,-302.4 308.56,-292.05 302.6,-295.71"/>
</g>
<!-- Node19 -->
<g id="node19" class="node">
<title>Node19</title>
<g id="a_node19"><a xlink:href="receipt_8cpp.html" target="_top" xlink:title=" ">
<polygon fill="white" stroke="black" points="355,-235.5 355,-265.5 466,-265.5 466,-235.5 355,-235.5"/>
<text text-anchor="start" x="363" y="-253.5" font-family="Helvetica,sans-Serif" font-size="10.00">src/apps/js_v8/tmpl</text>
<text text-anchor="middle" x="410.5" y="-242.5" font-family="Helvetica,sans-Serif" font-size="10.00">/receipt.cpp</text>
</a>
</g>
</g>
<!-- Node17&#45;&gt;Node19 -->
<g id="edge24" class="edge">
<title>Node17&#45;&gt;Node19</title>
<path fill="none" stroke="midnightblue" d="M347.57,-296.45C361.57,-286.45 378.16,-274.6 390.79,-265.58"/>
<polygon fill="midnightblue" stroke="midnightblue" points="345.35,-293.74 339.25,-302.4 349.42,-299.43 345.35,-293.74"/>
</g>
<!-- Node21&#45;&gt;Node6 -->
<g id="edge29" class="edge">
<title>Node21&#45;&gt;Node6</title>
<path fill="none" stroke="midnightblue" d="M716.75,-370.95C699.03,-363.04 679.73,-350.88 669.5,-333 662.66,-321.04 661.47,-313.2 669.5,-302 705.78,-251.42 886.26,-214.41 977.9,-198.56"/>
<polygon fill="midnightblue" stroke="midnightblue" points="715.79,-374.34 726.37,-374.91 718.46,-367.87 715.79,-374.34"/>
</g>
<!-- Node22 -->
<g id="node22" class="node">
<title>Node22</title>
<g id="a_node22"><a xlink:href="member__frontend_8h.html" target="_top" xlink:title=" ">
<polygon fill="white" stroke="black" points="1059.5,-235.5 1059.5,-265.5 1179.5,-265.5 1179.5,-235.5 1059.5,-235.5"/>
<text text-anchor="start" x="1067.5" y="-253.5" font-family="Helvetica,sans-Serif" font-size="10.00">src/node/rpc/member</text>
<text text-anchor="middle" x="1119.5" y="-242.5" font-family="Helvetica,sans-Serif" font-size="10.00">_frontend.h</text>
</a>
</g>
</g>
<!-- Node21&#45;&gt;Node22 -->
<g id="edge30" class="edge">
<title>Node21&#45;&gt;Node22</title>
<path fill="none" stroke="midnightblue" d="M830.32,-378.86C884.64,-373.21 958.77,-360.71 1018.5,-333 1054.47,-316.31 1088.72,-284.05 1106.61,-265.51"/>
<polygon fill="midnightblue" stroke="midnightblue" points="829.68,-375.4 820.07,-379.87 830.36,-382.37 829.68,-375.4"/>
</g>
<!-- Node23 -->
<g id="node23" class="node">
<title>Node23</title>
<g id="a_node23"><a xlink:href="node__frontend_8h.html" target="_top" xlink:title=" ">
<polygon fill="white" stroke="black" points="851.5,-308 851.5,-327 1009.5,-327 1009.5,-308 851.5,-308"/>
<text text-anchor="middle" x="930.5" y="-315" font-family="Helvetica,sans-Serif" font-size="10.00">src/node/rpc/node_frontend.h</text>
</a>
</g>
</g>
<!-- Node21&#45;&gt;Node23 -->
<g id="edge32" class="edge">
<title>Node21&#45;&gt;Node23</title>
<path fill="none" stroke="midnightblue" d="M788.43,-371.27C823.16,-358.37 876.99,-338.38 907.44,-327.06"/>
<polygon fill="midnightblue" stroke="midnightblue" points="786.89,-368.11 778.74,-374.87 789.33,-374.67 786.89,-368.11"/>
</g>
<!-- Node25 -->
<g id="node25" class="node">
<title>Node25</title>
<g id="a_node25"><a xlink:href="user__frontend_8h.html" target="_top" xlink:title=" ">
<polygon fill="white" stroke="black" points="678,-308 678,-327 833,-327 833,-308 678,-308"/>
<text text-anchor="middle" x="755.5" y="-315" font-family="Helvetica,sans-Serif" font-size="10.00">src/node/rpc/user_frontend.h</text>
</a>
</g>
</g>
<!-- Node21&#45;&gt;Node25 -->
<g id="edge36" class="edge">
<title>Node21&#45;&gt;Node25</title>
<path fill="none" stroke="midnightblue" d="M755.5,-364.54C755.5,-352.17 755.5,-336.62 755.5,-327.13"/>
<polygon fill="midnightblue" stroke="midnightblue" points="752,-364.73 755.5,-374.73 759,-364.73 752,-364.73"/>
</g>
<!-- Node22&#45;&gt;Node7 -->
<g id="edge31" class="edge">
<title>Node22&#45;&gt;Node7</title>
<path fill="none" stroke="midnightblue" d="M1049.14,-241.21C986.97,-229.98 898.88,-203.76 850.5,-143 834.4,-122.78 831.73,-90.71 831.43,-75.52"/>
<polygon fill="midnightblue" stroke="midnightblue" points="1048.82,-244.71 1059.27,-242.95 1050.01,-237.81 1048.82,-244.71"/>
</g>
<!-- Node23&#45;&gt;Node7 -->
<g id="edge33" class="edge">
<title>Node23&#45;&gt;Node7</title>
<path fill="none" stroke="midnightblue" d="M906.35,-302.34C893.12,-293.45 877.45,-280.86 867.5,-266 825.51,-203.27 828.66,-105.55 830.74,-75.85"/>
<polygon fill="midnightblue" stroke="midnightblue" points="904.71,-305.44 915.01,-307.89 908.48,-299.55 904.71,-305.44"/>
</g>
<!-- Node24 -->
<g id="node24" class="node">
<title>Node24</title>
<g id="a_node24"><a xlink:href="jwt__key__auto__refresh_8h.html" target="_top" xlink:title=" ">
<polygon fill="white" stroke="black" points="876,-235.5 876,-265.5 1001,-265.5 1001,-235.5 876,-235.5"/>
<text text-anchor="start" x="884" y="-253.5" font-family="Helvetica,sans-Serif" font-size="10.00">src/node/jwt_key_auto</text>
<text text-anchor="middle" x="938.5" y="-242.5" font-family="Helvetica,sans-Serif" font-size="10.00">_refresh.h</text>
</a>
</g>
</g>
<!-- Node23&#45;&gt;Node24 -->
<g id="edge34" class="edge">
<title>Node23&#45;&gt;Node24</title>
<path fill="none" stroke="midnightblue" d="M932.81,-297.74C934.07,-287.49 935.61,-275 936.77,-265.59"/>
<polygon fill="midnightblue" stroke="midnightblue" points="929.33,-297.38 931.58,-307.73 936.27,-298.24 929.33,-297.38"/>
</g>
<!-- Node24&#45;&gt;Node6 -->
<g id="edge35" class="edge">
<title>Node24&#45;&gt;Node6</title>
<path fill="none" stroke="midnightblue" d="M969.33,-229.78C985.81,-219.23 1005.27,-206.78 1017.97,-198.66"/>
<polygon fill="midnightblue" stroke="midnightblue" points="967.08,-227.06 960.54,-235.4 970.85,-232.96 967.08,-227.06"/>
</g>
<!-- Node25&#45;&gt;Node7 -->
<g id="edge37" class="edge">
<title>Node25&#45;&gt;Node7</title>
<path fill="none" stroke="midnightblue" d="M667.81,-308.93C609.34,-301.86 539.95,-288.85 521.5,-266 478.51,-212.74 476.71,-163.76 521.5,-112 553.04,-75.55 689.52,-68 770.5,-66.81"/>
<polygon fill="midnightblue" stroke="midnightblue" points="667.49,-312.42 677.83,-310.1 668.31,-305.47 667.49,-312.42"/>
</g>
<!-- Node27 -->
<g id="node27" class="node">
<title>Node27</title>
<g id="a_node27"><a xlink:href="kv__module__loader_8cpp.html" target="_top" xlink:title=" ">
<polygon fill="white" stroke="black" points="1349,-369.5 1349,-399.5 1492,-399.5 1492,-369.5 1349,-369.5"/>
<text text-anchor="start" x="1357" y="-387.5" font-family="Helvetica,sans-Serif" font-size="10.00">src/apps/js_v8/kv_module</text>
<text text-anchor="middle" x="1420.5" y="-376.5" font-family="Helvetica,sans-Serif" font-size="10.00">_loader.cpp</text>
</a>
</g>
</g>
<!-- Node26&#45;&gt;Node27 -->
<g id="edge39" class="edge">
<title>Node26&#45;&gt;Node27</title>
<path fill="none" stroke="midnightblue" d="M1249.89,-433.71C1287.32,-423.14 1335.1,-409.63 1370.57,-399.61"/>
<polygon fill="midnightblue" stroke="midnightblue" points="1248.79,-430.39 1240.12,-436.48 1250.7,-437.12 1248.79,-430.39"/>
</g>
<!-- Node28 -->
<g id="node28" class="node">
<title>Node28</title>
<g id="a_node28"><a xlink:href="network__state_8h.html" target="_top" xlink:title=" ">
<polygon fill="white" stroke="black" points="1190.5,-375 1190.5,-394 1330.5,-394 1330.5,-375 1190.5,-375"/>
<text text-anchor="middle" x="1260.5" y="-382" font-family="Helvetica,sans-Serif" font-size="10.00">src/node/network_state.h</text>
</a>
</g>
</g>
<!-- Node26&#45;&gt;Node28 -->
<g id="edge40" class="edge">
<title>Node26&#45;&gt;Node28</title>
<path fill="none" stroke="midnightblue" d="M1213.29,-429.34C1226.15,-417.4 1241.51,-403.14 1251.14,-394.19"/>
<polygon fill="midnightblue" stroke="midnightblue" points="1210.64,-427.03 1205.69,-436.4 1215.4,-432.16 1210.64,-427.03"/>
</g>
<!-- Node39 -->
<g id="node39" class="node">
<title>Node39</title>
<g id="a_node39"><a xlink:href="genesis__gen_8h.html" target="_top" xlink:title=" ">
<polygon fill="white" stroke="black" points="1060.5,-369.5 1060.5,-399.5 1170.5,-399.5 1170.5,-369.5 1060.5,-369.5"/>
<text text-anchor="start" x="1068.5" y="-387.5" font-family="Helvetica,sans-Serif" font-size="10.00">src/service/genesis</text>
<text text-anchor="middle" x="1115.5" y="-376.5" font-family="Helvetica,sans-Serif" font-size="10.00">_gen.h</text>
</a>
</g>
</g>
<!-- Node26&#45;&gt;Node39 -->
<g id="edge66" class="edge">
<title>Node26&#45;&gt;Node39</title>
<path fill="none" stroke="midnightblue" d="M1166.38,-429.6C1155.06,-419.78 1141.86,-408.34 1131.74,-399.58"/>
<polygon fill="midnightblue" stroke="midnightblue" points="1164.38,-432.49 1174.23,-436.4 1168.96,-427.2 1164.38,-432.49"/>
</g>
<!-- Node28&#45;&gt;Node6 -->
<g id="edge57" class="edge">
<title>Node28&#45;&gt;Node6</title>
<path fill="none" stroke="midnightblue" d="M1314.98,-372.98C1379.54,-360.26 1479.14,-339.7 1484.5,-333 1493.1,-322.24 1490.18,-314.55 1484.5,-302 1474.5,-279.91 1461.45,-282.3 1443.5,-266 1428.6,-252.47 1428.74,-243.5 1410.5,-235 1355.7,-209.46 1186.42,-197.46 1093.73,-192.68"/>
<polygon fill="midnightblue" stroke="midnightblue" points="1314.07,-369.59 1304.94,-374.95 1315.42,-376.46 1314.07,-369.59"/>
</g>
<!-- Node28&#45;&gt;Node7 -->
<g id="edge41" class="edge">
<title>Node28&#45;&gt;Node7</title>
<path fill="none" stroke="midnightblue" d="M1312.6,-373.2C1321.87,-371.62 1331.45,-370.13 1340.5,-369 1452.06,-355.06 2345.5,-363.93 2345.5,-251.5 2345.5,-251.5 2345.5,-251.5 2345.5,-188 2345.5,-113.84 1175.97,-76.57 892.73,-68.63"/>
<polygon fill="midnightblue" stroke="midnightblue" points="1311.95,-369.76 1302.72,-374.95 1313.17,-376.66 1311.95,-369.76"/>
</g>
<!-- Node28&#45;&gt;Node15 -->
<g id="edge65" class="edge">
<title>Node28&#45;&gt;Node15</title>
<path fill="none" stroke="midnightblue" d="M1318.71,-373.08C1376.61,-362.13 1458.18,-344.87 1467.5,-333 1496.13,-296.55 1425.78,-272 1377.78,-260.01"/>
<polygon fill="midnightblue" stroke="midnightblue" points="1317.74,-369.7 1308.55,-374.98 1319.03,-376.58 1317.74,-369.7"/>
</g>
<!-- Node28&#45;&gt;Node23 -->
<g id="edge58" class="edge">
<title>Node28&#45;&gt;Node23</title>
<path fill="none" stroke="midnightblue" d="M1206.98,-372.96C1142.03,-360.16 1033.78,-338.84 973.81,-327.03"/>
<polygon fill="midnightblue" stroke="midnightblue" points="1206.53,-376.44 1217.02,-374.94 1207.88,-369.57 1206.53,-376.44"/>
</g>
<!-- Node28&#45;&gt;Node25 -->
<g id="edge59" class="edge">
<title>Node28&#45;&gt;Node25</title>
<path fill="none" stroke="midnightblue" d="M1206.14,-373.22C1197.25,-371.7 1188.13,-370.23 1179.5,-369 1030.38,-347.72 991.74,-353.39 842.5,-333 829.91,-331.28 816.34,-329.15 803.74,-327.06"/>
<polygon fill="midnightblue" stroke="midnightblue" points="1205.57,-376.68 1216.03,-374.96 1206.78,-369.78 1205.57,-376.68"/>
</g>
<!-- Node29 -->
<g id="node29" class="node">
<title>Node29</title>
<g id="a_node29"><a xlink:href="wrap_8h.html" target="_top" xlink:title=" ">
<polygon fill="white" stroke="black" points="1771.5,-308 1771.5,-327 1849.5,-327 1849.5,-308 1771.5,-308"/>
<text text-anchor="middle" x="1810.5" y="-315" font-family="Helvetica,sans-Serif" font-size="10.00">src/js/wrap.h</text>
</a>
</g>
</g>
<!-- Node28&#45;&gt;Node29 -->
<g id="edge42" class="edge">
<title>Node28&#45;&gt;Node29</title>
<path fill="none" stroke="midnightblue" d="M1314.47,-373.17C1323.16,-371.66 1332.07,-370.22 1340.5,-369 1499.71,-346.05 1690.63,-328.64 1771.38,-321.74"/>
<polygon fill="midnightblue" stroke="midnightblue" points="1313.66,-369.76 1304.42,-374.95 1314.88,-376.65 1313.66,-369.76"/>
</g>
<!-- Node37 -->
<g id="node37" class="node">
<title>Node37</title>
<g id="a_node37"><a xlink:href="secret__broadcast_8h.html" target="_top" xlink:title=" ">
<polygon fill="white" stroke="black" points="1305,-308 1305,-327 1458,-327 1458,-308 1305,-308"/>
<text text-anchor="middle" x="1381.5" y="-315" font-family="Helvetica,sans-Serif" font-size="10.00">src/node/secret_broadcast.h</text>
</a>
</g>
</g>
<!-- Node28&#45;&gt;Node37 -->
<g id="edge60" class="edge">
<title>Node28&#45;&gt;Node37</title>
<path fill="none" stroke="midnightblue" d="M1285.71,-369.96C1309.7,-357.07 1345.06,-338.07 1365.44,-327.13"/>
<polygon fill="midnightblue" stroke="midnightblue" points="1283.97,-366.92 1276.82,-374.73 1287.28,-373.08 1283.97,-366.92"/>
</g>
<!-- Node38 -->
<g id="node38" class="node">
<title>Node38</title>
<g id="a_node38"><a xlink:href="share__manager_8h.html" target="_top" xlink:title=" ">
<polygon fill="white" stroke="black" points="1142,-308 1142,-327 1287,-327 1287,-308 1142,-308"/>
<text text-anchor="middle" x="1214.5" y="-315" font-family="Helvetica,sans-Serif" font-size="10.00">src/node/share_manager.h</text>
</a>
</g>
</g>
<!-- Node28&#45;&gt;Node38 -->
<g id="edge62" class="edge">
<title>Node28&#45;&gt;Node38</title>
<path fill="none" stroke="midnightblue" d="M1248.4,-366.4C1239.46,-353.77 1227.67,-337.1 1220.61,-327.13"/>
<polygon fill="midnightblue" stroke="midnightblue" points="1245.66,-368.59 1254.3,-374.73 1251.38,-364.55 1245.66,-368.59"/>
</g>
<!-- Node29&#45;&gt;Node6 -->
<g id="edge55" class="edge">
<title>Node29&#45;&gt;Node6</title>
<path fill="none" stroke="midnightblue" d="M1761.28,-315.89C1696.08,-313.53 1578.6,-303.82 1486.5,-266 1464.71,-257.05 1465.49,-243.45 1443.5,-235 1381.2,-211.07 1192.86,-198.19 1093.85,-192.91"/>
<polygon fill="midnightblue" stroke="midnightblue" points="1761.17,-319.39 1771.28,-316.21 1761.4,-312.4 1761.17,-319.39"/>
</g>
<!-- Node29&#45;&gt;Node7 -->
<g id="edge44" class="edge">
<title>Node29&#45;&gt;Node7</title>
<path fill="none" stroke="midnightblue" d="M1859.94,-314.7C1972.76,-310.1 2241.58,-296.05 2268.5,-266 2277.69,-255.74 2276.37,-246.31 2268.5,-235 2188.48,-119.98 1156.32,-77.84 892.55,-68.91"/>
<polygon fill="midnightblue" stroke="midnightblue" points="1859.69,-311.21 1849.84,-315.11 1859.97,-318.2 1859.69,-311.21"/>
</g>
<!-- Node29&#45;&gt;Node22 -->
<g id="edge56" class="edge">
<title>Node29&#45;&gt;Node22</title>
<path fill="none" stroke="midnightblue" d="M1761.21,-312.04C1665.59,-303.37 1448.25,-283.54 1265.5,-266 1237.23,-263.29 1205.89,-260.19 1179.51,-257.55"/>
<polygon fill="midnightblue" stroke="midnightblue" points="1760.89,-315.53 1771.17,-312.94 1761.52,-308.56 1760.89,-315.53"/>
</g>
<!-- Node30 -->
<g id="node30" class="node">
<title>Node30</title>
<g id="a_node30"><a xlink:href="js__generic__base_8cpp.html" target="_top" xlink:title=" ">
<polygon fill="white" stroke="black" points="1883.5,-235.5 1883.5,-265.5 2001.5,-265.5 2001.5,-235.5 1883.5,-235.5"/>
<text text-anchor="start" x="1891.5" y="-253.5" font-family="Helvetica,sans-Serif" font-size="10.00">src/apps/js_generic</text>
<text text-anchor="middle" x="1942.5" y="-242.5" font-family="Helvetica,sans-Serif" font-size="10.00">/js_generic_base.cpp</text>
</a>
</g>
</g>
<!-- Node29&#45;&gt;Node30 -->
<g id="edge43" class="edge">
<title>Node29&#45;&gt;Node30</title>
<path fill="none" stroke="midnightblue" d="M1837.22,-303.34C1859.44,-292.4 1891,-276.86 1913.76,-265.65"/>
<polygon fill="midnightblue" stroke="midnightblue" points="1835.45,-300.31 1828.03,-307.87 1838.55,-306.59 1835.45,-300.31"/>
</g>
<!-- Node31 -->
<g id="node31" class="node">
<title>Node31</title>
<g id="a_node31"><a xlink:href="js_2consensus_8cpp.html" target="_top" xlink:title=" ">
<polygon fill="white" stroke="black" points="2125.5,-241 2125.5,-260 2241.5,-260 2241.5,-241 2125.5,-241"/>
<text text-anchor="middle" x="2183.5" y="-248" font-family="Helvetica,sans-Serif" font-size="10.00">src/js/consensus.cpp</text>
</a>
</g>
</g>
<!-- Node29&#45;&gt;Node31 -->
<g id="edge45" class="edge">
<title>Node29&#45;&gt;Node31</title>
<path fill="none" stroke="midnightblue" d="M1859.78,-309.14C1920.37,-299.91 2026.25,-283.2 2116.5,-266 2125.97,-264.2 2136.15,-262.08 2145.65,-260.03"/>
<polygon fill="midnightblue" stroke="midnightblue" points="1859.1,-305.7 1849.74,-310.66 1860.15,-312.62 1859.1,-305.7"/>
</g>
<!-- Node32 -->
<g id="node32" class="node">
<title>Node32</title>
<g id="a_node32"><a xlink:href="wrap_8cpp.html" target="_top" xlink:title=" ">
<polygon fill="white" stroke="black" points="2019,-179.5 2019,-198.5 2108,-198.5 2108,-179.5 2019,-179.5"/>
<text text-anchor="middle" x="2063.5" y="-186.5" font-family="Helvetica,sans-Serif" font-size="10.00">src/js/wrap.cpp</text>
</a>
</g>
</g>
<!-- Node29&#45;&gt;Node32 -->
<g id="edge54" class="edge">
<title>Node29&#45;&gt;Node32</title>
<path fill="none" stroke="midnightblue" d="M1859.91,-314.47C1969.4,-309.45 2224.84,-294.77 2250.5,-266 2293.77,-217.48 2176.14,-199.37 2108.08,-193.08"/>
<polygon fill="midnightblue" stroke="midnightblue" points="1859.61,-310.98 1849.78,-314.92 1859.93,-317.97 1859.61,-310.98"/>
</g>
<!-- Node33 -->
<g id="node33" class="node">
<title>Node33</title>
<g id="a_node33"><a xlink:href="conv_8cpp.html" target="_top" xlink:title=" ">
<polygon fill="white" stroke="black" points="2019.5,-241 2019.5,-260 2107.5,-260 2107.5,-241 2019.5,-241"/>
<text text-anchor="middle" x="2063.5" y="-248" font-family="Helvetica,sans-Serif" font-size="10.00">src/js/conv.cpp</text>
</a>
</g>
</g>
<!-- Node29&#45;&gt;Node33 -->
<g id="edge47" class="edge">
<title>Node29&#45;&gt;Node33</title>
<path fill="none" stroke="midnightblue" d="M1855.09,-305.51C1895.66,-295.44 1957.18,-280.02 2010.5,-266 2017.7,-264.11 2025.43,-262.02 2032.7,-260.04"/>
<polygon fill="midnightblue" stroke="midnightblue" points="1854.1,-302.15 1845.24,-307.95 1855.79,-308.94 1854.1,-302.15"/>
</g>
<!-- Node34 -->
<g id="node34" class="node">
<title>Node34</title>
<g id="a_node34"><a xlink:href="js_2crypto_8cpp.html" target="_top" xlink:title=" ">
<polygon fill="white" stroke="black" points="1641.5,-241 1641.5,-260 1737.5,-260 1737.5,-241 1641.5,-241"/>
<text text-anchor="middle" x="1689.5" y="-248" font-family="Helvetica,sans-Serif" font-size="10.00">src/js/crypto.cpp</text>
</a>
</g>
</g>
<!-- Node29&#45;&gt;Node34 -->
<g id="edge49" class="edge">
<title>Node29&#45;&gt;Node34</title>
<path fill="none" stroke="midnightblue" d="M1785.29,-302.96C1761.3,-290.07 1725.94,-271.07 1705.56,-260.13"/>
<polygon fill="midnightblue" stroke="midnightblue" points="1783.72,-306.08 1794.18,-307.73 1787.03,-299.92 1783.72,-306.08"/>
</g>
<!-- Node35 -->
<g id="node35" class="node">
<title>Node35</title>
<g id="a_node35"><a xlink:href="js_2historical_8cpp.html" target="_top" xlink:title=" ">
<polygon fill="white" stroke="black" points="1755.5,-241 1755.5,-260 1865.5,-260 1865.5,-241 1755.5,-241"/>
<text text-anchor="middle" x="1810.5" y="-248" font-family="Helvetica,sans-Serif" font-size="10.00">src/js/historical.cpp</text>
</a>
</g>
</g>
<!-- Node29&#45;&gt;Node35 -->
<g id="edge51" class="edge">
<title>Node29&#45;&gt;Node35</title>
<path fill="none" stroke="midnightblue" d="M1810.5,-297.54C1810.5,-285.17 1810.5,-269.62 1810.5,-260.13"/>
<polygon fill="midnightblue" stroke="midnightblue" points="1807,-297.73 1810.5,-307.73 1814,-297.73 1807,-297.73"/>
</g>
<!-- Node36 -->
<g id="node36" class="node">
<title>Node36</title>
<g id="a_node36"><a xlink:href="openenclave_8cpp.html" target="_top" xlink:title=" ">
<polygon fill="white" stroke="black" points="1495.5,-241 1495.5,-260 1623.5,-260 1623.5,-241 1495.5,-241"/>
<text text-anchor="middle" x="1559.5" y="-248" font-family="Helvetica,sans-Serif" font-size="10.00">src/js/openenclave.cpp</text>
</a>
</g>
</g>
<!-- Node29&#45;&gt;Node36 -->
<g id="edge53" class="edge">
<title>Node29&#45;&gt;Node36</title>
<path fill="none" stroke="midnightblue" d="M1767.65,-305.4C1718.12,-292.58 1637.64,-271.74 1592.65,-260.08"/>
<polygon fill="midnightblue" stroke="midnightblue" points="1766.87,-308.82 1777.43,-307.94 1768.62,-302.04 1766.87,-308.82"/>
</g>
<!-- Node31&#45;&gt;Node32 -->
<g id="edge46" class="edge">
<title>Node31&#45;&gt;Node32</title>
<path fill="none" stroke="midnightblue" d="M2157.32,-236.52C2134.05,-224.98 2100.7,-208.44 2080.66,-198.51"/>
<polygon fill="midnightblue" stroke="midnightblue" points="2155.79,-239.67 2166.31,-240.98 2158.9,-233.4 2155.79,-239.67"/>
</g>
<!-- Node33&#45;&gt;Node32 -->
<g id="edge48" class="edge">
<title>Node33&#45;&gt;Node32</title>
<path fill="none" stroke="midnightblue" d="M2063.5,-230.82C2063.5,-220 2063.5,-206.9 2063.5,-198.51"/>
<polygon fill="midnightblue" stroke="midnightblue" points="2060,-230.98 2063.5,-240.98 2067,-230.98 2060,-230.98"/>
</g>
<!-- Node34&#45;&gt;Node32 -->
<g id="edge50" class="edge">
<title>Node34&#45;&gt;Node32</title>
<path fill="none" stroke="midnightblue" d="M1730.54,-238.5C1735.89,-237.23 1741.31,-236.03 1746.5,-235 1842.89,-215.96 1957.29,-201.76 2018.88,-194.79"/>
<polygon fill="midnightblue" stroke="midnightblue" points="1729.3,-235.2 1720.42,-240.99 1730.97,-242 1729.3,-235.2"/>
</g>
<!-- Node35&#45;&gt;Node32 -->
<g id="edge52" class="edge">
<title>Node35&#45;&gt;Node32</title>
<path fill="none" stroke="midnightblue" d="M1856.79,-238.61C1905.89,-227.07 1982.45,-209.06 2027.32,-198.51"/>
<polygon fill="midnightblue" stroke="midnightblue" points="1855.68,-235.28 1846.75,-240.98 1857.28,-242.09 1855.68,-235.28"/>
</g>
<!-- Node37&#45;&gt;Node6 -->
<g id="edge61" class="edge">
<title>Node37&#45;&gt;Node6</title>
<path fill="none" stroke="midnightblue" d="M1350.33,-303.95C1326.75,-294.21 1293.72,-280.05 1265.5,-266 1240.38,-253.49 1236.56,-245.4 1210.5,-235 1167.79,-217.95 1116.72,-205.88 1080.08,-198.56"/>
<polygon fill="midnightblue" stroke="midnightblue" points="1349.24,-307.29 1359.82,-307.84 1351.89,-300.81 1349.24,-307.29"/>
</g>
<!-- Node38&#45;&gt;Node6 -->
<g id="edge63" class="edge">
<title>Node38&#45;&gt;Node6</title>
<path fill="none" stroke="midnightblue" d="M1213.46,-297.64C1211.43,-279.19 1205.53,-251.53 1188.5,-235 1163.27,-210.51 1125.65,-199.19 1093.56,-194.02"/>
<polygon fill="midnightblue" stroke="midnightblue" points="1209.98,-298.07 1214.29,-307.75 1216.96,-297.5 1209.98,-298.07"/>
</g>
<!-- Node38&#45;&gt;Node22 -->
<g id="edge64" class="edge">
<title>Node38&#45;&gt;Node22</title>
<path fill="none" stroke="midnightblue" d="M1193.09,-301.85C1177.23,-291 1155.75,-276.3 1140.09,-265.59"/>
<polygon fill="midnightblue" stroke="midnightblue" points="1191.46,-304.98 1201.69,-307.73 1195.41,-299.2 1191.46,-304.98"/>
</g>
<!-- Node39&#45;&gt;Node6 -->
<g id="edge67" class="edge">
<title>Node39&#45;&gt;Node6</title>
<path fill="none" stroke="midnightblue" d="M1100.45,-360.57C1085.89,-337.5 1064.09,-300.51 1050.5,-266 1041.23,-242.46 1035.4,-213.01 1032.91,-198.66"/>
<polygon fill="midnightblue" stroke="midnightblue" points="1097.68,-362.73 1106.01,-369.26 1103.57,-358.95 1097.68,-362.73"/>
</g>
<!-- Node39&#45;&gt;Node22 -->
<g id="edge68" class="edge">
<title>Node39&#45;&gt;Node22</title>
<path fill="none" stroke="midnightblue" d="M1116.24,-359.02C1117.08,-331.51 1118.4,-287.79 1119.08,-265.52"/>
<polygon fill="midnightblue" stroke="midnightblue" points="1112.73,-359.27 1115.93,-369.37 1119.73,-359.48 1112.73,-359.27"/>
</g>
<!-- Node39&#45;&gt;Node23 -->
<g id="edge69" class="edge">
<title>Node39&#45;&gt;Node23</title>
<path fill="none" stroke="midnightblue" d="M1065.54,-365.95C1029.61,-353.32 982.73,-336.85 954.71,-327.01"/>
<polygon fill="midnightblue" stroke="midnightblue" points="1064.76,-369.38 1075.36,-369.4 1067.08,-362.78 1064.76,-369.38"/>
</g>
<!-- Node39&#45;&gt;Node37 -->
<g id="edge70" class="edge">
<title>Node39&#45;&gt;Node37</title>
<path fill="none" stroke="midnightblue" d="M1180.47,-367.62C1232.75,-354.85 1304.23,-337.38 1346.36,-327.09"/>
<polygon fill="midnightblue" stroke="midnightblue" points="1179.5,-364.26 1170.62,-370.03 1181.16,-371.06 1179.5,-364.26"/>
</g>
<!-- Node39&#45;&gt;Node38 -->
<g id="edge71" class="edge">
<title>Node39&#45;&gt;Node38</title>
<path fill="none" stroke="midnightblue" d="M1145.49,-363.81C1164.22,-351.51 1187.38,-336.3 1201.54,-327.01"/>
<polygon fill="midnightblue" stroke="midnightblue" points="1143.42,-360.98 1136.98,-369.4 1147.26,-366.83 1143.42,-360.98"/>
</g>
</g>
</svg>
