<?xml version="1.0" encoding="UTF-8" standalone="no"?>
<!DOCTYPE svg PUBLIC "-//W3C//DTD SVG 1.1//EN"
 "http://www.w3.org/Graphics/SVG/1.1/DTD/svg11.dtd">
<!-- Generated by graphviz version 2.43.0 (0)
 -->
<!-- Title: src/crypto/openssl/public_key.h Pages: 1 -->
<!--zoomable 431 -->
<svg id="main" version="1.1" xmlns="http://www.w3.org/2000/svg" xmlns:xlink="http://www.w3.org/1999/xlink" xml:space="preserve" onload="init(evt)">
<style type="text/css"><![CDATA[
.edge:hover path { stroke: red; }
.edge:hover polygon { stroke: red; fill: red; }
]]></style>
<script type="text/javascript"><![CDATA[
var edges = document.getElementsByTagName('g');
if (edges && edges.length) {
  for (var i=0;i<edges.length;i++) {
    if (edges[i].id.substr(0,4)=='edge') {
      edges[i].setAttribute('class','edge');
    }
  }
}
]]></script>
        <defs>
                <circle id="rim" cx="0" cy="0" r="7"/>
                <circle id="rim2" cx="0" cy="0" r="3.5"/>
                <g id="zoomPlus">
                        <use xlink:href="#rim" fill="#404040">
                                <set attributeName="fill" to="#808080" begin="zoomplus.mouseover" end="zoomplus.mouseout"/>
                        </use>
                        <path d="M-4,0h8M0,-4v8" fill="none" stroke="white" stroke-width="1.5" pointer-events="none"/>
                </g>
                <g id="zoomMin">
                        <use xlink:href="#rim" fill="#404040">
                                <set attributeName="fill" to="#808080" begin="zoomminus.mouseover" end="zoomminus.mouseout"/>
                        </use>
                        <path d="M-4,0h8" fill="none" stroke="white" stroke-width="1.5" pointer-events="none"/>
                </g>
                <g id="dirArrow">
                        <path fill="none" stroke="white" stroke-width="1.5" d="M0,-3.0v7 M-2.5,-0.5L0,-3.0L2.5,-0.5"/>
                </g>
               <g id="resetDef">
                       <use xlink:href="#rim2" fill="#404040">
                               <set attributeName="fill" to="#808080" begin="reset.mouseover" end="reset.mouseout"/>
                       </use>
               </g>
        </defs>

<script type="text/javascript">
var viewWidth = 1799;
var viewHeight = 431;
var sectionId = 'dynsection-0';
</script>
<script xlink:href="svgpan.js"/>
<svg id="graph" class="graph">
<g id="viewport">
<title>src/crypto/openssl/public_key.h</title>
<polygon fill="white" stroke="transparent" points="-4,4 -4,-427 1795,-427 1795,4 -4,4"/>
<!-- Node1 -->
<g id="node1" class="node">
<title>Node1</title>
<g id="a_node1"><a xlink:title=" ">
<polygon fill="#bfbfbf" stroke="black" points="806.5,-392.5 806.5,-422.5 911.5,-422.5 911.5,-392.5 806.5,-392.5"/>
<text text-anchor="start" x="814.5" y="-410.5" font-family="Helvetica,sans-Serif" font-size="10.00">src/crypto/openssl</text>
<text text-anchor="middle" x="859" y="-399.5" font-family="Helvetica,sans-Serif" font-size="10.00">/public_key.h</text>
</a>
</g>
</g>
<!-- Node2 -->
<g id="node2" class="node">
<title>Node2</title>
<g id="a_node2"><a xlink:href="include_2ccf_2crypto_2public__key_8h.html" target="_top" xlink:title=" ">
<polygon fill="white" stroke="black" points="461.5,-336.5 461.5,-355.5 588.5,-355.5 588.5,-336.5 461.5,-336.5"/>
<text text-anchor="middle" x="525" y="-343.5" font-family="Helvetica,sans-Serif" font-size="10.00">ccf/crypto/public_key.h</text>
</a>
</g>
</g>
<!-- Node1&#45;&gt;Node2 -->
<g id="edge1" class="edge">
<title>Node1&#45;&gt;Node2</title>
<path fill="none" stroke="midnightblue" d="M806.45,-397.14C745.71,-386.32 646.07,-368.57 583.08,-357.35"/>
<polygon fill="midnightblue" stroke="midnightblue" points="583.38,-353.84 572.92,-355.54 582.15,-360.74 583.38,-353.84"/>
</g>
<!-- Node7 -->
<g id="node7" class="node">
<title>Node7</title>
<g id="a_node7"><a xlink:title=" ">
<polygon fill="white" stroke="#bfbfbf" points="292,-0.5 292,-19.5 336,-19.5 336,-0.5 292,-0.5"/>
<text text-anchor="middle" x="314" y="-7.5" font-family="Helvetica,sans-Serif" font-size="10.00">string</text>
</a>
</g>
</g>
<!-- Node1&#45;&gt;Node7 -->
<g id="edge62" class="edge">
<title>Node1&#45;&gt;Node7</title>
<path fill="none" stroke="midnightblue" d="M806.24,-404.99C619.34,-398.95 0,-372.77 0,-291 0,-291 0,-291 0,-121 0,-61.71 201.91,-26.78 281.91,-15.26"/>
<polygon fill="midnightblue" stroke="midnightblue" points="282.51,-18.71 291.92,-13.85 281.53,-11.78 282.51,-18.71"/>
</g>
<!-- Node20 -->
<g id="node20" class="node">
<title>Node20</title>
<g id="a_node20"><a xlink:title=" ">
<polygon fill="white" stroke="#bfbfbf" points="28.5,-224.5 28.5,-243.5 93.5,-243.5 93.5,-224.5 28.5,-224.5"/>
<text text-anchor="middle" x="61" y="-231.5" font-family="Helvetica,sans-Serif" font-size="10.00">stdexcept</text>
</a>
</g>
</g>
<!-- Node1&#45;&gt;Node20 -->
<g id="edge61" class="edge">
<title>Node1&#45;&gt;Node20</title>
<path fill="none" stroke="midnightblue" d="M806.37,-404.45C655.65,-397.76 225.67,-372.61 108,-300 90.09,-288.95 76.95,-268.29 69.18,-253.22"/>
<polygon fill="midnightblue" stroke="midnightblue" points="72.17,-251.36 64.68,-243.87 65.86,-254.4 72.17,-251.36"/>
</g>
<!-- Node30 -->
<g id="node30" class="node">
<title>Node30</title>
<g id="a_node30"><a xlink:href="openssl__wrappers_8h.html" target="_top" xlink:title=" ">
<polygon fill="white" stroke="black" points="1137.5,-336.5 1137.5,-355.5 1250.5,-355.5 1250.5,-336.5 1137.5,-336.5"/>
<text text-anchor="middle" x="1194" y="-343.5" font-family="Helvetica,sans-Serif" font-size="10.00">openssl_wrappers.h</text>
</a>
</g>
</g>
<!-- Node1&#45;&gt;Node30 -->
<g id="edge46" class="edge">
<title>Node1&#45;&gt;Node30</title>
<path fill="none" stroke="midnightblue" d="M911.71,-397.14C972.63,-386.32 1072.57,-368.57 1135.74,-357.35"/>
<polygon fill="midnightblue" stroke="midnightblue" points="1136.7,-360.73 1145.94,-355.54 1135.48,-353.84 1136.7,-360.73"/>
</g>
<!-- Node34 -->
<g id="node34" class="node">
<title>Node34</title>
<g id="a_node34"><a xlink:title=" ">
<polygon fill="white" stroke="#bfbfbf" points="1610.5,-280.5 1610.5,-299.5 1689.5,-299.5 1689.5,-280.5 1610.5,-280.5"/>
<text text-anchor="middle" x="1650" y="-287.5" font-family="Helvetica,sans-Serif" font-size="10.00">openssl/err.h</text>
</a>
</g>
</g>
<!-- Node1&#45;&gt;Node34 -->
<g id="edge59" class="edge">
<title>Node1&#45;&gt;Node34</title>
<path fill="none" stroke="midnightblue" d="M911.63,-400.51C988.36,-391.63 1135.35,-374.08 1260,-356 1408.73,-334.43 1448.01,-326.65 1600.24,-300.11"/>
<polygon fill="midnightblue" stroke="midnightblue" points="1601.18,-303.5 1610.43,-298.33 1599.98,-296.6 1601.18,-303.5"/>
</g>
<!-- Node35 -->
<g id="node35" class="node">
<title>Node35</title>
<g id="a_node35"><a xlink:title=" ">
<polygon fill="white" stroke="#bfbfbf" points="1707,-280.5 1707,-299.5 1791,-299.5 1791,-280.5 1707,-280.5"/>
<text text-anchor="middle" x="1749" y="-287.5" font-family="Helvetica,sans-Serif" font-size="10.00">openssl/evp.h</text>
</a>
</g>
</g>
<!-- Node1&#45;&gt;Node35 -->
<g id="edge60" class="edge">
<title>Node1&#45;&gt;Node35</title>
<path fill="none" stroke="midnightblue" d="M911.66,-401.82C1000.11,-393.77 1184.04,-376.19 1339,-356 1496.27,-335.51 1537.63,-327.13 1696.59,-300.39"/>
<polygon fill="midnightblue" stroke="midnightblue" points="1697.45,-303.79 1706.73,-298.68 1696.29,-296.89 1697.45,-303.79"/>
</g>
<!-- Node3 -->
<g id="node3" class="node">
<title>Node3</title>
<g id="a_node3"><a xlink:href="curve_8h.html" target="_top" xlink:title=" ">
<polygon fill="white" stroke="black" points="292,-280.5 292,-299.5 396,-299.5 396,-280.5 292,-280.5"/>
<text text-anchor="middle" x="344" y="-287.5" font-family="Helvetica,sans-Serif" font-size="10.00">ccf/crypto/curve.h</text>
</a>
</g>
</g>
<!-- Node2&#45;&gt;Node3 -->
<g id="edge2" class="edge">
<title>Node2&#45;&gt;Node3</title>
<path fill="none" stroke="midnightblue" d="M496.32,-336.44C465.47,-327.24 416.27,-312.56 382.17,-302.39"/>
<polygon fill="midnightblue" stroke="midnightblue" points="383.13,-299.02 372.55,-299.52 381.13,-305.73 383.13,-299.02"/>
</g>
<!-- Node2&#45;&gt;Node7 -->
<g id="edge44" class="edge">
<title>Node2&#45;&gt;Node7</title>
<path fill="none" stroke="midnightblue" d="M461.37,-345.78C364.94,-345.63 188.04,-339.75 141,-300 118.01,-280.58 122,-265.1 122,-235 122,-235 122,-235 122,-121 122,-48.25 227.07,-22.94 281.76,-14.69"/>
<polygon fill="midnightblue" stroke="midnightblue" points="282.56,-18.11 291.98,-13.26 281.59,-11.18 282.56,-18.11"/>
</g>
<!-- Node8 -->
<g id="node8" class="node">
<title>Node8</title>
<g id="a_node8"><a xlink:title=" ">
<polygon fill="white" stroke="#bfbfbf" points="805.5,-0.5 805.5,-19.5 852.5,-19.5 852.5,-0.5 805.5,-0.5"/>
<text text-anchor="middle" x="829" y="-7.5" font-family="Helvetica,sans-Serif" font-size="10.00">vector</text>
</a>
</g>
</g>
<!-- Node2&#45;&gt;Node8 -->
<g id="edge45" class="edge">
<title>Node2&#45;&gt;Node8</title>
<path fill="none" stroke="midnightblue" d="M534.15,-336.43C558.77,-313.22 628.24,-246.97 682,-188 733.9,-131.07 791.04,-59.46 816.06,-27.6"/>
<polygon fill="midnightblue" stroke="midnightblue" points="818.82,-29.74 822.23,-19.71 813.31,-25.43 818.82,-29.74"/>
</g>
<!-- Node21 -->
<g id="node21" class="node">
<title>Node21</title>
<g id="a_node21"><a xlink:href="hash__bytes_8h.html" target="_top" xlink:title=" ">
<polygon fill="white" stroke="black" points="756,-168.5 756,-187.5 888,-187.5 888,-168.5 756,-168.5"/>
<text text-anchor="middle" x="822" y="-175.5" font-family="Helvetica,sans-Serif" font-size="10.00">ccf/crypto/hash_bytes.h</text>
</a>
</g>
</g>
<!-- Node2&#45;&gt;Node21 -->
<g id="edge27" class="edge">
<title>Node2&#45;&gt;Node21</title>
<path fill="none" stroke="midnightblue" d="M573.14,-336.48C598.8,-329.97 629.6,-318.8 652,-300 681.73,-275.05 665.27,-248.95 695,-224 714.6,-207.55 740.63,-196.95 764.03,-190.19"/>
<polygon fill="midnightblue" stroke="midnightblue" points="765.13,-193.52 773.86,-187.52 763.3,-186.76 765.13,-193.52"/>
</g>
<!-- Node22 -->
<g id="node22" class="node">
<title>Node22</title>
<g id="a_node22"><a xlink:href="pem_8h.html" target="_top" xlink:title=" ">
<polygon fill="white" stroke="black" points="704,-280.5 704,-299.5 802,-299.5 802,-280.5 704,-280.5"/>
<text text-anchor="middle" x="753" y="-287.5" font-family="Helvetica,sans-Serif" font-size="10.00">ccf/crypto/pem.h</text>
</a>
</g>
</g>
<!-- Node2&#45;&gt;Node22 -->
<g id="edge29" class="edge">
<title>Node2&#45;&gt;Node22</title>
<path fill="none" stroke="midnightblue" d="M561.13,-336.44C600.65,-327.08 664.1,-312.06 707.11,-301.87"/>
<polygon fill="midnightblue" stroke="midnightblue" points="708.12,-305.23 717.04,-299.52 706.5,-298.42 708.12,-305.23"/>
</g>
<!-- Node27 -->
<g id="node27" class="node">
<title>Node27</title>
<g id="a_node27"><a xlink:href="san_8h.html" target="_top" xlink:title=" ">
<polygon fill="white" stroke="black" points="478,-224.5 478,-243.5 572,-243.5 572,-224.5 478,-224.5"/>
<text text-anchor="middle" x="525" y="-231.5" font-family="Helvetica,sans-Serif" font-size="10.00">ccf/crypto/san.h</text>
</a>
</g>
</g>
<!-- Node2&#45;&gt;Node27 -->
<g id="edge37" class="edge">
<title>Node2&#45;&gt;Node27</title>
<path fill="none" stroke="midnightblue" d="M525,-336.37C525,-318.62 525,-277.67 525,-253.6"/>
<polygon fill="midnightblue" stroke="midnightblue" points="528.5,-253.59 525,-243.59 521.5,-253.59 528.5,-253.59"/>
</g>
<!-- Node28 -->
<g id="node28" class="node">
<title>Node28</title>
<g id="a_node28"><a xlink:title=" ">
<polygon fill="white" stroke="#bfbfbf" points="150,-280.5 150,-299.5 200,-299.5 200,-280.5 150,-280.5"/>
<text text-anchor="middle" x="175" y="-287.5" font-family="Helvetica,sans-Serif" font-size="10.00">cstdint</text>
</a>
</g>
</g>
<!-- Node2&#45;&gt;Node28 -->
<g id="edge42" class="edge">
<title>Node2&#45;&gt;Node28</title>
<path fill="none" stroke="midnightblue" d="M461.37,-338.16C399.48,-331.01 302.66,-318.49 209.99,-300"/>
<polygon fill="midnightblue" stroke="midnightblue" points="210.67,-296.57 200.17,-298.02 209.28,-303.43 210.67,-296.57"/>
</g>
<!-- Node29 -->
<g id="node29" class="node">
<title>Node29</title>
<g id="a_node29"><a xlink:title=" ">
<polygon fill="white" stroke="#bfbfbf" points="218,-280.5 218,-299.5 274,-299.5 274,-280.5 218,-280.5"/>
<text text-anchor="middle" x="246" y="-287.5" font-family="Helvetica,sans-Serif" font-size="10.00">optional</text>
</a>
</g>
</g>
<!-- Node2&#45;&gt;Node29 -->
<g id="edge43" class="edge">
<title>Node2&#45;&gt;Node29</title>
<path fill="none" stroke="midnightblue" d="M474.78,-336.49C427.93,-328.36 355.86,-315.39 284.33,-300.2"/>
<polygon fill="midnightblue" stroke="midnightblue" points="284.76,-296.71 274.25,-298.04 283.29,-303.55 284.76,-296.71"/>
</g>
<!-- Node4 -->
<g id="node4" class="node">
<title>Node4</title>
<g id="a_node4"><a xlink:href="md__type_8h.html" target="_top" xlink:title=" ">
<polygon fill="white" stroke="black" points="264.5,-224.5 264.5,-243.5 383.5,-243.5 383.5,-224.5 264.5,-224.5"/>
<text text-anchor="middle" x="324" y="-231.5" font-family="Helvetica,sans-Serif" font-size="10.00">ccf/crypto/md_type.h</text>
</a>
</g>
</g>
<!-- Node3&#45;&gt;Node4 -->
<g id="edge3" class="edge">
<title>Node3&#45;&gt;Node4</title>
<path fill="none" stroke="midnightblue" d="M340.7,-280.08C338.02,-272.85 334.15,-262.41 330.81,-253.4"/>
<polygon fill="midnightblue" stroke="midnightblue" points="334,-251.91 327.24,-243.75 327.43,-254.34 334,-251.91"/>
</g>
<!-- Node5 -->
<g id="node5" class="node">
<title>Node5</title>
<g id="a_node5"><a xlink:href="json_8h.html" target="_top" xlink:title=" ">
<polygon fill="white" stroke="black" points="380.5,-168.5 380.5,-187.5 457.5,-187.5 457.5,-168.5 380.5,-168.5"/>
<text text-anchor="middle" x="419" y="-175.5" font-family="Helvetica,sans-Serif" font-size="10.00">ccf/ds/json.h</text>
</a>
</g>
</g>
<!-- Node3&#45;&gt;Node5 -->
<g id="edge23" class="edge">
<title>Node3&#45;&gt;Node5</title>
<path fill="none" stroke="midnightblue" d="M356.33,-280.23C367.22,-271.95 382.89,-258.64 393,-244 402.92,-229.64 409.89,-210.93 414.1,-197.28"/>
<polygon fill="midnightblue" stroke="midnightblue" points="417.49,-198.17 416.89,-187.59 410.76,-196.23 417.49,-198.17"/>
</g>
<!-- Node3&#45;&gt;Node7 -->
<g id="edge26" class="edge">
<title>Node3&#45;&gt;Node7</title>
<path fill="none" stroke="midnightblue" d="M291.77,-280.68C237.37,-268.69 160,-240.78 160,-179 160,-179 160,-179 160,-121 160,-61.56 236.91,-31.2 282.02,-18.5"/>
<polygon fill="midnightblue" stroke="midnightblue" points="283.18,-21.81 291.94,-15.85 281.37,-15.05 283.18,-21.81"/>
</g>
<!-- Node16 -->
<g id="node16" class="node">
<title>Node16</title>
<g id="a_node16"><a xlink:title=" ">
<polygon fill="white" stroke="#bfbfbf" points="279.5,-56.5 279.5,-75.5 358.5,-75.5 358.5,-56.5 279.5,-56.5"/>
<text text-anchor="middle" x="319" y="-63.5" font-family="Helvetica,sans-Serif" font-size="10.00">fmt/format.h</text>
</a>
</g>
</g>
<!-- Node3&#45;&gt;Node16 -->
<g id="edge24" class="edge">
<title>Node3&#45;&gt;Node16</title>
<path fill="none" stroke="midnightblue" d="M314.33,-280.5C293.77,-273.41 266.82,-261.6 248,-244 227.22,-224.57 224.12,-215.54 217,-188 204.75,-140.58 259.01,-100.54 293.1,-80.58"/>
<polygon fill="midnightblue" stroke="midnightblue" points="295.12,-83.46 302.1,-75.5 291.67,-77.37 295.12,-83.46"/>
</g>
<!-- Node19 -->
<g id="node19" class="node">
<title>Node19</title>
<g id="a_node19"><a xlink:href="enum__formatter_8h.html" target="_top" xlink:title=" ">
<polygon fill="white" stroke="black" points="226,-168.5 226,-187.5 362,-187.5 362,-168.5 226,-168.5"/>
<text text-anchor="middle" x="294" y="-175.5" font-family="Helvetica,sans-Serif" font-size="10.00">ccf/ds/enum_formatter.h</text>
</a>
</g>
</g>
<!-- Node3&#45;&gt;Node19 -->
<g id="edge21" class="edge">
<title>Node3&#45;&gt;Node19</title>
<path fill="none" stroke="midnightblue" d="M308.15,-280.4C289.12,-273.81 267.37,-262.59 256,-244 245.7,-227.16 260.78,-207.57 274.88,-194.33"/>
<polygon fill="midnightblue" stroke="midnightblue" points="277.24,-196.92 282.44,-187.69 272.62,-191.65 277.24,-196.92"/>
</g>
<!-- Node3&#45;&gt;Node20 -->
<g id="edge25" class="edge">
<title>Node3&#45;&gt;Node20</title>
<path fill="none" stroke="midnightblue" d="M299.16,-280.44C245.53,-270.21 156.43,-253.21 103.75,-243.16"/>
<polygon fill="midnightblue" stroke="midnightblue" points="104.2,-239.68 93.72,-241.24 102.89,-246.56 104.2,-239.68"/>
</g>
<!-- Node4&#45;&gt;Node5 -->
<g id="edge4" class="edge">
<title>Node4&#45;&gt;Node5</title>
<path fill="none" stroke="midnightblue" d="M339.26,-224.32C354.22,-215.82 377.25,-202.73 394.73,-192.8"/>
<polygon fill="midnightblue" stroke="midnightblue" points="396.81,-195.64 403.77,-187.65 393.35,-189.55 396.81,-195.64"/>
</g>
<!-- Node6 -->
<g id="node6" class="node">
<title>Node6</title>
<g id="a_node6"><a xlink:href="include_2ccf_2crypto_2base64_8h.html" target="_top" xlink:title=" ">
<polygon fill="white" stroke="black" points="505,-56.5 505,-75.5 617,-75.5 617,-56.5 505,-56.5"/>
<text text-anchor="middle" x="561" y="-63.5" font-family="Helvetica,sans-Serif" font-size="10.00">ccf/crypto/base64.h</text>
</a>
</g>
</g>
<!-- Node5&#45;&gt;Node6 -->
<g id="edge5" class="edge">
<title>Node5&#45;&gt;Node6</title>
<path fill="none" stroke="midnightblue" d="M457.51,-172.25C502.58,-165.81 573.08,-152.69 589,-132 600.3,-117.32 588.59,-97.4 577.04,-83.49"/>
<polygon fill="midnightblue" stroke="midnightblue" points="579.36,-80.83 570.09,-75.71 574.14,-85.5 579.36,-80.83"/>
</g>
<!-- Node9 -->
<g id="node9" class="node">
<title>Node9</title>
<g id="a_node9"><a xlink:href="include_2ccf_2ds_2json__schema_8h.html" target="_top" xlink:title=" ">
<polygon fill="white" stroke="black" points="458.5,-112.5 458.5,-131.5 579.5,-131.5 579.5,-112.5 458.5,-112.5"/>
<text text-anchor="middle" x="519" y="-119.5" font-family="Helvetica,sans-Serif" font-size="10.00">ccf/ds/json_schema.h</text>
</a>
</g>
</g>
<!-- Node5&#45;&gt;Node9 -->
<g id="edge8" class="edge">
<title>Node5&#45;&gt;Node9</title>
<path fill="none" stroke="midnightblue" d="M435.07,-168.32C450.96,-159.74 475.51,-146.49 493.96,-136.52"/>
<polygon fill="midnightblue" stroke="midnightblue" points="495.84,-139.49 502.97,-131.65 492.51,-133.33 495.84,-139.49"/>
</g>
<!-- Node5&#45;&gt;Node16 -->
<g id="edge19" class="edge">
<title>Node5&#45;&gt;Node16</title>
<path fill="none" stroke="midnightblue" d="M411.14,-168.38C402.88,-159.32 389.52,-144.67 378,-132 363.03,-115.54 345.94,-96.71 334.02,-83.57"/>
<polygon fill="midnightblue" stroke="midnightblue" points="336.32,-80.89 327.01,-75.84 331.14,-85.59 336.32,-80.89"/>
</g>
<!-- Node18 -->
<g id="node18" class="node">
<title>Node18</title>
<g id="a_node18"><a xlink:title=" ">
<polygon fill="white" stroke="#bfbfbf" points="270,-112.5 270,-131.5 326,-131.5 326,-112.5 270,-112.5"/>
<text text-anchor="middle" x="298" y="-119.5" font-family="Helvetica,sans-Serif" font-size="10.00">sstream</text>
</a>
</g>
</g>
<!-- Node5&#45;&gt;Node18 -->
<g id="edge20" class="edge">
<title>Node5&#45;&gt;Node18</title>
<path fill="none" stroke="midnightblue" d="M399.83,-168.44C380.09,-159.64 349.11,-145.81 326.51,-135.72"/>
<polygon fill="midnightblue" stroke="midnightblue" points="327.64,-132.4 317.08,-131.52 324.79,-138.79 327.64,-132.4"/>
</g>
<!-- Node6&#45;&gt;Node7 -->
<g id="edge6" class="edge">
<title>Node6&#45;&gt;Node7</title>
<path fill="none" stroke="midnightblue" d="M521.86,-56.44C473.15,-45.79 390.89,-27.81 345.85,-17.96"/>
<polygon fill="midnightblue" stroke="midnightblue" points="346.55,-14.53 336.03,-15.82 345.05,-21.37 346.55,-14.53"/>
</g>
<!-- Node6&#45;&gt;Node8 -->
<g id="edge7" class="edge">
<title>Node6&#45;&gt;Node8</title>
<path fill="none" stroke="midnightblue" d="M612.83,-56.43C658.58,-48.58 727.26,-36.06 795.27,-20.27"/>
<polygon fill="midnightblue" stroke="midnightblue" points="796.36,-23.61 805.29,-17.91 794.76,-16.79 796.36,-23.61"/>
</g>
<!-- Node10 -->
<g id="node10" class="node">
<title>Node10</title>
<g id="a_node10"><a xlink:href="nonstd_8h.html" target="_top" xlink:title=" ">
<polygon fill="white" stroke="black" points="673,-56.5 673,-75.5 763,-75.5 763,-56.5 673,-56.5"/>
<text text-anchor="middle" x="718" y="-63.5" font-family="Helvetica,sans-Serif" font-size="10.00">ccf/ds/nonstd.h</text>
</a>
</g>
</g>
<!-- Node9&#45;&gt;Node10 -->
<g id="edge9" class="edge">
<title>Node9&#45;&gt;Node10</title>
<path fill="none" stroke="midnightblue" d="M550.53,-112.44C584.59,-103.2 639.01,-88.44 676.52,-78.26"/>
<polygon fill="midnightblue" stroke="midnightblue" points="677.88,-81.51 686.62,-75.52 676.05,-74.76 677.88,-81.51"/>
</g>
<!-- Node9&#45;&gt;Node16 -->
<g id="edge17" class="edge">
<title>Node9&#45;&gt;Node16</title>
<path fill="none" stroke="midnightblue" d="M487.31,-112.44C452.93,-103.16 397.92,-88.31 360.21,-78.13"/>
<polygon fill="midnightblue" stroke="midnightblue" points="361.11,-74.74 350.54,-75.52 359.28,-81.5 361.11,-74.74"/>
</g>
<!-- Node17 -->
<g id="node17" class="node">
<title>Node17</title>
<g id="a_node17"><a xlink:title=" ">
<polygon fill="white" stroke="#bfbfbf" points="377,-56.5 377,-75.5 487,-75.5 487,-56.5 377,-56.5"/>
<text text-anchor="middle" x="432" y="-63.5" font-family="Helvetica,sans-Serif" font-size="10.00">nlohmann/json.hpp</text>
</a>
</g>
</g>
<!-- Node9&#45;&gt;Node17 -->
<g id="edge18" class="edge">
<title>Node9&#45;&gt;Node17</title>
<path fill="none" stroke="midnightblue" d="M505.02,-112.32C491.45,-103.9 470.62,-90.97 454.68,-81.07"/>
<polygon fill="midnightblue" stroke="midnightblue" points="456.29,-77.95 445.94,-75.65 452.59,-83.9 456.29,-77.95"/>
</g>
<!-- Node10&#45;&gt;Node7 -->
<g id="edge13" class="edge">
<title>Node10&#45;&gt;Node7</title>
<path fill="none" stroke="midnightblue" d="M672.92,-58.02C668.22,-57.32 663.51,-56.64 659,-56 544.19,-39.76 407.56,-22.57 346.4,-14.99"/>
<polygon fill="midnightblue" stroke="midnightblue" points="346.58,-11.48 336.22,-13.73 345.72,-18.43 346.58,-11.48"/>
</g>
<!-- Node10&#45;&gt;Node8 -->
<g id="edge16" class="edge">
<title>Node10&#45;&gt;Node8</title>
<path fill="none" stroke="midnightblue" d="M735.83,-56.32C753.72,-47.62 781.48,-34.12 802.05,-24.11"/>
<polygon fill="midnightblue" stroke="midnightblue" points="803.75,-27.18 811.21,-19.65 800.69,-20.88 803.75,-27.18"/>
</g>
<!-- Node11 -->
<g id="node11" class="node">
<title>Node11</title>
<g id="a_node11"><a xlink:title=" ">
<polygon fill="white" stroke="#bfbfbf" points="596,-0.5 596,-19.5 660,-19.5 660,-0.5 596,-0.5"/>
<text text-anchor="middle" x="628" y="-7.5" font-family="Helvetica,sans-Serif" font-size="10.00">algorithm</text>
</a>
</g>
</g>
<!-- Node10&#45;&gt;Node11 -->
<g id="edge10" class="edge">
<title>Node10&#45;&gt;Node11</title>
<path fill="none" stroke="midnightblue" d="M703.54,-56.32C689.5,-47.9 667.95,-34.97 651.46,-25.07"/>
<polygon fill="midnightblue" stroke="midnightblue" points="652.8,-21.8 642.42,-19.65 649.2,-27.8 652.8,-21.8"/>
</g>
<!-- Node12 -->
<g id="node12" class="node">
<title>Node12</title>
<g id="a_node12"><a xlink:title=" ">
<polygon fill="white" stroke="#bfbfbf" points="678,-0.5 678,-19.5 720,-19.5 720,-0.5 678,-0.5"/>
<text text-anchor="middle" x="699" y="-7.5" font-family="Helvetica,sans-Serif" font-size="10.00">array</text>
</a>
</g>
</g>
<!-- Node10&#45;&gt;Node12 -->
<g id="edge11" class="edge">
<title>Node10&#45;&gt;Node12</title>
<path fill="none" stroke="midnightblue" d="M714.86,-56.08C712.32,-48.85 708.64,-38.41 705.47,-29.4"/>
<polygon fill="midnightblue" stroke="midnightblue" points="708.7,-28.02 702.08,-19.75 702.1,-30.35 708.7,-28.02"/>
</g>
<!-- Node13 -->
<g id="node13" class="node">
<title>Node13</title>
<g id="a_node13"><a xlink:title=" ">
<polygon fill="white" stroke="#bfbfbf" points="738.5,-0.5 738.5,-19.5 787.5,-19.5 787.5,-0.5 738.5,-0.5"/>
<text text-anchor="middle" x="763" y="-7.5" font-family="Helvetica,sans-Serif" font-size="10.00">cctype</text>
</a>
</g>
</g>
<!-- Node10&#45;&gt;Node13 -->
<g id="edge12" class="edge">
<title>Node10&#45;&gt;Node13</title>
<path fill="none" stroke="midnightblue" d="M725.43,-56.08C731.85,-48.38 741.31,-37.03 749.12,-27.65"/>
<polygon fill="midnightblue" stroke="midnightblue" points="751.99,-29.67 755.71,-19.75 746.62,-25.19 751.99,-29.67"/>
</g>
<!-- Node14 -->
<g id="node14" class="node">
<title>Node14</title>
<g id="a_node14"><a xlink:title=" ">
<polygon fill="white" stroke="#bfbfbf" points="897.5,-0.5 897.5,-19.5 970.5,-19.5 970.5,-0.5 897.5,-0.5"/>
<text text-anchor="middle" x="934" y="-7.5" font-family="Helvetica,sans-Serif" font-size="10.00">string_view</text>
</a>
</g>
</g>
<!-- Node10&#45;&gt;Node14 -->
<g id="edge14" class="edge">
<title>Node10&#45;&gt;Node14</title>
<path fill="none" stroke="midnightblue" d="M752.23,-56.44C789.51,-47.12 849.27,-32.18 890.01,-22"/>
<polygon fill="midnightblue" stroke="midnightblue" points="891.08,-25.34 899.93,-19.52 889.38,-18.55 891.08,-25.34"/>
</g>
<!-- Node15 -->
<g id="node15" class="node">
<title>Node15</title>
<g id="a_node15"><a xlink:title=" ">
<polygon fill="white" stroke="#bfbfbf" points="508.5,-0.5 508.5,-19.5 577.5,-19.5 577.5,-0.5 508.5,-0.5"/>
<text text-anchor="middle" x="543" y="-7.5" font-family="Helvetica,sans-Serif" font-size="10.00">type_traits</text>
</a>
</g>
</g>
<!-- Node10&#45;&gt;Node15 -->
<g id="edge15" class="edge">
<title>Node10&#45;&gt;Node15</title>
<path fill="none" stroke="midnightblue" d="M690.27,-56.44C660.57,-47.28 613.28,-32.69 580.33,-22.52"/>
<polygon fill="midnightblue" stroke="midnightblue" points="581.19,-19.12 570.6,-19.52 579.12,-25.81 581.19,-19.12"/>
</g>
<!-- Node19&#45;&gt;Node16 -->
<g id="edge22" class="edge">
<title>Node19&#45;&gt;Node16</title>
<path fill="none" stroke="midnightblue" d="M283.92,-168.21C270.92,-155.75 251.09,-132.23 261,-112 267.52,-98.68 280.1,-88.18 291.87,-80.68"/>
<polygon fill="midnightblue" stroke="midnightblue" points="293.77,-83.62 300.61,-75.53 290.22,-77.59 293.77,-83.62"/>
</g>
<!-- Node21&#45;&gt;Node8 -->
<g id="edge28" class="edge">
<title>Node21&#45;&gt;Node8</title>
<path fill="none" stroke="midnightblue" d="M822.38,-168.08C823.48,-141.95 826.71,-65.21 828.22,-29.58"/>
<polygon fill="midnightblue" stroke="midnightblue" points="831.71,-29.71 828.64,-19.57 824.72,-29.41 831.71,-29.71"/>
</g>
<!-- Node22&#45;&gt;Node5 -->
<g id="edge30" class="edge">
<title>Node22&#45;&gt;Node5</title>
<path fill="none" stroke="midnightblue" d="M703.86,-285.59C633.38,-279.98 507.79,-267.05 469,-244 450.32,-232.9 436.15,-211.94 427.74,-196.82"/>
<polygon fill="midnightblue" stroke="midnightblue" points="430.81,-195.12 423.06,-187.89 424.6,-198.37 430.81,-195.12"/>
</g>
<!-- Node22&#45;&gt;Node8 -->
<g id="edge36" class="edge">
<title>Node22&#45;&gt;Node8</title>
<path fill="none" stroke="midnightblue" d="M798.66,-280.49C837.74,-272.33 889.99,-259.06 905,-244 926.25,-222.68 924,-209.1 924,-179 924,-179 924,-179 924,-121 924,-77.74 881.39,-43.09 853.25,-24.91"/>
<polygon fill="midnightblue" stroke="midnightblue" points="855.03,-21.9 844.69,-19.6 851.34,-27.85 855.03,-21.9"/>
</g>
<!-- Node22&#45;&gt;Node14 -->
<g id="edge35" class="edge">
<title>Node22&#45;&gt;Node14</title>
<path fill="none" stroke="midnightblue" d="M802.39,-280.64C846.43,-272.39 906.81,-258.88 926,-244 952.09,-223.76 962,-212.02 962,-179 962,-179 962,-179 962,-121 962,-87.79 949.87,-50.63 941.57,-29.12"/>
<polygon fill="midnightblue" stroke="midnightblue" points="944.75,-27.63 937.78,-19.65 938.25,-30.23 944.75,-27.63"/>
</g>
<!-- Node23 -->
<g id="node23" class="node">
<title>Node23</title>
<g id="a_node23"><a xlink:title=" ">
<polygon fill="white" stroke="#bfbfbf" points="704,-224.5 704,-243.5 754,-243.5 754,-224.5 704,-224.5"/>
<text text-anchor="middle" x="729" y="-231.5" font-family="Helvetica,sans-Serif" font-size="10.00">cstring</text>
</a>
</g>
</g>
<!-- Node22&#45;&gt;Node23 -->
<g id="edge31" class="edge">
<title>Node22&#45;&gt;Node23</title>
<path fill="none" stroke="midnightblue" d="M749.04,-280.08C745.79,-272.77 741.08,-262.18 737.05,-253.1"/>
<polygon fill="midnightblue" stroke="midnightblue" points="740.15,-251.47 732.89,-243.75 733.75,-254.31 740.15,-251.47"/>
</g>
<!-- Node24 -->
<g id="node24" class="node">
<title>Node24</title>
<g id="a_node24"><a xlink:title=" ">
<polygon fill="white" stroke="#bfbfbf" points="772.5,-224.5 772.5,-243.5 837.5,-243.5 837.5,-224.5 772.5,-224.5"/>
<text text-anchor="middle" x="805" y="-231.5" font-family="Helvetica,sans-Serif" font-size="10.00">exception</text>
</a>
</g>
</g>
<!-- Node22&#45;&gt;Node24 -->
<g id="edge32" class="edge">
<title>Node22&#45;&gt;Node24</title>
<path fill="none" stroke="midnightblue" d="M761.59,-280.08C769.16,-272.22 780.38,-260.57 789.51,-251.08"/>
<polygon fill="midnightblue" stroke="midnightblue" points="792.16,-253.38 796.57,-243.75 787.12,-248.53 792.16,-253.38"/>
</g>
<!-- Node25 -->
<g id="node25" class="node">
<title>Node25</title>
<g id="a_node25"><a xlink:title=" ">
<polygon fill="white" stroke="#bfbfbf" points="1169,-224.5 1169,-243.5 1227,-243.5 1227,-224.5 1169,-224.5"/>
<text text-anchor="middle" x="1198" y="-231.5" font-family="Helvetica,sans-Serif" font-size="10.00">memory</text>
</a>
</g>
</g>
<!-- Node22&#45;&gt;Node25 -->
<g id="edge33" class="edge">
<title>Node22&#45;&gt;Node25</title>
<path fill="none" stroke="midnightblue" d="M802.03,-281.26C805.06,-280.82 808.07,-280.4 811,-280 937.87,-262.79 1088.7,-246.43 1158.7,-239.07"/>
<polygon fill="midnightblue" stroke="midnightblue" points="1159.24,-242.53 1168.82,-238.01 1158.51,-235.57 1159.24,-242.53"/>
</g>
<!-- Node26 -->
<g id="node26" class="node">
<title>Node26</title>
<g id="a_node26"><a xlink:title=" ">
<polygon fill="white" stroke="#bfbfbf" points="856,-224.5 856,-243.5 896,-243.5 896,-224.5 856,-224.5"/>
<text text-anchor="middle" x="876" y="-231.5" font-family="Helvetica,sans-Serif" font-size="10.00">span</text>
</a>
</g>
</g>
<!-- Node22&#45;&gt;Node26 -->
<g id="edge34" class="edge">
<title>Node22&#45;&gt;Node26</title>
<path fill="none" stroke="midnightblue" d="M772.49,-280.44C792.64,-271.6 824.32,-257.69 847.33,-247.59"/>
<polygon fill="midnightblue" stroke="midnightblue" points="848.85,-250.74 856.6,-243.52 846.04,-244.33 848.85,-250.74"/>
</g>
<!-- Node27&#45;&gt;Node5 -->
<g id="edge38" class="edge">
<title>Node27&#45;&gt;Node5</title>
<path fill="none" stroke="midnightblue" d="M507.97,-224.32C490.97,-215.66 464.62,-202.24 445.01,-192.25"/>
<polygon fill="midnightblue" stroke="midnightblue" points="446.49,-189.08 435.99,-187.65 443.31,-195.31 446.49,-189.08"/>
</g>
<!-- Node27&#45;&gt;Node7 -->
<g id="edge41" class="edge">
<title>Node27&#45;&gt;Node7</title>
<path fill="none" stroke="midnightblue" d="M537.02,-224.33C573.14,-197.27 675.22,-112.83 626,-56 607.82,-35.01 422.37,-19.02 346.3,-13.29"/>
<polygon fill="midnightblue" stroke="midnightblue" points="346.55,-9.8 336.32,-12.55 346.03,-16.78 346.55,-9.8"/>
</g>
<!-- Node27&#45;&gt;Node10 -->
<g id="edge39" class="edge">
<title>Node27&#45;&gt;Node10</title>
<path fill="none" stroke="midnightblue" d="M572.12,-226.74C600.41,-220.86 635.54,-209.57 660,-188 691.34,-160.36 707.24,-112.05 713.94,-85.6"/>
<polygon fill="midnightblue" stroke="midnightblue" points="717.38,-86.27 716.28,-75.73 710.57,-84.66 717.38,-86.27"/>
</g>
<!-- Node27&#45;&gt;Node16 -->
<g id="edge40" class="edge">
<title>Node27&#45;&gt;Node16</title>
<path fill="none" stroke="midnightblue" d="M518.45,-224.4C508.27,-211.35 487.68,-186.16 467,-168 461.36,-163.05 380.13,-108.17 340.47,-81.45"/>
<polygon fill="midnightblue" stroke="midnightblue" points="342.27,-78.44 332.02,-75.76 338.36,-84.25 342.27,-78.44"/>
</g>
<!-- Node30&#45;&gt;Node16 -->
<g id="edge48" class="edge">
<title>Node30&#45;&gt;Node16</title>
<path fill="none" stroke="midnightblue" d="M1137.43,-343.41C1024.54,-339.67 775.27,-328.37 695,-300 692.79,-299.22 416.04,-113.16 414,-112 392.78,-99.96 367.81,-88.22 348.8,-79.76"/>
<polygon fill="midnightblue" stroke="midnightblue" points="350.02,-76.47 339.45,-75.64 347.2,-82.87 350.02,-76.47"/>
</g>
<!-- Node30&#45;&gt;Node22 -->
<g id="edge47" class="edge">
<title>Node30&#45;&gt;Node22</title>
<path fill="none" stroke="midnightblue" d="M1137.46,-339.02C1064.71,-331.17 934.14,-316.6 812.28,-300.13"/>
<polygon fill="midnightblue" stroke="midnightblue" points="812.41,-296.62 802.03,-298.74 811.47,-303.55 812.41,-296.62"/>
</g>
<!-- Node30&#45;&gt;Node25 -->
<g id="edge49" class="edge">
<title>Node30&#45;&gt;Node25</title>
<path fill="none" stroke="midnightblue" d="M1250.63,-336.98C1292.96,-329.69 1345.71,-317.4 1359,-300 1392.59,-256.02 1295.22,-241.69 1237.43,-237.1"/>
<polygon fill="midnightblue" stroke="midnightblue" points="1237.37,-233.59 1227.14,-236.36 1236.86,-240.57 1237.37,-233.59"/>
</g>
<!-- Node31 -->
<g id="node31" class="node">
<title>Node31</title>
<g id="a_node31"><a xlink:title=" ">
<polygon fill="white" stroke="#bfbfbf" points="1048.5,-280.5 1048.5,-299.5 1137.5,-299.5 1137.5,-280.5 1048.5,-280.5"/>
<text text-anchor="middle" x="1093" y="-287.5" font-family="Helvetica,sans-Serif" font-size="10.00">openssl/asn1.h</text>
</a>
</g>
</g>
<!-- Node30&#45;&gt;Node31 -->
<g id="edge50" class="edge">
<title>Node30&#45;&gt;Node31</title>
<path fill="none" stroke="midnightblue" d="M1177.77,-336.32C1161.65,-327.7 1136.7,-314.36 1118.04,-304.39"/>
<polygon fill="midnightblue" stroke="midnightblue" points="1119.66,-301.28 1109.19,-299.65 1116.36,-307.46 1119.66,-301.28"/>
</g>
<!-- Node32 -->
<g id="node32" class="node">
<title>Node32</title>
<g id="a_node32"><a xlink:title=" ">
<polygon fill="white" stroke="#bfbfbf" points="1155.5,-280.5 1155.5,-299.5 1232.5,-299.5 1232.5,-280.5 1155.5,-280.5"/>
<text text-anchor="middle" x="1194" y="-287.5" font-family="Helvetica,sans-Serif" font-size="10.00">openssl/ec.h</text>
</a>
</g>
</g>
<!-- Node30&#45;&gt;Node32 -->
<g id="edge51" class="edge">
<title>Node30&#45;&gt;Node32</title>
<path fill="none" stroke="midnightblue" d="M1194,-336.08C1194,-329.01 1194,-318.86 1194,-309.99"/>
<polygon fill="midnightblue" stroke="midnightblue" points="1197.5,-309.75 1194,-299.75 1190.5,-309.75 1197.5,-309.75"/>
</g>
<!-- Node33 -->
<g id="node33" class="node">
<title>Node33</title>
<g id="a_node33"><a xlink:title=" ">
<polygon fill="white" stroke="#bfbfbf" points="1250.5,-280.5 1250.5,-299.5 1349.5,-299.5 1349.5,-280.5 1250.5,-280.5"/>
<text text-anchor="middle" x="1300" y="-287.5" font-family="Helvetica,sans-Serif" font-size="10.00">openssl/engine.h</text>
</a>
</g>
</g>
<!-- Node30&#45;&gt;Node33 -->
<g id="edge52" class="edge">
<title>Node30&#45;&gt;Node33</title>
<path fill="none" stroke="midnightblue" d="M1211.03,-336.32C1228.03,-327.66 1254.38,-314.24 1273.99,-304.25"/>
<polygon fill="midnightblue" stroke="midnightblue" points="1275.69,-307.31 1283.01,-299.65 1272.51,-301.08 1275.69,-307.31"/>
</g>
<!-- Node30&#45;&gt;Node34 -->
<g id="edge53" class="edge">
<title>Node30&#45;&gt;Node34</title>
<path fill="none" stroke="midnightblue" d="M1250.79,-340.01C1327.6,-332.98 1469.09,-319.02 1600.23,-300.01"/>
<polygon fill="midnightblue" stroke="midnightblue" points="1601.07,-303.42 1610.46,-298.51 1600.06,-296.5 1601.07,-303.42"/>
</g>
<!-- Node30&#45;&gt;Node35 -->
<g id="edge54" class="edge">
<title>Node30&#45;&gt;Node35</title>
<path fill="none" stroke="midnightblue" d="M1250.61,-341.61C1342.37,-335.75 1529.46,-322.3 1696.78,-300.21"/>
<polygon fill="midnightblue" stroke="midnightblue" points="1697.31,-303.67 1706.76,-298.88 1696.38,-296.73 1697.31,-303.67"/>
</g>
<!-- Node36 -->
<g id="node36" class="node">
<title>Node36</title>
<g id="a_node36"><a xlink:title=" ">
<polygon fill="white" stroke="#bfbfbf" points="1406,-280.5 1406,-299.5 1494,-299.5 1494,-280.5 1406,-280.5"/>
<text text-anchor="middle" x="1450" y="-287.5" font-family="Helvetica,sans-Serif" font-size="10.00">openssl/pem.h</text>
</a>
</g>
</g>
<!-- Node30&#45;&gt;Node36 -->
<g id="edge55" class="edge">
<title>Node30&#45;&gt;Node36</title>
<path fill="none" stroke="midnightblue" d="M1234.56,-336.44C1279.32,-327 1351.38,-311.8 1399.7,-301.61"/>
<polygon fill="midnightblue" stroke="midnightblue" points="1400.56,-305.01 1409.63,-299.52 1399.12,-298.16 1400.56,-305.01"/>
</g>
<!-- Node37 -->
<g id="node37" class="node">
<title>Node37</title>
<g id="a_node37"><a xlink:title=" ">
<polygon fill="white" stroke="#bfbfbf" points="1512,-280.5 1512,-299.5 1592,-299.5 1592,-280.5 1512,-280.5"/>
<text text-anchor="middle" x="1552" y="-287.5" font-family="Helvetica,sans-Serif" font-size="10.00">openssl/ssl.h</text>
</a>
</g>
</g>
<!-- Node30&#45;&gt;Node37 -->
<g id="edge56" class="edge">
<title>Node30&#45;&gt;Node37</title>
<path fill="none" stroke="midnightblue" d="M1250.77,-337.38C1310.7,-329.18 1408.19,-315.44 1501.97,-300.12"/>
<polygon fill="midnightblue" stroke="midnightblue" points="1502.61,-303.56 1511.91,-298.49 1501.47,-296.66 1502.61,-303.56"/>
</g>
<!-- Node38 -->
<g id="node38" class="node">
<title>Node38</title>
<g id="a_node38"><a xlink:title=" ">
<polygon fill="white" stroke="#bfbfbf" points="820,-280.5 820,-299.5 910,-299.5 910,-280.5 820,-280.5"/>
<text text-anchor="middle" x="865" y="-287.5" font-family="Helvetica,sans-Serif" font-size="10.00">openssl/x509.h</text>
</a>
</g>
</g>
<!-- Node30&#45;&gt;Node38 -->
<g id="edge57" class="edge">
<title>Node30&#45;&gt;Node38</title>
<path fill="none" stroke="midnightblue" d="M1141.53,-336.46C1088.29,-327.79 1003.23,-313.9 919.96,-300.15"/>
<polygon fill="midnightblue" stroke="midnightblue" points="920.52,-296.7 910.08,-298.52 919.38,-303.61 920.52,-296.7"/>
</g>
<!-- Node39 -->
<g id="node39" class="node">
<title>Node39</title>
<g id="a_node39"><a xlink:title=" ">
<polygon fill="white" stroke="#bfbfbf" points="928,-280.5 928,-299.5 1030,-299.5 1030,-280.5 928,-280.5"/>
<text text-anchor="middle" x="979" y="-287.5" font-family="Helvetica,sans-Serif" font-size="10.00">openssl/x509v3.h</text>
</a>
</g>
</g>
<!-- Node30&#45;&gt;Node39 -->
<g id="edge58" class="edge">
<title>Node30&#45;&gt;Node39</title>
<path fill="none" stroke="midnightblue" d="M1159.93,-336.44C1122.82,-327.12 1063.34,-312.18 1022.79,-302"/>
<polygon fill="midnightblue" stroke="midnightblue" points="1023.46,-298.56 1012.91,-299.52 1021.75,-305.35 1023.46,-298.56"/>
</g>
</g>
</svg>
        <g id="navigator" transform="translate(0 0)" fill="#404254">
                <rect fill="#f2f5e9" fill-opacity="0.5" stroke="#606060" stroke-width=".5" x="0" y="0" width="60" height="60"/>
                <use id="zoomplus" xlink:href="#zoomPlus" x="17" y="9" onmousedown="handleZoom(evt,'in')"/>
                <use id="zoomminus" xlink:href="#zoomMin" x="42" y="9" onmousedown="handleZoom(evt,'out')"/>
                <use id="reset" xlink:href="#resetDef" x="30" y="36" onmousedown="handleReset()"/>
                <g id="arrowUp" xlink:href="#dirArrow" transform="translate(30 24)" onmousedown="handlePan(0,-1)">
                  <use xlink:href="#rim" fill="#404040">
                        <set attributeName="fill" to="#808080" begin="arrowUp.mouseover" end="arrowUp.mouseout"/>
                  </use>
                  <path fill="none" stroke="white" stroke-width="1.5" d="M0,-3.0v7 M-2.5,-0.5L0,-3.0L2.5,-0.5"/>
                </g>
                <g id="arrowRight" xlink:href="#dirArrow" transform="rotate(90) translate(36 -43)" onmousedown="handlePan(1,0)">
                  <use xlink:href="#rim" fill="#404040">
                        <set attributeName="fill" to="#808080" begin="arrowRight.mouseover" end="arrowRight.mouseout"/>
                  </use>
                  <path fill="none" stroke="white" stroke-width="1.5" d="M0,-3.0v7 M-2.5,-0.5L0,-3.0L2.5,-0.5"/>
                </g>
                <g id="arrowDown" xlink:href="#dirArrow" transform="rotate(180) translate(-30 -48)" onmousedown="handlePan(0,1)">
                  <use xlink:href="#rim" fill="#404040">
                        <set attributeName="fill" to="#808080" begin="arrowDown.mouseover" end="arrowDown.mouseout"/>
                  </use>
                  <path fill="none" stroke="white" stroke-width="1.5" d="M0,-3.0v7 M-2.5,-0.5L0,-3.0L2.5,-0.5"/>
                </g>
                <g id="arrowLeft" xlink:href="#dirArrow" transform="rotate(270) translate(-36 17)" onmousedown="handlePan(-1,0)">
                  <use xlink:href="#rim" fill="#404040">
                        <set attributeName="fill" to="#808080" begin="arrowLeft.mouseover" end="arrowLeft.mouseout"/>
                  </use>
                  <path fill="none" stroke="white" stroke-width="1.5" d="M0,-3.0v7 M-2.5,-0.5L0,-3.0L2.5,-0.5"/>
                </g>
        </g>
        <svg viewBox="0 0 15 15" width="100%" height="30px" preserveAspectRatio="xMaxYMin meet">
         <g id="arrow_out" transform="scale(0.3 0.3)">
          <a xlink:href="src_2crypto_2openssl_2public__key_8h__incl_org.svg" target="_base">
           <rect id="button" ry="5" rx="5" y="6" x="6" height="38" width="38"
                fill="#f2f5e9" fill-opacity="0.5" stroke="#606060" stroke-width="1.0"/>
           <path id="arrow"
             d="M 11.500037,31.436501 C 11.940474,20.09759 22.043105,11.32322 32.158766,21.979434 L 37.068811,17.246167 C 37.068811,17.246167 37.088388,32 37.088388,32 L 22.160133,31.978069 C 22.160133,31.978069 26.997745,27.140456 26.997745,27.140456 C 18.528582,18.264221 13.291696,25.230495 11.500037,31.436501 z"
             style="fill:#404040;"/>
          </a>
         </g>
        </svg>
</svg>
