<?xml version="1.0" encoding="UTF-8" standalone="no"?>
<!DOCTYPE svg PUBLIC "-//W3C//DTD SVG 1.1//EN"
 "http://www.w3.org/Graphics/SVG/1.1/DTD/svg11.dtd">
<!-- Generated by graphviz version 2.43.0 (0)
 -->
<!-- Title: src/crypto/openssl/symmetric_key.h Pages: 1 -->
<!--zoomable 386 -->
<svg id="main" version="1.1" xmlns="http://www.w3.org/2000/svg" xmlns:xlink="http://www.w3.org/1999/xlink" xml:space="preserve" onload="init(evt)">
<style type="text/css"><![CDATA[
.edge:hover path { stroke: red; }
.edge:hover polygon { stroke: red; fill: red; }
]]></style>
<script type="text/javascript"><![CDATA[
var edges = document.getElementsByTagName('g');
if (edges && edges.length) {
  for (var i=0;i<edges.length;i++) {
    if (edges[i].id.substr(0,4)=='edge') {
      edges[i].setAttribute('class','edge');
    }
  }
}
]]></script>
        <defs>
                <circle id="rim" cx="0" cy="0" r="7"/>
                <circle id="rim2" cx="0" cy="0" r="3.5"/>
                <g id="zoomPlus">
                        <use xlink:href="#rim" fill="#404040">
                                <set attributeName="fill" to="#808080" begin="zoomplus.mouseover" end="zoomplus.mouseout"/>
                        </use>
                        <path d="M-4,0h8M0,-4v8" fill="none" stroke="white" stroke-width="1.5" pointer-events="none"/>
                </g>
                <g id="zoomMin">
                        <use xlink:href="#rim" fill="#404040">
                                <set attributeName="fill" to="#808080" begin="zoomminus.mouseover" end="zoomminus.mouseout"/>
                        </use>
                        <path d="M-4,0h8" fill="none" stroke="white" stroke-width="1.5" pointer-events="none"/>
                </g>
                <g id="dirArrow">
                        <path fill="none" stroke="white" stroke-width="1.5" d="M0,-3.0v7 M-2.5,-0.5L0,-3.0L2.5,-0.5"/>
                </g>
               <g id="resetDef">
                       <use xlink:href="#rim2" fill="#404040">
                               <set attributeName="fill" to="#808080" begin="reset.mouseover" end="reset.mouseout"/>
                       </use>
               </g>
        </defs>

<script type="text/javascript">
var viewWidth = 1504;
var viewHeight = 386;
var sectionId = 'dynsection-0';
</script>
<script xlink:href="svgpan.js"/>
<svg id="graph" class="graph">
<g id="viewport">
<title>src/crypto/openssl/symmetric_key.h</title>
<polygon fill="white" stroke="transparent" points="-4,4 -4,-382 1500,-382 1500,4 -4,4"/>
<!-- Node1 -->
<g id="node1" class="node">
<title>Node1</title>
<g id="a_node1"><a xlink:title=" ">
<polygon fill="#bfbfbf" stroke="black" points="819,-347.5 819,-377.5 924,-377.5 924,-347.5 819,-347.5"/>
<text text-anchor="start" x="827" y="-365.5" font-family="Helvetica,sans-Serif" font-size="10.00">src/crypto/openssl</text>
<text text-anchor="middle" x="871.5" y="-354.5" font-family="Helvetica,sans-Serif" font-size="10.00">/symmetric_key.h</text>
</a>
</g>
</g>
<!-- Node2 -->
<g id="node2" class="node">
<title>Node2</title>
<g id="a_node2"><a xlink:href="include_2ccf_2crypto_2symmetric__key_8h.html" target="_top" xlink:title=" ">
<polygon fill="white" stroke="black" points="264.5,-280.5 264.5,-310.5 384.5,-310.5 384.5,-280.5 264.5,-280.5"/>
<text text-anchor="start" x="272.5" y="-298.5" font-family="Helvetica,sans-Serif" font-size="10.00">ccf/crypto/symmetric</text>
<text text-anchor="middle" x="324.5" y="-287.5" font-family="Helvetica,sans-Serif" font-size="10.00">_key.h</text>
</a>
</g>
</g>
<!-- Node1&#45;&gt;Node2 -->
<g id="edge1" class="edge">
<title>Node1&#45;&gt;Node2</title>
<path fill="none" stroke="midnightblue" d="M818.55,-355.21C719.49,-343.44 506.13,-318.08 395.02,-304.88"/>
<polygon fill="midnightblue" stroke="midnightblue" points="395.26,-301.38 384.92,-303.68 394.43,-308.33 395.26,-301.38"/>
</g>
<!-- Node12 -->
<g id="node12" class="node">
<title>Node12</title>
<g id="a_node12"><a xlink:href="openssl__wrappers_8h.html" target="_top" xlink:title=" ">
<polygon fill="white" stroke="black" points="815,-286 815,-305 928,-305 928,-286 815,-286"/>
<text text-anchor="middle" x="871.5" y="-293" font-family="Helvetica,sans-Serif" font-size="10.00">openssl_wrappers.h</text>
</a>
</g>
</g>
<!-- Node1&#45;&gt;Node12 -->
<g id="edge12" class="edge">
<title>Node1&#45;&gt;Node12</title>
<path fill="none" stroke="midnightblue" d="M871.5,-347.4C871.5,-338.06 871.5,-325.71 871.5,-315.52"/>
<polygon fill="midnightblue" stroke="midnightblue" points="875,-315.19 871.5,-305.19 868,-315.19 875,-315.19"/>
</g>
<!-- Node37 -->
<g id="node37" class="node">
<title>Node37</title>
<g id="a_node37"><a xlink:title=" ">
<polygon fill="white" stroke="#bfbfbf" points="946,-286 946,-305 1043,-305 1043,-286 946,-286"/>
<text text-anchor="middle" x="994.5" y="-293" font-family="Helvetica,sans-Serif" font-size="10.00">openssl/crypto.h</text>
</a>
</g>
</g>
<!-- Node1&#45;&gt;Node37 -->
<g id="edge48" class="edge">
<title>Node1&#45;&gt;Node37</title>
<path fill="none" stroke="midnightblue" d="M898.19,-347.4C919.39,-336.19 948.82,-320.64 969.55,-309.69"/>
<polygon fill="midnightblue" stroke="midnightblue" points="971.2,-312.77 978.4,-305.01 967.93,-306.58 971.2,-312.77"/>
</g>
<!-- Node3 -->
<g id="node3" class="node">
<title>Node3</title>
<g id="a_node3"><a xlink:href="include_2ccf_2crypto_2entropy_8h.html" target="_top" xlink:title=" ">
<polygon fill="white" stroke="black" points="156,-224.5 156,-243.5 269,-243.5 269,-224.5 156,-224.5"/>
<text text-anchor="middle" x="212.5" y="-231.5" font-family="Helvetica,sans-Serif" font-size="10.00">ccf/crypto/entropy.h</text>
</a>
</g>
</g>
<!-- Node2&#45;&gt;Node3 -->
<g id="edge2" class="edge">
<title>Node2&#45;&gt;Node3</title>
<path fill="none" stroke="midnightblue" d="M297.96,-280.4C279.84,-270.77 255.96,-258.09 238.06,-248.58"/>
<polygon fill="midnightblue" stroke="midnightblue" points="239.27,-245.26 228.8,-243.66 235.99,-251.44 239.27,-245.26"/>
</g>
<!-- Node10 -->
<g id="node10" class="node">
<title>Node10</title>
<g id="a_node10"><a xlink:title=" ">
<polygon fill="white" stroke="#bfbfbf" points="796,-0.5 796,-19.5 843,-19.5 843,-0.5 796,-0.5"/>
<text text-anchor="middle" x="819.5" y="-7.5" font-family="Helvetica,sans-Serif" font-size="10.00">vector</text>
</a>
</g>
</g>
<!-- Node2&#45;&gt;Node10 -->
<g id="edge11" class="edge">
<title>Node2&#45;&gt;Node10</title>
<path fill="none" stroke="midnightblue" d="M323.44,-280.36C322.33,-254.64 323.78,-199.95 352.5,-168 469.96,-37.31 699.63,-15.27 785.78,-11.66"/>
<polygon fill="midnightblue" stroke="midnightblue" points="785.93,-15.16 795.8,-11.3 785.68,-8.16 785.93,-15.16"/>
</g>
<!-- Node11 -->
<g id="node11" class="node">
<title>Node11</title>
<g id="a_node11"><a xlink:title=" ">
<polygon fill="white" stroke="#bfbfbf" points="692.5,-168.5 692.5,-187.5 732.5,-187.5 732.5,-168.5 692.5,-168.5"/>
<text text-anchor="middle" x="712.5" y="-175.5" font-family="Helvetica,sans-Serif" font-size="10.00">span</text>
</a>
</g>
</g>
<!-- Node2&#45;&gt;Node11 -->
<g id="edge10" class="edge">
<title>Node2&#45;&gt;Node11</title>
<path fill="none" stroke="midnightblue" d="M335.12,-280.44C348.44,-263.95 372.89,-237.19 400.5,-224 450.07,-200.33 613.77,-186.11 682.11,-181.07"/>
<polygon fill="midnightblue" stroke="midnightblue" points="682.51,-184.56 692.23,-180.35 682,-177.57 682.51,-184.56"/>
</g>
<!-- Node4 -->
<g id="node4" class="node">
<title>Node4</title>
<g id="a_node4"><a xlink:title=" ">
<polygon fill="white" stroke="#bfbfbf" points="101.5,-168.5 101.5,-187.5 153.5,-187.5 153.5,-168.5 101.5,-168.5"/>
<text text-anchor="middle" x="127.5" y="-175.5" font-family="Helvetica,sans-Serif" font-size="10.00">cassert</text>
</a>
</g>
</g>
<!-- Node3&#45;&gt;Node4 -->
<g id="edge3" class="edge">
<title>Node3&#45;&gt;Node4</title>
<path fill="none" stroke="midnightblue" d="M198.84,-224.32C185.58,-215.9 165.23,-202.97 149.65,-193.07"/>
<polygon fill="midnightblue" stroke="midnightblue" points="151.44,-190.06 141.12,-187.65 147.69,-195.97 151.44,-190.06"/>
</g>
<!-- Node5 -->
<g id="node5" class="node">
<title>Node5</title>
<g id="a_node5"><a xlink:title=" ">
<polygon fill="white" stroke="#bfbfbf" points="171.5,-168.5 171.5,-187.5 221.5,-187.5 221.5,-168.5 171.5,-168.5"/>
<text text-anchor="middle" x="196.5" y="-175.5" font-family="Helvetica,sans-Serif" font-size="10.00">cstdint</text>
</a>
</g>
</g>
<!-- Node3&#45;&gt;Node5 -->
<g id="edge4" class="edge">
<title>Node3&#45;&gt;Node5</title>
<path fill="none" stroke="midnightblue" d="M209.86,-224.08C207.71,-216.85 204.62,-206.41 201.95,-197.4"/>
<polygon fill="midnightblue" stroke="midnightblue" points="205.29,-196.34 199.09,-187.75 198.58,-198.33 205.29,-196.34"/>
</g>
<!-- Node6 -->
<g id="node6" class="node">
<title>Node6</title>
<g id="a_node6"><a xlink:title=" ">
<polygon fill="white" stroke="#bfbfbf" points="505.5,-168.5 505.5,-187.5 555.5,-187.5 555.5,-168.5 505.5,-168.5"/>
<text text-anchor="middle" x="530.5" y="-175.5" font-family="Helvetica,sans-Serif" font-size="10.00">cstring</text>
</a>
</g>
</g>
<!-- Node3&#45;&gt;Node6 -->
<g id="edge5" class="edge">
<title>Node3&#45;&gt;Node6</title>
<path fill="none" stroke="midnightblue" d="M262.89,-224.44C327.85,-213.41 439.13,-194.51 495.54,-184.94"/>
<polygon fill="midnightblue" stroke="midnightblue" points="496.13,-188.39 505.4,-183.26 494.96,-181.49 496.13,-188.39"/>
</g>
<!-- Node7 -->
<g id="node7" class="node">
<title>Node7</title>
<g id="a_node7"><a xlink:title=" ">
<polygon fill="white" stroke="#bfbfbf" points="361.5,-168.5 361.5,-187.5 419.5,-187.5 419.5,-168.5 361.5,-168.5"/>
<text text-anchor="middle" x="390.5" y="-175.5" font-family="Helvetica,sans-Serif" font-size="10.00">memory</text>
</a>
</g>
</g>
<!-- Node3&#45;&gt;Node7 -->
<g id="edge6" class="edge">
<title>Node3&#45;&gt;Node7</title>
<path fill="none" stroke="midnightblue" d="M240.7,-224.44C270.91,-215.28 319.01,-200.69 352.53,-190.52"/>
<polygon fill="midnightblue" stroke="midnightblue" points="353.87,-193.77 362.43,-187.52 351.84,-187.07 353.87,-193.77"/>
</g>
<!-- Node8 -->
<g id="node8" class="node">
<title>Node8</title>
<g id="a_node8"><a xlink:title=" ">
<polygon fill="white" stroke="#bfbfbf" points="240,-168.5 240,-187.5 305,-187.5 305,-168.5 240,-168.5"/>
<text text-anchor="middle" x="272.5" y="-175.5" font-family="Helvetica,sans-Serif" font-size="10.00">stdexcept</text>
</a>
</g>
</g>
<!-- Node3&#45;&gt;Node8 -->
<g id="edge7" class="edge">
<title>Node3&#45;&gt;Node8</title>
<path fill="none" stroke="midnightblue" d="M222.14,-224.32C231.01,-216.34 244.37,-204.31 255.11,-194.65"/>
<polygon fill="midnightblue" stroke="midnightblue" points="257.59,-197.13 262.68,-187.83 252.91,-191.92 257.59,-197.13"/>
</g>
<!-- Node9 -->
<g id="node9" class="node">
<title>Node9</title>
<g id="a_node9"><a xlink:title=" ">
<polygon fill="white" stroke="#bfbfbf" points="0,-168.5 0,-187.5 45,-187.5 45,-168.5 0,-168.5"/>
<text text-anchor="middle" x="22.5" y="-175.5" font-family="Helvetica,sans-Serif" font-size="10.00">utility</text>
</a>
</g>
</g>
<!-- Node3&#45;&gt;Node9 -->
<g id="edge8" class="edge">
<title>Node3&#45;&gt;Node9</title>
<path fill="none" stroke="midnightblue" d="M182.39,-224.44C147.63,-214.56 90.67,-198.37 54.94,-188.22"/>
<polygon fill="midnightblue" stroke="midnightblue" points="55.6,-184.77 45.03,-185.4 53.69,-191.5 55.6,-184.77"/>
</g>
<!-- Node3&#45;&gt;Node10 -->
<g id="edge9" class="edge">
<title>Node3&#45;&gt;Node10</title>
<path fill="none" stroke="midnightblue" d="M158.96,-224.5C118.75,-215.54 73.61,-198.38 92.5,-168 151.9,-72.46 211.2,-86.45 319.5,-56 407.65,-31.22 687.95,-16.8 785.58,-12.43"/>
<polygon fill="midnightblue" stroke="midnightblue" points="785.93,-15.92 795.77,-11.98 785.62,-8.92 785.93,-15.92"/>
</g>
<!-- Node12&#45;&gt;Node7 -->
<g id="edge38" class="edge">
<title>Node12&#45;&gt;Node7</title>
<path fill="none" stroke="midnightblue" d="M814.91,-292.25C696.26,-286.99 429.97,-272.15 400.5,-244 388.26,-232.31 386.84,-212.37 387.82,-197.65"/>
<polygon fill="midnightblue" stroke="midnightblue" points="391.31,-197.95 388.89,-187.63 384.35,-197.2 391.31,-197.95"/>
</g>
<!-- Node13 -->
<g id="node13" class="node">
<title>Node13</title>
<g id="a_node13"><a xlink:href="pem_8h.html" target="_top" xlink:title=" ">
<polygon fill="white" stroke="black" points="1157.5,-224.5 1157.5,-243.5 1255.5,-243.5 1255.5,-224.5 1157.5,-224.5"/>
<text text-anchor="middle" x="1206.5" y="-231.5" font-family="Helvetica,sans-Serif" font-size="10.00">ccf/crypto/pem.h</text>
</a>
</g>
</g>
<!-- Node12&#45;&gt;Node13 -->
<g id="edge13" class="edge">
<title>Node12&#45;&gt;Node13</title>
<path fill="none" stroke="midnightblue" d="M908.78,-285.97C918.14,-283.92 928.17,-281.8 937.5,-280 976.69,-272.42 1080.93,-255.31 1147.54,-244.51"/>
<polygon fill="midnightblue" stroke="midnightblue" points="1148.18,-247.95 1157.49,-242.89 1147.06,-241.04 1148.18,-247.95"/>
</g>
<!-- Node24 -->
<g id="node24" class="node">
<title>Node24</title>
<g id="a_node24"><a xlink:title=" ">
<polygon fill="white" stroke="#bfbfbf" points="1214,-56.5 1214,-75.5 1293,-75.5 1293,-56.5 1214,-56.5"/>
<text text-anchor="middle" x="1253.5" y="-63.5" font-family="Helvetica,sans-Serif" font-size="10.00">fmt/format.h</text>
</a>
</g>
</g>
<!-- Node12&#45;&gt;Node24 -->
<g id="edge37" class="edge">
<title>Node12&#45;&gt;Node24</title>
<path fill="none" stroke="midnightblue" d="M906.99,-285.98C916.83,-283.81 927.54,-281.64 937.5,-280 1009.64,-268.14 1215.72,-298.45 1264.5,-244 1304.34,-199.53 1277.51,-120.86 1262.15,-85.32"/>
<polygon fill="midnightblue" stroke="midnightblue" points="1265.14,-83.44 1257.84,-75.77 1258.76,-86.32 1265.14,-83.44"/>
</g>
<!-- Node28 -->
<g id="node28" class="node">
<title>Node28</title>
<g id="a_node28"><a xlink:title=" ">
<polygon fill="white" stroke="#bfbfbf" points="1312,-224.5 1312,-243.5 1401,-243.5 1401,-224.5 1312,-224.5"/>
<text text-anchor="middle" x="1356.5" y="-231.5" font-family="Helvetica,sans-Serif" font-size="10.00">openssl/asn1.h</text>
</a>
</g>
</g>
<!-- Node12&#45;&gt;Node28 -->
<g id="edge39" class="edge">
<title>Node12&#45;&gt;Node28</title>
<path fill="none" stroke="midnightblue" d="M906.64,-285.98C916.57,-283.79 927.42,-281.61 937.5,-280 1096.3,-254.71 1137.97,-264.13 1297.5,-244 1298.8,-243.84 1300.12,-243.67 1301.45,-243.49"/>
<polygon fill="midnightblue" stroke="midnightblue" points="1302.33,-246.9 1311.76,-242.07 1301.37,-239.97 1302.33,-246.9"/>
</g>
<!-- Node29 -->
<g id="node29" class="node">
<title>Node29</title>
<g id="a_node29"><a xlink:title=" ">
<polygon fill="white" stroke="#bfbfbf" points="1419,-224.5 1419,-243.5 1496,-243.5 1496,-224.5 1419,-224.5"/>
<text text-anchor="middle" x="1457.5" y="-231.5" font-family="Helvetica,sans-Serif" font-size="10.00">openssl/ec.h</text>
</a>
</g>
</g>
<!-- Node12&#45;&gt;Node29 -->
<g id="edge40" class="edge">
<title>Node12&#45;&gt;Node29</title>
<path fill="none" stroke="midnightblue" d="M905.93,-285.98C916.05,-283.74 927.17,-281.52 937.5,-280 1142.82,-249.78 1199.75,-271.18 1408.76,-244.09"/>
<polygon fill="midnightblue" stroke="midnightblue" points="1409.37,-247.54 1418.83,-242.76 1408.46,-240.6 1409.37,-247.54"/>
</g>
<!-- Node30 -->
<g id="node30" class="node">
<title>Node30</title>
<g id="a_node30"><a xlink:title=" ">
<polygon fill="white" stroke="#bfbfbf" points="410,-224.5 410,-243.5 509,-243.5 509,-224.5 410,-224.5"/>
<text text-anchor="middle" x="459.5" y="-231.5" font-family="Helvetica,sans-Serif" font-size="10.00">openssl/engine.h</text>
</a>
</g>
</g>
<!-- Node12&#45;&gt;Node30 -->
<g id="edge41" class="edge">
<title>Node12&#45;&gt;Node30</title>
<path fill="none" stroke="midnightblue" d="M814.92,-286.57C747.23,-277.05 630.18,-260.46 519.11,-244.08"/>
<polygon fill="midnightblue" stroke="midnightblue" points="519.47,-240.59 509.07,-242.6 518.45,-247.52 519.47,-240.59"/>
</g>
<!-- Node31 -->
<g id="node31" class="node">
<title>Node31</title>
<g id="a_node31"><a xlink:title=" ">
<polygon fill="white" stroke="#bfbfbf" points="527,-224.5 527,-243.5 606,-243.5 606,-224.5 527,-224.5"/>
<text text-anchor="middle" x="566.5" y="-231.5" font-family="Helvetica,sans-Serif" font-size="10.00">openssl/err.h</text>
</a>
</g>
</g>
<!-- Node12&#45;&gt;Node31 -->
<g id="edge42" class="edge">
<title>Node12&#45;&gt;Node31</title>
<path fill="none" stroke="midnightblue" d="M827.8,-285.98C771.86,-275.06 675.17,-256.2 616.4,-244.73"/>
<polygon fill="midnightblue" stroke="midnightblue" points="616.72,-241.23 606.24,-242.75 615.38,-248.1 616.72,-241.23"/>
</g>
<!-- Node32 -->
<g id="node32" class="node">
<title>Node32</title>
<g id="a_node32"><a xlink:title=" ">
<polygon fill="white" stroke="#bfbfbf" points="623.5,-224.5 623.5,-243.5 707.5,-243.5 707.5,-224.5 623.5,-224.5"/>
<text text-anchor="middle" x="665.5" y="-231.5" font-family="Helvetica,sans-Serif" font-size="10.00">openssl/evp.h</text>
</a>
</g>
</g>
<!-- Node12&#45;&gt;Node32 -->
<g id="edge43" class="edge">
<title>Node12&#45;&gt;Node32</title>
<path fill="none" stroke="midnightblue" d="M841.99,-285.98C805.88,-275.55 744.65,-257.86 704.65,-246.31"/>
<polygon fill="midnightblue" stroke="midnightblue" points="705.54,-242.92 694.96,-243.51 703.6,-249.65 705.54,-242.92"/>
</g>
<!-- Node33 -->
<g id="node33" class="node">
<title>Node33</title>
<g id="a_node33"><a xlink:title=" ">
<polygon fill="white" stroke="#bfbfbf" points="725.5,-224.5 725.5,-243.5 813.5,-243.5 813.5,-224.5 725.5,-224.5"/>
<text text-anchor="middle" x="769.5" y="-231.5" font-family="Helvetica,sans-Serif" font-size="10.00">openssl/pem.h</text>
</a>
</g>
</g>
<!-- Node12&#45;&gt;Node33 -->
<g id="edge44" class="edge">
<title>Node12&#45;&gt;Node33</title>
<path fill="none" stroke="midnightblue" d="M856.89,-285.98C840.15,-276.21 812.5,-260.08 792.78,-248.58"/>
<polygon fill="midnightblue" stroke="midnightblue" points="794.49,-245.52 784.09,-243.51 790.96,-251.57 794.49,-245.52"/>
</g>
<!-- Node34 -->
<g id="node34" class="node">
<title>Node34</title>
<g id="a_node34"><a xlink:title=" ">
<polygon fill="white" stroke="#bfbfbf" points="831.5,-224.5 831.5,-243.5 911.5,-243.5 911.5,-224.5 831.5,-224.5"/>
<text text-anchor="middle" x="871.5" y="-231.5" font-family="Helvetica,sans-Serif" font-size="10.00">openssl/ssl.h</text>
</a>
</g>
</g>
<!-- Node12&#45;&gt;Node34 -->
<g id="edge45" class="edge">
<title>Node12&#45;&gt;Node34</title>
<path fill="none" stroke="midnightblue" d="M871.5,-285.98C871.5,-277.58 871.5,-264.48 871.5,-253.66"/>
<polygon fill="midnightblue" stroke="midnightblue" points="875,-253.51 871.5,-243.51 868,-253.51 875,-253.51"/>
</g>
<!-- Node35 -->
<g id="node35" class="node">
<title>Node35</title>
<g id="a_node35"><a xlink:title=" ">
<polygon fill="white" stroke="#bfbfbf" points="929.5,-224.5 929.5,-243.5 1019.5,-243.5 1019.5,-224.5 929.5,-224.5"/>
<text text-anchor="middle" x="974.5" y="-231.5" font-family="Helvetica,sans-Serif" font-size="10.00">openssl/x509.h</text>
</a>
</g>
</g>
<!-- Node12&#45;&gt;Node35 -->
<g id="edge46" class="edge">
<title>Node12&#45;&gt;Node35</title>
<path fill="none" stroke="midnightblue" d="M886.26,-285.98C903.16,-276.21 931.08,-260.08 950.99,-248.58"/>
<polygon fill="midnightblue" stroke="midnightblue" points="952.86,-251.54 959.77,-243.51 949.36,-245.48 952.86,-251.54"/>
</g>
<!-- Node36 -->
<g id="node36" class="node">
<title>Node36</title>
<g id="a_node36"><a xlink:title=" ">
<polygon fill="white" stroke="#bfbfbf" points="1037.5,-224.5 1037.5,-243.5 1139.5,-243.5 1139.5,-224.5 1037.5,-224.5"/>
<text text-anchor="middle" x="1088.5" y="-231.5" font-family="Helvetica,sans-Serif" font-size="10.00">openssl/x509v3.h</text>
</a>
</g>
</g>
<!-- Node12&#45;&gt;Node36 -->
<g id="edge47" class="edge">
<title>Node12&#45;&gt;Node36</title>
<path fill="none" stroke="midnightblue" d="M902.59,-285.98C940.78,-275.5 1005.67,-257.71 1047.8,-246.16"/>
<polygon fill="midnightblue" stroke="midnightblue" points="1048.75,-249.53 1057.47,-243.51 1046.9,-242.78 1048.75,-249.53"/>
</g>
<!-- Node13&#45;&gt;Node6 -->
<g id="edge31" class="edge">
<title>Node13&#45;&gt;Node6</title>
<path fill="none" stroke="midnightblue" d="M1157.49,-225.11C1154.45,-224.71 1151.44,-224.33 1148.5,-224 1034.21,-210.99 679.61,-188.32 565.95,-181.2"/>
<polygon fill="midnightblue" stroke="midnightblue" points="565.91,-177.69 555.71,-180.56 565.48,-184.68 565.91,-177.69"/>
</g>
<!-- Node13&#45;&gt;Node7 -->
<g id="edge33" class="edge">
<title>Node13&#45;&gt;Node7</title>
<path fill="none" stroke="midnightblue" d="M1157.5,-225.05C1154.46,-224.66 1151.44,-224.31 1148.5,-224 859.87,-193.71 786.01,-208.28 496.5,-188 474.38,-186.45 449.69,-184.37 429.71,-182.61"/>
<polygon fill="midnightblue" stroke="midnightblue" points="430,-179.12 419.73,-181.72 429.38,-186.09 430,-179.12"/>
</g>
<!-- Node13&#45;&gt;Node10 -->
<g id="edge36" class="edge">
<title>Node13&#45;&gt;Node10</title>
<path fill="none" stroke="midnightblue" d="M1162.45,-224.47C1127.75,-216.99 1078.56,-204.71 1037.5,-188 943.49,-149.75 901.63,-155.47 838.5,-76 827.88,-62.63 823.2,-43.52 821.13,-29.48"/>
<polygon fill="midnightblue" stroke="midnightblue" points="824.6,-29.04 819.97,-19.51 817.65,-29.85 824.6,-29.04"/>
</g>
<!-- Node13&#45;&gt;Node11 -->
<g id="edge34" class="edge">
<title>Node13&#45;&gt;Node11</title>
<path fill="none" stroke="midnightblue" d="M1157.48,-225.21C1154.44,-224.79 1151.43,-224.38 1148.5,-224 1069.43,-213.79 827.7,-190.15 742.56,-181.9"/>
<polygon fill="midnightblue" stroke="midnightblue" points="742.81,-178.41 732.52,-180.93 742.13,-185.38 742.81,-178.41"/>
</g>
<!-- Node14 -->
<g id="node14" class="node">
<title>Node14</title>
<g id="a_node14"><a xlink:href="json_8h.html" target="_top" xlink:title=" ">
<polygon fill="white" stroke="black" points="1129,-168.5 1129,-187.5 1206,-187.5 1206,-168.5 1129,-168.5"/>
<text text-anchor="middle" x="1167.5" y="-175.5" font-family="Helvetica,sans-Serif" font-size="10.00">ccf/ds/json.h</text>
</a>
</g>
</g>
<!-- Node13&#45;&gt;Node14 -->
<g id="edge14" class="edge">
<title>Node13&#45;&gt;Node14</title>
<path fill="none" stroke="midnightblue" d="M1200.06,-224.08C1194.55,-216.46 1186.47,-205.26 1179.74,-195.94"/>
<polygon fill="midnightblue" stroke="midnightblue" points="1182.51,-193.81 1173.82,-187.75 1176.84,-197.91 1182.51,-193.81"/>
</g>
<!-- Node22 -->
<g id="node22" class="node">
<title>Node22</title>
<g id="a_node22"><a xlink:title=" ">
<polygon fill="white" stroke="#bfbfbf" points="1283,-0.5 1283,-19.5 1356,-19.5 1356,-0.5 1283,-0.5"/>
<text text-anchor="middle" x="1319.5" y="-7.5" font-family="Helvetica,sans-Serif" font-size="10.00">string_view</text>
</a>
</g>
</g>
<!-- Node13&#45;&gt;Node22 -->
<g id="edge35" class="edge">
<title>Node13&#45;&gt;Node22</title>
<path fill="none" stroke="midnightblue" d="M1213.11,-224.3C1230.27,-201.32 1276.73,-136.56 1302.5,-76 1308.92,-60.91 1313.42,-42.78 1316.17,-29.51"/>
<polygon fill="midnightblue" stroke="midnightblue" points="1319.61,-30.16 1318.07,-19.68 1312.73,-28.83 1319.61,-30.16"/>
</g>
<!-- Node27 -->
<g id="node27" class="node">
<title>Node27</title>
<g id="a_node27"><a xlink:title=" ">
<polygon fill="white" stroke="#bfbfbf" points="1046,-168.5 1046,-187.5 1111,-187.5 1111,-168.5 1046,-168.5"/>
<text text-anchor="middle" x="1078.5" y="-175.5" font-family="Helvetica,sans-Serif" font-size="10.00">exception</text>
</a>
</g>
</g>
<!-- Node13&#45;&gt;Node27 -->
<g id="edge32" class="edge">
<title>Node13&#45;&gt;Node27</title>
<path fill="none" stroke="midnightblue" d="M1186.22,-224.44C1165.15,-215.56 1131.98,-201.56 1108.01,-191.45"/>
<polygon fill="midnightblue" stroke="midnightblue" points="1109.26,-188.18 1098.69,-187.52 1106.54,-194.63 1109.26,-188.18"/>
</g>
<!-- Node15 -->
<g id="node15" class="node">
<title>Node15</title>
<g id="a_node15"><a xlink:href="include_2ccf_2crypto_2base64_8h.html" target="_top" xlink:title=" ">
<polygon fill="white" stroke="black" points="847.5,-56.5 847.5,-75.5 959.5,-75.5 959.5,-56.5 847.5,-56.5"/>
<text text-anchor="middle" x="903.5" y="-63.5" font-family="Helvetica,sans-Serif" font-size="10.00">ccf/crypto/base64.h</text>
</a>
</g>
</g>
<!-- Node14&#45;&gt;Node15 -->
<g id="edge15" class="edge">
<title>Node14&#45;&gt;Node15</title>
<path fill="none" stroke="midnightblue" d="M1128.97,-168.71C1097.01,-161.16 1050.79,-148.65 1012.5,-132 979.97,-117.86 945.24,-95.79 923.95,-81.37"/>
<polygon fill="midnightblue" stroke="midnightblue" points="925.92,-78.47 915.69,-75.7 921.96,-84.24 925.92,-78.47"/>
</g>
<!-- Node17 -->
<g id="node17" class="node">
<title>Node17</title>
<g id="a_node17"><a xlink:href="include_2ccf_2ds_2json__schema_8h.html" target="_top" xlink:title=" ">
<polygon fill="white" stroke="black" points="1096,-112.5 1096,-131.5 1217,-131.5 1217,-112.5 1096,-112.5"/>
<text text-anchor="middle" x="1156.5" y="-119.5" font-family="Helvetica,sans-Serif" font-size="10.00">ccf/ds/json_schema.h</text>
</a>
</g>
</g>
<!-- Node14&#45;&gt;Node17 -->
<g id="edge18" class="edge">
<title>Node14&#45;&gt;Node17</title>
<path fill="none" stroke="midnightblue" d="M1165.68,-168.08C1164.23,-160.93 1162.13,-150.64 1160.31,-141.69"/>
<polygon fill="midnightblue" stroke="midnightblue" points="1163.71,-140.85 1158.28,-131.75 1156.85,-142.25 1163.71,-140.85"/>
</g>
<!-- Node14&#45;&gt;Node24 -->
<g id="edge29" class="edge">
<title>Node14&#45;&gt;Node24</title>
<path fill="none" stroke="midnightblue" d="M1182.88,-168.43C1195.99,-160.47 1214.55,-147.51 1226.5,-132 1237.21,-118.1 1244.4,-99.34 1248.65,-85.55"/>
<polygon fill="midnightblue" stroke="midnightblue" points="1252.07,-86.31 1251.44,-75.74 1245.34,-84.4 1252.07,-86.31"/>
</g>
<!-- Node26 -->
<g id="node26" class="node">
<title>Node26</title>
<g id="a_node26"><a xlink:title=" ">
<polygon fill="white" stroke="#bfbfbf" points="1021.5,-112.5 1021.5,-131.5 1077.5,-131.5 1077.5,-112.5 1021.5,-112.5"/>
<text text-anchor="middle" x="1049.5" y="-119.5" font-family="Helvetica,sans-Serif" font-size="10.00">sstream</text>
</a>
</g>
</g>
<!-- Node14&#45;&gt;Node26 -->
<g id="edge30" class="edge">
<title>Node14&#45;&gt;Node26</title>
<path fill="none" stroke="midnightblue" d="M1148.8,-168.44C1129.56,-159.64 1099.35,-145.81 1077.3,-135.72"/>
<polygon fill="midnightblue" stroke="midnightblue" points="1078.66,-132.5 1068.11,-131.52 1075.75,-138.86 1078.66,-132.5"/>
</g>
<!-- Node15&#45;&gt;Node10 -->
<g id="edge17" class="edge">
<title>Node15&#45;&gt;Node10</title>
<path fill="none" stroke="midnightblue" d="M890,-56.32C876.9,-47.9 856.79,-34.97 841.39,-25.07"/>
<polygon fill="midnightblue" stroke="midnightblue" points="843.27,-22.12 832.96,-19.65 839.48,-28.01 843.27,-22.12"/>
</g>
<!-- Node16 -->
<g id="node16" class="node">
<title>Node16</title>
<g id="a_node16"><a xlink:title=" ">
<polygon fill="white" stroke="#bfbfbf" points="901.5,-0.5 901.5,-19.5 945.5,-19.5 945.5,-0.5 901.5,-0.5"/>
<text text-anchor="middle" x="923.5" y="-7.5" font-family="Helvetica,sans-Serif" font-size="10.00">string</text>
</a>
</g>
</g>
<!-- Node15&#45;&gt;Node16 -->
<g id="edge16" class="edge">
<title>Node15&#45;&gt;Node16</title>
<path fill="none" stroke="midnightblue" d="M906.8,-56.08C909.48,-48.85 913.35,-38.41 916.69,-29.4"/>
<polygon fill="midnightblue" stroke="midnightblue" points="920.07,-30.34 920.26,-19.75 913.5,-27.91 920.07,-30.34"/>
</g>
<!-- Node18 -->
<g id="node18" class="node">
<title>Node18</title>
<g id="a_node18"><a xlink:href="nonstd_8h.html" target="_top" xlink:title=" ">
<polygon fill="white" stroke="black" points="1105.5,-56.5 1105.5,-75.5 1195.5,-75.5 1195.5,-56.5 1105.5,-56.5"/>
<text text-anchor="middle" x="1150.5" y="-63.5" font-family="Helvetica,sans-Serif" font-size="10.00">ccf/ds/nonstd.h</text>
</a>
</g>
</g>
<!-- Node17&#45;&gt;Node18 -->
<g id="edge19" class="edge">
<title>Node17&#45;&gt;Node18</title>
<path fill="none" stroke="midnightblue" d="M1155.51,-112.08C1154.71,-104.93 1153.57,-94.64 1152.58,-85.69"/>
<polygon fill="midnightblue" stroke="midnightblue" points="1156.06,-85.3 1151.47,-75.75 1149.1,-86.08 1156.06,-85.3"/>
</g>
<!-- Node17&#45;&gt;Node24 -->
<g id="edge27" class="edge">
<title>Node17&#45;&gt;Node24</title>
<path fill="none" stroke="midnightblue" d="M1172.08,-112.32C1187.5,-103.74 1211.31,-90.49 1229.21,-80.52"/>
<polygon fill="midnightblue" stroke="midnightblue" points="1230.92,-83.58 1237.95,-75.65 1227.51,-77.46 1230.92,-83.58"/>
</g>
<!-- Node25 -->
<g id="node25" class="node">
<title>Node25</title>
<g id="a_node25"><a xlink:title=" ">
<polygon fill="white" stroke="#bfbfbf" points="977.5,-56.5 977.5,-75.5 1087.5,-75.5 1087.5,-56.5 977.5,-56.5"/>
<text text-anchor="middle" x="1032.5" y="-63.5" font-family="Helvetica,sans-Serif" font-size="10.00">nlohmann/json.hpp</text>
</a>
</g>
</g>
<!-- Node17&#45;&gt;Node25 -->
<g id="edge28" class="edge">
<title>Node17&#45;&gt;Node25</title>
<path fill="none" stroke="midnightblue" d="M1136.85,-112.44C1116.54,-103.6 1084.6,-89.69 1061.4,-79.59"/>
<polygon fill="midnightblue" stroke="midnightblue" points="1062.62,-76.3 1052.06,-75.52 1059.83,-82.72 1062.62,-76.3"/>
</g>
<!-- Node18&#45;&gt;Node10 -->
<g id="edge26" class="edge">
<title>Node18&#45;&gt;Node10</title>
<path fill="none" stroke="midnightblue" d="M1105.42,-57.47C1102.4,-56.97 1099.41,-56.48 1096.5,-56 1008.8,-41.57 905.42,-24.85 853.25,-16.44"/>
<polygon fill="midnightblue" stroke="midnightblue" points="853.65,-12.96 843.22,-14.82 852.53,-19.87 853.65,-12.96"/>
</g>
<!-- Node18&#45;&gt;Node16 -->
<g id="edge23" class="edge">
<title>Node18&#45;&gt;Node16</title>
<path fill="none" stroke="midnightblue" d="M1114.53,-56.44C1070.74,-46.03 997.44,-28.59 955.52,-18.62"/>
<polygon fill="midnightblue" stroke="midnightblue" points="956.11,-15.16 945.57,-16.25 954.49,-21.97 956.11,-15.16"/>
</g>
<!-- Node19 -->
<g id="node19" class="node">
<title>Node19</title>
<g id="a_node19"><a xlink:title=" ">
<polygon fill="white" stroke="#bfbfbf" points="984.5,-0.5 984.5,-19.5 1048.5,-19.5 1048.5,-0.5 984.5,-0.5"/>
<text text-anchor="middle" x="1016.5" y="-7.5" font-family="Helvetica,sans-Serif" font-size="10.00">algorithm</text>
</a>
</g>
</g>
<!-- Node18&#45;&gt;Node19 -->
<g id="edge20" class="edge">
<title>Node18&#45;&gt;Node19</title>
<path fill="none" stroke="midnightblue" d="M1129.27,-56.44C1107.12,-47.52 1072.18,-33.44 1047.06,-23.32"/>
<polygon fill="midnightblue" stroke="midnightblue" points="1048.22,-20.01 1037.63,-19.52 1045.6,-26.5 1048.22,-20.01"/>
</g>
<!-- Node20 -->
<g id="node20" class="node">
<title>Node20</title>
<g id="a_node20"><a xlink:title=" ">
<polygon fill="white" stroke="#bfbfbf" points="1066.5,-0.5 1066.5,-19.5 1108.5,-19.5 1108.5,-0.5 1066.5,-0.5"/>
<text text-anchor="middle" x="1087.5" y="-7.5" font-family="Helvetica,sans-Serif" font-size="10.00">array</text>
</a>
</g>
</g>
<!-- Node18&#45;&gt;Node20 -->
<g id="edge21" class="edge">
<title>Node18&#45;&gt;Node20</title>
<path fill="none" stroke="midnightblue" d="M1140.38,-56.32C1130.97,-48.26 1116.76,-36.08 1105.43,-26.37"/>
<polygon fill="midnightblue" stroke="midnightblue" points="1107.68,-23.68 1097.81,-19.83 1103.12,-29 1107.68,-23.68"/>
</g>
<!-- Node21 -->
<g id="node21" class="node">
<title>Node21</title>
<g id="a_node21"><a xlink:title=" ">
<polygon fill="white" stroke="#bfbfbf" points="1127,-0.5 1127,-19.5 1176,-19.5 1176,-0.5 1127,-0.5"/>
<text text-anchor="middle" x="1151.5" y="-7.5" font-family="Helvetica,sans-Serif" font-size="10.00">cctype</text>
</a>
</g>
</g>
<!-- Node18&#45;&gt;Node21 -->
<g id="edge22" class="edge">
<title>Node18&#45;&gt;Node21</title>
<path fill="none" stroke="midnightblue" d="M1150.67,-56.08C1150.8,-49.01 1150.98,-38.86 1151.15,-29.99"/>
<polygon fill="midnightblue" stroke="midnightblue" points="1154.65,-29.81 1151.34,-19.75 1147.65,-29.68 1154.65,-29.81"/>
</g>
<!-- Node18&#45;&gt;Node22 -->
<g id="edge24" class="edge">
<title>Node18&#45;&gt;Node22</title>
<path fill="none" stroke="midnightblue" d="M1177.28,-56.44C1205.83,-47.32 1251.23,-32.81 1283.04,-22.65"/>
<polygon fill="midnightblue" stroke="midnightblue" points="1284.39,-25.89 1292.85,-19.52 1282.26,-19.23 1284.39,-25.89"/>
</g>
<!-- Node23 -->
<g id="node23" class="node">
<title>Node23</title>
<g id="a_node23"><a xlink:title=" ">
<polygon fill="white" stroke="#bfbfbf" points="1194,-0.5 1194,-19.5 1263,-19.5 1263,-0.5 1194,-0.5"/>
<text text-anchor="middle" x="1228.5" y="-7.5" font-family="Helvetica,sans-Serif" font-size="10.00">type_traits</text>
</a>
</g>
</g>
<!-- Node18&#45;&gt;Node23 -->
<g id="edge25" class="edge">
<title>Node18&#45;&gt;Node23</title>
<path fill="none" stroke="midnightblue" d="M1163.03,-56.32C1175.09,-47.98 1193.53,-35.21 1207.77,-25.35"/>
<polygon fill="midnightblue" stroke="midnightblue" points="1209.77,-28.22 1216,-19.65 1205.78,-22.47 1209.77,-28.22"/>
</g>
</g>
</svg>
        <g id="navigator" transform="translate(0 0)" fill="#404254">
                <rect fill="#f2f5e9" fill-opacity="0.5" stroke="#606060" stroke-width=".5" x="0" y="0" width="60" height="60"/>
                <use id="zoomplus" xlink:href="#zoomPlus" x="17" y="9" onmousedown="handleZoom(evt,'in')"/>
                <use id="zoomminus" xlink:href="#zoomMin" x="42" y="9" onmousedown="handleZoom(evt,'out')"/>
                <use id="reset" xlink:href="#resetDef" x="30" y="36" onmousedown="handleReset()"/>
                <g id="arrowUp" xlink:href="#dirArrow" transform="translate(30 24)" onmousedown="handlePan(0,-1)">
                  <use xlink:href="#rim" fill="#404040">
                        <set attributeName="fill" to="#808080" begin="arrowUp.mouseover" end="arrowUp.mouseout"/>
                  </use>
                  <path fill="none" stroke="white" stroke-width="1.5" d="M0,-3.0v7 M-2.5,-0.5L0,-3.0L2.5,-0.5"/>
                </g>
                <g id="arrowRight" xlink:href="#dirArrow" transform="rotate(90) translate(36 -43)" onmousedown="handlePan(1,0)">
                  <use xlink:href="#rim" fill="#404040">
                        <set attributeName="fill" to="#808080" begin="arrowRight.mouseover" end="arrowRight.mouseout"/>
                  </use>
                  <path fill="none" stroke="white" stroke-width="1.5" d="M0,-3.0v7 M-2.5,-0.5L0,-3.0L2.5,-0.5"/>
                </g>
                <g id="arrowDown" xlink:href="#dirArrow" transform="rotate(180) translate(-30 -48)" onmousedown="handlePan(0,1)">
                  <use xlink:href="#rim" fill="#404040">
                        <set attributeName="fill" to="#808080" begin="arrowDown.mouseover" end="arrowDown.mouseout"/>
                  </use>
                  <path fill="none" stroke="white" stroke-width="1.5" d="M0,-3.0v7 M-2.5,-0.5L0,-3.0L2.5,-0.5"/>
                </g>
                <g id="arrowLeft" xlink:href="#dirArrow" transform="rotate(270) translate(-36 17)" onmousedown="handlePan(-1,0)">
                  <use xlink:href="#rim" fill="#404040">
                        <set attributeName="fill" to="#808080" begin="arrowLeft.mouseover" end="arrowLeft.mouseout"/>
                  </use>
                  <path fill="none" stroke="white" stroke-width="1.5" d="M0,-3.0v7 M-2.5,-0.5L0,-3.0L2.5,-0.5"/>
                </g>
        </g>
        <svg viewBox="0 0 15 15" width="100%" height="30px" preserveAspectRatio="xMaxYMin meet">
         <g id="arrow_out" transform="scale(0.3 0.3)">
          <a xlink:href="src_2crypto_2openssl_2symmetric__key_8h__incl_org.svg" target="_base">
           <rect id="button" ry="5" rx="5" y="6" x="6" height="38" width="38"
                fill="#f2f5e9" fill-opacity="0.5" stroke="#606060" stroke-width="1.0"/>
           <path id="arrow"
             d="M 11.500037,31.436501 C 11.940474,20.09759 22.043105,11.32322 32.158766,21.979434 L 37.068811,17.246167 C 37.068811,17.246167 37.088388,32 37.088388,32 L 22.160133,31.978069 C 22.160133,31.978069 26.997745,27.140456 26.997745,27.140456 C 18.528582,18.264221 13.291696,25.230495 11.500037,31.436501 z"
             style="fill:#404040;"/>
          </a>
         </g>
        </svg>
</svg>
