<?xml version="1.0" encoding="UTF-8" standalone="no"?>
<!DOCTYPE svg PUBLIC "-//W3C//DTD SVG 1.1//EN"
 "http://www.w3.org/Graphics/SVG/1.1/DTD/svg11.dtd">
<!-- Generated by graphviz version 2.43.0 (0)
 -->
<!-- Title: src/crypto/openssl/entropy.h Pages: 1 -->
<svg width="1833pt" height="375pt"
 viewBox="0.00 0.00 1832.50 375.00" xmlns="http://www.w3.org/2000/svg" xmlns:xlink="http://www.w3.org/1999/xlink">
<g id="graph0" class="graph" transform="scale(1 1) rotate(0) translate(4 371)">
<title>src/crypto/openssl/entropy.h</title>
<polygon fill="white" stroke="transparent" points="-4,4 -4,-371 1828.5,-371 1828.5,4 -4,4"/>
<!-- Node1 -->
<g id="node1" class="node">
<title>Node1</title>
<g id="a_node1"><a xlink:title=" ">
<polygon fill="#bfbfbf" stroke="black" points="1124.5,-336.5 1124.5,-366.5 1229.5,-366.5 1229.5,-336.5 1124.5,-336.5"/>
<text text-anchor="start" x="1132.5" y="-354.5" font-family="Helvetica,sans-Serif" font-size="10.00">src/crypto/openssl</text>
<text text-anchor="middle" x="1177" y="-343.5" font-family="Helvetica,sans-Serif" font-size="10.00">/entropy.h</text>
</a>
</g>
</g>
<!-- Node2 -->
<g id="node2" class="node">
<title>Node2</title>
<g id="a_node2"><a xlink:href="include_2ccf_2crypto_2entropy_8h.html" target="_top" xlink:title=" ">
<polygon fill="white" stroke="black" points="150.5,-224.5 150.5,-243.5 263.5,-243.5 263.5,-224.5 150.5,-224.5"/>
<text text-anchor="middle" x="207" y="-231.5" font-family="Helvetica,sans-Serif" font-size="10.00">ccf/crypto/entropy.h</text>
</a>
</g>
</g>
<!-- Node1&#45;&gt;Node2 -->
<g id="edge1" class="edge">
<title>Node1&#45;&gt;Node2</title>
<path fill="none" stroke="midnightblue" d="M1124.34,-349.6C943.68,-346.22 355.88,-332.81 278,-300 253.8,-289.8 232.55,-267.63 219.76,-252.03"/>
<polygon fill="midnightblue" stroke="midnightblue" points="222.17,-249.44 213.24,-243.74 216.67,-253.76 222.17,-249.44"/>
</g>
<!-- Node6 -->
<g id="node6" class="node">
<title>Node6</title>
<g id="a_node6"><a xlink:title=" ">
<polygon fill="white" stroke="#bfbfbf" points="391,-168.5 391,-187.5 449,-187.5 449,-168.5 391,-168.5"/>
<text text-anchor="middle" x="420" y="-175.5" font-family="Helvetica,sans-Serif" font-size="10.00">memory</text>
</a>
</g>
</g>
<!-- Node1&#45;&gt;Node6 -->
<g id="edge46" class="edge">
<title>Node1&#45;&gt;Node6</title>
<path fill="none" stroke="midnightblue" d="M1124.39,-347.78C948.97,-338.17 392.13,-303.19 340,-244 321.51,-223.01 355.43,-203.41 384.65,-191.34"/>
<polygon fill="midnightblue" stroke="midnightblue" points="386.28,-194.46 394.3,-187.54 383.71,-187.95 386.28,-194.46"/>
</g>
<!-- Node9 -->
<g id="node9" class="node">
<title>Node9</title>
<g id="a_node9"><a xlink:title=" ">
<polygon fill="white" stroke="#bfbfbf" points="1268.5,-0.5 1268.5,-19.5 1315.5,-19.5 1315.5,-0.5 1268.5,-0.5"/>
<text text-anchor="middle" x="1292" y="-7.5" font-family="Helvetica,sans-Serif" font-size="10.00">vector</text>
</a>
</g>
</g>
<!-- Node1&#45;&gt;Node9 -->
<g id="edge48" class="edge">
<title>Node1&#45;&gt;Node9</title>
<path fill="none" stroke="midnightblue" d="M1229.67,-343.6C1286.46,-333.04 1374.19,-306.96 1415,-244 1421.14,-234.52 1429.72,-202.28 1414,-168 1388.42,-112.2 1343.76,-127.9 1311,-76 1302.08,-61.86 1297.2,-43.38 1294.64,-29.74"/>
<polygon fill="midnightblue" stroke="midnightblue" points="1298.05,-28.92 1292.98,-19.62 1291.14,-30.05 1298.05,-28.92"/>
</g>
<!-- Node10 -->
<g id="node10" class="node">
<title>Node10</title>
<g id="a_node10"><a xlink:href="openssl__wrappers_8h.html" target="_top" xlink:title=" ">
<polygon fill="white" stroke="black" points="863.5,-280.5 863.5,-299.5 976.5,-299.5 976.5,-280.5 863.5,-280.5"/>
<text text-anchor="middle" x="920" y="-287.5" font-family="Helvetica,sans-Serif" font-size="10.00">openssl_wrappers.h</text>
</a>
</g>
</g>
<!-- Node1&#45;&gt;Node10 -->
<g id="edge9" class="edge">
<title>Node1&#45;&gt;Node10</title>
<path fill="none" stroke="midnightblue" d="M1124.37,-338.32C1078.05,-327.59 1011.23,-312.12 966.76,-301.83"/>
<polygon fill="midnightblue" stroke="midnightblue" points="967.32,-298.36 956.79,-299.52 965.74,-305.18 967.32,-298.36"/>
</g>
<!-- Node36 -->
<g id="node36" class="node">
<title>Node36</title>
<g id="a_node36"><a xlink:title=" ">
<polygon fill="white" stroke="#bfbfbf" points="1462.5,-280.5 1462.5,-299.5 1527.5,-299.5 1527.5,-280.5 1462.5,-280.5"/>
<text text-anchor="middle" x="1495" y="-287.5" font-family="Helvetica,sans-Serif" font-size="10.00">functional</text>
</a>
</g>
</g>
<!-- Node1&#45;&gt;Node36 -->
<g id="edge45" class="edge">
<title>Node1&#45;&gt;Node36</title>
<path fill="none" stroke="midnightblue" d="M1229.73,-340.75C1284.35,-330.64 1372.17,-314.33 1448,-300 1449.45,-299.73 1450.93,-299.45 1452.43,-299.16"/>
<polygon fill="midnightblue" stroke="midnightblue" points="1453.22,-302.57 1462.39,-297.27 1451.91,-295.7 1453.22,-302.57"/>
</g>
<!-- Node37 -->
<g id="node37" class="node">
<title>Node37</title>
<g id="a_node37"><a xlink:title=" ">
<polygon fill="white" stroke="#bfbfbf" points="1546,-280.5 1546,-299.5 1634,-299.5 1634,-280.5 1546,-280.5"/>
<text text-anchor="middle" x="1590" y="-287.5" font-family="Helvetica,sans-Serif" font-size="10.00">openssl/rand.h</text>
</a>
</g>
</g>
<!-- Node1&#45;&gt;Node37 -->
<g id="edge47" class="edge">
<title>Node1&#45;&gt;Node37</title>
<path fill="none" stroke="midnightblue" d="M1229.54,-343.61C1297.72,-334.57 1420.65,-317.9 1535.73,-300.16"/>
<polygon fill="midnightblue" stroke="midnightblue" points="1536.42,-303.6 1545.77,-298.61 1535.35,-296.68 1536.42,-303.6"/>
</g>
<!-- Node3 -->
<g id="node3" class="node">
<title>Node3</title>
<g id="a_node3"><a xlink:title=" ">
<polygon fill="white" stroke="#bfbfbf" points="0,-168.5 0,-187.5 52,-187.5 52,-168.5 0,-168.5"/>
<text text-anchor="middle" x="26" y="-175.5" font-family="Helvetica,sans-Serif" font-size="10.00">cassert</text>
</a>
</g>
</g>
<!-- Node2&#45;&gt;Node3 -->
<g id="edge2" class="edge">
<title>Node2&#45;&gt;Node3</title>
<path fill="none" stroke="midnightblue" d="M178.32,-224.44C146.75,-215.02 95.95,-199.87 61.79,-189.68"/>
<polygon fill="midnightblue" stroke="midnightblue" points="62.78,-186.32 52.2,-186.82 60.78,-193.03 62.78,-186.32"/>
</g>
<!-- Node4 -->
<g id="node4" class="node">
<title>Node4</title>
<g id="a_node4"><a xlink:title=" ">
<polygon fill="white" stroke="#bfbfbf" points="70,-168.5 70,-187.5 120,-187.5 120,-168.5 70,-168.5"/>
<text text-anchor="middle" x="95" y="-175.5" font-family="Helvetica,sans-Serif" font-size="10.00">cstdint</text>
</a>
</g>
</g>
<!-- Node2&#45;&gt;Node4 -->
<g id="edge3" class="edge">
<title>Node2&#45;&gt;Node4</title>
<path fill="none" stroke="midnightblue" d="M189.01,-224.32C170.96,-215.62 142.95,-202.12 122.2,-192.11"/>
<polygon fill="midnightblue" stroke="midnightblue" points="123.48,-188.84 112.95,-187.65 120.44,-195.15 123.48,-188.84"/>
</g>
<!-- Node5 -->
<g id="node5" class="node">
<title>Node5</title>
<g id="a_node5"><a xlink:title=" ">
<polygon fill="white" stroke="#bfbfbf" points="323,-168.5 323,-187.5 373,-187.5 373,-168.5 323,-168.5"/>
<text text-anchor="middle" x="348" y="-175.5" font-family="Helvetica,sans-Serif" font-size="10.00">cstring</text>
</a>
</g>
</g>
<!-- Node2&#45;&gt;Node5 -->
<g id="edge4" class="edge">
<title>Node2&#45;&gt;Node5</title>
<path fill="none" stroke="midnightblue" d="M229.34,-224.44C252.75,-215.48 289.74,-201.31 316.19,-191.18"/>
<polygon fill="midnightblue" stroke="midnightblue" points="317.68,-194.36 325.76,-187.52 315.17,-187.82 317.68,-194.36"/>
</g>
<!-- Node2&#45;&gt;Node6 -->
<g id="edge5" class="edge">
<title>Node2&#45;&gt;Node6</title>
<path fill="none" stroke="midnightblue" d="M240.75,-224.44C278.92,-214.77 340.98,-199.03 381.15,-188.85"/>
<polygon fill="midnightblue" stroke="midnightblue" points="382.02,-192.24 390.86,-186.39 380.3,-185.45 382.02,-192.24"/>
</g>
<!-- Node7 -->
<g id="node7" class="node">
<title>Node7</title>
<g id="a_node7"><a xlink:title=" ">
<polygon fill="white" stroke="#bfbfbf" points="138.5,-168.5 138.5,-187.5 203.5,-187.5 203.5,-168.5 138.5,-168.5"/>
<text text-anchor="middle" x="171" y="-175.5" font-family="Helvetica,sans-Serif" font-size="10.00">stdexcept</text>
</a>
</g>
</g>
<!-- Node2&#45;&gt;Node7 -->
<g id="edge6" class="edge">
<title>Node2&#45;&gt;Node7</title>
<path fill="none" stroke="midnightblue" d="M201.06,-224.08C196.02,-216.53 188.66,-205.49 182.49,-196.23"/>
<polygon fill="midnightblue" stroke="midnightblue" points="185.29,-194.13 176.83,-187.75 179.47,-198.01 185.29,-194.13"/>
</g>
<!-- Node8 -->
<g id="node8" class="node">
<title>Node8</title>
<g id="a_node8"><a xlink:title=" ">
<polygon fill="white" stroke="#bfbfbf" points="221.5,-168.5 221.5,-187.5 266.5,-187.5 266.5,-168.5 221.5,-168.5"/>
<text text-anchor="middle" x="244" y="-175.5" font-family="Helvetica,sans-Serif" font-size="10.00">utility</text>
</a>
</g>
</g>
<!-- Node2&#45;&gt;Node8 -->
<g id="edge7" class="edge">
<title>Node2&#45;&gt;Node8</title>
<path fill="none" stroke="midnightblue" d="M213.11,-224.08C218.28,-216.53 225.85,-205.49 232.19,-196.23"/>
<polygon fill="midnightblue" stroke="midnightblue" points="235.24,-197.98 238,-187.75 229.46,-194.02 235.24,-197.98"/>
</g>
<!-- Node2&#45;&gt;Node9 -->
<g id="edge8" class="edge">
<title>Node2&#45;&gt;Node9</title>
<path fill="none" stroke="midnightblue" d="M219.67,-224.44C243.5,-208.51 294.32,-175.24 314,-168 666.84,-38.19 1130.32,-15.59 1258.12,-11.76"/>
<polygon fill="midnightblue" stroke="midnightblue" points="1258.53,-15.25 1268.42,-11.47 1258.33,-8.25 1258.53,-15.25"/>
</g>
<!-- Node10&#45;&gt;Node6 -->
<g id="edge35" class="edge">
<title>Node10&#45;&gt;Node6</title>
<path fill="none" stroke="midnightblue" d="M863.41,-288.8C725.99,-287.71 383.44,-281.27 349,-244 331.04,-224.57 362.45,-204.31 389.04,-191.68"/>
<polygon fill="midnightblue" stroke="midnightblue" points="390.49,-194.86 398.15,-187.54 387.6,-188.49 390.49,-194.86"/>
</g>
<!-- Node11 -->
<g id="node11" class="node">
<title>Node11</title>
<g id="a_node11"><a xlink:href="pem_8h.html" target="_top" xlink:title=" ">
<polygon fill="white" stroke="black" points="1308,-224.5 1308,-243.5 1406,-243.5 1406,-224.5 1308,-224.5"/>
<text text-anchor="middle" x="1357" y="-231.5" font-family="Helvetica,sans-Serif" font-size="10.00">ccf/crypto/pem.h</text>
</a>
</g>
</g>
<!-- Node10&#45;&gt;Node11 -->
<g id="edge10" class="edge">
<title>Node10&#45;&gt;Node11</title>
<path fill="none" stroke="midnightblue" d="M976.59,-282.92C1048.71,-275.03 1177.49,-260.46 1297.84,-244.12"/>
<polygon fill="midnightblue" stroke="midnightblue" points="1298.54,-247.55 1307.97,-242.73 1297.59,-240.62 1298.54,-247.55"/>
</g>
<!-- Node22 -->
<g id="node22" class="node">
<title>Node22</title>
<g id="a_node22"><a xlink:title=" ">
<polygon fill="white" stroke="#bfbfbf" points="1686.5,-56.5 1686.5,-75.5 1765.5,-75.5 1765.5,-56.5 1686.5,-56.5"/>
<text text-anchor="middle" x="1726" y="-63.5" font-family="Helvetica,sans-Serif" font-size="10.00">fmt/format.h</text>
</a>
</g>
</g>
<!-- Node10&#45;&gt;Node22 -->
<g id="edge34" class="edge">
<title>Node10&#45;&gt;Node22</title>
<path fill="none" stroke="midnightblue" d="M976.81,-288.72C1069.65,-287.19 1259.14,-279.51 1415,-244 1484.38,-228.19 1498.53,-213.42 1565,-188 1628.75,-163.62 1662.29,-182.69 1708,-132 1719.39,-119.38 1723.65,-100.16 1725.2,-85.9"/>
<polygon fill="midnightblue" stroke="midnightblue" points="1728.71,-85.97 1725.95,-75.74 1721.73,-85.45 1728.71,-85.97"/>
</g>
<!-- Node27 -->
<g id="node27" class="node">
<title>Node27</title>
<g id="a_node27"><a xlink:title=" ">
<polygon fill="white" stroke="#bfbfbf" points="358.5,-224.5 358.5,-243.5 447.5,-243.5 447.5,-224.5 358.5,-224.5"/>
<text text-anchor="middle" x="403" y="-231.5" font-family="Helvetica,sans-Serif" font-size="10.00">openssl/asn1.h</text>
</a>
</g>
</g>
<!-- Node10&#45;&gt;Node27 -->
<g id="edge36" class="edge">
<title>Node10&#45;&gt;Node27</title>
<path fill="none" stroke="midnightblue" d="M863.42,-284.83C777.76,-278.22 609.82,-264.13 457.78,-244.16"/>
<polygon fill="midnightblue" stroke="midnightblue" points="458.16,-240.68 447.79,-242.84 457.24,-247.62 458.16,-240.68"/>
</g>
<!-- Node28 -->
<g id="node28" class="node">
<title>Node28</title>
<g id="a_node28"><a xlink:title=" ">
<polygon fill="white" stroke="#bfbfbf" points="465.5,-224.5 465.5,-243.5 542.5,-243.5 542.5,-224.5 465.5,-224.5"/>
<text text-anchor="middle" x="504" y="-231.5" font-family="Helvetica,sans-Serif" font-size="10.00">openssl/ec.h</text>
</a>
</g>
</g>
<!-- Node10&#45;&gt;Node28 -->
<g id="edge37" class="edge">
<title>Node10&#45;&gt;Node28</title>
<path fill="none" stroke="midnightblue" d="M863.26,-283.29C792.72,-275.92 668.44,-262.06 552.78,-244.2"/>
<polygon fill="midnightblue" stroke="midnightblue" points="553.11,-240.71 542.69,-242.62 552.03,-247.62 553.11,-240.71"/>
</g>
<!-- Node29 -->
<g id="node29" class="node">
<title>Node29</title>
<g id="a_node29"><a xlink:title=" ">
<polygon fill="white" stroke="#bfbfbf" points="560.5,-224.5 560.5,-243.5 659.5,-243.5 659.5,-224.5 560.5,-224.5"/>
<text text-anchor="middle" x="610" y="-231.5" font-family="Helvetica,sans-Serif" font-size="10.00">openssl/engine.h</text>
</a>
</g>
</g>
<!-- Node10&#45;&gt;Node29 -->
<g id="edge38" class="edge">
<title>Node10&#45;&gt;Node29</title>
<path fill="none" stroke="midnightblue" d="M870.88,-280.44C816.12,-270.9 727.59,-255.48 669.09,-245.29"/>
<polygon fill="midnightblue" stroke="midnightblue" points="669.34,-241.78 658.89,-243.52 668.14,-248.68 669.34,-241.78"/>
</g>
<!-- Node30 -->
<g id="node30" class="node">
<title>Node30</title>
<g id="a_node30"><a xlink:title=" ">
<polygon fill="white" stroke="#bfbfbf" points="677.5,-224.5 677.5,-243.5 756.5,-243.5 756.5,-224.5 677.5,-224.5"/>
<text text-anchor="middle" x="717" y="-231.5" font-family="Helvetica,sans-Serif" font-size="10.00">openssl/err.h</text>
</a>
</g>
</g>
<!-- Node10&#45;&gt;Node30 -->
<g id="edge39" class="edge">
<title>Node10&#45;&gt;Node30</title>
<path fill="none" stroke="midnightblue" d="M887.83,-280.44C852.94,-271.16 797.11,-256.31 758.83,-246.13"/>
<polygon fill="midnightblue" stroke="midnightblue" points="759.58,-242.7 749.02,-243.52 757.78,-249.47 759.58,-242.7"/>
</g>
<!-- Node31 -->
<g id="node31" class="node">
<title>Node31</title>
<g id="a_node31"><a xlink:title=" ">
<polygon fill="white" stroke="#bfbfbf" points="774,-224.5 774,-243.5 858,-243.5 858,-224.5 774,-224.5"/>
<text text-anchor="middle" x="816" y="-231.5" font-family="Helvetica,sans-Serif" font-size="10.00">openssl/evp.h</text>
</a>
</g>
</g>
<!-- Node10&#45;&gt;Node31 -->
<g id="edge40" class="edge">
<title>Node10&#45;&gt;Node31</title>
<path fill="none" stroke="midnightblue" d="M903.29,-280.32C886.69,-271.7 861,-258.36 841.78,-248.39"/>
<polygon fill="midnightblue" stroke="midnightblue" points="843.16,-245.16 832.67,-243.65 839.93,-251.37 843.16,-245.16"/>
</g>
<!-- Node32 -->
<g id="node32" class="node">
<title>Node32</title>
<g id="a_node32"><a xlink:title=" ">
<polygon fill="white" stroke="#bfbfbf" points="876,-224.5 876,-243.5 964,-243.5 964,-224.5 876,-224.5"/>
<text text-anchor="middle" x="920" y="-231.5" font-family="Helvetica,sans-Serif" font-size="10.00">openssl/pem.h</text>
</a>
</g>
</g>
<!-- Node10&#45;&gt;Node32 -->
<g id="edge41" class="edge">
<title>Node10&#45;&gt;Node32</title>
<path fill="none" stroke="midnightblue" d="M920,-280.08C920,-273.01 920,-262.86 920,-253.99"/>
<polygon fill="midnightblue" stroke="midnightblue" points="923.5,-253.75 920,-243.75 916.5,-253.75 923.5,-253.75"/>
</g>
<!-- Node33 -->
<g id="node33" class="node">
<title>Node33</title>
<g id="a_node33"><a xlink:title=" ">
<polygon fill="white" stroke="#bfbfbf" points="982,-224.5 982,-243.5 1062,-243.5 1062,-224.5 982,-224.5"/>
<text text-anchor="middle" x="1022" y="-231.5" font-family="Helvetica,sans-Serif" font-size="10.00">openssl/ssl.h</text>
</a>
</g>
</g>
<!-- Node10&#45;&gt;Node33 -->
<g id="edge42" class="edge">
<title>Node10&#45;&gt;Node33</title>
<path fill="none" stroke="midnightblue" d="M936.39,-280.32C952.67,-271.7 977.87,-258.36 996.72,-248.39"/>
<polygon fill="midnightblue" stroke="midnightblue" points="998.45,-251.43 1005.65,-243.65 995.18,-245.24 998.45,-251.43"/>
</g>
<!-- Node34 -->
<g id="node34" class="node">
<title>Node34</title>
<g id="a_node34"><a xlink:title=" ">
<polygon fill="white" stroke="#bfbfbf" points="1080,-224.5 1080,-243.5 1170,-243.5 1170,-224.5 1080,-224.5"/>
<text text-anchor="middle" x="1125" y="-231.5" font-family="Helvetica,sans-Serif" font-size="10.00">openssl/x509.h</text>
</a>
</g>
</g>
<!-- Node10&#45;&gt;Node34 -->
<g id="edge43" class="edge">
<title>Node10&#45;&gt;Node34</title>
<path fill="none" stroke="midnightblue" d="M952.48,-280.44C987.72,-271.16 1044.1,-256.31 1082.76,-246.13"/>
<polygon fill="midnightblue" stroke="midnightblue" points="1083.89,-249.45 1092.67,-243.52 1082.11,-242.68 1083.89,-249.45"/>
</g>
<!-- Node35 -->
<g id="node35" class="node">
<title>Node35</title>
<g id="a_node35"><a xlink:title=" ">
<polygon fill="white" stroke="#bfbfbf" points="1188,-224.5 1188,-243.5 1290,-243.5 1290,-224.5 1188,-224.5"/>
<text text-anchor="middle" x="1239" y="-231.5" font-family="Helvetica,sans-Serif" font-size="10.00">openssl/x509v3.h</text>
</a>
</g>
</g>
<!-- Node10&#45;&gt;Node35 -->
<g id="edge44" class="edge">
<title>Node10&#45;&gt;Node35</title>
<path fill="none" stroke="midnightblue" d="M970.55,-280.44C1027.01,-270.89 1118.37,-255.42 1178.57,-245.23"/>
<polygon fill="midnightblue" stroke="midnightblue" points="1179.41,-248.64 1188.69,-243.52 1178.25,-241.73 1179.41,-248.64"/>
</g>
<!-- Node11&#45;&gt;Node5 -->
<g id="edge28" class="edge">
<title>Node11&#45;&gt;Node5</title>
<path fill="none" stroke="midnightblue" d="M1307.69,-224.95C1304.75,-224.6 1301.84,-224.28 1299,-224 896.3,-184.98 787.1,-247.53 383.03,-187.79"/>
<polygon fill="midnightblue" stroke="midnightblue" points="383.53,-184.32 373.12,-186.31 382.49,-191.25 383.53,-184.32"/>
</g>
<!-- Node11&#45;&gt;Node6 -->
<g id="edge30" class="edge">
<title>Node11&#45;&gt;Node6</title>
<path fill="none" stroke="midnightblue" d="M1308,-225.03C1304.96,-224.65 1301.94,-224.3 1299,-224 975.91,-190.75 583.37,-181.69 459.44,-179.58"/>
<polygon fill="midnightblue" stroke="midnightblue" points="459.35,-176.07 449.3,-179.41 459.24,-183.07 459.35,-176.07"/>
</g>
<!-- Node11&#45;&gt;Node9 -->
<g id="edge33" class="edge">
<title>Node11&#45;&gt;Node9</title>
<path fill="none" stroke="midnightblue" d="M1324.01,-224.44C1305.54,-217.77 1284.05,-206.45 1273,-188 1242.49,-137.04 1268.5,-62.83 1283.36,-29.01"/>
<polygon fill="midnightblue" stroke="midnightblue" points="1286.72,-30.07 1287.71,-19.52 1280.36,-27.15 1286.72,-30.07"/>
</g>
<!-- Node12 -->
<g id="node12" class="node">
<title>Node12</title>
<g id="a_node12"><a xlink:href="json_8h.html" target="_top" xlink:title=" ">
<polygon fill="white" stroke="black" points="1478.5,-168.5 1478.5,-187.5 1555.5,-187.5 1555.5,-168.5 1478.5,-168.5"/>
<text text-anchor="middle" x="1517" y="-175.5" font-family="Helvetica,sans-Serif" font-size="10.00">ccf/ds/json.h</text>
</a>
</g>
</g>
<!-- Node11&#45;&gt;Node12 -->
<g id="edge11" class="edge">
<title>Node11&#45;&gt;Node12</title>
<path fill="none" stroke="midnightblue" d="M1382.35,-224.44C1409.27,-215.36 1452,-200.94 1482.09,-190.78"/>
<polygon fill="midnightblue" stroke="midnightblue" points="1483.41,-194.03 1491.77,-187.52 1481.17,-187.4 1483.41,-194.03"/>
</g>
<!-- Node20 -->
<g id="node20" class="node">
<title>Node20</title>
<g id="a_node20"><a xlink:title=" ">
<polygon fill="white" stroke="#bfbfbf" points="1751.5,-0.5 1751.5,-19.5 1824.5,-19.5 1824.5,-0.5 1751.5,-0.5"/>
<text text-anchor="middle" x="1788" y="-7.5" font-family="Helvetica,sans-Serif" font-size="10.00">string_view</text>
</a>
</g>
</g>
<!-- Node11&#45;&gt;Node20 -->
<g id="edge32" class="edge">
<title>Node11&#45;&gt;Node20</title>
<path fill="none" stroke="midnightblue" d="M1406.06,-226.87C1476.9,-216.32 1610.07,-190 1708,-132 1741.39,-112.22 1755.18,-109.37 1775,-76 1783.36,-61.93 1786.44,-43.44 1787.53,-29.78"/>
<polygon fill="midnightblue" stroke="midnightblue" points="1791.03,-29.81 1788.05,-19.64 1784.04,-29.45 1791.03,-29.81"/>
</g>
<!-- Node25 -->
<g id="node25" class="node">
<title>Node25</title>
<g id="a_node25"><a xlink:title=" ">
<polygon fill="white" stroke="#bfbfbf" points="1340.5,-168.5 1340.5,-187.5 1405.5,-187.5 1405.5,-168.5 1340.5,-168.5"/>
<text text-anchor="middle" x="1373" y="-175.5" font-family="Helvetica,sans-Serif" font-size="10.00">exception</text>
</a>
</g>
</g>
<!-- Node11&#45;&gt;Node25 -->
<g id="edge29" class="edge">
<title>Node11&#45;&gt;Node25</title>
<path fill="none" stroke="midnightblue" d="M1359.64,-224.08C1361.79,-216.85 1364.88,-206.41 1367.55,-197.4"/>
<polygon fill="midnightblue" stroke="midnightblue" points="1370.92,-198.33 1370.41,-187.75 1364.21,-196.34 1370.92,-198.33"/>
</g>
<!-- Node26 -->
<g id="node26" class="node">
<title>Node26</title>
<g id="a_node26"><a xlink:title=" ">
<polygon fill="white" stroke="#bfbfbf" points="1282,-168.5 1282,-187.5 1322,-187.5 1322,-168.5 1282,-168.5"/>
<text text-anchor="middle" x="1302" y="-175.5" font-family="Helvetica,sans-Serif" font-size="10.00">span</text>
</a>
</g>
</g>
<!-- Node11&#45;&gt;Node26 -->
<g id="edge31" class="edge">
<title>Node11&#45;&gt;Node26</title>
<path fill="none" stroke="midnightblue" d="M1347.92,-224.08C1339.83,-216.14 1327.8,-204.34 1318.09,-194.8"/>
<polygon fill="midnightblue" stroke="midnightblue" points="1320.5,-192.26 1310.91,-187.75 1315.6,-197.25 1320.5,-192.26"/>
</g>
<!-- Node13 -->
<g id="node13" class="node">
<title>Node13</title>
<g id="a_node13"><a xlink:href="include_2ccf_2crypto_2base64_8h.html" target="_top" xlink:title=" ">
<polygon fill="white" stroke="black" points="1320,-56.5 1320,-75.5 1432,-75.5 1432,-56.5 1320,-56.5"/>
<text text-anchor="middle" x="1376" y="-63.5" font-family="Helvetica,sans-Serif" font-size="10.00">ccf/crypto/base64.h</text>
</a>
</g>
</g>
<!-- Node12&#45;&gt;Node13 -->
<g id="edge12" class="edge">
<title>Node12&#45;&gt;Node13</title>
<path fill="none" stroke="midnightblue" d="M1516.84,-168.22C1516.12,-154.48 1512.76,-127.82 1498,-112 1482.57,-95.47 1460.54,-84.99 1439.44,-78.35"/>
<polygon fill="midnightblue" stroke="midnightblue" points="1440.41,-74.99 1429.83,-75.56 1438.46,-81.71 1440.41,-74.99"/>
</g>
<!-- Node15 -->
<g id="node15" class="node">
<title>Node15</title>
<g id="a_node15"><a xlink:href="include_2ccf_2ds_2json__schema_8h.html" target="_top" xlink:title=" ">
<polygon fill="white" stroke="black" points="1554.5,-112.5 1554.5,-131.5 1675.5,-131.5 1675.5,-112.5 1554.5,-112.5"/>
<text text-anchor="middle" x="1615" y="-119.5" font-family="Helvetica,sans-Serif" font-size="10.00">ccf/ds/json_schema.h</text>
</a>
</g>
</g>
<!-- Node12&#45;&gt;Node15 -->
<g id="edge15" class="edge">
<title>Node12&#45;&gt;Node15</title>
<path fill="none" stroke="midnightblue" d="M1532.75,-168.32C1548.32,-159.74 1572.38,-146.49 1590.46,-136.52"/>
<polygon fill="midnightblue" stroke="midnightblue" points="1592.22,-139.55 1599.29,-131.65 1588.85,-133.42 1592.22,-139.55"/>
</g>
<!-- Node12&#45;&gt;Node22 -->
<g id="edge26" class="edge">
<title>Node12&#45;&gt;Node22</title>
<path fill="none" stroke="midnightblue" d="M1555.82,-174.63C1592.29,-170.67 1646.83,-160.12 1685,-132 1701.08,-120.16 1712.37,-99.94 1718.98,-85.2"/>
<polygon fill="midnightblue" stroke="midnightblue" points="1722.35,-86.2 1722.96,-75.62 1715.89,-83.51 1722.35,-86.2"/>
</g>
<!-- Node24 -->
<g id="node24" class="node">
<title>Node24</title>
<g id="a_node24"><a xlink:title=" ">
<polygon fill="white" stroke="#bfbfbf" points="1433,-112.5 1433,-131.5 1489,-131.5 1489,-112.5 1433,-112.5"/>
<text text-anchor="middle" x="1461" y="-119.5" font-family="Helvetica,sans-Serif" font-size="10.00">sstream</text>
</a>
</g>
</g>
<!-- Node12&#45;&gt;Node24 -->
<g id="edge27" class="edge">
<title>Node12&#45;&gt;Node24</title>
<path fill="none" stroke="midnightblue" d="M1508,-168.32C1499.81,-160.42 1487.49,-148.55 1477.53,-138.94"/>
<polygon fill="midnightblue" stroke="midnightblue" points="1479.79,-136.26 1470.16,-131.83 1474.93,-141.29 1479.79,-136.26"/>
</g>
<!-- Node13&#45;&gt;Node9 -->
<g id="edge14" class="edge">
<title>Node13&#45;&gt;Node9</title>
<path fill="none" stroke="midnightblue" d="M1362.5,-56.32C1349.4,-47.9 1329.29,-34.97 1313.89,-25.07"/>
<polygon fill="midnightblue" stroke="midnightblue" points="1315.77,-22.12 1305.46,-19.65 1311.98,-28.01 1315.77,-22.12"/>
</g>
<!-- Node14 -->
<g id="node14" class="node">
<title>Node14</title>
<g id="a_node14"><a xlink:title=" ">
<polygon fill="white" stroke="#bfbfbf" points="1364,-0.5 1364,-19.5 1408,-19.5 1408,-0.5 1364,-0.5"/>
<text text-anchor="middle" x="1386" y="-7.5" font-family="Helvetica,sans-Serif" font-size="10.00">string</text>
</a>
</g>
</g>
<!-- Node13&#45;&gt;Node14 -->
<g id="edge13" class="edge">
<title>Node13&#45;&gt;Node14</title>
<path fill="none" stroke="midnightblue" d="M1377.65,-56.08C1378.98,-48.93 1380.88,-38.64 1382.54,-29.69"/>
<polygon fill="midnightblue" stroke="midnightblue" points="1386,-30.22 1384.38,-19.75 1379.12,-28.95 1386,-30.22"/>
</g>
<!-- Node16 -->
<g id="node16" class="node">
<title>Node16</title>
<g id="a_node16"><a xlink:href="nonstd_8h.html" target="_top" xlink:title=" ">
<polygon fill="white" stroke="black" points="1578,-56.5 1578,-75.5 1668,-75.5 1668,-56.5 1578,-56.5"/>
<text text-anchor="middle" x="1623" y="-63.5" font-family="Helvetica,sans-Serif" font-size="10.00">ccf/ds/nonstd.h</text>
</a>
</g>
</g>
<!-- Node15&#45;&gt;Node16 -->
<g id="edge16" class="edge">
<title>Node15&#45;&gt;Node16</title>
<path fill="none" stroke="midnightblue" d="M1616.32,-112.08C1617.38,-104.93 1618.91,-94.64 1620.23,-85.69"/>
<polygon fill="midnightblue" stroke="midnightblue" points="1623.7,-86.16 1621.7,-75.75 1616.78,-85.13 1623.7,-86.16"/>
</g>
<!-- Node15&#45;&gt;Node22 -->
<g id="edge24" class="edge">
<title>Node15&#45;&gt;Node22</title>
<path fill="none" stroke="midnightblue" d="M1632.83,-112.32C1650.72,-103.62 1678.48,-90.12 1699.05,-80.11"/>
<polygon fill="midnightblue" stroke="midnightblue" points="1700.75,-83.18 1708.21,-75.65 1697.69,-76.88 1700.75,-83.18"/>
</g>
<!-- Node23 -->
<g id="node23" class="node">
<title>Node23</title>
<g id="a_node23"><a xlink:title=" ">
<polygon fill="white" stroke="#bfbfbf" points="1450,-56.5 1450,-75.5 1560,-75.5 1560,-56.5 1450,-56.5"/>
<text text-anchor="middle" x="1505" y="-63.5" font-family="Helvetica,sans-Serif" font-size="10.00">nlohmann/json.hpp</text>
</a>
</g>
</g>
<!-- Node15&#45;&gt;Node23 -->
<g id="edge25" class="edge">
<title>Node15&#45;&gt;Node23</title>
<path fill="none" stroke="midnightblue" d="M1597.33,-112.32C1579.61,-103.62 1552.1,-90.12 1531.71,-80.11"/>
<polygon fill="midnightblue" stroke="midnightblue" points="1533.15,-76.92 1522.63,-75.65 1530.06,-83.2 1533.15,-76.92"/>
</g>
<!-- Node16&#45;&gt;Node9 -->
<g id="edge23" class="edge">
<title>Node16&#45;&gt;Node9</title>
<path fill="none" stroke="midnightblue" d="M1577.92,-57.47C1574.9,-56.97 1571.91,-56.48 1569,-56 1481.3,-41.57 1377.92,-24.85 1325.75,-16.44"/>
<polygon fill="midnightblue" stroke="midnightblue" points="1326.15,-12.96 1315.72,-14.82 1325.03,-19.87 1326.15,-12.96"/>
</g>
<!-- Node16&#45;&gt;Node14 -->
<g id="edge20" class="edge">
<title>Node16&#45;&gt;Node14</title>
<path fill="none" stroke="midnightblue" d="M1585.45,-56.44C1539.17,-45.9 1461.33,-28.16 1417.85,-18.26"/>
<polygon fill="midnightblue" stroke="midnightblue" points="1418.61,-14.84 1408.08,-16.03 1417.06,-21.67 1418.61,-14.84"/>
</g>
<!-- Node17 -->
<g id="node17" class="node">
<title>Node17</title>
<g id="a_node17"><a xlink:title=" ">
<polygon fill="white" stroke="#bfbfbf" points="1597,-0.5 1597,-19.5 1661,-19.5 1661,-0.5 1597,-0.5"/>
<text text-anchor="middle" x="1629" y="-7.5" font-family="Helvetica,sans-Serif" font-size="10.00">algorithm</text>
</a>
</g>
</g>
<!-- Node16&#45;&gt;Node17 -->
<g id="edge17" class="edge">
<title>Node16&#45;&gt;Node17</title>
<path fill="none" stroke="midnightblue" d="M1623.99,-56.08C1624.79,-48.93 1625.93,-38.64 1626.92,-29.69"/>
<polygon fill="midnightblue" stroke="midnightblue" points="1630.4,-30.08 1628.03,-19.75 1623.44,-29.3 1630.4,-30.08"/>
</g>
<!-- Node18 -->
<g id="node18" class="node">
<title>Node18</title>
<g id="a_node18"><a xlink:title=" ">
<polygon fill="white" stroke="#bfbfbf" points="1679,-0.5 1679,-19.5 1721,-19.5 1721,-0.5 1679,-0.5"/>
<text text-anchor="middle" x="1700" y="-7.5" font-family="Helvetica,sans-Serif" font-size="10.00">array</text>
</a>
</g>
</g>
<!-- Node16&#45;&gt;Node18 -->
<g id="edge18" class="edge">
<title>Node16&#45;&gt;Node18</title>
<path fill="none" stroke="midnightblue" d="M1635.37,-56.32C1647.16,-48.06 1665.13,-35.45 1679.14,-25.63"/>
<polygon fill="midnightblue" stroke="midnightblue" points="1681.48,-28.26 1687.66,-19.65 1677.46,-22.53 1681.48,-28.26"/>
</g>
<!-- Node19 -->
<g id="node19" class="node">
<title>Node19</title>
<g id="a_node19"><a xlink:title=" ">
<polygon fill="white" stroke="#bfbfbf" points="1442.5,-0.5 1442.5,-19.5 1491.5,-19.5 1491.5,-0.5 1442.5,-0.5"/>
<text text-anchor="middle" x="1467" y="-7.5" font-family="Helvetica,sans-Serif" font-size="10.00">cctype</text>
</a>
</g>
</g>
<!-- Node16&#45;&gt;Node19 -->
<g id="edge19" class="edge">
<title>Node16&#45;&gt;Node19</title>
<path fill="none" stroke="midnightblue" d="M1598.28,-56.44C1572.15,-47.4 1530.74,-33.06 1501.42,-22.92"/>
<polygon fill="midnightblue" stroke="midnightblue" points="1502.2,-19.48 1491.6,-19.52 1499.91,-26.1 1502.2,-19.48"/>
</g>
<!-- Node16&#45;&gt;Node20 -->
<g id="edge21" class="edge">
<title>Node16&#45;&gt;Node20</title>
<path fill="none" stroke="midnightblue" d="M1649.14,-56.44C1677.02,-47.32 1721.35,-32.81 1752.4,-22.65"/>
<polygon fill="midnightblue" stroke="midnightblue" points="1753.56,-25.95 1761.98,-19.52 1751.38,-19.3 1753.56,-25.95"/>
</g>
<!-- Node21 -->
<g id="node21" class="node">
<title>Node21</title>
<g id="a_node21"><a xlink:title=" ">
<polygon fill="white" stroke="#bfbfbf" points="1509.5,-0.5 1509.5,-19.5 1578.5,-19.5 1578.5,-0.5 1509.5,-0.5"/>
<text text-anchor="middle" x="1544" y="-7.5" font-family="Helvetica,sans-Serif" font-size="10.00">type_traits</text>
</a>
</g>
</g>
<!-- Node16&#45;&gt;Node21 -->
<g id="edge22" class="edge">
<title>Node16&#45;&gt;Node21</title>
<path fill="none" stroke="midnightblue" d="M1610.31,-56.32C1598.1,-47.98 1579.42,-35.21 1565,-25.35"/>
<polygon fill="midnightblue" stroke="midnightblue" points="1566.89,-22.41 1556.66,-19.65 1562.94,-28.19 1566.89,-22.41"/>
</g>
</g>
</svg>
