<?xml version="1.0" encoding="UTF-8" standalone="no"?>
<!DOCTYPE svg PUBLIC "-//W3C//DTD SVG 1.1//EN"
 "http://www.w3.org/Graphics/SVG/1.1/DTD/svg11.dtd">
<!-- Generated by graphviz version 2.43.0 (0)
 -->
<!-- Title: src/crypto/openssl/base64.h Pages: 1 -->
<!--zoomable 386 -->
<svg id="main" version="1.1" xmlns="http://www.w3.org/2000/svg" xmlns:xlink="http://www.w3.org/1999/xlink" xml:space="preserve" onload="init(evt)">
<style type="text/css"><![CDATA[
.edge:hover path { stroke: red; }
.edge:hover polygon { stroke: red; fill: red; }
]]></style>
<script type="text/javascript"><![CDATA[
var edges = document.getElementsByTagName('g');
if (edges && edges.length) {
  for (var i=0;i<edges.length;i++) {
    if (edges[i].id.substr(0,4)=='edge') {
      edges[i].setAttribute('class','edge');
    }
  }
}
]]></script>
        <defs>
                <circle id="rim" cx="0" cy="0" r="7"/>
                <circle id="rim2" cx="0" cy="0" r="3.5"/>
                <g id="zoomPlus">
                        <use xlink:href="#rim" fill="#404040">
                                <set attributeName="fill" to="#808080" begin="zoomplus.mouseover" end="zoomplus.mouseout"/>
                        </use>
                        <path d="M-4,0h8M0,-4v8" fill="none" stroke="white" stroke-width="1.5" pointer-events="none"/>
                </g>
                <g id="zoomMin">
                        <use xlink:href="#rim" fill="#404040">
                                <set attributeName="fill" to="#808080" begin="zoomminus.mouseover" end="zoomminus.mouseout"/>
                        </use>
                        <path d="M-4,0h8" fill="none" stroke="white" stroke-width="1.5" pointer-events="none"/>
                </g>
                <g id="dirArrow">
                        <path fill="none" stroke="white" stroke-width="1.5" d="M0,-3.0v7 M-2.5,-0.5L0,-3.0L2.5,-0.5"/>
                </g>
               <g id="resetDef">
                       <use xlink:href="#rim2" fill="#404040">
                               <set attributeName="fill" to="#808080" begin="reset.mouseover" end="reset.mouseout"/>
                       </use>
               </g>
        </defs>

<script type="text/javascript">
var viewWidth = 1414;
var viewHeight = 386;
var sectionId = 'dynsection-0';
</script>
<script xlink:href="svgpan.js"/>
<svg id="graph" class="graph">
<g id="viewport">
<title>src/crypto/openssl/base64.h</title>
<polygon fill="white" stroke="transparent" points="-4,4 -4,-382 1409.82,-382 1409.82,4 -4,4"/>
<!-- Node1 -->
<g id="node1" class="node">
<title>Node1</title>
<g id="a_node1"><a xlink:title=" ">
<polygon fill="#bfbfbf" stroke="black" points="1207.32,-347.5 1207.32,-377.5 1312.32,-377.5 1312.32,-347.5 1207.32,-347.5"/>
<text text-anchor="start" x="1215.32" y="-365.5" font-family="Helvetica,sans-Serif" font-size="10.00">src/crypto/openssl</text>
<text text-anchor="middle" x="1259.82" y="-354.5" font-family="Helvetica,sans-Serif" font-size="10.00">/base64.h</text>
</a>
</g>
</g>
<!-- Node2 -->
<g id="node2" class="node">
<title>Node2</title>
<g id="a_node2"><a xlink:href="logger_8h.html" target="_top" xlink:title=" ">
<polygon fill="white" stroke="black" points="273.32,-168.5 273.32,-187.5 360.32,-187.5 360.32,-168.5 273.32,-168.5"/>
<text text-anchor="middle" x="316.82" y="-175.5" font-family="Helvetica,sans-Serif" font-size="10.00">ccf/ds/logger.h</text>
</a>
</g>
</g>
<!-- Node1&#45;&gt;Node2 -->
<g id="edge1" class="edge">
<title>Node1&#45;&gt;Node2</title>
<path fill="none" stroke="midnightblue" d="M1207.09,-359.67C1002.91,-352.07 272.2,-319.72 204.82,-244 182.29,-218.69 225.12,-200.65 264.15,-190.09"/>
<polygon fill="midnightblue" stroke="midnightblue" points="265.13,-193.45 273.95,-187.57 263.39,-186.67 265.13,-193.45"/>
</g>
<!-- Node16 -->
<g id="node16" class="node">
<title>Node16</title>
<g id="a_node16"><a xlink:href="openssl__wrappers_8h.html" target="_top" xlink:title=" ">
<polygon fill="white" stroke="black" points="786.82,-280.5 786.82,-310.5 914.82,-310.5 914.82,-280.5 786.82,-280.5"/>
<text text-anchor="start" x="794.82" y="-298.5" font-family="Helvetica,sans-Serif" font-size="10.00">crypto/openssl/openssl</text>
<text text-anchor="middle" x="850.82" y="-287.5" font-family="Helvetica,sans-Serif" font-size="10.00">_wrappers.h</text>
</a>
</g>
</g>
<!-- Node1&#45;&gt;Node16 -->
<g id="edge17" class="edge">
<title>Node1&#45;&gt;Node16</title>
<path fill="none" stroke="midnightblue" d="M1207.19,-353.14C1135.49,-341.74 1006.76,-321.28 925.21,-308.32"/>
<polygon fill="midnightblue" stroke="midnightblue" points="925.44,-304.82 915.02,-306.7 924.34,-311.73 925.44,-304.82"/>
</g>
<!-- Node20 -->
<g id="node20" class="node">
<title>Node20</title>
<g id="a_node20"><a xlink:title=" ">
<polygon fill="white" stroke="#bfbfbf" points="1039.82,-0.5 1039.82,-19.5 1083.82,-19.5 1083.82,-0.5 1039.82,-0.5"/>
<text text-anchor="middle" x="1061.82" y="-7.5" font-family="Helvetica,sans-Serif" font-size="10.00">string</text>
</a>
</g>
</g>
<!-- Node1&#45;&gt;Node20 -->
<g id="edge55" class="edge">
<title>Node1&#45;&gt;Node20</title>
<path fill="none" stroke="midnightblue" d="M1284.32,-347.4C1316.19,-327.02 1367.82,-286.11 1367.82,-235 1367.82,-235 1367.82,-235 1367.82,-121 1367.82,-92.1 1171.97,-39.04 1093.64,-18.97"/>
<polygon fill="midnightblue" stroke="midnightblue" points="1094.38,-15.55 1083.82,-16.47 1092.65,-22.33 1094.38,-15.55"/>
</g>
<!-- Node21 -->
<g id="node21" class="node">
<title>Node21</title>
<g id="a_node21"><a xlink:title=" ">
<polygon fill="white" stroke="#bfbfbf" points="1112.32,-0.5 1112.32,-19.5 1159.32,-19.5 1159.32,-0.5 1112.32,-0.5"/>
<text text-anchor="middle" x="1135.82" y="-7.5" font-family="Helvetica,sans-Serif" font-size="10.00">vector</text>
</a>
</g>
</g>
<!-- Node1&#45;&gt;Node21 -->
<g id="edge56" class="edge">
<title>Node1&#45;&gt;Node21</title>
<path fill="none" stroke="midnightblue" d="M1312.32,-350.58C1336.42,-343.12 1363.61,-330.85 1381.82,-311 1405.76,-284.89 1405.82,-270.42 1405.82,-235 1405.82,-235 1405.82,-235 1405.82,-121 1405.82,-90.2 1405.39,-75.82 1381.82,-56 1350.15,-29.38 1229.32,-17.46 1169.62,-13.1"/>
<polygon fill="midnightblue" stroke="midnightblue" points="1169.78,-9.6 1159.56,-12.4 1169.29,-16.59 1169.78,-9.6"/>
</g>
<!-- Node35 -->
<g id="node35" class="node">
<title>Node35</title>
<g id="a_node35"><a xlink:title=" ">
<polygon fill="white" stroke="#bfbfbf" points="1159.32,-224.5 1159.32,-243.5 1238.32,-243.5 1238.32,-224.5 1159.32,-224.5"/>
<text text-anchor="middle" x="1198.82" y="-231.5" font-family="Helvetica,sans-Serif" font-size="10.00">openssl/err.h</text>
</a>
</g>
</g>
<!-- Node1&#45;&gt;Node35 -->
<g id="edge53" class="edge">
<title>Node1&#45;&gt;Node35</title>
<path fill="none" stroke="midnightblue" d="M1253.06,-347.48C1241.93,-324.41 1219.78,-278.48 1207.51,-253.03"/>
<polygon fill="midnightblue" stroke="midnightblue" points="1210.55,-251.28 1203.06,-243.79 1204.25,-254.32 1210.55,-251.28"/>
</g>
<!-- Node36 -->
<g id="node36" class="node">
<title>Node36</title>
<g id="a_node36"><a xlink:title=" ">
<polygon fill="white" stroke="#bfbfbf" points="1255.82,-224.5 1255.82,-243.5 1339.82,-243.5 1339.82,-224.5 1255.82,-224.5"/>
<text text-anchor="middle" x="1297.82" y="-231.5" font-family="Helvetica,sans-Serif" font-size="10.00">openssl/evp.h</text>
</a>
</g>
</g>
<!-- Node1&#45;&gt;Node36 -->
<g id="edge54" class="edge">
<title>Node1&#45;&gt;Node36</title>
<path fill="none" stroke="midnightblue" d="M1264.03,-347.48C1270.93,-324.51 1284.63,-278.89 1292.3,-253.37"/>
<polygon fill="midnightblue" stroke="midnightblue" points="1295.65,-254.37 1295.18,-243.79 1288.95,-252.36 1295.65,-254.37"/>
</g>
<!-- Node3 -->
<g id="node3" class="node">
<title>Node3</title>
<g id="a_node3"><a xlink:href="enum__formatter_8h.html" target="_top" xlink:title=" ">
<polygon fill="white" stroke="black" points="447.82,-112.5 447.82,-131.5 583.82,-131.5 583.82,-112.5 447.82,-112.5"/>
<text text-anchor="middle" x="515.82" y="-119.5" font-family="Helvetica,sans-Serif" font-size="10.00">ccf/ds/enum_formatter.h</text>
</a>
</g>
</g>
<!-- Node2&#45;&gt;Node3 -->
<g id="edge2" class="edge">
<title>Node2&#45;&gt;Node3</title>
<path fill="none" stroke="midnightblue" d="M348.35,-168.44C382.41,-159.2 436.82,-144.44 474.33,-134.26"/>
<polygon fill="midnightblue" stroke="midnightblue" points="475.7,-137.51 484.43,-131.52 473.87,-130.76 475.7,-137.51"/>
</g>
<!-- Node4 -->
<g id="node4" class="node">
<title>Node4</title>
<g id="a_node4"><a xlink:title=" ">
<polygon fill="white" stroke="#bfbfbf" points="529.32,-56.5 529.32,-75.5 608.32,-75.5 608.32,-56.5 529.32,-56.5"/>
<text text-anchor="middle" x="568.82" y="-63.5" font-family="Helvetica,sans-Serif" font-size="10.00">fmt/format.h</text>
</a>
</g>
</g>
<!-- Node2&#45;&gt;Node4 -->
<g id="edge11" class="edge">
<title>Node2&#45;&gt;Node4</title>
<path fill="none" stroke="midnightblue" d="M320.71,-168.27C327.51,-154.08 342.93,-126.21 364.82,-112 411.42,-81.74 475.32,-71.58 519.11,-68.3"/>
<polygon fill="midnightblue" stroke="midnightblue" points="519.48,-71.78 529.23,-67.64 519.03,-64.8 519.48,-71.78"/>
</g>
<!-- Node5 -->
<g id="node5" class="node">
<title>Node5</title>
<g id="a_node5"><a xlink:href="thread__ids_8h.html" target="_top" xlink:title=" ">
<polygon fill="white" stroke="black" points="34.82,-112.5 34.82,-131.5 142.82,-131.5 142.82,-112.5 34.82,-112.5"/>
<text text-anchor="middle" x="88.82" y="-119.5" font-family="Helvetica,sans-Serif" font-size="10.00">ccf/ds/thread_ids.h</text>
</a>
</g>
</g>
<!-- Node2&#45;&gt;Node5 -->
<g id="edge4" class="edge">
<title>Node2&#45;&gt;Node5</title>
<path fill="none" stroke="midnightblue" d="M280.69,-168.44C241.17,-159.08 177.72,-144.06 134.7,-133.87"/>
<polygon fill="midnightblue" stroke="midnightblue" points="135.31,-130.42 124.78,-131.52 133.7,-137.23 135.31,-130.42"/>
</g>
<!-- Node10 -->
<g id="node10" class="node">
<title>Node10</title>
<g id="a_node10"><a xlink:title=" ">
<polygon fill="white" stroke="#bfbfbf" points="161.32,-112.5 161.32,-131.5 240.32,-131.5 240.32,-112.5 161.32,-112.5"/>
<text text-anchor="middle" x="200.82" y="-119.5" font-family="Helvetica,sans-Serif" font-size="10.00">fmt/chrono.h</text>
</a>
</g>
</g>
<!-- Node2&#45;&gt;Node10 -->
<g id="edge10" class="edge">
<title>Node2&#45;&gt;Node10</title>
<path fill="none" stroke="midnightblue" d="M298.44,-168.44C279.6,-159.68 250.09,-145.94 228.44,-135.86"/>
<polygon fill="midnightblue" stroke="midnightblue" points="229.65,-132.56 219.11,-131.52 226.7,-138.91 229.65,-132.56"/>
</g>
<!-- Node11 -->
<g id="node11" class="node">
<title>Node11</title>
<g id="a_node11"><a xlink:title=" ">
<polygon fill="white" stroke="#bfbfbf" points="257.82,-112.5 257.82,-131.5 317.82,-131.5 317.82,-112.5 257.82,-112.5"/>
<text text-anchor="middle" x="287.82" y="-119.5" font-family="Helvetica,sans-Serif" font-size="10.00">iostream</text>
</a>
</g>
</g>
<!-- Node2&#45;&gt;Node11 -->
<g id="edge12" class="edge">
<title>Node2&#45;&gt;Node11</title>
<path fill="none" stroke="midnightblue" d="M312.03,-168.08C308.06,-160.69 302.29,-149.95 297.38,-140.81"/>
<polygon fill="midnightblue" stroke="midnightblue" points="300.33,-138.91 292.52,-131.75 294.16,-142.22 300.33,-138.91"/>
</g>
<!-- Node12 -->
<g id="node12" class="node">
<title>Node12</title>
<g id="a_node12"><a xlink:title=" ">
<polygon fill="white" stroke="#bfbfbf" points="636.82,-56.5 636.82,-75.5 746.82,-75.5 746.82,-56.5 636.82,-56.5"/>
<text text-anchor="middle" x="691.82" y="-63.5" font-family="Helvetica,sans-Serif" font-size="10.00">nlohmann/json.hpp</text>
</a>
</g>
</g>
<!-- Node2&#45;&gt;Node12 -->
<g id="edge13" class="edge">
<title>Node2&#45;&gt;Node12</title>
<path fill="none" stroke="midnightblue" d="M360.36,-175.49C416.02,-172.31 514.55,-162.47 592.82,-132 623.89,-119.9 655.32,-97.05 674.19,-81.92"/>
<polygon fill="midnightblue" stroke="midnightblue" points="676.41,-84.63 681.93,-75.58 671.97,-79.21 676.41,-84.63"/>
</g>
<!-- Node13 -->
<g id="node13" class="node">
<title>Node13</title>
<g id="a_node13"><a xlink:title=" ">
<polygon fill="white" stroke="#bfbfbf" points="373.82,-112.5 373.82,-131.5 429.82,-131.5 429.82,-112.5 373.82,-112.5"/>
<text text-anchor="middle" x="401.82" y="-119.5" font-family="Helvetica,sans-Serif" font-size="10.00">optional</text>
</a>
</g>
</g>
<!-- Node2&#45;&gt;Node13 -->
<g id="edge14" class="edge">
<title>Node2&#45;&gt;Node13</title>
<path fill="none" stroke="midnightblue" d="M330.47,-168.32C343.73,-159.9 364.09,-146.97 379.66,-137.07"/>
<polygon fill="midnightblue" stroke="midnightblue" points="381.63,-139.97 388.19,-131.65 377.88,-134.06 381.63,-139.97"/>
</g>
<!-- Node14 -->
<g id="node14" class="node">
<title>Node14</title>
<g id="a_node14"><a xlink:title=" ">
<polygon fill="white" stroke="#bfbfbf" points="677.82,-112.5 677.82,-131.5 733.82,-131.5 733.82,-112.5 677.82,-112.5"/>
<text text-anchor="middle" x="705.82" y="-119.5" font-family="Helvetica,sans-Serif" font-size="10.00">sstream</text>
</a>
</g>
</g>
<!-- Node2&#45;&gt;Node14 -->
<g id="edge15" class="edge">
<title>Node2&#45;&gt;Node14</title>
<path fill="none" stroke="midnightblue" d="M360.54,-172.5C426.5,-165.44 555.3,-150.63 663.82,-132 665.06,-131.79 666.32,-131.56 667.59,-131.33"/>
<polygon fill="midnightblue" stroke="midnightblue" points="668.27,-134.76 677.41,-129.42 666.93,-127.89 668.27,-134.76"/>
</g>
<!-- Node15 -->
<g id="node15" class="node">
<title>Node15</title>
<g id="a_node15"><a xlink:title=" ">
<polygon fill="white" stroke="#bfbfbf" points="301.32,-0.5 301.32,-19.5 370.32,-19.5 370.32,-0.5 301.32,-0.5"/>
<text text-anchor="middle" x="335.82" y="-7.5" font-family="Helvetica,sans-Serif" font-size="10.00">type_traits</text>
</a>
</g>
</g>
<!-- Node2&#45;&gt;Node15 -->
<g id="edge16" class="edge">
<title>Node2&#45;&gt;Node15</title>
<path fill="none" stroke="midnightblue" d="M273.3,-176.07C201.1,-173.61 60.99,-164.64 25.82,-132 0.7,-108.69 -9.68,-81.85 12.82,-56 48.35,-15.18 210.93,-10.23 291,-10.34"/>
<polygon fill="midnightblue" stroke="midnightblue" points="291.25,-13.84 301.26,-10.38 291.28,-6.84 291.25,-13.84"/>
</g>
<!-- Node3&#45;&gt;Node4 -->
<g id="edge3" class="edge">
<title>Node3&#45;&gt;Node4</title>
<path fill="none" stroke="midnightblue" d="M524.57,-112.08C532.29,-104.22 543.72,-92.57 553.03,-83.08"/>
<polygon fill="midnightblue" stroke="midnightblue" points="555.72,-85.34 560.23,-75.75 550.73,-80.44 555.72,-85.34"/>
</g>
<!-- Node5&#45;&gt;Node4 -->
<g id="edge5" class="edge">
<title>Node5&#45;&gt;Node4</title>
<path fill="none" stroke="midnightblue" d="M143.1,-113.12C146.05,-112.73 148.97,-112.36 151.82,-112 284.23,-95.4 440.77,-79.51 519.03,-71.81"/>
<polygon fill="midnightblue" stroke="midnightblue" points="519.48,-75.29 529.09,-70.83 518.8,-68.32 519.48,-75.29"/>
</g>
<!-- Node6 -->
<g id="node6" class="node">
<title>Node6</title>
<g id="a_node6"><a xlink:title=" ">
<polygon fill="white" stroke="#bfbfbf" points="205.82,-56.5 205.82,-75.5 291.82,-75.5 291.82,-56.5 205.82,-56.5"/>
<text text-anchor="middle" x="248.82" y="-63.5" font-family="Helvetica,sans-Serif" font-size="10.00">fmt/ostream.h</text>
</a>
</g>
</g>
<!-- Node5&#45;&gt;Node6 -->
<g id="edge6" class="edge">
<title>Node5&#45;&gt;Node6</title>
<path fill="none" stroke="midnightblue" d="M114.17,-112.44C141.09,-103.36 183.81,-88.94 213.9,-78.78"/>
<polygon fill="midnightblue" stroke="midnightblue" points="215.23,-82.03 223.58,-75.52 212.99,-75.4 215.23,-82.03"/>
</g>
<!-- Node7 -->
<g id="node7" class="node">
<title>Node7</title>
<g id="a_node7"><a xlink:title=" ">
<polygon fill="white" stroke="#bfbfbf" points="21.82,-56.5 21.82,-75.5 65.82,-75.5 65.82,-56.5 21.82,-56.5"/>
<text text-anchor="middle" x="43.82" y="-63.5" font-family="Helvetica,sans-Serif" font-size="10.00">limits</text>
</a>
</g>
</g>
<!-- Node5&#45;&gt;Node7 -->
<g id="edge7" class="edge">
<title>Node5&#45;&gt;Node7</title>
<path fill="none" stroke="midnightblue" d="M81.39,-112.08C74.96,-104.38 65.51,-93.03 57.69,-83.65"/>
<polygon fill="midnightblue" stroke="midnightblue" points="60.2,-81.19 51.11,-75.75 54.82,-85.67 60.2,-81.19"/>
</g>
<!-- Node8 -->
<g id="node8" class="node">
<title>Node8</title>
<g id="a_node8"><a xlink:title=" ">
<polygon fill="white" stroke="#bfbfbf" points="83.82,-56.5 83.82,-75.5 121.82,-75.5 121.82,-56.5 83.82,-56.5"/>
<text text-anchor="middle" x="102.82" y="-63.5" font-family="Helvetica,sans-Serif" font-size="10.00">map</text>
</a>
</g>
</g>
<!-- Node5&#45;&gt;Node8 -->
<g id="edge8" class="edge">
<title>Node5&#45;&gt;Node8</title>
<path fill="none" stroke="midnightblue" d="M91.13,-112.08C92.98,-104.93 95.65,-94.64 97.97,-85.69"/>
<polygon fill="midnightblue" stroke="midnightblue" points="101.43,-86.31 100.55,-75.75 94.65,-84.55 101.43,-86.31"/>
</g>
<!-- Node9 -->
<g id="node9" class="node">
<title>Node9</title>
<g id="a_node9"><a xlink:title=" ">
<polygon fill="white" stroke="#bfbfbf" points="139.82,-56.5 139.82,-75.5 187.82,-75.5 187.82,-56.5 139.82,-56.5"/>
<text text-anchor="middle" x="163.82" y="-63.5" font-family="Helvetica,sans-Serif" font-size="10.00">thread</text>
</a>
</g>
</g>
<!-- Node5&#45;&gt;Node9 -->
<g id="edge9" class="edge">
<title>Node5&#45;&gt;Node9</title>
<path fill="none" stroke="midnightblue" d="M100.87,-112.32C112.28,-104.11 129.65,-91.6 143.25,-81.81"/>
<polygon fill="midnightblue" stroke="midnightblue" points="145.48,-84.52 151.55,-75.83 141.39,-78.84 145.48,-84.52"/>
</g>
<!-- Node16&#45;&gt;Node4 -->
<g id="edge42" class="edge">
<title>Node16&#45;&gt;Node4</title>
<path fill="none" stroke="midnightblue" d="M833.18,-280.27C782.91,-239.72 639.24,-123.81 587.59,-82.15"/>
<polygon fill="midnightblue" stroke="midnightblue" points="589.57,-79.25 579.59,-75.69 585.18,-84.69 589.57,-79.25"/>
</g>
<!-- Node17 -->
<g id="node17" class="node">
<title>Node17</title>
<g id="a_node17"><a xlink:href="pem_8h.html" target="_top" xlink:title=" ">
<polygon fill="white" stroke="black" points="801.82,-224.5 801.82,-243.5 899.82,-243.5 899.82,-224.5 801.82,-224.5"/>
<text text-anchor="middle" x="850.82" y="-231.5" font-family="Helvetica,sans-Serif" font-size="10.00">ccf/crypto/pem.h</text>
</a>
</g>
</g>
<!-- Node16&#45;&gt;Node17 -->
<g id="edge18" class="edge">
<title>Node16&#45;&gt;Node17</title>
<path fill="none" stroke="midnightblue" d="M850.82,-280.4C850.82,-272.47 850.82,-262.46 850.82,-253.86"/>
<polygon fill="midnightblue" stroke="midnightblue" points="854.32,-253.66 850.82,-243.66 847.32,-253.66 854.32,-253.66"/>
</g>
<!-- Node30 -->
<g id="node30" class="node">
<title>Node30</title>
<g id="a_node30"><a xlink:title=" ">
<polygon fill="white" stroke="#bfbfbf" points="1173.82,-168.5 1173.82,-187.5 1231.82,-187.5 1231.82,-168.5 1173.82,-168.5"/>
<text text-anchor="middle" x="1202.82" y="-175.5" font-family="Helvetica,sans-Serif" font-size="10.00">memory</text>
</a>
</g>
</g>
<!-- Node16&#45;&gt;Node30 -->
<g id="edge43" class="edge">
<title>Node16&#45;&gt;Node30</title>
<path fill="none" stroke="midnightblue" d="M915,-289.62C969.02,-283.76 1047.38,-271.08 1110.82,-244 1139.57,-231.73 1168.28,-209.44 1185.8,-194.43"/>
<polygon fill="midnightblue" stroke="midnightblue" points="1188.24,-196.94 1193.45,-187.72 1183.62,-191.68 1188.24,-196.94"/>
</g>
<!-- Node32 -->
<g id="node32" class="node">
<title>Node32</title>
<g id="a_node32"><a xlink:title=" ">
<polygon fill="white" stroke="#bfbfbf" points="918.32,-224.5 918.32,-243.5 1007.32,-243.5 1007.32,-224.5 918.32,-224.5"/>
<text text-anchor="middle" x="962.82" y="-231.5" font-family="Helvetica,sans-Serif" font-size="10.00">openssl/asn1.h</text>
</a>
</g>
</g>
<!-- Node16&#45;&gt;Node32 -->
<g id="edge44" class="edge">
<title>Node16&#45;&gt;Node32</title>
<path fill="none" stroke="midnightblue" d="M877.36,-280.4C895.48,-270.77 919.35,-258.09 937.26,-248.58"/>
<polygon fill="midnightblue" stroke="midnightblue" points="939.33,-251.44 946.52,-243.66 936.05,-245.26 939.33,-251.44"/>
</g>
<!-- Node33 -->
<g id="node33" class="node">
<title>Node33</title>
<g id="a_node33"><a xlink:title=" ">
<polygon fill="white" stroke="#bfbfbf" points="1025.32,-224.5 1025.32,-243.5 1102.32,-243.5 1102.32,-224.5 1025.32,-224.5"/>
<text text-anchor="middle" x="1063.82" y="-231.5" font-family="Helvetica,sans-Serif" font-size="10.00">openssl/ec.h</text>
</a>
</g>
</g>
<!-- Node16&#45;&gt;Node33 -->
<g id="edge45" class="edge">
<title>Node16&#45;&gt;Node33</title>
<path fill="none" stroke="midnightblue" d="M901.03,-280.47C938.41,-270.03 988.79,-255.96 1023.56,-246.25"/>
<polygon fill="midnightblue" stroke="midnightblue" points="1024.68,-249.57 1033.37,-243.51 1022.79,-242.83 1024.68,-249.57"/>
</g>
<!-- Node34 -->
<g id="node34" class="node">
<title>Node34</title>
<g id="a_node34"><a xlink:title=" ">
<polygon fill="white" stroke="#bfbfbf" points="214.32,-224.5 214.32,-243.5 313.32,-243.5 313.32,-224.5 214.32,-224.5"/>
<text text-anchor="middle" x="263.82" y="-231.5" font-family="Helvetica,sans-Serif" font-size="10.00">openssl/engine.h</text>
</a>
</g>
</g>
<!-- Node16&#45;&gt;Node34 -->
<g id="edge46" class="edge">
<title>Node16&#45;&gt;Node34</title>
<path fill="none" stroke="midnightblue" d="M786.48,-289.52C688.82,-281.69 497.08,-265.32 323.45,-244.01"/>
<polygon fill="midnightblue" stroke="midnightblue" points="323.72,-240.52 313.36,-242.76 322.86,-247.46 323.72,-240.52"/>
</g>
<!-- Node16&#45;&gt;Node35 -->
<g id="edge47" class="edge">
<title>Node16&#45;&gt;Node35</title>
<path fill="none" stroke="midnightblue" d="M915.05,-283.52C982.63,-271.96 1087.54,-254.03 1149.08,-243.5"/>
<polygon fill="midnightblue" stroke="midnightblue" points="1150.05,-246.89 1159.31,-241.75 1148.87,-239.99 1150.05,-246.89"/>
</g>
<!-- Node16&#45;&gt;Node36 -->
<g id="edge48" class="edge">
<title>Node16&#45;&gt;Node36</title>
<path fill="none" stroke="midnightblue" d="M915.08,-287.26C991.46,-278.45 1123,-262.59 1245.6,-244.13"/>
<polygon fill="midnightblue" stroke="midnightblue" points="1246.18,-247.58 1255.54,-242.62 1245.13,-240.66 1246.18,-247.58"/>
</g>
<!-- Node37 -->
<g id="node37" class="node">
<title>Node37</title>
<g id="a_node37"><a xlink:title=" ">
<polygon fill="white" stroke="#bfbfbf" points="331.82,-224.5 331.82,-243.5 419.82,-243.5 419.82,-224.5 331.82,-224.5"/>
<text text-anchor="middle" x="375.82" y="-231.5" font-family="Helvetica,sans-Serif" font-size="10.00">openssl/pem.h</text>
</a>
</g>
</g>
<!-- Node16&#45;&gt;Node37 -->
<g id="edge49" class="edge">
<title>Node16&#45;&gt;Node37</title>
<path fill="none" stroke="midnightblue" d="M786.7,-287.82C705.91,-279.18 562.55,-263.11 429.97,-244.11"/>
<polygon fill="midnightblue" stroke="midnightblue" points="430.44,-240.64 420.04,-242.68 429.44,-247.57 430.44,-240.64"/>
</g>
<!-- Node38 -->
<g id="node38" class="node">
<title>Node38</title>
<g id="a_node38"><a xlink:title=" ">
<polygon fill="white" stroke="#bfbfbf" points="437.82,-224.5 437.82,-243.5 517.82,-243.5 517.82,-224.5 437.82,-224.5"/>
<text text-anchor="middle" x="477.82" y="-231.5" font-family="Helvetica,sans-Serif" font-size="10.00">openssl/ssl.h</text>
</a>
</g>
</g>
<!-- Node16&#45;&gt;Node38 -->
<g id="edge50" class="edge">
<title>Node16&#45;&gt;Node38</title>
<path fill="none" stroke="midnightblue" d="M786.8,-285.04C723.55,-275.58 623.8,-260.34 527.79,-244.13"/>
<polygon fill="midnightblue" stroke="midnightblue" points="528.36,-240.68 517.91,-242.46 527.19,-247.58 528.36,-240.68"/>
</g>
<!-- Node39 -->
<g id="node39" class="node">
<title>Node39</title>
<g id="a_node39"><a xlink:title=" ">
<polygon fill="white" stroke="#bfbfbf" points="535.82,-224.5 535.82,-243.5 625.82,-243.5 625.82,-224.5 535.82,-224.5"/>
<text text-anchor="middle" x="580.82" y="-231.5" font-family="Helvetica,sans-Serif" font-size="10.00">openssl/x509.h</text>
</a>
</g>
</g>
<!-- Node16&#45;&gt;Node39 -->
<g id="edge51" class="edge">
<title>Node16&#45;&gt;Node39</title>
<path fill="none" stroke="midnightblue" d="M787.17,-280.47C738.86,-269.83 673.45,-255.41 629.32,-245.69"/>
<polygon fill="midnightblue" stroke="midnightblue" points="629.94,-242.24 619.42,-243.51 628.43,-249.08 629.94,-242.24"/>
</g>
<!-- Node40 -->
<g id="node40" class="node">
<title>Node40</title>
<g id="a_node40"><a xlink:title=" ">
<polygon fill="white" stroke="#bfbfbf" points="643.82,-224.5 643.82,-243.5 745.82,-243.5 745.82,-224.5 643.82,-224.5"/>
<text text-anchor="middle" x="694.82" y="-231.5" font-family="Helvetica,sans-Serif" font-size="10.00">openssl/x509v3.h</text>
</a>
</g>
</g>
<!-- Node16&#45;&gt;Node40 -->
<g id="edge52" class="edge">
<title>Node16&#45;&gt;Node40</title>
<path fill="none" stroke="midnightblue" d="M813.85,-280.4C787.44,-270.33 752.26,-256.91 727.01,-247.28"/>
<polygon fill="midnightblue" stroke="midnightblue" points="728.11,-243.95 717.52,-243.66 725.61,-250.49 728.11,-243.95"/>
</g>
<!-- Node18 -->
<g id="node18" class="node">
<title>Node18</title>
<g id="a_node18"><a xlink:href="json_8h.html" target="_top" xlink:title=" ">
<polygon fill="white" stroke="black" points="812.32,-168.5 812.32,-187.5 889.32,-187.5 889.32,-168.5 812.32,-168.5"/>
<text text-anchor="middle" x="850.82" y="-175.5" font-family="Helvetica,sans-Serif" font-size="10.00">ccf/ds/json.h</text>
</a>
</g>
</g>
<!-- Node17&#45;&gt;Node18 -->
<g id="edge19" class="edge">
<title>Node17&#45;&gt;Node18</title>
<path fill="none" stroke="midnightblue" d="M850.82,-224.08C850.82,-217.01 850.82,-206.86 850.82,-197.99"/>
<polygon fill="midnightblue" stroke="midnightblue" points="854.32,-197.75 850.82,-187.75 847.32,-197.75 854.32,-197.75"/>
</g>
<!-- Node17&#45;&gt;Node21 -->
<g id="edge41" class="edge">
<title>Node17&#45;&gt;Node21</title>
<path fill="none" stroke="midnightblue" d="M899.89,-225.36C978.45,-213.08 1123.93,-190.1 1125.82,-188 1165.56,-143.81 1151.04,-65.58 1141.5,-29.8"/>
<polygon fill="midnightblue" stroke="midnightblue" points="1144.75,-28.44 1138.65,-19.78 1138.02,-30.35 1144.75,-28.44"/>
</g>
<!-- Node27 -->
<g id="node27" class="node">
<title>Node27</title>
<g id="a_node27"><a xlink:title=" ">
<polygon fill="white" stroke="#bfbfbf" points="941.32,-0.5 941.32,-19.5 1014.32,-19.5 1014.32,-0.5 941.32,-0.5"/>
<text text-anchor="middle" x="977.82" y="-7.5" font-family="Helvetica,sans-Serif" font-size="10.00">string_view</text>
</a>
</g>
</g>
<!-- Node17&#45;&gt;Node27 -->
<g id="edge40" class="edge">
<title>Node17&#45;&gt;Node27</title>
<path fill="none" stroke="midnightblue" d="M862.07,-224.35C872.41,-215.95 887.64,-202.39 897.82,-188 934.92,-135.57 961.1,-63.18 972.07,-29.55"/>
<polygon fill="midnightblue" stroke="midnightblue" points="975.5,-30.31 975.2,-19.72 968.83,-28.18 975.5,-30.31"/>
</g>
<!-- Node28 -->
<g id="node28" class="node">
<title>Node28</title>
<g id="a_node28"><a xlink:title=" ">
<polygon fill="white" stroke="#bfbfbf" points="983.82,-168.5 983.82,-187.5 1033.82,-187.5 1033.82,-168.5 983.82,-168.5"/>
<text text-anchor="middle" x="1008.82" y="-175.5" font-family="Helvetica,sans-Serif" font-size="10.00">cstring</text>
</a>
</g>
</g>
<!-- Node17&#45;&gt;Node28 -->
<g id="edge36" class="edge">
<title>Node17&#45;&gt;Node28</title>
<path fill="none" stroke="midnightblue" d="M875.85,-224.44C902.43,-215.36 944.63,-200.94 974.34,-190.78"/>
<polygon fill="midnightblue" stroke="midnightblue" points="975.57,-194.06 983.9,-187.52 973.3,-187.44 975.57,-194.06"/>
</g>
<!-- Node29 -->
<g id="node29" class="node">
<title>Node29</title>
<g id="a_node29"><a xlink:title=" ">
<polygon fill="white" stroke="#bfbfbf" points="1052.32,-168.5 1052.32,-187.5 1117.32,-187.5 1117.32,-168.5 1052.32,-168.5"/>
<text text-anchor="middle" x="1084.82" y="-175.5" font-family="Helvetica,sans-Serif" font-size="10.00">exception</text>
</a>
</g>
</g>
<!-- Node17&#45;&gt;Node29 -->
<g id="edge37" class="edge">
<title>Node17&#45;&gt;Node29</title>
<path fill="none" stroke="midnightblue" d="M887.9,-224.44C929.86,-214.76 998.1,-199.01 1042.22,-188.83"/>
<polygon fill="midnightblue" stroke="midnightblue" points="1043.11,-192.22 1052.07,-186.56 1041.54,-185.4 1043.11,-192.22"/>
</g>
<!-- Node17&#45;&gt;Node30 -->
<g id="edge38" class="edge">
<title>Node17&#45;&gt;Node30</title>
<path fill="none" stroke="midnightblue" d="M899.86,-225.35C902.89,-224.89 905.89,-224.44 908.82,-224 1020.28,-207.36 1048.83,-207.55 1159.82,-188 1161.08,-187.78 1162.37,-187.54 1163.67,-187.3"/>
<polygon fill="midnightblue" stroke="midnightblue" points="1164.57,-190.69 1173.72,-185.35 1163.24,-183.82 1164.57,-190.69"/>
</g>
<!-- Node31 -->
<g id="node31" class="node">
<title>Node31</title>
<g id="a_node31"><a xlink:title=" ">
<polygon fill="white" stroke="#bfbfbf" points="753.82,-168.5 753.82,-187.5 793.82,-187.5 793.82,-168.5 753.82,-168.5"/>
<text text-anchor="middle" x="773.82" y="-175.5" font-family="Helvetica,sans-Serif" font-size="10.00">span</text>
</a>
</g>
</g>
<!-- Node17&#45;&gt;Node31 -->
<g id="edge39" class="edge">
<title>Node17&#45;&gt;Node31</title>
<path fill="none" stroke="midnightblue" d="M838.45,-224.32C826.66,-216.06 808.69,-203.45 794.68,-193.63"/>
<polygon fill="midnightblue" stroke="midnightblue" points="796.36,-190.53 786.16,-187.65 792.34,-196.26 796.36,-190.53"/>
</g>
<!-- Node18&#45;&gt;Node4 -->
<g id="edge34" class="edge">
<title>Node18&#45;&gt;Node4</title>
<path fill="none" stroke="midnightblue" d="M837.57,-168.37C813.25,-152.63 762.19,-120.13 742.82,-112 702.49,-95.07 654.16,-83.19 618.68,-75.91"/>
<polygon fill="midnightblue" stroke="midnightblue" points="619.07,-72.41 608.57,-73.88 617.69,-79.28 619.07,-72.41"/>
</g>
<!-- Node18&#45;&gt;Node14 -->
<g id="edge35" class="edge">
<title>Node18&#45;&gt;Node14</title>
<path fill="none" stroke="midnightblue" d="M827.84,-168.44C803.66,-159.44 765.4,-145.19 738.17,-135.05"/>
<polygon fill="midnightblue" stroke="midnightblue" points="739.28,-131.73 728.69,-131.52 736.84,-138.29 739.28,-131.73"/>
</g>
<!-- Node19 -->
<g id="node19" class="node">
<title>Node19</title>
<g id="a_node19"><a xlink:href="include_2ccf_2crypto_2base64_8h.html" target="_top" xlink:title=" ">
<polygon fill="white" stroke="black" points="1005.82,-56.5 1005.82,-75.5 1117.82,-75.5 1117.82,-56.5 1005.82,-56.5"/>
<text text-anchor="middle" x="1061.82" y="-63.5" font-family="Helvetica,sans-Serif" font-size="10.00">ccf/crypto/base64.h</text>
</a>
</g>
</g>
<!-- Node18&#45;&gt;Node19 -->
<g id="edge20" class="edge">
<title>Node18&#45;&gt;Node19</title>
<path fill="none" stroke="midnightblue" d="M867.37,-168.37C904.12,-149.21 992.69,-103.04 1036.46,-80.22"/>
<polygon fill="midnightblue" stroke="midnightblue" points="1038.09,-83.32 1045.34,-75.59 1034.85,-77.11 1038.09,-83.32"/>
</g>
<!-- Node22 -->
<g id="node22" class="node">
<title>Node22</title>
<g id="a_node22"><a xlink:href="include_2ccf_2ds_2json__schema_8h.html" target="_top" xlink:title=" ">
<polygon fill="white" stroke="black" points="790.32,-112.5 790.32,-131.5 911.32,-131.5 911.32,-112.5 790.32,-112.5"/>
<text text-anchor="middle" x="850.82" y="-119.5" font-family="Helvetica,sans-Serif" font-size="10.00">ccf/ds/json_schema.h</text>
</a>
</g>
</g>
<!-- Node18&#45;&gt;Node22 -->
<g id="edge23" class="edge">
<title>Node18&#45;&gt;Node22</title>
<path fill="none" stroke="midnightblue" d="M850.82,-168.08C850.82,-161.01 850.82,-150.86 850.82,-141.99"/>
<polygon fill="midnightblue" stroke="midnightblue" points="854.32,-141.75 850.82,-131.75 847.32,-141.75 854.32,-141.75"/>
</g>
<!-- Node19&#45;&gt;Node20 -->
<g id="edge21" class="edge">
<title>Node19&#45;&gt;Node20</title>
<path fill="none" stroke="midnightblue" d="M1061.82,-56.08C1061.82,-49.01 1061.82,-38.86 1061.82,-29.99"/>
<polygon fill="midnightblue" stroke="midnightblue" points="1065.32,-29.75 1061.82,-19.75 1058.32,-29.75 1065.32,-29.75"/>
</g>
<!-- Node19&#45;&gt;Node21 -->
<g id="edge22" class="edge">
<title>Node19&#45;&gt;Node21</title>
<path fill="none" stroke="midnightblue" d="M1073.71,-56.32C1084.97,-48.11 1102.1,-35.6 1115.53,-25.81"/>
<polygon fill="midnightblue" stroke="midnightblue" points="1117.7,-28.56 1123.71,-19.83 1113.57,-22.9 1117.7,-28.56"/>
</g>
<!-- Node22&#45;&gt;Node4 -->
<g id="edge32" class="edge">
<title>Node22&#45;&gt;Node4</title>
<path fill="none" stroke="midnightblue" d="M806.13,-112.44C755.07,-102.66 671.72,-86.7 618.61,-76.53"/>
<polygon fill="midnightblue" stroke="midnightblue" points="619.21,-73.09 608.73,-74.64 617.9,-79.96 619.21,-73.09"/>
</g>
<!-- Node22&#45;&gt;Node12 -->
<g id="edge33" class="edge">
<title>Node22&#45;&gt;Node12</title>
<path fill="none" stroke="midnightblue" d="M825.62,-112.44C798.87,-103.36 756.41,-88.94 726.51,-78.78"/>
<polygon fill="midnightblue" stroke="midnightblue" points="727.49,-75.42 716.89,-75.52 725.24,-82.05 727.49,-75.42"/>
</g>
<!-- Node23 -->
<g id="node23" class="node">
<title>Node23</title>
<g id="a_node23"><a xlink:href="nonstd_8h.html" target="_top" xlink:title=" ">
<polygon fill="white" stroke="black" points="825.82,-56.5 825.82,-75.5 915.82,-75.5 915.82,-56.5 825.82,-56.5"/>
<text text-anchor="middle" x="870.82" y="-63.5" font-family="Helvetica,sans-Serif" font-size="10.00">ccf/ds/nonstd.h</text>
</a>
</g>
</g>
<!-- Node22&#45;&gt;Node23 -->
<g id="edge24" class="edge">
<title>Node22&#45;&gt;Node23</title>
<path fill="none" stroke="midnightblue" d="M854.12,-112.08C856.8,-104.85 860.67,-94.41 864,-85.4"/>
<polygon fill="midnightblue" stroke="midnightblue" points="867.39,-86.34 867.58,-75.75 860.82,-83.91 867.39,-86.34"/>
</g>
<!-- Node23&#45;&gt;Node15 -->
<g id="edge30" class="edge">
<title>Node23&#45;&gt;Node15</title>
<path fill="none" stroke="midnightblue" d="M825.66,-60.44C724.69,-50.25 481.61,-25.72 380.8,-15.54"/>
<polygon fill="midnightblue" stroke="midnightblue" points="380.94,-12.04 370.64,-14.52 380.24,-19 380.94,-12.04"/>
</g>
<!-- Node23&#45;&gt;Node20 -->
<g id="edge28" class="edge">
<title>Node23&#45;&gt;Node20</title>
<path fill="none" stroke="midnightblue" d="M901.08,-56.44C936.22,-46.51 993.92,-30.2 1029.79,-20.05"/>
<polygon fill="midnightblue" stroke="midnightblue" points="1031.06,-23.33 1039.73,-17.24 1029.16,-16.6 1031.06,-23.33"/>
</g>
<!-- Node23&#45;&gt;Node21 -->
<g id="edge31" class="edge">
<title>Node23&#45;&gt;Node21</title>
<path fill="none" stroke="midnightblue" d="M913.39,-56.45C958.09,-47.46 1030.42,-32.85 1092.82,-20 1095.86,-19.37 1099.02,-18.72 1102.18,-18.06"/>
<polygon fill="midnightblue" stroke="midnightblue" points="1103.09,-21.45 1112.17,-15.98 1101.66,-14.59 1103.09,-21.45"/>
</g>
<!-- Node24 -->
<g id="node24" class="node">
<title>Node24</title>
<g id="a_node24"><a xlink:title=" ">
<polygon fill="white" stroke="#bfbfbf" points="858.82,-0.5 858.82,-19.5 922.82,-19.5 922.82,-0.5 858.82,-0.5"/>
<text text-anchor="middle" x="890.82" y="-7.5" font-family="Helvetica,sans-Serif" font-size="10.00">algorithm</text>
</a>
</g>
</g>
<!-- Node23&#45;&gt;Node24 -->
<g id="edge25" class="edge">
<title>Node23&#45;&gt;Node24</title>
<path fill="none" stroke="midnightblue" d="M874.12,-56.08C876.8,-48.85 880.67,-38.41 884,-29.4"/>
<polygon fill="midnightblue" stroke="midnightblue" points="887.39,-30.34 887.58,-19.75 880.82,-27.91 887.39,-30.34"/>
</g>
<!-- Node25 -->
<g id="node25" class="node">
<title>Node25</title>
<g id="a_node25"><a xlink:title=" ">
<polygon fill="white" stroke="#bfbfbf" points="730.82,-0.5 730.82,-19.5 772.82,-19.5 772.82,-0.5 730.82,-0.5"/>
<text text-anchor="middle" x="751.82" y="-7.5" font-family="Helvetica,sans-Serif" font-size="10.00">array</text>
</a>
</g>
</g>
<!-- Node23&#45;&gt;Node25 -->
<g id="edge26" class="edge">
<title>Node23&#45;&gt;Node25</title>
<path fill="none" stroke="midnightblue" d="M851.96,-56.44C832.55,-47.64 802.09,-33.81 779.85,-23.72"/>
<polygon fill="midnightblue" stroke="midnightblue" points="781.14,-20.46 770.59,-19.52 778.25,-26.84 781.14,-20.46"/>
</g>
<!-- Node26 -->
<g id="node26" class="node">
<title>Node26</title>
<g id="a_node26"><a xlink:title=" ">
<polygon fill="white" stroke="#bfbfbf" points="791.32,-0.5 791.32,-19.5 840.32,-19.5 840.32,-0.5 791.32,-0.5"/>
<text text-anchor="middle" x="815.82" y="-7.5" font-family="Helvetica,sans-Serif" font-size="10.00">cctype</text>
</a>
</g>
</g>
<!-- Node23&#45;&gt;Node26 -->
<g id="edge27" class="edge">
<title>Node23&#45;&gt;Node26</title>
<path fill="none" stroke="midnightblue" d="M861.74,-56.08C853.65,-48.14 841.62,-36.34 831.91,-26.8"/>
<polygon fill="midnightblue" stroke="midnightblue" points="834.32,-24.26 824.73,-19.75 829.41,-29.25 834.32,-24.26"/>
</g>
<!-- Node23&#45;&gt;Node27 -->
<g id="edge29" class="edge">
<title>Node23&#45;&gt;Node27</title>
<path fill="none" stroke="midnightblue" d="M888.01,-56.32C905.17,-47.66 931.76,-34.24 951.56,-24.25"/>
<polygon fill="midnightblue" stroke="midnightblue" points="953.32,-27.28 960.67,-19.65 950.16,-21.04 953.32,-27.28"/>
</g>
</g>
</svg>
        <g id="navigator" transform="translate(0 0)" fill="#404254">
                <rect fill="#f2f5e9" fill-opacity="0.5" stroke="#606060" stroke-width=".5" x="0" y="0" width="60" height="60"/>
                <use id="zoomplus" xlink:href="#zoomPlus" x="17" y="9" onmousedown="handleZoom(evt,'in')"/>
                <use id="zoomminus" xlink:href="#zoomMin" x="42" y="9" onmousedown="handleZoom(evt,'out')"/>
                <use id="reset" xlink:href="#resetDef" x="30" y="36" onmousedown="handleReset()"/>
                <g id="arrowUp" xlink:href="#dirArrow" transform="translate(30 24)" onmousedown="handlePan(0,-1)">
                  <use xlink:href="#rim" fill="#404040">
                        <set attributeName="fill" to="#808080" begin="arrowUp.mouseover" end="arrowUp.mouseout"/>
                  </use>
                  <path fill="none" stroke="white" stroke-width="1.5" d="M0,-3.0v7 M-2.5,-0.5L0,-3.0L2.5,-0.5"/>
                </g>
                <g id="arrowRight" xlink:href="#dirArrow" transform="rotate(90) translate(36 -43)" onmousedown="handlePan(1,0)">
                  <use xlink:href="#rim" fill="#404040">
                        <set attributeName="fill" to="#808080" begin="arrowRight.mouseover" end="arrowRight.mouseout"/>
                  </use>
                  <path fill="none" stroke="white" stroke-width="1.5" d="M0,-3.0v7 M-2.5,-0.5L0,-3.0L2.5,-0.5"/>
                </g>
                <g id="arrowDown" xlink:href="#dirArrow" transform="rotate(180) translate(-30 -48)" onmousedown="handlePan(0,1)">
                  <use xlink:href="#rim" fill="#404040">
                        <set attributeName="fill" to="#808080" begin="arrowDown.mouseover" end="arrowDown.mouseout"/>
                  </use>
                  <path fill="none" stroke="white" stroke-width="1.5" d="M0,-3.0v7 M-2.5,-0.5L0,-3.0L2.5,-0.5"/>
                </g>
                <g id="arrowLeft" xlink:href="#dirArrow" transform="rotate(270) translate(-36 17)" onmousedown="handlePan(-1,0)">
                  <use xlink:href="#rim" fill="#404040">
                        <set attributeName="fill" to="#808080" begin="arrowLeft.mouseover" end="arrowLeft.mouseout"/>
                  </use>
                  <path fill="none" stroke="white" stroke-width="1.5" d="M0,-3.0v7 M-2.5,-0.5L0,-3.0L2.5,-0.5"/>
                </g>
        </g>
        <svg viewBox="0 0 15 15" width="100%" height="30px" preserveAspectRatio="xMaxYMin meet">
         <g id="arrow_out" transform="scale(0.3 0.3)">
          <a xlink:href="src_2crypto_2openssl_2base64_8h__incl_org.svg" target="_base">
           <rect id="button" ry="5" rx="5" y="6" x="6" height="38" width="38"
                fill="#f2f5e9" fill-opacity="0.5" stroke="#606060" stroke-width="1.0"/>
           <path id="arrow"
             d="M 11.500037,31.436501 C 11.940474,20.09759 22.043105,11.32322 32.158766,21.979434 L 37.068811,17.246167 C 37.068811,17.246167 37.088388,32 37.088388,32 L 22.160133,31.978069 C 22.160133,31.978069 26.997745,27.140456 26.997745,27.140456 C 18.528582,18.264221 13.291696,25.230495 11.500037,31.436501 z"
             style="fill:#404040;"/>
          </a>
         </g>
        </svg>
</svg>
