<?xml version="1.0" encoding="UTF-8" standalone="no"?>
<!DOCTYPE svg PUBLIC "-//W3C//DTD SVG 1.1//EN"
 "http://www.w3.org/Graphics/SVG/1.1/DTD/svg11.dtd">
<!-- Generated by graphviz version 2.43.0 (0)
 -->
<!-- Title: src/crypto/openssl/key_pair.h Pages: 1 -->
<svg width="2227pt" height="498pt"
 viewBox="0.00 0.00 2227.00 498.00" xmlns="http://www.w3.org/2000/svg" xmlns:xlink="http://www.w3.org/1999/xlink">
<g id="graph0" class="graph" transform="scale(1 1) rotate(0) translate(4 494)">
<title>src/crypto/openssl/key_pair.h</title>
<polygon fill="white" stroke="transparent" points="-4,4 -4,-494 2223,-494 2223,4 -4,4"/>
<!-- Node1 -->
<g id="node1" class="node">
<title>Node1</title>
<g id="a_node1"><a xlink:title=" ">
<polygon fill="#bfbfbf" stroke="black" points="924.5,-459.5 924.5,-489.5 1029.5,-489.5 1029.5,-459.5 924.5,-459.5"/>
<text text-anchor="start" x="932.5" y="-477.5" font-family="Helvetica,sans-Serif" font-size="10.00">src/crypto/openssl</text>
<text text-anchor="middle" x="977" y="-466.5" font-family="Helvetica,sans-Serif" font-size="10.00">/key_pair.h</text>
</a>
</g>
</g>
<!-- Node2 -->
<g id="node2" class="node">
<title>Node2</title>
<g id="a_node2"><a xlink:href="include_2ccf_2crypto_2key__pair_8h.html" target="_top" xlink:title=" ">
<polygon fill="white" stroke="black" points="494.5,-398 494.5,-417 611.5,-417 611.5,-398 494.5,-398"/>
<text text-anchor="middle" x="553" y="-405" font-family="Helvetica,sans-Serif" font-size="10.00">ccf/crypto/key_pair.h</text>
</a>
</g>
</g>
<!-- Node1&#45;&gt;Node2 -->
<g id="edge1" class="edge">
<title>Node1&#45;&gt;Node2</title>
<path fill="none" stroke="midnightblue" d="M924.16,-465.4C846.72,-453.53 702.52,-431.42 618.47,-418.54"/>
<polygon fill="midnightblue" stroke="midnightblue" points="618.95,-415.07 608.53,-417.01 617.89,-421.99 618.95,-415.07"/>
</g>
<!-- Node7 -->
<g id="node7" class="node">
<title>Node7</title>
<g id="a_node7"><a xlink:title=" ">
<polygon fill="white" stroke="#bfbfbf" points="593,-0.5 593,-19.5 637,-19.5 637,-0.5 593,-0.5"/>
<text text-anchor="middle" x="615" y="-7.5" font-family="Helvetica,sans-Serif" font-size="10.00">string</text>
</a>
</g>
</g>
<!-- Node1&#45;&gt;Node7 -->
<g id="edge76" class="edge">
<title>Node1&#45;&gt;Node7</title>
<path fill="none" stroke="midnightblue" d="M924.47,-472.28C721.54,-466.88 0,-441.07 0,-347 0,-347 0,-347 0,-121 0,-81.68 24.65,-73.21 60,-56 152.97,-10.73 478.13,-9.7 582.49,-10.58"/>
<polygon fill="midnightblue" stroke="midnightblue" points="582.69,-14.08 592.72,-10.68 582.76,-7.08 582.69,-14.08"/>
</g>
<!-- Node20 -->
<g id="node20" class="node">
<title>Node20</title>
<g id="a_node20"><a xlink:title=" ">
<polygon fill="white" stroke="#bfbfbf" points="1068.5,-224.5 1068.5,-243.5 1133.5,-243.5 1133.5,-224.5 1068.5,-224.5"/>
<text text-anchor="middle" x="1101" y="-231.5" font-family="Helvetica,sans-Serif" font-size="10.00">stdexcept</text>
</a>
</g>
</g>
<!-- Node1&#45;&gt;Node20 -->
<g id="edge75" class="edge">
<title>Node1&#45;&gt;Node20</title>
<path fill="none" stroke="midnightblue" d="M987.75,-459.26C1003.67,-437.74 1033.8,-395.25 1054,-356 1071.98,-321.07 1087.26,-277.61 1095.19,-253.43"/>
<polygon fill="midnightblue" stroke="midnightblue" points="1098.56,-254.37 1098.29,-243.78 1091.9,-252.23 1098.56,-254.37"/>
</g>
<!-- Node26 -->
<g id="node26" class="node">
<title>Node26</title>
<g id="a_node26"><a xlink:href="include_2ccf_2crypto_2public__key_8h.html" target="_top" xlink:title=" ">
<polygon fill="white" stroke="black" points="583.5,-336.5 583.5,-355.5 710.5,-355.5 710.5,-336.5 583.5,-336.5"/>
<text text-anchor="middle" x="647" y="-343.5" font-family="Helvetica,sans-Serif" font-size="10.00">ccf/crypto/public_key.h</text>
</a>
</g>
</g>
<!-- Node1&#45;&gt;Node26 -->
<g id="edge54" class="edge">
<title>Node1&#45;&gt;Node26</title>
<path fill="none" stroke="midnightblue" d="M940.42,-459.48C875.41,-434.56 740.77,-382.95 679.11,-359.31"/>
<polygon fill="midnightblue" stroke="midnightblue" points="680.1,-355.94 669.51,-355.63 677.6,-362.48 680.1,-355.94"/>
</g>
<!-- Node31 -->
<g id="node31" class="node">
<title>Node31</title>
<g id="a_node31"><a xlink:href="src_2crypto_2openssl_2public__key_8h.html" target="_top" xlink:title=" ">
<polygon fill="white" stroke="black" points="1160,-392.5 1160,-422.5 1280,-422.5 1280,-392.5 1160,-392.5"/>
<text text-anchor="start" x="1168" y="-410.5" font-family="Helvetica,sans-Serif" font-size="10.00">crypto/openssl/public</text>
<text text-anchor="middle" x="1220" y="-399.5" font-family="Helvetica,sans-Serif" font-size="10.00">_key.h</text>
</a>
</g>
</g>
<!-- Node1&#45;&gt;Node31 -->
<g id="edge55" class="edge">
<title>Node1&#45;&gt;Node31</title>
<path fill="none" stroke="midnightblue" d="M1029.43,-459.48C1066.99,-449.43 1117.73,-435.86 1157.41,-425.24"/>
<polygon fill="midnightblue" stroke="midnightblue" points="1158.49,-428.58 1167.25,-422.61 1156.68,-421.81 1158.49,-428.58"/>
</g>
<!-- Node32 -->
<g id="node32" class="node">
<title>Node32</title>
<g id="a_node32"><a xlink:href="openssl__wrappers_8h.html" target="_top" xlink:title=" ">
<polygon fill="white" stroke="black" points="1471.5,-336.5 1471.5,-355.5 1584.5,-355.5 1584.5,-336.5 1471.5,-336.5"/>
<text text-anchor="middle" x="1528" y="-343.5" font-family="Helvetica,sans-Serif" font-size="10.00">openssl_wrappers.h</text>
</a>
</g>
</g>
<!-- Node1&#45;&gt;Node32 -->
<g id="edge74" class="edge">
<title>Node1&#45;&gt;Node32</title>
<path fill="none" stroke="midnightblue" d="M1029.63,-467.39C1092.04,-459.59 1198.93,-444.49 1289,-423 1364.01,-405.11 1449.62,-375.6 1495.27,-359.11"/>
<polygon fill="midnightblue" stroke="midnightblue" points="1496.71,-362.31 1504.91,-355.6 1494.32,-355.73 1496.71,-362.31"/>
</g>
<!-- Node3 -->
<g id="node3" class="node">
<title>Node3</title>
<g id="a_node3"><a xlink:href="curve_8h.html" target="_top" xlink:title=" ">
<polygon fill="white" stroke="black" points="297,-280.5 297,-299.5 401,-299.5 401,-280.5 297,-280.5"/>
<text text-anchor="middle" x="349" y="-287.5" font-family="Helvetica,sans-Serif" font-size="10.00">ccf/crypto/curve.h</text>
</a>
</g>
</g>
<!-- Node2&#45;&gt;Node3 -->
<g id="edge2" class="edge">
<title>Node2&#45;&gt;Node3</title>
<path fill="none" stroke="midnightblue" d="M517.37,-397.98C488.32,-390.01 447.01,-376.26 415,-356 394.29,-342.89 374.85,-322.36 362.51,-307.89"/>
<polygon fill="midnightblue" stroke="midnightblue" points="364.87,-305.25 355.79,-299.78 359.48,-309.71 364.87,-305.25"/>
</g>
<!-- Node2&#45;&gt;Node7 -->
<g id="edge52" class="edge">
<title>Node2&#45;&gt;Node7</title>
<path fill="none" stroke="midnightblue" d="M494.42,-405.62C359.44,-402 38,-383.66 38,-291 38,-291 38,-291 38,-121 38,-78.22 69.85,-73.25 109,-56 194.47,-18.34 484.9,-12.19 582.61,-11.19"/>
<polygon fill="midnightblue" stroke="midnightblue" points="582.8,-14.69 592.77,-11.1 582.74,-7.69 582.8,-14.69"/>
</g>
<!-- Node8 -->
<g id="node8" class="node">
<title>Node8</title>
<g id="a_node8"><a xlink:title=" ">
<polygon fill="white" stroke="#bfbfbf" points="1066.5,-0.5 1066.5,-19.5 1113.5,-19.5 1113.5,-0.5 1066.5,-0.5"/>
<text text-anchor="middle" x="1090" y="-7.5" font-family="Helvetica,sans-Serif" font-size="10.00">vector</text>
</a>
</g>
</g>
<!-- Node2&#45;&gt;Node8 -->
<g id="edge53" class="edge">
<title>Node2&#45;&gt;Node8</title>
<path fill="none" stroke="midnightblue" d="M590.04,-397.94C630.68,-388.39 697.77,-372.14 755,-356 834.82,-333.49 857.34,-333.97 933,-300 963,-286.53 1030.06,-237.6 1060,-224 1107.22,-202.55 1140.5,-229.95 1171,-188 1210,-134.35 1141.59,-58.93 1107.54,-26.65"/>
<polygon fill="midnightblue" stroke="midnightblue" points="1109.81,-23.98 1100.09,-19.75 1105.05,-29.11 1109.81,-23.98"/>
</g>
<!-- Node21 -->
<g id="node21" class="node">
<title>Node21</title>
<g id="a_node21"><a xlink:href="pem_8h.html" target="_top" xlink:title=" ">
<polygon fill="white" stroke="black" points="796,-280.5 796,-299.5 894,-299.5 894,-280.5 796,-280.5"/>
<text text-anchor="middle" x="845" y="-287.5" font-family="Helvetica,sans-Serif" font-size="10.00">ccf/crypto/pem.h</text>
</a>
</g>
</g>
<!-- Node2&#45;&gt;Node21 -->
<g id="edge27" class="edge">
<title>Node2&#45;&gt;Node21</title>
<path fill="none" stroke="midnightblue" d="M587.87,-397.98C622.11,-389.15 675.53,-374.1 720,-356 756.8,-341.02 797.23,-318.88 821.86,-304.7"/>
<polygon fill="midnightblue" stroke="midnightblue" points="823.9,-307.56 830.79,-299.51 820.39,-301.51 823.9,-307.56"/>
</g>
<!-- Node2&#45;&gt;Node26 -->
<g id="edge35" class="edge">
<title>Node2&#45;&gt;Node26</title>
<path fill="none" stroke="midnightblue" d="M566.47,-397.98C581.68,-388.34 606.69,-372.52 624.8,-361.05"/>
<polygon fill="midnightblue" stroke="midnightblue" points="626.98,-363.81 633.56,-355.51 623.24,-357.9 626.98,-363.81"/>
</g>
<!-- Node28 -->
<g id="node28" class="node">
<title>Node28</title>
<g id="a_node28"><a xlink:href="san_8h.html" target="_top" xlink:title=" ">
<polygon fill="white" stroke="black" points="517,-224.5 517,-243.5 611,-243.5 611,-224.5 517,-224.5"/>
<text text-anchor="middle" x="564" y="-231.5" font-family="Helvetica,sans-Serif" font-size="10.00">ccf/crypto/san.h</text>
</a>
</g>
</g>
<!-- Node2&#45;&gt;Node28 -->
<g id="edge49" class="edge">
<title>Node2&#45;&gt;Node28</title>
<path fill="none" stroke="midnightblue" d="M535.78,-397.9C498.39,-378.07 415.67,-327.22 448,-280 461.45,-260.36 484.81,-249.29 507.06,-243.05"/>
<polygon fill="midnightblue" stroke="midnightblue" points="507.99,-246.43 516.83,-240.59 506.28,-239.64 507.99,-246.43"/>
</g>
<!-- Node29 -->
<g id="node29" class="node">
<title>Node29</title>
<g id="a_node29"><a xlink:title=" ">
<polygon fill="white" stroke="#bfbfbf" points="457,-280.5 457,-299.5 507,-299.5 507,-280.5 457,-280.5"/>
<text text-anchor="middle" x="482" y="-287.5" font-family="Helvetica,sans-Serif" font-size="10.00">cstdint</text>
</a>
</g>
</g>
<!-- Node2&#45;&gt;Node29 -->
<g id="edge50" class="edge">
<title>Node2&#45;&gt;Node29</title>
<path fill="none" stroke="midnightblue" d="M547.66,-397.82C536.05,-378.92 508.28,-333.75 492.83,-308.62"/>
<polygon fill="midnightblue" stroke="midnightblue" points="495.62,-306.47 487.4,-299.78 489.65,-310.13 495.62,-306.47"/>
</g>
<!-- Node30 -->
<g id="node30" class="node">
<title>Node30</title>
<g id="a_node30"><a xlink:title=" ">
<polygon fill="white" stroke="#bfbfbf" points="525,-280.5 525,-299.5 581,-299.5 581,-280.5 525,-280.5"/>
<text text-anchor="middle" x="553" y="-287.5" font-family="Helvetica,sans-Serif" font-size="10.00">optional</text>
</a>
</g>
</g>
<!-- Node2&#45;&gt;Node30 -->
<g id="edge51" class="edge">
<title>Node2&#45;&gt;Node30</title>
<path fill="none" stroke="midnightblue" d="M553,-397.82C553,-379.26 553,-335.34 553,-309.97"/>
<polygon fill="midnightblue" stroke="midnightblue" points="556.5,-309.78 553,-299.78 549.5,-309.78 556.5,-309.78"/>
</g>
<!-- Node4 -->
<g id="node4" class="node">
<title>Node4</title>
<g id="a_node4"><a xlink:href="md__type_8h.html" target="_top" xlink:title=" ">
<polygon fill="white" stroke="black" points="296.5,-224.5 296.5,-243.5 415.5,-243.5 415.5,-224.5 296.5,-224.5"/>
<text text-anchor="middle" x="356" y="-231.5" font-family="Helvetica,sans-Serif" font-size="10.00">ccf/crypto/md_type.h</text>
</a>
</g>
</g>
<!-- Node3&#45;&gt;Node4 -->
<g id="edge3" class="edge">
<title>Node3&#45;&gt;Node4</title>
<path fill="none" stroke="midnightblue" d="M350.16,-280.08C351.08,-272.93 352.42,-262.64 353.58,-253.69"/>
<polygon fill="midnightblue" stroke="midnightblue" points="357.05,-254.12 354.87,-243.75 350.11,-253.22 357.05,-254.12"/>
</g>
<!-- Node5 -->
<g id="node5" class="node">
<title>Node5</title>
<g id="a_node5"><a xlink:href="json_8h.html" target="_top" xlink:title=" ">
<polygon fill="white" stroke="black" points="317.5,-168.5 317.5,-187.5 394.5,-187.5 394.5,-168.5 317.5,-168.5"/>
<text text-anchor="middle" x="356" y="-175.5" font-family="Helvetica,sans-Serif" font-size="10.00">ccf/ds/json.h</text>
</a>
</g>
</g>
<!-- Node3&#45;&gt;Node5 -->
<g id="edge23" class="edge">
<title>Node3&#45;&gt;Node5</title>
<path fill="none" stroke="midnightblue" d="M377.02,-280.4C394.17,-273.51 414.75,-261.98 425,-244 437.3,-222.42 411.1,-203.69 387.53,-191.95"/>
<polygon fill="midnightblue" stroke="midnightblue" points="388.92,-188.73 378.38,-187.65 385.94,-195.07 388.92,-188.73"/>
</g>
<!-- Node3&#45;&gt;Node7 -->
<g id="edge26" class="edge">
<title>Node3&#45;&gt;Node7</title>
<path fill="none" stroke="midnightblue" d="M303.61,-280.45C225.98,-264.53 76,-227.48 76,-179 76,-179 76,-179 76,-121 76,-16.93 466.67,-10.33 582.81,-10.67"/>
<polygon fill="midnightblue" stroke="midnightblue" points="582.85,-14.17 592.87,-10.72 582.88,-7.17 582.85,-14.17"/>
</g>
<!-- Node16 -->
<g id="node16" class="node">
<title>Node16</title>
<g id="a_node16"><a xlink:title=" ">
<polygon fill="white" stroke="#bfbfbf" points="300.5,-56.5 300.5,-75.5 379.5,-75.5 379.5,-56.5 300.5,-56.5"/>
<text text-anchor="middle" x="340" y="-63.5" font-family="Helvetica,sans-Serif" font-size="10.00">fmt/format.h</text>
</a>
</g>
</g>
<!-- Node3&#45;&gt;Node16 -->
<g id="edge24" class="edge">
<title>Node3&#45;&gt;Node16</title>
<path fill="none" stroke="midnightblue" d="M333.09,-280.39C319.48,-272.39 300.07,-259.42 287,-244 262.58,-215.2 266.97,-201.22 249,-168 240.19,-151.71 232.83,-149.88 228,-132 225.68,-123.42 223.02,-119.36 228,-112 242,-91.28 267.29,-80.1 290.3,-74.07"/>
<polygon fill="midnightblue" stroke="midnightblue" points="291.38,-77.41 300.32,-71.71 289.78,-70.59 291.38,-77.41"/>
</g>
<!-- Node19 -->
<g id="node19" class="node">
<title>Node19</title>
<g id="a_node19"><a xlink:href="enum__formatter_8h.html" target="_top" xlink:title=" ">
<polygon fill="white" stroke="black" points="104,-168.5 104,-187.5 240,-187.5 240,-168.5 104,-168.5"/>
<text text-anchor="middle" x="172" y="-175.5" font-family="Helvetica,sans-Serif" font-size="10.00">ccf/ds/enum_formatter.h</text>
</a>
</g>
</g>
<!-- Node3&#45;&gt;Node19 -->
<g id="edge21" class="edge">
<title>Node3&#45;&gt;Node19</title>
<path fill="none" stroke="midnightblue" d="M327.52,-280.49C307.78,-272.28 278.02,-258.94 254,-244 230.09,-229.13 205.08,-208.44 189.06,-194.43"/>
<polygon fill="midnightblue" stroke="midnightblue" points="191.36,-191.79 181.56,-187.78 186.72,-197.03 191.36,-191.79"/>
</g>
<!-- Node3&#45;&gt;Node20 -->
<g id="edge25" class="edge">
<title>Node3&#45;&gt;Node20</title>
<path fill="none" stroke="midnightblue" d="M401.13,-284.05C416.24,-282.67 432.77,-281.22 448,-280 677.98,-261.62 953.89,-244.09 1058.23,-237.62"/>
<polygon fill="midnightblue" stroke="midnightblue" points="1058.6,-241.11 1068.37,-237 1058.17,-234.12 1058.6,-241.11"/>
</g>
<!-- Node4&#45;&gt;Node5 -->
<g id="edge4" class="edge">
<title>Node4&#45;&gt;Node5</title>
<path fill="none" stroke="midnightblue" d="M356,-224.08C356,-217.01 356,-206.86 356,-197.99"/>
<polygon fill="midnightblue" stroke="midnightblue" points="359.5,-197.75 356,-187.75 352.5,-197.75 359.5,-197.75"/>
</g>
<!-- Node6 -->
<g id="node6" class="node">
<title>Node6</title>
<g id="a_node6"><a xlink:href="include_2ccf_2crypto_2base64_8h.html" target="_top" xlink:title=" ">
<polygon fill="white" stroke="black" points="679,-56.5 679,-75.5 791,-75.5 791,-56.5 679,-56.5"/>
<text text-anchor="middle" x="735" y="-63.5" font-family="Helvetica,sans-Serif" font-size="10.00">ccf/crypto/base64.h</text>
</a>
</g>
</g>
<!-- Node5&#45;&gt;Node6 -->
<g id="edge5" class="edge">
<title>Node5&#45;&gt;Node6</title>
<path fill="none" stroke="midnightblue" d="M394.71,-169.81C435.27,-161.92 500.67,-148.2 556,-132 608.99,-116.48 669.03,-93.55 704.36,-79.48"/>
<polygon fill="midnightblue" stroke="midnightblue" points="706.09,-82.55 714.07,-75.59 703.49,-76.06 706.09,-82.55"/>
</g>
<!-- Node9 -->
<g id="node9" class="node">
<title>Node9</title>
<g id="a_node9"><a xlink:href="include_2ccf_2ds_2json__schema_8h.html" target="_top" xlink:title=" ">
<polygon fill="white" stroke="black" points="425.5,-112.5 425.5,-131.5 546.5,-131.5 546.5,-112.5 425.5,-112.5"/>
<text text-anchor="middle" x="486" y="-119.5" font-family="Helvetica,sans-Serif" font-size="10.00">ccf/ds/json_schema.h</text>
</a>
</g>
</g>
<!-- Node5&#45;&gt;Node9 -->
<g id="edge8" class="edge">
<title>Node5&#45;&gt;Node9</title>
<path fill="none" stroke="midnightblue" d="M376.6,-168.44C397.99,-159.56 431.68,-145.56 456.02,-135.45"/>
<polygon fill="midnightblue" stroke="midnightblue" points="457.61,-138.58 465.5,-131.52 454.92,-132.12 457.61,-138.58"/>
</g>
<!-- Node5&#45;&gt;Node16 -->
<g id="edge19" class="edge">
<title>Node5&#45;&gt;Node16</title>
<path fill="none" stroke="midnightblue" d="M353.47,-168.46C350.91,-159.47 347.05,-144.87 345,-132 342.54,-116.61 341.28,-98.98 340.64,-85.96"/>
<polygon fill="midnightblue" stroke="midnightblue" points="344.14,-85.73 340.23,-75.88 337.14,-86.02 344.14,-85.73"/>
</g>
<!-- Node18 -->
<g id="node18" class="node">
<title>Node18</title>
<g id="a_node18"><a xlink:title=" ">
<polygon fill="white" stroke="#bfbfbf" points="237,-112.5 237,-131.5 293,-131.5 293,-112.5 237,-112.5"/>
<text text-anchor="middle" x="265" y="-119.5" font-family="Helvetica,sans-Serif" font-size="10.00">sstream</text>
</a>
</g>
</g>
<!-- Node5&#45;&gt;Node18 -->
<g id="edge20" class="edge">
<title>Node5&#45;&gt;Node18</title>
<path fill="none" stroke="midnightblue" d="M341.38,-168.32C327.05,-159.82 304.99,-146.73 288.25,-136.8"/>
<polygon fill="midnightblue" stroke="midnightblue" points="289.97,-133.75 279.58,-131.65 286.4,-139.77 289.97,-133.75"/>
</g>
<!-- Node6&#45;&gt;Node7 -->
<g id="edge6" class="edge">
<title>Node6&#45;&gt;Node7</title>
<path fill="none" stroke="midnightblue" d="M715.99,-56.44C696.41,-47.64 665.69,-33.81 643.27,-23.72"/>
<polygon fill="midnightblue" stroke="midnightblue" points="644.48,-20.43 633.93,-19.52 641.61,-26.81 644.48,-20.43"/>
</g>
<!-- Node6&#45;&gt;Node8 -->
<g id="edge7" class="edge">
<title>Node6&#45;&gt;Node8</title>
<path fill="none" stroke="midnightblue" d="M791.27,-58.33C854.45,-50.52 959.94,-36.54 1050,-20 1052.08,-19.62 1054.21,-19.2 1056.36,-18.77"/>
<polygon fill="midnightblue" stroke="midnightblue" points="1057.32,-22.14 1066.37,-16.64 1055.87,-15.3 1057.32,-22.14"/>
</g>
<!-- Node10 -->
<g id="node10" class="node">
<title>Node10</title>
<g id="a_node10"><a xlink:href="nonstd_8h.html" target="_top" xlink:title=" ">
<polygon fill="white" stroke="black" points="847,-56.5 847,-75.5 937,-75.5 937,-56.5 847,-56.5"/>
<text text-anchor="middle" x="892" y="-63.5" font-family="Helvetica,sans-Serif" font-size="10.00">ccf/ds/nonstd.h</text>
</a>
</g>
</g>
<!-- Node9&#45;&gt;Node10 -->
<g id="edge9" class="edge">
<title>Node9&#45;&gt;Node10</title>
<path fill="none" stroke="midnightblue" d="M546.78,-112.92C625.27,-102.48 760.76,-84.46 836.56,-74.37"/>
<polygon fill="midnightblue" stroke="midnightblue" points="837.39,-77.79 846.84,-73.01 836.47,-70.85 837.39,-77.79"/>
</g>
<!-- Node9&#45;&gt;Node16 -->
<g id="edge17" class="edge">
<title>Node9&#45;&gt;Node16</title>
<path fill="none" stroke="midnightblue" d="M462.87,-112.44C438.52,-103.44 399.99,-89.19 372.58,-79.05"/>
<polygon fill="midnightblue" stroke="midnightblue" points="373.62,-75.7 363.03,-75.52 371.19,-82.27 373.62,-75.7"/>
</g>
<!-- Node17 -->
<g id="node17" class="node">
<title>Node17</title>
<g id="a_node17"><a xlink:title=" ">
<polygon fill="white" stroke="#bfbfbf" points="431,-56.5 431,-75.5 541,-75.5 541,-56.5 431,-56.5"/>
<text text-anchor="middle" x="486" y="-63.5" font-family="Helvetica,sans-Serif" font-size="10.00">nlohmann/json.hpp</text>
</a>
</g>
</g>
<!-- Node9&#45;&gt;Node17 -->
<g id="edge18" class="edge">
<title>Node9&#45;&gt;Node17</title>
<path fill="none" stroke="midnightblue" d="M486,-112.08C486,-105.01 486,-94.86 486,-85.99"/>
<polygon fill="midnightblue" stroke="midnightblue" points="489.5,-85.75 486,-75.75 482.5,-85.75 489.5,-85.75"/>
</g>
<!-- Node10&#45;&gt;Node7 -->
<g id="edge13" class="edge">
<title>Node10&#45;&gt;Node7</title>
<path fill="none" stroke="midnightblue" d="M848.11,-56.44C792.14,-45.53 696.68,-26.92 647.07,-17.25"/>
<polygon fill="midnightblue" stroke="midnightblue" points="647.69,-13.81 637.21,-15.33 646.35,-20.68 647.69,-13.81"/>
</g>
<!-- Node10&#45;&gt;Node8 -->
<g id="edge16" class="edge">
<title>Node10&#45;&gt;Node8</title>
<path fill="none" stroke="midnightblue" d="M923.37,-56.44C959.65,-46.55 1019.15,-30.32 1056.36,-20.17"/>
<polygon fill="midnightblue" stroke="midnightblue" points="1057.5,-23.49 1066.23,-17.48 1055.66,-16.74 1057.5,-23.49"/>
</g>
<!-- Node11 -->
<g id="node11" class="node">
<title>Node11</title>
<g id="a_node11"><a xlink:title=" ">
<polygon fill="white" stroke="#bfbfbf" points="825,-0.5 825,-19.5 889,-19.5 889,-0.5 825,-0.5"/>
<text text-anchor="middle" x="857" y="-7.5" font-family="Helvetica,sans-Serif" font-size="10.00">algorithm</text>
</a>
</g>
</g>
<!-- Node10&#45;&gt;Node11 -->
<g id="edge10" class="edge">
<title>Node10&#45;&gt;Node11</title>
<path fill="none" stroke="midnightblue" d="M886.22,-56.08C881.33,-48.53 874.17,-37.49 868.17,-28.23"/>
<polygon fill="midnightblue" stroke="midnightblue" points="871.05,-26.24 862.67,-19.75 865.17,-30.05 871.05,-26.24"/>
</g>
<!-- Node12 -->
<g id="node12" class="node">
<title>Node12</title>
<g id="a_node12"><a xlink:title=" ">
<polygon fill="white" stroke="#bfbfbf" points="907,-0.5 907,-19.5 949,-19.5 949,-0.5 907,-0.5"/>
<text text-anchor="middle" x="928" y="-7.5" font-family="Helvetica,sans-Serif" font-size="10.00">array</text>
</a>
</g>
</g>
<!-- Node10&#45;&gt;Node12 -->
<g id="edge11" class="edge">
<title>Node10&#45;&gt;Node12</title>
<path fill="none" stroke="midnightblue" d="M897.94,-56.08C902.98,-48.53 910.34,-37.49 916.51,-28.23"/>
<polygon fill="midnightblue" stroke="midnightblue" points="919.53,-30.01 922.17,-19.75 913.71,-26.13 919.53,-30.01"/>
</g>
<!-- Node13 -->
<g id="node13" class="node">
<title>Node13</title>
<g id="a_node13"><a xlink:title=" ">
<polygon fill="white" stroke="#bfbfbf" points="670.5,-0.5 670.5,-19.5 719.5,-19.5 719.5,-0.5 670.5,-0.5"/>
<text text-anchor="middle" x="695" y="-7.5" font-family="Helvetica,sans-Serif" font-size="10.00">cctype</text>
</a>
</g>
</g>
<!-- Node10&#45;&gt;Node13 -->
<g id="edge12" class="edge">
<title>Node10&#45;&gt;Node13</title>
<path fill="none" stroke="midnightblue" d="M860.78,-56.44C824.98,-46.63 766.47,-30.59 729.39,-20.43"/>
<polygon fill="midnightblue" stroke="midnightblue" points="730.1,-16.99 719.53,-17.73 728.25,-23.74 730.1,-16.99"/>
</g>
<!-- Node14 -->
<g id="node14" class="node">
<title>Node14</title>
<g id="a_node14"><a xlink:title=" ">
<polygon fill="white" stroke="#bfbfbf" points="967.5,-0.5 967.5,-19.5 1040.5,-19.5 1040.5,-0.5 967.5,-0.5"/>
<text text-anchor="middle" x="1004" y="-7.5" font-family="Helvetica,sans-Serif" font-size="10.00">string_view</text>
</a>
</g>
</g>
<!-- Node10&#45;&gt;Node14 -->
<g id="edge14" class="edge">
<title>Node10&#45;&gt;Node14</title>
<path fill="none" stroke="midnightblue" d="M909.99,-56.32C928.04,-47.62 956.05,-34.12 976.8,-24.11"/>
<polygon fill="midnightblue" stroke="midnightblue" points="978.56,-27.15 986.05,-19.65 975.52,-20.84 978.56,-27.15"/>
</g>
<!-- Node15 -->
<g id="node15" class="node">
<title>Node15</title>
<g id="a_node15"><a xlink:title=" ">
<polygon fill="white" stroke="#bfbfbf" points="737.5,-0.5 737.5,-19.5 806.5,-19.5 806.5,-0.5 737.5,-0.5"/>
<text text-anchor="middle" x="772" y="-7.5" font-family="Helvetica,sans-Serif" font-size="10.00">type_traits</text>
</a>
</g>
</g>
<!-- Node10&#45;&gt;Node15 -->
<g id="edge15" class="edge">
<title>Node10&#45;&gt;Node15</title>
<path fill="none" stroke="midnightblue" d="M872.99,-56.44C853.41,-47.64 822.69,-33.81 800.27,-23.72"/>
<polygon fill="midnightblue" stroke="midnightblue" points="801.48,-20.43 790.93,-19.52 798.61,-26.81 801.48,-20.43"/>
</g>
<!-- Node19&#45;&gt;Node16 -->
<g id="edge22" class="edge">
<title>Node19&#45;&gt;Node16</title>
<path fill="none" stroke="midnightblue" d="M172.67,-168.09C174.19,-154.17 179.12,-127.27 195,-112 220.52,-87.46 259.18,-76.28 290.16,-71.2"/>
<polygon fill="midnightblue" stroke="midnightblue" points="290.96,-74.62 300.34,-69.7 289.94,-67.7 290.96,-74.62"/>
</g>
<!-- Node21&#45;&gt;Node5 -->
<g id="edge28" class="edge">
<title>Node21&#45;&gt;Node5</title>
<path fill="none" stroke="midnightblue" d="M795.9,-286.62C729.54,-282.46 608.02,-271.51 508,-244 461.51,-231.21 410.57,-207.21 381.05,-192.23"/>
<polygon fill="midnightblue" stroke="midnightblue" points="382.39,-188.98 371.9,-187.52 379.19,-195.2 382.39,-188.98"/>
</g>
<!-- Node21&#45;&gt;Node8 -->
<g id="edge34" class="edge">
<title>Node21&#45;&gt;Node8</title>
<path fill="none" stroke="midnightblue" d="M866.56,-280.45C884.16,-272.75 908.99,-260.16 927,-244 1001.35,-177.31 1059.99,-70.5 1081.31,-28.64"/>
<polygon fill="midnightblue" stroke="midnightblue" points="1084.46,-30.18 1085.81,-19.67 1078.2,-27.04 1084.46,-30.18"/>
</g>
<!-- Node21&#45;&gt;Node14 -->
<g id="edge33" class="edge">
<title>Node21&#45;&gt;Node14</title>
<path fill="none" stroke="midnightblue" d="M861.45,-280.45C875.22,-272.58 894.55,-259.76 907,-244 935.16,-208.36 981.33,-77.63 997.87,-29.21"/>
<polygon fill="midnightblue" stroke="midnightblue" points="1001.19,-30.3 1001.09,-19.71 994.56,-28.05 1001.19,-30.3"/>
</g>
<!-- Node22 -->
<g id="node22" class="node">
<title>Node22</title>
<g id="a_node22"><a xlink:title=" ">
<polygon fill="white" stroke="#bfbfbf" points="706,-224.5 706,-243.5 756,-243.5 756,-224.5 706,-224.5"/>
<text text-anchor="middle" x="731" y="-231.5" font-family="Helvetica,sans-Serif" font-size="10.00">cstring</text>
</a>
</g>
</g>
<!-- Node21&#45;&gt;Node22 -->
<g id="edge29" class="edge">
<title>Node21&#45;&gt;Node22</title>
<path fill="none" stroke="midnightblue" d="M826.94,-280.44C808.43,-271.68 779.42,-257.94 758.14,-247.86"/>
<polygon fill="midnightblue" stroke="midnightblue" points="759.51,-244.63 748.98,-243.52 756.52,-250.96 759.51,-244.63"/>
</g>
<!-- Node23 -->
<g id="node23" class="node">
<title>Node23</title>
<g id="a_node23"><a xlink:title=" ">
<polygon fill="white" stroke="#bfbfbf" points="774.5,-224.5 774.5,-243.5 839.5,-243.5 839.5,-224.5 774.5,-224.5"/>
<text text-anchor="middle" x="807" y="-231.5" font-family="Helvetica,sans-Serif" font-size="10.00">exception</text>
</a>
</g>
</g>
<!-- Node21&#45;&gt;Node23 -->
<g id="edge30" class="edge">
<title>Node21&#45;&gt;Node23</title>
<path fill="none" stroke="midnightblue" d="M838.73,-280.08C833.36,-272.46 825.48,-261.26 818.92,-251.94"/>
<polygon fill="midnightblue" stroke="midnightblue" points="821.78,-249.91 813.16,-243.75 816.05,-253.94 821.78,-249.91"/>
</g>
<!-- Node24 -->
<g id="node24" class="node">
<title>Node24</title>
<g id="a_node24"><a xlink:title=" ">
<polygon fill="white" stroke="#bfbfbf" points="1190,-224.5 1190,-243.5 1248,-243.5 1248,-224.5 1190,-224.5"/>
<text text-anchor="middle" x="1219" y="-231.5" font-family="Helvetica,sans-Serif" font-size="10.00">memory</text>
</a>
</g>
</g>
<!-- Node21&#45;&gt;Node24 -->
<g id="edge31" class="edge">
<title>Node21&#45;&gt;Node24</title>
<path fill="none" stroke="midnightblue" d="M894.28,-281.88C969.37,-271.04 1110.94,-250.6 1179.63,-240.68"/>
<polygon fill="midnightblue" stroke="midnightblue" points="1180.22,-244.14 1189.62,-239.24 1179.22,-237.21 1180.22,-244.14"/>
</g>
<!-- Node25 -->
<g id="node25" class="node">
<title>Node25</title>
<g id="a_node25"><a xlink:title=" ">
<polygon fill="white" stroke="#bfbfbf" points="858,-224.5 858,-243.5 898,-243.5 898,-224.5 858,-224.5"/>
<text text-anchor="middle" x="878" y="-231.5" font-family="Helvetica,sans-Serif" font-size="10.00">span</text>
</a>
</g>
</g>
<!-- Node21&#45;&gt;Node25 -->
<g id="edge32" class="edge">
<title>Node21&#45;&gt;Node25</title>
<path fill="none" stroke="midnightblue" d="M850.45,-280.08C855.01,-272.61 861.67,-261.72 867.29,-252.52"/>
<polygon fill="midnightblue" stroke="midnightblue" points="870.42,-254.11 872.65,-243.75 864.45,-250.46 870.42,-254.11"/>
</g>
<!-- Node26&#45;&gt;Node3 -->
<g id="edge36" class="edge">
<title>Node26&#45;&gt;Node3</title>
<path fill="none" stroke="midnightblue" d="M599.78,-336.44C547.25,-326.92 462.39,-311.55 406.15,-301.36"/>
<polygon fill="midnightblue" stroke="midnightblue" points="406.46,-297.86 396,-299.52 405.21,-304.74 406.46,-297.86"/>
</g>
<!-- Node26&#45;&gt;Node7 -->
<g id="edge47" class="edge">
<title>Node26&#45;&gt;Node7</title>
<path fill="none" stroke="midnightblue" d="M646.18,-336.41C641.97,-292.47 622.82,-92.57 616.81,-29.87"/>
<polygon fill="midnightblue" stroke="midnightblue" points="620.26,-29.16 615.82,-19.54 613.29,-29.82 620.26,-29.16"/>
</g>
<!-- Node26&#45;&gt;Node8 -->
<g id="edge48" class="edge">
<title>Node26&#45;&gt;Node8</title>
<path fill="none" stroke="midnightblue" d="M710.6,-343.91C809.13,-339.71 1002,-321.33 1143,-244 1220.02,-201.76 1253.41,-128.63 1204,-56 1186.14,-29.75 1150.38,-18.82 1123.65,-14.26"/>
<polygon fill="midnightblue" stroke="midnightblue" points="1123.95,-10.76 1113.54,-12.76 1122.92,-17.69 1123.95,-10.76"/>
</g>
<!-- Node26&#45;&gt;Node21 -->
<g id="edge39" class="edge">
<title>Node26&#45;&gt;Node21</title>
<path fill="none" stroke="midnightblue" d="M678.37,-336.44C712.26,-327.2 766.4,-312.44 803.72,-302.26"/>
<polygon fill="midnightblue" stroke="midnightblue" points="805.05,-305.52 813.77,-299.52 803.2,-298.77 805.05,-305.52"/>
</g>
<!-- Node27 -->
<g id="node27" class="node">
<title>Node27</title>
<g id="a_node27"><a xlink:href="hash__bytes_8h.html" target="_top" xlink:title=" ">
<polygon fill="white" stroke="black" points="1030,-168.5 1030,-187.5 1162,-187.5 1162,-168.5 1030,-168.5"/>
<text text-anchor="middle" x="1096" y="-175.5" font-family="Helvetica,sans-Serif" font-size="10.00">ccf/crypto/hash_bytes.h</text>
</a>
</g>
</g>
<!-- Node26&#45;&gt;Node27 -->
<g id="edge37" class="edge">
<title>Node26&#45;&gt;Node27</title>
<path fill="none" stroke="midnightblue" d="M710.62,-340.66C763.56,-335.45 840.13,-324.17 903,-300 912.25,-296.44 1025.48,-224.18 1074.08,-193.06"/>
<polygon fill="midnightblue" stroke="midnightblue" points="1076.09,-195.93 1082.62,-187.58 1072.31,-190.03 1076.09,-195.93"/>
</g>
<!-- Node26&#45;&gt;Node28 -->
<g id="edge40" class="edge">
<title>Node26&#45;&gt;Node28</title>
<path fill="none" stroke="midnightblue" d="M640.49,-336.37C626.73,-318.14 594.5,-275.43 576.58,-251.68"/>
<polygon fill="midnightblue" stroke="midnightblue" points="579.3,-249.47 570.48,-243.59 573.71,-253.68 579.3,-249.47"/>
</g>
<!-- Node26&#45;&gt;Node29 -->
<g id="edge45" class="edge">
<title>Node26&#45;&gt;Node29</title>
<path fill="none" stroke="midnightblue" d="M620.86,-336.44C592.73,-327.24 547.87,-312.56 516.78,-302.38"/>
<polygon fill="midnightblue" stroke="midnightblue" points="517.8,-299.03 507.21,-299.25 515.63,-305.69 517.8,-299.03"/>
</g>
<!-- Node26&#45;&gt;Node30 -->
<g id="edge46" class="edge">
<title>Node26&#45;&gt;Node30</title>
<path fill="none" stroke="midnightblue" d="M631.9,-336.32C617.1,-327.82 594.31,-314.73 577.02,-304.8"/>
<polygon fill="midnightblue" stroke="midnightblue" points="578.48,-301.6 568.07,-299.65 574.99,-307.67 578.48,-301.6"/>
</g>
<!-- Node27&#45;&gt;Node8 -->
<g id="edge38" class="edge">
<title>Node27&#45;&gt;Node8</title>
<path fill="none" stroke="midnightblue" d="M1095.68,-168.08C1094.73,-141.95 1091.96,-65.21 1090.67,-29.58"/>
<polygon fill="midnightblue" stroke="midnightblue" points="1094.17,-29.44 1090.31,-19.57 1087.17,-29.69 1094.17,-29.44"/>
</g>
<!-- Node28&#45;&gt;Node5 -->
<g id="edge41" class="edge">
<title>Node28&#45;&gt;Node5</title>
<path fill="none" stroke="midnightblue" d="M531.04,-224.44C495.21,-215.14 437.84,-200.25 398.61,-190.06"/>
<polygon fill="midnightblue" stroke="midnightblue" points="399.36,-186.64 388.8,-187.52 397.6,-193.42 399.36,-186.64"/>
</g>
<!-- Node28&#45;&gt;Node7 -->
<g id="edge44" class="edge">
<title>Node28&#45;&gt;Node7</title>
<path fill="none" stroke="midnightblue" d="M566,-224.3C573.52,-191.56 600.21,-75.38 610.71,-29.67"/>
<polygon fill="midnightblue" stroke="midnightblue" points="614.13,-30.41 612.96,-19.88 607.31,-28.85 614.13,-30.41"/>
</g>
<!-- Node28&#45;&gt;Node10 -->
<g id="edge42" class="edge">
<title>Node28&#45;&gt;Node10</title>
<path fill="none" stroke="midnightblue" d="M581.17,-224.31C635.09,-197.02 801.21,-112.95 865.87,-80.22"/>
<polygon fill="midnightblue" stroke="midnightblue" points="867.66,-83.24 875,-75.61 864.49,-77 867.66,-83.24"/>
</g>
<!-- Node28&#45;&gt;Node16 -->
<g id="edge43" class="edge">
<title>Node28&#45;&gt;Node16</title>
<path fill="none" stroke="midnightblue" d="M541.22,-224.45C504.6,-209.85 431.82,-177.26 383,-132 368.31,-118.38 356.23,-98.77 348.65,-84.66"/>
<polygon fill="midnightblue" stroke="midnightblue" points="351.64,-82.81 343.96,-75.52 345.41,-86.01 351.64,-82.81"/>
</g>
<!-- Node31&#45;&gt;Node7 -->
<g id="edge73" class="edge">
<title>Node31&#45;&gt;Node7</title>
<path fill="none" stroke="midnightblue" d="M1220.69,-392.13C1222.16,-368.32 1226.54,-319.38 1239,-280 1246.88,-255.07 1274.04,-243.83 1257,-224 1222.43,-183.76 1070.93,-205.94 1021,-188 967.16,-168.66 852.94,-77.67 800,-56 772.47,-44.73 692.21,-27.07 646.97,-17.57"/>
<polygon fill="midnightblue" stroke="midnightblue" points="647.58,-14.12 637.08,-15.5 646.15,-20.97 647.58,-14.12"/>
</g>
<!-- Node31&#45;&gt;Node20 -->
<g id="edge72" class="edge">
<title>Node31&#45;&gt;Node20</title>
<path fill="none" stroke="midnightblue" d="M1210.26,-392.47C1188.55,-361.17 1136.22,-285.76 1112.75,-251.93"/>
<polygon fill="midnightblue" stroke="midnightblue" points="1115.52,-249.78 1106.94,-243.56 1109.76,-253.77 1115.52,-249.78"/>
</g>
<!-- Node31&#45;&gt;Node26 -->
<g id="edge56" class="edge">
<title>Node31&#45;&gt;Node26</title>
<path fill="none" stroke="midnightblue" d="M1159.76,-400.24C1054.05,-389.27 835.51,-366.58 720.87,-354.67"/>
<polygon fill="midnightblue" stroke="midnightblue" points="721.09,-351.17 710.78,-353.62 720.36,-358.14 721.09,-351.17"/>
</g>
<!-- Node31&#45;&gt;Node32 -->
<g id="edge57" class="edge">
<title>Node31&#45;&gt;Node32</title>
<path fill="none" stroke="midnightblue" d="M1280.12,-394.89C1336.36,-384.02 1419.63,-367.93 1473.86,-357.46"/>
<polygon fill="midnightblue" stroke="midnightblue" points="1474.81,-360.84 1483.97,-355.51 1473.48,-353.97 1474.81,-360.84"/>
</g>
<!-- Node36 -->
<g id="node36" class="node">
<title>Node36</title>
<g id="a_node36"><a xlink:title=" ">
<polygon fill="white" stroke="#bfbfbf" points="1349.5,-280.5 1349.5,-299.5 1428.5,-299.5 1428.5,-280.5 1349.5,-280.5"/>
<text text-anchor="middle" x="1389" y="-287.5" font-family="Helvetica,sans-Serif" font-size="10.00">openssl/err.h</text>
</a>
</g>
</g>
<!-- Node31&#45;&gt;Node36 -->
<g id="edge70" class="edge">
<title>Node31&#45;&gt;Node36</title>
<path fill="none" stroke="midnightblue" d="M1240.72,-392.34C1273.11,-370.2 1335.38,-327.64 1367.96,-305.38"/>
<polygon fill="midnightblue" stroke="midnightblue" points="1370.03,-308.2 1376.31,-299.67 1366.08,-302.42 1370.03,-308.2"/>
</g>
<!-- Node37 -->
<g id="node37" class="node">
<title>Node37</title>
<g id="a_node37"><a xlink:title=" ">
<polygon fill="white" stroke="#bfbfbf" points="1248,-280.5 1248,-299.5 1332,-299.5 1332,-280.5 1248,-280.5"/>
<text text-anchor="middle" x="1290" y="-287.5" font-family="Helvetica,sans-Serif" font-size="10.00">openssl/evp.h</text>
</a>
</g>
</g>
<!-- Node31&#45;&gt;Node37 -->
<g id="edge71" class="edge">
<title>Node31&#45;&gt;Node37</title>
<path fill="none" stroke="midnightblue" d="M1228.58,-392.34C1241.43,-371.15 1265.61,-331.24 1279.49,-308.34"/>
<polygon fill="midnightblue" stroke="midnightblue" points="1282.56,-310.04 1284.75,-299.67 1276.57,-306.41 1282.56,-310.04"/>
</g>
<!-- Node32&#45;&gt;Node16 -->
<g id="edge59" class="edge">
<title>Node32&#45;&gt;Node16</title>
<path fill="none" stroke="midnightblue" d="M1471.45,-344.23C1321.53,-341.76 916.53,-332.23 787,-300 707.87,-280.31 694.25,-257.72 620,-224 529.81,-183.04 500.75,-184.89 417,-132 394.29,-117.65 371.12,-97.13 356.21,-83"/>
<polygon fill="midnightblue" stroke="midnightblue" points="358.46,-80.31 348.83,-75.89 353.6,-85.35 358.46,-80.31"/>
</g>
<!-- Node32&#45;&gt;Node21 -->
<g id="edge58" class="edge">
<title>Node32&#45;&gt;Node21</title>
<path fill="none" stroke="midnightblue" d="M1471.23,-340.51C1343.45,-330.41 1034.25,-305.96 904.2,-295.68"/>
<polygon fill="midnightblue" stroke="midnightblue" points="904.28,-292.18 894.03,-294.88 903.73,-299.15 904.28,-292.18"/>
</g>
<!-- Node32&#45;&gt;Node24 -->
<g id="edge60" class="edge">
<title>Node32&#45;&gt;Node24</title>
<path fill="none" stroke="midnightblue" d="M1534.83,-336.32C1544.67,-322.71 1560.16,-296.24 1546,-280 1509.13,-237.71 1337.39,-233.79 1258.64,-234.28"/>
<polygon fill="midnightblue" stroke="midnightblue" points="1258.14,-230.78 1248.17,-234.37 1258.2,-237.78 1258.14,-230.78"/>
</g>
<!-- Node33 -->
<g id="node33" class="node">
<title>Node33</title>
<g id="a_node33"><a xlink:title=" ">
<polygon fill="white" stroke="#bfbfbf" points="1713.5,-280.5 1713.5,-299.5 1802.5,-299.5 1802.5,-280.5 1713.5,-280.5"/>
<text text-anchor="middle" x="1758" y="-287.5" font-family="Helvetica,sans-Serif" font-size="10.00">openssl/asn1.h</text>
</a>
</g>
</g>
<!-- Node32&#45;&gt;Node33 -->
<g id="edge61" class="edge">
<title>Node32&#45;&gt;Node33</title>
<path fill="none" stroke="midnightblue" d="M1564.44,-336.44C1604.4,-327.06 1668.59,-311.99 1711.98,-301.8"/>
<polygon fill="midnightblue" stroke="midnightblue" points="1712.79,-305.21 1721.73,-299.52 1711.19,-298.39 1712.79,-305.21"/>
</g>
<!-- Node34 -->
<g id="node34" class="node">
<title>Node34</title>
<g id="a_node34"><a xlink:title=" ">
<polygon fill="white" stroke="#bfbfbf" points="1820.5,-280.5 1820.5,-299.5 1897.5,-299.5 1897.5,-280.5 1820.5,-280.5"/>
<text text-anchor="middle" x="1859" y="-287.5" font-family="Helvetica,sans-Serif" font-size="10.00">openssl/ec.h</text>
</a>
</g>
</g>
<!-- Node32&#45;&gt;Node34 -->
<g id="edge62" class="edge">
<title>Node32&#45;&gt;Node34</title>
<path fill="none" stroke="midnightblue" d="M1584.67,-336.57C1639.87,-328.23 1726.42,-314.83 1810.34,-300.25"/>
<polygon fill="midnightblue" stroke="midnightblue" points="1811.04,-303.68 1820.29,-298.51 1809.84,-296.79 1811.04,-303.68"/>
</g>
<!-- Node35 -->
<g id="node35" class="node">
<title>Node35</title>
<g id="a_node35"><a xlink:title=" ">
<polygon fill="white" stroke="#bfbfbf" points="1915.5,-280.5 1915.5,-299.5 2014.5,-299.5 2014.5,-280.5 1915.5,-280.5"/>
<text text-anchor="middle" x="1965" y="-287.5" font-family="Helvetica,sans-Serif" font-size="10.00">openssl/engine.h</text>
</a>
</g>
</g>
<!-- Node32&#45;&gt;Node35 -->
<g id="edge63" class="edge">
<title>Node32&#45;&gt;Node35</title>
<path fill="none" stroke="midnightblue" d="M1584.59,-338.92C1656.71,-331.03 1785.49,-316.46 1905.26,-300.2"/>
<polygon fill="midnightblue" stroke="midnightblue" points="1905.91,-303.65 1915.34,-298.82 1904.96,-296.71 1905.91,-303.65"/>
</g>
<!-- Node32&#45;&gt;Node36 -->
<g id="edge64" class="edge">
<title>Node32&#45;&gt;Node36</title>
<path fill="none" stroke="midnightblue" d="M1505.98,-336.44C1482.9,-327.48 1446.44,-313.31 1420.36,-303.18"/>
<polygon fill="midnightblue" stroke="midnightblue" points="1421.51,-299.88 1410.92,-299.52 1418.98,-306.4 1421.51,-299.88"/>
</g>
<!-- Node32&#45;&gt;Node37 -->
<g id="edge65" class="edge">
<title>Node32&#45;&gt;Node37</title>
<path fill="none" stroke="midnightblue" d="M1490.29,-336.44C1448.86,-327.04 1382.24,-311.93 1337.33,-301.74"/>
<polygon fill="midnightblue" stroke="midnightblue" points="1338.06,-298.32 1327.54,-299.52 1336.51,-305.14 1338.06,-298.32"/>
</g>
<!-- Node38 -->
<g id="node38" class="node">
<title>Node38</title>
<g id="a_node38"><a xlink:title=" ">
<polygon fill="white" stroke="#bfbfbf" points="2033,-280.5 2033,-299.5 2121,-299.5 2121,-280.5 2033,-280.5"/>
<text text-anchor="middle" x="2077" y="-287.5" font-family="Helvetica,sans-Serif" font-size="10.00">openssl/pem.h</text>
</a>
</g>
</g>
<!-- Node32&#45;&gt;Node38 -->
<g id="edge66" class="edge">
<title>Node32&#45;&gt;Node38</title>
<path fill="none" stroke="midnightblue" d="M1584.69,-341.3C1675.09,-335.07 1857.69,-321.22 2022.47,-300.11"/>
<polygon fill="midnightblue" stroke="midnightblue" points="2023.32,-303.53 2032.79,-298.77 2022.43,-296.58 2023.32,-303.53"/>
</g>
<!-- Node39 -->
<g id="node39" class="node">
<title>Node39</title>
<g id="a_node39"><a xlink:title=" ">
<polygon fill="white" stroke="#bfbfbf" points="2139,-280.5 2139,-299.5 2219,-299.5 2219,-280.5 2139,-280.5"/>
<text text-anchor="middle" x="2179" y="-287.5" font-family="Helvetica,sans-Serif" font-size="10.00">openssl/ssl.h</text>
</a>
</g>
</g>
<!-- Node32&#45;&gt;Node39 -->
<g id="edge67" class="edge">
<title>Node32&#45;&gt;Node39</title>
<path fill="none" stroke="midnightblue" d="M1584.64,-342.79C1689.86,-338.24 1922.76,-326.11 2128.84,-300.01"/>
<polygon fill="midnightblue" stroke="midnightblue" points="2129.47,-303.46 2138.94,-298.72 2128.58,-296.52 2129.47,-303.46"/>
</g>
<!-- Node40 -->
<g id="node40" class="node">
<title>Node40</title>
<g id="a_node40"><a xlink:title=" ">
<polygon fill="white" stroke="#bfbfbf" points="1447,-280.5 1447,-299.5 1537,-299.5 1537,-280.5 1447,-280.5"/>
<text text-anchor="middle" x="1492" y="-287.5" font-family="Helvetica,sans-Serif" font-size="10.00">openssl/x509.h</text>
</a>
</g>
</g>
<!-- Node32&#45;&gt;Node40 -->
<g id="edge68" class="edge">
<title>Node32&#45;&gt;Node40</title>
<path fill="none" stroke="midnightblue" d="M1522.06,-336.08C1517.02,-328.53 1509.66,-317.49 1503.49,-308.23"/>
<polygon fill="midnightblue" stroke="midnightblue" points="1506.29,-306.13 1497.83,-299.75 1500.47,-310.01 1506.29,-306.13"/>
</g>
<!-- Node41 -->
<g id="node41" class="node">
<title>Node41</title>
<g id="a_node41"><a xlink:title=" ">
<polygon fill="white" stroke="#bfbfbf" points="1593,-280.5 1593,-299.5 1695,-299.5 1695,-280.5 1593,-280.5"/>
<text text-anchor="middle" x="1644" y="-287.5" font-family="Helvetica,sans-Serif" font-size="10.00">openssl/x509v3.h</text>
</a>
</g>
</g>
<!-- Node32&#45;&gt;Node41 -->
<g id="edge69" class="edge">
<title>Node32&#45;&gt;Node41</title>
<path fill="none" stroke="midnightblue" d="M1546.38,-336.44C1565.22,-327.68 1594.73,-313.94 1616.38,-303.86"/>
<polygon fill="midnightblue" stroke="midnightblue" points="1618.12,-306.91 1625.71,-299.52 1615.16,-300.56 1618.12,-306.91"/>
</g>
</g>
</svg>
