<?xml version="1.0" encoding="UTF-8" standalone="no"?>
<!DOCTYPE svg PUBLIC "-//W3C//DTD SVG 1.1//EN"
 "http://www.w3.org/Graphics/SVG/1.1/DTD/svg11.dtd">
<!-- Generated by graphviz version 2.43.0 (0)
 -->
<!-- Title: enclave::TLSEndpoint::EmptyMsg Pages: 1 -->
<svg width="147pt" height="252pt"
 viewBox="0.00 0.00 147.00 252.00" xmlns="http://www.w3.org/2000/svg" xmlns:xlink="http://www.w3.org/1999/xlink">
<g id="graph0" class="graph" transform="scale(1 1) rotate(0) translate(4 248)">
<title>enclave::TLSEndpoint::EmptyMsg</title>
<polygon fill="white" stroke="transparent" points="-4,4 -4,-248 143,-248 143,4 -4,4"/>
<!-- Node1 -->
<g id="node1" class="node">
<title>Node1</title>
<g id="a_node1"><a xlink:title=" ">
<polygon fill="#bfbfbf" stroke="black" points="9,-0.5 9,-30.5 130,-30.5 130,-0.5 9,-0.5"/>
<text text-anchor="start" x="17" y="-18.5" font-family="Helvetica,sans-Serif" font-size="10.00">enclave::TLSEndpoint</text>
<text text-anchor="middle" x="69.5" y="-7.5" font-family="Helvetica,sans-Serif" font-size="10.00">::EmptyMsg</text>
</a>
</g>
</g>
<!-- Node2 -->
<g id="node2" class="node">
<title>Node2</title>
<g id="a_node2"><a xlink:title=" ">
<polygon fill="white" stroke="black" points="0,-78.5 0,-108.5 139,-108.5 139,-78.5 0,-78.5"/>
<text text-anchor="start" x="8" y="-96.5" font-family="Helvetica,sans-Serif" font-size="10.00">std::shared_ptr&lt; enclave</text>
<text text-anchor="middle" x="69.5" y="-85.5" font-family="Helvetica,sans-Serif" font-size="10.00">::Endpoint &gt;</text>
</a>
</g>
</g>
<!-- Node2&#45;&gt;Node1 -->
<g id="edge1" class="edge">
<title>Node2&#45;&gt;Node1</title>
<path fill="none" stroke="#9a32cd" stroke-dasharray="5,2" d="M69.5,-68.09C69.5,-55.76 69.5,-41.22 69.5,-30.73"/>
<polygon fill="#9a32cd" stroke="#9a32cd" points="66,-68.2 69.5,-78.2 73,-68.21 66,-68.2"/>
<text text-anchor="middle" x="80.5" y="-52" font-family="Helvetica,sans-Serif" font-size="10.00"> self</text>
</g>
<!-- Node3 -->
<g id="node3" class="node">
<title>Node3</title>
<g id="a_node3"><a xlink:href="classenclave_1_1Endpoint.html" target="_top" xlink:title=" ">
<polygon fill="white" stroke="black" points="17.5,-156.5 17.5,-175.5 121.5,-175.5 121.5,-156.5 17.5,-156.5"/>
<text text-anchor="middle" x="69.5" y="-163.5" font-family="Helvetica,sans-Serif" font-size="10.00">enclave::Endpoint</text>
</a>
</g>
</g>
<!-- Node3&#45;&gt;Node2 -->
<g id="edge2" class="edge">
<title>Node3&#45;&gt;Node2</title>
<path fill="none" stroke="#9a32cd" stroke-dasharray="5,2" d="M69.5,-146.24C69.5,-134.41 69.5,-119.38 69.5,-108.58"/>
<polygon fill="#9a32cd" stroke="#9a32cd" points="66,-146.36 69.5,-156.36 73,-146.36 66,-146.36"/>
<text text-anchor="middle" x="78" y="-130" font-family="Helvetica,sans-Serif" font-size="10.00"> ptr</text>
</g>
<!-- Node4 -->
<g id="node4" class="node">
<title>Node4</title>
<g id="a_node4"><a xlink:title=" ">
<polygon fill="white" stroke="black" points="2.5,-213.5 2.5,-243.5 136.5,-243.5 136.5,-213.5 2.5,-213.5"/>
<text text-anchor="start" x="10.5" y="-231.5" font-family="Helvetica,sans-Serif" font-size="10.00">std::enable_shared</text>
<text text-anchor="middle" x="69.5" y="-220.5" font-family="Helvetica,sans-Serif" font-size="10.00">_from_this&lt; Endpoint &gt;</text>
</a>
</g>
</g>
<!-- Node4&#45;&gt;Node3 -->
<g id="edge3" class="edge">
<title>Node4&#45;&gt;Node3</title>
<path fill="none" stroke="midnightblue" d="M69.5,-203.35C69.5,-193.51 69.5,-182.78 69.5,-175.54"/>
<polygon fill="midnightblue" stroke="midnightblue" points="66,-203.47 69.5,-213.47 73,-203.47 66,-203.47"/>
</g>
</g>
</svg>
