<?xml version="1.0" encoding="UTF-8" standalone="no"?>
<!DOCTYPE svg PUBLIC "-//W3C//DTD SVG 1.1//EN"
 "http://www.w3.org/Graphics/SVG/1.1/DTD/svg11.dtd">
<!-- Generated by graphviz version 2.43.0 (0)
 -->
<!-- Title: ccf::historical::StateCacheImpl::StoreDetails Pages: 1 -->
<svg width="1439pt" height="379pt"
 viewBox="0.00 0.00 1439.00 379.00" xmlns="http://www.w3.org/2000/svg" xmlns:xlink="http://www.w3.org/1999/xlink">
<g id="graph0" class="graph" transform="scale(1 1) rotate(0) translate(4 375)">
<title>ccf::historical::StateCacheImpl::StoreDetails</title>
<polygon fill="white" stroke="transparent" points="-4,4 -4,-375 1435,-375 1435,4 -4,4"/>
<!-- Node1 -->
<g id="node1" class="node">
<title>Node1</title>
<g id="a_node1"><a xlink:title=" ">
<polygon fill="#bfbfbf" stroke="black" points="1288,-249.5 1288,-279.5 1431,-279.5 1431,-249.5 1288,-249.5"/>
<text text-anchor="start" x="1296" y="-267.5" font-family="Helvetica,sans-Serif" font-size="10.00">ccf::historical::StateCache</text>
<text text-anchor="middle" x="1359.5" y="-256.5" font-family="Helvetica,sans-Serif" font-size="10.00">Impl::StoreDetails</text>
</a>
</g>
</g>
<!-- Node2 -->
<g id="node2" class="node">
<title>Node2</title>
<g id="a_node2"><a xlink:href="classcrypto_1_1Sha256Hash.html" target="_top" xlink:title=" ">
<polygon fill="white" stroke="black" points="1041.5,-343 1041.5,-362 1155.5,-362 1155.5,-343 1041.5,-343"/>
<text text-anchor="middle" x="1098.5" y="-350" font-family="Helvetica,sans-Serif" font-size="10.00">crypto::Sha256Hash</text>
</a>
</g>
</g>
<!-- Node2&#45;&gt;Node1 -->
<g id="edge1" class="edge">
<title>Node2&#45;&gt;Node1</title>
<path fill="none" stroke="#9a32cd" stroke-dasharray="5,2" d="M1165.92,-348.88C1198.24,-345.41 1237.1,-338.65 1270,-325.5 1297.38,-314.56 1324.67,-293.89 1341.56,-279.66"/>
<polygon fill="#9a32cd" stroke="#9a32cd" points="1165.28,-345.43 1155.68,-349.9 1165.97,-352.39 1165.28,-345.43"/>
<text text-anchor="middle" x="1233.5" y="-347.5" font-family="Helvetica,sans-Serif" font-size="10.00"> entry_digest</text>
</g>
<!-- Node3 -->
<g id="node3" class="node">
<title>Node3</title>
<g id="a_node3"><a xlink:title=" ">
<polygon fill="white" stroke="black" points="800,-340.5 800,-370.5 911,-370.5 911,-340.5 800,-340.5"/>
<text text-anchor="start" x="808" y="-358.5" font-family="Helvetica,sans-Serif" font-size="10.00">std::array&lt; uint8_t,</text>
<text text-anchor="middle" x="855.5" y="-347.5" font-family="Helvetica,sans-Serif" font-size="10.00"> SIZE &gt;</text>
</a>
</g>
</g>
<!-- Node3&#45;&gt;Node2 -->
<g id="edge2" class="edge">
<title>Node3&#45;&gt;Node2</title>
<path fill="none" stroke="#9a32cd" stroke-dasharray="5,2" d="M921.49,-354.69C958.93,-354.22 1005.52,-353.65 1041.36,-353.2"/>
<polygon fill="#9a32cd" stroke="#9a32cd" points="921.14,-351.19 911.19,-354.82 921.23,-358.19 921.14,-351.19"/>
<text text-anchor="middle" x="964.5" y="-357.5" font-family="Helvetica,sans-Serif" font-size="10.00"> h</text>
</g>
<!-- Node4 -->
<g id="node4" class="node">
<title>Node4</title>
<g id="a_node4"><a xlink:href="classccf_1_1ClaimsDigest.html" target="_top" xlink:title=" ">
<polygon fill="white" stroke="black" points="553,-296 553,-315 654,-315 654,-296 553,-296"/>
<text text-anchor="middle" x="603.5" y="-303" font-family="Helvetica,sans-Serif" font-size="10.00">ccf::ClaimsDigest</text>
</a>
</g>
</g>
<!-- Node4&#45;&gt;Node1 -->
<g id="edge3" class="edge">
<title>Node4&#45;&gt;Node1</title>
<path fill="none" stroke="#9a32cd" stroke-dasharray="5,2" d="M664.1,-303.33C768.45,-299.5 991.04,-291.23 1179,-283.5 1219.45,-281.84 1229.74,-283.78 1270,-279.5 1275.73,-278.89 1281.66,-278.14 1287.6,-277.31"/>
<polygon fill="#9a32cd" stroke="#9a32cd" points="663.93,-299.83 654.07,-303.7 664.19,-306.83 663.93,-299.83"/>
<text text-anchor="middle" x="964.5" y="-295.5" font-family="Helvetica,sans-Serif" font-size="10.00"> claims_digest</text>
</g>
<!-- Node16 -->
<g id="node16" class="node">
<title>Node16</title>
<g id="a_node16"><a xlink:href="structccf_1_1TxReceipt.html" target="_top" xlink:title=" ">
<polygon fill="white" stroke="black" points="813,-242 813,-261 898,-261 898,-242 813,-242"/>
<text text-anchor="middle" x="855.5" y="-249" font-family="Helvetica,sans-Serif" font-size="10.00">ccf::TxReceipt</text>
</a>
</g>
</g>
<!-- Node4&#45;&gt;Node16 -->
<g id="edge19" class="edge">
<title>Node4&#45;&gt;Node16</title>
<path fill="none" stroke="#9a32cd" stroke-dasharray="5,2" d="M658.48,-293.84C704.8,-283.84 770.58,-269.63 812.9,-260.49"/>
<polygon fill="#9a32cd" stroke="#9a32cd" points="657.66,-290.44 648.62,-295.97 659.13,-297.28 657.66,-290.44"/>
<text text-anchor="middle" x="746.5" y="-284.5" font-family="Helvetica,sans-Serif" font-size="10.00"> claims_digest</text>
</g>
<!-- Node5 -->
<g id="node5" class="node">
<title>Node5</title>
<g id="a_node5"><a xlink:title=" ">
<polygon fill="white" stroke="black" points="1042,-205.5 1042,-235.5 1155,-235.5 1155,-205.5 1042,-205.5"/>
<text text-anchor="start" x="1050" y="-223.5" font-family="Helvetica,sans-Serif" font-size="10.00">std::shared_ptr&lt; kv</text>
<text text-anchor="middle" x="1098.5" y="-212.5" font-family="Helvetica,sans-Serif" font-size="10.00">::Store &gt;</text>
</a>
</g>
</g>
<!-- Node5&#45;&gt;Node1 -->
<g id="edge4" class="edge">
<title>Node5&#45;&gt;Node1</title>
<path fill="none" stroke="#9a32cd" stroke-dasharray="5,2" d="M1165.34,-231.69C1202.74,-238.04 1249.55,-245.99 1287.73,-252.48"/>
<polygon fill="#9a32cd" stroke="#9a32cd" points="1165.51,-228.16 1155.06,-229.94 1164.33,-235.06 1165.51,-228.16"/>
<text text-anchor="middle" x="1233.5" y="-252.5" font-family="Helvetica,sans-Serif" font-size="10.00"> store</text>
</g>
<!-- Node6 -->
<g id="node6" class="node">
<title>Node6</title>
<g id="a_node6"><a xlink:href="classkv_1_1Store.html" target="_top" xlink:title=" ">
<polygon fill="white" stroke="black" points="826,-113 826,-132 885,-132 885,-113 826,-113"/>
<text text-anchor="middle" x="855.5" y="-120" font-family="Helvetica,sans-Serif" font-size="10.00">kv::Store</text>
</a>
</g>
</g>
<!-- Node6&#45;&gt;Node5 -->
<g id="edge5" class="edge">
<title>Node6&#45;&gt;Node5</title>
<path fill="none" stroke="#9a32cd" stroke-dasharray="5,2" d="M884.74,-136.51C916.64,-152.05 970.33,-177.3 1018,-195.5 1027.06,-198.96 1036.82,-202.32 1046.3,-205.39"/>
<polygon fill="#9a32cd" stroke="#9a32cd" points="886.09,-133.28 875.57,-132.02 883.02,-139.57 886.09,-133.28"/>
<text text-anchor="middle" x="964.5" y="-190.5" font-family="Helvetica,sans-Serif" font-size="10.00"> ptr</text>
</g>
<!-- Node7 -->
<g id="node7" class="node">
<title>Node7</title>
<g id="a_node7"><a xlink:href="classkv_1_1AbstractStore.html" target="_top" xlink:title=" ">
<polygon fill="white" stroke="black" points="553.5,-126 553.5,-145 653.5,-145 653.5,-126 553.5,-126"/>
<text text-anchor="middle" x="603.5" y="-133" font-family="Helvetica,sans-Serif" font-size="10.00">kv::AbstractStore</text>
</a>
</g>
</g>
<!-- Node7&#45;&gt;Node6 -->
<g id="edge6" class="edge">
<title>Node7&#45;&gt;Node6</title>
<path fill="none" stroke="midnightblue" d="M663.85,-132.41C714.94,-129.76 786.46,-126.04 825.78,-123.99"/>
<polygon fill="midnightblue" stroke="midnightblue" points="663.4,-128.93 653.59,-132.95 663.76,-135.92 663.4,-128.93"/>
</g>
<!-- Node8 -->
<g id="node8" class="node">
<title>Node8</title>
<g id="a_node8"><a xlink:href="classkv_1_1StoreState.html" target="_top" xlink:title=" ">
<polygon fill="white" stroke="black" points="561,-88 561,-107 646,-107 646,-88 561,-88"/>
<text text-anchor="middle" x="603.5" y="-95" font-family="Helvetica,sans-Serif" font-size="10.00">kv::StoreState</text>
</a>
</g>
</g>
<!-- Node8&#45;&gt;Node6 -->
<g id="edge7" class="edge">
<title>Node8&#45;&gt;Node6</title>
<path fill="none" stroke="midnightblue" d="M656.29,-102.68C707.63,-107.81 784.4,-115.49 825.72,-119.62"/>
<polygon fill="midnightblue" stroke="midnightblue" points="656.36,-99.17 646.06,-101.66 655.67,-106.13 656.36,-99.17"/>
</g>
<!-- Node9 -->
<g id="node9" class="node">
<title>Node9</title>
<g id="a_node9"><a xlink:title=" ">
<polygon fill="white" stroke="black" points="305,-143 305,-162 374,-162 374,-143 305,-143"/>
<text text-anchor="middle" x="339.5" y="-150" font-family="Helvetica,sans-Serif" font-size="10.00">std::mutex</text>
</a>
</g>
</g>
<!-- Node9&#45;&gt;Node8 -->
<g id="edge8" class="edge">
<title>Node9&#45;&gt;Node8</title>
<path fill="none" stroke="#9a32cd" stroke-dasharray="5,2" d="M384.21,-143.32C433.31,-133.02 512.41,-116.41 560.7,-106.27"/>
<polygon fill="#9a32cd" stroke="#9a32cd" points="383.28,-139.94 374.22,-145.42 384.72,-146.79 383.28,-139.94"/>
<text text-anchor="middle" x="462.5" y="-158.5" font-family="Helvetica,sans-Serif" font-size="10.00"> commit_lock</text>
<text text-anchor="middle" x="462.5" y="-147.5" font-family="Helvetica,sans-Serif" font-size="10.00">maps_lock</text>
<text text-anchor="middle" x="462.5" y="-136.5" font-family="Helvetica,sans-Serif" font-size="10.00">version_lock</text>
</g>
<!-- Node10 -->
<g id="node10" class="node">
<title>Node10</title>
<g id="a_node10"><a xlink:title=" ">
<polygon fill="white" stroke="black" points="268,-71.5 268,-123.5 411,-123.5 411,-71.5 268,-71.5"/>
<text text-anchor="start" x="276" y="-111.5" font-family="Helvetica,sans-Serif" font-size="10.00">std::map&lt; std::string,</text>
<text text-anchor="start" x="276" y="-100.5" font-family="Helvetica,sans-Serif" font-size="10.00"> std::pair&lt; kv::Version,</text>
<text text-anchor="start" x="276" y="-89.5" font-family="Helvetica,sans-Serif" font-size="10.00"> std::shared_ptr&lt; untyped</text>
<text text-anchor="middle" x="339.5" y="-78.5" font-family="Helvetica,sans-Serif" font-size="10.00">::Map &gt; &gt; &gt;</text>
</a>
</g>
</g>
<!-- Node10&#45;&gt;Node8 -->
<g id="edge9" class="edge">
<title>Node10&#45;&gt;Node8</title>
<path fill="none" stroke="#9a32cd" stroke-dasharray="5,2" d="M421.06,-97.5C467.29,-97.5 523.4,-97.5 560.87,-97.5"/>
<polygon fill="#9a32cd" stroke="#9a32cd" points="421.06,-94 411.06,-97.5 421.06,-101 421.06,-94"/>
<text text-anchor="middle" x="462.5" y="-100.5" font-family="Helvetica,sans-Serif" font-size="10.00"> maps</text>
</g>
<!-- Node11 -->
<g id="node11" class="node">
<title>Node11</title>
<g id="a_node11"><a xlink:title=" ">
<polygon fill="white" stroke="black" points="141,-88 141,-107 206,-107 206,-88 141,-88"/>
<text text-anchor="middle" x="173.5" y="-95" font-family="Helvetica,sans-Serif" font-size="10.00">std::string</text>
</a>
</g>
</g>
<!-- Node11&#45;&gt;Node10 -->
<g id="edge10" class="edge">
<title>Node11&#45;&gt;Node10</title>
<path fill="none" stroke="#9a32cd" stroke-dasharray="5,2" d="M216.51,-97.5C232.17,-97.5 250.4,-97.5 267.92,-97.5"/>
<polygon fill="#9a32cd" stroke="#9a32cd" points="216.12,-94 206.12,-97.5 216.12,-101 216.12,-94"/>
<text text-anchor="middle" x="237" y="-100.5" font-family="Helvetica,sans-Serif" font-size="10.00"> keys</text>
</g>
<!-- Node12 -->
<g id="node12" class="node">
<title>Node12</title>
<g id="a_node12"><a xlink:title=" ">
<polygon fill="white" stroke="black" points="0,-82.5 0,-112.5 104,-112.5 104,-82.5 0,-82.5"/>
<text text-anchor="start" x="8" y="-100.5" font-family="Helvetica,sans-Serif" font-size="10.00">std::basic_string&lt;</text>
<text text-anchor="middle" x="52" y="-89.5" font-family="Helvetica,sans-Serif" font-size="10.00"> Char &gt;</text>
</a>
</g>
</g>
<!-- Node12&#45;&gt;Node11 -->
<g id="edge11" class="edge">
<title>Node12&#45;&gt;Node11</title>
<path fill="none" stroke="midnightblue" d="M114.1,-97.5C123.41,-97.5 132.68,-97.5 141,-97.5"/>
<polygon fill="midnightblue" stroke="midnightblue" points="114.03,-94 104.03,-97.5 114.03,-101 114.03,-94"/>
</g>
<!-- Node13 -->
<g id="node13" class="node">
<title>Node13</title>
<g id="a_node13"><a xlink:title=" ">
<polygon fill="white" stroke="black" points="272.5,-0.5 272.5,-52.5 406.5,-52.5 406.5,-0.5 272.5,-0.5"/>
<text text-anchor="start" x="280.5" y="-40.5" font-family="Helvetica,sans-Serif" font-size="10.00">std::unordered_map</text>
<text text-anchor="start" x="280.5" y="-29.5" font-family="Helvetica,sans-Serif" font-size="10.00">&lt; Version, std::pair</text>
<text text-anchor="start" x="280.5" y="-18.5" font-family="Helvetica,sans-Serif" font-size="10.00">&lt; std::unique_ptr&lt; kv</text>
<text text-anchor="middle" x="339.5" y="-7.5" font-family="Helvetica,sans-Serif" font-size="10.00">::PendingTx &gt;, bool &gt; &gt;</text>
</a>
</g>
</g>
<!-- Node13&#45;&gt;Node8 -->
<g id="edge12" class="edge">
<title>Node13&#45;&gt;Node8</title>
<path fill="none" stroke="#9a32cd" stroke-dasharray="5,2" d="M416.51,-50.71C446.7,-59.95 481.84,-70.24 514,-78.5 529.22,-82.41 546.05,-86.16 560.92,-89.29"/>
<polygon fill="#9a32cd" stroke="#9a32cd" points="417.47,-47.35 406.89,-47.75 415.42,-54.04 417.47,-47.35"/>
<text text-anchor="middle" x="462.5" y="-76.5" font-family="Helvetica,sans-Serif" font-size="10.00"> pending_txs</text>
</g>
<!-- Node14 -->
<g id="node14" class="node">
<title>Node14</title>
<g id="a_node14"><a xlink:href="classkv_1_1ExecutionWrapperStore.html" target="_top" xlink:title=" ">
<polygon fill="white" stroke="black" points="529.5,-50 529.5,-69 677.5,-69 677.5,-50 529.5,-50"/>
<text text-anchor="middle" x="603.5" y="-57" font-family="Helvetica,sans-Serif" font-size="10.00">kv::ExecutionWrapperStore</text>
</a>
</g>
</g>
<!-- Node14&#45;&gt;Node6 -->
<g id="edge13" class="edge">
<title>Node14&#45;&gt;Node6</title>
<path fill="none" stroke="midnightblue" d="M661.41,-71.24C671.93,-73.55 682.82,-76.02 693,-78.5 739.73,-89.87 793.54,-104.93 825.74,-114.16"/>
<polygon fill="midnightblue" stroke="midnightblue" points="661.97,-67.78 651.46,-69.08 660.49,-74.62 661.97,-67.78"/>
</g>
<!-- Node15 -->
<g id="node15" class="node">
<title>Node15</title>
<g id="a_node15"><a xlink:title=" ">
<polygon fill="white" stroke="black" points="1018,-255 1018,-274 1179,-274 1179,-255 1018,-255"/>
<text text-anchor="middle" x="1098.5" y="-262" font-family="Helvetica,sans-Serif" font-size="10.00">std::shared_ptr&lt; TxReceipt &gt;</text>
</a>
</g>
</g>
<!-- Node15&#45;&gt;Node1 -->
<g id="edge14" class="edge">
<title>Node15&#45;&gt;Node1</title>
<path fill="none" stroke="#9a32cd" stroke-dasharray="5,2" d="M1189.62,-264.5C1221.75,-264.5 1257.45,-264.5 1287.72,-264.5"/>
<polygon fill="#9a32cd" stroke="#9a32cd" points="1189.32,-261 1179.32,-264.5 1189.32,-268 1189.32,-261"/>
<text text-anchor="middle" x="1233.5" y="-267.5" font-family="Helvetica,sans-Serif" font-size="10.00"> receipt</text>
</g>
<!-- Node16&#45;&gt;Node15 -->
<g id="edge15" class="edge">
<title>Node16&#45;&gt;Node15</title>
<path fill="none" stroke="#9a32cd" stroke-dasharray="5,2" d="M908.21,-254.29C940.15,-256.01 981.78,-258.26 1017.87,-260.2"/>
<polygon fill="#9a32cd" stroke="#9a32cd" points="908.38,-250.79 898.2,-253.75 908,-257.78 908.38,-250.79"/>
<text text-anchor="middle" x="964.5" y="-261.5" font-family="Helvetica,sans-Serif" font-size="10.00"> ptr</text>
</g>
<!-- Node17 -->
<g id="node17" class="node">
<title>Node17</title>
<g id="a_node17"><a xlink:title=" ">
<polygon fill="white" stroke="black" points="541,-252 541,-271 666,-271 666,-252 541,-252"/>
<text text-anchor="middle" x="603.5" y="-259" font-family="Helvetica,sans-Serif" font-size="10.00">std::vector&lt; uint8_t &gt;</text>
</a>
</g>
</g>
<!-- Node17&#45;&gt;Node16 -->
<g id="edge16" class="edge">
<title>Node17&#45;&gt;Node16</title>
<path fill="none" stroke="#9a32cd" stroke-dasharray="5,2" d="M676.22,-254.68C687.84,-253.79 699.75,-253.01 711,-252.5 745.22,-250.94 784.08,-250.76 812.72,-250.94"/>
<polygon fill="#9a32cd" stroke="#9a32cd" points="675.81,-251.2 666.11,-255.48 676.36,-258.18 675.81,-251.2"/>
<text text-anchor="middle" x="746.5" y="-255.5" font-family="Helvetica,sans-Serif" font-size="10.00"> signature</text>
</g>
<!-- Node18 -->
<g id="node18" class="node">
<title>Node18</title>
<g id="a_node18"><a xlink:title=" ">
<polygon fill="white" stroke="black" points="545.5,-202.5 545.5,-232.5 661.5,-232.5 661.5,-202.5 545.5,-202.5"/>
<text text-anchor="start" x="553.5" y="-220.5" font-family="Helvetica,sans-Serif" font-size="10.00">std::shared_ptr&lt; ccf</text>
<text text-anchor="middle" x="603.5" y="-209.5" font-family="Helvetica,sans-Serif" font-size="10.00">::HistoryTree::Path &gt;</text>
</a>
</g>
</g>
<!-- Node18&#45;&gt;Node16 -->
<g id="edge17" class="edge">
<title>Node18&#45;&gt;Node16</title>
<path fill="none" stroke="#9a32cd" stroke-dasharray="5,2" d="M671.91,-223.16C705.15,-226.34 745.79,-230.83 782,-236.5 792.03,-238.07 802.78,-240.1 812.84,-242.16"/>
<polygon fill="#9a32cd" stroke="#9a32cd" points="672.13,-219.66 661.84,-222.21 671.47,-226.63 672.13,-219.66"/>
<text text-anchor="middle" x="746.5" y="-239.5" font-family="Helvetica,sans-Serif" font-size="10.00"> path</text>
</g>
<!-- Node19 -->
<g id="node19" class="node">
<title>Node19</title>
<g id="a_node19"><a xlink:href="structccf_1_1EntityId.html" target="_top" xlink:title=" ">
<polygon fill="white" stroke="black" points="514,-164 514,-183 693,-183 693,-164 514,-164"/>
<text text-anchor="middle" x="603.5" y="-171" font-family="Helvetica,sans-Serif" font-size="10.00">ccf::EntityId&lt; NodeIdFormatter &gt;</text>
</a>
</g>
</g>
<!-- Node19&#45;&gt;Node16 -->
<g id="edge18" class="edge">
<title>Node19&#45;&gt;Node16</title>
<path fill="none" stroke="#9a32cd" stroke-dasharray="5,2" d="M675.67,-184.96C708.63,-191.42 747.94,-200.79 782,-213.5 802.5,-221.15 824.57,-233.35 838.91,-241.85"/>
<polygon fill="#9a32cd" stroke="#9a32cd" points="676.14,-181.49 665.66,-183.05 674.83,-188.36 676.14,-181.49"/>
<text text-anchor="middle" x="746.5" y="-216.5" font-family="Helvetica,sans-Serif" font-size="10.00"> node_id</text>
</g>
<!-- Node20 -->
<g id="node20" class="node">
<title>Node20</title>
<g id="a_node20"><a xlink:href="structccf_1_1TxID.html" target="_top" xlink:title=" ">
<polygon fill="white" stroke="black" points="1069,-167 1069,-186 1128,-186 1128,-167 1069,-167"/>
<text text-anchor="middle" x="1098.5" y="-174" font-family="Helvetica,sans-Serif" font-size="10.00">ccf::TxID</text>
</a>
</g>
</g>
<!-- Node20&#45;&gt;Node1 -->
<g id="edge20" class="edge">
<title>Node20&#45;&gt;Node1</title>
<path fill="none" stroke="#9a32cd" stroke-dasharray="5,2" d="M1138.32,-185.34C1151.29,-188.41 1165.8,-191.97 1179,-195.5 1219.75,-206.41 1230.6,-207.41 1270,-222.5 1290.33,-230.29 1312.45,-240.79 1329.5,-249.34"/>
<polygon fill="#9a32cd" stroke="#9a32cd" points="1138.83,-181.86 1128.3,-182.99 1137.23,-188.68 1138.83,-181.86"/>
<text text-anchor="middle" x="1233.5" y="-225.5" font-family="Helvetica,sans-Serif" font-size="10.00"> transaction_id</text>
</g>
</g>
</svg>
