<?xml version="1.0" encoding="UTF-8" standalone="no"?>
<!DOCTYPE svg PUBLIC "-//W3C//DTD SVG 1.1//EN"
 "http://www.w3.org/Graphics/SVG/1.1/DTD/svg11.dtd">
<!-- Generated by graphviz version 2.43.0 (0)
 -->
<!-- Title: aft::State Pages: 1 -->
<svg width="671pt" height="126pt"
 viewBox="0.00 0.00 671.00 126.00" xmlns="http://www.w3.org/2000/svg" xmlns:xlink="http://www.w3.org/1999/xlink">
<g id="graph0" class="graph" transform="scale(1 1) rotate(0) translate(4 122)">
<title>aft::State</title>
<polygon fill="white" stroke="transparent" points="-4,4 -4,-122 667,-122 667,4 -4,4"/>
<!-- Node1 -->
<g id="node1" class="node">
<title>Node1</title>
<g id="a_node1"><a xlink:title=" ">
<polygon fill="#bfbfbf" stroke="black" points="602,-49.5 602,-68.5 663,-68.5 663,-49.5 602,-49.5"/>
<text text-anchor="middle" x="632.5" y="-56.5" font-family="Helvetica,sans-Serif" font-size="10.00">aft::State</text>
</a>
</g>
</g>
<!-- Node2 -->
<g id="node2" class="node">
<title>Node2</title>
<g id="a_node2"><a xlink:title=" ">
<polygon fill="white" stroke="black" points="399,-98.5 399,-117.5 468,-117.5 468,-98.5 399,-98.5"/>
<text text-anchor="middle" x="433.5" y="-105.5" font-family="Helvetica,sans-Serif" font-size="10.00">std::mutex</text>
</a>
</g>
</g>
<!-- Node2&#45;&gt;Node1 -->
<g id="edge1" class="edge">
<title>Node2&#45;&gt;Node1</title>
<path fill="none" stroke="#9a32cd" stroke-dasharray="5,2" d="M478.36,-99.02C508.28,-92.65 548.72,-83.56 584,-74 590.09,-72.35 596.57,-70.42 602.73,-68.5"/>
<polygon fill="#9a32cd" stroke="#9a32cd" points="477.3,-95.66 468.24,-101.15 478.75,-102.51 477.3,-95.66"/>
<text text-anchor="middle" x="550.5" y="-93" font-family="Helvetica,sans-Serif" font-size="10.00"> lock</text>
</g>
<!-- Node3 -->
<g id="node3" class="node">
<title>Node3</title>
<g id="a_node3"><a xlink:title=" ">
<polygon fill="white" stroke="black" points="368,-38.5 368,-79.5 499,-79.5 499,-38.5 368,-38.5"/>
<text text-anchor="start" x="376" y="-67.5" font-family="Helvetica,sans-Serif" font-size="10.00">std::map&lt; ccf::EntityId,</text>
<text text-anchor="start" x="376" y="-56.5" font-family="Helvetica,sans-Serif" font-size="10.00"> std::shared_ptr&lt; aft</text>
<text text-anchor="middle" x="433.5" y="-45.5" font-family="Helvetica,sans-Serif" font-size="10.00">::Replica &gt; &gt;</text>
</a>
</g>
</g>
<!-- Node3&#45;&gt;Node1 -->
<g id="edge2" class="edge">
<title>Node3&#45;&gt;Node1</title>
<path fill="none" stroke="#9a32cd" stroke-dasharray="5,2" d="M509.33,-59C541.57,-59 577.41,-59 601.88,-59"/>
<polygon fill="#9a32cd" stroke="#9a32cd" points="509.01,-55.5 499.01,-59 509.01,-62.5 509.01,-55.5"/>
<text text-anchor="middle" x="550.5" y="-62" font-family="Helvetica,sans-Serif" font-size="10.00"> configuration</text>
</g>
<!-- Node4 -->
<g id="node4" class="node">
<title>Node4</title>
<g id="a_node4"><a xlink:href="structccf_1_1EntityId.html" target="_top" xlink:title=" ">
<polygon fill="white" stroke="black" points="124,-68.5 124,-87.5 283,-87.5 283,-68.5 124,-68.5"/>
<text text-anchor="middle" x="203.5" y="-75.5" font-family="Helvetica,sans-Serif" font-size="10.00">ccf::EntityId&lt; FmtExtender &gt;</text>
</a>
</g>
</g>
<!-- Node4&#45;&gt;Node3 -->
<g id="edge3" class="edge">
<title>Node4&#45;&gt;Node3</title>
<path fill="none" stroke="#9a32cd" stroke-dasharray="5,2" d="M293.41,-70.59C318.17,-68.53 344.6,-66.33 367.69,-64.4"/>
<polygon fill="#9a32cd" stroke="#9a32cd" points="292.96,-67.12 283.28,-71.43 293.54,-74.09 292.96,-67.12"/>
<text text-anchor="middle" x="325.5" y="-72" font-family="Helvetica,sans-Serif" font-size="10.00"> keys</text>
</g>
<!-- Node5 -->
<g id="node5" class="node">
<title>Node5</title>
<g id="a_node5"><a xlink:title=" ">
<polygon fill="white" stroke="black" points="147,-19 147,-49 260,-49 260,-19 147,-19"/>
<text text-anchor="start" x="155" y="-37" font-family="Helvetica,sans-Serif" font-size="10.00">std::shared_ptr&lt; aft</text>
<text text-anchor="middle" x="203.5" y="-26" font-family="Helvetica,sans-Serif" font-size="10.00">::Replica &gt;</text>
</a>
</g>
</g>
<!-- Node5&#45;&gt;Node3 -->
<g id="edge4" class="edge">
<title>Node5&#45;&gt;Node3</title>
<path fill="none" stroke="#9a32cd" stroke-dasharray="5,2" d="M270.41,-41.23C300.97,-44.58 337.17,-48.55 367.61,-51.88"/>
<polygon fill="#9a32cd" stroke="#9a32cd" points="270.6,-37.73 260.28,-40.12 269.83,-44.68 270.6,-37.73"/>
<text text-anchor="middle" x="325.5" y="-52" font-family="Helvetica,sans-Serif" font-size="10.00"> elements</text>
</g>
<!-- Node6 -->
<g id="node6" class="node">
<title>Node6</title>
<g id="a_node6"><a xlink:href="classaft_1_1Replica.html" target="_top" xlink:title=" ">
<polygon fill="white" stroke="black" points="0,-24.5 0,-43.5 71,-43.5 71,-24.5 0,-24.5"/>
<text text-anchor="middle" x="35.5" y="-31.5" font-family="Helvetica,sans-Serif" font-size="10.00">aft::Replica</text>
</a>
</g>
</g>
<!-- Node6&#45;&gt;Node5 -->
<g id="edge5" class="edge">
<title>Node6&#45;&gt;Node5</title>
<path fill="none" stroke="#9a32cd" stroke-dasharray="5,2" d="M81.45,-34C101.6,-34 125.57,-34 146.84,-34"/>
<polygon fill="#9a32cd" stroke="#9a32cd" points="81.3,-30.5 71.3,-34 81.3,-37.5 81.3,-30.5"/>
<text text-anchor="middle" x="97.5" y="-37" font-family="Helvetica,sans-Serif" font-size="10.00"> ptr</text>
</g>
<!-- Node7 -->
<g id="node7" class="node">
<title>Node7</title>
<g id="a_node7"><a xlink:href="classaft_1_1ViewHistory.html" target="_top" xlink:title=" ">
<polygon fill="white" stroke="black" points="386,-0.5 386,-19.5 481,-19.5 481,-0.5 386,-0.5"/>
<text text-anchor="middle" x="433.5" y="-7.5" font-family="Helvetica,sans-Serif" font-size="10.00">aft::ViewHistory</text>
</a>
</g>
</g>
<!-- Node7&#45;&gt;Node1 -->
<g id="edge6" class="edge">
<title>Node7&#45;&gt;Node1</title>
<path fill="none" stroke="#9a32cd" stroke-dasharray="5,2" d="M490.93,-21.68C519.03,-27.8 553.45,-35.72 584,-44 590.09,-45.65 596.57,-47.58 602.73,-49.5"/>
<polygon fill="#9a32cd" stroke="#9a32cd" points="491.39,-18.2 480.88,-19.52 489.91,-25.05 491.39,-18.2"/>
<text text-anchor="middle" x="550.5" y="-47" font-family="Helvetica,sans-Serif" font-size="10.00"> view_history</text>
</g>
</g>
</svg>
