<?xml version="1.0" encoding="UTF-8" standalone="no"?>
<!DOCTYPE svg PUBLIC "-//W3C//DTD SVG 1.1//EN"
 "http://www.w3.org/Graphics/SVG/1.1/DTD/svg11.dtd">
<!-- Generated by graphviz version 2.43.0 (0)
 -->
<!-- Title: kv::ConsensusDetails Pages: 1 -->
<svg width="290pt" height="484pt"
 viewBox="0.00 0.00 290.00 484.00" xmlns="http://www.w3.org/2000/svg" xmlns:xlink="http://www.w3.org/1999/xlink">
<g id="graph0" class="graph" transform="scale(1 1) rotate(0) translate(4 480)">
<title>kv::ConsensusDetails</title>
<polygon fill="white" stroke="transparent" points="-4,4 -4,-480 286,-480 286,4 -4,4"/>
<!-- Node1 -->
<g id="node1" class="node">
<title>Node1</title>
<g id="a_node1"><a xlink:title=" ">
<polygon fill="#bfbfbf" stroke="black" points="56,-0.5 56,-19.5 177,-19.5 177,-0.5 56,-0.5"/>
<text text-anchor="middle" x="116.5" y="-7.5" font-family="Helvetica,sans-Serif" font-size="10.00">kv::ConsensusDetails</text>
</a>
</g>
</g>
<!-- Node2 -->
<g id="node2" class="node">
<title>Node2</title>
<g id="a_node2"><a xlink:title=" ">
<polygon fill="white" stroke="black" points="108,-67.5 108,-86.5 281,-86.5 281,-67.5 108,-67.5"/>
<text text-anchor="middle" x="194.5" y="-74.5" font-family="Helvetica,sans-Serif" font-size="10.00">std::vector&lt; kv::Configuration &gt;</text>
</a>
</g>
</g>
<!-- Node2&#45;&gt;Node1 -->
<g id="edge1" class="edge">
<title>Node2&#45;&gt;Node1</title>
<path fill="none" stroke="#9a32cd" stroke-dasharray="5,2" d="M176.16,-60.71C160.79,-47.91 139.41,-30.09 126.85,-19.63"/>
<polygon fill="#9a32cd" stroke="#9a32cd" points="174.06,-63.52 183.98,-67.23 178.54,-58.14 174.06,-63.52"/>
<text text-anchor="middle" x="179.5" y="-41" font-family="Helvetica,sans-Serif" font-size="10.00"> configs</text>
</g>
<!-- Node3 -->
<g id="node3" class="node">
<title>Node3</title>
<g id="a_node3"><a xlink:href="structkv_1_1Configuration.html" target="_top" xlink:title=" ">
<polygon fill="white" stroke="black" points="145,-134.5 145,-153.5 244,-153.5 244,-134.5 145,-134.5"/>
<text text-anchor="middle" x="194.5" y="-141.5" font-family="Helvetica,sans-Serif" font-size="10.00">kv::Configuration</text>
</a>
</g>
</g>
<!-- Node3&#45;&gt;Node2 -->
<g id="edge2" class="edge">
<title>Node3&#45;&gt;Node2</title>
<path fill="none" stroke="#9a32cd" stroke-dasharray="5,2" d="M194.5,-124.04C194.5,-111.67 194.5,-96.12 194.5,-86.63"/>
<polygon fill="#9a32cd" stroke="#9a32cd" points="191,-124.23 194.5,-134.23 198,-124.23 191,-124.23"/>
<text text-anchor="middle" x="219" y="-108" font-family="Helvetica,sans-Serif" font-size="10.00"> elements</text>
</g>
<!-- Node4 -->
<g id="node4" class="node">
<title>Node4</title>
<g id="a_node4"><a xlink:title=" ">
<polygon fill="white" stroke="black" points="111,-232.5 111,-251.5 278,-251.5 278,-232.5 111,-232.5"/>
<text text-anchor="middle" x="194.5" y="-239.5" font-family="Helvetica,sans-Serif" font-size="10.00">std::map&lt; NodeId, NodeInfo &gt;</text>
</a>
</g>
</g>
<!-- Node4&#45;&gt;Node3 -->
<g id="edge3" class="edge">
<title>Node4&#45;&gt;Node3</title>
<path fill="none" stroke="#9a32cd" stroke-dasharray="5,2" d="M194.5,-222.37C194.5,-201.65 194.5,-169.06 194.5,-153.64"/>
<polygon fill="#9a32cd" stroke="#9a32cd" points="191,-222.48 194.5,-232.48 198,-222.48 191,-222.48"/>
<text text-anchor="middle" x="211" y="-190.5" font-family="Helvetica,sans-Serif" font-size="10.00"> nodes</text>
</g>
<!-- Node5 -->
<g id="node5" class="node">
<title>Node5</title>
<g id="a_node5"><a xlink:href="structccf_1_1EntityId.html" target="_top" xlink:title=" ">
<polygon fill="white" stroke="black" points="0,-305 0,-324 159,-324 159,-305 0,-305"/>
<text text-anchor="middle" x="79.5" y="-312" font-family="Helvetica,sans-Serif" font-size="10.00">ccf::EntityId&lt; FmtExtender &gt;</text>
</a>
</g>
</g>
<!-- Node5&#45;&gt;Node4 -->
<g id="edge4" class="edge">
<title>Node5&#45;&gt;Node4</title>
<path fill="none" stroke="#9a32cd" stroke-dasharray="5,2" d="M102.14,-299.62C125.35,-285.39 160.74,-263.7 180.28,-251.72"/>
<polygon fill="#9a32cd" stroke="#9a32cd" points="100.3,-296.64 93.6,-304.86 103.96,-302.61 100.3,-296.64"/>
<text text-anchor="middle" x="160.5" y="-273" font-family="Helvetica,sans-Serif" font-size="10.00"> keys</text>
</g>
<!-- Node9 -->
<g id="node9" class="node">
<title>Node9</title>
<g id="a_node9"><a xlink:title=" ">
<polygon fill="white" stroke="black" points="22.5,-172.5 22.5,-213.5 136.5,-213.5 136.5,-172.5 22.5,-172.5"/>
<text text-anchor="start" x="30.5" y="-201.5" font-family="Helvetica,sans-Serif" font-size="10.00">std::unordered_map</text>
<text text-anchor="start" x="30.5" y="-190.5" font-family="Helvetica,sans-Serif" font-size="10.00">&lt; ccf::EntityId, ccf</text>
<text text-anchor="middle" x="79.5" y="-179.5" font-family="Helvetica,sans-Serif" font-size="10.00">::SeqNo &gt;</text>
</a>
</g>
</g>
<!-- Node5&#45;&gt;Node9 -->
<g id="edge9" class="edge">
<title>Node5&#45;&gt;Node9</title>
<path fill="none" stroke="#9a32cd" stroke-dasharray="5,2" d="M79.5,-294.85C79.5,-272.8 79.5,-236.27 79.5,-213.75"/>
<polygon fill="#9a32cd" stroke="#9a32cd" points="76,-294.91 79.5,-304.91 83,-294.91 76,-294.91"/>
<text text-anchor="middle" x="92.5" y="-273" font-family="Helvetica,sans-Serif" font-size="10.00"> keys</text>
</g>
<!-- Node6 -->
<g id="node6" class="node">
<title>Node6</title>
<g id="a_node6"><a xlink:href="structkv_1_1Configuration_1_1NodeInfo.html" target="_top" xlink:title=" ">
<polygon fill="white" stroke="black" points="177,-299.5 177,-329.5 282,-329.5 282,-299.5 177,-299.5"/>
<text text-anchor="start" x="185" y="-317.5" font-family="Helvetica,sans-Serif" font-size="10.00">kv::Configuration::</text>
<text text-anchor="middle" x="229.5" y="-306.5" font-family="Helvetica,sans-Serif" font-size="10.00">NodeInfo</text>
</a>
</g>
</g>
<!-- Node6&#45;&gt;Node4 -->
<g id="edge5" class="edge">
<title>Node6&#45;&gt;Node4</title>
<path fill="none" stroke="#9a32cd" stroke-dasharray="5,2" d="M217.95,-290.24C211.44,-277.12 203.67,-261.48 198.92,-251.89"/>
<polygon fill="#9a32cd" stroke="#9a32cd" points="214.84,-291.83 222.42,-299.23 221.11,-288.72 214.84,-291.83"/>
<text text-anchor="middle" x="237" y="-273" font-family="Helvetica,sans-Serif" font-size="10.00"> elements</text>
</g>
<!-- Node7 -->
<g id="node7" class="node">
<title>Node7</title>
<g id="a_node7"><a xlink:title=" ">
<polygon fill="white" stroke="black" points="197,-388.5 197,-407.5 262,-407.5 262,-388.5 197,-388.5"/>
<text text-anchor="middle" x="229.5" y="-395.5" font-family="Helvetica,sans-Serif" font-size="10.00">std::string</text>
</a>
</g>
</g>
<!-- Node7&#45;&gt;Node6 -->
<g id="edge6" class="edge">
<title>Node7&#45;&gt;Node6</title>
<path fill="none" stroke="#9a32cd" stroke-dasharray="5,2" d="M229.5,-378.23C229.5,-363.41 229.5,-343.05 229.5,-329.6"/>
<polygon fill="#9a32cd" stroke="#9a32cd" points="226,-378.28 229.5,-388.28 233,-378.28 226,-378.28"/>
<text text-anchor="middle" x="255.5" y="-362" font-family="Helvetica,sans-Serif" font-size="10.00"> hostname</text>
<text text-anchor="middle" x="255.5" y="-351" font-family="Helvetica,sans-Serif" font-size="10.00">port</text>
</g>
<!-- Node8 -->
<g id="node8" class="node">
<title>Node8</title>
<g id="a_node8"><a xlink:title=" ">
<polygon fill="white" stroke="black" points="177.5,-445.5 177.5,-475.5 281.5,-475.5 281.5,-445.5 177.5,-445.5"/>
<text text-anchor="start" x="185.5" y="-463.5" font-family="Helvetica,sans-Serif" font-size="10.00">std::basic_string&lt;</text>
<text text-anchor="middle" x="229.5" y="-452.5" font-family="Helvetica,sans-Serif" font-size="10.00"> Char &gt;</text>
</a>
</g>
</g>
<!-- Node8&#45;&gt;Node7 -->
<g id="edge7" class="edge">
<title>Node8&#45;&gt;Node7</title>
<path fill="none" stroke="midnightblue" d="M229.5,-435.35C229.5,-425.51 229.5,-414.78 229.5,-407.54"/>
<polygon fill="midnightblue" stroke="midnightblue" points="226,-435.47 229.5,-445.47 233,-435.47 226,-435.47"/>
</g>
<!-- Node9&#45;&gt;Node1 -->
<g id="edge8" class="edge">
<title>Node9&#45;&gt;Node1</title>
<path fill="none" stroke="#9a32cd" stroke-dasharray="5,2" d="M82.67,-162.19C85.7,-136.71 90.94,-99.16 98.5,-67 102.52,-49.9 109.26,-30.5 113.26,-19.61"/>
<polygon fill="#9a32cd" stroke="#9a32cd" points="79.17,-161.99 81.5,-172.33 86.12,-162.79 79.17,-161.99"/>
<text text-anchor="middle" x="104.5" y="-108" font-family="Helvetica,sans-Serif" font-size="10.00"> acks</text>
</g>
</g>
</svg>
