<?xml version="1.0" encoding="UTF-8" standalone="no"?>
<!DOCTYPE svg PUBLIC "-//W3C//DTD SVG 1.1//EN"
 "http://www.w3.org/Graphics/SVG/1.1/DTD/svg11.dtd">
<!-- Generated by graphviz version 2.43.0 (0)
 -->
<!-- Title: ccf::AsyncORCTaskMsg Pages: 1 -->
<svg width="494pt" height="318pt"
 viewBox="0.00 0.00 494.00 318.00" xmlns="http://www.w3.org/2000/svg" xmlns:xlink="http://www.w3.org/1999/xlink">
<g id="graph0" class="graph" transform="scale(1 1) rotate(0) translate(4 314)">
<title>ccf::AsyncORCTaskMsg</title>
<polygon fill="white" stroke="transparent" points="-4,4 -4,-314 490,-314 490,4 -4,4"/>
<!-- Node1 -->
<g id="node1" class="node">
<title>Node1</title>
<g id="a_node1"><a xlink:title=" ">
<polygon fill="#bfbfbf" stroke="black" points="250.5,-0.5 250.5,-19.5 378.5,-19.5 378.5,-0.5 250.5,-0.5"/>
<text text-anchor="middle" x="314.5" y="-7.5" font-family="Helvetica,sans-Serif" font-size="10.00">ccf::AsyncORCTaskMsg</text>
</a>
</g>
</g>
<!-- Node2 -->
<g id="node2" class="node">
<title>Node2</title>
<g id="a_node2"><a xlink:title=" ">
<polygon fill="white" stroke="black" points="174,-67.5 174,-97.5 289,-97.5 289,-67.5 174,-67.5"/>
<text text-anchor="start" x="182" y="-85.5" font-family="Helvetica,sans-Serif" font-size="10.00">std::shared_ptr&lt; ccf</text>
<text text-anchor="middle" x="231.5" y="-74.5" font-family="Helvetica,sans-Serif" font-size="10.00">::NodeClient &gt;</text>
</a>
</g>
</g>
<!-- Node2&#45;&gt;Node1 -->
<g id="edge1" class="edge">
<title>Node2&#45;&gt;Node1</title>
<path fill="none" stroke="#9a32cd" stroke-dasharray="5,2" d="M256.21,-60.51C272.16,-46.96 292.09,-30.03 304.03,-19.89"/>
<polygon fill="#9a32cd" stroke="#9a32cd" points="253.65,-58.09 248.3,-67.23 258.18,-63.43 253.65,-58.09"/>
<text text-anchor="middle" x="296" y="-41" font-family="Helvetica,sans-Serif" font-size="10.00"> client</text>
</g>
<!-- Node3 -->
<g id="node3" class="node">
<title>Node3</title>
<g id="a_node3"><a xlink:href="classccf_1_1NodeClient.html" target="_top" xlink:title=" ">
<polygon fill="white" stroke="black" points="186.5,-145.5 186.5,-164.5 276.5,-164.5 276.5,-145.5 186.5,-145.5"/>
<text text-anchor="middle" x="231.5" y="-152.5" font-family="Helvetica,sans-Serif" font-size="10.00">ccf::NodeClient</text>
</a>
</g>
</g>
<!-- Node3&#45;&gt;Node2 -->
<g id="edge2" class="edge">
<title>Node3&#45;&gt;Node2</title>
<path fill="none" stroke="#9a32cd" stroke-dasharray="5,2" d="M231.5,-135.24C231.5,-123.41 231.5,-108.38 231.5,-97.58"/>
<polygon fill="#9a32cd" stroke="#9a32cd" points="228,-135.36 231.5,-145.36 235,-135.36 228,-135.36"/>
<text text-anchor="middle" x="240" y="-119" font-family="Helvetica,sans-Serif" font-size="10.00"> ptr</text>
</g>
<!-- Node4 -->
<g id="node4" class="node">
<title>Node4</title>
<g id="a_node4"><a xlink:title=" ">
<polygon fill="white" stroke="black" points="0,-212.5 0,-242.5 139,-242.5 139,-212.5 0,-212.5"/>
<text text-anchor="start" x="8" y="-230.5" font-family="Helvetica,sans-Serif" font-size="10.00">std::shared_ptr&lt; enclave</text>
<text text-anchor="middle" x="69.5" y="-219.5" font-family="Helvetica,sans-Serif" font-size="10.00">::RPCMap &gt;</text>
</a>
</g>
</g>
<!-- Node4&#45;&gt;Node3 -->
<g id="edge3" class="edge">
<title>Node4&#45;&gt;Node3</title>
<path fill="none" stroke="#9a32cd" stroke-dasharray="5,2" d="M111.14,-208.38C143.54,-194.28 187.04,-175.35 211.89,-164.53"/>
<polygon fill="#9a32cd" stroke="#9a32cd" points="109.67,-205.2 101.89,-212.4 112.46,-211.62 109.67,-205.2"/>
<text text-anchor="middle" x="188.5" y="-186" font-family="Helvetica,sans-Serif" font-size="10.00"> rpc_map</text>
</g>
<!-- Node5 -->
<g id="node5" class="node">
<title>Node5</title>
<g id="a_node5"><a xlink:href="classenclave_1_1RPCMap.html" target="_top" xlink:title=" ">
<polygon fill="white" stroke="black" points="19,-290.5 19,-309.5 120,-309.5 120,-290.5 19,-290.5"/>
<text text-anchor="middle" x="69.5" y="-297.5" font-family="Helvetica,sans-Serif" font-size="10.00">enclave::RPCMap</text>
</a>
</g>
</g>
<!-- Node5&#45;&gt;Node4 -->
<g id="edge4" class="edge">
<title>Node5&#45;&gt;Node4</title>
<path fill="none" stroke="#9a32cd" stroke-dasharray="5,2" d="M69.5,-280.24C69.5,-268.41 69.5,-253.38 69.5,-242.58"/>
<polygon fill="#9a32cd" stroke="#9a32cd" points="66,-280.36 69.5,-290.36 73,-280.36 66,-280.36"/>
<text text-anchor="middle" x="78" y="-264" font-family="Helvetica,sans-Serif" font-size="10.00"> ptr</text>
</g>
<!-- Node6 -->
<g id="node6" class="node">
<title>Node6</title>
<g id="a_node6"><a xlink:title=" ">
<polygon fill="white" stroke="black" points="157.5,-218 157.5,-237 305.5,-237 305.5,-218 157.5,-218"/>
<text text-anchor="middle" x="231.5" y="-225" font-family="Helvetica,sans-Serif" font-size="10.00">std::shared_ptr&lt; KeyPair &gt;</text>
</a>
</g>
</g>
<!-- Node6&#45;&gt;Node3 -->
<g id="edge5" class="edge">
<title>Node6&#45;&gt;Node3</title>
<path fill="none" stroke="#9a32cd" stroke-dasharray="5,2" d="M231.5,-207.44C231.5,-193.53 231.5,-175.32 231.5,-164.72"/>
<polygon fill="#9a32cd" stroke="#9a32cd" points="228,-207.86 231.5,-217.86 235,-207.86 228,-207.86"/>
<text text-anchor="middle" x="266.5" y="-186" font-family="Helvetica,sans-Serif" font-size="10.00"> node_sign_kp</text>
</g>
<!-- Node7 -->
<g id="node7" class="node">
<title>Node7</title>
<g id="a_node7"><a xlink:href="classcrypto_1_1Pem.html" target="_top" xlink:title=" ">
<polygon fill="white" stroke="black" points="324,-218 324,-237 399,-237 399,-218 324,-218"/>
<text text-anchor="middle" x="361.5" y="-225" font-family="Helvetica,sans-Serif" font-size="10.00">crypto::Pem</text>
</a>
</g>
</g>
<!-- Node7&#45;&gt;Node3 -->
<g id="edge6" class="edge">
<title>Node7&#45;&gt;Node3</title>
<path fill="none" stroke="#9a32cd" stroke-dasharray="5,2" d="M344.57,-211.09C333.94,-202.01 319.61,-190.8 305.5,-183 291.62,-175.32 275.12,-169.06 261.23,-164.5"/>
<polygon fill="#9a32cd" stroke="#9a32cd" points="342.41,-213.85 352.23,-217.82 347.03,-208.59 342.41,-213.85"/>
<text text-anchor="middle" x="378.5" y="-186" font-family="Helvetica,sans-Serif" font-size="10.00"> self_signed_node_cert</text>
</g>
<!-- Node8 -->
<g id="node8" class="node">
<title>Node8</title>
<g id="a_node8"><a xlink:href="structccf_1_1EntityId.html" target="_top" xlink:title=" ">
<polygon fill="white" stroke="black" points="307,-73 307,-92 486,-92 486,-73 307,-73"/>
<text text-anchor="middle" x="396.5" y="-80" font-family="Helvetica,sans-Serif" font-size="10.00">ccf::EntityId&lt; NodeIdFormatter &gt;</text>
</a>
</g>
</g>
<!-- Node8&#45;&gt;Node1 -->
<g id="edge7" class="edge">
<title>Node8&#45;&gt;Node1</title>
<path fill="none" stroke="#9a32cd" stroke-dasharray="5,2" d="M378.57,-66.08C362.04,-51.87 338.08,-31.27 324.64,-19.72"/>
<polygon fill="#9a32cd" stroke="#9a32cd" points="376.58,-68.99 386.45,-72.86 381.14,-63.68 376.58,-68.99"/>
<text text-anchor="middle" x="371" y="-41" font-family="Helvetica,sans-Serif" font-size="10.00"> from</text>
</g>
</g>
</svg>
