<?xml version="1.0" encoding="UTF-8" standalone="no"?>
<!DOCTYPE svg PUBLIC "-//W3C//DTD SVG 1.1//EN"
 "http://www.w3.org/Graphics/SVG/1.1/DTD/svg11.dtd">
<!-- Generated by graphviz version 2.43.0 (0)
 -->
<!-- Title: ccf::ConsensusConfigDetails Pages: 1 -->
<svg width="290pt" height="551pt"
 viewBox="0.00 0.00 290.00 551.00" xmlns="http://www.w3.org/2000/svg" xmlns:xlink="http://www.w3.org/1999/xlink">
<g id="graph0" class="graph" transform="scale(1 1) rotate(0) translate(4 547)">
<title>ccf::ConsensusConfigDetails</title>
<polygon fill="white" stroke="transparent" points="-4,4 -4,-547 286,-547 286,4 -4,4"/>
<!-- Node1 -->
<g id="node1" class="node">
<title>Node1</title>
<g id="a_node1"><a xlink:title=" ">
<polygon fill="#bfbfbf" stroke="black" points="39.5,-0.5 39.5,-19.5 193.5,-19.5 193.5,-0.5 39.5,-0.5"/>
<text text-anchor="middle" x="116.5" y="-7.5" font-family="Helvetica,sans-Serif" font-size="10.00">ccf::ConsensusConfigDetails</text>
</a>
</g>
</g>
<!-- Node2 -->
<g id="node2" class="node">
<title>Node2</title>
<g id="a_node2"><a xlink:href="structkv_1_1ConsensusDetails.html" target="_top" xlink:title=" ">
<polygon fill="white" stroke="black" points="56,-67.5 56,-86.5 177,-86.5 177,-67.5 56,-67.5"/>
<text text-anchor="middle" x="116.5" y="-74.5" font-family="Helvetica,sans-Serif" font-size="10.00">kv::ConsensusDetails</text>
</a>
</g>
</g>
<!-- Node2&#45;&gt;Node1 -->
<g id="edge1" class="edge">
<title>Node2&#45;&gt;Node1</title>
<path fill="none" stroke="#9a32cd" stroke-dasharray="5,2" d="M116.5,-57.04C116.5,-44.67 116.5,-29.12 116.5,-19.63"/>
<polygon fill="#9a32cd" stroke="#9a32cd" points="113,-57.23 116.5,-67.23 120,-57.23 113,-57.23"/>
<text text-anchor="middle" x="135" y="-41" font-family="Helvetica,sans-Serif" font-size="10.00"> details</text>
</g>
<!-- Node3 -->
<g id="node3" class="node">
<title>Node3</title>
<g id="a_node3"><a xlink:title=" ">
<polygon fill="white" stroke="black" points="108,-134.5 108,-153.5 281,-153.5 281,-134.5 108,-134.5"/>
<text text-anchor="middle" x="194.5" y="-141.5" font-family="Helvetica,sans-Serif" font-size="10.00">std::vector&lt; kv::Configuration &gt;</text>
</a>
</g>
</g>
<!-- Node3&#45;&gt;Node2 -->
<g id="edge2" class="edge">
<title>Node3&#45;&gt;Node2</title>
<path fill="none" stroke="#9a32cd" stroke-dasharray="5,2" d="M176.16,-127.71C160.79,-114.91 139.41,-97.09 126.85,-86.63"/>
<polygon fill="#9a32cd" stroke="#9a32cd" points="174.06,-130.52 183.98,-134.23 178.54,-125.14 174.06,-130.52"/>
<text text-anchor="middle" x="179.5" y="-108" font-family="Helvetica,sans-Serif" font-size="10.00"> configs</text>
</g>
<!-- Node4 -->
<g id="node4" class="node">
<title>Node4</title>
<g id="a_node4"><a xlink:href="structkv_1_1Configuration.html" target="_top" xlink:title=" ">
<polygon fill="white" stroke="black" points="145,-201.5 145,-220.5 244,-220.5 244,-201.5 145,-201.5"/>
<text text-anchor="middle" x="194.5" y="-208.5" font-family="Helvetica,sans-Serif" font-size="10.00">kv::Configuration</text>
</a>
</g>
</g>
<!-- Node4&#45;&gt;Node3 -->
<g id="edge3" class="edge">
<title>Node4&#45;&gt;Node3</title>
<path fill="none" stroke="#9a32cd" stroke-dasharray="5,2" d="M194.5,-191.04C194.5,-178.67 194.5,-163.12 194.5,-153.63"/>
<polygon fill="#9a32cd" stroke="#9a32cd" points="191,-191.23 194.5,-201.23 198,-191.23 191,-191.23"/>
<text text-anchor="middle" x="219" y="-175" font-family="Helvetica,sans-Serif" font-size="10.00"> elements</text>
</g>
<!-- Node5 -->
<g id="node5" class="node">
<title>Node5</title>
<g id="a_node5"><a xlink:title=" ">
<polygon fill="white" stroke="black" points="111,-299.5 111,-318.5 278,-318.5 278,-299.5 111,-299.5"/>
<text text-anchor="middle" x="194.5" y="-306.5" font-family="Helvetica,sans-Serif" font-size="10.00">std::map&lt; NodeId, NodeInfo &gt;</text>
</a>
</g>
</g>
<!-- Node5&#45;&gt;Node4 -->
<g id="edge4" class="edge">
<title>Node5&#45;&gt;Node4</title>
<path fill="none" stroke="#9a32cd" stroke-dasharray="5,2" d="M194.5,-289.37C194.5,-268.65 194.5,-236.06 194.5,-220.64"/>
<polygon fill="#9a32cd" stroke="#9a32cd" points="191,-289.48 194.5,-299.48 198,-289.48 191,-289.48"/>
<text text-anchor="middle" x="211" y="-257.5" font-family="Helvetica,sans-Serif" font-size="10.00"> nodes</text>
</g>
<!-- Node6 -->
<g id="node6" class="node">
<title>Node6</title>
<g id="a_node6"><a xlink:href="structccf_1_1EntityId.html" target="_top" xlink:title=" ">
<polygon fill="white" stroke="black" points="0,-372 0,-391 159,-391 159,-372 0,-372"/>
<text text-anchor="middle" x="79.5" y="-379" font-family="Helvetica,sans-Serif" font-size="10.00">ccf::EntityId&lt; FmtExtender &gt;</text>
</a>
</g>
</g>
<!-- Node6&#45;&gt;Node5 -->
<g id="edge5" class="edge">
<title>Node6&#45;&gt;Node5</title>
<path fill="none" stroke="#9a32cd" stroke-dasharray="5,2" d="M102.14,-366.62C125.35,-352.39 160.74,-330.7 180.28,-318.72"/>
<polygon fill="#9a32cd" stroke="#9a32cd" points="100.3,-363.64 93.6,-371.86 103.96,-369.61 100.3,-363.64"/>
<text text-anchor="middle" x="160.5" y="-340" font-family="Helvetica,sans-Serif" font-size="10.00"> keys</text>
</g>
<!-- Node10 -->
<g id="node10" class="node">
<title>Node10</title>
<g id="a_node10"><a xlink:title=" ">
<polygon fill="white" stroke="black" points="22.5,-239.5 22.5,-280.5 136.5,-280.5 136.5,-239.5 22.5,-239.5"/>
<text text-anchor="start" x="30.5" y="-268.5" font-family="Helvetica,sans-Serif" font-size="10.00">std::unordered_map</text>
<text text-anchor="start" x="30.5" y="-257.5" font-family="Helvetica,sans-Serif" font-size="10.00">&lt; ccf::EntityId, ccf</text>
<text text-anchor="middle" x="79.5" y="-246.5" font-family="Helvetica,sans-Serif" font-size="10.00">::SeqNo &gt;</text>
</a>
</g>
</g>
<!-- Node6&#45;&gt;Node10 -->
<g id="edge10" class="edge">
<title>Node6&#45;&gt;Node10</title>
<path fill="none" stroke="#9a32cd" stroke-dasharray="5,2" d="M79.5,-361.85C79.5,-339.8 79.5,-303.27 79.5,-280.75"/>
<polygon fill="#9a32cd" stroke="#9a32cd" points="76,-361.91 79.5,-371.91 83,-361.91 76,-361.91"/>
<text text-anchor="middle" x="92.5" y="-340" font-family="Helvetica,sans-Serif" font-size="10.00"> keys</text>
</g>
<!-- Node7 -->
<g id="node7" class="node">
<title>Node7</title>
<g id="a_node7"><a xlink:href="structkv_1_1Configuration_1_1NodeInfo.html" target="_top" xlink:title=" ">
<polygon fill="white" stroke="black" points="177,-366.5 177,-396.5 282,-396.5 282,-366.5 177,-366.5"/>
<text text-anchor="start" x="185" y="-384.5" font-family="Helvetica,sans-Serif" font-size="10.00">kv::Configuration::</text>
<text text-anchor="middle" x="229.5" y="-373.5" font-family="Helvetica,sans-Serif" font-size="10.00">NodeInfo</text>
</a>
</g>
</g>
<!-- Node7&#45;&gt;Node5 -->
<g id="edge6" class="edge">
<title>Node7&#45;&gt;Node5</title>
<path fill="none" stroke="#9a32cd" stroke-dasharray="5,2" d="M217.95,-357.24C211.44,-344.12 203.67,-328.48 198.92,-318.89"/>
<polygon fill="#9a32cd" stroke="#9a32cd" points="214.84,-358.83 222.42,-366.23 221.11,-355.72 214.84,-358.83"/>
<text text-anchor="middle" x="237" y="-340" font-family="Helvetica,sans-Serif" font-size="10.00"> elements</text>
</g>
<!-- Node8 -->
<g id="node8" class="node">
<title>Node8</title>
<g id="a_node8"><a xlink:title=" ">
<polygon fill="white" stroke="black" points="197,-455.5 197,-474.5 262,-474.5 262,-455.5 197,-455.5"/>
<text text-anchor="middle" x="229.5" y="-462.5" font-family="Helvetica,sans-Serif" font-size="10.00">std::string</text>
</a>
</g>
</g>
<!-- Node8&#45;&gt;Node7 -->
<g id="edge7" class="edge">
<title>Node8&#45;&gt;Node7</title>
<path fill="none" stroke="#9a32cd" stroke-dasharray="5,2" d="M229.5,-445.23C229.5,-430.41 229.5,-410.05 229.5,-396.6"/>
<polygon fill="#9a32cd" stroke="#9a32cd" points="226,-445.28 229.5,-455.28 233,-445.28 226,-445.28"/>
<text text-anchor="middle" x="255.5" y="-429" font-family="Helvetica,sans-Serif" font-size="10.00"> hostname</text>
<text text-anchor="middle" x="255.5" y="-418" font-family="Helvetica,sans-Serif" font-size="10.00">port</text>
</g>
<!-- Node9 -->
<g id="node9" class="node">
<title>Node9</title>
<g id="a_node9"><a xlink:title=" ">
<polygon fill="white" stroke="black" points="177.5,-512.5 177.5,-542.5 281.5,-542.5 281.5,-512.5 177.5,-512.5"/>
<text text-anchor="start" x="185.5" y="-530.5" font-family="Helvetica,sans-Serif" font-size="10.00">std::basic_string&lt;</text>
<text text-anchor="middle" x="229.5" y="-519.5" font-family="Helvetica,sans-Serif" font-size="10.00"> Char &gt;</text>
</a>
</g>
</g>
<!-- Node9&#45;&gt;Node8 -->
<g id="edge8" class="edge">
<title>Node9&#45;&gt;Node8</title>
<path fill="none" stroke="midnightblue" d="M229.5,-502.35C229.5,-492.51 229.5,-481.78 229.5,-474.54"/>
<polygon fill="midnightblue" stroke="midnightblue" points="226,-502.47 229.5,-512.47 233,-502.47 226,-502.47"/>
</g>
<!-- Node10&#45;&gt;Node2 -->
<g id="edge9" class="edge">
<title>Node10&#45;&gt;Node2</title>
<path fill="none" stroke="#9a32cd" stroke-dasharray="5,2" d="M82.67,-229.19C85.7,-203.71 90.94,-166.16 98.5,-134 102.52,-116.9 109.26,-97.5 113.26,-86.61"/>
<polygon fill="#9a32cd" stroke="#9a32cd" points="79.17,-228.99 81.5,-239.33 86.12,-229.79 79.17,-228.99"/>
<text text-anchor="middle" x="104.5" y="-175" font-family="Helvetica,sans-Serif" font-size="10.00"> acks</text>
</g>
</g>
</svg>
