<?xml version="1.0" encoding="UTF-8" standalone="no"?>
<!DOCTYPE svg PUBLIC "-//W3C//DTD SVG 1.1//EN"
 "http://www.w3.org/Graphics/SVG/1.1/DTD/svg11.dtd">
<!-- Generated by graphviz version 2.43.0 (0)
 -->
<!-- Title: ccf::NodeMetrics Pages: 1 -->
<svg width="221pt" height="330pt"
 viewBox="0.00 0.00 221.00 330.00" xmlns="http://www.w3.org/2000/svg" xmlns:xlink="http://www.w3.org/1999/xlink">
<g id="graph0" class="graph" transform="scale(1 1) rotate(0) translate(4 326)">
<title>ccf::NodeMetrics</title>
<polygon fill="white" stroke="transparent" points="-4,4 -4,-326 217,-326 217,4 -4,4"/>
<!-- Node1 -->
<g id="node1" class="node">
<title>Node1</title>
<g id="a_node1"><a xlink:title=" ">
<polygon fill="#bfbfbf" stroke="black" points="56,-0.5 56,-19.5 154,-19.5 154,-0.5 56,-0.5"/>
<text text-anchor="middle" x="105" y="-7.5" font-family="Helvetica,sans-Serif" font-size="10.00">ccf::NodeMetrics</text>
</a>
</g>
</g>
<!-- Node2 -->
<g id="node2" class="node">
<title>Node2</title>
<g id="a_node2"><a xlink:href="structccf_1_1SessionMetrics.html" target="_top" xlink:title=" ">
<polygon fill="white" stroke="black" points="50,-67.5 50,-86.5 160,-86.5 160,-67.5 50,-67.5"/>
<text text-anchor="middle" x="105" y="-74.5" font-family="Helvetica,sans-Serif" font-size="10.00">ccf::SessionMetrics</text>
</a>
</g>
</g>
<!-- Node2&#45;&gt;Node1 -->
<g id="edge1" class="edge">
<title>Node2&#45;&gt;Node1</title>
<path fill="none" stroke="#9a32cd" stroke-dasharray="5,2" d="M105,-57.04C105,-44.67 105,-29.12 105,-19.63"/>
<polygon fill="#9a32cd" stroke="#9a32cd" points="101.5,-57.23 105,-67.23 108.5,-57.23 101.5,-57.23"/>
<text text-anchor="middle" x="128" y="-41" font-family="Helvetica,sans-Serif" font-size="10.00"> sessions</text>
</g>
<!-- Node3 -->
<g id="node3" class="node">
<title>Node3</title>
<g id="a_node3"><a xlink:title=" ">
<polygon fill="white" stroke="black" points="44,-134.5 44,-175.5 166,-175.5 166,-134.5 44,-134.5"/>
<text text-anchor="start" x="52" y="-163.5" font-family="Helvetica,sans-Serif" font-size="10.00">std::map&lt; std::string,</text>
<text text-anchor="start" x="52" y="-152.5" font-family="Helvetica,sans-Serif" font-size="10.00"> ccf::SessionMetrics</text>
<text text-anchor="middle" x="105" y="-141.5" font-family="Helvetica,sans-Serif" font-size="10.00">::PerInterface &gt;</text>
</a>
</g>
</g>
<!-- Node3&#45;&gt;Node2 -->
<g id="edge2" class="edge">
<title>Node3&#45;&gt;Node2</title>
<path fill="none" stroke="#9a32cd" stroke-dasharray="5,2" d="M105,-124.05C105,-110.56 105,-95.65 105,-86.55"/>
<polygon fill="#9a32cd" stroke="#9a32cd" points="101.5,-124.43 105,-134.43 108.5,-124.43 101.5,-124.43"/>
<text text-anchor="middle" x="131" y="-108" font-family="Helvetica,sans-Serif" font-size="10.00"> interfaces</text>
</g>
<!-- Node4 -->
<g id="node4" class="node">
<title>Node4</title>
<g id="a_node4"><a xlink:title=" ">
<polygon fill="white" stroke="black" points="19.5,-229 19.5,-248 84.5,-248 84.5,-229 19.5,-229"/>
<text text-anchor="middle" x="52" y="-236" font-family="Helvetica,sans-Serif" font-size="10.00">std::string</text>
</a>
</g>
</g>
<!-- Node4&#45;&gt;Node3 -->
<g id="edge3" class="edge">
<title>Node4&#45;&gt;Node3</title>
<path fill="none" stroke="#9a32cd" stroke-dasharray="5,2" d="M63.19,-220.29C71.66,-207.27 83.3,-189.37 92.15,-175.76"/>
<polygon fill="#9a32cd" stroke="#9a32cd" points="60.19,-218.49 57.67,-228.78 66.06,-222.3 60.19,-218.49"/>
<text text-anchor="middle" x="94" y="-197" font-family="Helvetica,sans-Serif" font-size="10.00"> keys</text>
</g>
<!-- Node5 -->
<g id="node5" class="node">
<title>Node5</title>
<g id="a_node5"><a xlink:title=" ">
<polygon fill="white" stroke="black" points="0,-291.5 0,-321.5 104,-321.5 104,-291.5 0,-291.5"/>
<text text-anchor="start" x="8" y="-309.5" font-family="Helvetica,sans-Serif" font-size="10.00">std::basic_string&lt;</text>
<text text-anchor="middle" x="52" y="-298.5" font-family="Helvetica,sans-Serif" font-size="10.00"> Char &gt;</text>
</a>
</g>
</g>
<!-- Node5&#45;&gt;Node4 -->
<g id="edge4" class="edge">
<title>Node5&#45;&gt;Node4</title>
<path fill="none" stroke="midnightblue" d="M52,-280.88C52,-269.47 52,-256.64 52,-248.33"/>
<polygon fill="midnightblue" stroke="midnightblue" points="48.5,-281.18 52,-291.18 55.5,-281.18 48.5,-281.18"/>
</g>
<!-- Node6 -->
<g id="node6" class="node">
<title>Node6</title>
<g id="a_node6"><a xlink:href="structccf_1_1SessionMetrics_1_1PerInterface.html" target="_top" xlink:title=" ">
<polygon fill="white" stroke="black" points="103,-223.5 103,-253.5 213,-253.5 213,-223.5 103,-223.5"/>
<text text-anchor="start" x="111" y="-241.5" font-family="Helvetica,sans-Serif" font-size="10.00">ccf::SessionMetrics</text>
<text text-anchor="middle" x="158" y="-230.5" font-family="Helvetica,sans-Serif" font-size="10.00">::PerInterface</text>
</a>
</g>
</g>
<!-- Node6&#45;&gt;Node3 -->
<g id="edge5" class="edge">
<title>Node6&#45;&gt;Node3</title>
<path fill="none" stroke="#9a32cd" stroke-dasharray="5,2" d="M143.29,-214.89C135.26,-202.53 125.4,-187.37 117.7,-175.53"/>
<polygon fill="#9a32cd" stroke="#9a32cd" points="140.38,-216.83 148.77,-223.3 146.25,-213.01 140.38,-216.83"/>
<text text-anchor="middle" x="160.5" y="-197" font-family="Helvetica,sans-Serif" font-size="10.00"> elements</text>
</g>
</g>
</svg>
