<?xml version="1.0" encoding="UTF-8" standalone="no"?>
<!DOCTYPE svg PUBLIC "-//W3C//DTD SVG 1.1//EN"
 "http://www.w3.org/Graphics/SVG/1.1/DTD/svg11.dtd">
<!-- Generated by graphviz version 2.43.0 (0)
 -->
<!-- Title: loggingapp::LoggingGetReceipt::Out Pages: 1 -->
<svg width="814pt" height="135pt"
 viewBox="0.00 0.00 814.00 135.00" xmlns="http://www.w3.org/2000/svg" xmlns:xlink="http://www.w3.org/1999/xlink">
<g id="graph0" class="graph" transform="scale(1 1) rotate(0) translate(4 131)">
<title>loggingapp::LoggingGetReceipt::Out</title>
<polygon fill="white" stroke="transparent" points="-4,4 -4,-131 810,-131 810,4 -4,4"/>
<!-- Node1 -->
<g id="node1" class="node">
<title>Node1</title>
<g id="a_node1"><a xlink:title=" ">
<polygon fill="#bfbfbf" stroke="black" points="614,-7 614,-26 806,-26 806,-7 614,-7"/>
<text text-anchor="middle" x="710" y="-14" font-family="Helvetica,sans-Serif" font-size="10.00">loggingapp::LoggingGetReceipt::Out</text>
</a>
</g>
</g>
<!-- Node2 -->
<g id="node2" class="node">
<title>Node2</title>
<g id="a_node2"><a xlink:title=" ">
<polygon fill="white" stroke="black" points="261,-6 261,-25 326,-25 326,-6 261,-6"/>
<text text-anchor="middle" x="293.5" y="-13" font-family="Helvetica,sans-Serif" font-size="10.00">std::string</text>
</a>
</g>
</g>
<!-- Node2&#45;&gt;Node1 -->
<g id="edge1" class="edge">
<title>Node2&#45;&gt;Node1</title>
<path fill="none" stroke="#9a32cd" stroke-dasharray="5,2" d="M336.55,-15.6C401.18,-15.76 526.59,-16.06 613.95,-16.27"/>
<polygon fill="#9a32cd" stroke="#9a32cd" points="336.35,-12.1 326.34,-15.58 336.33,-19.1 336.35,-12.1"/>
<text text-anchor="middle" x="504.5" y="-19.5" font-family="Helvetica,sans-Serif" font-size="10.00"> msg</text>
</g>
<!-- Node4 -->
<g id="node4" class="node">
<title>Node4</title>
<g id="a_node4"><a xlink:href="structccf_1_1Receipt.html" target="_top" xlink:title=" ">
<polygon fill="white" stroke="black" points="468,-44 468,-63 541,-63 541,-44 468,-44"/>
<text text-anchor="middle" x="504.5" y="-51" font-family="Helvetica,sans-Serif" font-size="10.00">ccf::Receipt</text>
</a>
</g>
</g>
<!-- Node2&#45;&gt;Node4 -->
<g id="edge4" class="edge">
<title>Node2&#45;&gt;Node4</title>
<path fill="none" stroke="#9a32cd" stroke-dasharray="5,2" d="M336.29,-21.85C367.66,-26.77 411.63,-33.99 450,-41.5 455.79,-42.63 461.92,-43.92 467.87,-45.22"/>
<polygon fill="#9a32cd" stroke="#9a32cd" points="336.58,-18.35 326.16,-20.27 335.5,-25.27 336.58,-18.35"/>
<text text-anchor="middle" x="425.5" y="-44.5" font-family="Helvetica,sans-Serif" font-size="10.00"> signature</text>
</g>
<!-- Node3 -->
<g id="node3" class="node">
<title>Node3</title>
<g id="a_node3"><a xlink:title=" ">
<polygon fill="white" stroke="black" points="7.5,-0.5 7.5,-30.5 111.5,-30.5 111.5,-0.5 7.5,-0.5"/>
<text text-anchor="start" x="15.5" y="-18.5" font-family="Helvetica,sans-Serif" font-size="10.00">std::basic_string&lt;</text>
<text text-anchor="middle" x="59.5" y="-7.5" font-family="Helvetica,sans-Serif" font-size="10.00"> Char &gt;</text>
</a>
</g>
</g>
<!-- Node3&#45;&gt;Node2 -->
<g id="edge2" class="edge">
<title>Node3&#45;&gt;Node2</title>
<path fill="none" stroke="midnightblue" d="M121.85,-15.5C166.47,-15.5 225.07,-15.5 260.7,-15.5"/>
<polygon fill="midnightblue" stroke="midnightblue" points="121.7,-12 111.7,-15.5 121.7,-19 121.7,-12"/>
</g>
<!-- Node4&#45;&gt;Node1 -->
<g id="edge3" class="edge">
<title>Node4&#45;&gt;Node1</title>
<path fill="none" stroke="#9a32cd" stroke-dasharray="5,2" d="M551.59,-45.12C582.82,-39.44 624.16,-31.93 656.64,-26.02"/>
<polygon fill="#9a32cd" stroke="#9a32cd" points="550.63,-41.74 541.41,-46.97 551.88,-48.62 550.63,-41.74"/>
<text text-anchor="middle" x="577.5" y="-47.5" font-family="Helvetica,sans-Serif" font-size="10.00"> receipt</text>
</g>
<!-- Node5 -->
<g id="node5" class="node">
<title>Node5</title>
<g id="a_node5"><a xlink:title=" ">
<polygon fill="white" stroke="black" points="225.5,-96.5 225.5,-126.5 361.5,-126.5 361.5,-96.5 225.5,-96.5"/>
<text text-anchor="start" x="233.5" y="-114.5" font-family="Helvetica,sans-Serif" font-size="10.00">std::vector&lt; ccf::Receipt</text>
<text text-anchor="middle" x="293.5" y="-103.5" font-family="Helvetica,sans-Serif" font-size="10.00">::Element &gt;</text>
</a>
</g>
</g>
<!-- Node5&#45;&gt;Node4 -->
<g id="edge5" class="edge">
<title>Node5&#45;&gt;Node4</title>
<path fill="none" stroke="#9a32cd" stroke-dasharray="5,2" d="M371.53,-95.43C396.74,-89.57 424.75,-82.42 450,-74.5 460.38,-71.25 471.62,-66.96 481.1,-63.1"/>
<polygon fill="#9a32cd" stroke="#9a32cd" points="370.62,-92.04 361.65,-97.69 372.18,-98.87 370.62,-92.04"/>
<text text-anchor="middle" x="425.5" y="-90.5" font-family="Helvetica,sans-Serif" font-size="10.00"> proof</text>
</g>
<!-- Node6 -->
<g id="node6" class="node">
<title>Node6</title>
<g id="a_node6"><a xlink:href="structccf_1_1Receipt_1_1Element.html" target="_top" xlink:title=" ">
<polygon fill="white" stroke="black" points="0,-102 0,-121 119,-121 119,-102 0,-102"/>
<text text-anchor="middle" x="59.5" y="-109" font-family="Helvetica,sans-Serif" font-size="10.00">ccf::Receipt::Element</text>
</a>
</g>
</g>
<!-- Node6&#45;&gt;Node5 -->
<g id="edge6" class="edge">
<title>Node6&#45;&gt;Node5</title>
<path fill="none" stroke="#9a32cd" stroke-dasharray="5,2" d="M129.13,-111.5C159.52,-111.5 195.14,-111.5 225.35,-111.5"/>
<polygon fill="#9a32cd" stroke="#9a32cd" points="129.04,-108 119.04,-111.5 129.04,-115 129.04,-108"/>
<text text-anchor="middle" x="161.5" y="-114.5" font-family="Helvetica,sans-Serif" font-size="10.00"> elements</text>
</g>
<!-- Node7 -->
<g id="node7" class="node">
<title>Node7</title>
<g id="a_node7"><a xlink:href="structccf_1_1EntityId.html" target="_top" xlink:title=" ">
<polygon fill="white" stroke="black" points="204,-58 204,-77 383,-77 383,-58 204,-58"/>
<text text-anchor="middle" x="293.5" y="-65" font-family="Helvetica,sans-Serif" font-size="10.00">ccf::EntityId&lt; NodeIdFormatter &gt;</text>
</a>
</g>
</g>
<!-- Node7&#45;&gt;Node4 -->
<g id="edge7" class="edge">
<title>Node7&#45;&gt;Node4</title>
<path fill="none" stroke="#9a32cd" stroke-dasharray="5,2" d="M393.32,-60.88C420,-59.09 447.17,-57.27 467.86,-55.89"/>
<polygon fill="#9a32cd" stroke="#9a32cd" points="392.88,-57.4 383.13,-61.56 393.35,-64.39 392.88,-57.4"/>
<text text-anchor="middle" x="425.5" y="-62.5" font-family="Helvetica,sans-Serif" font-size="10.00"> node_id</text>
</g>
</g>
</svg>
