<?xml version="1.0" encoding="UTF-8" standalone="no"?>
<!DOCTYPE svg PUBLIC "-//W3C//DTD SVG 1.1//EN"
 "http://www.w3.org/Graphics/SVG/1.1/DTD/svg11.dtd">
<!-- Generated by graphviz version 2.43.0 (0)
 -->
<!-- Title: ccf::endpoints::EndpointContext Pages: 1 -->
<!--zoomable 524 -->
<svg id="main" version="1.1" xmlns="http://www.w3.org/2000/svg" xmlns:xlink="http://www.w3.org/1999/xlink" xml:space="preserve" onload="init(evt)">
<style type="text/css"><![CDATA[
.edge:hover path { stroke: red; }
.edge:hover polygon { stroke: red; fill: red; }
]]></style>
<script type="text/javascript"><![CDATA[
var edges = document.getElementsByTagName('g');
if (edges && edges.length) {
  for (var i=0;i<edges.length;i++) {
    if (edges[i].id.substr(0,4)=='edge') {
      edges[i].setAttribute('class','edge');
    }
  }
}
]]></script>
        <defs>
                <circle id="rim" cx="0" cy="0" r="7"/>
                <circle id="rim2" cx="0" cy="0" r="3.5"/>
                <g id="zoomPlus">
                        <use xlink:href="#rim" fill="#404040">
                                <set attributeName="fill" to="#808080" begin="zoomplus.mouseover" end="zoomplus.mouseout"/>
                        </use>
                        <path d="M-4,0h8M0,-4v8" fill="none" stroke="white" stroke-width="1.5" pointer-events="none"/>
                </g>
                <g id="zoomMin">
                        <use xlink:href="#rim" fill="#404040">
                                <set attributeName="fill" to="#808080" begin="zoomminus.mouseover" end="zoomminus.mouseout"/>
                        </use>
                        <path d="M-4,0h8" fill="none" stroke="white" stroke-width="1.5" pointer-events="none"/>
                </g>
                <g id="dirArrow">
                        <path fill="none" stroke="white" stroke-width="1.5" d="M0,-3.0v7 M-2.5,-0.5L0,-3.0L2.5,-0.5"/>
                </g>
               <g id="resetDef">
                       <use xlink:href="#rim2" fill="#404040">
                               <set attributeName="fill" to="#808080" begin="reset.mouseover" end="reset.mouseout"/>
                       </use>
               </g>
        </defs>

<script type="text/javascript">
var viewWidth = 2445;
var viewHeight = 524;
var sectionId = 'dynsection-0';
</script>
<script xlink:href="svgpan.js"/>
<svg id="graph" class="graph">
<g id="viewport">
<title>ccf::endpoints::EndpointContext</title>
<polygon fill="white" stroke="transparent" points="-4,4 -4,-520 2441,-520 2441,4 -4,4"/>
<!-- Node1 -->
<g id="node1" class="node">
<title>Node1</title>
<g id="a_node1"><a xlink:title=" ">
<polygon fill="#bfbfbf" stroke="black" points="2304,-370.5 2304,-400.5 2437,-400.5 2437,-370.5 2304,-370.5"/>
<text text-anchor="start" x="2312" y="-388.5" font-family="Helvetica,sans-Serif" font-size="10.00">ccf::endpoints::Endpoint</text>
<text text-anchor="middle" x="2370.5" y="-377.5" font-family="Helvetica,sans-Serif" font-size="10.00">Context</text>
</a>
</g>
</g>
<!-- Node2 -->
<g id="node2" class="node">
<title>Node2</title>
<g id="a_node2"><a xlink:href="structccf_1_1endpoints_1_1CommandEndpointContext.html" target="_top" xlink:title=" ">
<polygon fill="white" stroke="black" points="2072,-392.5 2072,-422.5 2255,-422.5 2255,-392.5 2072,-392.5"/>
<text text-anchor="start" x="2080" y="-410.5" font-family="Helvetica,sans-Serif" font-size="10.00">ccf::endpoints::CommandEndpoint</text>
<text text-anchor="middle" x="2163.5" y="-399.5" font-family="Helvetica,sans-Serif" font-size="10.00">Context</text>
</a>
</g>
</g>
<!-- Node2&#45;&gt;Node1 -->
<g id="edge1" class="edge">
<title>Node2&#45;&gt;Node1</title>
<path fill="none" stroke="midnightblue" d="M2265.05,-396.71C2278.21,-395.3 2291.4,-393.88 2303.78,-392.55"/>
<polygon fill="midnightblue" stroke="midnightblue" points="2264.58,-393.24 2255.01,-397.79 2265.33,-400.2 2264.58,-393.24"/>
</g>
<!-- Node3 -->
<g id="node3" class="node">
<title>Node3</title>
<g id="a_node3"><a xlink:title=" ">
<polygon fill="white" stroke="black" points="1858,-441.5 1858,-471.5 1997,-471.5 1997,-441.5 1858,-441.5"/>
<text text-anchor="start" x="1866" y="-459.5" font-family="Helvetica,sans-Serif" font-size="10.00">std::shared_ptr&lt; enclave</text>
<text text-anchor="middle" x="1927.5" y="-448.5" font-family="Helvetica,sans-Serif" font-size="10.00">::RpcContext &gt;</text>
</a>
</g>
</g>
<!-- Node3&#45;&gt;Node2 -->
<g id="edge2" class="edge">
<title>Node3&#45;&gt;Node2</title>
<path fill="none" stroke="#9a32cd" stroke-dasharray="5,2" d="M2006.94,-440.07C2033.98,-434.41 2064.12,-428.1 2090.62,-422.55"/>
<polygon fill="#9a32cd" stroke="#9a32cd" points="2006.2,-436.65 1997.13,-442.13 2007.63,-443.51 2006.2,-436.65"/>
<text text-anchor="middle" x="2034.5" y="-440.5" font-family="Helvetica,sans-Serif" font-size="10.00"> rpc_ctx</text>
</g>
<!-- Node4 -->
<g id="node4" class="node">
<title>Node4</title>
<g id="a_node4"><a xlink:href="classenclave_1_1RpcContext.html" target="_top" xlink:title=" ">
<polygon fill="white" stroke="black" points="1688,-447 1688,-466 1805,-466 1805,-447 1688,-447"/>
<text text-anchor="middle" x="1746.5" y="-454" font-family="Helvetica,sans-Serif" font-size="10.00">enclave::RpcContext</text>
</a>
</g>
</g>
<!-- Node4&#45;&gt;Node3 -->
<g id="edge3" class="edge">
<title>Node4&#45;&gt;Node3</title>
<path fill="none" stroke="#9a32cd" stroke-dasharray="5,2" d="M1815.52,-456.5C1829.34,-456.5 1843.89,-456.5 1857.73,-456.5"/>
<polygon fill="#9a32cd" stroke="#9a32cd" points="1815.12,-453 1805.12,-456.5 1815.12,-460 1815.12,-453"/>
<text text-anchor="middle" x="1831.5" y="-459.5" font-family="Helvetica,sans-Serif" font-size="10.00"> ptr</text>
</g>
<!-- Node5 -->
<g id="node5" class="node">
<title>Node5</title>
<g id="a_node5"><a xlink:title=" ">
<polygon fill="white" stroke="black" points="1473,-485.5 1473,-515.5 1612,-515.5 1612,-485.5 1473,-485.5"/>
<text text-anchor="start" x="1481" y="-503.5" font-family="Helvetica,sans-Serif" font-size="10.00">std::shared_ptr&lt; enclave</text>
<text text-anchor="middle" x="1542.5" y="-492.5" font-family="Helvetica,sans-Serif" font-size="10.00">::SessionContext &gt;</text>
</a>
</g>
</g>
<!-- Node5&#45;&gt;Node4 -->
<g id="edge4" class="edge">
<title>Node5&#45;&gt;Node4</title>
<path fill="none" stroke="#9a32cd" stroke-dasharray="5,2" d="M1622.02,-483.4C1649.09,-477.5 1678.42,-471.11 1701.71,-466.04"/>
<polygon fill="#9a32cd" stroke="#9a32cd" points="1621.2,-479.99 1612.17,-485.54 1622.69,-486.83 1621.2,-479.99"/>
<text text-anchor="middle" x="1650" y="-483.5" font-family="Helvetica,sans-Serif" font-size="10.00"> session</text>
</g>
<!-- Node6 -->
<g id="node6" class="node">
<title>Node6</title>
<g id="a_node6"><a xlink:href="structenclave_1_1SessionContext.html" target="_top" xlink:title=" ">
<polygon fill="white" stroke="black" points="1260,-488 1260,-507 1397,-507 1397,-488 1260,-488"/>
<text text-anchor="middle" x="1328.5" y="-495" font-family="Helvetica,sans-Serif" font-size="10.00">enclave::SessionContext</text>
</a>
</g>
</g>
<!-- Node6&#45;&gt;Node5 -->
<g id="edge5" class="edge">
<title>Node6&#45;&gt;Node5</title>
<path fill="none" stroke="#9a32cd" stroke-dasharray="5,2" d="M1407.21,-498.6C1428.65,-498.9 1451.76,-499.23 1472.66,-499.53"/>
<polygon fill="#9a32cd" stroke="#9a32cd" points="1407.21,-495.1 1397.16,-498.46 1407.11,-502.1 1407.21,-495.1"/>
<text text-anchor="middle" x="1435" y="-501.5" font-family="Helvetica,sans-Serif" font-size="10.00"> ptr</text>
</g>
<!-- Node7 -->
<g id="node7" class="node">
<title>Node7</title>
<g id="a_node7"><a xlink:title=" ">
<polygon fill="white" stroke="black" points="1026,-470 1026,-489 1151,-489 1151,-470 1026,-470"/>
<text text-anchor="middle" x="1088.5" y="-477" font-family="Helvetica,sans-Serif" font-size="10.00">std::vector&lt; uint8_t &gt;</text>
</a>
</g>
</g>
<!-- Node7&#45;&gt;Node4 -->
<g id="edge7" class="edge">
<title>Node7&#45;&gt;Node4</title>
<path fill="none" stroke="#9a32cd" stroke-dasharray="5,2" d="M1161.55,-476.97C1292.7,-472.38 1567.92,-462.73 1687.72,-458.53"/>
<polygon fill="#9a32cd" stroke="#9a32cd" points="1161.09,-473.49 1151.21,-477.34 1161.33,-480.48 1161.09,-473.49"/>
<text text-anchor="middle" x="1435" y="-470.5" font-family="Helvetica,sans-Serif" font-size="10.00"> bft_raw</text>
</g>
<!-- Node7&#45;&gt;Node6 -->
<g id="edge6" class="edge">
<title>Node7&#45;&gt;Node6</title>
<path fill="none" stroke="#9a32cd" stroke-dasharray="5,2" d="M1161.08,-484.91C1192.42,-487.28 1229,-490.05 1259.88,-492.39"/>
<polygon fill="#9a32cd" stroke="#9a32cd" points="1161.34,-481.42 1151.1,-484.16 1160.81,-488.4 1161.34,-481.42"/>
<text text-anchor="middle" x="1205.5" y="-493.5" font-family="Helvetica,sans-Serif" font-size="10.00"> caller_cert</text>
</g>
<!-- Node8 -->
<g id="node8" class="node">
<title>Node8</title>
<g id="a_node8"><a xlink:href="classccf_1_1ClaimsDigest.html" target="_top" xlink:title=" ">
<polygon fill="white" stroke="black" points="1492,-409 1492,-428 1593,-428 1593,-409 1492,-409"/>
<text text-anchor="middle" x="1542.5" y="-416" font-family="Helvetica,sans-Serif" font-size="10.00">ccf::ClaimsDigest</text>
</a>
</g>
</g>
<!-- Node8&#45;&gt;Node4 -->
<g id="edge8" class="edge">
<title>Node8&#45;&gt;Node4</title>
<path fill="none" stroke="#9a32cd" stroke-dasharray="5,2" d="M1603.32,-421.96C1624.54,-423.9 1648.48,-426.89 1670,-431.5 1687.42,-435.23 1706.45,-441.55 1721.05,-446.9"/>
<polygon fill="#9a32cd" stroke="#9a32cd" points="1603.41,-418.46 1593.15,-421.1 1602.82,-425.43 1603.41,-418.46"/>
<text text-anchor="middle" x="1650" y="-434.5" font-family="Helvetica,sans-Serif" font-size="10.00"> claims</text>
</g>
<!-- Node9 -->
<g id="node9" class="node">
<title>Node9</title>
<g id="a_node9"><a xlink:title=" ">
<polygon fill="white" stroke="black" points="1870,-392.5 1870,-422.5 1985,-422.5 1985,-392.5 1870,-392.5"/>
<text text-anchor="start" x="1878" y="-410.5" font-family="Helvetica,sans-Serif" font-size="10.00">std::unique_ptr&lt; ccf</text>
<text text-anchor="middle" x="1927.5" y="-399.5" font-family="Helvetica,sans-Serif" font-size="10.00">::AuthnIdentity &gt;</text>
</a>
</g>
</g>
<!-- Node9&#45;&gt;Node2 -->
<g id="edge9" class="edge">
<title>Node9&#45;&gt;Node2</title>
<path fill="none" stroke="#9a32cd" stroke-dasharray="5,2" d="M1995.44,-407.5C2019.18,-407.5 2046.3,-407.5 2071.69,-407.5"/>
<polygon fill="#9a32cd" stroke="#9a32cd" points="1995.14,-404 1985.14,-407.5 1995.14,-411 1995.14,-404"/>
<text text-anchor="middle" x="2034.5" y="-410.5" font-family="Helvetica,sans-Serif" font-size="10.00"> caller</text>
</g>
<!-- Node10 -->
<g id="node10" class="node">
<title>Node10</title>
<g id="a_node10"><a xlink:href="structccf_1_1AuthnIdentity.html" target="_top" xlink:title=" ">
<polygon fill="white" stroke="black" points="1695.5,-398 1695.5,-417 1797.5,-417 1797.5,-398 1695.5,-398"/>
<text text-anchor="middle" x="1746.5" y="-405" font-family="Helvetica,sans-Serif" font-size="10.00">ccf::AuthnIdentity</text>
</a>
</g>
</g>
<!-- Node10&#45;&gt;Node9 -->
<g id="edge10" class="edge">
<title>Node10&#45;&gt;Node9</title>
<path fill="none" stroke="#9a32cd" stroke-dasharray="5,2" d="M1808.08,-407.5C1828.08,-407.5 1850.24,-407.5 1869.93,-407.5"/>
<polygon fill="#9a32cd" stroke="#9a32cd" points="1807.84,-404 1797.84,-407.5 1807.84,-411 1807.84,-404"/>
<text text-anchor="middle" x="1831.5" y="-410.5" font-family="Helvetica,sans-Serif" font-size="10.00"> ptr</text>
</g>
<!-- Node11 -->
<g id="node11" class="node">
<title>Node11</title>
<g id="a_node11"><a xlink:href="classkv_1_1Tx.html" target="_top" xlink:title=" ">
<polygon fill="white" stroke="black" points="2140.5,-354 2140.5,-373 2186.5,-373 2186.5,-354 2140.5,-354"/>
<text text-anchor="middle" x="2163.5" y="-361" font-family="Helvetica,sans-Serif" font-size="10.00">kv::Tx</text>
</a>
</g>
</g>
<!-- Node11&#45;&gt;Node1 -->
<g id="edge11" class="edge">
<title>Node11&#45;&gt;Node1</title>
<path fill="none" stroke="#9a32cd" stroke-dasharray="5,2" d="M2197.08,-367C2225.73,-370.07 2268.31,-374.64 2303.98,-378.47"/>
<polygon fill="#9a32cd" stroke="#9a32cd" points="2197.15,-363.48 2186.83,-365.9 2196.4,-370.44 2197.15,-363.48"/>
<text text-anchor="middle" x="2279.5" y="-379.5" font-family="Helvetica,sans-Serif" font-size="10.00"> tx</text>
</g>
<!-- Node12 -->
<g id="node12" class="node">
<title>Node12</title>
<g id="a_node12"><a xlink:href="classkv_1_1ReadOnlyTx.html" target="_top" xlink:title=" ">
<polygon fill="white" stroke="black" points="1881,-354 1881,-373 1974,-373 1974,-354 1881,-354"/>
<text text-anchor="middle" x="1927.5" y="-361" font-family="Helvetica,sans-Serif" font-size="10.00">kv::ReadOnlyTx</text>
</a>
</g>
</g>
<!-- Node12&#45;&gt;Node11 -->
<g id="edge12" class="edge">
<title>Node12&#45;&gt;Node11</title>
<path fill="none" stroke="midnightblue" d="M1984.17,-363.5C2034.09,-363.5 2104.75,-363.5 2140.28,-363.5"/>
<polygon fill="midnightblue" stroke="midnightblue" points="1984.17,-360 1974.17,-363.5 1984.17,-367 1984.17,-360"/>
</g>
<!-- Node13 -->
<g id="node13" class="node">
<title>Node13</title>
<g id="a_node13"><a xlink:href="classkv_1_1BaseTx.html" target="_top" xlink:title=" ">
<polygon fill="white" stroke="black" points="1711.5,-354 1711.5,-373 1781.5,-373 1781.5,-354 1711.5,-354"/>
<text text-anchor="middle" x="1746.5" y="-361" font-family="Helvetica,sans-Serif" font-size="10.00">kv::BaseTx</text>
</a>
</g>
</g>
<!-- Node13&#45;&gt;Node12 -->
<g id="edge13" class="edge">
<title>Node13&#45;&gt;Node12</title>
<path fill="none" stroke="midnightblue" d="M1791.93,-363.5C1818.96,-363.5 1853.42,-363.5 1880.7,-363.5"/>
<polygon fill="midnightblue" stroke="midnightblue" points="1791.59,-360 1781.59,-363.5 1791.59,-367 1791.59,-360"/>
</g>
<!-- Node14 -->
<g id="node14" class="node">
<title>Node14</title>
<g id="a_node14"><a xlink:title=" ">
<polygon fill="white" stroke="black" points="1476.5,-356.5 1476.5,-386.5 1608.5,-386.5 1608.5,-356.5 1476.5,-356.5"/>
<text text-anchor="start" x="1484.5" y="-374.5" font-family="Helvetica,sans-Serif" font-size="10.00">std::unique_ptr&lt; kv</text>
<text text-anchor="middle" x="1542.5" y="-363.5" font-family="Helvetica,sans-Serif" font-size="10.00">::BaseTx::PrivateImpl &gt;</text>
</a>
</g>
</g>
<!-- Node14&#45;&gt;Node13 -->
<g id="edge14" class="edge">
<title>Node14&#45;&gt;Node13</title>
<path fill="none" stroke="#9a32cd" stroke-dasharray="5,2" d="M1618.73,-368.52C1650.59,-367.26 1686.12,-365.85 1711.45,-364.85"/>
<polygon fill="#9a32cd" stroke="#9a32cd" points="1618.38,-365.03 1608.53,-368.92 1618.66,-372.03 1618.38,-365.03"/>
<text text-anchor="middle" x="1650" y="-371.5" font-family="Helvetica,sans-Serif" font-size="10.00"> pimpl</text>
</g>
<!-- Node15 -->
<g id="node15" class="node">
<title>Node15</title>
<g id="a_node15"><a xlink:href="structkv_1_1BaseTx_1_1PrivateImpl.html" target="_top" xlink:title=" ">
<polygon fill="white" stroke="black" points="1262.5,-371 1262.5,-390 1394.5,-390 1394.5,-371 1262.5,-371"/>
<text text-anchor="middle" x="1328.5" y="-378" font-family="Helvetica,sans-Serif" font-size="10.00">kv::BaseTx::PrivateImpl</text>
</a>
</g>
</g>
<!-- Node15&#45;&gt;Node14 -->
<g id="edge15" class="edge">
<title>Node15&#45;&gt;Node14</title>
<path fill="none" stroke="#9a32cd" stroke-dasharray="5,2" d="M1404.75,-377.31C1428.09,-376.31 1453.61,-375.23 1476.21,-374.27"/>
<polygon fill="#9a32cd" stroke="#9a32cd" points="1404.39,-373.82 1394.55,-377.74 1404.69,-380.81 1404.39,-373.82"/>
<text text-anchor="middle" x="1435" y="-380.5" font-family="Helvetica,sans-Serif" font-size="10.00"> ptr</text>
</g>
<!-- Node16 -->
<g id="node16" class="node">
<title>Node16</title>
<g id="a_node16"><a xlink:href="classkv_1_1AbstractStore.html" target="_top" xlink:title=" ">
<polygon fill="white" stroke="black" points="1038.5,-418 1038.5,-437 1138.5,-437 1138.5,-418 1038.5,-418"/>
<text text-anchor="middle" x="1088.5" y="-425" font-family="Helvetica,sans-Serif" font-size="10.00">kv::AbstractStore</text>
</a>
</g>
</g>
<!-- Node16&#45;&gt;Node15 -->
<g id="edge16" class="edge">
<title>Node16&#45;&gt;Node15</title>
<path fill="none" stroke="#9a32cd" stroke-dasharray="5,2" d="M1148.67,-419.69C1177.03,-415.56 1211.41,-410 1242,-403.5 1259.74,-399.73 1279.29,-394.55 1295.22,-390.06"/>
<polygon fill="#9a32cd" stroke="#9a32cd" points="1147.91,-416.26 1138.51,-421.14 1148.9,-423.19 1147.91,-416.26"/>
<text text-anchor="middle" x="1205.5" y="-418.5" font-family="Helvetica,sans-Serif" font-size="10.00"> store</text>
</g>
<!-- Node17 -->
<g id="node17" class="node">
<title>Node17</title>
<g id="a_node17"><a xlink:title=" ">
<polygon fill="white" stroke="black" points="375,-374.5 375,-404.5 497,-404.5 497,-374.5 375,-374.5"/>
<text text-anchor="start" x="383" y="-392.5" font-family="Helvetica,sans-Serif" font-size="10.00">std::map&lt; std::string,</text>
<text text-anchor="middle" x="436" y="-381.5" font-family="Helvetica,sans-Serif" font-size="10.00"> PossibleHandles &gt;</text>
</a>
</g>
</g>
<!-- Node17&#45;&gt;Node15 -->
<g id="edge17" class="edge">
<title>Node17&#45;&gt;Node15</title>
<path fill="none" stroke="#9a32cd" stroke-dasharray="5,2" d="M507.31,-389.5C554.69,-389.5 618.61,-389.5 675,-389.5 675,-389.5 675,-389.5 1089.5,-389.5 1148.01,-389.5 1214.55,-386.75 1262.37,-384.29"/>
<polygon fill="#9a32cd" stroke="#9a32cd" points="507.16,-386 497.16,-389.5 507.16,-393 507.16,-386"/>
<text text-anchor="middle" x="870" y="-392.5" font-family="Helvetica,sans-Serif" font-size="10.00"> all_handles</text>
</g>
<!-- Node18 -->
<g id="node18" class="node">
<title>Node18</title>
<g id="a_node18"><a xlink:title=" ">
<polygon fill="white" stroke="black" points="197,-334 197,-353 262,-353 262,-334 197,-334"/>
<text text-anchor="middle" x="229.5" y="-341" font-family="Helvetica,sans-Serif" font-size="10.00">std::string</text>
</a>
</g>
</g>
<!-- Node18&#45;&gt;Node17 -->
<g id="edge18" class="edge">
<title>Node18&#45;&gt;Node17</title>
<path fill="none" stroke="#9a32cd" stroke-dasharray="5,2" d="M271.97,-352.83C301.47,-359.46 341.58,-368.49 374.62,-375.92"/>
<polygon fill="#9a32cd" stroke="#9a32cd" points="272.53,-349.37 262,-350.59 270.99,-356.2 272.53,-349.37"/>
<text text-anchor="middle" x="312.5" y="-369.5" font-family="Helvetica,sans-Serif" font-size="10.00"> keys</text>
</g>
<!-- Node22 -->
<g id="node22" class="node">
<title>Node22</title>
<g id="a_node22"><a xlink:title=" ">
<polygon fill="white" stroke="black" points="1027.5,-320 1027.5,-361 1149.5,-361 1149.5,-320 1027.5,-320"/>
<text text-anchor="start" x="1035.5" y="-349" font-family="Helvetica,sans-Serif" font-size="10.00">std::map&lt; std::string,</text>
<text text-anchor="start" x="1035.5" y="-338" font-family="Helvetica,sans-Serif" font-size="10.00"> std::shared_ptr&lt; kv</text>
<text text-anchor="middle" x="1088.5" y="-327" font-family="Helvetica,sans-Serif" font-size="10.00">::AbstractMap &gt; &gt;</text>
</a>
</g>
</g>
<!-- Node18&#45;&gt;Node22 -->
<g id="edge23" class="edge">
<title>Node18&#45;&gt;Node22</title>
<path fill="none" stroke="#9a32cd" stroke-dasharray="5,2" d="M272.26,-343.5C313.59,-343.5 378.66,-343.5 435,-343.5 435,-343.5 435,-343.5 871,-343.5 923.81,-343.5 983.87,-342.6 1027.31,-341.78"/>
<polygon fill="#9a32cd" stroke="#9a32cd" points="272.03,-340 262.03,-343.5 272.03,-347 272.03,-340"/>
<text text-anchor="middle" x="676" y="-346.5" font-family="Helvetica,sans-Serif" font-size="10.00"> keys</text>
</g>
<!-- Node26 -->
<g id="node26" class="node">
<title>Node26</title>
<g id="a_node26"><a xlink:href="structkv_1_1GetName.html" target="_top" xlink:title=" ">
<polygon fill="white" stroke="black" points="396,-246 396,-265 476,-265 476,-246 396,-246"/>
<text text-anchor="middle" x="436" y="-253" font-family="Helvetica,sans-Serif" font-size="10.00">kv::GetName</text>
</a>
</g>
</g>
<!-- Node18&#45;&gt;Node26 -->
<g id="edge28" class="edge">
<title>Node18&#45;&gt;Node26</title>
<path fill="none" stroke="#9a32cd" stroke-dasharray="5,2" d="M253.31,-328.35C277.6,-312.83 317.61,-288.99 355,-274.5 367.91,-269.5 382.52,-265.56 395.7,-262.59"/>
<polygon fill="#9a32cd" stroke="#9a32cd" points="251.3,-325.48 244.81,-333.85 255.11,-331.36 251.3,-325.48"/>
<text text-anchor="middle" x="312.5" y="-310.5" font-family="Helvetica,sans-Serif" font-size="10.00"> name</text>
</g>
<!-- Node27 -->
<g id="node27" class="node">
<title>Node27</title>
<g id="a_node27"><a xlink:title=" ">
<polygon fill="white" stroke="black" points="1267.5,-202.5 1267.5,-232.5 1389.5,-232.5 1389.5,-202.5 1267.5,-202.5"/>
<text text-anchor="start" x="1275.5" y="-220.5" font-family="Helvetica,sans-Serif" font-size="10.00">std::map&lt; std::string,</text>
<text text-anchor="middle" x="1328.5" y="-209.5" font-family="Helvetica,sans-Serif" font-size="10.00"> MapChanges &gt;</text>
</a>
</g>
</g>
<!-- Node18&#45;&gt;Node27 -->
<g id="edge30" class="edge">
<title>Node18&#45;&gt;Node27</title>
<path fill="none" stroke="#9a32cd" stroke-dasharray="5,2" d="M244.48,-325.92C255.52,-312.63 271.73,-294.37 288,-280.5 342.09,-234.38 363.92,-217.5 435,-217.5 435,-217.5 435,-217.5 1089.5,-217.5 1150.03,-217.5 1219.23,-217.5 1267.34,-217.5"/>
<polygon fill="#9a32cd" stroke="#9a32cd" points="241.63,-323.88 238.03,-333.84 247.06,-328.3 241.63,-323.88"/>
<text text-anchor="middle" x="773" y="-220.5" font-family="Helvetica,sans-Serif" font-size="10.00"> keys</text>
</g>
<!-- Node19 -->
<g id="node19" class="node">
<title>Node19</title>
<g id="a_node19"><a xlink:title=" ">
<polygon fill="white" stroke="black" points="0,-376.5 0,-406.5 104,-406.5 104,-376.5 0,-376.5"/>
<text text-anchor="start" x="8" y="-394.5" font-family="Helvetica,sans-Serif" font-size="10.00">std::basic_string&lt;</text>
<text text-anchor="middle" x="52" y="-383.5" font-family="Helvetica,sans-Serif" font-size="10.00"> Char &gt;</text>
</a>
</g>
</g>
<!-- Node19&#45;&gt;Node18 -->
<g id="edge19" class="edge">
<title>Node19&#45;&gt;Node18</title>
<path fill="none" stroke="midnightblue" d="M113.8,-377.52C132.25,-373.02 152.53,-367.81 171,-362.5 180.9,-359.65 191.65,-356.2 201.14,-353.02"/>
<polygon fill="midnightblue" stroke="midnightblue" points="112.95,-374.12 104.05,-379.87 114.59,-380.93 112.95,-374.12"/>
</g>
<!-- Node20 -->
<g id="node20" class="node">
<title>Node20</title>
<g id="a_node20"><a xlink:title=" ">
<polygon fill="white" stroke="black" points="189,-386 189,-405 270,-405 270,-386 189,-386"/>
<text text-anchor="middle" x="229.5" y="-393" font-family="Helvetica,sans-Serif" font-size="10.00">std::list&lt; T &gt;</text>
</a>
</g>
</g>
<!-- Node20&#45;&gt;Node17 -->
<g id="edge20" class="edge">
<title>Node20&#45;&gt;Node17</title>
<path fill="none" stroke="#9a32cd" stroke-dasharray="5,2" d="M280.52,-394.03C308.92,-393.2 344.68,-392.15 374.63,-391.27"/>
<polygon fill="#9a32cd" stroke="#9a32cd" points="280.31,-390.54 270.42,-394.33 280.51,-397.53 280.31,-390.54"/>
<text text-anchor="middle" x="312.5" y="-397.5" font-family="Helvetica,sans-Serif" font-size="10.00"> elements</text>
</g>
<!-- Node21 -->
<g id="node21" class="node">
<title>Node21</title>
<g id="a_node21"><a xlink:title=" ">
<polygon fill="white" stroke="black" points="37.5,-338 37.5,-357 66.5,-357 66.5,-338 37.5,-338"/>
<text text-anchor="middle" x="52" y="-345" font-family="Helvetica,sans-Serif" font-size="10.00">T</text>
</a>
</g>
</g>
<!-- Node21&#45;&gt;Node20 -->
<g id="edge21" class="edge">
<title>Node21&#45;&gt;Node20</title>
<path fill="none" stroke="#9a32cd" stroke-dasharray="5,2" d="M76.79,-354.01C106.9,-362.24 158.97,-376.48 193.58,-385.95"/>
<polygon fill="#9a32cd" stroke="#9a32cd" points="77.34,-350.53 66.77,-351.27 75.49,-357.28 77.34,-350.53"/>
<text text-anchor="middle" x="146.5" y="-382.5" font-family="Helvetica,sans-Serif" font-size="10.00"> elements</text>
</g>
<!-- Node22&#45;&gt;Node15 -->
<g id="edge22" class="edge">
<title>Node22&#45;&gt;Node15</title>
<path fill="none" stroke="#9a32cd" stroke-dasharray="5,2" d="M1159.78,-351.13C1185.65,-355.15 1215.18,-359.88 1242,-364.5 1253.61,-366.5 1266.08,-368.77 1277.81,-370.95"/>
<polygon fill="#9a32cd" stroke="#9a32cd" points="1160.1,-347.63 1149.68,-349.56 1159.03,-354.55 1160.1,-347.63"/>
<text text-anchor="middle" x="1205.5" y="-367.5" font-family="Helvetica,sans-Serif" font-size="10.00"> created_maps</text>
</g>
<!-- Node23 -->
<g id="node23" class="node">
<title>Node23</title>
<g id="a_node23"><a xlink:title=" ">
<polygon fill="white" stroke="black" points="813.5,-266.5 813.5,-296.5 926.5,-296.5 926.5,-266.5 813.5,-266.5"/>
<text text-anchor="start" x="821.5" y="-284.5" font-family="Helvetica,sans-Serif" font-size="10.00">std::shared_ptr&lt; kv</text>
<text text-anchor="middle" x="870" y="-273.5" font-family="Helvetica,sans-Serif" font-size="10.00">::AbstractMap &gt;</text>
</a>
</g>
</g>
<!-- Node23&#45;&gt;Node22 -->
<g id="edge24" class="edge">
<title>Node23&#45;&gt;Node22</title>
<path fill="none" stroke="#9a32cd" stroke-dasharray="5,2" d="M936.53,-299.11C959.18,-305.22 984.71,-312.13 1008,-318.5 1014.22,-320.2 1020.7,-321.98 1027.17,-323.76"/>
<polygon fill="#9a32cd" stroke="#9a32cd" points="937.25,-295.68 926.68,-296.45 935.42,-302.44 937.25,-295.68"/>
<text text-anchor="middle" x="981" y="-321.5" font-family="Helvetica,sans-Serif" font-size="10.00"> elements</text>
</g>
<!-- Node28 -->
<g id="node28" class="node">
<title>Node28</title>
<g id="a_node28"><a xlink:href="structkv_1_1MapChanges.html" target="_top" xlink:title=" ">
<polygon fill="white" stroke="black" points="1040,-170 1040,-189 1137,-189 1137,-170 1040,-170"/>
<text text-anchor="middle" x="1088.5" y="-177" font-family="Helvetica,sans-Serif" font-size="10.00">kv::MapChanges</text>
</a>
</g>
</g>
<!-- Node23&#45;&gt;Node28 -->
<g id="edge32" class="edge">
<title>Node23&#45;&gt;Node28</title>
<path fill="none" stroke="#9a32cd" stroke-dasharray="5,2" d="M912.11,-262.13C958.4,-240.32 1031.78,-205.75 1067.13,-189.1"/>
<polygon fill="#9a32cd" stroke="#9a32cd" points="910.5,-259.02 902.95,-266.45 913.48,-265.35 910.5,-259.02"/>
<text text-anchor="middle" x="981" y="-243.5" font-family="Helvetica,sans-Serif" font-size="10.00"> map</text>
</g>
<!-- Node24 -->
<g id="node24" class="node">
<title>Node24</title>
<g id="a_node24"><a xlink:href="classkv_1_1AbstractMap.html" target="_top" xlink:title=" ">
<polygon fill="white" stroke="black" points="628.5,-272 628.5,-291 723.5,-291 723.5,-272 628.5,-272"/>
<text text-anchor="middle" x="676" y="-279" font-family="Helvetica,sans-Serif" font-size="10.00">kv::AbstractMap</text>
</a>
</g>
</g>
<!-- Node24&#45;&gt;Node23 -->
<g id="edge25" class="edge">
<title>Node24&#45;&gt;Node23</title>
<path fill="none" stroke="#9a32cd" stroke-dasharray="5,2" d="M734.06,-281.5C759.11,-281.5 788.41,-281.5 813.31,-281.5"/>
<polygon fill="#9a32cd" stroke="#9a32cd" points="733.97,-278 723.97,-281.5 733.97,-285 733.97,-278"/>
<text text-anchor="middle" x="773" y="-284.5" font-family="Helvetica,sans-Serif" font-size="10.00"> ptr</text>
</g>
<!-- Node25 -->
<g id="node25" class="node">
<title>Node25</title>
<g id="a_node25"><a xlink:title=" ">
<polygon fill="white" stroke="black" points="360,-284.5 360,-314.5 512,-314.5 512,-284.5 360,-284.5"/>
<text text-anchor="start" x="368" y="-302.5" font-family="Helvetica,sans-Serif" font-size="10.00">std::enable_shared</text>
<text text-anchor="middle" x="436" y="-291.5" font-family="Helvetica,sans-Serif" font-size="10.00">_from_this&lt; AbstractMap &gt;</text>
</a>
</g>
</g>
<!-- Node25&#45;&gt;Node24 -->
<g id="edge26" class="edge">
<title>Node25&#45;&gt;Node24</title>
<path fill="none" stroke="midnightblue" d="M522.7,-293.02C558.27,-290.33 598.16,-287.31 628.19,-285.04"/>
<polygon fill="midnightblue" stroke="midnightblue" points="522.01,-289.56 512.3,-293.8 522.54,-296.54 522.01,-289.56"/>
</g>
<!-- Node26&#45;&gt;Node24 -->
<g id="edge27" class="edge">
<title>Node26&#45;&gt;Node24</title>
<path fill="none" stroke="midnightblue" d="M486.23,-260.88C527.89,-265.43 587.2,-271.91 628.17,-276.38"/>
<polygon fill="midnightblue" stroke="midnightblue" points="486.36,-257.37 476.03,-259.76 485.6,-264.33 486.36,-257.37"/>
</g>
<!-- Node27&#45;&gt;Node13 -->
<g id="edge29" class="edge">
<title>Node27&#45;&gt;Node13</title>
<path fill="none" stroke="#9a32cd" stroke-dasharray="5,2" d="M1382.13,-235.97C1471.64,-267.39 1650.43,-330.13 1718.41,-353.99"/>
<polygon fill="#9a32cd" stroke="#9a32cd" points="1383.05,-232.58 1372.45,-232.57 1380.73,-239.19 1383.05,-232.58"/>
<text text-anchor="middle" x="1542.5" y="-317.5" font-family="Helvetica,sans-Serif" font-size="10.00"> all_changes</text>
</g>
<!-- Node28&#45;&gt;Node27 -->
<g id="edge31" class="edge">
<title>Node28&#45;&gt;Node27</title>
<path fill="none" stroke="#9a32cd" stroke-dasharray="5,2" d="M1147.47,-181.72C1176.1,-183.5 1211.06,-186.72 1242,-192.5 1255.23,-194.97 1269.34,-198.65 1282.2,-202.43"/>
<polygon fill="#9a32cd" stroke="#9a32cd" points="1147.41,-178.21 1137.23,-181.12 1147.01,-185.2 1147.41,-178.21"/>
<text text-anchor="middle" x="1205.5" y="-195.5" font-family="Helvetica,sans-Serif" font-size="10.00"> elements</text>
</g>
<!-- Node29 -->
<g id="node29" class="node">
<title>Node29</title>
<g id="a_node29"><a xlink:title=" ">
<polygon fill="white" stroke="black" points="804,-135.5 804,-165.5 936,-165.5 936,-135.5 804,-135.5"/>
<text text-anchor="start" x="812" y="-153.5" font-family="Helvetica,sans-Serif" font-size="10.00">std::unique_ptr&lt; kv</text>
<text text-anchor="middle" x="870" y="-142.5" font-family="Helvetica,sans-Serif" font-size="10.00">::untyped::ChangeSet &gt;</text>
</a>
</g>
</g>
<!-- Node29&#45;&gt;Node28 -->
<g id="edge33" class="edge">
<title>Node29&#45;&gt;Node28</title>
<path fill="none" stroke="#9a32cd" stroke-dasharray="5,2" d="M946.19,-151.38C966.36,-152.42 988.09,-154.28 1008,-157.5 1025.11,-160.27 1043.8,-165.34 1058.76,-169.91"/>
<polygon fill="#9a32cd" stroke="#9a32cd" points="946.27,-147.88 936.12,-150.92 945.95,-154.87 946.27,-147.88"/>
<text text-anchor="middle" x="981" y="-160.5" font-family="Helvetica,sans-Serif" font-size="10.00"> changeset</text>
</g>
<!-- Node30 -->
<g id="node30" class="node">
<title>Node30</title>
<g id="a_node30"><a xlink:href="structkv_1_1untyped_1_1ChangeSet.html" target="_top" xlink:title=" ">
<polygon fill="white" stroke="black" points="610,-132 610,-151 742,-151 742,-132 610,-132"/>
<text text-anchor="middle" x="676" y="-139" font-family="Helvetica,sans-Serif" font-size="10.00">kv::untyped::ChangeSet</text>
</a>
</g>
</g>
<!-- Node30&#45;&gt;Node29 -->
<g id="edge34" class="edge">
<title>Node30&#45;&gt;Node29</title>
<path fill="none" stroke="#9a32cd" stroke-dasharray="5,2" d="M752.42,-145.04C769.38,-145.83 787.24,-146.67 803.74,-147.44"/>
<polygon fill="#9a32cd" stroke="#9a32cd" points="752.16,-141.52 742,-144.55 751.83,-148.51 752.16,-141.52"/>
<text text-anchor="middle" x="773" y="-150.5" font-family="Helvetica,sans-Serif" font-size="10.00"> ptr</text>
</g>
<!-- Node31 -->
<g id="node31" class="node">
<title>Node31</title>
<g id="a_node31"><a xlink:href="classkv_1_1AbstractChangeSet.html" target="_top" xlink:title=" ">
<polygon fill="white" stroke="black" points="372.5,-170 372.5,-189 499.5,-189 499.5,-170 372.5,-170"/>
<text text-anchor="middle" x="436" y="-177" font-family="Helvetica,sans-Serif" font-size="10.00">kv::AbstractChangeSet</text>
</a>
</g>
</g>
<!-- Node31&#45;&gt;Node30 -->
<g id="edge35" class="edge">
<title>Node31&#45;&gt;Node30</title>
<path fill="none" stroke="midnightblue" d="M509.79,-175.81C535.87,-173.73 565.39,-170.5 592,-165.5 610.57,-162.01 630.97,-156.14 646.9,-151.08"/>
<polygon fill="midnightblue" stroke="midnightblue" points="509.31,-172.34 499.6,-176.58 509.83,-179.32 509.31,-172.34"/>
</g>
<!-- Node32 -->
<g id="node32" class="node">
<title>Node32</title>
<g id="a_node32"><a xlink:href="classchamp_1_1Map.html" target="_top" xlink:title=" ">
<polygon fill="white" stroke="black" points="370,-132 370,-151 502,-151 502,-132 370,-132"/>
<text text-anchor="middle" x="436" y="-139" font-family="Helvetica,sans-Serif" font-size="10.00">champ::Map&lt; K, V, H &gt;</text>
</a>
</g>
</g>
<!-- Node32&#45;&gt;Node30 -->
<g id="edge36" class="edge">
<title>Node32&#45;&gt;Node30</title>
<path fill="none" stroke="#9a32cd" stroke-dasharray="5,2" d="M512.43,-141.5C543.66,-141.5 579.54,-141.5 609.63,-141.5"/>
<polygon fill="#9a32cd" stroke="#9a32cd" points="512.03,-138 502.03,-141.5 512.03,-145 512.03,-138"/>
<text text-anchor="middle" x="563.5" y="-155.5" font-family="Helvetica,sans-Serif" font-size="10.00"> committed</text>
<text text-anchor="middle" x="563.5" y="-144.5" font-family="Helvetica,sans-Serif" font-size="10.00">state</text>
</g>
<!-- Node33 -->
<g id="node33" class="node">
<title>Node33</title>
<g id="a_node33"><a xlink:title=" ">
<polygon fill="white" stroke="black" points="355,-72 355,-113 517,-113 517,-72 355,-72"/>
<text text-anchor="start" x="363" y="-101" font-family="Helvetica,sans-Serif" font-size="10.00">std::map&lt; K, std::tuple</text>
<text text-anchor="start" x="363" y="-90" font-family="Helvetica,sans-Serif" font-size="10.00">&lt; DeletableVersion, LastRead</text>
<text text-anchor="middle" x="436" y="-79" font-family="Helvetica,sans-Serif" font-size="10.00">Version &gt; &gt;</text>
</a>
</g>
</g>
<!-- Node33&#45;&gt;Node30 -->
<g id="edge37" class="edge">
<title>Node33&#45;&gt;Node30</title>
<path fill="none" stroke="#9a32cd" stroke-dasharray="5,2" d="M527.37,-111.11C561.95,-118.22 599.95,-126.05 628.74,-131.98"/>
<polygon fill="#9a32cd" stroke="#9a32cd" points="527.74,-107.61 517.24,-109.02 526.33,-114.47 527.74,-107.61"/>
<text text-anchor="middle" x="563.5" y="-127.5" font-family="Helvetica,sans-Serif" font-size="10.00"> reads</text>
</g>
<!-- Node34 -->
<g id="node34" class="node">
<title>Node34</title>
<g id="a_node34"><a xlink:title=" ">
<polygon fill="white" stroke="black" points="215,-83 215,-102 244,-102 244,-83 215,-83"/>
<text text-anchor="middle" x="229.5" y="-90" font-family="Helvetica,sans-Serif" font-size="10.00">K</text>
</a>
</g>
</g>
<!-- Node34&#45;&gt;Node33 -->
<g id="edge38" class="edge">
<title>Node34&#45;&gt;Node33</title>
<path fill="none" stroke="#9a32cd" stroke-dasharray="5,2" d="M254.43,-92.5C279.08,-92.5 318.88,-92.5 354.84,-92.5"/>
<polygon fill="#9a32cd" stroke="#9a32cd" points="254.24,-89 244.24,-92.5 254.24,-96 254.24,-89"/>
<text text-anchor="middle" x="312.5" y="-95.5" font-family="Helvetica,sans-Serif" font-size="10.00"> keys</text>
</g>
<!-- Node35 -->
<g id="node35" class="node">
<title>Node35</title>
<g id="a_node35"><a xlink:title=" ">
<polygon fill="white" stroke="black" points="365.5,-0.5 365.5,-52.5 506.5,-52.5 506.5,-0.5 365.5,-0.5"/>
<text text-anchor="start" x="373.5" y="-40.5" font-family="Helvetica,sans-Serif" font-size="10.00">std::map&lt; kv::serialisers</text>
<text text-anchor="start" x="373.5" y="-29.5" font-family="Helvetica,sans-Serif" font-size="10.00">::SerialisedEntry, std</text>
<text text-anchor="start" x="373.5" y="-18.5" font-family="Helvetica,sans-Serif" font-size="10.00">::optional&lt; kv::serialisers</text>
<text text-anchor="middle" x="436" y="-7.5" font-family="Helvetica,sans-Serif" font-size="10.00">::SerialisedEntry &gt; &gt;</text>
</a>
</g>
</g>
<!-- Node35&#45;&gt;Node30 -->
<g id="edge39" class="edge">
<title>Node35&#45;&gt;Node30</title>
<path fill="none" stroke="#9a32cd" stroke-dasharray="5,2" d="M504.77,-56.79C508.92,-58.71 513.02,-60.62 517,-62.5 568.04,-86.57 627.33,-116.85 656.65,-131.98"/>
<polygon fill="#9a32cd" stroke="#9a32cd" points="506.2,-53.6 495.66,-52.61 503.28,-59.96 506.2,-53.6"/>
<text text-anchor="middle" x="563.5" y="-102.5" font-family="Helvetica,sans-Serif" font-size="10.00"> writes</text>
</g>
</g>
</svg>
        <g id="navigator" transform="translate(0 0)" fill="#404254">
                <rect fill="#f2f5e9" fill-opacity="0.5" stroke="#606060" stroke-width=".5" x="0" y="0" width="60" height="60"/>
                <use id="zoomplus" xlink:href="#zoomPlus" x="17" y="9" onmousedown="handleZoom(evt,'in')"/>
                <use id="zoomminus" xlink:href="#zoomMin" x="42" y="9" onmousedown="handleZoom(evt,'out')"/>
                <use id="reset" xlink:href="#resetDef" x="30" y="36" onmousedown="handleReset()"/>
                <g id="arrowUp" xlink:href="#dirArrow" transform="translate(30 24)" onmousedown="handlePan(0,-1)">
                  <use xlink:href="#rim" fill="#404040">
                        <set attributeName="fill" to="#808080" begin="arrowUp.mouseover" end="arrowUp.mouseout"/>
                  </use>
                  <path fill="none" stroke="white" stroke-width="1.5" d="M0,-3.0v7 M-2.5,-0.5L0,-3.0L2.5,-0.5"/>
                </g>
                <g id="arrowRight" xlink:href="#dirArrow" transform="rotate(90) translate(36 -43)" onmousedown="handlePan(1,0)">
                  <use xlink:href="#rim" fill="#404040">
                        <set attributeName="fill" to="#808080" begin="arrowRight.mouseover" end="arrowRight.mouseout"/>
                  </use>
                  <path fill="none" stroke="white" stroke-width="1.5" d="M0,-3.0v7 M-2.5,-0.5L0,-3.0L2.5,-0.5"/>
                </g>
                <g id="arrowDown" xlink:href="#dirArrow" transform="rotate(180) translate(-30 -48)" onmousedown="handlePan(0,1)">
                  <use xlink:href="#rim" fill="#404040">
                        <set attributeName="fill" to="#808080" begin="arrowDown.mouseover" end="arrowDown.mouseout"/>
                  </use>
                  <path fill="none" stroke="white" stroke-width="1.5" d="M0,-3.0v7 M-2.5,-0.5L0,-3.0L2.5,-0.5"/>
                </g>
                <g id="arrowLeft" xlink:href="#dirArrow" transform="rotate(270) translate(-36 17)" onmousedown="handlePan(-1,0)">
                  <use xlink:href="#rim" fill="#404040">
                        <set attributeName="fill" to="#808080" begin="arrowLeft.mouseover" end="arrowLeft.mouseout"/>
                  </use>
                  <path fill="none" stroke="white" stroke-width="1.5" d="M0,-3.0v7 M-2.5,-0.5L0,-3.0L2.5,-0.5"/>
                </g>
        </g>
        <svg viewBox="0 0 15 15" width="100%" height="30px" preserveAspectRatio="xMaxYMin meet">
         <g id="arrow_out" transform="scale(0.3 0.3)">
          <a xlink:href="structccf_1_1endpoints_1_1EndpointContext__coll__graph_org.svg" target="_base">
           <rect id="button" ry="5" rx="5" y="6" x="6" height="38" width="38"
                fill="#f2f5e9" fill-opacity="0.5" stroke="#606060" stroke-width="1.0"/>
           <path id="arrow"
             d="M 11.500037,31.436501 C 11.940474,20.09759 22.043105,11.32322 32.158766,21.979434 L 37.068811,17.246167 C 37.068811,17.246167 37.088388,32 37.088388,32 L 22.160133,31.978069 C 22.160133,31.978069 26.997745,27.140456 26.997745,27.140456 C 18.528582,18.264221 13.291696,25.230495 11.500037,31.436501 z"
             style="fill:#404040;"/>
          </a>
         </g>
        </svg>
</svg>
