<?xml version="1.0" encoding="UTF-8" standalone="no"?>
<!DOCTYPE svg PUBLIC "-//W3C//DTD SVG 1.1//EN"
 "http://www.w3.org/Graphics/SVG/1.1/DTD/svg11.dtd">
<!-- Generated by graphviz version 2.43.0 (0)
 -->
<!-- Title: aft::NonceRevealMsg Pages: 1 -->
<svg width="230pt" height="173pt"
 viewBox="0.00 0.00 230.00 173.00" xmlns="http://www.w3.org/2000/svg" xmlns:xlink="http://www.w3.org/1999/xlink">
<g id="graph0" class="graph" transform="scale(1 1) rotate(0) translate(4 169)">
<title>aft::NonceRevealMsg</title>
<polygon fill="white" stroke="transparent" points="-4,4 -4,-169 226,-169 226,4 -4,4"/>
<!-- Node1 -->
<g id="node1" class="node">
<title>Node1</title>
<g id="a_node1"><a xlink:title=" ">
<polygon fill="#bfbfbf" stroke="black" points="23,-0.5 23,-19.5 143,-19.5 143,-0.5 23,-0.5"/>
<text text-anchor="middle" x="83" y="-7.5" font-family="Helvetica,sans-Serif" font-size="10.00">aft::NonceRevealMsg</text>
</a>
</g>
</g>
<!-- Node2 -->
<g id="node2" class="node">
<title>Node2</title>
<g id="a_node2"><a xlink:href="structaft_1_1RaftHeader.html" target="_top" xlink:title=" ">
<polygon fill="white" stroke="black" points="0,-67.5 0,-86.5 90,-86.5 90,-67.5 0,-67.5"/>
<text text-anchor="middle" x="45" y="-74.5" font-family="Helvetica,sans-Serif" font-size="10.00">aft::RaftHeader</text>
</a>
</g>
</g>
<!-- Node2&#45;&gt;Node1 -->
<g id="edge1" class="edge">
<title>Node2&#45;&gt;Node1</title>
<path fill="none" stroke="midnightblue" d="M55.21,-58.53C62.57,-45.95 72.18,-29.51 77.96,-19.63"/>
<polygon fill="midnightblue" stroke="midnightblue" points="52.15,-56.83 50.12,-67.23 58.19,-60.37 52.15,-56.83"/>
</g>
<!-- Node3 -->
<g id="node3" class="node">
<title>Node3</title>
<g id="a_node3"><a xlink:href="classcrypto_1_1Sha256Hash.html" target="_top" xlink:title=" ">
<polygon fill="white" stroke="black" points="108,-67.5 108,-86.5 222,-86.5 222,-67.5 108,-67.5"/>
<text text-anchor="middle" x="165" y="-74.5" font-family="Helvetica,sans-Serif" font-size="10.00">crypto::Sha256Hash</text>
</a>
</g>
</g>
<!-- Node3&#45;&gt;Node1 -->
<g id="edge2" class="edge">
<title>Node3&#45;&gt;Node1</title>
<path fill="none" stroke="#9a32cd" stroke-dasharray="5,2" d="M145.72,-60.71C129.56,-47.91 107.08,-30.09 93.88,-19.63"/>
<polygon fill="#9a32cd" stroke="#9a32cd" points="143.93,-63.76 153.94,-67.23 148.28,-58.28 143.93,-63.76"/>
<text text-anchor="middle" x="144.5" y="-41" font-family="Helvetica,sans-Serif" font-size="10.00"> nonce</text>
</g>
<!-- Node4 -->
<g id="node4" class="node">
<title>Node4</title>
<g id="a_node4"><a xlink:title=" ">
<polygon fill="white" stroke="black" points="109.5,-134.5 109.5,-164.5 220.5,-164.5 220.5,-134.5 109.5,-134.5"/>
<text text-anchor="start" x="117.5" y="-152.5" font-family="Helvetica,sans-Serif" font-size="10.00">std::array&lt; uint8_t,</text>
<text text-anchor="middle" x="165" y="-141.5" font-family="Helvetica,sans-Serif" font-size="10.00"> SIZE &gt;</text>
</a>
</g>
</g>
<!-- Node4&#45;&gt;Node3 -->
<g id="edge3" class="edge">
<title>Node4&#45;&gt;Node3</title>
<path fill="none" stroke="#9a32cd" stroke-dasharray="5,2" d="M165,-124.09C165,-111.21 165,-96.2 165,-86.89"/>
<polygon fill="#9a32cd" stroke="#9a32cd" points="161.5,-124.23 165,-134.23 168.5,-124.23 161.5,-124.23"/>
<text text-anchor="middle" x="170" y="-108" font-family="Helvetica,sans-Serif" font-size="10.00"> h</text>
</g>
</g>
</svg>
