<?xml version="1.0" encoding="UTF-8" standalone="no"?>
<!DOCTYPE svg PUBLIC "-//W3C//DTD SVG 1.1//EN"
 "http://www.w3.org/Graphics/SVG/1.1/DTD/svg11.dtd">
<!-- Generated by graphviz version 2.43.0 (0)
 -->
<!-- Title: ccf::StartupSnapshotInfo Pages: 1 -->
<!--zoomable 173 -->
<svg id="main" version="1.1" xmlns="http://www.w3.org/2000/svg" xmlns:xlink="http://www.w3.org/1999/xlink" xml:space="preserve" onload="init(evt)">
<style type="text/css"><![CDATA[
.edge:hover path { stroke: red; }
.edge:hover polygon { stroke: red; fill: red; }
]]></style>
<script type="text/javascript"><![CDATA[
var edges = document.getElementsByTagName('g');
if (edges && edges.length) {
  for (var i=0;i<edges.length;i++) {
    if (edges[i].id.substr(0,4)=='edge') {
      edges[i].setAttribute('class','edge');
    }
  }
}
]]></script>
        <defs>
                <circle id="rim" cx="0" cy="0" r="7"/>
                <circle id="rim2" cx="0" cy="0" r="3.5"/>
                <g id="zoomPlus">
                        <use xlink:href="#rim" fill="#404040">
                                <set attributeName="fill" to="#808080" begin="zoomplus.mouseover" end="zoomplus.mouseout"/>
                        </use>
                        <path d="M-4,0h8M0,-4v8" fill="none" stroke="white" stroke-width="1.5" pointer-events="none"/>
                </g>
                <g id="zoomMin">
                        <use xlink:href="#rim" fill="#404040">
                                <set attributeName="fill" to="#808080" begin="zoomminus.mouseover" end="zoomminus.mouseout"/>
                        </use>
                        <path d="M-4,0h8" fill="none" stroke="white" stroke-width="1.5" pointer-events="none"/>
                </g>
                <g id="dirArrow">
                        <path fill="none" stroke="white" stroke-width="1.5" d="M0,-3.0v7 M-2.5,-0.5L0,-3.0L2.5,-0.5"/>
                </g>
               <g id="resetDef">
                       <use xlink:href="#rim2" fill="#404040">
                               <set attributeName="fill" to="#808080" begin="reset.mouseover" end="reset.mouseout"/>
                       </use>
               </g>
        </defs>

<script type="text/javascript">
var viewWidth = 1143;
var viewHeight = 173;
var sectionId = 'dynsection-0';
</script>
<script xlink:href="svgpan.js"/>
<svg id="graph" class="graph">
<g id="viewport">
<title>ccf::StartupSnapshotInfo</title>
<polygon fill="white" stroke="transparent" points="-4,4 -4,-168.5 1139,-168.5 1139,4 -4,4"/>
<!-- Node1 -->
<g id="node1" class="node">
<title>Node1</title>
<g id="a_node1"><a xlink:title=" ">
<polygon fill="#bfbfbf" stroke="black" points="1000,-110 1000,-129 1135,-129 1135,-110 1000,-110"/>
<text text-anchor="middle" x="1067.5" y="-117" font-family="Helvetica,sans-Serif" font-size="10.00">ccf::StartupSnapshotInfo</text>
</a>
</g>
</g>
<!-- Node2 -->
<g id="node2" class="node">
<title>Node2</title>
<g id="a_node2"><a xlink:title=" ">
<polygon fill="white" stroke="black" points="811,-132 811,-151 936,-151 936,-132 811,-132"/>
<text text-anchor="middle" x="873.5" y="-139" font-family="Helvetica,sans-Serif" font-size="10.00">std::vector&lt; uint8_t &gt;</text>
</a>
</g>
</g>
<!-- Node2&#45;&gt;Node1 -->
<g id="edge1" class="edge">
<title>Node2&#45;&gt;Node1</title>
<path fill="none" stroke="#9a32cd" stroke-dasharray="5,2" d="M946.26,-133.28C963.87,-131.26 982.64,-129.11 1000,-127.12"/>
<polygon fill="#9a32cd" stroke="#9a32cd" points="945.58,-129.83 936.04,-134.45 946.38,-136.79 945.58,-129.83"/>
<text text-anchor="middle" x="968" y="-134.5" font-family="Helvetica,sans-Serif" font-size="10.00"> raw</text>
</g>
<!-- Node3 -->
<g id="node3" class="node">
<title>Node3</title>
<g id="a_node3"><a xlink:title=" ">
<polygon fill="white" stroke="black" points="817,-82.5 817,-112.5 930,-112.5 930,-82.5 817,-82.5"/>
<text text-anchor="start" x="825" y="-100.5" font-family="Helvetica,sans-Serif" font-size="10.00">std::shared_ptr&lt; kv</text>
<text text-anchor="middle" x="873.5" y="-89.5" font-family="Helvetica,sans-Serif" font-size="10.00">::Store &gt;</text>
</a>
</g>
</g>
<!-- Node3&#45;&gt;Node1 -->
<g id="edge2" class="edge">
<title>Node3&#45;&gt;Node1</title>
<path fill="none" stroke="#9a32cd" stroke-dasharray="5,2" d="M940.22,-105.03C959.48,-107.24 980.56,-109.65 999.87,-111.87"/>
<polygon fill="#9a32cd" stroke="#9a32cd" points="940.37,-101.52 930.03,-103.86 939.57,-108.48 940.37,-101.52"/>
<text text-anchor="middle" x="968" y="-112.5" font-family="Helvetica,sans-Serif" font-size="10.00"> store</text>
</g>
<!-- Node4 -->
<g id="node4" class="node">
<title>Node4</title>
<g id="a_node4"><a xlink:href="classkv_1_1Store.html" target="_top" xlink:title=" ">
<polygon fill="white" stroke="black" points="699,-88 699,-107 758,-107 758,-88 699,-88"/>
<text text-anchor="middle" x="728.5" y="-95" font-family="Helvetica,sans-Serif" font-size="10.00">kv::Store</text>
</a>
</g>
</g>
<!-- Node4&#45;&gt;Node3 -->
<g id="edge3" class="edge">
<title>Node4&#45;&gt;Node3</title>
<path fill="none" stroke="#9a32cd" stroke-dasharray="5,2" d="M768.46,-97.5C783.33,-97.5 800.6,-97.5 816.74,-97.5"/>
<polygon fill="#9a32cd" stroke="#9a32cd" points="768.09,-94 758.09,-97.5 768.09,-101 768.09,-94"/>
<text text-anchor="middle" x="784.5" y="-100.5" font-family="Helvetica,sans-Serif" font-size="10.00"> ptr</text>
</g>
<!-- Node5 -->
<g id="node5" class="node">
<title>Node5</title>
<g id="a_node5"><a xlink:href="classkv_1_1AbstractStore.html" target="_top" xlink:title=" ">
<polygon fill="white" stroke="black" points="538,-126 538,-145 638,-145 638,-126 538,-126"/>
<text text-anchor="middle" x="588" y="-133" font-family="Helvetica,sans-Serif" font-size="10.00">kv::AbstractStore</text>
</a>
</g>
</g>
<!-- Node5&#45;&gt;Node4 -->
<g id="edge4" class="edge">
<title>Node5&#45;&gt;Node4</title>
<path fill="none" stroke="midnightblue" d="M637.17,-123.32C651.32,-119.63 666.81,-115.5 681,-111.5 686.68,-109.9 692.73,-108.13 698.52,-106.4"/>
<polygon fill="midnightblue" stroke="midnightblue" points="635.94,-120.02 627.14,-125.91 637.7,-126.79 635.94,-120.02"/>
</g>
<!-- Node6 -->
<g id="node6" class="node">
<title>Node6</title>
<g id="a_node6"><a xlink:href="classkv_1_1StoreState.html" target="_top" xlink:title=" ">
<polygon fill="white" stroke="black" points="545.5,-88 545.5,-107 630.5,-107 630.5,-88 545.5,-88"/>
<text text-anchor="middle" x="588" y="-95" font-family="Helvetica,sans-Serif" font-size="10.00">kv::StoreState</text>
</a>
</g>
</g>
<!-- Node6&#45;&gt;Node4 -->
<g id="edge5" class="edge">
<title>Node6&#45;&gt;Node4</title>
<path fill="none" stroke="midnightblue" d="M640.61,-97.5C660.25,-97.5 681.93,-97.5 698.71,-97.5"/>
<polygon fill="midnightblue" stroke="midnightblue" points="640.55,-94 630.55,-97.5 640.55,-101 640.55,-94"/>
</g>
<!-- Node7 -->
<g id="node7" class="node">
<title>Node7</title>
<g id="a_node7"><a xlink:title=" ">
<polygon fill="white" stroke="black" points="305,-143 305,-162 374,-162 374,-143 305,-143"/>
<text text-anchor="middle" x="339.5" y="-150" font-family="Helvetica,sans-Serif" font-size="10.00">std::mutex</text>
</a>
</g>
</g>
<!-- Node7&#45;&gt;Node6 -->
<g id="edge6" class="edge">
<title>Node7&#45;&gt;Node6</title>
<path fill="none" stroke="#9a32cd" stroke-dasharray="5,2" d="M383.87,-142.82C429.39,-132.67 500.46,-116.81 545.34,-106.8"/>
<polygon fill="#9a32cd" stroke="#9a32cd" points="383,-139.43 374,-145.03 384.52,-146.26 383,-139.43"/>
<text text-anchor="middle" x="462.5" y="-156.5" font-family="Helvetica,sans-Serif" font-size="10.00"> commit_lock</text>
<text text-anchor="middle" x="462.5" y="-145.5" font-family="Helvetica,sans-Serif" font-size="10.00">maps_lock</text>
<text text-anchor="middle" x="462.5" y="-134.5" font-family="Helvetica,sans-Serif" font-size="10.00">version_lock</text>
</g>
<!-- Node8 -->
<g id="node8" class="node">
<title>Node8</title>
<g id="a_node8"><a xlink:title=" ">
<polygon fill="white" stroke="black" points="268,-71.5 268,-123.5 411,-123.5 411,-71.5 268,-71.5"/>
<text text-anchor="start" x="276" y="-111.5" font-family="Helvetica,sans-Serif" font-size="10.00">std::map&lt; std::string,</text>
<text text-anchor="start" x="276" y="-100.5" font-family="Helvetica,sans-Serif" font-size="10.00"> std::pair&lt; kv::Version,</text>
<text text-anchor="start" x="276" y="-89.5" font-family="Helvetica,sans-Serif" font-size="10.00"> std::shared_ptr&lt; untyped</text>
<text text-anchor="middle" x="339.5" y="-78.5" font-family="Helvetica,sans-Serif" font-size="10.00">::Map &gt; &gt; &gt;</text>
</a>
</g>
</g>
<!-- Node8&#45;&gt;Node6 -->
<g id="edge7" class="edge">
<title>Node8&#45;&gt;Node6</title>
<path fill="none" stroke="#9a32cd" stroke-dasharray="5,2" d="M421.23,-97.5C462.67,-97.5 511.42,-97.5 545.28,-97.5"/>
<polygon fill="#9a32cd" stroke="#9a32cd" points="421.14,-94 411.14,-97.5 421.14,-101 421.14,-94"/>
<text text-anchor="middle" x="462.5" y="-100.5" font-family="Helvetica,sans-Serif" font-size="10.00"> maps</text>
</g>
<!-- Node9 -->
<g id="node9" class="node">
<title>Node9</title>
<g id="a_node9"><a xlink:title=" ">
<polygon fill="white" stroke="black" points="141,-88 141,-107 206,-107 206,-88 141,-88"/>
<text text-anchor="middle" x="173.5" y="-95" font-family="Helvetica,sans-Serif" font-size="10.00">std::string</text>
</a>
</g>
</g>
<!-- Node9&#45;&gt;Node8 -->
<g id="edge8" class="edge">
<title>Node9&#45;&gt;Node8</title>
<path fill="none" stroke="#9a32cd" stroke-dasharray="5,2" d="M216.51,-97.5C232.17,-97.5 250.4,-97.5 267.92,-97.5"/>
<polygon fill="#9a32cd" stroke="#9a32cd" points="216.12,-94 206.12,-97.5 216.12,-101 216.12,-94"/>
<text text-anchor="middle" x="237" y="-100.5" font-family="Helvetica,sans-Serif" font-size="10.00"> keys</text>
</g>
<!-- Node10 -->
<g id="node10" class="node">
<title>Node10</title>
<g id="a_node10"><a xlink:title=" ">
<polygon fill="white" stroke="black" points="0,-82.5 0,-112.5 104,-112.5 104,-82.5 0,-82.5"/>
<text text-anchor="start" x="8" y="-100.5" font-family="Helvetica,sans-Serif" font-size="10.00">std::basic_string&lt;</text>
<text text-anchor="middle" x="52" y="-89.5" font-family="Helvetica,sans-Serif" font-size="10.00"> Char &gt;</text>
</a>
</g>
</g>
<!-- Node10&#45;&gt;Node9 -->
<g id="edge9" class="edge">
<title>Node10&#45;&gt;Node9</title>
<path fill="none" stroke="midnightblue" d="M114.1,-97.5C123.41,-97.5 132.68,-97.5 141,-97.5"/>
<polygon fill="midnightblue" stroke="midnightblue" points="114.03,-94 104.03,-97.5 114.03,-101 114.03,-94"/>
</g>
<!-- Node11 -->
<g id="node11" class="node">
<title>Node11</title>
<g id="a_node11"><a xlink:title=" ">
<polygon fill="white" stroke="black" points="272.5,-0.5 272.5,-52.5 406.5,-52.5 406.5,-0.5 272.5,-0.5"/>
<text text-anchor="start" x="280.5" y="-40.5" font-family="Helvetica,sans-Serif" font-size="10.00">std::unordered_map</text>
<text text-anchor="start" x="280.5" y="-29.5" font-family="Helvetica,sans-Serif" font-size="10.00">&lt; Version, std::pair</text>
<text text-anchor="start" x="280.5" y="-18.5" font-family="Helvetica,sans-Serif" font-size="10.00">&lt; std::unique_ptr&lt; kv</text>
<text text-anchor="middle" x="339.5" y="-7.5" font-family="Helvetica,sans-Serif" font-size="10.00">::PendingTx &gt;, bool &gt; &gt;</text>
</a>
</g>
</g>
<!-- Node11&#45;&gt;Node6 -->
<g id="edge10" class="edge">
<title>Node11&#45;&gt;Node6</title>
<path fill="none" stroke="#9a32cd" stroke-dasharray="5,2" d="M416.31,-49.88C446.62,-59.05 481.89,-69.51 514,-78.5 525.48,-81.71 538.02,-85.04 549.42,-88"/>
<polygon fill="#9a32cd" stroke="#9a32cd" points="417.24,-46.5 406.66,-46.95 415.21,-53.2 417.24,-46.5"/>
<text text-anchor="middle" x="462.5" y="-76.5" font-family="Helvetica,sans-Serif" font-size="10.00"> pending_txs</text>
</g>
<!-- Node12 -->
<g id="node12" class="node">
<title>Node12</title>
<g id="a_node12"><a xlink:href="classkv_1_1ExecutionWrapperStore.html" target="_top" xlink:title=" ">
<polygon fill="white" stroke="black" points="514,-50 514,-69 662,-69 662,-50 514,-50"/>
<text text-anchor="middle" x="588" y="-57" font-family="Helvetica,sans-Serif" font-size="10.00">kv::ExecutionWrapperStore</text>
</a>
</g>
</g>
<!-- Node12&#45;&gt;Node4 -->
<g id="edge11" class="edge">
<title>Node12&#45;&gt;Node4</title>
<path fill="none" stroke="midnightblue" d="M636.41,-71.63C644.94,-73.88 653.74,-76.23 662,-78.5 674.1,-81.83 687.41,-85.66 698.85,-89"/>
<polygon fill="midnightblue" stroke="midnightblue" points="637.13,-68.21 626.57,-69.06 635.36,-74.98 637.13,-68.21"/>
</g>
</g>
</svg>
        <g id="navigator" transform="translate(0 0)" fill="#404254">
                <rect fill="#f2f5e9" fill-opacity="0.5" stroke="#606060" stroke-width=".5" x="0" y="0" width="60" height="60"/>
                <use id="zoomplus" xlink:href="#zoomPlus" x="17" y="9" onmousedown="handleZoom(evt,'in')"/>
                <use id="zoomminus" xlink:href="#zoomMin" x="42" y="9" onmousedown="handleZoom(evt,'out')"/>
                <use id="reset" xlink:href="#resetDef" x="30" y="36" onmousedown="handleReset()"/>
                <g id="arrowUp" xlink:href="#dirArrow" transform="translate(30 24)" onmousedown="handlePan(0,-1)">
                  <use xlink:href="#rim" fill="#404040">
                        <set attributeName="fill" to="#808080" begin="arrowUp.mouseover" end="arrowUp.mouseout"/>
                  </use>
                  <path fill="none" stroke="white" stroke-width="1.5" d="M0,-3.0v7 M-2.5,-0.5L0,-3.0L2.5,-0.5"/>
                </g>
                <g id="arrowRight" xlink:href="#dirArrow" transform="rotate(90) translate(36 -43)" onmousedown="handlePan(1,0)">
                  <use xlink:href="#rim" fill="#404040">
                        <set attributeName="fill" to="#808080" begin="arrowRight.mouseover" end="arrowRight.mouseout"/>
                  </use>
                  <path fill="none" stroke="white" stroke-width="1.5" d="M0,-3.0v7 M-2.5,-0.5L0,-3.0L2.5,-0.5"/>
                </g>
                <g id="arrowDown" xlink:href="#dirArrow" transform="rotate(180) translate(-30 -48)" onmousedown="handlePan(0,1)">
                  <use xlink:href="#rim" fill="#404040">
                        <set attributeName="fill" to="#808080" begin="arrowDown.mouseover" end="arrowDown.mouseout"/>
                  </use>
                  <path fill="none" stroke="white" stroke-width="1.5" d="M0,-3.0v7 M-2.5,-0.5L0,-3.0L2.5,-0.5"/>
                </g>
                <g id="arrowLeft" xlink:href="#dirArrow" transform="rotate(270) translate(-36 17)" onmousedown="handlePan(-1,0)">
                  <use xlink:href="#rim" fill="#404040">
                        <set attributeName="fill" to="#808080" begin="arrowLeft.mouseover" end="arrowLeft.mouseout"/>
                  </use>
                  <path fill="none" stroke="white" stroke-width="1.5" d="M0,-3.0v7 M-2.5,-0.5L0,-3.0L2.5,-0.5"/>
                </g>
        </g>
        <svg viewBox="0 0 15 15" width="100%" height="30px" preserveAspectRatio="xMaxYMin meet">
         <g id="arrow_out" transform="scale(0.3 0.3)">
          <a xlink:href="structccf_1_1StartupSnapshotInfo__coll__graph_org.svg" target="_base">
           <rect id="button" ry="5" rx="5" y="6" x="6" height="38" width="38"
                fill="#f2f5e9" fill-opacity="0.5" stroke="#606060" stroke-width="1.0"/>
           <path id="arrow"
             d="M 11.500037,31.436501 C 11.940474,20.09759 22.043105,11.32322 32.158766,21.979434 L 37.068811,17.246167 C 37.068811,17.246167 37.088388,32 37.088388,32 L 22.160133,31.978069 C 22.160133,31.978069 26.997745,27.140456 26.997745,27.140456 C 18.528582,18.264221 13.291696,25.230495 11.500037,31.436501 z"
             style="fill:#404040;"/>
          </a>
         </g>
        </svg>
</svg>
