<?xml version="1.0" encoding="UTF-8" standalone="no"?>
<!DOCTYPE svg PUBLIC "-//W3C//DTD SVG 1.1//EN"
 "http://www.w3.org/Graphics/SVG/1.1/DTD/svg11.dtd">
<!-- Generated by graphviz version 2.43.0 (0)
 -->
<!-- Title: ccf::TxReceipt Pages: 1 -->
<svg width="379pt" height="154pt"
 viewBox="0.00 0.00 379.00 154.00" xmlns="http://www.w3.org/2000/svg" xmlns:xlink="http://www.w3.org/1999/xlink">
<g id="graph0" class="graph" transform="scale(1 1) rotate(0) translate(4 150)">
<title>ccf::TxReceipt</title>
<polygon fill="white" stroke="transparent" points="-4,4 -4,-150 375,-150 375,4 -4,4"/>
<!-- Node1 -->
<g id="node1" class="node">
<title>Node1</title>
<g id="a_node1"><a xlink:title=" ">
<polygon fill="#bfbfbf" stroke="black" points="286,-60.5 286,-79.5 371,-79.5 371,-60.5 286,-60.5"/>
<text text-anchor="middle" x="328.5" y="-67.5" font-family="Helvetica,sans-Serif" font-size="10.00">ccf::TxReceipt</text>
</a>
</g>
</g>
<!-- Node2 -->
<g id="node2" class="node">
<title>Node2</title>
<g id="a_node2"><a xlink:title=" ">
<polygon fill="white" stroke="black" points="27,-126.5 27,-145.5 152,-145.5 152,-126.5 27,-126.5"/>
<text text-anchor="middle" x="89.5" y="-133.5" font-family="Helvetica,sans-Serif" font-size="10.00">std::vector&lt; uint8_t &gt;</text>
</a>
</g>
</g>
<!-- Node2&#45;&gt;Node1 -->
<g id="edge1" class="edge">
<title>Node2&#45;&gt;Node1</title>
<path fill="none" stroke="#9a32cd" stroke-dasharray="5,2" d="M156.29,-124.45C190.11,-117.69 231.74,-108.09 268,-96 281.69,-91.44 296.56,-84.94 308.02,-79.58"/>
<polygon fill="#9a32cd" stroke="#9a32cd" points="155.19,-121.09 146.05,-126.45 156.54,-127.96 155.19,-121.09"/>
<text text-anchor="middle" x="232.5" y="-117" font-family="Helvetica,sans-Serif" font-size="10.00"> signature</text>
</g>
<!-- Node3 -->
<g id="node3" class="node">
<title>Node3</title>
<g id="a_node3"><a xlink:title=" ">
<polygon fill="white" stroke="black" points="31.5,-77 31.5,-107 147.5,-107 147.5,-77 31.5,-77"/>
<text text-anchor="start" x="39.5" y="-95" font-family="Helvetica,sans-Serif" font-size="10.00">std::shared_ptr&lt; ccf</text>
<text text-anchor="middle" x="89.5" y="-84" font-family="Helvetica,sans-Serif" font-size="10.00">::HistoryTree::Path &gt;</text>
</a>
</g>
</g>
<!-- Node3&#45;&gt;Node1 -->
<g id="edge2" class="edge">
<title>Node3&#45;&gt;Node1</title>
<path fill="none" stroke="#9a32cd" stroke-dasharray="5,2" d="M157.54,-85.78C198.78,-81.95 250.33,-77.16 285.78,-73.87"/>
<polygon fill="#9a32cd" stroke="#9a32cd" points="157.2,-82.29 147.57,-86.7 157.85,-89.26 157.2,-82.29"/>
<text text-anchor="middle" x="232.5" y="-84" font-family="Helvetica,sans-Serif" font-size="10.00"> path</text>
</g>
<!-- Node4 -->
<g id="node4" class="node">
<title>Node4</title>
<g id="a_node4"><a xlink:href="structccf_1_1EntityId.html" target="_top" xlink:title=" ">
<polygon fill="white" stroke="black" points="0,-38.5 0,-57.5 179,-57.5 179,-38.5 0,-38.5"/>
<text text-anchor="middle" x="89.5" y="-45.5" font-family="Helvetica,sans-Serif" font-size="10.00">ccf::EntityId&lt; NodeIdFormatter &gt;</text>
</a>
</g>
</g>
<!-- Node4&#45;&gt;Node1 -->
<g id="edge3" class="edge">
<title>Node4&#45;&gt;Node1</title>
<path fill="none" stroke="#9a32cd" stroke-dasharray="5,2" d="M189.26,-52.93C214.94,-54.69 242.54,-57.01 268,-60 273.83,-60.68 279.95,-61.55 285.96,-62.48"/>
<polygon fill="#9a32cd" stroke="#9a32cd" points="189.35,-49.43 179.14,-52.26 188.89,-56.42 189.35,-49.43"/>
<text text-anchor="middle" x="232.5" y="-63" font-family="Helvetica,sans-Serif" font-size="10.00"> node_id</text>
</g>
<!-- Node5 -->
<g id="node5" class="node">
<title>Node5</title>
<g id="a_node5"><a xlink:href="classccf_1_1ClaimsDigest.html" target="_top" xlink:title=" ">
<polygon fill="white" stroke="black" points="39,-0.5 39,-19.5 140,-19.5 140,-0.5 39,-0.5"/>
<text text-anchor="middle" x="89.5" y="-7.5" font-family="Helvetica,sans-Serif" font-size="10.00">ccf::ClaimsDigest</text>
</a>
</g>
</g>
<!-- Node5&#45;&gt;Node1 -->
<g id="edge4" class="edge">
<title>Node5&#45;&gt;Node1</title>
<path fill="none" stroke="#9a32cd" stroke-dasharray="5,2" d="M150.23,-14.37C185.24,-18.17 229.92,-25.17 268,-38 284.23,-43.47 301.3,-53.11 312.97,-60.38"/>
<polygon fill="#9a32cd" stroke="#9a32cd" points="150.46,-10.87 140.16,-13.34 149.75,-17.84 150.46,-10.87"/>
<text text-anchor="middle" x="232.5" y="-41" font-family="Helvetica,sans-Serif" font-size="10.00"> claims_digest</text>
</g>
</g>
</svg>
