<?xml version="1.0" encoding="UTF-8" standalone="no"?>
<!DOCTYPE svg PUBLIC "-//W3C//DTD SVG 1.1//EN"
 "http://www.w3.org/Graphics/SVG/1.1/DTD/svg11.dtd">
<!-- Generated by graphviz version 2.43.0 (0)
 -->
<!-- Title: ccf::endpoints::ReadOnlyEndpointContext Pages: 1 -->
<!--zoomable 543 -->
<svg id="main" version="1.1" xmlns="http://www.w3.org/2000/svg" xmlns:xlink="http://www.w3.org/1999/xlink" xml:space="preserve" onload="init(evt)">
<style type="text/css"><![CDATA[
.edge:hover path { stroke: red; }
.edge:hover polygon { stroke: red; fill: red; }
]]></style>
<script type="text/javascript"><![CDATA[
var edges = document.getElementsByTagName('g');
if (edges && edges.length) {
  for (var i=0;i<edges.length;i++) {
    if (edges[i].id.substr(0,4)=='edge') {
      edges[i].setAttribute('class','edge');
    }
  }
}
]]></script>
        <defs>
                <circle id="rim" cx="0" cy="0" r="7"/>
                <circle id="rim2" cx="0" cy="0" r="3.5"/>
                <g id="zoomPlus">
                        <use xlink:href="#rim" fill="#404040">
                                <set attributeName="fill" to="#808080" begin="zoomplus.mouseover" end="zoomplus.mouseout"/>
                        </use>
                        <path d="M-4,0h8M0,-4v8" fill="none" stroke="white" stroke-width="1.5" pointer-events="none"/>
                </g>
                <g id="zoomMin">
                        <use xlink:href="#rim" fill="#404040">
                                <set attributeName="fill" to="#808080" begin="zoomminus.mouseover" end="zoomminus.mouseout"/>
                        </use>
                        <path d="M-4,0h8" fill="none" stroke="white" stroke-width="1.5" pointer-events="none"/>
                </g>
                <g id="dirArrow">
                        <path fill="none" stroke="white" stroke-width="1.5" d="M0,-3.0v7 M-2.5,-0.5L0,-3.0L2.5,-0.5"/>
                </g>
               <g id="resetDef">
                       <use xlink:href="#rim2" fill="#404040">
                               <set attributeName="fill" to="#808080" begin="reset.mouseover" end="reset.mouseout"/>
                       </use>
               </g>
        </defs>

<script type="text/javascript">
var viewWidth = 2278;
var viewHeight = 543;
var sectionId = 'dynsection-0';
</script>
<script xlink:href="svgpan.js"/>
<svg id="graph" class="graph">
<g id="viewport">
<title>ccf::endpoints::ReadOnlyEndpointContext</title>
<polygon fill="white" stroke="transparent" points="-4,4 -4,-539 2274,-539 2274,4 -4,4"/>
<!-- Node1 -->
<g id="node1" class="node">
<title>Node1</title>
<g id="a_node1"><a xlink:title=" ">
<polygon fill="#bfbfbf" stroke="black" points="2133,-414 2133,-444 2270,-444 2270,-414 2133,-414"/>
<text text-anchor="start" x="2141" y="-432" font-family="Helvetica,sans-Serif" font-size="10.00">ccf::endpoints::ReadOnly</text>
<text text-anchor="middle" x="2201.5" y="-421" font-family="Helvetica,sans-Serif" font-size="10.00">EndpointContext</text>
</a>
</g>
</g>
<!-- Node2 -->
<g id="node2" class="node">
<title>Node2</title>
<g id="a_node2"><a xlink:href="structccf_1_1endpoints_1_1CommandEndpointContext.html" target="_top" xlink:title=" ">
<polygon fill="white" stroke="black" points="1901,-436 1901,-466 2084,-466 2084,-436 1901,-436"/>
<text text-anchor="start" x="1909" y="-454" font-family="Helvetica,sans-Serif" font-size="10.00">ccf::endpoints::CommandEndpoint</text>
<text text-anchor="middle" x="1992.5" y="-443" font-family="Helvetica,sans-Serif" font-size="10.00">Context</text>
</a>
</g>
</g>
<!-- Node2&#45;&gt;Node1 -->
<g id="edge1" class="edge">
<title>Node2&#45;&gt;Node1</title>
<path fill="none" stroke="midnightblue" d="M2094.26,-440.29C2107.33,-438.9 2120.46,-437.51 2132.81,-436.19"/>
<polygon fill="midnightblue" stroke="midnightblue" points="2093.87,-436.81 2084.29,-441.35 2094.61,-443.77 2093.87,-436.81"/>
</g>
<!-- Node3 -->
<g id="node3" class="node">
<title>Node3</title>
<g id="a_node3"><a xlink:title=" ">
<polygon fill="white" stroke="black" points="1687,-436 1687,-466 1826,-466 1826,-436 1687,-436"/>
<text text-anchor="start" x="1695" y="-454" font-family="Helvetica,sans-Serif" font-size="10.00">std::shared_ptr&lt; enclave</text>
<text text-anchor="middle" x="1756.5" y="-443" font-family="Helvetica,sans-Serif" font-size="10.00">::RpcContext &gt;</text>
</a>
</g>
</g>
<!-- Node3&#45;&gt;Node2 -->
<g id="edge2" class="edge">
<title>Node3&#45;&gt;Node2</title>
<path fill="none" stroke="#9a32cd" stroke-dasharray="5,2" d="M1836.14,-451C1856.86,-451 1879.39,-451 1900.69,-451"/>
<polygon fill="#9a32cd" stroke="#9a32cd" points="1836.13,-447.5 1826.13,-451 1836.13,-454.5 1836.13,-447.5"/>
<text text-anchor="middle" x="1863.5" y="-454" font-family="Helvetica,sans-Serif" font-size="10.00"> rpc_ctx</text>
</g>
<!-- Node4 -->
<g id="node4" class="node">
<title>Node4</title>
<g id="a_node4"><a xlink:href="classenclave_1_1RpcContext.html" target="_top" xlink:title=" ">
<polygon fill="white" stroke="black" points="1495.5,-449.5 1495.5,-468.5 1612.5,-468.5 1612.5,-449.5 1495.5,-449.5"/>
<text text-anchor="middle" x="1554" y="-456.5" font-family="Helvetica,sans-Serif" font-size="10.00">enclave::RpcContext</text>
</a>
</g>
</g>
<!-- Node4&#45;&gt;Node3 -->
<g id="edge3" class="edge">
<title>Node4&#45;&gt;Node3</title>
<path fill="none" stroke="#9a32cd" stroke-dasharray="5,2" d="M1622.97,-456.29C1643.57,-455.47 1666.2,-454.56 1686.84,-453.74"/>
<polygon fill="#9a32cd" stroke="#9a32cd" points="1622.58,-452.8 1612.72,-456.7 1622.86,-459.8 1622.58,-452.8"/>
<text text-anchor="middle" x="1653.5" y="-458" font-family="Helvetica,sans-Serif" font-size="10.00"> ptr</text>
</g>
<!-- Node5 -->
<g id="node5" class="node">
<title>Node5</title>
<g id="a_node5"><a xlink:title=" ">
<polygon fill="white" stroke="black" points="1273,-466 1273,-496 1412,-496 1412,-466 1273,-466"/>
<text text-anchor="start" x="1281" y="-484" font-family="Helvetica,sans-Serif" font-size="10.00">std::shared_ptr&lt; enclave</text>
<text text-anchor="middle" x="1342.5" y="-473" font-family="Helvetica,sans-Serif" font-size="10.00">::SessionContext &gt;</text>
</a>
</g>
</g>
<!-- Node5&#45;&gt;Node4 -->
<g id="edge4" class="edge">
<title>Node5&#45;&gt;Node4</title>
<path fill="none" stroke="#9a32cd" stroke-dasharray="5,2" d="M1422.37,-472.72C1446.65,-470.17 1472.9,-467.41 1495.47,-465.04"/>
<polygon fill="#9a32cd" stroke="#9a32cd" points="1421.68,-469.27 1412.1,-473.8 1422.41,-476.23 1421.68,-469.27"/>
<text text-anchor="middle" x="1450" y="-474" font-family="Helvetica,sans-Serif" font-size="10.00"> session</text>
</g>
<!-- Node6 -->
<g id="node6" class="node">
<title>Node6</title>
<g id="a_node6"><a xlink:href="structenclave_1_1SessionContext.html" target="_top" xlink:title=" ">
<polygon fill="white" stroke="black" points="1027,-475.5 1027,-494.5 1164,-494.5 1164,-475.5 1027,-475.5"/>
<text text-anchor="middle" x="1095.5" y="-482.5" font-family="Helvetica,sans-Serif" font-size="10.00">enclave::SessionContext</text>
</a>
</g>
</g>
<!-- Node6&#45;&gt;Node5 -->
<g id="edge5" class="edge">
<title>Node6&#45;&gt;Node5</title>
<path fill="none" stroke="#9a32cd" stroke-dasharray="5,2" d="M1174.2,-483.73C1205.87,-483.21 1242.17,-482.62 1272.85,-482.12"/>
<polygon fill="#9a32cd" stroke="#9a32cd" points="1174.04,-480.23 1164.1,-483.9 1174.15,-487.23 1174.04,-480.23"/>
<text text-anchor="middle" x="1218.5" y="-486" font-family="Helvetica,sans-Serif" font-size="10.00"> ptr</text>
</g>
<!-- Node7 -->
<g id="node7" class="node">
<title>Node7</title>
<g id="a_node7"><a xlink:title=" ">
<polygon fill="white" stroke="black" points="807.5,-499.5 807.5,-518.5 932.5,-518.5 932.5,-499.5 807.5,-499.5"/>
<text text-anchor="middle" x="870" y="-506.5" font-family="Helvetica,sans-Serif" font-size="10.00">std::vector&lt; uint8_t &gt;</text>
</a>
</g>
</g>
<!-- Node7&#45;&gt;Node4 -->
<g id="edge7" class="edge">
<title>Node7&#45;&gt;Node4</title>
<path fill="none" stroke="#9a32cd" stroke-dasharray="5,2" d="M942.9,-515.9C1047.15,-524.26 1245.96,-534 1412,-506 1414.89,-505.51 1484.55,-482.09 1524.86,-468.5"/>
<polygon fill="#9a32cd" stroke="#9a32cd" points="943.06,-512.4 932.81,-515.07 942.49,-519.38 943.06,-512.4"/>
<text text-anchor="middle" x="1218.5" y="-527" font-family="Helvetica,sans-Serif" font-size="10.00"> bft_raw</text>
</g>
<!-- Node7&#45;&gt;Node6 -->
<g id="edge6" class="edge">
<title>Node7&#45;&gt;Node6</title>
<path fill="none" stroke="#9a32cd" stroke-dasharray="5,2" d="M942.76,-501.21C946.56,-500.8 950.33,-500.4 954,-500 977.78,-497.44 1003.83,-494.66 1026.96,-492.19"/>
<polygon fill="#9a32cd" stroke="#9a32cd" points="942.21,-497.75 932.64,-502.3 942.96,-504.71 942.21,-497.75"/>
<text text-anchor="middle" x="981.5" y="-503" font-family="Helvetica,sans-Serif" font-size="10.00"> caller_cert</text>
</g>
<!-- Node8 -->
<g id="node8" class="node">
<title>Node8</title>
<g id="a_node8"><a xlink:href="classccf_1_1ClaimsDigest.html" target="_top" xlink:title=" ">
<polygon fill="white" stroke="black" points="1292,-427.5 1292,-446.5 1393,-446.5 1393,-427.5 1292,-427.5"/>
<text text-anchor="middle" x="1342.5" y="-434.5" font-family="Helvetica,sans-Serif" font-size="10.00">ccf::ClaimsDigest</text>
</a>
</g>
</g>
<!-- Node8&#45;&gt;Node4 -->
<g id="edge8" class="edge">
<title>Node8&#45;&gt;Node4</title>
<path fill="none" stroke="#9a32cd" stroke-dasharray="5,2" d="M1403.11,-443.26C1431.99,-446.29 1466.53,-449.92 1495.17,-452.93"/>
<polygon fill="#9a32cd" stroke="#9a32cd" points="1403.46,-439.78 1393.15,-442.21 1402.73,-446.74 1403.46,-439.78"/>
<text text-anchor="middle" x="1450" y="-452" font-family="Helvetica,sans-Serif" font-size="10.00"> claims</text>
</g>
<!-- Node9 -->
<g id="node9" class="node">
<title>Node9</title>
<g id="a_node9"><a xlink:title=" ">
<polygon fill="white" stroke="black" points="1699,-485 1699,-515 1814,-515 1814,-485 1699,-485"/>
<text text-anchor="start" x="1707" y="-503" font-family="Helvetica,sans-Serif" font-size="10.00">std::unique_ptr&lt; ccf</text>
<text text-anchor="middle" x="1756.5" y="-492" font-family="Helvetica,sans-Serif" font-size="10.00">::AuthnIdentity &gt;</text>
</a>
</g>
</g>
<!-- Node9&#45;&gt;Node2 -->
<g id="edge9" class="edge">
<title>Node9&#45;&gt;Node2</title>
<path fill="none" stroke="#9a32cd" stroke-dasharray="5,2" d="M1824.07,-486.06C1853.99,-479.8 1889.35,-472.39 1919.85,-466"/>
<polygon fill="#9a32cd" stroke="#9a32cd" points="1823.22,-482.66 1814.14,-488.14 1824.65,-489.51 1823.22,-482.66"/>
<text text-anchor="middle" x="1863.5" y="-484" font-family="Helvetica,sans-Serif" font-size="10.00"> caller</text>
</g>
<!-- Node10 -->
<g id="node10" class="node">
<title>Node10</title>
<g id="a_node10"><a xlink:href="structccf_1_1AuthnIdentity.html" target="_top" xlink:title=" ">
<polygon fill="white" stroke="black" points="1503,-490.5 1503,-509.5 1605,-509.5 1605,-490.5 1503,-490.5"/>
<text text-anchor="middle" x="1554" y="-497.5" font-family="Helvetica,sans-Serif" font-size="10.00">ccf::AuthnIdentity</text>
</a>
</g>
</g>
<!-- Node10&#45;&gt;Node9 -->
<g id="edge10" class="edge">
<title>Node10&#45;&gt;Node9</title>
<path fill="none" stroke="#9a32cd" stroke-dasharray="5,2" d="M1615.39,-500C1641.92,-500 1672.91,-500 1698.99,-500"/>
<polygon fill="#9a32cd" stroke="#9a32cd" points="1615.08,-496.5 1605.08,-500 1615.08,-503.5 1615.08,-496.5"/>
<text text-anchor="middle" x="1653.5" y="-503" font-family="Helvetica,sans-Serif" font-size="10.00"> ptr</text>
</g>
<!-- Node11 -->
<g id="node11" class="node">
<title>Node11</title>
<g id="a_node11"><a xlink:href="classkv_1_1ReadOnlyTx.html" target="_top" xlink:title=" ">
<polygon fill="white" stroke="black" points="1946,-397.5 1946,-416.5 2039,-416.5 2039,-397.5 1946,-397.5"/>
<text text-anchor="middle" x="1992.5" y="-404.5" font-family="Helvetica,sans-Serif" font-size="10.00">kv::ReadOnlyTx</text>
</a>
</g>
</g>
<!-- Node11&#45;&gt;Node1 -->
<g id="edge11" class="edge">
<title>Node11&#45;&gt;Node1</title>
<path fill="none" stroke="#9a32cd" stroke-dasharray="5,2" d="M2049.16,-412.92C2074.95,-415.66 2105.81,-418.94 2132.92,-421.82"/>
<polygon fill="#9a32cd" stroke="#9a32cd" points="2049.5,-409.43 2039.18,-411.86 2048.76,-416.39 2049.5,-409.43"/>
<text text-anchor="middle" x="2108.5" y="-422" font-family="Helvetica,sans-Serif" font-size="10.00"> tx</text>
</g>
<!-- Node12 -->
<g id="node12" class="node">
<title>Node12</title>
<g id="a_node12"><a xlink:href="classkv_1_1BaseTx.html" target="_top" xlink:title=" ">
<polygon fill="white" stroke="black" points="1721.5,-389.5 1721.5,-408.5 1791.5,-408.5 1791.5,-389.5 1721.5,-389.5"/>
<text text-anchor="middle" x="1756.5" y="-396.5" font-family="Helvetica,sans-Serif" font-size="10.00">kv::BaseTx</text>
</a>
</g>
</g>
<!-- Node12&#45;&gt;Node11 -->
<g id="edge12" class="edge">
<title>Node12&#45;&gt;Node11</title>
<path fill="none" stroke="midnightblue" d="M1801.54,-400.51C1842.74,-401.91 1904.02,-404.01 1945.76,-405.44"/>
<polygon fill="midnightblue" stroke="midnightblue" points="1801.64,-397.01 1791.53,-400.16 1801.4,-404 1801.64,-397.01"/>
</g>
<!-- Node13 -->
<g id="node13" class="node">
<title>Node13</title>
<g id="a_node13"><a xlink:title=" ">
<polygon fill="white" stroke="black" points="1488,-384 1488,-414 1620,-414 1620,-384 1488,-384"/>
<text text-anchor="start" x="1496" y="-402" font-family="Helvetica,sans-Serif" font-size="10.00">std::unique_ptr&lt; kv</text>
<text text-anchor="middle" x="1554" y="-391" font-family="Helvetica,sans-Serif" font-size="10.00">::BaseTx::PrivateImpl &gt;</text>
</a>
</g>
</g>
<!-- Node13&#45;&gt;Node12 -->
<g id="edge13" class="edge">
<title>Node13&#45;&gt;Node12</title>
<path fill="none" stroke="#9a32cd" stroke-dasharray="5,2" d="M1630.14,-399C1661.49,-399 1696.34,-399 1721.33,-399"/>
<polygon fill="#9a32cd" stroke="#9a32cd" points="1630.1,-395.5 1620.1,-399 1630.1,-402.5 1630.1,-395.5"/>
<text text-anchor="middle" x="1653.5" y="-402" font-family="Helvetica,sans-Serif" font-size="10.00"> pimpl</text>
</g>
<!-- Node14 -->
<g id="node14" class="node">
<title>Node14</title>
<g id="a_node14"><a xlink:href="structkv_1_1BaseTx_1_1PrivateImpl.html" target="_top" xlink:title=" ">
<polygon fill="white" stroke="black" points="1276.5,-389.5 1276.5,-408.5 1408.5,-408.5 1408.5,-389.5 1276.5,-389.5"/>
<text text-anchor="middle" x="1342.5" y="-396.5" font-family="Helvetica,sans-Serif" font-size="10.00">kv::BaseTx::PrivateImpl</text>
</a>
</g>
</g>
<!-- Node14&#45;&gt;Node13 -->
<g id="edge14" class="edge">
<title>Node14&#45;&gt;Node13</title>
<path fill="none" stroke="#9a32cd" stroke-dasharray="5,2" d="M1418.86,-399C1441.45,-399 1466.03,-399 1487.9,-399"/>
<polygon fill="#9a32cd" stroke="#9a32cd" points="1418.64,-395.5 1408.64,-399 1418.64,-402.5 1418.64,-395.5"/>
<text text-anchor="middle" x="1450" y="-402" font-family="Helvetica,sans-Serif" font-size="10.00"> ptr</text>
</g>
<!-- Node15 -->
<g id="node15" class="node">
<title>Node15</title>
<g id="a_node15"><a xlink:href="classkv_1_1AbstractStore.html" target="_top" xlink:title=" ">
<polygon fill="white" stroke="black" points="1045.5,-431.5 1045.5,-450.5 1145.5,-450.5 1145.5,-431.5 1045.5,-431.5"/>
<text text-anchor="middle" x="1095.5" y="-438.5" font-family="Helvetica,sans-Serif" font-size="10.00">kv::AbstractStore</text>
</a>
</g>
</g>
<!-- Node15&#45;&gt;Node14 -->
<g id="edge15" class="edge">
<title>Node15&#45;&gt;Node14</title>
<path fill="none" stroke="#9a32cd" stroke-dasharray="5,2" d="M1155.77,-432.81C1185.6,-428.49 1222.29,-422.88 1255,-417 1269.04,-414.48 1284.3,-411.41 1298.03,-408.53"/>
<polygon fill="#9a32cd" stroke="#9a32cd" points="1154.93,-429.4 1145.52,-434.29 1155.92,-436.33 1154.93,-429.4"/>
<text text-anchor="middle" x="1218.5" y="-431" font-family="Helvetica,sans-Serif" font-size="10.00"> store</text>
</g>
<!-- Node16 -->
<g id="node16" class="node">
<title>Node16</title>
<g id="a_node16"><a xlink:title=" ">
<polygon fill="white" stroke="black" points="375,-388 375,-418 497,-418 497,-388 375,-388"/>
<text text-anchor="start" x="383" y="-406" font-family="Helvetica,sans-Serif" font-size="10.00">std::map&lt; std::string,</text>
<text text-anchor="middle" x="436" y="-395" font-family="Helvetica,sans-Serif" font-size="10.00"> PossibleHandles &gt;</text>
</a>
</g>
</g>
<!-- Node16&#45;&gt;Node14 -->
<g id="edge16" class="edge">
<title>Node16&#45;&gt;Node14</title>
<path fill="none" stroke="#9a32cd" stroke-dasharray="5,2" d="M507.31,-403C554.69,-403 618.61,-403 675,-403 675,-403 675,-403 1096.5,-403 1157.44,-403 1226.89,-401.75 1276.25,-400.64"/>
<polygon fill="#9a32cd" stroke="#9a32cd" points="507.16,-399.5 497.16,-403 507.16,-406.5 507.16,-399.5"/>
<text text-anchor="middle" x="870" y="-406" font-family="Helvetica,sans-Serif" font-size="10.00"> all_handles</text>
</g>
<!-- Node17 -->
<g id="node17" class="node">
<title>Node17</title>
<g id="a_node17"><a xlink:title=" ">
<polygon fill="white" stroke="black" points="197,-318.5 197,-337.5 262,-337.5 262,-318.5 197,-318.5"/>
<text text-anchor="middle" x="229.5" y="-325.5" font-family="Helvetica,sans-Serif" font-size="10.00">std::string</text>
</a>
</g>
</g>
<!-- Node17&#45;&gt;Node16 -->
<g id="edge17" class="edge">
<title>Node17&#45;&gt;Node16</title>
<path fill="none" stroke="#9a32cd" stroke-dasharray="5,2" d="M253.02,-343.18C263.35,-349.64 275.95,-356.86 288,-362 315.66,-373.79 347.69,-383.19 374.78,-389.99"/>
<polygon fill="#9a32cd" stroke="#9a32cd" points="254.9,-340.23 244.6,-337.76 251.11,-346.11 254.9,-340.23"/>
<text text-anchor="middle" x="312.5" y="-383" font-family="Helvetica,sans-Serif" font-size="10.00"> keys</text>
</g>
<!-- Node21 -->
<g id="node21" class="node">
<title>Node21</title>
<g id="a_node21"><a xlink:title=" ">
<polygon fill="white" stroke="black" points="1034.5,-333.5 1034.5,-374.5 1156.5,-374.5 1156.5,-333.5 1034.5,-333.5"/>
<text text-anchor="start" x="1042.5" y="-362.5" font-family="Helvetica,sans-Serif" font-size="10.00">std::map&lt; std::string,</text>
<text text-anchor="start" x="1042.5" y="-351.5" font-family="Helvetica,sans-Serif" font-size="10.00"> std::shared_ptr&lt; kv</text>
<text text-anchor="middle" x="1095.5" y="-340.5" font-family="Helvetica,sans-Serif" font-size="10.00">::AbstractMap &gt; &gt;</text>
</a>
</g>
</g>
<!-- Node17&#45;&gt;Node21 -->
<g id="edge22" class="edge">
<title>Node17&#45;&gt;Node21</title>
<path fill="none" stroke="#9a32cd" stroke-dasharray="5,2" d="M272.2,-335.46C313.42,-342.18 378.35,-351 435,-351 435,-351 435,-351 871,-351 926.3,-351 989.28,-351.93 1034.27,-352.75"/>
<polygon fill="#9a32cd" stroke="#9a32cd" points="272.69,-331.99 262.26,-333.8 271.55,-338.9 272.69,-331.99"/>
<text text-anchor="middle" x="676" y="-354" font-family="Helvetica,sans-Serif" font-size="10.00"> keys</text>
</g>
<!-- Node25 -->
<g id="node25" class="node">
<title>Node25</title>
<g id="a_node25"><a xlink:href="structkv_1_1GetName.html" target="_top" xlink:title=" ">
<polygon fill="white" stroke="black" points="396,-257.5 396,-276.5 476,-276.5 476,-257.5 396,-257.5"/>
<text text-anchor="middle" x="436" y="-264.5" font-family="Helvetica,sans-Serif" font-size="10.00">kv::GetName</text>
</a>
</g>
</g>
<!-- Node17&#45;&gt;Node25 -->
<g id="edge27" class="edge">
<title>Node17&#45;&gt;Node25</title>
<path fill="none" stroke="#9a32cd" stroke-dasharray="5,2" d="M245.6,-310.89C256.27,-300.03 271.56,-286.79 288,-280 322.45,-265.76 365.23,-263.51 395.74,-264.22"/>
<polygon fill="#9a32cd" stroke="#9a32cd" points="242.98,-308.56 238.69,-318.25 248.09,-313.35 242.98,-308.56"/>
<text text-anchor="middle" x="312.5" y="-283" font-family="Helvetica,sans-Serif" font-size="10.00"> name</text>
</g>
<!-- Node26 -->
<g id="node26" class="node">
<title>Node26</title>
<g id="a_node26"><a xlink:title=" ">
<polygon fill="white" stroke="black" points="1281.5,-290 1281.5,-320 1403.5,-320 1403.5,-290 1281.5,-290"/>
<text text-anchor="start" x="1289.5" y="-308" font-family="Helvetica,sans-Serif" font-size="10.00">std::map&lt; std::string,</text>
<text text-anchor="middle" x="1342.5" y="-297" font-family="Helvetica,sans-Serif" font-size="10.00"> MapChanges &gt;</text>
</a>
</g>
</g>
<!-- Node17&#45;&gt;Node26 -->
<g id="edge29" class="edge">
<title>Node17&#45;&gt;Node26</title>
<path fill="none" stroke="#9a32cd" stroke-dasharray="5,2" d="M272.2,-320.54C313.42,-313.82 378.35,-305 435,-305 435,-305 435,-305 1096.5,-305 1159.56,-305 1231.74,-305 1281.34,-305"/>
<polygon fill="#9a32cd" stroke="#9a32cd" points="271.55,-317.1 262.26,-322.2 272.69,-324.01 271.55,-317.1"/>
<text text-anchor="middle" x="773" y="-308" font-family="Helvetica,sans-Serif" font-size="10.00"> keys</text>
</g>
<!-- Node18 -->
<g id="node18" class="node">
<title>Node18</title>
<g id="a_node18"><a xlink:title=" ">
<polygon fill="white" stroke="black" points="0,-313 0,-343 104,-343 104,-313 0,-313"/>
<text text-anchor="start" x="8" y="-331" font-family="Helvetica,sans-Serif" font-size="10.00">std::basic_string&lt;</text>
<text text-anchor="middle" x="52" y="-320" font-family="Helvetica,sans-Serif" font-size="10.00"> Char &gt;</text>
</a>
</g>
</g>
<!-- Node18&#45;&gt;Node17 -->
<g id="edge18" class="edge">
<title>Node18&#45;&gt;Node17</title>
<path fill="none" stroke="midnightblue" d="M114.28,-328C142.11,-328 173.85,-328 196.8,-328"/>
<polygon fill="midnightblue" stroke="midnightblue" points="114.23,-324.5 104.23,-328 114.23,-331.5 114.23,-324.5"/>
</g>
<!-- Node19 -->
<g id="node19" class="node">
<title>Node19</title>
<g id="a_node19"><a xlink:title=" ">
<polygon fill="white" stroke="black" points="189,-408.5 189,-427.5 270,-427.5 270,-408.5 189,-408.5"/>
<text text-anchor="middle" x="229.5" y="-415.5" font-family="Helvetica,sans-Serif" font-size="10.00">std::list&lt; T &gt;</text>
</a>
</g>
</g>
<!-- Node19&#45;&gt;Node16 -->
<g id="edge19" class="edge">
<title>Node19&#45;&gt;Node16</title>
<path fill="none" stroke="#9a32cd" stroke-dasharray="5,2" d="M280.52,-414.33C308.92,-412.25 344.68,-409.63 374.63,-407.43"/>
<polygon fill="#9a32cd" stroke="#9a32cd" points="280.13,-410.85 270.42,-415.07 280.64,-417.83 280.13,-410.85"/>
<text text-anchor="middle" x="312.5" y="-417" font-family="Helvetica,sans-Serif" font-size="10.00"> elements</text>
</g>
<!-- Node20 -->
<g id="node20" class="node">
<title>Node20</title>
<g id="a_node20"><a xlink:title=" ">
<polygon fill="white" stroke="black" points="37.5,-408.5 37.5,-427.5 66.5,-427.5 66.5,-408.5 37.5,-408.5"/>
<text text-anchor="middle" x="52" y="-415.5" font-family="Helvetica,sans-Serif" font-size="10.00">T</text>
</a>
</g>
</g>
<!-- Node20&#45;&gt;Node19 -->
<g id="edge20" class="edge">
<title>Node20&#45;&gt;Node19</title>
<path fill="none" stroke="#9a32cd" stroke-dasharray="5,2" d="M77.13,-418C105.96,-418 154.61,-418 188.96,-418"/>
<polygon fill="#9a32cd" stroke="#9a32cd" points="76.77,-414.5 66.77,-418 76.77,-421.5 76.77,-414.5"/>
<text text-anchor="middle" x="146.5" y="-421" font-family="Helvetica,sans-Serif" font-size="10.00"> elements</text>
</g>
<!-- Node21&#45;&gt;Node14 -->
<g id="edge21" class="edge">
<title>Node21&#45;&gt;Node14</title>
<path fill="none" stroke="#9a32cd" stroke-dasharray="5,2" d="M1166.53,-363.25C1194.18,-367.26 1226.18,-372.33 1255,-378 1271.53,-381.25 1289.66,-385.54 1305.04,-389.4"/>
<polygon fill="#9a32cd" stroke="#9a32cd" points="1166.95,-359.78 1156.55,-361.82 1165.95,-366.7 1166.95,-359.78"/>
<text text-anchor="middle" x="1218.5" y="-381" font-family="Helvetica,sans-Serif" font-size="10.00"> created_maps</text>
</g>
<!-- Node22 -->
<g id="node22" class="node">
<title>Node22</title>
<g id="a_node22"><a xlink:title=" ">
<polygon fill="white" stroke="black" points="813.5,-236 813.5,-266 926.5,-266 926.5,-236 813.5,-236"/>
<text text-anchor="start" x="821.5" y="-254" font-family="Helvetica,sans-Serif" font-size="10.00">std::shared_ptr&lt; kv</text>
<text text-anchor="middle" x="870" y="-243" font-family="Helvetica,sans-Serif" font-size="10.00">::AbstractMap &gt;</text>
</a>
</g>
</g>
<!-- Node22&#45;&gt;Node21 -->
<g id="edge23" class="edge">
<title>Node22&#45;&gt;Node21</title>
<path fill="none" stroke="#9a32cd" stroke-dasharray="5,2" d="M913.47,-270.57C952.49,-288.55 1010.1,-315.1 1049.8,-333.4"/>
<polygon fill="#9a32cd" stroke="#9a32cd" points="914.53,-267.2 903.98,-266.2 911.6,-273.56 914.53,-267.2"/>
<text text-anchor="middle" x="981.5" y="-315" font-family="Helvetica,sans-Serif" font-size="10.00"> elements</text>
</g>
<!-- Node27 -->
<g id="node27" class="node">
<title>Node27</title>
<g id="a_node27"><a xlink:href="structkv_1_1MapChanges.html" target="_top" xlink:title=" ">
<polygon fill="white" stroke="black" points="1047,-235.5 1047,-254.5 1144,-254.5 1144,-235.5 1047,-235.5"/>
<text text-anchor="middle" x="1095.5" y="-242.5" font-family="Helvetica,sans-Serif" font-size="10.00">kv::MapChanges</text>
</a>
</g>
</g>
<!-- Node22&#45;&gt;Node27 -->
<g id="edge31" class="edge">
<title>Node22&#45;&gt;Node27</title>
<path fill="none" stroke="#9a32cd" stroke-dasharray="5,2" d="M937.07,-246.7C942.8,-246.43 948.5,-246.19 954,-246 984.84,-244.96 1019.51,-244.71 1046.69,-244.71"/>
<polygon fill="#9a32cd" stroke="#9a32cd" points="936.6,-243.22 926.79,-247.23 936.96,-250.21 936.6,-243.22"/>
<text text-anchor="middle" x="981.5" y="-249" font-family="Helvetica,sans-Serif" font-size="10.00"> map</text>
</g>
<!-- Node23 -->
<g id="node23" class="node">
<title>Node23</title>
<g id="a_node23"><a xlink:href="classkv_1_1AbstractMap.html" target="_top" xlink:title=" ">
<polygon fill="white" stroke="black" points="628.5,-241.5 628.5,-260.5 723.5,-260.5 723.5,-241.5 628.5,-241.5"/>
<text text-anchor="middle" x="676" y="-248.5" font-family="Helvetica,sans-Serif" font-size="10.00">kv::AbstractMap</text>
</a>
</g>
</g>
<!-- Node23&#45;&gt;Node22 -->
<g id="edge24" class="edge">
<title>Node23&#45;&gt;Node22</title>
<path fill="none" stroke="#9a32cd" stroke-dasharray="5,2" d="M734.06,-251C759.11,-251 788.41,-251 813.31,-251"/>
<polygon fill="#9a32cd" stroke="#9a32cd" points="733.97,-247.5 723.97,-251 733.97,-254.5 733.97,-247.5"/>
<text text-anchor="middle" x="773" y="-254" font-family="Helvetica,sans-Serif" font-size="10.00"> ptr</text>
</g>
<!-- Node24 -->
<g id="node24" class="node">
<title>Node24</title>
<g id="a_node24"><a xlink:title=" ">
<polygon fill="white" stroke="black" points="360,-208 360,-238 512,-238 512,-208 360,-208"/>
<text text-anchor="start" x="368" y="-226" font-family="Helvetica,sans-Serif" font-size="10.00">std::enable_shared</text>
<text text-anchor="middle" x="436" y="-215" font-family="Helvetica,sans-Serif" font-size="10.00">_from_this&lt; AbstractMap &gt;</text>
</a>
</g>
</g>
<!-- Node24&#45;&gt;Node23 -->
<g id="edge25" class="edge">
<title>Node24&#45;&gt;Node23</title>
<path fill="none" stroke="midnightblue" d="M522.24,-233.03C557.93,-237.23 598.03,-241.95 628.19,-245.49"/>
<polygon fill="midnightblue" stroke="midnightblue" points="522.65,-229.55 512.3,-231.86 521.83,-236.5 522.65,-229.55"/>
</g>
<!-- Node25&#45;&gt;Node23 -->
<g id="edge26" class="edge">
<title>Node25&#45;&gt;Node23</title>
<path fill="none" stroke="midnightblue" d="M486.23,-263.69C527.89,-260.89 587.2,-256.9 628.17,-254.15"/>
<polygon fill="midnightblue" stroke="midnightblue" points="485.78,-260.21 476.03,-264.38 486.25,-267.2 485.78,-260.21"/>
</g>
<!-- Node26&#45;&gt;Node12 -->
<g id="edge28" class="edge">
<title>Node26&#45;&gt;Node12</title>
<path fill="none" stroke="#9a32cd" stroke-dasharray="5,2" d="M1413.39,-318.6C1469.43,-329.76 1550,-346.37 1620,-363 1654.81,-371.27 1694.32,-381.91 1721.66,-389.48"/>
<polygon fill="#9a32cd" stroke="#9a32cd" points="1414.06,-315.16 1403.57,-316.65 1412.7,-322.03 1414.06,-315.16"/>
<text text-anchor="middle" x="1554" y="-366" font-family="Helvetica,sans-Serif" font-size="10.00"> all_changes</text>
</g>
<!-- Node27&#45;&gt;Node26 -->
<g id="edge30" class="edge">
<title>Node27&#45;&gt;Node26</title>
<path fill="none" stroke="#9a32cd" stroke-dasharray="5,2" d="M1153.46,-256.66C1183.73,-263.08 1221.51,-271.47 1255,-280 1266.82,-283.01 1279.46,-286.5 1291.33,-289.91"/>
<polygon fill="#9a32cd" stroke="#9a32cd" points="1154.01,-253.19 1143.5,-254.55 1152.56,-260.04 1154.01,-253.19"/>
<text text-anchor="middle" x="1218.5" y="-283" font-family="Helvetica,sans-Serif" font-size="10.00"> elements</text>
</g>
<!-- Node28 -->
<g id="node28" class="node">
<title>Node28</title>
<g id="a_node28"><a xlink:title=" ">
<polygon fill="white" stroke="black" points="804,-162 804,-192 936,-192 936,-162 804,-162"/>
<text text-anchor="start" x="812" y="-180" font-family="Helvetica,sans-Serif" font-size="10.00">std::unique_ptr&lt; kv</text>
<text text-anchor="middle" x="870" y="-169" font-family="Helvetica,sans-Serif" font-size="10.00">::untyped::ChangeSet &gt;</text>
</a>
</g>
</g>
<!-- Node28&#45;&gt;Node27 -->
<g id="edge32" class="edge">
<title>Node28&#45;&gt;Node27</title>
<path fill="none" stroke="#9a32cd" stroke-dasharray="5,2" d="M930.05,-194.97C972.77,-207.96 1028.81,-225.01 1063.21,-235.48"/>
<polygon fill="#9a32cd" stroke="#9a32cd" points="930.91,-191.57 920.32,-192.01 928.87,-198.27 930.91,-191.57"/>
<text text-anchor="middle" x="981.5" y="-221" font-family="Helvetica,sans-Serif" font-size="10.00"> changeset</text>
</g>
<!-- Node29 -->
<g id="node29" class="node">
<title>Node29</title>
<g id="a_node29"><a xlink:href="structkv_1_1untyped_1_1ChangeSet.html" target="_top" xlink:title=" ">
<polygon fill="white" stroke="black" points="610,-87.5 610,-106.5 742,-106.5 742,-87.5 610,-87.5"/>
<text text-anchor="middle" x="676" y="-94.5" font-family="Helvetica,sans-Serif" font-size="10.00">kv::untyped::ChangeSet</text>
</a>
</g>
</g>
<!-- Node29&#45;&gt;Node28 -->
<g id="edge33" class="edge">
<title>Node29&#45;&gt;Node28</title>
<path fill="none" stroke="#9a32cd" stroke-dasharray="5,2" d="M709.7,-110.62C743.94,-124.89 797.56,-147.24 832.99,-162"/>
<polygon fill="#9a32cd" stroke="#9a32cd" points="710.74,-107.27 700.16,-106.65 708.04,-113.73 710.74,-107.27"/>
<text text-anchor="middle" x="773" y="-145" font-family="Helvetica,sans-Serif" font-size="10.00"> ptr</text>
</g>
<!-- Node30 -->
<g id="node30" class="node">
<title>Node30</title>
<g id="a_node30"><a xlink:href="classkv_1_1AbstractChangeSet.html" target="_top" xlink:title=" ">
<polygon fill="white" stroke="black" points="372.5,-38.5 372.5,-57.5 499.5,-57.5 499.5,-38.5 372.5,-38.5"/>
<text text-anchor="middle" x="436" y="-45.5" font-family="Helvetica,sans-Serif" font-size="10.00">kv::AbstractChangeSet</text>
</a>
</g>
</g>
<!-- Node30&#45;&gt;Node29 -->
<g id="edge34" class="edge">
<title>Node30&#45;&gt;Node29</title>
<path fill="none" stroke="midnightblue" d="M493.07,-59.54C534.33,-68.04 589.76,-79.45 628.55,-87.44"/>
<polygon fill="midnightblue" stroke="midnightblue" points="493.67,-56.09 483.17,-57.51 492.26,-62.95 493.67,-56.09"/>
</g>
<!-- Node31 -->
<g id="node31" class="node">
<title>Node31</title>
<g id="a_node31"><a xlink:href="classchamp_1_1Map.html" target="_top" xlink:title=" ">
<polygon fill="white" stroke="black" points="370,-0.5 370,-19.5 502,-19.5 502,-0.5 370,-0.5"/>
<text text-anchor="middle" x="436" y="-7.5" font-family="Helvetica,sans-Serif" font-size="10.00">champ::Map&lt; K, V, H &gt;</text>
</a>
</g>
</g>
<!-- Node31&#45;&gt;Node29 -->
<g id="edge35" class="edge">
<title>Node31&#45;&gt;Node29</title>
<path fill="none" stroke="#9a32cd" stroke-dasharray="5,2" d="M512.39,-21.01C538.24,-26.22 566.94,-33.64 592,-44 619.33,-55.3 647.63,-75.53 663.1,-87.46"/>
<polygon fill="#9a32cd" stroke="#9a32cd" points="512.75,-17.51 502.27,-19.05 511.42,-24.39 512.75,-17.51"/>
<text text-anchor="middle" x="563.5" y="-58" font-family="Helvetica,sans-Serif" font-size="10.00"> committed</text>
<text text-anchor="middle" x="563.5" y="-47" font-family="Helvetica,sans-Serif" font-size="10.00">state</text>
</g>
<!-- Node32 -->
<g id="node32" class="node">
<title>Node32</title>
<g id="a_node32"><a xlink:title=" ">
<polygon fill="white" stroke="black" points="355,-76.5 355,-117.5 517,-117.5 517,-76.5 355,-76.5"/>
<text text-anchor="start" x="363" y="-105.5" font-family="Helvetica,sans-Serif" font-size="10.00">std::map&lt; K, std::tuple</text>
<text text-anchor="start" x="363" y="-94.5" font-family="Helvetica,sans-Serif" font-size="10.00">&lt; DeletableVersion, LastRead</text>
<text text-anchor="middle" x="436" y="-83.5" font-family="Helvetica,sans-Serif" font-size="10.00">Version &gt; &gt;</text>
</a>
</g>
</g>
<!-- Node32&#45;&gt;Node29 -->
<g id="edge36" class="edge">
<title>Node32&#45;&gt;Node29</title>
<path fill="none" stroke="#9a32cd" stroke-dasharray="5,2" d="M527.6,-97C554.93,-97 584.38,-97 609.72,-97"/>
<polygon fill="#9a32cd" stroke="#9a32cd" points="527.24,-93.5 517.24,-97 527.24,-100.5 527.24,-93.5"/>
<text text-anchor="middle" x="563.5" y="-100" font-family="Helvetica,sans-Serif" font-size="10.00"> reads</text>
</g>
<!-- Node33 -->
<g id="node33" class="node">
<title>Node33</title>
<g id="a_node33"><a xlink:title=" ">
<polygon fill="white" stroke="black" points="215,-87.5 215,-106.5 244,-106.5 244,-87.5 215,-87.5"/>
<text text-anchor="middle" x="229.5" y="-94.5" font-family="Helvetica,sans-Serif" font-size="10.00">K</text>
</a>
</g>
</g>
<!-- Node33&#45;&gt;Node32 -->
<g id="edge37" class="edge">
<title>Node33&#45;&gt;Node32</title>
<path fill="none" stroke="#9a32cd" stroke-dasharray="5,2" d="M254.43,-97C279.08,-97 318.88,-97 354.84,-97"/>
<polygon fill="#9a32cd" stroke="#9a32cd" points="254.24,-93.5 244.24,-97 254.24,-100.5 254.24,-93.5"/>
<text text-anchor="middle" x="312.5" y="-100" font-family="Helvetica,sans-Serif" font-size="10.00"> keys</text>
</g>
<!-- Node34 -->
<g id="node34" class="node">
<title>Node34</title>
<g id="a_node34"><a xlink:title=" ">
<polygon fill="white" stroke="black" points="365.5,-137 365.5,-189 506.5,-189 506.5,-137 365.5,-137"/>
<text text-anchor="start" x="373.5" y="-177" font-family="Helvetica,sans-Serif" font-size="10.00">std::map&lt; kv::serialisers</text>
<text text-anchor="start" x="373.5" y="-166" font-family="Helvetica,sans-Serif" font-size="10.00">::SerialisedEntry, std</text>
<text text-anchor="start" x="373.5" y="-155" font-family="Helvetica,sans-Serif" font-size="10.00">::optional&lt; kv::serialisers</text>
<text text-anchor="middle" x="436" y="-144" font-family="Helvetica,sans-Serif" font-size="10.00">::SerialisedEntry &gt; &gt;</text>
</a>
</g>
</g>
<!-- Node34&#45;&gt;Node29 -->
<g id="edge38" class="edge">
<title>Node34&#45;&gt;Node29</title>
<path fill="none" stroke="#9a32cd" stroke-dasharray="5,2" d="M516.5,-140.95C558.66,-129.26 608.28,-115.5 640.62,-106.53"/>
<polygon fill="#9a32cd" stroke="#9a32cd" points="515.5,-137.6 506.8,-143.64 517.37,-144.34 515.5,-137.6"/>
<text text-anchor="middle" x="563.5" y="-137" font-family="Helvetica,sans-Serif" font-size="10.00"> writes</text>
</g>
</g>
</svg>
        <g id="navigator" transform="translate(0 0)" fill="#404254">
                <rect fill="#f2f5e9" fill-opacity="0.5" stroke="#606060" stroke-width=".5" x="0" y="0" width="60" height="60"/>
                <use id="zoomplus" xlink:href="#zoomPlus" x="17" y="9" onmousedown="handleZoom(evt,'in')"/>
                <use id="zoomminus" xlink:href="#zoomMin" x="42" y="9" onmousedown="handleZoom(evt,'out')"/>
                <use id="reset" xlink:href="#resetDef" x="30" y="36" onmousedown="handleReset()"/>
                <g id="arrowUp" xlink:href="#dirArrow" transform="translate(30 24)" onmousedown="handlePan(0,-1)">
                  <use xlink:href="#rim" fill="#404040">
                        <set attributeName="fill" to="#808080" begin="arrowUp.mouseover" end="arrowUp.mouseout"/>
                  </use>
                  <path fill="none" stroke="white" stroke-width="1.5" d="M0,-3.0v7 M-2.5,-0.5L0,-3.0L2.5,-0.5"/>
                </g>
                <g id="arrowRight" xlink:href="#dirArrow" transform="rotate(90) translate(36 -43)" onmousedown="handlePan(1,0)">
                  <use xlink:href="#rim" fill="#404040">
                        <set attributeName="fill" to="#808080" begin="arrowRight.mouseover" end="arrowRight.mouseout"/>
                  </use>
                  <path fill="none" stroke="white" stroke-width="1.5" d="M0,-3.0v7 M-2.5,-0.5L0,-3.0L2.5,-0.5"/>
                </g>
                <g id="arrowDown" xlink:href="#dirArrow" transform="rotate(180) translate(-30 -48)" onmousedown="handlePan(0,1)">
                  <use xlink:href="#rim" fill="#404040">
                        <set attributeName="fill" to="#808080" begin="arrowDown.mouseover" end="arrowDown.mouseout"/>
                  </use>
                  <path fill="none" stroke="white" stroke-width="1.5" d="M0,-3.0v7 M-2.5,-0.5L0,-3.0L2.5,-0.5"/>
                </g>
                <g id="arrowLeft" xlink:href="#dirArrow" transform="rotate(270) translate(-36 17)" onmousedown="handlePan(-1,0)">
                  <use xlink:href="#rim" fill="#404040">
                        <set attributeName="fill" to="#808080" begin="arrowLeft.mouseover" end="arrowLeft.mouseout"/>
                  </use>
                  <path fill="none" stroke="white" stroke-width="1.5" d="M0,-3.0v7 M-2.5,-0.5L0,-3.0L2.5,-0.5"/>
                </g>
        </g>
        <svg viewBox="0 0 15 15" width="100%" height="30px" preserveAspectRatio="xMaxYMin meet">
         <g id="arrow_out" transform="scale(0.3 0.3)">
          <a xlink:href="structccf_1_1endpoints_1_1ReadOnlyEndpointContext__coll__graph_org.svg" target="_base">
           <rect id="button" ry="5" rx="5" y="6" x="6" height="38" width="38"
                fill="#f2f5e9" fill-opacity="0.5" stroke="#606060" stroke-width="1.0"/>
           <path id="arrow"
             d="M 11.500037,31.436501 C 11.940474,20.09759 22.043105,11.32322 32.158766,21.979434 L 37.068811,17.246167 C 37.068811,17.246167 37.088388,32 37.088388,32 L 22.160133,31.978069 C 22.160133,31.978069 26.997745,27.140456 26.997745,27.140456 C 18.528582,18.264221 13.291696,25.230495 11.500037,31.436501 z"
             style="fill:#404040;"/>
          </a>
         </g>
        </svg>
</svg>
