<?xml version="1.0" encoding="UTF-8" standalone="no"?>
<!DOCTYPE svg PUBLIC "-//W3C//DTD SVG 1.1//EN"
 "http://www.w3.org/Graphics/SVG/1.1/DTD/svg11.dtd">
<!-- Generated by graphviz version 2.43.0 (0)
 -->
<!-- Title: enclave::TLSEndpoint::SendRecvMsg Pages: 1 -->
<svg width="290pt" height="252pt"
 viewBox="0.00 0.00 290.00 252.00" xmlns="http://www.w3.org/2000/svg" xmlns:xlink="http://www.w3.org/1999/xlink">
<g id="graph0" class="graph" transform="scale(1 1) rotate(0) translate(4 248)">
<title>enclave::TLSEndpoint::SendRecvMsg</title>
<polygon fill="white" stroke="transparent" points="-4,4 -4,-248 286,-248 286,4 -4,4"/>
<!-- Node1 -->
<g id="node1" class="node">
<title>Node1</title>
<g id="a_node1"><a xlink:title=" ">
<polygon fill="#bfbfbf" stroke="black" points="51,-0.5 51,-30.5 172,-30.5 172,-0.5 51,-0.5"/>
<text text-anchor="start" x="59" y="-18.5" font-family="Helvetica,sans-Serif" font-size="10.00">enclave::TLSEndpoint</text>
<text text-anchor="middle" x="111.5" y="-7.5" font-family="Helvetica,sans-Serif" font-size="10.00">::SendRecvMsg</text>
</a>
</g>
</g>
<!-- Node2 -->
<g id="node2" class="node">
<title>Node2</title>
<g id="a_node2"><a xlink:title=" ">
<polygon fill="white" stroke="black" points="0,-84 0,-103 125,-103 125,-84 0,-84"/>
<text text-anchor="middle" x="62.5" y="-91" font-family="Helvetica,sans-Serif" font-size="10.00">std::vector&lt; uint8_t &gt;</text>
</a>
</g>
</g>
<!-- Node2&#45;&gt;Node1 -->
<g id="edge1" class="edge">
<title>Node2&#45;&gt;Node1</title>
<path fill="none" stroke="#9a32cd" stroke-dasharray="5,2" d="M73.55,-75.37C82.27,-61.83 94.3,-43.17 102.46,-30.52"/>
<polygon fill="#9a32cd" stroke="#9a32cd" points="70.6,-73.48 68.12,-83.78 76.48,-77.27 70.6,-73.48"/>
<text text-anchor="middle" x="102" y="-52" font-family="Helvetica,sans-Serif" font-size="10.00"> data</text>
</g>
<!-- Node3 -->
<g id="node3" class="node">
<title>Node3</title>
<g id="a_node3"><a xlink:title=" ">
<polygon fill="white" stroke="black" points="143,-78.5 143,-108.5 282,-108.5 282,-78.5 143,-78.5"/>
<text text-anchor="start" x="151" y="-96.5" font-family="Helvetica,sans-Serif" font-size="10.00">std::shared_ptr&lt; enclave</text>
<text text-anchor="middle" x="212.5" y="-85.5" font-family="Helvetica,sans-Serif" font-size="10.00">::Endpoint &gt;</text>
</a>
</g>
</g>
<!-- Node3&#45;&gt;Node1 -->
<g id="edge2" class="edge">
<title>Node3&#45;&gt;Node1</title>
<path fill="none" stroke="#9a32cd" stroke-dasharray="5,2" d="M185.4,-72.11C168.03,-59.04 145.91,-42.39 130.41,-30.73"/>
<polygon fill="#9a32cd" stroke="#9a32cd" points="183.41,-74.99 193.5,-78.2 187.62,-69.4 183.41,-74.99"/>
<text text-anchor="middle" x="178.5" y="-52" font-family="Helvetica,sans-Serif" font-size="10.00"> self</text>
</g>
<!-- Node4 -->
<g id="node4" class="node">
<title>Node4</title>
<g id="a_node4"><a xlink:href="classenclave_1_1Endpoint.html" target="_top" xlink:title=" ">
<polygon fill="white" stroke="black" points="160.5,-156.5 160.5,-175.5 264.5,-175.5 264.5,-156.5 160.5,-156.5"/>
<text text-anchor="middle" x="212.5" y="-163.5" font-family="Helvetica,sans-Serif" font-size="10.00">enclave::Endpoint</text>
</a>
</g>
</g>
<!-- Node4&#45;&gt;Node3 -->
<g id="edge3" class="edge">
<title>Node4&#45;&gt;Node3</title>
<path fill="none" stroke="#9a32cd" stroke-dasharray="5,2" d="M212.5,-146.24C212.5,-134.41 212.5,-119.38 212.5,-108.58"/>
<polygon fill="#9a32cd" stroke="#9a32cd" points="209,-146.36 212.5,-156.36 216,-146.36 209,-146.36"/>
<text text-anchor="middle" x="221" y="-130" font-family="Helvetica,sans-Serif" font-size="10.00"> ptr</text>
</g>
<!-- Node5 -->
<g id="node5" class="node">
<title>Node5</title>
<g id="a_node5"><a xlink:title=" ">
<polygon fill="white" stroke="black" points="145.5,-213.5 145.5,-243.5 279.5,-243.5 279.5,-213.5 145.5,-213.5"/>
<text text-anchor="start" x="153.5" y="-231.5" font-family="Helvetica,sans-Serif" font-size="10.00">std::enable_shared</text>
<text text-anchor="middle" x="212.5" y="-220.5" font-family="Helvetica,sans-Serif" font-size="10.00">_from_this&lt; Endpoint &gt;</text>
</a>
</g>
</g>
<!-- Node5&#45;&gt;Node4 -->
<g id="edge4" class="edge">
<title>Node5&#45;&gt;Node4</title>
<path fill="none" stroke="midnightblue" d="M212.5,-203.35C212.5,-193.51 212.5,-182.78 212.5,-175.54"/>
<polygon fill="midnightblue" stroke="midnightblue" points="209,-203.47 212.5,-213.47 216,-203.47 209,-203.47"/>
</g>
</g>
</svg>
