<?xml version="1.0" encoding="UTF-8" standalone="no"?>
<!DOCTYPE svg PUBLIC "-//W3C//DTD SVG 1.1//EN"
 "http://www.w3.org/Graphics/SVG/1.1/DTD/svg11.dtd">
<!-- Generated by graphviz version 2.43.0 (0)
 -->
<!-- Title: ccf::historical::State Pages: 1 -->
<svg width="1329pt" height="288pt"
 viewBox="0.00 0.00 1329.00 288.00" xmlns="http://www.w3.org/2000/svg" xmlns:xlink="http://www.w3.org/1999/xlink">
<g id="graph0" class="graph" transform="scale(1 1) rotate(0) translate(4 284)">
<title>ccf::historical::State</title>
<polygon fill="white" stroke="transparent" points="-4,4 -4,-284 1325,-284 1325,4 -4,4"/>
<!-- Node1 -->
<g id="node1" class="node">
<title>Node1</title>
<g id="a_node1"><a xlink:title=" ">
<polygon fill="#bfbfbf" stroke="black" points="1208,-103.5 1208,-122.5 1321,-122.5 1321,-103.5 1208,-103.5"/>
<text text-anchor="middle" x="1264.5" y="-110.5" font-family="Helvetica,sans-Serif" font-size="10.00">ccf::historical::State</text>
</a>
</g>
</g>
<!-- Node2 -->
<g id="node2" class="node">
<title>Node2</title>
<g id="a_node2"><a xlink:title=" ">
<polygon fill="white" stroke="black" points="962,-166 962,-196 1075,-196 1075,-166 962,-166"/>
<text text-anchor="start" x="970" y="-184" font-family="Helvetica,sans-Serif" font-size="10.00">std::shared_ptr&lt; kv</text>
<text text-anchor="middle" x="1018.5" y="-173" font-family="Helvetica,sans-Serif" font-size="10.00">::Store &gt;</text>
</a>
</g>
</g>
<!-- Node2&#45;&gt;Node1 -->
<g id="edge1" class="edge">
<title>Node2&#45;&gt;Node1</title>
<path fill="none" stroke="#9a32cd" stroke-dasharray="5,2" d="M1083.08,-163.28C1129.83,-150.25 1191.55,-133.05 1229.34,-122.52"/>
<polygon fill="#9a32cd" stroke="#9a32cd" points="1082.04,-159.94 1073.35,-165.99 1083.92,-166.68 1082.04,-159.94"/>
<text text-anchor="middle" x="1153.5" y="-156" font-family="Helvetica,sans-Serif" font-size="10.00"> store</text>
</g>
<!-- Node3 -->
<g id="node3" class="node">
<title>Node3</title>
<g id="a_node3"><a xlink:href="classkv_1_1Store.html" target="_top" xlink:title=" ">
<polygon fill="white" stroke="black" points="813,-180.5 813,-199.5 872,-199.5 872,-180.5 813,-180.5"/>
<text text-anchor="middle" x="842.5" y="-187.5" font-family="Helvetica,sans-Serif" font-size="10.00">kv::Store</text>
</a>
</g>
</g>
<!-- Node3&#45;&gt;Node2 -->
<g id="edge2" class="edge">
<title>Node3&#45;&gt;Node2</title>
<path fill="none" stroke="#9a32cd" stroke-dasharray="5,2" d="M882.48,-187.98C905.9,-186.77 936.09,-185.21 961.98,-183.87"/>
<polygon fill="#9a32cd" stroke="#9a32cd" points="882.04,-184.5 872.23,-188.51 882.4,-191.49 882.04,-184.5"/>
<text text-anchor="middle" x="911.5" y="-189" font-family="Helvetica,sans-Serif" font-size="10.00"> ptr</text>
</g>
<!-- Node4 -->
<g id="node4" class="node">
<title>Node4</title>
<g id="a_node4"><a xlink:href="classkv_1_1AbstractStore.html" target="_top" xlink:title=" ">
<polygon fill="white" stroke="black" points="553.5,-240.5 553.5,-259.5 653.5,-259.5 653.5,-240.5 553.5,-240.5"/>
<text text-anchor="middle" x="603.5" y="-247.5" font-family="Helvetica,sans-Serif" font-size="10.00">kv::AbstractStore</text>
</a>
</g>
</g>
<!-- Node4&#45;&gt;Node3 -->
<g id="edge3" class="edge">
<title>Node4&#45;&gt;Node3</title>
<path fill="none" stroke="midnightblue" d="M663.56,-239.56C698.34,-232.86 743.02,-223.31 782,-212 794.06,-208.5 807.18,-203.75 818.02,-199.57"/>
<polygon fill="midnightblue" stroke="midnightblue" points="662.73,-236.15 653.56,-241.46 664.04,-243.03 662.73,-236.15"/>
</g>
<!-- Node5 -->
<g id="node5" class="node">
<title>Node5</title>
<g id="a_node5"><a xlink:href="classkv_1_1StoreState.html" target="_top" xlink:title=" ">
<polygon fill="white" stroke="black" points="561,-202.5 561,-221.5 646,-221.5 646,-202.5 561,-202.5"/>
<text text-anchor="middle" x="603.5" y="-209.5" font-family="Helvetica,sans-Serif" font-size="10.00">kv::StoreState</text>
</a>
</g>
</g>
<!-- Node5&#45;&gt;Node3 -->
<g id="edge4" class="edge">
<title>Node5&#45;&gt;Node3</title>
<path fill="none" stroke="midnightblue" d="M656.25,-207.2C704.24,-202.74 773.9,-196.27 812.69,-192.67"/>
<polygon fill="midnightblue" stroke="midnightblue" points="655.69,-203.73 646.05,-208.14 656.33,-210.7 655.69,-203.73"/>
</g>
<!-- Node6 -->
<g id="node6" class="node">
<title>Node6</title>
<g id="a_node6"><a xlink:title=" ">
<polygon fill="white" stroke="black" points="305,-257.5 305,-276.5 374,-276.5 374,-257.5 305,-257.5"/>
<text text-anchor="middle" x="339.5" y="-264.5" font-family="Helvetica,sans-Serif" font-size="10.00">std::mutex</text>
</a>
</g>
</g>
<!-- Node6&#45;&gt;Node5 -->
<g id="edge5" class="edge">
<title>Node6&#45;&gt;Node5</title>
<path fill="none" stroke="#9a32cd" stroke-dasharray="5,2" d="M384.21,-257.82C433.31,-247.52 512.41,-230.91 560.7,-220.77"/>
<polygon fill="#9a32cd" stroke="#9a32cd" points="383.28,-254.44 374.22,-259.92 384.72,-261.29 383.28,-254.44"/>
<text text-anchor="middle" x="462.5" y="-272" font-family="Helvetica,sans-Serif" font-size="10.00"> commit_lock</text>
<text text-anchor="middle" x="462.5" y="-261" font-family="Helvetica,sans-Serif" font-size="10.00">maps_lock</text>
<text text-anchor="middle" x="462.5" y="-250" font-family="Helvetica,sans-Serif" font-size="10.00">version_lock</text>
</g>
<!-- Node7 -->
<g id="node7" class="node">
<title>Node7</title>
<g id="a_node7"><a xlink:title=" ">
<polygon fill="white" stroke="black" points="268,-186 268,-238 411,-238 411,-186 268,-186"/>
<text text-anchor="start" x="276" y="-226" font-family="Helvetica,sans-Serif" font-size="10.00">std::map&lt; std::string,</text>
<text text-anchor="start" x="276" y="-215" font-family="Helvetica,sans-Serif" font-size="10.00"> std::pair&lt; kv::Version,</text>
<text text-anchor="start" x="276" y="-204" font-family="Helvetica,sans-Serif" font-size="10.00"> std::shared_ptr&lt; untyped</text>
<text text-anchor="middle" x="339.5" y="-193" font-family="Helvetica,sans-Serif" font-size="10.00">::Map &gt; &gt; &gt;</text>
</a>
</g>
</g>
<!-- Node7&#45;&gt;Node5 -->
<g id="edge6" class="edge">
<title>Node7&#45;&gt;Node5</title>
<path fill="none" stroke="#9a32cd" stroke-dasharray="5,2" d="M421.06,-212C467.29,-212 523.4,-212 560.87,-212"/>
<polygon fill="#9a32cd" stroke="#9a32cd" points="421.06,-208.5 411.06,-212 421.06,-215.5 421.06,-208.5"/>
<text text-anchor="middle" x="462.5" y="-215" font-family="Helvetica,sans-Serif" font-size="10.00"> maps</text>
</g>
<!-- Node8 -->
<g id="node8" class="node">
<title>Node8</title>
<g id="a_node8"><a xlink:title=" ">
<polygon fill="white" stroke="black" points="141,-202.5 141,-221.5 206,-221.5 206,-202.5 141,-202.5"/>
<text text-anchor="middle" x="173.5" y="-209.5" font-family="Helvetica,sans-Serif" font-size="10.00">std::string</text>
</a>
</g>
</g>
<!-- Node8&#45;&gt;Node7 -->
<g id="edge7" class="edge">
<title>Node8&#45;&gt;Node7</title>
<path fill="none" stroke="#9a32cd" stroke-dasharray="5,2" d="M216.51,-212C232.17,-212 250.4,-212 267.92,-212"/>
<polygon fill="#9a32cd" stroke="#9a32cd" points="216.12,-208.5 206.12,-212 216.12,-215.5 216.12,-208.5"/>
<text text-anchor="middle" x="237" y="-215" font-family="Helvetica,sans-Serif" font-size="10.00"> keys</text>
</g>
<!-- Node9 -->
<g id="node9" class="node">
<title>Node9</title>
<g id="a_node9"><a xlink:title=" ">
<polygon fill="white" stroke="black" points="0,-197 0,-227 104,-227 104,-197 0,-197"/>
<text text-anchor="start" x="8" y="-215" font-family="Helvetica,sans-Serif" font-size="10.00">std::basic_string&lt;</text>
<text text-anchor="middle" x="52" y="-204" font-family="Helvetica,sans-Serif" font-size="10.00"> Char &gt;</text>
</a>
</g>
</g>
<!-- Node9&#45;&gt;Node8 -->
<g id="edge8" class="edge">
<title>Node9&#45;&gt;Node8</title>
<path fill="none" stroke="midnightblue" d="M114.1,-212C123.41,-212 132.68,-212 141,-212"/>
<polygon fill="midnightblue" stroke="midnightblue" points="114.03,-208.5 104.03,-212 114.03,-215.5 114.03,-208.5"/>
</g>
<!-- Node10 -->
<g id="node10" class="node">
<title>Node10</title>
<g id="a_node10"><a xlink:title=" ">
<polygon fill="white" stroke="black" points="272.5,-115 272.5,-167 406.5,-167 406.5,-115 272.5,-115"/>
<text text-anchor="start" x="280.5" y="-155" font-family="Helvetica,sans-Serif" font-size="10.00">std::unordered_map</text>
<text text-anchor="start" x="280.5" y="-144" font-family="Helvetica,sans-Serif" font-size="10.00">&lt; Version, std::pair</text>
<text text-anchor="start" x="280.5" y="-133" font-family="Helvetica,sans-Serif" font-size="10.00">&lt; std::unique_ptr&lt; kv</text>
<text text-anchor="middle" x="339.5" y="-122" font-family="Helvetica,sans-Serif" font-size="10.00">::PendingTx &gt;, bool &gt; &gt;</text>
</a>
</g>
</g>
<!-- Node10&#45;&gt;Node5 -->
<g id="edge9" class="edge">
<title>Node10&#45;&gt;Node5</title>
<path fill="none" stroke="#9a32cd" stroke-dasharray="5,2" d="M416.51,-165.21C446.7,-174.45 481.84,-184.74 514,-193 529.22,-196.91 546.05,-200.66 560.92,-203.79"/>
<polygon fill="#9a32cd" stroke="#9a32cd" points="417.47,-161.85 406.89,-162.25 415.42,-168.54 417.47,-161.85"/>
<text text-anchor="middle" x="462.5" y="-190" font-family="Helvetica,sans-Serif" font-size="10.00"> pending_txs</text>
</g>
<!-- Node11 -->
<g id="node11" class="node">
<title>Node11</title>
<g id="a_node11"><a xlink:href="classkv_1_1ExecutionWrapperStore.html" target="_top" xlink:title=" ">
<polygon fill="white" stroke="black" points="529.5,-164.5 529.5,-183.5 677.5,-183.5 677.5,-164.5 529.5,-164.5"/>
<text text-anchor="middle" x="603.5" y="-171.5" font-family="Helvetica,sans-Serif" font-size="10.00">kv::ExecutionWrapperStore</text>
</a>
</g>
</g>
<!-- Node11&#45;&gt;Node3 -->
<g id="edge10" class="edge">
<title>Node11&#45;&gt;Node3</title>
<path fill="none" stroke="midnightblue" d="M687.6,-179.61C731.26,-182.56 781.98,-185.98 812.9,-188.07"/>
<polygon fill="midnightblue" stroke="midnightblue" points="687.75,-176.11 677.54,-178.93 687.28,-183.1 687.75,-176.11"/>
</g>
<!-- Node12 -->
<g id="node12" class="node">
<title>Node12</title>
<g id="a_node12"><a xlink:title=" ">
<polygon fill="white" stroke="black" points="938,-103.5 938,-122.5 1099,-122.5 1099,-103.5 938,-103.5"/>
<text text-anchor="middle" x="1018.5" y="-110.5" font-family="Helvetica,sans-Serif" font-size="10.00">std::shared_ptr&lt; TxReceipt &gt;</text>
</a>
</g>
</g>
<!-- Node12&#45;&gt;Node1 -->
<g id="edge11" class="edge">
<title>Node12&#45;&gt;Node1</title>
<path fill="none" stroke="#9a32cd" stroke-dasharray="5,2" d="M1109.2,-113C1142.29,-113 1178.79,-113 1207.98,-113"/>
<polygon fill="#9a32cd" stroke="#9a32cd" points="1109.06,-109.5 1099.06,-113 1109.06,-116.5 1109.06,-109.5"/>
<text text-anchor="middle" x="1153.5" y="-116" font-family="Helvetica,sans-Serif" font-size="10.00"> receipt</text>
</g>
<!-- Node13 -->
<g id="node13" class="node">
<title>Node13</title>
<g id="a_node13"><a xlink:href="structccf_1_1TxReceipt.html" target="_top" xlink:title=" ">
<polygon fill="white" stroke="black" points="800,-82.5 800,-101.5 885,-101.5 885,-82.5 800,-82.5"/>
<text text-anchor="middle" x="842.5" y="-89.5" font-family="Helvetica,sans-Serif" font-size="10.00">ccf::TxReceipt</text>
</a>
</g>
</g>
<!-- Node13&#45;&gt;Node12 -->
<g id="edge12" class="edge">
<title>Node13&#45;&gt;Node12</title>
<path fill="none" stroke="#9a32cd" stroke-dasharray="5,2" d="M895.31,-98.25C908.94,-99.9 923.97,-101.71 938.68,-103.49"/>
<polygon fill="#9a32cd" stroke="#9a32cd" points="895.52,-94.75 885.18,-97.03 894.69,-101.7 895.52,-94.75"/>
<text text-anchor="middle" x="911.5" y="-104" font-family="Helvetica,sans-Serif" font-size="10.00"> ptr</text>
</g>
<!-- Node14 -->
<g id="node14" class="node">
<title>Node14</title>
<g id="a_node14"><a xlink:title=" ">
<polygon fill="white" stroke="black" points="541,-126.5 541,-145.5 666,-145.5 666,-126.5 541,-126.5"/>
<text text-anchor="middle" x="603.5" y="-133.5" font-family="Helvetica,sans-Serif" font-size="10.00">std::vector&lt; uint8_t &gt;</text>
</a>
</g>
</g>
<!-- Node14&#45;&gt;Node13 -->
<g id="edge13" class="edge">
<title>Node14&#45;&gt;Node13</title>
<path fill="none" stroke="#9a32cd" stroke-dasharray="5,2" d="M676.62,-125.64C708.96,-120.63 747.51,-114.15 782,-107 789.72,-105.4 797.95,-103.47 805.75,-101.54"/>
<polygon fill="#9a32cd" stroke="#9a32cd" points="675.7,-122.24 666.35,-127.22 676.76,-129.16 675.7,-122.24"/>
<text text-anchor="middle" x="746.5" y="-122" font-family="Helvetica,sans-Serif" font-size="10.00"> signature</text>
</g>
<!-- Node15 -->
<g id="node15" class="node">
<title>Node15</title>
<g id="a_node15"><a xlink:title=" ">
<polygon fill="white" stroke="black" points="545.5,-77 545.5,-107 661.5,-107 661.5,-77 545.5,-77"/>
<text text-anchor="start" x="553.5" y="-95" font-family="Helvetica,sans-Serif" font-size="10.00">std::shared_ptr&lt; ccf</text>
<text text-anchor="middle" x="603.5" y="-84" font-family="Helvetica,sans-Serif" font-size="10.00">::HistoryTree::Path &gt;</text>
</a>
</g>
</g>
<!-- Node15&#45;&gt;Node13 -->
<g id="edge14" class="edge">
<title>Node15&#45;&gt;Node13</title>
<path fill="none" stroke="#9a32cd" stroke-dasharray="5,2" d="M671.8,-92C712.99,-92 764.4,-92 799.78,-92"/>
<polygon fill="#9a32cd" stroke="#9a32cd" points="671.57,-88.5 661.57,-92 671.57,-95.5 671.57,-88.5"/>
<text text-anchor="middle" x="746.5" y="-95" font-family="Helvetica,sans-Serif" font-size="10.00"> path</text>
</g>
<!-- Node16 -->
<g id="node16" class="node">
<title>Node16</title>
<g id="a_node16"><a xlink:href="structccf_1_1EntityId.html" target="_top" xlink:title=" ">
<polygon fill="white" stroke="black" points="514,-38.5 514,-57.5 693,-57.5 693,-38.5 514,-38.5"/>
<text text-anchor="middle" x="603.5" y="-45.5" font-family="Helvetica,sans-Serif" font-size="10.00">ccf::EntityId&lt; NodeIdFormatter &gt;</text>
</a>
</g>
</g>
<!-- Node16&#45;&gt;Node13 -->
<g id="edge15" class="edge">
<title>Node16&#45;&gt;Node13</title>
<path fill="none" stroke="#9a32cd" stroke-dasharray="5,2" d="M681.32,-59.09C712.65,-63.99 749.17,-70.19 782,-77 789.72,-78.6 797.95,-80.53 805.75,-82.46"/>
<polygon fill="#9a32cd" stroke="#9a32cd" points="681.75,-55.62 671.34,-57.55 680.68,-62.53 681.75,-55.62"/>
<text text-anchor="middle" x="746.5" y="-80" font-family="Helvetica,sans-Serif" font-size="10.00"> node_id</text>
</g>
<!-- Node17 -->
<g id="node17" class="node">
<title>Node17</title>
<g id="a_node17"><a xlink:href="classccf_1_1ClaimsDigest.html" target="_top" xlink:title=" ">
<polygon fill="white" stroke="black" points="553,-0.5 553,-19.5 654,-19.5 654,-0.5 553,-0.5"/>
<text text-anchor="middle" x="603.5" y="-7.5" font-family="Helvetica,sans-Serif" font-size="10.00">ccf::ClaimsDigest</text>
</a>
</g>
</g>
<!-- Node17&#45;&gt;Node13 -->
<g id="edge16" class="edge">
<title>Node17&#45;&gt;Node13</title>
<path fill="none" stroke="#9a32cd" stroke-dasharray="5,2" d="M664.21,-17.32C699.58,-23.13 744.64,-33.17 782,-50 800.45,-58.31 819.08,-72.64 830.46,-82.22"/>
<polygon fill="#9a32cd" stroke="#9a32cd" points="664.45,-13.81 654.03,-15.71 663.37,-20.73 664.45,-13.81"/>
<text text-anchor="middle" x="746.5" y="-53" font-family="Helvetica,sans-Serif" font-size="10.00"> claims_digest</text>
</g>
<!-- Node18 -->
<g id="node18" class="node">
<title>Node18</title>
<g id="a_node18"><a xlink:href="structccf_1_1TxID.html" target="_top" xlink:title=" ">
<polygon fill="white" stroke="black" points="989,-65.5 989,-84.5 1048,-84.5 1048,-65.5 989,-65.5"/>
<text text-anchor="middle" x="1018.5" y="-72.5" font-family="Helvetica,sans-Serif" font-size="10.00">ccf::TxID</text>
</a>
</g>
</g>
<!-- Node18&#45;&gt;Node1 -->
<g id="edge17" class="edge">
<title>Node18&#45;&gt;Node1</title>
<path fill="none" stroke="#9a32cd" stroke-dasharray="5,2" d="M1058.41,-79.49C1093.04,-83.67 1145.03,-90.39 1190,-98 1199.5,-99.61 1209.65,-101.54 1219.28,-103.47"/>
<polygon fill="#9a32cd" stroke="#9a32cd" points="1058.59,-75.99 1048.25,-78.28 1057.76,-82.94 1058.59,-75.99"/>
<text text-anchor="middle" x="1153.5" y="-101" font-family="Helvetica,sans-Serif" font-size="10.00"> transaction_id</text>
</g>
</g>
</svg>
