<?xml version="1.0" encoding="UTF-8" standalone="no"?>
<!DOCTYPE svg PUBLIC "-//W3C//DTD SVG 1.1//EN"
 "http://www.w3.org/Graphics/SVG/1.1/DTD/svg11.dtd">
<!-- Generated by graphviz version 2.43.0 (0)
 -->
<!-- Title: ccf::SessionMetrics Pages: 1 -->
<svg width="221pt" height="263pt"
 viewBox="0.00 0.00 221.00 263.00" xmlns="http://www.w3.org/2000/svg" xmlns:xlink="http://www.w3.org/1999/xlink">
<g id="graph0" class="graph" transform="scale(1 1) rotate(0) translate(4 259)">
<title>ccf::SessionMetrics</title>
<polygon fill="white" stroke="transparent" points="-4,4 -4,-259 217,-259 217,4 -4,4"/>
<!-- Node1 -->
<g id="node1" class="node">
<title>Node1</title>
<g id="a_node1"><a xlink:title=" ">
<polygon fill="#bfbfbf" stroke="black" points="50,-0.5 50,-19.5 160,-19.5 160,-0.5 50,-0.5"/>
<text text-anchor="middle" x="105" y="-7.5" font-family="Helvetica,sans-Serif" font-size="10.00">ccf::SessionMetrics</text>
</a>
</g>
</g>
<!-- Node2 -->
<g id="node2" class="node">
<title>Node2</title>
<g id="a_node2"><a xlink:title=" ">
<polygon fill="white" stroke="black" points="44,-67.5 44,-108.5 166,-108.5 166,-67.5 44,-67.5"/>
<text text-anchor="start" x="52" y="-96.5" font-family="Helvetica,sans-Serif" font-size="10.00">std::map&lt; std::string,</text>
<text text-anchor="start" x="52" y="-85.5" font-family="Helvetica,sans-Serif" font-size="10.00"> ccf::SessionMetrics</text>
<text text-anchor="middle" x="105" y="-74.5" font-family="Helvetica,sans-Serif" font-size="10.00">::PerInterface &gt;</text>
</a>
</g>
</g>
<!-- Node2&#45;&gt;Node1 -->
<g id="edge1" class="edge">
<title>Node2&#45;&gt;Node1</title>
<path fill="none" stroke="#9a32cd" stroke-dasharray="5,2" d="M105,-57.05C105,-43.56 105,-28.65 105,-19.55"/>
<polygon fill="#9a32cd" stroke="#9a32cd" points="101.5,-57.43 105,-67.43 108.5,-57.43 101.5,-57.43"/>
<text text-anchor="middle" x="131" y="-41" font-family="Helvetica,sans-Serif" font-size="10.00"> interfaces</text>
</g>
<!-- Node3 -->
<g id="node3" class="node">
<title>Node3</title>
<g id="a_node3"><a xlink:title=" ">
<polygon fill="white" stroke="black" points="19.5,-162 19.5,-181 84.5,-181 84.5,-162 19.5,-162"/>
<text text-anchor="middle" x="52" y="-169" font-family="Helvetica,sans-Serif" font-size="10.00">std::string</text>
</a>
</g>
</g>
<!-- Node3&#45;&gt;Node2 -->
<g id="edge2" class="edge">
<title>Node3&#45;&gt;Node2</title>
<path fill="none" stroke="#9a32cd" stroke-dasharray="5,2" d="M63.19,-153.29C71.66,-140.27 83.3,-122.37 92.15,-108.76"/>
<polygon fill="#9a32cd" stroke="#9a32cd" points="60.19,-151.49 57.67,-161.78 66.06,-155.3 60.19,-151.49"/>
<text text-anchor="middle" x="94" y="-130" font-family="Helvetica,sans-Serif" font-size="10.00"> keys</text>
</g>
<!-- Node4 -->
<g id="node4" class="node">
<title>Node4</title>
<g id="a_node4"><a xlink:title=" ">
<polygon fill="white" stroke="black" points="0,-224.5 0,-254.5 104,-254.5 104,-224.5 0,-224.5"/>
<text text-anchor="start" x="8" y="-242.5" font-family="Helvetica,sans-Serif" font-size="10.00">std::basic_string&lt;</text>
<text text-anchor="middle" x="52" y="-231.5" font-family="Helvetica,sans-Serif" font-size="10.00"> Char &gt;</text>
</a>
</g>
</g>
<!-- Node4&#45;&gt;Node3 -->
<g id="edge3" class="edge">
<title>Node4&#45;&gt;Node3</title>
<path fill="none" stroke="midnightblue" d="M52,-213.88C52,-202.47 52,-189.64 52,-181.33"/>
<polygon fill="midnightblue" stroke="midnightblue" points="48.5,-214.18 52,-224.18 55.5,-214.18 48.5,-214.18"/>
</g>
<!-- Node5 -->
<g id="node5" class="node">
<title>Node5</title>
<g id="a_node5"><a xlink:href="structccf_1_1SessionMetrics_1_1PerInterface.html" target="_top" xlink:title=" ">
<polygon fill="white" stroke="black" points="103,-156.5 103,-186.5 213,-186.5 213,-156.5 103,-156.5"/>
<text text-anchor="start" x="111" y="-174.5" font-family="Helvetica,sans-Serif" font-size="10.00">ccf::SessionMetrics</text>
<text text-anchor="middle" x="158" y="-163.5" font-family="Helvetica,sans-Serif" font-size="10.00">::PerInterface</text>
</a>
</g>
</g>
<!-- Node5&#45;&gt;Node2 -->
<g id="edge4" class="edge">
<title>Node5&#45;&gt;Node2</title>
<path fill="none" stroke="#9a32cd" stroke-dasharray="5,2" d="M143.29,-147.89C135.26,-135.53 125.4,-120.37 117.7,-108.53"/>
<polygon fill="#9a32cd" stroke="#9a32cd" points="140.38,-149.83 148.77,-156.3 146.25,-146.01 140.38,-149.83"/>
<text text-anchor="middle" x="160.5" y="-130" font-family="Helvetica,sans-Serif" font-size="10.00"> elements</text>
</g>
</g>
</svg>
