<?xml version="1.0" encoding="UTF-8" standalone="no"?>
<!DOCTYPE svg PUBLIC "-//W3C//DTD SVG 1.1//EN"
 "http://www.w3.org/Graphics/SVG/1.1/DTD/svg11.dtd">
<!-- Generated by graphviz version 2.43.0 (0)
 -->
<!-- Title: ccf::js::HistoricalStateContext Pages: 1 -->
<!--zoomable 422 -->
<svg id="main" version="1.1" xmlns="http://www.w3.org/2000/svg" xmlns:xlink="http://www.w3.org/1999/xlink" xml:space="preserve" onload="init(evt)">
<style type="text/css"><![CDATA[
.edge:hover path { stroke: red; }
.edge:hover polygon { stroke: red; fill: red; }
]]></style>
<script type="text/javascript"><![CDATA[
var edges = document.getElementsByTagName('g');
if (edges && edges.length) {
  for (var i=0;i<edges.length;i++) {
    if (edges[i].id.substr(0,4)=='edge') {
      edges[i].setAttribute('class','edge');
    }
  }
}
]]></script>
        <defs>
                <circle id="rim" cx="0" cy="0" r="7"/>
                <circle id="rim2" cx="0" cy="0" r="3.5"/>
                <g id="zoomPlus">
                        <use xlink:href="#rim" fill="#404040">
                                <set attributeName="fill" to="#808080" begin="zoomplus.mouseover" end="zoomplus.mouseout"/>
                        </use>
                        <path d="M-4,0h8M0,-4v8" fill="none" stroke="white" stroke-width="1.5" pointer-events="none"/>
                </g>
                <g id="zoomMin">
                        <use xlink:href="#rim" fill="#404040">
                                <set attributeName="fill" to="#808080" begin="zoomminus.mouseover" end="zoomminus.mouseout"/>
                        </use>
                        <path d="M-4,0h8" fill="none" stroke="white" stroke-width="1.5" pointer-events="none"/>
                </g>
                <g id="dirArrow">
                        <path fill="none" stroke="white" stroke-width="1.5" d="M0,-3.0v7 M-2.5,-0.5L0,-3.0L2.5,-0.5"/>
                </g>
               <g id="resetDef">
                       <use xlink:href="#rim2" fill="#404040">
                               <set attributeName="fill" to="#808080" begin="reset.mouseover" end="reset.mouseout"/>
                       </use>
               </g>
        </defs>

<script type="text/javascript">
var viewWidth = 2422;
var viewHeight = 422;
var sectionId = 'dynsection-0';
</script>
<script xlink:href="svgpan.js"/>
<svg id="graph" class="graph">
<g id="viewport">
<title>ccf::js::HistoricalStateContext</title>
<polygon fill="white" stroke="transparent" points="-4,4 -4,-418 2418,-418 2418,4 -4,4"/>
<!-- Node1 -->
<g id="node1" class="node">
<title>Node1</title>
<g id="a_node1"><a xlink:title=" ">
<polygon fill="#bfbfbf" stroke="black" points="2292,-134 2292,-164 2414,-164 2414,-134 2292,-134"/>
<text text-anchor="start" x="2300" y="-152" font-family="Helvetica,sans-Serif" font-size="10.00">ccf::js::HistoricalState</text>
<text text-anchor="middle" x="2353" y="-141" font-family="Helvetica,sans-Serif" font-size="10.00">Context</text>
</a>
</g>
</g>
<!-- Node2 -->
<g id="node2" class="node">
<title>Node2</title>
<g id="a_node2"><a xlink:title=" ">
<polygon fill="white" stroke="black" points="2085,-177.5 2085,-196.5 2222,-196.5 2222,-177.5 2085,-177.5"/>
<text text-anchor="middle" x="2153.5" y="-184.5" font-family="Helvetica,sans-Serif" font-size="10.00">std::shared_ptr&lt; State &gt;</text>
</a>
</g>
</g>
<!-- Node2&#45;&gt;Node1 -->
<g id="edge1" class="edge">
<title>Node2&#45;&gt;Node1</title>
<path fill="none" stroke="#9a32cd" stroke-dasharray="5,2" d="M2214.02,-175.55C2238.63,-170.81 2267.13,-165.33 2291.82,-160.58"/>
<polygon fill="#9a32cd" stroke="#9a32cd" points="2213.24,-172.13 2204.08,-177.46 2214.56,-179.01 2213.24,-172.13"/>
<text text-anchor="middle" x="2257" y="-173" font-family="Helvetica,sans-Serif" font-size="10.00"> state</text>
</g>
<!-- Node3 -->
<g id="node3" class="node">
<title>Node3</title>
<g id="a_node3"><a xlink:href="classkv_1_1CommittableTx.html" target="_top" xlink:title=" ">
<polygon fill="white" stroke="black" points="2098.5,-101.5 2098.5,-120.5 2208.5,-120.5 2208.5,-101.5 2098.5,-101.5"/>
<text text-anchor="middle" x="2153.5" y="-108.5" font-family="Helvetica,sans-Serif" font-size="10.00">kv::CommittableTx</text>
</a>
</g>
</g>
<!-- Node3&#45;&gt;Node1 -->
<g id="edge2" class="edge">
<title>Node3&#45;&gt;Node1</title>
<path fill="none" stroke="#9a32cd" stroke-dasharray="5,2" d="M2214.02,-122.45C2238.63,-127.19 2267.13,-132.67 2291.82,-137.42"/>
<polygon fill="#9a32cd" stroke="#9a32cd" points="2214.56,-118.99 2204.08,-120.54 2213.24,-125.87 2214.56,-118.99"/>
<text text-anchor="middle" x="2257" y="-136" font-family="Helvetica,sans-Serif" font-size="10.00"> tx</text>
</g>
<!-- Node4 -->
<g id="node4" class="node">
<title>Node4</title>
<g id="a_node4"><a xlink:href="classkv_1_1Tx.html" target="_top" xlink:title=" ">
<polygon fill="white" stroke="black" points="1934,-129.5 1934,-148.5 1980,-148.5 1980,-129.5 1934,-129.5"/>
<text text-anchor="middle" x="1957" y="-136.5" font-family="Helvetica,sans-Serif" font-size="10.00">kv::Tx</text>
</a>
</g>
</g>
<!-- Node4&#45;&gt;Node3 -->
<g id="edge3" class="edge">
<title>Node4&#45;&gt;Node3</title>
<path fill="none" stroke="midnightblue" d="M1990.42,-134.33C2019.73,-130.11 2063.49,-123.81 2098.15,-118.82"/>
<polygon fill="midnightblue" stroke="midnightblue" points="1989.71,-130.9 1980.31,-135.79 1990.71,-137.83 1989.71,-130.9"/>
</g>
<!-- Node30 -->
<g id="node30" class="node">
<title>Node30</title>
<g id="a_node30"><a xlink:href="structccf_1_1js_1_1TxContext.html" target="_top" xlink:title=" ">
<polygon fill="white" stroke="black" points="2103,-139.5 2103,-158.5 2204,-158.5 2204,-139.5 2103,-139.5"/>
<text text-anchor="middle" x="2153.5" y="-146.5" font-family="Helvetica,sans-Serif" font-size="10.00">ccf::js::TxContext</text>
</a>
</g>
</g>
<!-- Node4&#45;&gt;Node30 -->
<g id="edge34" class="edge">
<title>Node4&#45;&gt;Node30</title>
<path fill="none" stroke="#9a32cd" stroke-dasharray="5,2" d="M1990.47,-140.67C2021.17,-142.25 2067.66,-144.64 2102.99,-146.45"/>
<polygon fill="#9a32cd" stroke="#9a32cd" points="1990.48,-137.17 1980.31,-140.15 1990.12,-144.16 1990.48,-137.17"/>
<text text-anchor="middle" x="2060.5" y="-147" font-family="Helvetica,sans-Serif" font-size="10.00"> tx</text>
</g>
<!-- Node5 -->
<g id="node5" class="node">
<title>Node5</title>
<g id="a_node5"><a xlink:href="classkv_1_1ReadOnlyTx.html" target="_top" xlink:title=" ">
<polygon fill="white" stroke="black" points="1748,-129.5 1748,-148.5 1841,-148.5 1841,-129.5 1748,-129.5"/>
<text text-anchor="middle" x="1794.5" y="-136.5" font-family="Helvetica,sans-Serif" font-size="10.00">kv::ReadOnlyTx</text>
</a>
</g>
</g>
<!-- Node5&#45;&gt;Node4 -->
<g id="edge4" class="edge">
<title>Node5&#45;&gt;Node4</title>
<path fill="none" stroke="midnightblue" d="M1851.3,-139C1879.73,-139 1912.69,-139 1933.91,-139"/>
<polygon fill="midnightblue" stroke="midnightblue" points="1851.06,-135.5 1841.06,-139 1851.06,-142.5 1851.06,-135.5"/>
</g>
<!-- Node6 -->
<g id="node6" class="node">
<title>Node6</title>
<g id="a_node6"><a xlink:href="classkv_1_1BaseTx.html" target="_top" xlink:title=" ">
<polygon fill="white" stroke="black" points="1641,-129.5 1641,-148.5 1711,-148.5 1711,-129.5 1641,-129.5"/>
<text text-anchor="middle" x="1676" y="-136.5" font-family="Helvetica,sans-Serif" font-size="10.00">kv::BaseTx</text>
</a>
</g>
</g>
<!-- Node6&#45;&gt;Node5 -->
<g id="edge5" class="edge">
<title>Node6&#45;&gt;Node5</title>
<path fill="none" stroke="midnightblue" d="M1721.07,-139C1729.87,-139 1739.12,-139 1747.97,-139"/>
<polygon fill="midnightblue" stroke="midnightblue" points="1721.01,-135.5 1711.01,-139 1721.01,-142.5 1721.01,-135.5"/>
</g>
<!-- Node7 -->
<g id="node7" class="node">
<title>Node7</title>
<g id="a_node7"><a xlink:title=" ">
<polygon fill="white" stroke="black" points="1442,-87 1442,-117 1574,-117 1574,-87 1442,-87"/>
<text text-anchor="start" x="1450" y="-105" font-family="Helvetica,sans-Serif" font-size="10.00">std::unique_ptr&lt; kv</text>
<text text-anchor="middle" x="1508" y="-94" font-family="Helvetica,sans-Serif" font-size="10.00">::BaseTx::PrivateImpl &gt;</text>
</a>
</g>
</g>
<!-- Node7&#45;&gt;Node6 -->
<g id="edge6" class="edge">
<title>Node7&#45;&gt;Node6</title>
<path fill="none" stroke="#9a32cd" stroke-dasharray="5,2" d="M1584.07,-118.73C1603.83,-123.14 1624.2,-127.68 1640.63,-131.34"/>
<polygon fill="#9a32cd" stroke="#9a32cd" points="1584.65,-115.28 1574.13,-116.52 1583.13,-122.11 1584.65,-115.28"/>
<text text-anchor="middle" x="1607.5" y="-131" font-family="Helvetica,sans-Serif" font-size="10.00"> pimpl</text>
</g>
<!-- Node8 -->
<g id="node8" class="node">
<title>Node8</title>
<g id="a_node8"><a xlink:href="structkv_1_1BaseTx_1_1PrivateImpl.html" target="_top" xlink:title=" ">
<polygon fill="white" stroke="black" points="1257,-57.5 1257,-76.5 1389,-76.5 1389,-57.5 1257,-57.5"/>
<text text-anchor="middle" x="1323" y="-64.5" font-family="Helvetica,sans-Serif" font-size="10.00">kv::BaseTx::PrivateImpl</text>
</a>
</g>
</g>
<!-- Node8&#45;&gt;Node7 -->
<g id="edge7" class="edge">
<title>Node8&#45;&gt;Node7</title>
<path fill="none" stroke="#9a32cd" stroke-dasharray="5,2" d="M1384.07,-78.49C1402.6,-82.03 1423.09,-85.95 1441.93,-89.56"/>
<polygon fill="#9a32cd" stroke="#9a32cd" points="1384.49,-75 1374.01,-76.56 1383.17,-81.88 1384.49,-75"/>
<text text-anchor="middle" x="1415.5" y="-89" font-family="Helvetica,sans-Serif" font-size="10.00"> ptr</text>
</g>
<!-- Node9 -->
<g id="node9" class="node">
<title>Node9</title>
<g id="a_node9"><a xlink:href="classkv_1_1AbstractStore.html" target="_top" xlink:title=" ">
<polygon fill="white" stroke="black" points="1037,-54.5 1037,-73.5 1137,-73.5 1137,-54.5 1037,-54.5"/>
<text text-anchor="middle" x="1087" y="-61.5" font-family="Helvetica,sans-Serif" font-size="10.00">kv::AbstractStore</text>
</a>
</g>
</g>
<!-- Node9&#45;&gt;Node8 -->
<g id="edge8" class="edge">
<title>Node9&#45;&gt;Node8</title>
<path fill="none" stroke="#9a32cd" stroke-dasharray="5,2" d="M1147.12,-64.76C1180.48,-65.19 1222.24,-65.72 1256.58,-66.16"/>
<polygon fill="#9a32cd" stroke="#9a32cd" points="1147.1,-61.26 1137.05,-64.63 1147.01,-68.26 1147.1,-61.26"/>
<text text-anchor="middle" x="1202.5" y="-69" font-family="Helvetica,sans-Serif" font-size="10.00"> store</text>
</g>
<!-- Node10 -->
<g id="node10" class="node">
<title>Node10</title>
<g id="a_node10"><a xlink:title=" ">
<polygon fill="white" stroke="black" points="375,-9 375,-39 497,-39 497,-9 375,-9"/>
<text text-anchor="start" x="383" y="-27" font-family="Helvetica,sans-Serif" font-size="10.00">std::map&lt; std::string,</text>
<text text-anchor="middle" x="436" y="-16" font-family="Helvetica,sans-Serif" font-size="10.00"> PossibleHandles &gt;</text>
</a>
</g>
</g>
<!-- Node10&#45;&gt;Node8 -->
<g id="edge9" class="edge">
<title>Node10&#45;&gt;Node8</title>
<path fill="none" stroke="#9a32cd" stroke-dasharray="5,2" d="M507.31,-24C554.69,-24 618.61,-24 675,-24 675,-24 675,-24 1088,-24 1161.52,-24 1245.93,-44.79 1290.54,-57.46"/>
<polygon fill="#9a32cd" stroke="#9a32cd" points="507.16,-20.5 497.16,-24 507.16,-27.5 507.16,-20.5"/>
<text text-anchor="middle" x="870" y="-27" font-family="Helvetica,sans-Serif" font-size="10.00"> all_handles</text>
</g>
<!-- Node11 -->
<g id="node11" class="node">
<title>Node11</title>
<g id="a_node11"><a xlink:title=" ">
<polygon fill="white" stroke="black" points="197,-79.5 197,-98.5 262,-98.5 262,-79.5 197,-79.5"/>
<text text-anchor="middle" x="229.5" y="-86.5" font-family="Helvetica,sans-Serif" font-size="10.00">std::string</text>
</a>
</g>
</g>
<!-- Node11&#45;&gt;Node10 -->
<g id="edge10" class="edge">
<title>Node11&#45;&gt;Node10</title>
<path fill="none" stroke="#9a32cd" stroke-dasharray="5,2" d="M247.46,-72.26C258.19,-62.69 272.85,-51.36 288,-45 315.22,-33.57 347.49,-28.17 374.86,-25.68"/>
<polygon fill="#9a32cd" stroke="#9a32cd" points="245.02,-69.76 240.08,-79.13 249.78,-74.88 245.02,-69.76"/>
<text text-anchor="middle" x="312.5" y="-48" font-family="Helvetica,sans-Serif" font-size="10.00"> keys</text>
</g>
<!-- Node15 -->
<g id="node15" class="node">
<title>Node15</title>
<g id="a_node15"><a xlink:title=" ">
<polygon fill="white" stroke="black" points="1026,-92.5 1026,-133.5 1148,-133.5 1148,-92.5 1026,-92.5"/>
<text text-anchor="start" x="1034" y="-121.5" font-family="Helvetica,sans-Serif" font-size="10.00">std::map&lt; std::string,</text>
<text text-anchor="start" x="1034" y="-110.5" font-family="Helvetica,sans-Serif" font-size="10.00"> std::shared_ptr&lt; kv</text>
<text text-anchor="middle" x="1087" y="-99.5" font-family="Helvetica,sans-Serif" font-size="10.00">::AbstractMap &gt; &gt;</text>
</a>
</g>
</g>
<!-- Node11&#45;&gt;Node15 -->
<g id="edge15" class="edge">
<title>Node11&#45;&gt;Node15</title>
<path fill="none" stroke="#9a32cd" stroke-dasharray="5,2" d="M272.25,-82.84C313.51,-77.29 378.46,-70 435,-70 435,-70 435,-70 871,-70 924.1,-70 983.17,-82.77 1025.94,-94.39"/>
<polygon fill="#9a32cd" stroke="#9a32cd" points="271.73,-79.38 262.29,-84.21 272.68,-86.31 271.73,-79.38"/>
<text text-anchor="middle" x="676" y="-73" font-family="Helvetica,sans-Serif" font-size="10.00"> keys</text>
</g>
<!-- Node19 -->
<g id="node19" class="node">
<title>Node19</title>
<g id="a_node19"><a xlink:href="structkv_1_1GetName.html" target="_top" xlink:title=" ">
<polygon fill="white" stroke="black" points="396,-98.5 396,-117.5 476,-117.5 476,-98.5 396,-98.5"/>
<text text-anchor="middle" x="436" y="-105.5" font-family="Helvetica,sans-Serif" font-size="10.00">kv::GetName</text>
</a>
</g>
</g>
<!-- Node11&#45;&gt;Node19 -->
<g id="edge20" class="edge">
<title>Node11&#45;&gt;Node19</title>
<path fill="none" stroke="#9a32cd" stroke-dasharray="5,2" d="M272.22,-92.88C308.39,-96.24 360.33,-101.06 395.75,-104.35"/>
<polygon fill="#9a32cd" stroke="#9a32cd" points="272.29,-89.37 262,-91.93 271.64,-96.34 272.29,-89.37"/>
<text text-anchor="middle" x="312.5" y="-102" font-family="Helvetica,sans-Serif" font-size="10.00"> name</text>
</g>
<!-- Node20 -->
<g id="node20" class="node">
<title>Node20</title>
<g id="a_node20"><a xlink:title=" ">
<polygon fill="white" stroke="black" points="1262,-156 1262,-186 1384,-186 1384,-156 1262,-156"/>
<text text-anchor="start" x="1270" y="-174" font-family="Helvetica,sans-Serif" font-size="10.00">std::map&lt; std::string,</text>
<text text-anchor="middle" x="1323" y="-163" font-family="Helvetica,sans-Serif" font-size="10.00"> MapChanges &gt;</text>
</a>
</g>
</g>
<!-- Node11&#45;&gt;Node20 -->
<g id="edge22" class="edge">
<title>Node11&#45;&gt;Node20</title>
<path fill="none" stroke="#9a32cd" stroke-dasharray="5,2" d="M235.01,-108.83C246.49,-154.56 281.26,-267.85 355,-325 383.89,-347.38 398.46,-344 435,-344 435,-344 435,-344 1088,-344 1193.84,-344 1283.16,-228.14 1312.12,-186.05"/>
<polygon fill="#9a32cd" stroke="#9a32cd" points="238.38,-107.87 232.64,-98.97 231.57,-109.51 238.38,-107.87"/>
<text text-anchor="middle" x="773" y="-347" font-family="Helvetica,sans-Serif" font-size="10.00"> keys</text>
</g>
<!-- Node12 -->
<g id="node12" class="node">
<title>Node12</title>
<g id="a_node12"><a xlink:title=" ">
<polygon fill="white" stroke="black" points="0,-74 0,-104 104,-104 104,-74 0,-74"/>
<text text-anchor="start" x="8" y="-92" font-family="Helvetica,sans-Serif" font-size="10.00">std::basic_string&lt;</text>
<text text-anchor="middle" x="52" y="-81" font-family="Helvetica,sans-Serif" font-size="10.00"> Char &gt;</text>
</a>
</g>
</g>
<!-- Node12&#45;&gt;Node11 -->
<g id="edge11" class="edge">
<title>Node12&#45;&gt;Node11</title>
<path fill="none" stroke="midnightblue" d="M114.28,-89C142.11,-89 173.85,-89 196.8,-89"/>
<polygon fill="midnightblue" stroke="midnightblue" points="114.23,-85.5 104.23,-89 114.23,-92.5 114.23,-85.5"/>
</g>
<!-- Node13 -->
<g id="node13" class="node">
<title>Node13</title>
<g id="a_node13"><a xlink:title=" ">
<polygon fill="white" stroke="black" points="189,-0.5 189,-19.5 270,-19.5 270,-0.5 189,-0.5"/>
<text text-anchor="middle" x="229.5" y="-7.5" font-family="Helvetica,sans-Serif" font-size="10.00">std::list&lt; T &gt;</text>
</a>
</g>
</g>
<!-- Node13&#45;&gt;Node10 -->
<g id="edge12" class="edge">
<title>Node13&#45;&gt;Node10</title>
<path fill="none" stroke="#9a32cd" stroke-dasharray="5,2" d="M280.45,-9.21C298.31,-9.26 318.58,-9.7 337,-11 349.33,-11.87 362.47,-13.28 375,-14.86"/>
<polygon fill="#9a32cd" stroke="#9a32cd" points="280.24,-5.71 270.25,-9.22 280.25,-12.71 280.24,-5.71"/>
<text text-anchor="middle" x="312.5" y="-14" font-family="Helvetica,sans-Serif" font-size="10.00"> elements</text>
</g>
<!-- Node14 -->
<g id="node14" class="node">
<title>Node14</title>
<g id="a_node14"><a xlink:title=" ">
<polygon fill="white" stroke="black" points="37.5,-0.5 37.5,-19.5 66.5,-19.5 66.5,-0.5 37.5,-0.5"/>
<text text-anchor="middle" x="52" y="-7.5" font-family="Helvetica,sans-Serif" font-size="10.00">T</text>
</a>
</g>
</g>
<!-- Node14&#45;&gt;Node13 -->
<g id="edge13" class="edge">
<title>Node14&#45;&gt;Node13</title>
<path fill="none" stroke="#9a32cd" stroke-dasharray="5,2" d="M77.13,-10C105.96,-10 154.61,-10 188.96,-10"/>
<polygon fill="#9a32cd" stroke="#9a32cd" points="76.77,-6.5 66.77,-10 76.77,-13.5 76.77,-6.5"/>
<text text-anchor="middle" x="146.5" y="-13" font-family="Helvetica,sans-Serif" font-size="10.00"> elements</text>
</g>
<!-- Node15&#45;&gt;Node8 -->
<g id="edge14" class="edge">
<title>Node15&#45;&gt;Node8</title>
<path fill="none" stroke="#9a32cd" stroke-dasharray="5,2" d="M1158.51,-99.14C1195.6,-91.85 1240.13,-83.09 1273.35,-76.56"/>
<polygon fill="#9a32cd" stroke="#9a32cd" points="1157.4,-95.79 1148.26,-101.15 1158.75,-102.66 1157.4,-95.79"/>
<text text-anchor="middle" x="1202.5" y="-100" font-family="Helvetica,sans-Serif" font-size="10.00"> created_maps</text>
</g>
<!-- Node16 -->
<g id="node16" class="node">
<title>Node16</title>
<g id="a_node16"><a xlink:title=" ">
<polygon fill="white" stroke="black" points="813.5,-135 813.5,-165 926.5,-165 926.5,-135 813.5,-135"/>
<text text-anchor="start" x="821.5" y="-153" font-family="Helvetica,sans-Serif" font-size="10.00">std::shared_ptr&lt; kv</text>
<text text-anchor="middle" x="870" y="-142" font-family="Helvetica,sans-Serif" font-size="10.00">::AbstractMap &gt;</text>
</a>
</g>
</g>
<!-- Node16&#45;&gt;Node15 -->
<g id="edge16" class="edge">
<title>Node16&#45;&gt;Node15</title>
<path fill="none" stroke="#9a32cd" stroke-dasharray="5,2" d="M936.85,-138.67C965.16,-133.8 998.02,-128.14 1025.68,-123.38"/>
<polygon fill="#9a32cd" stroke="#9a32cd" points="935.91,-135.28 926.65,-140.42 937.1,-142.18 935.91,-135.28"/>
<text text-anchor="middle" x="981" y="-137" font-family="Helvetica,sans-Serif" font-size="10.00"> elements</text>
</g>
<!-- Node21 -->
<g id="node21" class="node">
<title>Node21</title>
<g id="a_node21"><a xlink:href="structkv_1_1MapChanges.html" target="_top" xlink:title=" ">
<polygon fill="white" stroke="black" points="1038.5,-161.5 1038.5,-180.5 1135.5,-180.5 1135.5,-161.5 1038.5,-161.5"/>
<text text-anchor="middle" x="1087" y="-168.5" font-family="Helvetica,sans-Serif" font-size="10.00">kv::MapChanges</text>
</a>
</g>
</g>
<!-- Node16&#45;&gt;Node21 -->
<g id="edge24" class="edge">
<title>Node16&#45;&gt;Node21</title>
<path fill="none" stroke="#9a32cd" stroke-dasharray="5,2" d="M936.61,-156.41C969.39,-159.61 1008.34,-163.41 1038.24,-166.34"/>
<polygon fill="#9a32cd" stroke="#9a32cd" points="936.94,-152.92 926.65,-155.44 936.26,-159.89 936.94,-152.92"/>
<text text-anchor="middle" x="981" y="-165" font-family="Helvetica,sans-Serif" font-size="10.00"> map</text>
</g>
<!-- Node17 -->
<g id="node17" class="node">
<title>Node17</title>
<g id="a_node17"><a xlink:href="classkv_1_1AbstractMap.html" target="_top" xlink:title=" ">
<polygon fill="white" stroke="black" points="628.5,-140.5 628.5,-159.5 723.5,-159.5 723.5,-140.5 628.5,-140.5"/>
<text text-anchor="middle" x="676" y="-147.5" font-family="Helvetica,sans-Serif" font-size="10.00">kv::AbstractMap</text>
</a>
</g>
</g>
<!-- Node17&#45;&gt;Node16 -->
<g id="edge17" class="edge">
<title>Node17&#45;&gt;Node16</title>
<path fill="none" stroke="#9a32cd" stroke-dasharray="5,2" d="M734.06,-150C759.11,-150 788.41,-150 813.31,-150"/>
<polygon fill="#9a32cd" stroke="#9a32cd" points="733.97,-146.5 723.97,-150 733.97,-153.5 733.97,-146.5"/>
<text text-anchor="middle" x="773" y="-153" font-family="Helvetica,sans-Serif" font-size="10.00"> ptr</text>
</g>
<!-- Node18 -->
<g id="node18" class="node">
<title>Node18</title>
<g id="a_node18"><a xlink:title=" ">
<polygon fill="white" stroke="black" points="360,-137 360,-167 512,-167 512,-137 360,-137"/>
<text text-anchor="start" x="368" y="-155" font-family="Helvetica,sans-Serif" font-size="10.00">std::enable_shared</text>
<text text-anchor="middle" x="436" y="-144" font-family="Helvetica,sans-Serif" font-size="10.00">_from_this&lt; AbstractMap &gt;</text>
</a>
</g>
</g>
<!-- Node18&#45;&gt;Node17 -->
<g id="edge18" class="edge">
<title>Node18&#45;&gt;Node17</title>
<path fill="none" stroke="midnightblue" d="M522.7,-151.28C558.27,-150.98 598.16,-150.65 628.19,-150.39"/>
<polygon fill="midnightblue" stroke="midnightblue" points="522.27,-147.78 512.3,-151.37 522.33,-154.78 522.27,-147.78"/>
</g>
<!-- Node19&#45;&gt;Node17 -->
<g id="edge19" class="edge">
<title>Node19&#45;&gt;Node17</title>
<path fill="none" stroke="midnightblue" d="M485.96,-116.64C527.64,-124 587.12,-134.49 628.17,-141.74"/>
<polygon fill="midnightblue" stroke="midnightblue" points="486.49,-113.18 476.03,-114.89 485.27,-120.07 486.49,-113.18"/>
</g>
<!-- Node20&#45;&gt;Node6 -->
<g id="edge21" class="edge">
<title>Node20&#45;&gt;Node6</title>
<path fill="none" stroke="#9a32cd" stroke-dasharray="5,2" d="M1394.61,-164.56C1469.36,-157.75 1584.22,-147.28 1640.92,-142.11"/>
<polygon fill="#9a32cd" stroke="#9a32cd" points="1393.98,-161.11 1384.34,-165.5 1394.62,-168.08 1393.98,-161.11"/>
<text text-anchor="middle" x="1508" y="-162" font-family="Helvetica,sans-Serif" font-size="10.00"> all_changes</text>
</g>
<!-- Node21&#45;&gt;Node20 -->
<g id="edge23" class="edge">
<title>Node21&#45;&gt;Node20</title>
<path fill="none" stroke="#9a32cd" stroke-dasharray="5,2" d="M1145.79,-171C1181.11,-171 1226.2,-171 1261.93,-171"/>
<polygon fill="#9a32cd" stroke="#9a32cd" points="1145.64,-167.5 1135.64,-171 1145.64,-174.5 1145.64,-167.5"/>
<text text-anchor="middle" x="1202.5" y="-174" font-family="Helvetica,sans-Serif" font-size="10.00"> elements</text>
</g>
<!-- Node22 -->
<g id="node22" class="node">
<title>Node22</title>
<g id="a_node22"><a xlink:title=" ">
<polygon fill="white" stroke="black" points="804,-201 804,-231 936,-231 936,-201 804,-201"/>
<text text-anchor="start" x="812" y="-219" font-family="Helvetica,sans-Serif" font-size="10.00">std::unique_ptr&lt; kv</text>
<text text-anchor="middle" x="870" y="-208" font-family="Helvetica,sans-Serif" font-size="10.00">::untyped::ChangeSet &gt;</text>
</a>
</g>
</g>
<!-- Node22&#45;&gt;Node21 -->
<g id="edge25" class="edge">
<title>Node22&#45;&gt;Node21</title>
<path fill="none" stroke="#9a32cd" stroke-dasharray="5,2" d="M946.15,-200.27C977.62,-193.68 1013.17,-186.24 1040.56,-180.51"/>
<polygon fill="#9a32cd" stroke="#9a32cd" points="945.16,-196.9 936.09,-202.38 946.6,-203.75 945.16,-196.9"/>
<text text-anchor="middle" x="981" y="-200" font-family="Helvetica,sans-Serif" font-size="10.00"> changeset</text>
</g>
<!-- Node23 -->
<g id="node23" class="node">
<title>Node23</title>
<g id="a_node23"><a xlink:href="structkv_1_1untyped_1_1ChangeSet.html" target="_top" xlink:title=" ">
<polygon fill="white" stroke="black" points="610,-224.5 610,-243.5 742,-243.5 742,-224.5 610,-224.5"/>
<text text-anchor="middle" x="676" y="-231.5" font-family="Helvetica,sans-Serif" font-size="10.00">kv::untyped::ChangeSet</text>
</a>
</g>
</g>
<!-- Node23&#45;&gt;Node22 -->
<g id="edge26" class="edge">
<title>Node23&#45;&gt;Node22</title>
<path fill="none" stroke="#9a32cd" stroke-dasharray="5,2" d="M752.42,-226.93C769.38,-225.34 787.24,-223.67 803.74,-222.12"/>
<polygon fill="#9a32cd" stroke="#9a32cd" points="751.63,-223.49 742,-227.91 752.29,-230.46 751.63,-223.49"/>
<text text-anchor="middle" x="773" y="-229" font-family="Helvetica,sans-Serif" font-size="10.00"> ptr</text>
</g>
<!-- Node24 -->
<g id="node24" class="node">
<title>Node24</title>
<g id="a_node24"><a xlink:href="classkv_1_1AbstractChangeSet.html" target="_top" xlink:title=" ">
<polygon fill="white" stroke="black" points="372.5,-224.5 372.5,-243.5 499.5,-243.5 499.5,-224.5 372.5,-224.5"/>
<text text-anchor="middle" x="436" y="-231.5" font-family="Helvetica,sans-Serif" font-size="10.00">kv::AbstractChangeSet</text>
</a>
</g>
</g>
<!-- Node24&#45;&gt;Node23 -->
<g id="edge27" class="edge">
<title>Node24&#45;&gt;Node23</title>
<path fill="none" stroke="midnightblue" d="M509.71,-234C541.69,-234 578.94,-234 609.98,-234"/>
<polygon fill="midnightblue" stroke="midnightblue" points="509.53,-230.5 499.53,-234 509.53,-237.5 509.53,-230.5"/>
</g>
<!-- Node25 -->
<g id="node25" class="node">
<title>Node25</title>
<g id="a_node25"><a xlink:href="classchamp_1_1Map.html" target="_top" xlink:title=" ">
<polygon fill="white" stroke="black" points="370,-186.5 370,-205.5 502,-205.5 502,-186.5 370,-186.5"/>
<text text-anchor="middle" x="436" y="-193.5" font-family="Helvetica,sans-Serif" font-size="10.00">champ::Map&lt; K, V, H &gt;</text>
</a>
</g>
</g>
<!-- Node25&#45;&gt;Node23 -->
<g id="edge28" class="edge">
<title>Node25&#45;&gt;Node23</title>
<path fill="none" stroke="#9a32cd" stroke-dasharray="5,2" d="M512.61,-198.42C538,-200.14 566.38,-203.06 592,-208 611.72,-211.8 633.35,-218.67 649.59,-224.39"/>
<polygon fill="#9a32cd" stroke="#9a32cd" points="512.49,-194.91 502.29,-197.77 512.06,-201.89 512.49,-194.91"/>
<text text-anchor="middle" x="563.5" y="-222" font-family="Helvetica,sans-Serif" font-size="10.00"> committed</text>
<text text-anchor="middle" x="563.5" y="-211" font-family="Helvetica,sans-Serif" font-size="10.00">state</text>
</g>
<!-- Node26 -->
<g id="node26" class="node">
<title>Node26</title>
<g id="a_node26"><a xlink:title=" ">
<polygon fill="white" stroke="black" points="355,-372.5 355,-413.5 517,-413.5 517,-372.5 355,-372.5"/>
<text text-anchor="start" x="363" y="-401.5" font-family="Helvetica,sans-Serif" font-size="10.00">std::map&lt; K, std::tuple</text>
<text text-anchor="start" x="363" y="-390.5" font-family="Helvetica,sans-Serif" font-size="10.00">&lt; DeletableVersion, LastRead</text>
<text text-anchor="middle" x="436" y="-379.5" font-family="Helvetica,sans-Serif" font-size="10.00">Version &gt; &gt;</text>
</a>
</g>
</g>
<!-- Node26&#45;&gt;Node23 -->
<g id="edge29" class="edge">
<title>Node26&#45;&gt;Node23</title>
<path fill="none" stroke="#9a32cd" stroke-dasharray="5,2" d="M476.75,-366.44C530.8,-330.33 624.84,-267.51 660.62,-243.6"/>
<polygon fill="#9a32cd" stroke="#9a32cd" points="474.49,-363.75 468.11,-372.21 478.37,-369.57 474.49,-363.75"/>
<text text-anchor="middle" x="563.5" y="-326" font-family="Helvetica,sans-Serif" font-size="10.00"> reads</text>
</g>
<!-- Node27 -->
<g id="node27" class="node">
<title>Node27</title>
<g id="a_node27"><a xlink:title=" ">
<polygon fill="white" stroke="black" points="215,-383.5 215,-402.5 244,-402.5 244,-383.5 215,-383.5"/>
<text text-anchor="middle" x="229.5" y="-390.5" font-family="Helvetica,sans-Serif" font-size="10.00">K</text>
</a>
</g>
</g>
<!-- Node27&#45;&gt;Node26 -->
<g id="edge30" class="edge">
<title>Node27&#45;&gt;Node26</title>
<path fill="none" stroke="#9a32cd" stroke-dasharray="5,2" d="M254.43,-393C279.08,-393 318.88,-393 354.84,-393"/>
<polygon fill="#9a32cd" stroke="#9a32cd" points="254.24,-389.5 244.24,-393 254.24,-396.5 254.24,-389.5"/>
<text text-anchor="middle" x="312.5" y="-396" font-family="Helvetica,sans-Serif" font-size="10.00"> keys</text>
</g>
<!-- Node28 -->
<g id="node28" class="node">
<title>Node28</title>
<g id="a_node28"><a xlink:title=" ">
<polygon fill="white" stroke="black" points="365.5,-263 365.5,-315 506.5,-315 506.5,-263 365.5,-263"/>
<text text-anchor="start" x="373.5" y="-303" font-family="Helvetica,sans-Serif" font-size="10.00">std::map&lt; kv::serialisers</text>
<text text-anchor="start" x="373.5" y="-292" font-family="Helvetica,sans-Serif" font-size="10.00">::SerialisedEntry, std</text>
<text text-anchor="start" x="373.5" y="-281" font-family="Helvetica,sans-Serif" font-size="10.00">::optional&lt; kv::serialisers</text>
<text text-anchor="middle" x="436" y="-270" font-family="Helvetica,sans-Serif" font-size="10.00">::SerialisedEntry &gt; &gt;</text>
</a>
</g>
</g>
<!-- Node28&#45;&gt;Node23 -->
<g id="edge31" class="edge">
<title>Node28&#45;&gt;Node23</title>
<path fill="none" stroke="#9a32cd" stroke-dasharray="5,2" d="M516.64,-270.6C555.94,-261.51 601.69,-250.94 633.88,-243.5"/>
<polygon fill="#9a32cd" stroke="#9a32cd" points="515.75,-267.21 506.8,-272.87 517.33,-274.03 515.75,-267.21"/>
<text text-anchor="middle" x="563.5" y="-267" font-family="Helvetica,sans-Serif" font-size="10.00"> writes</text>
</g>
<!-- Node29 -->
<g id="node29" class="node">
<title>Node29</title>
<g id="a_node29"><a xlink:href="structkv_1_1AbstractChangeContainer.html" target="_top" xlink:title=" ">
<polygon fill="white" stroke="black" points="1878,-81.5 1878,-100.5 2036,-100.5 2036,-81.5 1878,-81.5"/>
<text text-anchor="middle" x="1957" y="-88.5" font-family="Helvetica,sans-Serif" font-size="10.00">kv::AbstractChangeContainer</text>
</a>
</g>
</g>
<!-- Node29&#45;&gt;Node3 -->
<g id="edge32" class="edge">
<title>Node29&#45;&gt;Node3</title>
<path fill="none" stroke="midnightblue" d="M2046.58,-100.11C2064.21,-101.92 2082.21,-103.77 2098.26,-105.42"/>
<polygon fill="midnightblue" stroke="midnightblue" points="2046.58,-96.59 2036.27,-99.05 2045.86,-103.55 2046.58,-96.59"/>
</g>
<!-- Node30&#45;&gt;Node1 -->
<g id="edge33" class="edge">
<title>Node30&#45;&gt;Node1</title>
<path fill="none" stroke="#9a32cd" stroke-dasharray="5,2" d="M2214.34,-149C2238.89,-149 2267.24,-149 2291.82,-149"/>
<polygon fill="#9a32cd" stroke="#9a32cd" points="2214.08,-145.5 2204.08,-149 2214.08,-152.5 2214.08,-145.5"/>
<text text-anchor="middle" x="2257" y="-152" font-family="Helvetica,sans-Serif" font-size="10.00"> tx_ctx</text>
</g>
</g>
</svg>
        <g id="navigator" transform="translate(0 0)" fill="#404254">
                <rect fill="#f2f5e9" fill-opacity="0.5" stroke="#606060" stroke-width=".5" x="0" y="0" width="60" height="60"/>
                <use id="zoomplus" xlink:href="#zoomPlus" x="17" y="9" onmousedown="handleZoom(evt,'in')"/>
                <use id="zoomminus" xlink:href="#zoomMin" x="42" y="9" onmousedown="handleZoom(evt,'out')"/>
                <use id="reset" xlink:href="#resetDef" x="30" y="36" onmousedown="handleReset()"/>
                <g id="arrowUp" xlink:href="#dirArrow" transform="translate(30 24)" onmousedown="handlePan(0,-1)">
                  <use xlink:href="#rim" fill="#404040">
                        <set attributeName="fill" to="#808080" begin="arrowUp.mouseover" end="arrowUp.mouseout"/>
                  </use>
                  <path fill="none" stroke="white" stroke-width="1.5" d="M0,-3.0v7 M-2.5,-0.5L0,-3.0L2.5,-0.5"/>
                </g>
                <g id="arrowRight" xlink:href="#dirArrow" transform="rotate(90) translate(36 -43)" onmousedown="handlePan(1,0)">
                  <use xlink:href="#rim" fill="#404040">
                        <set attributeName="fill" to="#808080" begin="arrowRight.mouseover" end="arrowRight.mouseout"/>
                  </use>
                  <path fill="none" stroke="white" stroke-width="1.5" d="M0,-3.0v7 M-2.5,-0.5L0,-3.0L2.5,-0.5"/>
                </g>
                <g id="arrowDown" xlink:href="#dirArrow" transform="rotate(180) translate(-30 -48)" onmousedown="handlePan(0,1)">
                  <use xlink:href="#rim" fill="#404040">
                        <set attributeName="fill" to="#808080" begin="arrowDown.mouseover" end="arrowDown.mouseout"/>
                  </use>
                  <path fill="none" stroke="white" stroke-width="1.5" d="M0,-3.0v7 M-2.5,-0.5L0,-3.0L2.5,-0.5"/>
                </g>
                <g id="arrowLeft" xlink:href="#dirArrow" transform="rotate(270) translate(-36 17)" onmousedown="handlePan(-1,0)">
                  <use xlink:href="#rim" fill="#404040">
                        <set attributeName="fill" to="#808080" begin="arrowLeft.mouseover" end="arrowLeft.mouseout"/>
                  </use>
                  <path fill="none" stroke="white" stroke-width="1.5" d="M0,-3.0v7 M-2.5,-0.5L0,-3.0L2.5,-0.5"/>
                </g>
        </g>
        <svg viewBox="0 0 15 15" width="100%" height="30px" preserveAspectRatio="xMaxYMin meet">
         <g id="arrow_out" transform="scale(0.3 0.3)">
          <a xlink:href="structccf_1_1js_1_1HistoricalStateContext__coll__graph_org.svg" target="_base">
           <rect id="button" ry="5" rx="5" y="6" x="6" height="38" width="38"
                fill="#f2f5e9" fill-opacity="0.5" stroke="#606060" stroke-width="1.0"/>
           <path id="arrow"
             d="M 11.500037,31.436501 C 11.940474,20.09759 22.043105,11.32322 32.158766,21.979434 L 37.068811,17.246167 C 37.068811,17.246167 37.088388,32 37.088388,32 L 22.160133,31.978069 C 22.160133,31.978069 26.997745,27.140456 26.997745,27.140456 C 18.528582,18.264221 13.291696,25.230495 11.500037,31.436501 z"
             style="fill:#404040;"/>
          </a>
         </g>
        </svg>
</svg>
