<?xml version="1.0" encoding="UTF-8" standalone="no"?>
<!DOCTYPE svg PUBLIC "-//W3C//DTD SVG 1.1//EN"
 "http://www.w3.org/Graphics/SVG/1.1/DTD/svg11.dtd">
<!-- Generated by graphviz version 2.43.0 (0)
 -->
<!-- Title: ccf::SplitIdentityResharingTracker::UpdateResharingTaskMsg Pages: 1 -->
<svg width="407pt" height="184pt"
 viewBox="0.00 0.00 407.00 184.00" xmlns="http://www.w3.org/2000/svg" xmlns:xlink="http://www.w3.org/1999/xlink">
<g id="graph0" class="graph" transform="scale(1 1) rotate(0) translate(4 180)">
<title>ccf::SplitIdentityResharingTracker::UpdateResharingTaskMsg</title>
<polygon fill="white" stroke="transparent" points="-4,4 -4,-180 403,-180 403,4 -4,4"/>
<!-- Node1 -->
<g id="node1" class="node">
<title>Node1</title>
<g id="a_node1"><a xlink:title=" ">
<polygon fill="#bfbfbf" stroke="black" points="140,-0.5 140,-30.5 323,-30.5 323,-0.5 140,-0.5"/>
<text text-anchor="start" x="148" y="-18.5" font-family="Helvetica,sans-Serif" font-size="10.00">ccf::SplitIdentityResharing</text>
<text text-anchor="middle" x="231.5" y="-7.5" font-family="Helvetica,sans-Serif" font-size="10.00">Tracker::UpdateResharingTaskMsg</text>
</a>
</g>
</g>
<!-- Node2 -->
<g id="node2" class="node">
<title>Node2</title>
<g id="a_node2"><a xlink:title=" ">
<polygon fill="white" stroke="black" points="0,-78.5 0,-108.5 139,-108.5 139,-78.5 0,-78.5"/>
<text text-anchor="start" x="8" y="-96.5" font-family="Helvetica,sans-Serif" font-size="10.00">std::shared_ptr&lt; enclave</text>
<text text-anchor="middle" x="69.5" y="-85.5" font-family="Helvetica,sans-Serif" font-size="10.00">::RPCMap &gt;</text>
</a>
</g>
</g>
<!-- Node2&#45;&gt;Node1 -->
<g id="edge1" class="edge">
<title>Node2&#45;&gt;Node1</title>
<path fill="none" stroke="#9a32cd" stroke-dasharray="5,2" d="M108.88,-74.02C137.44,-60.63 175.48,-42.78 201.57,-30.54"/>
<polygon fill="#9a32cd" stroke="#9a32cd" points="107.16,-70.97 99.59,-78.38 110.13,-77.3 107.16,-70.97"/>
<text text-anchor="middle" x="183.5" y="-52" font-family="Helvetica,sans-Serif" font-size="10.00"> rpc_map</text>
</g>
<!-- Node3 -->
<g id="node3" class="node">
<title>Node3</title>
<g id="a_node3"><a xlink:href="classenclave_1_1RPCMap.html" target="_top" xlink:title=" ">
<polygon fill="white" stroke="black" points="19,-156.5 19,-175.5 120,-175.5 120,-156.5 19,-156.5"/>
<text text-anchor="middle" x="69.5" y="-163.5" font-family="Helvetica,sans-Serif" font-size="10.00">enclave::RPCMap</text>
</a>
</g>
</g>
<!-- Node3&#45;&gt;Node2 -->
<g id="edge2" class="edge">
<title>Node3&#45;&gt;Node2</title>
<path fill="none" stroke="#9a32cd" stroke-dasharray="5,2" d="M69.5,-146.24C69.5,-134.41 69.5,-119.38 69.5,-108.58"/>
<polygon fill="#9a32cd" stroke="#9a32cd" points="66,-146.36 69.5,-156.36 73,-146.36 66,-146.36"/>
<text text-anchor="middle" x="78" y="-130" font-family="Helvetica,sans-Serif" font-size="10.00"> ptr</text>
</g>
<!-- Node4 -->
<g id="node4" class="node">
<title>Node4</title>
<g id="a_node4"><a xlink:title=" ">
<polygon fill="white" stroke="black" points="157.5,-84 157.5,-103 305.5,-103 305.5,-84 157.5,-84"/>
<text text-anchor="middle" x="231.5" y="-91" font-family="Helvetica,sans-Serif" font-size="10.00">std::shared_ptr&lt; KeyPair &gt;</text>
</a>
</g>
</g>
<!-- Node4&#45;&gt;Node1 -->
<g id="edge3" class="edge">
<title>Node4&#45;&gt;Node1</title>
<path fill="none" stroke="#9a32cd" stroke-dasharray="5,2" d="M231.5,-73.78C231.5,-60.4 231.5,-42.69 231.5,-30.52"/>
<polygon fill="#9a32cd" stroke="#9a32cd" points="228,-73.78 231.5,-83.78 235,-73.78 228,-73.78"/>
<text text-anchor="middle" x="266.5" y="-52" font-family="Helvetica,sans-Serif" font-size="10.00"> node_sign_kp</text>
</g>
<!-- Node5 -->
<g id="node5" class="node">
<title>Node5</title>
<g id="a_node5"><a xlink:href="classcrypto_1_1Pem.html" target="_top" xlink:title=" ">
<polygon fill="white" stroke="black" points="324,-84 324,-103 399,-103 399,-84 324,-84"/>
<text text-anchor="middle" x="361.5" y="-91" font-family="Helvetica,sans-Serif" font-size="10.00">crypto::Pem</text>
</a>
</g>
</g>
<!-- Node5&#45;&gt;Node1 -->
<g id="edge4" class="edge">
<title>Node5&#45;&gt;Node1</title>
<path fill="none" stroke="#9a32cd" stroke-dasharray="5,2" d="M344,-77.09C333.35,-68.18 319.19,-57.15 305.5,-49 293.93,-42.11 280.63,-35.81 268.52,-30.64"/>
<polygon fill="#9a32cd" stroke="#9a32cd" points="341.85,-79.85 351.72,-83.69 346.39,-74.53 341.85,-79.85"/>
<text text-anchor="middle" x="347.5" y="-52" font-family="Helvetica,sans-Serif" font-size="10.00"> node_cert</text>
</g>
</g>
</svg>
