<?xml version="1.0" encoding="UTF-8" standalone="no"?>
<!DOCTYPE svg PUBLIC "-//W3C//DTD SVG 1.1//EN"
 "http://www.w3.org/Graphics/SVG/1.1/DTD/svg11.dtd">
<!-- Generated by graphviz version 2.43.0 (0)
 -->
<!-- Title: ccf::Receipt Pages: 1 -->
<svg width="453pt" height="184pt"
 viewBox="0.00 0.00 452.50 184.00" xmlns="http://www.w3.org/2000/svg" xmlns:xlink="http://www.w3.org/1999/xlink">
<g id="graph0" class="graph" transform="scale(1 1) rotate(0) translate(4 180)">
<title>ccf::Receipt</title>
<polygon fill="white" stroke="transparent" points="-4,4 -4,-180 448.5,-180 448.5,4 -4,4"/>
<!-- Node1 -->
<g id="node1" class="node">
<title>Node1</title>
<g id="a_node1"><a xlink:title=" ">
<polygon fill="#bfbfbf" stroke="black" points="142.5,-0.5 142.5,-19.5 215.5,-19.5 215.5,-0.5 142.5,-0.5"/>
<text text-anchor="middle" x="179" y="-7.5" font-family="Helvetica,sans-Serif" font-size="10.00">ccf::Receipt</text>
</a>
</g>
</g>
<!-- Node2 -->
<g id="node2" class="node">
<title>Node2</title>
<g id="a_node2"><a xlink:title=" ">
<polygon fill="white" stroke="black" points="22.5,-73 22.5,-92 87.5,-92 87.5,-73 22.5,-73"/>
<text text-anchor="middle" x="55" y="-80" font-family="Helvetica,sans-Serif" font-size="10.00">std::string</text>
</a>
</g>
</g>
<!-- Node2&#45;&gt;Node1 -->
<g id="edge1" class="edge">
<title>Node2&#45;&gt;Node1</title>
<path fill="none" stroke="#9a32cd" stroke-dasharray="5,2" d="M77.24,-67.26C91.1,-58.53 109.4,-47.3 126,-38 137.53,-31.54 150.78,-24.79 161.15,-19.66"/>
<polygon fill="#9a32cd" stroke="#9a32cd" points="75,-64.53 68.42,-72.84 78.74,-70.44 75,-64.53"/>
<text text-anchor="middle" x="150.5" y="-41" font-family="Helvetica,sans-Serif" font-size="10.00"> signature</text>
</g>
<!-- Node3 -->
<g id="node3" class="node">
<title>Node3</title>
<g id="a_node3"><a xlink:title=" ">
<polygon fill="white" stroke="black" points="0,-145.5 0,-175.5 104,-175.5 104,-145.5 0,-145.5"/>
<text text-anchor="start" x="8" y="-163.5" font-family="Helvetica,sans-Serif" font-size="10.00">std::basic_string&lt;</text>
<text text-anchor="middle" x="52" y="-152.5" font-family="Helvetica,sans-Serif" font-size="10.00"> Char &gt;</text>
</a>
</g>
</g>
<!-- Node3&#45;&gt;Node2 -->
<g id="edge2" class="edge">
<title>Node3&#45;&gt;Node2</title>
<path fill="none" stroke="midnightblue" d="M52.96,-135.17C53.54,-120.4 54.25,-102.45 54.66,-92.06"/>
<polygon fill="midnightblue" stroke="midnightblue" points="49.46,-135.07 52.56,-145.2 56.46,-135.35 49.46,-135.07"/>
</g>
<!-- Node4 -->
<g id="node4" class="node">
<title>Node4</title>
<g id="a_node4"><a xlink:title=" ">
<polygon fill="white" stroke="black" points="111,-67.5 111,-97.5 247,-97.5 247,-67.5 111,-67.5"/>
<text text-anchor="start" x="119" y="-85.5" font-family="Helvetica,sans-Serif" font-size="10.00">std::vector&lt; ccf::Receipt</text>
<text text-anchor="middle" x="179" y="-74.5" font-family="Helvetica,sans-Serif" font-size="10.00">::Element &gt;</text>
</a>
</g>
</g>
<!-- Node4&#45;&gt;Node1 -->
<g id="edge3" class="edge">
<title>Node4&#45;&gt;Node1</title>
<path fill="none" stroke="#9a32cd" stroke-dasharray="5,2" d="M179,-57.09C179,-44.21 179,-29.2 179,-19.89"/>
<polygon fill="#9a32cd" stroke="#9a32cd" points="175.5,-57.23 179,-67.23 182.5,-57.23 175.5,-57.23"/>
<text text-anchor="middle" x="193.5" y="-41" font-family="Helvetica,sans-Serif" font-size="10.00"> proof</text>
</g>
<!-- Node5 -->
<g id="node5" class="node">
<title>Node5</title>
<g id="a_node5"><a xlink:href="structccf_1_1Receipt_1_1Element.html" target="_top" xlink:title=" ">
<polygon fill="white" stroke="black" points="122.5,-151 122.5,-170 241.5,-170 241.5,-151 122.5,-151"/>
<text text-anchor="middle" x="182" y="-158" font-family="Helvetica,sans-Serif" font-size="10.00">ccf::Receipt::Element</text>
</a>
</g>
</g>
<!-- Node5&#45;&gt;Node4 -->
<g id="edge4" class="edge">
<title>Node5&#45;&gt;Node4</title>
<path fill="none" stroke="#9a32cd" stroke-dasharray="5,2" d="M181.26,-140.78C180.73,-127.4 180.03,-109.69 179.55,-97.52"/>
<polygon fill="#9a32cd" stroke="#9a32cd" points="177.76,-140.93 181.66,-150.78 184.76,-140.65 177.76,-140.93"/>
<text text-anchor="middle" x="205.5" y="-119" font-family="Helvetica,sans-Serif" font-size="10.00"> elements</text>
</g>
<!-- Node6 -->
<g id="node6" class="node">
<title>Node6</title>
<g id="a_node6"><a xlink:href="structccf_1_1EntityId.html" target="_top" xlink:title=" ">
<polygon fill="white" stroke="black" points="265.5,-73 265.5,-92 444.5,-92 444.5,-73 265.5,-73"/>
<text text-anchor="middle" x="355" y="-80" font-family="Helvetica,sans-Serif" font-size="10.00">ccf::EntityId&lt; NodeIdFormatter &gt;</text>
</a>
</g>
</g>
<!-- Node6&#45;&gt;Node1 -->
<g id="edge5" class="edge">
<title>Node6&#45;&gt;Node1</title>
<path fill="none" stroke="#9a32cd" stroke-dasharray="5,2" d="M324.38,-69.24C288.87,-55.01 231.27,-31.94 200.31,-19.53"/>
<polygon fill="#9a32cd" stroke="#9a32cd" points="323.19,-72.53 333.77,-73 325.79,-66.03 323.19,-72.53"/>
<text text-anchor="middle" x="293" y="-41" font-family="Helvetica,sans-Serif" font-size="10.00"> node_id</text>
</g>
</g>
</svg>
