<?xml version="1.0" encoding="UTF-8" standalone="no"?>
<!DOCTYPE svg PUBLIC "-//W3C//DTD SVG 1.1//EN"
 "http://www.w3.org/Graphics/SVG/1.1/DTD/svg11.dtd">
<!-- Generated by graphviz version 2.43.0 (0)
 -->
<!-- Title: ccf::endpoints::CommandEndpointContext Pages: 1 -->
<svg width="1219pt" height="116pt"
 viewBox="0.00 0.00 1219.00 115.50" xmlns="http://www.w3.org/2000/svg" xmlns:xlink="http://www.w3.org/1999/xlink">
<g id="graph0" class="graph" transform="scale(1 1) rotate(0) translate(4 111.5)">
<title>ccf::endpoints::CommandEndpointContext</title>
<polygon fill="white" stroke="transparent" points="-4,4 -4,-111.5 1215,-111.5 1215,4 -4,4"/>
<!-- Node1 -->
<g id="node1" class="node">
<title>Node1</title>
<g id="a_node1"><a xlink:title=" ">
<polygon fill="#bfbfbf" stroke="black" points="1028,-24.5 1028,-54.5 1211,-54.5 1211,-24.5 1028,-24.5"/>
<text text-anchor="start" x="1036" y="-42.5" font-family="Helvetica,sans-Serif" font-size="10.00">ccf::endpoints::CommandEndpoint</text>
<text text-anchor="middle" x="1119.5" y="-31.5" font-family="Helvetica,sans-Serif" font-size="10.00">Context</text>
</a>
</g>
</g>
<!-- Node2 -->
<g id="node2" class="node">
<title>Node2</title>
<g id="a_node2"><a xlink:title=" ">
<polygon fill="white" stroke="black" points="814,-49.5 814,-79.5 953,-79.5 953,-49.5 814,-49.5"/>
<text text-anchor="start" x="822" y="-67.5" font-family="Helvetica,sans-Serif" font-size="10.00">std::shared_ptr&lt; enclave</text>
<text text-anchor="middle" x="883.5" y="-56.5" font-family="Helvetica,sans-Serif" font-size="10.00">::RpcContext &gt;</text>
</a>
</g>
</g>
<!-- Node2&#45;&gt;Node1 -->
<g id="edge1" class="edge">
<title>Node2&#45;&gt;Node1</title>
<path fill="none" stroke="#9a32cd" stroke-dasharray="5,2" d="M963.14,-56.1C983.86,-53.88 1006.39,-51.48 1027.69,-49.2"/>
<polygon fill="#9a32cd" stroke="#9a32cd" points="962.7,-52.63 953.13,-57.17 963.44,-59.59 962.7,-52.63"/>
<text text-anchor="middle" x="990.5" y="-57.5" font-family="Helvetica,sans-Serif" font-size="10.00"> rpc_ctx</text>
</g>
<!-- Node3 -->
<g id="node3" class="node">
<title>Node3</title>
<g id="a_node3"><a xlink:href="classenclave_1_1RpcContext.html" target="_top" xlink:title=" ">
<polygon fill="white" stroke="black" points="644,-55 644,-74 761,-74 761,-55 644,-55"/>
<text text-anchor="middle" x="702.5" y="-62" font-family="Helvetica,sans-Serif" font-size="10.00">enclave::RpcContext</text>
</a>
</g>
</g>
<!-- Node3&#45;&gt;Node2 -->
<g id="edge2" class="edge">
<title>Node3&#45;&gt;Node2</title>
<path fill="none" stroke="#9a32cd" stroke-dasharray="5,2" d="M771.52,-64.5C785.34,-64.5 799.89,-64.5 813.73,-64.5"/>
<polygon fill="#9a32cd" stroke="#9a32cd" points="771.12,-61 761.12,-64.5 771.12,-68 771.12,-61"/>
<text text-anchor="middle" x="787.5" y="-67.5" font-family="Helvetica,sans-Serif" font-size="10.00"> ptr</text>
</g>
<!-- Node4 -->
<g id="node4" class="node">
<title>Node4</title>
<g id="a_node4"><a xlink:title=" ">
<polygon fill="white" stroke="black" points="429,-49.5 429,-79.5 568,-79.5 568,-49.5 429,-49.5"/>
<text text-anchor="start" x="437" y="-67.5" font-family="Helvetica,sans-Serif" font-size="10.00">std::shared_ptr&lt; enclave</text>
<text text-anchor="middle" x="498.5" y="-56.5" font-family="Helvetica,sans-Serif" font-size="10.00">::SessionContext &gt;</text>
</a>
</g>
</g>
<!-- Node4&#45;&gt;Node3 -->
<g id="edge3" class="edge">
<title>Node4&#45;&gt;Node3</title>
<path fill="none" stroke="#9a32cd" stroke-dasharray="5,2" d="M578.4,-64.5C600.19,-64.5 623.43,-64.5 643.78,-64.5"/>
<polygon fill="#9a32cd" stroke="#9a32cd" points="578.17,-61 568.17,-64.5 578.17,-68 578.17,-61"/>
<text text-anchor="middle" x="606" y="-67.5" font-family="Helvetica,sans-Serif" font-size="10.00"> session</text>
</g>
<!-- Node5 -->
<g id="node5" class="node">
<title>Node5</title>
<g id="a_node5"><a xlink:href="structenclave_1_1SessionContext.html" target="_top" xlink:title=" ">
<polygon fill="white" stroke="black" points="216,-60 216,-79 353,-79 353,-60 216,-60"/>
<text text-anchor="middle" x="284.5" y="-67" font-family="Helvetica,sans-Serif" font-size="10.00">enclave::SessionContext</text>
</a>
</g>
</g>
<!-- Node5&#45;&gt;Node4 -->
<g id="edge4" class="edge">
<title>Node5&#45;&gt;Node4</title>
<path fill="none" stroke="#9a32cd" stroke-dasharray="5,2" d="M363.21,-67.67C384.65,-67.16 407.76,-66.62 428.66,-66.12"/>
<polygon fill="#9a32cd" stroke="#9a32cd" points="363.08,-64.17 353.16,-67.9 363.24,-71.17 363.08,-64.17"/>
<text text-anchor="middle" x="391" y="-69.5" font-family="Helvetica,sans-Serif" font-size="10.00"> ptr</text>
</g>
<!-- Node6 -->
<g id="node6" class="node">
<title>Node6</title>
<g id="a_node6"><a xlink:title=" ">
<polygon fill="white" stroke="black" points="0,-80 0,-99 125,-99 125,-80 0,-80"/>
<text text-anchor="middle" x="62.5" y="-87" font-family="Helvetica,sans-Serif" font-size="10.00">std::vector&lt; uint8_t &gt;</text>
</a>
</g>
</g>
<!-- Node6&#45;&gt;Node3 -->
<g id="edge6" class="edge">
<title>Node6&#45;&gt;Node3</title>
<path fill="none" stroke="#9a32cd" stroke-dasharray="5,2" d="M135.26,-94.22C137.88,-94.33 140.46,-94.42 143,-94.5 167.43,-95.27 173.56,-94.67 198,-94.5 362.46,-93.39 404.24,-104.63 568,-89.5 599.7,-86.57 635.09,-79.78 661.46,-74.01"/>
<polygon fill="#9a32cd" stroke="#9a32cd" points="135.26,-90.72 125.11,-93.76 134.94,-97.71 135.26,-90.72"/>
<text text-anchor="middle" x="391" y="-99.5" font-family="Helvetica,sans-Serif" font-size="10.00"> bft_raw</text>
</g>
<!-- Node6&#45;&gt;Node5 -->
<g id="edge5" class="edge">
<title>Node6&#45;&gt;Node5</title>
<path fill="none" stroke="#9a32cd" stroke-dasharray="5,2" d="M135.2,-82.98C161.09,-80.63 190.22,-77.98 215.76,-75.66"/>
<polygon fill="#9a32cd" stroke="#9a32cd" points="134.72,-79.51 125.07,-83.9 135.35,-86.48 134.72,-79.51"/>
<text text-anchor="middle" x="170.5" y="-84.5" font-family="Helvetica,sans-Serif" font-size="10.00"> caller_cert</text>
</g>
<!-- Node7 -->
<g id="node7" class="node">
<title>Node7</title>
<g id="a_node7"><a xlink:href="classccf_1_1ClaimsDigest.html" target="_top" xlink:title=" ">
<polygon fill="white" stroke="black" points="448,-11 448,-30 549,-30 549,-11 448,-11"/>
<text text-anchor="middle" x="498.5" y="-18" font-family="Helvetica,sans-Serif" font-size="10.00">ccf::ClaimsDigest</text>
</a>
</g>
</g>
<!-- Node7&#45;&gt;Node3 -->
<g id="edge7" class="edge">
<title>Node7&#45;&gt;Node3</title>
<path fill="none" stroke="#9a32cd" stroke-dasharray="5,2" d="M553.18,-32.19C585.85,-39.31 627.07,-48.29 657.75,-54.97"/>
<polygon fill="#9a32cd" stroke="#9a32cd" points="553.85,-28.76 543.33,-30.05 552.36,-35.6 553.85,-28.76"/>
<text text-anchor="middle" x="606" y="-50.5" font-family="Helvetica,sans-Serif" font-size="10.00"> claims</text>
</g>
<!-- Node8 -->
<g id="node8" class="node">
<title>Node8</title>
<g id="a_node8"><a xlink:title=" ">
<polygon fill="white" stroke="black" points="826,-0.5 826,-30.5 941,-30.5 941,-0.5 826,-0.5"/>
<text text-anchor="start" x="834" y="-18.5" font-family="Helvetica,sans-Serif" font-size="10.00">std::unique_ptr&lt; ccf</text>
<text text-anchor="middle" x="883.5" y="-7.5" font-family="Helvetica,sans-Serif" font-size="10.00">::AuthnIdentity &gt;</text>
</a>
</g>
</g>
<!-- Node8&#45;&gt;Node1 -->
<g id="edge8" class="edge">
<title>Node8&#45;&gt;Node1</title>
<path fill="none" stroke="#9a32cd" stroke-dasharray="5,2" d="M951.13,-21.69C970.15,-23.5 990.9,-25.53 1010,-27.5 1015.84,-28.1 1021.86,-28.74 1027.93,-29.38"/>
<polygon fill="#9a32cd" stroke="#9a32cd" points="951.34,-18.19 941.06,-20.73 950.68,-25.16 951.34,-18.19"/>
<text text-anchor="middle" x="990.5" y="-30.5" font-family="Helvetica,sans-Serif" font-size="10.00"> caller</text>
</g>
<!-- Node9 -->
<g id="node9" class="node">
<title>Node9</title>
<g id="a_node9"><a xlink:href="structccf_1_1AuthnIdentity.html" target="_top" xlink:title=" ">
<polygon fill="white" stroke="black" points="651.5,-6 651.5,-25 753.5,-25 753.5,-6 651.5,-6"/>
<text text-anchor="middle" x="702.5" y="-13" font-family="Helvetica,sans-Serif" font-size="10.00">ccf::AuthnIdentity</text>
</a>
</g>
</g>
<!-- Node9&#45;&gt;Node8 -->
<g id="edge9" class="edge">
<title>Node9&#45;&gt;Node8</title>
<path fill="none" stroke="#9a32cd" stroke-dasharray="5,2" d="M764.08,-15.5C784.08,-15.5 806.24,-15.5 825.93,-15.5"/>
<polygon fill="#9a32cd" stroke="#9a32cd" points="763.84,-12 753.84,-15.5 763.84,-19 763.84,-12"/>
<text text-anchor="middle" x="787.5" y="-18.5" font-family="Helvetica,sans-Serif" font-size="10.00"> ptr</text>
</g>
</g>
</svg>
