<?xml version="1.0" encoding="UTF-8" standalone="no"?>
<!DOCTYPE svg PUBLIC "-//W3C//DTD SVG 1.1//EN"
 "http://www.w3.org/Graphics/SVG/1.1/DTD/svg11.dtd">
<!-- Generated by graphviz version 2.43.0 (0)
 -->
<!-- Title: src/host/tcp.h Pages: 1 -->
<svg width="902pt" height="252pt"
 viewBox="0.00 0.00 901.50 252.00" xmlns="http://www.w3.org/2000/svg" xmlns:xlink="http://www.w3.org/1999/xlink">
<g id="graph0" class="graph" transform="scale(1 1) rotate(0) translate(4 248)">
<title>src/host/tcp.h</title>
<polygon fill="white" stroke="transparent" points="-4,4 -4,-248 897.5,-248 897.5,4 -4,4"/>
<!-- Node1 -->
<g id="node1" class="node">
<title>Node1</title>
<g id="a_node1"><a xlink:title=" ">
<polygon fill="#bfbfbf" stroke="black" points="506,-224.5 506,-243.5 588,-243.5 588,-224.5 506,-224.5"/>
<text text-anchor="middle" x="547" y="-231.5" font-family="Helvetica,sans-Serif" font-size="10.00">src/host/tcp.h</text>
</a>
</g>
</g>
<!-- Node2 -->
<g id="node2" class="node">
<title>Node2</title>
<g id="a_node2"><a xlink:href="before__io_8h.html" target="_top" xlink:title=" ">
<polygon fill="white" stroke="black" points="658.5,-168.5 658.5,-187.5 729.5,-187.5 729.5,-168.5 658.5,-168.5"/>
<text text-anchor="middle" x="694" y="-175.5" font-family="Helvetica,sans-Serif" font-size="10.00">before_io.h</text>
</a>
</g>
</g>
<!-- Node1&#45;&gt;Node2 -->
<g id="edge1" class="edge">
<title>Node1&#45;&gt;Node2</title>
<path fill="none" stroke="midnightblue" d="M570.29,-224.44C594.81,-215.44 633.6,-201.19 661.2,-191.05"/>
<polygon fill="midnightblue" stroke="midnightblue" points="662.64,-194.25 670.82,-187.52 660.22,-187.68 662.64,-194.25"/>
</g>
<!-- Node3 -->
<g id="node3" class="node">
<title>Node3</title>
<g id="a_node3"><a xlink:href="proxy_8h.html" target="_top" xlink:title=" ">
<polygon fill="white" stroke="black" points="679,-112.5 679,-131.5 731,-131.5 731,-112.5 679,-112.5"/>
<text text-anchor="middle" x="705" y="-119.5" font-family="Helvetica,sans-Serif" font-size="10.00">proxy.h</text>
</a>
</g>
</g>
<!-- Node1&#45;&gt;Node3 -->
<g id="edge24" class="edge">
<title>Node1&#45;&gt;Node3</title>
<path fill="none" stroke="midnightblue" d="M559.4,-224.37C586.4,-205.57 650.75,-160.77 684.12,-137.53"/>
<polygon fill="midnightblue" stroke="midnightblue" points="686.45,-140.18 692.66,-131.59 682.45,-134.43 686.45,-140.18"/>
</g>
<!-- Node5 -->
<g id="node5" class="node">
<title>Node5</title>
<g id="a_node5"><a xlink:href="logger_8h.html" target="_top" xlink:title=" ">
<polygon fill="white" stroke="black" points="431.5,-112.5 431.5,-131.5 518.5,-131.5 518.5,-112.5 431.5,-112.5"/>
<text text-anchor="middle" x="475" y="-119.5" font-family="Helvetica,sans-Serif" font-size="10.00">ccf/ds/logger.h</text>
</a>
</g>
</g>
<!-- Node1&#45;&gt;Node5 -->
<g id="edge4" class="edge">
<title>Node1&#45;&gt;Node5</title>
<path fill="none" stroke="midnightblue" d="M540.95,-224.44C534.63,-215.44 524.46,-200.83 516,-188 505.48,-172.05 493.9,-153.6 485.73,-140.44"/>
<polygon fill="midnightblue" stroke="midnightblue" points="488.69,-138.57 480.46,-131.9 482.74,-142.25 488.69,-138.57"/>
</g>
<!-- Node16 -->
<g id="node16" class="node">
<title>Node16</title>
<g id="a_node16"><a xlink:title=" ">
<polygon fill="white" stroke="#bfbfbf" points="0,-56.5 0,-75.5 56,-75.5 56,-56.5 0,-56.5"/>
<text text-anchor="middle" x="28" y="-63.5" font-family="Helvetica,sans-Serif" font-size="10.00">optional</text>
</a>
</g>
</g>
<!-- Node1&#45;&gt;Node16 -->
<g id="edge25" class="edge">
<title>Node1&#45;&gt;Node16</title>
<path fill="none" stroke="midnightblue" d="M520.19,-224.42C433.88,-196.82 163.17,-110.23 64.47,-78.66"/>
<polygon fill="midnightblue" stroke="midnightblue" points="65.24,-75.24 54.65,-75.52 63.11,-81.9 65.24,-75.24"/>
</g>
<!-- Node19 -->
<g id="node19" class="node">
<title>Node19</title>
<g id="a_node19"><a xlink:href="dns_8h.html" target="_top" xlink:title=" ">
<polygon fill="white" stroke="black" points="525.5,-168.5 525.5,-187.5 568.5,-187.5 568.5,-168.5 525.5,-168.5"/>
<text text-anchor="middle" x="547" y="-175.5" font-family="Helvetica,sans-Serif" font-size="10.00">dns.h</text>
</a>
</g>
</g>
<!-- Node1&#45;&gt;Node19 -->
<g id="edge20" class="edge">
<title>Node1&#45;&gt;Node19</title>
<path fill="none" stroke="midnightblue" d="M547,-224.08C547,-217.01 547,-206.86 547,-197.99"/>
<polygon fill="midnightblue" stroke="midnightblue" points="550.5,-197.75 547,-187.75 543.5,-197.75 550.5,-197.75"/>
</g>
<!-- Node2&#45;&gt;Node3 -->
<g id="edge2" class="edge">
<title>Node2&#45;&gt;Node3</title>
<path fill="none" stroke="midnightblue" d="M695.82,-168.08C697.27,-160.93 699.37,-150.64 701.19,-141.69"/>
<polygon fill="midnightblue" stroke="midnightblue" points="704.65,-142.25 703.22,-131.75 697.79,-140.85 704.65,-142.25"/>
</g>
<!-- Node4 -->
<g id="node4" class="node">
<title>Node4</title>
<g id="a_node4"><a xlink:title=" ">
<polygon fill="white" stroke="#bfbfbf" points="856.5,-56.5 856.5,-75.5 893.5,-75.5 893.5,-56.5 856.5,-56.5"/>
<text text-anchor="middle" x="875" y="-63.5" font-family="Helvetica,sans-Serif" font-size="10.00">uv.h</text>
</a>
</g>
</g>
<!-- Node3&#45;&gt;Node4 -->
<g id="edge3" class="edge">
<title>Node3&#45;&gt;Node4</title>
<path fill="none" stroke="midnightblue" d="M731.14,-112.92C757.93,-104.61 801.05,-91.14 846.66,-76.4"/>
<polygon fill="midnightblue" stroke="midnightblue" points="847.99,-79.65 856.42,-73.24 845.83,-72.99 847.99,-79.65"/>
</g>
<!-- Node6 -->
<g id="node6" class="node">
<title>Node6</title>
<g id="a_node6"><a xlink:href="enum__formatter_8h.html" target="_top" xlink:title=" ">
<polygon fill="white" stroke="black" points="74,-56.5 74,-75.5 210,-75.5 210,-56.5 74,-56.5"/>
<text text-anchor="middle" x="142" y="-63.5" font-family="Helvetica,sans-Serif" font-size="10.00">ccf/ds/enum_formatter.h</text>
</a>
</g>
</g>
<!-- Node5&#45;&gt;Node6 -->
<g id="edge5" class="edge">
<title>Node5&#45;&gt;Node6</title>
<path fill="none" stroke="midnightblue" d="M431.47,-113.94C373.53,-104.55 270.71,-87.87 204.5,-77.13"/>
<polygon fill="midnightblue" stroke="midnightblue" points="205.03,-73.68 194.6,-75.53 203.91,-80.59 205.03,-73.68"/>
</g>
<!-- Node7 -->
<g id="node7" class="node">
<title>Node7</title>
<g id="a_node7"><a xlink:title=" ">
<polygon fill="white" stroke="#bfbfbf" points="142.5,-0.5 142.5,-19.5 221.5,-19.5 221.5,-0.5 142.5,-0.5"/>
<text text-anchor="middle" x="182" y="-7.5" font-family="Helvetica,sans-Serif" font-size="10.00">fmt/format.h</text>
</a>
</g>
</g>
<!-- Node5&#45;&gt;Node7 -->
<g id="edge14" class="edge">
<title>Node5&#45;&gt;Node7</title>
<path fill="none" stroke="midnightblue" d="M431.11,-118.47C385.52,-114.38 313.13,-103.73 257,-76 232.76,-64.02 210.05,-42.3 196.11,-27.29"/>
<polygon fill="midnightblue" stroke="midnightblue" points="198.6,-24.83 189.31,-19.74 193.4,-29.51 198.6,-24.83"/>
</g>
<!-- Node8 -->
<g id="node8" class="node">
<title>Node8</title>
<g id="a_node8"><a xlink:href="thread__ids_8h.html" target="_top" xlink:title=" ">
<polygon fill="white" stroke="black" points="266,-56.5 266,-75.5 374,-75.5 374,-56.5 266,-56.5"/>
<text text-anchor="middle" x="320" y="-63.5" font-family="Helvetica,sans-Serif" font-size="10.00">ccf/ds/thread_ids.h</text>
</a>
</g>
</g>
<!-- Node5&#45;&gt;Node8 -->
<g id="edge7" class="edge">
<title>Node5&#45;&gt;Node8</title>
<path fill="none" stroke="midnightblue" d="M450.44,-112.44C424.48,-103.4 383.33,-89.06 354.2,-78.92"/>
<polygon fill="midnightblue" stroke="midnightblue" points="355.04,-75.5 344.45,-75.52 352.74,-82.11 355.04,-75.5"/>
</g>
<!-- Node13 -->
<g id="node13" class="node">
<title>Node13</title>
<g id="a_node13"><a xlink:title=" ">
<polygon fill="white" stroke="#bfbfbf" points="392.5,-56.5 392.5,-75.5 471.5,-75.5 471.5,-56.5 392.5,-56.5"/>
<text text-anchor="middle" x="432" y="-63.5" font-family="Helvetica,sans-Serif" font-size="10.00">fmt/chrono.h</text>
</a>
</g>
</g>
<!-- Node5&#45;&gt;Node13 -->
<g id="edge13" class="edge">
<title>Node5&#45;&gt;Node13</title>
<path fill="none" stroke="midnightblue" d="M467.9,-112.08C461.76,-104.38 452.73,-93.03 445.26,-83.65"/>
<polygon fill="midnightblue" stroke="midnightblue" points="447.94,-81.39 438.97,-75.75 442.46,-85.75 447.94,-81.39"/>
</g>
<!-- Node14 -->
<g id="node14" class="node">
<title>Node14</title>
<g id="a_node14"><a xlink:title=" ">
<polygon fill="white" stroke="#bfbfbf" points="489,-56.5 489,-75.5 549,-75.5 549,-56.5 489,-56.5"/>
<text text-anchor="middle" x="519" y="-63.5" font-family="Helvetica,sans-Serif" font-size="10.00">iostream</text>
</a>
</g>
</g>
<!-- Node5&#45;&gt;Node14 -->
<g id="edge15" class="edge">
<title>Node5&#45;&gt;Node14</title>
<path fill="none" stroke="midnightblue" d="M482.27,-112.08C488.54,-104.38 497.79,-93.03 505.43,-83.65"/>
<polygon fill="midnightblue" stroke="midnightblue" points="508.27,-85.71 511.87,-75.75 502.84,-81.29 508.27,-85.71"/>
</g>
<!-- Node15 -->
<g id="node15" class="node">
<title>Node15</title>
<g id="a_node15"><a xlink:title=" ">
<polygon fill="white" stroke="#bfbfbf" points="567,-56.5 567,-75.5 677,-75.5 677,-56.5 567,-56.5"/>
<text text-anchor="middle" x="622" y="-63.5" font-family="Helvetica,sans-Serif" font-size="10.00">nlohmann/json.hpp</text>
</a>
</g>
</g>
<!-- Node5&#45;&gt;Node15 -->
<g id="edge16" class="edge">
<title>Node5&#45;&gt;Node15</title>
<path fill="none" stroke="midnightblue" d="M498.29,-112.44C522.81,-103.44 561.6,-89.19 589.2,-79.05"/>
<polygon fill="midnightblue" stroke="midnightblue" points="590.64,-82.25 598.82,-75.52 588.22,-75.68 590.64,-82.25"/>
</g>
<!-- Node5&#45;&gt;Node16 -->
<g id="edge17" class="edge">
<title>Node5&#45;&gt;Node16</title>
<path fill="none" stroke="midnightblue" d="M431.35,-118.07C357.89,-112.74 204.81,-99.89 66.16,-76"/>
<polygon fill="midnightblue" stroke="midnightblue" points="66.66,-72.53 56.2,-74.26 65.45,-79.43 66.66,-72.53"/>
</g>
<!-- Node17 -->
<g id="node17" class="node">
<title>Node17</title>
<g id="a_node17"><a xlink:title=" ">
<polygon fill="white" stroke="#bfbfbf" points="695,-56.5 695,-75.5 751,-75.5 751,-56.5 695,-56.5"/>
<text text-anchor="middle" x="723" y="-63.5" font-family="Helvetica,sans-Serif" font-size="10.00">sstream</text>
</a>
</g>
</g>
<!-- Node5&#45;&gt;Node17 -->
<g id="edge18" class="edge">
<title>Node5&#45;&gt;Node17</title>
<path fill="none" stroke="midnightblue" d="M516.71,-112.47C557.25,-104.1 620.8,-90.76 684.87,-76.21"/>
<polygon fill="midnightblue" stroke="midnightblue" points="685.77,-79.6 694.74,-73.96 684.21,-72.77 685.77,-79.6"/>
</g>
<!-- Node18 -->
<g id="node18" class="node">
<title>Node18</title>
<g id="a_node18"><a xlink:title=" ">
<polygon fill="white" stroke="#bfbfbf" points="769.5,-56.5 769.5,-75.5 838.5,-75.5 838.5,-56.5 769.5,-56.5"/>
<text text-anchor="middle" x="804" y="-63.5" font-family="Helvetica,sans-Serif" font-size="10.00">type_traits</text>
</a>
</g>
</g>
<!-- Node5&#45;&gt;Node18 -->
<g id="edge19" class="edge">
<title>Node5&#45;&gt;Node18</title>
<path fill="none" stroke="midnightblue" d="M518.56,-114.23C586.55,-103.66 714.06,-83.75 759.53,-75.97"/>
<polygon fill="midnightblue" stroke="midnightblue" points="760.2,-79.4 769.44,-74.22 758.99,-72.51 760.2,-79.4"/>
</g>
<!-- Node6&#45;&gt;Node7 -->
<g id="edge6" class="edge">
<title>Node6&#45;&gt;Node7</title>
<path fill="none" stroke="midnightblue" d="M148.61,-56.08C154.26,-48.46 162.54,-37.26 169.45,-27.94"/>
<polygon fill="midnightblue" stroke="midnightblue" points="172.38,-29.87 175.52,-19.75 166.75,-25.7 172.38,-29.87"/>
</g>
<!-- Node8&#45;&gt;Node7 -->
<g id="edge8" class="edge">
<title>Node8&#45;&gt;Node7</title>
<path fill="none" stroke="midnightblue" d="M298.13,-56.44C275.22,-47.48 239.02,-33.31 213.13,-23.18"/>
<polygon fill="midnightblue" stroke="midnightblue" points="214.35,-19.9 203.76,-19.52 211.8,-26.42 214.35,-19.9"/>
</g>
<!-- Node9 -->
<g id="node9" class="node">
<title>Node9</title>
<g id="a_node9"><a xlink:title=" ">
<polygon fill="white" stroke="#bfbfbf" points="423,-0.5 423,-19.5 509,-19.5 509,-0.5 423,-0.5"/>
<text text-anchor="middle" x="466" y="-7.5" font-family="Helvetica,sans-Serif" font-size="10.00">fmt/ostream.h</text>
</a>
</g>
</g>
<!-- Node8&#45;&gt;Node9 -->
<g id="edge9" class="edge">
<title>Node8&#45;&gt;Node9</title>
<path fill="none" stroke="midnightblue" d="M343.13,-56.44C367.48,-47.44 406.01,-33.19 433.42,-23.05"/>
<polygon fill="midnightblue" stroke="midnightblue" points="434.81,-26.27 442.97,-19.52 432.38,-19.7 434.81,-26.27"/>
</g>
<!-- Node10 -->
<g id="node10" class="node">
<title>Node10</title>
<g id="a_node10"><a xlink:title=" ">
<polygon fill="white" stroke="#bfbfbf" points="239,-0.5 239,-19.5 283,-19.5 283,-0.5 239,-0.5"/>
<text text-anchor="middle" x="261" y="-7.5" font-family="Helvetica,sans-Serif" font-size="10.00">limits</text>
</a>
</g>
</g>
<!-- Node8&#45;&gt;Node10 -->
<g id="edge10" class="edge">
<title>Node8&#45;&gt;Node10</title>
<path fill="none" stroke="midnightblue" d="M310.52,-56.32C301.8,-48.34 288.66,-36.31 278.1,-26.65"/>
<polygon fill="midnightblue" stroke="midnightblue" points="280.39,-24 270.65,-19.83 275.67,-29.17 280.39,-24"/>
</g>
<!-- Node11 -->
<g id="node11" class="node">
<title>Node11</title>
<g id="a_node11"><a xlink:title=" ">
<polygon fill="white" stroke="#bfbfbf" points="301,-0.5 301,-19.5 339,-19.5 339,-0.5 301,-0.5"/>
<text text-anchor="middle" x="320" y="-7.5" font-family="Helvetica,sans-Serif" font-size="10.00">map</text>
</a>
</g>
</g>
<!-- Node8&#45;&gt;Node11 -->
<g id="edge11" class="edge">
<title>Node8&#45;&gt;Node11</title>
<path fill="none" stroke="midnightblue" d="M320,-56.08C320,-49.01 320,-38.86 320,-29.99"/>
<polygon fill="midnightblue" stroke="midnightblue" points="323.5,-29.75 320,-19.75 316.5,-29.75 323.5,-29.75"/>
</g>
<!-- Node12 -->
<g id="node12" class="node">
<title>Node12</title>
<g id="a_node12"><a xlink:title=" ">
<polygon fill="white" stroke="#bfbfbf" points="357,-0.5 357,-19.5 405,-19.5 405,-0.5 357,-0.5"/>
<text text-anchor="middle" x="381" y="-7.5" font-family="Helvetica,sans-Serif" font-size="10.00">thread</text>
</a>
</g>
</g>
<!-- Node8&#45;&gt;Node12 -->
<g id="edge12" class="edge">
<title>Node8&#45;&gt;Node12</title>
<path fill="none" stroke="midnightblue" d="M329.8,-56.32C338.82,-48.34 352.41,-36.31 363.32,-26.65"/>
<polygon fill="midnightblue" stroke="midnightblue" points="365.85,-29.08 371.02,-19.83 361.21,-23.84 365.85,-29.08"/>
</g>
<!-- Node19&#45;&gt;Node4 -->
<g id="edge23" class="edge">
<title>Node19&#45;&gt;Node4</title>
<path fill="none" stroke="midnightblue" d="M546.75,-168.26C546.88,-154.08 549.37,-126.2 566,-112 611.89,-72.82 771.17,-88.46 846.24,-75.76"/>
<polygon fill="midnightblue" stroke="midnightblue" points="847.12,-79.15 856.25,-73.77 845.76,-72.29 847.12,-79.15"/>
</g>
<!-- Node19&#45;&gt;Node5 -->
<g id="edge21" class="edge">
<title>Node19&#45;&gt;Node5</title>
<path fill="none" stroke="midnightblue" d="M535.43,-168.32C524.58,-160.18 508.12,-147.84 495.12,-138.09"/>
<polygon fill="midnightblue" stroke="midnightblue" points="496.88,-135.03 486.78,-131.83 492.68,-140.63 496.88,-135.03"/>
</g>
<!-- Node20 -->
<g id="node20" class="node">
<title>Node20</title>
<g id="a_node20"><a xlink:title=" ">
<polygon fill="white" stroke="#bfbfbf" points="575,-112.5 575,-131.5 661,-131.5 661,-112.5 575,-112.5"/>
<text text-anchor="middle" x="618" y="-119.5" font-family="Helvetica,sans-Serif" font-size="10.00">unordered_set</text>
</a>
</g>
</g>
<!-- Node19&#45;&gt;Node20 -->
<g id="edge22" class="edge">
<title>Node19&#45;&gt;Node20</title>
<path fill="none" stroke="midnightblue" d="M558.41,-168.32C569.11,-160.18 585.34,-147.84 598.16,-138.09"/>
<polygon fill="midnightblue" stroke="midnightblue" points="600.54,-140.67 606.39,-131.83 596.31,-135.1 600.54,-140.67"/>
</g>
</g>
</svg>
