<?xml version="1.0" encoding="UTF-8" standalone="no"?>
<!DOCTYPE svg PUBLIC "-//W3C//DTD SVG 1.1//EN"
 "http://www.w3.org/Graphics/SVG/1.1/DTD/svg11.dtd">
<!-- Generated by graphviz version 2.43.0 (0)
 -->
<!-- Title: src/tls/tls.h Pages: 1 -->
<!--zoomable 375 -->
<svg id="main" version="1.1" xmlns="http://www.w3.org/2000/svg" xmlns:xlink="http://www.w3.org/1999/xlink" xml:space="preserve" onload="init(evt)">
<style type="text/css"><![CDATA[
.edge:hover path { stroke: red; }
.edge:hover polygon { stroke: red; fill: red; }
]]></style>
<script type="text/javascript"><![CDATA[
var edges = document.getElementsByTagName('g');
if (edges && edges.length) {
  for (var i=0;i<edges.length;i++) {
    if (edges[i].id.substr(0,4)=='edge') {
      edges[i].setAttribute('class','edge');
    }
  }
}
]]></script>
        <defs>
                <circle id="rim" cx="0" cy="0" r="7"/>
                <circle id="rim2" cx="0" cy="0" r="3.5"/>
                <g id="zoomPlus">
                        <use xlink:href="#rim" fill="#404040">
                                <set attributeName="fill" to="#808080" begin="zoomplus.mouseover" end="zoomplus.mouseout"/>
                        </use>
                        <path d="M-4,0h8M0,-4v8" fill="none" stroke="white" stroke-width="1.5" pointer-events="none"/>
                </g>
                <g id="zoomMin">
                        <use xlink:href="#rim" fill="#404040">
                                <set attributeName="fill" to="#808080" begin="zoomminus.mouseover" end="zoomminus.mouseout"/>
                        </use>
                        <path d="M-4,0h8" fill="none" stroke="white" stroke-width="1.5" pointer-events="none"/>
                </g>
                <g id="dirArrow">
                        <path fill="none" stroke="white" stroke-width="1.5" d="M0,-3.0v7 M-2.5,-0.5L0,-3.0L2.5,-0.5"/>
                </g>
               <g id="resetDef">
                       <use xlink:href="#rim2" fill="#404040">
                               <set attributeName="fill" to="#808080" begin="reset.mouseover" end="reset.mouseout"/>
                       </use>
               </g>
        </defs>

<script type="text/javascript">
var viewWidth = 1595;
var viewHeight = 375;
var sectionId = 'dynsection-0';
</script>
<script xlink:href="svgpan.js"/>
<svg id="graph" class="graph">
<g id="viewport">
<title>src/tls/tls.h</title>
<polygon fill="white" stroke="transparent" points="-4,4 -4,-371 1590.71,-371 1590.71,4 -4,4"/>
<!-- Node1 -->
<g id="node1" class="node">
<title>Node1</title>
<g id="a_node1"><a xlink:title=" ">
<polygon fill="#bfbfbf" stroke="black" points="510.13,-347.5 510.13,-366.5 580.13,-366.5 580.13,-347.5 510.13,-347.5"/>
<text text-anchor="middle" x="545.13" y="-354.5" font-family="Helvetica,sans-Serif" font-size="10.00">src/tls/tls.h</text>
</a>
</g>
</g>
<!-- Node2 -->
<g id="node2" class="node">
<title>Node2</title>
<g id="a_node2"><a xlink:href="openssl__wrappers_8h.html" target="_top" xlink:title=" ">
<polygon fill="white" stroke="black" points="936.13,-280.5 936.13,-310.5 1064.13,-310.5 1064.13,-280.5 936.13,-280.5"/>
<text text-anchor="start" x="944.13" y="-298.5" font-family="Helvetica,sans-Serif" font-size="10.00">crypto/openssl/openssl</text>
<text text-anchor="middle" x="1000.13" y="-287.5" font-family="Helvetica,sans-Serif" font-size="10.00">_wrappers.h</text>
</a>
</g>
</g>
<!-- Node1&#45;&gt;Node2 -->
<g id="edge1" class="edge">
<title>Node1&#45;&gt;Node2</title>
<path fill="none" stroke="midnightblue" d="M580.45,-351.38C654.34,-341.72 826.55,-319.2 925.89,-306.21"/>
<polygon fill="midnightblue" stroke="midnightblue" points="926.4,-309.67 935.86,-304.9 925.49,-302.73 926.4,-309.67"/>
</g>
<!-- Node6 -->
<g id="node6" class="node">
<title>Node6</title>
<g id="a_node6"><a xlink:title=" ">
<polygon fill="white" stroke="#bfbfbf" points="77.13,-0.5 77.13,-19.5 121.13,-19.5 121.13,-0.5 77.13,-0.5"/>
<text text-anchor="middle" x="99.13" y="-7.5" font-family="Helvetica,sans-Serif" font-size="10.00">string</text>
</a>
</g>
</g>
<!-- Node1&#45;&gt;Node6 -->
<g id="edge37" class="edge">
<title>Node1&#45;&gt;Node6</title>
<path fill="none" stroke="midnightblue" d="M509.79,-353.91C405.14,-346.78 104.13,-318.96 104.13,-235 104.13,-235 104.13,-235 104.13,-177 104.13,-121.7 150.71,-108.43 133.13,-56 129.53,-45.25 122.23,-35.02 115.31,-27.04"/>
<polygon fill="midnightblue" stroke="midnightblue" points="117.79,-24.56 108.42,-19.61 112.65,-29.32 117.79,-24.56"/>
</g>
<!-- Node3 -->
<g id="node3" class="node">
<title>Node3</title>
<g id="a_node3"><a xlink:href="pem_8h.html" target="_top" xlink:title=" ">
<polygon fill="white" stroke="black" points="366.13,-224.5 366.13,-243.5 464.13,-243.5 464.13,-224.5 366.13,-224.5"/>
<text text-anchor="middle" x="415.13" y="-231.5" font-family="Helvetica,sans-Serif" font-size="10.00">ccf/crypto/pem.h</text>
</a>
</g>
</g>
<!-- Node2&#45;&gt;Node3 -->
<g id="edge2" class="edge">
<title>Node2&#45;&gt;Node3</title>
<path fill="none" stroke="midnightblue" d="M935.85,-287.96C821.58,-276.34 584.75,-252.25 474.28,-241.02"/>
<polygon fill="midnightblue" stroke="midnightblue" points="474.61,-237.53 464.31,-240 473.9,-244.5 474.61,-237.53"/>
</g>
<!-- Node15 -->
<g id="node15" class="node">
<title>Node15</title>
<g id="a_node15"><a xlink:title=" ">
<polygon fill="white" stroke="#bfbfbf" points="416.63,-56.5 416.63,-75.5 495.63,-75.5 495.63,-56.5 416.63,-56.5"/>
<text text-anchor="middle" x="456.13" y="-63.5" font-family="Helvetica,sans-Serif" font-size="10.00">fmt/format.h</text>
</a>
</g>
</g>
<!-- Node2&#45;&gt;Node15 -->
<g id="edge26" class="edge">
<title>Node2&#45;&gt;Node15</title>
<path fill="none" stroke="midnightblue" d="M935.93,-292.69C843.96,-288.94 680.55,-277.62 633.13,-244 602.16,-222.04 618.78,-196.88 594.13,-168 561.43,-129.69 511.47,-97.8 481.48,-80.65"/>
<polygon fill="midnightblue" stroke="midnightblue" points="482.93,-77.45 472.5,-75.61 479.51,-83.55 482.93,-77.45"/>
</g>
<!-- Node20 -->
<g id="node20" class="node">
<title>Node20</title>
<g id="a_node20"><a xlink:title=" ">
<polygon fill="white" stroke="#bfbfbf" points="527.13,-168.5 527.13,-187.5 585.13,-187.5 585.13,-168.5 527.13,-168.5"/>
<text text-anchor="middle" x="556.13" y="-175.5" font-family="Helvetica,sans-Serif" font-size="10.00">memory</text>
</a>
</g>
</g>
<!-- Node2&#45;&gt;Node20 -->
<g id="edge27" class="edge">
<title>Node2&#45;&gt;Node20</title>
<path fill="none" stroke="midnightblue" d="M1064.14,-293.71C1208.12,-291.28 1547.66,-281.59 1582.13,-244 1588.14,-237.45 1588.28,-230.42 1582.13,-224 1547.4,-187.71 778.62,-180.44 595.18,-179.22"/>
<polygon fill="midnightblue" stroke="midnightblue" points="595.19,-175.72 585.16,-179.16 595.14,-182.72 595.19,-175.72"/>
</g>
<!-- Node22 -->
<g id="node22" class="node">
<title>Node22</title>
<g id="a_node22"><a xlink:title=" ">
<polygon fill="white" stroke="#bfbfbf" points="641.63,-224.5 641.63,-243.5 730.63,-243.5 730.63,-224.5 641.63,-224.5"/>
<text text-anchor="middle" x="686.13" y="-231.5" font-family="Helvetica,sans-Serif" font-size="10.00">openssl/asn1.h</text>
</a>
</g>
</g>
<!-- Node2&#45;&gt;Node22 -->
<g id="edge28" class="edge">
<title>Node2&#45;&gt;Node22</title>
<path fill="none" stroke="midnightblue" d="M935.83,-282.32C878.52,-271.46 795.53,-255.73 741.21,-245.44"/>
<polygon fill="midnightblue" stroke="midnightblue" points="741.56,-241.94 731.08,-243.52 740.26,-248.82 741.56,-241.94"/>
</g>
<!-- Node23 -->
<g id="node23" class="node">
<title>Node23</title>
<g id="a_node23"><a xlink:title=" ">
<polygon fill="white" stroke="#bfbfbf" points="748.63,-224.5 748.63,-243.5 825.63,-243.5 825.63,-224.5 748.63,-224.5"/>
<text text-anchor="middle" x="787.13" y="-231.5" font-family="Helvetica,sans-Serif" font-size="10.00">openssl/ec.h</text>
</a>
</g>
</g>
<!-- Node2&#45;&gt;Node23 -->
<g id="edge29" class="edge">
<title>Node2&#45;&gt;Node23</title>
<path fill="none" stroke="midnightblue" d="M949.92,-280.47C912.53,-270.03 862.15,-255.96 827.39,-246.25"/>
<polygon fill="midnightblue" stroke="midnightblue" points="828.15,-242.83 817.58,-243.51 826.27,-249.57 828.15,-242.83"/>
</g>
<!-- Node24 -->
<g id="node24" class="node">
<title>Node24</title>
<g id="a_node24"><a xlink:title=" ">
<polygon fill="white" stroke="#bfbfbf" points="843.63,-224.5 843.63,-243.5 942.63,-243.5 942.63,-224.5 843.63,-224.5"/>
<text text-anchor="middle" x="893.13" y="-231.5" font-family="Helvetica,sans-Serif" font-size="10.00">openssl/engine.h</text>
</a>
</g>
</g>
<!-- Node2&#45;&gt;Node24 -->
<g id="edge30" class="edge">
<title>Node2&#45;&gt;Node24</title>
<path fill="none" stroke="midnightblue" d="M974.77,-280.4C957.46,-270.77 934.65,-258.09 917.55,-248.58"/>
<polygon fill="midnightblue" stroke="midnightblue" points="919.14,-245.46 908.7,-243.66 915.74,-251.58 919.14,-245.46"/>
</g>
<!-- Node25 -->
<g id="node25" class="node">
<title>Node25</title>
<g id="a_node25"><a xlink:title=" ">
<polygon fill="white" stroke="#bfbfbf" points="960.63,-224.5 960.63,-243.5 1039.63,-243.5 1039.63,-224.5 960.63,-224.5"/>
<text text-anchor="middle" x="1000.13" y="-231.5" font-family="Helvetica,sans-Serif" font-size="10.00">openssl/err.h</text>
</a>
</g>
</g>
<!-- Node2&#45;&gt;Node25 -->
<g id="edge31" class="edge">
<title>Node2&#45;&gt;Node25</title>
<path fill="none" stroke="midnightblue" d="M1000.13,-280.4C1000.13,-272.47 1000.13,-262.46 1000.13,-253.86"/>
<polygon fill="midnightblue" stroke="midnightblue" points="1003.63,-253.66 1000.13,-243.66 996.63,-253.66 1003.63,-253.66"/>
</g>
<!-- Node26 -->
<g id="node26" class="node">
<title>Node26</title>
<g id="a_node26"><a xlink:title=" ">
<polygon fill="white" stroke="#bfbfbf" points="1057.13,-224.5 1057.13,-243.5 1141.13,-243.5 1141.13,-224.5 1057.13,-224.5"/>
<text text-anchor="middle" x="1099.13" y="-231.5" font-family="Helvetica,sans-Serif" font-size="10.00">openssl/evp.h</text>
</a>
</g>
</g>
<!-- Node2&#45;&gt;Node26 -->
<g id="edge32" class="edge">
<title>Node2&#45;&gt;Node26</title>
<path fill="none" stroke="midnightblue" d="M1023.59,-280.4C1039.46,-270.86 1060.32,-258.32 1076.1,-248.84"/>
<polygon fill="midnightblue" stroke="midnightblue" points="1077.96,-251.81 1084.72,-243.66 1074.35,-245.81 1077.96,-251.81"/>
</g>
<!-- Node27 -->
<g id="node27" class="node">
<title>Node27</title>
<g id="a_node27"><a xlink:title=" ">
<polygon fill="white" stroke="#bfbfbf" points="1159.13,-224.5 1159.13,-243.5 1247.13,-243.5 1247.13,-224.5 1159.13,-224.5"/>
<text text-anchor="middle" x="1203.13" y="-231.5" font-family="Helvetica,sans-Serif" font-size="10.00">openssl/pem.h</text>
</a>
</g>
</g>
<!-- Node2&#45;&gt;Node27 -->
<g id="edge33" class="edge">
<title>Node2&#45;&gt;Node27</title>
<path fill="none" stroke="midnightblue" d="M1047.98,-280.47C1083.46,-270.08 1131.22,-256.08 1164.33,-246.37"/>
<polygon fill="midnightblue" stroke="midnightblue" points="1165.5,-249.68 1174.11,-243.51 1163.53,-242.96 1165.5,-249.68"/>
</g>
<!-- Node28 -->
<g id="node28" class="node">
<title>Node28</title>
<g id="a_node28"><a xlink:title=" ">
<polygon fill="white" stroke="#bfbfbf" points="1265.13,-224.5 1265.13,-243.5 1345.13,-243.5 1345.13,-224.5 1265.13,-224.5"/>
<text text-anchor="middle" x="1305.13" y="-231.5" font-family="Helvetica,sans-Serif" font-size="10.00">openssl/ssl.h</text>
</a>
</g>
</g>
<!-- Node2&#45;&gt;Node28 -->
<g id="edge34" class="edge">
<title>Node2&#45;&gt;Node28</title>
<path fill="none" stroke="midnightblue" d="M1064.44,-281.95C1121.13,-270.89 1202.6,-255 1254.69,-244.84"/>
<polygon fill="midnightblue" stroke="midnightblue" points="1255.56,-248.24 1264.7,-242.89 1254.22,-241.37 1255.56,-248.24"/>
</g>
<!-- Node29 -->
<g id="node29" class="node">
<title>Node29</title>
<g id="a_node29"><a xlink:title=" ">
<polygon fill="white" stroke="#bfbfbf" points="1363.13,-224.5 1363.13,-243.5 1453.13,-243.5 1453.13,-224.5 1363.13,-224.5"/>
<text text-anchor="middle" x="1408.13" y="-231.5" font-family="Helvetica,sans-Serif" font-size="10.00">openssl/x509.h</text>
</a>
</g>
</g>
<!-- Node2&#45;&gt;Node29 -->
<g id="edge35" class="edge">
<title>Node2&#45;&gt;Node29</title>
<path fill="none" stroke="midnightblue" d="M1064.15,-285.83C1132.96,-276.4 1245.81,-260.64 1353.04,-244.14"/>
<polygon fill="midnightblue" stroke="midnightblue" points="1353.71,-247.58 1363.06,-242.59 1352.64,-240.66 1353.71,-247.58"/>
</g>
<!-- Node30 -->
<g id="node30" class="node">
<title>Node30</title>
<g id="a_node30"><a xlink:title=" ">
<polygon fill="white" stroke="#bfbfbf" points="1471.13,-224.5 1471.13,-243.5 1573.13,-243.5 1573.13,-224.5 1471.13,-224.5"/>
<text text-anchor="middle" x="1522.13" y="-231.5" font-family="Helvetica,sans-Serif" font-size="10.00">openssl/x509v3.h</text>
</a>
</g>
</g>
<!-- Node2&#45;&gt;Node30 -->
<g id="edge36" class="edge">
<title>Node2&#45;&gt;Node30</title>
<path fill="none" stroke="midnightblue" d="M1064.5,-288.28C1151.86,-279.67 1313.05,-263.12 1460.92,-244.11"/>
<polygon fill="midnightblue" stroke="midnightblue" points="1461.62,-247.55 1471.09,-242.8 1460.72,-240.61 1461.62,-247.55"/>
</g>
<!-- Node4 -->
<g id="node4" class="node">
<title>Node4</title>
<g id="a_node4"><a xlink:href="json_8h.html" target="_top" xlink:title=" ">
<polygon fill="white" stroke="black" points="183.63,-168.5 183.63,-187.5 260.63,-187.5 260.63,-168.5 183.63,-168.5"/>
<text text-anchor="middle" x="222.13" y="-175.5" font-family="Helvetica,sans-Serif" font-size="10.00">ccf/ds/json.h</text>
</a>
</g>
</g>
<!-- Node3&#45;&gt;Node4 -->
<g id="edge3" class="edge">
<title>Node3&#45;&gt;Node4</title>
<path fill="none" stroke="midnightblue" d="M384.55,-224.44C351.52,-215.2 298.74,-200.44 262.36,-190.26"/>
<polygon fill="midnightblue" stroke="midnightblue" points="263.14,-186.84 252.57,-187.52 261.26,-193.58 263.14,-186.84"/>
</g>
<!-- Node7 -->
<g id="node7" class="node">
<title>Node7</title>
<g id="a_node7"><a xlink:title=" ">
<polygon fill="white" stroke="#bfbfbf" points="11.63,-0.5 11.63,-19.5 58.63,-19.5 58.63,-0.5 11.63,-0.5"/>
<text text-anchor="middle" x="35.13" y="-7.5" font-family="Helvetica,sans-Serif" font-size="10.00">vector</text>
</a>
</g>
</g>
<!-- Node3&#45;&gt;Node7 -->
<g id="edge25" class="edge">
<title>Node3&#45;&gt;Node7</title>
<path fill="none" stroke="midnightblue" d="M366,-229.52C316.15,-224.7 237.51,-213.48 174.13,-188 89.84,-154.11 46.32,-155.93 3.13,-76 -5.78,-59.51 6.53,-40.18 18.38,-26.92"/>
<polygon fill="midnightblue" stroke="midnightblue" points="21.08,-29.15 25.5,-19.52 16.04,-24.3 21.08,-29.15"/>
</g>
<!-- Node13 -->
<g id="node13" class="node">
<title>Node13</title>
<g id="a_node13"><a xlink:title=" ">
<polygon fill="white" stroke="#bfbfbf" points="469.63,-0.5 469.63,-19.5 542.63,-19.5 542.63,-0.5 469.63,-0.5"/>
<text text-anchor="middle" x="506.13" y="-7.5" font-family="Helvetica,sans-Serif" font-size="10.00">string_view</text>
</a>
</g>
</g>
<!-- Node3&#45;&gt;Node13 -->
<g id="edge24" class="edge">
<title>Node3&#45;&gt;Node13</title>
<path fill="none" stroke="midnightblue" d="M434.66,-224.45C449.43,-216.96 469.01,-204.67 480.13,-188 513.11,-138.55 511.31,-64.12 508.3,-29.69"/>
<polygon fill="midnightblue" stroke="midnightblue" points="511.77,-29.24 507.28,-19.65 504.81,-29.95 511.77,-29.24"/>
</g>
<!-- Node18 -->
<g id="node18" class="node">
<title>Node18</title>
<g id="a_node18"><a xlink:title=" ">
<polygon fill="white" stroke="#bfbfbf" points="279.13,-168.5 279.13,-187.5 329.13,-187.5 329.13,-168.5 279.13,-168.5"/>
<text text-anchor="middle" x="304.13" y="-175.5" font-family="Helvetica,sans-Serif" font-size="10.00">cstring</text>
</a>
</g>
</g>
<!-- Node3&#45;&gt;Node18 -->
<g id="edge20" class="edge">
<title>Node3&#45;&gt;Node18</title>
<path fill="none" stroke="midnightblue" d="M397.3,-224.32C379.41,-215.62 351.66,-202.12 331.08,-192.11"/>
<polygon fill="midnightblue" stroke="midnightblue" points="332.44,-188.88 321.92,-187.65 329.38,-195.18 332.44,-188.88"/>
</g>
<!-- Node19 -->
<g id="node19" class="node">
<title>Node19</title>
<g id="a_node19"><a xlink:title=" ">
<polygon fill="white" stroke="#bfbfbf" points="347.63,-168.5 347.63,-187.5 412.63,-187.5 412.63,-168.5 347.63,-168.5"/>
<text text-anchor="middle" x="380.13" y="-175.5" font-family="Helvetica,sans-Serif" font-size="10.00">exception</text>
</a>
</g>
</g>
<!-- Node3&#45;&gt;Node19 -->
<g id="edge21" class="edge">
<title>Node3&#45;&gt;Node19</title>
<path fill="none" stroke="midnightblue" d="M409.35,-224.08C404.46,-216.53 397.3,-205.49 391.3,-196.23"/>
<polygon fill="midnightblue" stroke="midnightblue" points="394.18,-194.24 385.8,-187.75 388.3,-198.05 394.18,-194.24"/>
</g>
<!-- Node3&#45;&gt;Node20 -->
<g id="edge22" class="edge">
<title>Node3&#45;&gt;Node20</title>
<path fill="none" stroke="midnightblue" d="M437.47,-224.44C460.88,-215.48 497.87,-201.31 524.32,-191.18"/>
<polygon fill="midnightblue" stroke="midnightblue" points="525.81,-194.36 533.89,-187.52 523.3,-187.82 525.81,-194.36"/>
</g>
<!-- Node21 -->
<g id="node21" class="node">
<title>Node21</title>
<g id="a_node21"><a xlink:title=" ">
<polygon fill="white" stroke="#bfbfbf" points="431.13,-168.5 431.13,-187.5 471.13,-187.5 471.13,-168.5 431.13,-168.5"/>
<text text-anchor="middle" x="451.13" y="-175.5" font-family="Helvetica,sans-Serif" font-size="10.00">span</text>
</a>
</g>
</g>
<!-- Node3&#45;&gt;Node21 -->
<g id="edge23" class="edge">
<title>Node3&#45;&gt;Node21</title>
<path fill="none" stroke="midnightblue" d="M421.07,-224.08C426.11,-216.53 433.47,-205.49 439.64,-196.23"/>
<polygon fill="midnightblue" stroke="midnightblue" points="442.66,-198.01 445.3,-187.75 436.84,-194.13 442.66,-198.01"/>
</g>
<!-- Node5 -->
<g id="node5" class="node">
<title>Node5</title>
<g id="a_node5"><a xlink:href="include_2ccf_2crypto_2base64_8h.html" target="_top" xlink:title=" ">
<polygon fill="white" stroke="black" points="12.13,-56.5 12.13,-75.5 124.13,-75.5 124.13,-56.5 12.13,-56.5"/>
<text text-anchor="middle" x="68.13" y="-63.5" font-family="Helvetica,sans-Serif" font-size="10.00">ccf/crypto/base64.h</text>
</a>
</g>
</g>
<!-- Node4&#45;&gt;Node5 -->
<g id="edge4" class="edge">
<title>Node4&#45;&gt;Node5</title>
<path fill="none" stroke="midnightblue" d="M214.72,-168.14C203.21,-154.76 179.86,-129.13 156.13,-112 138.17,-99.03 115.94,-87.7 98.32,-79.65"/>
<polygon fill="midnightblue" stroke="midnightblue" points="99.62,-76.4 89.07,-75.53 96.78,-82.8 99.62,-76.4"/>
</g>
<!-- Node8 -->
<g id="node8" class="node">
<title>Node8</title>
<g id="a_node8"><a xlink:href="include_2ccf_2ds_2json__schema_8h.html" target="_top" xlink:title=" ">
<polygon fill="white" stroke="black" points="282.63,-112.5 282.63,-131.5 403.63,-131.5 403.63,-112.5 282.63,-112.5"/>
<text text-anchor="middle" x="343.13" y="-119.5" font-family="Helvetica,sans-Serif" font-size="10.00">ccf/ds/json_schema.h</text>
</a>
</g>
</g>
<!-- Node4&#45;&gt;Node8 -->
<g id="edge7" class="edge">
<title>Node4&#45;&gt;Node8</title>
<path fill="none" stroke="midnightblue" d="M241.3,-168.44C261.04,-159.64 292.02,-145.81 314.62,-135.72"/>
<polygon fill="midnightblue" stroke="midnightblue" points="316.34,-138.79 324.05,-131.52 313.49,-132.4 316.34,-138.79"/>
</g>
<!-- Node4&#45;&gt;Node15 -->
<g id="edge18" class="edge">
<title>Node4&#45;&gt;Node15</title>
<path fill="none" stroke="midnightblue" d="M260.84,-169.4C312.71,-158.98 399.72,-140.57 412.13,-132 429.08,-120.3 441.35,-99.76 448.56,-84.9"/>
<polygon fill="midnightblue" stroke="midnightblue" points="451.79,-86.24 452.74,-75.69 445.42,-83.35 451.79,-86.24"/>
</g>
<!-- Node17 -->
<g id="node17" class="node">
<title>Node17</title>
<g id="a_node17"><a xlink:title=" ">
<polygon fill="white" stroke="#bfbfbf" points="208.13,-112.5 208.13,-131.5 264.13,-131.5 264.13,-112.5 208.13,-112.5"/>
<text text-anchor="middle" x="236.13" y="-119.5" font-family="Helvetica,sans-Serif" font-size="10.00">sstream</text>
</a>
</g>
</g>
<!-- Node4&#45;&gt;Node17 -->
<g id="edge19" class="edge">
<title>Node4&#45;&gt;Node17</title>
<path fill="none" stroke="midnightblue" d="M224.44,-168.08C226.3,-160.93 228.97,-150.64 231.28,-141.69"/>
<polygon fill="midnightblue" stroke="midnightblue" points="234.74,-142.31 233.86,-131.75 227.96,-140.55 234.74,-142.31"/>
</g>
<!-- Node5&#45;&gt;Node6 -->
<g id="edge5" class="edge">
<title>Node5&#45;&gt;Node6</title>
<path fill="none" stroke="midnightblue" d="M73.25,-56.08C77.54,-48.61 83.79,-37.72 89.07,-28.52"/>
<polygon fill="midnightblue" stroke="midnightblue" points="92.16,-30.17 94.11,-19.75 86.09,-26.68 92.16,-30.17"/>
</g>
<!-- Node5&#45;&gt;Node7 -->
<g id="edge6" class="edge">
<title>Node5&#45;&gt;Node7</title>
<path fill="none" stroke="midnightblue" d="M62.68,-56.08C58.12,-48.61 51.46,-37.72 45.84,-28.52"/>
<polygon fill="midnightblue" stroke="midnightblue" points="48.68,-26.46 40.48,-19.75 42.71,-30.11 48.68,-26.46"/>
</g>
<!-- Node9 -->
<g id="node9" class="node">
<title>Node9</title>
<g id="a_node9"><a xlink:href="nonstd_8h.html" target="_top" xlink:title=" ">
<polygon fill="white" stroke="black" points="180.13,-56.5 180.13,-75.5 270.13,-75.5 270.13,-56.5 180.13,-56.5"/>
<text text-anchor="middle" x="225.13" y="-63.5" font-family="Helvetica,sans-Serif" font-size="10.00">ccf/ds/nonstd.h</text>
</a>
</g>
</g>
<!-- Node8&#45;&gt;Node9 -->
<g id="edge8" class="edge">
<title>Node8&#45;&gt;Node9</title>
<path fill="none" stroke="midnightblue" d="M324.43,-112.44C305.19,-103.64 274.98,-89.81 252.93,-79.72"/>
<polygon fill="midnightblue" stroke="midnightblue" points="254.29,-76.5 243.74,-75.52 251.38,-82.86 254.29,-76.5"/>
</g>
<!-- Node8&#45;&gt;Node15 -->
<g id="edge16" class="edge">
<title>Node8&#45;&gt;Node15</title>
<path fill="none" stroke="midnightblue" d="M361.04,-112.44C379.38,-103.68 408.14,-89.94 429.22,-79.86"/>
<polygon fill="midnightblue" stroke="midnightblue" points="430.8,-82.99 438.31,-75.52 427.78,-76.67 430.8,-82.99"/>
</g>
<!-- Node16 -->
<g id="node16" class="node">
<title>Node16</title>
<g id="a_node16"><a xlink:title=" ">
<polygon fill="white" stroke="#bfbfbf" points="288.13,-56.5 288.13,-75.5 398.13,-75.5 398.13,-56.5 288.13,-56.5"/>
<text text-anchor="middle" x="343.13" y="-63.5" font-family="Helvetica,sans-Serif" font-size="10.00">nlohmann/json.hpp</text>
</a>
</g>
</g>
<!-- Node8&#45;&gt;Node16 -->
<g id="edge17" class="edge">
<title>Node8&#45;&gt;Node16</title>
<path fill="none" stroke="midnightblue" d="M343.13,-112.08C343.13,-105.01 343.13,-94.86 343.13,-85.99"/>
<polygon fill="midnightblue" stroke="midnightblue" points="346.63,-85.75 343.13,-75.75 339.63,-85.75 346.63,-85.75"/>
</g>
<!-- Node9&#45;&gt;Node6 -->
<g id="edge12" class="edge">
<title>Node9&#45;&gt;Node6</title>
<path fill="none" stroke="midnightblue" d="M205.17,-56.44C184.52,-47.6 152.07,-33.69 128.5,-23.59"/>
<polygon fill="midnightblue" stroke="midnightblue" points="129.57,-20.24 119,-19.52 126.81,-26.67 129.57,-20.24"/>
</g>
<!-- Node9&#45;&gt;Node7 -->
<g id="edge15" class="edge">
<title>Node9&#45;&gt;Node7</title>
<path fill="none" stroke="midnightblue" d="M195.02,-56.44C160.64,-46.67 104.54,-30.73 68.76,-20.56"/>
<polygon fill="midnightblue" stroke="midnightblue" points="69.37,-17.09 58.79,-17.73 67.45,-23.83 69.37,-17.09"/>
</g>
<!-- Node10 -->
<g id="node10" class="node">
<title>Node10</title>
<g id="a_node10"><a xlink:title=" ">
<polygon fill="white" stroke="#bfbfbf" points="139.13,-0.5 139.13,-19.5 203.13,-19.5 203.13,-0.5 139.13,-0.5"/>
<text text-anchor="middle" x="171.13" y="-7.5" font-family="Helvetica,sans-Serif" font-size="10.00">algorithm</text>
</a>
</g>
</g>
<!-- Node9&#45;&gt;Node10 -->
<g id="edge9" class="edge">
<title>Node9&#45;&gt;Node10</title>
<path fill="none" stroke="midnightblue" d="M216.21,-56.08C208.35,-48.22 196.7,-36.57 187.21,-27.08"/>
<polygon fill="midnightblue" stroke="midnightblue" points="189.43,-24.35 179.88,-19.75 184.48,-29.3 189.43,-24.35"/>
</g>
<!-- Node11 -->
<g id="node11" class="node">
<title>Node11</title>
<g id="a_node11"><a xlink:title=" ">
<polygon fill="white" stroke="#bfbfbf" points="221.13,-0.5 221.13,-19.5 263.13,-19.5 263.13,-0.5 221.13,-0.5"/>
<text text-anchor="middle" x="242.13" y="-7.5" font-family="Helvetica,sans-Serif" font-size="10.00">array</text>
</a>
</g>
</g>
<!-- Node9&#45;&gt;Node11 -->
<g id="edge10" class="edge">
<title>Node9&#45;&gt;Node11</title>
<path fill="none" stroke="midnightblue" d="M227.94,-56.08C230.21,-48.85 233.5,-38.41 236.34,-29.4"/>
<polygon fill="midnightblue" stroke="midnightblue" points="239.71,-30.34 239.38,-19.75 233.03,-28.24 239.71,-30.34"/>
</g>
<!-- Node12 -->
<g id="node12" class="node">
<title>Node12</title>
<g id="a_node12"><a xlink:title=" ">
<polygon fill="white" stroke="#bfbfbf" points="281.63,-0.5 281.63,-19.5 330.63,-19.5 330.63,-0.5 281.63,-0.5"/>
<text text-anchor="middle" x="306.13" y="-7.5" font-family="Helvetica,sans-Serif" font-size="10.00">cctype</text>
</a>
</g>
</g>
<!-- Node9&#45;&gt;Node12 -->
<g id="edge11" class="edge">
<title>Node9&#45;&gt;Node12</title>
<path fill="none" stroke="midnightblue" d="M238.14,-56.32C250.66,-47.98 269.81,-35.21 284.6,-25.35"/>
<polygon fill="midnightblue" stroke="midnightblue" points="286.77,-28.11 293.15,-19.65 282.89,-22.29 286.77,-28.11"/>
</g>
<!-- Node9&#45;&gt;Node13 -->
<g id="edge13" class="edge">
<title>Node9&#45;&gt;Node13</title>
<path fill="none" stroke="midnightblue" d="M269.66,-56.44C321.45,-46.49 406.58,-30.13 459.33,-19.99"/>
<polygon fill="midnightblue" stroke="midnightblue" points="460.27,-23.38 469.42,-18.05 458.94,-16.5 460.27,-23.38"/>
</g>
<!-- Node14 -->
<g id="node14" class="node">
<title>Node14</title>
<g id="a_node14"><a xlink:title=" ">
<polygon fill="white" stroke="#bfbfbf" points="348.63,-0.5 348.63,-19.5 417.63,-19.5 417.63,-0.5 348.63,-0.5"/>
<text text-anchor="middle" x="383.13" y="-7.5" font-family="Helvetica,sans-Serif" font-size="10.00">type_traits</text>
</a>
</g>
</g>
<!-- Node9&#45;&gt;Node14 -->
<g id="edge14" class="edge">
<title>Node9&#45;&gt;Node14</title>
<path fill="none" stroke="midnightblue" d="M250.17,-56.44C276.75,-47.36 318.94,-32.94 348.65,-22.78"/>
<polygon fill="midnightblue" stroke="midnightblue" points="349.88,-26.06 358.21,-19.52 347.62,-19.44 349.88,-26.06"/>
</g>
</g>
</svg>
        <g id="navigator" transform="translate(0 0)" fill="#404254">
                <rect fill="#f2f5e9" fill-opacity="0.5" stroke="#606060" stroke-width=".5" x="0" y="0" width="60" height="60"/>
                <use id="zoomplus" xlink:href="#zoomPlus" x="17" y="9" onmousedown="handleZoom(evt,'in')"/>
                <use id="zoomminus" xlink:href="#zoomMin" x="42" y="9" onmousedown="handleZoom(evt,'out')"/>
                <use id="reset" xlink:href="#resetDef" x="30" y="36" onmousedown="handleReset()"/>
                <g id="arrowUp" xlink:href="#dirArrow" transform="translate(30 24)" onmousedown="handlePan(0,-1)">
                  <use xlink:href="#rim" fill="#404040">
                        <set attributeName="fill" to="#808080" begin="arrowUp.mouseover" end="arrowUp.mouseout"/>
                  </use>
                  <path fill="none" stroke="white" stroke-width="1.5" d="M0,-3.0v7 M-2.5,-0.5L0,-3.0L2.5,-0.5"/>
                </g>
                <g id="arrowRight" xlink:href="#dirArrow" transform="rotate(90) translate(36 -43)" onmousedown="handlePan(1,0)">
                  <use xlink:href="#rim" fill="#404040">
                        <set attributeName="fill" to="#808080" begin="arrowRight.mouseover" end="arrowRight.mouseout"/>
                  </use>
                  <path fill="none" stroke="white" stroke-width="1.5" d="M0,-3.0v7 M-2.5,-0.5L0,-3.0L2.5,-0.5"/>
                </g>
                <g id="arrowDown" xlink:href="#dirArrow" transform="rotate(180) translate(-30 -48)" onmousedown="handlePan(0,1)">
                  <use xlink:href="#rim" fill="#404040">
                        <set attributeName="fill" to="#808080" begin="arrowDown.mouseover" end="arrowDown.mouseout"/>
                  </use>
                  <path fill="none" stroke="white" stroke-width="1.5" d="M0,-3.0v7 M-2.5,-0.5L0,-3.0L2.5,-0.5"/>
                </g>
                <g id="arrowLeft" xlink:href="#dirArrow" transform="rotate(270) translate(-36 17)" onmousedown="handlePan(-1,0)">
                  <use xlink:href="#rim" fill="#404040">
                        <set attributeName="fill" to="#808080" begin="arrowLeft.mouseover" end="arrowLeft.mouseout"/>
                  </use>
                  <path fill="none" stroke="white" stroke-width="1.5" d="M0,-3.0v7 M-2.5,-0.5L0,-3.0L2.5,-0.5"/>
                </g>
        </g>
        <svg viewBox="0 0 15 15" width="100%" height="30px" preserveAspectRatio="xMaxYMin meet">
         <g id="arrow_out" transform="scale(0.3 0.3)">
          <a xlink:href="tls_8h__incl_org.svg" target="_base">
           <rect id="button" ry="5" rx="5" y="6" x="6" height="38" width="38"
                fill="#f2f5e9" fill-opacity="0.5" stroke="#606060" stroke-width="1.0"/>
           <path id="arrow"
             d="M 11.500037,31.436501 C 11.940474,20.09759 22.043105,11.32322 32.158766,21.979434 L 37.068811,17.246167 C 37.068811,17.246167 37.088388,32 37.088388,32 L 22.160133,31.978069 C 22.160133,31.978069 26.997745,27.140456 26.997745,27.140456 C 18.528582,18.264221 13.291696,25.230495 11.500037,31.436501 z"
             style="fill:#404040;"/>
          </a>
         </g>
        </svg>
</svg>
