<?xml version="1.0" encoding="UTF-8" standalone="no"?>
<!DOCTYPE svg PUBLIC "-//W3C//DTD SVG 1.1//EN"
 "http://www.w3.org/Graphics/SVG/1.1/DTD/svg11.dtd">
<!-- Generated by graphviz version 2.43.0 (0)
 -->
<!-- Title: src/apps/tpcc/app/tpcc_output.h Pages: 1 -->
<!--zoomable 576 -->
<svg id="main" version="1.1" xmlns="http://www.w3.org/2000/svg" xmlns:xlink="http://www.w3.org/1999/xlink" xml:space="preserve" onload="init(evt)">
<style type="text/css"><![CDATA[
.edge:hover path { stroke: red; }
.edge:hover polygon { stroke: red; fill: red; }
]]></style>
<script type="text/javascript"><![CDATA[
var edges = document.getElementsByTagName('g');
if (edges && edges.length) {
  for (var i=0;i<edges.length;i++) {
    if (edges[i].id.substr(0,4)=='edge') {
      edges[i].setAttribute('class','edge');
    }
  }
}
]]></script>
        <defs>
                <circle id="rim" cx="0" cy="0" r="7"/>
                <circle id="rim2" cx="0" cy="0" r="3.5"/>
                <g id="zoomPlus">
                        <use xlink:href="#rim" fill="#404040">
                                <set attributeName="fill" to="#808080" begin="zoomplus.mouseover" end="zoomplus.mouseout"/>
                        </use>
                        <path d="M-4,0h8M0,-4v8" fill="none" stroke="white" stroke-width="1.5" pointer-events="none"/>
                </g>
                <g id="zoomMin">
                        <use xlink:href="#rim" fill="#404040">
                                <set attributeName="fill" to="#808080" begin="zoomminus.mouseover" end="zoomminus.mouseout"/>
                        </use>
                        <path d="M-4,0h8" fill="none" stroke="white" stroke-width="1.5" pointer-events="none"/>
                </g>
                <g id="dirArrow">
                        <path fill="none" stroke="white" stroke-width="1.5" d="M0,-3.0v7 M-2.5,-0.5L0,-3.0L2.5,-0.5"/>
                </g>
               <g id="resetDef">
                       <use xlink:href="#rim2" fill="#404040">
                               <set attributeName="fill" to="#808080" begin="reset.mouseover" end="reset.mouseout"/>
                       </use>
               </g>
        </defs>

<script type="text/javascript">
var viewWidth = 1182;
var viewHeight = 576;
var sectionId = 'dynsection-0';
</script>
<script xlink:href="svgpan.js"/>
<svg id="graph" class="graph">
<g id="viewport">
<title>src/apps/tpcc/app/tpcc_output.h</title>
<polygon fill="white" stroke="transparent" points="-4,4 -4,-572 1178,-572 1178,4 -4,4"/>
<!-- Node1 -->
<g id="node1" class="node">
<title>Node1</title>
<g id="a_node1"><a xlink:title=" ">
<polygon fill="#bfbfbf" stroke="black" points="354.5,-537.5 354.5,-567.5 479.5,-567.5 479.5,-537.5 354.5,-537.5"/>
<text text-anchor="start" x="362.5" y="-555.5" font-family="Helvetica,sans-Serif" font-size="10.00">src/apps/tpcc/app/tpcc</text>
<text text-anchor="middle" x="417" y="-544.5" font-family="Helvetica,sans-Serif" font-size="10.00">_output.h</text>
</a>
</g>
</g>
<!-- Node2 -->
<g id="node2" class="node">
<title>Node2</title>
<g id="a_node2"><a xlink:href="tpcc__tables_8h.html" target="_top" xlink:title=" ">
<polygon fill="white" stroke="black" points="288.5,-481.5 288.5,-500.5 369.5,-500.5 369.5,-481.5 288.5,-481.5"/>
<text text-anchor="middle" x="329" y="-488.5" font-family="Helvetica,sans-Serif" font-size="10.00">tpcc_tables.h</text>
</a>
</g>
</g>
<!-- Node1&#45;&gt;Node2 -->
<g id="edge1" class="edge">
<title>Node1&#45;&gt;Node2</title>
<path fill="none" stroke="midnightblue" d="M396.15,-537.4C382.3,-528.04 364.19,-515.79 350.26,-506.38"/>
<polygon fill="midnightblue" stroke="midnightblue" points="352.05,-503.36 341.8,-500.66 348.13,-509.16 352.05,-503.36"/>
</g>
<!-- Node19 -->
<g id="node19" class="node">
<title>Node19</title>
<g id="a_node19"><a xlink:title=" ">
<polygon fill="white" stroke="#bfbfbf" points="171.5,-0.5 171.5,-19.5 218.5,-19.5 218.5,-0.5 171.5,-0.5"/>
<text text-anchor="middle" x="195" y="-7.5" font-family="Helvetica,sans-Serif" font-size="10.00">vector</text>
</a>
</g>
</g>
<!-- Node1&#45;&gt;Node19 -->
<g id="edge56" class="edge">
<title>Node1&#45;&gt;Node19</title>
<path fill="none" stroke="midnightblue" d="M354.12,-547.17C237.63,-537.4 0,-508.59 0,-436 0,-436 0,-436 0,-121 0,-47.79 105.57,-22.76 161.35,-14.65"/>
<polygon fill="midnightblue" stroke="midnightblue" points="162.04,-18.09 171.48,-13.28 161.1,-11.15 162.04,-18.09"/>
</g>
<!-- Node35 -->
<g id="node35" class="node">
<title>Node35</title>
<g id="a_node35"><a xlink:title=" ">
<polygon fill="white" stroke="#bfbfbf" points="341,-425.5 341,-444.5 391,-444.5 391,-425.5 341,-425.5"/>
<text text-anchor="middle" x="366" y="-432.5" font-family="Helvetica,sans-Serif" font-size="10.00">cstring</text>
</a>
</g>
</g>
<!-- Node1&#45;&gt;Node35 -->
<g id="edge52" class="edge">
<title>Node1&#45;&gt;Node35</title>
<path fill="none" stroke="midnightblue" d="M410.75,-537.34C401.47,-516.34 384.08,-476.96 373.93,-453.96"/>
<polygon fill="midnightblue" stroke="midnightblue" points="377.07,-452.4 369.83,-444.67 370.67,-455.23 377.07,-452.4"/>
</g>
<!-- Node36 -->
<g id="node36" class="node">
<title>Node36</title>
<g id="a_node36"><a xlink:title=" ">
<polygon fill="white" stroke="#bfbfbf" points="409.5,-425.5 409.5,-444.5 462.5,-444.5 462.5,-425.5 409.5,-425.5"/>
<text text-anchor="middle" x="436" y="-432.5" font-family="Helvetica,sans-Serif" font-size="10.00">stdint.h</text>
</a>
</g>
</g>
<!-- Node1&#45;&gt;Node36 -->
<g id="edge53" class="edge">
<title>Node1&#45;&gt;Node36</title>
<path fill="none" stroke="midnightblue" d="M419.33,-537.34C422.75,-516.53 429.15,-477.66 432.94,-454.58"/>
<polygon fill="midnightblue" stroke="midnightblue" points="436.4,-455.1 434.57,-444.67 429.5,-453.97 436.4,-455.1"/>
</g>
<!-- Node37 -->
<g id="node37" class="node">
<title>Node37</title>
<g id="a_node37"><a xlink:title=" ">
<polygon fill="white" stroke="#bfbfbf" points="480.5,-425.5 480.5,-444.5 573.5,-444.5 573.5,-425.5 480.5,-425.5"/>
<text text-anchor="middle" x="527" y="-432.5" font-family="Helvetica,sans-Serif" font-size="10.00">unordered_map</text>
</a>
</g>
</g>
<!-- Node1&#45;&gt;Node37 -->
<g id="edge54" class="edge">
<title>Node1&#45;&gt;Node37</title>
<path fill="none" stroke="midnightblue" d="M430.49,-537.34C451.03,-515.77 490.04,-474.81 511.64,-452.13"/>
<polygon fill="midnightblue" stroke="midnightblue" points="514.38,-454.32 518.74,-444.67 509.31,-449.5 514.38,-454.32"/>
</g>
<!-- Node38 -->
<g id="node38" class="node">
<title>Node38</title>
<g id="a_node38"><a xlink:title=" ">
<polygon fill="white" stroke="#bfbfbf" points="592,-425.5 592,-444.5 678,-444.5 678,-425.5 592,-425.5"/>
<text text-anchor="middle" x="635" y="-432.5" font-family="Helvetica,sans-Serif" font-size="10.00">unordered_set</text>
</a>
</g>
</g>
<!-- Node1&#45;&gt;Node38 -->
<g id="edge55" class="edge">
<title>Node1&#45;&gt;Node38</title>
<path fill="none" stroke="midnightblue" d="M443.73,-537.34C486.24,-514.82 568.66,-471.15 610.03,-449.23"/>
<polygon fill="midnightblue" stroke="midnightblue" points="611.72,-452.3 618.91,-444.52 608.44,-446.11 611.72,-452.3"/>
</g>
<!-- Node3 -->
<g id="node3" class="node">
<title>Node3</title>
<g id="a_node3"><a xlink:href="serialise__msgpack_8h.html" target="_top" xlink:title=" ">
<polygon fill="white" stroke="black" points="207,-425.5 207,-444.5 323,-444.5 323,-425.5 207,-425.5"/>
<text text-anchor="middle" x="265" y="-432.5" font-family="Helvetica,sans-Serif" font-size="10.00">serialise_msgpack.h</text>
</a>
</g>
</g>
<!-- Node2&#45;&gt;Node3 -->
<g id="edge2" class="edge">
<title>Node2&#45;&gt;Node3</title>
<path fill="none" stroke="midnightblue" d="M318.72,-481.32C309.16,-473.26 294.72,-461.08 283.22,-451.37"/>
<polygon fill="midnightblue" stroke="midnightblue" points="285.37,-448.61 275.47,-444.83 280.86,-453.96 285.37,-448.61"/>
</g>
<!-- Node2&#45;&gt;Node19 -->
<g id="edge51" class="edge">
<title>Node2&#45;&gt;Node19</title>
<path fill="none" stroke="midnightblue" d="M288.23,-483.37C208.14,-469.2 38,-432.86 38,-380 38,-380 38,-380 38,-121 38,-61.13 115.53,-31.08 161.62,-18.51"/>
<polygon fill="midnightblue" stroke="midnightblue" points="162.69,-21.85 171.5,-15.95 160.94,-15.07 162.69,-21.85"/>
</g>
<!-- Node31 -->
<g id="node31" class="node">
<title>Node31</title>
<g id="a_node31"><a xlink:title=" ">
<polygon fill="white" stroke="#bfbfbf" points="86,-241 86,-260 196,-260 196,-241 86,-241"/>
<text text-anchor="middle" x="141" y="-248" font-family="Helvetica,sans-Serif" font-size="10.00">nlohmann/json.hpp</text>
</a>
</g>
</g>
<!-- Node2&#45;&gt;Node31 -->
<g id="edge47" class="edge">
<title>Node2&#45;&gt;Node31</title>
<path fill="none" stroke="midnightblue" d="M288.37,-485.37C258.22,-480.07 217.7,-468.81 190,-445 138.1,-400.38 137.12,-309.44 139.38,-270.2"/>
<polygon fill="midnightblue" stroke="midnightblue" points="142.87,-270.42 140.09,-260.19 135.89,-269.91 142.87,-270.42"/>
</g>
<!-- Node34 -->
<g id="node34" class="node">
<title>Node34</title>
<g id="a_node34"><a xlink:title=" ">
<polygon fill="white" stroke="#bfbfbf" points="171.5,-369.5 171.5,-388.5 300.5,-388.5 300.5,-369.5 171.5,-369.5"/>
<text text-anchor="middle" x="236" y="-376.5" font-family="Helvetica,sans-Serif" font-size="10.00">msgpack/msgpack.hpp</text>
</a>
</g>
</g>
<!-- Node2&#45;&gt;Node34 -->
<g id="edge46" class="edge">
<title>Node2&#45;&gt;Node34</title>
<path fill="none" stroke="midnightblue" d="M288.21,-488C257.87,-484.12 218.33,-473.48 198,-445 186.4,-428.75 202.16,-408.76 216.77,-395.27"/>
<polygon fill="midnightblue" stroke="midnightblue" points="219.31,-397.7 224.59,-388.51 214.73,-392.4 219.31,-397.7"/>
</g>
<!-- Node2&#45;&gt;Node35 -->
<g id="edge45" class="edge">
<title>Node2&#45;&gt;Node35</title>
<path fill="none" stroke="midnightblue" d="M335.11,-481.08C340.28,-473.53 347.85,-462.49 354.19,-453.23"/>
<polygon fill="midnightblue" stroke="midnightblue" points="357.24,-454.98 360,-444.75 351.46,-451.02 357.24,-454.98"/>
</g>
<!-- Node2&#45;&gt;Node36 -->
<g id="edge48" class="edge">
<title>Node2&#45;&gt;Node36</title>
<path fill="none" stroke="midnightblue" d="M346.19,-481.32C363.35,-472.66 389.95,-459.24 409.75,-449.25"/>
<polygon fill="midnightblue" stroke="midnightblue" points="411.5,-452.28 418.85,-444.65 408.35,-446.04 411.5,-452.28"/>
</g>
<!-- Node2&#45;&gt;Node37 -->
<g id="edge49" class="edge">
<title>Node2&#45;&gt;Node37</title>
<path fill="none" stroke="midnightblue" d="M360.37,-481.44C394.26,-472.2 448.4,-457.44 485.72,-447.26"/>
<polygon fill="midnightblue" stroke="midnightblue" points="487.05,-450.52 495.77,-444.52 485.2,-443.77 487.05,-450.52"/>
</g>
<!-- Node2&#45;&gt;Node38 -->
<g id="edge50" class="edge">
<title>Node2&#45;&gt;Node38</title>
<path fill="none" stroke="midnightblue" d="M369.63,-482.83C424.27,-473.19 521.51,-456.03 581.88,-445.37"/>
<polygon fill="midnightblue" stroke="midnightblue" points="582.74,-448.78 591.98,-443.59 581.52,-441.88 582.74,-448.78"/>
</g>
<!-- Node4 -->
<g id="node4" class="node">
<title>Node4</title>
<g id="a_node4"><a xlink:href="kv_2map_8h.html" target="_top" xlink:title=" ">
<polygon fill="white" stroke="black" points="607,-369.5 607,-388.5 687,-388.5 687,-369.5 607,-369.5"/>
<text text-anchor="middle" x="647" y="-376.5" font-family="Helvetica,sans-Serif" font-size="10.00">ccf/kv/map.h</text>
</a>
</g>
</g>
<!-- Node3&#45;&gt;Node4 -->
<g id="edge3" class="edge">
<title>Node3&#45;&gt;Node4</title>
<path fill="none" stroke="midnightblue" d="M323.02,-425.8C397.72,-415.24 526.29,-397.06 596.92,-387.08"/>
<polygon fill="midnightblue" stroke="midnightblue" points="597.5,-390.53 606.91,-385.67 596.52,-383.6 597.5,-390.53"/>
</g>
<!-- Node14 -->
<g id="node14" class="node">
<title>Node14</title>
<g id="a_node14"><a xlink:href="serialised__entry_8h.html" target="_top" xlink:title=" ">
<polygon fill="white" stroke="black" points="492.5,-168.5 492.5,-198.5 597.5,-198.5 597.5,-168.5 492.5,-168.5"/>
<text text-anchor="start" x="500.5" y="-186.5" font-family="Helvetica,sans-Serif" font-size="10.00">ccf/kv/serialisers</text>
<text text-anchor="middle" x="545" y="-175.5" font-family="Helvetica,sans-Serif" font-size="10.00">/serialised_entry.h</text>
</a>
</g>
</g>
<!-- Node3&#45;&gt;Node14 -->
<g id="edge43" class="edge">
<title>Node3&#45;&gt;Node14</title>
<path fill="none" stroke="midnightblue" d="M275.08,-425.5C284.7,-417 299.15,-403.18 309,-389 333.39,-353.9 321.37,-333.74 350,-302 391.72,-255.76 455.97,-221.92 499.2,-202.74"/>
<polygon fill="midnightblue" stroke="midnightblue" points="500.85,-205.84 508.63,-198.64 498.06,-199.42 500.85,-205.84"/>
</g>
<!-- Node3&#45;&gt;Node34 -->
<g id="edge44" class="edge">
<title>Node3&#45;&gt;Node34</title>
<path fill="none" stroke="midnightblue" d="M260.21,-425.08C256.24,-417.69 250.47,-406.95 245.57,-397.81"/>
<polygon fill="midnightblue" stroke="midnightblue" points="248.51,-395.91 240.7,-388.75 242.35,-399.22 248.51,-395.91"/>
</g>
<!-- Node5 -->
<g id="node5" class="node">
<title>Node5</title>
<g id="a_node5"><a xlink:href="get__name_8h.html" target="_top" xlink:title=" ">
<polygon fill="white" stroke="black" points="593.5,-308 593.5,-327 700.5,-327 700.5,-308 593.5,-308"/>
<text text-anchor="middle" x="647" y="-315" font-family="Helvetica,sans-Serif" font-size="10.00">ccf/kv/get_name.h</text>
</a>
</g>
</g>
<!-- Node4&#45;&gt;Node5 -->
<g id="edge4" class="edge">
<title>Node4&#45;&gt;Node5</title>
<path fill="none" stroke="midnightblue" d="M647,-369.48C647,-361.08 647,-347.98 647,-337.16"/>
<polygon fill="midnightblue" stroke="midnightblue" points="650.5,-337.01 647,-327.01 643.5,-337.01 650.5,-337.01"/>
</g>
<!-- Node7 -->
<g id="node7" class="node">
<title>Node7</title>
<g id="a_node7"><a xlink:href="include_2ccf_2kv_2hooks_8h.html" target="_top" xlink:title=" ">
<polygon fill="white" stroke="black" points="937.5,-241 937.5,-260 1024.5,-260 1024.5,-241 937.5,-241"/>
<text text-anchor="middle" x="981" y="-248" font-family="Helvetica,sans-Serif" font-size="10.00">ccf/kv/hooks.h</text>
</a>
</g>
</g>
<!-- Node4&#45;&gt;Node7 -->
<g id="edge6" class="edge">
<title>Node4&#45;&gt;Node7</title>
<path fill="none" stroke="midnightblue" d="M687.11,-377.72C762.79,-376.34 922.6,-369.11 962,-333 979.21,-317.23 982.3,-289.16 982.22,-270.43"/>
<polygon fill="midnightblue" stroke="midnightblue" points="985.71,-270.04 981.85,-260.17 978.71,-270.29 985.71,-270.04"/>
</g>
<!-- Node11 -->
<g id="node11" class="node">
<title>Node11</title>
<g id="a_node11"><a xlink:href="map__handle_8h.html" target="_top" xlink:title=" ">
<polygon fill="white" stroke="black" points="835,-308 835,-327 953,-327 953,-308 835,-308"/>
<text text-anchor="middle" x="894" y="-315" font-family="Helvetica,sans-Serif" font-size="10.00">ccf/kv/map_handle.h</text>
</a>
</g>
</g>
<!-- Node4&#45;&gt;Node11 -->
<g id="edge10" class="edge">
<title>Node4&#45;&gt;Node11</title>
<path fill="none" stroke="midnightblue" d="M682.39,-369.48C726.23,-358.92 800.97,-340.91 848.88,-329.37"/>
<polygon fill="midnightblue" stroke="midnightblue" points="849.77,-332.75 858.68,-327.01 848.13,-325.95 849.77,-332.75"/>
</g>
<!-- Node23 -->
<g id="node23" class="node">
<title>Node23</title>
<g id="a_node23"><a xlink:href="blit__serialiser_8h.html" target="_top" xlink:title=" ">
<polygon fill="white" stroke="black" points="476.5,-302.5 476.5,-332.5 575.5,-332.5 575.5,-302.5 476.5,-302.5"/>
<text text-anchor="start" x="484.5" y="-320.5" font-family="Helvetica,sans-Serif" font-size="10.00">ccf/kv/serialisers</text>
<text text-anchor="middle" x="526" y="-309.5" font-family="Helvetica,sans-Serif" font-size="10.00">/blit_serialiser.h</text>
</a>
</g>
</g>
<!-- Node4&#45;&gt;Node23 -->
<g id="edge25" class="edge">
<title>Node4&#45;&gt;Node23</title>
<path fill="none" stroke="midnightblue" d="M629.66,-369.48C612.51,-361.04 585.7,-347.86 563.64,-337.01"/>
<polygon fill="midnightblue" stroke="midnightblue" points="565.04,-333.79 554.52,-332.52 561.95,-340.08 565.04,-333.79"/>
</g>
<!-- Node30 -->
<g id="node30" class="node">
<title>Node30</title>
<g id="a_node30"><a xlink:href="json__serialiser_8h.html" target="_top" xlink:title=" ">
<polygon fill="white" stroke="black" points="359.5,-302.5 359.5,-332.5 458.5,-332.5 458.5,-302.5 359.5,-302.5"/>
<text text-anchor="start" x="367.5" y="-320.5" font-family="Helvetica,sans-Serif" font-size="10.00">ccf/kv/serialisers</text>
<text text-anchor="middle" x="409" y="-309.5" font-family="Helvetica,sans-Serif" font-size="10.00">/json_serialiser.h</text>
</a>
</g>
</g>
<!-- Node4&#45;&gt;Node30 -->
<g id="edge35" class="edge">
<title>Node4&#45;&gt;Node30</title>
<path fill="none" stroke="midnightblue" d="M612.9,-369.48C575.3,-360.07 514.1,-344.78 468.55,-333.39"/>
<polygon fill="midnightblue" stroke="midnightblue" points="469.34,-329.98 458.79,-330.95 467.64,-336.77 469.34,-329.98"/>
</g>
<!-- Node32 -->
<g id="node32" class="node">
<title>Node32</title>
<g id="a_node32"><a xlink:href="untyped_8h.html" target="_top" xlink:title=" ">
<polygon fill="white" stroke="black" points="719,-308 719,-327 817,-327 817,-308 719,-308"/>
<text text-anchor="middle" x="768" y="-315" font-family="Helvetica,sans-Serif" font-size="10.00">ccf/kv/untyped.h</text>
</a>
</g>
</g>
<!-- Node4&#45;&gt;Node32 -->
<g id="edge38" class="edge">
<title>Node4&#45;&gt;Node32</title>
<path fill="none" stroke="midnightblue" d="M664.34,-369.48C684.55,-359.53 718.19,-342.99 741.64,-331.46"/>
<polygon fill="midnightblue" stroke="midnightblue" points="743.27,-334.56 750.7,-327.01 740.18,-328.28 743.27,-334.56"/>
</g>
<!-- Node6 -->
<g id="node6" class="node">
<title>Node6</title>
<g id="a_node6"><a xlink:title=" ">
<polygon fill="white" stroke="#bfbfbf" points="616,-174 616,-193 660,-193 660,-174 616,-174"/>
<text text-anchor="middle" x="638" y="-181" font-family="Helvetica,sans-Serif" font-size="10.00">string</text>
</a>
</g>
</g>
<!-- Node5&#45;&gt;Node6 -->
<g id="edge5" class="edge">
<title>Node5&#45;&gt;Node6</title>
<path fill="none" stroke="midnightblue" d="M646.41,-307.84C644.97,-286.67 641.24,-231.95 639.26,-203.03"/>
<polygon fill="midnightblue" stroke="midnightblue" points="642.75,-202.76 638.58,-193.02 635.77,-203.24 642.75,-202.76"/>
</g>
<!-- Node8 -->
<g id="node8" class="node">
<title>Node8</title>
<g id="a_node8"><a xlink:href="version_8h.html" target="_top" xlink:title=" ">
<polygon fill="white" stroke="black" points="920,-174 920,-193 1014,-193 1014,-174 920,-174"/>
<text text-anchor="middle" x="967" y="-181" font-family="Helvetica,sans-Serif" font-size="10.00">ccf/kv/version.h</text>
</a>
</g>
</g>
<!-- Node7&#45;&gt;Node8 -->
<g id="edge7" class="edge">
<title>Node7&#45;&gt;Node8</title>
<path fill="none" stroke="midnightblue" d="M979.11,-240.73C977.03,-231.09 973.63,-215.3 970.96,-202.91"/>
<polygon fill="midnightblue" stroke="midnightblue" points="974.39,-202.17 968.86,-193.13 967.54,-203.64 974.39,-202.17"/>
</g>
<!-- Node9 -->
<g id="node9" class="node">
<title>Node9</title>
<g id="a_node9"><a xlink:title=" ">
<polygon fill="white" stroke="#bfbfbf" points="1032.5,-174 1032.5,-193 1097.5,-193 1097.5,-174 1032.5,-174"/>
<text text-anchor="middle" x="1065" y="-181" font-family="Helvetica,sans-Serif" font-size="10.00">functional</text>
</a>
</g>
</g>
<!-- Node7&#45;&gt;Node9 -->
<g id="edge8" class="edge">
<title>Node7&#45;&gt;Node9</title>
<path fill="none" stroke="midnightblue" d="M992.33,-240.73C1006.06,-230.11 1029.4,-212.05 1045.92,-199.26"/>
<polygon fill="midnightblue" stroke="midnightblue" points="1048.08,-202.02 1053.85,-193.13 1043.8,-196.48 1048.08,-202.02"/>
</g>
<!-- Node10 -->
<g id="node10" class="node">
<title>Node10</title>
<g id="a_node10"><a xlink:title=" ">
<polygon fill="white" stroke="#bfbfbf" points="1116,-174 1116,-193 1174,-193 1174,-174 1116,-174"/>
<text text-anchor="middle" x="1145" y="-181" font-family="Helvetica,sans-Serif" font-size="10.00">memory</text>
</a>
</g>
</g>
<!-- Node7&#45;&gt;Node10 -->
<g id="edge9" class="edge">
<title>Node7&#45;&gt;Node10</title>
<path fill="none" stroke="midnightblue" d="M1002.78,-240.87C1031.28,-229.57 1081.43,-209.7 1113.92,-196.82"/>
<polygon fill="midnightblue" stroke="midnightblue" points="1115.39,-200 1123.39,-193.06 1112.81,-193.49 1115.39,-200"/>
</g>
<!-- Node12 -->
<g id="node12" class="node">
<title>Node12</title>
<g id="a_node12"><a xlink:href="untyped__map__handle_8h.html" target="_top" xlink:title=" ">
<polygon fill="white" stroke="black" points="797,-235.5 797,-265.5 913,-265.5 913,-235.5 797,-235.5"/>
<text text-anchor="start" x="805" y="-253.5" font-family="Helvetica,sans-Serif" font-size="10.00">ccf/kv/untyped_map</text>
<text text-anchor="middle" x="855" y="-242.5" font-family="Helvetica,sans-Serif" font-size="10.00">_handle.h</text>
</a>
</g>
</g>
<!-- Node11&#45;&gt;Node12 -->
<g id="edge11" class="edge">
<title>Node11&#45;&gt;Node12</title>
<path fill="none" stroke="midnightblue" d="M888.74,-307.73C883.62,-299.2 875.62,-285.87 868.7,-274.33"/>
<polygon fill="midnightblue" stroke="midnightblue" points="871.6,-272.36 863.45,-265.59 865.6,-275.96 871.6,-272.36"/>
</g>
<!-- Node12&#45;&gt;Node6 -->
<g id="edge24" class="edge">
<title>Node12&#45;&gt;Node6</title>
<path fill="none" stroke="midnightblue" d="M805.97,-235.47C771.5,-225.52 724.34,-211.73 683,-199 678.85,-197.72 674.5,-196.36 670.2,-194.99"/>
<polygon fill="midnightblue" stroke="midnightblue" points="670.99,-191.56 660.4,-191.84 668.85,-198.23 670.99,-191.56"/>
</g>
<!-- Node12&#45;&gt;Node8 -->
<g id="edge21" class="edge">
<title>Node12&#45;&gt;Node8</title>
<path fill="none" stroke="midnightblue" d="M879.3,-235.4C898.35,-224.34 924.68,-209.06 943.51,-198.13"/>
<polygon fill="midnightblue" stroke="midnightblue" points="945.45,-201.05 952.34,-193.01 941.94,-195 945.45,-201.05"/>
</g>
<!-- Node12&#45;&gt;Node9 -->
<g id="edge22" class="edge">
<title>Node12&#45;&gt;Node9</title>
<path fill="none" stroke="midnightblue" d="M903.68,-235.43C937.31,-225.58 983,-211.91 1023,-199 1025.59,-198.16 1028.27,-197.28 1030.96,-196.38"/>
<polygon fill="midnightblue" stroke="midnightblue" points="1032.28,-199.63 1040.63,-193.1 1030.03,-193 1032.28,-199.63"/>
</g>
<!-- Node13 -->
<g id="node13" class="node">
<title>Node13</title>
<g id="a_node13"><a xlink:href="abstract__handle_8h.html" target="_top" xlink:title=" ">
<polygon fill="white" stroke="black" points="766,-174 766,-193 902,-193 902,-174 766,-174"/>
<text text-anchor="middle" x="834" y="-181" font-family="Helvetica,sans-Serif" font-size="10.00">ccf/kv/abstract_handle.h</text>
</a>
</g>
</g>
<!-- Node12&#45;&gt;Node13 -->
<g id="edge12" class="edge">
<title>Node12&#45;&gt;Node13</title>
<path fill="none" stroke="midnightblue" d="M850.44,-235.4C847.36,-225.86 843.27,-213.18 839.93,-202.86"/>
<polygon fill="midnightblue" stroke="midnightblue" points="843.21,-201.63 836.81,-193.19 836.55,-203.79 843.21,-201.63"/>
</g>
<!-- Node12&#45;&gt;Node14 -->
<g id="edge13" class="edge">
<title>Node12&#45;&gt;Node14</title>
<path fill="none" stroke="midnightblue" d="M796.77,-238.14C748.71,-228.64 678.47,-214.51 607.73,-199.12"/>
<polygon fill="midnightblue" stroke="midnightblue" points="608.26,-195.66 597.74,-196.94 606.76,-202.5 608.26,-195.66"/>
</g>
<!-- Node22 -->
<g id="node22" class="node">
<title>Node22</title>
<g id="a_node22"><a xlink:title=" ">
<polygon fill="white" stroke="#bfbfbf" points="692,-174 692,-193 748,-193 748,-174 692,-174"/>
<text text-anchor="middle" x="720" y="-181" font-family="Helvetica,sans-Serif" font-size="10.00">optional</text>
</a>
</g>
</g>
<!-- Node12&#45;&gt;Node22 -->
<g id="edge23" class="edge">
<title>Node12&#45;&gt;Node22</title>
<path fill="none" stroke="midnightblue" d="M825.71,-235.4C802.23,-224.09 769.56,-208.36 746.77,-197.39"/>
<polygon fill="midnightblue" stroke="midnightblue" points="748.2,-194.19 737.67,-193.01 745.16,-200.5 748.2,-194.19"/>
</g>
<!-- Node15 -->
<g id="node15" class="node">
<title>Node15</title>
<g id="a_node15"><a xlink:href="byte__vector_8h.html" target="_top" xlink:title=" ">
<polygon fill="white" stroke="black" points="489,-112.5 489,-131.5 589,-131.5 589,-112.5 489,-112.5"/>
<text text-anchor="middle" x="539" y="-119.5" font-family="Helvetica,sans-Serif" font-size="10.00">ccf/byte_vector.h</text>
</a>
</g>
</g>
<!-- Node14&#45;&gt;Node15 -->
<g id="edge14" class="edge">
<title>Node14&#45;&gt;Node15</title>
<path fill="none" stroke="midnightblue" d="M543.58,-168.4C542.78,-160.47 541.77,-150.46 540.9,-141.86"/>
<polygon fill="midnightblue" stroke="midnightblue" points="544.36,-141.26 539.87,-131.66 537.39,-141.96 544.36,-141.26"/>
</g>
<!-- Node16 -->
<g id="node16" class="node">
<title>Node16</title>
<g id="a_node16"><a xlink:href="siphash_8h.html" target="_top" xlink:title=" ">
<polygon fill="white" stroke="black" points="371.5,-56.5 371.5,-75.5 466.5,-75.5 466.5,-56.5 371.5,-56.5"/>
<text text-anchor="middle" x="419" y="-63.5" font-family="Helvetica,sans-Serif" font-size="10.00">ccf/ds/siphash.h</text>
</a>
</g>
</g>
<!-- Node15&#45;&gt;Node16 -->
<g id="edge15" class="edge">
<title>Node15&#45;&gt;Node16</title>
<path fill="none" stroke="midnightblue" d="M519.99,-112.44C500.41,-103.64 469.69,-89.81 447.27,-79.72"/>
<polygon fill="midnightblue" stroke="midnightblue" points="448.48,-76.43 437.93,-75.52 445.61,-82.81 448.48,-76.43"/>
</g>
<!-- Node20 -->
<g id="node20" class="node">
<title>Node20</title>
<g id="a_node20"><a xlink:title=" ">
<polygon fill="white" stroke="#bfbfbf" points="494.5,-56.5 494.5,-75.5 573.5,-75.5 573.5,-56.5 494.5,-56.5"/>
<text text-anchor="middle" x="534" y="-63.5" font-family="Helvetica,sans-Serif" font-size="10.00">fmt/format.h</text>
</a>
</g>
</g>
<!-- Node15&#45;&gt;Node20 -->
<g id="edge19" class="edge">
<title>Node15&#45;&gt;Node20</title>
<path fill="none" stroke="midnightblue" d="M538.17,-112.08C537.52,-105.01 536.58,-94.86 535.76,-85.99"/>
<polygon fill="midnightblue" stroke="midnightblue" points="539.22,-85.39 534.81,-75.75 532.25,-86.03 539.22,-85.39"/>
</g>
<!-- Node21 -->
<g id="node21" class="node">
<title>Node21</title>
<g id="a_node21"><a xlink:title=" ">
<polygon fill="white" stroke="#bfbfbf" points="591.5,-56.5 591.5,-75.5 740.5,-75.5 740.5,-56.5 591.5,-56.5"/>
<text text-anchor="middle" x="666" y="-63.5" font-family="Helvetica,sans-Serif" font-size="10.00">small_vector/SmallVector.h</text>
</a>
</g>
</g>
<!-- Node15&#45;&gt;Node21 -->
<g id="edge20" class="edge">
<title>Node15&#45;&gt;Node21</title>
<path fill="none" stroke="midnightblue" d="M559.12,-112.44C580.02,-103.56 612.93,-89.56 636.72,-79.45"/>
<polygon fill="midnightblue" stroke="midnightblue" points="638.14,-82.65 645.97,-75.52 635.4,-76.21 638.14,-82.65"/>
</g>
<!-- Node17 -->
<g id="node17" class="node">
<title>Node17</title>
<g id="a_node17"><a xlink:title=" ">
<polygon fill="white" stroke="#bfbfbf" points="427.5,-0.5 427.5,-19.5 480.5,-19.5 480.5,-0.5 427.5,-0.5"/>
<text text-anchor="middle" x="454" y="-7.5" font-family="Helvetica,sans-Serif" font-size="10.00">cstddef</text>
</a>
</g>
</g>
<!-- Node16&#45;&gt;Node17 -->
<g id="edge16" class="edge">
<title>Node16&#45;&gt;Node17</title>
<path fill="none" stroke="midnightblue" d="M424.78,-56.08C429.67,-48.53 436.83,-37.49 442.83,-28.23"/>
<polygon fill="midnightblue" stroke="midnightblue" points="445.83,-30.05 448.33,-19.75 439.95,-26.24 445.83,-30.05"/>
</g>
<!-- Node18 -->
<g id="node18" class="node">
<title>Node18</title>
<g id="a_node18"><a xlink:title=" ">
<polygon fill="white" stroke="#bfbfbf" points="359,-0.5 359,-19.5 409,-19.5 409,-0.5 359,-0.5"/>
<text text-anchor="middle" x="384" y="-7.5" font-family="Helvetica,sans-Serif" font-size="10.00">cstdint</text>
</a>
</g>
</g>
<!-- Node16&#45;&gt;Node18 -->
<g id="edge17" class="edge">
<title>Node16&#45;&gt;Node18</title>
<path fill="none" stroke="midnightblue" d="M413.22,-56.08C408.33,-48.53 401.17,-37.49 395.17,-28.23"/>
<polygon fill="midnightblue" stroke="midnightblue" points="398.05,-26.24 389.67,-19.75 392.17,-30.05 398.05,-26.24"/>
</g>
<!-- Node16&#45;&gt;Node19 -->
<g id="edge18" class="edge">
<title>Node16&#45;&gt;Node19</title>
<path fill="none" stroke="midnightblue" d="M383.51,-56.44C340.97,-46.19 270.24,-29.14 228.58,-19.09"/>
<polygon fill="midnightblue" stroke="midnightblue" points="229.19,-15.64 218.65,-16.7 227.55,-22.45 229.19,-15.64"/>
</g>
<!-- Node23&#45;&gt;Node14 -->
<g id="edge34" class="edge">
<title>Node23&#45;&gt;Node14</title>
<path fill="none" stroke="midnightblue" d="M528.03,-302.37C531.26,-279.94 537.6,-235.92 541.55,-208.49"/>
<polygon fill="midnightblue" stroke="midnightblue" points="545.02,-208.92 542.98,-198.52 538.09,-207.92 545.02,-208.92"/>
</g>
<!-- Node24 -->
<g id="node24" class="node">
<title>Node24</title>
<g id="a_node24"><a xlink:href="nonstd_8h.html" target="_top" xlink:title=" ">
<polygon fill="white" stroke="black" points="214,-241 214,-260 304,-260 304,-241 214,-241"/>
<text text-anchor="middle" x="259" y="-248" font-family="Helvetica,sans-Serif" font-size="10.00">ccf/ds/nonstd.h</text>
</a>
</g>
</g>
<!-- Node23&#45;&gt;Node24 -->
<g id="edge26" class="edge">
<title>Node23&#45;&gt;Node24</title>
<path fill="none" stroke="midnightblue" d="M476.43,-304.31C473.24,-303.52 470.07,-302.75 467,-302 410.97,-288.31 346.43,-272.66 304.29,-262.46"/>
<polygon fill="midnightblue" stroke="midnightblue" points="304.88,-259 294.34,-260.05 303.23,-265.8 304.88,-259"/>
</g>
<!-- Node24&#45;&gt;Node6 -->
<g id="edge30" class="edge">
<title>Node24&#45;&gt;Node6</title>
<path fill="none" stroke="midnightblue" d="M304.13,-247.18C371.37,-242.78 501.29,-230.64 607,-199 608.88,-198.44 610.79,-197.78 612.69,-197.06"/>
<polygon fill="midnightblue" stroke="midnightblue" points="614.13,-200.25 621.94,-193.1 611.37,-193.82 614.13,-200.25"/>
</g>
<!-- Node24&#45;&gt;Node19 -->
<g id="edge33" class="edge">
<title>Node24&#45;&gt;Node19</title>
<path fill="none" stroke="midnightblue" d="M269.92,-240.82C280.43,-231.69 295.64,-216.29 302,-199 306.76,-186.07 306.06,-181.17 302,-168 283.94,-109.44 235.74,-53.19 210.66,-26.74"/>
<polygon fill="midnightblue" stroke="midnightblue" points="213.14,-24.27 203.68,-19.52 208.11,-29.14 213.14,-24.27"/>
</g>
<!-- Node25 -->
<g id="node25" class="node">
<title>Node25</title>
<g id="a_node25"><a xlink:title=" ">
<polygon fill="white" stroke="#bfbfbf" points="350,-174 350,-193 414,-193 414,-174 350,-174"/>
<text text-anchor="middle" x="382" y="-181" font-family="Helvetica,sans-Serif" font-size="10.00">algorithm</text>
</a>
</g>
</g>
<!-- Node24&#45;&gt;Node25 -->
<g id="edge27" class="edge">
<title>Node24&#45;&gt;Node25</title>
<path fill="none" stroke="midnightblue" d="M275.33,-240.87C296.1,-229.89 332.19,-210.82 356.57,-197.94"/>
<polygon fill="midnightblue" stroke="midnightblue" points="358.39,-200.93 365.6,-193.17 355.12,-194.75 358.39,-200.93"/>
</g>
<!-- Node26 -->
<g id="node26" class="node">
<title>Node26</title>
<g id="a_node26"><a xlink:title=" ">
<polygon fill="white" stroke="#bfbfbf" points="432,-174 432,-193 474,-193 474,-174 432,-174"/>
<text text-anchor="middle" x="453" y="-181" font-family="Helvetica,sans-Serif" font-size="10.00">array</text>
</a>
</g>
</g>
<!-- Node24&#45;&gt;Node26 -->
<g id="edge28" class="edge">
<title>Node24&#45;&gt;Node26</title>
<path fill="none" stroke="midnightblue" d="M291.86,-240.96C325.33,-231.9 378.5,-216.49 423,-199 424.38,-198.46 425.78,-197.88 427.19,-197.28"/>
<polygon fill="midnightblue" stroke="midnightblue" points="428.74,-200.42 436.38,-193.09 425.83,-194.05 428.74,-200.42"/>
</g>
<!-- Node27 -->
<g id="node27" class="node">
<title>Node27</title>
<g id="a_node27"><a xlink:title=" ">
<polygon fill="white" stroke="#bfbfbf" points="66.5,-174 66.5,-193 115.5,-193 115.5,-174 66.5,-174"/>
<text text-anchor="middle" x="91" y="-181" font-family="Helvetica,sans-Serif" font-size="10.00">cctype</text>
</a>
</g>
</g>
<!-- Node24&#45;&gt;Node27 -->
<g id="edge29" class="edge">
<title>Node24&#45;&gt;Node27</title>
<path fill="none" stroke="midnightblue" d="M234.94,-240.96C207.82,-231.23 162.48,-214.64 124,-199 122.59,-198.43 121.14,-197.83 119.69,-197.22"/>
<polygon fill="midnightblue" stroke="midnightblue" points="120.69,-193.84 110.12,-193.12 117.93,-200.27 120.69,-193.84"/>
</g>
<!-- Node28 -->
<g id="node28" class="node">
<title>Node28</title>
<g id="a_node28"><a xlink:title=" ">
<polygon fill="white" stroke="#bfbfbf" points="133.5,-174 133.5,-193 206.5,-193 206.5,-174 133.5,-174"/>
<text text-anchor="middle" x="170" y="-181" font-family="Helvetica,sans-Serif" font-size="10.00">string_view</text>
</a>
</g>
</g>
<!-- Node24&#45;&gt;Node28 -->
<g id="edge31" class="edge">
<title>Node24&#45;&gt;Node28</title>
<path fill="none" stroke="midnightblue" d="M247,-240.73C232.45,-230.11 207.72,-212.05 190.22,-199.26"/>
<polygon fill="midnightblue" stroke="midnightblue" points="191.95,-196.2 181.81,-193.13 187.82,-201.85 191.95,-196.2"/>
</g>
<!-- Node29 -->
<g id="node29" class="node">
<title>Node29</title>
<g id="a_node29"><a xlink:title=" ">
<polygon fill="white" stroke="#bfbfbf" points="224.5,-174 224.5,-193 293.5,-193 293.5,-174 224.5,-174"/>
<text text-anchor="middle" x="259" y="-181" font-family="Helvetica,sans-Serif" font-size="10.00">type_traits</text>
</a>
</g>
</g>
<!-- Node24&#45;&gt;Node29 -->
<g id="edge32" class="edge">
<title>Node24&#45;&gt;Node29</title>
<path fill="none" stroke="midnightblue" d="M259,-240.73C259,-231.18 259,-215.62 259,-203.28"/>
<polygon fill="midnightblue" stroke="midnightblue" points="262.5,-203.13 259,-193.13 255.5,-203.13 262.5,-203.13"/>
</g>
<!-- Node30&#45;&gt;Node14 -->
<g id="edge36" class="edge">
<title>Node30&#45;&gt;Node14</title>
<path fill="none" stroke="midnightblue" d="M423.55,-302.37C447.48,-279.15 495.26,-232.78 523.22,-205.64"/>
<polygon fill="midnightblue" stroke="midnightblue" points="525.81,-208 530.55,-198.52 520.94,-202.98 525.81,-208"/>
</g>
<!-- Node30&#45;&gt;Node31 -->
<g id="edge37" class="edge">
<title>Node30&#45;&gt;Node31</title>
<path fill="none" stroke="midnightblue" d="M359.22,-304.43C309.62,-292.4 234.12,-274.08 186.19,-262.46"/>
<polygon fill="midnightblue" stroke="midnightblue" points="186.94,-259.04 176.4,-260.09 185.29,-265.84 186.94,-259.04"/>
</g>
<!-- Node32&#45;&gt;Node7 -->
<g id="edge39" class="edge">
<title>Node32&#45;&gt;Node7</title>
<path fill="none" stroke="midnightblue" d="M796.28,-307.87C834.11,-296.33 901.25,-275.84 943.33,-263"/>
<polygon fill="midnightblue" stroke="midnightblue" points="944.39,-266.33 952.94,-260.06 942.35,-259.63 944.39,-266.33"/>
</g>
<!-- Node32&#45;&gt;Node14 -->
<g id="edge40" class="edge">
<title>Node32&#45;&gt;Node14</title>
<path fill="none" stroke="midnightblue" d="M753.37,-307.84C717.88,-286.83 626.56,-232.78 577.43,-203.7"/>
<polygon fill="midnightblue" stroke="midnightblue" points="579.16,-200.65 568.77,-198.57 575.6,-206.68 579.16,-200.65"/>
</g>
<!-- Node32&#45;&gt;Node22 -->
<g id="edge42" class="edge">
<title>Node32&#45;&gt;Node22</title>
<path fill="none" stroke="midnightblue" d="M766.99,-307.67C765.03,-292.41 760.02,-260.33 750,-235 745.39,-223.34 738.28,-211.22 732.14,-201.78"/>
<polygon fill="midnightblue" stroke="midnightblue" points="734.95,-199.69 726.46,-193.35 729.15,-203.6 734.95,-199.69"/>
</g>
<!-- Node33 -->
<g id="node33" class="node">
<title>Node33</title>
<g id="a_node33"><a xlink:title=" ">
<polygon fill="white" stroke="#bfbfbf" points="703,-241 703,-260 741,-260 741,-241 703,-241"/>
<text text-anchor="middle" x="722" y="-248" font-family="Helvetica,sans-Serif" font-size="10.00">map</text>
</a>
</g>
</g>
<!-- Node32&#45;&gt;Node33 -->
<g id="edge41" class="edge">
<title>Node32&#45;&gt;Node33</title>
<path fill="none" stroke="midnightblue" d="M761.8,-307.73C754.69,-297.7 742.89,-281.01 733.98,-268.42"/>
<polygon fill="midnightblue" stroke="midnightblue" points="736.74,-266.27 728.11,-260.13 731.03,-270.31 736.74,-266.27"/>
</g>
</g>
</svg>
        <g id="navigator" transform="translate(0 0)" fill="#404254">
                <rect fill="#f2f5e9" fill-opacity="0.5" stroke="#606060" stroke-width=".5" x="0" y="0" width="60" height="60"/>
                <use id="zoomplus" xlink:href="#zoomPlus" x="17" y="9" onmousedown="handleZoom(evt,'in')"/>
                <use id="zoomminus" xlink:href="#zoomMin" x="42" y="9" onmousedown="handleZoom(evt,'out')"/>
                <use id="reset" xlink:href="#resetDef" x="30" y="36" onmousedown="handleReset()"/>
                <g id="arrowUp" xlink:href="#dirArrow" transform="translate(30 24)" onmousedown="handlePan(0,-1)">
                  <use xlink:href="#rim" fill="#404040">
                        <set attributeName="fill" to="#808080" begin="arrowUp.mouseover" end="arrowUp.mouseout"/>
                  </use>
                  <path fill="none" stroke="white" stroke-width="1.5" d="M0,-3.0v7 M-2.5,-0.5L0,-3.0L2.5,-0.5"/>
                </g>
                <g id="arrowRight" xlink:href="#dirArrow" transform="rotate(90) translate(36 -43)" onmousedown="handlePan(1,0)">
                  <use xlink:href="#rim" fill="#404040">
                        <set attributeName="fill" to="#808080" begin="arrowRight.mouseover" end="arrowRight.mouseout"/>
                  </use>
                  <path fill="none" stroke="white" stroke-width="1.5" d="M0,-3.0v7 M-2.5,-0.5L0,-3.0L2.5,-0.5"/>
                </g>
                <g id="arrowDown" xlink:href="#dirArrow" transform="rotate(180) translate(-30 -48)" onmousedown="handlePan(0,1)">
                  <use xlink:href="#rim" fill="#404040">
                        <set attributeName="fill" to="#808080" begin="arrowDown.mouseover" end="arrowDown.mouseout"/>
                  </use>
                  <path fill="none" stroke="white" stroke-width="1.5" d="M0,-3.0v7 M-2.5,-0.5L0,-3.0L2.5,-0.5"/>
                </g>
                <g id="arrowLeft" xlink:href="#dirArrow" transform="rotate(270) translate(-36 17)" onmousedown="handlePan(-1,0)">
                  <use xlink:href="#rim" fill="#404040">
                        <set attributeName="fill" to="#808080" begin="arrowLeft.mouseover" end="arrowLeft.mouseout"/>
                  </use>
                  <path fill="none" stroke="white" stroke-width="1.5" d="M0,-3.0v7 M-2.5,-0.5L0,-3.0L2.5,-0.5"/>
                </g>
        </g>
        <svg viewBox="0 0 15 15" width="100%" height="30px" preserveAspectRatio="xMaxYMin meet">
         <g id="arrow_out" transform="scale(0.3 0.3)">
          <a xlink:href="tpcc__output_8h__incl_org.svg" target="_base">
           <rect id="button" ry="5" rx="5" y="6" x="6" height="38" width="38"
                fill="#f2f5e9" fill-opacity="0.5" stroke="#606060" stroke-width="1.0"/>
           <path id="arrow"
             d="M 11.500037,31.436501 C 11.940474,20.09759 22.043105,11.32322 32.158766,21.979434 L 37.068811,17.246167 C 37.068811,17.246167 37.088388,32 37.088388,32 L 22.160133,31.978069 C 22.160133,31.978069 26.997745,27.140456 26.997745,27.140456 C 18.528582,18.264221 13.291696,25.230495 11.500037,31.436501 z"
             style="fill:#404040;"/>
          </a>
         </g>
        </svg>
</svg>
