<?xml version="1.0" encoding="UTF-8" standalone="no"?>
<!DOCTYPE svg PUBLIC "-//W3C//DTD SVG 1.1//EN"
 "http://www.w3.org/Graphics/SVG/1.1/DTD/svg11.dtd">
<!-- Generated by graphviz version 2.43.0 (0)
 -->
<!-- Title: src/apps/tpcc/app/tpcc_transactions.h Pages: 1 -->
<svg width="1340pt" height="632pt"
 viewBox="0.00 0.00 1339.50 632.00" xmlns="http://www.w3.org/2000/svg" xmlns:xlink="http://www.w3.org/1999/xlink">
<g id="graph0" class="graph" transform="scale(1 1) rotate(0) translate(4 628)">
<title>src/apps/tpcc/app/tpcc_transactions.h</title>
<polygon fill="white" stroke="transparent" points="-4,4 -4,-628 1335.5,-628 1335.5,4 -4,4"/>
<!-- Node1 -->
<g id="node1" class="node">
<title>Node1</title>
<g id="a_node1"><a xlink:title=" ">
<polygon fill="#bfbfbf" stroke="black" points="789,-593.5 789,-623.5 914,-623.5 914,-593.5 789,-593.5"/>
<text text-anchor="start" x="797" y="-611.5" font-family="Helvetica,sans-Serif" font-size="10.00">src/apps/tpcc/app/tpcc</text>
<text text-anchor="middle" x="851.5" y="-600.5" font-family="Helvetica,sans-Serif" font-size="10.00">_transactions.h</text>
</a>
</g>
</g>
<!-- Node2 -->
<g id="node2" class="node">
<title>Node2</title>
<g id="a_node2"><a xlink:href="tpcc__common_8h.html" target="_top" xlink:title=" ">
<polygon fill="white" stroke="black" points="15.5,-537.5 15.5,-556.5 109.5,-556.5 109.5,-537.5 15.5,-537.5"/>
<text text-anchor="middle" x="62.5" y="-544.5" font-family="Helvetica,sans-Serif" font-size="10.00">tpcc_common.h</text>
</a>
</g>
</g>
<!-- Node1&#45;&gt;Node2 -->
<g id="edge1" class="edge">
<title>Node1&#45;&gt;Node2</title>
<path fill="none" stroke="midnightblue" d="M788.55,-604.77C662.19,-598.94 368.8,-583.56 123.5,-557 122.24,-556.86 120.97,-556.72 119.69,-556.57"/>
<polygon fill="midnightblue" stroke="midnightblue" points="120.1,-553.1 109.74,-555.34 119.24,-560.04 120.1,-553.1"/>
</g>
<!-- Node4 -->
<g id="node4" class="node">
<title>Node4</title>
<g id="a_node4"><a xlink:href="tpcc__output_8h.html" target="_top" xlink:title=" ">
<polygon fill="white" stroke="black" points="845,-537.5 845,-556.5 928,-556.5 928,-537.5 845,-537.5"/>
<text text-anchor="middle" x="886.5" y="-544.5" font-family="Helvetica,sans-Serif" font-size="10.00">tpcc_output.h</text>
</a>
</g>
</g>
<!-- Node1&#45;&gt;Node4 -->
<g id="edge3" class="edge">
<title>Node1&#45;&gt;Node4</title>
<path fill="none" stroke="midnightblue" d="M859.79,-593.4C864.72,-585.02 871.01,-574.33 876.25,-565.42"/>
<polygon fill="midnightblue" stroke="midnightblue" points="879.35,-567.05 881.41,-556.66 873.32,-563.5 879.35,-567.05"/>
</g>
<!-- Node5 -->
<g id="node5" class="node">
<title>Node5</title>
<g id="a_node5"><a xlink:href="tpcc__tables_8h.html" target="_top" xlink:title=" ">
<polygon fill="white" stroke="black" points="776,-481.5 776,-500.5 857,-500.5 857,-481.5 776,-481.5"/>
<text text-anchor="middle" x="816.5" y="-488.5" font-family="Helvetica,sans-Serif" font-size="10.00">tpcc_tables.h</text>
</a>
</g>
</g>
<!-- Node1&#45;&gt;Node5 -->
<g id="edge60" class="edge">
<title>Node1&#45;&gt;Node5</title>
<path fill="none" stroke="midnightblue" d="M846.93,-593.38C843.68,-583.27 839.25,-569.32 835.5,-557 830.74,-541.36 825.54,-523.53 821.79,-510.51"/>
<polygon fill="midnightblue" stroke="midnightblue" points="825.14,-509.5 819.02,-500.85 818.41,-511.43 825.14,-509.5"/>
</g>
<!-- Node22 -->
<g id="node22" class="node">
<title>Node22</title>
<g id="a_node22"><a xlink:title=" ">
<polygon fill="white" stroke="#bfbfbf" points="1232,-0.5 1232,-19.5 1279,-19.5 1279,-0.5 1232,-0.5"/>
<text text-anchor="middle" x="1255.5" y="-7.5" font-family="Helvetica,sans-Serif" font-size="10.00">vector</text>
</a>
</g>
</g>
<!-- Node1&#45;&gt;Node22 -->
<g id="edge63" class="edge">
<title>Node1&#45;&gt;Node22</title>
<path fill="none" stroke="midnightblue" d="M788.76,-603.92C614.53,-593.16 137.5,-557.69 137.5,-492 137.5,-492 137.5,-492 137.5,-121 137.5,-90.05 137.35,-74.04 162.5,-56 206.54,-24.4 1041.55,-13.37 1221.51,-11.36"/>
<polygon fill="midnightblue" stroke="midnightblue" points="1221.75,-14.85 1231.71,-11.24 1221.67,-7.85 1221.75,-14.85"/>
</g>
<!-- Node42 -->
<g id="node42" class="node">
<title>Node42</title>
<g id="a_node42"><a xlink:title=" ">
<polygon fill="white" stroke="#bfbfbf" points="946.5,-537.5 946.5,-556.5 1008.5,-556.5 1008.5,-537.5 946.5,-537.5"/>
<text text-anchor="middle" x="977.5" y="-544.5" font-family="Helvetica,sans-Serif" font-size="10.00">cinttypes</text>
</a>
</g>
</g>
<!-- Node1&#45;&gt;Node42 -->
<g id="edge61" class="edge">
<title>Node1&#45;&gt;Node42</title>
<path fill="none" stroke="midnightblue" d="M881.36,-593.4C902.12,-583.59 929.6,-570.62 949.86,-561.05"/>
<polygon fill="midnightblue" stroke="midnightblue" points="951.62,-564.09 959.17,-556.66 948.63,-557.76 951.62,-564.09"/>
</g>
<!-- Node43 -->
<g id="node43" class="node">
<title>Node43</title>
<g id="a_node43"><a xlink:title=" ">
<polygon fill="white" stroke="#bfbfbf" points="1027,-537.5 1027,-556.5 1080,-556.5 1080,-537.5 1027,-537.5"/>
<text text-anchor="middle" x="1053.5" y="-544.5" font-family="Helvetica,sans-Serif" font-size="10.00">string.h</text>
</a>
</g>
</g>
<!-- Node1&#45;&gt;Node43 -->
<g id="edge62" class="edge">
<title>Node1&#45;&gt;Node43</title>
<path fill="none" stroke="midnightblue" d="M899.12,-593.47C935.27,-582.83 984.22,-568.41 1017.23,-558.68"/>
<polygon fill="midnightblue" stroke="midnightblue" points="1018.33,-562.01 1026.94,-555.82 1016.35,-555.29 1018.33,-562.01"/>
</g>
<!-- Node3 -->
<g id="node3" class="node">
<title>Node3</title>
<g id="a_node3"><a xlink:title=" ">
<polygon fill="white" stroke="#bfbfbf" points="35.5,-481.5 35.5,-500.5 89.5,-500.5 89.5,-481.5 35.5,-481.5"/>
<text text-anchor="middle" x="62.5" y="-488.5" font-family="Helvetica,sans-Serif" font-size="10.00">random</text>
</a>
</g>
</g>
<!-- Node2&#45;&gt;Node3 -->
<g id="edge2" class="edge">
<title>Node2&#45;&gt;Node3</title>
<path fill="none" stroke="midnightblue" d="M62.5,-537.08C62.5,-530.01 62.5,-519.86 62.5,-510.99"/>
<polygon fill="midnightblue" stroke="midnightblue" points="66,-510.75 62.5,-500.75 59,-510.75 66,-510.75"/>
</g>
<!-- Node4&#45;&gt;Node5 -->
<g id="edge4" class="edge">
<title>Node4&#45;&gt;Node5</title>
<path fill="none" stroke="midnightblue" d="M875.25,-537.32C864.7,-529.18 848.7,-516.84 836.06,-507.09"/>
<polygon fill="midnightblue" stroke="midnightblue" points="838.01,-504.17 827.95,-500.83 833.73,-509.71 838.01,-504.17"/>
</g>
<!-- Node4&#45;&gt;Node22 -->
<g id="edge59" class="edge">
<title>Node4&#45;&gt;Node22</title>
<path fill="none" stroke="midnightblue" d="M928.36,-537.87C1039.14,-516.09 1331.5,-456.64 1331.5,-436 1331.5,-436 1331.5,-436 1331.5,-121 1331.5,-81.28 1297.54,-45.5 1275.02,-26.15"/>
<polygon fill="midnightblue" stroke="midnightblue" points="1276.98,-23.24 1267.04,-19.57 1272.52,-28.63 1276.98,-23.24"/>
</g>
<!-- Node38 -->
<g id="node38" class="node">
<title>Node38</title>
<g id="a_node38"><a xlink:title=" ">
<polygon fill="white" stroke="#bfbfbf" points="985.5,-425.5 985.5,-444.5 1035.5,-444.5 1035.5,-425.5 985.5,-425.5"/>
<text text-anchor="middle" x="1010.5" y="-432.5" font-family="Helvetica,sans-Serif" font-size="10.00">cstring</text>
</a>
</g>
</g>
<!-- Node4&#45;&gt;Node38 -->
<g id="edge55" class="edge">
<title>Node4&#45;&gt;Node38</title>
<path fill="none" stroke="midnightblue" d="M896.23,-537.37C917.15,-518.81 966.63,-474.91 993.1,-451.44"/>
<polygon fill="midnightblue" stroke="midnightblue" points="995.66,-453.85 1000.82,-444.59 991.01,-448.61 995.66,-453.85"/>
</g>
<!-- Node39 -->
<g id="node39" class="node">
<title>Node39</title>
<g id="a_node39"><a xlink:title=" ">
<polygon fill="white" stroke="#bfbfbf" points="1054,-425.5 1054,-444.5 1107,-444.5 1107,-425.5 1054,-425.5"/>
<text text-anchor="middle" x="1080.5" y="-432.5" font-family="Helvetica,sans-Serif" font-size="10.00">stdint.h</text>
</a>
</g>
</g>
<!-- Node4&#45;&gt;Node39 -->
<g id="edge56" class="edge">
<title>Node4&#45;&gt;Node39</title>
<path fill="none" stroke="midnightblue" d="M901.72,-537.37C935.3,-518.33 1015.92,-472.62 1056.43,-449.65"/>
<polygon fill="midnightblue" stroke="midnightblue" points="1058.38,-452.57 1065.35,-444.59 1054.92,-446.48 1058.38,-452.57"/>
</g>
<!-- Node40 -->
<g id="node40" class="node">
<title>Node40</title>
<g id="a_node40"><a xlink:title=" ">
<polygon fill="white" stroke="#bfbfbf" points="770,-425.5 770,-444.5 863,-444.5 863,-425.5 770,-425.5"/>
<text text-anchor="middle" x="816.5" y="-432.5" font-family="Helvetica,sans-Serif" font-size="10.00">unordered_map</text>
</a>
</g>
</g>
<!-- Node4&#45;&gt;Node40 -->
<g id="edge57" class="edge">
<title>Node4&#45;&gt;Node40</title>
<path fill="none" stroke="midnightblue" d="M885.17,-537.4C882.85,-524.36 877.15,-499.17 865.5,-481 858.07,-469.42 846.95,-458.87 837.18,-450.91"/>
<polygon fill="midnightblue" stroke="midnightblue" points="839.11,-447.98 829.06,-444.61 834.82,-453.5 839.11,-447.98"/>
</g>
<!-- Node41 -->
<g id="node41" class="node">
<title>Node41</title>
<g id="a_node41"><a xlink:title=" ">
<polygon fill="white" stroke="#bfbfbf" points="881.5,-425.5 881.5,-444.5 967.5,-444.5 967.5,-425.5 881.5,-425.5"/>
<text text-anchor="middle" x="924.5" y="-432.5" font-family="Helvetica,sans-Serif" font-size="10.00">unordered_set</text>
</a>
</g>
</g>
<!-- Node4&#45;&gt;Node41 -->
<g id="edge58" class="edge">
<title>Node4&#45;&gt;Node41</title>
<path fill="none" stroke="midnightblue" d="M889.48,-537.37C895.64,-519.54 909.89,-478.3 918.19,-454.27"/>
<polygon fill="midnightblue" stroke="midnightblue" points="921.57,-455.19 921.53,-444.59 914.96,-452.9 921.57,-455.19"/>
</g>
<!-- Node6 -->
<g id="node6" class="node">
<title>Node6</title>
<g id="a_node6"><a xlink:href="serialise__msgpack_8h.html" target="_top" xlink:title=" ">
<polygon fill="white" stroke="black" points="431.5,-425.5 431.5,-444.5 547.5,-444.5 547.5,-425.5 431.5,-425.5"/>
<text text-anchor="middle" x="489.5" y="-432.5" font-family="Helvetica,sans-Serif" font-size="10.00">serialise_msgpack.h</text>
</a>
</g>
</g>
<!-- Node5&#45;&gt;Node6 -->
<g id="edge5" class="edge">
<title>Node5&#45;&gt;Node6</title>
<path fill="none" stroke="midnightblue" d="M775.75,-483.27C719.35,-473.96 617.05,-457.06 551.25,-446.2"/>
<polygon fill="midnightblue" stroke="midnightblue" points="551.45,-442.68 541.01,-444.51 550.31,-449.59 551.45,-442.68"/>
</g>
<!-- Node5&#45;&gt;Node22 -->
<g id="edge54" class="edge">
<title>Node5&#45;&gt;Node22</title>
<path fill="none" stroke="midnightblue" d="M799.34,-481.38C778.08,-469.49 746.28,-447.02 760.5,-425 831,-315.84 1293.5,-314.44 1293.5,-184.5 1293.5,-184.5 1293.5,-184.5 1293.5,-121 1293.5,-91.45 1289.66,-83.75 1279.5,-56 1276.04,-46.54 1270.91,-36.61 1266.29,-28.48"/>
<polygon fill="midnightblue" stroke="midnightblue" points="1269.15,-26.44 1261.04,-19.63 1263.13,-30.01 1269.15,-26.44"/>
</g>
<!-- Node34 -->
<g id="node34" class="node">
<title>Node34</title>
<g id="a_node34"><a xlink:title=" ">
<polygon fill="white" stroke="#bfbfbf" points="203.5,-241 203.5,-260 313.5,-260 313.5,-241 203.5,-241"/>
<text text-anchor="middle" x="258.5" y="-248" font-family="Helvetica,sans-Serif" font-size="10.00">nlohmann/json.hpp</text>
</a>
</g>
</g>
<!-- Node5&#45;&gt;Node34 -->
<g id="edge50" class="edge">
<title>Node5&#45;&gt;Node34</title>
<path fill="none" stroke="midnightblue" d="M775.95,-490.44C699.13,-490.24 527.8,-484.88 390.5,-445 336.67,-429.37 310.25,-434.49 277.5,-389 251.88,-353.42 253.08,-298.97 255.92,-270.43"/>
<polygon fill="midnightblue" stroke="midnightblue" points="259.43,-270.58 257.12,-260.23 252.47,-269.76 259.43,-270.58"/>
</g>
<!-- Node37 -->
<g id="node37" class="node">
<title>Node37</title>
<g id="a_node37"><a xlink:title=" ">
<polygon fill="white" stroke="#bfbfbf" points="287,-369.5 287,-388.5 416,-388.5 416,-369.5 287,-369.5"/>
<text text-anchor="middle" x="351.5" y="-376.5" font-family="Helvetica,sans-Serif" font-size="10.00">msgpack/msgpack.hpp</text>
</a>
</g>
</g>
<!-- Node5&#45;&gt;Node37 -->
<g id="edge49" class="edge">
<title>Node5&#45;&gt;Node37</title>
<path fill="none" stroke="midnightblue" d="M775.87,-488.52C688.34,-484.84 484.84,-473.4 422.5,-445 398.6,-434.11 377.29,-412.1 364.39,-396.72"/>
<polygon fill="midnightblue" stroke="midnightblue" points="366.82,-394.15 357.82,-388.56 361.37,-398.55 366.82,-394.15"/>
</g>
<!-- Node5&#45;&gt;Node38 -->
<g id="edge48" class="edge">
<title>Node5&#45;&gt;Node38</title>
<path fill="none" stroke="midnightblue" d="M847.24,-481.44C882.2,-471.71 939.16,-455.86 975.72,-445.68"/>
<polygon fill="midnightblue" stroke="midnightblue" points="976.76,-449.02 985.46,-442.97 974.88,-442.28 976.76,-449.02"/>
</g>
<!-- Node5&#45;&gt;Node39 -->
<g id="edge51" class="edge">
<title>Node5&#45;&gt;Node39</title>
<path fill="none" stroke="midnightblue" d="M857.4,-482.57C901.08,-474.49 972.55,-460.86 1043.76,-445.07"/>
<polygon fill="midnightblue" stroke="midnightblue" points="1044.8,-448.43 1053.8,-442.83 1043.28,-441.6 1044.8,-448.43"/>
</g>
<!-- Node5&#45;&gt;Node40 -->
<g id="edge52" class="edge">
<title>Node5&#45;&gt;Node40</title>
<path fill="none" stroke="midnightblue" d="M816.5,-481.08C816.5,-474.01 816.5,-463.86 816.5,-454.99"/>
<polygon fill="midnightblue" stroke="midnightblue" points="820,-454.75 816.5,-444.75 813,-454.75 820,-454.75"/>
</g>
<!-- Node5&#45;&gt;Node41 -->
<g id="edge53" class="edge">
<title>Node5&#45;&gt;Node41</title>
<path fill="none" stroke="midnightblue" d="M833.85,-481.32C851.17,-472.66 878.02,-459.24 898,-449.25"/>
<polygon fill="midnightblue" stroke="midnightblue" points="899.81,-452.26 907.19,-444.65 896.68,-446 899.81,-452.26"/>
</g>
<!-- Node7 -->
<g id="node7" class="node">
<title>Node7</title>
<g id="a_node7"><a xlink:href="kv_2map_8h.html" target="_top" xlink:title=" ">
<polygon fill="white" stroke="black" points="493.5,-369.5 493.5,-388.5 573.5,-388.5 573.5,-369.5 493.5,-369.5"/>
<text text-anchor="middle" x="533.5" y="-376.5" font-family="Helvetica,sans-Serif" font-size="10.00">ccf/kv/map.h</text>
</a>
</g>
</g>
<!-- Node6&#45;&gt;Node7 -->
<g id="edge6" class="edge">
<title>Node6&#45;&gt;Node7</title>
<path fill="none" stroke="midnightblue" d="M496.77,-425.08C503.04,-417.38 512.29,-406.03 519.93,-396.65"/>
<polygon fill="midnightblue" stroke="midnightblue" points="522.77,-398.71 526.37,-388.75 517.34,-394.29 522.77,-398.71"/>
</g>
<!-- Node17 -->
<g id="node17" class="node">
<title>Node17</title>
<g id="a_node17"><a xlink:href="serialised__entry_8h.html" target="_top" xlink:title=" ">
<polygon fill="white" stroke="black" points="172,-168.5 172,-198.5 277,-198.5 277,-168.5 172,-168.5"/>
<text text-anchor="start" x="180" y="-186.5" font-family="Helvetica,sans-Serif" font-size="10.00">ccf/kv/serialisers</text>
<text text-anchor="middle" x="224.5" y="-175.5" font-family="Helvetica,sans-Serif" font-size="10.00">/serialised_entry.h</text>
</a>
</g>
</g>
<!-- Node6&#45;&gt;Node17 -->
<g id="edge46" class="edge">
<title>Node6&#45;&gt;Node17</title>
<path fill="none" stroke="midnightblue" d="M483.37,-425.36C472.94,-411.31 450.33,-383.63 424.5,-369 367.09,-336.5 339.8,-361.9 280.5,-333 236.94,-311.78 215.77,-309.53 194.5,-266 185.12,-246.8 195.32,-223.87 206.3,-207.23"/>
<polygon fill="midnightblue" stroke="midnightblue" points="209.42,-208.88 212.36,-198.7 203.72,-204.83 209.42,-208.88"/>
</g>
<!-- Node6&#45;&gt;Node37 -->
<g id="edge47" class="edge">
<title>Node6&#45;&gt;Node37</title>
<path fill="none" stroke="midnightblue" d="M467.63,-425.44C444.72,-416.48 408.52,-402.31 382.63,-392.18"/>
<polygon fill="midnightblue" stroke="midnightblue" points="383.85,-388.9 373.26,-388.52 381.3,-395.42 383.85,-388.9"/>
</g>
<!-- Node8 -->
<g id="node8" class="node">
<title>Node8</title>
<g id="a_node8"><a xlink:href="get__name_8h.html" target="_top" xlink:title=" ">
<polygon fill="white" stroke="black" points="815,-308 815,-327 922,-327 922,-308 815,-308"/>
<text text-anchor="middle" x="868.5" y="-315" font-family="Helvetica,sans-Serif" font-size="10.00">ccf/kv/get_name.h</text>
</a>
</g>
</g>
<!-- Node7&#45;&gt;Node8 -->
<g id="edge7" class="edge">
<title>Node7&#45;&gt;Node8</title>
<path fill="none" stroke="midnightblue" d="M573.74,-372.14C626.95,-364.22 723.56,-349.19 805.5,-333 811.28,-331.86 817.35,-330.57 823.33,-329.25"/>
<polygon fill="midnightblue" stroke="midnightblue" points="824.28,-332.63 833.26,-327.02 822.74,-325.8 824.28,-332.63"/>
</g>
<!-- Node10 -->
<g id="node10" class="node">
<title>Node10</title>
<g id="a_node10"><a xlink:href="include_2ccf_2kv_2hooks_8h.html" target="_top" xlink:title=" ">
<polygon fill="white" stroke="black" points="540,-241 540,-260 627,-260 627,-241 540,-241"/>
<text text-anchor="middle" x="583.5" y="-248" font-family="Helvetica,sans-Serif" font-size="10.00">ccf/kv/hooks.h</text>
</a>
</g>
</g>
<!-- Node7&#45;&gt;Node10 -->
<g id="edge9" class="edge">
<title>Node7&#45;&gt;Node10</title>
<path fill="none" stroke="midnightblue" d="M534.79,-369.29C537.11,-354.87 542.7,-325.32 552.5,-302 557.4,-290.33 564.75,-278.22 571.06,-268.78"/>
<polygon fill="midnightblue" stroke="midnightblue" points="574.08,-270.57 576.9,-260.35 568.33,-266.58 574.08,-270.57"/>
</g>
<!-- Node14 -->
<g id="node14" class="node">
<title>Node14</title>
<g id="a_node14"><a xlink:href="map__handle_8h.html" target="_top" xlink:title=" ">
<polygon fill="white" stroke="black" points="561.5,-308 561.5,-327 679.5,-327 679.5,-308 561.5,-308"/>
<text text-anchor="middle" x="620.5" y="-315" font-family="Helvetica,sans-Serif" font-size="10.00">ccf/kv/map_handle.h</text>
</a>
</g>
</g>
<!-- Node7&#45;&gt;Node14 -->
<g id="edge13" class="edge">
<title>Node7&#45;&gt;Node14</title>
<path fill="none" stroke="midnightblue" d="M545.96,-369.48C559.92,-359.93 582.76,-344.31 599.49,-332.87"/>
<polygon fill="midnightblue" stroke="midnightblue" points="601.78,-335.54 608.06,-327.01 597.83,-329.77 601.78,-335.54"/>
</g>
<!-- Node26 -->
<g id="node26" class="node">
<title>Node26</title>
<g id="a_node26"><a xlink:href="blit__serialiser_8h.html" target="_top" xlink:title=" ">
<polygon fill="white" stroke="black" points="698,-302.5 698,-332.5 797,-332.5 797,-302.5 698,-302.5"/>
<text text-anchor="start" x="706" y="-320.5" font-family="Helvetica,sans-Serif" font-size="10.00">ccf/kv/serialisers</text>
<text text-anchor="middle" x="747.5" y="-309.5" font-family="Helvetica,sans-Serif" font-size="10.00">/blit_serialiser.h</text>
</a>
</g>
</g>
<!-- Node7&#45;&gt;Node26 -->
<g id="edge28" class="edge">
<title>Node7&#45;&gt;Node26</title>
<path fill="none" stroke="midnightblue" d="M564.16,-369.48C596.41,-360.51 647.95,-346.18 688.18,-334.99"/>
<polygon fill="midnightblue" stroke="midnightblue" points="689.19,-338.35 697.89,-332.29 687.32,-331.6 689.19,-338.35"/>
</g>
<!-- Node33 -->
<g id="node33" class="node">
<title>Node33</title>
<g id="a_node33"><a xlink:href="json__serialiser_8h.html" target="_top" xlink:title=" ">
<polygon fill="white" stroke="black" points="290,-302.5 290,-332.5 389,-332.5 389,-302.5 290,-302.5"/>
<text text-anchor="start" x="298" y="-320.5" font-family="Helvetica,sans-Serif" font-size="10.00">ccf/kv/serialisers</text>
<text text-anchor="middle" x="339.5" y="-309.5" font-family="Helvetica,sans-Serif" font-size="10.00">/json_serialiser.h</text>
</a>
</g>
</g>
<!-- Node7&#45;&gt;Node33 -->
<g id="edge38" class="edge">
<title>Node7&#45;&gt;Node33</title>
<path fill="none" stroke="midnightblue" d="M505.7,-369.48C476.97,-360.66 431.34,-346.67 395.16,-335.57"/>
<polygon fill="midnightblue" stroke="midnightblue" points="395.81,-332.11 385.22,-332.52 393.76,-338.8 395.81,-332.11"/>
</g>
<!-- Node35 -->
<g id="node35" class="node">
<title>Node35</title>
<g id="a_node35"><a xlink:href="untyped_8h.html" target="_top" xlink:title=" ">
<polygon fill="white" stroke="black" points="407.5,-308 407.5,-327 505.5,-327 505.5,-308 407.5,-308"/>
<text text-anchor="middle" x="456.5" y="-315" font-family="Helvetica,sans-Serif" font-size="10.00">ccf/kv/untyped.h</text>
</a>
</g>
</g>
<!-- Node7&#45;&gt;Node35 -->
<g id="edge41" class="edge">
<title>Node7&#45;&gt;Node35</title>
<path fill="none" stroke="midnightblue" d="M522.47,-369.48C510.23,-360.02 490.27,-344.6 475.51,-333.19"/>
<polygon fill="midnightblue" stroke="midnightblue" points="477.56,-330.35 467.51,-327.01 473.28,-335.89 477.56,-330.35"/>
</g>
<!-- Node9 -->
<g id="node9" class="node">
<title>Node9</title>
<g id="a_node9"><a xlink:title=" ">
<polygon fill="white" stroke="#bfbfbf" points="795.5,-174 795.5,-193 839.5,-193 839.5,-174 795.5,-174"/>
<text text-anchor="middle" x="817.5" y="-181" font-family="Helvetica,sans-Serif" font-size="10.00">string</text>
</a>
</g>
</g>
<!-- Node8&#45;&gt;Node9 -->
<g id="edge8" class="edge">
<title>Node8&#45;&gt;Node9</title>
<path fill="none" stroke="midnightblue" d="M865.15,-307.84C856.94,-286.58 835.64,-231.46 824.51,-202.65"/>
<polygon fill="midnightblue" stroke="midnightblue" points="827.66,-201.09 820.79,-193.02 821.13,-203.61 827.66,-201.09"/>
</g>
<!-- Node11 -->
<g id="node11" class="node">
<title>Node11</title>
<g id="a_node11"><a xlink:href="version_8h.html" target="_top" xlink:title=" ">
<polygon fill="white" stroke="black" points="529.5,-174 529.5,-193 623.5,-193 623.5,-174 529.5,-174"/>
<text text-anchor="middle" x="576.5" y="-181" font-family="Helvetica,sans-Serif" font-size="10.00">ccf/kv/version.h</text>
</a>
</g>
</g>
<!-- Node10&#45;&gt;Node11 -->
<g id="edge10" class="edge">
<title>Node10&#45;&gt;Node11</title>
<path fill="none" stroke="midnightblue" d="M582.56,-240.73C581.53,-231.18 579.85,-215.62 578.52,-203.28"/>
<polygon fill="midnightblue" stroke="midnightblue" points="581.98,-202.7 577.43,-193.13 575.02,-203.44 581.98,-202.7"/>
</g>
<!-- Node12 -->
<g id="node12" class="node">
<title>Node12</title>
<g id="a_node12"><a xlink:title=" ">
<polygon fill="white" stroke="#bfbfbf" points="446,-174 446,-193 511,-193 511,-174 446,-174"/>
<text text-anchor="middle" x="478.5" y="-181" font-family="Helvetica,sans-Serif" font-size="10.00">functional</text>
</a>
</g>
</g>
<!-- Node10&#45;&gt;Node12 -->
<g id="edge11" class="edge">
<title>Node10&#45;&gt;Node12</title>
<path fill="none" stroke="midnightblue" d="M569.34,-240.73C551.79,-229.87 521.66,-211.22 500.94,-198.39"/>
<polygon fill="midnightblue" stroke="midnightblue" points="502.78,-195.41 492.44,-193.13 499.1,-201.37 502.78,-195.41"/>
</g>
<!-- Node13 -->
<g id="node13" class="node">
<title>Node13</title>
<g id="a_node13"><a xlink:title=" ">
<polygon fill="white" stroke="#bfbfbf" points="369.5,-174 369.5,-193 427.5,-193 427.5,-174 369.5,-174"/>
<text text-anchor="middle" x="398.5" y="-181" font-family="Helvetica,sans-Serif" font-size="10.00">memory</text>
</a>
</g>
</g>
<!-- Node10&#45;&gt;Node13 -->
<g id="edge12" class="edge">
<title>Node10&#45;&gt;Node13</title>
<path fill="none" stroke="midnightblue" d="M557.65,-240.91C528.22,-231.07 478.74,-214.31 436.5,-199 434.4,-198.24 432.23,-197.44 430.05,-196.63"/>
<polygon fill="midnightblue" stroke="midnightblue" points="431.15,-193.31 420.56,-193.06 428.68,-199.86 431.15,-193.31"/>
</g>
<!-- Node15 -->
<g id="node15" class="node">
<title>Node15</title>
<g id="a_node15"><a xlink:href="untyped__map__handle_8h.html" target="_top" xlink:title=" ">
<polygon fill="white" stroke="black" points="645.5,-235.5 645.5,-265.5 761.5,-265.5 761.5,-235.5 645.5,-235.5"/>
<text text-anchor="start" x="653.5" y="-253.5" font-family="Helvetica,sans-Serif" font-size="10.00">ccf/kv/untyped_map</text>
<text text-anchor="middle" x="703.5" y="-242.5" font-family="Helvetica,sans-Serif" font-size="10.00">_handle.h</text>
</a>
</g>
</g>
<!-- Node14&#45;&gt;Node15 -->
<g id="edge14" class="edge">
<title>Node14&#45;&gt;Node15</title>
<path fill="none" stroke="midnightblue" d="M631.69,-307.73C643.34,-298.61 662,-284 677.37,-271.96"/>
<polygon fill="midnightblue" stroke="midnightblue" points="679.79,-274.51 685.51,-265.59 675.48,-269 679.79,-274.51"/>
</g>
<!-- Node15&#45;&gt;Node9 -->
<g id="edge27" class="edge">
<title>Node15&#45;&gt;Node9</title>
<path fill="none" stroke="midnightblue" d="M728.24,-235.4C747.71,-224.29 774.67,-208.92 793.85,-197.98"/>
<polygon fill="midnightblue" stroke="midnightblue" points="795.63,-201 802.58,-193.01 792.16,-194.92 795.63,-201"/>
</g>
<!-- Node15&#45;&gt;Node11 -->
<g id="edge24" class="edge">
<title>Node15&#45;&gt;Node11</title>
<path fill="none" stroke="midnightblue" d="M675.94,-235.4C654.05,-224.19 623.67,-208.64 602.26,-197.69"/>
<polygon fill="midnightblue" stroke="midnightblue" points="603.62,-194.45 593.12,-193.01 600.43,-200.68 603.62,-194.45"/>
</g>
<!-- Node15&#45;&gt;Node12 -->
<g id="edge25" class="edge">
<title>Node15&#45;&gt;Node12</title>
<path fill="none" stroke="midnightblue" d="M649.19,-235.48C612.64,-225.8 563.47,-212.33 520.5,-199 517.74,-198.14 514.88,-197.23 512.02,-196.28"/>
<polygon fill="midnightblue" stroke="midnightblue" points="513,-192.92 502.4,-193.04 510.76,-199.55 513,-192.92"/>
</g>
<!-- Node16 -->
<g id="node16" class="node">
<title>Node16</title>
<g id="a_node16"><a xlink:href="abstract__handle_8h.html" target="_top" xlink:title=" ">
<polygon fill="white" stroke="black" points="641.5,-174 641.5,-193 777.5,-193 777.5,-174 641.5,-174"/>
<text text-anchor="middle" x="709.5" y="-181" font-family="Helvetica,sans-Serif" font-size="10.00">ccf/kv/abstract_handle.h</text>
</a>
</g>
</g>
<!-- Node15&#45;&gt;Node16 -->
<g id="edge15" class="edge">
<title>Node15&#45;&gt;Node16</title>
<path fill="none" stroke="midnightblue" d="M704.8,-235.4C705.67,-225.96 706.83,-213.45 707.77,-203.19"/>
<polygon fill="midnightblue" stroke="midnightblue" points="711.26,-203.47 708.7,-193.19 704.29,-202.83 711.26,-203.47"/>
</g>
<!-- Node15&#45;&gt;Node17 -->
<g id="edge16" class="edge">
<title>Node15&#45;&gt;Node17</title>
<path fill="none" stroke="midnightblue" d="M645.34,-236.67C642.02,-236.07 638.72,-235.51 635.5,-235 484.63,-211.2 442.02,-224.24 287.06,-198.94"/>
<polygon fill="midnightblue" stroke="midnightblue" points="287.61,-195.48 277.17,-197.3 286.47,-202.39 287.61,-195.48"/>
</g>
<!-- Node25 -->
<g id="node25" class="node">
<title>Node25</title>
<g id="a_node25"><a xlink:title=" ">
<polygon fill="white" stroke="#bfbfbf" points="295.5,-174 295.5,-193 351.5,-193 351.5,-174 295.5,-174"/>
<text text-anchor="middle" x="323.5" y="-181" font-family="Helvetica,sans-Serif" font-size="10.00">optional</text>
</a>
</g>
</g>
<!-- Node15&#45;&gt;Node25 -->
<g id="edge26" class="edge">
<title>Node15&#45;&gt;Node25</title>
<path fill="none" stroke="midnightblue" d="M645.32,-236.77C642,-236.15 638.71,-235.55 635.5,-235 514.01,-214.13 479.88,-229.72 360.5,-199 357.84,-198.31 355.1,-197.49 352.39,-196.59"/>
<polygon fill="midnightblue" stroke="midnightblue" points="353.39,-193.23 342.79,-193.08 350.99,-199.8 353.39,-193.23"/>
</g>
<!-- Node18 -->
<g id="node18" class="node">
<title>Node18</title>
<g id="a_node18"><a xlink:href="byte__vector_8h.html" target="_top" xlink:title=" ">
<polygon fill="white" stroke="black" points="166.5,-112.5 166.5,-131.5 266.5,-131.5 266.5,-112.5 166.5,-112.5"/>
<text text-anchor="middle" x="216.5" y="-119.5" font-family="Helvetica,sans-Serif" font-size="10.00">ccf/byte_vector.h</text>
</a>
</g>
</g>
<!-- Node17&#45;&gt;Node18 -->
<g id="edge17" class="edge">
<title>Node17&#45;&gt;Node18</title>
<path fill="none" stroke="midnightblue" d="M222.6,-168.4C221.53,-160.38 220.16,-150.23 219,-141.57"/>
<polygon fill="midnightblue" stroke="midnightblue" points="222.47,-141.1 217.66,-131.66 215.53,-142.04 222.47,-141.1"/>
</g>
<!-- Node19 -->
<g id="node19" class="node">
<title>Node19</title>
<g id="a_node19"><a xlink:href="siphash_8h.html" target="_top" xlink:title=" ">
<polygon fill="white" stroke="black" points="14,-56.5 14,-75.5 109,-75.5 109,-56.5 14,-56.5"/>
<text text-anchor="middle" x="61.5" y="-63.5" font-family="Helvetica,sans-Serif" font-size="10.00">ccf/ds/siphash.h</text>
</a>
</g>
</g>
<!-- Node18&#45;&gt;Node19 -->
<g id="edge18" class="edge">
<title>Node18&#45;&gt;Node19</title>
<path fill="none" stroke="midnightblue" d="M191.94,-112.44C165.98,-103.4 124.83,-89.06 95.7,-78.92"/>
<polygon fill="midnightblue" stroke="midnightblue" points="96.54,-75.5 85.95,-75.52 94.24,-82.11 96.54,-75.5"/>
</g>
<!-- Node23 -->
<g id="node23" class="node">
<title>Node23</title>
<g id="a_node23"><a xlink:title=" ">
<polygon fill="white" stroke="#bfbfbf" points="172,-56.5 172,-75.5 251,-75.5 251,-56.5 172,-56.5"/>
<text text-anchor="middle" x="211.5" y="-63.5" font-family="Helvetica,sans-Serif" font-size="10.00">fmt/format.h</text>
</a>
</g>
</g>
<!-- Node18&#45;&gt;Node23 -->
<g id="edge22" class="edge">
<title>Node18&#45;&gt;Node23</title>
<path fill="none" stroke="midnightblue" d="M215.67,-112.08C215.02,-105.01 214.08,-94.86 213.26,-85.99"/>
<polygon fill="midnightblue" stroke="midnightblue" points="216.72,-85.39 212.31,-75.75 209.75,-86.03 216.72,-85.39"/>
</g>
<!-- Node24 -->
<g id="node24" class="node">
<title>Node24</title>
<g id="a_node24"><a xlink:title=" ">
<polygon fill="white" stroke="#bfbfbf" points="269,-56.5 269,-75.5 418,-75.5 418,-56.5 269,-56.5"/>
<text text-anchor="middle" x="343.5" y="-63.5" font-family="Helvetica,sans-Serif" font-size="10.00">small_vector/SmallVector.h</text>
</a>
</g>
</g>
<!-- Node18&#45;&gt;Node24 -->
<g id="edge23" class="edge">
<title>Node18&#45;&gt;Node24</title>
<path fill="none" stroke="midnightblue" d="M236.62,-112.44C257.52,-103.56 290.43,-89.56 314.22,-79.45"/>
<polygon fill="midnightblue" stroke="midnightblue" points="315.64,-82.65 323.47,-75.52 312.9,-76.21 315.64,-82.65"/>
</g>
<!-- Node20 -->
<g id="node20" class="node">
<title>Node20</title>
<g id="a_node20"><a xlink:title=" ">
<polygon fill="white" stroke="#bfbfbf" points="0,-0.5 0,-19.5 53,-19.5 53,-0.5 0,-0.5"/>
<text text-anchor="middle" x="26.5" y="-7.5" font-family="Helvetica,sans-Serif" font-size="10.00">cstddef</text>
</a>
</g>
</g>
<!-- Node19&#45;&gt;Node20 -->
<g id="edge19" class="edge">
<title>Node19&#45;&gt;Node20</title>
<path fill="none" stroke="midnightblue" d="M55.72,-56.08C50.83,-48.53 43.67,-37.49 37.67,-28.23"/>
<polygon fill="midnightblue" stroke="midnightblue" points="40.55,-26.24 32.17,-19.75 34.67,-30.05 40.55,-26.24"/>
</g>
<!-- Node21 -->
<g id="node21" class="node">
<title>Node21</title>
<g id="a_node21"><a xlink:title=" ">
<polygon fill="white" stroke="#bfbfbf" points="71.5,-0.5 71.5,-19.5 121.5,-19.5 121.5,-0.5 71.5,-0.5"/>
<text text-anchor="middle" x="96.5" y="-7.5" font-family="Helvetica,sans-Serif" font-size="10.00">cstdint</text>
</a>
</g>
</g>
<!-- Node19&#45;&gt;Node21 -->
<g id="edge20" class="edge">
<title>Node19&#45;&gt;Node21</title>
<path fill="none" stroke="midnightblue" d="M67.28,-56.08C72.17,-48.53 79.33,-37.49 85.33,-28.23"/>
<polygon fill="midnightblue" stroke="midnightblue" points="88.33,-30.05 90.83,-19.75 82.45,-26.24 88.33,-30.05"/>
</g>
<!-- Node19&#45;&gt;Node22 -->
<g id="edge21" class="edge">
<title>Node19&#45;&gt;Node22</title>
<path fill="none" stroke="midnightblue" d="M109.17,-57.57C114,-56.97 118.84,-56.43 123.5,-56 555.89,-16.13 1084.39,-11.56 1221.65,-11.06"/>
<polygon fill="midnightblue" stroke="midnightblue" points="1221.95,-14.56 1231.94,-11.02 1221.92,-7.56 1221.95,-14.56"/>
</g>
<!-- Node26&#45;&gt;Node17 -->
<g id="edge37" class="edge">
<title>Node26&#45;&gt;Node17</title>
<path fill="none" stroke="midnightblue" d="M697.94,-304.26C694.75,-303.49 691.58,-302.73 688.5,-302 618.42,-285.4 599.18,-287.67 530.5,-266 495.71,-255.02 489.36,-245.75 454.5,-235 384.52,-213.42 362.79,-215.48 287.25,-199.11"/>
<polygon fill="midnightblue" stroke="midnightblue" points="287.77,-195.64 277.25,-196.91 286.26,-202.48 287.77,-195.64"/>
</g>
<!-- Node27 -->
<g id="node27" class="node">
<title>Node27</title>
<g id="a_node27"><a xlink:href="nonstd_8h.html" target="_top" xlink:title=" ">
<polygon fill="white" stroke="black" points="961.5,-241 961.5,-260 1051.5,-260 1051.5,-241 961.5,-241"/>
<text text-anchor="middle" x="1006.5" y="-248" font-family="Helvetica,sans-Serif" font-size="10.00">ccf/ds/nonstd.h</text>
</a>
</g>
</g>
<!-- Node26&#45;&gt;Node27 -->
<g id="edge29" class="edge">
<title>Node26&#45;&gt;Node27</title>
<path fill="none" stroke="midnightblue" d="M797.13,-304.04C844.93,-292.05 916.53,-274.08 962.38,-262.57"/>
<polygon fill="midnightblue" stroke="midnightblue" points="963.48,-265.91 972.32,-260.08 961.77,-259.12 963.48,-265.91"/>
</g>
<!-- Node27&#45;&gt;Node9 -->
<g id="edge33" class="edge">
<title>Node27&#45;&gt;Node9</title>
<path fill="none" stroke="midnightblue" d="M975.81,-240.96C943.67,-231.72 891.94,-216.02 848.5,-199 847.08,-198.44 845.64,-197.86 844.19,-197.24"/>
<polygon fill="midnightblue" stroke="midnightblue" points="845.27,-193.89 834.71,-193.03 842.42,-200.29 845.27,-193.89"/>
</g>
<!-- Node27&#45;&gt;Node22 -->
<g id="edge36" class="edge">
<title>Node27&#45;&gt;Node22</title>
<path fill="none" stroke="midnightblue" d="M1051.56,-245.78C1111.41,-239.85 1212.4,-226.05 1236.5,-199 1279.02,-151.27 1267.82,-67.29 1260.04,-29.89"/>
<polygon fill="midnightblue" stroke="midnightblue" points="1263.4,-28.86 1257.8,-19.87 1256.57,-30.39 1263.4,-28.86"/>
</g>
<!-- Node28 -->
<g id="node28" class="node">
<title>Node28</title>
<g id="a_node28"><a xlink:title=" ">
<polygon fill="white" stroke="#bfbfbf" points="1103.5,-174 1103.5,-193 1167.5,-193 1167.5,-174 1103.5,-174"/>
<text text-anchor="middle" x="1135.5" y="-181" font-family="Helvetica,sans-Serif" font-size="10.00">algorithm</text>
</a>
</g>
</g>
<!-- Node27&#45;&gt;Node28 -->
<g id="edge30" class="edge">
<title>Node27&#45;&gt;Node28</title>
<path fill="none" stroke="midnightblue" d="M1023.63,-240.87C1045.51,-229.84 1083.59,-210.66 1109.17,-197.77"/>
<polygon fill="midnightblue" stroke="midnightblue" points="1110.94,-200.79 1118.3,-193.17 1107.79,-194.54 1110.94,-200.79"/>
</g>
<!-- Node29 -->
<g id="node29" class="node">
<title>Node29</title>
<g id="a_node29"><a xlink:title=" ">
<polygon fill="white" stroke="#bfbfbf" points="1185.5,-174 1185.5,-193 1227.5,-193 1227.5,-174 1185.5,-174"/>
<text text-anchor="middle" x="1206.5" y="-181" font-family="Helvetica,sans-Serif" font-size="10.00">array</text>
</a>
</g>
</g>
<!-- Node27&#45;&gt;Node29 -->
<g id="edge31" class="edge">
<title>Node27&#45;&gt;Node29</title>
<path fill="none" stroke="midnightblue" d="M1041.24,-240.94C1075.98,-231.97 1130.71,-216.73 1176.5,-199 1177.88,-198.46 1179.29,-197.89 1180.7,-197.29"/>
<polygon fill="midnightblue" stroke="midnightblue" points="1182.24,-200.44 1189.89,-193.12 1179.34,-194.07 1182.24,-200.44"/>
</g>
<!-- Node30 -->
<g id="node30" class="node">
<title>Node30</title>
<g id="a_node30"><a xlink:title=" ">
<polygon fill="white" stroke="#bfbfbf" points="858,-174 858,-193 907,-193 907,-174 858,-174"/>
<text text-anchor="middle" x="882.5" y="-181" font-family="Helvetica,sans-Serif" font-size="10.00">cctype</text>
</a>
</g>
</g>
<!-- Node27&#45;&gt;Node30 -->
<g id="edge32" class="edge">
<title>Node27&#45;&gt;Node30</title>
<path fill="none" stroke="midnightblue" d="M990.03,-240.87C969.1,-229.89 932.72,-210.82 908.14,-197.94"/>
<polygon fill="midnightblue" stroke="midnightblue" points="909.52,-194.71 899.03,-193.17 906.27,-200.91 909.52,-194.71"/>
</g>
<!-- Node31 -->
<g id="node31" class="node">
<title>Node31</title>
<g id="a_node31"><a xlink:title=" ">
<polygon fill="white" stroke="#bfbfbf" points="925,-174 925,-193 998,-193 998,-174 925,-174"/>
<text text-anchor="middle" x="961.5" y="-181" font-family="Helvetica,sans-Serif" font-size="10.00">string_view</text>
</a>
</g>
</g>
<!-- Node27&#45;&gt;Node31 -->
<g id="edge34" class="edge">
<title>Node27&#45;&gt;Node31</title>
<path fill="none" stroke="midnightblue" d="M1000.43,-240.73C993.48,-230.7 981.93,-214.01 973.21,-201.42"/>
<polygon fill="midnightblue" stroke="midnightblue" points="976.04,-199.36 967.47,-193.13 970.29,-203.34 976.04,-199.36"/>
</g>
<!-- Node32 -->
<g id="node32" class="node">
<title>Node32</title>
<g id="a_node32"><a xlink:title=" ">
<polygon fill="white" stroke="#bfbfbf" points="1016,-174 1016,-193 1085,-193 1085,-174 1016,-174"/>
<text text-anchor="middle" x="1050.5" y="-181" font-family="Helvetica,sans-Serif" font-size="10.00">type_traits</text>
</a>
</g>
</g>
<!-- Node27&#45;&gt;Node32 -->
<g id="edge35" class="edge">
<title>Node27&#45;&gt;Node32</title>
<path fill="none" stroke="midnightblue" d="M1012.43,-240.73C1019.23,-230.7 1030.52,-214.01 1039.05,-201.42"/>
<polygon fill="midnightblue" stroke="midnightblue" points="1041.95,-203.37 1044.66,-193.13 1036.16,-199.45 1041.95,-203.37"/>
</g>
<!-- Node33&#45;&gt;Node17 -->
<g id="edge39" class="edge">
<title>Node33&#45;&gt;Node17</title>
<path fill="none" stroke="midnightblue" d="M340.07,-302.33C340.05,-284.78 337.55,-254.79 322.5,-235 311.8,-220.93 296.06,-210.44 280.31,-202.77"/>
<polygon fill="midnightblue" stroke="midnightblue" points="281.63,-199.53 271.08,-198.58 278.74,-205.9 281.63,-199.53"/>
</g>
<!-- Node33&#45;&gt;Node34 -->
<g id="edge40" class="edge">
<title>Node33&#45;&gt;Node34</title>
<path fill="none" stroke="midnightblue" d="M321.92,-302.4C308.79,-291.86 290.87,-277.48 277.43,-266.69"/>
<polygon fill="midnightblue" stroke="midnightblue" points="279.32,-263.72 269.33,-260.19 274.94,-269.18 279.32,-263.72"/>
</g>
<!-- Node35&#45;&gt;Node10 -->
<g id="edge42" class="edge">
<title>Node35&#45;&gt;Node10</title>
<path fill="none" stroke="midnightblue" d="M473.36,-307.87C494.9,-296.84 532.4,-277.66 557.58,-264.77"/>
<polygon fill="midnightblue" stroke="midnightblue" points="559.26,-267.84 566.57,-260.17 556.07,-261.61 559.26,-267.84"/>
</g>
<!-- Node35&#45;&gt;Node17 -->
<g id="edge43" class="edge">
<title>Node35&#45;&gt;Node17</title>
<path fill="none" stroke="midnightblue" d="M446.13,-307.79C426.84,-291.88 383.75,-257.68 343.5,-235 321.19,-222.43 295.12,-211.03 273.08,-202.26"/>
<polygon fill="midnightblue" stroke="midnightblue" points="274.18,-198.93 263.59,-198.54 271.62,-205.45 274.18,-198.93"/>
</g>
<!-- Node35&#45;&gt;Node25 -->
<g id="edge45" class="edge">
<title>Node35&#45;&gt;Node25</title>
<path fill="none" stroke="midnightblue" d="M459.13,-307.93C463.46,-291.94 470.17,-257.2 454.5,-235 428.7,-198.45 402.22,-215.16 360.5,-199 358.67,-198.29 356.78,-197.56 354.88,-196.82"/>
<polygon fill="midnightblue" stroke="midnightblue" points="355.99,-193.49 345.4,-193.12 353.44,-200.01 355.99,-193.49"/>
</g>
<!-- Node36 -->
<g id="node36" class="node">
<title>Node36</title>
<g id="a_node36"><a xlink:title=" ">
<polygon fill="white" stroke="#bfbfbf" points="407.5,-241 407.5,-260 445.5,-260 445.5,-241 407.5,-241"/>
<text text-anchor="middle" x="426.5" y="-248" font-family="Helvetica,sans-Serif" font-size="10.00">map</text>
</a>
</g>
</g>
<!-- Node35&#45;&gt;Node36 -->
<g id="edge44" class="edge">
<title>Node35&#45;&gt;Node36</title>
<path fill="none" stroke="midnightblue" d="M452.45,-307.73C447.96,-297.99 440.57,-281.98 434.82,-269.53"/>
<polygon fill="midnightblue" stroke="midnightblue" points="437.85,-267.74 430.48,-260.13 431.49,-270.67 437.85,-267.74"/>
</g>
</g>
</svg>
