<?xml version="1.0" encoding="UTF-8" standalone="no"?>
<!DOCTYPE svg PUBLIC "-//W3C//DTD SVG 1.1//EN"
 "http://www.w3.org/Graphics/SVG/1.1/DTD/svg11.dtd">
<!-- Generated by graphviz version 2.43.0 (0)
 -->
<!-- Title: src/apps/tpcc/app/tpcc_common.h Pages: 1 -->
<svg width="276pt" height="162pt"
 viewBox="0.00 0.00 276.00 162.00" xmlns="http://www.w3.org/2000/svg" xmlns:xlink="http://www.w3.org/1999/xlink">
<g id="graph0" class="graph" transform="scale(1 1) rotate(0) translate(4 158)">
<title>src/apps/tpcc/app/tpcc_common.h</title>
<polygon fill="white" stroke="transparent" points="-4,4 -4,-158 272,-158 272,4 -4,4"/>
<!-- Node1 -->
<g id="node1" class="node">
<title>Node1</title>
<g id="a_node1"><a xlink:title=" ">
<polygon fill="#bfbfbf" stroke="black" points="71,-123.5 71,-153.5 196,-153.5 196,-123.5 71,-123.5"/>
<text text-anchor="start" x="79" y="-141.5" font-family="Helvetica,sans-Serif" font-size="10.00">src/apps/tpcc/app/tpcc</text>
<text text-anchor="middle" x="133.5" y="-130.5" font-family="Helvetica,sans-Serif" font-size="10.00">_common.h</text>
</a>
</g>
</g>
<!-- Node2 -->
<g id="node2" class="node">
<title>Node2</title>
<g id="a_node2"><a xlink:href="tpcc__setup_8h.html" target="_top" xlink:title=" ">
<polygon fill="white" stroke="black" points="0,-56.5 0,-86.5 125,-86.5 125,-56.5 0,-56.5"/>
<text text-anchor="start" x="8" y="-74.5" font-family="Helvetica,sans-Serif" font-size="10.00">src/apps/tpcc/app/tpcc</text>
<text text-anchor="middle" x="62.5" y="-63.5" font-family="Helvetica,sans-Serif" font-size="10.00">_setup.h</text>
</a>
</g>
</g>
<!-- Node1&#45;&gt;Node2 -->
<g id="edge1" class="edge">
<title>Node1&#45;&gt;Node2</title>
<path fill="none" stroke="midnightblue" d="M110.67,-116.6C99.95,-106.78 87.45,-95.34 77.88,-86.58"/>
<polygon fill="midnightblue" stroke="midnightblue" points="108.35,-119.22 118.09,-123.4 113.08,-114.06 108.35,-119.22"/>
</g>
<!-- Node4 -->
<g id="node4" class="node">
<title>Node4</title>
<g id="a_node4"><a xlink:href="tpcc__transactions_8h.html" target="_top" xlink:title=" ">
<polygon fill="white" stroke="black" points="143,-56.5 143,-86.5 268,-86.5 268,-56.5 143,-56.5"/>
<text text-anchor="start" x="151" y="-74.5" font-family="Helvetica,sans-Serif" font-size="10.00">src/apps/tpcc/app/tpcc</text>
<text text-anchor="middle" x="205.5" y="-63.5" font-family="Helvetica,sans-Serif" font-size="10.00">_transactions.h</text>
</a>
</g>
</g>
<!-- Node1&#45;&gt;Node4 -->
<g id="edge3" class="edge">
<title>Node1&#45;&gt;Node4</title>
<path fill="none" stroke="midnightblue" d="M156.65,-116.6C167.52,-106.78 180.2,-95.34 189.91,-86.58"/>
<polygon fill="midnightblue" stroke="midnightblue" points="154.2,-114.1 149.12,-123.4 158.89,-119.29 154.2,-114.1"/>
</g>
<!-- Node3 -->
<g id="node3" class="node">
<title>Node3</title>
<g id="a_node3"><a xlink:href="tpcc_8cpp.html" target="_top" xlink:title=" ">
<polygon fill="white" stroke="black" points="61,-0.5 61,-19.5 206,-19.5 206,-0.5 61,-0.5"/>
<text text-anchor="middle" x="133.5" y="-7.5" font-family="Helvetica,sans-Serif" font-size="10.00">src/apps/tpcc/app/tpcc.cpp</text>
</a>
</g>
</g>
<!-- Node2&#45;&gt;Node3 -->
<g id="edge2" class="edge">
<title>Node2&#45;&gt;Node3</title>
<path fill="none" stroke="midnightblue" d="M87.09,-49.89C99.44,-39.54 113.74,-27.56 123.17,-19.66"/>
<polygon fill="midnightblue" stroke="midnightblue" points="84.74,-47.29 79.33,-56.4 89.24,-52.66 84.74,-47.29"/>
</g>
<!-- Node4&#45;&gt;Node3 -->
<g id="edge4" class="edge">
<title>Node4&#45;&gt;Node3</title>
<path fill="none" stroke="midnightblue" d="M180.56,-49.89C168.04,-39.54 153.54,-27.56 143.98,-19.66"/>
<polygon fill="midnightblue" stroke="midnightblue" points="178.5,-52.73 188.44,-56.4 182.96,-47.33 178.5,-52.73"/>
</g>
</g>
</svg>
