<?xml version="1.0" encoding="UTF-8" standalone="no"?>
<!DOCTYPE svg PUBLIC "-//W3C//DTD SVG 1.1//EN"
 "http://www.w3.org/Graphics/SVG/1.1/DTD/svg11.dtd">
<!-- Generated by graphviz version 2.43.0 (0)
 -->
<!-- Title: src/apps/tpcc/app/tpcc_setup.h Pages: 1 -->
<svg width="1143pt" height="576pt"
 viewBox="0.00 0.00 1142.96 576.00" xmlns="http://www.w3.org/2000/svg" xmlns:xlink="http://www.w3.org/1999/xlink">
<g id="graph0" class="graph" transform="scale(1 1) rotate(0) translate(4 572)">
<title>src/apps/tpcc/app/tpcc_setup.h</title>
<polygon fill="white" stroke="transparent" points="-4,4 -4,-572 1138.96,-572 1138.96,4 -4,4"/>
<!-- Node1 -->
<g id="node1" class="node">
<title>Node1</title>
<g id="a_node1"><a xlink:title=" ">
<polygon fill="#bfbfbf" stroke="black" points="571.96,-537.5 571.96,-567.5 696.96,-567.5 696.96,-537.5 571.96,-537.5"/>
<text text-anchor="start" x="579.96" y="-555.5" font-family="Helvetica,sans-Serif" font-size="10.00">src/apps/tpcc/app/tpcc</text>
<text text-anchor="middle" x="634.46" y="-544.5" font-family="Helvetica,sans-Serif" font-size="10.00">_setup.h</text>
</a>
</g>
</g>
<!-- Node2 -->
<g id="node2" class="node">
<title>Node2</title>
<g id="a_node2"><a xlink:href="tpcc__common_8h.html" target="_top" xlink:title=" ">
<polygon fill="white" stroke="black" points="296.46,-481.5 296.46,-500.5 390.46,-500.5 390.46,-481.5 296.46,-481.5"/>
<text text-anchor="middle" x="343.46" y="-488.5" font-family="Helvetica,sans-Serif" font-size="10.00">tpcc_common.h</text>
</a>
</g>
</g>
<!-- Node1&#45;&gt;Node2 -->
<g id="edge1" class="edge">
<title>Node1&#45;&gt;Node2</title>
<path fill="none" stroke="midnightblue" d="M571.67,-538.66C518.84,-527.86 444.21,-512.6 394.87,-502.51"/>
<polygon fill="midnightblue" stroke="midnightblue" points="395.54,-499.08 385.05,-500.5 394.14,-505.94 395.54,-499.08"/>
</g>
<!-- Node4 -->
<g id="node4" class="node">
<title>Node4</title>
<g id="a_node4"><a xlink:href="tpcc__tables_8h.html" target="_top" xlink:title=" ">
<polygon fill="white" stroke="black" points="524.96,-481.5 524.96,-500.5 605.96,-500.5 605.96,-481.5 524.96,-481.5"/>
<text text-anchor="middle" x="565.46" y="-488.5" font-family="Helvetica,sans-Serif" font-size="10.00">tpcc_tables.h</text>
</a>
</g>
</g>
<!-- Node1&#45;&gt;Node4 -->
<g id="edge3" class="edge">
<title>Node1&#45;&gt;Node4</title>
<path fill="none" stroke="midnightblue" d="M618.1,-537.4C607.56,-528.31 593.86,-516.49 583.07,-507.19"/>
<polygon fill="midnightblue" stroke="midnightblue" points="585.35,-504.54 575.5,-500.66 580.78,-509.84 585.35,-504.54"/>
</g>
<!-- Node38 -->
<g id="node38" class="node">
<title>Node38</title>
<g id="a_node38"><a xlink:title=" ">
<polygon fill="white" stroke="#bfbfbf" points="1081.96,-425.5 1081.96,-444.5 1134.96,-444.5 1134.96,-425.5 1081.96,-425.5"/>
<text text-anchor="middle" x="1108.46" y="-432.5" font-family="Helvetica,sans-Serif" font-size="10.00">stdint.h</text>
</a>
</g>
</g>
<!-- Node1&#45;&gt;Node38 -->
<g id="edge56" class="edge">
<title>Node1&#45;&gt;Node38</title>
<path fill="none" stroke="midnightblue" d="M633.86,-537.37C634.01,-521.07 637.03,-494.75 653.46,-481 724.26,-421.71 976.16,-458.93 1067.46,-445 1068.75,-444.8 1070.07,-444.59 1071.4,-444.36"/>
<polygon fill="midnightblue" stroke="midnightblue" points="1072.47,-447.72 1081.64,-442.41 1071.16,-440.84 1072.47,-447.72"/>
</g>
<!-- Node41 -->
<g id="node41" class="node">
<title>Node41</title>
<g id="a_node41"><a xlink:title=" ">
<polygon fill="white" stroke="#bfbfbf" points="662.96,-481.5 662.96,-500.5 727.96,-500.5 727.96,-481.5 662.96,-481.5"/>
<text text-anchor="middle" x="695.46" y="-488.5" font-family="Helvetica,sans-Serif" font-size="10.00">exception</text>
</a>
</g>
</g>
<!-- Node1&#45;&gt;Node41 -->
<g id="edge54" class="edge">
<title>Node1&#45;&gt;Node41</title>
<path fill="none" stroke="midnightblue" d="M648.91,-537.4C658.05,-528.49 669.87,-516.95 679.32,-507.74"/>
<polygon fill="midnightblue" stroke="midnightblue" points="681.86,-510.15 686.58,-500.66 676.98,-505.13 681.86,-510.15"/>
</g>
<!-- Node42 -->
<g id="node42" class="node">
<title>Node42</title>
<g id="a_node42"><a xlink:title=" ">
<polygon fill="white" stroke="#bfbfbf" points="746.46,-481.5 746.46,-500.5 778.46,-500.5 778.46,-481.5 746.46,-481.5"/>
<text text-anchor="middle" x="762.46" y="-488.5" font-family="Helvetica,sans-Serif" font-size="10.00">set</text>
</a>
</g>
</g>
<!-- Node1&#45;&gt;Node42 -->
<g id="edge55" class="edge">
<title>Node1&#45;&gt;Node42</title>
<path fill="none" stroke="midnightblue" d="M664.79,-537.4C686.87,-527.13 716.43,-513.4 737.22,-503.73"/>
<polygon fill="midnightblue" stroke="midnightblue" points="738.79,-506.86 746.38,-499.47 735.84,-500.51 738.79,-506.86"/>
</g>
<!-- Node3 -->
<g id="node3" class="node">
<title>Node3</title>
<g id="a_node3"><a xlink:title=" ">
<polygon fill="white" stroke="#bfbfbf" points="180.46,-425.5 180.46,-444.5 234.46,-444.5 234.46,-425.5 180.46,-425.5"/>
<text text-anchor="middle" x="207.46" y="-432.5" font-family="Helvetica,sans-Serif" font-size="10.00">random</text>
</a>
</g>
</g>
<!-- Node2&#45;&gt;Node3 -->
<g id="edge2" class="edge">
<title>Node2&#45;&gt;Node3</title>
<path fill="none" stroke="midnightblue" d="M321.91,-481.44C299.42,-472.52 263.97,-458.44 238.48,-448.32"/>
<polygon fill="midnightblue" stroke="midnightblue" points="239.49,-444.95 228.9,-444.52 236.91,-451.46 239.49,-444.95"/>
</g>
<!-- Node5 -->
<g id="node5" class="node">
<title>Node5</title>
<g id="a_node5"><a xlink:href="serialise__msgpack_8h.html" target="_top" xlink:title=" ">
<polygon fill="white" stroke="black" points="631.46,-425.5 631.46,-444.5 747.46,-444.5 747.46,-425.5 631.46,-425.5"/>
<text text-anchor="middle" x="689.46" y="-432.5" font-family="Helvetica,sans-Serif" font-size="10.00">serialise_msgpack.h</text>
</a>
</g>
</g>
<!-- Node4&#45;&gt;Node5 -->
<g id="edge4" class="edge">
<title>Node4&#45;&gt;Node5</title>
<path fill="none" stroke="midnightblue" d="M585.1,-481.44C605.42,-472.6 637.36,-458.69 660.55,-448.59"/>
<polygon fill="midnightblue" stroke="midnightblue" points="662.13,-451.72 669.9,-444.52 659.33,-445.3 662.13,-451.72"/>
</g>
<!-- Node21 -->
<g id="node21" class="node">
<title>Node21</title>
<g id="a_node21"><a xlink:title=" ">
<polygon fill="white" stroke="#bfbfbf" points="398.96,-0.5 398.96,-19.5 445.96,-19.5 445.96,-0.5 398.96,-0.5"/>
<text text-anchor="middle" x="422.46" y="-7.5" font-family="Helvetica,sans-Serif" font-size="10.00">vector</text>
</a>
</g>
</g>
<!-- Node4&#45;&gt;Node21 -->
<g id="edge53" class="edge">
<title>Node4&#45;&gt;Node21</title>
<path fill="none" stroke="midnightblue" d="M562.39,-481.27C557.18,-467.59 545.4,-441.02 527.46,-425 341.89,-259.36 151.26,-407.39 15.46,-199 -76.25,-58.29 275.83,-21.22 388.7,-13.04"/>
<polygon fill="midnightblue" stroke="midnightblue" points="389.12,-16.52 398.85,-12.34 388.63,-9.54 389.12,-16.52"/>
</g>
<!-- Node33 -->
<g id="node33" class="node">
<title>Node33</title>
<g id="a_node33"><a xlink:title=" ">
<polygon fill="white" stroke="#bfbfbf" points="998.46,-241 998.46,-260 1108.46,-260 1108.46,-241 998.46,-241"/>
<text text-anchor="middle" x="1053.46" y="-248" font-family="Helvetica,sans-Serif" font-size="10.00">nlohmann/json.hpp</text>
</a>
</g>
</g>
<!-- Node4&#45;&gt;Node33 -->
<g id="edge49" class="edge">
<title>Node4&#45;&gt;Node33</title>
<path fill="none" stroke="midnightblue" d="M606.04,-481.58C708.01,-459.62 971,-397.81 1029.46,-333 1045.09,-315.67 1050.57,-288.62 1052.47,-270.49"/>
<polygon fill="midnightblue" stroke="midnightblue" points="1055.98,-270.53 1053.26,-260.29 1049,-269.99 1055.98,-270.53"/>
</g>
<!-- Node36 -->
<g id="node36" class="node">
<title>Node36</title>
<g id="a_node36"><a xlink:title=" ">
<polygon fill="white" stroke="#bfbfbf" points="519.96,-369.5 519.96,-388.5 648.96,-388.5 648.96,-369.5 519.96,-369.5"/>
<text text-anchor="middle" x="584.46" y="-376.5" font-family="Helvetica,sans-Serif" font-size="10.00">msgpack/msgpack.hpp</text>
</a>
</g>
</g>
<!-- Node4&#45;&gt;Node36 -->
<g id="edge48" class="edge">
<title>Node4&#45;&gt;Node36</title>
<path fill="none" stroke="midnightblue" d="M566.95,-481.37C570.01,-463.62 577.09,-422.67 581.24,-398.6"/>
<polygon fill="midnightblue" stroke="midnightblue" points="584.72,-399.04 582.97,-388.59 577.82,-397.85 584.72,-399.04"/>
</g>
<!-- Node37 -->
<g id="node37" class="node">
<title>Node37</title>
<g id="a_node37"><a xlink:title=" ">
<polygon fill="white" stroke="#bfbfbf" points="252.46,-425.5 252.46,-444.5 302.46,-444.5 302.46,-425.5 252.46,-425.5"/>
<text text-anchor="middle" x="277.46" y="-432.5" font-family="Helvetica,sans-Serif" font-size="10.00">cstring</text>
</a>
</g>
</g>
<!-- Node4&#45;&gt;Node37 -->
<g id="edge47" class="edge">
<title>Node4&#45;&gt;Node37</title>
<path fill="none" stroke="midnightblue" d="M524.78,-483.87C476.41,-476.34 393.07,-462.62 312.46,-445.08"/>
<polygon fill="midnightblue" stroke="midnightblue" points="313.17,-441.65 302.65,-442.92 311.66,-448.49 313.17,-441.65"/>
</g>
<!-- Node4&#45;&gt;Node38 -->
<g id="edge50" class="edge">
<title>Node4&#45;&gt;Node38</title>
<path fill="none" stroke="midnightblue" d="M606.25,-482.94C611.03,-482.23 615.85,-481.56 620.46,-481 818.3,-456.89 870.33,-474.43 1067.46,-445 1068.75,-444.81 1070.07,-444.6 1071.4,-444.37"/>
<polygon fill="midnightblue" stroke="midnightblue" points="1072.47,-447.73 1081.65,-442.43 1071.17,-440.85 1072.47,-447.73"/>
</g>
<!-- Node39 -->
<g id="node39" class="node">
<title>Node39</title>
<g id="a_node39"><a xlink:title=" ">
<polygon fill="white" stroke="#bfbfbf" points="320.96,-425.5 320.96,-444.5 413.96,-444.5 413.96,-425.5 320.96,-425.5"/>
<text text-anchor="middle" x="367.46" y="-432.5" font-family="Helvetica,sans-Serif" font-size="10.00">unordered_map</text>
</a>
</g>
</g>
<!-- Node4&#45;&gt;Node39 -->
<g id="edge51" class="edge">
<title>Node4&#45;&gt;Node39</title>
<path fill="none" stroke="midnightblue" d="M534.08,-481.44C500.19,-472.2 446.05,-457.44 408.73,-447.26"/>
<polygon fill="midnightblue" stroke="midnightblue" points="409.25,-443.77 398.68,-444.52 407.41,-450.52 409.25,-443.77"/>
</g>
<!-- Node40 -->
<g id="node40" class="node">
<title>Node40</title>
<g id="a_node40"><a xlink:title=" ">
<polygon fill="white" stroke="#bfbfbf" points="432.46,-425.5 432.46,-444.5 518.46,-444.5 518.46,-425.5 432.46,-425.5"/>
<text text-anchor="middle" x="475.46" y="-432.5" font-family="Helvetica,sans-Serif" font-size="10.00">unordered_set</text>
</a>
</g>
</g>
<!-- Node4&#45;&gt;Node40 -->
<g id="edge52" class="edge">
<title>Node4&#45;&gt;Node40</title>
<path fill="none" stroke="midnightblue" d="M551,-481.32C536.96,-472.9 515.41,-459.97 498.91,-450.07"/>
<polygon fill="midnightblue" stroke="midnightblue" points="500.26,-446.8 489.88,-444.65 496.65,-452.8 500.26,-446.8"/>
</g>
<!-- Node6 -->
<g id="node6" class="node">
<title>Node6</title>
<g id="a_node6"><a xlink:href="kv_2map_8h.html" target="_top" xlink:title=" ">
<polygon fill="white" stroke="black" points="667.46,-369.5 667.46,-388.5 747.46,-388.5 747.46,-369.5 667.46,-369.5"/>
<text text-anchor="middle" x="707.46" y="-376.5" font-family="Helvetica,sans-Serif" font-size="10.00">ccf/kv/map.h</text>
</a>
</g>
</g>
<!-- Node5&#45;&gt;Node6 -->
<g id="edge5" class="edge">
<title>Node5&#45;&gt;Node6</title>
<path fill="none" stroke="midnightblue" d="M692.43,-425.08C694.84,-417.85 698.32,-407.41 701.32,-398.4"/>
<polygon fill="midnightblue" stroke="midnightblue" points="704.7,-399.34 704.54,-388.75 698.06,-397.13 704.7,-399.34"/>
</g>
<!-- Node16 -->
<g id="node16" class="node">
<title>Node16</title>
<g id="a_node16"><a xlink:href="serialised__entry_8h.html" target="_top" xlink:title=" ">
<polygon fill="white" stroke="black" points="1012.96,-168.5 1012.96,-198.5 1117.96,-198.5 1117.96,-168.5 1012.96,-168.5"/>
<text text-anchor="start" x="1020.96" y="-186.5" font-family="Helvetica,sans-Serif" font-size="10.00">ccf/kv/serialisers</text>
<text text-anchor="middle" x="1065.46" y="-175.5" font-family="Helvetica,sans-Serif" font-size="10.00">/serialised_entry.h</text>
</a>
</g>
</g>
<!-- Node5&#45;&gt;Node16 -->
<g id="edge45" class="edge">
<title>Node5&#45;&gt;Node16</title>
<path fill="none" stroke="midnightblue" d="M737.41,-425.46C805.17,-412.15 931.58,-382.68 1029.46,-333 1073.29,-310.75 1095.63,-310.05 1117.46,-266 1123.57,-253.65 1122.82,-247.69 1117.46,-235 1112.6,-223.52 1103.73,-213.37 1094.67,-205.24"/>
<polygon fill="midnightblue" stroke="midnightblue" points="1096.67,-202.35 1086.75,-198.62 1092.18,-207.72 1096.67,-202.35"/>
</g>
<!-- Node5&#45;&gt;Node36 -->
<g id="edge46" class="edge">
<title>Node5&#45;&gt;Node36</title>
<path fill="none" stroke="midnightblue" d="M672.59,-425.32C655.75,-416.66 629.65,-403.24 610.22,-393.25"/>
<polygon fill="midnightblue" stroke="midnightblue" points="611.78,-390.12 601.28,-388.65 608.58,-396.34 611.78,-390.12"/>
</g>
<!-- Node7 -->
<g id="node7" class="node">
<title>Node7</title>
<g id="a_node7"><a xlink:href="get__name_8h.html" target="_top" xlink:title=" ">
<polygon fill="white" stroke="black" points="478.96,-308 478.96,-327 585.96,-327 585.96,-308 478.96,-308"/>
<text text-anchor="middle" x="532.46" y="-315" font-family="Helvetica,sans-Serif" font-size="10.00">ccf/kv/get_name.h</text>
</a>
</g>
</g>
<!-- Node6&#45;&gt;Node7 -->
<g id="edge6" class="edge">
<title>Node6&#45;&gt;Node7</title>
<path fill="none" stroke="midnightblue" d="M682.38,-369.48C652.1,-359.18 601.02,-341.81 567.01,-330.25"/>
<polygon fill="midnightblue" stroke="midnightblue" points="568.08,-326.91 557.48,-327.01 565.82,-333.54 568.08,-326.91"/>
</g>
<!-- Node9 -->
<g id="node9" class="node">
<title>Node9</title>
<g id="a_node9"><a xlink:href="include_2ccf_2kv_2hooks_8h.html" target="_top" xlink:title=" ">
<polygon fill="white" stroke="black" points="722.96,-241 722.96,-260 809.96,-260 809.96,-241 722.96,-241"/>
<text text-anchor="middle" x="766.46" y="-248" font-family="Helvetica,sans-Serif" font-size="10.00">ccf/kv/hooks.h</text>
</a>
</g>
</g>
<!-- Node6&#45;&gt;Node9 -->
<g id="edge8" class="edge">
<title>Node6&#45;&gt;Node9</title>
<path fill="none" stroke="midnightblue" d="M712.27,-369.48C717.28,-360.52 725.24,-345.93 731.46,-333 741.74,-311.59 752.33,-286.4 759.13,-269.75"/>
<polygon fill="midnightblue" stroke="midnightblue" points="762.5,-270.76 763.01,-260.17 756.02,-268.13 762.5,-270.76"/>
</g>
<!-- Node13 -->
<g id="node13" class="node">
<title>Node13</title>
<g id="a_node13"><a xlink:href="map__handle_8h.html" target="_top" xlink:title=" ">
<polygon fill="white" stroke="black" points="604.46,-308 604.46,-327 722.46,-327 722.46,-308 604.46,-308"/>
<text text-anchor="middle" x="663.46" y="-315" font-family="Helvetica,sans-Serif" font-size="10.00">ccf/kv/map_handle.h</text>
</a>
</g>
</g>
<!-- Node6&#45;&gt;Node13 -->
<g id="edge12" class="edge">
<title>Node6&#45;&gt;Node13</title>
<path fill="none" stroke="midnightblue" d="M701.15,-369.48C694.55,-360.55 684.02,-346.31 675.76,-335.14"/>
<polygon fill="midnightblue" stroke="midnightblue" points="678.51,-332.97 669.75,-327.01 672.88,-337.13 678.51,-332.97"/>
</g>
<!-- Node25 -->
<g id="node25" class="node">
<title>Node25</title>
<g id="a_node25"><a xlink:href="blit__serialiser_8h.html" target="_top" xlink:title=" ">
<polygon fill="white" stroke="black" points="361.96,-302.5 361.96,-332.5 460.96,-332.5 460.96,-302.5 361.96,-302.5"/>
<text text-anchor="start" x="369.96" y="-320.5" font-family="Helvetica,sans-Serif" font-size="10.00">ccf/kv/serialisers</text>
<text text-anchor="middle" x="411.46" y="-309.5" font-family="Helvetica,sans-Serif" font-size="10.00">/blit_serialiser.h</text>
</a>
</g>
</g>
<!-- Node6&#45;&gt;Node25 -->
<g id="edge27" class="edge">
<title>Node6&#45;&gt;Node25</title>
<path fill="none" stroke="midnightblue" d="M667.24,-370.69C613.46,-360.87 520.02,-343.62 470.87,-333.22"/>
<polygon fill="midnightblue" stroke="midnightblue" points="471.6,-329.8 461.08,-331.11 470.12,-336.64 471.6,-329.8"/>
</g>
<!-- Node32 -->
<g id="node32" class="node">
<title>Node32</title>
<g id="a_node32"><a xlink:href="json__serialiser_8h.html" target="_top" xlink:title=" ">
<polygon fill="white" stroke="black" points="920.96,-302.5 920.96,-332.5 1019.96,-332.5 1019.96,-302.5 920.96,-302.5"/>
<text text-anchor="start" x="928.96" y="-320.5" font-family="Helvetica,sans-Serif" font-size="10.00">ccf/kv/serialisers</text>
<text text-anchor="middle" x="970.46" y="-309.5" font-family="Helvetica,sans-Serif" font-size="10.00">/json_serialiser.h</text>
</a>
</g>
</g>
<!-- Node6&#45;&gt;Node32 -->
<g id="edge37" class="edge">
<title>Node6&#45;&gt;Node32</title>
<path fill="none" stroke="midnightblue" d="M745.14,-369.48C788.41,-359.68 859.98,-343.49 910.83,-331.99"/>
<polygon fill="midnightblue" stroke="midnightblue" points="911.73,-335.37 920.71,-329.75 910.19,-328.55 911.73,-335.37"/>
</g>
<!-- Node34 -->
<g id="node34" class="node">
<title>Node34</title>
<g id="a_node34"><a xlink:href="untyped_8h.html" target="_top" xlink:title=" ">
<polygon fill="white" stroke="black" points="778.46,-308 778.46,-327 876.46,-327 876.46,-308 778.46,-308"/>
<text text-anchor="middle" x="827.46" y="-315" font-family="Helvetica,sans-Serif" font-size="10.00">ccf/kv/untyped.h</text>
</a>
</g>
</g>
<!-- Node6&#45;&gt;Node34 -->
<g id="edge40" class="edge">
<title>Node6&#45;&gt;Node34</title>
<path fill="none" stroke="midnightblue" d="M724.65,-369.48C744.7,-359.53 778.05,-342.99 801.32,-331.46"/>
<polygon fill="midnightblue" stroke="midnightblue" points="802.89,-334.59 810.29,-327.01 799.78,-328.32 802.89,-334.59"/>
</g>
<!-- Node8 -->
<g id="node8" class="node">
<title>Node8</title>
<g id="a_node8"><a xlink:title=" ">
<polygon fill="white" stroke="#bfbfbf" points="450.46,-174 450.46,-193 494.46,-193 494.46,-174 450.46,-174"/>
<text text-anchor="middle" x="472.46" y="-181" font-family="Helvetica,sans-Serif" font-size="10.00">string</text>
</a>
</g>
</g>
<!-- Node7&#45;&gt;Node8 -->
<g id="edge7" class="edge">
<title>Node7&#45;&gt;Node8</title>
<path fill="none" stroke="midnightblue" d="M528.52,-307.84C518.81,-286.49 493.58,-230.98 480.53,-202.27"/>
<polygon fill="midnightblue" stroke="midnightblue" points="483.65,-200.68 476.33,-193.02 477.28,-203.57 483.65,-200.68"/>
</g>
<!-- Node10 -->
<g id="node10" class="node">
<title>Node10</title>
<g id="a_node10"><a xlink:href="version_8h.html" target="_top" xlink:title=" ">
<polygon fill="white" stroke="black" points="824.46,-174 824.46,-193 918.46,-193 918.46,-174 824.46,-174"/>
<text text-anchor="middle" x="871.46" y="-181" font-family="Helvetica,sans-Serif" font-size="10.00">ccf/kv/version.h</text>
</a>
</g>
</g>
<!-- Node9&#45;&gt;Node10 -->
<g id="edge9" class="edge">
<title>Node9&#45;&gt;Node10</title>
<path fill="none" stroke="midnightblue" d="M780.62,-240.73C798.17,-229.87 828.3,-211.22 849.01,-198.39"/>
<polygon fill="midnightblue" stroke="midnightblue" points="850.86,-201.37 857.52,-193.13 847.17,-195.41 850.86,-201.37"/>
</g>
<!-- Node11 -->
<g id="node11" class="node">
<title>Node11</title>
<g id="a_node11"><a xlink:title=" ">
<polygon fill="white" stroke="#bfbfbf" points="740.96,-174 740.96,-193 805.96,-193 805.96,-174 740.96,-174"/>
<text text-anchor="middle" x="773.46" y="-181" font-family="Helvetica,sans-Serif" font-size="10.00">functional</text>
</a>
</g>
</g>
<!-- Node9&#45;&gt;Node11 -->
<g id="edge10" class="edge">
<title>Node9&#45;&gt;Node11</title>
<path fill="none" stroke="midnightblue" d="M767.4,-240.73C768.43,-231.18 770.1,-215.62 771.43,-203.28"/>
<polygon fill="midnightblue" stroke="midnightblue" points="774.94,-203.44 772.53,-193.13 767.98,-202.7 774.94,-203.44"/>
</g>
<!-- Node12 -->
<g id="node12" class="node">
<title>Node12</title>
<g id="a_node12"><a xlink:title=" ">
<polygon fill="white" stroke="#bfbfbf" points="936.46,-174 936.46,-193 994.46,-193 994.46,-174 936.46,-174"/>
<text text-anchor="middle" x="965.46" y="-181" font-family="Helvetica,sans-Serif" font-size="10.00">memory</text>
</a>
</g>
</g>
<!-- Node9&#45;&gt;Node12 -->
<g id="edge11" class="edge">
<title>Node9&#45;&gt;Node12</title>
<path fill="none" stroke="midnightblue" d="M795.42,-240.99C827.79,-231.35 881.66,-214.9 927.46,-199 929.71,-198.22 932.02,-197.39 934.35,-196.54"/>
<polygon fill="midnightblue" stroke="midnightblue" points="935.69,-199.78 943.84,-193.01 933.24,-193.22 935.69,-199.78"/>
</g>
<!-- Node14 -->
<g id="node14" class="node">
<title>Node14</title>
<g id="a_node14"><a xlink:href="untyped__map__handle_8h.html" target="_top" xlink:title=" ">
<polygon fill="white" stroke="black" points="588.46,-235.5 588.46,-265.5 704.46,-265.5 704.46,-235.5 588.46,-235.5"/>
<text text-anchor="start" x="596.46" y="-253.5" font-family="Helvetica,sans-Serif" font-size="10.00">ccf/kv/untyped_map</text>
<text text-anchor="middle" x="646.46" y="-242.5" font-family="Helvetica,sans-Serif" font-size="10.00">_handle.h</text>
</a>
</g>
</g>
<!-- Node13&#45;&gt;Node14 -->
<g id="edge13" class="edge">
<title>Node13&#45;&gt;Node14</title>
<path fill="none" stroke="midnightblue" d="M661.16,-307.73C659,-299.46 655.65,-286.66 652.7,-275.37"/>
<polygon fill="midnightblue" stroke="midnightblue" points="656.06,-274.38 650.14,-265.59 649.28,-276.15 656.06,-274.38"/>
</g>
<!-- Node14&#45;&gt;Node8 -->
<g id="edge26" class="edge">
<title>Node14&#45;&gt;Node8</title>
<path fill="none" stroke="midnightblue" d="M603.18,-235.45C574.6,-225.87 536.47,-212.51 503.46,-199 502.08,-198.44 500.68,-197.85 499.27,-197.24"/>
<polygon fill="midnightblue" stroke="midnightblue" points="500.58,-193.99 490.03,-193.08 497.71,-200.38 500.58,-193.99"/>
</g>
<!-- Node14&#45;&gt;Node10 -->
<g id="edge23" class="edge">
<title>Node14&#45;&gt;Node10</title>
<path fill="none" stroke="midnightblue" d="M695,-235.48C736.03,-223.62 794.06,-206.86 832.21,-195.84"/>
<polygon fill="midnightblue" stroke="midnightblue" points="833.3,-199.17 841.93,-193.03 831.35,-192.44 833.3,-199.17"/>
</g>
<!-- Node14&#45;&gt;Node11 -->
<g id="edge24" class="edge">
<title>Node14&#45;&gt;Node11</title>
<path fill="none" stroke="midnightblue" d="M674.01,-235.4C695.9,-224.19 726.29,-208.64 747.69,-197.69"/>
<polygon fill="midnightblue" stroke="midnightblue" points="749.53,-200.68 756.83,-193.01 746.34,-194.45 749.53,-200.68"/>
</g>
<!-- Node15 -->
<g id="node15" class="node">
<title>Node15</title>
<g id="a_node15"><a xlink:href="abstract__handle_8h.html" target="_top" xlink:title=" ">
<polygon fill="white" stroke="black" points="586.46,-174 586.46,-193 722.46,-193 722.46,-174 586.46,-174"/>
<text text-anchor="middle" x="654.46" y="-181" font-family="Helvetica,sans-Serif" font-size="10.00">ccf/kv/abstract_handle.h</text>
</a>
</g>
</g>
<!-- Node14&#45;&gt;Node15 -->
<g id="edge14" class="edge">
<title>Node14&#45;&gt;Node15</title>
<path fill="none" stroke="midnightblue" d="M648.19,-235.4C649.35,-225.96 650.89,-213.45 652.16,-203.19"/>
<polygon fill="midnightblue" stroke="midnightblue" points="655.64,-203.55 653.39,-193.19 648.69,-202.69 655.64,-203.55"/>
</g>
<!-- Node14&#45;&gt;Node16 -->
<g id="edge15" class="edge">
<title>Node14&#45;&gt;Node16</title>
<path fill="none" stroke="midnightblue" d="M704.5,-236.61C707.52,-236.04 710.52,-235.5 713.46,-235 838.37,-213.77 873.88,-221.42 1002.9,-198.97"/>
<polygon fill="midnightblue" stroke="midnightblue" points="1003.53,-202.41 1012.77,-197.22 1002.31,-195.52 1003.53,-202.41"/>
</g>
<!-- Node24 -->
<g id="node24" class="node">
<title>Node24</title>
<g id="a_node24"><a xlink:title=" ">
<polygon fill="white" stroke="#bfbfbf" points="512.46,-174 512.46,-193 568.46,-193 568.46,-174 512.46,-174"/>
<text text-anchor="middle" x="540.46" y="-181" font-family="Helvetica,sans-Serif" font-size="10.00">optional</text>
</a>
</g>
</g>
<!-- Node14&#45;&gt;Node24 -->
<g id="edge25" class="edge">
<title>Node14&#45;&gt;Node24</title>
<path fill="none" stroke="midnightblue" d="M623.45,-235.4C605.51,-224.39 580.74,-209.2 562.93,-198.28"/>
<polygon fill="midnightblue" stroke="midnightblue" points="564.68,-195.25 554.33,-193.01 561.02,-201.22 564.68,-195.25"/>
</g>
<!-- Node17 -->
<g id="node17" class="node">
<title>Node17</title>
<g id="a_node17"><a xlink:href="byte__vector_8h.html" target="_top" xlink:title=" ">
<polygon fill="white" stroke="black" points="863.46,-112.5 863.46,-131.5 963.46,-131.5 963.46,-112.5 863.46,-112.5"/>
<text text-anchor="middle" x="913.46" y="-119.5" font-family="Helvetica,sans-Serif" font-size="10.00">ccf/byte_vector.h</text>
</a>
</g>
</g>
<!-- Node16&#45;&gt;Node17 -->
<g id="edge16" class="edge">
<title>Node16&#45;&gt;Node17</title>
<path fill="none" stroke="midnightblue" d="M1029.43,-168.4C1003.82,-158.37 969.73,-145.03 945.15,-135.4"/>
<polygon fill="midnightblue" stroke="midnightblue" points="946.16,-132.04 935.57,-131.66 943.61,-138.56 946.16,-132.04"/>
</g>
<!-- Node18 -->
<g id="node18" class="node">
<title>Node18</title>
<g id="a_node18"><a xlink:href="siphash_8h.html" target="_top" xlink:title=" ">
<polygon fill="white" stroke="black" points="935.96,-56.5 935.96,-75.5 1030.96,-75.5 1030.96,-56.5 935.96,-56.5"/>
<text text-anchor="middle" x="983.46" y="-63.5" font-family="Helvetica,sans-Serif" font-size="10.00">ccf/ds/siphash.h</text>
</a>
</g>
</g>
<!-- Node17&#45;&gt;Node18 -->
<g id="edge17" class="edge">
<title>Node17&#45;&gt;Node18</title>
<path fill="none" stroke="midnightblue" d="M924.7,-112.32C935.25,-104.18 951.26,-91.84 963.9,-82.09"/>
<polygon fill="midnightblue" stroke="midnightblue" points="966.22,-84.71 972,-75.83 961.95,-79.17 966.22,-84.71"/>
</g>
<!-- Node22 -->
<g id="node22" class="node">
<title>Node22</title>
<g id="a_node22"><a xlink:title=" ">
<polygon fill="white" stroke="#bfbfbf" points="671.96,-56.5 671.96,-75.5 750.96,-75.5 750.96,-56.5 671.96,-56.5"/>
<text text-anchor="middle" x="711.46" y="-63.5" font-family="Helvetica,sans-Serif" font-size="10.00">fmt/format.h</text>
</a>
</g>
</g>
<!-- Node17&#45;&gt;Node22 -->
<g id="edge21" class="edge">
<title>Node17&#45;&gt;Node22</title>
<path fill="none" stroke="midnightblue" d="M881.45,-112.44C846.73,-103.16 791.17,-88.31 753.08,-78.13"/>
<polygon fill="midnightblue" stroke="midnightblue" points="753.88,-74.72 743.31,-75.52 752.07,-81.48 753.88,-74.72"/>
</g>
<!-- Node23 -->
<g id="node23" class="node">
<title>Node23</title>
<g id="a_node23"><a xlink:title=" ">
<polygon fill="white" stroke="#bfbfbf" points="768.96,-56.5 768.96,-75.5 917.96,-75.5 917.96,-56.5 768.96,-56.5"/>
<text text-anchor="middle" x="843.46" y="-63.5" font-family="Helvetica,sans-Serif" font-size="10.00">small_vector/SmallVector.h</text>
</a>
</g>
</g>
<!-- Node17&#45;&gt;Node23 -->
<g id="edge22" class="edge">
<title>Node17&#45;&gt;Node23</title>
<path fill="none" stroke="midnightblue" d="M902.21,-112.32C891.66,-104.18 875.65,-91.84 863.01,-82.09"/>
<polygon fill="midnightblue" stroke="midnightblue" points="864.96,-79.17 854.91,-75.83 860.69,-84.71 864.96,-79.17"/>
</g>
<!-- Node19 -->
<g id="node19" class="node">
<title>Node19</title>
<g id="a_node19"><a xlink:title=" ">
<polygon fill="white" stroke="#bfbfbf" points="991.96,-0.5 991.96,-19.5 1044.96,-19.5 1044.96,-0.5 991.96,-0.5"/>
<text text-anchor="middle" x="1018.46" y="-7.5" font-family="Helvetica,sans-Serif" font-size="10.00">cstddef</text>
</a>
</g>
</g>
<!-- Node18&#45;&gt;Node19 -->
<g id="edge18" class="edge">
<title>Node18&#45;&gt;Node19</title>
<path fill="none" stroke="midnightblue" d="M989.23,-56.08C994.13,-48.53 1001.28,-37.49 1007.29,-28.23"/>
<polygon fill="midnightblue" stroke="midnightblue" points="1010.28,-30.05 1012.78,-19.75 1004.41,-26.24 1010.28,-30.05"/>
</g>
<!-- Node20 -->
<g id="node20" class="node">
<title>Node20</title>
<g id="a_node20"><a xlink:title=" ">
<polygon fill="white" stroke="#bfbfbf" points="923.46,-0.5 923.46,-19.5 973.46,-19.5 973.46,-0.5 923.46,-0.5"/>
<text text-anchor="middle" x="948.46" y="-7.5" font-family="Helvetica,sans-Serif" font-size="10.00">cstdint</text>
</a>
</g>
</g>
<!-- Node18&#45;&gt;Node20 -->
<g id="edge19" class="edge">
<title>Node18&#45;&gt;Node20</title>
<path fill="none" stroke="midnightblue" d="M977.68,-56.08C972.78,-48.53 965.63,-37.49 959.62,-28.23"/>
<polygon fill="midnightblue" stroke="midnightblue" points="962.5,-26.24 954.13,-19.75 956.63,-30.05 962.5,-26.24"/>
</g>
<!-- Node18&#45;&gt;Node21 -->
<g id="edge20" class="edge">
<title>Node18&#45;&gt;Node21</title>
<path fill="none" stroke="midnightblue" d="M935.9,-57.25C932.71,-56.8 929.54,-56.38 926.46,-56 749.98,-34.21 537.49,-18.75 456.26,-13.23"/>
<polygon fill="midnightblue" stroke="midnightblue" points="456.35,-9.72 446.13,-12.54 455.87,-16.71 456.35,-9.72"/>
</g>
<!-- Node25&#45;&gt;Node16 -->
<g id="edge36" class="edge">
<title>Node25&#45;&gt;Node16</title>
<path fill="none" stroke="midnightblue" d="M461.03,-303.61C463.87,-303.03 466.7,-302.48 469.46,-302 623.04,-275.02 674.06,-324.88 818.46,-266 838.96,-257.64 837.56,-244.73 857.46,-235 860.83,-233.35 942.97,-213.63 1003,-199.32"/>
<polygon fill="midnightblue" stroke="midnightblue" points="1003.89,-202.71 1012.8,-196.99 1002.27,-195.9 1003.89,-202.71"/>
</g>
<!-- Node26 -->
<g id="node26" class="node">
<title>Node26</title>
<g id="a_node26"><a xlink:href="nonstd_8h.html" target="_top" xlink:title=" ">
<polygon fill="white" stroke="black" points="269.46,-241 269.46,-260 359.46,-260 359.46,-241 269.46,-241"/>
<text text-anchor="middle" x="314.46" y="-248" font-family="Helvetica,sans-Serif" font-size="10.00">ccf/ds/nonstd.h</text>
</a>
</g>
</g>
<!-- Node25&#45;&gt;Node26 -->
<g id="edge28" class="edge">
<title>Node25&#45;&gt;Node26</title>
<path fill="none" stroke="midnightblue" d="M390.41,-302.4C374.14,-291.5 351.73,-276.48 335.47,-265.58"/>
<polygon fill="midnightblue" stroke="midnightblue" points="337.41,-262.67 327.15,-260.01 333.51,-268.48 337.41,-262.67"/>
</g>
<!-- Node26&#45;&gt;Node8 -->
<g id="edge32" class="edge">
<title>Node26&#45;&gt;Node8</title>
<path fill="none" stroke="midnightblue" d="M335.44,-240.87C362.71,-229.65 410.53,-209.98 441.85,-197.09"/>
<polygon fill="midnightblue" stroke="midnightblue" points="443.47,-200.21 451.39,-193.17 440.81,-193.74 443.47,-200.21"/>
</g>
<!-- Node26&#45;&gt;Node21 -->
<g id="edge35" class="edge">
<title>Node26&#45;&gt;Node21</title>
<path fill="none" stroke="midnightblue" d="M343.14,-240.84C363.21,-233.2 388.79,-219.95 402.46,-199 437.08,-145.91 430.85,-65.95 425.7,-29.86"/>
<polygon fill="midnightblue" stroke="midnightblue" points="429.12,-29.11 424.12,-19.77 422.21,-30.19 429.12,-29.11"/>
</g>
<!-- Node27 -->
<g id="node27" class="node">
<title>Node27</title>
<g id="a_node27"><a xlink:title=" ">
<polygon fill="white" stroke="#bfbfbf" points="24.46,-174 24.46,-193 88.46,-193 88.46,-174 24.46,-174"/>
<text text-anchor="middle" x="56.46" y="-181" font-family="Helvetica,sans-Serif" font-size="10.00">algorithm</text>
</a>
</g>
</g>
<!-- Node26&#45;&gt;Node27 -->
<g id="edge29" class="edge">
<title>Node26&#45;&gt;Node27</title>
<path fill="none" stroke="midnightblue" d="M271.27,-240.93C227.21,-231.84 157.05,-216.41 97.46,-199 94.67,-198.19 91.8,-197.29 88.92,-196.35"/>
<polygon fill="midnightblue" stroke="midnightblue" points="89.89,-192.99 79.29,-193.08 87.64,-199.61 89.89,-192.99"/>
</g>
<!-- Node28 -->
<g id="node28" class="node">
<title>Node28</title>
<g id="a_node28"><a xlink:title=" ">
<polygon fill="white" stroke="#bfbfbf" points="106.46,-174 106.46,-193 148.46,-193 148.46,-174 106.46,-174"/>
<text text-anchor="middle" x="127.46" y="-181" font-family="Helvetica,sans-Serif" font-size="10.00">array</text>
</a>
</g>
</g>
<!-- Node26&#45;&gt;Node28 -->
<g id="edge30" class="edge">
<title>Node26&#45;&gt;Node28</title>
<path fill="none" stroke="midnightblue" d="M283.62,-240.96C251.63,-231.78 200.39,-216.18 157.46,-199 156.08,-198.45 154.68,-197.86 153.27,-197.26"/>
<polygon fill="midnightblue" stroke="midnightblue" points="154.64,-194.03 144.09,-193.05 151.72,-200.4 154.64,-194.03"/>
</g>
<!-- Node29 -->
<g id="node29" class="node">
<title>Node29</title>
<g id="a_node29"><a xlink:title=" ">
<polygon fill="white" stroke="#bfbfbf" points="166.96,-174 166.96,-193 215.96,-193 215.96,-174 166.96,-174"/>
<text text-anchor="middle" x="191.46" y="-181" font-family="Helvetica,sans-Serif" font-size="10.00">cctype</text>
</a>
</g>
</g>
<!-- Node26&#45;&gt;Node29 -->
<g id="edge31" class="edge">
<title>Node26&#45;&gt;Node29</title>
<path fill="none" stroke="midnightblue" d="M298.12,-240.87C277.35,-229.89 241.27,-210.82 216.89,-197.94"/>
<polygon fill="midnightblue" stroke="midnightblue" points="218.33,-194.75 207.86,-193.17 215.06,-200.93 218.33,-194.75"/>
</g>
<!-- Node30 -->
<g id="node30" class="node">
<title>Node30</title>
<g id="a_node30"><a xlink:title=" ">
<polygon fill="white" stroke="#bfbfbf" points="233.96,-174 233.96,-193 306.96,-193 306.96,-174 233.96,-174"/>
<text text-anchor="middle" x="270.46" y="-181" font-family="Helvetica,sans-Serif" font-size="10.00">string_view</text>
</a>
</g>
</g>
<!-- Node26&#45;&gt;Node30 -->
<g id="edge33" class="edge">
<title>Node26&#45;&gt;Node30</title>
<path fill="none" stroke="midnightblue" d="M308.52,-240.73C301.73,-230.7 290.43,-214.01 281.91,-201.42"/>
<polygon fill="midnightblue" stroke="midnightblue" points="284.8,-199.45 276.3,-193.13 279,-203.37 284.8,-199.45"/>
</g>
<!-- Node31 -->
<g id="node31" class="node">
<title>Node31</title>
<g id="a_node31"><a xlink:title=" ">
<polygon fill="white" stroke="#bfbfbf" points="324.96,-174 324.96,-193 393.96,-193 393.96,-174 324.96,-174"/>
<text text-anchor="middle" x="359.46" y="-181" font-family="Helvetica,sans-Serif" font-size="10.00">type_traits</text>
</a>
</g>
</g>
<!-- Node26&#45;&gt;Node31 -->
<g id="edge34" class="edge">
<title>Node26&#45;&gt;Node31</title>
<path fill="none" stroke="midnightblue" d="M320.52,-240.73C327.47,-230.7 339.02,-214.01 347.74,-201.42"/>
<polygon fill="midnightblue" stroke="midnightblue" points="350.67,-203.34 353.48,-193.13 344.91,-199.36 350.67,-203.34"/>
</g>
<!-- Node32&#45;&gt;Node16 -->
<g id="edge38" class="edge">
<title>Node32&#45;&gt;Node16</title>
<path fill="none" stroke="midnightblue" d="M970.66,-302.26C971.57,-284.92 975.29,-255.41 989.46,-235 998.33,-222.2 1011.6,-211.79 1024.58,-203.81"/>
<polygon fill="midnightblue" stroke="midnightblue" points="1026.55,-206.72 1033.46,-198.68 1023.05,-200.65 1026.55,-206.72"/>
</g>
<!-- Node32&#45;&gt;Node33 -->
<g id="edge39" class="edge">
<title>Node32&#45;&gt;Node33</title>
<path fill="none" stroke="midnightblue" d="M988.47,-302.4C1002.05,-291.76 1020.63,-277.2 1034.45,-266.38"/>
<polygon fill="midnightblue" stroke="midnightblue" points="1036.64,-269.12 1042.35,-260.19 1032.32,-263.6 1036.64,-269.12"/>
</g>
<!-- Node34&#45;&gt;Node9 -->
<g id="edge41" class="edge">
<title>Node34&#45;&gt;Node9</title>
<path fill="none" stroke="midnightblue" d="M819.23,-307.73C809.63,-297.5 793.54,-280.36 781.65,-267.69"/>
<polygon fill="midnightblue" stroke="midnightblue" points="783.95,-265.02 774.55,-260.13 778.84,-269.81 783.95,-265.02"/>
</g>
<!-- Node34&#45;&gt;Node16 -->
<g id="edge42" class="edge">
<title>Node34&#45;&gt;Node16</title>
<path fill="none" stroke="midnightblue" d="M842.65,-307.86C869.01,-292.9 924.94,-261.25 972.46,-235 991.45,-224.5 1012.72,-212.94 1030.12,-203.53"/>
<polygon fill="midnightblue" stroke="midnightblue" points="1032.21,-206.38 1039.34,-198.55 1028.88,-200.22 1032.21,-206.38"/>
</g>
<!-- Node34&#45;&gt;Node24 -->
<g id="edge44" class="edge">
<title>Node34&#45;&gt;Node24</title>
<path fill="none" stroke="midnightblue" d="M778.42,-308.92C710.67,-298.08 595,-278.13 579.46,-266 559.4,-250.35 549.1,-221.82 544.25,-203.01"/>
<polygon fill="midnightblue" stroke="midnightblue" points="547.65,-202.19 541.99,-193.23 540.83,-203.76 547.65,-202.19"/>
</g>
<!-- Node35 -->
<g id="node35" class="node">
<title>Node35</title>
<g id="a_node35"><a xlink:title=" ">
<polygon fill="white" stroke="#bfbfbf" points="866.46,-241 866.46,-260 904.46,-260 904.46,-241 866.46,-241"/>
<text text-anchor="middle" x="885.46" y="-248" font-family="Helvetica,sans-Serif" font-size="10.00">map</text>
</a>
</g>
</g>
<!-- Node34&#45;&gt;Node35 -->
<g id="edge43" class="edge">
<title>Node34&#45;&gt;Node35</title>
<path fill="none" stroke="midnightblue" d="M835.28,-307.73C844.41,-297.5 859.7,-280.36 871.01,-267.69"/>
<polygon fill="midnightblue" stroke="midnightblue" points="873.71,-269.92 877.76,-260.13 868.49,-265.26 873.71,-269.92"/>
</g>
</g>
</svg>
