<?xml version="1.0" encoding="UTF-8" standalone="no"?>
<!DOCTYPE svg PUBLIC "-//W3C//DTD SVG 1.1//EN"
 "http://www.w3.org/Graphics/SVG/1.1/DTD/svg11.dtd">
<!-- Generated by graphviz version 2.43.0 (0)
 -->
<!-- Title: src/apps/tpcc/app/tpcc_tables.h Pages: 1 -->
<svg width="1424pt" height="520pt"
 viewBox="0.00 0.00 1424.00 520.00" xmlns="http://www.w3.org/2000/svg" xmlns:xlink="http://www.w3.org/1999/xlink">
<g id="graph0" class="graph" transform="scale(1 1) rotate(0) translate(4 516)">
<title>src/apps/tpcc/app/tpcc_tables.h</title>
<polygon fill="white" stroke="transparent" points="-4,4 -4,-516 1420,-516 1420,4 -4,4"/>
<!-- Node1 -->
<g id="node1" class="node">
<title>Node1</title>
<g id="a_node1"><a xlink:title=" ">
<polygon fill="#bfbfbf" stroke="black" points="1014.5,-481.5 1014.5,-511.5 1139.5,-511.5 1139.5,-481.5 1014.5,-481.5"/>
<text text-anchor="start" x="1022.5" y="-499.5" font-family="Helvetica,sans-Serif" font-size="10.00">src/apps/tpcc/app/tpcc</text>
<text text-anchor="middle" x="1077" y="-488.5" font-family="Helvetica,sans-Serif" font-size="10.00">_tables.h</text>
</a>
</g>
</g>
<!-- Node2 -->
<g id="node2" class="node">
<title>Node2</title>
<g id="a_node2"><a xlink:href="serialise__msgpack_8h.html" target="_top" xlink:title=" ">
<polygon fill="white" stroke="black" points="792,-425.5 792,-444.5 908,-444.5 908,-425.5 792,-425.5"/>
<text text-anchor="middle" x="850" y="-432.5" font-family="Helvetica,sans-Serif" font-size="10.00">serialise_msgpack.h</text>
</a>
</g>
</g>
<!-- Node1&#45;&gt;Node2 -->
<g id="edge1" class="edge">
<title>Node1&#45;&gt;Node2</title>
<path fill="none" stroke="midnightblue" d="M1023.49,-481.47C983.47,-470.99 929.49,-456.84 892.43,-447.12"/>
<polygon fill="midnightblue" stroke="midnightblue" points="893.01,-443.66 882.45,-444.51 891.24,-450.43 893.01,-443.66"/>
</g>
<!-- Node18 -->
<g id="node18" class="node">
<title>Node18</title>
<g id="a_node18"><a xlink:title=" ">
<polygon fill="white" stroke="#bfbfbf" points="402.5,-0.5 402.5,-19.5 449.5,-19.5 449.5,-0.5 402.5,-0.5"/>
<text text-anchor="middle" x="426" y="-7.5" font-family="Helvetica,sans-Serif" font-size="10.00">vector</text>
</a>
</g>
</g>
<!-- Node1&#45;&gt;Node18 -->
<g id="edge50" class="edge">
<title>Node1&#45;&gt;Node18</title>
<path fill="none" stroke="midnightblue" d="M1014.44,-495.4C784.58,-494.24 0,-482.72 0,-380 0,-380 0,-380 0,-121 0,-40.12 291.55,-17.78 392.26,-12.47"/>
<polygon fill="midnightblue" stroke="midnightblue" points="392.68,-15.96 402.49,-11.96 392.33,-8.96 392.68,-15.96"/>
</g>
<!-- Node30 -->
<g id="node30" class="node">
<title>Node30</title>
<g id="a_node30"><a xlink:title=" ">
<polygon fill="white" stroke="#bfbfbf" points="995,-241 995,-260 1105,-260 1105,-241 995,-241"/>
<text text-anchor="middle" x="1050" y="-248" font-family="Helvetica,sans-Serif" font-size="10.00">nlohmann/json.hpp</text>
</a>
</g>
</g>
<!-- Node1&#45;&gt;Node30 -->
<g id="edge46" class="edge">
<title>Node1&#45;&gt;Node30</title>
<path fill="none" stroke="midnightblue" d="M1074.91,-481.37C1073.44,-471.25 1071.49,-457.3 1070,-445 1062.28,-381.14 1054.97,-305.19 1051.74,-270.49"/>
<polygon fill="midnightblue" stroke="midnightblue" points="1055.21,-270.02 1050.81,-260.38 1048.24,-270.66 1055.21,-270.02"/>
</g>
<!-- Node33 -->
<g id="node33" class="node">
<title>Node33</title>
<g id="a_node33"><a xlink:title=" ">
<polygon fill="white" stroke="#bfbfbf" points="880.5,-369.5 880.5,-388.5 1009.5,-388.5 1009.5,-369.5 880.5,-369.5"/>
<text text-anchor="middle" x="945" y="-376.5" font-family="Helvetica,sans-Serif" font-size="10.00">msgpack/msgpack.hpp</text>
</a>
</g>
</g>
<!-- Node1&#45;&gt;Node33 -->
<g id="edge45" class="edge">
<title>Node1&#45;&gt;Node33</title>
<path fill="none" stroke="midnightblue" d="M1060.81,-481.34C1035.95,-459.58 988.53,-418.09 962.76,-395.54"/>
<polygon fill="midnightblue" stroke="midnightblue" points="964.74,-392.62 954.91,-388.67 960.13,-397.89 964.74,-392.62"/>
</g>
<!-- Node34 -->
<g id="node34" class="node">
<title>Node34</title>
<g id="a_node34"><a xlink:title=" ">
<polygon fill="white" stroke="#bfbfbf" points="1079,-425.5 1079,-444.5 1129,-444.5 1129,-425.5 1079,-425.5"/>
<text text-anchor="middle" x="1104" y="-432.5" font-family="Helvetica,sans-Serif" font-size="10.00">cstring</text>
</a>
</g>
</g>
<!-- Node1&#45;&gt;Node34 -->
<g id="edge44" class="edge">
<title>Node1&#45;&gt;Node34</title>
<path fill="none" stroke="midnightblue" d="M1083.4,-481.4C1087.12,-473.2 1091.85,-462.78 1095.83,-453.99"/>
<polygon fill="midnightblue" stroke="midnightblue" points="1099.13,-455.21 1100.07,-444.66 1092.75,-452.32 1099.13,-455.21"/>
</g>
<!-- Node35 -->
<g id="node35" class="node">
<title>Node35</title>
<g id="a_node35"><a xlink:title=" ">
<polygon fill="white" stroke="#bfbfbf" points="1147.5,-425.5 1147.5,-444.5 1200.5,-444.5 1200.5,-425.5 1147.5,-425.5"/>
<text text-anchor="middle" x="1174" y="-432.5" font-family="Helvetica,sans-Serif" font-size="10.00">stdint.h</text>
</a>
</g>
</g>
<!-- Node1&#45;&gt;Node35 -->
<g id="edge47" class="edge">
<title>Node1&#45;&gt;Node35</title>
<path fill="none" stroke="midnightblue" d="M1099.99,-481.4C1115.39,-471.95 1135.59,-459.56 1151,-450.11"/>
<polygon fill="midnightblue" stroke="midnightblue" points="1153.19,-452.87 1159.89,-444.66 1149.53,-446.9 1153.19,-452.87"/>
</g>
<!-- Node36 -->
<g id="node36" class="node">
<title>Node36</title>
<g id="a_node36"><a xlink:title=" ">
<polygon fill="white" stroke="#bfbfbf" points="1218.5,-425.5 1218.5,-444.5 1311.5,-444.5 1311.5,-425.5 1218.5,-425.5"/>
<text text-anchor="middle" x="1265" y="-432.5" font-family="Helvetica,sans-Serif" font-size="10.00">unordered_map</text>
</a>
</g>
</g>
<!-- Node1&#45;&gt;Node36 -->
<g id="edge48" class="edge">
<title>Node1&#45;&gt;Node36</title>
<path fill="none" stroke="midnightblue" d="M1121.55,-481.4C1154.04,-471.12 1197.54,-457.35 1228.09,-447.68"/>
<polygon fill="midnightblue" stroke="midnightblue" points="1229.44,-450.93 1237.92,-444.57 1227.33,-444.25 1229.44,-450.93"/>
</g>
<!-- Node37 -->
<g id="node37" class="node">
<title>Node37</title>
<g id="a_node37"><a xlink:title=" ">
<polygon fill="white" stroke="#bfbfbf" points="1330,-425.5 1330,-444.5 1416,-444.5 1416,-425.5 1330,-425.5"/>
<text text-anchor="middle" x="1373" y="-432.5" font-family="Helvetica,sans-Serif" font-size="10.00">unordered_set</text>
</a>
</g>
</g>
<!-- Node1&#45;&gt;Node37 -->
<g id="edge49" class="edge">
<title>Node1&#45;&gt;Node37</title>
<path fill="none" stroke="midnightblue" d="M1139.77,-482.88C1193.44,-472.09 1269.78,-456.75 1320.31,-446.59"/>
<polygon fill="midnightblue" stroke="midnightblue" points="1321.26,-449.97 1330.37,-444.57 1319.88,-443.11 1321.26,-449.97"/>
</g>
<!-- Node3 -->
<g id="node3" class="node">
<title>Node3</title>
<g id="a_node3"><a xlink:href="kv_2map_8h.html" target="_top" xlink:title=" ">
<polygon fill="white" stroke="black" points="768,-369.5 768,-388.5 848,-388.5 848,-369.5 768,-369.5"/>
<text text-anchor="middle" x="808" y="-376.5" font-family="Helvetica,sans-Serif" font-size="10.00">ccf/kv/map.h</text>
</a>
</g>
</g>
<!-- Node2&#45;&gt;Node3 -->
<g id="edge2" class="edge">
<title>Node2&#45;&gt;Node3</title>
<path fill="none" stroke="midnightblue" d="M843.06,-425.08C837.07,-417.38 828.25,-406.03 820.95,-396.65"/>
<polygon fill="midnightblue" stroke="midnightblue" points="823.71,-394.5 814.81,-388.75 818.18,-398.79 823.71,-394.5"/>
</g>
<!-- Node13 -->
<g id="node13" class="node">
<title>Node13</title>
<g id="a_node13"><a xlink:href="serialised__entry_8h.html" target="_top" xlink:title=" ">
<polygon fill="white" stroke="black" points="533.5,-168.5 533.5,-198.5 638.5,-198.5 638.5,-168.5 533.5,-168.5"/>
<text text-anchor="start" x="541.5" y="-186.5" font-family="Helvetica,sans-Serif" font-size="10.00">ccf/kv/serialisers</text>
<text text-anchor="middle" x="586" y="-175.5" font-family="Helvetica,sans-Serif" font-size="10.00">/serialised_entry.h</text>
</a>
</g>
</g>
<!-- Node2&#45;&gt;Node13 -->
<g id="edge42" class="edge">
<title>Node2&#45;&gt;Node13</title>
<path fill="none" stroke="midnightblue" d="M791.93,-430.32C678.07,-421.78 432.09,-396.26 381,-333 332.48,-272.92 447.17,-225.35 523.87,-201.42"/>
<polygon fill="midnightblue" stroke="midnightblue" points="524.94,-204.75 533.48,-198.48 522.9,-198.06 524.94,-204.75"/>
</g>
<!-- Node2&#45;&gt;Node33 -->
<g id="edge43" class="edge">
<title>Node2&#45;&gt;Node33</title>
<path fill="none" stroke="midnightblue" d="M865.26,-425.32C880.22,-416.82 903.25,-403.73 920.73,-393.8"/>
<polygon fill="midnightblue" stroke="midnightblue" points="922.81,-396.64 929.77,-388.65 919.35,-390.55 922.81,-396.64"/>
</g>
<!-- Node4 -->
<g id="node4" class="node">
<title>Node4</title>
<g id="a_node4"><a xlink:href="get__name_8h.html" target="_top" xlink:title=" ">
<polygon fill="white" stroke="black" points="507.5,-308 507.5,-327 614.5,-327 614.5,-308 507.5,-308"/>
<text text-anchor="middle" x="561" y="-315" font-family="Helvetica,sans-Serif" font-size="10.00">ccf/kv/get_name.h</text>
</a>
</g>
</g>
<!-- Node3&#45;&gt;Node4 -->
<g id="edge3" class="edge">
<title>Node3&#45;&gt;Node4</title>
<path fill="none" stroke="midnightblue" d="M772.61,-369.48C728.77,-358.92 654.03,-340.91 606.12,-329.37"/>
<polygon fill="midnightblue" stroke="midnightblue" points="606.87,-325.95 596.32,-327.01 605.23,-332.75 606.87,-325.95"/>
</g>
<!-- Node6 -->
<g id="node6" class="node">
<title>Node6</title>
<g id="a_node6"><a xlink:href="include_2ccf_2kv_2hooks_8h.html" target="_top" xlink:title=" ">
<polygon fill="white" stroke="black" points="888.5,-241 888.5,-260 975.5,-260 975.5,-241 888.5,-241"/>
<text text-anchor="middle" x="932" y="-248" font-family="Helvetica,sans-Serif" font-size="10.00">ccf/kv/hooks.h</text>
</a>
</g>
</g>
<!-- Node3&#45;&gt;Node6 -->
<g id="edge5" class="edge">
<title>Node3&#45;&gt;Node6</title>
<path fill="none" stroke="midnightblue" d="M824.66,-369.38C839.28,-361.29 860.55,-348.18 876,-333 895.55,-313.79 912.5,-286.84 922.48,-269.28"/>
<polygon fill="midnightblue" stroke="midnightblue" points="925.75,-270.59 927.53,-260.15 919.63,-267.21 925.75,-270.59"/>
</g>
<!-- Node10 -->
<g id="node10" class="node">
<title>Node10</title>
<g id="a_node10"><a xlink:href="map__handle_8h.html" target="_top" xlink:title=" ">
<polygon fill="white" stroke="black" points="749,-308 749,-327 867,-327 867,-308 749,-308"/>
<text text-anchor="middle" x="808" y="-315" font-family="Helvetica,sans-Serif" font-size="10.00">ccf/kv/map_handle.h</text>
</a>
</g>
</g>
<!-- Node3&#45;&gt;Node10 -->
<g id="edge9" class="edge">
<title>Node3&#45;&gt;Node10</title>
<path fill="none" stroke="midnightblue" d="M808,-369.48C808,-361.08 808,-347.98 808,-337.16"/>
<polygon fill="midnightblue" stroke="midnightblue" points="811.5,-337.01 808,-327.01 804.5,-337.01 811.5,-337.01"/>
</g>
<!-- Node22 -->
<g id="node22" class="node">
<title>Node22</title>
<g id="a_node22"><a xlink:href="blit__serialiser_8h.html" target="_top" xlink:title=" ">
<polygon fill="white" stroke="black" points="390.5,-302.5 390.5,-332.5 489.5,-332.5 489.5,-302.5 390.5,-302.5"/>
<text text-anchor="start" x="398.5" y="-320.5" font-family="Helvetica,sans-Serif" font-size="10.00">ccf/kv/serialisers</text>
<text text-anchor="middle" x="440" y="-309.5" font-family="Helvetica,sans-Serif" font-size="10.00">/blit_serialiser.h</text>
</a>
</g>
</g>
<!-- Node3&#45;&gt;Node22 -->
<g id="edge24" class="edge">
<title>Node3&#45;&gt;Node22</title>
<path fill="none" stroke="midnightblue" d="M767.65,-373.46C710.14,-366.7 601.13,-352.83 499.42,-333.17"/>
<polygon fill="midnightblue" stroke="midnightblue" points="500.09,-329.73 489.6,-331.25 498.74,-336.6 500.09,-329.73"/>
</g>
<!-- Node29 -->
<g id="node29" class="node">
<title>Node29</title>
<g id="a_node29"><a xlink:href="json__serialiser_8h.html" target="_top" xlink:title=" ">
<polygon fill="white" stroke="black" points="923.5,-302.5 923.5,-332.5 1022.5,-332.5 1022.5,-302.5 923.5,-302.5"/>
<text text-anchor="start" x="931.5" y="-320.5" font-family="Helvetica,sans-Serif" font-size="10.00">ccf/kv/serialisers</text>
<text text-anchor="middle" x="973" y="-309.5" font-family="Helvetica,sans-Serif" font-size="10.00">/json_serialiser.h</text>
</a>
</g>
</g>
<!-- Node3&#45;&gt;Node29 -->
<g id="edge34" class="edge">
<title>Node3&#45;&gt;Node29</title>
<path fill="none" stroke="midnightblue" d="M831.64,-369.48C855.76,-360.78 893.89,-347.03 924.48,-336"/>
<polygon fill="midnightblue" stroke="midnightblue" points="925.89,-339.21 934.11,-332.52 923.52,-332.62 925.89,-339.21"/>
</g>
<!-- Node31 -->
<g id="node31" class="node">
<title>Node31</title>
<g id="a_node31"><a xlink:href="untyped_8h.html" target="_top" xlink:title=" ">
<polygon fill="white" stroke="black" points="633,-308 633,-327 731,-327 731,-308 633,-308"/>
<text text-anchor="middle" x="682" y="-315" font-family="Helvetica,sans-Serif" font-size="10.00">ccf/kv/untyped.h</text>
</a>
</g>
</g>
<!-- Node3&#45;&gt;Node31 -->
<g id="edge37" class="edge">
<title>Node3&#45;&gt;Node31</title>
<path fill="none" stroke="midnightblue" d="M789.95,-369.48C768.8,-359.49 733.56,-342.85 709.12,-331.31"/>
<polygon fill="midnightblue" stroke="midnightblue" points="710.56,-328.11 700.02,-327.01 707.57,-334.44 710.56,-328.11"/>
</g>
<!-- Node5 -->
<g id="node5" class="node">
<title>Node5</title>
<g id="a_node5"><a xlink:title=" ">
<polygon fill="white" stroke="#bfbfbf" points="471,-174 471,-193 515,-193 515,-174 471,-174"/>
<text text-anchor="middle" x="493" y="-181" font-family="Helvetica,sans-Serif" font-size="10.00">string</text>
</a>
</g>
</g>
<!-- Node4&#45;&gt;Node5 -->
<g id="edge4" class="edge">
<title>Node4&#45;&gt;Node5</title>
<path fill="none" stroke="midnightblue" d="M556.54,-307.84C545.54,-286.49 516.94,-230.98 502.15,-202.27"/>
<polygon fill="midnightblue" stroke="midnightblue" points="505.08,-200.31 497.39,-193.02 498.86,-203.51 505.08,-200.31"/>
</g>
<!-- Node7 -->
<g id="node7" class="node">
<title>Node7</title>
<g id="a_node7"><a xlink:href="version_8h.html" target="_top" xlink:title=" ">
<polygon fill="white" stroke="black" points="885,-174 885,-193 979,-193 979,-174 885,-174"/>
<text text-anchor="middle" x="932" y="-181" font-family="Helvetica,sans-Serif" font-size="10.00">ccf/kv/version.h</text>
</a>
</g>
</g>
<!-- Node6&#45;&gt;Node7 -->
<g id="edge6" class="edge">
<title>Node6&#45;&gt;Node7</title>
<path fill="none" stroke="midnightblue" d="M932,-240.73C932,-231.18 932,-215.62 932,-203.28"/>
<polygon fill="midnightblue" stroke="midnightblue" points="935.5,-203.13 932,-193.13 928.5,-203.13 935.5,-203.13"/>
</g>
<!-- Node8 -->
<g id="node8" class="node">
<title>Node8</title>
<g id="a_node8"><a xlink:title=" ">
<polygon fill="white" stroke="#bfbfbf" points="997.5,-174 997.5,-193 1062.5,-193 1062.5,-174 997.5,-174"/>
<text text-anchor="middle" x="1030" y="-181" font-family="Helvetica,sans-Serif" font-size="10.00">functional</text>
</a>
</g>
</g>
<!-- Node6&#45;&gt;Node8 -->
<g id="edge7" class="edge">
<title>Node6&#45;&gt;Node8</title>
<path fill="none" stroke="midnightblue" d="M945.22,-240.73C961.45,-229.96 989.22,-211.55 1008.53,-198.74"/>
<polygon fill="midnightblue" stroke="midnightblue" points="1010.59,-201.57 1016.99,-193.13 1006.72,-195.74 1010.59,-201.57"/>
</g>
<!-- Node9 -->
<g id="node9" class="node">
<title>Node9</title>
<g id="a_node9"><a xlink:title=" ">
<polygon fill="white" stroke="#bfbfbf" points="1081,-174 1081,-193 1139,-193 1139,-174 1081,-174"/>
<text text-anchor="middle" x="1110" y="-181" font-family="Helvetica,sans-Serif" font-size="10.00">memory</text>
</a>
</g>
</g>
<!-- Node6&#45;&gt;Node9 -->
<g id="edge8" class="edge">
<title>Node6&#45;&gt;Node9</title>
<path fill="none" stroke="midnightblue" d="M955.63,-240.98C983.3,-230.98 1030.51,-213.88 1071,-199 1073.09,-198.23 1075.25,-197.44 1077.42,-196.63"/>
<polygon fill="midnightblue" stroke="midnightblue" points="1078.75,-199.87 1086.91,-193.12 1076.32,-193.31 1078.75,-199.87"/>
</g>
<!-- Node11 -->
<g id="node11" class="node">
<title>Node11</title>
<g id="a_node11"><a xlink:href="untyped__map__handle_8h.html" target="_top" xlink:title=" ">
<polygon fill="white" stroke="black" points="749,-235.5 749,-265.5 865,-265.5 865,-235.5 749,-235.5"/>
<text text-anchor="start" x="757" y="-253.5" font-family="Helvetica,sans-Serif" font-size="10.00">ccf/kv/untyped_map</text>
<text text-anchor="middle" x="807" y="-242.5" font-family="Helvetica,sans-Serif" font-size="10.00">_handle.h</text>
</a>
</g>
</g>
<!-- Node10&#45;&gt;Node11 -->
<g id="edge10" class="edge">
<title>Node10&#45;&gt;Node11</title>
<path fill="none" stroke="midnightblue" d="M807.87,-307.73C807.74,-299.54 807.54,-286.92 807.37,-275.71"/>
<polygon fill="midnightblue" stroke="midnightblue" points="810.87,-275.53 807.22,-265.59 803.87,-275.64 810.87,-275.53"/>
</g>
<!-- Node11&#45;&gt;Node5 -->
<g id="edge23" class="edge">
<title>Node11&#45;&gt;Node5</title>
<path fill="none" stroke="midnightblue" d="M748.75,-243.61C690.78,-236.7 599.76,-223.02 524,-199 522.33,-198.47 520.62,-197.87 518.93,-197.22"/>
<polygon fill="midnightblue" stroke="midnightblue" points="519.98,-193.86 509.41,-193.15 517.23,-200.3 519.98,-193.86"/>
</g>
<!-- Node11&#45;&gt;Node7 -->
<g id="edge20" class="edge">
<title>Node11&#45;&gt;Node7</title>
<path fill="none" stroke="midnightblue" d="M834.12,-235.4C855.67,-224.19 885.57,-208.64 906.64,-197.69"/>
<polygon fill="midnightblue" stroke="midnightblue" points="908.38,-200.73 915.64,-193.01 905.15,-194.52 908.38,-200.73"/>
</g>
<!-- Node11&#45;&gt;Node8 -->
<g id="edge21" class="edge">
<title>Node11&#45;&gt;Node8</title>
<path fill="none" stroke="midnightblue" d="M860.71,-235.43C896.85,-225.73 945.49,-212.26 988,-199 990.76,-198.14 993.62,-197.22 996.48,-196.28"/>
<polygon fill="midnightblue" stroke="midnightblue" points="997.74,-199.54 1006.1,-193.03 995.5,-192.91 997.74,-199.54"/>
</g>
<!-- Node12 -->
<g id="node12" class="node">
<title>Node12</title>
<g id="a_node12"><a xlink:href="abstract__handle_8h.html" target="_top" xlink:title=" ">
<polygon fill="white" stroke="black" points="731,-174 731,-193 867,-193 867,-174 731,-174"/>
<text text-anchor="middle" x="799" y="-181" font-family="Helvetica,sans-Serif" font-size="10.00">ccf/kv/abstract_handle.h</text>
</a>
</g>
</g>
<!-- Node11&#45;&gt;Node12 -->
<g id="edge11" class="edge">
<title>Node11&#45;&gt;Node12</title>
<path fill="none" stroke="midnightblue" d="M805.26,-235.4C804.1,-225.96 802.56,-213.45 801.3,-203.19"/>
<polygon fill="midnightblue" stroke="midnightblue" points="804.77,-202.69 800.07,-193.19 797.82,-203.55 804.77,-202.69"/>
</g>
<!-- Node11&#45;&gt;Node13 -->
<g id="edge12" class="edge">
<title>Node11&#45;&gt;Node13</title>
<path fill="none" stroke="midnightblue" d="M759.32,-235.48C725.45,-225.51 679.79,-212.09 643.84,-201.51"/>
<polygon fill="midnightblue" stroke="midnightblue" points="644.56,-198.07 633.98,-198.61 642.58,-204.79 644.56,-198.07"/>
</g>
<!-- Node21 -->
<g id="node21" class="node">
<title>Node21</title>
<g id="a_node21"><a xlink:title=" ">
<polygon fill="white" stroke="#bfbfbf" points="657,-174 657,-193 713,-193 713,-174 657,-174"/>
<text text-anchor="middle" x="685" y="-181" font-family="Helvetica,sans-Serif" font-size="10.00">optional</text>
</a>
</g>
</g>
<!-- Node11&#45;&gt;Node21 -->
<g id="edge22" class="edge">
<title>Node11&#45;&gt;Node21</title>
<path fill="none" stroke="midnightblue" d="M780.53,-235.4C759.6,-224.24 730.57,-208.78 710.03,-197.83"/>
<polygon fill="midnightblue" stroke="midnightblue" points="711.44,-194.62 700.97,-193.01 708.15,-200.8 711.44,-194.62"/>
</g>
<!-- Node14 -->
<g id="node14" class="node">
<title>Node14</title>
<g id="a_node14"><a xlink:href="byte__vector_8h.html" target="_top" xlink:title=" ">
<polygon fill="white" stroke="black" points="564,-112.5 564,-131.5 664,-131.5 664,-112.5 564,-112.5"/>
<text text-anchor="middle" x="614" y="-119.5" font-family="Helvetica,sans-Serif" font-size="10.00">ccf/byte_vector.h</text>
</a>
</g>
</g>
<!-- Node13&#45;&gt;Node14 -->
<g id="edge13" class="edge">
<title>Node13&#45;&gt;Node14</title>
<path fill="none" stroke="midnightblue" d="M592.64,-168.4C596.54,-160.11 601.5,-149.55 605.67,-140.71"/>
<polygon fill="midnightblue" stroke="midnightblue" points="608.83,-142.2 609.93,-131.66 602.5,-139.22 608.83,-142.2"/>
</g>
<!-- Node15 -->
<g id="node15" class="node">
<title>Node15</title>
<g id="a_node15"><a xlink:href="siphash_8h.html" target="_top" xlink:title=" ">
<polygon fill="white" stroke="black" points="454.5,-56.5 454.5,-75.5 549.5,-75.5 549.5,-56.5 454.5,-56.5"/>
<text text-anchor="middle" x="502" y="-63.5" font-family="Helvetica,sans-Serif" font-size="10.00">ccf/ds/siphash.h</text>
</a>
</g>
</g>
<!-- Node14&#45;&gt;Node15 -->
<g id="edge14" class="edge">
<title>Node14&#45;&gt;Node15</title>
<path fill="none" stroke="midnightblue" d="M596.01,-112.32C577.96,-103.62 549.95,-90.12 529.2,-80.11"/>
<polygon fill="midnightblue" stroke="midnightblue" points="530.48,-76.84 519.95,-75.65 527.44,-83.15 530.48,-76.84"/>
</g>
<!-- Node19 -->
<g id="node19" class="node">
<title>Node19</title>
<g id="a_node19"><a xlink:title=" ">
<polygon fill="white" stroke="#bfbfbf" points="734.5,-56.5 734.5,-75.5 813.5,-75.5 813.5,-56.5 734.5,-56.5"/>
<text text-anchor="middle" x="774" y="-63.5" font-family="Helvetica,sans-Serif" font-size="10.00">fmt/format.h</text>
</a>
</g>
</g>
<!-- Node14&#45;&gt;Node19 -->
<g id="edge18" class="edge">
<title>Node14&#45;&gt;Node19</title>
<path fill="none" stroke="midnightblue" d="M639.35,-112.44C666.27,-103.36 709,-88.94 739.09,-78.78"/>
<polygon fill="midnightblue" stroke="midnightblue" points="740.41,-82.03 748.77,-75.52 738.17,-75.4 740.41,-82.03"/>
</g>
<!-- Node20 -->
<g id="node20" class="node">
<title>Node20</title>
<g id="a_node20"><a xlink:title=" ">
<polygon fill="white" stroke="#bfbfbf" points="567.5,-56.5 567.5,-75.5 716.5,-75.5 716.5,-56.5 567.5,-56.5"/>
<text text-anchor="middle" x="642" y="-63.5" font-family="Helvetica,sans-Serif" font-size="10.00">small_vector/SmallVector.h</text>
</a>
</g>
</g>
<!-- Node14&#45;&gt;Node20 -->
<g id="edge19" class="edge">
<title>Node14&#45;&gt;Node20</title>
<path fill="none" stroke="midnightblue" d="M618.62,-112.08C622.46,-104.69 628.02,-93.95 632.76,-84.81"/>
<polygon fill="midnightblue" stroke="midnightblue" points="635.97,-86.24 637.46,-75.75 629.75,-83.02 635.97,-86.24"/>
</g>
<!-- Node16 -->
<g id="node16" class="node">
<title>Node16</title>
<g id="a_node16"><a xlink:title=" ">
<polygon fill="white" stroke="#bfbfbf" points="471.5,-0.5 471.5,-19.5 524.5,-19.5 524.5,-0.5 471.5,-0.5"/>
<text text-anchor="middle" x="498" y="-7.5" font-family="Helvetica,sans-Serif" font-size="10.00">cstddef</text>
</a>
</g>
</g>
<!-- Node15&#45;&gt;Node16 -->
<g id="edge15" class="edge">
<title>Node15&#45;&gt;Node16</title>
<path fill="none" stroke="midnightblue" d="M501.34,-56.08C500.82,-49.01 500.06,-38.86 499.41,-29.99"/>
<polygon fill="midnightblue" stroke="midnightblue" points="502.88,-29.47 498.65,-19.75 495.9,-29.98 502.88,-29.47"/>
</g>
<!-- Node17 -->
<g id="node17" class="node">
<title>Node17</title>
<g id="a_node17"><a xlink:title=" ">
<polygon fill="white" stroke="#bfbfbf" points="543,-0.5 543,-19.5 593,-19.5 593,-0.5 543,-0.5"/>
<text text-anchor="middle" x="568" y="-7.5" font-family="Helvetica,sans-Serif" font-size="10.00">cstdint</text>
</a>
</g>
</g>
<!-- Node15&#45;&gt;Node17 -->
<g id="edge16" class="edge">
<title>Node15&#45;&gt;Node17</title>
<path fill="none" stroke="midnightblue" d="M512.6,-56.32C522.46,-48.26 537.35,-36.08 549.22,-26.37"/>
<polygon fill="midnightblue" stroke="midnightblue" points="551.68,-28.88 557.2,-19.83 547.25,-23.46 551.68,-28.88"/>
</g>
<!-- Node15&#45;&gt;Node18 -->
<g id="edge17" class="edge">
<title>Node15&#45;&gt;Node18</title>
<path fill="none" stroke="midnightblue" d="M489.79,-56.32C478.22,-48.11 460.62,-35.6 446.84,-25.81"/>
<polygon fill="midnightblue" stroke="midnightblue" points="448.61,-22.77 438.43,-19.83 444.56,-28.48 448.61,-22.77"/>
</g>
<!-- Node22&#45;&gt;Node13 -->
<g id="edge33" class="edge">
<title>Node22&#45;&gt;Node13</title>
<path fill="none" stroke="midnightblue" d="M455.62,-302.37C481.42,-279.05 533.04,-232.38 563.01,-205.29"/>
<polygon fill="midnightblue" stroke="midnightblue" points="565.42,-207.83 570.49,-198.52 560.72,-202.64 565.42,-207.83"/>
</g>
<!-- Node23 -->
<g id="node23" class="node">
<title>Node23</title>
<g id="a_node23"><a xlink:href="nonstd_8h.html" target="_top" xlink:title=" ">
<polygon fill="white" stroke="black" points="244,-241 244,-260 334,-260 334,-241 244,-241"/>
<text text-anchor="middle" x="289" y="-248" font-family="Helvetica,sans-Serif" font-size="10.00">ccf/ds/nonstd.h</text>
</a>
</g>
</g>
<!-- Node22&#45;&gt;Node23 -->
<g id="edge25" class="edge">
<title>Node22&#45;&gt;Node23</title>
<path fill="none" stroke="midnightblue" d="M407.24,-302.4C380.74,-290.99 343.78,-275.08 318.27,-264.1"/>
<polygon fill="midnightblue" stroke="midnightblue" points="319.33,-260.75 308.76,-260.01 316.56,-267.18 319.33,-260.75"/>
</g>
<!-- Node23&#45;&gt;Node5 -->
<g id="edge29" class="edge">
<title>Node23&#45;&gt;Node5</title>
<path fill="none" stroke="midnightblue" d="M316.09,-240.87C353.58,-228.92 421.16,-207.39 461.06,-194.68"/>
<polygon fill="midnightblue" stroke="midnightblue" points="462.35,-197.94 470.81,-191.57 460.22,-191.27 462.35,-197.94"/>
</g>
<!-- Node23&#45;&gt;Node18 -->
<g id="edge32" class="edge">
<title>Node23&#45;&gt;Node18</title>
<path fill="none" stroke="midnightblue" d="M317.6,-240.96C348.84,-231.02 395.95,-214.04 407,-199 444.68,-147.71 436.16,-66.19 429.83,-29.71"/>
<polygon fill="midnightblue" stroke="midnightblue" points="433.2,-28.73 427.91,-19.55 426.32,-30.02 433.2,-28.73"/>
</g>
<!-- Node24 -->
<g id="node24" class="node">
<title>Node24</title>
<g id="a_node24"><a xlink:title=" ">
<polygon fill="white" stroke="#bfbfbf" points="274,-174 274,-193 338,-193 338,-174 274,-174"/>
<text text-anchor="middle" x="306" y="-181" font-family="Helvetica,sans-Serif" font-size="10.00">algorithm</text>
</a>
</g>
</g>
<!-- Node23&#45;&gt;Node24 -->
<g id="edge26" class="edge">
<title>Node23&#45;&gt;Node24</title>
<path fill="none" stroke="midnightblue" d="M291.29,-240.73C293.82,-231.09 297.94,-215.3 301.19,-202.91"/>
<polygon fill="midnightblue" stroke="midnightblue" points="304.6,-203.69 303.74,-193.13 297.83,-201.92 304.6,-203.69"/>
</g>
<!-- Node25 -->
<g id="node25" class="node">
<title>Node25</title>
<g id="a_node25"><a xlink:title=" ">
<polygon fill="white" stroke="#bfbfbf" points="356,-174 356,-193 398,-193 398,-174 356,-174"/>
<text text-anchor="middle" x="377" y="-181" font-family="Helvetica,sans-Serif" font-size="10.00">array</text>
</a>
</g>
</g>
<!-- Node23&#45;&gt;Node25 -->
<g id="edge27" class="edge">
<title>Node23&#45;&gt;Node25</title>
<path fill="none" stroke="midnightblue" d="M300.87,-240.73C315.25,-230.11 339.7,-212.05 357.01,-199.26"/>
<polygon fill="midnightblue" stroke="midnightblue" points="359.36,-201.88 365.32,-193.13 355.2,-196.25 359.36,-201.88"/>
</g>
<!-- Node26 -->
<g id="node26" class="node">
<title>Node26</title>
<g id="a_node26"><a xlink:title=" ">
<polygon fill="white" stroke="#bfbfbf" points="28.5,-174 28.5,-193 77.5,-193 77.5,-174 28.5,-174"/>
<text text-anchor="middle" x="53" y="-181" font-family="Helvetica,sans-Serif" font-size="10.00">cctype</text>
</a>
</g>
</g>
<!-- Node23&#45;&gt;Node26 -->
<g id="edge28" class="edge">
<title>Node23&#45;&gt;Node26</title>
<path fill="none" stroke="midnightblue" d="M245.61,-240.95C204.09,-232.24 139.96,-217.42 86,-199 84.13,-198.36 82.23,-197.66 80.32,-196.93"/>
<polygon fill="midnightblue" stroke="midnightblue" points="81.51,-193.63 70.94,-193.04 78.84,-200.1 81.51,-193.63"/>
</g>
<!-- Node27 -->
<g id="node27" class="node">
<title>Node27</title>
<g id="a_node27"><a xlink:title=" ">
<polygon fill="white" stroke="#bfbfbf" points="95.5,-174 95.5,-193 168.5,-193 168.5,-174 95.5,-174"/>
<text text-anchor="middle" x="132" y="-181" font-family="Helvetica,sans-Serif" font-size="10.00">string_view</text>
</a>
</g>
</g>
<!-- Node23&#45;&gt;Node27 -->
<g id="edge30" class="edge">
<title>Node23&#45;&gt;Node27</title>
<path fill="none" stroke="midnightblue" d="M268.15,-240.87C241.06,-229.65 193.54,-209.98 162.42,-197.09"/>
<polygon fill="midnightblue" stroke="midnightblue" points="163.51,-193.76 152.93,-193.17 160.84,-200.23 163.51,-193.76"/>
</g>
<!-- Node28 -->
<g id="node28" class="node">
<title>Node28</title>
<g id="a_node28"><a xlink:title=" ">
<polygon fill="white" stroke="#bfbfbf" points="186.5,-174 186.5,-193 255.5,-193 255.5,-174 186.5,-174"/>
<text text-anchor="middle" x="221" y="-181" font-family="Helvetica,sans-Serif" font-size="10.00">type_traits</text>
</a>
</g>
</g>
<!-- Node23&#45;&gt;Node28 -->
<g id="edge31" class="edge">
<title>Node23&#45;&gt;Node28</title>
<path fill="none" stroke="midnightblue" d="M279.83,-240.73C269.02,-230.4 250.85,-213.04 237.56,-200.33"/>
<polygon fill="midnightblue" stroke="midnightblue" points="239.67,-197.51 230.03,-193.13 234.84,-202.57 239.67,-197.51"/>
</g>
<!-- Node29&#45;&gt;Node13 -->
<g id="edge35" class="edge">
<title>Node29&#45;&gt;Node13</title>
<path fill="none" stroke="midnightblue" d="M923.26,-309.75C875.32,-302.32 801.24,-288.36 740,-266 695.19,-249.64 647.16,-222.51 616.87,-204.09"/>
<polygon fill="midnightblue" stroke="midnightblue" points="618.41,-200.93 608.06,-198.67 614.75,-206.89 618.41,-200.93"/>
</g>
<!-- Node29&#45;&gt;Node30 -->
<g id="edge36" class="edge">
<title>Node29&#45;&gt;Node30</title>
<path fill="none" stroke="midnightblue" d="M989.71,-302.4C1002.19,-291.86 1019.23,-277.48 1032.01,-266.69"/>
<polygon fill="midnightblue" stroke="midnightblue" points="1034.32,-269.32 1039.7,-260.19 1029.8,-263.97 1034.32,-269.32"/>
</g>
<!-- Node31&#45;&gt;Node6 -->
<g id="edge38" class="edge">
<title>Node31&#45;&gt;Node6</title>
<path fill="none" stroke="midnightblue" d="M714.94,-307.94C759.72,-296.29 839.87,-275.45 889.24,-262.62"/>
<polygon fill="midnightblue" stroke="midnightblue" points="890.19,-265.99 898.99,-260.08 888.43,-259.21 890.19,-265.99"/>
</g>
<!-- Node31&#45;&gt;Node13 -->
<g id="edge39" class="edge">
<title>Node31&#45;&gt;Node13</title>
<path fill="none" stroke="midnightblue" d="M676.3,-307.8C666.39,-292.75 645.17,-260.97 626,-235 619.05,-225.59 611.11,-215.44 604.14,-206.73"/>
<polygon fill="midnightblue" stroke="midnightblue" points="606.82,-204.47 597.82,-198.88 601.37,-208.87 606.82,-204.47"/>
</g>
<!-- Node31&#45;&gt;Node21 -->
<g id="edge41" class="edge">
<title>Node31&#45;&gt;Node21</title>
<path fill="none" stroke="midnightblue" d="M682.2,-307.84C682.68,-286.67 683.92,-231.95 684.58,-203.03"/>
<polygon fill="midnightblue" stroke="midnightblue" points="688.08,-203.1 684.81,-193.02 681.08,-202.94 688.08,-203.1"/>
</g>
<!-- Node32 -->
<g id="node32" class="node">
<title>Node32</title>
<g id="a_node32"><a xlink:title=" ">
<polygon fill="white" stroke="#bfbfbf" points="579,-241 579,-260 617,-260 617,-241 579,-241"/>
<text text-anchor="middle" x="598" y="-248" font-family="Helvetica,sans-Serif" font-size="10.00">map</text>
</a>
</g>
</g>
<!-- Node31&#45;&gt;Node32 -->
<g id="edge40" class="edge">
<title>Node31&#45;&gt;Node32</title>
<path fill="none" stroke="midnightblue" d="M670.67,-307.73C656.94,-297.11 633.6,-279.05 617.08,-266.26"/>
<polygon fill="midnightblue" stroke="midnightblue" points="619.2,-263.48 609.15,-260.13 614.92,-269.02 619.2,-263.48"/>
</g>
</g>
</svg>
