<?xml version="1.0" encoding="UTF-8" standalone="no"?>
<!DOCTYPE svg PUBLIC "-//W3C//DTD SVG 1.1//EN"
 "http://www.w3.org/Graphics/SVG/1.1/DTD/svg11.dtd">
<!-- Generated by graphviz version 2.43.0 (0)
 -->
<!-- Title: src/node/tx_receipt.h Pages: 1 -->
<svg width="615pt" height="408pt"
 viewBox="0.00 0.00 614.50 408.00" xmlns="http://www.w3.org/2000/svg" xmlns:xlink="http://www.w3.org/1999/xlink">
<g id="graph0" class="graph" transform="scale(1 1) rotate(0) translate(4 404)">
<title>src/node/tx_receipt.h</title>
<polygon fill="white" stroke="transparent" points="-4,4 -4,-404 610.5,-404 610.5,4 -4,4"/>
<!-- Node1 -->
<g id="node1" class="node">
<title>Node1</title>
<g id="a_node1"><a xlink:title=" ">
<polygon fill="#bfbfbf" stroke="black" points="257,-380.5 257,-399.5 376,-399.5 376,-380.5 257,-380.5"/>
<text text-anchor="middle" x="316.5" y="-387.5" font-family="Helvetica,sans-Serif" font-size="10.00">src/node/tx_receipt.h</text>
</a>
</g>
</g>
<!-- Node2 -->
<g id="node2" class="node">
<title>Node2</title>
<g id="a_node2"><a xlink:href="src_2apps_2js__v8_2tmpl_2receipt_8h.html" target="_top" xlink:title=" ">
<polygon fill="white" stroke="black" points="133,-313.5 133,-343.5 244,-343.5 244,-313.5 133,-313.5"/>
<text text-anchor="start" x="141" y="-331.5" font-family="Helvetica,sans-Serif" font-size="10.00">src/apps/js_v8/tmpl</text>
<text text-anchor="middle" x="188.5" y="-320.5" font-family="Helvetica,sans-Serif" font-size="10.00">/receipt.h</text>
</a>
</g>
</g>
<!-- Node1&#45;&gt;Node2 -->
<g id="edge1" class="edge">
<title>Node1&#45;&gt;Node2</title>
<path fill="none" stroke="midnightblue" d="M288.96,-376.2C268.28,-366.58 239.96,-353.42 218.67,-343.52"/>
<polygon fill="midnightblue" stroke="midnightblue" points="287.62,-379.43 298.16,-380.48 290.57,-373.09 287.62,-379.43"/>
</g>
<!-- Node5 -->
<g id="node5" class="node">
<title>Node5</title>
<g id="a_node5"><a xlink:href="historical__queries_8h.html" target="_top" xlink:title=" ">
<polygon fill="white" stroke="black" points="219.5,-179.5 219.5,-209.5 325.5,-209.5 325.5,-179.5 219.5,-179.5"/>
<text text-anchor="start" x="227.5" y="-197.5" font-family="Helvetica,sans-Serif" font-size="10.00">src/node/historical</text>
<text text-anchor="middle" x="272.5" y="-186.5" font-family="Helvetica,sans-Serif" font-size="10.00">_queries.h</text>
</a>
</g>
</g>
<!-- Node1&#45;&gt;Node5 -->
<g id="edge4" class="edge">
<title>Node1&#45;&gt;Node5</title>
<path fill="none" stroke="midnightblue" d="M305.02,-371.97C300.08,-363.84 294.71,-353.77 291.5,-344 275.94,-296.59 273.03,-236.76 272.55,-209.81"/>
<polygon fill="midnightblue" stroke="midnightblue" points="302.13,-373.96 310.47,-380.49 308.03,-370.18 302.13,-373.96"/>
</g>
<!-- Node9 -->
<g id="node9" class="node">
<title>Node9</title>
<g id="a_node9"><a xlink:href="historical__queries__adapter_8cpp.html" target="_top" xlink:title=" ">
<polygon fill="white" stroke="black" points="300.5,-313.5 300.5,-343.5 420.5,-343.5 420.5,-313.5 300.5,-313.5"/>
<text text-anchor="start" x="308.5" y="-331.5" font-family="Helvetica,sans-Serif" font-size="10.00">src/node/historical</text>
<text text-anchor="middle" x="360.5" y="-320.5" font-family="Helvetica,sans-Serif" font-size="10.00">_queries_adapter.cpp</text>
</a>
</g>
</g>
<!-- Node1&#45;&gt;Node9 -->
<g id="edge9" class="edge">
<title>Node1&#45;&gt;Node9</title>
<path fill="none" stroke="midnightblue" d="M328.89,-372.25C335.59,-363.19 343.77,-352.12 350.13,-343.52"/>
<polygon fill="midnightblue" stroke="midnightblue" points="325.94,-370.35 322.8,-380.48 331.56,-374.52 325.94,-370.35"/>
</g>
<!-- Node10 -->
<g id="node10" class="node">
<title>Node10</title>
<g id="a_node10"><a xlink:href="snapshot__serdes_8h.html" target="_top" xlink:title=" ">
<polygon fill="white" stroke="black" points="438.5,-319 438.5,-338 590.5,-338 590.5,-319 438.5,-319"/>
<text text-anchor="middle" x="514.5" y="-326" font-family="Helvetica,sans-Serif" font-size="10.00">src/node/snapshot_serdes.h</text>
</a>
</g>
</g>
<!-- Node1&#45;&gt;Node10 -->
<g id="edge10" class="edge">
<title>Node1&#45;&gt;Node10</title>
<path fill="none" stroke="midnightblue" d="M354.67,-377.53C393.16,-365.96 451.66,-348.38 486.18,-338.01"/>
<polygon fill="midnightblue" stroke="midnightblue" points="353.44,-374.25 344.87,-380.48 355.45,-380.95 353.44,-374.25"/>
</g>
<!-- Node3 -->
<g id="node3" class="node">
<title>Node3</title>
<g id="a_node3"><a xlink:href="historical__state_8cpp.html" target="_top" xlink:title=" ">
<polygon fill="white" stroke="black" points="0,-246.5 0,-276.5 115,-276.5 115,-246.5 0,-246.5"/>
<text text-anchor="start" x="8" y="-264.5" font-family="Helvetica,sans-Serif" font-size="10.00">src/apps/js_v8/tmpl</text>
<text text-anchor="middle" x="57.5" y="-253.5" font-family="Helvetica,sans-Serif" font-size="10.00">/historical_state.cpp</text>
</a>
</g>
</g>
<!-- Node2&#45;&gt;Node3 -->
<g id="edge2" class="edge">
<title>Node2&#45;&gt;Node3</title>
<path fill="none" stroke="midnightblue" d="M150.92,-308.85C130.21,-298.58 104.91,-286.03 85.87,-276.58"/>
<polygon fill="midnightblue" stroke="midnightblue" points="149.56,-312.09 160.07,-313.4 152.67,-305.82 149.56,-312.09"/>
</g>
<!-- Node4 -->
<g id="node4" class="node">
<title>Node4</title>
<g id="a_node4"><a xlink:href="receipt_8cpp.html" target="_top" xlink:title=" ">
<polygon fill="white" stroke="black" points="133,-246.5 133,-276.5 244,-276.5 244,-246.5 133,-246.5"/>
<text text-anchor="start" x="141" y="-264.5" font-family="Helvetica,sans-Serif" font-size="10.00">src/apps/js_v8/tmpl</text>
<text text-anchor="middle" x="188.5" y="-253.5" font-family="Helvetica,sans-Serif" font-size="10.00">/receipt.cpp</text>
</a>
</g>
</g>
<!-- Node2&#45;&gt;Node4 -->
<g id="edge3" class="edge">
<title>Node2&#45;&gt;Node4</title>
<path fill="none" stroke="midnightblue" d="M188.5,-303.11C188.5,-294.15 188.5,-284.32 188.5,-276.58"/>
<polygon fill="midnightblue" stroke="midnightblue" points="185,-303.4 188.5,-313.4 192,-303.4 185,-303.4"/>
</g>
<!-- Node6 -->
<g id="node6" class="node">
<title>Node6</title>
<g id="a_node6"><a xlink:href="enclave_2enclave_8h.html" target="_top" xlink:title=" ">
<polygon fill="white" stroke="black" points="327.5,-56.5 327.5,-75.5 449.5,-75.5 449.5,-56.5 327.5,-56.5"/>
<text text-anchor="middle" x="388.5" y="-63.5" font-family="Helvetica,sans-Serif" font-size="10.00">src/enclave/enclave.h</text>
</a>
</g>
</g>
<!-- Node5&#45;&gt;Node6 -->
<g id="edge5" class="edge">
<title>Node5&#45;&gt;Node6</title>
<path fill="none" stroke="midnightblue" d="M265.35,-169.42C261.69,-151.97 260.09,-128.61 271.5,-112 284.62,-92.89 307.07,-81.9 328.82,-75.57"/>
<polygon fill="midnightblue" stroke="midnightblue" points="262.02,-170.54 267.8,-179.41 268.82,-168.87 262.02,-170.54"/>
</g>
<!-- Node8 -->
<g id="node8" class="node">
<title>Node8</title>
<g id="a_node8"><a xlink:href="historical__transaction__fetcher_8h.html" target="_top" xlink:title=" ">
<polygon fill="white" stroke="black" points="281,-112.5 281,-142.5 406,-142.5 406,-112.5 281,-112.5"/>
<text text-anchor="start" x="289" y="-130.5" font-family="Helvetica,sans-Serif" font-size="10.00">src/indexing/historical</text>
<text text-anchor="middle" x="343.5" y="-119.5" font-family="Helvetica,sans-Serif" font-size="10.00">_transaction_fetcher.h</text>
</a>
</g>
</g>
<!-- Node5&#45;&gt;Node8 -->
<g id="edge7" class="edge">
<title>Node5&#45;&gt;Node8</title>
<path fill="none" stroke="midnightblue" d="M295.33,-172.6C306.05,-162.78 318.55,-151.34 328.12,-142.58"/>
<polygon fill="midnightblue" stroke="midnightblue" points="292.92,-170.06 287.91,-179.4 297.65,-175.22 292.92,-170.06"/>
</g>
<!-- Node7 -->
<g id="node7" class="node">
<title>Node7</title>
<g id="a_node7"><a xlink:href="enclave_2main_8cpp.html" target="_top" xlink:title=" ">
<polygon fill="white" stroke="black" points="328.5,-0.5 328.5,-19.5 448.5,-19.5 448.5,-0.5 328.5,-0.5"/>
<text text-anchor="middle" x="388.5" y="-7.5" font-family="Helvetica,sans-Serif" font-size="10.00">src/enclave/main.cpp</text>
</a>
</g>
</g>
<!-- Node6&#45;&gt;Node7 -->
<g id="edge6" class="edge">
<title>Node6&#45;&gt;Node7</title>
<path fill="none" stroke="midnightblue" d="M388.5,-45.8C388.5,-36.91 388.5,-26.78 388.5,-19.75"/>
<polygon fill="midnightblue" stroke="midnightblue" points="385,-46.08 388.5,-56.08 392,-46.08 385,-46.08"/>
</g>
<!-- Node8&#45;&gt;Node6 -->
<g id="edge8" class="edge">
<title>Node8&#45;&gt;Node6</title>
<path fill="none" stroke="midnightblue" d="M360.21,-104.4C367.77,-94.41 376.26,-83.18 381.95,-75.66"/>
<polygon fill="midnightblue" stroke="midnightblue" points="357.4,-102.31 354.16,-112.4 362.99,-106.53 357.4,-102.31"/>
</g>
<!-- Node11 -->
<g id="node11" class="node">
<title>Node11</title>
<g id="a_node11"><a xlink:href="snapshotter_8h.html" target="_top" xlink:title=" ">
<polygon fill="white" stroke="black" points="451,-252 451,-271 578,-271 578,-252 451,-252"/>
<text text-anchor="middle" x="514.5" y="-259" font-family="Helvetica,sans-Serif" font-size="10.00">src/node/snapshotter.h</text>
</a>
</g>
</g>
<!-- Node10&#45;&gt;Node11 -->
<g id="edge11" class="edge">
<title>Node10&#45;&gt;Node11</title>
<path fill="none" stroke="midnightblue" d="M514.5,-308.54C514.5,-296.17 514.5,-280.62 514.5,-271.13"/>
<polygon fill="midnightblue" stroke="midnightblue" points="511,-308.73 514.5,-318.73 518,-308.73 511,-308.73"/>
</g>
<!-- Node12 -->
<g id="node12" class="node">
<title>Node12</title>
<g id="a_node12"><a xlink:href="node__state_8h.html" target="_top" xlink:title=" ">
<polygon fill="white" stroke="black" points="452.5,-185 452.5,-204 576.5,-204 576.5,-185 452.5,-185"/>
<text text-anchor="middle" x="514.5" y="-192" font-family="Helvetica,sans-Serif" font-size="10.00">src/node/node_state.h</text>
</a>
</g>
</g>
<!-- Node11&#45;&gt;Node12 -->
<g id="edge12" class="edge">
<title>Node11&#45;&gt;Node12</title>
<path fill="none" stroke="midnightblue" d="M514.5,-241.54C514.5,-229.17 514.5,-213.62 514.5,-204.13"/>
<polygon fill="midnightblue" stroke="midnightblue" points="511,-241.73 514.5,-251.73 518,-241.73 511,-241.73"/>
</g>
<!-- Node12&#45;&gt;Node6 -->
<g id="edge13" class="edge">
<title>Node12&#45;&gt;Node6</title>
<path fill="none" stroke="midnightblue" d="M494.52,-178.39C482.24,-168.75 466.43,-155.73 453.5,-143 430.48,-120.35 406.6,-90.49 395.26,-75.86"/>
<polygon fill="midnightblue" stroke="midnightblue" points="492.7,-181.4 502.75,-184.75 496.98,-175.86 492.7,-181.4"/>
</g>
<!-- Node13 -->
<g id="node13" class="node">
<title>Node13</title>
<g id="a_node13"><a xlink:href="gov__effects_8h.html" target="_top" xlink:title=" ">
<polygon fill="white" stroke="black" points="462.5,-118 462.5,-137 606.5,-137 606.5,-118 462.5,-118"/>
<text text-anchor="middle" x="534.5" y="-125" font-family="Helvetica,sans-Serif" font-size="10.00">src/node/rpc/gov_effects.h</text>
</a>
</g>
</g>
<!-- Node12&#45;&gt;Node13 -->
<g id="edge14" class="edge">
<title>Node12&#45;&gt;Node13</title>
<path fill="none" stroke="midnightblue" d="M520.22,-174.91C524.04,-162.49 528.89,-146.72 531.85,-137.13"/>
<polygon fill="midnightblue" stroke="midnightblue" points="516.79,-174.15 517.2,-184.73 523.48,-176.21 516.79,-174.15"/>
</g>
<!-- Node13&#45;&gt;Node6 -->
<g id="edge15" class="edge">
<title>Node13&#45;&gt;Node6</title>
<path fill="none" stroke="midnightblue" d="M504.15,-114.13C475.79,-102.57 434.19,-85.62 409.38,-75.51"/>
<polygon fill="midnightblue" stroke="midnightblue" points="503,-117.44 513.58,-117.98 505.64,-110.96 503,-117.44"/>
</g>
</g>
</svg>
