<?xml version="1.0" encoding="UTF-8" standalone="no"?>
<!DOCTYPE svg PUBLIC "-//W3C//DTD SVG 1.1//EN"
 "http://www.w3.org/Graphics/SVG/1.1/DTD/svg11.dtd">
<!-- Generated by graphviz version 2.43.0 (0)
 -->
<!-- Title: src/crypto/verifier.cpp Pages: 1 -->
<!--zoomable 599 -->
<svg id="main" version="1.1" xmlns="http://www.w3.org/2000/svg" xmlns:xlink="http://www.w3.org/1999/xlink" xml:space="preserve" onload="init(evt)">
<style type="text/css"><![CDATA[
.edge:hover path { stroke: red; }
.edge:hover polygon { stroke: red; fill: red; }
]]></style>
<script type="text/javascript"><![CDATA[
var edges = document.getElementsByTagName('g');
if (edges && edges.length) {
  for (var i=0;i<edges.length;i++) {
    if (edges[i].id.substr(0,4)=='edge') {
      edges[i].setAttribute('class','edge');
    }
  }
}
]]></script>
        <defs>
                <circle id="rim" cx="0" cy="0" r="7"/>
                <circle id="rim2" cx="0" cy="0" r="3.5"/>
                <g id="zoomPlus">
                        <use xlink:href="#rim" fill="#404040">
                                <set attributeName="fill" to="#808080" begin="zoomplus.mouseover" end="zoomplus.mouseout"/>
                        </use>
                        <path d="M-4,0h8M0,-4v8" fill="none" stroke="white" stroke-width="1.5" pointer-events="none"/>
                </g>
                <g id="zoomMin">
                        <use xlink:href="#rim" fill="#404040">
                                <set attributeName="fill" to="#808080" begin="zoomminus.mouseover" end="zoomminus.mouseout"/>
                        </use>
                        <path d="M-4,0h8" fill="none" stroke="white" stroke-width="1.5" pointer-events="none"/>
                </g>
                <g id="dirArrow">
                        <path fill="none" stroke="white" stroke-width="1.5" d="M0,-3.0v7 M-2.5,-0.5L0,-3.0L2.5,-0.5"/>
                </g>
               <g id="resetDef">
                       <use xlink:href="#rim2" fill="#404040">
                               <set attributeName="fill" to="#808080" begin="reset.mouseover" end="reset.mouseout"/>
                       </use>
               </g>
        </defs>

<script type="text/javascript">
var viewWidth = 2045;
var viewHeight = 599;
var sectionId = 'dynsection-0';
</script>
<script xlink:href="svgpan.js"/>
<svg id="graph" class="graph">
<g id="viewport">
<title>src/crypto/verifier.cpp</title>
<polygon fill="white" stroke="transparent" points="-4,4 -4,-595 2040.57,-595 2040.57,4 -4,4"/>
<!-- Node1 -->
<g id="node1" class="node">
<title>Node1</title>
<g id="a_node1"><a xlink:title=" ">
<polygon fill="#bfbfbf" stroke="black" points="916,-571.5 916,-590.5 1038,-590.5 1038,-571.5 916,-571.5"/>
<text text-anchor="middle" x="977" y="-578.5" font-family="Helvetica,sans-Serif" font-size="10.00">src/crypto/verifier.cpp</text>
</a>
</g>
</g>
<!-- Node2 -->
<g id="node2" class="node">
<title>Node2</title>
<g id="a_node2"><a xlink:href="include_2ccf_2crypto_2verifier_8h.html" target="_top" xlink:title=" ">
<polygon fill="white" stroke="black" points="867,-459.5 867,-478.5 977,-478.5 977,-459.5 867,-459.5"/>
<text text-anchor="middle" x="922" y="-466.5" font-family="Helvetica,sans-Serif" font-size="10.00">ccf/crypto/verifier.h</text>
</a>
</g>
</g>
<!-- Node1&#45;&gt;Node2 -->
<g id="edge1" class="edge">
<title>Node1&#45;&gt;Node2</title>
<path fill="none" stroke="midnightblue" d="M972.28,-571.43C967.36,-562.42 959.46,-547.8 953,-535 945.09,-519.32 936.53,-501.28 930.41,-488.19"/>
<polygon fill="midnightblue" stroke="midnightblue" points="933.48,-486.49 926.09,-478.89 927.13,-489.44 933.48,-486.49"/>
</g>
<!-- Node32 -->
<g id="node32" class="node">
<title>Node32</title>
<g id="a_node32"><a xlink:href="src_2crypto_2openssl_2verifier_8h.html" target="_top" xlink:title=" ">
<polygon fill="white" stroke="black" points="962,-515.5 962,-534.5 1096,-534.5 1096,-515.5 962,-515.5"/>
<text text-anchor="middle" x="1029" y="-522.5" font-family="Helvetica,sans-Serif" font-size="10.00">crypto/openssl/verifier.h</text>
</a>
</g>
</g>
<!-- Node1&#45;&gt;Node32 -->
<g id="edge57" class="edge">
<title>Node1&#45;&gt;Node32</title>
<path fill="none" stroke="midnightblue" d="M985.59,-571.08C993.16,-563.22 1004.38,-551.57 1013.51,-542.08"/>
<polygon fill="midnightblue" stroke="midnightblue" points="1016.16,-544.38 1020.57,-534.75 1011.12,-539.53 1016.16,-544.38"/>
</g>
<!-- Node3 -->
<g id="node3" class="node">
<title>Node3</title>
<g id="a_node3"><a xlink:href="include_2ccf_2crypto_2key__pair_8h.html" target="_top" xlink:title=" ">
<polygon fill="white" stroke="black" points="375.5,-403.5 375.5,-422.5 492.5,-422.5 492.5,-403.5 375.5,-403.5"/>
<text text-anchor="middle" x="434" y="-410.5" font-family="Helvetica,sans-Serif" font-size="10.00">ccf/crypto/key_pair.h</text>
</a>
</g>
</g>
<!-- Node2&#45;&gt;Node3 -->
<g id="edge2" class="edge">
<title>Node2&#45;&gt;Node3</title>
<path fill="none" stroke="midnightblue" d="M866.97,-461.91C777.41,-452 600.34,-432.41 502.68,-421.6"/>
<polygon fill="midnightblue" stroke="midnightblue" points="502.94,-418.11 492.61,-420.49 502.17,-425.06 502.94,-418.11"/>
</g>
<!-- Node22 -->
<g id="node22" class="node">
<title>Node22</title>
<g id="a_node22"><a xlink:href="pem_8h.html" target="_top" xlink:title=" ">
<polygon fill="white" stroke="black" points="873,-280.5 873,-299.5 971,-299.5 971,-280.5 873,-280.5"/>
<text text-anchor="middle" x="922" y="-287.5" font-family="Helvetica,sans-Serif" font-size="10.00">ccf/crypto/pem.h</text>
</a>
</g>
</g>
<!-- Node2&#45;&gt;Node22 -->
<g id="edge55" class="edge">
<title>Node2&#45;&gt;Node22</title>
<path fill="none" stroke="midnightblue" d="M922,-459.46C922,-432.43 922,-348.24 922,-310.11"/>
<polygon fill="midnightblue" stroke="midnightblue" points="925.5,-309.87 922,-299.87 918.5,-309.87 925.5,-309.87"/>
</g>
<!-- Node27 -->
<g id="node27" class="node">
<title>Node27</title>
<g id="a_node27"><a xlink:href="include_2ccf_2crypto_2public__key_8h.html" target="_top" xlink:title=" ">
<polygon fill="white" stroke="black" points="202.5,-342 202.5,-361 329.5,-361 329.5,-342 202.5,-342"/>
<text text-anchor="middle" x="266" y="-349" font-family="Helvetica,sans-Serif" font-size="10.00">ccf/crypto/public_key.h</text>
</a>
</g>
</g>
<!-- Node2&#45;&gt;Node27 -->
<g id="edge56" class="edge">
<title>Node2&#45;&gt;Node27</title>
<path fill="none" stroke="midnightblue" d="M866.9,-467.22C745.19,-464.89 457.06,-455.97 366,-423 332.92,-411.02 300.78,-385.03 282.22,-368.17"/>
<polygon fill="midnightblue" stroke="midnightblue" points="284.39,-365.41 274.69,-361.16 279.62,-370.53 284.39,-365.41"/>
</g>
<!-- Node4 -->
<g id="node4" class="node">
<title>Node4</title>
<g id="a_node4"><a xlink:href="curve_8h.html" target="_top" xlink:title=" ">
<polygon fill="white" stroke="black" points="462,-280.5 462,-299.5 566,-299.5 566,-280.5 462,-280.5"/>
<text text-anchor="middle" x="514" y="-287.5" font-family="Helvetica,sans-Serif" font-size="10.00">ccf/crypto/curve.h</text>
</a>
</g>
</g>
<!-- Node3&#45;&gt;Node4 -->
<g id="edge3" class="edge">
<title>Node3&#45;&gt;Node4</title>
<path fill="none" stroke="midnightblue" d="M439.75,-403.3C452.9,-383.41 485.34,-334.35 502.66,-308.15"/>
<polygon fill="midnightblue" stroke="midnightblue" points="505.7,-309.9 508.3,-299.62 499.86,-306.03 505.7,-309.9"/>
</g>
<!-- Node8 -->
<g id="node8" class="node">
<title>Node8</title>
<g id="a_node8"><a xlink:title=" ">
<polygon fill="white" stroke="#bfbfbf" points="49,-0.5 49,-19.5 93,-19.5 93,-0.5 49,-0.5"/>
<text text-anchor="middle" x="71" y="-7.5" font-family="Helvetica,sans-Serif" font-size="10.00">string</text>
</a>
</g>
</g>
<!-- Node3&#45;&gt;Node8 -->
<g id="edge53" class="edge">
<title>Node3&#45;&gt;Node8</title>
<path fill="none" stroke="midnightblue" d="M375.47,-407.96C257.01,-398.17 0,-368.05 0,-291 0,-291 0,-291 0,-121 0,-82.1 31.73,-46.05 52.77,-26.43"/>
<polygon fill="midnightblue" stroke="midnightblue" points="55.11,-29.02 60.22,-19.74 50.44,-23.81 55.11,-29.02"/>
</g>
<!-- Node9 -->
<g id="node9" class="node">
<title>Node9</title>
<g id="a_node9"><a xlink:title=" ">
<polygon fill="white" stroke="#bfbfbf" points="542.5,-0.5 542.5,-19.5 589.5,-19.5 589.5,-0.5 542.5,-0.5"/>
<text text-anchor="middle" x="566" y="-7.5" font-family="Helvetica,sans-Serif" font-size="10.00">vector</text>
</a>
</g>
</g>
<!-- Node3&#45;&gt;Node9 -->
<g id="edge54" class="edge">
<title>Node3&#45;&gt;Node9</title>
<path fill="none" stroke="midnightblue" d="M492.64,-403.96C591.82,-388.69 782,-351.53 782,-291 782,-291 782,-291 782,-121 782,-88.6 774.37,-76.15 749,-56 705.7,-21.62 639.81,-13.02 600.03,-11.15"/>
<polygon fill="midnightblue" stroke="midnightblue" points="599.91,-7.64 589.79,-10.79 599.66,-14.64 599.91,-7.64"/>
</g>
<!-- Node3&#45;&gt;Node22 -->
<g id="edge28" class="edge">
<title>Node3&#45;&gt;Node22</title>
<path fill="none" stroke="midnightblue" d="M492.74,-412.14C565.78,-410.65 693.36,-402.53 796,-367 837.31,-352.7 879.7,-323.56 903.26,-305.8"/>
<polygon fill="midnightblue" stroke="midnightblue" points="905.53,-308.48 911.33,-299.61 901.26,-302.92 905.53,-308.48"/>
</g>
<!-- Node3&#45;&gt;Node27 -->
<g id="edge36" class="edge">
<title>Node3&#45;&gt;Node27</title>
<path fill="none" stroke="midnightblue" d="M409.93,-403.48C380.99,-393.22 332.24,-375.96 299.6,-364.4"/>
<polygon fill="midnightblue" stroke="midnightblue" points="300.62,-361.05 290.03,-361.01 298.28,-367.65 300.62,-361.05"/>
</g>
<!-- Node29 -->
<g id="node29" class="node">
<title>Node29</title>
<g id="a_node29"><a xlink:href="san_8h.html" target="_top" xlink:title=" ">
<polygon fill="white" stroke="black" points="244,-224.5 244,-243.5 338,-243.5 338,-224.5 244,-224.5"/>
<text text-anchor="middle" x="291" y="-231.5" font-family="Helvetica,sans-Serif" font-size="10.00">ccf/crypto/san.h</text>
</a>
</g>
</g>
<!-- Node3&#45;&gt;Node29 -->
<g id="edge50" class="edge">
<title>Node3&#45;&gt;Node29</title>
<path fill="none" stroke="midnightblue" d="M435.5,-403.43C439,-380.54 445.24,-317.18 415,-280 404.7,-267.33 367.41,-254.82 336.39,-246.22"/>
<polygon fill="midnightblue" stroke="midnightblue" points="337.15,-242.79 326.58,-243.56 335.32,-249.55 337.15,-242.79"/>
</g>
<!-- Node30 -->
<g id="node30" class="node">
<title>Node30</title>
<g id="a_node30"><a xlink:title=" ">
<polygon fill="white" stroke="#bfbfbf" points="282,-280.5 282,-299.5 332,-299.5 332,-280.5 282,-280.5"/>
<text text-anchor="middle" x="307" y="-287.5" font-family="Helvetica,sans-Serif" font-size="10.00">cstdint</text>
</a>
</g>
</g>
<!-- Node3&#45;&gt;Node30 -->
<g id="edge51" class="edge">
<title>Node3&#45;&gt;Node30</title>
<path fill="none" stroke="midnightblue" d="M424.87,-403.3C403.63,-383.07 350.69,-332.62 323.57,-306.79"/>
<polygon fill="midnightblue" stroke="midnightblue" points="325.71,-303.99 316.05,-299.62 320.88,-309.06 325.71,-303.99"/>
</g>
<!-- Node31 -->
<g id="node31" class="node">
<title>Node31</title>
<g id="a_node31"><a xlink:title=" ">
<polygon fill="white" stroke="#bfbfbf" points="350,-280.5 350,-299.5 406,-299.5 406,-280.5 350,-280.5"/>
<text text-anchor="middle" x="378" y="-287.5" font-family="Helvetica,sans-Serif" font-size="10.00">optional</text>
</a>
</g>
</g>
<!-- Node3&#45;&gt;Node31 -->
<g id="edge52" class="edge">
<title>Node3&#45;&gt;Node31</title>
<path fill="none" stroke="midnightblue" d="M429.97,-403.3C420.85,-383.59 398.46,-335.21 386.26,-308.84"/>
<polygon fill="midnightblue" stroke="midnightblue" points="389.37,-307.23 381.99,-299.62 383.01,-310.17 389.37,-307.23"/>
</g>
<!-- Node5 -->
<g id="node5" class="node">
<title>Node5</title>
<g id="a_node5"><a xlink:href="md__type_8h.html" target="_top" xlink:title=" ">
<polygon fill="white" stroke="black" points="558.5,-224.5 558.5,-243.5 677.5,-243.5 677.5,-224.5 558.5,-224.5"/>
<text text-anchor="middle" x="618" y="-231.5" font-family="Helvetica,sans-Serif" font-size="10.00">ccf/crypto/md_type.h</text>
</a>
</g>
</g>
<!-- Node4&#45;&gt;Node5 -->
<g id="edge4" class="edge">
<title>Node4&#45;&gt;Node5</title>
<path fill="none" stroke="midnightblue" d="M530.71,-280.32C547.31,-271.7 573,-258.36 592.22,-248.39"/>
<polygon fill="midnightblue" stroke="midnightblue" points="594.07,-251.37 601.33,-243.65 590.84,-245.16 594.07,-251.37"/>
</g>
<!-- Node6 -->
<g id="node6" class="node">
<title>Node6</title>
<g id="a_node6"><a xlink:href="json_8h.html" target="_top" xlink:title=" ">
<polygon fill="white" stroke="black" points="639.5,-168.5 639.5,-187.5 716.5,-187.5 716.5,-168.5 639.5,-168.5"/>
<text text-anchor="middle" x="678" y="-175.5" font-family="Helvetica,sans-Serif" font-size="10.00">ccf/ds/json.h</text>
</a>
</g>
</g>
<!-- Node4&#45;&gt;Node6 -->
<g id="edge24" class="edge">
<title>Node4&#45;&gt;Node6</title>
<path fill="none" stroke="midnightblue" d="M566.23,-282.47C611.58,-275.59 672.24,-263.09 687,-244 697.32,-230.66 692.69,-211 686.95,-196.8"/>
<polygon fill="midnightblue" stroke="midnightblue" points="690.1,-195.26 682.78,-187.6 683.72,-198.15 690.1,-195.26"/>
</g>
<!-- Node4&#45;&gt;Node8 -->
<g id="edge27" class="edge">
<title>Node4&#45;&gt;Node8</title>
<path fill="none" stroke="midnightblue" d="M494.83,-280.31C464.16,-266.68 401.91,-240.18 347,-224 270.41,-201.44 235.55,-234.98 171,-188 115.4,-147.53 86.51,-66.13 75.87,-29.55"/>
<polygon fill="midnightblue" stroke="midnightblue" points="79.2,-28.43 73.15,-19.73 72.45,-30.3 79.2,-28.43"/>
</g>
<!-- Node17 -->
<g id="node17" class="node">
<title>Node17</title>
<g id="a_node17"><a xlink:title=" ">
<polygon fill="white" stroke="#bfbfbf" points="402.5,-56.5 402.5,-75.5 481.5,-75.5 481.5,-56.5 402.5,-56.5"/>
<text text-anchor="middle" x="442" y="-63.5" font-family="Helvetica,sans-Serif" font-size="10.00">fmt/format.h</text>
</a>
</g>
</g>
<!-- Node4&#45;&gt;Node17 -->
<g id="edge25" class="edge">
<title>Node4&#45;&gt;Node17</title>
<path fill="none" stroke="midnightblue" d="M500.52,-280.4C488.58,-272.23 471.34,-258.98 460,-244 443.55,-222.27 440.68,-214.66 435,-188 427.39,-152.29 433.31,-109.4 437.92,-85.47"/>
<polygon fill="midnightblue" stroke="midnightblue" points="441.36,-86.13 439.95,-75.63 434.5,-84.71 441.36,-86.13"/>
</g>
<!-- Node20 -->
<g id="node20" class="node">
<title>Node20</title>
<g id="a_node20"><a xlink:href="enum__formatter_8h.html" target="_top" xlink:title=" ">
<polygon fill="white" stroke="black" points="444,-168.5 444,-187.5 580,-187.5 580,-168.5 444,-168.5"/>
<text text-anchor="middle" x="512" y="-175.5" font-family="Helvetica,sans-Serif" font-size="10.00">ccf/ds/enum_formatter.h</text>
</a>
</g>
</g>
<!-- Node4&#45;&gt;Node20 -->
<g id="edge22" class="edge">
<title>Node4&#45;&gt;Node20</title>
<path fill="none" stroke="midnightblue" d="M499.92,-280.26C488.65,-272.35 473.65,-259.58 467,-244 459,-225.26 475.42,-206.39 490.62,-193.84"/>
<polygon fill="midnightblue" stroke="midnightblue" points="492.99,-196.44 498.78,-187.57 488.72,-190.89 492.99,-196.44"/>
</g>
<!-- Node21 -->
<g id="node21" class="node">
<title>Node21</title>
<g id="a_node21"><a xlink:title=" ">
<polygon fill="white" stroke="#bfbfbf" points="475.5,-224.5 475.5,-243.5 540.5,-243.5 540.5,-224.5 475.5,-224.5"/>
<text text-anchor="middle" x="508" y="-231.5" font-family="Helvetica,sans-Serif" font-size="10.00">stdexcept</text>
</a>
</g>
</g>
<!-- Node4&#45;&gt;Node21 -->
<g id="edge26" class="edge">
<title>Node4&#45;&gt;Node21</title>
<path fill="none" stroke="midnightblue" d="M513.01,-280.08C512.21,-272.93 511.07,-262.64 510.08,-253.69"/>
<polygon fill="midnightblue" stroke="midnightblue" points="513.56,-253.3 508.97,-243.75 506.6,-254.08 513.56,-253.3"/>
</g>
<!-- Node5&#45;&gt;Node6 -->
<g id="edge5" class="edge">
<title>Node5&#45;&gt;Node6</title>
<path fill="none" stroke="midnightblue" d="M627.64,-224.32C636.51,-216.34 649.87,-204.31 660.61,-194.65"/>
<polygon fill="midnightblue" stroke="midnightblue" points="663.09,-197.13 668.18,-187.83 658.41,-191.92 663.09,-197.13"/>
</g>
<!-- Node7 -->
<g id="node7" class="node">
<title>Node7</title>
<g id="a_node7"><a xlink:href="include_2ccf_2crypto_2base64_8h.html" target="_top" xlink:title=" ">
<polygon fill="white" stroke="black" points="628,-56.5 628,-75.5 740,-75.5 740,-56.5 628,-56.5"/>
<text text-anchor="middle" x="684" y="-63.5" font-family="Helvetica,sans-Serif" font-size="10.00">ccf/crypto/base64.h</text>
</a>
</g>
</g>
<!-- Node6&#45;&gt;Node7 -->
<g id="edge6" class="edge">
<title>Node6&#45;&gt;Node7</title>
<path fill="none" stroke="midnightblue" d="M690.21,-168.24C700.35,-160.14 714.04,-147.11 720,-132 726.89,-114.51 714.27,-95.86 702.12,-83.05"/>
<polygon fill="midnightblue" stroke="midnightblue" points="704.39,-80.38 694.79,-75.89 699.49,-85.38 704.39,-80.38"/>
</g>
<!-- Node10 -->
<g id="node10" class="node">
<title>Node10</title>
<g id="a_node10"><a xlink:href="include_2ccf_2ds_2json__schema_8h.html" target="_top" xlink:title=" ">
<polygon fill="white" stroke="black" points="482.5,-112.5 482.5,-131.5 603.5,-131.5 603.5,-112.5 482.5,-112.5"/>
<text text-anchor="middle" x="543" y="-119.5" font-family="Helvetica,sans-Serif" font-size="10.00">ccf/ds/json_schema.h</text>
</a>
</g>
</g>
<!-- Node6&#45;&gt;Node10 -->
<g id="edge9" class="edge">
<title>Node6&#45;&gt;Node10</title>
<path fill="none" stroke="midnightblue" d="M656.61,-168.44C634.29,-159.52 599.1,-145.44 573.79,-135.32"/>
<polygon fill="midnightblue" stroke="midnightblue" points="574.88,-131.98 564.29,-131.52 572.28,-138.48 574.88,-131.98"/>
</g>
<!-- Node6&#45;&gt;Node17 -->
<g id="edge20" class="edge">
<title>Node6&#45;&gt;Node17</title>
<path fill="none" stroke="midnightblue" d="M682.92,-168.29C689.9,-154.64 700.42,-128.11 687,-112 687,-112 563.43,-89.3 491.81,-76.15"/>
<polygon fill="midnightblue" stroke="midnightblue" points="492.1,-72.64 481.64,-74.28 490.84,-79.53 492.1,-72.64"/>
</g>
<!-- Node19 -->
<g id="node19" class="node">
<title>Node19</title>
<g id="a_node19"><a xlink:title=" ">
<polygon fill="white" stroke="#bfbfbf" points="622,-112.5 622,-131.5 678,-131.5 678,-112.5 622,-112.5"/>
<text text-anchor="middle" x="650" y="-119.5" font-family="Helvetica,sans-Serif" font-size="10.00">sstream</text>
</a>
</g>
</g>
<!-- Node6&#45;&gt;Node19 -->
<g id="edge21" class="edge">
<title>Node6&#45;&gt;Node19</title>
<path fill="none" stroke="midnightblue" d="M673.38,-168.08C669.54,-160.69 663.98,-149.95 659.24,-140.81"/>
<polygon fill="midnightblue" stroke="midnightblue" points="662.25,-139.02 654.54,-131.75 656.03,-142.24 662.25,-139.02"/>
</g>
<!-- Node7&#45;&gt;Node8 -->
<g id="edge7" class="edge">
<title>Node7&#45;&gt;Node8</title>
<path fill="none" stroke="midnightblue" d="M627.66,-56.96C624.73,-56.62 621.83,-56.29 619,-56 393.14,-32.53 330.54,-59.55 103.12,-19.82"/>
<polygon fill="midnightblue" stroke="midnightblue" points="103.67,-16.36 93.22,-18.06 102.45,-23.25 103.67,-16.36"/>
</g>
<!-- Node7&#45;&gt;Node9 -->
<g id="edge8" class="edge">
<title>Node7&#45;&gt;Node9</title>
<path fill="none" stroke="midnightblue" d="M665.3,-56.44C646.06,-47.64 615.85,-33.81 593.8,-23.72"/>
<polygon fill="midnightblue" stroke="midnightblue" points="595.16,-20.5 584.61,-19.52 592.25,-26.86 595.16,-20.5"/>
</g>
<!-- Node11 -->
<g id="node11" class="node">
<title>Node11</title>
<g id="a_node11"><a xlink:href="nonstd_8h.html" target="_top" xlink:title=" ">
<polygon fill="white" stroke="black" points="146,-56.5 146,-75.5 236,-75.5 236,-56.5 146,-56.5"/>
<text text-anchor="middle" x="191" y="-63.5" font-family="Helvetica,sans-Serif" font-size="10.00">ccf/ds/nonstd.h</text>
</a>
</g>
</g>
<!-- Node10&#45;&gt;Node11 -->
<g id="edge10" class="edge">
<title>Node10&#45;&gt;Node11</title>
<path fill="none" stroke="midnightblue" d="M487.22,-112.44C421.26,-102.32 312.12,-85.58 246.34,-75.49"/>
<polygon fill="midnightblue" stroke="midnightblue" points="246.59,-71.99 236.17,-73.93 245.53,-78.91 246.59,-71.99"/>
</g>
<!-- Node10&#45;&gt;Node17 -->
<g id="edge18" class="edge">
<title>Node10&#45;&gt;Node17</title>
<path fill="none" stroke="midnightblue" d="M526.77,-112.32C510.65,-103.7 485.7,-90.36 467.04,-80.39"/>
<polygon fill="midnightblue" stroke="midnightblue" points="468.66,-77.28 458.19,-75.65 465.36,-83.46 468.66,-77.28"/>
</g>
<!-- Node18 -->
<g id="node18" class="node">
<title>Node18</title>
<g id="a_node18"><a xlink:title=" ">
<polygon fill="white" stroke="#bfbfbf" points="500,-56.5 500,-75.5 610,-75.5 610,-56.5 500,-56.5"/>
<text text-anchor="middle" x="555" y="-63.5" font-family="Helvetica,sans-Serif" font-size="10.00">nlohmann/json.hpp</text>
</a>
</g>
</g>
<!-- Node10&#45;&gt;Node18 -->
<g id="edge19" class="edge">
<title>Node10&#45;&gt;Node18</title>
<path fill="none" stroke="midnightblue" d="M544.98,-112.08C546.57,-104.93 548.86,-94.64 550.85,-85.69"/>
<polygon fill="midnightblue" stroke="midnightblue" points="554.3,-86.27 553.06,-75.75 547.47,-84.75 554.3,-86.27"/>
</g>
<!-- Node11&#45;&gt;Node8 -->
<g id="edge14" class="edge">
<title>Node11&#45;&gt;Node8</title>
<path fill="none" stroke="midnightblue" d="M171.99,-56.44C152.41,-47.64 121.69,-33.81 99.27,-23.72"/>
<polygon fill="midnightblue" stroke="midnightblue" points="100.48,-20.43 89.93,-19.52 97.61,-26.81 100.48,-20.43"/>
</g>
<!-- Node11&#45;&gt;Node9 -->
<g id="edge17" class="edge">
<title>Node11&#45;&gt;Node9</title>
<path fill="none" stroke="midnightblue" d="M236.09,-58.07C240.79,-57.37 245.49,-56.67 250,-56 352.7,-40.85 474.32,-23.78 532.16,-15.71"/>
<polygon fill="midnightblue" stroke="midnightblue" points="532.78,-19.15 542.2,-14.31 531.82,-12.22 532.78,-19.15"/>
</g>
<!-- Node12 -->
<g id="node12" class="node">
<title>Node12</title>
<g id="a_node12"><a xlink:title=" ">
<polygon fill="white" stroke="#bfbfbf" points="326,-0.5 326,-19.5 390,-19.5 390,-0.5 326,-0.5"/>
<text text-anchor="middle" x="358" y="-7.5" font-family="Helvetica,sans-Serif" font-size="10.00">algorithm</text>
</a>
</g>
</g>
<!-- Node11&#45;&gt;Node12 -->
<g id="edge11" class="edge">
<title>Node11&#45;&gt;Node12</title>
<path fill="none" stroke="midnightblue" d="M217.46,-56.44C245.68,-47.32 290.54,-32.81 321.97,-22.65"/>
<polygon fill="midnightblue" stroke="midnightblue" points="323.22,-25.92 331.66,-19.52 321.07,-19.26 323.22,-25.92"/>
</g>
<!-- Node13 -->
<g id="node13" class="node">
<title>Node13</title>
<g id="a_node13"><a xlink:title=" ">
<polygon fill="white" stroke="#bfbfbf" points="111,-0.5 111,-19.5 153,-19.5 153,-0.5 111,-0.5"/>
<text text-anchor="middle" x="132" y="-7.5" font-family="Helvetica,sans-Serif" font-size="10.00">array</text>
</a>
</g>
</g>
<!-- Node11&#45;&gt;Node13 -->
<g id="edge12" class="edge">
<title>Node11&#45;&gt;Node13</title>
<path fill="none" stroke="midnightblue" d="M181.52,-56.32C172.8,-48.34 159.66,-36.31 149.1,-26.65"/>
<polygon fill="midnightblue" stroke="midnightblue" points="151.39,-24 141.65,-19.83 146.67,-29.17 151.39,-24"/>
</g>
<!-- Node14 -->
<g id="node14" class="node">
<title>Node14</title>
<g id="a_node14"><a xlink:title=" ">
<polygon fill="white" stroke="#bfbfbf" points="171.5,-0.5 171.5,-19.5 220.5,-19.5 220.5,-0.5 171.5,-0.5"/>
<text text-anchor="middle" x="196" y="-7.5" font-family="Helvetica,sans-Serif" font-size="10.00">cctype</text>
</a>
</g>
</g>
<!-- Node11&#45;&gt;Node14 -->
<g id="edge13" class="edge">
<title>Node11&#45;&gt;Node14</title>
<path fill="none" stroke="midnightblue" d="M191.83,-56.08C192.48,-49.01 193.42,-38.86 194.24,-29.99"/>
<polygon fill="midnightblue" stroke="midnightblue" points="197.75,-30.03 195.19,-19.75 190.78,-29.39 197.75,-30.03"/>
</g>
<!-- Node15 -->
<g id="node15" class="node">
<title>Node15</title>
<g id="a_node15"><a xlink:title=" ">
<polygon fill="white" stroke="#bfbfbf" points="821.5,-0.5 821.5,-19.5 894.5,-19.5 894.5,-0.5 821.5,-0.5"/>
<text text-anchor="middle" x="858" y="-7.5" font-family="Helvetica,sans-Serif" font-size="10.00">string_view</text>
</a>
</g>
</g>
<!-- Node11&#45;&gt;Node15 -->
<g id="edge15" class="edge">
<title>Node11&#45;&gt;Node15</title>
<path fill="none" stroke="midnightblue" d="M236.06,-61.35C357.06,-51.56 688.2,-24.75 811.19,-14.79"/>
<polygon fill="midnightblue" stroke="midnightblue" points="811.72,-18.26 821.41,-13.96 811.16,-11.28 811.72,-18.26"/>
</g>
<!-- Node16 -->
<g id="node16" class="node">
<title>Node16</title>
<g id="a_node16"><a xlink:title=" ">
<polygon fill="white" stroke="#bfbfbf" points="238.5,-0.5 238.5,-19.5 307.5,-19.5 307.5,-0.5 238.5,-0.5"/>
<text text-anchor="middle" x="273" y="-7.5" font-family="Helvetica,sans-Serif" font-size="10.00">type_traits</text>
</a>
</g>
</g>
<!-- Node11&#45;&gt;Node16 -->
<g id="edge16" class="edge">
<title>Node11&#45;&gt;Node16</title>
<path fill="none" stroke="midnightblue" d="M204.17,-56.32C216.85,-47.98 236.23,-35.21 251.21,-25.35"/>
<polygon fill="midnightblue" stroke="midnightblue" points="253.43,-28.08 259.86,-19.65 249.58,-22.23 253.43,-28.08"/>
</g>
<!-- Node20&#45;&gt;Node17 -->
<g id="edge23" class="edge">
<title>Node20&#45;&gt;Node17</title>
<path fill="none" stroke="midnightblue" d="M503.45,-168.21C495.25,-159.49 482.85,-145.52 474,-132 464.22,-117.05 455.44,-98.68 449.56,-85.29"/>
<polygon fill="midnightblue" stroke="midnightblue" points="452.65,-83.6 445.51,-75.78 446.21,-86.35 452.65,-83.6"/>
</g>
<!-- Node22&#45;&gt;Node6 -->
<g id="edge29" class="edge">
<title>Node22&#45;&gt;Node6</title>
<path fill="none" stroke="midnightblue" d="M896.12,-280.47C871.35,-272.05 833.11,-258.38 801,-244 765.58,-228.14 726.17,-206.58 701.73,-192.73"/>
<polygon fill="midnightblue" stroke="midnightblue" points="703.25,-189.57 692.83,-187.65 699.78,-195.65 703.25,-189.57"/>
</g>
<!-- Node22&#45;&gt;Node9 -->
<g id="edge35" class="edge">
<title>Node22&#45;&gt;Node9</title>
<path fill="none" stroke="midnightblue" d="M952.84,-280.39C972.13,-273.51 996.06,-261.97 1011,-244 1030.24,-220.85 1030,-209.1 1030,-179 1030,-179 1030,-179 1030,-121 1030,-32.56 706.78,-15.12 599.88,-11.77"/>
<polygon fill="midnightblue" stroke="midnightblue" points="599.75,-8.27 589.65,-11.48 599.54,-15.27 599.75,-8.27"/>
</g>
<!-- Node22&#45;&gt;Node15 -->
<g id="edge34" class="edge">
<title>Node22&#45;&gt;Node15</title>
<path fill="none" stroke="midnightblue" d="M971.28,-280.92C995.9,-274.6 1024.52,-263.47 1044,-244 1065.78,-222.23 1068,-209.8 1068,-179 1068,-179 1068,-179 1068,-121 1068,-90.2 1067,-76.47 1044,-56 1005.79,-22 946.27,-12.62 904.89,-10.54"/>
<polygon fill="midnightblue" stroke="midnightblue" points="904.91,-7.04 894.78,-10.16 904.64,-14.03 904.91,-7.04"/>
</g>
<!-- Node23 -->
<g id="node23" class="node">
<title>Node23</title>
<g id="a_node23"><a xlink:title=" ">
<polygon fill="white" stroke="#bfbfbf" points="810,-224.5 810,-243.5 860,-243.5 860,-224.5 810,-224.5"/>
<text text-anchor="middle" x="835" y="-231.5" font-family="Helvetica,sans-Serif" font-size="10.00">cstring</text>
</a>
</g>
</g>
<!-- Node22&#45;&gt;Node23 -->
<g id="edge30" class="edge">
<title>Node22&#45;&gt;Node23</title>
<path fill="none" stroke="midnightblue" d="M908.02,-280.32C894.45,-271.9 873.62,-258.97 857.68,-249.07"/>
<polygon fill="midnightblue" stroke="midnightblue" points="859.29,-245.95 848.94,-243.65 855.59,-251.9 859.29,-245.95"/>
</g>
<!-- Node24 -->
<g id="node24" class="node">
<title>Node24</title>
<g id="a_node24"><a xlink:title=" ">
<polygon fill="white" stroke="#bfbfbf" points="878.5,-224.5 878.5,-243.5 943.5,-243.5 943.5,-224.5 878.5,-224.5"/>
<text text-anchor="middle" x="911" y="-231.5" font-family="Helvetica,sans-Serif" font-size="10.00">exception</text>
</a>
</g>
</g>
<!-- Node22&#45;&gt;Node24 -->
<g id="edge31" class="edge">
<title>Node22&#45;&gt;Node24</title>
<path fill="none" stroke="midnightblue" d="M920.18,-280.08C918.73,-272.93 916.63,-262.64 914.81,-253.69"/>
<polygon fill="midnightblue" stroke="midnightblue" points="918.21,-252.85 912.78,-243.75 911.35,-254.25 918.21,-252.85"/>
</g>
<!-- Node25 -->
<g id="node25" class="node">
<title>Node25</title>
<g id="a_node25"><a xlink:title=" ">
<polygon fill="white" stroke="#bfbfbf" points="1096,-224.5 1096,-243.5 1154,-243.5 1154,-224.5 1096,-224.5"/>
<text text-anchor="middle" x="1125" y="-231.5" font-family="Helvetica,sans-Serif" font-size="10.00">memory</text>
</a>
</g>
</g>
<!-- Node22&#45;&gt;Node25 -->
<g id="edge32" class="edge">
<title>Node22&#45;&gt;Node25</title>
<path fill="none" stroke="midnightblue" d="M954.17,-280.44C989.98,-270.92 1047.86,-255.52 1086.17,-245.33"/>
<polygon fill="midnightblue" stroke="midnightblue" points="1087.18,-248.68 1095.94,-242.73 1085.38,-241.92 1087.18,-248.68"/>
</g>
<!-- Node26 -->
<g id="node26" class="node">
<title>Node26</title>
<g id="a_node26"><a xlink:title=" ">
<polygon fill="white" stroke="#bfbfbf" points="962,-224.5 962,-243.5 1002,-243.5 1002,-224.5 962,-224.5"/>
<text text-anchor="middle" x="982" y="-231.5" font-family="Helvetica,sans-Serif" font-size="10.00">span</text>
</a>
</g>
</g>
<!-- Node22&#45;&gt;Node26 -->
<g id="edge33" class="edge">
<title>Node22&#45;&gt;Node26</title>
<path fill="none" stroke="midnightblue" d="M931.64,-280.32C940.51,-272.34 953.87,-260.31 964.61,-250.65"/>
<polygon fill="midnightblue" stroke="midnightblue" points="967.09,-253.13 972.18,-243.83 962.41,-247.92 967.09,-253.13"/>
</g>
<!-- Node27&#45;&gt;Node4 -->
<g id="edge37" class="edge">
<title>Node27&#45;&gt;Node4</title>
<path fill="none" stroke="midnightblue" d="M301.53,-341.98C345.55,-331.42 420.59,-313.41 468.7,-301.87"/>
<polygon fill="midnightblue" stroke="midnightblue" points="469.63,-305.25 478.53,-299.51 467.99,-298.44 469.63,-305.25"/>
</g>
<!-- Node27&#45;&gt;Node8 -->
<g id="edge48" class="edge">
<title>Node27&#45;&gt;Node8</title>
<path fill="none" stroke="midnightblue" d="M202.49,-345.2C135.03,-335.68 38,-309.1 38,-235 38,-235 38,-235 38,-121 38,-87.25 52.43,-50.03 62.21,-28.69"/>
<polygon fill="midnightblue" stroke="midnightblue" points="65.41,-30.11 66.55,-19.58 59.09,-27.1 65.41,-30.11"/>
</g>
<!-- Node27&#45;&gt;Node9 -->
<g id="edge49" class="edge">
<title>Node27&#45;&gt;Node9</title>
<path fill="none" stroke="midnightblue" d="M254.78,-341.64C222.47,-315.03 133.84,-233.57 171,-168 244.99,-37.43 450.7,-15.23 532.16,-11.62"/>
<polygon fill="midnightblue" stroke="midnightblue" points="532.5,-15.11 542.36,-11.24 532.23,-8.12 532.5,-15.11"/>
</g>
<!-- Node27&#45;&gt;Node22 -->
<g id="edge40" class="edge">
<title>Node27&#45;&gt;Node22</title>
<path fill="none" stroke="midnightblue" d="M329.79,-344.71C456.78,-333.2 739.55,-307.55 862.73,-296.38"/>
<polygon fill="midnightblue" stroke="midnightblue" points="863.09,-299.86 872.74,-295.47 862.46,-292.89 863.09,-299.86"/>
</g>
<!-- Node28 -->
<g id="node28" class="node">
<title>Node28</title>
<g id="a_node28"><a xlink:href="hash__bytes_8h.html" target="_top" xlink:title=" ">
<polygon fill="white" stroke="black" points="180,-168.5 180,-187.5 312,-187.5 312,-168.5 180,-168.5"/>
<text text-anchor="middle" x="246" y="-175.5" font-family="Helvetica,sans-Serif" font-size="10.00">ccf/crypto/hash_bytes.h</text>
</a>
</g>
</g>
<!-- Node27&#45;&gt;Node28 -->
<g id="edge38" class="edge">
<title>Node27&#45;&gt;Node28</title>
<path fill="none" stroke="midnightblue" d="M261.57,-341.74C251.78,-321.37 229.56,-269.12 235,-224 236.07,-215.11 238.29,-205.43 240.46,-197.34"/>
<polygon fill="midnightblue" stroke="midnightblue" points="243.89,-198.09 243.27,-187.51 237.16,-196.17 243.89,-198.09"/>
</g>
<!-- Node27&#45;&gt;Node29 -->
<g id="edge41" class="edge">
<title>Node27&#45;&gt;Node29</title>
<path fill="none" stroke="midnightblue" d="M266.08,-341.68C266.39,-328.2 267.68,-301.75 273,-280 275.25,-270.8 279,-261 282.49,-252.9"/>
<polygon fill="midnightblue" stroke="midnightblue" points="285.71,-254.27 286.65,-243.72 279.34,-251.38 285.71,-254.27"/>
</g>
<!-- Node27&#45;&gt;Node30 -->
<g id="edge46" class="edge">
<title>Node27&#45;&gt;Node30</title>
<path fill="none" stroke="midnightblue" d="M271.87,-341.98C277.96,-333.14 287.64,-319.09 295.3,-307.98"/>
<polygon fill="midnightblue" stroke="midnightblue" points="298.34,-309.73 301.14,-299.51 292.58,-305.76 298.34,-309.73"/>
</g>
<!-- Node27&#45;&gt;Node31 -->
<g id="edge47" class="edge">
<title>Node27&#45;&gt;Node31</title>
<path fill="none" stroke="midnightblue" d="M282.05,-341.98C300.59,-332.12 331.34,-315.79 353.02,-304.27"/>
<polygon fill="midnightblue" stroke="midnightblue" points="354.79,-307.29 361.98,-299.51 351.51,-301.11 354.79,-307.29"/>
</g>
<!-- Node28&#45;&gt;Node9 -->
<g id="edge39" class="edge">
<title>Node28&#45;&gt;Node9</title>
<path fill="none" stroke="midnightblue" d="M254.06,-168.18C274.93,-145.88 333.36,-86.85 394,-56 438.94,-33.13 496.57,-21.13 532.39,-15.43"/>
<polygon fill="midnightblue" stroke="midnightblue" points="532.97,-18.88 542.33,-13.92 531.92,-11.96 532.97,-18.88"/>
</g>
<!-- Node29&#45;&gt;Node6 -->
<g id="edge42" class="edge">
<title>Node29&#45;&gt;Node6</title>
<path fill="none" stroke="midnightblue" d="M338.07,-226.43C411.94,-216.12 554.4,-196.25 629.29,-185.8"/>
<polygon fill="midnightblue" stroke="midnightblue" points="629.97,-189.24 639.39,-184.39 629,-182.3 629.97,-189.24"/>
</g>
<!-- Node29&#45;&gt;Node8 -->
<g id="edge45" class="edge">
<title>Node29&#45;&gt;Node8</title>
<path fill="none" stroke="midnightblue" d="M243.93,-227.89C193.88,-221.46 119.29,-208.67 100,-188 58.97,-144.04 63.34,-65.69 67.96,-29.84"/>
<polygon fill="midnightblue" stroke="midnightblue" points="71.45,-30.19 69.41,-19.8 64.52,-29.19 71.45,-30.19"/>
</g>
<!-- Node29&#45;&gt;Node11 -->
<g id="edge43" class="edge">
<title>Node29&#45;&gt;Node11</title>
<path fill="none" stroke="midnightblue" d="M300.37,-224.11C312.42,-211.53 330.73,-187.87 321,-168 300.22,-125.54 252.03,-95.79 220.52,-80.05"/>
<polygon fill="midnightblue" stroke="midnightblue" points="221.85,-76.8 211.32,-75.61 218.81,-83.11 221.85,-76.8"/>
</g>
<!-- Node29&#45;&gt;Node17 -->
<g id="edge44" class="edge">
<title>Node29&#45;&gt;Node17</title>
<path fill="none" stroke="midnightblue" d="M300.4,-224.27C309.87,-215.37 324.79,-201.06 337,-188 367.36,-155.54 372.79,-145.5 402,-112 410.35,-102.43 419.78,-91.81 427.39,-83.29"/>
<polygon fill="midnightblue" stroke="midnightblue" points="430.22,-85.37 434.28,-75.58 425.01,-80.7 430.22,-85.37"/>
</g>
<!-- Node32&#45;&gt;Node2 -->
<g id="edge58" class="edge">
<title>Node32&#45;&gt;Node2</title>
<path fill="none" stroke="midnightblue" d="M1011.81,-515.32C994.65,-506.66 968.05,-493.24 948.25,-483.25"/>
<polygon fill="midnightblue" stroke="midnightblue" points="949.65,-480.04 939.15,-478.65 946.5,-486.28 949.65,-480.04"/>
</g>
<!-- Node33 -->
<g id="node33" class="node">
<title>Node33</title>
<g id="a_node33"><a xlink:href="openssl__wrappers_8h.html" target="_top" xlink:title=" ">
<polygon fill="white" stroke="black" points="1387,-336.5 1387,-366.5 1515,-366.5 1515,-336.5 1387,-336.5"/>
<text text-anchor="start" x="1395" y="-354.5" font-family="Helvetica,sans-Serif" font-size="10.00">crypto/openssl/openssl</text>
<text text-anchor="middle" x="1451" y="-343.5" font-family="Helvetica,sans-Serif" font-size="10.00">_wrappers.h</text>
</a>
</g>
</g>
<!-- Node32&#45;&gt;Node33 -->
<g id="edge59" class="edge">
<title>Node32&#45;&gt;Node33</title>
<path fill="none" stroke="midnightblue" d="M1049.93,-515.5C1115.4,-488.89 1317.28,-406.84 1407.12,-370.33"/>
<polygon fill="midnightblue" stroke="midnightblue" points="1408.53,-373.54 1416.48,-366.53 1405.9,-367.05 1408.53,-373.54"/>
</g>
<!-- Node41 -->
<g id="node41" class="node">
<title>Node41</title>
<g id="a_node41"><a xlink:title=" ">
<polygon fill="white" stroke="#bfbfbf" points="1032,-280.5 1032,-299.5 1122,-299.5 1122,-280.5 1032,-280.5"/>
<text text-anchor="middle" x="1077" y="-287.5" font-family="Helvetica,sans-Serif" font-size="10.00">openssl/x509.h</text>
</a>
</g>
</g>
<!-- Node32&#45;&gt;Node41 -->
<g id="edge72" class="edge">
<title>Node32&#45;&gt;Node41</title>
<path fill="none" stroke="midnightblue" d="M1030.77,-515.43C1037.72,-481.68 1063.31,-357.47 1073.13,-309.8"/>
<polygon fill="midnightblue" stroke="midnightblue" points="1076.58,-310.4 1075.17,-299.9 1069.72,-308.98 1076.58,-310.4"/>
</g>
<!-- Node33&#45;&gt;Node17 -->
<g id="edge61" class="edge">
<title>Node33&#45;&gt;Node17</title>
<path fill="none" stroke="midnightblue" d="M1386.75,-345.21C1319.55,-338.45 1219.9,-324.58 1191,-300 1163.58,-276.68 1189.86,-247.97 1163,-224 1006.32,-84.19 909.66,-154.41 704,-112 613.09,-93.25 587.25,-92.69 491.67,-76.09"/>
<polygon fill="midnightblue" stroke="midnightblue" points="492.03,-72.6 481.57,-74.32 490.82,-79.49 492.03,-72.6"/>
</g>
<!-- Node33&#45;&gt;Node22 -->
<g id="edge60" class="edge">
<title>Node33&#45;&gt;Node22</title>
<path fill="none" stroke="midnightblue" d="M1386.93,-343.29C1283.48,-331.66 1081.15,-308.9 981.02,-297.64"/>
<polygon fill="midnightblue" stroke="midnightblue" points="981.41,-294.16 971.08,-296.52 980.62,-301.12 981.41,-294.16"/>
</g>
<!-- Node33&#45;&gt;Node25 -->
<g id="edge62" class="edge">
<title>Node33&#45;&gt;Node25</title>
<path fill="none" stroke="midnightblue" d="M1515.17,-349.7C1659.06,-347.25 1997.62,-337.5 2032,-300 2038.01,-293.45 2038.13,-286.44 2032,-280 2001.66,-248.12 1334.02,-237.62 1164.08,-235.45"/>
<polygon fill="midnightblue" stroke="midnightblue" points="1164.11,-231.95 1154.07,-235.33 1164.02,-238.95 1164.11,-231.95"/>
</g>
<!-- Node34 -->
<g id="node34" class="node">
<title>Node34</title>
<g id="a_node34"><a xlink:title=" ">
<polygon fill="white" stroke="#bfbfbf" points="1199.5,-280.5 1199.5,-299.5 1288.5,-299.5 1288.5,-280.5 1199.5,-280.5"/>
<text text-anchor="middle" x="1244" y="-287.5" font-family="Helvetica,sans-Serif" font-size="10.00">openssl/asn1.h</text>
</a>
</g>
</g>
<!-- Node33&#45;&gt;Node34 -->
<g id="edge63" class="edge">
<title>Node33&#45;&gt;Node34</title>
<path fill="none" stroke="midnightblue" d="M1402.21,-336.47C1366.03,-326.08 1317.33,-312.08 1283.56,-302.37"/>
<polygon fill="midnightblue" stroke="midnightblue" points="1284.17,-298.91 1273.59,-299.51 1282.24,-305.63 1284.17,-298.91"/>
</g>
<!-- Node35 -->
<g id="node35" class="node">
<title>Node35</title>
<g id="a_node35"><a xlink:title=" ">
<polygon fill="white" stroke="#bfbfbf" points="1306.5,-280.5 1306.5,-299.5 1383.5,-299.5 1383.5,-280.5 1306.5,-280.5"/>
<text text-anchor="middle" x="1345" y="-287.5" font-family="Helvetica,sans-Serif" font-size="10.00">openssl/ec.h</text>
</a>
</g>
</g>
<!-- Node33&#45;&gt;Node35 -->
<g id="edge64" class="edge">
<title>Node33&#45;&gt;Node35</title>
<path fill="none" stroke="midnightblue" d="M1425.88,-336.4C1408.73,-326.77 1386.14,-314.09 1369.19,-304.58"/>
<polygon fill="midnightblue" stroke="midnightblue" points="1370.86,-301.5 1360.42,-299.66 1367.43,-307.6 1370.86,-301.5"/>
</g>
<!-- Node36 -->
<g id="node36" class="node">
<title>Node36</title>
<g id="a_node36"><a xlink:title=" ">
<polygon fill="white" stroke="#bfbfbf" points="1401.5,-280.5 1401.5,-299.5 1500.5,-299.5 1500.5,-280.5 1401.5,-280.5"/>
<text text-anchor="middle" x="1451" y="-287.5" font-family="Helvetica,sans-Serif" font-size="10.00">openssl/engine.h</text>
</a>
</g>
</g>
<!-- Node33&#45;&gt;Node36 -->
<g id="edge65" class="edge">
<title>Node33&#45;&gt;Node36</title>
<path fill="none" stroke="midnightblue" d="M1451,-336.4C1451,-328.47 1451,-318.46 1451,-309.86"/>
<polygon fill="midnightblue" stroke="midnightblue" points="1454.5,-309.66 1451,-299.66 1447.5,-309.66 1454.5,-309.66"/>
</g>
<!-- Node37 -->
<g id="node37" class="node">
<title>Node37</title>
<g id="a_node37"><a xlink:title=" ">
<polygon fill="white" stroke="#bfbfbf" points="1518.5,-280.5 1518.5,-299.5 1597.5,-299.5 1597.5,-280.5 1518.5,-280.5"/>
<text text-anchor="middle" x="1558" y="-287.5" font-family="Helvetica,sans-Serif" font-size="10.00">openssl/err.h</text>
</a>
</g>
</g>
<!-- Node33&#45;&gt;Node37 -->
<g id="edge66" class="edge">
<title>Node33&#45;&gt;Node37</title>
<path fill="none" stroke="midnightblue" d="M1476.36,-336.4C1493.67,-326.77 1516.48,-314.09 1533.58,-304.58"/>
<polygon fill="midnightblue" stroke="midnightblue" points="1535.39,-307.58 1542.43,-299.66 1531.99,-301.46 1535.39,-307.58"/>
</g>
<!-- Node38 -->
<g id="node38" class="node">
<title>Node38</title>
<g id="a_node38"><a xlink:title=" ">
<polygon fill="white" stroke="#bfbfbf" points="1615,-280.5 1615,-299.5 1699,-299.5 1699,-280.5 1615,-280.5"/>
<text text-anchor="middle" x="1657" y="-287.5" font-family="Helvetica,sans-Serif" font-size="10.00">openssl/evp.h</text>
</a>
</g>
</g>
<!-- Node33&#45;&gt;Node38 -->
<g id="edge67" class="edge">
<title>Node33&#45;&gt;Node38</title>
<path fill="none" stroke="midnightblue" d="M1499.56,-336.47C1535.56,-326.08 1584.02,-312.08 1617.63,-302.37"/>
<polygon fill="midnightblue" stroke="midnightblue" points="1618.91,-305.64 1627.55,-299.51 1616.97,-298.92 1618.91,-305.64"/>
</g>
<!-- Node39 -->
<g id="node39" class="node">
<title>Node39</title>
<g id="a_node39"><a xlink:title=" ">
<polygon fill="white" stroke="#bfbfbf" points="1717,-280.5 1717,-299.5 1805,-299.5 1805,-280.5 1717,-280.5"/>
<text text-anchor="middle" x="1761" y="-287.5" font-family="Helvetica,sans-Serif" font-size="10.00">openssl/pem.h</text>
</a>
</g>
</g>
<!-- Node33&#45;&gt;Node39 -->
<g id="edge68" class="edge">
<title>Node33&#45;&gt;Node39</title>
<path fill="none" stroke="midnightblue" d="M1515.23,-338.17C1571.88,-327.3 1653.5,-311.63 1706.89,-301.39"/>
<polygon fill="midnightblue" stroke="midnightblue" points="1707.68,-304.8 1716.84,-299.48 1706.36,-297.92 1707.68,-304.8"/>
</g>
<!-- Node40 -->
<g id="node40" class="node">
<title>Node40</title>
<g id="a_node40"><a xlink:title=" ">
<polygon fill="white" stroke="#bfbfbf" points="1823,-280.5 1823,-299.5 1903,-299.5 1903,-280.5 1823,-280.5"/>
<text text-anchor="middle" x="1863" y="-287.5" font-family="Helvetica,sans-Serif" font-size="10.00">openssl/ssl.h</text>
</a>
</g>
</g>
<!-- Node33&#45;&gt;Node40 -->
<g id="edge69" class="edge">
<title>Node33&#45;&gt;Node40</title>
<path fill="none" stroke="midnightblue" d="M1515.06,-342.44C1585.56,-333.38 1702.47,-317.79 1812.93,-300.12"/>
<polygon fill="midnightblue" stroke="midnightblue" points="1813.6,-303.55 1822.91,-298.51 1812.48,-296.64 1813.6,-303.55"/>
</g>
<!-- Node33&#45;&gt;Node41 -->
<g id="edge70" class="edge">
<title>Node33&#45;&gt;Node41</title>
<path fill="none" stroke="midnightblue" d="M1386.71,-340.27C1314.99,-328.86 1200.17,-310.6 1132.32,-299.8"/>
<polygon fill="midnightblue" stroke="midnightblue" points="1132.68,-296.31 1122.25,-298.2 1131.58,-303.23 1132.68,-296.31"/>
</g>
<!-- Node42 -->
<g id="node42" class="node">
<title>Node42</title>
<g id="a_node42"><a xlink:title=" ">
<polygon fill="white" stroke="#bfbfbf" points="1921,-280.5 1921,-299.5 2023,-299.5 2023,-280.5 1921,-280.5"/>
<text text-anchor="middle" x="1972" y="-287.5" font-family="Helvetica,sans-Serif" font-size="10.00">openssl/x509v3.h</text>
</a>
</g>
</g>
<!-- Node33&#45;&gt;Node42 -->
<g id="edge71" class="edge">
<title>Node33&#45;&gt;Node42</title>
<path fill="none" stroke="midnightblue" d="M1515.23,-344.28C1602.4,-335.65 1763.24,-319.1 1910.81,-300.11"/>
<polygon fill="midnightblue" stroke="midnightblue" points="1911.49,-303.55 1920.96,-298.8 1910.59,-296.61 1911.49,-303.55"/>
</g>
</g>
</svg>
        <g id="navigator" transform="translate(0 0)" fill="#404254">
                <rect fill="#f2f5e9" fill-opacity="0.5" stroke="#606060" stroke-width=".5" x="0" y="0" width="60" height="60"/>
                <use id="zoomplus" xlink:href="#zoomPlus" x="17" y="9" onmousedown="handleZoom(evt,'in')"/>
                <use id="zoomminus" xlink:href="#zoomMin" x="42" y="9" onmousedown="handleZoom(evt,'out')"/>
                <use id="reset" xlink:href="#resetDef" x="30" y="36" onmousedown="handleReset()"/>
                <g id="arrowUp" xlink:href="#dirArrow" transform="translate(30 24)" onmousedown="handlePan(0,-1)">
                  <use xlink:href="#rim" fill="#404040">
                        <set attributeName="fill" to="#808080" begin="arrowUp.mouseover" end="arrowUp.mouseout"/>
                  </use>
                  <path fill="none" stroke="white" stroke-width="1.5" d="M0,-3.0v7 M-2.5,-0.5L0,-3.0L2.5,-0.5"/>
                </g>
                <g id="arrowRight" xlink:href="#dirArrow" transform="rotate(90) translate(36 -43)" onmousedown="handlePan(1,0)">
                  <use xlink:href="#rim" fill="#404040">
                        <set attributeName="fill" to="#808080" begin="arrowRight.mouseover" end="arrowRight.mouseout"/>
                  </use>
                  <path fill="none" stroke="white" stroke-width="1.5" d="M0,-3.0v7 M-2.5,-0.5L0,-3.0L2.5,-0.5"/>
                </g>
                <g id="arrowDown" xlink:href="#dirArrow" transform="rotate(180) translate(-30 -48)" onmousedown="handlePan(0,1)">
                  <use xlink:href="#rim" fill="#404040">
                        <set attributeName="fill" to="#808080" begin="arrowDown.mouseover" end="arrowDown.mouseout"/>
                  </use>
                  <path fill="none" stroke="white" stroke-width="1.5" d="M0,-3.0v7 M-2.5,-0.5L0,-3.0L2.5,-0.5"/>
                </g>
                <g id="arrowLeft" xlink:href="#dirArrow" transform="rotate(270) translate(-36 17)" onmousedown="handlePan(-1,0)">
                  <use xlink:href="#rim" fill="#404040">
                        <set attributeName="fill" to="#808080" begin="arrowLeft.mouseover" end="arrowLeft.mouseout"/>
                  </use>
                  <path fill="none" stroke="white" stroke-width="1.5" d="M0,-3.0v7 M-2.5,-0.5L0,-3.0L2.5,-0.5"/>
                </g>
        </g>
        <svg viewBox="0 0 15 15" width="100%" height="30px" preserveAspectRatio="xMaxYMin meet">
         <g id="arrow_out" transform="scale(0.3 0.3)">
          <a xlink:href="verifier_8cpp__incl_org.svg" target="_base">
           <rect id="button" ry="5" rx="5" y="6" x="6" height="38" width="38"
                fill="#f2f5e9" fill-opacity="0.5" stroke="#606060" stroke-width="1.0"/>
           <path id="arrow"
             d="M 11.500037,31.436501 C 11.940474,20.09759 22.043105,11.32322 32.158766,21.979434 L 37.068811,17.246167 C 37.068811,17.246167 37.088388,32 37.088388,32 L 22.160133,31.978069 C 22.160133,31.978069 26.997745,27.140456 26.997745,27.140456 C 18.528582,18.264221 13.291696,25.230495 11.500037,31.436501 z"
             style="fill:#404040;"/>
          </a>
         </g>
        </svg>
</svg>
