<?xml version="1.0" encoding="UTF-8" standalone="no"?>
<!DOCTYPE svg PUBLIC "-//W3C//DTD SVG 1.1//EN"
 "http://www.w3.org/Graphics/SVG/1.1/DTD/svg11.dtd">
<!-- Generated by graphviz version 2.43.0 (0)
 -->
<!-- Title: include/ccf/indexing/strategies/visit_each_entry_in_map.h Pages: 1 -->
<svg width="883pt" height="386pt"
 viewBox="0.00 0.00 882.50 386.00" xmlns="http://www.w3.org/2000/svg" xmlns:xlink="http://www.w3.org/1999/xlink">
<g id="graph0" class="graph" transform="scale(1 1) rotate(0) translate(4 382)">
<title>include/ccf/indexing/strategies/visit_each_entry_in_map.h</title>
<polygon fill="white" stroke="transparent" points="-4,4 -4,-382 878.5,-382 878.5,4 -4,4"/>
<!-- Node1 -->
<g id="node1" class="node">
<title>Node1</title>
<g id="a_node1"><a xlink:title=" ">
<polygon fill="#bfbfbf" stroke="black" points="292,-336.5 292,-377.5 413,-377.5 413,-336.5 292,-336.5"/>
<text text-anchor="start" x="300" y="-365.5" font-family="Helvetica,sans-Serif" font-size="10.00">include/ccf/indexing</text>
<text text-anchor="start" x="300" y="-354.5" font-family="Helvetica,sans-Serif" font-size="10.00">/strategies/visit_each</text>
<text text-anchor="middle" x="352.5" y="-343.5" font-family="Helvetica,sans-Serif" font-size="10.00">_entry_in_map.h</text>
</a>
</g>
</g>
<!-- Node2 -->
<g id="node2" class="node">
<title>Node2</title>
<g id="a_node2"><a xlink:href="byte__vector_8h.html" target="_top" xlink:title=" ">
<polygon fill="white" stroke="black" points="202.5,-280.5 202.5,-299.5 302.5,-299.5 302.5,-280.5 202.5,-280.5"/>
<text text-anchor="middle" x="252.5" y="-287.5" font-family="Helvetica,sans-Serif" font-size="10.00">ccf/byte_vector.h</text>
</a>
</g>
</g>
<!-- Node1&#45;&gt;Node2 -->
<g id="edge1" class="edge">
<title>Node1&#45;&gt;Node2</title>
<path fill="none" stroke="midnightblue" d="M322.5,-336.5C307.02,-326.44 288.48,-314.38 274.37,-305.21"/>
<polygon fill="midnightblue" stroke="midnightblue" points="276.1,-302.17 265.81,-299.65 272.29,-308.04 276.1,-302.17"/>
</g>
<!-- Node9 -->
<g id="node9" class="node">
<title>Node9</title>
<g id="a_node9"><a xlink:href="strategy_8h.html" target="_top" xlink:title=" ">
<polygon fill="white" stroke="black" points="427,-280.5 427,-299.5 554,-299.5 554,-280.5 427,-280.5"/>
<text text-anchor="middle" x="490.5" y="-287.5" font-family="Helvetica,sans-Serif" font-size="10.00">ccf/indexing/strategy.h</text>
</a>
</g>
</g>
<!-- Node1&#45;&gt;Node9 -->
<g id="edge8" class="edge">
<title>Node1&#45;&gt;Node9</title>
<path fill="none" stroke="midnightblue" d="M393.9,-336.5C416.28,-325.96 443.3,-313.23 463.06,-303.92"/>
<polygon fill="midnightblue" stroke="midnightblue" points="464.57,-307.08 472.13,-299.65 461.59,-300.75 464.57,-307.08"/>
</g>
<!-- Node3 -->
<g id="node3" class="node">
<title>Node3</title>
<g id="a_node3"><a xlink:href="siphash_8h.html" target="_top" xlink:title=" ">
<polygon fill="white" stroke="black" points="167,-224.5 167,-243.5 262,-243.5 262,-224.5 167,-224.5"/>
<text text-anchor="middle" x="214.5" y="-231.5" font-family="Helvetica,sans-Serif" font-size="10.00">ccf/ds/siphash.h</text>
</a>
</g>
</g>
<!-- Node2&#45;&gt;Node3 -->
<g id="edge2" class="edge">
<title>Node2&#45;&gt;Node3</title>
<path fill="none" stroke="midnightblue" d="M246.23,-280.08C240.86,-272.46 232.98,-261.26 226.42,-251.94"/>
<polygon fill="midnightblue" stroke="midnightblue" points="229.28,-249.91 220.66,-243.75 223.55,-253.94 229.28,-249.91"/>
</g>
<!-- Node7 -->
<g id="node7" class="node">
<title>Node7</title>
<g id="a_node7"><a xlink:title=" ">
<polygon fill="white" stroke="#bfbfbf" points="325,-56.5 325,-75.5 404,-75.5 404,-56.5 325,-56.5"/>
<text text-anchor="middle" x="364.5" y="-63.5" font-family="Helvetica,sans-Serif" font-size="10.00">fmt/format.h</text>
</a>
</g>
</g>
<!-- Node2&#45;&gt;Node7 -->
<g id="edge6" class="edge">
<title>Node2&#45;&gt;Node7</title>
<path fill="none" stroke="midnightblue" d="M256.34,-280.41C265.29,-260.48 288.38,-209.63 309.5,-168 324.57,-138.3 343.35,-104.42 354.61,-84.42"/>
<polygon fill="midnightblue" stroke="midnightblue" points="357.75,-85.98 359.62,-75.56 351.65,-82.54 357.75,-85.98"/>
</g>
<!-- Node8 -->
<g id="node8" class="node">
<title>Node8</title>
<g id="a_node8"><a xlink:title=" ">
<polygon fill="white" stroke="#bfbfbf" points="0,-224.5 0,-243.5 149,-243.5 149,-224.5 0,-224.5"/>
<text text-anchor="middle" x="74.5" y="-231.5" font-family="Helvetica,sans-Serif" font-size="10.00">small_vector/SmallVector.h</text>
</a>
</g>
</g>
<!-- Node2&#45;&gt;Node8 -->
<g id="edge7" class="edge">
<title>Node2&#45;&gt;Node8</title>
<path fill="none" stroke="midnightblue" d="M224.3,-280.44C194.09,-271.28 145.99,-256.69 112.47,-246.52"/>
<polygon fill="midnightblue" stroke="midnightblue" points="113.16,-243.07 102.57,-243.52 111.13,-249.77 113.16,-243.07"/>
</g>
<!-- Node4 -->
<g id="node4" class="node">
<title>Node4</title>
<g id="a_node4"><a xlink:title=" ">
<polygon fill="white" stroke="#bfbfbf" points="209,-168.5 209,-187.5 262,-187.5 262,-168.5 209,-168.5"/>
<text text-anchor="middle" x="235.5" y="-175.5" font-family="Helvetica,sans-Serif" font-size="10.00">cstddef</text>
</a>
</g>
</g>
<!-- Node3&#45;&gt;Node4 -->
<g id="edge3" class="edge">
<title>Node3&#45;&gt;Node4</title>
<path fill="none" stroke="midnightblue" d="M217.97,-224.08C220.81,-216.77 224.93,-206.18 228.46,-197.1"/>
<polygon fill="midnightblue" stroke="midnightblue" points="231.73,-198.34 232.1,-187.75 225.21,-195.8 231.73,-198.34"/>
</g>
<!-- Node5 -->
<g id="node5" class="node">
<title>Node5</title>
<g id="a_node5"><a xlink:title=" ">
<polygon fill="white" stroke="#bfbfbf" points="318.5,-168.5 318.5,-187.5 368.5,-187.5 368.5,-168.5 318.5,-168.5"/>
<text text-anchor="middle" x="343.5" y="-175.5" font-family="Helvetica,sans-Serif" font-size="10.00">cstdint</text>
</a>
</g>
</g>
<!-- Node3&#45;&gt;Node5 -->
<g id="edge4" class="edge">
<title>Node3&#45;&gt;Node5</title>
<path fill="none" stroke="midnightblue" d="M234.94,-224.44C256.17,-215.56 289.6,-201.56 313.75,-191.45"/>
<polygon fill="midnightblue" stroke="midnightblue" points="315.28,-194.61 323.16,-187.52 312.58,-188.15 315.28,-194.61"/>
</g>
<!-- Node6 -->
<g id="node6" class="node">
<title>Node6</title>
<g id="a_node6"><a xlink:title=" ">
<polygon fill="white" stroke="#bfbfbf" points="299,-0.5 299,-19.5 346,-19.5 346,-0.5 299,-0.5"/>
<text text-anchor="middle" x="322.5" y="-7.5" font-family="Helvetica,sans-Serif" font-size="10.00">vector</text>
</a>
</g>
</g>
<!-- Node3&#45;&gt;Node6 -->
<g id="edge5" class="edge">
<title>Node3&#45;&gt;Node6</title>
<path fill="none" stroke="midnightblue" d="M209.52,-224.43C202.88,-211.84 192.7,-187.71 199.5,-168 220.47,-107.23 275.72,-52.02 304.5,-26.28"/>
<polygon fill="midnightblue" stroke="midnightblue" points="306.98,-28.76 312.19,-19.54 302.36,-23.5 306.98,-28.76"/>
</g>
<!-- Node10 -->
<g id="node10" class="node">
<title>Node10</title>
<g id="a_node10"><a xlink:href="store__ptr_8h.html" target="_top" xlink:title=" ">
<polygon fill="white" stroke="black" points="374.5,-224.5 374.5,-243.5 460.5,-243.5 460.5,-224.5 374.5,-224.5"/>
<text text-anchor="middle" x="417.5" y="-231.5" font-family="Helvetica,sans-Serif" font-size="10.00">ccf/store_ptr.h</text>
</a>
</g>
</g>
<!-- Node9&#45;&gt;Node10 -->
<g id="edge9" class="edge">
<title>Node9&#45;&gt;Node10</title>
<path fill="none" stroke="midnightblue" d="M478.77,-280.32C467.66,-272.11 450.76,-259.6 437.52,-249.81"/>
<polygon fill="midnightblue" stroke="midnightblue" points="439.56,-246.97 429.44,-243.83 435.4,-252.59 439.56,-246.97"/>
</g>
<!-- Node12 -->
<g id="node12" class="node">
<title>Node12</title>
<g id="a_node12"><a xlink:href="tx__id_8h.html" target="_top" xlink:title=" ">
<polygon fill="white" stroke="black" points="580,-224.5 580,-243.5 647,-243.5 647,-224.5 580,-224.5"/>
<text text-anchor="middle" x="613.5" y="-231.5" font-family="Helvetica,sans-Serif" font-size="10.00">ccf/tx_id.h</text>
</a>
</g>
</g>
<!-- Node9&#45;&gt;Node12 -->
<g id="edge11" class="edge">
<title>Node9&#45;&gt;Node12</title>
<path fill="none" stroke="midnightblue" d="M509.99,-280.44C530.14,-271.6 561.82,-257.69 584.83,-247.59"/>
<polygon fill="midnightblue" stroke="midnightblue" points="586.35,-250.74 594.1,-243.52 583.54,-244.33 586.35,-250.74"/>
</g>
<!-- Node15 -->
<g id="node15" class="node">
<title>Node15</title>
<g id="a_node15"><a xlink:title=" ">
<polygon fill="white" stroke="#bfbfbf" points="798.5,-0.5 798.5,-19.5 842.5,-19.5 842.5,-0.5 798.5,-0.5"/>
<text text-anchor="middle" x="820.5" y="-7.5" font-family="Helvetica,sans-Serif" font-size="10.00">string</text>
</a>
</g>
</g>
<!-- Node9&#45;&gt;Node15 -->
<g id="edge37" class="edge">
<title>Node9&#45;&gt;Node15</title>
<path fill="none" stroke="midnightblue" d="M554.34,-283.93C663.53,-273.49 874.5,-244.79 874.5,-179 874.5,-179 874.5,-179 874.5,-121 874.5,-84.86 850.73,-48.25 834.73,-27.71"/>
<polygon fill="midnightblue" stroke="midnightblue" points="837.25,-25.26 828.24,-19.69 831.81,-29.67 837.25,-25.26"/>
</g>
<!-- Node26 -->
<g id="node26" class="node">
<title>Node26</title>
<g id="a_node26"><a xlink:title=" ">
<polygon fill="white" stroke="#bfbfbf" points="462.5,-168.5 462.5,-187.5 518.5,-187.5 518.5,-168.5 462.5,-168.5"/>
<text text-anchor="middle" x="490.5" y="-175.5" font-family="Helvetica,sans-Serif" font-size="10.00">optional</text>
</a>
</g>
</g>
<!-- Node9&#45;&gt;Node26 -->
<g id="edge36" class="edge">
<title>Node9&#45;&gt;Node26</title>
<path fill="none" stroke="midnightblue" d="M490.5,-280.37C490.5,-262.62 490.5,-221.67 490.5,-197.6"/>
<polygon fill="midnightblue" stroke="midnightblue" points="494,-197.59 490.5,-187.59 487,-197.59 494,-197.59"/>
</g>
<!-- Node11 -->
<g id="node11" class="node">
<title>Node11</title>
<g id="a_node11"><a xlink:title=" ">
<polygon fill="white" stroke="#bfbfbf" points="386.5,-168.5 386.5,-187.5 444.5,-187.5 444.5,-168.5 386.5,-168.5"/>
<text text-anchor="middle" x="415.5" y="-175.5" font-family="Helvetica,sans-Serif" font-size="10.00">memory</text>
</a>
</g>
</g>
<!-- Node10&#45;&gt;Node11 -->
<g id="edge10" class="edge">
<title>Node10&#45;&gt;Node11</title>
<path fill="none" stroke="midnightblue" d="M417.17,-224.08C416.91,-217.01 416.53,-206.86 416.2,-197.99"/>
<polygon fill="midnightblue" stroke="midnightblue" points="419.69,-197.61 415.82,-187.75 412.7,-197.87 419.69,-197.61"/>
</g>
<!-- Node12&#45;&gt;Node5 -->
<g id="edge30" class="edge">
<title>Node12&#45;&gt;Node5</title>
<path fill="none" stroke="midnightblue" d="M579.74,-227.33C535.67,-219.77 455.97,-205.51 378.61,-188.13"/>
<polygon fill="midnightblue" stroke="midnightblue" points="379.23,-184.68 368.7,-185.88 377.68,-191.51 379.23,-184.68"/>
</g>
<!-- Node12&#45;&gt;Node7 -->
<g id="edge31" class="edge">
<title>Node12&#45;&gt;Node7</title>
<path fill="none" stroke="midnightblue" d="M604.26,-224.06C589.32,-210.11 558.42,-183.16 527.5,-168 472.51,-141.05 441.28,-171.51 394.5,-132 380.43,-120.11 372.59,-100.2 368.49,-85.54"/>
<polygon fill="midnightblue" stroke="midnightblue" points="371.83,-84.45 366.04,-75.58 365.03,-86.12 371.83,-84.45"/>
</g>
<!-- Node13 -->
<g id="node13" class="node">
<title>Node13</title>
<g id="a_node13"><a xlink:href="json_8h.html" target="_top" xlink:title=" ">
<polygon fill="white" stroke="black" points="575,-168.5 575,-187.5 652,-187.5 652,-168.5 575,-168.5"/>
<text text-anchor="middle" x="613.5" y="-175.5" font-family="Helvetica,sans-Serif" font-size="10.00">ccf/ds/json.h</text>
</a>
</g>
</g>
<!-- Node12&#45;&gt;Node13 -->
<g id="edge12" class="edge">
<title>Node12&#45;&gt;Node13</title>
<path fill="none" stroke="midnightblue" d="M613.5,-224.08C613.5,-217.01 613.5,-206.86 613.5,-197.99"/>
<polygon fill="midnightblue" stroke="midnightblue" points="617,-197.75 613.5,-187.75 610,-197.75 617,-197.75"/>
</g>
<!-- Node12&#45;&gt;Node15 -->
<g id="edge34" class="edge">
<title>Node12&#45;&gt;Node15</title>
<path fill="none" stroke="midnightblue" d="M647.29,-228.98C694.84,-222.65 778.1,-208.88 799.5,-188 842.46,-146.07 832.37,-66.04 824.96,-29.74"/>
<polygon fill="midnightblue" stroke="midnightblue" points="828.29,-28.6 822.72,-19.59 821.46,-30.11 828.29,-28.6"/>
</g>
<!-- Node21 -->
<g id="node21" class="node">
<title>Node21</title>
<g id="a_node21"><a xlink:title=" ">
<polygon fill="white" stroke="#bfbfbf" points="692,-0.5 692,-19.5 765,-19.5 765,-0.5 692,-0.5"/>
<text text-anchor="middle" x="728.5" y="-7.5" font-family="Helvetica,sans-Serif" font-size="10.00">string_view</text>
</a>
</g>
</g>
<!-- Node12&#45;&gt;Node21 -->
<g id="edge35" class="edge">
<title>Node12&#45;&gt;Node21</title>
<path fill="none" stroke="midnightblue" d="M647.32,-228.68C691.06,-222.31 763.53,-208.87 779.5,-188 815.15,-141.4 803.63,-109.47 779.5,-56 773.88,-43.56 762.94,-33.17 752.62,-25.53"/>
<polygon fill="midnightblue" stroke="midnightblue" points="754.46,-22.54 744.23,-19.76 750.49,-28.31 754.46,-22.54"/>
</g>
<!-- Node23 -->
<g id="node23" class="node">
<title>Node23</title>
<g id="a_node23"><a xlink:title=" ">
<polygon fill="white" stroke="#bfbfbf" points="530.5,-56.5 530.5,-75.5 640.5,-75.5 640.5,-56.5 530.5,-56.5"/>
<text text-anchor="middle" x="585.5" y="-63.5" font-family="Helvetica,sans-Serif" font-size="10.00">nlohmann/json.hpp</text>
</a>
</g>
</g>
<!-- Node12&#45;&gt;Node23 -->
<g id="edge32" class="edge">
<title>Node12&#45;&gt;Node23</title>
<path fill="none" stroke="midnightblue" d="M627.87,-224.33C639.38,-216.47 654.69,-203.72 661.5,-188 665.03,-179.84 663.42,-176.68 661.5,-168 655.58,-141.2 651.81,-134.07 635.5,-112 627.13,-100.67 615.54,-90.02 605.63,-81.93"/>
<polygon fill="midnightblue" stroke="midnightblue" points="607.5,-78.95 597.47,-75.53 603.18,-84.46 607.5,-78.95"/>
</g>
<!-- Node25 -->
<g id="node25" class="node">
<title>Node25</title>
<g id="a_node25"><a xlink:title=" ">
<polygon fill="white" stroke="#bfbfbf" points="709,-168.5 709,-187.5 770,-187.5 770,-168.5 709,-168.5"/>
<text text-anchor="middle" x="739.5" y="-175.5" font-family="Helvetica,sans-Serif" font-size="10.00">charconv</text>
</a>
</g>
</g>
<!-- Node12&#45;&gt;Node25 -->
<g id="edge29" class="edge">
<title>Node12&#45;&gt;Node25</title>
<path fill="none" stroke="midnightblue" d="M633.47,-224.44C654.11,-215.6 686.56,-201.69 710.13,-191.59"/>
<polygon fill="midnightblue" stroke="midnightblue" points="711.82,-194.67 719.63,-187.52 709.06,-188.24 711.82,-194.67"/>
</g>
<!-- Node12&#45;&gt;Node26 -->
<g id="edge33" class="edge">
<title>Node12&#45;&gt;Node26</title>
<path fill="none" stroke="midnightblue" d="M594.01,-224.44C573.86,-215.6 542.18,-201.69 519.17,-191.59"/>
<polygon fill="midnightblue" stroke="midnightblue" points="520.46,-188.33 509.9,-187.52 517.65,-194.74 520.46,-188.33"/>
</g>
<!-- Node13&#45;&gt;Node7 -->
<g id="edge27" class="edge">
<title>Node13&#45;&gt;Node7</title>
<path fill="none" stroke="midnightblue" d="M574.97,-169.29C522.78,-158.64 434.6,-139.86 421.5,-132 401.86,-120.22 385.39,-99.39 375.28,-84.48"/>
<polygon fill="midnightblue" stroke="midnightblue" points="377.96,-82.19 369.59,-75.7 372.09,-86 377.96,-82.19"/>
</g>
<!-- Node14 -->
<g id="node14" class="node">
<title>Node14</title>
<g id="a_node14"><a xlink:href="include_2ccf_2crypto_2base64_8h.html" target="_top" xlink:title=" ">
<polygon fill="white" stroke="black" points="658.5,-56.5 658.5,-75.5 770.5,-75.5 770.5,-56.5 658.5,-56.5"/>
<text text-anchor="middle" x="714.5" y="-63.5" font-family="Helvetica,sans-Serif" font-size="10.00">ccf/crypto/base64.h</text>
</a>
</g>
</g>
<!-- Node13&#45;&gt;Node14 -->
<g id="edge13" class="edge">
<title>Node13&#45;&gt;Node14</title>
<path fill="none" stroke="midnightblue" d="M621.43,-168.37C638.31,-149.97 678.07,-106.67 699.76,-83.05"/>
<polygon fill="midnightblue" stroke="midnightblue" points="702.43,-85.32 706.61,-75.59 697.27,-80.59 702.43,-85.32"/>
</g>
<!-- Node16 -->
<g id="node16" class="node">
<title>Node16</title>
<g id="a_node16"><a xlink:href="include_2ccf_2ds_2json__schema_8h.html" target="_top" xlink:title=" ">
<polygon fill="white" stroke="black" points="431,-112.5 431,-131.5 552,-131.5 552,-112.5 431,-112.5"/>
<text text-anchor="middle" x="491.5" y="-119.5" font-family="Helvetica,sans-Serif" font-size="10.00">ccf/ds/json_schema.h</text>
</a>
</g>
</g>
<!-- Node13&#45;&gt;Node16 -->
<g id="edge16" class="edge">
<title>Node13&#45;&gt;Node16</title>
<path fill="none" stroke="midnightblue" d="M594.17,-168.44C574.18,-159.6 542.76,-145.69 519.94,-135.59"/>
<polygon fill="midnightblue" stroke="midnightblue" points="521.3,-132.36 510.74,-131.52 518.47,-138.76 521.3,-132.36"/>
</g>
<!-- Node24 -->
<g id="node24" class="node">
<title>Node24</title>
<g id="a_node24"><a xlink:title=" ">
<polygon fill="white" stroke="#bfbfbf" points="570.5,-112.5 570.5,-131.5 626.5,-131.5 626.5,-112.5 570.5,-112.5"/>
<text text-anchor="middle" x="598.5" y="-119.5" font-family="Helvetica,sans-Serif" font-size="10.00">sstream</text>
</a>
</g>
</g>
<!-- Node13&#45;&gt;Node24 -->
<g id="edge28" class="edge">
<title>Node13&#45;&gt;Node24</title>
<path fill="none" stroke="midnightblue" d="M611.02,-168.08C609.01,-160.85 606.11,-150.41 603.61,-141.4"/>
<polygon fill="midnightblue" stroke="midnightblue" points="606.98,-140.45 600.93,-131.75 600.24,-142.32 606.98,-140.45"/>
</g>
<!-- Node14&#45;&gt;Node6 -->
<g id="edge15" class="edge">
<title>Node14&#45;&gt;Node6</title>
<path fill="none" stroke="midnightblue" d="M658.49,-57.19C655.45,-56.78 652.44,-56.38 649.5,-56 522.15,-39.39 486.4,-45.09 356.16,-19.86"/>
<polygon fill="midnightblue" stroke="midnightblue" points="356.68,-16.39 346.2,-17.9 355.34,-23.26 356.68,-16.39"/>
</g>
<!-- Node14&#45;&gt;Node15 -->
<g id="edge14" class="edge">
<title>Node14&#45;&gt;Node15</title>
<path fill="none" stroke="midnightblue" d="M731.53,-56.32C748.53,-47.66 774.88,-34.24 794.49,-24.25"/>
<polygon fill="midnightblue" stroke="midnightblue" points="796.19,-27.31 803.51,-19.65 793.01,-21.08 796.19,-27.31"/>
</g>
<!-- Node16&#45;&gt;Node7 -->
<g id="edge25" class="edge">
<title>Node16&#45;&gt;Node7</title>
<path fill="none" stroke="midnightblue" d="M471.38,-112.44C450.48,-103.56 417.57,-89.56 393.78,-79.45"/>
<polygon fill="midnightblue" stroke="midnightblue" points="395.1,-76.21 384.53,-75.52 392.36,-82.65 395.1,-76.21"/>
</g>
<!-- Node17 -->
<g id="node17" class="node">
<title>Node17</title>
<g id="a_node17"><a xlink:href="nonstd_8h.html" target="_top" xlink:title=" ">
<polygon fill="white" stroke="black" points="422.5,-56.5 422.5,-75.5 512.5,-75.5 512.5,-56.5 422.5,-56.5"/>
<text text-anchor="middle" x="467.5" y="-63.5" font-family="Helvetica,sans-Serif" font-size="10.00">ccf/ds/nonstd.h</text>
</a>
</g>
</g>
<!-- Node16&#45;&gt;Node17 -->
<g id="edge17" class="edge">
<title>Node16&#45;&gt;Node17</title>
<path fill="none" stroke="midnightblue" d="M487.54,-112.08C484.29,-104.77 479.58,-94.18 475.55,-85.1"/>
<polygon fill="midnightblue" stroke="midnightblue" points="478.65,-83.47 471.39,-75.75 472.25,-86.31 478.65,-83.47"/>
</g>
<!-- Node16&#45;&gt;Node23 -->
<g id="edge26" class="edge">
<title>Node16&#45;&gt;Node23</title>
<path fill="none" stroke="midnightblue" d="M506.6,-112.32C521.4,-103.82 544.19,-90.73 561.48,-80.8"/>
<polygon fill="midnightblue" stroke="midnightblue" points="563.51,-83.67 570.43,-75.65 560.02,-77.6 563.51,-83.67"/>
</g>
<!-- Node17&#45;&gt;Node6 -->
<g id="edge24" class="edge">
<title>Node17&#45;&gt;Node6</title>
<path fill="none" stroke="midnightblue" d="M444.52,-56.44C420.34,-47.44 382.08,-33.19 354.85,-23.05"/>
<polygon fill="midnightblue" stroke="midnightblue" points="355.96,-19.73 345.37,-19.52 353.52,-26.29 355.96,-19.73"/>
</g>
<!-- Node17&#45;&gt;Node15 -->
<g id="edge21" class="edge">
<title>Node17&#45;&gt;Node15</title>
<path fill="none" stroke="midnightblue" d="M512.57,-57.41C515.59,-56.92 518.59,-56.45 521.5,-56 633.75,-38.66 662.51,-38.91 774.5,-20 778.95,-19.25 783.64,-18.4 788.24,-17.53"/>
<polygon fill="midnightblue" stroke="midnightblue" points="788.93,-20.96 798.08,-15.63 787.6,-14.09 788.93,-20.96"/>
</g>
<!-- Node18 -->
<g id="node18" class="node">
<title>Node18</title>
<g id="a_node18"><a xlink:title=" ">
<polygon fill="white" stroke="#bfbfbf" points="364.5,-0.5 364.5,-19.5 428.5,-19.5 428.5,-0.5 364.5,-0.5"/>
<text text-anchor="middle" x="396.5" y="-7.5" font-family="Helvetica,sans-Serif" font-size="10.00">algorithm</text>
</a>
</g>
</g>
<!-- Node17&#45;&gt;Node18 -->
<g id="edge18" class="edge">
<title>Node17&#45;&gt;Node18</title>
<path fill="none" stroke="midnightblue" d="M456.09,-56.32C445.39,-48.18 429.16,-35.84 416.34,-26.09"/>
<polygon fill="midnightblue" stroke="midnightblue" points="418.19,-23.1 408.11,-19.83 413.96,-28.67 418.19,-23.1"/>
</g>
<!-- Node19 -->
<g id="node19" class="node">
<title>Node19</title>
<g id="a_node19"><a xlink:title=" ">
<polygon fill="white" stroke="#bfbfbf" points="446.5,-0.5 446.5,-19.5 488.5,-19.5 488.5,-0.5 446.5,-0.5"/>
<text text-anchor="middle" x="467.5" y="-7.5" font-family="Helvetica,sans-Serif" font-size="10.00">array</text>
</a>
</g>
</g>
<!-- Node17&#45;&gt;Node19 -->
<g id="edge19" class="edge">
<title>Node17&#45;&gt;Node19</title>
<path fill="none" stroke="midnightblue" d="M467.5,-56.08C467.5,-49.01 467.5,-38.86 467.5,-29.99"/>
<polygon fill="midnightblue" stroke="midnightblue" points="471,-29.75 467.5,-19.75 464,-29.75 471,-29.75"/>
</g>
<!-- Node20 -->
<g id="node20" class="node">
<title>Node20</title>
<g id="a_node20"><a xlink:title=" ">
<polygon fill="white" stroke="#bfbfbf" points="507,-0.5 507,-19.5 556,-19.5 556,-0.5 507,-0.5"/>
<text text-anchor="middle" x="531.5" y="-7.5" font-family="Helvetica,sans-Serif" font-size="10.00">cctype</text>
</a>
</g>
</g>
<!-- Node17&#45;&gt;Node20 -->
<g id="edge20" class="edge">
<title>Node17&#45;&gt;Node20</title>
<path fill="none" stroke="midnightblue" d="M477.78,-56.32C487.34,-48.26 501.78,-36.08 513.28,-26.37"/>
<polygon fill="midnightblue" stroke="midnightblue" points="515.64,-28.96 521.03,-19.83 511.13,-23.61 515.64,-28.96"/>
</g>
<!-- Node17&#45;&gt;Node21 -->
<g id="edge22" class="edge">
<title>Node17&#45;&gt;Node21</title>
<path fill="none" stroke="midnightblue" d="M508.86,-56.44C555.96,-46.7 632.74,-30.81 681.92,-20.64"/>
<polygon fill="midnightblue" stroke="midnightblue" points="682.89,-24.01 691.97,-18.56 681.47,-17.16 682.89,-24.01"/>
</g>
<!-- Node22 -->
<g id="node22" class="node">
<title>Node22</title>
<g id="a_node22"><a xlink:title=" ">
<polygon fill="white" stroke="#bfbfbf" points="574,-0.5 574,-19.5 643,-19.5 643,-0.5 574,-0.5"/>
<text text-anchor="middle" x="608.5" y="-7.5" font-family="Helvetica,sans-Serif" font-size="10.00">type_traits</text>
</a>
</g>
</g>
<!-- Node17&#45;&gt;Node22 -->
<g id="edge23" class="edge">
<title>Node17&#45;&gt;Node22</title>
<path fill="none" stroke="midnightblue" d="M489.84,-56.44C513.25,-47.48 550.24,-33.31 576.69,-23.18"/>
<polygon fill="midnightblue" stroke="midnightblue" points="578.18,-26.36 586.26,-19.52 575.67,-19.82 578.18,-26.36"/>
</g>
</g>
</svg>
