<?xml version="1.0" encoding="UTF-8" standalone="no"?>
<!DOCTYPE svg PUBLIC "-//W3C//DTD SVG 1.1//EN"
 "http://www.w3.org/Graphics/SVG/1.1/DTD/svg11.dtd">
<!-- Generated by graphviz version 2.43.0 (0)
 -->
<!-- Title: src/crypto/openssl/x509_time.h Pages: 1 -->
<!--zoomable 375 -->
<svg id="main" version="1.1" xmlns="http://www.w3.org/2000/svg" xmlns:xlink="http://www.w3.org/1999/xlink" xml:space="preserve" onload="init(evt)">
<style type="text/css"><![CDATA[
.edge:hover path { stroke: red; }
.edge:hover polygon { stroke: red; fill: red; }
]]></style>
<script type="text/javascript"><![CDATA[
var edges = document.getElementsByTagName('g');
if (edges && edges.length) {
  for (var i=0;i<edges.length;i++) {
    if (edges[i].id.substr(0,4)=='edge') {
      edges[i].setAttribute('class','edge');
    }
  }
}
]]></script>
        <defs>
                <circle id="rim" cx="0" cy="0" r="7"/>
                <circle id="rim2" cx="0" cy="0" r="3.5"/>
                <g id="zoomPlus">
                        <use xlink:href="#rim" fill="#404040">
                                <set attributeName="fill" to="#808080" begin="zoomplus.mouseover" end="zoomplus.mouseout"/>
                        </use>
                        <path d="M-4,0h8M0,-4v8" fill="none" stroke="white" stroke-width="1.5" pointer-events="none"/>
                </g>
                <g id="zoomMin">
                        <use xlink:href="#rim" fill="#404040">
                                <set attributeName="fill" to="#808080" begin="zoomminus.mouseover" end="zoomminus.mouseout"/>
                        </use>
                        <path d="M-4,0h8" fill="none" stroke="white" stroke-width="1.5" pointer-events="none"/>
                </g>
                <g id="dirArrow">
                        <path fill="none" stroke="white" stroke-width="1.5" d="M0,-3.0v7 M-2.5,-0.5L0,-3.0L2.5,-0.5"/>
                </g>
               <g id="resetDef">
                       <use xlink:href="#rim2" fill="#404040">
                               <set attributeName="fill" to="#808080" begin="reset.mouseover" end="reset.mouseout"/>
                       </use>
               </g>
        </defs>

<script type="text/javascript">
var viewWidth = 1413;
var viewHeight = 375;
var sectionId = 'dynsection-0';
</script>
<script xlink:href="svgpan.js"/>
<svg id="graph" class="graph">
<g id="viewport">
<title>src/crypto/openssl/x509_time.h</title>
<polygon fill="white" stroke="transparent" points="-4,4 -4,-371 1408.5,-371 1408.5,4 -4,4"/>
<!-- Node1 -->
<g id="node1" class="node">
<title>Node1</title>
<g id="a_node1"><a xlink:title=" ">
<polygon fill="#bfbfbf" stroke="black" points="1212,-336.5 1212,-366.5 1317,-366.5 1317,-336.5 1212,-336.5"/>
<text text-anchor="start" x="1220" y="-354.5" font-family="Helvetica,sans-Serif" font-size="10.00">src/crypto/openssl</text>
<text text-anchor="middle" x="1264.5" y="-343.5" font-family="Helvetica,sans-Serif" font-size="10.00">/x509_time.h</text>
</a>
</g>
</g>
<!-- Node2 -->
<g id="node2" class="node">
<title>Node2</title>
<g id="a_node2"><a xlink:href="openssl__wrappers_8h.html" target="_top" xlink:title=" ">
<polygon fill="white" stroke="black" points="700,-280.5 700,-299.5 813,-299.5 813,-280.5 700,-280.5"/>
<text text-anchor="middle" x="756.5" y="-287.5" font-family="Helvetica,sans-Serif" font-size="10.00">openssl_wrappers.h</text>
</a>
</g>
</g>
<!-- Node1&#45;&gt;Node2 -->
<g id="edge1" class="edge">
<title>Node1&#45;&gt;Node2</title>
<path fill="none" stroke="midnightblue" d="M1211.57,-344.3C1118.46,-333.39 925.55,-310.8 823.37,-298.83"/>
<polygon fill="midnightblue" stroke="midnightblue" points="823.51,-295.32 813.17,-297.64 822.7,-302.28 823.51,-295.32"/>
</g>
<!-- Node15 -->
<g id="node15" class="node">
<title>Node15</title>
<g id="a_node15"><a xlink:title=" ">
<polygon fill="white" stroke="#bfbfbf" points="991,-56.5 991,-75.5 1070,-75.5 1070,-56.5 991,-56.5"/>
<text text-anchor="middle" x="1030.5" y="-63.5" font-family="Helvetica,sans-Serif" font-size="10.00">fmt/format.h</text>
</a>
</g>
</g>
<!-- Node1&#45;&gt;Node15 -->
<g id="edge38" class="edge">
<title>Node1&#45;&gt;Node15</title>
<path fill="none" stroke="midnightblue" d="M1257.46,-336.31C1247.5,-314.91 1230.5,-272.83 1230.5,-235 1230.5,-235 1230.5,-235 1230.5,-177 1230.5,-108.45 1139.17,-82.31 1079.95,-72.57"/>
<polygon fill="midnightblue" stroke="midnightblue" points="1080.43,-69.11 1070.01,-71.04 1079.36,-76.02 1080.43,-69.11"/>
</g>
<!-- Node31 -->
<g id="node31" class="node">
<title>Node31</title>
<g id="a_node31"><a xlink:title=" ">
<polygon fill="white" stroke="#bfbfbf" points="1259,-280.5 1259,-299.5 1338,-299.5 1338,-280.5 1259,-280.5"/>
<text text-anchor="middle" x="1298.5" y="-287.5" font-family="Helvetica,sans-Serif" font-size="10.00">fmt/chrono.h</text>
</a>
</g>
</g>
<!-- Node1&#45;&gt;Node31 -->
<g id="edge37" class="edge">
<title>Node1&#45;&gt;Node31</title>
<path fill="none" stroke="midnightblue" d="M1272.56,-336.4C1277.35,-328.02 1283.46,-317.33 1288.54,-308.42"/>
<polygon fill="midnightblue" stroke="midnightblue" points="1291.63,-310.08 1293.55,-299.66 1285.55,-306.6 1291.63,-310.08"/>
</g>
<!-- Node32 -->
<g id="node32" class="node">
<title>Node32</title>
<g id="a_node32"><a xlink:title=" ">
<polygon fill="white" stroke="#bfbfbf" points="1356.5,-280.5 1356.5,-299.5 1404.5,-299.5 1404.5,-280.5 1356.5,-280.5"/>
<text text-anchor="middle" x="1380.5" y="-287.5" font-family="Helvetica,sans-Serif" font-size="10.00">time.h</text>
</a>
</g>
</g>
<!-- Node1&#45;&gt;Node32 -->
<g id="edge39" class="edge">
<title>Node1&#45;&gt;Node32</title>
<path fill="none" stroke="midnightblue" d="M1291.99,-336.4C1310.93,-326.68 1335.94,-313.86 1354.54,-304.31"/>
<polygon fill="midnightblue" stroke="midnightblue" points="1356.32,-307.34 1363.62,-299.66 1353.13,-301.11 1356.32,-307.34"/>
</g>
<!-- Node3 -->
<g id="node3" class="node">
<title>Node3</title>
<g id="a_node3"><a xlink:href="pem_8h.html" target="_top" xlink:title=" ">
<polygon fill="white" stroke="black" points="78.5,-224.5 78.5,-243.5 176.5,-243.5 176.5,-224.5 78.5,-224.5"/>
<text text-anchor="middle" x="127.5" y="-231.5" font-family="Helvetica,sans-Serif" font-size="10.00">ccf/crypto/pem.h</text>
</a>
</g>
</g>
<!-- Node2&#45;&gt;Node3 -->
<g id="edge2" class="edge">
<title>Node2&#45;&gt;Node3</title>
<path fill="none" stroke="midnightblue" d="M699.63,-285.94C598.55,-280.19 380.77,-266.4 186.62,-244.04"/>
<polygon fill="midnightblue" stroke="midnightblue" points="186.85,-240.55 176.51,-242.87 186.04,-247.5 186.85,-240.55"/>
</g>
<!-- Node2&#45;&gt;Node15 -->
<g id="edge26" class="edge">
<title>Node2&#45;&gt;Node15</title>
<path fill="none" stroke="midnightblue" d="M813.27,-286.64C917.18,-281.74 1129.38,-268.78 1151.5,-244 1200.87,-188.69 1100.18,-112.31 1053.04,-81.12"/>
<polygon fill="midnightblue" stroke="midnightblue" points="1054.94,-78.18 1044.65,-75.67 1051.13,-84.05 1054.94,-78.18"/>
</g>
<!-- Node20 -->
<g id="node20" class="node">
<title>Node20</title>
<g id="a_node20"><a xlink:title=" ">
<polygon fill="white" stroke="#bfbfbf" points="812.5,-168.5 812.5,-187.5 870.5,-187.5 870.5,-168.5 812.5,-168.5"/>
<text text-anchor="middle" x="841.5" y="-175.5" font-family="Helvetica,sans-Serif" font-size="10.00">memory</text>
</a>
</g>
</g>
<!-- Node2&#45;&gt;Node20 -->
<g id="edge27" class="edge">
<title>Node2&#45;&gt;Node20</title>
<path fill="none" stroke="midnightblue" d="M813.33,-286.34C913.86,-281.06 1114.49,-267.65 1135.5,-244 1141.4,-237.35 1141.29,-230.74 1135.5,-224 1103.12,-186.29 953.15,-179.85 880.78,-178.97"/>
<polygon fill="midnightblue" stroke="midnightblue" points="880.72,-175.47 870.69,-178.88 880.66,-182.47 880.72,-175.47"/>
</g>
<!-- Node22 -->
<g id="node22" class="node">
<title>Node22</title>
<g id="a_node22"><a xlink:title=" ">
<polygon fill="white" stroke="#bfbfbf" points="195,-224.5 195,-243.5 284,-243.5 284,-224.5 195,-224.5"/>
<text text-anchor="middle" x="239.5" y="-231.5" font-family="Helvetica,sans-Serif" font-size="10.00">openssl/asn1.h</text>
</a>
</g>
</g>
<!-- Node2&#45;&gt;Node22 -->
<g id="edge28" class="edge">
<title>Node2&#45;&gt;Node22</title>
<path fill="none" stroke="midnightblue" d="M699.92,-284.83C614.26,-278.22 446.32,-264.13 294.28,-244.16"/>
<polygon fill="midnightblue" stroke="midnightblue" points="294.66,-240.68 284.29,-242.84 293.74,-247.62 294.66,-240.68"/>
</g>
<!-- Node23 -->
<g id="node23" class="node">
<title>Node23</title>
<g id="a_node23"><a xlink:title=" ">
<polygon fill="white" stroke="#bfbfbf" points="302,-224.5 302,-243.5 379,-243.5 379,-224.5 302,-224.5"/>
<text text-anchor="middle" x="340.5" y="-231.5" font-family="Helvetica,sans-Serif" font-size="10.00">openssl/ec.h</text>
</a>
</g>
</g>
<!-- Node2&#45;&gt;Node23 -->
<g id="edge29" class="edge">
<title>Node2&#45;&gt;Node23</title>
<path fill="none" stroke="midnightblue" d="M699.76,-283.29C629.22,-275.92 504.94,-262.06 389.28,-244.2"/>
<polygon fill="midnightblue" stroke="midnightblue" points="389.61,-240.71 379.19,-242.62 388.53,-247.62 389.61,-240.71"/>
</g>
<!-- Node24 -->
<g id="node24" class="node">
<title>Node24</title>
<g id="a_node24"><a xlink:title=" ">
<polygon fill="white" stroke="#bfbfbf" points="397,-224.5 397,-243.5 496,-243.5 496,-224.5 397,-224.5"/>
<text text-anchor="middle" x="446.5" y="-231.5" font-family="Helvetica,sans-Serif" font-size="10.00">openssl/engine.h</text>
</a>
</g>
</g>
<!-- Node2&#45;&gt;Node24 -->
<g id="edge30" class="edge">
<title>Node2&#45;&gt;Node24</title>
<path fill="none" stroke="midnightblue" d="M707.38,-280.44C652.62,-270.9 564.09,-255.48 505.59,-245.29"/>
<polygon fill="midnightblue" stroke="midnightblue" points="505.84,-241.78 495.39,-243.52 504.64,-248.68 505.84,-241.78"/>
</g>
<!-- Node25 -->
<g id="node25" class="node">
<title>Node25</title>
<g id="a_node25"><a xlink:title=" ">
<polygon fill="white" stroke="#bfbfbf" points="514,-224.5 514,-243.5 593,-243.5 593,-224.5 514,-224.5"/>
<text text-anchor="middle" x="553.5" y="-231.5" font-family="Helvetica,sans-Serif" font-size="10.00">openssl/err.h</text>
</a>
</g>
</g>
<!-- Node2&#45;&gt;Node25 -->
<g id="edge31" class="edge">
<title>Node2&#45;&gt;Node25</title>
<path fill="none" stroke="midnightblue" d="M724.33,-280.44C689.44,-271.16 633.61,-256.31 595.33,-246.13"/>
<polygon fill="midnightblue" stroke="midnightblue" points="596.08,-242.7 585.52,-243.52 594.28,-249.47 596.08,-242.7"/>
</g>
<!-- Node26 -->
<g id="node26" class="node">
<title>Node26</title>
<g id="a_node26"><a xlink:title=" ">
<polygon fill="white" stroke="#bfbfbf" points="610.5,-224.5 610.5,-243.5 694.5,-243.5 694.5,-224.5 610.5,-224.5"/>
<text text-anchor="middle" x="652.5" y="-231.5" font-family="Helvetica,sans-Serif" font-size="10.00">openssl/evp.h</text>
</a>
</g>
</g>
<!-- Node2&#45;&gt;Node26 -->
<g id="edge32" class="edge">
<title>Node2&#45;&gt;Node26</title>
<path fill="none" stroke="midnightblue" d="M739.79,-280.32C723.19,-271.7 697.5,-258.36 678.28,-248.39"/>
<polygon fill="midnightblue" stroke="midnightblue" points="679.66,-245.16 669.17,-243.65 676.43,-251.37 679.66,-245.16"/>
</g>
<!-- Node27 -->
<g id="node27" class="node">
<title>Node27</title>
<g id="a_node27"><a xlink:title=" ">
<polygon fill="white" stroke="#bfbfbf" points="712.5,-224.5 712.5,-243.5 800.5,-243.5 800.5,-224.5 712.5,-224.5"/>
<text text-anchor="middle" x="756.5" y="-231.5" font-family="Helvetica,sans-Serif" font-size="10.00">openssl/pem.h</text>
</a>
</g>
</g>
<!-- Node2&#45;&gt;Node27 -->
<g id="edge33" class="edge">
<title>Node2&#45;&gt;Node27</title>
<path fill="none" stroke="midnightblue" d="M756.5,-280.08C756.5,-273.01 756.5,-262.86 756.5,-253.99"/>
<polygon fill="midnightblue" stroke="midnightblue" points="760,-253.75 756.5,-243.75 753,-253.75 760,-253.75"/>
</g>
<!-- Node28 -->
<g id="node28" class="node">
<title>Node28</title>
<g id="a_node28"><a xlink:title=" ">
<polygon fill="white" stroke="#bfbfbf" points="818.5,-224.5 818.5,-243.5 898.5,-243.5 898.5,-224.5 818.5,-224.5"/>
<text text-anchor="middle" x="858.5" y="-231.5" font-family="Helvetica,sans-Serif" font-size="10.00">openssl/ssl.h</text>
</a>
</g>
</g>
<!-- Node2&#45;&gt;Node28 -->
<g id="edge34" class="edge">
<title>Node2&#45;&gt;Node28</title>
<path fill="none" stroke="midnightblue" d="M772.89,-280.32C789.17,-271.7 814.37,-258.36 833.22,-248.39"/>
<polygon fill="midnightblue" stroke="midnightblue" points="834.95,-251.43 842.15,-243.65 831.68,-245.24 834.95,-251.43"/>
</g>
<!-- Node29 -->
<g id="node29" class="node">
<title>Node29</title>
<g id="a_node29"><a xlink:title=" ">
<polygon fill="white" stroke="#bfbfbf" points="916.5,-224.5 916.5,-243.5 1006.5,-243.5 1006.5,-224.5 916.5,-224.5"/>
<text text-anchor="middle" x="961.5" y="-231.5" font-family="Helvetica,sans-Serif" font-size="10.00">openssl/x509.h</text>
</a>
</g>
</g>
<!-- Node2&#45;&gt;Node29 -->
<g id="edge35" class="edge">
<title>Node2&#45;&gt;Node29</title>
<path fill="none" stroke="midnightblue" d="M788.98,-280.44C824.22,-271.16 880.6,-256.31 919.26,-246.13"/>
<polygon fill="midnightblue" stroke="midnightblue" points="920.39,-249.45 929.17,-243.52 918.61,-242.68 920.39,-249.45"/>
</g>
<!-- Node30 -->
<g id="node30" class="node">
<title>Node30</title>
<g id="a_node30"><a xlink:title=" ">
<polygon fill="white" stroke="#bfbfbf" points="1024.5,-224.5 1024.5,-243.5 1126.5,-243.5 1126.5,-224.5 1024.5,-224.5"/>
<text text-anchor="middle" x="1075.5" y="-231.5" font-family="Helvetica,sans-Serif" font-size="10.00">openssl/x509v3.h</text>
</a>
</g>
</g>
<!-- Node2&#45;&gt;Node30 -->
<g id="edge36" class="edge">
<title>Node2&#45;&gt;Node30</title>
<path fill="none" stroke="midnightblue" d="M807.05,-280.44C863.51,-270.89 954.87,-255.42 1015.07,-245.23"/>
<polygon fill="midnightblue" stroke="midnightblue" points="1015.91,-248.64 1025.19,-243.52 1014.75,-241.73 1015.91,-248.64"/>
</g>
<!-- Node4 -->
<g id="node4" class="node">
<title>Node4</title>
<g id="a_node4"><a xlink:href="json_8h.html" target="_top" xlink:title=" ">
<polygon fill="white" stroke="black" points="302,-168.5 302,-187.5 379,-187.5 379,-168.5 302,-168.5"/>
<text text-anchor="middle" x="340.5" y="-175.5" font-family="Helvetica,sans-Serif" font-size="10.00">ccf/ds/json.h</text>
</a>
</g>
</g>
<!-- Node3&#45;&gt;Node4 -->
<g id="edge3" class="edge">
<title>Node3&#45;&gt;Node4</title>
<path fill="none" stroke="midnightblue" d="M161.25,-224.44C198.02,-215.12 256.95,-200.18 297.12,-190"/>
<polygon fill="midnightblue" stroke="midnightblue" points="298.07,-193.37 306.91,-187.52 296.35,-186.58 298.07,-193.37"/>
</g>
<!-- Node7 -->
<g id="node7" class="node">
<title>Node7</title>
<g id="a_node7"><a xlink:title=" ">
<polygon fill="white" stroke="#bfbfbf" points="128,-0.5 128,-19.5 175,-19.5 175,-0.5 128,-0.5"/>
<text text-anchor="middle" x="151.5" y="-7.5" font-family="Helvetica,sans-Serif" font-size="10.00">vector</text>
</a>
</g>
</g>
<!-- Node3&#45;&gt;Node7 -->
<g id="edge25" class="edge">
<title>Node3&#45;&gt;Node7</title>
<path fill="none" stroke="midnightblue" d="M128.47,-224.37C129.48,-215.32 131.12,-200.66 132.5,-188 138.78,-130.54 146.02,-62.56 149.47,-30.11"/>
<polygon fill="midnightblue" stroke="midnightblue" points="152.99,-30.16 150.56,-19.84 146.03,-29.42 152.99,-30.16"/>
</g>
<!-- Node13 -->
<g id="node13" class="node">
<title>Node13</title>
<g id="a_node13"><a xlink:title=" ">
<polygon fill="white" stroke="#bfbfbf" points="193,-0.5 193,-19.5 266,-19.5 266,-0.5 193,-0.5"/>
<text text-anchor="middle" x="229.5" y="-7.5" font-family="Helvetica,sans-Serif" font-size="10.00">string_view</text>
</a>
</g>
</g>
<!-- Node3&#45;&gt;Node13 -->
<g id="edge24" class="edge">
<title>Node3&#45;&gt;Node13</title>
<path fill="none" stroke="midnightblue" d="M131.55,-224.39C135.8,-215.34 142.66,-200.69 148.5,-188 175.46,-129.47 181.54,-114.53 208.5,-56 212.65,-46.98 217.32,-36.97 221.2,-28.68"/>
<polygon fill="midnightblue" stroke="midnightblue" points="224.37,-30.16 225.45,-19.61 218.04,-27.18 224.37,-30.16"/>
</g>
<!-- Node18 -->
<g id="node18" class="node">
<title>Node18</title>
<g id="a_node18"><a xlink:title=" ">
<polygon fill="white" stroke="#bfbfbf" points="397.5,-168.5 397.5,-187.5 447.5,-187.5 447.5,-168.5 397.5,-168.5"/>
<text text-anchor="middle" x="422.5" y="-175.5" font-family="Helvetica,sans-Serif" font-size="10.00">cstring</text>
</a>
</g>
</g>
<!-- Node3&#45;&gt;Node18 -->
<g id="edge20" class="edge">
<title>Node3&#45;&gt;Node18</title>
<path fill="none" stroke="midnightblue" d="M176.53,-225C240.28,-214.51 348.14,-196.45 387.5,-188 387.6,-187.98 387.7,-187.96 387.8,-187.94"/>
<polygon fill="midnightblue" stroke="midnightblue" points="388.37,-191.4 397.32,-185.73 386.79,-184.58 388.37,-191.4"/>
</g>
<!-- Node19 -->
<g id="node19" class="node">
<title>Node19</title>
<g id="a_node19"><a xlink:title=" ">
<polygon fill="white" stroke="#bfbfbf" points="0,-168.5 0,-187.5 65,-187.5 65,-168.5 0,-168.5"/>
<text text-anchor="middle" x="32.5" y="-175.5" font-family="Helvetica,sans-Serif" font-size="10.00">exception</text>
</a>
</g>
</g>
<!-- Node3&#45;&gt;Node19 -->
<g id="edge21" class="edge">
<title>Node3&#45;&gt;Node19</title>
<path fill="none" stroke="midnightblue" d="M112.24,-224.32C97.28,-215.82 74.25,-202.73 56.77,-192.8"/>
<polygon fill="midnightblue" stroke="midnightblue" points="58.15,-189.55 47.73,-187.65 54.69,-195.64 58.15,-189.55"/>
</g>
<!-- Node3&#45;&gt;Node20 -->
<g id="edge22" class="edge">
<title>Node3&#45;&gt;Node20</title>
<path fill="none" stroke="midnightblue" d="M176.51,-225.09C179.55,-224.7 182.56,-224.33 185.5,-224 418.62,-197.97 700.14,-184.73 802.17,-180.52"/>
<polygon fill="midnightblue" stroke="midnightblue" points="802.47,-184.02 812.32,-180.11 802.19,-177.02 802.47,-184.02"/>
</g>
<!-- Node21 -->
<g id="node21" class="node">
<title>Node21</title>
<g id="a_node21"><a xlink:title=" ">
<polygon fill="white" stroke="#bfbfbf" points="83.5,-168.5 83.5,-187.5 123.5,-187.5 123.5,-168.5 83.5,-168.5"/>
<text text-anchor="middle" x="103.5" y="-175.5" font-family="Helvetica,sans-Serif" font-size="10.00">span</text>
</a>
</g>
</g>
<!-- Node3&#45;&gt;Node21 -->
<g id="edge23" class="edge">
<title>Node3&#45;&gt;Node21</title>
<path fill="none" stroke="midnightblue" d="M123.54,-224.08C120.29,-216.77 115.58,-206.18 111.55,-197.1"/>
<polygon fill="midnightblue" stroke="midnightblue" points="114.65,-195.47 107.39,-187.75 108.25,-198.31 114.65,-195.47"/>
</g>
<!-- Node5 -->
<g id="node5" class="node">
<title>Node5</title>
<g id="a_node5"><a xlink:href="include_2ccf_2crypto_2base64_8h.html" target="_top" xlink:title=" ">
<polygon fill="white" stroke="black" points="217.5,-56.5 217.5,-75.5 329.5,-75.5 329.5,-56.5 217.5,-56.5"/>
<text text-anchor="middle" x="273.5" y="-63.5" font-family="Helvetica,sans-Serif" font-size="10.00">ccf/crypto/base64.h</text>
</a>
</g>
</g>
<!-- Node4&#45;&gt;Node5 -->
<g id="edge4" class="edge">
<title>Node4&#45;&gt;Node5</title>
<path fill="none" stroke="midnightblue" d="M335.24,-168.37C324.23,-150.3 298.58,-108.18 284.04,-84.31"/>
<polygon fill="midnightblue" stroke="midnightblue" points="286.92,-82.31 278.73,-75.59 280.95,-85.95 286.92,-82.31"/>
</g>
<!-- Node8 -->
<g id="node8" class="node">
<title>Node8</title>
<g id="a_node8"><a xlink:href="include_2ccf_2ds_2json__schema_8h.html" target="_top" xlink:title=" ">
<polygon fill="white" stroke="black" points="332,-112.5 332,-131.5 453,-131.5 453,-112.5 332,-112.5"/>
<text text-anchor="middle" x="392.5" y="-119.5" font-family="Helvetica,sans-Serif" font-size="10.00">ccf/ds/json_schema.h</text>
</a>
</g>
</g>
<!-- Node4&#45;&gt;Node8 -->
<g id="edge7" class="edge">
<title>Node4&#45;&gt;Node8</title>
<path fill="none" stroke="midnightblue" d="M349.09,-168.08C356.66,-160.22 367.88,-148.57 377.01,-139.08"/>
<polygon fill="midnightblue" stroke="midnightblue" points="379.66,-141.38 384.07,-131.75 374.62,-136.53 379.66,-141.38"/>
</g>
<!-- Node4&#45;&gt;Node15 -->
<g id="edge18" class="edge">
<title>Node4&#45;&gt;Node15</title>
<path fill="none" stroke="midnightblue" d="M379.26,-169.63C382.38,-169.07 385.49,-168.52 388.5,-168 609.05,-129.98 873.24,-90.24 981.05,-74.28"/>
<polygon fill="midnightblue" stroke="midnightblue" points="981.6,-77.73 990.98,-72.8 980.58,-70.81 981.6,-77.73"/>
</g>
<!-- Node17 -->
<g id="node17" class="node">
<title>Node17</title>
<g id="a_node17"><a xlink:title=" ">
<polygon fill="white" stroke="#bfbfbf" points="471.5,-112.5 471.5,-131.5 527.5,-131.5 527.5,-112.5 471.5,-112.5"/>
<text text-anchor="middle" x="499.5" y="-119.5" font-family="Helvetica,sans-Serif" font-size="10.00">sstream</text>
</a>
</g>
</g>
<!-- Node4&#45;&gt;Node17 -->
<g id="edge19" class="edge">
<title>Node4&#45;&gt;Node17</title>
<path fill="none" stroke="midnightblue" d="M365.69,-168.44C392.44,-159.36 434.9,-144.94 464.81,-134.78"/>
<polygon fill="midnightblue" stroke="midnightblue" points="466.08,-138.05 474.42,-131.52 463.83,-131.42 466.08,-138.05"/>
</g>
<!-- Node6 -->
<g id="node6" class="node">
<title>Node6</title>
<g id="a_node6"><a xlink:title=" ">
<polygon fill="white" stroke="#bfbfbf" points="284.5,-0.5 284.5,-19.5 328.5,-19.5 328.5,-0.5 284.5,-0.5"/>
<text text-anchor="middle" x="306.5" y="-7.5" font-family="Helvetica,sans-Serif" font-size="10.00">string</text>
</a>
</g>
</g>
<!-- Node5&#45;&gt;Node6 -->
<g id="edge5" class="edge">
<title>Node5&#45;&gt;Node6</title>
<path fill="none" stroke="midnightblue" d="M278.95,-56.08C283.51,-48.61 290.17,-37.72 295.79,-28.52"/>
<polygon fill="midnightblue" stroke="midnightblue" points="298.92,-30.11 301.15,-19.75 292.95,-26.46 298.92,-30.11"/>
</g>
<!-- Node5&#45;&gt;Node7 -->
<g id="edge6" class="edge">
<title>Node5&#45;&gt;Node7</title>
<path fill="none" stroke="midnightblue" d="M254.17,-56.44C234.18,-47.6 202.76,-33.69 179.94,-23.59"/>
<polygon fill="midnightblue" stroke="midnightblue" points="181.3,-20.36 170.74,-19.52 178.47,-26.76 181.3,-20.36"/>
</g>
<!-- Node9 -->
<g id="node9" class="node">
<title>Node9</title>
<g id="a_node9"><a xlink:href="nonstd_8h.html" target="_top" xlink:title=" ">
<polygon fill="white" stroke="black" points="347.5,-56.5 347.5,-75.5 437.5,-75.5 437.5,-56.5 347.5,-56.5"/>
<text text-anchor="middle" x="392.5" y="-63.5" font-family="Helvetica,sans-Serif" font-size="10.00">ccf/ds/nonstd.h</text>
</a>
</g>
</g>
<!-- Node8&#45;&gt;Node9 -->
<g id="edge8" class="edge">
<title>Node8&#45;&gt;Node9</title>
<path fill="none" stroke="midnightblue" d="M392.5,-112.08C392.5,-105.01 392.5,-94.86 392.5,-85.99"/>
<polygon fill="midnightblue" stroke="midnightblue" points="396,-85.75 392.5,-75.75 389,-85.75 396,-85.75"/>
</g>
<!-- Node8&#45;&gt;Node15 -->
<g id="edge16" class="edge">
<title>Node8&#45;&gt;Node15</title>
<path fill="none" stroke="midnightblue" d="M453.19,-113.01C456.33,-112.66 459.45,-112.32 462.5,-112 653.74,-92.14 882.02,-76.5 980.85,-70.12"/>
<polygon fill="midnightblue" stroke="midnightblue" points="981.09,-73.61 990.84,-69.47 980.64,-66.62 981.09,-73.61"/>
</g>
<!-- Node16 -->
<g id="node16" class="node">
<title>Node16</title>
<g id="a_node16"><a xlink:title=" ">
<polygon fill="white" stroke="#bfbfbf" points="455.5,-56.5 455.5,-75.5 565.5,-75.5 565.5,-56.5 455.5,-56.5"/>
<text text-anchor="middle" x="510.5" y="-63.5" font-family="Helvetica,sans-Serif" font-size="10.00">nlohmann/json.hpp</text>
</a>
</g>
</g>
<!-- Node8&#45;&gt;Node16 -->
<g id="edge17" class="edge">
<title>Node8&#45;&gt;Node16</title>
<path fill="none" stroke="midnightblue" d="M411.2,-112.44C430.44,-103.64 460.65,-89.81 482.7,-79.72"/>
<polygon fill="midnightblue" stroke="midnightblue" points="484.25,-82.86 491.89,-75.52 481.34,-76.5 484.25,-82.86"/>
</g>
<!-- Node9&#45;&gt;Node6 -->
<g id="edge12" class="edge">
<title>Node9&#45;&gt;Node6</title>
<path fill="none" stroke="midnightblue" d="M378.68,-56.32C365.27,-47.9 344.68,-34.97 328.91,-25.07"/>
<polygon fill="midnightblue" stroke="midnightblue" points="330.61,-22.01 320.28,-19.65 326.89,-27.94 330.61,-22.01"/>
</g>
<!-- Node9&#45;&gt;Node7 -->
<g id="edge15" class="edge">
<title>Node9&#45;&gt;Node7</title>
<path fill="none" stroke="midnightblue" d="M349.09,-56.47C308.84,-48.38 247.09,-35.51 185.16,-20.31"/>
<polygon fill="midnightblue" stroke="midnightblue" points="185.77,-16.85 175.22,-17.85 184.09,-23.65 185.77,-16.85"/>
</g>
<!-- Node10 -->
<g id="node10" class="node">
<title>Node10</title>
<g id="a_node10"><a xlink:title=" ">
<polygon fill="white" stroke="#bfbfbf" points="346.5,-0.5 346.5,-19.5 410.5,-19.5 410.5,-0.5 346.5,-0.5"/>
<text text-anchor="middle" x="378.5" y="-7.5" font-family="Helvetica,sans-Serif" font-size="10.00">algorithm</text>
</a>
</g>
</g>
<!-- Node9&#45;&gt;Node10 -->
<g id="edge9" class="edge">
<title>Node9&#45;&gt;Node10</title>
<path fill="none" stroke="midnightblue" d="M390.19,-56.08C388.33,-48.93 385.66,-38.64 383.35,-29.69"/>
<polygon fill="midnightblue" stroke="midnightblue" points="386.67,-28.55 380.77,-19.75 379.89,-30.31 386.67,-28.55"/>
</g>
<!-- Node11 -->
<g id="node11" class="node">
<title>Node11</title>
<g id="a_node11"><a xlink:title=" ">
<polygon fill="white" stroke="#bfbfbf" points="428.5,-0.5 428.5,-19.5 470.5,-19.5 470.5,-0.5 428.5,-0.5"/>
<text text-anchor="middle" x="449.5" y="-7.5" font-family="Helvetica,sans-Serif" font-size="10.00">array</text>
</a>
</g>
</g>
<!-- Node9&#45;&gt;Node11 -->
<g id="edge10" class="edge">
<title>Node9&#45;&gt;Node11</title>
<path fill="none" stroke="midnightblue" d="M401.66,-56.32C410,-48.42 422.53,-36.55 432.68,-26.94"/>
<polygon fill="midnightblue" stroke="midnightblue" points="435.32,-29.25 440.18,-19.83 430.51,-24.17 435.32,-29.25"/>
</g>
<!-- Node12 -->
<g id="node12" class="node">
<title>Node12</title>
<g id="a_node12"><a xlink:title=" ">
<polygon fill="white" stroke="#bfbfbf" points="489,-0.5 489,-19.5 538,-19.5 538,-0.5 489,-0.5"/>
<text text-anchor="middle" x="513.5" y="-7.5" font-family="Helvetica,sans-Serif" font-size="10.00">cctype</text>
</a>
</g>
</g>
<!-- Node9&#45;&gt;Node12 -->
<g id="edge11" class="edge">
<title>Node9&#45;&gt;Node12</title>
<path fill="none" stroke="midnightblue" d="M411.67,-56.44C431.41,-47.64 462.39,-33.81 484.99,-23.72"/>
<polygon fill="midnightblue" stroke="midnightblue" points="486.71,-26.79 494.42,-19.52 483.86,-20.4 486.71,-26.79"/>
</g>
<!-- Node9&#45;&gt;Node13 -->
<g id="edge13" class="edge">
<title>Node9&#45;&gt;Node13</title>
<path fill="none" stroke="midnightblue" d="M366.67,-56.44C339.25,-47.36 295.72,-32.94 265.07,-22.78"/>
<polygon fill="midnightblue" stroke="midnightblue" points="265.8,-19.34 255.21,-19.52 263.6,-25.98 265.8,-19.34"/>
</g>
<!-- Node14 -->
<g id="node14" class="node">
<title>Node14</title>
<g id="a_node14"><a xlink:title=" ">
<polygon fill="white" stroke="#bfbfbf" points="556,-0.5 556,-19.5 625,-19.5 625,-0.5 556,-0.5"/>
<text text-anchor="middle" x="590.5" y="-7.5" font-family="Helvetica,sans-Serif" font-size="10.00">type_traits</text>
</a>
</g>
</g>
<!-- Node9&#45;&gt;Node14 -->
<g id="edge14" class="edge">
<title>Node9&#45;&gt;Node14</title>
<path fill="none" stroke="midnightblue" d="M423.87,-56.44C457.76,-47.2 511.9,-32.44 549.22,-22.26"/>
<polygon fill="midnightblue" stroke="midnightblue" points="550.55,-25.52 559.27,-19.52 548.7,-18.77 550.55,-25.52"/>
</g>
</g>
</svg>
        <g id="navigator" transform="translate(0 0)" fill="#404254">
                <rect fill="#f2f5e9" fill-opacity="0.5" stroke="#606060" stroke-width=".5" x="0" y="0" width="60" height="60"/>
                <use id="zoomplus" xlink:href="#zoomPlus" x="17" y="9" onmousedown="handleZoom(evt,'in')"/>
                <use id="zoomminus" xlink:href="#zoomMin" x="42" y="9" onmousedown="handleZoom(evt,'out')"/>
                <use id="reset" xlink:href="#resetDef" x="30" y="36" onmousedown="handleReset()"/>
                <g id="arrowUp" xlink:href="#dirArrow" transform="translate(30 24)" onmousedown="handlePan(0,-1)">
                  <use xlink:href="#rim" fill="#404040">
                        <set attributeName="fill" to="#808080" begin="arrowUp.mouseover" end="arrowUp.mouseout"/>
                  </use>
                  <path fill="none" stroke="white" stroke-width="1.5" d="M0,-3.0v7 M-2.5,-0.5L0,-3.0L2.5,-0.5"/>
                </g>
                <g id="arrowRight" xlink:href="#dirArrow" transform="rotate(90) translate(36 -43)" onmousedown="handlePan(1,0)">
                  <use xlink:href="#rim" fill="#404040">
                        <set attributeName="fill" to="#808080" begin="arrowRight.mouseover" end="arrowRight.mouseout"/>
                  </use>
                  <path fill="none" stroke="white" stroke-width="1.5" d="M0,-3.0v7 M-2.5,-0.5L0,-3.0L2.5,-0.5"/>
                </g>
                <g id="arrowDown" xlink:href="#dirArrow" transform="rotate(180) translate(-30 -48)" onmousedown="handlePan(0,1)">
                  <use xlink:href="#rim" fill="#404040">
                        <set attributeName="fill" to="#808080" begin="arrowDown.mouseover" end="arrowDown.mouseout"/>
                  </use>
                  <path fill="none" stroke="white" stroke-width="1.5" d="M0,-3.0v7 M-2.5,-0.5L0,-3.0L2.5,-0.5"/>
                </g>
                <g id="arrowLeft" xlink:href="#dirArrow" transform="rotate(270) translate(-36 17)" onmousedown="handlePan(-1,0)">
                  <use xlink:href="#rim" fill="#404040">
                        <set attributeName="fill" to="#808080" begin="arrowLeft.mouseover" end="arrowLeft.mouseout"/>
                  </use>
                  <path fill="none" stroke="white" stroke-width="1.5" d="M0,-3.0v7 M-2.5,-0.5L0,-3.0L2.5,-0.5"/>
                </g>
        </g>
        <svg viewBox="0 0 15 15" width="100%" height="30px" preserveAspectRatio="xMaxYMin meet">
         <g id="arrow_out" transform="scale(0.3 0.3)">
          <a xlink:href="x509__time_8h__incl_org.svg" target="_base">
           <rect id="button" ry="5" rx="5" y="6" x="6" height="38" width="38"
                fill="#f2f5e9" fill-opacity="0.5" stroke="#606060" stroke-width="1.0"/>
           <path id="arrow"
             d="M 11.500037,31.436501 C 11.940474,20.09759 22.043105,11.32322 32.158766,21.979434 L 37.068811,17.246167 C 37.068811,17.246167 37.088388,32 37.088388,32 L 22.160133,31.978069 C 22.160133,31.978069 26.997745,27.140456 26.997745,27.140456 C 18.528582,18.264221 13.291696,25.230495 11.500037,31.436501 z"
             style="fill:#404040;"/>
          </a>
         </g>
        </svg>
</svg>
